<svg xmlns="http://www.w3.org/2000/svg" xmlns:xlink="http://www.w3.org/1999/xlink" width="370.76pt" height="205.66pt" viewBox="0 0 370.76 205.66"><defs><path id="m" d="M2.332.048c0-.694-.227-1.208-.717-1.208-.383 0-.574.31-.574.574S1.22 0 1.627 0a.53.53 0 0 0 .394-.155c.024-.024.036-.024.048-.024.024 0 .024.167.024.227 0 .395-.072 1.172-.765 1.95-.132.143-.132.167-.132.19 0 .06.06.12.12.12.095 0 1.016-.885 1.016-2.26"/><path id="j" d="M4.987-7.296c.072-.287.096-.394.275-.442.096-.024.49-.024.742-.024 1.196 0 1.758.048 1.758.98 0 .18-.048.635-.12 1.077l-.012.144c0 .047.048.12.12.12.12 0 .12-.06.156-.252l.346-2.117c.024-.108.024-.131.024-.167 0-.132-.071-.132-.31-.132H1.422c-.275 0-.287.012-.359.227l-.73 2.153a1 1 0 0 0-.047.168c0 .06.048.12.12.12.095 0 .12-.049.167-.204.502-1.447.754-2.117 2.344-2.117h.802c.287 0 .406 0 .406.132 0 .035 0 .06-.06.275L2.464-.933c-.12.467-.144.586-1.412.586-.299 0-.382 0-.382.227C.67 0 .8 0 .86 0c.3 0 .61-.024.91-.024h1.865c.299 0 .622.024.92.024.132 0 .252 0 .252-.227 0-.12-.084-.12-.395-.12-1.076 0-1.076-.107-1.076-.287 0-.012 0-.096.048-.287z"/><path id="i" d="M2.464-3.504c.024-.072.323-.67.765-1.053a1.74 1.74 0 0 1 1.184-.478c.479 0 .646.359.646.837 0 .682-.49 2.045-.73 2.691-.107.287-.167.443-.167.658 0 .538.37.969.945.969 1.112 0 1.53-1.759 1.53-1.83 0-.06-.047-.108-.119-.108-.107 0-.12.036-.18.24C6.065-.599 5.61-.12 5.144-.12c-.12 0-.311-.012-.311-.394 0-.3.131-.658.203-.826.24-.657.742-1.997.742-2.679 0-.717-.419-1.255-1.328-1.255-1.064 0-1.626.753-1.842 1.052-.036-.682-.526-1.052-1.052-1.052-.383 0-.646.227-.85.634C.49-4.21.324-3.492.324-3.444s.048.107.131.107c.096 0 .108-.012.18-.287.191-.73.407-1.411.885-1.411.275 0 .37.191.37.55 0 .263-.119.73-.203 1.1l-.335 1.292c-.047.227-.179.765-.239.98C1.03-.8.897-.238.897-.178c0 .167.132.299.311.299a.46.46 0 0 0 .407-.252c.024-.06.131-.478.191-.717l.263-1.077z"/><path id="k" d="M3.887 2.906c0-.036 0-.06-.203-.263C2.488 1.435 1.818-.538 1.818-2.978c0-2.32.562-4.318 1.95-5.729.119-.108.119-.131.119-.167 0-.072-.06-.096-.108-.096-.155 0-1.136.861-1.722 2.033-.61 1.208-.885 2.488-.885 3.959 0 1.064.168 2.488.79 3.767.705 1.436 1.686 2.213 1.817 2.213.048 0 .108-.024.108-.096"/><path id="n" d="M3.373-2.978c0-.909-.12-2.392-.79-3.78C1.878-8.192.897-8.97.765-8.97c-.047 0-.107.024-.107.096 0 .036 0 .06.203.263C2.057-7.403 2.727-5.43 2.727-2.99c0 2.32-.562 4.318-1.95 5.729-.12.107-.12.131-.12.167 0 .072.06.096.108.096.156 0 1.137-.861 1.723-2.033.61-1.22.885-2.512.885-3.947"/><path id="a" d="M5.358-3.827c0-.993-.06-1.962-.49-2.87-.49-.993-1.352-1.256-1.938-1.256-.693 0-1.543.346-1.985 1.34C.61-5.86.49-5.12.49-3.828c0 1.16.084 2.033.515 2.882A2.13 2.13 0 0 0 2.918.251c1.04 0 1.639-.622 1.986-1.315.43-.897.454-2.07.454-2.763M2.918.012c-.382 0-1.16-.215-1.387-1.519-.132-.718-.132-1.627-.132-2.464 0-.98 0-1.865.192-2.571.203-.801.813-1.172 1.327-1.172.455 0 1.148.275 1.376 1.303.155.682.155 1.627.155 2.44 0 .802 0 1.71-.131 2.44C4.09-.215 3.337.012 2.918.012"/><path id="c" d="M3.444-7.666c0-.275 0-.287-.239-.287-.287.323-.885.765-2.117.765v.347c.275 0 .873 0 1.531-.311v6.231c0 .43-.036.574-1.088.574h-.37V0c.322-.024 1.482-.024 1.877-.024s1.543 0 1.866.024v-.347h-.371C3.48-.347 3.444-.49 3.444-.92z"/><path id="d" d="M5.262-2.01H5c-.036.204-.131.862-.25 1.053-.085.108-.766.108-1.125.108H1.41c.323-.275 1.053-1.04 1.364-1.328 1.818-1.674 2.487-2.296 2.487-3.48 0-1.375-1.088-2.296-2.475-2.296S.586-6.77.586-5.741c0 .61.526.61.562.61.251 0 .562-.18.562-.562 0-.335-.227-.562-.562-.562-.107 0-.131 0-.167.012.227-.813.873-1.364 1.65-1.364 1.017 0 1.639.85 1.639 1.95 0 1.017-.586 1.902-1.268 2.667L.586-.287V0h4.365z"/><path id="h" d="M2.2-4.294c-.203.012-.25.024-.25.132 0 .12.06.12.275.12h.55c1.016 0 1.47.837 1.47 1.985 0 1.567-.812 1.985-1.399 1.985-.574 0-1.554-.275-1.901-1.064.383.06.73-.156.73-.586a.565.565 0 0 0-.587-.586c-.287 0-.598.167-.598.622C.49-.622 1.555.25 2.882.25c1.424 0 2.476-1.088 2.476-2.296 0-1.1-.885-1.962-2.033-2.165 1.04-.299 1.71-1.172 1.71-2.105 0-.945-.98-1.638-2.14-1.638-1.197 0-2.082.73-2.082 1.602 0 .479.371.574.55.574.252 0 .539-.18.539-.538 0-.383-.287-.55-.55-.55-.072 0-.096 0-.132.012.454-.813 1.579-.813 1.638-.813.395 0 1.173.179 1.173 1.351 0 .227-.036.897-.383 1.411-.359.527-.766.563-1.089.574z"/><path id="g" d="M4.318-7.786c0-.227 0-.287-.168-.287-.096 0-.131 0-.227.144l-3.6 5.585v.347h3.145V-.91c0 .443-.024.562-.897.562h-.239V0c.275-.024 1.22-.024 1.555-.024s1.292 0 1.567.024v-.347h-.24c-.86 0-.896-.12-.896-.562v-1.088h1.208v-.347H4.318zm-.79.933v4.509H.622z"/><path id="b" d="M1.53-6.853c.515.167.934.18 1.065.18 1.352 0 2.213-.993 2.213-1.16 0-.049-.024-.108-.096-.108-.024 0-.048 0-.155.047a3.9 3.9 0 0 1-1.555.323c-.79 0-1.352-.239-1.579-.335-.083-.035-.107-.035-.12-.035-.095 0-.095.071-.095.263v3.552c0 .215 0 .287.143.287.06 0 .072-.012.192-.156.335-.49.897-.777 1.495-.777.634 0 .945.586 1.04.79.204.466.216 1.052.216 1.506s0 1.136-.335 1.675c-.263.43-.73.73-1.256.73-.79 0-1.567-.539-1.782-1.412.06.024.131.036.191.036.204 0 .527-.12.527-.526 0-.335-.228-.527-.527-.527-.215 0-.526.108-.526.574 0 1.017.813 2.177 2.14 2.177 1.352 0 2.536-1.136 2.536-2.655 0-1.423-.956-2.607-2.212-2.607-.682 0-1.208.299-1.52.634z"/><path id="e" d="M1.471-4.162c0-3.026 1.471-3.504 2.117-3.504.43 0 .861.131 1.088.49-.143 0-.598 0-.598.49 0 .263.18.49.49.49.3 0 .503-.179.503-.526 0-.621-.454-1.231-1.495-1.231C2.069-7.953.49-6.411.49-3.78.49-.49 1.926.25 2.942.25c1.304 0 2.416-1.136 2.416-2.69 0-1.592-1.112-2.656-2.308-2.656-1.065 0-1.46.921-1.579 1.256zm1.471 4.09c-.753 0-1.112-.67-1.22-.92-.107-.312-.227-.898-.227-1.735 0-.945.43-2.129 1.507-2.129.658 0 1.005.443 1.184.85.191.442.191 1.04.191 1.554 0 .61 0 1.148-.227 1.603-.299.574-.73.777-1.208.777"/><path id="f" d="M3.564-4.318c.598-.322 1.471-.873 1.471-1.877 0-1.04-1.004-1.758-2.105-1.758-1.184 0-2.117.873-2.117 1.961 0 .407.12.813.455 1.22.131.155.143.167.98.753C1.088-3.48.49-2.679.49-1.806.49-.538 1.698.251 2.918.251c1.328 0 2.44-.98 2.44-2.236 0-1.22-.861-1.758-1.794-2.333M1.938-5.394c-.156-.108-.634-.419-.634-1.005 0-.777.813-1.267 1.614-1.267.861 0 1.627.622 1.627 1.483 0 .73-.526 1.315-1.22 1.698zM2.5-3.851l1.447.945c.31.203.86.574.86 1.303 0 .91-.92 1.531-1.877 1.531-1.016 0-1.89-.741-1.89-1.734 0-.933.682-1.686 1.46-2.045"/><path id="l" d="M4.377-3.48c0 2.822-1.255 3.408-1.973 3.408-.287 0-.921-.036-1.22-.454h.072c.084.024.514-.048.514-.49 0-.264-.18-.491-.49-.491s-.503.203-.503.514c0 .742.598 1.244 1.639 1.244 1.495 0 2.942-1.59 2.942-4.186 0-3.217-1.34-4.018-2.392-4.018C1.65-7.953.49-6.853.49-5.274S1.603-2.62 2.8-2.62c.885 0 1.34-.646 1.578-1.256zm-1.53.622c-.754 0-1.077-.61-1.185-.838-.19-.454-.19-1.028-.19-1.566 0-.67 0-1.244.31-1.735.215-.323.538-.67 1.184-.67.682 0 1.029.599 1.148.874.24.586.24 1.602.24 1.782 0 1.004-.455 2.153-1.508 2.153"/></defs><g fill="none" stroke-miterlimit="10"><path stroke="gray" stroke-width=".19925" d="M51.336 165.132v-4.251m73.832 4.251v-4.251M199 165.132v-4.251m73.833 4.251v-4.251m73.832 4.251v-4.251M51.336 11.536v4.252m73.832-4.252v4.252M199 11.536v4.252m73.833-4.252v4.252m73.832-4.252v4.252M51.336 138.11h4.252m-4.252-28.443h4.252m-4.252-28.444h4.252M51.336 52.78h4.252m-4.252-28.444h4.252M346.665 138.11h-4.252m4.252-28.443h-4.252m4.252-28.444h-4.252m4.252-28.443h-4.252m4.252-28.444h-4.252"/><path stroke="#000" stroke-width=".3985" d="M51.336 165.132V11.536h295.329v153.596z"/></g><use xlink:href="#a" x="19.342763" y="51.163534" transform="translate(29.074 125.878)scale(1.0004)"/><g transform="translate(99.98 125.878)scale(1.0004)"><use xlink:href="#b" x="19.342763" y="51.163534"/><use xlink:href="#a" x="25.191202" y="51.163534"/></g><g transform="translate(170.886 125.878)scale(1.0004)"><use xlink:href="#c" x="19.342763" y="51.163534"/><use xlink:href="#a" x="25.191202" y="51.163534"/><use xlink:href="#a" x="31.039641" y="51.163534"/></g><g transform="translate(244.718 125.878)scale(1.0004)"><use xlink:href="#c" x="19.342763" y="51.163534"/><use xlink:href="#b" x="25.191202" y="51.163534"/><use xlink:href="#a" x="31.039641" y="51.163534"/></g><g transform="translate(318.55 125.878)scale(1.0004)"><use xlink:href="#d" x="19.342763" y="51.163534"/><use xlink:href="#a" x="25.191202" y="51.163534"/><use xlink:href="#a" x="31.039641" y="51.163534"/></g><use xlink:href="#e" x="19.342763" y="51.163534" transform="translate(21.964 90.82)scale(1.0004)"/><g transform="translate(16.111 62.376)scale(1.0004)"><use xlink:href="#c" x="19.342763" y="51.163534"/><use xlink:href="#d" x="25.191202" y="51.163534"/></g><g transform="translate(16.111 33.932)scale(1.0004)"><use xlink:href="#c" x="19.342763" y="51.163534"/><use xlink:href="#f" x="25.191202" y="51.163534"/></g><g transform="translate(16.111 5.489)scale(1.0004)"><use xlink:href="#d" x="19.342763" y="51.163534"/><use xlink:href="#g" x="25.191202" y="51.163534"/></g><g transform="translate(16.111 -22.955)scale(1.0004)"><use xlink:href="#h" x="19.342763" y="51.163534"/><use xlink:href="#a" x="25.191202" y="51.163534"/></g><path d="M53.31 152.332a.498.498 0 1 0-.996 0 .498.498 0 0 0 .997 0"/><path fill="none" stroke="#000" stroke-miterlimit="10" stroke-width=".3985" d="M53.31 152.332a.498.498 0 1 0-.996 0 .498.498 0 0 0 .997 0Z"/><path d="M54.787 138.11a.498.498 0 1 0-.996 0 .498.498 0 0 0 .996 0"/><path fill="none" stroke="#000" stroke-miterlimit="10" stroke-width=".3985" d="M54.787 138.11a.498.498 0 1 0-.996 0 .498.498 0 0 0 .996 0Z"/><path d="M56.264 123.889a.498.498 0 1 0-.996 0 .498.498 0 0 0 .996 0"/><path fill="none" stroke="#000" stroke-miterlimit="10" stroke-width=".3985" d="M56.264 123.889a.498.498 0 1 0-.996 0 .498.498 0 0 0 .996 0Z"/><path d="M57.74 138.11a.498.498 0 1 0-.996 0 .498.498 0 0 0 .997 0"/><path fill="none" stroke="#000" stroke-miterlimit="10" stroke-width=".3985" d="M57.74 138.11a.498.498 0 1 0-.996 0 .498.498 0 0 0 .997 0Z"/><path d="M59.217 109.667a.498.498 0 1 0-.996 0 .498.498 0 0 0 .996 0"/><path fill="none" stroke="#000" stroke-miterlimit="10" stroke-width=".3985" d="M59.217 109.667a.498.498 0 1 0-.996 0 .498.498 0 0 0 .996 0Z"/><path d="M60.694 123.889a.498.498 0 1 0-.996 0 .498.498 0 0 0 .996 0"/><path fill="none" stroke="#000" stroke-miterlimit="10" stroke-width=".3985" d="M60.694 123.889a.498.498 0 1 0-.996 0 .498.498 0 0 0 .996 0Z"/><path d="M62.17 123.889a.498.498 0 1 0-.996 0 .498.498 0 0 0 .997 0"/><path fill="none" stroke="#000" stroke-miterlimit="10" stroke-width=".3985" d="M62.17 123.889a.498.498 0 1 0-.996 0 .498.498 0 0 0 .997 0Z"/><path d="M63.647 95.445a.498.498 0 1 0-.996 0 .498.498 0 0 0 .996 0"/><path fill="none" stroke="#000" stroke-miterlimit="10" stroke-width=".3985" d="M63.647 95.445a.498.498 0 1 0-.996 0 .498.498 0 0 0 .996 0Z"/><path d="M65.124 109.667a.498.498 0 1 0-.996 0 .498.498 0 0 0 .996 0"/><path fill="none" stroke="#000" stroke-miterlimit="10" stroke-width=".3985" d="M65.124 109.667a.498.498 0 1 0-.996 0 .498.498 0 0 0 .996 0Z"/><path d="M66.6 123.889a.498.498 0 1 0-.996 0 .498.498 0 0 0 .997 0"/><path fill="none" stroke="#000" stroke-miterlimit="10" stroke-width=".3985" d="M66.6 123.889a.498.498 0 1 0-.996 0 .498.498 0 0 0 .997 0Z"/><path d="M68.077 95.445a.498.498 0 1 0-.996 0 .498.498 0 0 0 .996 0"/><path fill="none" stroke="#000" stroke-miterlimit="10" stroke-width=".3985" d="M68.077 95.445a.498.498 0 1 0-.996 0 .498.498 0 0 0 .996 0Z"/><path d="M69.554 109.667a.498.498 0 1 0-.996 0 .498.498 0 0 0 .996 0"/><path fill="none" stroke="#000" stroke-miterlimit="10" stroke-width=".3985" d="M69.554 109.667a.498.498 0 1 0-.996 0 .498.498 0 0 0 .996 0Z"/><path d="M71.03 109.667a.498.498 0 1 0-.996 0 .498.498 0 0 0 .996 0"/><path fill="none" stroke="#000" stroke-miterlimit="10" stroke-width=".3985" d="M71.03 109.667a.498.498 0 1 0-.996 0 .498.498 0 0 0 .996 0Z"/><path d="M72.507 123.889a.498.498 0 1 0-.996 0 .498.498 0 0 0 .996 0"/><path fill="none" stroke="#000" stroke-miterlimit="10" stroke-width=".3985" d="M72.507 123.889a.498.498 0 1 0-.996 0 .498.498 0 0 0 .996 0Z"/><path d="M73.984 109.667a.498.498 0 1 0-.996 0 .498.498 0 0 0 .996 0"/><path fill="none" stroke="#000" stroke-miterlimit="10" stroke-width=".3985" d="M73.984 109.667a.498.498 0 1 0-.996 0 .498.498 0 0 0 .996 0Z"/><path d="M75.46 123.889a.498.498 0 1 0-.996 0 .498.498 0 0 0 .996 0"/><path fill="none" stroke="#000" stroke-miterlimit="10" stroke-width=".3985" d="M75.46 123.889a.498.498 0 1 0-.996 0 .498.498 0 0 0 .996 0Z"/><path d="M76.937 123.889a.498.498 0 1 0-.996 0 .498.498 0 0 0 .996 0"/><path fill="none" stroke="#000" stroke-miterlimit="10" stroke-width=".3985" d="M76.937 123.889a.498.498 0 1 0-.996 0 .498.498 0 0 0 .996 0Z"/><path d="M78.414 95.445a.498.498 0 1 0-.997 0 .498.498 0 0 0 .997 0"/><path fill="none" stroke="#000" stroke-miterlimit="10" stroke-width=".3985" d="M78.414 95.445a.498.498 0 1 0-.997 0 .498.498 0 0 0 .997 0Z"/><path d="M79.89 95.445a.498.498 0 1 0-.996 0 .498.498 0 0 0 .996 0"/><path fill="none" stroke="#000" stroke-miterlimit="10" stroke-width=".3985" d="M79.89 95.445a.498.498 0 1 0-.996 0 .498.498 0 0 0 .996 0Z"/><path d="M81.367 95.445a.498.498 0 1 0-.996 0 .498.498 0 0 0 .996 0"/><path fill="none" stroke="#000" stroke-miterlimit="10" stroke-width=".3985" d="M81.367 95.445a.498.498 0 1 0-.996 0 .498.498 0 0 0 .996 0Z"/><path d="M82.844 123.889a.498.498 0 1 0-.997 0 .498.498 0 0 0 .997 0"/><path fill="none" stroke="#000" stroke-miterlimit="10" stroke-width=".3985" d="M82.844 123.889a.498.498 0 1 0-.997 0 .498.498 0 0 0 .997 0Z"/><path d="M84.32 123.889a.498.498 0 1 0-.996 0 .498.498 0 0 0 .996 0"/><path fill="none" stroke="#000" stroke-miterlimit="10" stroke-width=".3985" d="M84.32 123.889a.498.498 0 1 0-.996 0 .498.498 0 0 0 .996 0Z"/><path d="M85.797 95.445a.498.498 0 1 0-.996 0 .498.498 0 0 0 .996 0"/><path fill="none" stroke="#000" stroke-miterlimit="10" stroke-width=".3985" d="M85.797 95.445a.498.498 0 1 0-.996 0 .498.498 0 0 0 .996 0Z"/><path d="M87.274 109.667a.498.498 0 1 0-.997 0 .498.498 0 0 0 .997 0"/><path fill="none" stroke="#000" stroke-miterlimit="10" stroke-width=".3985" d="M87.274 109.667a.498.498 0 1 0-.997 0 .498.498 0 0 0 .997 0Z"/><path d="M88.75 81.223a.498.498 0 1 0-.996 0 .498.498 0 0 0 .996 0"/><path fill="none" stroke="#000" stroke-miterlimit="10" stroke-width=".3985" d="M88.75 81.223a.498.498 0 1 0-.996 0 .498.498 0 0 0 .996 0Z"/><path d="M90.227 95.445a.498.498 0 1 0-.996 0 .498.498 0 0 0 .996 0"/><path fill="none" stroke="#000" stroke-miterlimit="10" stroke-width=".3985" d="M90.227 95.445a.498.498 0 1 0-.996 0 .498.498 0 0 0 .996 0Z"/><path d="M91.704 95.445a.498.498 0 1 0-.997 0 .498.498 0 0 0 .997 0"/><path fill="none" stroke="#000" stroke-miterlimit="10" stroke-width=".3985" d="M91.704 95.445a.498.498 0 1 0-.997 0 .498.498 0 0 0 .997 0Z"/><path d="M93.18 109.667a.498.498 0 1 0-.996 0 .498.498 0 0 0 .996 0"/><path fill="none" stroke="#000" stroke-miterlimit="10" stroke-width=".3985" d="M93.18 109.667a.498.498 0 1 0-.996 0 .498.498 0 0 0 .996 0Z"/><path d="M94.657 109.667a.498.498 0 1 0-.996 0 .498.498 0 0 0 .996 0"/><path fill="none" stroke="#000" stroke-miterlimit="10" stroke-width=".3985" d="M94.657 109.667a.498.498 0 1 0-.996 0 .498.498 0 0 0 .996 0Z"/><path d="M96.133 95.445a.498.498 0 1 0-.996 0 .498.498 0 0 0 .996 0"/><path fill="none" stroke="#000" stroke-miterlimit="10" stroke-width=".3985" d="M96.133 95.445a.498.498 0 1 0-.996 0 .498.498 0 0 0 .996 0Z"/><path d="M97.61 95.445a.498.498 0 1 0-.996 0 .498.498 0 0 0 .996 0"/><path fill="none" stroke="#000" stroke-miterlimit="10" stroke-width=".3985" d="M97.61 95.445a.498.498 0 1 0-.996 0 .498.498 0 0 0 .996 0Z"/><path d="M99.087 109.667a.498.498 0 1 0-.997 0 .498.498 0 0 0 .997 0"/><path fill="none" stroke="#000" stroke-miterlimit="10" stroke-width=".3985" d="M99.087 109.667a.498.498 0 1 0-.997 0 .498.498 0 0 0 .997 0Z"/><path d="M100.563 109.667a.498.498 0 1 0-.996 0 .498.498 0 0 0 .996 0"/><path fill="none" stroke="#000" stroke-miterlimit="10" stroke-width=".3985" d="M100.563 109.667a.498.498 0 1 0-.996 0 .498.498 0 0 0 .996 0Z"/><path d="M102.04 52.78a.498.498 0 1 0-.996 0 .498.498 0 0 0 .996 0"/><path fill="none" stroke="#000" stroke-miterlimit="10" stroke-width=".3985" d="M102.04 52.78a.498.498 0 1 0-.996 0 .498.498 0 0 0 .996 0Z"/><path d="M103.517 95.445a.498.498 0 1 0-.997 0 .498.498 0 0 0 .997 0"/><path fill="none" stroke="#000" stroke-miterlimit="10" stroke-width=".3985" d="M103.517 95.445a.498.498 0 1 0-.997 0 .498.498 0 0 0 .997 0Z"/><path d="M104.993 123.889a.498.498 0 1 0-.996 0 .498.498 0 0 0 .996 0"/><path fill="none" stroke="#000" stroke-miterlimit="10" stroke-width=".3985" d="M104.993 123.889a.498.498 0 1 0-.996 0 .498.498 0 0 0 .996 0Z"/><path d="M106.47 109.667a.498.498 0 1 0-.996 0 .498.498 0 0 0 .996 0"/><path fill="none" stroke="#000" stroke-miterlimit="10" stroke-width=".3985" d="M106.47 109.667a.498.498 0 1 0-.996 0 .498.498 0 0 0 .996 0Z"/><path d="M107.947 95.445a.498.498 0 1 0-.997 0 .498.498 0 0 0 .997 0"/><path fill="none" stroke="#000" stroke-miterlimit="10" stroke-width=".3985" d="M107.947 95.445a.498.498 0 1 0-.997 0 .498.498 0 0 0 .997 0Z"/><path d="M109.423 109.667a.498.498 0 1 0-.996 0 .498.498 0 0 0 .996 0"/><path fill="none" stroke="#000" stroke-miterlimit="10" stroke-width=".3985" d="M109.423 109.667a.498.498 0 1 0-.996 0 .498.498 0 0 0 .996 0Z"/><path d="M110.9 123.889a.498.498 0 1 0-.996 0 .498.498 0 0 0 .996 0"/><path fill="none" stroke="#000" stroke-miterlimit="10" stroke-width=".3985" d="M110.9 123.889a.498.498 0 1 0-.996 0 .498.498 0 0 0 .996 0Z"/><path d="M112.377 109.667a.498.498 0 1 0-.997 0 .498.498 0 0 0 .997 0"/><path fill="none" stroke="#000" stroke-miterlimit="10" stroke-width=".3985" d="M112.377 109.667a.498.498 0 1 0-.997 0 .498.498 0 0 0 .997 0Z"/><path d="M113.853 123.889a.498.498 0 1 0-.996 0 .498.498 0 0 0 .996 0"/><path fill="none" stroke="#000" stroke-miterlimit="10" stroke-width=".3985" d="M113.853 123.889a.498.498 0 1 0-.996 0 .498.498 0 0 0 .996 0Z"/><path d="M115.33 81.223a.498.498 0 1 0-.996 0 .498.498 0 0 0 .996 0"/><path fill="none" stroke="#000" stroke-miterlimit="10" stroke-width=".3985" d="M115.33 81.223a.498.498 0 1 0-.996 0 .498.498 0 0 0 .996 0Z"/><path d="M116.806 95.445a.498.498 0 1 0-.996 0 .498.498 0 0 0 .996 0"/><path fill="none" stroke="#000" stroke-miterlimit="10" stroke-width=".3985" d="M116.806 95.445a.498.498 0 1 0-.996 0 .498.498 0 0 0 .996 0Z"/><path d="M118.283 109.667a.498.498 0 1 0-.996 0 .498.498 0 0 0 .996 0"/><path fill="none" stroke="#000" stroke-miterlimit="10" stroke-width=".3985" d="M118.283 109.667a.498.498 0 1 0-.996 0 .498.498 0 0 0 .996 0Z"/><path d="M119.76 81.223a.498.498 0 1 0-.997 0 .498.498 0 0 0 .997 0"/><path fill="none" stroke="#000" stroke-miterlimit="10" stroke-width=".3985" d="M119.76 81.223a.498.498 0 1 0-.997 0 .498.498 0 0 0 .997 0Z"/><path d="M121.236 95.445a.498.498 0 1 0-.996 0 .498.498 0 0 0 .996 0"/><path fill="none" stroke="#000" stroke-miterlimit="10" stroke-width=".3985" d="M121.236 95.445a.498.498 0 1 0-.996 0 .498.498 0 0 0 .996 0Z"/><path d="M122.713 95.445a.498.498 0 1 0-.996 0 .498.498 0 0 0 .996 0"/><path fill="none" stroke="#000" stroke-miterlimit="10" stroke-width=".3985" d="M122.713 95.445a.498.498 0 1 0-.996 0 .498.498 0 0 0 .996 0Z"/><path d="M124.19 123.889a.498.498 0 1 0-.997 0 .498.498 0 0 0 .997 0"/><path fill="none" stroke="#000" stroke-miterlimit="10" stroke-width=".3985" d="M124.19 123.889a.498.498 0 1 0-.997 0 .498.498 0 0 0 .997 0Z"/><path d="M125.666 109.667a.498.498 0 1 0-.996 0 .498.498 0 0 0 .996 0"/><path fill="none" stroke="#000" stroke-miterlimit="10" stroke-width=".3985" d="M125.666 109.667a.498.498 0 1 0-.996 0 .498.498 0 0 0 .996 0Z"/><path d="M127.143 95.445a.498.498 0 1 0-.996 0 .498.498 0 0 0 .996 0"/><path fill="none" stroke="#000" stroke-miterlimit="10" stroke-width=".3985" d="M127.143 95.445a.498.498 0 1 0-.996 0 .498.498 0 0 0 .996 0Z"/><path d="M128.62 67.001a.498.498 0 1 0-.997 0 .498.498 0 0 0 .997 0"/><path fill="none" stroke="#000" stroke-miterlimit="10" stroke-width=".3985" d="M128.62 67.001a.498.498 0 1 0-.997 0 .498.498 0 0 0 .997 0Z"/><path d="M130.096 95.445a.498.498 0 1 0-.996 0 .498.498 0 0 0 .996 0"/><path fill="none" stroke="#000" stroke-miterlimit="10" stroke-width=".3985" d="M130.096 95.445a.498.498 0 1 0-.996 0 .498.498 0 0 0 .996 0Z"/><path d="M131.573 95.445a.498.498 0 1 0-.996 0 .498.498 0 0 0 .996 0"/><path fill="none" stroke="#000" stroke-miterlimit="10" stroke-width=".3985" d="M131.573 95.445a.498.498 0 1 0-.996 0 .498.498 0 0 0 .996 0Z"/><path d="M133.05 123.889a.498.498 0 1 0-.997 0 .498.498 0 0 0 .997 0"/><path fill="none" stroke="#000" stroke-miterlimit="10" stroke-width=".3985" d="M133.05 123.889a.498.498 0 1 0-.997 0 .498.498 0 0 0 .997 0Z"/><path d="M134.526 109.667a.498.498 0 1 0-.996 0 .498.498 0 0 0 .996 0"/><path fill="none" stroke="#000" stroke-miterlimit="10" stroke-width=".3985" d="M134.526 109.667a.498.498 0 1 0-.996 0 .498.498 0 0 0 .996 0Z"/><path d="M136.003 123.889a.498.498 0 1 0-.996 0 .498.498 0 0 0 .996 0"/><path fill="none" stroke="#000" stroke-miterlimit="10" stroke-width=".3985" d="M136.003 123.889a.498.498 0 1 0-.996 0 .498.498 0 0 0 .996 0Z"/><path d="M137.48 123.889a.498.498 0 1 0-.997 0 .498.498 0 0 0 .996 0"/><path fill="none" stroke="#000" stroke-miterlimit="10" stroke-width=".3985" d="M137.48 123.889a.498.498 0 1 0-.997 0 .498.498 0 0 0 .996 0Z"/><path d="M138.956 109.667a.498.498 0 1 0-.996 0 .498.498 0 0 0 .996 0"/><path fill="none" stroke="#000" stroke-miterlimit="10" stroke-width=".3985" d="M138.956 109.667a.498.498 0 1 0-.996 0 .498.498 0 0 0 .996 0Z"/><path d="M140.433 81.223a.498.498 0 1 0-.997 0 .498.498 0 0 0 .997 0"/><path fill="none" stroke="#000" stroke-miterlimit="10" stroke-width=".3985" d="M140.433 81.223a.498.498 0 1 0-.997 0 .498.498 0 0 0 .997 0Z"/><path d="M141.91 109.667a.498.498 0 1 0-.997 0 .498.498 0 0 0 .996 0"/><path fill="none" stroke="#000" stroke-miterlimit="10" stroke-width=".3985" d="M141.91 109.667a.498.498 0 1 0-.997 0 .498.498 0 0 0 .996 0Z"/><path d="M143.386 67.001a.498.498 0 1 0-.996 0 .498.498 0 0 0 .996 0"/><path fill="none" stroke="#000" stroke-miterlimit="10" stroke-width=".3985" d="M143.386 67.001a.498.498 0 1 0-.996 0 .498.498 0 0 0 .996 0Z"/><path d="M144.863 81.223a.498.498 0 1 0-.997 0 .498.498 0 0 0 .997 0"/><path fill="none" stroke="#000" stroke-miterlimit="10" stroke-width=".3985" d="M144.863 81.223a.498.498 0 1 0-.997 0 .498.498 0 0 0 .997 0Z"/><path d="M146.34 67.001a.498.498 0 1 0-.997 0 .498.498 0 0 0 .996 0"/><path fill="none" stroke="#000" stroke-miterlimit="10" stroke-width=".3985" d="M146.34 67.001a.498.498 0 1 0-.997 0 .498.498 0 0 0 .996 0Z"/><path d="M147.816 109.667a.498.498 0 1 0-.996 0 .498.498 0 0 0 .996 0"/><path fill="none" stroke="#000" stroke-miterlimit="10" stroke-width=".3985" d="M147.816 109.667a.498.498 0 1 0-.996 0 .498.498 0 0 0 .996 0Z"/><path d="M149.293 67.001a.498.498 0 1 0-.997 0 .498.498 0 0 0 .997 0"/><path fill="none" stroke="#000" stroke-miterlimit="10" stroke-width=".3985" d="M149.293 67.001a.498.498 0 1 0-.997 0 .498.498 0 0 0 .997 0Z"/><path d="M150.77 95.445a.498.498 0 1 0-.997 0 .498.498 0 0 0 .996 0"/><path fill="none" stroke="#000" stroke-miterlimit="10" stroke-width=".3985" d="M150.77 95.445a.498.498 0 1 0-.997 0 .498.498 0 0 0 .996 0Z"/><path d="M152.246 109.667a.498.498 0 1 0-.996 0 .498.498 0 0 0 .996 0"/><path fill="none" stroke="#000" stroke-miterlimit="10" stroke-width=".3985" d="M152.246 109.667a.498.498 0 1 0-.996 0 .498.498 0 0 0 .996 0Z"/><path d="M153.723 123.889a.498.498 0 1 0-.997 0 .498.498 0 0 0 .997 0"/><path fill="none" stroke="#000" stroke-miterlimit="10" stroke-width=".3985" d="M153.723 123.889a.498.498 0 1 0-.997 0 .498.498 0 0 0 .997 0Z"/><path d="M155.2 81.223a.498.498 0 1 0-.997 0 .498.498 0 0 0 .996 0"/><path fill="none" stroke="#000" stroke-miterlimit="10" stroke-width=".3985" d="M155.2 81.223a.498.498 0 1 0-.997 0 .498.498 0 0 0 .996 0Z"/><path d="M156.676 109.667a.498.498 0 1 0-.996 0 .498.498 0 0 0 .996 0"/><path fill="none" stroke="#000" stroke-miterlimit="10" stroke-width=".3985" d="M156.676 109.667a.498.498 0 1 0-.996 0 .498.498 0 0 0 .996 0Z"/><path d="M158.153 109.667a.498.498 0 1 0-.997 0 .498.498 0 0 0 .997 0"/><path fill="none" stroke="#000" stroke-miterlimit="10" stroke-width=".3985" d="M158.153 109.667a.498.498 0 1 0-.997 0 .498.498 0 0 0 .997 0Z"/><path d="M159.63 138.11a.498.498 0 1 0-.997 0 .498.498 0 0 0 .996 0"/><path fill="none" stroke="#000" stroke-miterlimit="10" stroke-width=".3985" d="M159.63 138.11a.498.498 0 1 0-.997 0 .498.498 0 0 0 .996 0Z"/><path d="M161.106 95.445a.498.498 0 1 0-.996 0 .498.498 0 0 0 .996 0"/><path fill="none" stroke="#000" stroke-miterlimit="10" stroke-width=".3985" d="M161.106 95.445a.498.498 0 1 0-.996 0 .498.498 0 0 0 .996 0Z"/><path d="M162.582 81.223a.498.498 0 1 0-.996 0 .498.498 0 0 0 .996 0"/><path fill="none" stroke="#000" stroke-miterlimit="10" stroke-width=".3985" d="M162.582 81.223a.498.498 0 1 0-.996 0 .498.498 0 0 0 .996 0Z"/><path d="M164.06 95.445a.498.498 0 1 0-.997 0 .498.498 0 0 0 .996 0"/><path fill="none" stroke="#000" stroke-miterlimit="10" stroke-width=".3985" d="M164.06 95.445a.498.498 0 1 0-.997 0 .498.498 0 0 0 .996 0Z"/><path d="M165.536 95.445a.498.498 0 1 0-.997 0 .498.498 0 0 0 .997 0"/><path fill="none" stroke="#000" stroke-miterlimit="10" stroke-width=".3985" d="M165.536 95.445a.498.498 0 1 0-.997 0 .498.498 0 0 0 .997 0Z"/><path d="M167.012 95.445a.498.498 0 1 0-.996 0 .498.498 0 0 0 .996 0"/><path fill="none" stroke="#000" stroke-miterlimit="10" stroke-width=".3985" d="M167.012 95.445a.498.498 0 1 0-.996 0 .498.498 0 0 0 .996 0Z"/><path d="M168.489 81.223a.498.498 0 1 0-.996 0 .498.498 0 0 0 .996 0"/><path fill="none" stroke="#000" stroke-miterlimit="10" stroke-width=".3985" d="M168.489 81.223a.498.498 0 1 0-.996 0 .498.498 0 0 0 .996 0Z"/><path d="M169.966 95.445a.498.498 0 1 0-.997 0 .498.498 0 0 0 .997 0"/><path fill="none" stroke="#000" stroke-miterlimit="10" stroke-width=".3985" d="M169.966 95.445a.498.498 0 1 0-.997 0 .498.498 0 0 0 .997 0Z"/><path d="M171.442 38.558a.498.498 0 1 0-.996 0 .498.498 0 0 0 .996 0"/><path fill="none" stroke="#000" stroke-miterlimit="10" stroke-width=".3985" d="M171.442 38.558a.498.498 0 1 0-.996 0 .498.498 0 0 0 .996 0Z"/><path d="M172.919 81.223a.498.498 0 1 0-.996 0 .498.498 0 0 0 .996 0"/><path fill="none" stroke="#000" stroke-miterlimit="10" stroke-width=".3985" d="M172.919 81.223a.498.498 0 1 0-.996 0 .498.498 0 0 0 .996 0Z"/><path d="M174.396 81.223a.498.498 0 1 0-.997 0 .498.498 0 0 0 .997 0"/><path fill="none" stroke="#000" stroke-miterlimit="10" stroke-width=".3985" d="M174.396 81.223a.498.498 0 1 0-.997 0 .498.498 0 0 0 .997 0Z"/><path d="M175.872 109.667a.498.498 0 1 0-.996 0 .498.498 0 0 0 .996 0"/><path fill="none" stroke="#000" stroke-miterlimit="10" stroke-width=".3985" d="M175.872 109.667a.498.498 0 1 0-.996 0 .498.498 0 0 0 .996 0Z"/><path d="M177.349 95.445a.498.498 0 1 0-.996 0 .498.498 0 0 0 .996 0"/><path fill="none" stroke="#000" stroke-miterlimit="10" stroke-width=".3985" d="M177.349 95.445a.498.498 0 1 0-.996 0 .498.498 0 0 0 .996 0Z"/><path d="M178.826 95.445a.498.498 0 1 0-.997 0 .498.498 0 0 0 .997 0"/><path fill="none" stroke="#000" stroke-miterlimit="10" stroke-width=".3985" d="M178.826 95.445a.498.498 0 1 0-.997 0 .498.498 0 0 0 .997 0Z"/><path d="M180.302 67.001a.498.498 0 1 0-.996 0 .498.498 0 0 0 .996 0"/><path fill="none" stroke="#000" stroke-miterlimit="10" stroke-width=".3985" d="M180.302 67.001a.498.498 0 1 0-.996 0 .498.498 0 0 0 .996 0Z"/><path d="M181.779 123.889a.498.498 0 1 0-.996 0 .498.498 0 0 0 .996 0"/><path fill="none" stroke="#000" stroke-miterlimit="10" stroke-width=".3985" d="M181.779 123.889a.498.498 0 1 0-.996 0 .498.498 0 0 0 .996 0Z"/><path d="M183.255 81.223a.498.498 0 1 0-.996 0 .498.498 0 0 0 .996 0"/><path fill="none" stroke="#000" stroke-miterlimit="10" stroke-width=".3985" d="M183.255 81.223a.498.498 0 1 0-.996 0 .498.498 0 0 0 .996 0Z"/><path d="M184.732 95.445a.498.498 0 1 0-.996 0 .498.498 0 0 0 .996 0"/><path fill="none" stroke="#000" stroke-miterlimit="10" stroke-width=".3985" d="M184.732 95.445a.498.498 0 1 0-.996 0 .498.498 0 0 0 .996 0Z"/><path d="M186.209 81.223a.498.498 0 1 0-.997 0 .498.498 0 0 0 .997 0"/><path fill="none" stroke="#000" stroke-miterlimit="10" stroke-width=".3985" d="M186.209 81.223a.498.498 0 1 0-.997 0 .498.498 0 0 0 .997 0Z"/><path d="M187.685 95.445a.498.498 0 1 0-.996 0 .498.498 0 0 0 .996 0"/><path fill="none" stroke="#000" stroke-miterlimit="10" stroke-width=".3985" d="M187.685 95.445a.498.498 0 1 0-.996 0 .498.498 0 0 0 .996 0Z"/><path d="M189.162 81.223a.498.498 0 1 0-.996 0 .498.498 0 0 0 .996 0"/><path fill="none" stroke="#000" stroke-miterlimit="10" stroke-width=".3985" d="M189.162 81.223a.498.498 0 1 0-.996 0 .498.498 0 0 0 .996 0Z"/><path d="M190.639 95.445a.498.498 0 1 0-.997 0 .498.498 0 0 0 .997 0"/><path fill="none" stroke="#000" stroke-miterlimit="10" stroke-width=".3985" d="M190.639 95.445a.498.498 0 1 0-.997 0 .498.498 0 0 0 .997 0Z"/><path d="M192.115 109.667a.498.498 0 1 0-.996 0 .498.498 0 0 0 .996 0"/><path fill="none" stroke="#000" stroke-miterlimit="10" stroke-width=".3985" d="M192.115 109.667a.498.498 0 1 0-.996 0 .498.498 0 0 0 .996 0Z"/><path d="M193.592 123.889a.498.498 0 1 0-.996 0 .498.498 0 0 0 .996 0"/><path fill="none" stroke="#000" stroke-miterlimit="10" stroke-width=".3985" d="M193.592 123.889a.498.498 0 1 0-.996 0 .498.498 0 0 0 .996 0Z"/><path d="M195.069 123.889a.498.498 0 1 0-.997 0 .498.498 0 0 0 .997 0"/><path fill="none" stroke="#000" stroke-miterlimit="10" stroke-width=".3985" d="M195.069 123.889a.498.498 0 1 0-.997 0 .498.498 0 0 0 .997 0Z"/><path d="M196.545 123.889a.498.498 0 1 0-.996 0 .498.498 0 0 0 .996 0"/><path fill="none" stroke="#000" stroke-miterlimit="10" stroke-width=".3985" d="M196.545 123.889a.498.498 0 1 0-.996 0 .498.498 0 0 0 .996 0Z"/><path d="M198.022 95.445a.498.498 0 1 0-.996 0 .498.498 0 0 0 .996 0"/><path fill="none" stroke="#000" stroke-miterlimit="10" stroke-width=".3985" d="M198.022 95.445a.498.498 0 1 0-.996 0 .498.498 0 0 0 .996 0Z"/><path d="M199.499 95.445a.498.498 0 1 0-.997 0 .498.498 0 0 0 .997 0"/><path fill="none" stroke="#000" stroke-miterlimit="10" stroke-width=".3985" d="M199.499 95.445a.498.498 0 1 0-.997 0 .498.498 0 0 0 .997 0Z"/><path d="M200.975 109.667a.498.498 0 1 0-.996 0 .498.498 0 0 0 .996 0"/><path fill="none" stroke="#000" stroke-miterlimit="10" stroke-width=".3985" d="M200.975 109.667a.498.498 0 1 0-.996 0 .498.498 0 0 0 .996 0Z"/><path d="M202.452 81.223a.498.498 0 1 0-.996 0 .498.498 0 0 0 .996 0"/><path fill="none" stroke="#000" stroke-miterlimit="10" stroke-width=".3985" d="M202.452 81.223a.498.498 0 1 0-.996 0 .498.498 0 0 0 .996 0Z"/><path d="M203.928 81.223a.498.498 0 1 0-.996 0 .498.498 0 0 0 .996 0"/><path fill="none" stroke="#000" stroke-miterlimit="10" stroke-width=".3985" d="M203.928 81.223a.498.498 0 1 0-.996 0 .498.498 0 0 0 .996 0Z"/><path d="M205.405 95.445a.498.498 0 1 0-.996 0 .498.498 0 0 0 .996 0"/><path fill="none" stroke="#000" stroke-miterlimit="10" stroke-width=".3985" d="M205.405 95.445a.498.498 0 1 0-.996 0 .498.498 0 0 0 .996 0Z"/><path d="M206.882 67.001a.498.498 0 1 0-.997 0 .498.498 0 0 0 .997 0"/><path fill="none" stroke="#000" stroke-miterlimit="10" stroke-width=".3985" d="M206.882 67.001a.498.498 0 1 0-.997 0 .498.498 0 0 0 .997 0Z"/><path d="M208.358 95.445a.498.498 0 1 0-.996 0 .498.498 0 0 0 .996 0"/><path fill="none" stroke="#000" stroke-miterlimit="10" stroke-width=".3985" d="M208.358 95.445a.498.498 0 1 0-.996 0 .498.498 0 0 0 .996 0Z"/><path d="M209.835 52.78a.498.498 0 1 0-.996 0 .498.498 0 0 0 .996 0"/><path fill="none" stroke="#000" stroke-miterlimit="10" stroke-width=".3985" d="M209.835 52.78a.498.498 0 1 0-.996 0 .498.498 0 0 0 .996 0Z"/><path d="M211.312 95.445a.498.498 0 1 0-.997 0 .498.498 0 0 0 .997 0"/><path fill="none" stroke="#000" stroke-miterlimit="10" stroke-width=".3985" d="M211.312 95.445a.498.498 0 1 0-.997 0 .498.498 0 0 0 .997 0Z"/><path d="M212.788 81.223a.498.498 0 1 0-.996 0 .498.498 0 0 0 .996 0"/><path fill="none" stroke="#000" stroke-miterlimit="10" stroke-width=".3985" d="M212.788 81.223a.498.498 0 1 0-.996 0 .498.498 0 0 0 .996 0Z"/><path d="M214.265 95.445a.498.498 0 1 0-.996 0 .498.498 0 0 0 .996 0"/><path fill="none" stroke="#000" stroke-miterlimit="10" stroke-width=".3985" d="M214.265 95.445a.498.498 0 1 0-.996 0 .498.498 0 0 0 .996 0Z"/><path d="M215.742 67.001a.498.498 0 1 0-.997 0 .498.498 0 0 0 .997 0"/><path fill="none" stroke="#000" stroke-miterlimit="10" stroke-width=".3985" d="M215.742 67.001a.498.498 0 1 0-.997 0 .498.498 0 0 0 .997 0Z"/><path d="M217.218 52.78a.498.498 0 1 0-.996 0 .498.498 0 0 0 .996 0"/><path fill="none" stroke="#000" stroke-miterlimit="10" stroke-width=".3985" d="M217.218 52.78a.498.498 0 1 0-.996 0 .498.498 0 0 0 .996 0Z"/><path d="M218.695 81.223a.498.498 0 1 0-.996 0 .498.498 0 0 0 .996 0"/><path fill="none" stroke="#000" stroke-miterlimit="10" stroke-width=".3985" d="M218.695 81.223a.498.498 0 1 0-.996 0 .498.498 0 0 0 .996 0Z"/><path d="M220.172 95.445a.498.498 0 1 0-.997 0 .498.498 0 0 0 .997 0"/><path fill="none" stroke="#000" stroke-miterlimit="10" stroke-width=".3985" d="M220.172 95.445a.498.498 0 1 0-.997 0 .498.498 0 0 0 .997 0Z"/><path d="M221.648 52.78a.498.498 0 1 0-.996 0 .498.498 0 0 0 .996 0"/><path fill="none" stroke="#000" stroke-miterlimit="10" stroke-width=".3985" d="M221.648 52.78a.498.498 0 1 0-.996 0 .498.498 0 0 0 .996 0Z"/><path d="M223.125 95.445a.498.498 0 1 0-.996 0 .498.498 0 0 0 .996 0"/><path fill="none" stroke="#000" stroke-miterlimit="10" stroke-width=".3985" d="M223.125 95.445a.498.498 0 1 0-.996 0 .498.498 0 0 0 .996 0Z"/><path d="M224.602 109.667a.498.498 0 1 0-.997 0 .498.498 0 0 0 .996 0"/><path fill="none" stroke="#000" stroke-miterlimit="10" stroke-width=".3985" d="M224.602 109.667a.498.498 0 1 0-.997 0 .498.498 0 0 0 .996 0Z"/><path d="M226.078 109.667a.498.498 0 1 0-.996 0 .498.498 0 0 0 .996 0"/><path fill="none" stroke="#000" stroke-miterlimit="10" stroke-width=".3985" d="M226.078 109.667a.498.498 0 1 0-.996 0 .498.498 0 0 0 .996 0Z"/><path d="M227.555 109.667a.498.498 0 1 0-.996 0 .498.498 0 0 0 .996 0"/><path fill="none" stroke="#000" stroke-miterlimit="10" stroke-width=".3985" d="M227.555 109.667a.498.498 0 1 0-.996 0 .498.498 0 0 0 .996 0Z"/><path d="M229.031 67.001a.498.498 0 1 0-.996 0 .498.498 0 0 0 .996 0"/><path fill="none" stroke="#000" stroke-miterlimit="10" stroke-width=".3985" d="M229.031 67.001a.498.498 0 1 0-.996 0 .498.498 0 0 0 .996 0Z"/><path d="M230.508 81.223a.498.498 0 1 0-.996 0 .498.498 0 0 0 .996 0"/><path fill="none" stroke="#000" stroke-miterlimit="10" stroke-width=".3985" d="M230.508 81.223a.498.498 0 1 0-.996 0 .498.498 0 0 0 .996 0Z"/><path d="M231.985 109.667a.498.498 0 1 0-.997 0 .498.498 0 0 0 .997 0"/><path fill="none" stroke="#000" stroke-miterlimit="10" stroke-width=".3985" d="M231.985 109.667a.498.498 0 1 0-.997 0 .498.498 0 0 0 .997 0Z"/><path d="M233.461 38.558a.498.498 0 1 0-.996 0 .498.498 0 0 0 .996 0"/><path fill="none" stroke="#000" stroke-miterlimit="10" stroke-width=".3985" d="M233.461 38.558a.498.498 0 1 0-.996 0 .498.498 0 0 0 .996 0Z"/><path d="M234.938 95.445a.498.498 0 1 0-.996 0 .498.498 0 0 0 .996 0"/><path fill="none" stroke="#000" stroke-miterlimit="10" stroke-width=".3985" d="M234.938 95.445a.498.498 0 1 0-.996 0 .498.498 0 0 0 .996 0Z"/><path d="M236.415 81.223a.498.498 0 1 0-.997 0 .498.498 0 0 0 .997 0"/><path fill="none" stroke="#000" stroke-miterlimit="10" stroke-width=".3985" d="M236.415 81.223a.498.498 0 1 0-.997 0 .498.498 0 0 0 .997 0Z"/><path d="M237.891 95.445a.498.498 0 1 0-.996 0 .498.498 0 0 0 .996 0"/><path fill="none" stroke="#000" stroke-miterlimit="10" stroke-width=".3985" d="M237.891 95.445a.498.498 0 1 0-.996 0 .498.498 0 0 0 .996 0Z"/><path d="M239.368 95.445a.498.498 0 1 0-.996 0 .498.498 0 0 0 .996 0"/><path fill="none" stroke="#000" stroke-miterlimit="10" stroke-width=".3985" d="M239.368 95.445a.498.498 0 1 0-.996 0 .498.498 0 0 0 .996 0Z"/><path d="M240.845 81.223a.498.498 0 1 0-.997 0 .498.498 0 0 0 .997 0"/><path fill="none" stroke="#000" stroke-miterlimit="10" stroke-width=".3985" d="M240.845 81.223a.498.498 0 1 0-.997 0 .498.498 0 0 0 .997 0Z"/><path d="M242.321 81.223a.498.498 0 1 0-.996 0 .498.498 0 0 0 .996 0"/><path fill="none" stroke="#000" stroke-miterlimit="10" stroke-width=".3985" d="M242.321 81.223a.498.498 0 1 0-.996 0 .498.498 0 0 0 .996 0Z"/><path d="M243.798 95.445a.498.498 0 1 0-.996 0 .498.498 0 0 0 .996 0"/><path fill="none" stroke="#000" stroke-miterlimit="10" stroke-width=".3985" d="M243.798 95.445a.498.498 0 1 0-.996 0 .498.498 0 0 0 .996 0Z"/><path d="M245.275 95.445a.498.498 0 1 0-.997 0 .498.498 0 0 0 .997 0"/><path fill="none" stroke="#000" stroke-miterlimit="10" stroke-width=".3985" d="M245.275 95.445a.498.498 0 1 0-.997 0 .498.498 0 0 0 .997 0Z"/><path d="M246.751 81.223a.498.498 0 1 0-.996 0 .498.498 0 0 0 .996 0"/><path fill="none" stroke="#000" stroke-miterlimit="10" stroke-width=".3985" d="M246.751 81.223a.498.498 0 1 0-.996 0 .498.498 0 0 0 .996 0Z"/><path d="M248.228 95.445a.498.498 0 1 0-.996 0 .498.498 0 0 0 .996 0"/><path fill="none" stroke="#000" stroke-miterlimit="10" stroke-width=".3985" d="M248.228 95.445a.498.498 0 1 0-.996 0 .498.498 0 0 0 .996 0Z"/><path d="M249.704 81.223a.498.498 0 1 0-.996 0 .498.498 0 0 0 .996 0"/><path fill="none" stroke="#000" stroke-miterlimit="10" stroke-width=".3985" d="M249.704 81.223a.498.498 0 1 0-.996 0 .498.498 0 0 0 .996 0Z"/><path d="M251.181 81.223a.498.498 0 1 0-.996 0 .498.498 0 0 0 .996 0"/><path fill="none" stroke="#000" stroke-miterlimit="10" stroke-width=".3985" d="M251.181 81.223a.498.498 0 1 0-.996 0 .498.498 0 0 0 .996 0Z"/><path d="M252.658 109.667a.498.498 0 1 0-.997 0 .498.498 0 0 0 .997 0"/><path fill="none" stroke="#000" stroke-miterlimit="10" stroke-width=".3985" d="M252.658 109.667a.498.498 0 1 0-.997 0 .498.498 0 0 0 .997 0Z"/><path d="M254.134 95.445a.498.498 0 1 0-.996 0 .498.498 0 0 0 .996 0"/><path fill="none" stroke="#000" stroke-miterlimit="10" stroke-width=".3985" d="M254.134 95.445a.498.498 0 1 0-.996 0 .498.498 0 0 0 .996 0Z"/><path d="M255.611 109.667a.498.498 0 1 0-.996 0 .498.498 0 0 0 .996 0"/><path fill="none" stroke="#000" stroke-miterlimit="10" stroke-width=".3985" d="M255.611 109.667a.498.498 0 1 0-.996 0 .498.498 0 0 0 .996 0Z"/><path d="M257.088 95.445a.498.498 0 1 0-.997 0 .498.498 0 0 0 .997 0"/><path fill="none" stroke="#000" stroke-miterlimit="10" stroke-width=".3985" d="M257.088 95.445a.498.498 0 1 0-.997 0 .498.498 0 0 0 .997 0Z"/><path d="M258.564 95.445a.498.498 0 1 0-.996 0 .498.498 0 0 0 .996 0"/><path fill="none" stroke="#000" stroke-miterlimit="10" stroke-width=".3985" d="M258.564 95.445a.498.498 0 1 0-.996 0 .498.498 0 0 0 .996 0Z"/><path d="M260.041 95.445a.498.498 0 1 0-.996 0 .498.498 0 0 0 .996 0"/><path fill="none" stroke="#000" stroke-miterlimit="10" stroke-width=".3985" d="M260.041 95.445a.498.498 0 1 0-.996 0 .498.498 0 0 0 .996 0Z"/><path d="M261.518 95.445a.498.498 0 1 0-.997 0 .498.498 0 0 0 .997 0"/><path fill="none" stroke="#000" stroke-miterlimit="10" stroke-width=".3985" d="M261.518 95.445a.498.498 0 1 0-.997 0 .498.498 0 0 0 .997 0Z"/><path d="M262.994 109.667a.498.498 0 1 0-.996 0 .498.498 0 0 0 .996 0"/><path fill="none" stroke="#000" stroke-miterlimit="10" stroke-width=".3985" d="M262.994 109.667a.498.498 0 1 0-.996 0 .498.498 0 0 0 .996 0Z"/><path d="M264.47 109.667a.498.498 0 1 0-.995 0 .498.498 0 0 0 .996 0"/><path fill="none" stroke="#000" stroke-miterlimit="10" stroke-width=".3985" d="M264.47 109.667a.498.498 0 1 0-.995 0 .498.498 0 0 0 .996 0Z"/><path d="M265.948 123.889a.498.498 0 1 0-.997 0 .498.498 0 0 0 .997 0"/><path fill="none" stroke="#000" stroke-miterlimit="10" stroke-width=".3985" d="M265.948 123.889a.498.498 0 1 0-.997 0 .498.498 0 0 0 .997 0Z"/><path d="M267.424 138.11a.498.498 0 1 0-.996 0 .498.498 0 0 0 .996 0"/><path fill="none" stroke="#000" stroke-miterlimit="10" stroke-width=".3985" d="M267.424 138.11a.498.498 0 1 0-.996 0 .498.498 0 0 0 .996 0Z"/><path d="M268.9 123.889a.498.498 0 1 0-.995 0 .498.498 0 0 0 .996 0"/><path fill="none" stroke="#000" stroke-miterlimit="10" stroke-width=".3985" d="M268.9 123.889a.498.498 0 1 0-.995 0 .498.498 0 0 0 .996 0Z"/><path d="M270.377 109.667a.498.498 0 1 0-.996 0 .498.498 0 0 0 .996 0"/><path fill="none" stroke="#000" stroke-miterlimit="10" stroke-width=".3985" d="M270.377 109.667a.498.498 0 1 0-.996 0 .498.498 0 0 0 .996 0Z"/><path d="M271.854 95.445a.498.498 0 1 0-.996 0 .498.498 0 0 0 .996 0"/><path fill="none" stroke="#000" stroke-miterlimit="10" stroke-width=".3985" d="M271.854 95.445a.498.498 0 1 0-.996 0 .498.498 0 0 0 .996 0Z"/><path d="M273.33 95.445a.498.498 0 1 0-.996 0 .498.498 0 0 0 .997 0"/><path fill="none" stroke="#000" stroke-miterlimit="10" stroke-width=".3985" d="M273.33 95.445a.498.498 0 1 0-.996 0 .498.498 0 0 0 .997 0Z"/><path d="M274.807 81.223a.498.498 0 1 0-.996 0 .498.498 0 0 0 .996 0"/><path fill="none" stroke="#000" stroke-miterlimit="10" stroke-width=".3985" d="M274.807 81.223a.498.498 0 1 0-.996 0 .498.498 0 0 0 .996 0Z"/><path d="M276.284 81.223a.498.498 0 1 0-.996 0 .498.498 0 0 0 .996 0"/><path fill="none" stroke="#000" stroke-miterlimit="10" stroke-width=".3985" d="M276.284 81.223a.498.498 0 1 0-.996 0 .498.498 0 0 0 .996 0Z"/><path d="M277.76 81.223a.498.498 0 1 0-.996 0 .498.498 0 0 0 .997 0"/><path fill="none" stroke="#000" stroke-miterlimit="10" stroke-width=".3985" d="M277.76 81.223a.498.498 0 1 0-.996 0 .498.498 0 0 0 .997 0Z"/><path d="M279.237 81.223a.498.498 0 1 0-.996 0 .498.498 0 0 0 .996 0"/><path fill="none" stroke="#000" stroke-miterlimit="10" stroke-width=".3985" d="M279.237 81.223a.498.498 0 1 0-.996 0 .498.498 0 0 0 .996 0Z"/><path d="M280.714 95.445a.498.498 0 1 0-.996 0 .498.498 0 0 0 .996 0"/><path fill="none" stroke="#000" stroke-miterlimit="10" stroke-width=".3985" d="M280.714 95.445a.498.498 0 1 0-.996 0 .498.498 0 0 0 .996 0Z"/><path d="M282.19 81.223a.498.498 0 1 0-.996 0 .498.498 0 0 0 .997 0"/><path fill="none" stroke="#000" stroke-miterlimit="10" stroke-width=".3985" d="M282.19 81.223a.498.498 0 1 0-.996 0 .498.498 0 0 0 .997 0Z"/><path d="M283.667 95.445a.498.498 0 1 0-.996 0 .498.498 0 0 0 .996 0"/><path fill="none" stroke="#000" stroke-miterlimit="10" stroke-width=".3985" d="M283.667 95.445a.498.498 0 1 0-.996 0 .498.498 0 0 0 .996 0Z"/><path d="M285.144 67.001a.498.498 0 1 0-.996 0 .498.498 0 0 0 .996 0"/><path fill="none" stroke="#000" stroke-miterlimit="10" stroke-width=".3985" d="M285.144 67.001a.498.498 0 1 0-.996 0 .498.498 0 0 0 .996 0Z"/><path d="M286.62 67.001a.498.498 0 1 0-.996 0 .498.498 0 0 0 .997 0"/><path fill="none" stroke="#000" stroke-miterlimit="10" stroke-width=".3985" d="M286.62 67.001a.498.498 0 1 0-.996 0 .498.498 0 0 0 .997 0Z"/><path d="M288.097 81.223a.498.498 0 1 0-.996 0 .498.498 0 0 0 .996 0"/><path fill="none" stroke="#000" stroke-miterlimit="10" stroke-width=".3985" d="M288.097 81.223a.498.498 0 1 0-.996 0 .498.498 0 0 0 .996 0Z"/><path d="M289.574 67.001a.498.498 0 1 0-.996 0 .498.498 0 0 0 .996 0"/><path fill="none" stroke="#000" stroke-miterlimit="10" stroke-width=".3985" d="M289.574 67.001a.498.498 0 1 0-.996 0 .498.498 0 0 0 .996 0Z"/><path d="M291.05 81.223a.498.498 0 1 0-.996 0 .498.498 0 0 0 .997 0"/><path fill="none" stroke="#000" stroke-miterlimit="10" stroke-width=".3985" d="M291.05 81.223a.498.498 0 1 0-.996 0 .498.498 0 0 0 .997 0Z"/><path d="M292.527 81.223a.498.498 0 1 0-.996 0 .498.498 0 0 0 .996 0"/><path fill="none" stroke="#000" stroke-miterlimit="10" stroke-width=".3985" d="M292.527 81.223a.498.498 0 1 0-.996 0 .498.498 0 0 0 .996 0Z"/><path d="M294.004 67.001a.498.498 0 1 0-.996 0 .498.498 0 0 0 .996 0"/><path fill="none" stroke="#000" stroke-miterlimit="10" stroke-width=".3985" d="M294.004 67.001a.498.498 0 1 0-.996 0 .498.498 0 0 0 .996 0Z"/><path d="M295.48 67.001a.498.498 0 1 0-.996 0 .498.498 0 0 0 .996 0"/><path fill="none" stroke="#000" stroke-miterlimit="10" stroke-width=".3985" d="M295.48 67.001a.498.498 0 1 0-.996 0 .498.498 0 0 0 .996 0Z"/><path d="M296.957 81.223a.498.498 0 1 0-.996 0 .498.498 0 0 0 .996 0"/><path fill="none" stroke="#000" stroke-miterlimit="10" stroke-width=".3985" d="M296.957 81.223a.498.498 0 1 0-.996 0 .498.498 0 0 0 .996 0Z"/><path d="M298.434 81.223a.498.498 0 1 0-.997 0 .498.498 0 0 0 .997 0"/><path fill="none" stroke="#000" stroke-miterlimit="10" stroke-width=".3985" d="M298.434 81.223a.498.498 0 1 0-.997 0 .498.498 0 0 0 .997 0Z"/><path d="M299.91 67.001a.498.498 0 1 0-.996 0 .498.498 0 0 0 .996 0"/><path fill="none" stroke="#000" stroke-miterlimit="10" stroke-width=".3985" d="M299.91 67.001a.498.498 0 1 0-.996 0 .498.498 0 0 0 .996 0Z"/><path d="M301.387 81.223a.498.498 0 1 0-.996 0 .498.498 0 0 0 .996 0"/><path fill="none" stroke="#000" stroke-miterlimit="10" stroke-width=".3985" d="M301.387 81.223a.498.498 0 1 0-.996 0 .498.498 0 0 0 .996 0Z"/><path d="M302.864 24.336a.498.498 0 1 0-.997 0 .498.498 0 0 0 .997 0"/><path fill="none" stroke="#000" stroke-miterlimit="10" stroke-width=".3985" d="M302.864 24.336a.498.498 0 1 0-.997 0 .498.498 0 0 0 .997 0Z"/><path d="M304.34 95.445a.498.498 0 1 0-.996 0 .498.498 0 0 0 .996 0"/><path fill="none" stroke="#000" stroke-miterlimit="10" stroke-width=".3985" d="M304.34 95.445a.498.498 0 1 0-.996 0 .498.498 0 0 0 .996 0Z"/><path d="M305.817 67.001a.498.498 0 1 0-.996 0 .498.498 0 0 0 .996 0"/><path fill="none" stroke="#000" stroke-miterlimit="10" stroke-width=".3985" d="M305.817 67.001a.498.498 0 1 0-.996 0 .498.498 0 0 0 .996 0Z"/><path d="M307.294 52.78a.498.498 0 1 0-.997 0 .498.498 0 0 0 .997 0"/><path fill="none" stroke="#000" stroke-miterlimit="10" stroke-width=".3985" d="M307.294 52.78a.498.498 0 1 0-.997 0 .498.498 0 0 0 .997 0Z"/><path d="M308.77 95.445a.498.498 0 1 0-.996 0 .498.498 0 0 0 .996 0"/><path fill="none" stroke="#000" stroke-miterlimit="10" stroke-width=".3985" d="M308.77 95.445a.498.498 0 1 0-.996 0 .498.498 0 0 0 .996 0Z"/><path d="M310.247 95.445a.498.498 0 1 0-.996 0 .498.498 0 0 0 .996 0"/><path fill="none" stroke="#000" stroke-miterlimit="10" stroke-width=".3985" d="M310.247 95.445a.498.498 0 1 0-.996 0 .498.498 0 0 0 .996 0Z"/><path d="M311.724 95.445a.498.498 0 1 0-.997 0 .498.498 0 0 0 .997 0"/><path fill="none" stroke="#000" stroke-miterlimit="10" stroke-width=".3985" d="M311.724 95.445a.498.498 0 1 0-.997 0 .498.498 0 0 0 .997 0Z"/><path d="M313.2 81.223a.498.498 0 1 0-.996 0 .498.498 0 0 0 .996 0"/><path fill="none" stroke="#000" stroke-miterlimit="10" stroke-width=".3985" d="M313.2 81.223a.498.498 0 1 0-.996 0 .498.498 0 0 0 .996 0Z"/><path d="M314.677 38.558a.498.498 0 1 0-.996 0 .498.498 0 0 0 .996 0"/><path fill="none" stroke="#000" stroke-miterlimit="10" stroke-width=".3985" d="M314.677 38.558a.498.498 0 1 0-.996 0 .498.498 0 0 0 .996 0Z"/><path d="M316.153 81.223a.498.498 0 1 0-.996 0 .498.498 0 0 0 .996 0"/><path fill="none" stroke="#000" stroke-miterlimit="10" stroke-width=".3985" d="M316.153 81.223a.498.498 0 1 0-.996 0 .498.498 0 0 0 .996 0Z"/><path d="M317.63 67.001a.498.498 0 1 0-.996 0 .498.498 0 0 0 .996 0"/><path fill="none" stroke="#000" stroke-miterlimit="10" stroke-width=".3985" d="M317.63 67.001a.498.498 0 1 0-.996 0 .498.498 0 0 0 .996 0Z"/><path d="M319.107 38.558a.498.498 0 1 0-.997 0 .498.498 0 0 0 .997 0"/><path fill="none" stroke="#000" stroke-miterlimit="10" stroke-width=".3985" d="M319.107 38.558a.498.498 0 1 0-.997 0 .498.498 0 0 0 .997 0Z"/><path d="M320.583 52.78a.498.498 0 1 0-.996 0 .498.498 0 0 0 .996 0"/><path fill="none" stroke="#000" stroke-miterlimit="10" stroke-width=".3985" d="M320.583 52.78a.498.498 0 1 0-.996 0 .498.498 0 0 0 .996 0Z"/><path d="M322.06 81.223a.498.498 0 1 0-.996 0 .498.498 0 0 0 .996 0"/><path fill="none" stroke="#000" stroke-miterlimit="10" stroke-width=".3985" d="M322.06 81.223a.498.498 0 1 0-.996 0 .498.498 0 0 0 .996 0Z"/><path d="M323.537 67.001a.498.498 0 1 0-.997 0 .498.498 0 0 0 .997 0"/><path fill="none" stroke="#000" stroke-miterlimit="10" stroke-width=".3985" d="M323.537 67.001a.498.498 0 1 0-.997 0 .498.498 0 0 0 .997 0Z"/><path d="M325.013 81.223a.498.498 0 1 0-.996 0 .498.498 0 0 0 .996 0"/><path fill="none" stroke="#000" stroke-miterlimit="10" stroke-width=".3985" d="M325.013 81.223a.498.498 0 1 0-.996 0 .498.498 0 0 0 .996 0Z"/><path d="M326.49 38.558a.498.498 0 1 0-.996 0 .498.498 0 0 0 .996 0"/><path fill="none" stroke="#000" stroke-miterlimit="10" stroke-width=".3985" d="M326.49 38.558a.498.498 0 1 0-.996 0 .498.498 0 0 0 .996 0Z"/><path d="M327.967 81.223a.498.498 0 1 0-.997 0 .498.498 0 0 0 .997 0"/><path fill="none" stroke="#000" stroke-miterlimit="10" stroke-width=".3985" d="M327.967 81.223a.498.498 0 1 0-.997 0 .498.498 0 0 0 .997 0Z"/><path d="M329.443 52.78a.498.498 0 1 0-.996 0 .498.498 0 0 0 .996 0"/><path fill="none" stroke="#000" stroke-miterlimit="10" stroke-width=".3985" d="M329.443 52.78a.498.498 0 1 0-.996 0 .498.498 0 0 0 .996 0Z"/><path d="M330.92 81.223a.498.498 0 1 0-.996 0 .498.498 0 0 0 .996 0"/><path fill="none" stroke="#000" stroke-miterlimit="10" stroke-width=".3985" d="M330.92 81.223a.498.498 0 1 0-.996 0 .498.498 0 0 0 .996 0Z"/><path d="M332.397 67.001a.498.498 0 1 0-.997 0 .498.498 0 0 0 .997 0"/><path fill="none" stroke="#000" stroke-miterlimit="10" stroke-width=".3985" d="M332.397 67.001a.498.498 0 1 0-.997 0 .498.498 0 0 0 .997 0Z"/><path d="M333.873 67.001a.498.498 0 1 0-.996 0 .498.498 0 0 0 .996 0"/><path fill="none" stroke="#000" stroke-miterlimit="10" stroke-width=".3985" d="M333.873 67.001a.498.498 0 1 0-.996 0 .498.498 0 0 0 .996 0Z"/><path d="M335.35 95.445a.498.498 0 1 0-.996 0 .498.498 0 0 0 .996 0"/><path fill="none" stroke="#000" stroke-miterlimit="10" stroke-width=".3985" d="M335.35 95.445a.498.498 0 1 0-.996 0 .498.498 0 0 0 .996 0Z"/><path d="M336.826 81.223a.498.498 0 1 0-.996 0 .498.498 0 0 0 .996 0"/><path fill="none" stroke="#000" stroke-miterlimit="10" stroke-width=".3985" d="M336.826 81.223a.498.498 0 1 0-.996 0 .498.498 0 0 0 .996 0Z"/><path d="M338.303 81.223a.498.498 0 1 0-.996 0 .498.498 0 0 0 .996 0"/><path fill="none" stroke="#000" stroke-miterlimit="10" stroke-width=".3985" d="M338.303 81.223a.498.498 0 1 0-.996 0 .498.498 0 0 0 .996 0Z"/><path d="M339.78 109.667a.498.498 0 1 0-.997 0 .498.498 0 0 0 .997 0"/><path fill="none" stroke="#000" stroke-miterlimit="10" stroke-width=".3985" d="M339.78 109.667a.498.498 0 1 0-.997 0 .498.498 0 0 0 .997 0Z"/><path d="M341.256 109.667a.498.498 0 1 0-.996 0 .498.498 0 0 0 .996 0"/><path fill="none" stroke="#000" stroke-miterlimit="10" stroke-width=".3985" d="M341.256 109.667a.498.498 0 1 0-.996 0 .498.498 0 0 0 .996 0Z"/><path d="M342.733 109.667a.498.498 0 1 0-.996 0 .498.498 0 0 0 .996 0"/><path fill="none" stroke="#000" stroke-miterlimit="10" stroke-width=".3985" d="M342.733 109.667a.498.498 0 1 0-.996 0 .498.498 0 0 0 .996 0Z"/><path d="M344.21 95.445a.498.498 0 1 0-.997 0 .498.498 0 0 0 .997 0"/><path fill="none" stroke="#000" stroke-miterlimit="10" stroke-width=".3985" d="M344.21 95.445a.498.498 0 1 0-.997 0 .498.498 0 0 0 .997 0Z"/><path d="M345.686 81.223a.498.498 0 1 0-.996 0 .498.498 0 0 0 .996 0"/><path fill="none" stroke="#000" stroke-miterlimit="10" stroke-width=".3985" d="M345.686 81.223a.498.498 0 1 0-.996 0 .498.498 0 0 0 .996 0Z"/><use xlink:href="#i" x="19.342763" y="51.163534" transform="translate(176.172 139.194)scale(1.0004)"/><g transform="rotate(-90 52.253 79.108)scale(1.0004)"><use xlink:href="#j" x="19.342763" y="51.163534"/><use xlink:href="#k" x="27.83317" y="51.163534"/><use xlink:href="#d" x="32.377971" y="51.163534"/><use xlink:href="#l" x="38.226411" y="51.163534"/><use xlink:href="#h" x="44.074849" y="51.163534"/><use xlink:href="#m" x="49.953048" y="51.163534"/><use xlink:href="#i" x="55.179566" y="51.163534"/><use xlink:href="#n" x="62.189959" y="51.163534"/></g></svg>