<svg xmlns="http://www.w3.org/2000/svg" xmlns:xlink="http://www.w3.org/1999/xlink" width="251.37pt" height="240.15pt" viewBox="0 0 251.37 240.15"><defs><path id="ak" d="M8.396 0v-.347c-.777 0-.993 0-1.16-.49L4.629-8.324c-.048-.144-.072-.215-.24-.215s-.191.035-.25.227l-2.5 7.152C1.47-.67 1.136-.36.37-.347V0l1.148-.024c.335 0 .909 0 1.22.024v-.347c-.502-.012-.801-.263-.801-.598 0-.072 0-.096.06-.251l.55-1.59H5.56L6.22-.91c.06.144.06.167.06.203 0 .36-.61.36-.909.36V0c.275-.024 1.22-.024 1.555-.024s1.196 0 1.47.024M5.442-3.134H2.667l1.387-3.982z"/><path id="W" d="M5.669-1.064v-.67h-.263v.67c0 .681-.287.777-.455.777-.454 0-.454-.634-.454-.813v-2.093c0-.646 0-1.125-.526-1.591-.419-.383-.957-.55-1.483-.55-.981 0-1.735.646-1.735 1.423 0 .347.228.514.503.514.287 0 .49-.203.49-.49 0-.49-.43-.49-.61-.49.275-.503.85-.718 1.328-.718.55 0 1.256.455 1.256 1.53v.48C1.316-3.05.407-2.046.407-1.126c0 .946 1.1 1.245 1.83 1.245A1.63 1.63 0 0 0 3.79-.933c.048.562.419.993.933.993.251 0 .945-.168.945-1.124m-1.95-.622C3.72-.514 2.847-.12 2.333-.12c-.586 0-1.076-.43-1.076-1.004 0-1.579 2.033-1.722 2.464-1.746z"/><path id="aj" d="M4.856-1.423c0-.108-.084-.108-.12-.108-.107 0-.12.036-.155.18-.263.849-.91 1.207-1.555 1.207-.73 0-1.698-.633-1.698-2.451 0-1.986 1.016-2.476 1.614-2.476.455 0 1.112.18 1.388.646-.144 0-.587 0-.587.49 0 .287.204.49.49.49.276 0 .503-.167.503-.514 0-.801-.837-1.375-1.806-1.375C1.53-5.334.42-4.09.42-2.584.419-1.051 1.567.12 2.919.12c1.578 0 1.937-1.436 1.937-1.543"/><path id="Z" d="M6.16 0v-.347c-.814 0-.91-.084-.91-.67V-8.3l-1.662.131v.347c.813 0 .909.084.909.67v2.643a1.86 1.86 0 0 0-1.495-.765C1.615-5.274.419-4.102.419-2.571c0 1.519 1.136 2.69 2.451 2.69.91 0 1.436-.597 1.603-.825V.12zM4.472-1.4c0 .216 0 .252-.167.515-.287.419-.778.765-1.376.765-.31 0-1.602-.12-1.602-2.44 0-.86.143-1.339.406-1.734.24-.37.718-.741 1.316-.741.741 0 1.16.538 1.28.73.143.203.143.227.143.442z"/><path id="ah" d="M7.63-3.062h-.263C7.08-1.196 6.793-.347 4.772-.347H3.145c-.526 0-.55-.084-.55-.478v-3.23h1.089c1.148 0 1.28.371 1.28 1.4h.263v-3.146h-.264c0 1.029-.131 1.4-1.28 1.4H2.596V-7.32c0-.394.024-.478.55-.478h1.591c1.758 0 2.129.598 2.308 2.32h.264l-.311-2.667H.49v.347h.24c.86 0 .897.12.897.562v6.327c0 .443-.036.562-.897.562H.49V0h6.662z"/><path id="U" d="M4.868-1.423c0-.072-.06-.12-.132-.12-.096 0-.12.06-.143.12C4.282-.42 3.48-.143 2.978-.143s-1.71-.335-1.71-2.404v-.228H4.58c.263 0 .287 0 .287-.227 0-1.208-.646-2.332-2.093-2.332C1.41-5.334.359-4.102.359-2.62.359-1.041 1.579.12 2.906.12c1.424 0 1.962-1.292 1.962-1.543m-.742-1.579H1.28c.095-1.878 1.148-2.093 1.483-2.093 1.28 0 1.351 1.686 1.363 2.093"/><path id="al" d="M5.681-4.856a.56.56 0 0 0-.586-.55c-.622 0-1.088.383-1.256.562a2 2 0 0 0-1.232-.43C1.531-5.274.73-4.461.73-3.54c0 .682.418 1.124.538 1.232-.144.18-.359.526-.359.992 0 .694.419.993.514 1.053-.55.155-1.1.586-1.1 1.208 0 .825 1.124 1.507 2.595 1.507 1.423 0 2.608-.634 2.608-1.531 0-.3-.084-1.005-.802-1.375-.61-.311-1.208-.311-2.236-.311-.73 0-.814 0-1.029-.228a.88.88 0 0 1-.227-.598c0-.203.072-.406.191-.574.562.371 1.04.371 1.172.371 1.077 0 1.878-.813 1.878-1.734 0-.323-.096-.778-.478-1.16.466-.479 1.028-.479 1.088-.479.048 0 .108 0 .155.024-.12.048-.179.168-.179.3 0 .167.12.31.311.31.096 0 .311-.06.311-.323M3.648-3.54c0 .215 0 .705-.204 1.028a1.02 1.02 0 0 1-.837.467c-1.052 0-1.052-1.208-1.052-1.483 0-.215 0-.706.203-1.029a1.02 1.02 0 0 1 .837-.466c1.053 0 1.053 1.208 1.053 1.483M4.939.933c0 .706-.908 1.268-2.009 1.268C1.782 2.2.91 1.615.91.933c0-.096.024-.562.478-.873.263-.168.371-.168 1.208-.168.993 0 2.344 0 2.344 1.04"/><path id="ao" d="M6.231 0v-.347c-.598 0-.897 0-.909-.359v-2.2c0-1.113 0-1.447-.275-1.83-.347-.467-.909-.538-1.315-.538-1.029 0-1.507.777-1.675 1.148h-.012V-8.3L.383-8.17v.347c.813 0 .909.084.909.67v6.267c0 .538-.132.538-.91.538V0c.312-.024.958-.024 1.292-.024.347 0 .993 0 1.304.024v-.347c-.765 0-.909 0-.909-.538V-3.11c0-1.255.825-1.925 1.567-1.925s.909.61.909 1.34v2.81c0 .538-.132.538-.91.538V0c.312-.024.958-.024 1.293-.024.346 0 .992 0 1.303.024"/><path id="ar" d="M3.241-2.26v-.646H.131v.646z"/><path id="ab" d="M2.882 0v-.347c-.777 0-.825-.06-.825-.526v-4.401l-1.626.131v.347c.765 0 .873.072.873.658v3.253c0 .538-.132.538-.91.538V0c.336-.024.91-.024 1.256-.024.132 0 .826 0 1.232.024m-.67-7.224a.58.58 0 1 0-.586.574.576.576 0 0 0 .587-.574"/><path id="V" d="M2.966 0v-.347c-.765 0-.909 0-.909-.538V-8.3L.395-8.17v.347c.813 0 .909.084.909.67v6.267c0 .538-.132.538-.91.538V0c.336-.024.922-.024 1.28-.024s.957 0 1.292.024"/><path id="ac" d="M9.484 0v-.347c-.598 0-.897 0-.909-.359v-2.2c0-1.113 0-1.447-.275-1.83-.347-.467-.909-.538-1.315-.538-.993 0-1.495.717-1.687 1.184-.167-.921-.813-1.184-1.566-1.184-1.16 0-1.615.992-1.71 1.232h-.013v-1.232l-1.626.131v.347c.813 0 .909.084.909.67v3.241c0 .538-.132.538-.91.538V0c.312-.024.958-.024 1.292-.024.347 0 .993 0 1.304.024v-.347c-.765 0-.909 0-.909-.538V-3.11c0-1.255.825-1.925 1.567-1.925s.909.61.909 1.34v2.81c0 .538-.132.538-.91.538V0c.312-.024.958-.024 1.293-.024.346 0 .992 0 1.303.024v-.347c-.765 0-.909 0-.909-.538V-3.11c0-1.255.825-1.925 1.567-1.925s.909.61.909 1.34v2.81c0 .538-.132.538-.909.538V0c.31-.024.957-.024 1.292-.024.346 0 .992 0 1.303.024"/><path id="am" d="M5.49-2.56c0-1.542-1.172-2.774-2.56-2.774C1.495-5.334.36-4.066.36-2.56.359-1.03 1.555.12 2.919.12c1.41 0 2.57-1.172 2.57-2.68m-.91-.107c0 .419 0 1.16-.31 1.722a1.56 1.56 0 0 1-1.34.801c-.442 0-.98-.19-1.327-.777-.323-.538-.335-1.244-.335-1.746 0-.455 0-1.184.37-1.722a1.53 1.53 0 0 1 1.28-.706c.467 0 .969.215 1.292.682.37.55.37 1.303.37 1.746"/><path id="X" d="M6.076-2.583c0-1.52-1.125-2.691-2.428-2.691-1.053 0-1.615.753-1.65.801v-.801l-1.663.131v.347c.837 0 .909.084.909.61v5.621c0 .538-.132.538-.91.538v.347c.312-.024.958-.024 1.293-.024.346 0 .992 0 1.303.024v-.347c-.765 0-.909 0-.909-.538v-2.08c.216.298.706.765 1.471.765 1.376 0 2.584-1.16 2.584-2.703m-.91 0c0 1.423-.813 2.463-1.733 2.463a1.4 1.4 0 0 1-.957-.382c-.275-.275-.455-.515-.455-.85v-2.463c0-.227 0-.24.132-.43a1.72 1.72 0 0 1 1.4-.766c.896 0 1.614 1.088 1.614 2.428"/><path id="ap" d="M3.887 2.906c0-.036 0-.06-.203-.263C2.488 1.435 1.818-.538 1.818-2.978c0-2.32.562-4.318 1.95-5.729.119-.108.119-.131.119-.167 0-.072-.06-.096-.108-.096-.155 0-1.136.861-1.722 2.033-.61 1.208-.885 2.488-.885 3.959 0 1.064.168 2.488.79 3.767.705 1.436 1.686 2.213 1.817 2.213.048 0 .108-.024.108-.096"/><path id="as" d="M3.373-2.978c0-.909-.12-2.392-.79-3.78C1.878-8.192.897-8.97.765-8.97c-.047 0-.107.024-.107.096 0 .036 0 .06.203.263C2.057-7.403 2.727-5.43 2.727-2.99c0 2.32-.562 4.318-1.95 5.729-.12.107-.12.131-.12.167 0 .072.06.096.108.096.156 0 1.137-.861 1.723-2.033.61-1.22.885-2.512.885-3.947"/><path id="an" d="M4.222-4.58c0-.36-.323-.694-.837-.694-1.017 0-1.364 1.1-1.436 1.327h-.011v-1.327l-1.603.131v.347c.813 0 .909.084.909.67v3.241c0 .538-.132.538-.91.538V0c.336-.024.994-.024 1.352-.024.323 0 1.172 0 1.448.024v-.347h-.24c-.873 0-.897-.131-.897-.562v-1.878c0-1.16.479-2.248 1.4-2.248.095 0 .12 0 .167.012-.096.048-.287.12-.287.442a.46.46 0 0 0 .466.479c.24 0 .479-.156.479-.479"/><path id="Y" d="M4.21-1.519c0-.646-.395-1.028-.502-1.136-.431-.37-.754-.443-1.543-.586-.359-.072-1.232-.24-1.232-.957 0-.37.251-.92 1.327-.92 1.304 0 1.376 1.111 1.4 1.482.012.096.095.096.131.096.132 0 .132-.06.132-.275V-5.06c0-.215 0-.275-.12-.275-.095 0-.323.263-.406.37-.371-.298-.742-.37-1.125-.37-1.447 0-1.877.79-1.877 1.447 0 .132 0 .55.454.969.383.335.79.418 1.34.526.657.132.813.167 1.112.407.215.179.37.442.37.777 0 .514-.298 1.088-1.35 1.088C1.53-.12.956-.574.693-1.77c-.048-.215-.06-.24-.06-.24-.024-.047-.072-.047-.108-.047-.131 0-.131.06-.131.275v1.627c0 .215 0 .275.12.275.06 0 .071-.012.274-.264.06-.083.06-.107.24-.299.454.563 1.1.563 1.303.563C3.588.12 4.21-.574 4.21-1.52"/><path id="aa" d="M3.899-1.483v-.682h-.263v.658c0 .861-.347 1.363-.813 1.363-.814 0-.814-1.112-.814-1.315v-3.349h1.687v-.347H2.009v-2.2h-.263c-.012 1.124-.442 2.272-1.53 2.308v.24h1.016v3.324C1.232-.155 2.117.12 2.75.12c.753 0 1.148-.742 1.148-1.603"/><path id="ai" d="M6.231 0v-.347c-.813 0-.909-.084-.909-.67v-4.257l-1.686.131v.347c.813 0 .909.084.909.67v2.14C4.545-.968 4.007-.12 3.11-.12c-.981 0-1.04-.562-1.04-1.196v-3.958l-1.687.131v.347c.909 0 .909.036.909 1.1v1.794c0 .742 0 1.172.358 1.567.288.311.778.455 1.388.455.203 0 .586 0 .993-.347.346-.275.538-.73.538-.73V.12z"/><path id="aq" d="M11.816-7.822v-.347c-.514.024-.538.024-1.064.024-.31 0-.957 0-1.244-.024v.347c.73.012.945.395.945.634 0 .06-.036.156-.06.24L8.575-1.28 6.638-7.296a1 1 0 0 1-.036-.167c0-.359.634-.359.92-.359v-.347c-.286.024-1.171.024-1.518.024s-1.076 0-1.387-.024v.347c.633 0 .8.036.932.251.084.156.168.527.323.957L4.162-1.28 2.248-7.236c-.06-.167-.06-.191-.06-.227 0-.359.61-.359.922-.359v-.347c-.275.024-1.184.024-1.52.024-.346 0-1.076 0-1.387-.024v.347c.646 0 .873 0 1.017.455L3.588.023c.06.18.108.228.215.228.096 0 .156-.036.216-.215l1.985-6.207L8 .036c.06.18.12.215.216.215.107 0 .155-.048.215-.227l2.248-7.02c.192-.575.538-.814 1.136-.826"/><path id="R" d="M2.332.048c0-.694-.227-1.208-.717-1.208-.383 0-.574.31-.574.574S1.22 0 1.627 0a.53.53 0 0 0 .394-.155c.024-.024.036-.024.048-.024.024 0 .024.167.024.227 0 .395-.072 1.172-.765 1.95-.132.143-.132.167-.132.19 0 .06.06.12.12.12.095 0 1.016-.885 1.016-2.26"/><path id="Q" d="M2.464-3.504c.024-.072.323-.67.765-1.053a1.74 1.74 0 0 1 1.184-.478c.479 0 .646.359.646.837 0 .072 0 .311-.143.873l-.3 1.232A47 47 0 0 0 4.27-.718c-.048.18-.12.49-.12.539 0 .167.132.299.311.299.359 0 .419-.275.526-.706l.718-2.858c.024-.096.646-1.591 1.961-1.591.479 0 .646.359.646.837 0 .67-.466 1.973-.73 2.691-.107.287-.167.443-.167.658 0 .538.371.969.945.969 1.112 0 1.53-1.759 1.53-1.83 0-.06-.047-.108-.119-.108-.107 0-.12.036-.18.24C9.318-.623 8.875-.12 8.397-.12c-.12 0-.311-.012-.311-.394 0-.311.143-.694.191-.826.216-.574.754-1.985.754-2.679 0-.717-.419-1.255-1.328-1.255-.801 0-1.447.454-1.925 1.16-.036-.646-.43-1.16-1.328-1.16-1.064 0-1.626.753-1.842 1.052-.036-.682-.526-1.052-1.052-1.052-.347 0-.622.167-.85.622-.215.43-.382 1.16-.382 1.208s.048.107.131.107c.096 0 .108-.012.18-.287.18-.706.407-1.411.885-1.411.275 0 .37.191.37.55 0 .263-.119.73-.203 1.1l-.335 1.292c-.047.227-.179.765-.239.98C1.03-.8.897-.238.897-.178c0 .167.132.299.311.299a.46.46 0 0 0 .407-.252c.024-.06.131-.478.191-.717l.263-1.077z"/><path id="S" d="M2.464-3.504c.024-.072.323-.67.765-1.053a1.74 1.74 0 0 1 1.184-.478c.479 0 .646.359.646.837 0 .682-.49 2.045-.73 2.691-.107.287-.167.443-.167.658 0 .538.37.969.945.969 1.112 0 1.53-1.759 1.53-1.83 0-.06-.047-.108-.119-.108-.107 0-.12.036-.18.24C6.065-.599 5.61-.12 5.144-.12c-.12 0-.311-.012-.311-.394 0-.3.131-.658.203-.826.24-.657.742-1.997.742-2.679 0-.717-.419-1.255-1.328-1.255-1.064 0-1.626.753-1.842 1.052-.036-.682-.526-1.052-1.052-1.052-.383 0-.646.227-.85.634C.49-4.21.324-3.492.324-3.444s.048.107.131.107c.096 0 .108-.012.18-.287.191-.73.407-1.411.885-1.411.275 0 .37.191.37.55 0 .263-.119.73-.203 1.1l-.335 1.292c-.047.227-.179.765-.239.98C1.03-.8.897-.238.897-.178c0 .167.132.299.311.299a.46.46 0 0 0 .407-.252c.024-.06.131-.478.191-.717l.263-1.077z"/><path id="ad" d="M2.404-4.808h1.1c.228 0 .347 0 .347-.215 0-.132-.072-.132-.31-.132H2.487L2.93-6.9c.048-.167.048-.191.048-.275 0-.191-.155-.299-.31-.299-.097 0-.372.036-.467.419l-.467 1.901H.61c-.24 0-.347 0-.347.227 0 .12.084.12.311.12H1.64L.849-1.65c-.096.418-.131.538-.131.693C.718-.395 1.112.12 1.782.12c1.208 0 1.854-1.747 1.854-1.83 0-.072-.048-.108-.12-.108-.024 0-.072 0-.095.048-.012.012-.024.024-.108.215C3.062-.957 2.512-.12 1.818-.12c-.359 0-.383-.299-.383-.562 0-.012 0-.239.036-.382z"/><path id="v" d="M7.877-3.644c0-.24-.065-.35-.153-.35-.054 0-.142.077-.152.285-.044 1.047-.764 1.647-1.528 1.647-.687 0-1.21-.47-1.745-.938-.557-.502-1.124-1.004-1.866-1.004C1.243-4.004.6-2.804.6-1.811c0 .35.142.35.153.35.12 0 .153-.22.153-.252.043-1.2.861-1.68 1.527-1.68.687 0 1.21.47 1.746.938.556.502 1.123 1.004 1.865 1.004 1.19 0 1.833-1.2 1.833-2.193"/><path id="P" d="M3.887 2.906c0-.036 0-.06-.203-.263C2.488 1.435 1.818-.538 1.818-2.978c0-2.32.562-4.318 1.95-5.729.119-.108.119-.131.119-.167 0-.072-.06-.096-.108-.096-.155 0-1.136.861-1.722 2.033-.61 1.208-.885 2.488-.885 3.959 0 1.064.168 2.488.79 3.767.705 1.436 1.686 2.213 1.817 2.213.048 0 .108-.024.108-.096"/><path id="T" d="M3.373-2.978c0-.909-.12-2.392-.79-3.78C1.878-8.192.897-8.97.765-8.97c-.047 0-.107.024-.107.096 0 .036 0 .06.203.263C2.057-7.403 2.727-5.43 2.727-2.99c0 2.32-.562 4.318-1.95 5.729-.12.107-.12.131-.12.167 0 .072.06.096.108.096.156 0 1.137-.861 1.723-2.033.61-1.22.885-2.512.885-3.947"/><path id="b" d="M5.358-3.827c0-.993-.06-1.962-.49-2.87-.49-.993-1.352-1.256-1.938-1.256-.693 0-1.543.346-1.985 1.34C.61-5.86.49-5.12.49-3.828c0 1.16.084 2.033.515 2.882A2.13 2.13 0 0 0 2.918.251c1.04 0 1.639-.622 1.986-1.315.43-.897.454-2.07.454-2.763M2.918.012c-.382 0-1.16-.215-1.387-1.519-.132-.718-.132-1.627-.132-2.464 0-.98 0-1.865.192-2.571.203-.801.813-1.172 1.327-1.172.455 0 1.148.275 1.376 1.303.155.682.155 1.627.155 2.44 0 .802 0 1.71-.131 2.44C4.09-.215 3.337.012 2.918.012"/><path id="a" d="M3.444-7.666c0-.275 0-.287-.239-.287-.287.323-.885.765-2.117.765v.347c.275 0 .873 0 1.531-.311v6.231c0 .43-.036.574-1.088.574h-.37V0c.322-.024 1.482-.024 1.877-.024s1.543 0 1.866.024v-.347h-.371C3.48-.347 3.444-.49 3.444-.92z"/><path id="l" d="M5.262-2.01H5c-.036.204-.131.862-.25 1.053-.085.108-.766.108-1.125.108H1.41c.323-.275 1.053-1.04 1.364-1.328 1.818-1.674 2.487-2.296 2.487-3.48 0-1.375-1.088-2.296-2.475-2.296S.586-6.77.586-5.741c0 .61.526.61.562.61.251 0 .562-.18.562-.562 0-.335-.227-.562-.562-.562-.107 0-.131 0-.167.012.227-.813.873-1.364 1.65-1.364 1.017 0 1.639.85 1.639 1.95 0 1.017-.586 1.902-1.268 2.667L.586-.287V0h4.365z"/><path id="m" d="M2.2-4.294c-.203.012-.25.024-.25.132 0 .12.06.12.275.12h.55c1.016 0 1.47.837 1.47 1.985 0 1.567-.812 1.985-1.399 1.985-.574 0-1.554-.275-1.901-1.064.383.06.73-.156.73-.586a.565.565 0 0 0-.587-.586c-.287 0-.598.167-.598.622C.49-.622 1.555.25 2.882.25c1.424 0 2.476-1.088 2.476-2.296 0-1.1-.885-1.962-2.033-2.165 1.04-.299 1.71-1.172 1.71-2.105 0-.945-.98-1.638-2.14-1.638-1.197 0-2.082.73-2.082 1.602 0 .479.371.574.55.574.252 0 .539-.18.539-.538 0-.383-.287-.55-.55-.55-.072 0-.096 0-.132.012.454-.813 1.579-.813 1.638-.813.395 0 1.173.179 1.173 1.351 0 .227-.036.897-.383 1.411-.359.527-.766.563-1.089.574z"/><path id="n" d="M4.318-7.786c0-.227 0-.287-.168-.287-.096 0-.131 0-.227.144l-3.6 5.585v.347h3.145V-.91c0 .443-.024.562-.897.562h-.239V0c.275-.024 1.22-.024 1.555-.024s1.292 0 1.567.024v-.347h-.24c-.86 0-.896-.12-.896-.562v-1.088h1.208v-.347H4.318zm-.79.933v4.509H.622z"/><path id="o" d="M1.53-6.853c.515.167.934.18 1.065.18 1.352 0 2.213-.993 2.213-1.16 0-.049-.024-.108-.096-.108-.024 0-.048 0-.155.047a3.9 3.9 0 0 1-1.555.323c-.79 0-1.352-.239-1.579-.335-.083-.035-.107-.035-.12-.035-.095 0-.095.071-.095.263v3.552c0 .215 0 .287.143.287.06 0 .072-.012.192-.156.335-.49.897-.777 1.495-.777.634 0 .945.586 1.04.79.204.466.216 1.052.216 1.506s0 1.136-.335 1.675c-.263.43-.73.73-1.256.73-.79 0-1.567-.539-1.782-1.412.06.024.131.036.191.036.204 0 .527-.12.527-.526 0-.335-.228-.527-.527-.527-.215 0-.526.108-.526.574 0 1.017.813 2.177 2.14 2.177 1.352 0 2.536-1.136 2.536-2.655 0-1.423-.956-2.607-2.212-2.607-.682 0-1.208.299-1.52.634z"/><path id="p" d="M1.471-4.162c0-3.026 1.471-3.504 2.117-3.504.43 0 .861.131 1.088.49-.143 0-.598 0-.598.49 0 .263.18.49.49.49.3 0 .503-.179.503-.526 0-.621-.454-1.231-1.495-1.231C2.069-7.953.49-6.411.49-3.78.49-.49 1.926.25 2.942.25c1.304 0 2.416-1.136 2.416-2.69 0-1.592-1.112-2.656-2.308-2.656-1.065 0-1.46.921-1.579 1.256zm1.471 4.09c-.753 0-1.112-.67-1.22-.92-.107-.312-.227-.898-.227-1.735 0-.945.43-2.129 1.507-2.129.658 0 1.005.443 1.184.85.191.442.191 1.04.191 1.554 0 .61 0 1.148-.227 1.603-.299.574-.73.777-1.208.777"/><path id="q" d="M5.681-7.427v-.275H2.799c-1.448 0-1.471-.156-1.52-.383h-.262L.646-5.693h.263c.036-.215.143-.957.299-1.088.096-.072.993-.072 1.16-.072h2.536L3.636-5.035C3.313-4.57 2.105-2.607 2.105-.36c0 .132 0 .61.49.61.503 0 .503-.466.503-.622v-.598c0-1.782.287-3.17.849-3.97z"/><path id="r" d="M3.564-4.318c.598-.322 1.471-.873 1.471-1.877 0-1.04-1.004-1.758-2.105-1.758-1.184 0-2.117.873-2.117 1.961 0 .407.12.813.455 1.22.131.155.143.167.98.753C1.088-3.48.49-2.679.49-1.806.49-.538 1.698.251 2.918.251c1.328 0 2.44-.98 2.44-2.236 0-1.22-.861-1.758-1.794-2.333M1.938-5.394c-.156-.108-.634-.419-.634-1.005 0-.777.813-1.267 1.614-1.267.861 0 1.627.622 1.627 1.483 0 .73-.526 1.315-1.22 1.698zM2.5-3.851l1.447.945c.31.203.86.574.86 1.303 0 .91-.92 1.531-1.877 1.531-1.016 0-1.89-.741-1.89-1.734 0-.933.682-1.686 1.46-2.045"/><path id="s" d="M4.377-3.48c0 2.822-1.255 3.408-1.973 3.408-.287 0-.921-.036-1.22-.454h.072c.084.024.514-.048.514-.49 0-.264-.18-.491-.49-.491s-.503.203-.503.514c0 .742.598 1.244 1.639 1.244 1.495 0 2.942-1.59 2.942-4.186 0-3.217-1.34-4.018-2.392-4.018C1.65-7.953.49-6.853.49-5.274S1.603-2.62 2.8-2.62c.885 0 1.34-.646 1.578-1.256zm-1.53.622c-.754 0-1.077-.61-1.185-.838-.19-.454-.19-1.028-.19-1.566 0-.67 0-1.244.31-1.735.215-.323.538-.67 1.184-.67.682 0 1.029.599 1.148.874.24.586.24 1.602.24 1.782 0 1.004-.455 2.153-1.508 2.153"/><path id="ae" d="M2.99 2.99v-.443H1.83V-8.527h1.16v-.443H1.387V2.99z"/><path id="ag" d="M1.854-8.97H.25v.443h1.16V2.547H.251v.443h1.603z"/><path id="N" d="M2.081-7.367a.587.587 0 0 0-.586-.586.574.574 0 0 0-.574.574c0 .358.287.586.574.586.37 0 .586-.311.586-.574M.431-5.143v.347c.765 0 .873.072.873.658v3.253c0 .538-.132.538-.91.538V0c.336-.024.91-.024 1.256-.024.132 0 .826 0 1.232.024v-.347c-.777 0-.825-.06-.825-.526v-4.401z"/><path id="M" d="M8.575-2.906c0-1.113 0-1.447-.275-1.83-.347-.467-.909-.538-1.315-.538-.993 0-1.495.717-1.687 1.184-.167-.921-.813-1.184-1.566-1.184-1.16 0-1.615.992-1.71 1.232h-.013v-1.232l-1.626.131v.347c.813 0 .909.084.909.67v3.241c0 .538-.132.538-.91.538V0c.312-.024.958-.024 1.292-.024.347 0 .993 0 1.304.024v-.347c-.765 0-.909 0-.909-.538V-3.11c0-1.255.825-1.925 1.567-1.925s.909.61.909 1.34v2.81c0 .538-.132.538-.91.538V0c.312-.024.958-.024 1.293-.024.346 0 .992 0 1.303.024v-.347c-.765 0-.909 0-.909-.538V-3.11c0-1.255.825-1.925 1.567-1.925s.909.61.909 1.34v2.81c0 .538-.132.538-.909.538V0c.31-.024.957-.024 1.292-.024.346 0 .992 0 1.303.024v-.347c-.598 0-.897 0-.909-.359z"/><path id="O" d="M5.322-2.906c0-1.113 0-1.447-.275-1.83-.347-.467-.909-.538-1.315-.538-1.16 0-1.615.992-1.71 1.232h-.013v-1.232l-1.626.131v.347c.813 0 .909.084.909.67v3.241c0 .538-.132.538-.91.538V0c.312-.024.958-.024 1.292-.024.347 0 .993 0 1.304.024v-.347c-.765 0-.909 0-.909-.538V-3.11c0-1.255.825-1.925 1.567-1.925s.909.61.909 1.34v2.81c0 .538-.132.538-.91.538V0c.312-.024.958-.024 1.293-.024.346 0 .992 0 1.303.024v-.347c-.598 0-.897 0-.909-.359z"/><path id="af" d="M3.923-5.06c0-.214 0-.274-.12-.274-.095 0-.323.263-.406.37-.371-.298-.742-.37-1.125-.37-1.447 0-1.877.79-1.877 1.447 0 .132 0 .55.454.969.383.335.79.418 1.34.526.657.132.813.167 1.112.407.215.179.37.442.37.777 0 .514-.298 1.088-1.35 1.088C1.53-.12.956-.574.693-1.77c-.048-.215-.048-.227-.06-.24-.024-.047-.072-.047-.108-.047-.131 0-.131.06-.131.275v1.627c0 .215 0 .275.12.275.06 0 .071-.012.274-.264.06-.083.06-.107.24-.299.454.563 1.1.563 1.303.563C3.588.12 4.21-.574 4.21-1.52c0-.646-.395-1.028-.502-1.136-.431-.37-.754-.443-1.543-.586-.359-.072-1.232-.24-1.232-.957 0-.37.251-.92 1.327-.92 1.304 0 1.376 1.111 1.4 1.482.012.096.095.096.131.096.132 0 .132-.06.132-.275z"/><path id="H" d="M3.611 2.618c0-.032 0-.054-.185-.24-1.364-1.374-1.713-3.436-1.713-5.105 0-1.899.414-3.797 1.756-5.16.142-.132.142-.154.142-.186 0-.077-.043-.11-.109-.11-.109 0-1.09.742-1.735 2.128-.556 1.2-.687 2.411-.687 3.327 0 .851.12 2.172.72 3.404.655 1.342 1.593 2.052 1.702 2.052.066 0 .11-.033.11-.11"/><path id="L" d="M3.153-2.727c0-.851-.12-2.172-.72-3.404C1.778-7.473.84-8.182.73-8.182c-.065 0-.11.043-.11.109 0 .032 0 .054.208.25C1.9-6.742 2.52-5.007 2.52-2.726c0 1.865-.403 3.785-1.756 5.16-.142.13-.142.153-.142.185 0 .066.044.11.109.11.11 0 1.091-.742 1.735-2.128.556-1.2.687-2.411.687-3.327"/><path id="w" d="M3.164-3.84C4.059-4.135 4.69-4.9 4.69-5.76c0-.895-.96-1.506-2.007-1.506-1.102 0-1.931.655-1.931 1.484 0 .36.24.567.556.567.338 0 .557-.24.557-.556 0-.546-.513-.546-.677-.546.338-.534 1.058-.676 1.451-.676.448 0 1.048.24 1.048 1.222 0 .13-.022.763-.306 1.243-.327.524-.698.557-.97.568-.088.01-.35.032-.426.032-.088.011-.164.022-.164.131 0 .12.076.12.262.12h.48c.894 0 1.298.742 1.298 1.811 0 1.484-.753 1.8-1.233 1.8C2.16-.065 1.342-.25.96-.894c.382.055.72-.185.72-.6 0-.392-.294-.61-.61-.61-.263 0-.612.152-.612.632C.458-.48 1.473.24 2.662.24c1.331 0 2.324-.993 2.324-2.106 0-.894-.687-1.745-1.822-1.974"/><path id="y" d="M1.44-3.578v-.262c0-2.76 1.353-3.153 1.91-3.153.261 0 .72.065.96.436-.164 0-.6 0-.6.491 0 .338.261.502.501.502.175 0 .502-.098.502-.524 0-.654-.48-1.178-1.385-1.178-1.397 0-2.87 1.407-2.87 3.818C.458-.535 1.724.24 2.738.24 3.95.24 4.986-.786 4.986-2.226c0-1.385-.971-2.433-2.182-2.433-.742 0-1.146.557-1.364 1.08M2.738-.065c-.687 0-1.014-.655-1.08-.819-.196-.512-.196-1.385-.196-1.582 0-.85.35-1.942 1.331-1.942.175 0 .676 0 1.015.677.196.403.196.96.196 1.494 0 .524 0 1.07-.185 1.462-.328.655-.83.71-1.08.71"/><path id="z" d="M1.778-4.986c-.502-.327-.545-.698-.545-.884 0-.665.709-1.123 1.484-1.123.796 0 1.494.567 1.494 1.353 0 .621-.425 1.145-1.08 1.527zm1.593 1.037c.786-.404 1.32-.971 1.32-1.691 0-1.004-.97-1.626-1.963-1.626-1.092 0-1.975.807-1.975 1.822 0 .196.022.687.48 1.2.12.13.524.404.796.59-.633.316-1.57.926-1.57 2.007C.458-.491 1.57.24 2.716.24c1.232 0 2.269-.906 2.269-2.073 0-.393-.12-.884-.535-1.342-.207-.229-.382-.338-1.08-.774m-1.09.458 1.341.85c.306.208.818.535.818 1.2 0 .808-.818 1.376-1.713 1.376-.938 0-1.723-.677-1.723-1.582 0-.633.349-1.331 1.276-1.844"/><path id="C" d="M2.422-1.877c-.95 0-.95-1.09-.95-1.341 0-.295.012-.644.175-.917.088-.13.339-.436.775-.436.95 0 .95 1.09.95 1.342 0 .294-.012.643-.175.916-.088.131-.339.436-.775.436m-1.266.426c0-.044 0-.295.186-.513.425.306.873.338 1.08.338 1.015 0 1.767-.752 1.767-1.592 0-.404-.174-.808-.447-1.059.393-.37.786-.425.982-.425a.4.4 0 0 1 .11.01c-.12.044-.175.164-.175.295a.31.31 0 0 0 .316.317c.11 0 .316-.077.316-.328a.534.534 0 0 0-.556-.534c-.218 0-.698.065-1.157.513a1.82 1.82 0 0 0-1.156-.393C1.407-4.822.655-4.07.655-3.23c0 .48.24.894.512 1.123A1.5 1.5 0 0 0 .83-1.2c0 .338.142.753.48.97C.655-.043.305.426.305.863c0 .785 1.08 1.385 2.412 1.385 1.287 0 2.422-.556 2.422-1.407 0-.382-.153-.938-.71-1.244-.578-.305-1.21-.305-1.876-.305-.273 0-.742 0-.818-.011-.35-.044-.579-.382-.579-.731m1.572 3.448C1.626 1.997.873 1.44.873.862c0-.502.414-.906.894-.938h.644c.938 0 2.16 0 2.16.938 0 .589-.774 1.135-1.843 1.135"/><path id="F" d="m1.931-4.822-1.527.12v.338c.709 0 .807.065.807.6v2.935c0 .49-.12.49-.851.49V0c.35-.01.938-.033 1.2-.033.382 0 .764.022 1.135.033v-.338c-.72 0-.764-.055-.764-.48zm.044-1.899a.57.57 0 0 0-.579-.578.59.59 0 0 0-.578.578c0 .295.24.579.578.579.306 0 .579-.23.579-.579"/><path id="A" d="m1.931-7.572-1.571.12v.339c.764 0 .851.076.851.61v5.674c0 .49-.12.49-.851.49V0c.36-.01.938-.033 1.211-.033S2.378-.01 2.782 0v-.338c-.73 0-.85 0-.85-.491z"/><path id="E" d="M1.2-3.753v2.924c0 .49-.12.49-.85.49V0c.381-.01.937-.033 1.232-.033.284 0 .85.022 1.222.033v-.338c-.731 0-.851 0-.851-.491v-2.008c0-1.134.775-1.745 1.473-1.745.687 0 .807.589.807 1.21v2.543c0 .49-.12.49-.85.49V0c.38-.01.937-.033 1.232-.033.284 0 .85.022 1.222.033v-.338c-.731 0-.851 0-.851-.491v-2.008c0-1.134.774-1.745 1.473-1.745.687 0 .807.589.807 1.21v2.543c0 .49-.12.49-.85.49V0c.38-.01.937-.033 1.232-.033.284 0 .85.022 1.222.033v-.338c-.567 0-.84 0-.851-.328v-2.083c0-.939 0-1.277-.338-1.67-.153-.185-.513-.403-1.146-.403-.916 0-1.396.654-1.582 1.069-.153-.95-.96-1.07-1.45-1.07-.797 0-1.31.47-1.616 1.146v-1.145l-1.538.12v.338c.764 0 .851.076.851.611"/><path id="G" d="M1.2-3.753v2.924c0 .49-.12.49-.85.49V0c.381-.01.937-.033 1.232-.033.284 0 .85.022 1.222.033v-.338c-.731 0-.851 0-.851-.491v-2.008c0-1.134.775-1.745 1.473-1.745.687 0 .807.589.807 1.21v2.543c0 .49-.12.49-.85.49V0c.38-.01.937-.033 1.232-.033.284 0 .85.022 1.222.033v-.338c-.567 0-.84 0-.851-.328v-2.083c0-.939 0-1.277-.338-1.67-.153-.185-.513-.403-1.146-.403-.796 0-1.31.469-1.615 1.145v-1.145l-1.538.12v.338c.764 0 .851.076.851.611"/><path id="B" d="M5.139-2.335c0-1.396-1.091-2.553-2.411-2.553-1.364 0-2.423 1.19-2.423 2.553A2.435 2.435 0 0 0 2.717.12a2.43 2.43 0 0 0 2.422-2.455M2.728-.153c-.47 0-.95-.229-1.244-.73-.273-.48-.273-1.146-.273-1.539 0-.426 0-1.015.262-1.495a1.46 1.46 0 0 1 1.244-.73c.48 0 .949.24 1.232.708s.284 1.102.284 1.517c0 .393 0 .982-.24 1.462-.24.49-.72.807-1.265.807"/><path id="x" d="M2.095-.578c0-.317-.262-.578-.579-.578s-.578.261-.578.578S1.2 0 1.516 0s.579-.262.579-.578"/><path id="J" d="M2.215-.01c0-.721-.273-1.146-.699-1.146a.56.56 0 0 0-.578.578c0 .294.218.578.578.578.131 0 .273-.044.382-.142.033-.022.044-.033.055-.033s.022.011.022.164c0 .807-.382 1.462-.742 1.822-.12.12-.12.142-.12.175 0 .076.054.12.109.12.12 0 .993-.84.993-2.117"/><path id="I" d="M.96-.644c-.033.164-.098.415-.098.47 0 .196.153.294.316.294.131 0 .328-.087.404-.305.01-.022.142-.535.207-.808l.24-.982c.066-.24.131-.48.186-.73.043-.186.13-.503.142-.546.163-.338.741-1.331 1.778-1.331.49 0 .589.403.589.764 0 .272-.076.578-.164.905l-.305 1.266-.218.829c-.044.218-.142.589-.142.643 0 .197.153.295.316.295.338 0 .404-.273.491-.622.153-.61.557-2.204.655-2.63.033-.141.61-1.45 1.8-1.45.47 0 .59.37.59.764 0 .621-.46 1.865-.677 2.443-.099.262-.142.382-.142.6 0 .513.382.895.894.895 1.026 0 1.43-1.593 1.43-1.68 0-.11-.099-.11-.131-.11-.11 0-.11.033-.164.197C8.793-.895 8.444-.12 7.844-.12c-.185 0-.262-.11-.262-.36 0-.273.099-.535.197-.775.207-.567.665-1.778.665-2.4 0-.709-.436-1.167-1.254-1.167s-1.375.48-1.779 1.058c-.01-.142-.043-.513-.349-.775-.273-.229-.622-.283-.894-.283-.982 0-1.517.698-1.702.949-.055-.622-.513-.95-1.004-.95-.502 0-.71.426-.807.623-.197.382-.339 1.025-.339 1.058 0 .109.11.109.131.109.11 0 .12-.01.186-.25.185-.776.403-1.3.796-1.3.175 0 .338.088.338.503 0 .229-.032.349-.174.916z"/><path id="K" d="M.96-.644c-.033.164-.098.415-.098.47 0 .196.153.294.316.294.131 0 .328-.087.404-.305.01-.022.142-.535.207-.808l.24-.982c.066-.24.131-.48.186-.73.043-.186.13-.503.142-.546.163-.338.741-1.331 1.778-1.331.49 0 .589.403.589.764 0 .676-.535 2.072-.71 2.542-.097.25-.108.381-.108.501 0 .513.382.895.894.895 1.026 0 1.43-1.593 1.43-1.68 0-.11-.099-.11-.131-.11-.11 0-.11.033-.164.197C5.717-.73 5.357-.12 4.822-.12c-.185 0-.262-.11-.262-.36 0-.273.099-.535.197-.775.207-.578.665-1.778.665-2.4 0-.73-.469-1.167-1.254-1.167-.982 0-1.517.698-1.702.949-.055-.611-.502-.95-1.004-.95s-.71.426-.818.623a5.5 5.5 0 0 0-.328 1.058c0 .109.11.109.131.109.11 0 .12-.01.186-.25.185-.776.403-1.3.796-1.3.218 0 .338.143.338.503 0 .229-.032.349-.174.916z"/><path id="u" d="M2.247-4.364h1.026c.218 0 .327 0 .327-.218 0-.12-.109-.12-.305-.12h-.96c.393-1.55.447-1.768.447-1.833 0-.186-.13-.295-.316-.295-.033 0-.339.011-.437.393l-.425 1.735H.578c-.218 0-.327 0-.327.207 0 .131.087.131.305.131h.96C.731-1.266.687-1.08.687-.884c0 .59.415 1.004 1.004 1.004 1.113 0 1.735-1.593 1.735-1.68 0-.11-.088-.11-.131-.11-.098 0-.11.033-.164.154C2.662-.382 2.084-.12 1.713-.12c-.23 0-.338-.142-.338-.502 0-.262.021-.338.065-.524z"/><path id="k" d="M3.897-2.542c0-.853-.087-1.371-.35-1.881-.351-.702-.997-.877-1.435-.877-1.004 0-1.37.75-1.482.972-.287.582-.303 1.371-.303 1.786 0 .526.024 1.33.406 1.968.367.59.957.741 1.38.741.382 0 1.067-.12 1.466-.908.294-.574.318-1.283.318-1.801M2.112-.056c-.27 0-.82-.127-.988-.964-.088-.454-.088-1.204-.088-1.618 0-.55 0-1.108.088-1.546.167-.813.789-.893.988-.893.271 0 .821.136.98.86.096.44.096 1.037.096 1.579 0 .47 0 1.187-.096 1.634-.167.837-.717.948-.98.948"/><path id="j" d="M2.503-5.077c0-.215-.016-.223-.232-.223-.326.319-.749.51-1.506.51v.263c.215 0 .646 0 1.108-.215v4.088c0 .295-.024.391-.781.391h-.28V0c.328-.024 1.013-.024 1.372-.024s1.052 0 1.379.024v-.263h-.28c-.757 0-.78-.096-.78-.39z"/><path id="D" d="M2.248-1.626c.127-.12.462-.382.59-.494.493-.454.964-.893.964-1.618 0-.948-.797-1.562-1.794-1.562-.956 0-1.586.725-1.586 1.435 0 .39.311.446.423.446a.41.41 0 0 0 .414-.423c0-.414-.398-.414-.494-.414a1.23 1.23 0 0 1 1.156-.781c.741 0 1.124.63 1.124 1.3 0 .828-.582 1.434-1.523 2.398L.518-.303C.422-.215.422-.199.422 0h3.149l.23-1.427h-.246c-.024.16-.088.558-.184.71-.048.063-.653.063-.78.063H1.17z"/><path id="c" d="M2.016-2.662c.63 0 1.029.462 1.029 1.3 0 .995-.566 1.29-.989 1.29-.438 0-1.036-.16-1.315-.582.287 0 .486-.183.486-.446a.423.423 0 0 0-.438-.438c-.215 0-.438.135-.438.454 0 .757.813 1.251 1.721 1.251 1.06 0 1.801-.733 1.801-1.53 0-.661-.526-1.267-1.339-1.442.63-.224 1.1-.766 1.1-1.403S2.917-5.3 2.088-5.3C1.235-5.3.59-4.838.59-4.232c0 .295.199.422.406.422a.39.39 0 0 0 .407-.406c0-.295-.255-.407-.43-.415.334-.438.948-.462 1.091-.462.207 0 .813.064.813.885 0 .558-.231.892-.343 1.02-.239.247-.422.263-.908.295-.152.008-.215.016-.215.12 0 .111.071.111.207.111z"/><path id="d" d="M3.14-5.157c0-.159 0-.223-.167-.223-.104 0-.112.008-.191.12L.239-1.57v.263h2.248v.661c0 .295-.024.383-.638.383h-.183V0c.677-.024.693-.024 1.147-.024s.47 0 1.148.024v-.263h-.183c-.614 0-.638-.088-.638-.383v-.661h.845v-.263H3.14zm-.598.646v2.94H.518z"/><path id="e" d="M1.116-4.48c.103.033.422.112.757.112.996 0 1.602-.7 1.602-.82 0-.088-.056-.112-.096-.112-.016 0-.032 0-.103.04-.311.12-.678.215-1.108.215-.47 0-.86-.12-1.108-.215C.98-5.3.964-5.3.956-5.3c-.103 0-.103.088-.103.231v2.335c0 .144 0 .24.127.24.064 0 .088-.032.128-.096.095-.12.398-.526 1.076-.526.446 0 .661.366.733.518.136.287.151.653.151.964 0 .295-.008.725-.23 1.076a1.07 1.07 0 0 1-.893.486A1.295 1.295 0 0 1 .733-.917c.024.008.072.008.08.008.223 0 .398-.143.398-.39 0-.295-.23-.399-.39-.399-.144 0-.399.08-.399.423 0 .717.622 1.442 1.539 1.442.996 0 1.84-.773 1.84-1.761 0-.925-.669-1.745-1.61-1.745-.398 0-.772.127-1.075.398z"/><path id="f" d="M1.1-2.638c0-.662.056-1.243.343-1.73.239-.398.645-.725 1.147-.725.16 0 .526.024.71.303-.36.016-.39.287-.39.375-.001.239.182.374.374.374.143 0 .374-.087.374-.39 0-.479-.358-.869-1.076-.869C1.474-5.3.351-4.248.351-2.526.35-.366 1.355.167 2.128.167c.383 0 .797-.103 1.156-.446.318-.31.59-.646.59-1.339 0-1.044-.79-1.777-1.674-1.777-.574 0-.917.366-1.1.757M2.128-.072c-.422 0-.685-.295-.805-.518-.183-.358-.2-.9-.2-1.203 0-.79.431-1.38 1.045-1.38.398 0 .637.208.789.487.167.295.167.654.167 1.06s0 .757-.16 1.044c-.206.367-.485.51-.836.51"/><path id="g" d="M4.033-4.854c.072-.087.072-.103.072-.279H2.08c-.2 0-.446-.008-.645-.024-.415-.031-.423-.103-.447-.23H.741l-.27 1.68h.246c.016-.119.104-.669.215-.732.088-.04.686-.04.805-.04h1.69l-.82 1.1c-.91 1.211-1.1 2.47-1.1 3.1 0 .08 0 .446.374.446s.375-.358.375-.454v-.382c0-1.148.19-2.089.581-2.607z"/><path id="h" d="M2.646-2.877c.446-.215.988-.614.988-1.236 0-.757-.773-1.187-1.514-1.187-.845 0-1.53.582-1.53 1.33 0 .296.103.567.303.798.135.167.167.183.661.494C.566-2.24.351-1.658.351-1.21c0 .876.884 1.378 1.753 1.378.98 0 1.77-.661 1.77-1.506 0-.502-.272-.837-.4-.972-.135-.128-.143-.136-.828-.566m-1.235-.75c-.231-.135-.423-.366-.423-.645 0-.502.55-.82 1.116-.82.622 0 1.132.422 1.132.98 0 .462-.359.852-.83 1.083zm.39 1.093c.032.015.94.573 1.076.661.128.072.542.327.542.805 0 .614-.645.996-1.299.996-.71 0-1.315-.486-1.315-1.14 0-.597.446-1.067.996-1.322"/><path id="i" d="M3.124-2.351c0 1.945-.924 2.28-1.387 2.28-.167 0-.581-.025-.797-.272.351-.032.375-.295.375-.374a.364.364 0 0 0-.375-.375c-.143 0-.374.088-.374.39 0 .543.446.87 1.18.87 1.091 0 2.127-1.085 2.127-2.79 0-2.072-.916-2.678-1.737-2.678-.94 0-1.785.733-1.785 1.777 0 1.028.773 1.778 1.673 1.778.566 0 .909-.36 1.1-.766zm-1.068.382c-.366 0-.597-.167-.773-.462C1.1-2.726 1.1-3.108 1.1-3.515c0-.47 0-.805.215-1.132.2-.286.454-.446.829-.446.534 0 .765.526.789.566.167.39.175 1.012.175 1.172 0 .63-.342 1.386-1.052 1.386"/><clipPath id="t"><path d="M51.336 191.045h181.951V37.455H51.337Z"/></clipPath></defs><g fill="none" stroke-miterlimit="10"><path stroke="gray" stroke-width=".19925" d="M66.5 191.045v-4.252m22.744 4.252v-4.252m22.744 4.252v-4.252m22.744 4.252v-4.252m22.744 4.252v-4.252m22.744 4.252v-4.252m22.744 4.252v-4.252m22.744 4.252v-4.252M66.5 37.455v4.252m22.744-4.252v4.252m22.744-4.252v4.252m22.744-4.252v4.252m22.744-4.252v4.252m22.744-4.252v4.252m22.744-4.252v4.252m22.744-4.252v4.252M51.336 175.336h4.253m-4.253-17.453h4.253m-4.253-17.453h4.253m-4.253-17.454h4.253m-4.253-17.453h4.253M51.336 88.07h4.253m-4.253-17.454h4.253m-4.253-17.453h4.253m177.698 122.173h-4.252m4.252-17.453h-4.252m4.252-17.453h-4.252m4.252-17.454h-4.252m4.252-17.453h-4.252m4.252-17.453h-4.252m4.252-17.454h-4.252m4.252-17.453h-4.252"/><path stroke="#000" stroke-width=".3985" d="M51.336 191.045V37.455h181.951v153.59z"/></g><g transform="translate(92.014 107.634)scale(1.0004)"><use xlink:href="#a" x="-33.746544" y="97.107973"/><use xlink:href="#b" x="-27.898107" y="97.107973"/></g><use xlink:href="#c" x="-22.026724" y="92.729837" transform="matrix(.99999 0 0 .99999 92.014 107.634)"/><g transform="translate(114.758 107.634)scale(1.0004)"><use xlink:href="#a" x="-33.746544" y="97.107973"/><use xlink:href="#b" x="-27.898107" y="97.107973"/></g><use xlink:href="#d" x="-22.026724" y="92.729837" transform="matrix(.99999 0 0 .99999 114.758 107.634)"/><g transform="translate(137.502 107.634)scale(1.0004)"><use xlink:href="#a" x="-33.746544" y="97.107973"/><use xlink:href="#b" x="-27.898107" y="97.107973"/></g><use xlink:href="#e" x="-22.026724" y="92.729837" transform="matrix(.99999 0 0 .99999 137.502 107.634)"/><g transform="translate(160.246 107.634)scale(1.0004)"><use xlink:href="#a" x="-33.746544" y="97.107973"/><use xlink:href="#b" x="-27.898107" y="97.107973"/></g><use xlink:href="#f" x="-22.026724" y="92.729837" transform="matrix(.99999 0 0 .99999 160.246 107.634)"/><g transform="translate(182.99 107.634)scale(1.0004)"><use xlink:href="#a" x="-33.746544" y="97.107973"/><use xlink:href="#b" x="-27.898107" y="97.107973"/></g><use xlink:href="#g" x="-22.026724" y="92.729837" transform="matrix(.99999 0 0 .99999 182.99 107.634)"/><g transform="translate(205.734 107.634)scale(1.0004)"><use xlink:href="#a" x="-33.746544" y="97.107973"/><use xlink:href="#b" x="-27.898107" y="97.107973"/></g><use xlink:href="#h" x="-22.026724" y="92.729837" transform="matrix(.99999 0 0 .99999 205.734 107.634)"/><g transform="translate(228.478 107.634)scale(1.0004)"><use xlink:href="#a" x="-33.746544" y="97.107973"/><use xlink:href="#b" x="-27.898107" y="97.107973"/></g><use xlink:href="#i" x="-22.026724" y="92.729837" transform="matrix(.99999 0 0 .99999 228.478 107.634)"/><g transform="translate(249.105 107.634)scale(1.0004)"><use xlink:href="#a" x="-33.746544" y="97.107973"/><use xlink:href="#b" x="-27.898107" y="97.107973"/></g><g transform="matrix(.99999 0 0 .99999 249.105 107.634)"><use xlink:href="#j" x="-22.026724" y="92.729837"/><use xlink:href="#k" x="-17.794654" y="92.729837"/></g><g transform="translate(69.179 82.12)scale(1.0004)"><use xlink:href="#l" x="-33.746544" y="97.107973"/><use xlink:href="#b" x="-27.898107" y="97.107973"/></g><g transform="translate(69.179 64.666)scale(1.0004)"><use xlink:href="#m" x="-33.746544" y="97.107973"/><use xlink:href="#b" x="-27.898107" y="97.107973"/></g><g transform="translate(69.179 47.213)scale(1.0004)"><use xlink:href="#n" x="-33.746544" y="97.107973"/><use xlink:href="#b" x="-27.898107" y="97.107973"/></g><g transform="translate(69.179 29.76)scale(1.0004)"><use xlink:href="#o" x="-33.746544" y="97.107973"/><use xlink:href="#b" x="-27.898107" y="97.107973"/></g><g transform="translate(69.179 12.306)scale(1.0004)"><use xlink:href="#p" x="-33.746544" y="97.107973"/><use xlink:href="#b" x="-27.898107" y="97.107973"/></g><g transform="translate(69.179 -5.147)scale(1.0004)"><use xlink:href="#q" x="-33.746544" y="97.107973"/><use xlink:href="#b" x="-27.898107" y="97.107973"/></g><g transform="translate(69.179 -22.601)scale(1.0004)"><use xlink:href="#r" x="-33.746544" y="97.107973"/><use xlink:href="#b" x="-27.898107" y="97.107973"/></g><g transform="translate(69.179 -40.054)scale(1.0004)"><use xlink:href="#s" x="-33.746544" y="97.107973"/><use xlink:href="#b" x="-27.898107" y="97.107973"/></g><g clip-path="url(#t)"><path fill="none" stroke="#000" stroke-miterlimit="10" stroke-width=".3985" d="m43.756 206.841 7.581-7.111 7.581-7.112 7.582-7.112 7.58-7.112 7.582-7.112 7.581-7.112 7.581-7.112 7.582-7.112 7.58-7.112 7.582-7.112 7.581-7.112 7.582-7.112 7.58-7.112 7.582-7.112 7.581-7.112 7.581-7.112 7.582-7.112 7.58-7.112 7.582-7.112 7.581-7.112 7.582-7.112 7.58-7.112 7.582-7.111 7.581-7.112"/><g transform="translate(122.947 -43.581)scale(1.00008)"><use xlink:href="#u" x="-33.735783" y="97.077008"/><use xlink:href="#v" x="-26.765211" y="97.077008"/><use xlink:href="#w" x="-15.24926" y="97.077008"/><use xlink:href="#x" x="-9.794811" y="97.077008"/><use xlink:href="#y" x="-6.763561" y="97.077008"/><use xlink:href="#z" x="-1.308561" y="97.077008"/><use xlink:href="#A" x="5.957499" y="97.077008"/><use xlink:href="#B" x="8.979569" y="97.077008"/><use xlink:href="#C" x="14.434569" y="97.077008"/></g><use xlink:href="#D" x="20.054747" y="99.686749" transform="matrix(.99999 0 0 .99999 122.947 -43.581)"/><g transform="translate(122.947 -43.581)scale(1.00008)"><use xlink:href="#E" x="26.607195" y="97.077008"/><use xlink:href="#F" x="35.695225" y="97.077008"/><use xlink:href="#G" x="38.717294" y="97.077008"/><use xlink:href="#H" x="44.772343" y="97.077008"/><use xlink:href="#I" x="49.034045" y="97.077008"/><use xlink:href="#J" x="58.613025" y="97.077008"/><use xlink:href="#K" x="63.446153" y="97.077008"/><use xlink:href="#L" x="70.009775" y="97.077008"/></g></g><path d="M72.244 177.345a1.12 1.12 0 1 0-2.241 0 1.12 1.12 0 0 0 2.241 0"/><path fill="none" stroke="#000" stroke-miterlimit="10" stroke-width=".3985" d="M72.244 177.345a1.12 1.12 0 1 0-2.241 0 1.12 1.12 0 0 0 2.241 0Z"/><path d="M91.257 164.06a1.12 1.12 0 1 0-2.241 0 1.12 1.12 0 0 0 2.241 0"/><path fill="none" stroke="#000" stroke-miterlimit="10" stroke-width=".3985" d="M91.257 164.06a1.12 1.12 0 1 0-2.241 0 1.12 1.12 0 0 0 2.241 0Z"/><path d="M115.023 142.055a1.12 1.12 0 1 0-2.241 0 1.12 1.12 0 0 0 2.241 0"/><path fill="none" stroke="#000" stroke-miterlimit="10" stroke-width=".3985" d="M115.023 142.055a1.12 1.12 0 1 0-2.241 0 1.12 1.12 0 0 0 2.241 0Z"/><path d="M138.79 120.17a1.12 1.12 0 1 0-2.242 0 1.12 1.12 0 0 0 2.241 0"/><path fill="none" stroke="#000" stroke-miterlimit="10" stroke-width=".3985" d="M138.79 120.17a1.12 1.12 0 1 0-2.242 0 1.12 1.12 0 0 0 2.241 0Z"/><path d="M162.556 99.742a1.12 1.12 0 1 0-2.242 0 1.12 1.12 0 0 0 2.242 0"/><path fill="none" stroke="#000" stroke-miterlimit="10" stroke-width=".3985" d="M162.556 99.742a1.12 1.12 0 1 0-2.242 0 1.12 1.12 0 0 0 2.242 0Z"/><path d="M181.568 80.343a1.12 1.12 0 1 0-2.241 0 1.12 1.12 0 0 0 2.241 0"/><path fill="none" stroke="#000" stroke-miterlimit="10" stroke-width=".3985" d="M181.568 80.343a1.12 1.12 0 1 0-2.241 0 1.12 1.12 0 0 0 2.241 0Z"/><path d="M205.334 50.761a1.12 1.12 0 1 0-2.241 0 1.12 1.12 0 0 0 2.241 0"/><path fill="none" stroke="#000" stroke-miterlimit="10" stroke-width=".3985" d="M205.334 50.761a1.12 1.12 0 1 0-2.241 0 1.12 1.12 0 0 0 2.241 0Z"/><g transform="translate(150.502 124.769)scale(1.0004)"><use xlink:href="#M" x="-33.746544" y="97.107973"/><use xlink:href="#N" x="-23.999146" y="97.107973"/><use xlink:href="#O" x="-20.757984" y="97.107973"/><use xlink:href="#P" x="-14.263703" y="97.107973"/><use xlink:href="#Q" x="-9.674884" y="97.107973"/><use xlink:href="#R" x=".562877" y="97.107973"/><use xlink:href="#S" x="5.789397" y="97.107973"/><use xlink:href="#T" x="12.805138" y="97.107973"/></g><g transform="rotate(-90 27.229 100.008)scale(1.0004)"><use xlink:href="#U" x="-33.746544" y="97.107973"/><use xlink:href="#V" x="-28.543946" y="97.107973"/><use xlink:href="#W" x="-25.290826" y="97.107973"/><use xlink:href="#X" x="-19.430425" y="97.107973"/><use xlink:href="#Y" x="-12.924184" y="97.107973"/><use xlink:href="#U" x="-8.307623" y="97.107973"/><use xlink:href="#Z" x="-3.105023" y="97.107973"/><use xlink:href="#aa" x="7.300178" y="97.107973"/><use xlink:href="#ab" x="11.856939" y="97.107973"/><use xlink:href="#ac" x="15.110058" y="97.107973"/><use xlink:href="#U" x="24.869419" y="97.107973"/><use xlink:href="#ad" x="33.970634" y="97.107973"/><use xlink:href="#ae" x="42.098896" y="97.107973"/><use xlink:href="#O" x="45.340057" y="97.107973"/><use xlink:href="#af" x="51.834342" y="97.107973"/><use xlink:href="#ag" x="56.450903" y="97.107973"/></g><g transform="translate(97.373 -72.777)scale(1.0004)"><use xlink:href="#ah" x="-33.746544" y="97.107973"/><use xlink:href="#ai" x="-25.781185" y="97.107973"/><use xlink:href="#aj" x="-19.274945" y="97.107973"/><use xlink:href="#V" x="-14.072344" y="97.107973"/><use xlink:href="#ab" x="-10.819223" y="97.107973"/><use xlink:href="#Z" x="-7.566103" y="97.107973"/><use xlink:href="#ak" x="2.839097" y="97.107973"/><use xlink:href="#V" x="11.617738" y="97.107973"/><use xlink:href="#al" x="14.870858" y="97.107973"/><use xlink:href="#am" x="20.731259" y="97.107973"/><use xlink:href="#an" x="26.591658" y="97.107973"/><use xlink:href="#ab" x="31.148419" y="97.107973"/><use xlink:href="#aa" x="34.401542" y="97.107973"/><use xlink:href="#ao" x="38.958302" y="97.107973"/><use xlink:href="#ac" x="45.464541" y="97.107973"/><use xlink:href="#ap" x="59.122862" y="97.107973"/><use xlink:href="#aq" x="63.679623" y="97.107973"/><use xlink:href="#am" x="74.742627" y="97.107973"/><use xlink:href="#an" x="80.603029" y="97.107973"/><use xlink:href="#Y" x="85.159788" y="97.107973"/><use xlink:href="#aa" x="89.776351" y="97.107973"/><use xlink:href="#ar" x="94.333109" y="97.107973"/><use xlink:href="#aj" x="98.232064" y="97.107973"/><use xlink:href="#W" x="103.434672" y="97.107973"/><use xlink:href="#Y" x="109.295073" y="97.107973"/><use xlink:href="#U" x="113.911627" y="97.107973"/><use xlink:href="#as" x="119.114235" y="97.107973"/></g></svg>