<svg xmlns="http://www.w3.org/2000/svg" xmlns:xlink="http://www.w3.org/1999/xlink" width="427.5pt" height="218.18pt" viewBox="0 0 427.5 218.18"><defs><path id="x" d="M7.866-3.786c0-.218-.207-.218-.36-.218H.971c-.153 0-.36 0-.36.218s.207.218.37.218h6.514c.164 0 .371 0 .371-.218m0 2.117c0-.218-.207-.218-.37-.218H.981c-.164 0-.371 0-.371.218s.207.218.36.218h6.535c.153 0 .36 0 .36-.218"/><path id="n" d="M5.662-.338c0-.328-.272-.328-.436-.328-.458 0-.567-.054-.655-.087v-2.356c0-.775-.589-1.691-2.16-1.691-.469 0-1.582 0-1.582.796 0 .327.23.502.491.502.164 0 .47-.098.48-.502 0-.087.011-.098.23-.12.152-.01.294-.01.392-.01.83 0 1.396.337 1.396 1.112-1.93.033-3.272.578-3.272 1.626 0 .752.687 1.461 1.8 1.461.403 0 1.08-.076 1.593-.414.24.338.763.349 1.178.349.305 0 .545 0 .545-.338M3.818-1.462c0 .251 0 .48-.425.676C3-.6 2.509-.6 2.422-.6c-.676 0-1.124-.371-1.124-.796 0-.535.939-.939 2.52-.982z"/><path id="l" d="M5.084-1.19c0-.305-.316-.305-.382-.305-.174 0-.283.022-.36.24-.065.142-.273.655-1.08.655-.927 0-1.713-.764-1.713-1.757 0-.523.306-1.778 1.779-1.778.229 0 .654 0 .654.098.011.382.218.535.48.535s.491-.186.491-.502c0-.796-1.135-.796-1.625-.796C1.45-4.8.796-3.317.796-2.357c0 1.31 1.026 2.422 2.4 2.422 1.517 0 1.888-1.069 1.888-1.254"/><path id="q" d="M3.775-.273c0-.665-.426-1.09-.906-1.09a.66.66 0 0 0-.687.676c0 .414.316.687.676.687.066 0 .142-.01.219-.033a1.19 1.19 0 0 1-.808.895c-.109.033-.305.087-.305.305 0 .164.163.35.349.35.349 0 1.462-.59 1.462-1.79"/><path id="h" d="M5.586-.338c0-.328-.284-.328-.436-.328h-.491v-5.553c0-.338-.066-.447-.437-.447h-.796c-.175 0-.448 0-.448.338 0 .328.284.328.437.328h.49v1.723a1.93 1.93 0 0 0-1.276-.49C1.44-4.768.393-3.732.393-2.347.393-.993 1.375.065 2.53.065c.611 0 1.07-.294 1.375-.61 0 .392 0 .545.436.545h.797c.174 0 .447 0 .447-.338m-1.68-1.779c0 .611-.491 1.517-1.331 1.517-.775 0-1.43-.775-1.43-1.746 0-1.047.764-1.756 1.528-1.756.698 0 1.233.61 1.233 1.21z"/><path id="f" d="M5.062-1.19c0-.305-.316-.305-.382-.305-.196 0-.283.033-.36.24-.24.557-.829.655-1.134.655-.819 0-1.637-.546-1.811-1.484h3.25c.23 0 .437 0 .437-.403 0-1.244-.698-2.313-2.116-2.313C1.647-4.8.6-3.71.6-2.367.6-1.037 1.702.065 3.11.065c1.44 0 1.952-.981 1.952-1.254m-.774-1.548H1.386c.152-.797.796-1.397 1.56-1.397.567 0 1.243.273 1.342 1.397"/><path id="r" d="M5.15-2.073c0-1.102-.84-2.171-2.128-2.171-.382 0-.862.076-1.31.316V-6h2.62c.163 0 .436 0 .436-.328 0-.338-.262-.338-.437-.338H1.396c-.36 0-.436.098-.436.447v2.902c0 .197 0 .448.35.448.196 0 .24-.055.327-.164.294-.35.741-.545 1.374-.545.895 0 1.386.796 1.386 1.505 0 .873-.775 1.527-1.691 1.527-.306 0-1.004-.087-1.31-.687.055-.054.142-.13.142-.349a.48.48 0 0 0-.48-.49.483.483 0 0 0-.49.523C.567-.644 1.483.12 2.705.12 4.069.12 5.15-.862 5.15-2.073"/><path id="j" d="M5.4-2.171c0-.338-.261-.338-.436-.338h-.85v-3.84c0-.36-.077-.448-.448-.448H3.36c-.262 0-.316.011-.458.23L.415-2.663c-.099.142-.099.164-.099.382 0 .36.099.436.437.436h2.75v1.178h-.677c-.175 0-.437 0-.437.339 0 .327.273.327.437.327h1.963c.164 0 .437 0 .437-.327 0-.339-.262-.339-.437-.339h-.676v-1.178h.851c.164 0 .436 0 .436-.327M3.502-2.51H1.08l2.422-3.808z"/><path id="o" d="M5.553-4.233c0-.251-.207-.59-.796-.59-.12 0-.655.012-1.157.383a1.9 1.9 0 0 0-1.058-.328c-1.026 0-1.8.819-1.8 1.746 0 .47.185.83.349 1.036-.12.175-.218.415-.218.742 0 .382.153.655.25.786C.317.032.317.775.317.895c0 .938 1.146 1.603 2.542 1.603S5.4 1.822 5.4.895c0-.404-.196-.95-.752-1.244-.142-.076-.6-.317-1.582-.317h-.764c-.087 0-.23 0-.316-.021-.164 0-.23 0-.36-.153-.12-.153-.131-.393-.131-.393 0-.043.021-.196.065-.305.033.022.447.272.982.272 1.004 0 1.8-.785 1.8-1.756 0-.327-.098-.644-.283-.95.229-.13.49-.174.632-.185.066.295.317.371.426.371a.43.43 0 0 0 .436-.447M3.59-3.023c0 .623-.48 1.103-1.047 1.103-.59 0-1.047-.513-1.047-1.091 0-.622.48-1.102 1.047-1.102.59 0 1.047.513 1.047 1.09M4.768.896c0 .48-.819.949-1.91.949S.95 1.374.95.894c0-.196.098-.545.447-.763.273-.175.371-.175 1.168-.175.97 0 2.204 0 2.204.939"/><path id="m" d="M5.586-.327c0-.339-.273-.339-.447-.339h-.48v-2.53c0-1.103-.557-1.572-1.419-1.572-.73 0-1.222.371-1.429.579v-2.03c0-.338-.065-.447-.436-.447H.578c-.174 0-.447 0-.447.338C.13-6 .415-6 .567-6h.491v5.334h-.48c-.174 0-.447 0-.447.339C.13 0 .415 0 .567 0h1.735c.153 0 .436 0 .436-.327 0-.339-.272-.339-.447-.339h-.48v-1.93c0-1.092.807-1.506 1.364-1.506.578 0 .73.305.73.96v2.476H3.48c-.174 0-.447 0-.447.339 0 .327.295.327.447.327h1.67c.152 0 .436 0 .436-.327"/><path id="p" d="M5.106-.993c0-.207-.142-.294-.262-.37L1.713-3.339l3.131-1.975c.12-.077.262-.164.262-.371a.38.38 0 0 0-.382-.382c-.098 0-.13.011-.284.11L.851-3.699c-.098.065-.24.152-.24.36 0 .141.087.261.196.338L4.44-.72c.153.098.186.109.284.109.175 0 .382-.13.382-.382"/><path id="s" d="M5.63-.327c0-.339-.23-.339-.622-.339v-2.64c0-.218 0-1.462-.971-1.462-.328 0-.775.142-1.08.568-.164-.371-.47-.568-.83-.568-.349 0-.676.153-.938.393-.022-.327-.24-.327-.436-.327h-.35c-.163 0-.447 0-.447.327 0 .338.23.338.622.338v3.371c-.393 0-.622 0-.622.339C-.044 0 .251 0 .404 0h.96c.163 0 .447 0 .447-.327 0-.339-.229-.339-.622-.339v-1.952c0-.971.448-1.484.895-1.484.25 0 .403.185.403.894v2.542c-.207 0-.48 0-.48.339 0 .327.295.327.448.327h.818c.164 0 .447 0 .447-.327 0-.339-.229-.339-.622-.339v-1.952c0-.971.448-1.484.895-1.484.251 0 .404.185.404.894v2.542c-.208 0-.48 0-.48.339 0 .327.294.327.447.327h.818c.164 0 .448 0 .448-.327"/><path id="g" d="M5.586-.327c0-.339-.273-.339-.447-.339h-.48v-2.53c0-1.103-.557-1.572-1.419-1.572-.73 0-1.222.371-1.429.579 0-.35 0-.513-.436-.513H.578c-.174 0-.447 0-.447.338 0 .327.284.327.436.327h.491v3.371h-.48c-.174 0-.447 0-.447.339C.13 0 .415 0 .567 0h1.735c.153 0 .436 0 .436-.327 0-.339-.272-.339-.447-.339h-.48v-1.93c0-1.092.807-1.506 1.364-1.506.578 0 .73.305.73.96v2.476H3.48c-.174 0-.447 0-.447.339 0 .327.295.327.447.327h1.67c.152 0 .436 0 .436-.327"/><path id="t" d="M5.095-2.357C5.095-3.72 4.08-4.8 2.858-4.8S.622-3.72.622-2.357C.622-.97 1.658.065 2.858.065S5.095-.982 5.095-2.357m-.753-.076C4.342-1.418 3.666-.6 2.858-.6s-1.483-.818-1.483-1.833c0-.993.709-1.702 1.483-1.702.786 0 1.484.71 1.484 1.702"/><path id="c" d="M4.822-.327c0-.339-.262-.339-.436-.339h-.993v-5.673c0-.174 0-.447-.327-.447-.208 0-.273.13-.328.262-.414.927-.981 1.047-1.189 1.069-.174.01-.403.033-.403.338 0 .273.196.328.36.328.207 0 .654-.066 1.134-.48v4.603h-.993c-.174 0-.436 0-.436.339 0 .327.273.327.436.327h2.739c.163 0 .436 0 .436-.327"/><path id="d" d="M5.324-2.357c0-1.341-.97-2.41-2.127-2.41-.524 0-1.015.196-1.386.534 0-.316-.022-.47-.436-.47H.578c-.174 0-.447 0-.447.339 0 .327.284.327.436.327h.491v5.794h-.48c-.174 0-.447 0-.447.338 0 .327.284.327.436.327h1.735c.153 0 .436 0 .436-.327 0-.338-.272-.338-.447-.338h-.48V-.491c.447.458.917.556 1.266.556 1.189 0 2.247-1.036 2.247-2.422m-.753 0C4.571-1.309 3.808-.6 3.044-.6c-.851 0-1.233-.96-1.233-1.484v-.796c0-.644.633-1.222 1.32-1.222.808 0 1.44.796 1.44 1.745"/><path id="i" d="M4.768.59c0-.165-.077-.208-.273-.34C3.142-.665 2.64-2.116 2.64-3.337c0-1.091.415-2.608 1.877-3.6.174-.12.25-.164.25-.328 0-.087-.054-.306-.338-.306-.316 0-2.542 1.44-2.542 4.234 0 1.298.502 2.28.884 2.825C3.35.284 4.168.895 4.43.895c.284 0 .339-.219.339-.306"/><path id="k" d="M3.84-3.338c0-1.299-.502-2.28-.883-2.826-.579-.797-1.397-1.408-1.659-1.408a.315.315 0 0 0-.338.306c0 .164.12.24.175.273 1.789 1.189 1.953 2.945 1.953 3.655 0 1.09-.404 2.607-1.877 3.6-.164.109-.25.163-.25.327 0 .087.065.306.337.306.317 0 2.542-1.44 2.542-4.233"/><path id="e" d="M5.313-4.091c0-.218-.13-.677-1.036-.677-.557 0-1.255.197-1.855.884v-.37c0-.34-.065-.448-.436-.448h-1.2c-.164 0-.437 0-.437.327 0 .338.262.338.437.338h.883v3.371H.786c-.164 0-.437 0-.437.328C.35 0 .611 0 .786 0h2.847c.164 0 .447 0 .447-.327 0-.339-.283-.339-.447-.339H2.422v-1.363c0-1.026.644-2.073 1.964-2.073.01.262.196.48.469.48a.45.45 0 0 0 .458-.47"/><path id="w" d="M5.008-1.364c0-1.134-1.408-1.363-1.757-1.418l-.742-.131c-.316-.044-1.058-.175-1.058-.6 0-.284.35-.622 1.386-.622.905 0 1.058.327 1.09.611.012.186.033.371.372.371.381 0 .381-.23.381-.447v-.753c0-.175 0-.447-.327-.447-.262 0-.305.152-.327.229-.48-.23-.96-.23-1.168-.23-1.822 0-2.072.895-2.072 1.288 0 1.004 1.145 1.19 2.149 1.342.534.087 1.407.229 1.407.807 0 .404-.403.764-1.396.764-.513 0-1.124-.12-1.397-.971-.054-.196-.098-.316-.382-.316-.381 0-.381.229-.381.447v1.058c0 .175 0 .447.327.447.098 0 .273-.01.403-.414.535.393 1.113.414 1.419.414 1.724 0 2.073-.905 2.073-1.429"/><path id="v" d="M4.899-1.375c0-.196 0-.425-.382-.425-.36 0-.371.229-.371.414-.011.677-.633.786-.884.786-.84 0-.84-.567-.84-.84v-2.597h1.79c.163 0 .436 0 .436-.327 0-.338-.262-.338-.437-.338H2.422v-.895c0-.207 0-.447-.37-.447-.383 0-.383.229-.383.447v.895H.72c-.174 0-.447 0-.447.338 0 .327.272.327.436.327h.96v2.662c0 1.048.742 1.44 1.539 1.44.807 0 1.69-.469 1.69-1.44"/><path id="a" d="M5.237-1.898c0-.775-.513-1.419-1.233-1.746.61-.393.916-1.015.916-1.604 0-.807-.796-1.538-2.05-1.538-1.31 0-2.074.524-2.074 1.276a.486.486 0 1 0 .971.022.45.45 0 0 0-.098-.294c.338-.339 1.113-.339 1.211-.339.742 0 1.288.393 1.288.884 0 .327-.164.71-.459.95-.349.283-.621.305-1.014.327-.622.043-.786.043-.786.36 0 .338.262.338.437.338h.502c1.08 0 1.636.73 1.636 1.364 0 .665-.61 1.353-1.604 1.353-.436 0-1.276-.12-1.56-.633.055-.055.131-.12.131-.338a.477.477 0 0 0-.48-.48c-.25 0-.491.163-.491.512C.48-.513 1.538.12 2.88.12c1.43 0 2.357-1.004 2.357-2.018"/><path id="b" d="M5.15-.447v-.284c0-.207 0-.447-.371-.447-.382 0-.382.207-.382.512H1.8c.644-.556 1.691-1.374 2.16-1.81.688-.612 1.19-1.31 1.19-2.183 0-1.309-1.102-2.127-2.433-2.127-1.288 0-2.15.895-2.15 1.822a.486.486 0 1 0 .971.033.45.45 0 0 0-.152-.35c.163-.501.676-.84 1.276-.84.895 0 1.735.502 1.735 1.462 0 .764-.535 1.397-1.255 1.997L.731-.632c-.098.087-.164.141-.164.294C.567 0 .84 0 1.015 0h3.698c.36 0 .437-.098.437-.447"/><path id="y" d="M5.586-.338c0-.328-.284-.328-.436-.328h-.491v-3.589c0-.338-.066-.447-.437-.447h-.796c-.175 0-.448 0-.448.338 0 .327.284.327.437.327h.49v2.324C3.906-.73 3.023-.6 2.674-.6c-.862 0-.862-.36-.862-.71v-2.945c0-.338-.065-.447-.436-.447H.578c-.174 0-.447 0-.447.338 0 .327.284.327.436.327h.491v2.793c0 1.048.753 1.31 1.55 1.31.447 0 .894-.11 1.298-.415.01.349.24.349.436.349h.797c.174 0 .447 0 .447-.338"/><path id="u" d="M5.455-4.364c0-.338-.262-.338-.436-.338H3.742c-.164 0-.436 0-.436.327 0 .338.262.338.436.338h.306L2.858-.524 1.67-4.037h.306c.163 0 .436 0 .436-.327 0-.338-.262-.338-.436-.338H.698c-.174 0-.436 0-.436.338 0 .327.273.327.436.327h.328L2.28-.327c.131.37.35.37.578.37.208 0 .459 0 .579-.36l1.254-3.72h.328c.163 0 .436 0 .436-.327"/></defs><g fill="none" stroke="#000" stroke-miterlimit="10" stroke-width=".3985"><path d="M168.394 34.215h42.52V11.538h-42.52ZM196.032 34.215V11.538M230.757 34.215h42.52V11.538h-42.52ZM258.395 34.215V11.538M293.12 34.215h42.52V11.538h-42.52ZM320.758 34.215V11.538M204.89 22.876h20.072"/></g><path d="m228.064 22.876-4.468-1.682 1.465 1.682-1.465 1.682Z"/><path fill="none" stroke="#000" stroke-miterlimit="10" stroke-width=".3985" d="m228.064 22.876-4.468-1.682 1.465 1.682-1.465 1.682ZM267.253 22.876h20.072"/><path d="m290.427 22.876-4.468-1.682 1.465 1.682-1.465 1.682Z"/><path fill="none" stroke="#000" stroke-miterlimit="10" stroke-width=".3985" d="m290.427 22.876-4.468-1.682 1.465 1.682-1.465 1.682Z"/><use xlink:href="#a" x="96.401952" y="-37.788117" transform="translate(82.955 63.994)scale(1.00008)"/><use xlink:href="#b" x="96.401952" y="-37.788117" transform="translate(145.318 64.054)scale(1.00008)"/><use xlink:href="#c" x="96.401952" y="-37.788117" transform="translate(207.681 64.054)scale(1.00008)"/><g transform="translate(-81.073 102.921)scale(1.00008)"><use xlink:href="#d" x="96.401952" y="-37.788117"/><use xlink:href="#e" x="102.129705" y="-37.788117"/><use xlink:href="#f" x="107.857457" y="-37.788117"/><use xlink:href="#d" x="113.585209" y="-37.788117"/><use xlink:href="#f" x="119.312961" y="-37.788117"/><use xlink:href="#g" x="125.040714" y="-37.788117"/><use xlink:href="#h" x="130.768467" y="-37.788117"/><use xlink:href="#i" x="136.49622" y="-37.788117"/><use xlink:href="#j" x="142.223973" y="-37.788117"/><use xlink:href="#k" x="147.951725" y="-37.788117"/></g><g fill="none" stroke="#000" stroke-miterlimit="10" stroke-width=".3985"><path d="M106.031 73.9h42.52V51.224h-42.52ZM133.669 73.9V51.224M168.394 73.9h42.52V51.224h-42.52ZM196.032 73.9V51.224M230.757 73.9h42.52V51.224h-42.52ZM258.395 73.9V51.224M293.12 73.9h42.52V51.224h-42.52ZM320.758 73.9V51.224M142.527 62.562H162.6"/></g><path d="m165.7 62.562-4.467-1.682 1.465 1.682-1.465 1.682Z"/><path fill="none" stroke="#000" stroke-miterlimit="10" stroke-width=".3985" d="m165.7 62.562-4.467-1.682 1.465 1.682-1.465 1.682ZM204.89 62.562h20.072"/><path d="m228.064 62.562-4.468-1.682 1.465 1.682-1.465 1.682Z"/><path fill="none" stroke="#000" stroke-miterlimit="10" stroke-width=".3985" d="m228.064 62.562-4.468-1.682 1.465 1.682-1.465 1.682ZM267.253 62.562h20.072"/><path d="m290.427 62.562-4.468-1.682 1.465 1.682-1.465 1.682Z"/><path fill="none" stroke="#000" stroke-miterlimit="10" stroke-width=".3985" d="m290.427 62.562-4.468-1.682 1.465 1.682-1.465 1.682Z"/><use xlink:href="#j" x="96.401952" y="-37.788117" transform="translate(20.592 103.745)scale(1.00008)"/><use xlink:href="#a" x="96.401952" y="-37.788117" transform="translate(82.955 103.68)scale(1.00008)"/><use xlink:href="#b" x="96.401952" y="-37.788117" transform="translate(145.318 103.74)scale(1.00008)"/><use xlink:href="#c" x="96.401952" y="-37.788117" transform="translate(207.681 103.74)scale(1.00008)"/><g transform="translate(-81.073 142.569)scale(1.00008)"><use xlink:href="#l" x="96.401952" y="-37.788117"/><use xlink:href="#m" x="102.129705" y="-37.788117"/><use xlink:href="#n" x="107.857457" y="-37.788117"/><use xlink:href="#g" x="113.585209" y="-37.788117"/><use xlink:href="#o" x="119.312961" y="-37.788117"/><use xlink:href="#f" x="125.040714" y="-37.788117"/><use xlink:href="#i" x="130.768467" y="-37.788117"/><use xlink:href="#p" x="136.49622" y="-37.788117"/><use xlink:href="#j" x="146.206121" y="-37.788117"/><use xlink:href="#q" x="151.933874" y="-37.788117"/><use xlink:href="#r" x="161.643785" y="-37.788117"/><use xlink:href="#k" x="167.371537" y="-37.788117"/></g><g fill="none" stroke="#000" stroke-miterlimit="10" stroke-width=".3985"><path d="M106.031 113.586h42.52V90.91h-42.52ZM133.669 113.586V90.91M168.394 113.586h42.52V90.91h-42.52ZM196.032 113.586V90.91M230.757 113.586h42.52V90.91h-42.52ZM258.395 113.586V90.91M293.12 113.586h42.52V90.91h-42.52ZM320.758 113.586V90.91M142.527 102.247H162.6"/></g><path d="m165.7 102.247-4.467-1.682 1.465 1.682-1.465 1.682Z"/><path fill="none" stroke="#000" stroke-miterlimit="10" stroke-width=".3985" d="m165.7 102.247-4.467-1.682 1.465 1.682-1.465 1.682ZM204.89 102.247h20.072"/><path d="m228.064 102.247-4.468-1.682 1.465 1.682-1.465 1.682Z"/><path fill="none" stroke="#000" stroke-miterlimit="10" stroke-width=".3985" d="m228.064 102.247-4.468-1.682 1.465 1.682-1.465 1.682ZM267.253 102.247h20.072"/><path d="m290.427 102.247-4.468-1.682 1.465 1.682-1.465 1.682Z"/><path fill="none" stroke="#000" stroke-miterlimit="10" stroke-width=".3985" d="m290.427 102.247-4.468-1.682 1.465 1.682-1.465 1.682Z"/><use xlink:href="#j" x="96.401952" y="-37.788117" transform="translate(20.592 143.431)scale(1.00008)"/><use xlink:href="#r" x="96.401952" y="-37.788117" transform="translate(82.955 143.305)scale(1.00008)"/><use xlink:href="#b" x="96.401952" y="-37.788117" transform="translate(145.318 143.425)scale(1.00008)"/><use xlink:href="#c" x="96.401952" y="-37.788117" transform="translate(207.681 143.425)scale(1.00008)"/><g transform="translate(-81.073 183.056)scale(1.00008)"><use xlink:href="#e" x="96.401952" y="-37.788117"/><use xlink:href="#f" x="102.129705" y="-37.788117"/><use xlink:href="#s" x="107.857457" y="-37.788117"/><use xlink:href="#t" x="113.585209" y="-37.788117"/><use xlink:href="#u" x="119.312961" y="-37.788117"/><use xlink:href="#f" x="125.040714" y="-37.788117"/><use xlink:href="#i" x="130.768467" y="-37.788117"/><use xlink:href="#p" x="136.49622" y="-37.788117"/><use xlink:href="#j" x="146.206121" y="-37.788117"/><use xlink:href="#k" x="151.933874" y="-37.788117"/></g><g fill="none" stroke="#000" stroke-miterlimit="10" stroke-width=".3985"><path d="M168.394 153.272h42.52v-22.678h-42.52ZM196.032 153.272v-22.678M230.757 153.272h42.52v-22.678h-42.52ZM258.395 153.272v-22.678M293.12 153.272h42.52v-22.678h-42.52ZM320.758 153.272v-22.678M204.89 141.933h20.072"/></g><path d="m228.064 141.933-4.468-1.682 1.465 1.682-1.465 1.682Z"/><path fill="none" stroke="#000" stroke-miterlimit="10" stroke-width=".3985" d="m228.064 141.933-4.468-1.682 1.465 1.682-1.465 1.682ZM267.253 141.933h20.072"/><path d="m290.427 141.933-4.468-1.682 1.465 1.682-1.465 1.682Z"/><path fill="none" stroke="#000" stroke-miterlimit="10" stroke-width=".3985" d="m290.427 141.933-4.468-1.682 1.465 1.682-1.465 1.682Z"/><use xlink:href="#j" x="96.401952" y="-37.788117" transform="translate(82.955 183.116)scale(1.00008)"/><use xlink:href="#r" x="96.401952" y="-37.788117" transform="translate(145.318 182.991)scale(1.00008)"/><use xlink:href="#c" x="96.401952" y="-37.788117" transform="translate(207.681 183.111)scale(1.00008)"/><g transform="translate(145.702 216.27)scale(1.00008)"><use xlink:href="#o" x="96.401952" y="-37.788117"/><use xlink:href="#f" x="102.129705" y="-37.788117"/><use xlink:href="#v" x="107.857457" y="-37.788117"/><use xlink:href="#i" x="113.585209" y="-37.788117"/><use xlink:href="#p" x="119.312961" y="-37.788117"/><use xlink:href="#j" x="129.022863" y="-37.788117"/><use xlink:href="#k" x="134.750616" y="-37.788117"/></g><path fill="none" stroke="#000" stroke-miterlimit="10" stroke-width=".3985" d="M324.302 175.95c11.338 0 11.338-8.505 11.338-16.175"/><path d="m335.64 156.674-1.682 4.468 1.682-1.466 1.682 1.466Z"/><path fill="none" stroke="#000" stroke-miterlimit="10" stroke-width=".3985" d="m335.64 156.674-1.682 4.468 1.682-1.466 1.682 1.466Z"/><g transform="translate(145.702 239.75)scale(1.00008)"><use xlink:href="#m" x="96.401952" y="-37.788117"/><use xlink:href="#n" x="102.129705" y="-37.788117"/><use xlink:href="#w" x="107.857457" y="-37.788117"/><use xlink:href="#i" x="113.585209" y="-37.788117"/><use xlink:href="#p" x="119.312961" y="-37.788117"/><use xlink:href="#j" x="129.022863" y="-37.788117"/><use xlink:href="#k" x="134.750616" y="-37.788117"/><use xlink:href="#x" x="144.465917" y="-37.788117"/><use xlink:href="#v" x="156.938946" y="-37.788117"/><use xlink:href="#e" x="162.666699" y="-37.788117"/><use xlink:href="#y" x="168.394451" y="-37.788117"/><use xlink:href="#f" x="174.122204" y="-37.788117"/></g></svg>