<svg xmlns="http://www.w3.org/2000/svg" xmlns:xlink="http://www.w3.org/1999/xlink" width="324.5pt" height="120.4pt" viewBox="0 0 324.5 120.4"><defs><path id="m" d="M5.454-1.304c0-.071-.024-.335-.395-.335-.227 0-.299.084-.37.264-.3.693-1.077.753-1.304.753-.993 0-1.782-.753-1.914-1.674h3.504c.252 0 .479 0 .479-.443 0-1.4-.79-2.523-2.285-2.523-1.387 0-2.5 1.196-2.5 2.655A2.667 2.667 0 0 0 3.35.072c1.543 0 2.105-1.065 2.105-1.376m-.79-1.65H1.483c.156-1.017.933-1.615 1.686-1.615 1.196 0 1.448 1.017 1.495 1.615"/><path id="o" d="M5.968-.347c0-.347-.31-.347-.478-.347H5v-2.81c0-1.172-.55-1.723-1.532-1.723a2.1 2.1 0 0 0-1.542.682c0-.442 0-.61-.479-.61h-.79c-.167 0-.478 0-.478.347s.311.347.479.347h.49v3.767h-.49c-.168 0-.479 0-.479.347S.49 0 .658 0h1.758c.167 0 .478 0 .478-.347s-.31-.347-.478-.347h-.49v-2.164c0-1.16.813-1.675 1.459-1.675.693 0 .837.395.837 1.077v2.762h-.49c-.168 0-.479 0-.479.347S3.564 0 3.732 0H5.49c.167 0 .478 0 .478-.347"/><path id="k" d="M5.705-2.583c0-1.471-1.005-2.644-2.249-2.644-.873 0-1.423.527-1.53.646 0-.394 0-.574-.479-.574h-.79c-.167 0-.478 0-.478.347s.311.347.479.347h.49V1.96h-.49c-.168 0-.479 0-.479.347s.311.347.479.347h1.758c.167 0 .478 0 .478-.347s-.31-.347-.478-.347h-.49V-.598c.287.323.73.67 1.399.67 1.268 0 2.38-1.136 2.38-2.655m-.777 0c0 1.148-.814 1.961-1.663 1.961-.897 0-1.34-1.017-1.34-1.615v-.944c0-.682.67-1.352 1.448-1.352.86 0 1.555.873 1.555 1.95"/><path id="l" d="M5.717-4.52c0-.515-.502-.707-1.1-.707-.802 0-1.483.36-2.034 1.029v-.466c0-.371-.071-.49-.478-.49H.897c-.167 0-.478 0-.478.346s.31.347.478.347h.909v3.767H.897c-.167 0-.478 0-.478.347S.729 0 .897 0h2.942c.168 0 .479 0 .479-.347s-.311-.347-.479-.347H2.583V-2.26c0-1.424 1.005-2.273 2.022-2.273.06 0 .131 0 .191.012.036.43.37.467.454.467a.45.45 0 0 0 .467-.467"/><path id="q" d="M5.262-1.471c0-.24 0-.502-.394-.502-.383 0-.383.263-.383.514-.012.717-.694.837-.969.837-.933 0-.933-.598-.933-.885v-2.954h1.938c.167 0 .478 0 .478-.347s-.31-.347-.478-.347H2.583v-.98c0-.216 0-.49-.382-.49-.395 0-.395.274-.395.49v.98H.789c-.167 0-.49 0-.49.347s.311.347.478.347h1.029v3.014c0 1.112.765 1.519 1.627 1.519.645 0 1.83-.323 1.83-1.543"/><path id="n" d="M5.872-4.808c0-.347-.323-.347-.49-.347H4.066c-.167 0-.49 0-.49.347s.323.347.49.347h.3L3.073-.61 1.782-4.461h.299c.167 0 .49 0 .49-.347s-.323-.347-.49-.347H.765c-.167 0-.49 0-.49.347s.323.347.49.347h.311L2.452-.347c.131.407.394.407.622.407s.49 0 .622-.407L5.07-4.46h.311c.167 0 .49 0 .49-.347"/><path id="p" d="M5.813-.347c0-.347-.311-.347-.479-.347h-.418L3.373-2.655l1.375-1.806h.419c.167 0 .478 0 .478-.347s-.31-.347-.478-.347H3.839c-.167 0-.478 0-.478.347s.287.347.574.347L3.038-3.23l-.921-1.232c.275 0 .562 0 .562-.347s-.31-.347-.478-.347H.873c-.167 0-.478 0-.478.347s.31.347.478.347h.419l1.423 1.806L1.22-.694H.813c-.167 0-.49 0-.49.347S.646 0 .813 0H2.13c.167 0 .478 0 .478-.347s-.275-.347-.598-.347L3.038-2.2 4.114-.694c-.299 0-.586 0-.586.347S3.84 0 4.007 0h1.327c.168 0 .479 0 .479-.347"/><path id="e" d="M5.062-1.19c0-.305-.316-.305-.382-.305-.196 0-.283.033-.36.24-.24.557-.829.655-1.134.655-.819 0-1.637-.546-1.811-1.484h3.25c.23 0 .437 0 .437-.403 0-1.244-.698-2.313-2.116-2.313C1.647-4.8.6-3.71.6-2.367.6-1.037 1.702.065 3.11.065c1.44 0 1.952-.981 1.952-1.254m-.774-1.548H1.386c.152-.797.796-1.397 1.56-1.397.567 0 1.243.273 1.342 1.397"/><path id="f" d="M5.63-.327c0-.339-.23-.339-.622-.339v-2.64c0-.218 0-1.462-.971-1.462-.328 0-.775.142-1.08.568-.164-.371-.47-.568-.83-.568-.349 0-.676.153-.938.393-.022-.327-.24-.327-.436-.327h-.35c-.163 0-.447 0-.447.327 0 .338.23.338.622.338v3.371c-.393 0-.622 0-.622.339C-.044 0 .251 0 .404 0h.96c.163 0 .447 0 .447-.327 0-.339-.229-.339-.622-.339v-1.952c0-.971.448-1.484.895-1.484.25 0 .403.185.403.894v2.542c-.207 0-.48 0-.48.339 0 .327.295.327.448.327h.818c.164 0 .447 0 .447-.327 0-.339-.229-.339-.622-.339v-1.952c0-.971.448-1.484.895-1.484.251 0 .404.185.404.894v2.542c-.208 0-.48 0-.48.339 0 .327.294.327.447.327h.818c.164 0 .448 0 .448-.327"/><path id="g" d="M5.095-2.357C5.095-3.72 4.08-4.8 2.858-4.8S.622-3.72.622-2.357C.622-.97 1.658.065 2.858.065S5.095-.982 5.095-2.357m-.753-.076C4.342-1.418 3.666-.6 2.858-.6s-1.483-.818-1.483-1.833c0-.993.709-1.702 1.483-1.702.786 0 1.484.71 1.484 1.702"/><path id="c" d="M4.822-.327c0-.339-.262-.339-.436-.339h-.993v-5.673c0-.174 0-.447-.327-.447-.208 0-.273.13-.328.262-.414.927-.981 1.047-1.189 1.069-.174.01-.403.033-.403.338 0 .273.196.328.36.328.207 0 .654-.066 1.134-.48v4.603h-.993c-.174 0-.436 0-.436.339 0 .327.273.327.436.327h2.739c.163 0 .436 0 .436-.327"/><path id="i" d="M4.768.59c0-.165-.077-.208-.273-.34C3.142-.665 2.64-2.116 2.64-3.337c0-1.091.415-2.608 1.877-3.6.174-.12.25-.164.25-.328 0-.087-.054-.306-.338-.306-.316 0-2.542 1.44-2.542 4.234 0 1.298.502 2.28.884 2.825C3.35.284 4.168.895 4.43.895c.284 0 .339-.219.339-.306"/><path id="j" d="M3.84-3.338c0-1.299-.502-2.28-.883-2.826-.579-.797-1.397-1.408-1.659-1.408a.315.315 0 0 0-.338.306c0 .164.12.24.175.273 1.789 1.189 1.953 2.945 1.953 3.655 0 1.09-.404 2.607-1.877 3.6-.164.109-.25.163-.25.327 0 .087.065.306.337.306.317 0 2.542-1.44 2.542-4.233"/><path id="d" d="M5.313-4.091c0-.218-.13-.677-1.036-.677-.557 0-1.255.197-1.855.884v-.37c0-.34-.065-.448-.436-.448h-1.2c-.164 0-.437 0-.437.327 0 .338.262.338.437.338h.883v3.371H.786c-.164 0-.437 0-.437.328C.35 0 .611 0 .786 0h2.847c.164 0 .447 0 .447-.327 0-.339-.283-.339-.447-.339H2.422v-1.363c0-1.026.644-2.073 1.964-2.073.01.262.196.48.469.48a.45.45 0 0 0 .458-.47"/><path id="a" d="M5.237-1.898c0-.775-.513-1.419-1.233-1.746.61-.393.916-1.015.916-1.604 0-.807-.796-1.538-2.05-1.538-1.31 0-2.074.524-2.074 1.276a.486.486 0 1 0 .971.022.45.45 0 0 0-.098-.294c.338-.339 1.113-.339 1.211-.339.742 0 1.288.393 1.288.884 0 .327-.164.71-.459.95-.349.283-.621.305-1.014.327-.622.043-.786.043-.786.36 0 .338.262.338.437.338h.502c1.08 0 1.636.73 1.636 1.364 0 .665-.61 1.353-1.604 1.353-.436 0-1.276-.12-1.56-.633.055-.055.131-.12.131-.338a.477.477 0 0 0-.48-.48c-.25 0-.491.163-.491.512C.48-.513 1.538.12 2.88.12c1.43 0 2.357-1.004 2.357-2.018"/><path id="b" d="M5.15-.447v-.284c0-.207 0-.447-.371-.447-.382 0-.382.207-.382.512H1.8c.644-.556 1.691-1.374 2.16-1.81.688-.612 1.19-1.31 1.19-2.183 0-1.309-1.102-2.127-2.433-2.127-1.288 0-2.15.895-2.15 1.822a.486.486 0 1 0 .971.033.45.45 0 0 0-.152-.35c.163-.501.676-.84 1.276-.84.895 0 1.735.502 1.735 1.462 0 .764-.535 1.397-1.255 1.997L.731-.632c-.098.087-.164.141-.164.294C.567 0 .84 0 1.015 0h3.698c.36 0 .437-.098.437-.447"/><path id="h" d="M5.455-4.364c0-.338-.262-.338-.436-.338H3.742c-.164 0-.436 0-.436.327 0 .338.262.338.436.338h.306L2.858-.524 1.67-4.037h.306c.163 0 .436 0 .436-.327 0-.338-.262-.338-.436-.338H.698c-.174 0-.436 0-.436.338 0 .327.273.327.436.327h.328L2.28-.327c.131.37.35.37.578.37.208 0 .459 0 .579-.36l1.254-3.72h.328c.163 0 .436 0 .436-.327"/></defs><g fill="none" stroke="#000" stroke-miterlimit="10" stroke-width=".3985"><path d="M83.355 34.211h42.52V11.534h-42.52ZM110.993 34.211V11.534M145.718 34.211h42.52V11.534h-42.52ZM173.356 34.211V11.534M208.081 34.211h42.52V11.534h-42.52ZM235.719 34.211V11.534M270.444 34.211h42.52V11.534h-42.52ZM298.082 34.211V11.534M119.851 22.872h20.072"/></g><path d="m143.025 22.872-4.468-1.682 1.465 1.682-1.465 1.682Z"/><path fill="none" stroke="#000" stroke-miterlimit="10" stroke-width=".3985" d="m143.025 22.872-4.468-1.682 1.465 1.682-1.465 1.682ZM182.214 22.872h20.072"/><path d="m205.388 22.872-4.468-1.682 1.465 1.682-1.465 1.682Z"/><path fill="none" stroke="#000" stroke-miterlimit="10" stroke-width=".3985" d="m205.388 22.872-4.468-1.682 1.465 1.682-1.465 1.682ZM244.577 22.872h20.072"/><path d="m267.75 22.872-4.467-1.682 1.465 1.682-1.465 1.682Z"/><path fill="none" stroke="#000" stroke-miterlimit="10" stroke-width=".3985" d="m267.75 22.872-4.467-1.682 1.465 1.682-1.465 1.682ZM305.523 24.29v21.26H97.173v-5.544"/><path d="m97.174 36.904-1.682 4.468 1.682-1.465 1.682 1.465Z"/><path fill="none" stroke="#000" stroke-miterlimit="10" stroke-width=".3985" d="m97.174 36.904-1.682 4.468 1.682-1.465 1.682 1.465Z"/><use xlink:href="#a" x="11.355937" y="-37.788117" transform="translate(82.955 63.99)scale(1.00008)"/><use xlink:href="#b" x="11.355937" y="-37.788117" transform="translate(145.318 64.05)scale(1.00008)"/><use xlink:href="#c" x="11.355937" y="-37.788117" transform="translate(207.681 64.05)scale(1.00008)"/><g transform="translate(3.968 126.358)scale(1.00008)"><use xlink:href="#d" x="11.355937" y="-37.788117"/><use xlink:href="#e" x="17.083687" y="-37.788117"/><use xlink:href="#f" x="22.811438" y="-37.788117"/><use xlink:href="#g" x="28.539187" y="-37.788117"/><use xlink:href="#h" x="34.266937" y="-37.788117"/><use xlink:href="#e" x="39.994687" y="-37.788117"/><use xlink:href="#i" x="45.722439" y="-37.788117"/><use xlink:href="#b" x="51.450191" y="-37.788117"/><use xlink:href="#j" x="57.177944" y="-37.788117"/></g><g fill="none" stroke-miterlimit="10" stroke-width=".3985"><path stroke="#000" d="M83.355 96.574h42.52V73.897h-42.52ZM110.993 96.574V73.897"/><path stroke="#9f9f9f" d="M145.718 96.574h42.52V73.897h-42.52ZM173.356 96.574V73.897"/><g stroke="#000"><path d="M208.081 96.574h42.52V73.897h-42.52ZM235.719 96.574V73.897M270.444 96.574h42.52V73.897h-42.52ZM298.082 96.574V73.897"/></g><path stroke="#9f9f9f" d="M182.214 85.235h20.072"/></g><path fill="#9f9f9f" d="m205.388 85.235-4.468-1.682 1.465 1.682-1.465 1.682Z"/><path fill="none" stroke="#9f9f9f" stroke-miterlimit="10" stroke-width=".3985" d="m205.388 85.235-4.468-1.682 1.465 1.682-1.465 1.682Z"/><path fill="none" stroke="#000" stroke-miterlimit="10" stroke-width=".3985" d="M244.577 85.235h20.072"/><path d="m267.75 85.235-4.467-1.682 1.465 1.682-1.465 1.682Z"/><path fill="none" stroke="#000" stroke-miterlimit="10" stroke-width=".3985" d="m267.75 85.235-4.467-1.682 1.465 1.682-1.465 1.682ZM118.434 83.818v-15.59h70.867l12.186 8.124"/><path d="m204.068 78.072-2.784-3.878.286 2.213-2.152.586Z"/><path fill="none" stroke="#000" stroke-miterlimit="10" stroke-width=".398481" d="m204.068 78.072-2.784-3.878.286 2.213-2.152.586Z"/><path fill="none" stroke="#000" stroke-miterlimit="10" stroke-width=".3985" d="M305.523 86.653v21.26H159.537v-5.544"/><path d="m159.537 99.267-1.682 4.468 1.682-1.465 1.682 1.465Z"/><path fill="none" stroke="#000" stroke-miterlimit="10" stroke-width=".3985" d="m159.537 99.267-1.682 4.468 1.682-1.465 1.682 1.465Z"/><use xlink:href="#a" x="11.355937" y="-37.788117" transform="translate(82.955 126.353)scale(1.00008)"/><use xlink:href="#b" x="11.355937" y="-37.788117" fill="#9f9f9f" transform="translate(145.318 126.413)scale(1.00008)"/><use xlink:href="#c" x="11.355937" y="-37.788117" transform="translate(207.681 126.413)scale(1.00008)"/><g transform="translate(73.505 104.481)scale(1.0004)"><use xlink:href="#k" x="11.359559" y="-37.800171"/><use xlink:href="#l" x="17.51896" y="-37.800171"/><use xlink:href="#m" x="23.678361" y="-37.800171"/><use xlink:href="#n" x="29.837762" y="-37.800171"/></g><g transform="translate(198.231 106.453)scale(1.0004)"><use xlink:href="#o" x="11.359559" y="-37.800171"/><use xlink:href="#m" x="17.51896" y="-37.800171"/><use xlink:href="#p" x="23.678361" y="-37.800171"/><use xlink:href="#q" x="29.837762" y="-37.800171"/></g></svg>