<svg xmlns="http://www.w3.org/2000/svg" xmlns:xlink="http://www.w3.org/1999/xlink" width="338.61pt" height="186.97pt" viewBox="0 0 338.61 186.97"><defs><path id="o" d="M5.669-1.064v-.67h-.263v.67c0 .681-.287.777-.455.777-.454 0-.454-.634-.454-.813v-2.093c0-.646 0-1.125-.526-1.591-.419-.383-.957-.55-1.483-.55-.981 0-1.735.646-1.735 1.423 0 .347.228.514.503.514.287 0 .49-.203.49-.49 0-.49-.43-.49-.61-.49.275-.503.85-.718 1.328-.718.55 0 1.256.455 1.256 1.53v.48C1.316-3.05.407-2.046.407-1.126c0 .946 1.1 1.245 1.83 1.245A1.63 1.63 0 0 0 3.79-.933c.048.562.419.993.933.993.251 0 .945-.168.945-1.124m-1.95-.622C3.72-.514 2.847-.12 2.333-.12c-.586 0-1.076-.43-1.076-1.004 0-1.579 2.033-1.722 2.464-1.746z"/><path id="v" d="M6.076-2.583c0-1.52-1.125-2.691-2.452-2.691-.658 0-1.22.299-1.627.801V-8.3L.335-8.17v.347c.813 0 .909.084.909.67V0h.263l.43-.777c.276.442.79.897 1.555.897 1.376 0 2.584-1.16 2.584-2.703m-.91-.012c0 .801-.119 1.303-.406 1.734-.24.37-.718.741-1.316.741C2.8-.12 2.38-.538 2.177-.86c-.156-.251-.156-.3-.156-.502v-2.464c0-.215 0-.24.132-.43.287-.431.813-.778 1.4-.778.358 0 1.614.143 1.614 2.44"/><path id="m" d="M4.856-1.423c0-.108-.084-.108-.12-.108-.107 0-.12.036-.155.18-.263.849-.91 1.207-1.555 1.207-.73 0-1.698-.633-1.698-2.451 0-1.986 1.016-2.476 1.614-2.476.455 0 1.112.18 1.388.646-.144 0-.587 0-.587.49 0 .287.204.49.49.49.276 0 .503-.167.503-.514 0-.801-.837-1.375-1.806-1.375C1.53-5.334.42-4.09.42-2.584.419-1.051 1.567.12 2.919.12c1.578 0 1.937-1.436 1.937-1.543"/><path id="w" d="M4.868-1.423c0-.072-.06-.12-.132-.12-.096 0-.12.06-.143.12C4.282-.42 3.48-.143 2.978-.143s-1.71-.335-1.71-2.404v-.228H4.58c.263 0 .287 0 .287-.227 0-1.208-.646-2.332-2.093-2.332C1.41-5.334.359-4.102.359-2.62.359-1.041 1.579.12 2.906.12c1.424 0 1.962-1.292 1.962-1.543m-.742-1.579H1.28c.095-1.878 1.148-2.093 1.483-2.093 1.28 0 1.351 1.686 1.363 2.093"/><path id="n" d="M6.231 0v-.347c-.598 0-.897 0-.909-.359v-2.2c0-1.113 0-1.447-.275-1.83-.347-.467-.909-.538-1.315-.538-1.029 0-1.507.777-1.675 1.148h-.012V-8.3L.383-8.17v.347c.813 0 .909.084.909.67v6.267c0 .538-.132.538-.91.538V0c.312-.024.958-.024 1.292-.024.347 0 .993 0 1.304.024v-.347c-.765 0-.909 0-.909-.538V-3.11c0-1.255.825-1.925 1.567-1.925s.909.61.909 1.34v2.81c0 .538-.132.538-.91.538V0c.312-.024.958-.024 1.293-.024.346 0 .992 0 1.303.024"/><path id="p" d="M2.882 0v-.347c-.777 0-.825-.06-.825-.526v-4.401l-1.626.131v.347c.765 0 .873.072.873.658v3.253c0 .538-.132.538-.91.538V0c.336-.024.91-.024 1.256-.024.132 0 .826 0 1.232.024m-.67-7.224a.58.58 0 1 0-.586.574.576.576 0 0 0 .587-.574"/><path id="i" d="M2.966 0v-.347c-.765 0-.909 0-.909-.538V-8.3L.395-8.17v.347c.813 0 .909.084.909.67v6.267c0 .538-.132.538-.91.538V0c.336-.024.922-.024 1.28-.024s.957 0 1.292.024"/><path id="q" d="M6.231 0v-.347c-.598 0-.897 0-.909-.359v-2.2c0-1.113 0-1.447-.275-1.83-.347-.467-.909-.538-1.315-.538-1.16 0-1.615.992-1.71 1.232h-.013v-1.232l-1.626.131v.347c.813 0 .909.084.909.67v3.241c0 .538-.132.538-.91.538V0c.312-.024.958-.024 1.292-.024.347 0 .993 0 1.304.024v-.347c-.765 0-.909 0-.909-.538V-3.11c0-1.255.825-1.925 1.567-1.925s.909.61.909 1.34v2.81c0 .538-.132.538-.91.538V0c.312-.024.958-.024 1.293-.024.346 0 .992 0 1.303.024"/><path id="j" d="M5.49-2.56c0-1.542-1.172-2.774-2.56-2.774C1.495-5.334.36-4.066.36-2.56.359-1.03 1.555.12 2.919.12c1.41 0 2.57-1.172 2.57-2.68m-.91-.107c0 .419 0 1.16-.31 1.722a1.56 1.56 0 0 1-1.34.801c-.442 0-.98-.19-1.327-.777-.323-.538-.335-1.244-.335-1.746 0-.455 0-1.184.37-1.722a1.53 1.53 0 0 1 1.28-.706c.467 0 .969.215 1.292.682.37.55.37 1.303.37 1.746"/><path id="l" d="M3.887 2.906c0-.036 0-.06-.203-.263C2.488 1.435 1.818-.538 1.818-2.978c0-2.32.562-4.318 1.95-5.729.119-.108.119-.131.119-.167 0-.072-.06-.096-.108-.096-.155 0-1.136.861-1.722 2.033-.61 1.208-.885 2.488-.885 3.959 0 1.064.168 2.488.79 3.767.705 1.436 1.686 2.213 1.817 2.213.048 0 .108-.024.108-.096"/><path id="r" d="M3.373-2.978c0-.909-.12-2.392-.79-3.78C1.878-8.192.897-8.97.765-8.97c-.047 0-.107.024-.107.096 0 .036 0 .06.203.263C2.057-7.403 2.727-5.43 2.727-2.99c0 2.32-.562 4.318-1.95 5.729-.12.107-.12.131-.12.167 0 .072.06.096.108.096.156 0 1.137-.861 1.723-2.033.61-1.22.885-2.512.885-3.947"/><path id="u" d="M2.2-.586a.58.58 0 0 0-.573-.574.577.577 0 0 0-.586.574.58.58 0 1 0 1.16 0"/><path id="h" d="M4.21-1.519c0-.646-.395-1.028-.502-1.136-.431-.37-.754-.443-1.543-.586-.359-.072-1.232-.24-1.232-.957 0-.37.251-.92 1.327-.92 1.304 0 1.376 1.111 1.4 1.482.012.096.095.096.131.096.132 0 .132-.06.132-.275V-5.06c0-.215 0-.275-.12-.275-.095 0-.323.263-.406.37-.371-.298-.742-.37-1.125-.37-1.447 0-1.877.79-1.877 1.447 0 .132 0 .55.454.969.383.335.79.418 1.34.526.657.132.813.167 1.112.407.215.179.37.442.37.777 0 .514-.298 1.088-1.35 1.088C1.53-.12.956-.574.693-1.77c-.048-.215-.06-.24-.06-.24-.024-.047-.072-.047-.108-.047-.131 0-.131.06-.131.275v1.627c0 .215 0 .275.12.275.06 0 .071-.012.274-.264.06-.083.06-.107.24-.299.454.563 1.1.563 1.303.563C3.588.12 4.21-.574 4.21-1.52"/><path id="k" d="M3.899-1.483v-.682h-.263v.658c0 .861-.347 1.363-.813 1.363-.814 0-.814-1.112-.814-1.315v-3.349h1.687v-.347H2.009v-2.2h-.263c-.012 1.124-.442 2.272-1.53 2.308v.24h1.016v3.324C1.232-.155 2.117.12 2.75.12c.753 0 1.148-.742 1.148-1.603"/><path id="e" d="M5.4-2.171c0-.338-.261-.338-.436-.338h-.85v-3.84c0-.36-.077-.448-.448-.448H3.36c-.262 0-.316.011-.458.23L.415-2.663c-.099.142-.099.164-.099.382 0 .36.099.436.437.436h2.75v1.178h-.677c-.175 0-.437 0-.437.339 0 .327.273.327.437.327h1.963c.164 0 .437 0 .437-.327 0-.339-.262-.339-.437-.339h-.676v-1.178h.851c.164 0 .436 0 .436-.327M3.502-2.51H1.08l2.422-3.808z"/><path id="g" d="M5.139-3.404c0-2.63-1.211-3.382-2.248-3.382-1.21 0-2.313.906-2.313 2.226 0 1.243.96 2.214 2.16 2.214.568 0 1.135-.185 1.626-.632-.11 1.352-.96 2.433-2.007 2.433-.099 0-.491-.011-.72-.186.043-.055.098-.12.098-.305a.47.47 0 0 0-.48-.48c-.273 0-.491.185-.491.512C.764-.654.96.12 2.357.12c1.44 0 2.782-1.364 2.782-3.524m-.851-.84c0 .6-.59 1.222-1.495 1.222-.884 0-1.462-.731-1.462-1.538 0-.95.775-1.56 1.56-1.56.47 0 .775.25.95.469.348.425.447.632.447 1.407"/><path id="f" d="M5.15-.447v-.284c0-.207 0-.447-.371-.447-.382 0-.382.207-.382.512H1.8c.644-.556 1.691-1.374 2.16-1.81.688-.612 1.19-1.31 1.19-2.183 0-1.309-1.102-2.127-2.433-2.127-1.288 0-2.15.895-2.15 1.822a.486.486 0 1 0 .971.033.45.45 0 0 0-.152-.35c.163-.501.676-.84 1.276-.84.895 0 1.735.502 1.735 1.462 0 .764-.535 1.397-1.255 1.997L.731-.632c-.098.087-.164.141-.164.294C.567 0 .84 0 1.015 0h3.698c.36 0 .437-.098.437-.447"/><path id="t" d="M5.084-3.731c.066.076.153.153.218.163.12.044.306-.032.36-.163.033-.055.022-.131-.022-.251a4 4 0 0 0-.425-.687l-.447-.186L3.6-6c.24-.426.426-.851.546-1.277.022-.055.033-.142.022-.23 0-.086-.033-.152-.12-.206-.219-.142-.764-.328-1.157-.393-.065-.011-.098 0-.12.033l-.13.25c.272.142.512.339.621.513C2.924-6 1.942-4.506.6-3.317c-.054.044-.054.066-.022.11l.11.109c.043.032.076.032.12 0 1.069-.72 1.92-1.571 2.52-2.466zM6.677.513c-.895 0-1.538-.524-1.538-1.386 0-.85.643-1.385 1.538-1.385s1.55.534 1.55 1.385c0 .862-.655 1.386-1.55 1.386m0-3.284c-1.364 0-2.357.774-2.357 1.898 0 1.178.993 1.986 2.357 1.986S9.033.305 9.033-.873c0-1.124-.992-1.898-2.356-1.898m.96-6.219c.36.12.676.306.851.524v2.542l-1.418.033V-7.79l.021-.48c0-.098-.032-.163-.12-.196-.261-.12-.861-.251-1.2-.262-.087 0-.12.022-.13.065l-.088.251c.317.11.622.284.775.48v3.175c0 .426.01 1.157.065 1.528h.437c.141-.415.24-1.135.24-1.768v-.425l1.418-.033v1.364c0 .393.022 1.167.065 1.538h.459c.141-.436.24-1.211.24-1.79v-3.949l.032-.534c.011-.098-.032-.175-.13-.207-.284-.131-.939-.262-1.31-.273-.076 0-.109.022-.12.065z"/><path id="a" d="M7.092-8.99c.392.131.741.327.938.557V-.83c0 .48.022 1.55.054 2.007h.459c.163-.622.261-1.647.261-2.28v-7.124l.022-.578c.011-.11-.033-.186-.13-.219-.306-.13-.994-.272-1.397-.283-.087 0-.11.022-.12.054zm-1.79 1.582c-.534.033-2.574.066-2.978.066-.273 0-.655-.033-.95-.077l-.065.131q-.032.05.033.098c.229.186.545.371.84.47.207-.077.622-.153.84-.164.295-.033 1.647-.044 2.215-.033a7.5 7.5 0 0 1-.644 1.604c-.73.109-2.095.229-2.815.262-.294.01-.622 0-.916-.033l-.066.142c-.021.043 0 .065.033.087.23.175.535.338.84.458.175-.076.524-.174.742-.196.524-.044 1.31-.153 1.92-.251-.774 1.276-1.92 2.531-3.338 3.557-.044.043-.033.076-.011.098l.153.13c.021.012.054.012.098-.021C3.73-2.466 5.717-4.833 6.13-6.873l.197-.317c.022-.043.022-.087-.022-.13a5 5 0 0 0-.436-.262.27.27 0 0 0-.186 0z"/><path id="s" d="m9.012-5.51-.775.033v-2.76l.033-.567c0-.11-.033-.186-.131-.219-.317-.13-.993-.272-1.386-.283-.087 0-.109.022-.12.054l-.087.262c.382.131.731.327.916.557v4.287c0 .426.022 1.2.066 1.56h.458c.164-.425.251-1.134.251-1.8v-.622l1.898-.032c.077 0 .164-.011.208-.055.076-.044.142-.196.13-.393 0-.076-.065-.152-.152-.174-.197-.044-.644-.066-.96-.055zm-1.55 3.35c-.73.054-3.807.109-4.32.109a6 6 0 0 1-1.07-.098l-.075.152a.08.08 0 0 0 .043.099c.251.196.6.392.938.512.251-.098.72-.174.971-.185.448-.033 2.662-.076 3.492-.066V-.13c0 .393.021 1.058.065 1.43h.48c.131-.426.218-1.157.218-1.615l.022-1.266.131-.327c.022-.055.022-.098-.01-.142l-.415-.251a.24.24 0 0 0-.175 0zm-1.636-2.4c0-1.048-.982-1.68-2.226-1.68-1.265 0-2.247.632-2.247 1.68 0 1.025.982 1.68 2.247 1.68 1.244 0 2.226-.655 2.226-1.68m-3.699 0c0-.775.655-1.2 1.473-1.2s1.462.425 1.462 1.2S4.42-3.371 3.6-3.371s-1.473-.415-1.473-1.19M5.26-7.168c-.502.033-3.524.077-3.983.066a6.6 6.6 0 0 1-.992-.077l-.066.131c-.01.022-.01.066.033.098.218.175.567.382.862.491.196-.065.589-.142.807-.152.404-.033 3.131-.088 3.568-.088.24 0 .774.011.982.044a.52.52 0 0 0 .218-.404c0-.054-.044-.109-.11-.142-.196-.065-.665-.12-.981-.141zM1.887-8.553c-.01.021-.01.054.011.098.186.24.448.48.677.6.054.043.098.043.196.043.48-.043 1.31-.054 1.877-.065.065 0 .109-.01.141-.065.066-.077.077-.295.033-.404-.022-.066-.065-.098-.153-.098-.763 0-1.734-.033-2.705-.208z"/><path id="b" d="M3.513-.556c-.01-.655-.022-1.299-.022-1.942v-3.47l.044-1.69-.164-.132-2.356.611v.393l1.636-.185v4.473c0 .643-.01 1.287-.022 1.942L.906-.35V0h4.309v-.35z"/><path id="c" d="M1.298-.818c.6-.59 1.157-1.146 1.462-1.473 1.746-1.746 2.27-2.531 2.27-3.535 0-1.2-.688-2.018-2.16-2.018-1.135 0-2.15.578-2.335 1.723.12.208.283.339.523.339.284 0 .448-.208.579-.677l.272-.84a2.6 2.6 0 0 1 .72-.098c.939 0 1.506.666 1.506 1.647 0 .917-.48 1.811-1.68 3.11-.524.556-1.2 1.287-1.877 1.985V0H5.39v-.818z"/><path id="d" d="M2.03-7.31c.261-.065.49-.087.708-.087.96 0 1.506.535 1.506 1.44 0 1.07-.698 1.68-1.79 1.68h-.468v.47h.556c1.287 0 1.92.654 1.92 1.756 0 1.09-.633 1.767-1.844 1.767a2.6 2.6 0 0 1-.785-.12l-.207-.676c-.142-.48-.262-.698-.59-.698-.229 0-.403.12-.512.338C.764-.327 1.626.153 2.749.153c1.539 0 2.597-.939 2.597-2.237 0-1.014-.622-1.745-1.877-1.964 1.037-.327 1.626-1.036 1.626-1.93 0-1.103-.851-1.866-2.193-1.866-1.036 0-1.942.469-2.182 1.473.098.283.284.381.513.381.349 0 .48-.196.589-.643z"/></defs><g transform="translate(62.384 115.744)scale(1.00008)"><use xlink:href="#a" x="-47.063882" y="-51.962287"/><use xlink:href="#b" x="-33.720957" y="-51.962287"/></g><g transform="translate(62.384 155.43)scale(1.00008)"><use xlink:href="#a" x="-47.063882" y="-51.962287"/><use xlink:href="#c" x="-33.720957" y="-51.962287"/></g><g transform="translate(62.384 195.115)scale(1.00008)"><use xlink:href="#a" x="-47.063882" y="-51.962287"/><use xlink:href="#d" x="-33.720957" y="-51.962287"/></g><path fill="none" stroke="#000" stroke-miterlimit="10" stroke-width=".3985" d="M43.365 59.723H70.17"/><path d="m73.27 59.723-4.467-1.682 1.466 1.682-1.466 1.681Z"/><path fill="none" stroke="#000" stroke-miterlimit="10" stroke-width=".3985" d="m73.27 59.723-4.467-1.682 1.466 1.682-1.466 1.681ZM43.365 99.408c32.6 0 9.922 19.843 26.804 19.843"/><path d="m73.27 119.25-4.467-1.681 1.466 1.682-1.466 1.682Z"/><path fill="none" stroke="#000" stroke-miterlimit="10" stroke-width=".3985" d="m73.27 119.25-4.467-1.681 1.466 1.682-1.466 1.682Z"/><path fill="none" stroke="#000" stroke-miterlimit="10" stroke-width=".3985" d="M41.948 139.094c28.347 0 11.339-19.843 28.347-19.843"/><g transform="translate(128.636 115.079)scale(1.00008)"><use xlink:href="#e" x="-47.063882" y="-51.962287"/><use xlink:href="#f" x="-41.336137" y="-51.962287"/></g><g transform="translate(128.636 174.542)scale(1.00008)"><use xlink:href="#g" x="-47.063882" y="-51.962287"/><use xlink:href="#g" x="-41.336137" y="-51.962287"/></g><g transform="translate(197.695 77.813)scale(1.0004)"><use xlink:href="#h" x="-47.078895" y="-51.978861"/><use xlink:href="#i" x="-42.462337" y="-51.978861"/><use xlink:href="#j" x="-39.209215" y="-51.978861"/><use xlink:href="#k" x="-33.348814" y="-51.978861"/><use xlink:href="#h" x="-28.792054" y="-51.978861"/><use xlink:href="#l" x="-20.288493" y="-51.978861"/><use xlink:href="#m" x="-15.731732" y="-51.978861"/><use xlink:href="#n" x="-10.840092" y="-51.978861"/><use xlink:href="#o" x="-4.333851" y="-51.978861"/><use xlink:href="#p" x="1.526549" y="-51.978861"/><use xlink:href="#q" x="4.779669" y="-51.978861"/><use xlink:href="#h" x="11.285909" y="-51.978861"/><use xlink:href="#r" x="15.90247" y="-51.978861"/></g><path fill="none" stroke="#000" stroke-miterlimit="10" stroke-width=".3985" d="M100.059 59.723h23.97"/><path d="m127.13 59.723-4.468-1.682 1.466 1.682-1.466 1.681Z"/><path fill="none" stroke="#000" stroke-miterlimit="10" stroke-width=".3985" d="m127.13 59.723-4.468-1.682 1.466 1.682-1.466 1.681ZM100.059 119.25h23.97"/><path d="m127.13 119.25-4.468-1.681 1.466 1.682-1.466 1.682Z"/><g fill="none" stroke="#000" stroke-miterlimit="10" stroke-width=".3985"><path d="m127.13 119.25-4.468-1.681 1.466 1.682-1.466 1.682ZM135.493 39.88v-8.504M233.29 39.88v-8.504M135.493 79.565V39.88h97.796v39.685"/><path d="M138.327 76.73h36.851V42.715h-36.85ZM138.327 59.723h36.851"/></g><g transform="translate(194.196 107.807)scale(1.00008)"><use xlink:href="#a" x="-47.063882" y="-51.962287"/><use xlink:href="#b" x="-33.720957" y="-51.962287"/></g><g transform="translate(188.927 123.621)scale(1.00008)"><use xlink:href="#s" x="-47.063882" y="-51.962287"/><use xlink:href="#t" x="-36.524827" y="-51.962287"/><use xlink:href="#b" x="-23.181896" y="-51.962287"/></g><path fill="none" stroke="#000" stroke-miterlimit="10" stroke-width=".3985" d="M135.493 99.408V79.565h97.796v19.843"/><g transform="translate(229.825 146.022)scale(1.0004)"><use xlink:href="#u" x="-47.078895" y="-59.952061"/><use xlink:href="#u" x="-47.078895" y="-55.965461"/><use xlink:href="#u" x="-47.078895" y="-51.978861"/></g><g fill="none" stroke="#000" stroke-miterlimit="10" stroke-width=".3985"><path d="M135.493 139.094V99.408h97.796v39.686"/><path d="M138.327 136.259h36.851v-34.016h-36.85ZM138.327 119.25h36.851"/></g><g transform="translate(194.196 167.336)scale(1.00008)"><use xlink:href="#a" x="-47.063882" y="-51.962287"/><use xlink:href="#c" x="-33.720957" y="-51.962287"/></g><g transform="translate(188.927 183.149)scale(1.00008)"><use xlink:href="#s" x="-47.063882" y="-51.962287"/><use xlink:href="#t" x="-36.524827" y="-51.962287"/><use xlink:href="#c" x="-23.181896" y="-51.962287"/></g><path fill="none" stroke="#000" stroke-miterlimit="10" stroke-width=".3985" d="M175.178 119.25h12.914"/><path d="m191.193 119.25-4.467-1.681 1.465 1.682-1.465 1.682Z"/><g fill="none" stroke="#000" stroke-miterlimit="10" stroke-width=".3985"><path d="m191.193 119.25-4.467-1.681 1.465 1.682-1.465 1.682ZM193.604 136.259h36.85v-34.016h-36.85ZM193.604 119.25h36.85"/></g><g transform="translate(249.472 167.336)scale(1.00008)"><use xlink:href="#a" x="-47.063882" y="-51.962287"/><use xlink:href="#d" x="-33.720957" y="-51.962287"/></g><g transform="translate(244.203 183.149)scale(1.00008)"><use xlink:href="#s" x="-47.063882" y="-51.962287"/><use xlink:href="#t" x="-36.524827" y="-51.962287"/><use xlink:href="#d" x="-23.181896" y="-51.962287"/></g><path fill="none" stroke="#000" stroke-miterlimit="10" stroke-width=".3985" d="M135.493 147.598v-8.504h97.796v8.504"/><g transform="translate(285.96 115.079)scale(1.00008)"><use xlink:href="#e" x="-47.063882" y="-51.962287"/><use xlink:href="#f" x="-41.336137" y="-51.962287"/></g><g transform="translate(285.96 174.542)scale(1.00008)"><use xlink:href="#g" x="-47.063882" y="-51.962287"/><use xlink:href="#g" x="-41.336137" y="-51.962287"/></g><path fill="none" stroke="#000" stroke-miterlimit="10" stroke-width=".3985" d="M257.384 59.723h23.969"/><path d="m284.455 59.723-4.468-1.682 1.466 1.682-1.466 1.681Z"/><path fill="none" stroke="#000" stroke-miterlimit="10" stroke-width=".3985" d="m284.455 59.723-4.468-1.682 1.466 1.682-1.466 1.681ZM257.384 119.25c15.59 0-4.252-19.842 23.969-19.842"/><path d="m284.455 99.408-4.468-1.682 1.466 1.682-1.466 1.682Z"/><path fill="none" stroke="#000" stroke-miterlimit="10" stroke-width=".3985" d="m284.455 99.408-4.468-1.682 1.466 1.682-1.466 1.682ZM257.384 119.25c15.59 0-4.252 19.844 23.969 19.844"/><path d="m284.455 139.094-4.468-1.682 1.466 1.682-1.466 1.682Z"/><path fill="none" stroke="#000" stroke-miterlimit="10" stroke-width=".3985" d="m284.455 139.094-4.468-1.682 1.466 1.682-1.466 1.682Z"/><g transform="translate(340.583 115.684)scale(1.00008)"><use xlink:href="#s" x="-47.063882" y="-51.962287"/><use xlink:href="#t" x="-36.524827" y="-51.962287"/><use xlink:href="#b" x="-23.181896" y="-51.962287"/></g><g transform="translate(340.583 155.37)scale(1.00008)"><use xlink:href="#s" x="-47.063882" y="-51.962287"/><use xlink:href="#t" x="-36.524827" y="-51.962287"/><use xlink:href="#c" x="-23.181896" y="-51.962287"/></g><g transform="translate(340.583 195.055)scale(1.00008)"><use xlink:href="#s" x="-47.063882" y="-51.962287"/><use xlink:href="#t" x="-36.524827" y="-51.962287"/><use xlink:href="#d" x="-23.181896" y="-51.962287"/></g><path fill="none" stroke="#000" stroke-dasharray="2.98883 1.99255" stroke-miterlimit="10" stroke-width=".3985" d="M50.452 11.533h221.105v144.569H50.452Z"/><g transform="translate(181.691 223.487)scale(1.0004)"><use xlink:href="#n" x="-47.078895" y="-51.978861"/><use xlink:href="#o" x="-40.572658" y="-51.978861"/><use xlink:href="#h" x="-34.712259" y="-51.978861"/><use xlink:href="#n" x="-30.095698" y="-51.978861"/><use xlink:href="#k" x="-19.702455" y="-51.978861"/><use xlink:href="#o" x="-15.145695" y="-51.978861"/><use xlink:href="#v" x="-9.285295" y="-51.978861"/><use xlink:href="#i" x="-2.779054" y="-51.978861"/><use xlink:href="#w" x=".474067" y="-51.978861"/></g></svg>