<svg xmlns="http://www.w3.org/2000/svg" xmlns:xlink="http://www.w3.org/1999/xlink" width="450.36pt" height="250.79pt" viewBox="0 0 450.36 250.79"><defs><path id="B" d="M2.464-3.504c.024-.072.323-.67.765-1.053a1.74 1.74 0 0 1 1.184-.478c.479 0 .646.359.646.837 0 .682-.49 2.045-.73 2.691-.107.287-.167.443-.167.658 0 .538.37.969.945.969 1.112 0 1.53-1.759 1.53-1.83 0-.06-.047-.108-.119-.108-.107 0-.12.036-.18.24C6.065-.599 5.61-.12 5.144-.12c-.12 0-.311-.012-.311-.394 0-.3.131-.658.203-.826.24-.657.742-1.997.742-2.679 0-.717-.419-1.255-1.328-1.255-1.064 0-1.626.753-1.842 1.052-.036-.682-.526-1.052-1.052-1.052-.383 0-.646.227-.85.634C.49-4.21.324-3.492.324-3.444s.048.107.131.107c.096 0 .108-.012.18-.287.191-.73.407-1.411.885-1.411.275 0 .37.191.37.55 0 .263-.119.73-.203 1.1l-.335 1.292c-.047.227-.179.765-.239.98C1.03-.8.897-.238.897-.178c0 .167.132.299.311.299a.46.46 0 0 0 .407-.252c.024-.06.131-.478.191-.717l.263-1.077z"/><path id="G" d="M2.404-4.808h1.1c.228 0 .347 0 .347-.215 0-.132-.072-.132-.31-.132H2.487L2.93-6.9c.048-.167.048-.191.048-.275 0-.191-.155-.299-.31-.299-.097 0-.372.036-.467.419l-.467 1.901H.61c-.24 0-.347 0-.347.227 0 .12.084.12.311.12H1.64L.849-1.65c-.096.418-.131.538-.131.693C.718-.395 1.112.12 1.782.12c1.208 0 1.854-1.747 1.854-1.83 0-.072-.048-.108-.12-.108-.024 0-.072 0-.095.048-.012.012-.024.024-.108.215C3.062-.957 2.512-.12 1.818-.12c-.359 0-.383-.299-.383-.562 0-.012 0-.239.036-.382z"/><path id="p" d="M5.019-3.491c0-.873-.055-1.746-.437-2.553-.502-1.048-1.396-1.222-1.854-1.222-.655 0-1.452.284-1.899 1.298C.48-5.215.425-4.364.425-3.49c0 .818.044 1.8.491 2.63A2 2 0 0 0 2.716.24c.59 0 1.419-.23 1.899-1.266.35-.752.404-1.603.404-2.465M2.717 0C2.29 0 1.647-.273 1.45-1.32c-.12-.655-.12-1.658-.12-2.302 0-.698 0-1.418.087-2.008.208-1.298 1.026-1.396 1.299-1.396.36 0 1.08.196 1.287 1.276.11.611.11 1.44.11 2.128 0 .818 0 1.56-.12 2.258C3.828-.327 3.207 0 2.716 0"/><path id="r" d="m1.386-.84 1.156-1.124C4.244-3.469 4.899-4.059 4.899-5.15c0-1.243-.982-2.116-2.313-2.116a2.016 2.016 0 0 0-2.04 1.975c0 .61.545.61.578.61.185 0 .567-.13.567-.578a.55.55 0 0 0-.578-.567c-.087 0-.11 0-.142.011.25-.71.84-1.113 1.473-1.113.993 0 1.462.884 1.462 1.778 0 .873-.546 1.735-1.146 2.412L.666-.404c-.12.12-.12.142-.12.404h4.047L4.9-1.898h-.273c-.055.327-.131.807-.24.97-.077.088-.797.088-1.037.088z"/><path id="s" d="M3.164-3.84C4.059-4.135 4.69-4.9 4.69-5.76c0-.895-.96-1.506-2.007-1.506-1.102 0-1.931.655-1.931 1.484 0 .36.24.567.556.567.338 0 .557-.24.557-.556 0-.546-.513-.546-.677-.546.338-.534 1.058-.676 1.451-.676.448 0 1.048.24 1.048 1.222 0 .13-.022.763-.306 1.243-.327.524-.698.557-.97.568-.088.01-.35.032-.426.032-.088.011-.164.022-.164.131 0 .12.076.12.262.12h.48c.894 0 1.298.742 1.298 1.811 0 1.484-.753 1.8-1.233 1.8C2.16-.065 1.342-.25.96-.894c.382.055.72-.185.72-.6 0-.392-.294-.61-.61-.61-.263 0-.612.152-.612.632C.458-.48 1.473.24 2.662.24c1.331 0 2.324-.993 2.324-2.106 0-.894-.687-1.745-1.822-1.974"/><path id="ak" d="M3.208-1.8v.949c0 .393-.022.513-.83.513H2.15V0c.448-.033 1.015-.033 1.473-.033s1.037 0 1.484.033v-.338h-.23c-.807 0-.828-.12-.828-.513v-.95h1.09v-.337h-1.09v-4.964c0-.219 0-.284-.175-.284-.098 0-.13 0-.218.13L.305-2.137v.338zm.065-.338H.611l2.662-4.07z"/><path id="aj" d="M4.899-2.193c0-1.298-.895-2.39-2.073-2.39-.524 0-.993.175-1.386.557v-2.127c.218.065.578.142.927.142 1.342 0 2.106-.993 2.106-1.135 0-.066-.033-.12-.109-.12-.01 0-.033 0-.087.033a3.6 3.6 0 0 1-1.484.316c-.436 0-.938-.076-1.451-.305-.087-.033-.11-.033-.131-.033-.11 0-.11.087-.11.262v3.23c0 .195 0 .283.154.283.076 0 .098-.033.141-.098.12-.175.524-.764 1.408-.764.567 0 .84.502.927.698.175.404.197.83.197 1.375 0 .382 0 1.036-.262 1.494-.262.426-.666.71-1.168.71-.796 0-1.418-.579-1.603-1.222.032.01.065.021.185.021.36 0 .546-.272.546-.534s-.186-.535-.546-.535c-.153 0-.535.077-.535.578C.546-.818 1.299.24 2.52.24 3.786.24 4.9-.807 4.9-2.193"/><path id="ac" d="M5.454-1.304c0-.071-.024-.335-.395-.335-.227 0-.299.084-.37.264-.3.693-1.077.753-1.304.753-.993 0-1.782-.753-1.914-1.674h3.504c.252 0 .479 0 .479-.443 0-1.4-.79-2.523-2.285-2.523-1.387 0-2.5 1.196-2.5 2.655A2.667 2.667 0 0 0 3.35.072c1.543 0 2.105-1.065 2.105-1.376m-.79-1.65H1.483c.156-1.017.933-1.615 1.686-1.615 1.196 0 1.448 1.017 1.495 1.615"/><path id="ab" d="M5.98-4.676c0-.228-.18-.622-.85-.622-.214 0-.753.048-1.255.442a2 2 0 0 0-1.136-.37A1.91 1.91 0 0 0 .813-3.326c0 .263.06.718.395 1.148a1.57 1.57 0 0 0-.263.837c0 .42.203.754.299.862A1.7 1.7 0 0 0 .347.992c0 .993 1.208 1.747 2.727 1.747S5.8 1.997 5.8.993C5.8-.73 3.684-.73 3.289-.73H2.272c-.143 0-.693 0-.693-.645 0-.228.036-.275.083-.371.24.167.634.323 1.065.323a1.91 1.91 0 0 0 1.925-1.902c0-.299-.071-.67-.322-1.064.31-.168.598-.204.777-.216.072.371.43.383.43.383.144 0 .443-.096.443-.454M3.875-3.325c0 .682-.514 1.232-1.148 1.232-.598 0-1.136-.526-1.136-1.232s.55-1.232 1.136-1.232c.634 0 1.148.55 1.148 1.232M5.119.993c0 .55-.873 1.076-2.045 1.076S1.029 1.543 1.029.993c0-.18.06-.598.502-.873.275-.18.395-.18 1.22-.18 1.052 0 2.368 0 2.368 1.053"/><path id="ae" d="M5.119.682c0-.156-.084-.204-.251-.323C3.218-.777 2.81-2.488 2.81-3.648c0-1.136.382-2.858 2.057-4.018.167-.12.25-.168.25-.323 0-.12-.059-.311-.346-.311-.299 0-1.184.693-1.734 1.47a5.43 5.43 0 0 0-1.005 3.182c0 1.328.479 2.44.98 3.146C3.565.263 4.438.993 4.773.993c.287 0 .347-.204.347-.311"/><path id="af" d="M4.114-3.648c0-.933-.227-2.14-1.088-3.3-.407-.55-1.292-1.352-1.65-1.352-.276 0-.347.203-.347.31 0 .144.083.204.299.348 1.459 1.028 2.009 2.63 2.009 3.982C3.337-2.583 2.99-.825 1.28.36c-.156.107-.251.167-.251.323 0 .107.071.31.346.31.3 0 1.184-.693 1.735-1.47a5.5 5.5 0 0 0 1.004-3.17"/><path id="am" d="M5.37-1.483c0-1.244-1.483-1.495-2.057-1.579-1.053-.18-1.77-.299-1.77-.801 0-.323.37-.706 1.495-.706 1.136 0 1.184.538 1.208.85.024.239.239.275.383.275.394 0 .394-.216.394-.455v-.909c0-.191 0-.454-.335-.454-.287 0-.358.287-.358.287-.479-.287-1.029-.287-1.268-.287-1.95 0-2.213.992-2.213 1.399 0 .49.287.825.694 1.052.383.216.73.275 1.71.431.467.084 1.423.24 1.423.897 0 .442-.406.861-1.519.861-.765 0-1.267-.299-1.518-1.16-.06-.167-.096-.299-.395-.299-.395 0-.395.227-.395.466v1.232c0 .192 0 .455.335.455.144 0 .251 0 .43-.49.55.454 1.173.49 1.543.49C5.37.072 5.37-1.363 5.37-1.483"/><path id="ad" d="M5.262-1.471c0-.24 0-.502-.394-.502-.383 0-.383.263-.383.514-.012.717-.694.837-.969.837-.933 0-.933-.598-.933-.885v-2.954h1.938c.167 0 .478 0 .478-.347s-.31-.347-.478-.347H2.583v-.98c0-.216 0-.49-.382-.49-.395 0-.395.274-.395.49v.98H.789c-.167 0-.49 0-.49.347s.311.347.478.347h1.029v3.014c0 1.112.765 1.519 1.627 1.519.645 0 1.83-.323 1.83-1.543"/><path id="h" d="M5.358-3.827c0-.993-.06-1.962-.49-2.87-.49-.993-1.352-1.256-1.938-1.256-.693 0-1.543.346-1.985 1.34C.61-5.86.49-5.12.49-3.828c0 1.16.084 2.033.515 2.882A2.13 2.13 0 0 0 2.918.251c1.04 0 1.639-.622 1.986-1.315.43-.897.454-2.07.454-2.763M2.918.012c-.382 0-1.16-.215-1.387-1.519-.132-.718-.132-1.627-.132-2.464 0-.98 0-1.865.192-2.571.203-.801.813-1.172 1.327-1.172.455 0 1.148.275 1.376 1.303.155.682.155 1.627.155 2.44 0 .802 0 1.71-.131 2.44C4.09-.215 3.337.012 2.918.012"/><path id="i" d="M3.444-7.666c0-.275 0-.287-.239-.287-.287.323-.885.765-2.117.765v.347c.275 0 .873 0 1.531-.311v6.231c0 .43-.036.574-1.088.574h-.37V0c.322-.024 1.482-.024 1.877-.024s1.543 0 1.866.024v-.347h-.371C3.48-.347 3.444-.49 3.444-.92z"/><path id="b" d="M5.262-2.01H5c-.036.204-.131.862-.25 1.053-.085.108-.766.108-1.125.108H1.41c.323-.275 1.053-1.04 1.364-1.328 1.818-1.674 2.487-2.296 2.487-3.48 0-1.375-1.088-2.296-2.475-2.296S.586-6.77.586-5.741c0 .61.526.61.562.61.251 0 .562-.18.562-.562 0-.335-.227-.562-.562-.562-.107 0-.131 0-.167.012.227-.813.873-1.364 1.65-1.364 1.017 0 1.639.85 1.639 1.95 0 1.017-.586 1.902-1.268 2.667L.586-.287V0h4.365z"/><path id="j" d="M2.2-4.294c-.203.012-.25.024-.25.132 0 .12.06.12.275.12h.55c1.016 0 1.47.837 1.47 1.985 0 1.567-.812 1.985-1.399 1.985-.574 0-1.554-.275-1.901-1.064.383.06.73-.156.73-.586a.565.565 0 0 0-.587-.586c-.287 0-.598.167-.598.622C.49-.622 1.555.25 2.882.25c1.424 0 2.476-1.088 2.476-2.296 0-1.1-.885-1.962-2.033-2.165 1.04-.299 1.71-1.172 1.71-2.105 0-.945-.98-1.638-2.14-1.638-1.197 0-2.082.73-2.082 1.602 0 .479.371.574.55.574.252 0 .539-.18.539-.538 0-.383-.287-.55-.55-.55-.072 0-.096 0-.132.012.454-.813 1.579-.813 1.638-.813.395 0 1.173.179 1.173 1.351 0 .227-.036.897-.383 1.411-.359.527-.766.563-1.089.574z"/><path id="ag" d="M4.318-7.786c0-.227 0-.287-.168-.287-.096 0-.131 0-.227.144l-3.6 5.585v.347h3.145V-.91c0 .443-.024.562-.897.562h-.239V0c.275-.024 1.22-.024 1.555-.024s1.292 0 1.567.024v-.347h-.24c-.86 0-.896-.12-.896-.562v-1.088h1.208v-.347H4.318zm-.79.933v4.509H.622z"/><path id="ah" d="M1.471-4.162c0-3.026 1.471-3.504 2.117-3.504.43 0 .861.131 1.088.49-.143 0-.598 0-.598.49 0 .263.18.49.49.49.3 0 .503-.179.503-.526 0-.621-.454-1.231-1.495-1.231C2.069-7.953.49-6.411.49-3.78.49-.49 1.926.25 2.942.25c1.304 0 2.416-1.136 2.416-2.69 0-1.592-1.112-2.656-2.308-2.656-1.065 0-1.46.921-1.579 1.256zm1.471 4.09c-.753 0-1.112-.67-1.22-.92-.107-.312-.227-.898-.227-1.735 0-.945.43-2.129 1.507-2.129.658 0 1.005.443 1.184.85.191.442.191 1.04.191 1.554 0 .61 0 1.148-.227 1.603-.299.574-.73.777-1.208.777"/><path id="H" d="M2.99 2.99v-.443H1.83V-8.527h1.16v-.443H1.387V2.99z"/><path id="K" d="M1.854-8.97H.25v.443h1.16V2.547H.251v.443h1.603z"/><path id="I" d="M5.322-2.906c0-1.113 0-1.447-.275-1.83-.347-.467-.909-.538-1.315-.538-1.16 0-1.615.992-1.71 1.232h-.013v-1.232l-1.626.131v.347c.813 0 .909.084.909.67v3.241c0 .538-.132.538-.91.538V0c.312-.024.958-.024 1.292-.024.347 0 .993 0 1.304.024v-.347c-.765 0-.909 0-.909-.538V-3.11c0-1.255.825-1.925 1.567-1.925s.909.61.909 1.34v2.81c0 .538-.132.538-.91.538V0c.312-.024.958-.024 1.293-.024.346 0 .992 0 1.303.024v-.347c-.598 0-.897 0-.909-.359z"/><path id="J" d="M3.923-5.06c0-.214 0-.274-.12-.274-.095 0-.323.263-.406.37-.371-.298-.742-.37-1.125-.37-1.447 0-1.877.79-1.877 1.447 0 .132 0 .55.454.969.383.335.79.418 1.34.526.657.132.813.167 1.112.407.215.179.37.442.37.777 0 .514-.298 1.088-1.35 1.088C1.53-.12.956-.574.693-1.77c-.048-.215-.048-.227-.06-.24-.024-.047-.072-.047-.108-.047-.131 0-.131.06-.131.275v1.627c0 .215 0 .275.12.275.06 0 .071-.012.274-.264.06-.083.06-.107.24-.299.454.563 1.1.563 1.303.563C3.588.12 4.21-.574 4.21-1.52c0-.646-.395-1.028-.502-1.136-.431-.37-.754-.443-1.543-.586-.359-.072-1.232-.24-1.232-.957 0-.37.251-.92 1.327-.92 1.304 0 1.376 1.111 1.4 1.482.012.096.095.096.131.096.132 0 .132-.06.132-.275z"/><path id="q" d="M2.095-.578c0-.317-.262-.578-.579-.578s-.578.261-.578.578S1.2 0 1.516 0s.579-.262.579-.578"/><path id="t" d="M.96-.644c-.033.164-.098.415-.098.47 0 .196.153.294.316.294.131 0 .328-.087.404-.305.01-.022.142-.535.207-.808l.24-.982c.066-.24.131-.48.186-.73.043-.186.13-.503.142-.546.163-.338.741-1.331 1.778-1.331.49 0 .589.403.589.764 0 .676-.535 2.072-.71 2.542-.097.25-.108.381-.108.501 0 .513.382.895.894.895 1.026 0 1.43-1.593 1.43-1.68 0-.11-.099-.11-.131-.11-.11 0-.11.033-.164.197C5.717-.73 5.357-.12 4.822-.12c-.185 0-.262-.11-.262-.36 0-.273.099-.535.197-.775.207-.578.665-1.778.665-2.4 0-.73-.469-1.167-1.254-1.167-.982 0-1.517.698-1.702.949-.055-.611-.502-.95-1.004-.95s-.71.426-.818.623a5.5 5.5 0 0 0-.328 1.058c0 .109.11.109.131.109.11 0 .12-.01.186-.25.185-.776.403-1.3.796-1.3.218 0 .338.143.338.503 0 .229-.032.349-.174.916z"/><path id="n" d="M2.247-4.364h1.026c.218 0 .327 0 .327-.218 0-.12-.109-.12-.305-.12h-.96c.393-1.55.447-1.768.447-1.833 0-.186-.13-.295-.316-.295-.033 0-.339.011-.437.393l-.425 1.735H.578c-.218 0-.327 0-.327.207 0 .131.087.131.305.131h.96C.731-1.266.687-1.08.687-.884c0 .59.415 1.004 1.004 1.004 1.113 0 1.735-1.593 1.735-1.68 0-.11-.088-.11-.131-.11-.098 0-.11.033-.164.154C2.662-.382 2.084-.12 1.713-.12c-.23 0-.338-.142-.338-.502 0-.262.021-.338.065-.524z"/><path id="C" d="M5.669-1.064v-.67h-.263v.67c0 .681-.287.777-.455.777-.454 0-.454-.634-.454-.813v-2.093c0-.646 0-1.125-.526-1.591-.419-.383-.957-.55-1.483-.55-.981 0-1.735.646-1.735 1.423 0 .347.228.514.503.514.287 0 .49-.203.49-.49 0-.49-.43-.49-.61-.49.275-.503.85-.718 1.328-.718.55 0 1.256.455 1.256 1.53v.48C1.316-3.05.407-2.046.407-1.126c0 .946 1.1 1.245 1.83 1.245A1.63 1.63 0 0 0 3.79-.933c.048.562.419.993.933.993.251 0 .945-.168.945-1.124m-1.95-.622C3.72-.514 2.847-.12 2.333-.12c-.586 0-1.076-.43-1.076-1.004 0-1.579 2.033-1.722 2.464-1.746z"/><path id="W" d="M6.076-2.583c0-1.52-1.125-2.691-2.452-2.691-.658 0-1.22.299-1.627.801V-8.3L.335-8.17v.347c.813 0 .909.084.909.67V0h.263l.43-.777c.276.442.79.897 1.555.897 1.376 0 2.584-1.16 2.584-2.703m-.91-.012c0 .801-.119 1.303-.406 1.734-.24.37-.718.741-1.316.741C2.8-.12 2.38-.538 2.177-.86c-.156-.251-.156-.3-.156-.502v-2.464c0-.215 0-.24.132-.43.287-.431.813-.778 1.4-.778.358 0 1.614.143 1.614 2.44"/><path id="Q" d="M7.798-2.775c0-.131 0-.203-.132-.203-.12 0-.131.06-.131.143C7.427-.933 6.04-.095 4.88-.095c-.838 0-3.122-.503-3.122-3.995 0-3.457 2.249-3.983 3.11-3.983 1.256 0 2.356 1.064 2.595 2.858.024.144.024.18.167.18.168 0 .168-.036.168-.275v-2.835c0-.215 0-.275-.12-.275-.071 0-.083.024-.155.144l-.586.945c-.538-.67-1.352-1.089-2.213-1.089C2.536-8.42.646-6.53.646-4.09.646-1.615 2.559.25 4.724.25c1.962 0 3.074-1.71 3.074-3.026"/><path id="Z" d="M4.856-1.423c0-.108-.084-.108-.12-.108-.107 0-.12.036-.155.18-.263.849-.91 1.207-1.555 1.207-.73 0-1.698-.633-1.698-2.451 0-1.986 1.016-2.476 1.614-2.476.455 0 1.112.18 1.388.646-.144 0-.587 0-.587.49 0 .287.204.49.49.49.276 0 .503-.167.503-.514 0-.801-.837-1.375-1.806-1.375C1.53-5.334.42-4.09.42-2.584.419-1.051 1.567.12 2.919.12c1.578 0 1.937-1.436 1.937-1.543"/><path id="E" d="M6.16 0v-.347c-.814 0-.91-.084-.91-.67V-8.3l-1.662.131v.347c.813 0 .909.084.909.67v2.643a1.86 1.86 0 0 0-1.495-.765C1.615-5.274.419-4.102.419-2.571c0 1.519 1.136 2.69 2.451 2.69.91 0 1.436-.597 1.603-.825V.12zM4.472-1.4c0 .216 0 .252-.167.515-.287.419-.778.765-1.376.765-.31 0-1.602-.12-1.602-2.44 0-.86.143-1.339.406-1.734.24-.37.718-.741 1.316-.741.741 0 1.16.538 1.28.73.143.203.143.227.143.442z"/><path id="A" d="M4.868-1.423c0-.072-.06-.12-.132-.12-.096 0-.12.06-.143.12C4.282-.42 3.48-.143 2.978-.143s-1.71-.335-1.71-2.404v-.228H4.58c.263 0 .287 0 .287-.227 0-1.208-.646-2.332-2.093-2.332C1.41-5.334.359-4.102.359-2.62.359-1.041 1.579.12 2.906.12c1.424 0 1.962-1.292 1.962-1.543m-.742-1.579H1.28c.095-1.878 1.148-2.093 1.483-2.093 1.28 0 1.351 1.686 1.363 2.093"/><path id="M" d="m7.14-5.478-.31-2.667H.49v.347h.24c.86 0 .897.12.897.562v6.327c0 .443-.036.562-.897.562H.49V0C.777-.024 1.842-.024 2.2-.024c.42 0 1.472 0 1.819.024v-.347h-.36c-1.04 0-1.064-.143-1.064-.574v-2.978h1.053c1.124 0 1.244.395 1.244 1.4h.263v-3.146h-.263c0 1.005-.12 1.4-1.244 1.4H2.595V-7.32c0-.394.024-.478.55-.478H4.64c1.723 0 2.07.634 2.237 2.32z"/><path id="aa" d="M4.09-7.63c0-.443-.43-.79-1.004-.79-.838 0-1.782.646-1.782 1.866v1.4H.37v.346h.933v3.923c0 .538-.132.538-.91.538V0c.336-.024.993-.024 1.352-.024.323 0 1.172 0 1.447.024v-.347h-.239c-.873 0-.897-.131-.897-.562v-3.899H3.41v-.347H2.033v-1.4c0-1.075.55-1.626 1.04-1.626.096 0 .276.024.42.096a.48.48 0 0 0-.348.466c0 .276.192.467.467.467.287 0 .478-.191.478-.478"/><path id="T" d="M5.681-4.856a.56.56 0 0 0-.586-.55c-.622 0-1.088.383-1.256.562a2 2 0 0 0-1.232-.43C1.531-5.274.73-4.461.73-3.54c0 .682.418 1.124.538 1.232-.144.18-.359.526-.359.992 0 .694.419.993.514 1.053-.55.155-1.1.586-1.1 1.208 0 .825 1.124 1.507 2.595 1.507 1.423 0 2.608-.634 2.608-1.531 0-.3-.084-1.005-.802-1.375-.61-.311-1.208-.311-2.236-.311-.73 0-.814 0-1.029-.228a.88.88 0 0 1-.227-.598c0-.203.072-.406.191-.574.562.371 1.04.371 1.172.371 1.077 0 1.878-.813 1.878-1.734 0-.323-.096-.778-.478-1.16.466-.479 1.028-.479 1.088-.479.048 0 .108 0 .155.024-.12.048-.179.168-.179.3 0 .167.12.31.311.31.096 0 .311-.06.311-.323M3.648-3.54c0 .215 0 .705-.204 1.028a1.02 1.02 0 0 1-.837.467c-1.052 0-1.052-1.208-1.052-1.483 0-.215 0-.706.203-1.029a1.02 1.02 0 0 1 .837-.466c1.053 0 1.053 1.208 1.053 1.483M4.939.933c0 .706-.908 1.268-2.009 1.268C1.782 2.2.91 1.615.91.933c0-.096.024-.562.478-.873.263-.168.371-.168 1.208-.168.993 0 2.344 0 2.344 1.04"/><path id="U" d="M8.276 0v-.347h-.239c-.861 0-.897-.12-.897-.562v-6.35c0-.443.036-.563.897-.563h.24v-.347c-.288.024-1.268.024-1.615.024-.36 0-1.34 0-1.627-.024v.347h.24c.86 0 .896.12.896.562v2.835H2.595V-7.26c0-.442.036-.562.897-.562h.24v-.347c-.288.024-1.268.024-1.615.024-.359 0-1.34 0-1.627-.024v.347h.24c.86 0 .897.12.897.562v6.351c0 .443-.036.562-.897.562H.49V0c.287-.024 1.268-.024 1.615-.024.359 0 1.34 0 1.627.024v-.347h-.24c-.86 0-.897-.12-.897-.562v-3.17h3.576v3.17c0 .443-.036.562-.897.562h-.239V0c.287-.024 1.268-.024 1.615-.024.359 0 1.34 0 1.626.024"/><path id="R" d="M6.231 0v-.347c-.598 0-.897 0-.909-.359v-2.2c0-1.113 0-1.447-.275-1.83-.347-.467-.909-.538-1.315-.538-1.029 0-1.507.777-1.675 1.148h-.012V-8.3L.383-8.17v.347c.813 0 .909.084.909.67v6.267c0 .538-.132.538-.91.538V0c.312-.024.958-.024 1.292-.024.347 0 .993 0 1.304.024v-.347c-.765 0-.909 0-.909-.538V-3.11c0-1.255.825-1.925 1.567-1.925s.909.61.909 1.34v2.81c0 .538-.132.538-.91.538V0c.312-.024.958-.024 1.293-.024.346 0 .992 0 1.303.024"/><path id="O" d="M3.241-2.26v-.646H.131v.646z"/><path id="y" d="M2.882 0v-.347c-.777 0-.825-.06-.825-.526v-4.401l-1.626.131v.347c.765 0 .873.072.873.658v3.253c0 .538-.132.538-.91.538V0c.336-.024.91-.024 1.256-.024.132 0 .826 0 1.232.024m-.67-7.224a.58.58 0 1 0-.586.574.576.576 0 0 0 .587-.574"/><path id="v" d="M2.966 0v-.347c-.765 0-.909 0-.909-.538V-8.3L.395-8.17v.347c.813 0 .909.084.909.67v6.267c0 .538-.132.538-.91.538V0c.336-.024.922-.024 1.28-.024s.957 0 1.292.024"/><path id="F" d="M9.484 0v-.347c-.598 0-.897 0-.909-.359v-2.2c0-1.113 0-1.447-.275-1.83-.347-.467-.909-.538-1.315-.538-.993 0-1.495.717-1.687 1.184-.167-.921-.813-1.184-1.566-1.184-1.16 0-1.615.992-1.71 1.232h-.013v-1.232l-1.626.131v.347c.813 0 .909.084.909.67v3.241c0 .538-.132.538-.91.538V0c.312-.024.958-.024 1.292-.024.347 0 .993 0 1.304.024v-.347c-.765 0-.909 0-.909-.538V-3.11c0-1.255.825-1.925 1.567-1.925s.909.61.909 1.34v2.81c0 .538-.132.538-.91.538V0c.312-.024.958-.024 1.293-.024.346 0 .992 0 1.303.024v-.347c-.765 0-.909 0-.909-.538V-3.11c0-1.255.825-1.925 1.567-1.925s.909.61.909 1.34v2.81c0 .538-.132.538-.909.538V0c.31-.024.957-.024 1.292-.024.346 0 .992 0 1.303.024"/><path id="S" d="M6.231 0v-.347c-.598 0-.897 0-.909-.359v-2.2c0-1.113 0-1.447-.275-1.83-.347-.467-.909-.538-1.315-.538-1.16 0-1.615.992-1.71 1.232h-.013v-1.232l-1.626.131v.347c.813 0 .909.084.909.67v3.241c0 .538-.132.538-.91.538V0c.312-.024.958-.024 1.292-.024.347 0 .993 0 1.304.024v-.347c-.765 0-.909 0-.909-.538V-3.11c0-1.255.825-1.925 1.567-1.925s.909.61.909 1.34v2.81c0 .538-.132.538-.91.538V0c.312-.024.958-.024 1.293-.024.346 0 .992 0 1.303.024"/><path id="w" d="M5.49-2.56c0-1.542-1.172-2.774-2.56-2.774C1.495-5.334.36-4.066.36-2.56.359-1.03 1.555.12 2.919.12c1.41 0 2.57-1.172 2.57-2.68m-.91-.107c0 .419 0 1.16-.31 1.722a1.56 1.56 0 0 1-1.34.801c-.442 0-.98-.19-1.327-.777-.323-.538-.335-1.244-.335-1.746 0-.455 0-1.184.37-1.722a1.53 1.53 0 0 1 1.28-.706c.467 0 .969.215 1.292.682.37.55.37 1.303.37 1.746"/><path id="D" d="M6.076-2.583c0-1.52-1.125-2.691-2.428-2.691-1.053 0-1.615.753-1.65.801v-.801l-1.663.131v.347c.837 0 .909.084.909.61v5.621c0 .538-.132.538-.91.538v.347c.312-.024.958-.024 1.293-.024.346 0 .992 0 1.303.024v-.347c-.765 0-.909 0-.909-.538v-2.08c.216.298.706.765 1.471.765 1.376 0 2.584-1.16 2.584-2.703m-.91 0c0 1.423-.813 2.463-1.733 2.463a1.4 1.4 0 0 1-.957-.382c-.275-.275-.455-.515-.455-.85v-2.463c0-.227 0-.24.132-.43a1.72 1.72 0 0 1 1.4-.766c.896 0 1.614 1.088 1.614 2.428"/><path id="L" d="M3.887 2.906c0-.036 0-.06-.203-.263C2.488 1.435 1.818-.538 1.818-2.978c0-2.32.562-4.318 1.95-5.729.119-.108.119-.131.119-.167 0-.072-.06-.096-.108-.096-.155 0-1.136.861-1.722 2.033-.61 1.208-.885 2.488-.885 3.959 0 1.064.168 2.488.79 3.767.705 1.436 1.686 2.213 1.817 2.213.048 0 .108-.024.108-.096"/><path id="P" d="M3.373-2.978c0-.909-.12-2.392-.79-3.78C1.878-8.192.897-8.97.765-8.97c-.047 0-.107.024-.107.096 0 .036 0 .06.203.263C2.057-7.403 2.727-5.43 2.727-2.99c0 2.32-.562 4.318-1.95 5.729-.12.107-.12.131-.12.167 0 .072.06.096.108.096.156 0 1.137-.861 1.723-2.033.61-1.22.885-2.512.885-3.947"/><path id="X" d="M5.848-2.2c0-.73-.275-1.268-.598-1.663-.442-.538-.98-.67-1.447-.79l-1.315-.334c-.61-.156-1.148-.754-1.148-1.52 0-.836.67-1.59 1.602-1.59 1.962 0 2.225 1.938 2.296 2.452.024.143.024.191.144.191.132 0 .132-.06.132-.275v-2.416c0-.215 0-.275-.12-.275-.036 0-.084 0-.167.156l-.395.73c-.574-.742-1.364-.886-1.89-.886A2.28 2.28 0 0 0 .646-6.135c0 .574.203 1.1.646 1.578.418.467.837.574 1.686.79.419.095 1.076.263 1.244.334.562.276.933.921.933 1.591 0 .897-.634 1.746-1.627 1.746-.538 0-1.28-.131-1.866-.646C.97-1.363.921-2.225.91-2.619c-.012-.096-.132-.096-.132-.096-.131 0-.131.06-.131.275v2.416c0 .215 0 .275.12.275.071 0 .083-.024.167-.167l.395-.718c.43.479 1.184.885 2.212.885C4.88.251 5.848-.885 5.848-2.2"/><path id="u" d="M4.21-1.519c0-.646-.395-1.028-.502-1.136-.431-.37-.754-.443-1.543-.586-.359-.072-1.232-.24-1.232-.957 0-.37.251-.92 1.327-.92 1.304 0 1.376 1.111 1.4 1.482.012.096.095.096.131.096.132 0 .132-.06.132-.275V-5.06c0-.215 0-.275-.12-.275-.095 0-.323.263-.406.37-.371-.298-.742-.37-1.125-.37-1.447 0-1.877.79-1.877 1.447 0 .132 0 .55.454.969.383.335.79.418 1.34.526.657.132.813.167 1.112.407.215.179.37.442.37.777 0 .514-.298 1.088-1.35 1.088C1.53-.12.956-.574.693-1.77c-.048-.215-.06-.24-.06-.24-.024-.047-.072-.047-.108-.047-.131 0-.131.06-.131.275v1.627c0 .215 0 .275.12.275.06 0 .071-.012.274-.264.06-.083.06-.107.24-.299.454.563 1.1.563 1.303.563C3.588.12 4.21-.574 4.21-1.52"/><path id="V" d="M8.025-5.442 7.81-8.109H.634L.419-5.442h.263c.167-1.89.275-2.32 2.164-2.32.216 0 .55 0 .646.024.24.036.251.18.251.454V-.92c0 .407 0 .574-1.172.574h-.43V0c.383-.024 1.614-.024 2.08-.024s1.711 0 2.094.024v-.347h-.43c-1.173 0-1.173-.167-1.173-.574v-6.363c0-.299.024-.406.216-.454.095-.024.442-.024.67-.024 1.889 0 1.997.43 2.164 2.32z"/><path id="x" d="M3.899-1.483v-.682h-.263v.658c0 .861-.347 1.363-.813 1.363-.814 0-.814-1.112-.814-1.315v-3.349h1.687v-.347H2.009v-2.2h-.263c-.012 1.124-.442 2.272-1.53 2.308v.24h1.016v3.324C1.232-.155 2.117.12 2.75.12c.753 0 1.148-.742 1.148-1.603"/><path id="Y" d="M6.231 0v-.347c-.813 0-.909-.084-.909-.67v-4.257l-1.686.131v.347c.813 0 .909.084.909.67v2.14C4.545-.968 4.007-.12 3.11-.12c-.981 0-1.04-.562-1.04-1.196v-3.958l-1.687.131v.347c.909 0 .909.036.909 1.1v1.794c0 .742 0 1.172.358 1.567.288.311.778.455 1.388.455.203 0 .586 0 .993-.347.346-.275.538-.73.538-.73V.12z"/><path id="N" d="M6.052 0v-.347c-.634 0-.85-.024-1.136-.406l-1.567-2.07c.347-.454.849-1.1 1.076-1.351.49-.55 1.053-.634 1.435-.634v-.347c-.514.024-.538.024-1.004.024l-1.077-.024v.347c.156.024.347.096.347.37 0 .204-.107.336-.18.431l-.765.97-.933-1.233c-.035-.048-.107-.155-.107-.239 0-.072.06-.287.418-.299v-.347c-.299.024-.909.024-1.231.024L.179-5.155v.347c.61 0 .838.024 1.089.347l1.4 1.83c.023.024.07.095.07.131s-.932 1.208-1.052 1.364C1.16-.49.634-.36.12-.346V0c.454-.024.478-.024.992-.024L2.19 0v-.347c-.287-.036-.335-.215-.335-.383 0-.19.084-.287.203-.442l.861-1.112.981 1.28c.203.262.203.286.203.358 0 .096-.095.287-.418.3V0c.31-.024.897-.024 1.232-.024z"/><path id="z" d="M4.7-2.2h-.263C4.33-.838 4.127-.264 2.703-.264H1.256l3.3-4.557c.108-.131.108-.155.108-.203 0-.132-.083-.132-.287-.132H.622L.49-3.253h.263c.072-1.22.3-1.663 1.603-1.663h1.387l-3.42 4.7C.323 0 .347 0 .61 0h3.899z"/><path id="k" d="M2.296-2.99c0-.347-.287-.634-.634-.634s-.633.287-.633.634.287.634.633.634.634-.287.634-.634"/><path id="a" d="M8.635-3.995c0-.263-.072-.382-.167-.382-.06 0-.156.083-.168.31-.048 1.149-.837 1.807-1.674 1.807-.754 0-1.328-.515-1.914-1.029-.61-.55-1.232-1.1-2.045-1.1-1.304 0-2.01 1.315-2.01 2.404 0 .382.156.382.168.382.132 0 .168-.239.168-.275.048-1.315.945-1.842 1.674-1.842.754 0 1.328.515 1.914 1.029.61.55 1.232 1.1 2.045 1.1 1.303 0 2.01-1.315 2.01-2.404"/><path id="e" d="M2.503-5.077c0-.215-.016-.223-.232-.223-.326.319-.749.51-1.506.51v.263c.215 0 .646 0 1.108-.215v4.088c0 .295-.024.391-.781.391h-.28V0c.328-.024 1.013-.024 1.372-.024s1.052 0 1.379.024v-.263h-.28c-.757 0-.78-.096-.78-.39z"/><path id="al" d="M2.248-1.626c.127-.12.462-.382.59-.494.493-.454.964-.893.964-1.618 0-.948-.797-1.562-1.794-1.562-.956 0-1.586.725-1.586 1.435 0 .39.311.446.423.446a.41.41 0 0 0 .414-.423c0-.414-.398-.414-.494-.414a1.23 1.23 0 0 1 1.156-.781c.741 0 1.124.63 1.124 1.3 0 .828-.582 1.434-1.523 2.398L.518-.303C.422-.215.422-.199.422 0h3.149l.23-1.427h-.246c-.024.16-.088.558-.184.71-.048.063-.653.063-.78.063H1.17z"/><path id="f" d="M2.016-2.662c.63 0 1.029.462 1.029 1.3 0 .995-.566 1.29-.989 1.29-.438 0-1.036-.16-1.315-.582.287 0 .486-.183.486-.446a.423.423 0 0 0-.438-.438c-.215 0-.438.135-.438.454 0 .757.813 1.251 1.721 1.251 1.06 0 1.801-.733 1.801-1.53 0-.661-.526-1.267-1.339-1.442.63-.224 1.1-.766 1.1-1.403S2.917-5.3 2.088-5.3C1.235-5.3.59-4.838.59-4.232c0 .295.199.422.406.422a.39.39 0 0 0 .407-.406c0-.295-.255-.407-.43-.415.334-.438.948-.462 1.091-.462.207 0 .813.064.813.885 0 .558-.231.892-.343 1.02-.239.247-.422.263-.908.295-.152.008-.215.016-.215.12 0 .111.071.111.207.111z"/><path id="l" d="M3.14-5.157c0-.159 0-.223-.167-.223-.104 0-.112.008-.191.12L.239-1.57v.263h2.248v.661c0 .295-.024.383-.638.383h-.183V0c.677-.024.693-.024 1.147-.024s.47 0 1.148.024v-.263h-.183c-.614 0-.638-.088-.638-.383v-.661h.845v-.263H3.14zm-.598.646v2.94H.518z"/><path id="g" d="M1.116-4.48c.103.033.422.112.757.112.996 0 1.602-.7 1.602-.82 0-.088-.056-.112-.096-.112-.016 0-.032 0-.103.04-.311.12-.678.215-1.108.215-.47 0-.86-.12-1.108-.215C.98-5.3.964-5.3.956-5.3c-.103 0-.103.088-.103.231v2.335c0 .144 0 .24.127.24.064 0 .088-.032.128-.096.095-.12.398-.526 1.076-.526.446 0 .661.366.733.518.136.287.151.653.151.964 0 .295-.008.725-.23 1.076a1.07 1.07 0 0 1-.893.486A1.295 1.295 0 0 1 .733-.917c.024.008.072.008.08.008.223 0 .398-.143.398-.39 0-.295-.23-.399-.39-.399-.144 0-.399.08-.399.423 0 .717.622 1.442 1.539 1.442.996 0 1.84-.773 1.84-1.761 0-.925-.669-1.745-1.61-1.745-.398 0-.772.127-1.075.398z"/><path id="c" d="M4.033-4.854c.072-.087.072-.103.072-.279H2.08c-.2 0-.446-.008-.645-.024-.415-.031-.423-.103-.447-.23H.741l-.27 1.68h.246c.016-.119.104-.669.215-.732.088-.04.686-.04.805-.04h1.69l-.82 1.1c-.91 1.211-1.1 2.47-1.1 3.1 0 .08 0 .446.374.446s.375-.358.375-.454v-.382c0-1.148.19-2.089.581-2.607z"/><path id="d" d="M3.124-2.351c0 1.945-.924 2.28-1.387 2.28-.167 0-.581-.025-.797-.272.351-.032.375-.295.375-.374a.364.364 0 0 0-.375-.375c-.143 0-.374.088-.374.39 0 .543.446.87 1.18.87 1.091 0 2.127-1.085 2.127-2.79 0-2.072-.916-2.678-1.737-2.678-.94 0-1.785.733-1.785 1.777 0 1.028.773 1.778 1.673 1.778.566 0 .909-.36 1.1-.766zm-1.068.382c-.366 0-.597-.167-.773-.462C1.1-2.726 1.1-3.108 1.1-3.515c0-.47 0-.805.215-1.132.2-.286.454-.446.829-.446.534 0 .765.526.789.566.167.39.175 1.012.175 1.172 0 .63-.342 1.386-1.052 1.386"/><clipPath id="m"><path d="M45.483 205.225H199.08V51.63H45.483Z"/></clipPath><clipPath id="ai"><path d="M272.258 205.225h153.596V51.632H272.258Z"/></clipPath><use xlink:href="#a" id="o" transform="scale(.9122)"/></defs><g fill="none" stroke-miterlimit="10"><path stroke="gray" stroke-width=".19925" d="M58.272 205.225v-4.252m25.599 4.252v-4.252m25.598 4.252v-4.252m25.6 4.252v-4.252m25.598 4.252v-4.252m25.6 4.252v-4.252M58.271 51.631v4.252M83.87 51.63v4.252m25.598-4.252v4.252m25.6-4.252v4.252m25.598-4.252v4.252m25.6-4.252v4.252M45.483 190.48h4.25m-4.25-43.91h4.25m-4.25-43.91h4.25m-4.25-43.909h4.25M199.079 190.48h-4.25m4.25-43.909h-4.25m4.25-43.91h-4.25m4.25-43.909h-4.25"/><path stroke="#000" stroke-width=".3985" d="M45.483 205.225V51.63H199.08v153.594z"/></g><use xlink:href="#b" x="-69.19377" y="85.069141" transform="translate(122.145 133.849)scale(1.0004)"/><use xlink:href="#c" x="-63.312206" y="80.694998" transform="matrix(.99999 0 0 .99999 122.145 133.849)"/><use xlink:href="#b" x="-69.19377" y="85.069141" transform="translate(147.744 133.849)scale(1.0004)"/><use xlink:href="#d" x="-63.312206" y="80.694998" transform="matrix(.99999 0 0 .99999 147.744 133.849)"/><use xlink:href="#b" x="-69.19377" y="85.069141" transform="translate(171.226 133.849)scale(1.0004)"/><g transform="matrix(.99999 0 0 .99999 171.226 133.849)"><use xlink:href="#e" x="-63.312206" y="80.694998"/><use xlink:href="#e" x="-59.080136" y="80.694998"/></g><use xlink:href="#b" x="-69.19377" y="85.069141" transform="translate(196.825 133.849)scale(1.0004)"/><g transform="matrix(.99999 0 0 .99999 196.825 133.849)"><use xlink:href="#e" x="-63.312206" y="80.694998"/><use xlink:href="#f" x="-59.080136" y="80.694998"/></g><use xlink:href="#b" x="-69.19377" y="85.069141" transform="translate(222.423 133.849)scale(1.0004)"/><g transform="matrix(.99999 0 0 .99999 222.423 133.849)"><use xlink:href="#e" x="-63.312206" y="80.694998"/><use xlink:href="#g" x="-59.080136" y="80.694998"/></g><use xlink:href="#b" x="-69.19377" y="85.069141" transform="translate(248.022 133.849)scale(1.0004)"/><g transform="matrix(.99999 0 0 .99999 248.022 133.849)"><use xlink:href="#e" x="-63.312206" y="80.694998"/><use xlink:href="#c" x="-59.080136" y="80.694998"/></g><use xlink:href="#h" x="-69.19377" y="85.069141" transform="translate(104.612 109.297)scale(1.0004)"/><use xlink:href="#i" x="-69.19377" y="85.069141" transform="translate(104.612 65.387)scale(1.0004)"/><use xlink:href="#b" x="-69.19377" y="85.069141" transform="translate(104.612 21.478)scale(1.0004)"/><use xlink:href="#j" x="-69.19377" y="85.069141" transform="translate(104.612 -22.432)scale(1.0004)"/><g transform="translate(118.435 -38.211)scale(1.0004)"><use xlink:href="#k" x="-69.19377" y="85.069141"/><use xlink:href="#i" x="-65.871437" y="85.069141"/><use xlink:href="#h" x="-60.022999" y="85.069141"/></g><use xlink:href="#l" x="-54.138321" y="80.694998" transform="matrix(.99999 0 0 .99999 118.435 -38.211)"/><g clip-path="url(#m)"><path fill="none" stroke="#000" stroke-miterlimit="10" stroke-width=".3985" d="m45.483 191.261 3.135-.01 3.135-.013 3.134-.015 3.135-.017 3.134-.021 3.135-.025 3.135-.03 3.134-.034 3.135-.04 3.134-.05 3.135-.057 3.134-.068 3.135-.081 3.135-.096 3.134-.114 3.135-.134 3.134-.16 3.135-.19 3.135-.223 3.134-.266 3.135-.314 3.134-.373 3.135-.442 3.135-.524 3.134-.62 3.135-.736 3.134-.87 3.135-1.033 3.134-1.224 3.135-1.45 3.135-1.718 3.134-2.037 3.135-2.412 3.134-2.86 3.135-3.387 3.135-4.015 3.134-4.758 3.135-5.638 3.134-6.681 3.135-7.917 3.135-9.383 3.134-11.118 3.135-13.176 3.134-15.614 3.135-18.5 3.134-21.922 3.135-25.978 3.135-30.788 3.134-36.48"/><g transform="translate(195.693 -7.065)scale(1.00008)"><use xlink:href="#n" x="-69.171706" y="85.042015"/><use xlink:href="#o" x="-62.201131" y="85.042015"/><use xlink:href="#p" x="-50.685181" y="85.042015"/><use xlink:href="#q" x="-45.22973" y="85.042015"/><use xlink:href="#r" x="-42.199481" y="85.042015"/><use xlink:href="#p" x="-36.74448" y="85.042015"/><use xlink:href="#s" x="-31.289479" y="85.042015"/><use xlink:href="#t" x="-25.83413" y="85.042015"/></g></g><path d="M59.405 190.327a1.12 1.12 0 1 0-2.242 0 1.12 1.12 0 0 0 2.242 0"/><path fill="none" stroke="#000" stroke-miterlimit="10" stroke-width=".3985" d="M59.405 190.327a1.12 1.12 0 1 0-2.242 0 1.12 1.12 0 0 0 2.242 0Z"/><path d="M72.204 190.291a1.12 1.12 0 1 0-2.241 0 1.12 1.12 0 0 0 2.241 0"/><path fill="none" stroke="#000" stroke-miterlimit="10" stroke-width=".3985" d="M72.204 190.291a1.12 1.12 0 1 0-2.241 0 1.12 1.12 0 0 0 2.241 0Z"/><path d="M85.004 190.214a1.12 1.12 0 1 0-2.242 0 1.12 1.12 0 0 0 2.242 0"/><path fill="none" stroke="#000" stroke-miterlimit="10" stroke-width=".3985" d="M85.004 190.214a1.12 1.12 0 1 0-2.242 0 1.12 1.12 0 0 0 2.242 0Z"/><path d="M97.804 190.076a1.12 1.12 0 1 0-2.242 0 1.12 1.12 0 0 0 2.242 0"/><path fill="none" stroke="#000" stroke-miterlimit="10" stroke-width=".3985" d="M97.804 190.076a1.12 1.12 0 1 0-2.242 0 1.12 1.12 0 0 0 2.242 0Z"/><path d="M110.603 189.594a1.12 1.12 0 1 0-2.242 0 1.12 1.12 0 0 0 2.242 0"/><path fill="none" stroke="#000" stroke-miterlimit="10" stroke-width=".3985" d="M110.603 189.594a1.12 1.12 0 1 0-2.242 0 1.12 1.12 0 0 0 2.242 0Z"/><path d="M123.402 187.884a1.12 1.12 0 1 0-2.242 0 1.12 1.12 0 0 0 2.242 0"/><path fill="none" stroke="#000" stroke-miterlimit="10" stroke-width=".3985" d="M123.402 187.884a1.12 1.12 0 1 0-2.242 0 1.12 1.12 0 0 0 2.242 0Z"/><path d="M136.201 184.15a1.12 1.12 0 1 0-2.241 0 1.12 1.12 0 0 0 2.241 0"/><path fill="none" stroke="#000" stroke-miterlimit="10" stroke-width=".3985" d="M136.201 184.15a1.12 1.12 0 1 0-2.241 0 1.12 1.12 0 0 0 2.241 0Z"/><path d="M149.002 177.577a1.12 1.12 0 1 0-2.242 0 1.12 1.12 0 0 0 2.242 0"/><path fill="none" stroke="#000" stroke-miterlimit="10" stroke-width=".3985" d="M149.002 177.577a1.12 1.12 0 1 0-2.242 0 1.12 1.12 0 0 0 2.242 0Z"/><path d="M161.8 163.462a1.12 1.12 0 1 0-2.24 0 1.12 1.12 0 0 0 2.24 0"/><path fill="none" stroke="#000" stroke-miterlimit="10" stroke-width=".3985" d="M161.8 163.462a1.12 1.12 0 1 0-2.24 0 1.12 1.12 0 0 0 2.24 0Z"/><path d="M174.6 133.508a1.12 1.12 0 1 0-2.241 0 1.12 1.12 0 0 0 2.241 0"/><path fill="none" stroke="#000" stroke-miterlimit="10" stroke-width=".3985" d="M174.6 133.508a1.12 1.12 0 1 0-2.241 0 1.12 1.12 0 0 0 2.241 0Z"/><path d="M187.4 73.42a1.12 1.12 0 1 0-2.242 0 1.12 1.12 0 0 0 2.242 0"/><path fill="none" stroke="#000" stroke-miterlimit="10" stroke-width=".3985" d="M187.4 73.42a1.12 1.12 0 1 0-2.242 0 1.12 1.12 0 0 0 2.242 0Z"/><g transform="translate(165.782 150.314)scale(1.0004)"><use xlink:href="#u" x="-69.19377" y="85.069141"/><use xlink:href="#v" x="-64.577207" y="85.069141"/><use xlink:href="#w" x="-61.32409" y="85.069141"/><use xlink:href="#x" x="-55.46369" y="85.069141"/><use xlink:href="#u" x="-47.007966" y="85.069141"/><use xlink:href="#y" x="-42.391408" y="85.069141"/><use xlink:href="#z" x="-39.138287" y="85.069141"/><use xlink:href="#A" x="-33.935687" y="85.069141"/><use xlink:href="#B" x="-24.833969" y="85.069141"/></g><g transform="rotate(-90 22.619 83.363)scale(1.0004)"><use xlink:href="#A" x="-69.19377" y="85.069141"/><use xlink:href="#v" x="-63.991172" y="85.069141"/><use xlink:href="#C" x="-60.73805" y="85.069141"/><use xlink:href="#D" x="-54.877651" y="85.069141"/><use xlink:href="#u" x="-48.371412" y="85.069141"/><use xlink:href="#A" x="-43.75485" y="85.069141"/><use xlink:href="#E" x="-38.552251" y="85.069141"/><use xlink:href="#x" x="-28.14705" y="85.069141"/><use xlink:href="#y" x="-23.59029" y="85.069141"/><use xlink:href="#F" x="-20.337171" y="85.069141"/><use xlink:href="#A" x="-10.57781" y="85.069141"/><use xlink:href="#G" x="-1.475591" y="85.069141"/><use xlink:href="#H" x="6.651671" y="85.069141"/><use xlink:href="#I" x="9.892831" y="85.069141"/><use xlink:href="#J" x="16.387113" y="85.069141"/><use xlink:href="#K" x="21.003674" y="85.069141"/></g><g transform="translate(105.464 -46.304)scale(1.0004)"><use xlink:href="#L" x="-69.19377" y="70.617341"/><use xlink:href="#M" x="-64.637011" y="70.617341"/><use xlink:href="#y" x="-56.99457" y="70.617341"/><use xlink:href="#N" x="-53.741448" y="70.617341"/><use xlink:href="#A" x="-47.558127" y="70.617341"/><use xlink:href="#E" x="-42.355528" y="70.617341"/><use xlink:href="#O" x="-35.849288" y="70.617341"/><use xlink:href="#u" x="-31.950327" y="70.617341"/><use xlink:href="#y" x="-27.333766" y="70.617341"/><use xlink:href="#z" x="-24.080646" y="70.617341"/><use xlink:href="#A" x="-18.878046" y="70.617341"/><use xlink:href="#P" x="-13.675446" y="70.617341"/><use xlink:href="#Q" x="-5.219726" y="70.617341"/><use xlink:href="#R" x="3.235994" y="70.617341"/><use xlink:href="#C" x="9.742235" y="70.617341"/><use xlink:href="#y" x="15.602636" y="70.617341"/><use xlink:href="#S" x="18.855757" y="70.617341"/><use xlink:href="#y" x="25.361998" y="70.617341"/><use xlink:href="#S" x="28.615116" y="70.617341"/><use xlink:href="#T" x="35.121356" y="70.617341"/><use xlink:href="#U" x="44.880719" y="70.617341"/><use xlink:href="#C" x="53.659356" y="70.617341"/><use xlink:href="#u" x="59.519758" y="70.617341"/><use xlink:href="#R" x="64.13631" y="70.617341"/><use xlink:href="#V" x="74.541516" y="70.617341"/><use xlink:href="#C" x="82.028471" y="70.617341"/><use xlink:href="#W" x="87.888873" y="70.617341"/><use xlink:href="#v" x="94.395114" y="70.617341"/><use xlink:href="#A" x="97.64824" y="70.617341"/><use xlink:href="#X" x="-26.119485" y="85.06914"/><use xlink:href="#Y" x="-19.613244" y="85.06914"/><use xlink:href="#Z" x="-13.107002" y="85.06914"/><use xlink:href="#Z" x="-7.904402" y="85.06914"/><use xlink:href="#A" x="-2.701801" y="85.06914"/><use xlink:href="#u" x="2.500799" y="85.06914"/><use xlink:href="#u" x="7.117359" y="85.06914"/><use xlink:href="#aa" x="11.733919" y="85.06914"/><use xlink:href="#Y" x="15.309959" y="85.06914"/><use xlink:href="#v" x="21.8162" y="85.06914"/><use xlink:href="#ab" x="28.968626" y="85.06914"/><use xlink:href="#ac" x="35.128028" y="85.06914"/><use xlink:href="#ad" x="41.28743" y="85.06914"/><use xlink:href="#ae" x="47.446831" y="85.06914"/><use xlink:href="#af" x="53.606232" y="85.06914"/></g><g fill="none" stroke-miterlimit="10"><path stroke="gray" stroke-width=".19925" d="M285.047 205.225v-4.252m25.599 4.252v-4.252m25.598 4.252v-4.252m25.6 4.252v-4.252m25.598 4.252v-4.252m25.6 4.252v-4.252M285.046 51.633v4.251m25.599-4.252v4.252m25.598-4.252v4.252m25.6-4.252v4.252m25.598-4.252v4.252m25.6-4.252v4.252M272.258 191.261h4.25m-4.25-42.27h4.25m-4.25-42.27h4.25m-4.25-42.27h4.25m149.346 126.81h-4.25m4.25-42.27h-4.25m4.25-42.27h-4.25m4.25-42.27h-4.25"/><path stroke="#000" stroke-width=".3985" d="M272.258 205.225V51.632h153.596v153.593z"/></g><use xlink:href="#b" x="-69.19377" y="85.069141" transform="translate(348.92 133.848)scale(1.0004)"/><use xlink:href="#c" x="-63.312206" y="80.694998" transform="matrix(.99999 0 0 .99999 348.92 133.848)"/><use xlink:href="#b" x="-69.19377" y="85.069141" transform="translate(374.519 133.848)scale(1.0004)"/><use xlink:href="#d" x="-63.312206" y="80.694998" transform="matrix(.99999 0 0 .99999 374.519 133.848)"/><use xlink:href="#b" x="-69.19377" y="85.069141" transform="translate(398.001 133.848)scale(1.0004)"/><g transform="matrix(.99999 0 0 .99999 398.001 133.848)"><use xlink:href="#e" x="-63.312206" y="80.694998"/><use xlink:href="#e" x="-59.080136" y="80.694998"/></g><use xlink:href="#b" x="-69.19377" y="85.069141" transform="translate(423.6 133.848)scale(1.0004)"/><g transform="matrix(.99999 0 0 .99999 423.6 133.848)"><use xlink:href="#e" x="-63.312206" y="80.694998"/><use xlink:href="#f" x="-59.080136" y="80.694998"/></g><use xlink:href="#b" x="-69.19377" y="85.069141" transform="translate(449.198 133.848)scale(1.0004)"/><g transform="matrix(.99999 0 0 .99999 449.198 133.848)"><use xlink:href="#e" x="-63.312206" y="80.694998"/><use xlink:href="#g" x="-59.080136" y="80.694998"/></g><use xlink:href="#b" x="-69.19377" y="85.069141" transform="translate(474.797 133.848)scale(1.0004)"/><g transform="matrix(.99999 0 0 .99999 474.797 133.848)"><use xlink:href="#e" x="-63.312206" y="80.694998"/><use xlink:href="#c" x="-59.080136" y="80.694998"/></g><use xlink:href="#h" x="-69.19377" y="85.069141" transform="translate(331.387 110.078)scale(1.0004)"/><use xlink:href="#b" x="-69.19377" y="85.069141" transform="translate(331.387 67.808)scale(1.0004)"/><use xlink:href="#ag" x="-69.19377" y="85.069141" transform="translate(331.387 25.538)scale(1.0004)"/><use xlink:href="#ah" x="-69.19377" y="85.069141" transform="translate(331.387 -16.732)scale(1.0004)"/><g transform="translate(345.21 -38.21)scale(1.0004)"><use xlink:href="#k" x="-69.19377" y="85.069141"/><use xlink:href="#i" x="-65.871437" y="85.069141"/><use xlink:href="#h" x="-60.022999" y="85.069141"/></g><use xlink:href="#d" x="-54.138321" y="80.694998" transform="matrix(.99999 0 0 .99999 345.21 -38.21)"/><g clip-path="url(#ai)"><path fill="none" stroke="#000" stroke-miterlimit="10" stroke-width=".3985" d="M272.258 191.01h25.077l3.135-.001h6.269l3.134-.001 3.135-.001 3.135-.001 3.134-.001 3.135-.002 3.134-.003 3.135-.004 3.135-.006 3.134-.008 3.135-.01 3.134-.016 3.135-.022 3.135-.03 3.134-.043 3.135-.06 3.134-.085 3.135-.118 3.134-.167 3.135-.234 3.135-.328 3.134-.461 3.135-.648 3.134-.909 3.135-1.276 3.135-1.793 3.134-2.518 3.135-3.535 3.134-4.964 3.135-6.97 3.135-9.79 3.134-13.747 3.135-19.306 3.134-27.111 3.135-38.065 3.134-53.451 3.135-75.057 3.135-105.41 3.134-148.013"/><g transform="translate(419.697 -7.735)scale(1.00008)"><use xlink:href="#n" x="-69.171706" y="85.042015"/><use xlink:href="#o" x="-62.201131" y="85.042015"/><use xlink:href="#p" x="-50.685181" y="85.042015"/><use xlink:href="#q" x="-45.22973" y="85.042015"/><use xlink:href="#s" x="-42.199481" y="85.042015"/><use xlink:href="#aj" x="-36.74448" y="85.042015"/><use xlink:href="#ak" x="-31.289479" y="85.042015"/><use xlink:href="#t" x="-25.83413" y="85.042015"/></g><use xlink:href="#al" x="-19.283757" y="81.07499" transform="matrix(.99999 0 0 .99999 419.697 -7.735)"/></g><path d="M286.18 191.261a1.12 1.12 0 1 0-2.242 0 1.12 1.12 0 0 0 2.242 0"/><path fill="none" stroke="#000" stroke-miterlimit="10" stroke-width=".3985" d="M286.18 191.261a1.12 1.12 0 1 0-2.242 0 1.12 1.12 0 0 0 2.242 0Z"/><path d="M298.98 191.26a1.12 1.12 0 1 0-2.242 0 1.12 1.12 0 0 0 2.241 0"/><path fill="none" stroke="#000" stroke-miterlimit="10" stroke-width=".3985" d="M298.98 191.26a1.12 1.12 0 1 0-2.242 0 1.12 1.12 0 0 0 2.241 0Z"/><path d="M311.78 191.26a1.12 1.12 0 1 0-2.242 0 1.12 1.12 0 0 0 2.241 0"/><path fill="none" stroke="#000" stroke-miterlimit="10" stroke-width=".3985" d="M311.78 191.26a1.12 1.12 0 1 0-2.242 0 1.12 1.12 0 0 0 2.241 0Z"/><path d="M324.579 191.258a1.12 1.12 0 1 0-2.242 0 1.12 1.12 0 0 0 2.242 0"/><path fill="none" stroke="#000" stroke-miterlimit="10" stroke-width=".3985" d="M324.579 191.258a1.12 1.12 0 1 0-2.242 0 1.12 1.12 0 0 0 2.242 0Z"/><path d="M337.378 191.249a1.12 1.12 0 1 0-2.242 0 1.12 1.12 0 0 0 2.242 0"/><path fill="none" stroke="#000" stroke-miterlimit="10" stroke-width=".3985" d="M337.378 191.249a1.12 1.12 0 1 0-2.242 0 1.12 1.12 0 0 0 2.242 0Z"/><path d="M350.177 191.2a1.12 1.12 0 1 0-2.242 0 1.12 1.12 0 0 0 2.242 0"/><path fill="none" stroke="#000" stroke-miterlimit="10" stroke-width=".3985" d="M350.177 191.2a1.12 1.12 0 1 0-2.242 0 1.12 1.12 0 0 0 2.242 0Z"/><path d="M362.976 191.062a1.12 1.12 0 1 0-2.241 0 1.12 1.12 0 0 0 2.241 0"/><path fill="none" stroke="#000" stroke-miterlimit="10" stroke-width=".3985" d="M362.976 191.062a1.12 1.12 0 1 0-2.241 0 1.12 1.12 0 0 0 2.241 0Z"/><path d="M375.777 190.08a1.12 1.12 0 1 0-2.242 0 1.12 1.12 0 0 0 2.241 0"/><path fill="none" stroke="#000" stroke-miterlimit="10" stroke-width=".3985" d="M375.777 190.08a1.12 1.12 0 1 0-2.242 0 1.12 1.12 0 0 0 2.241 0Z"/><path d="M388.576 183.442a1.12 1.12 0 1 0-2.242 0 1.12 1.12 0 0 0 2.242 0"/><path fill="none" stroke="#000" stroke-miterlimit="10" stroke-width=".3985" d="M388.576 183.442a1.12 1.12 0 1 0-2.242 0 1.12 1.12 0 0 0 2.242 0Z"/><path d="M401.375 153.989a1.12 1.12 0 1 0-2.241 0 1.12 1.12 0 0 0 2.241 0"/><path fill="none" stroke="#000" stroke-miterlimit="10" stroke-width=".3985" d="M401.375 153.989a1.12 1.12 0 1 0-2.241 0 1.12 1.12 0 0 0 2.241 0Z"/><path d="M414.175 63.62a1.12 1.12 0 1 0-2.242 0 1.12 1.12 0 0 0 2.242 0"/><path fill="none" stroke="#000" stroke-miterlimit="10" stroke-width=".3985" d="M414.175 63.62a1.12 1.12 0 1 0-2.242 0 1.12 1.12 0 0 0 2.242 0Z"/><g transform="translate(390.8 150.314)scale(1.0004)"><use xlink:href="#B" x="-69.19377" y="85.069141"/><use xlink:href="#A" x="-58.3044" y="85.069141"/><use xlink:href="#v" x="-53.1018" y="85.069141"/><use xlink:href="#A" x="-49.848676" y="85.069141"/><use xlink:href="#F" x="-44.646078" y="85.069141"/><use xlink:href="#A" x="-34.886717" y="85.069141"/><use xlink:href="#S" x="-29.684117" y="85.069141"/><use xlink:href="#x" x="-23.488836" y="85.069141"/><use xlink:href="#u" x="-18.932075" y="85.069141"/></g><g transform="rotate(-90 136.006 -30.024)scale(1.0004)"><use xlink:href="#A" x="-69.19377" y="85.069141"/><use xlink:href="#v" x="-63.991172" y="85.069141"/><use xlink:href="#C" x="-60.73805" y="85.069141"/><use xlink:href="#D" x="-54.877651" y="85.069141"/><use xlink:href="#u" x="-48.371412" y="85.069141"/><use xlink:href="#A" x="-43.75485" y="85.069141"/><use xlink:href="#E" x="-38.552251" y="85.069141"/><use xlink:href="#x" x="-28.14705" y="85.069141"/><use xlink:href="#y" x="-23.59029" y="85.069141"/><use xlink:href="#F" x="-20.337171" y="85.069141"/><use xlink:href="#A" x="-10.57781" y="85.069141"/><use xlink:href="#G" x="-1.475591" y="85.069141"/><use xlink:href="#H" x="6.651671" y="85.069141"/><use xlink:href="#I" x="9.892831" y="85.069141"/><use xlink:href="#J" x="16.387113" y="85.069141"/><use xlink:href="#K" x="21.003674" y="85.069141"/></g><g transform="translate(332.239 -44.557)scale(1.0004)"><use xlink:href="#L" x="-69.19377" y="70.617341"/><use xlink:href="#M" x="-64.637011" y="70.617341"/><use xlink:href="#y" x="-56.99457" y="70.617341"/><use xlink:href="#N" x="-53.741448" y="70.617341"/><use xlink:href="#A" x="-47.558127" y="70.617341"/><use xlink:href="#E" x="-42.355528" y="70.617341"/><use xlink:href="#O" x="-35.849288" y="70.617341"/><use xlink:href="#u" x="-31.950327" y="70.617341"/><use xlink:href="#y" x="-27.333766" y="70.617341"/><use xlink:href="#z" x="-24.080646" y="70.617341"/><use xlink:href="#A" x="-18.878046" y="70.617341"/><use xlink:href="#P" x="-13.675446" y="70.617341"/><use xlink:href="#Q" x="-5.219726" y="70.617341"/><use xlink:href="#R" x="3.235994" y="70.617341"/><use xlink:href="#C" x="9.742235" y="70.617341"/><use xlink:href="#y" x="15.602636" y="70.617341"/><use xlink:href="#S" x="18.855757" y="70.617341"/><use xlink:href="#y" x="25.361998" y="70.617341"/><use xlink:href="#S" x="28.615116" y="70.617341"/><use xlink:href="#T" x="35.121356" y="70.617341"/><use xlink:href="#U" x="44.880719" y="70.617341"/><use xlink:href="#C" x="53.659356" y="70.617341"/><use xlink:href="#u" x="59.519758" y="70.617341"/><use xlink:href="#R" x="64.13631" y="70.617341"/><use xlink:href="#V" x="74.541516" y="70.617341"/><use xlink:href="#C" x="82.028471" y="70.617341"/><use xlink:href="#W" x="87.888873" y="70.617341"/><use xlink:href="#v" x="94.395114" y="70.617341"/><use xlink:href="#A" x="97.64824" y="70.617341"/><use xlink:href="#B" x="-4.020611" y="85.06914"/><use xlink:href="#am" x="6.86876" y="85.06914"/><use xlink:href="#ac" x="13.028161" y="85.06914"/><use xlink:href="#ad" x="19.187563" y="85.06914"/><use xlink:href="#ae" x="25.346963" y="85.06914"/><use xlink:href="#af" x="31.506365" y="85.06914"/></g></svg>