<svg xmlns="http://www.w3.org/2000/svg" xmlns:xlink="http://www.w3.org/1999/xlink" width="462.66pt" height="252.34pt" viewBox="0 0 462.66 252.34"><defs><path id="M" d="M2.464-3.504c.024-.072.323-.67.765-1.053a1.74 1.74 0 0 1 1.184-.478c.479 0 .646.359.646.837 0 .682-.49 2.045-.73 2.691-.107.287-.167.443-.167.658 0 .538.37.969.945.969 1.112 0 1.53-1.759 1.53-1.83 0-.06-.047-.108-.119-.108-.107 0-.12.036-.18.24C6.065-.599 5.61-.12 5.144-.12c-.12 0-.311-.012-.311-.394 0-.3.131-.658.203-.826.24-.657.742-1.997.742-2.679 0-.717-.419-1.255-1.328-1.255-1.064 0-1.626.753-1.842 1.052-.036-.682-.526-1.052-1.052-1.052-.383 0-.646.227-.85.634C.49-4.21.324-3.492.324-3.444s.048.107.131.107c.096 0 .108-.012.18-.287.191-.73.407-1.411.885-1.411.275 0 .37.191.37.55 0 .263-.119.73-.203 1.1l-.335 1.292c-.047.227-.179.765-.239.98C1.03-.8.897-.238.897-.178c0 .167.132.299.311.299a.46.46 0 0 0 .407-.252c.024-.06.131-.478.191-.717l.263-1.077z"/><path id="S" d="M2.404-4.808h1.1c.228 0 .347 0 .347-.215 0-.132-.072-.132-.31-.132H2.487L2.93-6.9c.048-.167.048-.191.048-.275 0-.191-.155-.299-.31-.299-.097 0-.372.036-.467.419l-.467 1.901H.61c-.24 0-.347 0-.347.227 0 .12.084.12.311.12H1.64L.849-1.65c-.096.418-.131.538-.131.693C.718-.395 1.112.12 1.782.12c1.208 0 1.854-1.747 1.854-1.83 0-.072-.048-.108-.12-.108-.024 0-.072 0-.095.048-.012.012-.024.024-.108.215C3.062-.957 2.512-.12 1.818-.12c-.359 0-.383-.299-.383-.562 0-.012 0-.239.036-.382z"/><path id="ar" d="M5.27-.971v-.611h-.273v.611c0 .633-.273.698-.393.698-.36 0-.404-.49-.404-.545V-3c0-.458 0-.884-.392-1.288a2.08 2.08 0 0 0-1.495-.6c-.895 0-1.647.513-1.647 1.233 0 .327.218.513.501.513a.48.48 0 0 0 .502-.502c0-.13-.054-.49-.556-.502.294-.382.829-.502 1.178-.502.535 0 1.157.426 1.157 1.397v.403c-.557.033-1.32.066-2.008.393-.818.371-1.09.939-1.09 1.419C.35-.153 1.406.12 2.094.12a1.51 1.51 0 0 0 1.429-.95c.044.437.338.895.85.895.23 0 .896-.152.896-1.036m-1.822-.556C3.448-.491 2.662-.12 2.17-.12c-.534 0-.982-.382-.982-.927 0-.6.458-1.506 2.259-1.571z"/><path id="ao" d="M4.528-1.298c0-.11-.088-.131-.142-.131-.098 0-.12.065-.142.153C3.862-.153 2.88-.153 2.771-.153c-.545 0-.982-.327-1.233-.73-.327-.524-.327-1.244-.327-1.637h3.044c.24 0 .273 0 .273-.23 0-1.08-.59-2.138-1.953-2.138-1.266 0-2.27 1.124-2.27 2.488 0 1.462 1.146 2.52 2.4 2.52 1.332 0 1.823-1.211 1.823-1.418m-.72-1.451H1.222c.065-1.626.982-1.899 1.353-1.899 1.123 0 1.233 1.473 1.233 1.899"/><path id="am" d="M5.837 0v-.338c-.567 0-.84 0-.851-.328v-2.083c0-.939 0-1.277-.338-1.67-.153-.185-.513-.403-1.146-.403-.916 0-1.396.654-1.57 1.047H1.92v-3.797l-1.57.12v.339c.763 0 .85.076.85.61v5.674c0 .49-.12.49-.85.49V0l1.232-.033L2.804 0v-.338c-.731 0-.851 0-.851-.491v-2.008c0-1.134.775-1.745 1.473-1.745.687 0 .807.589.807 1.21v2.543c0 .49-.12.49-.85.49V0l1.232-.033z"/><path id="ap" d="M3.011-2.04v-.633H.12v.633z"/><path id="at" d="M5.139-2.335c0-1.396-1.091-2.553-2.411-2.553-1.364 0-2.423 1.19-2.423 2.553A2.435 2.435 0 0 0 2.717.12a2.43 2.43 0 0 0 2.422-2.455m-.906-.087c0 .393 0 .982-.24 1.462-.24.49-.72.807-1.265.807-.47 0-.95-.229-1.244-.73-.273-.48-.273-1.146-.273-1.539 0-.426 0-1.015.262-1.495a1.46 1.46 0 0 1 1.244-.73c.48 0 .949.24 1.232.708s.284 1.102.284 1.517"/><path id="an" d="M3.971-4.157c0-.349-.338-.665-.807-.665-.797 0-1.19.73-1.342 1.2v-1.2l-1.517.12v.338c.764 0 .851.076.851.611v2.924c0 .49-.12.49-.85.49V0l1.243-.033c.437 0 .95 0 1.386.033v-.338h-.23c-.807 0-.828-.12-.828-.513v-1.68c0-1.08.458-2.051 1.287-2.051.076 0 .098 0 .12.01a.47.47 0 0 0-.251.426c0 .306.23.47.47.47.195 0 .468-.132.468-.48"/><path id="al" d="m7.473-4.931-.207-2.455H.6L.393-4.931h.273c.152-1.757.316-2.117 1.963-2.117.197 0 .48 0 .59.022.229.044.229.164.229.415v5.75c0 .37 0 .523-1.146.523h-.436V0c.447-.033 1.56-.033 2.062-.033S5.553-.033 6 0v-.338h-.437C4.42-.338 4.42-.491 4.42-.862v-5.75c0-.218 0-.37.196-.414.12-.022.415-.022.622-.022 1.647 0 1.81.36 1.964 2.117z"/><path id="aq" d="M7.67-4.364v-.338c-.24.022-.557.033-.797.033L5.86-4.702v.338c.392.01.632.207.632.524 0 .065 0 .087-.054.229L5.444-.818l-1.08-3.044c-.044-.131-.055-.153-.055-.207 0-.295.426-.295.644-.295v-.338l-1.135.033c-.327 0-.643-.011-.97-.033v.338c.403 0 .578.022.687.164.054.065.174.392.25.6L2.849-.96 1.81-3.873c-.054-.131-.054-.153-.054-.196 0-.295.425-.295.643-.295v-.338l-1.189.033-1.015-.033v.338c.546 0 .677.033.808.382L2.378-.12c.055.153.088.24.23.24s.163-.065.218-.218l1.102-3.088L5.04-.087c.044.12.077.207.219.207s.174-.098.218-.207l1.276-3.579c.197-.545.535-.687.917-.698"/><path id="as" d="M5.542-4.364v-.338c-.25.022-.567.033-.818.033l-.95-.033v.338c.34.01.514.196.514.47 0 .108-.011.13-.066.261L3.12-.949 1.91-3.884c-.044-.11-.066-.153-.066-.196 0-.284.403-.284.61-.284v-.338l-1.188.033C.97-4.67.535-4.68.207-4.702v.338c.524 0 .731 0 .884.382L2.728 0l-.273.644c-.24.6-.546 1.353-1.244 1.353-.055 0-.305 0-.513-.197.338-.043.426-.284.426-.458A.44.44 0 0 0 .666.884c-.219 0-.459.142-.459.469 0 .49.459.884 1.004.884.687 0 1.135-.622 1.396-1.244l1.92-4.659c.284-.687.84-.698 1.015-.698"/><path id="F" d="M5.669-1.064v-.67h-.263v.67c0 .681-.287.777-.455.777-.454 0-.454-.634-.454-.813v-2.093c0-.646 0-1.125-.526-1.591-.419-.383-.957-.55-1.483-.55-.981 0-1.735.646-1.735 1.423 0 .347.228.514.503.514.287 0 .49-.203.49-.49 0-.49-.43-.49-.61-.49.275-.503.85-.718 1.328-.718.55 0 1.256.455 1.256 1.53v.48C1.316-3.05.407-2.046.407-1.126c0 .946 1.1 1.245 1.83 1.245A1.63 1.63 0 0 0 3.79-.933c.048.562.419.993.933.993.251 0 .945-.168.945-1.124m-1.95-.622C3.72-.514 2.847-.12 2.333-.12c-.586 0-1.076-.43-1.076-1.004 0-1.579 2.033-1.722 2.464-1.746z"/><path id="ag" d="M4.856-1.423c0-.108-.084-.108-.12-.108-.107 0-.12.036-.155.18-.263.849-.91 1.207-1.555 1.207-.73 0-1.698-.633-1.698-2.451 0-1.986 1.016-2.476 1.614-2.476.455 0 1.112.18 1.388.646-.144 0-.587 0-.587.49 0 .287.204.49.49.49.276 0 .503-.167.503-.514 0-.801-.837-1.375-1.806-1.375C1.53-5.334.42-4.09.42-2.584.419-1.051 1.567.12 2.919.12c1.578 0 1.937-1.436 1.937-1.543"/><path id="aj" d="M8.288-4.007c0-2.308-1.614-4.162-3.6-4.162H.502v.347h.24c.86 0 .897.12.897.562v6.351c0 .443-.036.562-.897.562h-.24V0h4.186c1.998 0 3.6-1.794 3.6-4.007M7.2-4.019c0 .67-.012 1.794-.694 2.68-.394.502-1.112.992-2.117.992H3.134c-.527 0-.55-.084-.55-.478v-6.518c0-.395.023-.479.55-.479h1.255c.993 0 1.782.479 2.273 1.268.538.85.538 2.057.538 2.535"/><path id="P" d="M6.16 0v-.347c-.814 0-.91-.084-.91-.67V-8.3l-1.662.131v.347c.813 0 .909.084.909.67v2.643a1.86 1.86 0 0 0-1.495-.765C1.615-5.274.419-4.102.419-2.571c0 1.519 1.136 2.69 2.451 2.69.91 0 1.436-.597 1.603-.825V.12zM4.472-1.4c0 .216 0 .252-.167.515-.287.419-.778.765-1.376.765-.31 0-1.602-.12-1.602-2.44 0-.86.143-1.339.406-1.734.24-.37.718-.741 1.316-.741.741 0 1.16.538 1.28.73.143.203.143.227.143.442z"/><path id="L" d="M4.868-1.423c0-.072-.06-.12-.132-.12-.096 0-.12.06-.143.12C4.282-.42 3.48-.143 2.978-.143s-1.71-.335-1.71-2.404v-.228H4.58c.263 0 .287 0 .287-.227 0-1.208-.646-2.332-2.093-2.332C1.41-5.334.359-4.102.359-2.62.359-1.041 1.579.12 2.906.12c1.424 0 1.962-1.292 1.962-1.543m-.742-1.579H1.28c.095-1.878 1.148-2.093 1.483-2.093 1.28 0 1.351 1.686 1.363 2.093"/><path id="ad" d="M6.231 0v-.347c-.598 0-.897 0-.909-.359v-2.2c0-1.113 0-1.447-.275-1.83-.347-.467-.909-.538-1.315-.538-1.029 0-1.507.777-1.675 1.148h-.012V-8.3L.383-8.17v.347c.813 0 .909.084.909.67v6.267c0 .538-.132.538-.91.538V0c.312-.024.958-.024 1.292-.024.347 0 .993 0 1.304.024v-.347c-.765 0-.909 0-.909-.538V-3.11c0-1.255.825-1.925 1.567-1.925s.909.61.909 1.34v2.81c0 .538-.132.538-.91.538V0c.312-.024.958-.024 1.293-.024.346 0 .992 0 1.303.024"/><path id="aa" d="M3.241-2.26v-.646H.131v.646z"/><path id="J" d="M2.882 0v-.347c-.777 0-.825-.06-.825-.526v-4.401l-1.626.131v.347c.765 0 .873.072.873.658v3.253c0 .538-.132.538-.91.538V0c.336-.024.91-.024 1.256-.024.132 0 .826 0 1.232.024m-.67-7.224a.58.58 0 1 0-.586.574.576.576 0 0 0 .587-.574"/><path id="ah" d="M5.98 0v-.347c-.323 0-.694 0-1.029-.49L3.35-3.17l-.084-.12c0-.036.754-.682.85-.777.824-.718 1.35-.73 1.602-.742v-.347c-.24.024-.55.024-.91.024-.31 0-.92 0-1.195-.024v.347c.203.012.347.12.347.311 0 .24-.251.455-.251.455l-1.71 1.506V-8.3L.334-8.17v.347c.813 0 .909.084.909.67v6.267c0 .538-.132.538-.91.538V0c.336-.024.91-.024 1.269-.024s.933 0 1.267.024v-.347c-.765 0-.909 0-.909-.538v-1.268l.766-.67 1.148 1.65c.18.252.263.384.263.551 0 .215-.167.275-.418.275V0c.299-.024.885-.024 1.208-.024.514 0 .538 0 1.052.024"/><path id="N" d="M2.966 0v-.347c-.765 0-.909 0-.909-.538V-8.3L.395-8.17v.347c.813 0 .909.084.909.67v6.267c0 .538-.132.538-.91.538V0c.336-.024.922-.024 1.28-.024s.957 0 1.292.024"/><path id="R" d="M9.484 0v-.347c-.598 0-.897 0-.909-.359v-2.2c0-1.113 0-1.447-.275-1.83-.347-.467-.909-.538-1.315-.538-.993 0-1.495.717-1.687 1.184-.167-.921-.813-1.184-1.566-1.184-1.16 0-1.615.992-1.71 1.232h-.013v-1.232l-1.626.131v.347c.813 0 .909.084.909.67v3.241c0 .538-.132.538-.91.538V0c.312-.024.958-.024 1.292-.024.347 0 .993 0 1.304.024v-.347c-.765 0-.909 0-.909-.538V-3.11c0-1.255.825-1.925 1.567-1.925s.909.61.909 1.34v2.81c0 .538-.132.538-.91.538V0c.312-.024.958-.024 1.293-.024.346 0 .992 0 1.303.024v-.347c-.765 0-.909 0-.909-.538V-3.11c0-1.255.825-1.925 1.567-1.925s.909.61.909 1.34v2.81c0 .538-.132.538-.909.538V0c.31-.024.957-.024 1.292-.024.346 0 .992 0 1.303.024"/><path id="Z" d="M5.49-2.56c0-1.542-1.172-2.774-2.56-2.774C1.495-5.334.36-4.066.36-2.56.359-1.03 1.555.12 2.919.12c1.41 0 2.57-1.172 2.57-2.68m-.91-.107c0 .419 0 1.16-.31 1.722a1.56 1.56 0 0 1-1.34.801c-.442 0-.98-.19-1.327-.777-.323-.538-.335-1.244-.335-1.746 0-.455 0-1.184.37-1.722a1.53 1.53 0 0 1 1.28-.706c.467 0 .969.215 1.292.682.37.55.37 1.303.37 1.746"/><path id="O" d="M6.076-2.583c0-1.52-1.125-2.691-2.428-2.691-1.053 0-1.615.753-1.65.801v-.801l-1.663.131v.347c.837 0 .909.084.909.61v5.621c0 .538-.132.538-.91.538v.347c.312-.024.958-.024 1.293-.024.346 0 .992 0 1.303.024v-.347c-.765 0-.909 0-.909-.538v-2.08c.216.298.706.765 1.471.765 1.376 0 2.584-1.16 2.584-2.703m-.91 0c0 1.423-.813 2.463-1.733 2.463a1.4 1.4 0 0 1-.957-.382c-.275-.275-.455-.515-.455-.85v-2.463c0-.227 0-.24.132-.43a1.72 1.72 0 0 1 1.4-.766c.896 0 1.614 1.088 1.614 2.428"/><path id="ai" d="M3.887 2.906c0-.036 0-.06-.203-.263C2.488 1.435 1.818-.538 1.818-2.978c0-2.32.562-4.318 1.95-5.729.119-.108.119-.131.119-.167 0-.072-.06-.096-.108-.096-.155 0-1.136.861-1.722 2.033-.61 1.208-.885 2.488-.885 3.959 0 1.064.168 2.488.79 3.767.705 1.436 1.686 2.213 1.817 2.213.048 0 .108-.024.108-.096"/><path id="ak" d="M3.373-2.978c0-.909-.12-2.392-.79-3.78C1.878-8.192.897-8.97.765-8.97c-.047 0-.107.024-.107.096 0 .036 0 .06.203.263C2.057-7.403 2.727-5.43 2.727-2.99c0 2.32-.562 4.318-1.95 5.729-.12.107-.12.131-.12.167 0 .072.06.096.108.096.156 0 1.137-.861 1.723-2.033.61-1.22.885-2.512.885-3.947"/><path id="ac" d="M2.2-.586a.58.58 0 0 0-.573-.574.577.577 0 0 0-.586.574.58.58 0 1 0 1.16 0"/><path id="ae" d="M8.516.12c0-.12 0-.228-.12-.228-.096 0-.096.084-.108.168-.083.86-.67 1.148-1.088 1.148-.61 0-.885-.443-1.172-1.28C7.32-.634 8.456-2.129 8.456-4.054c0-2.476-1.818-4.366-3.9-4.366-2.128 0-3.91 1.914-3.91 4.366C.646-1.65 2.416.25 4.556.25c.395 0 .802-.072 1.125-.18.191 1.22.347 2.25 1.423 2.25 1.4 0 1.412-2.094 1.412-2.201M7.367-4.066c0 1.71-.526 2.942-1.483 3.612-.203-.598-.538-1.304-1.315-1.304-.598 0-.945.514-.945 1.005 0 .322.167.574.191.61-.885-.311-2.08-1.34-2.08-3.923 0-2.978 1.614-4.09 2.81-4.09 1.256 0 2.822 1.147 2.822 4.09M5.621-.287a2.3 2.3 0 0 1-1.064.275c-.515 0-.694-.466-.694-.753 0-.347.251-.754.706-.754.681 0 .92.562 1.052 1.232"/><path id="aB" d="M8.575-1.04c0-.072 0-.18-.131-.18-.12 0-.12.072-.132.191-.06.718-.406 1.041-.79 1.041-.55 0-.669-.562-.765-1.196l-.12-.897c-.083-.598-.13-.98-.49-1.352-.131-.131-.442-.454-1.1-.633 1.184-.275 2.105-1.029 2.105-1.95 0-1.16-1.351-2.153-3.074-2.153H.502v.347h.24c.86 0 .897.12.897.562v6.351c0 .443-.036.562-.897.562h-.24V0c.275-.024 1.256-.024 1.603-.024s1.34 0 1.615.024v-.347h-.24c-.86 0-.897-.12-.897-.562v-3.062h1.388c.466 0 .909.132 1.232.467.406.454.406.705.406 1.53 0 .945 0 1.256.526 1.77.18.18.682.455 1.352.455.933 0 1.088-1.04 1.088-1.292M6.04-6.017c0 1.04-.562 1.806-2.117 1.806h-1.34v-3.133c0-.276 0-.419.252-.467.107-.012.466-.012.705-.012.969 0 2.5 0 2.5 1.806"/><path id="G" d="M4.222-4.58c0-.36-.323-.694-.837-.694-1.017 0-1.364 1.1-1.436 1.327h-.011v-1.327l-1.603.131v.347c.813 0 .909.084.909.67v3.241c0 .538-.132.538-.91.538V0c.336-.024.994-.024 1.352-.024.323 0 1.172 0 1.448.024v-.347h-.24c-.873 0-.897-.131-.897-.562v-1.878c0-1.16.479-2.248 1.4-2.248.095 0 .12 0 .167.012-.096.048-.287.12-.287.442a.46.46 0 0 0 .466.479c.24 0 .479-.156.479-.479"/><path id="I" d="M4.21-1.519c0-.646-.395-1.028-.502-1.136-.431-.37-.754-.443-1.543-.586-.359-.072-1.232-.24-1.232-.957 0-.37.251-.92 1.327-.92 1.304 0 1.376 1.111 1.4 1.482.012.096.095.096.131.096.132 0 .132-.06.132-.275V-5.06c0-.215 0-.275-.12-.275-.095 0-.323.263-.406.37-.371-.298-.742-.37-1.125-.37-1.447 0-1.877.79-1.877 1.447 0 .132 0 .55.454.969.383.335.79.418 1.34.526.657.132.813.167 1.112.407.215.179.37.442.37.777 0 .514-.298 1.088-1.35 1.088C1.53-.12.956-.574.693-1.77c-.048-.215-.06-.24-.06-.24-.024-.047-.072-.047-.108-.047-.131 0-.131.06-.131.275v1.627c0 .215 0 .275.12.275.06 0 .071-.012.274-.264.06-.083.06-.107.24-.299.454.563 1.1.563 1.303.563C3.588.12 4.21-.574 4.21-1.52"/><path id="X" d="M8.025-5.442 7.81-8.109H.634L.419-5.442h.263c.167-1.89.275-2.32 2.164-2.32.216 0 .55 0 .646.024.24.036.251.18.251.454V-.92c0 .407 0 .574-1.172.574h-.43V0c.383-.024 1.614-.024 2.08-.024s1.711 0 2.094.024v-.347h-.43c-1.173 0-1.173-.167-1.173-.574v-6.363c0-.299.024-.406.216-.454.095-.024.442-.024.67-.024 1.889 0 1.997.43 2.164 2.32z"/><path id="Q" d="M3.899-1.483v-.682h-.263v.658c0 .861-.347 1.363-.813 1.363-.814 0-.814-1.112-.814-1.315v-3.349h1.687v-.347H2.009v-2.2h-.263c-.012 1.124-.442 2.272-1.53 2.308v.24h1.016v3.324C1.232-.155 2.117.12 2.75.12c.753 0 1.148-.742 1.148-1.603"/><path id="af" d="M6.231 0v-.347c-.813 0-.909-.084-.909-.67v-4.257l-1.686.131v.347c.813 0 .909.084.909.67v2.14C4.545-.968 4.007-.12 3.11-.12c-.981 0-1.04-.562-1.04-1.196v-3.958l-1.687.131v.347c.909 0 .909.036.909 1.1v1.794c0 .742 0 1.172.358 1.567.288.311.778.455 1.388.455.203 0 .586 0 .993-.347.346-.275.538-.73.538-.73V.12z"/><path id="ab" d="M5.956-4.808v-.347c-.347.024-.514.024-.885.024l-.98-.024v.347c.502.024.561.383.561.514 0 .108-.023.168-.083.311L3.349-.897 2.009-4.27c-.06-.167-.071-.167-.071-.227 0-.31.454-.31.67-.31v-.348c-.3.024-.922.024-1.245.024L.215-5.155v.347c.67 0 .79.048.933.419l1.71 4.281c.06.168.084.228.228.228.083 0 .155-.024.239-.228l1.555-3.91c.107-.264.31-.778 1.076-.79"/><path id="Y" d="M8.228-4.808v-.347c-.299.024-.514.024-.885.024l-1.016-.024v.347c.538.024.682.347.682.574 0 0 0 .096-.048.215L5.86-.885 4.663-4.27c-.06-.143-.06-.167-.06-.203 0-.335.443-.335.694-.335v-.347c-.335.024-.825.024-1.172.024L3.05-5.155v.347c.454 0 .61.024.741.18.06.071.204.466.287.705L3.062-1.005 1.914-4.258c-.06-.155-.06-.18-.06-.227 0-.323.466-.323.693-.323v-.347c-.299.024-.897.024-1.22.024L.216-5.155v.347c.61 0 .73.048.861.43L2.583-.095c.048.132.084.216.216.216.107 0 .167-.036.227-.228l1.196-3.408L5.418-.108c.06.192.12.228.227.228.132 0 .168-.084.215-.216l1.376-3.923c.263-.753.79-.777.992-.789"/><path id="H" d="M5.956-4.808v-.347c-.347.024-.514.024-.897.024l-.969-.024v.347c.443.024.55.3.55.514 0 .108-.023.168-.071.287L3.349-.993 2.02-4.246c-.072-.167-.072-.251-.072-.251 0-.31.42-.31.658-.31v-.348c-.31.024-.897.024-1.232.024l-1.16-.024v.347c.694 0 .79.06.945.43L2.942 0c-.526 1.268-.526 1.292-.574 1.387-.203.36-.526.814-1.064.814-.371 0-.598-.216-.598-.216s.418-.047.418-.466a.433.433 0 0 0-.442-.443c-.204 0-.455.12-.455.467 0 .454.443.897 1.077.897.67 0 1.16-.586 1.47-1.34l2.07-5.095c.323-.801.885-.813 1.112-.813"/><path id="K" d="M4.7-2.2h-.263C4.33-.838 4.127-.264 2.703-.264H1.256l3.3-4.557c.108-.131.108-.155.108-.203 0-.132-.083-.132-.287-.132H.622L.49-3.253h.263c.072-1.22.3-1.663 1.603-1.663h1.387l-3.42 4.7C.323 0 .347 0 .61 0h3.899z"/><path id="C" d="M6.713-3.227c.14-.06.2-.13.2-.22 0-.099-.04-.159-.2-.228l-5.488-2.59c-.14-.07-.18-.07-.2-.07-.119 0-.198.09-.198.2 0 .12.08.169.189.219l5.229 2.46-5.21 2.46c-.198.09-.208.17-.208.23 0 .109.09.198.199.198.03 0 .05 0 .18-.07zm-.15 4.592c.17 0 .35 0 .35-.2s-.21-.199-.36-.199H1.186c-.15 0-.358 0-.358.2s.179.199.348.199z"/><path id="v" d="M1.582-.397c0-.251-.209-.405-.397-.405a.403.403 0 0 0-.404.398c0 .25.209.404.397.404.23 0 .404-.188.404-.397"/><path id="u" d="M3.597-2.223c0-.767-.091-1.318-.412-1.806-.216-.32-.648-.6-1.206-.6C.362-4.628.362-2.724.362-2.222S.362.139 1.98.139s1.618-1.86 1.618-2.362M1.979-.056c-.32 0-.745-.188-.885-.76-.097-.41-.097-.982-.097-1.498 0-.509 0-1.039.104-1.422a.89.89 0 0 1 .878-.697c.377 0 .74.23.865.634.111.377.118.879.118 1.485 0 .516 0 1.032-.09 1.47-.14.635-.614.788-.893.788"/><path id="B" d="M3.52-1.269h-.237c-.021.154-.09.565-.181.635-.056.042-.593.042-.69.042H1.129a24 24 0 0 1 1.394-1.171c.516-.412.997-.844.997-1.506 0-.843-.739-1.36-1.631-1.36-.864 0-1.45.607-1.45 1.249 0 .355.3.39.37.39.167 0 .369-.119.369-.37 0-.125-.049-.369-.411-.369.216-.495.69-.648 1.017-.648.697 0 1.06.543 1.06 1.108 0 .606-.432 1.087-.655 1.338L.509-.27C.439-.21.439-.196.439 0h2.872z"/><path id="x" d="M3.729-4.21c.07-.084.07-.097.07-.279H1.973c-.28 0-.356-.007-.607-.028-.362-.027-.376-.076-.397-.195H.732L.488-3.22h.237c.014-.105.084-.565.195-.634.056-.042.62-.042.725-.042h1.52c-.224.293-.58.725-.726.92-.913 1.199-.996 2.307-.996 2.718 0 .077 0 .397.327.397.335 0 .335-.313.335-.404v-.279c0-1.352.279-1.972.578-2.349z"/><path id="y" d="M2.474-2.516c.544-.265.893-.593.893-1.074 0-.676-.704-1.038-1.38-1.038-.767 0-1.395.502-1.395 1.164 0 .328.154.564.28.704.125.146.174.174.585.418-.39.167-1.08.544-1.08 1.276 0 .773.8 1.205 1.596 1.205.885 0 1.61-.564 1.61-1.317 0-.46-.272-.85-.677-1.087-.09-.056-.334-.195-.432-.251m-1.136-.662c-.181-.105-.376-.293-.376-.551 0-.44.509-.697 1.01-.697.544 0 1.025.342 1.025.836 0 .62-.725.934-.739.934s-.028-.007-.076-.034zm.342.969.955.55c.18.105.53.314.53.725 0 .523-.58.85-1.179.85-.64 0-1.191-.41-1.191-.982 0-.516.383-.913.885-1.143"/><path id="w" d="M2.913-2.077c0 1.729-.857 1.993-1.275 1.993-.153 0-.523-.014-.711-.23.286-.028.307-.265.307-.327 0-.174-.119-.328-.328-.328s-.334.14-.334.342c0 .474.397.766 1.073.766.997 0 1.938-.94 1.938-2.432 0-1.729-.767-2.335-1.583-2.335-.23 0-.71.035-1.108.425-.237.23-.516.502-.516 1.13 0 .884.704 1.54 1.52 1.54.557 0 .857-.37 1.017-.683zm-.982.348a.79.79 0 0 1-.725-.41c-.16-.259-.16-.551-.16-.935 0-.404 0-.683.202-.962.167-.244.397-.39.76-.39.355 0 .564.223.675.404.189.293.21.781.21 1.025 0 .906-.523 1.268-.962 1.268"/><path id="z" d="M3.297 2.39c0-.03 0-.05-.17-.219C1.882.916 1.564-.966 1.564-2.49c0-1.733.378-3.466 1.603-4.711.13-.12.13-.14.13-.17 0-.07-.04-.099-.1-.099-.1 0-.996.677-1.583 1.942C1.106-4.432.986-3.327.986-2.49c0 .777.11 1.982.657 3.108.598 1.225 1.455 1.872 1.554 1.872.06 0 .1-.03.1-.1"/><path id="E" d="M2.878-2.49c0-.777-.11-1.982-.657-3.108C1.623-6.823.767-7.47.667-7.47c-.06 0-.1.04-.1.1 0 .03 0 .05.19.229.976.986 1.544 2.57 1.544 4.651C2.3-.787 1.932.966.697 2.221c-.13.12-.13.14-.13.17 0 .06.04.099.1.099.1 0 .996-.677 1.584-1.942.508-1.096.627-2.201.627-3.038"/><path id="o" d="M4.582-3.187c0-.797-.05-1.594-.399-2.33-.458-.957-1.275-1.116-1.693-1.116-.598 0-1.325.259-1.733 1.185-.319.687-.369 1.464-.369 2.26 0 .748.04 1.644.449 2.401A1.83 1.83 0 0 0 2.48.22C3.018.22 3.775.01 4.213-.936c.319-.687.369-1.464.369-2.251M2.48 0c-.388 0-.976-.249-1.155-1.205-.11-.598-.11-1.514-.11-2.102 0-.637 0-1.295.08-1.832.189-1.186.936-1.275 1.185-1.275.329 0 .986.179 1.175 1.165.1.558.1 1.315.1 1.942 0 .747 0 1.425-.11 2.062C3.496-.299 2.928 0 2.48 0"/><path id="s" d="M1.265-.767 2.32-1.793C3.874-3.167 4.472-3.705 4.472-4.7c0-1.136-.896-1.932-2.111-1.932A1.84 1.84 0 0 0 .498-4.831c0 .558.498.558.528.558.17 0 .518-.12.518-.528a.504.504 0 0 0-.528-.518c-.08 0-.1 0-.13.01.23-.647.767-1.016 1.345-1.016.906 0 1.335.807 1.335 1.624 0 .797-.498 1.584-1.046 2.201L.608-.369c-.11.11-.11.13-.11.369h3.695l.279-1.733h-.249c-.05.299-.12.737-.22.886-.069.08-.726.08-.945.08z"/><path id="r" d="M4.472-2.002c0-1.185-.817-2.181-1.892-2.181-.478 0-.907.16-1.265.508v-1.942c.199.06.528.129.846.129 1.225 0 1.923-.906 1.923-1.036 0-.06-.03-.11-.1-.11-.01 0-.03 0-.08.03-.199.09-.687.29-1.354.29-.399 0-.857-.07-1.325-.28-.08-.03-.1-.03-.12-.03-.099 0-.099.08-.099.24v2.948c0 .18 0 .259.14.259.07 0 .089-.03.129-.09.11-.16.478-.697 1.285-.697.518 0 .767.458.846.637.16.369.18.757.18 1.255 0 .349 0 .947-.24 1.365-.238.388-.607.647-1.065.647C1.554-.06.986-.588.817-1.175c.03.01.06.02.169.02.329 0 .498-.25.498-.488s-.17-.488-.498-.488c-.14 0-.488.07-.488.527C.498-.747 1.185.22 2.301.22c1.155 0 2.171-.956 2.171-2.221"/><path id="q" d="M1.315-3.267v-.239c0-2.52 1.235-2.878 1.743-2.878.239 0 .657.06.876.398-.15 0-.548 0-.548.448 0 .309.24.458.459.458.159 0 .458-.09.458-.478 0-.597-.439-1.075-1.265-1.075-1.275 0-2.62 1.284-2.62 3.486C.418-.488 1.574.219 2.5.219c1.106 0 2.052-.936 2.052-2.25 0-1.266-.887-2.222-1.992-2.222-.678 0-1.046.508-1.245.986M2.5-.06c-.628 0-.926-.597-.986-.747-.18-.468-.18-1.265-.18-1.444 0-.777.32-1.773 1.216-1.773.16 0 .617 0 .926.618.18.368.18.876.18 1.364 0 .478 0 .976-.17 1.335-.299.597-.757.647-.986.647"/><path id="aw" d="M4.741-6.066c.09-.12.09-.14.09-.348H2.41c-1.216 0-1.236-.13-1.276-.319H.886L.558-4.681h.249c.03-.16.12-.787.249-.907.07-.06.846-.06.976-.06h2.062c-.11.16-.897 1.246-1.116 1.574-.896 1.345-1.225 2.73-1.225 3.745 0 .1 0 .548.458.548s.458-.448.458-.548v-.508c0-.547.03-1.095.11-1.633.04-.23.18-1.086.617-1.703z"/><path id="ax" d="M1.623-4.552c-.458-.299-.498-.637-.498-.806 0-.608.648-1.026 1.355-1.026.727 0 1.365.518 1.365 1.235 0 .567-.389 1.045-.986 1.394zm1.455.946c.717-.368 1.205-.886 1.205-1.543 0-.917-.887-1.484-1.793-1.484-.996 0-1.803.737-1.803 1.663 0 .18.02.627.438 1.096.11.12.479.368.728.537-.578.29-1.435.847-1.435 1.833C.418-.448 1.434.219 2.48.219c1.126 0 2.072-.827 2.072-1.892a1.8 1.8 0 0 0-.488-1.225c-.19-.21-.349-.31-.986-.708m-.996.419 1.225.777c.279.189.747.488.747 1.095 0 .737-.747 1.255-1.564 1.255C1.633-.06.916-.677.916-1.504c0-.578.319-1.215 1.166-1.683"/><path id="D" d="M3.655-3.167v.318c0 2.331-1.036 2.79-1.613 2.79-.17 0-.707-.02-.976-.36.438 0 .518-.288.518-.457 0-.31-.24-.459-.459-.459-.159 0-.458.09-.458.478C.667-.189 1.205.22 2.052.22c1.285 0 2.5-1.354 2.5-3.496 0-2.68-1.146-3.356-2.032-3.356-.548 0-1.036.179-1.464.627-.409.448-.638.867-.638 1.614 0 1.245.877 2.22 1.992 2.22.608 0 1.016-.418 1.245-.995M2.42-2.4c-.16 0-.617 0-.926-.628-.18-.368-.18-.866-.18-1.354 0-.538 0-1.006.21-1.375.269-.498.647-.627.996-.627.458 0 .787.338.956.786.12.32.16.947.16 1.405 0 .827-.34 1.793-1.216 1.793"/><path id="n" d="M6.843-3.257c.149 0 .338 0 .338-.2s-.19-.198-.329-.198H.886c-.139 0-.328 0-.328.199s.189.2.338.2zm.01 1.932c.139 0 .328 0 .328-.199s-.19-.2-.338-.2H.896c-.149 0-.338 0-.338.2s.189.2.328.2z"/><path id="aA" d="M2.211-1.713c-.866 0-.866-.996-.866-1.225 0-.27.01-.588.159-.837.08-.12.309-.398.707-.398.867 0 .867.996.867 1.225 0 .269-.01.587-.16.836-.08.12-.308.399-.707.399m-1.155.388c0-.04 0-.269.17-.468.388.28.796.309.985.309.926 0 1.614-.687 1.614-1.454 0-.369-.16-.737-.409-.966.359-.339.717-.389.897-.389.02 0 .07 0 .1.01-.11.04-.16.15-.16.27 0 .168.13.288.289.288.1 0 .289-.07.289-.299 0-.17-.12-.488-.508-.488-.2 0-.638.06-1.056.468a1.66 1.66 0 0 0-1.056-.358c-.926 0-1.613.687-1.613 1.454 0 .438.219.817.468 1.026-.13.15-.309.478-.309.826 0 .31.13.688.438.887C.598-.04.28.388.28.787c0 .717.986 1.265 2.201 1.265 1.175 0 2.211-.508 2.211-1.285 0-.349-.14-.857-.647-1.136-.528-.278-1.106-.278-1.713-.278-.25 0-.678 0-.747-.01-.32-.04-.528-.349-.528-.668M2.49 1.823C1.484 1.823.797 1.315.797.787c0-.458.378-.827.817-.857H2.2c.857 0 1.972 0 1.972.857 0 .538-.707 1.036-1.683 1.036"/><path id="ay" d="m1.763-6.912-1.434.11v.308c.697 0 .777.07.777.558v5.179c0 .448-.11.448-.777.448V0c.328-.01.856-.03 1.105-.03s.737.02 1.106.03v-.309c-.668 0-.777 0-.777-.448z"/><path id="az" d="M4.691-2.131c0-1.275-.996-2.331-2.201-2.331-1.245 0-2.211 1.086-2.211 2.33A2.223 2.223 0 0 0 2.48.11a2.22 2.22 0 0 0 2.211-2.241M2.49-.14c-.428 0-.867-.21-1.135-.668-.25-.438-.25-1.046-.25-1.404 0-.389 0-.926.24-1.365a1.34 1.34 0 0 1 1.135-.667c.438 0 .867.22 1.126.647s.258 1.006.258 1.385c0 .358 0 .896-.219 1.335-.219.448-.657.737-1.155.737"/><path id="d" d="M2.503-5.077c0-.215-.016-.223-.232-.223-.326.319-.749.51-1.506.51v.263c.215 0 .646 0 1.108-.215v4.088c0 .295-.024.391-.781.391h-.28V0c.328-.024 1.013-.024 1.372-.024s1.052 0 1.379.024v-.263h-.28c-.757 0-.78-.096-.78-.39z"/><path id="i" d="M2.248-1.626c.127-.12.462-.382.59-.494.493-.454.964-.893.964-1.618 0-.948-.797-1.562-1.794-1.562-.956 0-1.586.725-1.586 1.435 0 .39.311.446.423.446a.41.41 0 0 0 .414-.423c0-.414-.398-.414-.494-.414a1.23 1.23 0 0 1 1.156-.781c.741 0 1.124.63 1.124 1.3 0 .828-.582 1.434-1.523 2.398L.518-.303C.422-.215.422-.199.422 0h3.149l.23-1.427h-.246c-.024.16-.088.558-.184.71-.048.063-.653.063-.78.063H1.17z"/><path id="e" d="M2.016-2.662c.63 0 1.029.462 1.029 1.3 0 .995-.566 1.29-.989 1.29-.438 0-1.036-.16-1.315-.582.287 0 .486-.183.486-.446a.423.423 0 0 0-.438-.438c-.215 0-.438.135-.438.454 0 .757.813 1.251 1.721 1.251 1.06 0 1.801-.733 1.801-1.53 0-.661-.526-1.267-1.339-1.442.63-.224 1.1-.766 1.1-1.403S2.917-5.3 2.088-5.3C1.235-5.3.59-4.838.59-4.232c0 .295.199.422.406.422a.39.39 0 0 0 .407-.406c0-.295-.255-.407-.43-.415.334-.438.948-.462 1.091-.462.207 0 .813.064.813.885 0 .558-.231.892-.343 1.02-.239.247-.422.263-.908.295-.152.008-.215.016-.215.12 0 .111.071.111.207.111z"/><path id="j" d="M3.14-5.157c0-.159 0-.223-.167-.223-.104 0-.112.008-.191.12L.239-1.57v.263h2.248v.661c0 .295-.024.383-.638.383h-.183V0c.677-.024.693-.024 1.147-.024s.47 0 1.148.024v-.263h-.183c-.614 0-.638-.088-.638-.383v-.661h.845v-.263H3.14zm-.598.646v2.94H.518z"/><path id="f" d="M1.116-4.48c.103.033.422.112.757.112.996 0 1.602-.7 1.602-.82 0-.088-.056-.112-.096-.112-.016 0-.032 0-.103.04-.311.12-.678.215-1.108.215-.47 0-.86-.12-1.108-.215C.98-5.3.964-5.3.956-5.3c-.103 0-.103.088-.103.231v2.335c0 .144 0 .24.127.24.064 0 .088-.032.128-.096.095-.12.398-.526 1.076-.526.446 0 .661.366.733.518.136.287.151.653.151.964 0 .295-.008.725-.23 1.076a1.07 1.07 0 0 1-.893.486A1.295 1.295 0 0 1 .733-.917c.024.008.072.008.08.008.223 0 .398-.143.398-.39 0-.295-.23-.399-.39-.399-.144 0-.399.08-.399.423 0 .717.622 1.442 1.539 1.442.996 0 1.84-.773 1.84-1.761 0-.925-.669-1.745-1.61-1.745-.398 0-.772.127-1.075.398z"/><path id="k" d="M1.1-2.638c0-.662.056-1.243.343-1.73.239-.398.645-.725 1.147-.725.16 0 .526.024.71.303-.36.016-.39.287-.39.375-.001.239.182.374.374.374.143 0 .374-.087.374-.39 0-.479-.358-.869-1.076-.869C1.474-5.3.351-4.248.351-2.526.35-.366 1.355.167 2.128.167c.383 0 .797-.103 1.156-.446.318-.31.59-.646.59-1.339 0-1.044-.79-1.777-1.674-1.777-.574 0-.917.366-1.1.757M2.128-.072c-.422 0-.685-.295-.805-.518-.183-.358-.2-.9-.2-1.203 0-.79.431-1.38 1.045-1.38.398 0 .637.208.789.487.167.295.167.654.167 1.06s0 .757-.16 1.044c-.206.367-.485.51-.836.51"/><path id="b" d="M4.033-4.854c.072-.087.072-.103.072-.279H2.08c-.2 0-.446-.008-.645-.024-.415-.031-.423-.103-.447-.23H.741l-.27 1.68h.246c.016-.119.104-.669.215-.732.088-.04.686-.04.805-.04h1.69l-.82 1.1c-.91 1.211-1.1 2.47-1.1 3.1 0 .08 0 .446.374.446s.375-.358.375-.454v-.382c0-1.148.19-2.089.581-2.607z"/><path id="au" d="M2.646-2.877c.446-.215.988-.614.988-1.236 0-.757-.773-1.187-1.514-1.187-.845 0-1.53.582-1.53 1.33 0 .296.103.567.303.798.135.167.167.183.661.494C.566-2.24.351-1.658.351-1.21c0 .876.884 1.378 1.753 1.378.98 0 1.77-.661 1.77-1.506 0-.502-.272-.837-.4-.972-.135-.128-.143-.136-.828-.566m-1.235-.75c-.231-.135-.423-.366-.423-.645 0-.502.55-.82 1.116-.82.622 0 1.132.422 1.132.98 0 .462-.359.852-.83 1.083zm.39 1.093c.032.015.94.573 1.076.661.128.072.542.327.542.805 0 .614-.645.996-1.299.996-.71 0-1.315-.486-1.315-1.14 0-.597.446-1.067.996-1.322"/><path id="c" d="M3.124-2.351c0 1.945-.924 2.28-1.387 2.28-.167 0-.581-.025-.797-.272.351-.032.375-.295.375-.374a.364.364 0 0 0-.375-.375c-.143 0-.374.088-.374.39 0 .543.446.87 1.18.87 1.091 0 2.127-1.085 2.127-2.79 0-2.072-.916-2.678-1.737-2.678-.94 0-1.785.733-1.785 1.777 0 1.028.773 1.778 1.673 1.778.566 0 .909-.36 1.1-.766zm-1.068.382c-.366 0-.597-.167-.773-.462C1.1-2.726 1.1-3.108 1.1-3.515c0-.47 0-.805.215-1.132.2-.286.454-.446.829-.446.534 0 .765.526.789.566.167.39.175 1.012.175 1.172 0 .63-.342 1.386-1.052 1.386"/><path id="p" d="M1.912-.528c0-.289-.239-.528-.528-.528s-.527.24-.527.528.239.528.527.528.528-.239.528-.528"/><path id="A" d="M3.735-6.115c.06-.24.09-.34.279-.369.09-.01.408-.01.607-.01.708 0 1.813 0 1.813.986 0 .339-.16 1.026-.548 1.414-.259.26-.786.578-1.683.578H3.088zm1.434 2.729c1.006-.22 2.191-.917 2.191-1.923 0-.856-.896-1.494-2.2-1.494H2.32c-.199 0-.288 0-.288.2 0 .11.09.11.279.11.02 0 .209 0 .378.019.18.02.27.03.27.16 0 .04-.01.07-.04.189L1.583-.777c-.1.389-.12.468-.907.468-.179 0-.269 0-.269.2 0 .109.12.109.14.109.279 0 .976-.03 1.255-.03S2.789 0 3.068 0c.08 0 .199 0 .199-.2 0-.109-.09-.109-.279-.109-.369 0-.647 0-.647-.179 0-.06.02-.11.03-.17l.657-2.639h1.185c.906 0 1.086.558 1.086.907 0 .149-.08.458-.14.687-.07.279-.16.647-.16.846C5 .22 6.196.22 6.326.22 7.17.22 7.52-.787 7.52-.926c0-.12-.11-.12-.12-.12-.09 0-.11.07-.13.14C7.023-.17 6.595 0 6.365 0c-.328 0-.398-.22-.398-.608 0-.308.06-.816.1-1.135.02-.14.04-.329.04-.468 0-.767-.668-1.076-.937-1.175"/><path id="t" d="M.876-.588c-.03.15-.09.379-.09.429 0 .179.14.269.29.269.12 0 .298-.08.368-.28.01-.02.13-.487.19-.736l.219-.897c.06-.219.12-.438.169-.667.04-.17.12-.458.13-.498.149-.309.677-1.215 1.623-1.215.448 0 .538.368.538.697 0 .618-.488 1.892-.648 2.32-.09.23-.1.35-.1.459 0 .468.35.817.817.817.937 0 1.305-1.455 1.305-1.534 0-.1-.09-.1-.12-.1-.099 0-.099.03-.149.18C5.22-.668 4.89-.11 4.402-.11c-.169 0-.239-.1-.239-.328 0-.25.09-.488.18-.707.189-.528.607-1.624.607-2.192 0-.667-.428-1.065-1.145-1.065-.897 0-1.385.637-1.554.866-.05-.558-.458-.866-.916-.866s-.648.388-.747.567a5 5 0 0 0-.3.967c0 .1.1.1.12.1.1 0 .11-.01.17-.23.169-.707.368-1.185.727-1.185.199 0 .309.13.309.458 0 .21-.03.319-.16.837z"/><path id="m" d="M2.052-3.984h.936c.2 0 .299 0 .299-.2 0-.109-.1-.109-.28-.109h-.876c.359-1.414.409-1.613.409-1.673 0-.17-.12-.269-.289-.269-.03 0-.309.01-.398.359l-.389 1.583H.528c-.2 0-.299 0-.299.19 0 .119.08.119.279.119h.876C.667-1.155.627-.986.627-.807c0 .538.379.917.917.917 1.016 0 1.583-1.455 1.583-1.534 0-.1-.08-.1-.12-.1-.089 0-.099.03-.148.14C2.43-.35 1.902-.11 1.564-.11c-.21 0-.309-.129-.309-.458 0-.239.02-.308.06-.478z"/><path id="h" d="M5.358-3.827c0-.993-.06-1.962-.49-2.87-.49-.993-1.352-1.256-1.938-1.256-.693 0-1.543.346-1.985 1.34C.61-5.86.49-5.12.49-3.828c0 1.16.084 2.033.515 2.882A2.13 2.13 0 0 0 2.918.251c1.04 0 1.639-.622 1.986-1.315.43-.897.454-2.07.454-2.763M2.918.012c-.382 0-1.16-.215-1.387-1.519-.132-.718-.132-1.627-.132-2.464 0-.98 0-1.865.192-2.571.203-.801.813-1.172 1.327-1.172.455 0 1.148.275 1.376 1.303.155.682.155 1.627.155 2.44 0 .802 0 1.71-.131 2.44C4.09-.215 3.337.012 2.918.012"/><path id="g" d="M3.444-7.666c0-.275 0-.287-.239-.287-.287.323-.885.765-2.117.765v.347c.275 0 .873 0 1.531-.311v6.231c0 .43-.036.574-1.088.574h-.37V0c.322-.024 1.482-.024 1.877-.024s1.543 0 1.866.024v-.347h-.371C3.48-.347 3.444-.49 3.444-.92z"/><path id="a" d="M5.262-2.01H5c-.036.204-.131.862-.25 1.053-.085.108-.766.108-1.125.108H1.41c.323-.275 1.053-1.04 1.364-1.328 1.818-1.674 2.487-2.296 2.487-3.48 0-1.375-1.088-2.296-2.475-2.296S.586-6.77.586-5.741c0 .61.526.61.562.61.251 0 .562-.18.562-.562 0-.335-.227-.562-.562-.562-.107 0-.131 0-.167.012.227-.813.873-1.364 1.65-1.364 1.017 0 1.639.85 1.639 1.95 0 1.017-.586 1.902-1.268 2.667L.586-.287V0h4.365z"/><path id="T" d="M2.99 2.99v-.443H1.83V-8.527h1.16v-.443H1.387V2.99z"/><path id="W" d="M1.854-8.97H.25v.443h1.16V2.547H.251v.443h1.603z"/><path id="U" d="M5.322-2.906c0-1.113 0-1.447-.275-1.83-.347-.467-.909-.538-1.315-.538-1.16 0-1.615.992-1.71 1.232h-.013v-1.232l-1.626.131v.347c.813 0 .909.084.909.67v3.241c0 .538-.132.538-.91.538V0c.312-.024.958-.024 1.292-.024.347 0 .993 0 1.304.024v-.347c-.765 0-.909 0-.909-.538V-3.11c0-1.255.825-1.925 1.567-1.925s.909.61.909 1.34v2.81c0 .538-.132.538-.91.538V0c.312-.024.958-.024 1.293-.024.346 0 .992 0 1.303.024v-.347c-.598 0-.897 0-.909-.359z"/><path id="V" d="M3.923-5.06c0-.214 0-.274-.12-.274-.095 0-.323.263-.406.37-.371-.298-.742-.37-1.125-.37-1.447 0-1.877.79-1.877 1.447 0 .132 0 .55.454.969.383.335.79.418 1.34.526.657.132.813.167 1.112.407.215.179.37.442.37.777 0 .514-.298 1.088-1.35 1.088C1.53-.12.956-.574.693-1.77c-.048-.215-.048-.227-.06-.24-.024-.047-.072-.047-.108-.047-.131 0-.131.06-.131.275v1.627c0 .215 0 .275.12.275.06 0 .071-.012.274-.264.06-.083.06-.107.24-.299.454.563 1.1.563 1.303.563C3.588.12 4.21-.574 4.21-1.52c0-.646-.395-1.028-.502-1.136-.431-.37-.754-.443-1.543-.586-.359-.072-1.232-.24-1.232-.957 0-.37.251-.92 1.327-.92 1.304 0 1.376 1.111 1.4 1.482.012.096.095.096.131.096.132 0 .132-.06.132-.275z"/><clipPath id="l"><path d="M56.07 204.944h153.595V51.35H56.069Z"/></clipPath><clipPath id="av"><path d="M282.843 204.944H436.44V51.348H282.843Z"/></clipPath></defs><g fill="none" stroke="gray" stroke-miterlimit="10" stroke-width=".19925"><path d="M68.858 204.944v-4.251m25.599 4.251v-4.251m25.598 4.251v-4.251m25.6 4.251v-4.251m25.598 4.251v-4.251m25.6 4.251v-4.251M68.857 51.349v4.252m25.599-4.252v4.252m25.598-4.252v4.252m25.6-4.252v4.252m25.598-4.252v4.252m25.6-4.252v4.252M56.07 198.836h2.833m-2.834-4.216h2.834m-2.834-2.99h2.834m-2.834-2.32h2.834m-2.834-1.897h2.834m-2.834-1.602h2.834m-2.834-1.388h2.834m-2.834-1.225h2.834m-2.834-1.096h2.834m-2.834-7.206h2.834m-2.834-4.216h2.834m-2.834-2.991h2.834m-2.834-2.32h2.834m-2.834-1.896h2.834m-2.834-1.602h2.834m-2.834-1.389h2.834m-2.834-1.224h2.834m-2.834-1.096h2.834m-2.834-7.207h2.834m-2.834-4.215h2.834m-2.834-2.991h2.834m-2.834-2.32h2.834m-2.834-1.896h2.834m-2.834-1.603h2.834m-2.834-1.388h2.834m-2.834-1.225h2.834m-2.834-1.095h2.834m-2.834-7.207h2.834m-2.834-4.216h2.834m-2.834-2.99h2.834m-2.834-2.32h2.834m-2.834-1.896h2.834m-2.834-1.603h2.834m-2.834-1.388h2.834m-2.834-1.225h2.834m-2.834-1.095h2.834m-2.834-7.207h2.834m-2.834-4.216h2.834m-2.834-2.99h2.834m-2.834-2.321h2.834m-2.834-1.896h2.834m-2.834-1.602h2.834m-2.834-1.389h2.834m-2.834-1.224h2.834m-2.834-1.096h2.834m-2.834-7.206h2.834m-2.834-4.216h2.834m-2.834-2.991h2.834m-2.834-2.32h2.834m-2.834-1.896h2.834m-2.834-1.603h2.834m-2.834-1.388h2.834m-2.834-1.225h2.834m150.762 135.34h-2.833m2.833-4.216h-2.833m2.833-2.99h-2.833m2.833-2.32h-2.833m2.833-1.897h-2.833m2.833-1.602h-2.833m2.833-1.388h-2.833m2.833-1.225h-2.833m2.833-1.096h-2.833m2.833-7.206h-2.833m2.833-4.216h-2.833m2.833-2.991h-2.833m2.833-2.32h-2.833m2.833-1.896h-2.833m2.833-1.602h-2.833m2.833-1.389h-2.833m2.833-1.224h-2.833m2.833-1.096h-2.833m2.833-7.207h-2.833m2.833-4.215h-2.833m2.833-2.991h-2.833m2.833-2.32h-2.833m2.833-1.896h-2.833m2.833-1.603h-2.833m2.833-1.388h-2.833m2.833-1.225h-2.833m2.833-1.095h-2.833m2.833-7.207h-2.833m2.833-4.216h-2.833m2.833-2.99h-2.833m2.833-2.32h-2.833m2.833-1.896h-2.833m2.833-1.603h-2.833m2.833-1.388h-2.833m2.833-1.225h-2.833m2.833-1.095h-2.833m2.833-7.207h-2.833m2.833-4.216h-2.833m2.833-2.99h-2.833m2.833-2.321h-2.833m2.833-1.896h-2.833m2.833-1.602h-2.833m2.833-1.389h-2.833m2.833-1.224h-2.833m2.833-1.096h-2.833m2.833-7.206h-2.833m2.833-4.216h-2.833m2.833-2.991h-2.833m2.833-2.32h-2.833m2.833-1.896h-2.833m2.833-1.603h-2.833m2.833-1.388h-2.833m2.833-1.225h-2.833M56.07 182.102h4.249m-4.25-23.94h4.25m-4.25-23.94h4.25m-4.25-23.94h4.25m-4.25-23.94h4.25M56.069 62.4h4.25m149.346 119.701h-4.25m4.25-23.94h-4.25m4.25-23.94h-4.25m4.25-23.94h-4.25m4.25-23.94h-4.25m4.25-23.941h-4.25"/></g><path fill="none" stroke="#000" stroke-miterlimit="10" stroke-width=".3985" d="M56.07 204.944V51.35h153.595v153.595z"/><use xlink:href="#a" x="-48.01427" y="121.971952" transform="translate(111.56 96.68)scale(1.0004)"/><use xlink:href="#b" x="-42.141471" y="117.583525" transform="matrix(.99999 0 0 .99999 111.56 96.68)"/><use xlink:href="#a" x="-48.01427" y="121.971952" transform="translate(137.159 96.68)scale(1.0004)"/><use xlink:href="#c" x="-42.141471" y="117.583525" transform="matrix(.99999 0 0 .99999 137.159 96.68)"/><use xlink:href="#a" x="-48.01427" y="121.971952" transform="translate(160.641 96.68)scale(1.0004)"/><g transform="matrix(.99999 0 0 .99999 160.641 96.68)"><use xlink:href="#d" x="-42.141471" y="117.583525"/><use xlink:href="#d" x="-37.909399" y="117.583525"/></g><use xlink:href="#a" x="-48.01427" y="121.971952" transform="translate(186.24 96.68)scale(1.0004)"/><g transform="matrix(.99999 0 0 .99999 186.24 96.68)"><use xlink:href="#d" x="-42.141471" y="117.583525"/><use xlink:href="#e" x="-37.909399" y="117.583525"/></g><use xlink:href="#a" x="-48.01427" y="121.971952" transform="translate(211.838 96.68)scale(1.0004)"/><g transform="matrix(.99999 0 0 .99999 211.838 96.68)"><use xlink:href="#d" x="-42.141471" y="117.583525"/><use xlink:href="#f" x="-37.909399" y="117.583525"/></g><use xlink:href="#a" x="-48.01427" y="121.971952" transform="translate(237.437 96.68)scale(1.0004)"/><g transform="matrix(.99999 0 0 .99999 237.437 96.68)"><use xlink:href="#d" x="-42.141471" y="117.583525"/><use xlink:href="#b" x="-37.909399" y="117.583525"/></g><g transform="translate(83.442 64.917)scale(1.0004)"><use xlink:href="#g" x="-48.01427" y="121.971952"/><use xlink:href="#h" x="-42.165831" y="121.971952"/></g><use xlink:href="#i" x="-36.288544" y="117.583525" transform="matrix(.99999 0 0 .99999 83.442 64.917)"/><g transform="translate(83.442 40.977)scale(1.0004)"><use xlink:href="#g" x="-48.01427" y="121.971952"/><use xlink:href="#h" x="-42.165831" y="121.971952"/></g><use xlink:href="#e" x="-36.288544" y="117.583525" transform="matrix(.99999 0 0 .99999 83.442 40.977)"/><g transform="translate(83.442 17.036)scale(1.0004)"><use xlink:href="#g" x="-48.01427" y="121.971952"/><use xlink:href="#h" x="-42.165831" y="121.971952"/></g><use xlink:href="#j" x="-36.288544" y="117.583525" transform="matrix(.99999 0 0 .99999 83.442 17.036)"/><g transform="translate(83.442 -6.904)scale(1.0004)"><use xlink:href="#g" x="-48.01427" y="121.971952"/><use xlink:href="#h" x="-42.165831" y="121.971952"/></g><use xlink:href="#f" x="-36.288544" y="117.583525" transform="matrix(.99999 0 0 .99999 83.442 -6.904)"/><g transform="translate(83.442 -30.844)scale(1.0004)"><use xlink:href="#g" x="-48.01427" y="121.971952"/><use xlink:href="#h" x="-42.165831" y="121.971952"/></g><use xlink:href="#k" x="-36.288544" y="117.583525" transform="matrix(.99999 0 0 .99999 83.442 -30.844)"/><g transform="translate(83.442 -54.785)scale(1.0004)"><use xlink:href="#g" x="-48.01427" y="121.971952"/><use xlink:href="#h" x="-42.165831" y="121.971952"/></g><use xlink:href="#b" x="-36.288544" y="117.583525" transform="matrix(.99999 0 0 .99999 83.442 -54.785)"/><g clip-path="url(#l)"><path fill="none" stroke="#000" stroke-miterlimit="10" stroke-width=".3985" d="m56.07 192.144 6.4-3.525 6.399-3.524 6.4-3.524 6.399-3.524 6.4-3.524 6.4-3.524 6.399-3.524 6.4-3.525 6.399-3.524 6.4-3.524 6.4-3.524 6.399-3.524 6.4-3.523 6.4-3.525 6.399-3.525 6.4-3.523 6.399-3.524 6.4-3.524 6.4-3.525 6.399-3.522 6.4-3.526 6.4-3.524 6.399-3.522 6.4-3.525"/><g transform="scale(.9997)rotate(-28.849 157.272 -106.2)"><use xlink:href="#m" x="-47.982474" y="121.891181"/><use xlink:href="#n" x="-41.619135" y="121.891181"/><use xlink:href="#o" x="-31.121294" y="121.891181"/><use xlink:href="#p" x="-26.126178" y="121.891181"/><use xlink:href="#q" x="-23.3589" y="121.891181"/><use xlink:href="#r" x="-18.3789" y="121.891181"/><use xlink:href="#s" x="-13.398899" y="121.891181"/><use xlink:href="#t" x="-8.4188" y="121.891181"/></g><g transform="matrix(.8754 -.48222 .48222 .8754 70.738 62.685)"><use xlink:href="#u" x="-2.439668" y="118.243534"/><use xlink:href="#v" x="1.529169" y="118.243534"/><use xlink:href="#w" x="3.893879" y="118.243534"/><use xlink:href="#x" x="7.85981" y="118.243534"/><use xlink:href="#y" x="11.825741" y="118.243534"/></g><g transform="scale(.9997)rotate(-28.849 157.272 -106.2)"><use xlink:href="#z" x="18.51717" y="121.891181"/><use xlink:href="#A" x="22.390159" y="121.891181"/></g><use xlink:href="#B" x="30.021636" y="118.243534" transform="matrix(.8754 -.48222 .48222 .8754 70.738 62.685)"/><g transform="scale(.9997)rotate(-28.849 157.272 -106.2)"><use xlink:href="#C" x="37.264275" y="121.891181"/><use xlink:href="#o" x="47.778528" y="121.891181"/><use xlink:href="#p" x="52.758228" y="121.891181"/><use xlink:href="#D" x="55.524505" y="121.891181"/><use xlink:href="#D" x="60.504505" y="121.891181"/><use xlink:href="#D" x="65.484504" y="121.891181"/><use xlink:href="#E" x="70.464504" y="121.891181"/></g></g><path d="M69.991 184.744a1.12 1.12 0 1 0-2.242 0 1.12 1.12 0 0 0 2.242 0"/><path fill="none" stroke="#000" stroke-miterlimit="10" stroke-width=".3985" d="M69.991 184.744a1.12 1.12 0 1 0-2.242 0 1.12 1.12 0 0 0 2.242 0Z"/><path d="M82.79 177.607a1.12 1.12 0 1 0-2.241 0 1.12 1.12 0 0 0 2.241 0"/><path fill="none" stroke="#000" stroke-miterlimit="10" stroke-width=".3985" d="M82.79 177.607a1.12 1.12 0 1 0-2.241 0 1.12 1.12 0 0 0 2.241 0Z"/><path d="M95.59 171.155a1.12 1.12 0 1 0-2.241 0 1.12 1.12 0 0 0 2.241 0"/><path fill="none" stroke="#000" stroke-miterlimit="10" stroke-width=".3985" d="M95.59 171.155a1.12 1.12 0 1 0-2.241 0 1.12 1.12 0 0 0 2.241 0Z"/><path d="M108.39 163.952a1.12 1.12 0 1 0-2.242 0 1.12 1.12 0 0 0 2.242 0"/><path fill="none" stroke="#000" stroke-miterlimit="10" stroke-width=".3985" d="M108.39 163.952a1.12 1.12 0 1 0-2.242 0 1.12 1.12 0 0 0 2.242 0Z"/><path d="M121.189 157.282a1.12 1.12 0 1 0-2.242 0 1.12 1.12 0 0 0 2.242 0"/><path fill="none" stroke="#000" stroke-miterlimit="10" stroke-width=".3985" d="M121.189 157.282a1.12 1.12 0 1 0-2.242 0 1.12 1.12 0 0 0 2.242 0Z"/><path d="M133.988 150.126a1.12 1.12 0 1 0-2.242 0 1.12 1.12 0 0 0 2.242 0"/><path fill="none" stroke="#000" stroke-miterlimit="10" stroke-width=".3985" d="M133.988 150.126a1.12 1.12 0 1 0-2.242 0 1.12 1.12 0 0 0 2.242 0Z"/><path d="M146.787 143.087a1.12 1.12 0 1 0-2.241 0 1.12 1.12 0 0 0 2.241 0"/><path fill="none" stroke="#000" stroke-miterlimit="10" stroke-width=".3985" d="M146.787 143.087a1.12 1.12 0 1 0-2.241 0 1.12 1.12 0 0 0 2.241 0Z"/><path d="M159.588 135.821a1.12 1.12 0 1 0-2.242 0 1.12 1.12 0 0 0 2.242 0"/><path fill="none" stroke="#000" stroke-miterlimit="10" stroke-width=".3985" d="M159.588 135.821a1.12 1.12 0 1 0-2.242 0 1.12 1.12 0 0 0 2.242 0Z"/><path d="M172.387 128.586a1.12 1.12 0 1 0-2.242 0 1.12 1.12 0 0 0 2.242 0"/><path fill="none" stroke="#000" stroke-miterlimit="10" stroke-width=".3985" d="M172.387 128.586a1.12 1.12 0 1 0-2.242 0 1.12 1.12 0 0 0 2.242 0Z"/><path d="M185.186 121.422a1.12 1.12 0 1 0-2.241 0 1.12 1.12 0 0 0 2.241 0"/><path fill="none" stroke="#000" stroke-miterlimit="10" stroke-width=".3985" d="M185.186 121.422a1.12 1.12 0 1 0-2.241 0 1.12 1.12 0 0 0 2.241 0Z"/><path d="M197.986 114.213a1.12 1.12 0 1 0-2.242 0 1.12 1.12 0 0 0 2.242 0"/><g fill="none" stroke="#000" stroke-miterlimit="10" stroke-width=".3985"><path d="M197.986 114.213a1.12 1.12 0 1 0-2.242 0 1.12 1.12 0 0 0 2.242 0ZM70.116 144.855a1.245 1.245 0 1 0-2.491 0 1.245 1.245 0 0 0 2.49 0ZM82.915 136.549a1.245 1.245 0 1 0-2.49 0 1.245 1.245 0 0 0 2.49 0ZM95.715 128.774a1.245 1.245 0 1 0-2.491 0 1.245 1.245 0 0 0 2.49 0ZM108.514 120.462a1.245 1.245 0 1 0-2.49 0 1.245 1.245 0 0 0 2.49 0ZM121.314 111.863a1.245 1.245 0 1 0-2.491 0 1.245 1.245 0 0 0 2.49 0ZM134.113 104.705a1.245 1.245 0 1 0-2.491 0 1.245 1.245 0 0 0 2.49 0ZM146.912 97.002a1.245 1.245 0 1 0-2.49 0 1.245 1.245 0 0 0 2.49 0ZM159.712 88.086a1.245 1.245 0 1 0-2.49 0 1.245 1.245 0 0 0 2.49 0ZM172.511 80.04a1.245 1.245 0 1 0-2.49 0 1.245 1.245 0 0 0 2.49 0ZM185.31 72.327a1.245 1.245 0 1 0-2.49 0 1.245 1.245 0 0 0 2.49 0ZM198.11 64.15a1.245 1.245 0 1 0-2.49 0 1.245 1.245 0 0 0 2.49 0Z"/></g><g transform="translate(150.995 112.655)scale(1.0004)"><use xlink:href="#F" x="-48.01427" y="121.971952"/><use xlink:href="#G" x="-42.153868" y="121.971952"/><use xlink:href="#G" x="-37.597109" y="121.971952"/><use xlink:href="#F" x="-33.04035" y="121.971952"/><use xlink:href="#H" x="-27.490909" y="121.971952"/><use xlink:href="#I" x="-17.42059" y="121.971952"/><use xlink:href="#J" x="-12.804028" y="121.971952"/><use xlink:href="#K" x="-9.550907" y="121.971952"/><use xlink:href="#L" x="-4.348307" y="121.971952"/><use xlink:href="#M" x="4.752907" y="121.971952"/></g><g transform="rotate(-90 14.62 112.253)scale(1.0004)"><use xlink:href="#L" x="-48.01427" y="121.971952"/><use xlink:href="#N" x="-42.81167" y="121.971952"/><use xlink:href="#F" x="-39.558546" y="121.971952"/><use xlink:href="#O" x="-33.698149" y="121.971952"/><use xlink:href="#I" x="-27.191907" y="121.971952"/><use xlink:href="#L" x="-22.575347" y="121.971952"/><use xlink:href="#P" x="-17.372747" y="121.971952"/><use xlink:href="#Q" x="-6.967546" y="121.971952"/><use xlink:href="#J" x="-2.410785" y="121.971952"/><use xlink:href="#R" x=".842335" y="121.971952"/><use xlink:href="#L" x="10.601696" y="121.971952"/><use xlink:href="#S" x="19.702912" y="121.971952"/><use xlink:href="#T" x="27.831174" y="121.971952"/><use xlink:href="#U" x="31.072335" y="121.971952"/><use xlink:href="#V" x="37.566615" y="121.971952"/><use xlink:href="#W" x="42.183176" y="121.971952"/></g><g transform="translate(93.16 -83.736)scale(1.0004)"><use xlink:href="#X" x="-48.01427" y="107.521152"/><use xlink:href="#Y" x="-40.52731" y="107.521152"/><use xlink:href="#Z" x="-32.39451" y="107.521152"/><use xlink:href="#aa" x="-26.534109" y="107.521152"/><use xlink:href="#Y" x="-22.635149" y="107.521152"/><use xlink:href="#F" x="-14.502348" y="107.521152"/><use xlink:href="#H" x="-8.964867" y="107.521152"/><use xlink:href="#ab" x="1.105453" y="107.521152"/><use xlink:href="#I" x="7.288773" y="107.521152"/><use xlink:href="#ac" x="11.905333" y="107.521152"/><use xlink:href="#X" x="20.349095" y="107.521152"/><use xlink:href="#ad" x="28.804815" y="107.521152"/><use xlink:href="#G" x="35.311056" y="107.521152"/><use xlink:href="#L" x="39.867816" y="107.521152"/><use xlink:href="#L" x="45.070416" y="107.521152"/><use xlink:href="#aa" x="50.273016" y="107.521152"/><use xlink:href="#Y" x="54.171977" y="107.521152"/><use xlink:href="#F" x="62.316737" y="107.521152"/><use xlink:href="#H" x="67.854212" y="107.521152"/><use xlink:href="#ae" x="77.924534" y="107.521152"/><use xlink:href="#af" x="87.038052" y="107.521152"/><use xlink:href="#J" x="93.544293" y="107.521152"/><use xlink:href="#ag" x="96.797418" y="107.521152"/><use xlink:href="#ah" x="101.689062" y="107.521152"/><use xlink:href="#I" x="107.872383" y="107.521152"/><use xlink:href="#Z" x="112.488944" y="107.521152"/><use xlink:href="#G" x="118.349338" y="107.521152"/><use xlink:href="#Q" x="122.906097" y="107.521152"/><use xlink:href="#ai" x="8.213299" y="121.971952"/><use xlink:href="#aj" x="12.77006" y="121.971952"/><use xlink:href="#af" x="21.716141" y="121.971952"/><use xlink:href="#O" x="28.222381" y="121.971952"/><use xlink:href="#N" x="34.728623" y="121.971952"/><use xlink:href="#J" x="37.981744" y="121.971952"/><use xlink:href="#ag" x="41.234866" y="121.971952"/><use xlink:href="#F" x="46.437465" y="121.971952"/><use xlink:href="#Q" x="52.297865" y="121.971952"/><use xlink:href="#L" x="56.854626" y="121.971952"/><use xlink:href="#I" x="62.057226" y="121.971952"/><use xlink:href="#ak" x="66.673788" y="121.971952"/></g><path fill="#fff" d="M60.876 73.49h110.809V56.157H60.876Z"/><path fill="none" stroke="#000" stroke-miterlimit="10" stroke-width=".3985" d="M60.876 73.49h110.809V56.157H60.876Z"/><path d="M66.107 64.824a1.12 1.12 0 1 0-2.242 0 1.12 1.12 0 0 0 2.242 0"/><path fill="none" stroke="#000" stroke-miterlimit="10" stroke-width=".3985" d="M66.107 64.824a1.12 1.12 0 1 0-2.242 0 1.12 1.12 0 0 0 2.242 0Z"/><g transform="translate(86.851 -54.21)scale(1.00008)"><use xlink:href="#al" x="-18.753547" y="121.933059"/><use xlink:href="#am" x="-10.876527" y="121.933059"/><use xlink:href="#an" x="-4.810568" y="121.933059"/><use xlink:href="#ao" x="-.533848" y="121.933059"/><use xlink:href="#ao" x="4.310193" y="121.933059"/><use xlink:href="#ap" x="9.154234" y="121.933059"/><use xlink:href="#aq" x="12.787264" y="121.933059"/><use xlink:href="#ar" x="20.369713" y="121.933059"/><use xlink:href="#as" x="25.519233" y="121.933059"/></g><path fill="none" stroke="#000" stroke-miterlimit="10" stroke-width=".3985" d="M122.6 64.824a1.245 1.245 0 1 0-2.49 0 1.245 1.245 0 0 0 2.49 0Z"/><g transform="translate(90.805 -54.303)scale(1.00008)"><use xlink:href="#al" x="33.790788" y="121.933059"/><use xlink:href="#aq" x="40.762273" y="121.933059"/><use xlink:href="#at" x="48.333815" y="121.933059"/><use xlink:href="#ap" x="53.788816" y="121.933059"/><use xlink:href="#aq" x="57.421845" y="121.933059"/><use xlink:href="#ar" x="64.993382" y="121.933059"/><use xlink:href="#as" x="70.142905" y="121.933059"/></g><g fill="none" stroke="gray" stroke-miterlimit="10" stroke-width=".19925"><path d="M295.632 204.944v-4.248m25.599 4.248v-4.248m25.598 4.248v-4.248m25.6 4.248v-4.248m25.598 4.248v-4.248m25.6 4.248v-4.248M295.631 51.348v4.248m25.599-4.248v4.248m25.598-4.248v4.248m25.6-4.248v4.248m25.598-4.248v4.248m25.6-4.248v4.248M282.843 204.944h2.834m-2.834-9.247h2.834m-2.834-5.41h2.834m-2.834-3.838h2.834m-2.834-2.977h2.834m-2.834-2.432h2.834m-2.834-2.057h2.834m-2.834-1.781h2.834m-2.834-1.572h2.834m-2.834-1.405h2.834m-2.834-9.248h2.834m-2.834-5.41h2.834m-2.834-3.837h2.834m-2.834-2.977h2.834m-2.834-2.433h2.834m-2.834-2.056h2.834m-2.834-1.781h2.834m-2.834-1.572h2.834m-2.834-1.405h2.834m-2.834-9.248h2.834m-2.834-5.41h2.834m-2.834-3.837h2.834m-2.834-2.977h2.834m-2.834-2.433h2.834m-2.834-2.056h2.834m-2.834-1.782h2.834m-2.834-1.571h2.834m-2.834-1.406h2.834m-2.834-9.247h2.834m-2.834-5.41h2.834m-2.834-3.838h2.834m-2.834-2.977h2.834m-2.834-2.432h2.834m-2.834-2.057h2.834m-2.834-1.781h2.834m-2.834-1.571h2.834m-2.834-1.406h2.834m-2.834-9.247h2.834m-2.834-5.41h2.834m-2.834-3.838h2.834m-2.834-2.977h2.834m-2.834-2.432h2.834m-2.834-2.057h2.834m-2.834-1.781h2.834m-2.834-1.572h2.834m150.762 152.191h-2.833m2.833-9.247h-2.833m2.833-5.41h-2.833m2.833-3.838h-2.833m2.833-2.977h-2.833m2.833-2.432h-2.833m2.833-2.057h-2.833m2.833-1.781h-2.833m2.833-1.572h-2.833m2.833-1.405h-2.833m2.833-9.248h-2.833m2.833-5.41h-2.833m2.833-3.837h-2.833m2.833-2.977h-2.833m2.833-2.433h-2.833m2.833-2.056h-2.833m2.833-1.781h-2.833m2.833-1.572h-2.833m2.833-1.405h-2.833m2.833-9.248h-2.833m2.833-5.41h-2.833m2.833-3.837h-2.833m2.833-2.977h-2.833m2.833-2.433h-2.833m2.833-2.056h-2.833m2.833-1.782h-2.833m2.833-1.571h-2.833m2.833-1.406h-2.833m2.833-9.247h-2.833m2.833-5.41h-2.833m2.833-3.838h-2.833m2.833-2.977h-2.833m2.833-2.432h-2.833m2.833-2.057h-2.833m2.833-1.781h-2.833m2.833-1.571h-2.833m2.833-1.406h-2.833m2.833-9.247h-2.833m2.833-5.41h-2.833m2.833-3.838h-2.833m2.833-2.977h-2.833m2.833-2.432h-2.833m2.833-2.057h-2.833m2.833-1.781h-2.833m2.833-1.572h-2.833M282.843 204.944h4.25m-4.25-30.72h4.25m-4.25-30.718h4.25m-4.25-30.72h4.25m-4.25-30.72h4.25m-4.25-30.718h4.25m149.346 153.596h-4.25m4.25-30.72h-4.25m4.25-30.718h-4.25m4.25-30.72h-4.25m4.25-30.72h-4.25m4.25-30.718h-4.25"/></g><path fill="none" stroke="#000" stroke-miterlimit="10" stroke-width=".3985" d="M282.843 204.944V51.348H436.44v153.596z"/><use xlink:href="#a" x="-48.01427" y="189.1179" transform="translate(338.334 29.561)scale(1.0004)"/><use xlink:href="#b" x="-42.141471" y="184.700683" transform="matrix(.99999 0 0 .99999 338.334 29.561)"/><use xlink:href="#a" x="-48.01427" y="189.1179" transform="translate(363.933 29.561)scale(1.0004)"/><use xlink:href="#c" x="-42.141471" y="184.700683" transform="matrix(.99999 0 0 .99999 363.933 29.561)"/><use xlink:href="#a" x="-48.01427" y="189.1179" transform="translate(387.415 29.561)scale(1.0004)"/><g transform="matrix(.99999 0 0 .99999 387.415 29.561)"><use xlink:href="#d" x="-42.141471" y="184.700683"/><use xlink:href="#d" x="-37.909399" y="184.700683"/></g><use xlink:href="#a" x="-48.01427" y="189.1179" transform="translate(413.014 29.561)scale(1.0004)"/><g transform="matrix(.99999 0 0 .99999 413.014 29.561)"><use xlink:href="#d" x="-42.141471" y="184.700683"/><use xlink:href="#e" x="-37.909399" y="184.700683"/></g><use xlink:href="#a" x="-48.01427" y="189.1179" transform="translate(438.612 29.561)scale(1.0004)"/><g transform="matrix(.99999 0 0 .99999 438.612 29.561)"><use xlink:href="#d" x="-42.141471" y="184.700683"/><use xlink:href="#f" x="-37.909399" y="184.700683"/></g><use xlink:href="#a" x="-48.01427" y="189.1179" transform="translate(464.211 29.561)scale(1.0004)"/><g transform="matrix(.99999 0 0 .99999 464.211 29.561)"><use xlink:href="#d" x="-42.141471" y="184.700683"/><use xlink:href="#b" x="-37.909399" y="184.700683"/></g><g transform="translate(310.216 20.64)scale(1.0004)"><use xlink:href="#g" x="-48.01427" y="189.1179"/><use xlink:href="#h" x="-42.165831" y="189.1179"/></g><use xlink:href="#e" x="-36.288544" y="184.700683" transform="matrix(.99999 0 0 .99999 310.216 20.64)"/><g transform="translate(310.216 -10.08)scale(1.0004)"><use xlink:href="#g" x="-48.01427" y="189.1179"/><use xlink:href="#h" x="-42.165831" y="189.1179"/></g><use xlink:href="#j" x="-36.288544" y="184.700683" transform="matrix(.99999 0 0 .99999 310.216 -10.08)"/><g transform="translate(310.216 -40.799)scale(1.0004)"><use xlink:href="#g" x="-48.01427" y="189.1179"/><use xlink:href="#h" x="-42.165831" y="189.1179"/></g><use xlink:href="#f" x="-36.288544" y="184.700683" transform="matrix(.99999 0 0 .99999 310.216 -40.799)"/><g transform="translate(310.216 -71.518)scale(1.0004)"><use xlink:href="#g" x="-48.01427" y="189.1179"/><use xlink:href="#h" x="-42.165831" y="189.1179"/></g><use xlink:href="#k" x="-36.288544" y="184.700683" transform="matrix(.99999 0 0 .99999 310.216 -71.518)"/><g transform="translate(310.216 -102.238)scale(1.0004)"><use xlink:href="#g" x="-48.01427" y="189.1179"/><use xlink:href="#h" x="-42.165831" y="189.1179"/></g><use xlink:href="#b" x="-36.288544" y="184.700683" transform="matrix(.99999 0 0 .99999 310.216 -102.238)"/><g transform="translate(310.216 -132.957)scale(1.0004)"><use xlink:href="#g" x="-48.01427" y="189.1179"/><use xlink:href="#h" x="-42.165831" y="189.1179"/></g><use xlink:href="#au" x="-36.288544" y="184.700683" transform="matrix(.99999 0 0 .99999 310.216 -132.957)"/><g clip-path="url(#av)"><path fill="none" stroke="#000" stroke-miterlimit="10" stroke-width=".3985" d="m282.843 192.094 6.4-5.566 6.4-5.49 6.4-5.424 6.399-5.363 6.4-5.312 6.4-5.268 6.399-5.228 6.4-5.191 6.399-5.16 6.4-5.128 6.4-5.102 6.399-5.077 6.4-5.054 6.4-5.033 6.399-5.015 6.4-4.998 6.399-4.976 6.4-4.967 6.4-4.949 6.399-4.937 6.4-4.924 6.4-4.912 6.399-4.899 6.4-4.89"/><g transform="scale(.99968)rotate(-38.326 93.057 -312.94)"><use xlink:href="#m" x="-47.982474" y="188.992665"/><use xlink:href="#n" x="-41.619135" y="188.992665"/><use xlink:href="#aw" x="-31.121294" y="188.992665"/><use xlink:href="#p" x="-26.126178" y="188.992665"/><use xlink:href="#aw" x="-23.3589" y="188.992665"/><use xlink:href="#ax" x="-18.3789" y="188.992665"/><use xlink:href="#z" x="-13.398899" y="188.992665"/><use xlink:href="#t" x="-9.525511" y="188.992665"/><use xlink:href="#ay" x="-1.887505" y="188.992665"/><use xlink:href="#az" x=".871415" y="188.992665"/><use xlink:href="#aA" x="5.851415" y="188.992665"/></g><use xlink:href="#B" x="10.975019" y="191.372665" transform="rotate(-38.325 93.026 -312.838)scale(.99939)"/><g transform="scale(.99968)rotate(-38.326 93.057 -312.94)"><use xlink:href="#t" x="17.105538" y="188.992665"/><use xlink:href="#E" x="23.083977" y="188.992665"/></g><g transform="rotate(-38.325 93.026 -312.838)scale(.99939)"><use xlink:href="#u" x="26.95031" y="185.324972"/><use xlink:href="#v" x="30.919146" y="185.324972"/><use xlink:href="#w" x="33.283857" y="185.324972"/><use xlink:href="#x" x="37.249789" y="185.324972"/><use xlink:href="#y" x="41.215719" y="185.324972"/></g><g transform="scale(.99968)rotate(-38.326 93.057 -312.94)"><use xlink:href="#z" x="47.915492" y="188.992665"/><use xlink:href="#A" x="51.788484" y="188.992665"/></g><use xlink:href="#B" x="59.411609" y="185.324972" transform="rotate(-38.325 93.026 -312.838)scale(.99939)"/><g transform="scale(.99968)rotate(-38.326 93.057 -312.94)"><use xlink:href="#C" x="66.662598" y="188.992665"/><use xlink:href="#o" x="77.175854" y="188.992665"/><use xlink:href="#p" x="82.156554" y="188.992665"/><use xlink:href="#D" x="84.922831" y="188.992665"/><use xlink:href="#D" x="89.902831" y="188.992665"/><use xlink:href="#D" x="94.882831" y="188.992665"/><use xlink:href="#E" x="99.862831" y="188.992665"/></g></g><path d="M296.765 180.204a1.12 1.12 0 1 0-2.242 0 1.12 1.12 0 0 0 2.242 0"/><path fill="none" stroke="#000" stroke-miterlimit="10" stroke-width=".3985" d="M296.765 180.204a1.12 1.12 0 1 0-2.242 0 1.12 1.12 0 0 0 2.242 0Z"/><path d="M309.564 170.222a1.12 1.12 0 1 0-2.241 0 1.12 1.12 0 0 0 2.241 0"/><path fill="none" stroke="#000" stroke-miterlimit="10" stroke-width=".3985" d="M309.564 170.222a1.12 1.12 0 1 0-2.241 0 1.12 1.12 0 0 0 2.241 0Z"/><path d="M322.364 159.078a1.12 1.12 0 1 0-2.241 0 1.12 1.12 0 0 0 2.241 0"/><path fill="none" stroke="#000" stroke-miterlimit="10" stroke-width=".3985" d="M322.364 159.078a1.12 1.12 0 1 0-2.241 0 1.12 1.12 0 0 0 2.241 0Z"/><path d="M335.164 149.565a1.12 1.12 0 1 0-2.242 0 1.12 1.12 0 0 0 2.242 0"/><path fill="none" stroke="#000" stroke-miterlimit="10" stroke-width=".3985" d="M335.164 149.565a1.12 1.12 0 1 0-2.242 0 1.12 1.12 0 0 0 2.242 0Z"/><path d="M347.963 140.561a1.12 1.12 0 1 0-2.242 0 1.12 1.12 0 0 0 2.242 0"/><path fill="none" stroke="#000" stroke-miterlimit="10" stroke-width=".3985" d="M347.963 140.561a1.12 1.12 0 1 0-2.242 0 1.12 1.12 0 0 0 2.242 0Z"/><path d="M360.762 128.418a1.12 1.12 0 1 0-2.242 0 1.12 1.12 0 0 0 2.242 0"/><path fill="none" stroke="#000" stroke-miterlimit="10" stroke-width=".3985" d="M360.762 128.418a1.12 1.12 0 1 0-2.242 0 1.12 1.12 0 0 0 2.242 0Z"/><path d="M373.561 118.807a1.12 1.12 0 1 0-2.241 0 1.12 1.12 0 0 0 2.241 0"/><path fill="none" stroke="#000" stroke-miterlimit="10" stroke-width=".3985" d="M373.561 118.807a1.12 1.12 0 1 0-2.241 0 1.12 1.12 0 0 0 2.241 0Z"/><path d="M386.362 108.894a1.12 1.12 0 1 0-2.242 0 1.12 1.12 0 0 0 2.241 0"/><path fill="none" stroke="#000" stroke-miterlimit="10" stroke-width=".3985" d="M386.362 108.894a1.12 1.12 0 1 0-2.242 0 1.12 1.12 0 0 0 2.241 0Z"/><path d="M399.16 98.573a1.12 1.12 0 1 0-2.24 0 1.12 1.12 0 0 0 2.24 0"/><path fill="none" stroke="#000" stroke-miterlimit="10" stroke-width=".3985" d="M399.16 98.573a1.12 1.12 0 1 0-2.24 0 1.12 1.12 0 0 0 2.24 0Z"/><path d="M411.96 89.085a1.12 1.12 0 1 0-2.241 0 1.12 1.12 0 0 0 2.241 0"/><path fill="none" stroke="#000" stroke-miterlimit="10" stroke-width=".3985" d="M411.96 89.085a1.12 1.12 0 1 0-2.241 0 1.12 1.12 0 0 0 2.241 0Z"/><path d="M424.76 77.94a1.12 1.12 0 1 0-2.242 0 1.12 1.12 0 0 0 2.242 0"/><g fill="none" stroke="#000" stroke-miterlimit="10" stroke-width=".3985"><path d="M424.76 77.94a1.12 1.12 0 1 0-2.242 0 1.12 1.12 0 0 0 2.242 0ZM296.89 183.321a1.245 1.245 0 1 0-2.491 0 1.245 1.245 0 0 0 2.49 0ZM309.689 173.2a1.245 1.245 0 1 0-2.49 0 1.245 1.245 0 0 0 2.49 0ZM322.489 163.21a1.245 1.245 0 1 0-2.491 0 1.245 1.245 0 0 0 2.49 0ZM335.288 154.443a1.245 1.245 0 1 0-2.49 0 1.245 1.245 0 0 0 2.49 0ZM348.088 142.922a1.245 1.245 0 1 0-2.491 0 1.245 1.245 0 0 0 2.49 0ZM360.887 135.088a1.245 1.245 0 1 0-2.491 0 1.245 1.245 0 0 0 2.49 0ZM373.686 127.222a1.245 1.245 0 1 0-2.49 0 1.245 1.245 0 0 0 2.49 0ZM386.486 115.622a1.245 1.245 0 1 0-2.49 0 1.245 1.245 0 0 0 2.49 0ZM399.285 107.686a1.245 1.245 0 1 0-2.49 0 1.245 1.245 0 0 0 2.49 0ZM412.085 96.551a1.245 1.245 0 1 0-2.49 0 1.245 1.245 0 0 0 2.49 0ZM424.885 88.812a1.245 1.245 0 1 0-2.491 0 1.245 1.245 0 0 0 2.49 0Z"/></g><g transform="translate(377.769 45.536)scale(1.0004)"><use xlink:href="#F" x="-48.01427" y="189.1179"/><use xlink:href="#G" x="-42.153868" y="189.1179"/><use xlink:href="#G" x="-37.597109" y="189.1179"/><use xlink:href="#F" x="-33.04035" y="189.1179"/><use xlink:href="#H" x="-27.490909" y="189.1179"/><use xlink:href="#I" x="-17.42059" y="189.1179"/><use xlink:href="#J" x="-12.804028" y="189.1179"/><use xlink:href="#K" x="-9.550907" y="189.1179"/><use xlink:href="#L" x="-4.348307" y="189.1179"/><use xlink:href="#M" x="4.752907" y="189.1179"/></g><g transform="rotate(-90 94.446 32.424)scale(1.0004)"><use xlink:href="#L" x="-48.01427" y="189.1179"/><use xlink:href="#N" x="-42.81167" y="189.1179"/><use xlink:href="#F" x="-39.558546" y="189.1179"/><use xlink:href="#O" x="-33.698149" y="189.1179"/><use xlink:href="#I" x="-27.191907" y="189.1179"/><use xlink:href="#L" x="-22.575347" y="189.1179"/><use xlink:href="#P" x="-17.372747" y="189.1179"/><use xlink:href="#Q" x="-6.967546" y="189.1179"/><use xlink:href="#J" x="-2.410785" y="189.1179"/><use xlink:href="#R" x=".842335" y="189.1179"/><use xlink:href="#L" x="10.601696" y="189.1179"/><use xlink:href="#S" x="19.702912" y="189.1179"/><use xlink:href="#T" x="27.831174" y="189.1179"/><use xlink:href="#U" x="31.072335" y="189.1179"/><use xlink:href="#V" x="37.566615" y="189.1179"/><use xlink:href="#W" x="42.183176" y="189.1179"/></g><g transform="translate(319.934 -150.857)scale(1.0004)"><use xlink:href="#X" x="-48.01427" y="174.6661"/><use xlink:href="#Y" x="-40.52731" y="174.6661"/><use xlink:href="#Z" x="-32.39451" y="174.6661"/><use xlink:href="#aa" x="-26.534109" y="174.6661"/><use xlink:href="#Y" x="-22.635149" y="174.6661"/><use xlink:href="#F" x="-14.502348" y="174.6661"/><use xlink:href="#H" x="-8.964867" y="174.6661"/><use xlink:href="#ab" x="1.105453" y="174.6661"/><use xlink:href="#I" x="7.288773" y="174.6661"/><use xlink:href="#ac" x="11.905333" y="174.6661"/><use xlink:href="#X" x="20.349095" y="174.6661"/><use xlink:href="#ad" x="28.804815" y="174.6661"/><use xlink:href="#G" x="35.311056" y="174.6661"/><use xlink:href="#L" x="39.867816" y="174.6661"/><use xlink:href="#L" x="45.070416" y="174.6661"/><use xlink:href="#aa" x="50.273016" y="174.6661"/><use xlink:href="#Y" x="54.171977" y="174.6661"/><use xlink:href="#F" x="62.316737" y="174.6661"/><use xlink:href="#H" x="67.854212" y="174.6661"/><use xlink:href="#ae" x="77.924534" y="174.6661"/><use xlink:href="#af" x="87.038052" y="174.6661"/><use xlink:href="#J" x="93.544293" y="174.6661"/><use xlink:href="#ag" x="96.797418" y="174.6661"/><use xlink:href="#ah" x="101.689062" y="174.6661"/><use xlink:href="#I" x="107.872383" y="174.6661"/><use xlink:href="#Z" x="112.488944" y="174.6661"/><use xlink:href="#G" x="118.349338" y="174.6661"/><use xlink:href="#Q" x="122.906097" y="174.6661"/><use xlink:href="#ai" x="12.27993" y="189.11789"/><use xlink:href="#aB" x="16.836691" y="189.11789"/><use xlink:href="#L" x="25.459851" y="189.11789"/><use xlink:href="#ab" x="30.662451" y="189.11789"/><use xlink:href="#L" x="36.53481" y="189.11789"/><use xlink:href="#G" x="41.73741" y="189.11789"/><use xlink:href="#I" x="46.29417" y="189.11789"/><use xlink:href="#L" x="50.91073" y="189.11789"/><use xlink:href="#P" x="56.11333" y="189.11789"/><use xlink:href="#ak" x="62.61957" y="189.11789"/></g><path fill="#fff" d="M287.65 73.49H398.46V56.154H287.65Z"/><path fill="none" stroke="#000" stroke-miterlimit="10" stroke-width=".3985" d="M287.65 73.49H398.46V56.154H287.65Z"/><path d="M292.88 64.822a1.12 1.12 0 1 0-2.24 0 1.12 1.12 0 0 0 2.24 0"/><path fill="none" stroke="#000" stroke-miterlimit="10" stroke-width=".3985" d="M292.88 64.822a1.12 1.12 0 1 0-2.24 0 1.12 1.12 0 0 0 2.24 0Z"/><g transform="translate(313.625 -121.331)scale(1.00008)"><use xlink:href="#al" x="-18.753547" y="189.057596"/><use xlink:href="#am" x="-10.876527" y="189.057596"/><use xlink:href="#an" x="-4.810568" y="189.057596"/><use xlink:href="#ao" x="-.533848" y="189.057596"/><use xlink:href="#ao" x="4.310193" y="189.057596"/><use xlink:href="#ap" x="9.154234" y="189.057596"/><use xlink:href="#aq" x="12.787264" y="189.057596"/><use xlink:href="#ar" x="20.369713" y="189.057596"/><use xlink:href="#as" x="25.519233" y="189.057596"/></g><path fill="none" stroke="#000" stroke-miterlimit="10" stroke-width=".3985" d="M349.374 64.822a1.245 1.245 0 1 0-2.49 0 1.245 1.245 0 0 0 2.49 0Z"/><g transform="translate(317.579 -121.424)scale(1.00008)"><use xlink:href="#al" x="33.790788" y="189.057596"/><use xlink:href="#aq" x="40.762273" y="189.057596"/><use xlink:href="#at" x="48.333815" y="189.057596"/><use xlink:href="#ap" x="53.788816" y="189.057596"/><use xlink:href="#aq" x="57.421845" y="189.057596"/><use xlink:href="#ar" x="64.993382" y="189.057596"/><use xlink:href="#as" x="70.142905" y="189.057596"/></g></svg>