<svg xmlns="http://www.w3.org/2000/svg" xmlns:xlink="http://www.w3.org/1999/xlink" width="199.8pt" height="273.51pt" viewBox="0 0 199.8 273.51"><defs><path id="l" d="M4.899-2.193c0-1.298-.895-2.39-2.073-2.39-.524 0-.993.175-1.386.557v-2.127c.218.065.578.142.927.142 1.342 0 2.106-.993 2.106-1.135 0-.066-.033-.12-.109-.12-.01 0-.033 0-.087.033a3.6 3.6 0 0 1-1.484.316c-.436 0-.938-.076-1.451-.305-.087-.033-.11-.033-.131-.033-.11 0-.11.087-.11.262v3.23c0 .195 0 .283.154.283.076 0 .098-.033.141-.098.12-.175.524-.764 1.408-.764.567 0 .84.502.927.698.175.404.197.83.197 1.375 0 .382 0 1.036-.262 1.494-.262.426-.666.71-1.168.71-.796 0-1.418-.579-1.603-1.222.032.01.065.021.185.021.36 0 .546-.272.546-.534s-.186-.535-.546-.535c-.153 0-.535.077-.535.578C.546-.818 1.299.24 2.52.24 3.786.24 4.9-.807 4.9-2.193"/><path id="s" d="M1.44-3.578v-.262c0-2.76 1.353-3.153 1.91-3.153.261 0 .72.065.96.436-.164 0-.6 0-.6.491 0 .338.261.502.501.502.175 0 .502-.098.502-.524 0-.654-.48-1.178-1.385-1.178-1.397 0-2.87 1.407-2.87 3.818C.458-.535 1.724.24 2.738.24 3.95.24 4.986-.786 4.986-2.226c0-1.385-.971-2.433-2.182-2.433-.742 0-1.146.557-1.364 1.08M2.738-.065c-.687 0-1.014-.655-1.08-.819-.196-.512-.196-1.385-.196-1.582 0-.85.35-1.942 1.331-1.942.175 0 .676 0 1.015.677.196.403.196.96.196 1.494 0 .524 0 1.07-.185 1.462-.328.655-.83.71-1.08.71"/><path id="k" d="M7.364-6.48c.12-.055.208-.11.208-.24a.21.21 0 0 0-.219-.219.6.6 0 0 0-.196.066L1.124-4.026c-.186.087-.218.164-.218.251 0 .098.065.175.218.24L7.157-.698c.142.076.164.076.196.076.12 0 .219-.098.219-.218 0-.098-.044-.164-.23-.251L1.637-3.775zM7.19 1.494c.185 0 .382 0 .382-.219s-.23-.218-.393-.218h-5.88c-.164 0-.393 0-.393.218s.196.219.381.219z"/><path id="r" d="M7.353-3.535c.153-.065.219-.142.219-.24 0-.109-.044-.174-.219-.25L1.342-6.863c-.153-.077-.196-.077-.218-.077a.21.21 0 0 0-.218.218c0 .131.087.186.207.24L6.84-3.786 1.135-1.09c-.219.098-.23.185-.23.25 0 .12.099.22.219.22.032 0 .054 0 .196-.077zm-.163 5.03c.185 0 .382 0 .382-.219s-.23-.218-.393-.218h-5.88c-.164 0-.393 0-.393.218s.196.219.381.219z"/><path id="w" d="M5.27-.971v-.611h-.273v.611c0 .633-.273.698-.393.698-.36 0-.404-.49-.404-.545V-3c0-.458 0-.884-.392-1.288a2.08 2.08 0 0 0-1.495-.6c-.895 0-1.647.513-1.647 1.233 0 .327.218.513.501.513a.48.48 0 0 0 .502-.502c0-.13-.054-.49-.556-.502.294-.382.829-.502 1.178-.502.535 0 1.157.426 1.157 1.397v.403c-.557.033-1.32.066-2.008.393-.818.371-1.09.939-1.09 1.419C.35-.153 1.406.12 2.094.12a1.51 1.51 0 0 0 1.429-.95c.044.437.338.895.85.895.23 0 .896-.152.896-1.036m-1.822-.556C3.448-.491 2.662-.12 2.17-.12c-.534 0-.982-.382-.982-.927 0-.6.458-1.506 2.259-1.571z"/><path id="v" d="M5.75 0v-.338c-.764 0-.851-.077-.851-.611v-6.623l-1.571.12v.339c.763 0 .85.076.85.61v2.357c-.316-.393-.785-.676-1.374-.676C1.516-4.822.37-3.753.37-2.346.37-.96 1.44.12 2.684.12c.698 0 1.189-.37 1.462-.72v.72zM4.146-1.287c0 .196 0 .218-.12.403-.328.524-.818.764-1.288.764-.49 0-.883-.284-1.145-.698-.284-.448-.317-1.07-.317-1.517 0-.403.022-1.058.339-1.549.229-.338.643-.698 1.233-.698.381 0 .84.163 1.178.654.12.186.12.208.12.404z"/><path id="u" d="M4.528-1.298c0-.11-.088-.131-.142-.131-.098 0-.12.065-.142.153C3.862-.153 2.88-.153 2.771-.153c-.545 0-.982-.327-1.233-.73-.327-.524-.327-1.244-.327-1.637h3.044c.24 0 .273 0 .273-.23 0-1.08-.59-2.138-1.953-2.138-1.266 0-2.27 1.124-2.27 2.488 0 1.462 1.146 2.52 2.4 2.52 1.332 0 1.823-1.211 1.823-1.418m-.72-1.451H1.222c.065-1.626.982-1.899 1.353-1.899 1.123 0 1.233 1.473 1.233 1.899"/><path id="d" d="M2.695 0v-.338c-.72 0-.764-.055-.764-.48v-4.004l-1.527.12v.338c.709 0 .807.065.807.6v2.935c0 .49-.12.49-.851.49V0l1.2-.033c.382 0 .764.022 1.135.033m-.6-6.59a.583.583 0 0 0-1.167 0 .583.583 0 0 0 1.167 0"/><path id="t" d="M8.87 0v-.338c-.567 0-.84 0-.851-.328v-2.083c0-.939 0-1.277-.338-1.67-.153-.185-.513-.403-1.146-.403-.916 0-1.396.654-1.582 1.069-.153-.95-.96-1.07-1.45-1.07-.797 0-1.31.47-1.616 1.146v-1.145l-1.538.12v.338c.764 0 .851.076.851.611v2.924c0 .49-.12.49-.85.49V0l1.232-.033L2.804 0v-.338c-.731 0-.851 0-.851-.491v-2.008c0-1.134.775-1.745 1.473-1.745.687 0 .807.589.807 1.21v2.543c0 .49-.12.49-.85.49V0l1.232-.033L5.837 0v-.338c-.731 0-.851 0-.851-.491v-2.008c0-1.134.774-1.745 1.473-1.745.687 0 .807.589.807 1.21v2.543c0 .49-.12.49-.85.49V0l1.232-.033z"/><path id="x" d="M5.837 0v-.338c-.567 0-.84 0-.851-.328v-2.083c0-.939 0-1.277-.338-1.67-.153-.185-.513-.403-1.146-.403-.796 0-1.31.469-1.615 1.145v-1.145l-1.538.12v.338c.764 0 .851.076.851.611v2.924c0 .49-.12.49-.85.49V0l1.232-.033L2.804 0v-.338c-.731 0-.851 0-.851-.491v-2.008c0-1.134.775-1.745 1.473-1.745.687 0 .807.589.807 1.21v2.543c0 .49-.12.49-.85.49V0l1.232-.033z"/><path id="f" d="M5.139-2.335c0-1.396-1.091-2.553-2.411-2.553-1.364 0-2.423 1.19-2.423 2.553A2.435 2.435 0 0 0 2.717.12a2.43 2.43 0 0 0 2.422-2.455m-.906-.087c0 .393 0 .982-.24 1.462-.24.49-.72.807-1.265.807-.47 0-.95-.229-1.244-.73-.273-.48-.273-1.146-.273-1.539 0-.426 0-1.015.262-1.495a1.46 1.46 0 0 1 1.244-.73c.48 0 .949.24 1.232.708s.284 1.102.284 1.517"/><path id="c" d="M5.684-2.357c0-1.385-1.058-2.465-2.28-2.465-.851 0-1.31.48-1.527.72v-.72l-1.572.12v.338c.775 0 .851.065.851.546v5.105c0 .491-.12.491-.85.491v.339l1.221-.033 1.233.033v-.339c-.73 0-.85 0-.85-.49V-.645c.054.175.512.764 1.341.764C4.55.12 5.684-.95 5.684-2.357m-.905 0c0 1.32-.764 2.237-1.571 2.237-.437 0-.851-.218-1.146-.666-.153-.229-.153-.24-.153-.458v-2.433c.317-.556.851-.872 1.408-.872.796 0 1.462.96 1.462 2.192"/><path id="j" d="M3.611 2.618c0-.032 0-.054-.185-.24-1.364-1.374-1.713-3.436-1.713-5.105 0-1.899.414-3.797 1.756-5.16.142-.132.142-.154.142-.186 0-.077-.043-.11-.109-.11-.109 0-1.09.742-1.735 2.128-.556 1.2-.687 2.411-.687 3.327 0 .851.12 2.172.72 3.404.655 1.342 1.593 2.052 1.702 2.052.066 0 .11-.033.11-.11"/><path id="m" d="M3.153-2.727c0-.851-.12-2.172-.72-3.404C1.778-7.473.84-8.182.73-8.182c-.065 0-.11.043-.11.109 0 .032 0 .054.208.25C1.9-6.742 2.52-5.007 2.52-2.726c0 1.865-.403 3.785-1.756 5.16-.142.13-.142.153-.142.185 0 .066.044.11.109.11.11 0 1.091-.742 1.735-2.128.556-1.2.687-2.411.687-3.327"/><path id="g" d="M3.622-1.353v-.622H3.35v.6c0 .808-.327 1.222-.73 1.222-.732 0-.732-.993-.732-1.178v-3.033h1.56v-.338h-1.56V-6.71h-.272c-.011.895-.339 2.062-1.408 2.106v.24h.928v3.011C1.135-.01 2.149.12 2.542.12c.775 0 1.08-.775 1.08-1.473"/><path id="e" d="M5.542-4.364v-.338c-.25.022-.567.033-.818.033l-.95-.033v.338c.405.01.525.262.525.47 0 .097-.022.141-.066.261L3.12-.851 1.898-3.895c-.065-.142-.065-.185-.065-.185 0-.284.425-.284.622-.284v-.338l-1.19.033c-.294 0-.73-.011-1.058-.033v.338c.688 0 .731.065.873.404L2.651-.087c.066.152.087.207.23.207s.185-.098.228-.207l1.43-3.546c.098-.251.283-.72 1.003-.731"/><path id="p" d="M5.358-1.985c0-1.22-.861-1.758-1.794-2.333.598-.322 1.471-.873 1.471-1.877 0-1.04-1.004-1.758-2.105-1.758-1.184 0-2.117.873-2.117 1.961 0 .407.12.813.455 1.22.131.155.143.167.98.753C1.088-3.48.49-2.679.49-1.806.49-.538 1.698.251 2.918.251c1.328 0 2.44-.98 2.44-2.236m-.813-4.198c0 .73-.526 1.315-1.22 1.698l-1.387-.909c-.156-.108-.634-.419-.634-1.005 0-.777.813-1.267 1.614-1.267.861 0 1.627.622 1.627 1.483m.263 4.58c0 .91-.921 1.531-1.878 1.531-1.016 0-1.89-.741-1.89-1.734 0-.933.682-1.686 1.46-2.045l1.447.945c.31.203.86.574.86 1.303"/><path id="a" d="M5.262-2.404c0-1.423-.956-2.607-2.212-2.607-.682 0-1.208.299-1.52.634v-2.476c.515.167.934.18 1.065.18 1.352 0 2.213-.993 2.213-1.16 0-.049-.024-.108-.096-.108 0 0-.048 0-.155.047a3.9 3.9 0 0 1-1.555.323c-.79 0-1.352-.239-1.579-.335-.083-.035-.12-.035-.12-.035-.095 0-.095.071-.095.263v3.552c0 .215 0 .287.143.287.06 0 .072-.012.192-.156.335-.49.897-.777 1.495-.777.634 0 .945.586 1.04.79.204.466.216 1.052.216 1.506s0 1.136-.335 1.675c-.263.43-.73.73-1.256.73-.79 0-1.567-.539-1.782-1.412.06.024.131.036.191.036.204 0 .527-.12.527-.526 0-.335-.228-.527-.527-.527-.215 0-.526.108-.526.574 0 1.017.813 2.177 2.14 2.177 1.352 0 2.536-1.136 2.536-2.655"/><path id="h" d="M5.526-1.997v-.347H4.318v-5.442c0-.227 0-.287-.168-.287-.096 0-.131 0-.227.144l-3.6 5.585v.347h3.145V-.91c0 .443-.024.562-.897.562h-.239V0c.275-.024 1.22-.024 1.555-.024s1.292 0 1.567.024v-.347h-.24c-.86 0-.896-.12-.896-.562v-1.088zm-1.998-.347H.622l2.906-4.51z"/><path id="o" d="M5.358-3.935c0-3.217-1.34-4.018-2.392-4.018C1.65-7.953.49-6.853.49-5.274S1.603-2.62 2.8-2.62c.885 0 1.34-.646 1.578-1.256v.395c0 2.822-1.255 3.408-1.973 3.408-.287 0-.921-.036-1.22-.454h.072c.084.024.514-.048.514-.49 0-.264-.18-.491-.49-.491s-.503.203-.503.514c0 .742.598 1.244 1.639 1.244 1.495 0 2.942-1.59 2.942-4.186M4.353-5.01c0 1.004-.454 2.153-1.507 2.153-.753 0-1.076-.61-1.184-.838-.19-.454-.19-1.028-.19-1.566 0-.67 0-1.244.31-1.735.215-.323.538-.67 1.184-.67.682 0 1.029.599 1.148.874.24.586.24 1.602.24 1.782"/><path id="b" d="M4.868-6.793c0-.73-.503-1.627-2.225-1.627-1.292 0-1.997.837-1.997 1.603 0 .43.323.526.502.526.203 0 .49-.143.49-.502a.48.48 0 0 0-.502-.49c-.072 0-.095 0-.12.011.264-.622.957-.909 1.591-.909 1.352 0 1.352.873 1.352 1.328 0 .706-.216.933-.419 1.148-.813.873-1.076 1.985-1.076 2.715v.574c0 .215 0 .263.131.263s.132-.084.132-.299v-.442c0-.706.287-1.758 1.495-2.655.335-.252.646-.622.646-1.244M3.169-.586a.58.58 0 0 0-.574-.574.576.576 0 0 0-.586.574.58.58 0 1 0 1.16 0"/><path id="q" d="M5.681-7.427v-.275H2.799c-1.448 0-1.471-.156-1.52-.383h-.262L.646-5.693h.263c.036-.215.143-.957.299-1.088.096-.072.993-.072 1.16-.072h2.536L3.636-5.035C3.313-4.57 2.105-2.607 2.105-.36c0 .132 0 .61.49.61.503 0 .503-.466.503-.622v-.598c0-1.782.287-3.17.849-3.97z"/><path id="n" d="M5.358-2.44c0-1.59-1.112-2.655-2.308-2.655-1.065 0-1.46.921-1.579 1.256v-.323c0-3.026 1.471-3.504 2.117-3.504.43 0 .861.131 1.088.49-.143 0-.598 0-.598.49 0 .263.18.49.49.49.3 0 .503-.179.503-.526 0-.621-.454-1.231-1.495-1.231C2.069-7.953.49-6.411.49-3.78.49-.49 1.926.25 2.942.25c1.304 0 2.416-1.136 2.416-2.69m-.98-.012c0 .61 0 1.148-.228 1.603-.299.574-.73.777-1.208.777-.753 0-1.112-.67-1.22-.92-.107-.312-.227-.898-.227-1.735 0-.945.43-2.129 1.507-2.129.658 0 1.005.443 1.184.85.191.442.191 1.04.191 1.554"/><path id="i" d="M5.262-2.01H5c-.036.204-.131.862-.25 1.053-.085.108-.766.108-1.125.108H1.41c.323-.275 1.053-1.04 1.364-1.328 1.818-1.674 2.487-2.296 2.487-3.48 0-1.375-1.088-2.296-2.475-2.296S.586-6.77.586-5.741c0 .61.526.61.562.61.251 0 .562-.18.562-.562 0-.335-.227-.562-.562-.562-.107 0-.131 0-.167.012.227-.813.873-1.364 1.65-1.364 1.017 0 1.639.85 1.639 1.95 0 1.017-.586 1.902-1.268 2.667L.586-.287V0h4.365z"/></defs><path fill="none" stroke="#000" stroke-miterlimit="10" stroke-width=".3985" d="M79.121 50.056a9.004 9.004 0 1 0-18.009 0 9.004 9.004 0 1 0 18.01 0Z"/><use xlink:href="#a" x="-21.734723" y="-21.957813" transform="translate(88.914 75.849)scale(1.0004)"/><path fill="none" stroke="#000" stroke-miterlimit="10" stroke-width=".3985" d="M98.93 50.056a8.97 8.97 0 1 0-17.94 0 8.97 8.97 0 0 0 17.94 0Z"/><use xlink:href="#b" x="-21.734723" y="-21.957813" transform="translate(108.924 76.213)scale(1.0004)"/><path fill="none" stroke="#000" stroke-miterlimit="10" stroke-width=".3985" d="M118.772 50.056a8.97 8.97 0 1 0-17.94 0 8.97 8.97 0 0 0 17.94 0Z"/><use xlink:href="#b" x="-21.734723" y="-21.957813" transform="translate(128.767 76.213)scale(1.0004)"/><path fill="none" stroke="#000" stroke-miterlimit="10" stroke-width=".3985" d="M138.615 50.056a8.97 8.97 0 1 0-17.94 0 8.97 8.97 0 0 0 17.94 0Z"/><use xlink:href="#b" x="-21.734723" y="-21.957813" transform="translate(148.609 76.213)scale(1.0004)"/><path fill="none" stroke="#000" stroke-miterlimit="10" stroke-width=".3985" d="M89.008 67.064a8.97 8.97 0 1 0-17.94 0 8.97 8.97 0 1 0 17.94 0Z"/><use xlink:href="#b" x="-21.734723" y="-21.957813" transform="translate(99.002 93.221)scale(1.0004)"/><path fill="none" stroke="#000" stroke-miterlimit="10" stroke-width=".3985" d="M108.85 67.064a8.97 8.97 0 1 0-17.939 0 8.97 8.97 0 1 0 17.94 0Z"/><use xlink:href="#b" x="-21.734723" y="-21.957813" transform="translate(118.845 93.221)scale(1.0004)"/><path fill="none" stroke="#000" stroke-miterlimit="10" stroke-width=".3985" d="M128.694 67.064a8.97 8.97 0 1 0-17.94 0 8.97 8.97 0 0 0 17.94 0Z"/><use xlink:href="#b" x="-21.734723" y="-21.957813" transform="translate(138.688 93.221)scale(1.0004)"/><path fill="none" stroke="#000" stroke-miterlimit="10" stroke-width=".3985" d="M70.117 35.048v-7.67"/><path d="m70.117 38.15 1.682-4.468-1.682 1.466-1.682-1.466Z"/><path fill="none" stroke="#000" stroke-miterlimit="10" stroke-width=".3985" d="m70.117 38.15 1.682-4.468-1.682 1.466-1.682-1.466Z"/><g transform="translate(79.717 44.445)scale(1.00008)"><use xlink:href="#c" x="-21.727792" y="-21.950811"/><use xlink:href="#d" x="-15.661832" y="-21.950811"/><use xlink:href="#e" x="-12.628852" y="-21.950811"/><use xlink:href="#f" x="-7.173852" y="-21.950811"/><use xlink:href="#g" x="-1.718852" y="-21.950811"/></g><path fill="none" stroke="gray" stroke-miterlimit="10" stroke-width=".3985" d="M79.121 123.758a9.004 9.004 0 1 0-18.009 0 9.004 9.004 0 1 0 18.01 0Z"/><use xlink:href="#a" x="-21.734723" y="-21.957813" fill="gray" transform="translate(88.914 149.55)scale(1.0004)"/><path fill="none" stroke="gray" stroke-miterlimit="10" stroke-width=".3985" d="M29.482 123.758a8.972 8.972 0 1 0-17.944 0 8.972 8.972 0 1 0 17.944 0Z"/><use xlink:href="#h" x="-21.734723" y="-21.957813" fill="gray" transform="translate(39.307 149.742)scale(1.0004)"/><path fill="none" stroke="gray" stroke-miterlimit="10" stroke-width=".3985" d="M39.325 140.766a8.894 8.894 0 1 0-17.788 0 8.894 8.894 0 0 0 17.788 0Z"/><use xlink:href="#i" x="-21.734723" y="-21.957813" fill="gray" transform="translate(49.228 166.69)scale(1.0004)"/><g transform="translate(39.429 186.702)scale(1.00008)"><use xlink:href="#j" x="-21.727792" y="-21.950811"/><use xlink:href="#k" x="-17.484442" y="-21.950811"/><use xlink:href="#l" x="-5.967492" y="-21.950811"/><use xlink:href="#m" x="-.513042" y="-21.950811"/></g><path fill="none" stroke="#000" stroke-miterlimit="10" stroke-width=".3985" d="M118.815 123.758a9.012 9.012 0 1 0-18.025 0 9.012 9.012 0 1 0 18.025 0Z"/><use xlink:href="#n" x="-21.734723" y="-21.957813" transform="translate(128.599 149.556)scale(1.0004)"/><path fill="none" stroke="#000" stroke-miterlimit="10" stroke-width=".3985" d="M138.657 123.758a9.012 9.012 0 1 0-18.024 0 9.012 9.012 0 1 0 18.024 0Z"/><use xlink:href="#o" x="-21.734723" y="-21.957813" transform="translate(148.442 149.556)scale(1.0004)"/><path fill="none" stroke="#000" stroke-miterlimit="10" stroke-width=".3985" d="M128.736 140.766a9.012 9.012 0 1 0-18.025 0 9.012 9.012 0 1 0 18.025 0Z"/><use xlink:href="#p" x="-21.734723" y="-21.957813" transform="translate(138.521 166.564)scale(1.0004)"/><path fill="none" stroke="#000" stroke-miterlimit="10" stroke-width=".3985" d="M148.618 140.766a9.052 9.052 0 1 0-18.103 0 9.052 9.052 0 1 0 18.103 0Z"/><use xlink:href="#q" x="-21.734723" y="-21.957813" transform="translate(158.363 166.63)scale(1.0004)"/><g transform="translate(138.642 186.702)scale(1.00008)"><use xlink:href="#j" x="-21.727792" y="-21.950811"/><use xlink:href="#r" x="-17.484442" y="-21.950811"/><use xlink:href="#l" x="-5.967492" y="-21.950811"/><use xlink:href="#m" x="-.513042" y="-21.950811"/></g><path fill="none" stroke="#000" stroke-miterlimit="10" stroke-width=".3985" d="M109.802 108.75v-7.67"/><path d="m109.802 111.852 1.682-4.468-1.682 1.465-1.682-1.465Z"/><path fill="none" stroke="#000" stroke-miterlimit="10" stroke-width=".3985" d="m109.802 111.852 1.682-4.468-1.682 1.465-1.682-1.465Z"/><g transform="translate(119.403 118.146)scale(1.00008)"><use xlink:href="#c" x="-21.727792" y="-21.950811"/><use xlink:href="#d" x="-15.661832" y="-21.950811"/><use xlink:href="#e" x="-12.628852" y="-21.950811"/><use xlink:href="#f" x="-7.173852" y="-21.950811"/><use xlink:href="#g" x="-1.718852" y="-21.950811"/></g><path fill="none" stroke="#000" stroke-miterlimit="10" stroke-width=".3985" d="M128.736 214.468a9.012 9.012 0 1 0-18.025 0 9.012 9.012 0 1 0 18.025 0Z"/><use xlink:href="#n" x="-21.734723" y="-21.957813" transform="translate(138.521 240.266)scale(1.0004)"/><path fill="none" stroke="gray" stroke-miterlimit="10" stroke-width=".3985" d="M168.421 214.468a9.012 9.012 0 1 0-18.024 0 9.012 9.012 0 1 0 18.024 0Z"/><use xlink:href="#p" x="-21.734723" y="-21.957813" fill="gray" transform="translate(178.206 240.266)scale(1.0004)"/><path fill="none" stroke="gray" stroke-miterlimit="10" stroke-width=".3985" d="M188.264 214.468a9.012 9.012 0 1 0-18.024 0 9.012 9.012 0 1 0 18.024 0Z"/><use xlink:href="#o" x="-21.734723" y="-21.957813" fill="gray" transform="translate(198.049 240.266)scale(1.0004)"/><path fill="none" stroke="gray" stroke-miterlimit="10" stroke-width=".3985" d="M178.382 231.476a9.052 9.052 0 1 0-18.103 0 9.052 9.052 0 1 0 18.103 0Z"/><use xlink:href="#q" x="-21.734723" y="-21.957813" fill="gray" transform="translate(188.128 257.34)scale(1.0004)"/><g transform="translate(178.328 277.412)scale(1.00008)"><use xlink:href="#j" x="-21.727792" y="-21.950811"/><use xlink:href="#r" x="-17.484442" y="-21.950811"/><use xlink:href="#s" x="-5.967492" y="-21.950811"/><use xlink:href="#m" x="-.513042" y="-21.950811"/></g><path fill="none" stroke="#000" stroke-miterlimit="10" stroke-width=".3985" d="M119.724 199.46v-7.67"/><path d="m119.724 202.561 1.682-4.467-1.682 1.465-1.682-1.465Z"/><path fill="none" stroke="#000" stroke-miterlimit="10" stroke-width=".3985" d="m119.724 202.561 1.682-4.467-1.682 1.465-1.682-1.465Z"/><g transform="translate(124.175 210.853)scale(1.00008)"><use xlink:href="#t" x="-21.727792" y="-21.950811"/><use xlink:href="#u" x="-12.639763" y="-21.950811"/><use xlink:href="#v" x="-7.795722" y="-21.950811"/><use xlink:href="#d" x="-1.729762" y="-21.950811"/><use xlink:href="#w" x="1.303218" y="-21.950811"/><use xlink:href="#x" x="6.758219" y="-21.950811"/></g></svg>