<svg xmlns="http://www.w3.org/2000/svg" xmlns:xlink="http://www.w3.org/1999/xlink" width="266.83pt" height="158.94pt" viewBox="0 0 266.83 158.94"><defs><path id="u" d="M7.364-6.48c.12-.055.208-.11.208-.24a.21.21 0 0 0-.219-.219.6.6 0 0 0-.196.066L1.124-4.026c-.186.087-.218.164-.218.251 0 .098.065.175.218.24L7.157-.698c.142.076.164.076.196.076.12 0 .219-.098.219-.218 0-.098-.044-.164-.23-.251L1.637-3.775zM7.19 1.494c.185 0 .382 0 .382-.219s-.23-.218-.393-.218h-5.88c-.164 0-.393 0-.393.218s.196.219.381.219z"/><path id="B" d="M7.353-3.535c.153-.065.219-.142.219-.24 0-.109-.044-.174-.219-.25L1.342-6.863c-.153-.077-.196-.077-.218-.077a.21.21 0 0 0-.218.218c0 .131.087.186.207.24L6.84-3.786 1.135-1.09c-.219.098-.23.185-.23.25 0 .12.099.22.219.22.032 0 .054 0 .196-.077zm-.163 5.03c.185 0 .382 0 .382-.219s-.23-.218-.393-.218h-5.88c-.164 0-.393 0-.393.218s.196.219.381.219z"/><path id="w" d="M2.695 0v-.338c-.72 0-.764-.055-.764-.48v-4.004l-1.527.12v.338c.709 0 .807.065.807.6v2.935c0 .49-.12.49-.851.49V0l1.2-.033c.382 0 .764.022 1.135.033m-.6-6.59a.583.583 0 0 0-1.167 0 .583.583 0 0 0 1.167 0"/><path id="y" d="M5.139-2.335c0-1.396-1.091-2.553-2.411-2.553-1.364 0-2.423 1.19-2.423 2.553A2.435 2.435 0 0 0 2.717.12a2.43 2.43 0 0 0 2.422-2.455m-.906-.087c0 .393 0 .982-.24 1.462-.24.49-.72.807-1.265.807-.47 0-.95-.229-1.244-.73-.273-.48-.273-1.146-.273-1.539 0-.426 0-1.015.262-1.495a1.46 1.46 0 0 1 1.244-.73c.48 0 .949.24 1.232.708s.284 1.102.284 1.517"/><path id="v" d="M5.684-2.357c0-1.385-1.058-2.465-2.28-2.465-.851 0-1.31.48-1.527.72v-.72l-1.572.12v.338c.775 0 .851.065.851.546v5.105c0 .491-.12.491-.85.491v.339l1.221-.033 1.233.033v-.339c-.73 0-.85 0-.85-.49V-.645c.054.175.512.764 1.341.764C4.55.12 5.684-.95 5.684-2.357m-.905 0c0 1.32-.764 2.237-1.571 2.237-.437 0-.851-.218-1.146-.666-.153-.229-.153-.24-.153-.458v-2.433c.317-.556.851-.872 1.408-.872.796 0 1.462.96 1.462 2.192"/><path id="t" d="M3.611 2.618c0-.032 0-.054-.185-.24-1.364-1.374-1.713-3.436-1.713-5.105 0-1.899.414-3.797 1.756-5.16.142-.132.142-.154.142-.186 0-.077-.043-.11-.109-.11-.109 0-1.09.742-1.735 2.128-.556 1.2-.687 2.411-.687 3.327 0 .851.12 2.172.72 3.404.655 1.342 1.593 2.052 1.702 2.052.066 0 .11-.033.11-.11"/><path id="A" d="M3.153-2.727c0-.851-.12-2.172-.72-3.404C1.778-7.473.84-8.182.73-8.182c-.065 0-.11.043-.11.109 0 .032 0 .054.208.25C1.9-6.742 2.52-5.007 2.52-2.726c0 1.865-.403 3.785-1.756 5.16-.142.13-.142.153-.142.185 0 .066.044.11.109.11.11 0 1.091-.742 1.735-2.128.556-1.2.687-2.411.687-3.327"/><path id="z" d="M3.622-1.353v-.622H3.35v.6c0 .808-.327 1.222-.73 1.222-.732 0-.732-.993-.732-1.178v-3.033h1.56v-.338h-1.56V-6.71h-.272c-.011.895-.339 2.062-1.408 2.106v.24h.928v3.011C1.135-.01 2.149.12 2.542.12c.775 0 1.08-.775 1.08-1.473"/><path id="x" d="M5.542-4.364v-.338c-.25.022-.567.033-.818.033l-.95-.033v.338c.405.01.525.262.525.47 0 .097-.022.141-.066.261L3.12-.851 1.898-3.895c-.065-.142-.065-.185-.065-.185 0-.284.425-.284.622-.284v-.338l-1.19.033c-.294 0-.73-.011-1.058-.033v.338c.688 0 .731.065.873.404L2.651-.087c.066.152.087.207.23.207s.185-.098.228-.207l1.43-3.546c.098-.251.283-.72 1.003-.731"/><path id="i" d="M5.358-1.985c0-1.22-.861-1.758-1.794-2.333.598-.322 1.471-.873 1.471-1.877 0-1.04-1.004-1.758-2.105-1.758-1.184 0-2.117.873-2.117 1.961 0 .407.12.813.455 1.22.131.155.143.167.98.753C1.088-3.48.49-2.679.49-1.806.49-.538 1.698.251 2.918.251c1.328 0 2.44-.98 2.44-2.236m-.813-4.198c0 .73-.526 1.315-1.22 1.698l-1.387-.909c-.156-.108-.634-.419-.634-1.005 0-.777.813-1.267 1.614-1.267.861 0 1.627.622 1.627 1.483m.263 4.58c0 .91-.921 1.531-1.878 1.531-1.016 0-1.89-.741-1.89-1.734 0-.933.682-1.686 1.46-2.045l1.447.945c.31.203.86.574.86 1.303"/><path id="h" d="M5.262-2.404c0-1.423-.956-2.607-2.212-2.607-.682 0-1.208.299-1.52.634v-2.476c.515.167.934.18 1.065.18 1.352 0 2.213-.993 2.213-1.16 0-.049-.024-.108-.096-.108 0 0-.048 0-.155.047a3.9 3.9 0 0 1-1.555.323c-.79 0-1.352-.239-1.579-.335-.083-.035-.12-.035-.12-.035-.095 0-.095.071-.095.263v3.552c0 .215 0 .287.143.287.06 0 .072-.012.192-.156.335-.49.897-.777 1.495-.777.634 0 .945.586 1.04.79.204.466.216 1.052.216 1.506s0 1.136-.335 1.675c-.263.43-.73.73-1.256.73-.79 0-1.567-.539-1.782-1.412.06.024.131.036.191.036.204 0 .527-.12.527-.526 0-.335-.228-.527-.527-.527-.215 0-.526.108-.526.574 0 1.017.813 2.177 2.14 2.177 1.352 0 2.536-1.136 2.536-2.655"/><path id="k" d="M5.526-1.997v-.347H4.318v-5.442c0-.227 0-.287-.168-.287-.096 0-.131 0-.227.144l-3.6 5.585v.347h3.145V-.91c0 .443-.024.562-.897.562h-.239V0c.275-.024 1.22-.024 1.555-.024s1.292 0 1.567.024v-.347h-.24c-.86 0-.896-.12-.896-.562v-1.088zm-1.998-.347H.622l2.906-4.51z"/><path id="d" d="M2.882 0v-.347c-.777 0-.825-.06-.825-.526v-4.401l-1.626.131v.347c.765 0 .873.072.873.658v3.253c0 .538-.132.538-.91.538V0c.336-.024.91-.024 1.256-.024.132 0 .826 0 1.232.024m-.67-7.224a.58.58 0 1 0-.586.574.576.576 0 0 0 .587-.574"/><path id="f" d="M5.49-2.56c0-1.542-1.172-2.774-2.56-2.774C1.495-5.334.36-4.066.36-2.56.359-1.03 1.555.12 2.919.12c1.41 0 2.57-1.172 2.57-2.68m-.91-.107c0 .419 0 1.16-.31 1.722a1.56 1.56 0 0 1-1.34.801c-.442 0-.98-.19-1.327-.777-.323-.538-.335-1.244-.335-1.746 0-.455 0-1.184.37-1.722a1.53 1.53 0 0 1 1.28-.706c.467 0 .969.215 1.292.682.37.55.37 1.303.37 1.746"/><path id="c" d="M6.076-2.583c0-1.52-1.125-2.691-2.428-2.691-1.053 0-1.615.753-1.65.801v-.801l-1.663.131v.347c.837 0 .909.084.909.61v5.621c0 .538-.132.538-.91.538v.347c.312-.024.958-.024 1.293-.024.346 0 .992 0 1.303.024v-.347c-.765 0-.909 0-.909-.538v-2.08c.216.298.706.765 1.471.765 1.376 0 2.584-1.16 2.584-2.703m-.91 0c0 1.423-.813 2.463-1.733 2.463a1.4 1.4 0 0 1-.957-.382c-.275-.275-.455-.515-.455-.85v-2.463c0-.227 0-.24.132-.43a1.72 1.72 0 0 1 1.4-.766c.896 0 1.614 1.088 1.614 2.428"/><path id="g" d="M3.899-1.483v-.682h-.263v.658c0 .861-.347 1.363-.813 1.363-.814 0-.814-1.112-.814-1.315v-3.349h1.687v-.347H2.009v-2.2h-.263c-.012 1.124-.442 2.272-1.53 2.308v.24h1.016v3.324C1.232-.155 2.117.12 2.75.12c.753 0 1.148-.742 1.148-1.603"/><path id="m" d="M5.358-2.045c0-1.1-.885-1.962-2.033-2.165 1.04-.299 1.71-1.172 1.71-2.105 0-.945-.98-1.638-2.14-1.638-1.197 0-2.082.73-2.082 1.602 0 .479.371.574.55.574.252 0 .539-.18.539-.538 0-.383-.287-.55-.55-.55-.072 0-.096 0-.132.012.454-.813 1.579-.813 1.638-.813.395 0 1.173.179 1.173 1.351 0 .227-.036.897-.383 1.411-.359.527-.766.563-1.089.574l-.358.036c-.204.012-.252.024-.252.132 0 .12.06.12.276.12h.55c1.016 0 1.47.837 1.47 1.985 0 1.567-.812 1.985-1.399 1.985-.574 0-1.554-.275-1.901-1.064.383.06.73-.156.73-.586a.565.565 0 0 0-.587-.586c-.287 0-.598.167-.598.622C.49-.622 1.555.25 2.882.25c1.424 0 2.476-1.088 2.476-2.296"/><path id="j" d="M5.262-2.01H5c-.036.204-.131.862-.25 1.053-.085.108-.766.108-1.125.108H1.41c.323-.275 1.053-1.04 1.364-1.328 1.818-1.674 2.487-2.296 2.487-3.48 0-1.375-1.088-2.296-2.475-2.296S.586-6.77.586-5.741c0 .61.526.61.562.61.251 0 .562-.18.562-.562 0-.335-.227-.562-.562-.562-.107 0-.131 0-.167.012.227-.813.873-1.364 1.65-1.364 1.017 0 1.639.85 1.639 1.95 0 1.017-.586 1.902-1.268 2.667L.586-.287V0h4.365z"/><path id="e" d="M5.956-4.808v-.347c-.347.024-.514.024-.885.024l-.98-.024v.347c.502.024.561.383.561.514 0 .108-.023.168-.083.311L3.349-.897 2.009-4.27c-.06-.167-.071-.167-.071-.227 0-.31.454-.31.67-.31v-.348c-.3.024-.922.024-1.245.024L.215-5.155v.347c.67 0 .79.048.933.419l1.71 4.281c.06.168.084.228.228.228.083 0 .155-.024.239-.228l1.555-3.91c.107-.264.31-.778 1.076-.79"/><path id="l" d="M2.2-.574a.584.584 0 0 0-.573-.586.584.584 0 0 0-.586.574c0 .347.287.586.574.586A.584.584 0 0 0 2.2-.574"/><path id="a" d="M7.355-1.77c0-.168-.155-.168-.334-.168-.288 0-.3.012-.383.311-.096.395-.311 1.292-.718 1.292-.143 0-.227-.096-.227-.37 0-.228.024-.324.072-.515l.801-3.23c.048-.179.048-.202.048-.25 0-.275-.203-.503-.538-.503a.8.8 0 0 0-.562.252c-.383-.395-.85-.455-1.16-.455-2.01 0-3.206 1.985-3.206 3.588C1.148-.395 2.153.096 3.062.096c.73 0 1.291-.383 1.578-.61.228.418.766.61 1.232.61.562 0 .861-.407 1.017-.646a4 4 0 0 0 .466-1.22m-2.858.574c-.514.682-1.017.861-1.387.861-.275 0-.682-.167-.682-.849 0-.646.418-2.117.55-2.452.407-1.16 1.064-1.34 1.375-1.34.419 0 .754.264.885.742L4.533-1.41c-.024.083-.024.12-.036.215"/><path id="n" d="M6.423-3.492c0-1.424-1.005-1.914-1.914-1.914-.538 0-.98.215-1.172.335l.705-2.823c.012-.06.036-.131.036-.191 0-.227-.215-.215-.382-.203l-1.471.071c-.132.012-.371.012-.371.36 0 .215.215.215.323.215.143 0 .359.012.502.023L1.447-2.655c-.107.43-.107.741-.107.861 0 1.447 1.004 1.89 1.865 1.89 2.045 0 3.218-2.01 3.218-3.588m-1.83 1.818c-.43 1.231-1.137 1.34-1.364 1.34-.741 0-.741-.778-.741-.946 0-.406.071-.717.263-1.447.095-.43.18-.73.263-1.1.084-.311.084-.335.203-.467.311-.382.79-.681 1.244-.681.275 0 .682.167.682.849 0 .646-.419 2.117-.55 2.452"/><path id="s" d="M7.475-1.77c0-.168-.155-.168-.335-.168-.287 0-.299.012-.383.311-.095.395-.31 1.292-.717 1.292-.144 0-.227-.096-.227-.37 0-.228.023-.324.071-.515L7.56-7.894c.012-.06.036-.131.036-.191 0-.227-.216-.215-.383-.203l-1.471.071c-.132.012-.371.012-.371.36 0 .215.215.215.323.215.143 0 .359.012.502.023l-.634 2.596c-.382-.335-.813-.383-1.088-.383-2.01 0-3.205 1.985-3.205 3.588C1.268-.395 2.272.096 3.18.096c.73 0 1.292-.383 1.58-.61.226.418.765.61 1.231.61.562 0 .861-.407 1.017-.646a4 4 0 0 0 .466-1.22m-2.858.574c-.515.682-1.017.861-1.388.861-.275 0-.682-.167-.682-.849 0-.646.42-2.117.55-2.452.407-1.16 1.065-1.34 1.376-1.34.419 0 .754.264.885.742L4.652-1.41c-.023.083-.023.12-.035.215"/><path id="o" d="M6.41-1.029c0-.095-.239-.382-.358-.382-.036 0-.084 0-.168.083-.885.993-2.093.993-2.26.993-.67 0-1.017-.395-1.017-1.1 0-.3.084-.766.192-1.172h.478c.718 0 3.086 0 3.086-1.65 0-.718-.67-1.149-1.555-1.149-2.07 0-3.492 1.567-3.492 3.409 0 1.291.8 2.093 2.296 2.093.37 0 1.076-.036 1.686-.263.646-.252 1.113-.718 1.113-.862m-.825-3.24c0 1.231-1.95 1.231-2.679 1.231.168-.598.287-.957.634-1.34a1.71 1.71 0 0 1 1.268-.597c.502 0 .777.323.777.705"/><path id="p" d="m5.394.765 1.292-5.178c.047-.192.047-.287.047-.287 0-.275-.203-.503-.538-.503-.323 0-.454.132-.562.24-.347-.323-.73-.443-1.16-.443-2.033 0-3.193 1.973-3.193 3.516C1.28-.622 2.14 0 3.217 0c.383 0 .754-.096 1.16-.323l-.203.85c-.287 1.112-.969 1.458-1.615 1.458-.322 0-.598-.036-.741-.071a.94.94 0 0 0 .335-.67c0-.3-.227-.55-.598-.55a.87.87 0 0 0-.85.885c0 .741.945.837 1.83.837 1.448 0 2.596-.61 2.859-1.65m-.742-2.164c-.107.418-.813.968-1.387.968-.634 0-.694-.586-.694-.849 0-.658.419-2.105.586-2.523.395-.993 1.005-1.172 1.316-1.172.359 0 .742.191.885.717z"/><path id="q" d="M4.664-1.77c0-.168-.155-.168-.334-.168-.228 0-.288 0-.335.156-.096.31-.419 1.447-1.1 1.447-.06 0-.168 0-.168-.215 0-.156.084-.455.096-.479l1.076-2.846c.072-.191.108-.287.108-.466 0-.67-.61-1.065-1.256-1.065C1.507-5.406.92-3.79.92-3.54c0 .167.155.167.335.167.227 0 .287 0 .335-.155.095-.311.418-1.447 1.1-1.447.06 0 .167 0 .167.215 0 .155-.083.454-.095.478L1.686-1.435c-.071.191-.107.287-.107.466 0 .67.61 1.065 1.256 1.065 1.243 0 1.83-1.615 1.83-1.866m.168-5.573a.716.716 0 0 0-.742-.718c-.55 0-1.064.514-1.064 1.04 0 .383.287.718.741.718.563 0 1.065-.526 1.065-1.04"/><path id="r" d="M8.18-1.77c0-.168-.155-.168-.334-.168-.227 0-.287 0-.335.156-.096.31-.419 1.447-1.1 1.447-.06 0-.168 0-.168-.215 0-.251.12-.562.275-.969.168-.442.706-1.854.706-2.535 0-.993-.706-1.352-1.65-1.352-.252 0-1.041 0-1.83.825-.24-.681-.957-.825-1.34-.825-.562 0-.861.407-1.017.646a4 4 0 0 0-.466 1.22c0 .167.155.167.335.167.287 0 .299-.012.383-.31.095-.395.31-1.292.717-1.292.144 0 .227.095.227.37 0 .228-.024.323-.071.515l-.85 3.408c-.047.18-.047.204-.047.263 0 .371.287.515.538.515.084 0 .598-.024.753-.646l.742-2.966c.084-.347.753-1.46 1.842-1.46.514 0 .514.455.514.682 0 .718-.55 2.189-.766 2.727-.107.3-.143.419-.143.598 0 .67.61 1.065 1.256 1.065 1.244 0 1.83-1.615 1.83-1.866"/><path id="b" d="M6.722-4.341c0-.634-.646-1.065-1.52-1.065-.454 0-1.016.132-1.53.646-.204-.37-.682-.646-1.268-.646-.562 0-.861.407-1.017.646a4 4 0 0 0-.466 1.22c0 .167.155.167.335.167.287 0 .299-.012.383-.31.095-.395.31-1.292.717-1.292.144 0 .227.095.227.37 0 .228-.024.323-.071.515l-.85 3.408c-.047.18-.047.204-.047.263 0 .371.287.515.538.515.084 0 .598-.024.753-.646l.814-3.253c.071-.275.61-1.172 1.447-1.172.131 0 .418.012.658.203a.91.91 0 0 0-.563.801c0 .3.228.55.598.55.455 0 .862-.382.862-.92"/></defs><g fill="none" stroke="#000" stroke-miterlimit="10" stroke-width=".3985"><path d="M47.893 28.888h181.42v22.677H47.893M47.893 28.888v22.677M70.57 28.888v22.677M93.248 28.888v22.677M115.925 28.888v22.677M138.603 28.888v22.677M206.635 28.888v22.677"/></g><g transform="translate(39.43 85.991)scale(1.0004)"><use xlink:href="#a" x="-24.116679" y="-43.127309"/><use xlink:href="#b" x="-17.04832" y="-43.127309"/><use xlink:href="#b" x="-11.0444" y="-43.127309"/></g><g transform="translate(70.325 66.238)scale(1.0004)"><use xlink:href="#c" x="-24.116679" y="-43.127309"/><use xlink:href="#d" x="-17.610438" y="-43.127309"/><use xlink:href="#e" x="-14.357318" y="-43.127309"/><use xlink:href="#f" x="-8.484957" y="-43.127309"/><use xlink:href="#g" x="-2.624557" y="-43.127309"/></g><use xlink:href="#h" x="-24.116679" y="-43.127309" transform="translate(80.41 87.18)scale(1.0004)"/><use xlink:href="#i" x="-24.116679" y="-43.127309" transform="translate(103.087 87.186)scale(1.0004)"/><use xlink:href="#j" x="-24.116679" y="-43.127309" transform="translate(125.765 87.312)scale(1.0004)"/><use xlink:href="#k" x="-24.116679" y="-43.127309" transform="translate(148.442 87.372)scale(1.0004)"/><g transform="translate(189.856 83.918)scale(1.0004)"><use xlink:href="#l" x="-24.116679" y="-43.127309"/><use xlink:href="#l" x="-18.890159" y="-43.127309"/><use xlink:href="#l" x="-13.651679" y="-43.127309"/></g><use xlink:href="#m" x="-24.116679" y="-43.127309" transform="translate(239.152 87.186)scale(1.0004)"/><path fill="none" stroke="#000" stroke-miterlimit="10" stroke-width=".3985" d="M59.232 51.565c0 28.347 68.032 1.418 68.032 26.095"/><path d="m127.264 80.762 1.682-4.468-1.682 1.466-1.682-1.466Z"/><g fill="none" stroke="#000" stroke-miterlimit="10" stroke-width=".3985"><path d="m127.264 80.762 1.682-4.468-1.682 1.466-1.682-1.466ZM47.893 96.92h181.42v22.678H47.893M47.893 96.92v22.678M70.57 96.92v22.678M93.248 96.92v22.678M115.925 96.92v22.678M138.603 96.92v22.678M206.635 96.92v22.678"/></g><path fill="none" stroke="#9f9f9f" stroke-miterlimit="10" stroke-width=".3985" d="M229.313 96.92h22.677v22.678h-22.677"/><g transform="translate(39.43 154.023)scale(1.0004)"><use xlink:href="#a" x="-24.116679" y="-43.127309"/><use xlink:href="#b" x="-17.04832" y="-43.127309"/><use xlink:href="#b" x="-11.0444" y="-43.127309"/></g><g transform="translate(68.287 134.473)scale(1.0004)"><use xlink:href="#n" x="-24.116679" y="-43.127309"/><use xlink:href="#o" x="-18.44764" y="-43.127309"/><use xlink:href="#p" x="-12.790558" y="-43.127309"/><use xlink:href="#q" x="-6.427839" y="-43.127309"/><use xlink:href="#r" x="-2.170078" y="-43.127309"/></g><use xlink:href="#q" x="-24.116679" y="-43.127309" transform="translate(148.956 135.507)scale(1.0004)"/><g transform="translate(253.897 135.633)scale(1.0004)"><use xlink:href="#o" x="-24.116679" y="-43.127309"/><use xlink:href="#r" x="-17.753959" y="-43.127309"/><use xlink:href="#s" x="-9.979958" y="-43.127309"/></g><use xlink:href="#k" x="-24.116679" y="-43.127309" transform="translate(80.41 155.404)scale(1.0004)"/><use xlink:href="#j" x="-24.116679" y="-43.127309" transform="translate(103.087 155.344)scale(1.0004)"/><use xlink:href="#m" x="-24.116679" y="-43.127309" transform="translate(125.765 155.219)scale(1.0004)"/><use xlink:href="#h" x="-24.116679" y="-43.127309" transform="translate(148.442 155.213)scale(1.0004)"/><g transform="translate(189.856 151.95)scale(1.0004)"><use xlink:href="#l" x="-24.116679" y="-43.127309"/><use xlink:href="#l" x="-18.890159" y="-43.127309"/><use xlink:href="#l" x="-13.651679" y="-43.127309"/></g><use xlink:href="#i" x="-24.116679" y="-43.127309" transform="translate(239.152 155.219)scale(1.0004)"/><path d="M47.615 122.572c.747 1.494 2.769 2.974 5.26 2.974.821 0 .821-1.246 0-1.246-2.491 0-3.956-.512-4.704-2.007-.183-.367-.74-.089-.556.279M82.188 127.275c-.748-1.495-2.77-2.975-5.26-2.975-.822 0-.822 1.246 0 1.246 2.49 0 3.956.513 4.703 2.007.183.368.74.09.557-.278"/><path fill="none" stroke="#000" stroke-miterlimit="10" stroke-width="1.24535" d="M52.874 124.923h24.054"/><path d="M82.188 127.553c.747-1.494 2.212-2.007 4.703-2.007.821 0 .821-1.246 0-1.246-2.491 0-4.513 1.48-5.26 2.975-.184.367.373.646.557.278M115.647 122.293c-.747 1.495-2.212 2.007-4.703 2.007-.822 0-.822 1.246 0 1.246 2.49 0 4.513-1.48 5.26-2.974.184-.368-.373-.646-.557-.279"/><path fill="none" stroke="#000" stroke-miterlimit="10" stroke-width="1.24535" d="M86.89 124.923h24.054"/><g transform="translate(83.889 184.001)scale(1.00008)"><use xlink:href="#t" x="-24.108989" y="-43.113557"/><use xlink:href="#u" x="-19.864639" y="-43.113557"/><use xlink:href="#v" x="-8.34869" y="-43.113557"/><use xlink:href="#w" x="-2.282729" y="-43.113557"/><use xlink:href="#x" x=".750251" y="-43.113557"/><use xlink:href="#y" x="6.216161" y="-43.113557"/><use xlink:href="#z" x="11.671161" y="-43.113557"/><use xlink:href="#A" x="15.915151" y="-43.113557"/></g><path d="M138.324 122.572c.747 1.494 2.77 2.974 5.26 2.974.822 0 .822-1.246 0-1.246-2.49 0-3.956-.512-4.703-2.007-.184-.367-.74-.089-.557.279M184.236 127.275c-.747-1.495-2.769-2.975-5.26-2.975-.822 0-.822 1.246 0 1.246 2.491 0 3.956.513 4.703 2.007.184.368.74.09.557-.278"/><path fill="none" stroke="#000" stroke-miterlimit="10" stroke-width="1.24535" d="M143.584 124.923h35.392"/><path d="M184.236 127.553c.747-1.494 2.212-2.007 4.703-2.007.822 0 .822-1.246 0-1.246-2.49 0-4.513 1.48-5.26 2.975-.184.367.373.646.557.278M229.034 122.293c-.747 1.495-2.212 2.007-4.703 2.007-.822 0-.822 1.246 0 1.246 2.49 0 4.513-1.48 5.26-2.974.184-.368-.373-.646-.557-.279"/><path fill="none" stroke="#000" stroke-miterlimit="10" stroke-width="1.24535" d="M188.939 124.923h35.392"/><g transform="translate(185.938 184.001)scale(1.00008)"><use xlink:href="#t" x="-24.108989" y="-43.113557"/><use xlink:href="#B" x="-19.864639" y="-43.113557"/><use xlink:href="#v" x="-8.34869" y="-43.113557"/><use xlink:href="#w" x="-2.282729" y="-43.113557"/><use xlink:href="#x" x=".750251" y="-43.113557"/><use xlink:href="#y" x="6.216161" y="-43.113557"/><use xlink:href="#z" x="11.671161" y="-43.113557"/><use xlink:href="#A" x="15.915151" y="-43.113557"/></g></svg>