<svg xmlns="http://www.w3.org/2000/svg" xmlns:xlink="http://www.w3.org/1999/xlink" width="249.55pt" height="252.34pt" viewBox="0 0 249.55 252.34"><defs><path id="ad" d="M3.36-8.001c.013-.048.037-.12.037-.18 0-.12-.12-.12-.144-.12-.012 0-.442.037-.658.06-.203.013-.382.036-.598.048-.287.024-.37.036-.37.252 0 .12.12.12.239.12.61 0 .61.107.61.226 0 .048 0 .072-.06.287L.706-.466c-.048.179-.048.203-.048.275 0 .263.203.31.323.31.335 0 .406-.263.502-.633l.562-2.237c.861.096 1.376.455 1.376 1.029 0 .072 0 .12-.036.299-.048.18-.048.323-.048.382C3.337-.347 3.79.12 4.4.12c.55 0 .837-.502.933-.67.251-.442.407-1.111.407-1.16 0-.06-.048-.107-.12-.107-.107 0-.12.048-.167.24C5.286-.958 5.035-.12 4.425-.12c-.239 0-.394-.12-.394-.574 0-.227.047-.49.095-.67.048-.215.048-.227.048-.37 0-.706-.634-1.1-1.734-1.244.43-.263.861-.73 1.028-.909.682-.765 1.149-1.148 1.699-1.148.275 0 .347.072.43.143-.442.048-.61.36-.61.598 0 .287.228.383.395.383.323 0 .61-.275.61-.658 0-.347-.275-.705-.813-.705-.658 0-1.196.466-2.045 1.423-.12.143-.563.598-1.005.765z"/><path id="K" d="M2.464-3.504c.024-.072.323-.67.765-1.053a1.74 1.74 0 0 1 1.184-.478c.479 0 .646.359.646.837 0 .682-.49 2.045-.73 2.691-.107.287-.167.443-.167.658 0 .538.37.969.945.969 1.112 0 1.53-1.759 1.53-1.83 0-.06-.047-.108-.119-.108-.107 0-.12.036-.18.24C6.065-.599 5.61-.12 5.144-.12c-.12 0-.311-.012-.311-.394 0-.3.131-.658.203-.826.24-.657.742-1.997.742-2.679 0-.717-.419-1.255-1.328-1.255-1.064 0-1.626.753-1.842 1.052-.036-.682-.526-1.052-1.052-1.052-.383 0-.646.227-.85.634C.49-4.21.324-3.492.324-3.444s.048.107.131.107c.096 0 .108-.012.18-.287.191-.73.407-1.411.885-1.411.275 0 .37.191.37.55 0 .263-.119.73-.203 1.1l-.335 1.292c-.047.227-.179.765-.239.98C1.03-.8.897-.238.897-.178c0 .167.132.299.311.299a.46.46 0 0 0 .407-.252c.024-.06.131-.478.191-.717l.263-1.077z"/><path id="Q" d="M2.404-4.808h1.1c.228 0 .347 0 .347-.215 0-.132-.072-.132-.31-.132H2.487L2.93-6.9c.048-.167.048-.191.048-.275 0-.191-.155-.299-.31-.299-.097 0-.372.036-.467.419l-.467 1.901H.61c-.24 0-.347 0-.347.227 0 .12.084.12.311.12H1.64L.849-1.65c-.096.418-.131.538-.131.693C.718-.395 1.112.12 1.782.12c1.208 0 1.854-1.747 1.854-1.83 0-.072-.048-.108-.12-.108-.024 0-.072 0-.095.048-.012.012-.024.024-.108.215C3.062-.957 2.512-.12 1.818-.12c-.359 0-.383-.299-.383-.562 0-.012 0-.239.036-.382z"/><path id="D" d="M5.669-1.064v-.67h-.263v.67c0 .681-.287.777-.455.777-.454 0-.454-.634-.454-.813v-2.093c0-.646 0-1.125-.526-1.591-.419-.383-.957-.55-1.483-.55-.981 0-1.735.646-1.735 1.423 0 .347.228.514.503.514.287 0 .49-.203.49-.49 0-.49-.43-.49-.61-.49.275-.503.85-.718 1.328-.718.55 0 1.256.455 1.256 1.53v.48C1.316-3.05.407-2.046.407-1.126c0 .946 1.1 1.245 1.83 1.245A1.63 1.63 0 0 0 3.79-.933c.048.562.419.993.933.993.251 0 .945-.168.945-1.124m-1.95-.622C3.72-.514 2.847-.12 2.333-.12c-.586 0-1.076-.43-1.076-1.004 0-1.579 2.033-1.722 2.464-1.746z"/><path id="aa" d="M4.856-1.423c0-.108-.084-.108-.12-.108-.107 0-.12.036-.155.18-.263.849-.91 1.207-1.555 1.207-.73 0-1.698-.633-1.698-2.451 0-1.986 1.016-2.476 1.614-2.476.455 0 1.112.18 1.388.646-.144 0-.587 0-.587.49 0 .287.204.49.49.49.276 0 .503-.167.503-.514 0-.801-.837-1.375-1.806-1.375C1.53-5.334.42-4.09.42-2.584.419-1.051 1.567.12 2.919.12c1.578 0 1.937-1.436 1.937-1.543"/><path id="N" d="M6.16 0v-.347c-.814 0-.91-.084-.91-.67V-8.3l-1.662.131v.347c.813 0 .909.084.909.67v2.643a1.86 1.86 0 0 0-1.495-.765C1.615-5.274.419-4.102.419-2.571c0 1.519 1.136 2.69 2.451 2.69.91 0 1.436-.597 1.603-.825V.12zM4.472-1.4c0 .216 0 .252-.167.515-.287.419-.778.765-1.376.765-.31 0-1.602-.12-1.602-2.44 0-.86.143-1.339.406-1.734.24-.37.718-.741 1.316-.741.741 0 1.16.538 1.28.73.143.203.143.227.143.442z"/><path id="J" d="M4.868-1.423c0-.072-.06-.12-.132-.12-.096 0-.12.06-.143.12C4.282-.42 3.48-.143 2.978-.143s-1.71-.335-1.71-2.404v-.228H4.58c.263 0 .287 0 .287-.227 0-1.208-.646-2.332-2.093-2.332C1.41-5.334.359-4.102.359-2.62.359-1.041 1.579.12 2.906.12c1.424 0 1.962-1.292 1.962-1.543m-.742-1.579H1.28c.095-1.878 1.148-2.093 1.483-2.093 1.28 0 1.351 1.686 1.363 2.093"/><path id="H" d="M2.882 0v-.347c-.777 0-.825-.06-.825-.526v-4.401l-1.626.131v.347c.765 0 .873.072.873.658v3.253c0 .538-.132.538-.91.538V0c.336-.024.91-.024 1.256-.024.132 0 .826 0 1.232.024m-.67-7.224a.58.58 0 1 0-.586.574.576.576 0 0 0 .587-.574"/><path id="ab" d="M5.98 0v-.347c-.323 0-.694 0-1.029-.49L3.35-3.17l-.084-.12c0-.036.754-.682.85-.777.824-.718 1.35-.73 1.602-.742v-.347c-.24.024-.55.024-.91.024-.31 0-.92 0-1.195-.024v.347c.203.012.347.12.347.311 0 .24-.251.455-.251.455l-1.71 1.506V-8.3L.334-8.17v.347c.813 0 .909.084.909.67v6.267c0 .538-.132.538-.91.538V0c.336-.024.91-.024 1.269-.024s.933 0 1.267.024v-.347c-.765 0-.909 0-.909-.538v-1.268l.766-.67 1.148 1.65c.18.252.263.384.263.551 0 .215-.167.275-.418.275V0c.299-.024.885-.024 1.208-.024.514 0 .538 0 1.052.024"/><path id="L" d="M2.966 0v-.347c-.765 0-.909 0-.909-.538V-8.3L.395-8.17v.347c.813 0 .909.084.909.67v6.267c0 .538-.132.538-.91.538V0c.336-.024.922-.024 1.28-.024s.957 0 1.292.024"/><path id="P" d="M9.484 0v-.347c-.598 0-.897 0-.909-.359v-2.2c0-1.113 0-1.447-.275-1.83-.347-.467-.909-.538-1.315-.538-.993 0-1.495.717-1.687 1.184-.167-.921-.813-1.184-1.566-1.184-1.16 0-1.615.992-1.71 1.232h-.013v-1.232l-1.626.131v.347c.813 0 .909.084.909.67v3.241c0 .538-.132.538-.91.538V0c.312-.024.958-.024 1.292-.024.347 0 .993 0 1.304.024v-.347c-.765 0-.909 0-.909-.538V-3.11c0-1.255.825-1.925 1.567-1.925s.909.61.909 1.34v2.81c0 .538-.132.538-.91.538V0c.312-.024.958-.024 1.293-.024.346 0 .992 0 1.303.024v-.347c-.765 0-.909 0-.909-.538V-3.11c0-1.255.825-1.925 1.567-1.925s.909.61.909 1.34v2.81c0 .538-.132.538-.909.538V0c.31-.024.957-.024 1.292-.024.346 0 .992 0 1.303.024"/><path id="W" d="M6.231 0v-.347c-.598 0-.897 0-.909-.359v-2.2c0-1.113 0-1.447-.275-1.83-.347-.467-.909-.538-1.315-.538-1.16 0-1.615.992-1.71 1.232h-.013v-1.232l-1.626.131v.347c.813 0 .909.084.909.67v3.241c0 .538-.132.538-.91.538V0c.312-.024.958-.024 1.292-.024.347 0 .993 0 1.304.024v-.347c-.765 0-.909 0-.909-.538V-3.11c0-1.255.825-1.925 1.567-1.925s.909.61.909 1.34v2.81c0 .538-.132.538-.91.538V0c.312-.024.958-.024 1.293-.024.346 0 .992 0 1.303.024"/><path id="X" d="M5.49-2.56c0-1.542-1.172-2.774-2.56-2.774C1.495-5.334.36-4.066.36-2.56.359-1.03 1.555.12 2.919.12c1.41 0 2.57-1.172 2.57-2.68m-.91-.107c0 .419 0 1.16-.31 1.722a1.56 1.56 0 0 1-1.34.801c-.442 0-.98-.19-1.327-.777-.323-.538-.335-1.244-.335-1.746 0-.455 0-1.184.37-1.722a1.53 1.53 0 0 1 1.28-.706c.467 0 .969.215 1.292.682.37.55.37 1.303.37 1.746"/><path id="M" d="M6.076-2.583c0-1.52-1.125-2.691-2.428-2.691-1.053 0-1.615.753-1.65.801v-.801l-1.663.131v.347c.837 0 .909.084.909.61v5.621c0 .538-.132.538-.91.538v.347c.312-.024.958-.024 1.293-.024.346 0 .992 0 1.303.024v-.347c-.765 0-.909 0-.909-.538v-2.08c.216.298.706.765 1.471.765 1.376 0 2.584-1.16 2.584-2.703m-.91 0c0 1.423-.813 2.463-1.733 2.463a1.4 1.4 0 0 1-.957-.382c-.275-.275-.455-.515-.455-.85v-2.463c0-.227 0-.24.132-.43a1.72 1.72 0 0 1 1.4-.766c.896 0 1.614 1.088 1.614 2.428"/><path id="ac" d="M3.887 2.906c0-.036 0-.06-.203-.263C2.488 1.435 1.818-.538 1.818-2.978c0-2.32.562-4.318 1.95-5.729.119-.108.119-.131.119-.167 0-.072-.06-.096-.108-.096-.155 0-1.136.861-1.722 2.033-.61 1.208-.885 2.488-.885 3.959 0 1.064.168 2.488.79 3.767.705 1.436 1.686 2.213 1.817 2.213.048 0 .108-.024.108-.096"/><path id="af" d="M3.373-2.978c0-.909-.12-2.392-.79-3.78C1.878-8.192.897-8.97.765-8.97c-.047 0-.107.024-.107.096 0 .036 0 .06.203.263C2.057-7.403 2.727-5.43 2.727-2.99c0 2.32-.562 4.318-1.95 5.729-.12.107-.12.131-.12.167 0 .072.06.096.108.096.156 0 1.137-.861 1.723-2.033.61-1.22.885-2.512.885-3.947"/><path id="Y" d="M8.516.12c0-.12 0-.228-.12-.228-.096 0-.096.084-.108.168-.083.86-.67 1.148-1.088 1.148-.61 0-.885-.443-1.172-1.28C7.32-.634 8.456-2.129 8.456-4.054c0-2.476-1.818-4.366-3.9-4.366-2.128 0-3.91 1.914-3.91 4.366C.646-1.65 2.416.25 4.556.25c.395 0 .802-.072 1.125-.18.191 1.22.347 2.25 1.423 2.25 1.4 0 1.412-2.094 1.412-2.201M7.367-4.066c0 1.71-.526 2.942-1.483 3.612-.203-.598-.538-1.304-1.315-1.304-.598 0-.945.514-.945 1.005 0 .322.167.574.191.61-.885-.311-2.08-1.34-2.08-3.923 0-2.978 1.614-4.09 2.81-4.09 1.256 0 2.822 1.147 2.822 4.09M5.621-.287a2.3 2.3 0 0 1-1.064.275c-.515 0-.694-.466-.694-.753 0-.347.251-.754.706-.754.681 0 .92.562 1.052 1.232"/><path id="V" d="M8.575-1.04c0-.072 0-.18-.131-.18-.12 0-.12.072-.132.191-.06.718-.406 1.041-.79 1.041-.55 0-.669-.562-.765-1.196l-.12-.897c-.083-.598-.13-.98-.49-1.352-.131-.131-.442-.454-1.1-.633 1.184-.275 2.105-1.029 2.105-1.95 0-1.16-1.351-2.153-3.074-2.153H.502v.347h.24c.86 0 .897.12.897.562v6.351c0 .443-.036.562-.897.562h-.24V0c.275-.024 1.256-.024 1.603-.024s1.34 0 1.615.024v-.347h-.24c-.86 0-.897-.12-.897-.562v-3.062h1.388c.466 0 .909.132 1.232.467.406.454.406.705.406 1.53 0 .945 0 1.256.526 1.77.18.18.682.455 1.352.455.933 0 1.088-1.04 1.088-1.292M6.04-6.017c0 1.04-.562 1.806-2.117 1.806h-1.34v-3.133c0-.276 0-.419.252-.467.107-.012.466-.012.705-.012.969 0 2.5 0 2.5 1.806"/><path id="E" d="M4.222-4.58c0-.36-.323-.694-.837-.694-1.017 0-1.364 1.1-1.436 1.327h-.011v-1.327l-1.603.131v.347c.813 0 .909.084.909.67v3.241c0 .538-.132.538-.91.538V0c.336-.024.994-.024 1.352-.024.323 0 1.172 0 1.448.024v-.347h-.24c-.873 0-.897-.131-.897-.562v-1.878c0-1.16.479-2.248 1.4-2.248.095 0 .12 0 .167.012-.096.048-.287.12-.287.442a.46.46 0 0 0 .466.479c.24 0 .479-.156.479-.479"/><path id="G" d="M4.21-1.519c0-.646-.395-1.028-.502-1.136-.431-.37-.754-.443-1.543-.586-.359-.072-1.232-.24-1.232-.957 0-.37.251-.92 1.327-.92 1.304 0 1.376 1.111 1.4 1.482.012.096.095.096.131.096.132 0 .132-.06.132-.275V-5.06c0-.215 0-.275-.12-.275-.095 0-.323.263-.406.37-.371-.298-.742-.37-1.125-.37-1.447 0-1.877.79-1.877 1.447 0 .132 0 .55.454.969.383.335.79.418 1.34.526.657.132.813.167 1.112.407.215.179.37.442.37.777 0 .514-.298 1.088-1.35 1.088C1.53-.12.956-.574.693-1.77c-.048-.215-.06-.24-.06-.24-.024-.047-.072-.047-.108-.047-.131 0-.131.06-.131.275v1.627c0 .215 0 .275.12.275.06 0 .071-.012.274-.264.06-.083.06-.107.24-.299.454.563 1.1.563 1.303.563C3.588.12 4.21-.574 4.21-1.52"/><path id="O" d="M3.899-1.483v-.682h-.263v.658c0 .861-.347 1.363-.813 1.363-.814 0-.814-1.112-.814-1.315v-3.349h1.687v-.347H2.009v-2.2h-.263c-.012 1.124-.442 2.272-1.53 2.308v.24h1.016v3.324C1.232-.155 2.117.12 2.75.12c.753 0 1.148-.742 1.148-1.603"/><path id="Z" d="M6.231 0v-.347c-.813 0-.909-.084-.909-.67v-4.257l-1.686.131v.347c.813 0 .909.084.909.67v2.14C4.545-.968 4.007-.12 3.11-.12c-.981 0-1.04-.562-1.04-1.196v-3.958l-1.687.131v.347c.909 0 .909.036.909 1.1v1.794c0 .742 0 1.172.358 1.567.288.311.778.455 1.388.455.203 0 .586 0 .993-.347.346-.275.538-.73.538-.73V.12z"/><path id="F" d="M5.956-4.808v-.347c-.347.024-.514.024-.897.024l-.969-.024v.347c.443.024.55.3.55.514 0 .108-.023.168-.071.287L3.349-.993 2.02-4.246c-.072-.167-.072-.251-.072-.251 0-.31.42-.31.658-.31v-.348c-.31.024-.897.024-1.232.024l-1.16-.024v.347c.694 0 .79.06.945.43L2.942 0c-.526 1.268-.526 1.292-.574 1.387-.203.36-.526.814-1.064.814-.371 0-.598-.216-.598-.216s.418-.047.418-.466a.433.433 0 0 0-.442-.443c-.204 0-.455.12-.455.467 0 .454.443.897 1.077.897.67 0 1.16-.586 1.47-1.34l2.07-5.095c.323-.801.885-.813 1.112-.813"/><path id="I" d="M4.7-2.2h-.263C4.33-.838 4.127-.264 2.703-.264H1.256l3.3-4.557c.108-.131.108-.155.108-.203 0-.132-.083-.132-.287-.132H.622L.49-3.253h.263c.072-1.22.3-1.663 1.603-1.663h1.387l-3.42 4.7C.323 0 .347 0 .61 0h3.899z"/><path id="A" d="M6.713-3.227c.14-.06.2-.13.2-.22 0-.099-.04-.159-.2-.228l-5.488-2.59c-.14-.07-.18-.07-.2-.07-.119 0-.198.09-.198.2 0 .12.08.169.189.219l5.229 2.46-5.21 2.46c-.198.09-.208.17-.208.23 0 .109.09.198.199.198.03 0 .05 0 .18-.07zm-.15 4.592c.17 0 .35 0 .35-.2s-.21-.199-.36-.199H1.186c-.15 0-.358 0-.358.2s.179.199.348.199z"/><path id="u" d="M1.582-.397c0-.251-.209-.405-.397-.405a.403.403 0 0 0-.404.398c0 .25.209.404.397.404.23 0 .404-.188.404-.397"/><path id="x" d="M3.297 2.39c0-.03 0-.05-.17-.219C1.882.916 1.564-.966 1.564-2.49c0-1.733.378-3.466 1.603-4.711.13-.12.13-.14.13-.17 0-.07-.04-.099-.1-.099-.1 0-.996.677-1.583 1.942C1.106-4.432.986-3.327.986-2.49c0 .777.11 1.982.657 3.108.598 1.225 1.455 1.872 1.554 1.872.06 0 .1-.03.1-.1"/><path id="C" d="M2.878-2.49c0-.777-.11-1.982-.657-3.108C1.623-6.823.767-7.47.667-7.47c-.06 0-.1.04-.1.1 0 .03 0 .05.19.229.976.986 1.544 2.57 1.544 4.651C2.3-.787 1.932.966.697 2.221c-.13.12-.13.14-.13.17 0 .06.04.099.1.099.1 0 .996-.677 1.584-1.942.508-1.096.627-2.201.627-3.038"/><path id="q" d="M4.582-3.187c0-.797-.05-1.594-.399-2.33-.458-.957-1.275-1.116-1.693-1.116-.598 0-1.325.259-1.733 1.185-.319.687-.369 1.464-.369 2.26 0 .748.04 1.644.449 2.401A1.83 1.83 0 0 0 2.48.22C3.018.22 3.775.01 4.213-.936c.319-.687.369-1.464.369-2.251M2.48 0c-.388 0-.976-.249-1.155-1.205-.11-.598-.11-1.514-.11-2.102 0-.637 0-1.295.08-1.832.189-1.186.936-1.275 1.185-1.275.329 0 .986.179 1.175 1.165.1.558.1 1.315.1 1.942 0 .747 0 1.425-.11 2.062C3.496-.299 2.928 0 2.48 0"/><path id="r" d="M4.472-2.002c0-1.185-.817-2.181-1.892-2.181-.478 0-.907.16-1.265.508v-1.942c.199.06.528.129.846.129 1.225 0 1.923-.906 1.923-1.036 0-.06-.03-.11-.1-.11-.01 0-.03 0-.08.03-.199.09-.687.29-1.354.29-.399 0-.857-.07-1.325-.28-.08-.03-.1-.03-.12-.03-.099 0-.099.08-.099.24v2.948c0 .18 0 .259.14.259.07 0 .089-.03.129-.09.11-.16.478-.697 1.285-.697.518 0 .767.458.846.637.16.369.18.757.18 1.255 0 .349 0 .947-.24 1.365-.238.388-.607.647-1.065.647C1.554-.06.986-.588.817-1.175c.03.01.06.02.169.02.329 0 .498-.25.498-.488s-.17-.488-.498-.488c-.14 0-.488.07-.488.527C.498-.747 1.185.22 2.301.22c1.155 0 2.171-.956 2.171-2.221"/><path id="o" d="M1.315-3.267v-.239c0-2.52 1.235-2.878 1.743-2.878.239 0 .657.06.876.398-.15 0-.548 0-.548.448 0 .309.24.458.459.458.159 0 .458-.09.458-.478 0-.597-.439-1.075-1.265-1.075-1.275 0-2.62 1.284-2.62 3.486C.418-.488 1.574.219 2.5.219c1.106 0 2.052-.936 2.052-2.25 0-1.266-.887-2.222-1.992-2.222-.678 0-1.046.508-1.245.986M2.5-.06c-.628 0-.926-.597-.986-.747-.18-.468-.18-1.265-.18-1.444 0-.777.32-1.773 1.216-1.773.16 0 .617 0 .926.618.18.368.18.876.18 1.364 0 .478 0 .976-.17 1.335-.299.597-.757.647-.986.647"/><path id="B" d="M3.655-3.167v.318c0 2.331-1.036 2.79-1.613 2.79-.17 0-.707-.02-.976-.36.438 0 .518-.288.518-.457 0-.31-.24-.459-.459-.459-.159 0-.458.09-.458.478C.667-.189 1.205.22 2.052.22c1.285 0 2.5-1.354 2.5-3.496 0-2.68-1.146-3.356-2.032-3.356-.548 0-1.036.179-1.464.627-.409.448-.638.867-.638 1.614 0 1.245.877 2.22 1.992 2.22.608 0 1.016-.418 1.245-.995M2.42-2.4c-.16 0-.617 0-.926-.628-.18-.368-.18-.866-.18-1.354 0-.538 0-1.006.21-1.375.269-.498.647-.627.996-.627.458 0 .787.338.956.786.12.32.16.947.16 1.405 0 .827-.34 1.793-1.216 1.793"/><path id="n" d="M6.843-3.257c.149 0 .338 0 .338-.2s-.19-.198-.329-.198H.886c-.139 0-.328 0-.328.199s.189.2.338.2zm.01 1.932c.139 0 .328 0 .328-.199s-.19-.2-.338-.2H.896c-.149 0-.338 0-.338.2s.189.2.328.2z"/><path id="p" d="M1.912-.528c0-.289-.239-.528-.528-.528s-.527.24-.527.528.239.528.527.528.528-.239.528-.528"/><path id="y" d="M3.735-6.115c.06-.24.09-.34.279-.369.09-.01.408-.01.607-.01.708 0 1.813 0 1.813.986 0 .339-.16 1.026-.548 1.414-.259.26-.786.578-1.683.578H3.088zm1.434 2.729c1.006-.22 2.191-.917 2.191-1.923 0-.856-.896-1.494-2.2-1.494H2.32c-.199 0-.288 0-.288.2 0 .11.09.11.279.11.02 0 .209 0 .378.019.18.02.27.03.27.16 0 .04-.01.07-.04.189L1.583-.777c-.1.389-.12.468-.907.468-.179 0-.269 0-.269.2 0 .109.12.109.14.109.279 0 .976-.03 1.255-.03S2.789 0 3.068 0c.08 0 .199 0 .199-.2 0-.109-.09-.109-.279-.109-.369 0-.647 0-.647-.179 0-.06.02-.11.03-.17l.657-2.639h1.185c.906 0 1.086.558 1.086.907 0 .149-.08.458-.14.687-.07.279-.16.647-.16.846C5 .22 6.196.22 6.326.22 7.17.22 7.52-.787 7.52-.926c0-.12-.11-.12-.12-.12-.09 0-.11.07-.13.14C7.023-.17 6.595 0 6.365 0c-.328 0-.398-.22-.398-.608 0-.308.06-.816.1-1.135.02-.14.04-.329.04-.468 0-.767-.668-1.076-.937-1.175"/><path id="s" d="M.876-.588c-.03.15-.09.379-.09.429 0 .179.14.269.29.269.12 0 .298-.08.368-.28.01-.02.13-.487.19-.736l.219-.897c.06-.219.12-.438.169-.667.04-.17.12-.458.13-.498.149-.309.677-1.215 1.623-1.215.448 0 .538.368.538.697 0 .618-.488 1.892-.648 2.32-.09.23-.1.35-.1.459 0 .468.35.817.817.817.937 0 1.305-1.455 1.305-1.534 0-.1-.09-.1-.12-.1-.099 0-.099.03-.149.18C5.22-.668 4.89-.11 4.402-.11c-.169 0-.239-.1-.239-.328 0-.25.09-.488.18-.707.189-.528.607-1.624.607-2.192 0-.667-.428-1.065-1.145-1.065-.897 0-1.385.637-1.554.866-.05-.558-.458-.866-.916-.866s-.648.388-.747.567a5 5 0 0 0-.3.967c0 .1.1.1.12.1.1 0 .11-.01.17-.23.169-.707.368-1.185.727-1.185.199 0 .309.13.309.458 0 .21-.03.319-.16.837z"/><path id="m" d="M2.052-3.984h.936c.2 0 .299 0 .299-.2 0-.109-.1-.109-.28-.109h-.876c.359-1.414.409-1.613.409-1.673 0-.17-.12-.269-.289-.269-.03 0-.309.01-.398.359l-.389 1.583H.528c-.2 0-.299 0-.299.19 0 .119.08.119.279.119h.876C.667-1.155.627-.986.627-.807c0 .538.379.917.917.917 1.016 0 1.583-1.455 1.583-1.534 0-.1-.08-.1-.12-.1-.089 0-.099.03-.148.14C2.43-.35 1.902-.11 1.564-.11c-.21 0-.309-.129-.309-.458 0-.239.02-.308.06-.478z"/><path id="d" d="M2.503-5.077c0-.215-.016-.223-.232-.223-.326.319-.749.51-1.506.51v.263c.215 0 .646 0 1.108-.215v4.088c0 .295-.024.391-.781.391h-.28V0c.328-.024 1.013-.024 1.372-.024s1.052 0 1.379.024v-.263h-.28c-.757 0-.78-.096-.78-.39z"/><path id="i" d="M2.248-1.626c.127-.12.462-.382.59-.494.493-.454.964-.893.964-1.618 0-.948-.797-1.562-1.794-1.562-.956 0-1.586.725-1.586 1.435 0 .39.311.446.423.446a.41.41 0 0 0 .414-.423c0-.414-.398-.414-.494-.414a1.23 1.23 0 0 1 1.156-.781c.741 0 1.124.63 1.124 1.3 0 .828-.582 1.434-1.523 2.398L.518-.303C.422-.215.422-.199.422 0h3.149l.23-1.427h-.246c-.024.16-.088.558-.184.71-.048.063-.653.063-.78.063H1.17z"/><path id="e" d="M2.016-2.662c.63 0 1.029.462 1.029 1.3 0 .995-.566 1.29-.989 1.29-.438 0-1.036-.16-1.315-.582.287 0 .486-.183.486-.446a.423.423 0 0 0-.438-.438c-.215 0-.438.135-.438.454 0 .757.813 1.251 1.721 1.251 1.06 0 1.801-.733 1.801-1.53 0-.661-.526-1.267-1.339-1.442.63-.224 1.1-.766 1.1-1.403S2.917-5.3 2.088-5.3C1.235-5.3.59-4.838.59-4.232c0 .295.199.422.406.422a.39.39 0 0 0 .407-.406c0-.295-.255-.407-.43-.415.334-.438.948-.462 1.091-.462.207 0 .813.064.813.885 0 .558-.231.892-.343 1.02-.239.247-.422.263-.908.295-.152.008-.215.016-.215.12 0 .111.071.111.207.111z"/><path id="j" d="M3.14-5.157c0-.159 0-.223-.167-.223-.104 0-.112.008-.191.12L.239-1.57v.263h2.248v.661c0 .295-.024.383-.638.383h-.183V0c.677-.024.693-.024 1.147-.024s.47 0 1.148.024v-.263h-.183c-.614 0-.638-.088-.638-.383v-.661h.845v-.263H3.14zm-.598.646v2.94H.518z"/><path id="f" d="M1.116-4.48c.103.033.422.112.757.112.996 0 1.602-.7 1.602-.82 0-.088-.056-.112-.096-.112-.016 0-.032 0-.103.04-.311.12-.678.215-1.108.215-.47 0-.86-.12-1.108-.215C.98-5.3.964-5.3.956-5.3c-.103 0-.103.088-.103.231v2.335c0 .144 0 .24.127.24.064 0 .088-.032.128-.096.095-.12.398-.526 1.076-.526.446 0 .661.366.733.518.136.287.151.653.151.964 0 .295-.008.725-.23 1.076a1.07 1.07 0 0 1-.893.486A1.295 1.295 0 0 1 .733-.917c.024.008.072.008.08.008.223 0 .398-.143.398-.39 0-.295-.23-.399-.39-.399-.144 0-.399.08-.399.423 0 .717.622 1.442 1.539 1.442.996 0 1.84-.773 1.84-1.761 0-.925-.669-1.745-1.61-1.745-.398 0-.772.127-1.075.398z"/><path id="k" d="M1.1-2.638c0-.662.056-1.243.343-1.73.239-.398.645-.725 1.147-.725.16 0 .526.024.71.303-.36.016-.39.287-.39.375-.001.239.182.374.374.374.143 0 .374-.087.374-.39 0-.479-.358-.869-1.076-.869C1.474-5.3.351-4.248.351-2.526.35-.366 1.355.167 2.128.167c.383 0 .797-.103 1.156-.446.318-.31.59-.646.59-1.339 0-1.044-.79-1.777-1.674-1.777-.574 0-.917.366-1.1.757M2.128-.072c-.422 0-.685-.295-.805-.518-.183-.358-.2-.9-.2-1.203 0-.79.431-1.38 1.045-1.38.398 0 .637.208.789.487.167.295.167.654.167 1.06s0 .757-.16 1.044c-.206.367-.485.51-.836.51"/><path id="b" d="M4.033-4.854c.072-.087.072-.103.072-.279H2.08c-.2 0-.446-.008-.645-.024-.415-.031-.423-.103-.447-.23H.741l-.27 1.68h.246c.016-.119.104-.669.215-.732.088-.04.686-.04.805-.04h1.69l-.82 1.1c-.91 1.211-1.1 2.47-1.1 3.1 0 .08 0 .446.374.446s.375-.358.375-.454v-.382c0-1.148.19-2.089.581-2.607z"/><path id="c" d="M3.124-2.351c0 1.945-.924 2.28-1.387 2.28-.167 0-.581-.025-.797-.272.351-.032.375-.295.375-.374a.364.364 0 0 0-.375-.375c-.143 0-.374.088-.374.39 0 .543.446.87 1.18.87 1.091 0 2.127-1.085 2.127-2.79 0-2.072-.916-2.678-1.737-2.678-.94 0-1.785.733-1.785 1.777 0 1.028.773 1.778 1.673 1.778.566 0 .909-.36 1.1-.766zm-1.068.382c-.366 0-.597-.167-.773-.462C1.1-2.726 1.1-3.108 1.1-3.515c0-.47 0-.805.215-1.132.2-.286.454-.446.829-.446.534 0 .765.526.789.566.167.39.175 1.012.175 1.172 0 .63-.342 1.386-1.052 1.386"/><path id="v" d="M3.597-2.223c0-.767-.091-1.318-.412-1.806-.216-.32-.648-.6-1.206-.6C.362-4.628.362-2.724.362-2.222S.362.139 1.98.139s1.618-1.86 1.618-2.362M1.979-.056c-.32 0-.745-.188-.885-.76-.097-.41-.097-.982-.097-1.498 0-.509 0-1.039.104-1.422a.89.89 0 0 1 .878-.697c.377 0 .74.23.865.634.111.377.118.879.118 1.485 0 .516 0 1.032-.09 1.47-.14.635-.614.788-.893.788"/><path id="t" d="M2.335-4.433c0-.188-.014-.195-.21-.195-.445.439-1.08.446-1.365.446v.25c.167 0 .627 0 1.01-.194v3.554c0 .23 0 .321-.697.321H.81V0c.125-.007.982-.028 1.24-.028.216 0 1.094.021 1.248.028v-.25h-.265c-.697 0-.697-.092-.697-.322z"/><path id="z" d="M3.52-1.269h-.237c-.021.154-.09.565-.181.635-.056.042-.593.042-.69.042H1.129a24 24 0 0 1 1.394-1.171c.516-.412.997-.844.997-1.506 0-.843-.739-1.36-1.631-1.36-.864 0-1.45.607-1.45 1.249 0 .355.3.39.37.39.167 0 .369-.119.369-.37 0-.125-.049-.369-.411-.369.216-.495.69-.648 1.017-.648.697 0 1.06.543 1.06 1.108 0 .606-.432 1.087-.655 1.338L.509-.27C.439-.21.439-.196.439 0h2.872z"/><path id="w" d="M1.903-2.328c.543 0 .934.376.934 1.122 0 .864-.502 1.122-.906 1.122-.28 0-.892-.076-1.185-.488.327-.013.404-.243.404-.39a.374.374 0 0 0-.383-.383c-.195 0-.39.118-.39.404C.376-.286 1.1.14 1.944.14c.968 0 1.638-.648 1.638-1.345 0-.543-.447-1.087-1.213-1.247.732-.265.997-.788.997-1.213 0-.55-.635-.962-1.408-.962s-1.367.376-1.367.934c0 .237.154.37.363.37.216 0 .355-.161.355-.356 0-.202-.139-.349-.355-.363.244-.306.725-.383.983-.383.313 0 .752.153.752.76 0 .293-.097.613-.278.83-.23.264-.426.278-.774.299-.174.014-.188.014-.223.02-.014 0-.07.015-.07.091 0 .098.063.098.181.098z"/><path id="h" d="M5.358-3.827c0-.993-.06-1.962-.49-2.87-.49-.993-1.352-1.256-1.938-1.256-.693 0-1.543.346-1.985 1.34C.61-5.86.49-5.12.49-3.828c0 1.16.084 2.033.515 2.882A2.13 2.13 0 0 0 2.918.251c1.04 0 1.639-.622 1.986-1.315.43-.897.454-2.07.454-2.763M2.918.012c-.382 0-1.16-.215-1.387-1.519-.132-.718-.132-1.627-.132-2.464 0-.98 0-1.865.192-2.571.203-.801.813-1.172 1.327-1.172.455 0 1.148.275 1.376 1.303.155.682.155 1.627.155 2.44 0 .802 0 1.71-.131 2.44C4.09-.215 3.337.012 2.918.012"/><path id="g" d="M3.444-7.666c0-.275 0-.287-.239-.287-.287.323-.885.765-2.117.765v.347c.275 0 .873 0 1.531-.311v6.231c0 .43-.036.574-1.088.574h-.37V0c.322-.024 1.482-.024 1.877-.024s1.543 0 1.866.024v-.347h-.371C3.48-.347 3.444-.49 3.444-.92z"/><path id="a" d="M5.262-2.01H5c-.036.204-.131.862-.25 1.053-.085.108-.766.108-1.125.108H1.41c.323-.275 1.053-1.04 1.364-1.328 1.818-1.674 2.487-2.296 2.487-3.48 0-1.375-1.088-2.296-2.475-2.296S.586-6.77.586-5.741c0 .61.526.61.562.61.251 0 .562-.18.562-.562 0-.335-.227-.562-.562-.562-.107 0-.131 0-.167.012.227-.813.873-1.364 1.65-1.364 1.017 0 1.639.85 1.639 1.95 0 1.017-.586 1.902-1.268 2.667L.586-.287V0h4.365z"/><path id="ae" d="M8.073-3.875c.167 0 .383 0 .383-.215 0-.228-.204-.228-.383-.228H1.029c-.168 0-.383 0-.383.216 0 .227.203.227.383.227zm0 2.225c.167 0 .383 0 .383-.216 0-.227-.204-.227-.383-.227H1.029c-.168 0-.383 0-.383.215 0 .228.203.228.383.228z"/><path id="R" d="M2.99 2.99v-.443H1.83V-8.527h1.16v-.443H1.387V2.99z"/><path id="U" d="M1.854-8.97H.25v.443h1.16V2.547H.251v.443h1.603z"/><path id="S" d="M5.322-2.906c0-1.113 0-1.447-.275-1.83-.347-.467-.909-.538-1.315-.538-1.16 0-1.615.992-1.71 1.232h-.013v-1.232l-1.626.131v.347c.813 0 .909.084.909.67v3.241c0 .538-.132.538-.91.538V0c.312-.024.958-.024 1.292-.024.347 0 .993 0 1.304.024v-.347c-.765 0-.909 0-.909-.538V-3.11c0-1.255.825-1.925 1.567-1.925s.909.61.909 1.34v2.81c0 .538-.132.538-.91.538V0c.312-.024.958-.024 1.293-.024.346 0 .992 0 1.303.024v-.347c-.598 0-.897 0-.909-.359z"/><path id="T" d="M3.923-5.06c0-.214 0-.274-.12-.274-.095 0-.323.263-.406.37-.371-.298-.742-.37-1.125-.37-1.447 0-1.877.79-1.877 1.447 0 .132 0 .55.454.969.383.335.79.418 1.34.526.657.132.813.167 1.112.407.215.179.37.442.37.777 0 .514-.298 1.088-1.35 1.088C1.53-.12.956-.574.693-1.77c-.048-.215-.048-.227-.06-.24-.024-.047-.072-.047-.108-.047-.131 0-.131.06-.131.275v1.627c0 .215 0 .275.12.275.06 0 .071-.012.274-.264.06-.083.06-.107.24-.299.454.563 1.1.563 1.303.563C3.588.12 4.21-.574 4.21-1.52c0-.646-.395-1.028-.502-1.136-.431-.37-.754-.443-1.543-.586-.359-.072-1.232-.24-1.232-.957 0-.37.251-.92 1.327-.92 1.304 0 1.376 1.111 1.4 1.482.012.096.095.096.131.096.132 0 .132-.06.132-.275z"/><clipPath id="l"><path d="M56.07 204.945H238.01V51.349H56.07Z"/></clipPath></defs><g fill="none" stroke="gray" stroke-miterlimit="10" stroke-width=".19925"><path d="M71.218 204.945v-4.251m30.323 4.25v-4.25m30.323 4.25v-4.25m30.324 4.25v-4.25m30.323 4.25v-4.25m30.323 4.25v-4.25M71.218 51.349v4.25m30.323-4.25v4.25m30.323-4.25v4.25m30.324-4.25v4.25m30.323-4.25v4.25m30.323-4.25v4.25M56.07 204.845h2.833m-2.834-1.6h2.834m-2.834-1.433h2.834m-2.834-9.418h2.834m-2.834-5.51h2.834m-2.834-3.909h2.834m-2.834-3.032h2.834m-2.834-2.477h2.834m-2.834-2.095h2.834m-2.834-1.814h2.834m-2.834-1.6h2.834m-2.834-1.432h2.834m-2.834-9.419h2.834m-2.834-5.51h2.834m-2.834-3.908h2.834m-2.834-3.032h2.834m-2.834-2.478h2.834m-2.834-2.095h2.834m-2.834-1.814h2.834m-2.834-1.6h2.834m-2.834-1.432h2.834m-2.834-9.419h2.834m-2.834-5.51h2.834M56.07 120.4h2.834m-2.834-3.032h2.834m-2.834-2.478h2.834m-2.834-2.094h2.834m-2.834-1.815h2.834m-2.834-1.6h2.834m-2.834-1.432h2.834m-2.834-9.418h2.834m-2.834-5.51h2.834m-2.834-3.909h2.834M56.07 86.08h2.834m-2.834-2.477h2.834m-2.834-2.095h2.834m-2.834-1.814h2.834m-2.834-1.6h2.834M56.07 76.66h2.834m-2.834-9.418h2.834m-2.834-5.51h2.834m-2.834-3.909h2.834m-2.834-3.032h2.834m-2.834-2.477h2.834m179.108 152.53h-2.834m2.834-1.6h-2.834m2.834-1.433h-2.834m2.834-9.418h-2.834m2.834-5.51h-2.834m2.834-3.909h-2.834m2.834-3.032h-2.834m2.834-2.477h-2.834m2.834-2.095h-2.834m2.834-1.814h-2.834m2.834-1.6h-2.834m2.834-1.432h-2.834m2.834-9.419h-2.834m2.834-5.51h-2.834m2.834-3.908h-2.834m2.834-3.032h-2.834m2.834-2.478h-2.834m2.834-2.095h-2.834m2.834-1.814h-2.834m2.834-1.6h-2.834m2.834-1.432h-2.834m2.834-9.419h-2.834m2.834-5.51h-2.834m2.834-3.908h-2.834m2.834-3.032h-2.834m2.834-2.478h-2.834m2.834-2.094h-2.834m2.834-1.815h-2.834m2.834-1.6h-2.834m2.834-1.432h-2.834m2.834-9.418h-2.834m2.834-5.51h-2.834m2.834-3.909h-2.834m2.834-3.032h-2.834m2.834-2.477h-2.834m2.834-2.095h-2.834m2.834-1.814h-2.834m2.834-1.6h-2.834m2.834-1.433h-2.834m2.834-9.418h-2.834m2.834-5.51h-2.834m2.834-3.909h-2.834m2.834-3.032h-2.834m2.834-2.477h-2.834M56.07 201.813h4.25m-4.25-31.288h4.25m-4.25-31.288h4.25m-4.25-31.288h4.25m-4.25-31.288h4.25m177.691 125.152h-4.25m4.25-31.288h-4.25m4.25-31.288h-4.25m4.25-31.288h-4.25m4.25-31.288h-4.25"/></g><path fill="none" stroke="#000" stroke-miterlimit="10" stroke-width=".3985" d="M56.07 204.945V51.349H238.01v153.596z"/><use xlink:href="#a" x="-62.19296" y="156.389765" transform="translate(128.093 62.276)scale(1.0004)"/><use xlink:href="#b" x="-56.314293" y="151.986083" transform="matrix(.99999 0 0 .99999 128.093 62.276)"/><use xlink:href="#a" x="-62.19296" y="156.389765" transform="translate(158.416 62.276)scale(1.0004)"/><use xlink:href="#c" x="-56.314293" y="151.986083" transform="matrix(.99999 0 0 .99999 158.416 62.276)"/><use xlink:href="#a" x="-62.19296" y="156.389765" transform="translate(186.623 62.276)scale(1.0004)"/><g transform="matrix(.99999 0 0 .99999 186.623 62.276)"><use xlink:href="#d" x="-56.314293" y="151.986083"/><use xlink:href="#d" x="-52.082223" y="151.986083"/></g><use xlink:href="#a" x="-62.19296" y="156.389765" transform="translate(216.946 62.276)scale(1.0004)"/><g transform="matrix(.99999 0 0 .99999 216.946 62.276)"><use xlink:href="#d" x="-56.314293" y="151.986083"/><use xlink:href="#e" x="-52.082223" y="151.986083"/></g><use xlink:href="#a" x="-62.19296" y="156.389765" transform="translate(247.269 62.276)scale(1.0004)"/><g transform="matrix(.99999 0 0 .99999 247.269 62.276)"><use xlink:href="#d" x="-56.314293" y="151.986083"/><use xlink:href="#f" x="-52.082223" y="151.986083"/></g><use xlink:href="#a" x="-62.19296" y="156.389765" transform="translate(277.592 62.276)scale(1.0004)"/><g transform="matrix(.99999 0 0 .99999 277.592 62.276)"><use xlink:href="#d" x="-56.314293" y="151.986083"/><use xlink:href="#b" x="-52.082223" y="151.986083"/></g><g transform="translate(97.615 50.223)scale(1.0004)"><use xlink:href="#g" x="-62.19296" y="156.389765"/><use xlink:href="#h" x="-56.344521" y="156.389765"/></g><use xlink:href="#i" x="-50.461366" y="151.986083" transform="matrix(.99999 0 0 .99999 97.615 50.223)"/><g transform="translate(97.615 18.935)scale(1.0004)"><use xlink:href="#g" x="-62.19296" y="156.389765"/><use xlink:href="#h" x="-56.344521" y="156.389765"/></g><use xlink:href="#e" x="-50.461366" y="151.986083" transform="matrix(.99999 0 0 .99999 97.615 18.935)"/><g transform="translate(97.615 -12.353)scale(1.0004)"><use xlink:href="#g" x="-62.19296" y="156.389765"/><use xlink:href="#h" x="-56.344521" y="156.389765"/></g><use xlink:href="#j" x="-50.461366" y="151.986083" transform="matrix(.99999 0 0 .99999 97.615 -12.353)"/><g transform="translate(97.615 -43.64)scale(1.0004)"><use xlink:href="#g" x="-62.19296" y="156.389765"/><use xlink:href="#h" x="-56.344521" y="156.389765"/></g><use xlink:href="#f" x="-50.461366" y="151.986083" transform="matrix(.99999 0 0 .99999 97.615 -43.64)"/><g transform="translate(97.615 -74.928)scale(1.0004)"><use xlink:href="#g" x="-62.19296" y="156.389765"/><use xlink:href="#h" x="-56.344521" y="156.389765"/></g><use xlink:href="#k" x="-50.461366" y="151.986083" transform="matrix(.99999 0 0 .99999 97.615 -74.928)"/><g clip-path="url(#l)"><path fill="none" stroke="#000" stroke-miterlimit="10" stroke-width=".3985" d="m56.07 181.726 7.58-4.852 7.58-4.85 7.581-4.85 7.581-4.85 7.58-4.85 7.582-4.851 7.58-4.85 7.581-4.851 7.58-4.852 7.581-4.851 7.581-4.85 7.58-4.85 7.581-4.851 7.581-4.85 7.58-4.851 7.582-4.85 7.58-4.85 7.581-4.851 7.58-4.85 7.581-4.85 7.581-4.851 7.58-4.851 7.582-4.849 7.58-4.852"/><g transform="rotate(-32.626 41.073 -129.498)scale(.99968)"><use xlink:href="#m" x="-62.151776" y="156.286202"/><use xlink:href="#n" x="-55.788437" y="156.286202"/><use xlink:href="#o" x="-45.290597" y="156.286202"/><use xlink:href="#p" x="-40.294481" y="156.286202"/><use xlink:href="#q" x="-37.528206" y="156.286202"/><use xlink:href="#r" x="-32.548203" y="156.286202"/><use xlink:href="#s" x="-27.567804" y="156.286202"/></g><g transform="matrix(.8417 -.53883 .53883 .8417 76.3 1.711)"><use xlink:href="#t" x="-21.583235" y="152.627788"/><use xlink:href="#u" x="-17.614397" y="152.627788"/><use xlink:href="#v" x="-15.249686" y="152.627788"/><use xlink:href="#w" x="-11.283755" y="152.627788"/></g><g transform="rotate(-32.626 41.073 -129.498)scale(.99968)"><use xlink:href="#x" x="-4.6018" y="156.286202"/><use xlink:href="#y" x="-.72881" y="156.286202"/></g><use xlink:href="#z" x="6.908233" y="152.627788" transform="matrix(.8417 -.53883 .53883 .8417 76.3 1.711)"/><g transform="rotate(-32.626 41.073 -129.498)scale(.99968)"><use xlink:href="#A" x="14.145306" y="156.286202"/><use xlink:href="#q" x="24.658562" y="156.286202"/><use xlink:href="#p" x="29.638263" y="156.286202"/><use xlink:href="#B" x="32.405541" y="156.286202"/><use xlink:href="#B" x="37.385541" y="156.286202"/><use xlink:href="#B" x="42.365545" y="156.286202"/><use xlink:href="#C" x="47.345545" y="156.286202"/></g></g><path d="M72.353 171.2a1.12 1.12 0 1 0-2.241 0 1.12 1.12 0 0 0 2.241 0"/><path fill="none" stroke="#000" stroke-miterlimit="10" stroke-width=".3985" d="M72.353 171.2a1.12 1.12 0 1 0-2.241 0 1.12 1.12 0 0 0 2.241 0Z"/><path d="M87.515 162.014a1.12 1.12 0 1 0-2.242 0 1.12 1.12 0 0 0 2.242 0"/><path fill="none" stroke="#000" stroke-miterlimit="10" stroke-width=".3985" d="M87.515 162.014a1.12 1.12 0 1 0-2.242 0 1.12 1.12 0 0 0 2.242 0Z"/><path d="M102.677 152.165a1.12 1.12 0 1 0-2.242 0 1.12 1.12 0 0 0 2.242 0"/><path fill="none" stroke="#000" stroke-miterlimit="10" stroke-width=".3985" d="M102.677 152.165a1.12 1.12 0 1 0-2.242 0 1.12 1.12 0 0 0 2.242 0Z"/><path d="M117.839 142.468a1.12 1.12 0 1 0-2.242 0 1.12 1.12 0 0 0 2.242 0"/><path fill="none" stroke="#000" stroke-miterlimit="10" stroke-width=".3985" d="M117.839 142.468a1.12 1.12 0 1 0-2.242 0 1.12 1.12 0 0 0 2.242 0Z"/><path d="M133 132.676a1.12 1.12 0 1 0-2.241 0 1.12 1.12 0 0 0 2.241 0"/><path fill="none" stroke="#000" stroke-miterlimit="10" stroke-width=".3985" d="M133 132.676a1.12 1.12 0 1 0-2.241 0 1.12 1.12 0 0 0 2.241 0Z"/><path d="M148.161 123.802a1.12 1.12 0 1 0-2.241 0 1.12 1.12 0 0 0 2.241 0"/><path fill="none" stroke="#000" stroke-miterlimit="10" stroke-width=".3985" d="M148.161 123.802a1.12 1.12 0 1 0-2.241 0 1.12 1.12 0 0 0 2.241 0Z"/><path d="M163.323 113.954a1.12 1.12 0 1 0-2.242 0 1.12 1.12 0 0 0 2.242 0"/><path fill="none" stroke="#000" stroke-miterlimit="10" stroke-width=".3985" d="M163.323 113.954a1.12 1.12 0 1 0-2.242 0 1.12 1.12 0 0 0 2.242 0Z"/><path d="M178.485 104.041a1.12 1.12 0 1 0-2.241 0 1.12 1.12 0 0 0 2.241 0"/><path fill="none" stroke="#000" stroke-miterlimit="10" stroke-width=".3985" d="M178.485 104.041a1.12 1.12 0 1 0-2.241 0 1.12 1.12 0 0 0 2.241 0Z"/><path d="M193.647 92.984a1.12 1.12 0 1 0-2.242 0 1.12 1.12 0 0 0 2.242 0"/><path fill="none" stroke="#000" stroke-miterlimit="10" stroke-width=".3985" d="M193.647 92.984a1.12 1.12 0 1 0-2.242 0 1.12 1.12 0 0 0 2.242 0Z"/><path d="M208.809 83.74a1.12 1.12 0 1 0-2.242 0 1.12 1.12 0 0 0 2.242 0"/><path fill="none" stroke="#000" stroke-miterlimit="10" stroke-width=".3985" d="M208.809 83.74a1.12 1.12 0 1 0-2.242 0 1.12 1.12 0 0 0 2.242 0Z"/><path d="M223.97 74.073a1.12 1.12 0 1 0-2.241 0 1.12 1.12 0 0 0 2.241 0"/><path fill="none" stroke="#000" stroke-miterlimit="10" stroke-width=".3985" d="M223.97 74.073a1.12 1.12 0 1 0-2.241 0 1.12 1.12 0 0 0 2.241 0Z"/><g transform="translate(179.341 78.252)scale(1.0004)"><use xlink:href="#D" x="-62.19296" y="156.389765"/><use xlink:href="#E" x="-56.332558" y="156.389765"/><use xlink:href="#E" x="-51.7758" y="156.389765"/><use xlink:href="#D" x="-47.219041" y="156.389765"/><use xlink:href="#F" x="-41.669603" y="156.389765"/><use xlink:href="#G" x="-31.59928" y="156.389765"/><use xlink:href="#H" x="-26.982719" y="156.389765"/><use xlink:href="#I" x="-23.7296" y="156.389765"/><use xlink:href="#J" x="-18.527" y="156.389765"/><use xlink:href="#K" x="-9.424781" y="156.389765"/></g><g transform="rotate(-90 -9.669 122.368)scale(1.0004)"><use xlink:href="#J" x="-62.19296" y="156.389765"/><use xlink:href="#L" x="-56.990361" y="156.389765"/><use xlink:href="#D" x="-53.737237" y="156.389765"/><use xlink:href="#M" x="-47.87684" y="156.389765"/><use xlink:href="#G" x="-41.370602" y="156.389765"/><use xlink:href="#J" x="-36.754041" y="156.389765"/><use xlink:href="#N" x="-31.55144" y="156.389765"/><use xlink:href="#O" x="-21.146237" y="156.389765"/><use xlink:href="#H" x="-16.589477" y="156.389765"/><use xlink:href="#P" x="-13.336356" y="156.389765"/><use xlink:href="#J" x="-3.576996" y="156.389765"/><use xlink:href="#Q" x="5.52422" y="156.389765"/><use xlink:href="#R" x="13.652482" y="156.389765"/><use xlink:href="#S" x="16.893644" y="156.389765"/><use xlink:href="#T" x="23.387925" y="156.389765"/><use xlink:href="#U" x="28.004486" y="156.389765"/></g><g transform="translate(146.658 -118.141)scale(1.0004)"><use xlink:href="#V" x="-62.19296" y="141.937965"/><use xlink:href="#D" x="-53.5698" y="141.937965"/><use xlink:href="#W" x="-47.709404" y="141.937965"/><use xlink:href="#N" x="-41.203164" y="141.937965"/><use xlink:href="#X" x="-34.696925" y="141.937965"/><use xlink:href="#P" x="-28.836525" y="141.937965"/><use xlink:href="#H" x="-19.077164" y="141.937965"/><use xlink:href="#I" x="-15.824044" y="141.937965"/><use xlink:href="#J" x="-10.621443" y="141.937965"/><use xlink:href="#N" x="-5.418842" y="141.937965"/><use xlink:href="#Y" x="4.986358" y="141.937965"/><use xlink:href="#Z" x="14.099879" y="141.937965"/><use xlink:href="#H" x="20.606119" y="141.937965"/><use xlink:href="#aa" x="23.859239" y="141.937965"/><use xlink:href="#ab" x="28.750879" y="141.937965"/><use xlink:href="#G" x="34.934199" y="141.937965"/><use xlink:href="#J" x="39.55076" y="141.937965"/><use xlink:href="#L" x="44.75336" y="141.937965"/><use xlink:href="#J" x="48.006482" y="141.937965"/><use xlink:href="#aa" x="53.209081" y="141.937965"/><use xlink:href="#O" x="58.411681" y="141.937965"/><use xlink:href="#ac" x="-18.225314" y="156.389765"/><use xlink:href="#ad" x="-13.668484" y="156.389765"/><use xlink:href="#ae" x="-3.853545" y="156.389765"/><use xlink:href="#h" x="8.560936" y="156.389765"/><use xlink:href="#af" x="14.431794" y="156.389765"/></g></svg>