<svg xmlns="http://www.w3.org/2000/svg" xmlns:xlink="http://www.w3.org/1999/xlink" width="229.49pt" height="274.73pt" viewBox="0 0 229.49 274.73"><defs><path id="d" d="M2.695 0v-.338c-.72 0-.764-.055-.764-.48v-4.004l-1.527.12v.338c.709 0 .807.065.807.6v2.935c0 .49-.12.49-.851.49V0l1.2-.033c.382 0 .764.022 1.135.033m-.6-6.59a.583.583 0 0 0-1.167 0 .583.583 0 0 0 1.167 0"/><path id="f" d="M5.139-2.335c0-1.396-1.091-2.553-2.411-2.553-1.364 0-2.423 1.19-2.423 2.553A2.435 2.435 0 0 0 2.717.12a2.43 2.43 0 0 0 2.422-2.455m-.906-.087c0 .393 0 .982-.24 1.462-.24.49-.72.807-1.265.807-.47 0-.95-.229-1.244-.73-.273-.48-.273-1.146-.273-1.539 0-.426 0-1.015.262-1.495a1.46 1.46 0 0 1 1.244-.73c.48 0 .949.24 1.232.708s.284 1.102.284 1.517"/><path id="c" d="M5.684-2.357c0-1.385-1.058-2.465-2.28-2.465-.851 0-1.31.48-1.527.72v-.72l-1.572.12v.338c.775 0 .851.065.851.546v5.105c0 .491-.12.491-.85.491v.339l1.221-.033 1.233.033v-.339c-.73 0-.85 0-.85-.49V-.645c.054.175.512.764 1.341.764C4.55.12 5.684-.95 5.684-2.357m-.905 0c0 1.32-.764 2.237-1.571 2.237-.437 0-.851-.218-1.146-.666-.153-.229-.153-.24-.153-.458v-2.433c.317-.556.851-.872 1.408-.872.796 0 1.462.96 1.462 2.192"/><path id="g" d="M3.622-1.353v-.622H3.35v.6c0 .808-.327 1.222-.73 1.222-.732 0-.732-.993-.732-1.178v-3.033h1.56v-.338h-1.56V-6.71h-.272c-.011.895-.339 2.062-1.408 2.106v.24h.928v3.011C1.135-.01 2.149.12 2.542.12c.775 0 1.08-.775 1.08-1.473"/><path id="e" d="M5.542-4.364v-.338c-.25.022-.567.033-.818.033l-.95-.033v.338c.405.01.525.262.525.47 0 .097-.022.141-.066.261L3.12-.851 1.898-3.895c-.065-.142-.065-.185-.065-.185 0-.284.425-.284.622-.284v-.338l-1.19.033c-.294 0-.73-.011-1.058-.033v.338c.688 0 .731.065.873.404L2.651-.087c.066.152.087.207.23.207s.185-.098.228-.207l1.43-3.546c.098-.251.283-.72 1.003-.731"/><path id="l" d="M5.358-1.985c0-1.22-.861-1.758-1.794-2.333.598-.322 1.471-.873 1.471-1.877 0-1.04-1.004-1.758-2.105-1.758-1.184 0-2.117.873-2.117 1.961 0 .407.12.813.455 1.22.131.155.143.167.98.753C1.088-3.48.49-2.679.49-1.806.49-.538 1.698.251 2.918.251c1.328 0 2.44-.98 2.44-2.236m-.813-4.198c0 .73-.526 1.315-1.22 1.698l-1.387-.909c-.156-.108-.634-.419-.634-1.005 0-.777.813-1.267 1.614-1.267.861 0 1.627.622 1.627 1.483m.263 4.58c0 .91-.921 1.531-1.878 1.531-1.016 0-1.89-.741-1.89-1.734 0-.933.682-1.686 1.46-2.045l1.447.945c.31.203.86.574.86 1.303"/><path id="a" d="M5.262-2.404c0-1.423-.956-2.607-2.212-2.607-.682 0-1.208.299-1.52.634v-2.476c.515.167.934.18 1.065.18 1.352 0 2.213-.993 2.213-1.16 0-.049-.024-.108-.096-.108 0 0-.048 0-.155.047a3.9 3.9 0 0 1-1.555.323c-.79 0-1.352-.239-1.579-.335-.083-.035-.12-.035-.12-.035-.095 0-.095.071-.095.263v3.552c0 .215 0 .287.143.287.06 0 .072-.012.192-.156.335-.49.897-.777 1.495-.777.634 0 .945.586 1.04.79.204.466.216 1.052.216 1.506s0 1.136-.335 1.675c-.263.43-.73.73-1.256.73-.79 0-1.567-.539-1.782-1.412.06.024.131.036.191.036.204 0 .527-.12.527-.526 0-.335-.228-.527-.527-.527-.215 0-.526.108-.526.574 0 1.017.813 2.177 2.14 2.177 1.352 0 2.536-1.136 2.536-2.655"/><path id="h" d="M5.526-1.997v-.347H4.318v-5.442c0-.227 0-.287-.168-.287-.096 0-.131 0-.227.144l-3.6 5.585v.347h3.145V-.91c0 .443-.024.562-.897.562h-.239V0c.275-.024 1.22-.024 1.555-.024s1.292 0 1.567.024v-.347h-.24c-.86 0-.896-.12-.896-.562v-1.088zm-1.998-.347H.622l2.906-4.51z"/><path id="k" d="M5.358-3.935c0-3.217-1.34-4.018-2.392-4.018C1.65-7.953.49-6.853.49-5.274S1.603-2.62 2.8-2.62c.885 0 1.34-.646 1.578-1.256v.395c0 2.822-1.255 3.408-1.973 3.408-.287 0-.921-.036-1.22-.454h.072c.084.024.514-.048.514-.49 0-.264-.18-.491-.49-.491s-.503.203-.503.514c0 .742.598 1.244 1.639 1.244 1.495 0 2.942-1.59 2.942-4.186M4.353-5.01c0 1.004-.454 2.153-1.507 2.153-.753 0-1.076-.61-1.184-.838-.19-.454-.19-1.028-.19-1.566 0-.67 0-1.244.31-1.735.215-.323.538-.67 1.184-.67.682 0 1.029.599 1.148.874.24.586.24 1.602.24 1.782"/><path id="b" d="M4.868-6.793c0-.73-.503-1.627-2.225-1.627-1.292 0-1.997.837-1.997 1.603 0 .43.323.526.502.526.203 0 .49-.143.49-.502a.48.48 0 0 0-.502-.49c-.072 0-.095 0-.12.011.264-.622.957-.909 1.591-.909 1.352 0 1.352.873 1.352 1.328 0 .706-.216.933-.419 1.148-.813.873-1.076 1.985-1.076 2.715v.574c0 .215 0 .263.131.263s.132-.084.132-.299v-.442c0-.706.287-1.758 1.495-2.655.335-.252.646-.622.646-1.244M3.169-.586a.58.58 0 0 0-.574-.574.576.576 0 0 0-.586.574.58.58 0 1 0 1.16 0"/><path id="m" d="M5.681-7.427v-.275H2.799c-1.448 0-1.471-.156-1.52-.383h-.262L.646-5.693h.263c.036-.215.143-.957.299-1.088.096-.072.993-.072 1.16-.072h2.536L3.636-5.035C3.313-4.57 2.105-2.607 2.105-.36c0 .132 0 .61.49.61.503 0 .503-.466.503-.622v-.598c0-1.782.287-3.17.849-3.97z"/><path id="j" d="M5.358-2.44c0-1.59-1.112-2.655-2.308-2.655-1.065 0-1.46.921-1.579 1.256v-.323c0-3.026 1.471-3.504 2.117-3.504.43 0 .861.131 1.088.49-.143 0-.598 0-.598.49 0 .263.18.49.49.49.3 0 .503-.179.503-.526 0-.621-.454-1.231-1.495-1.231C2.069-7.953.49-6.411.49-3.78.49-.49 1.926.25 2.942.25c1.304 0 2.416-1.136 2.416-2.69m-.98-.012c0 .61 0 1.148-.228 1.603-.299.574-.73.777-1.208.777-.753 0-1.112-.67-1.22-.92-.107-.312-.227-.898-.227-1.735 0-.945.43-2.129 1.507-2.129.658 0 1.005.443 1.184.85.191.442.191 1.04.191 1.554"/><path id="i" d="M5.262-2.01H5c-.036.204-.131.862-.25 1.053-.085.108-.766.108-1.125.108H1.41c.323-.275 1.053-1.04 1.364-1.328 1.818-1.674 2.487-2.296 2.487-3.48 0-1.375-1.088-2.296-2.475-2.296S.586-6.77.586-5.741c0 .61.526.61.562.61.251 0 .562-.18.562-.562 0-.335-.227-.562-.562-.562-.107 0-.131 0-.167.012.227-.813.873-1.364 1.65-1.364 1.017 0 1.639.85 1.639 1.95 0 1.017-.586 1.902-1.268 2.667L.586-.287V0h4.365z"/></defs><path fill="none" stroke="#000" stroke-miterlimit="10" stroke-width=".3985" d="M108.807 50.046a9.004 9.004 0 1 0-18.009 0 9.004 9.004 0 1 0 18.01 0Z"/><use xlink:href="#a" x="7.963196" y="-21.957813" transform="translate(88.914 75.839)scale(1.0004)"/><path fill="none" stroke="#000" stroke-miterlimit="10" stroke-width=".3985" d="M128.615 50.046a8.97 8.97 0 1 0-17.94 0 8.97 8.97 0 0 0 17.94 0Z"/><use xlink:href="#b" x="7.963196" y="-21.957813" transform="translate(108.924 76.203)scale(1.0004)"/><path fill="none" stroke="#000" stroke-miterlimit="10" stroke-width=".3985" d="M148.458 50.046a8.97 8.97 0 1 0-17.94 0 8.97 8.97 0 0 0 17.94 0Z"/><use xlink:href="#b" x="7.963196" y="-21.957813" transform="translate(128.767 76.203)scale(1.0004)"/><path fill="none" stroke="#000" stroke-miterlimit="10" stroke-width=".3985" d="M168.3 50.046a8.97 8.97 0 1 0-17.939 0 8.97 8.97 0 0 0 17.94 0Z"/><use xlink:href="#b" x="7.963196" y="-21.957813" transform="translate(148.609 76.203)scale(1.0004)"/><path fill="none" stroke="#000" stroke-miterlimit="10" stroke-width=".3985" d="M118.694 67.054a8.97 8.97 0 1 0-17.94 0 8.97 8.97 0 1 0 17.94 0Z"/><use xlink:href="#b" x="7.963196" y="-21.957813" transform="translate(99.002 93.211)scale(1.0004)"/><path fill="none" stroke="#000" stroke-miterlimit="10" stroke-width=".3985" d="M138.537 67.054a8.97 8.97 0 1 0-17.94 0 8.97 8.97 0 1 0 17.94 0Z"/><use xlink:href="#b" x="7.963196" y="-21.957813" transform="translate(118.845 93.211)scale(1.0004)"/><path fill="none" stroke="#000" stroke-miterlimit="10" stroke-width=".3985" d="M158.38 67.054a8.97 8.97 0 1 0-17.94 0 8.97 8.97 0 0 0 17.94 0Z"/><use xlink:href="#b" x="7.963196" y="-21.957813" transform="translate(138.688 93.211)scale(1.0004)"/><path fill="none" stroke="#000" stroke-miterlimit="10" stroke-width=".3985" d="M99.803 35.038v-7.67"/><path d="m99.803 38.14 1.682-4.468-1.682 1.466-1.682-1.466Z"/><path fill="none" stroke="#000" stroke-miterlimit="10" stroke-width=".3985" d="m99.803 38.14 1.682-4.468-1.682 1.466-1.682-1.466Z"/><g transform="translate(79.717 44.435)scale(1.00008)"><use xlink:href="#c" x="7.960657" y="-21.950811"/><use xlink:href="#d" x="14.026616" y="-21.950811"/><use xlink:href="#e" x="17.059597" y="-21.950811"/><use xlink:href="#f" x="22.514597" y="-21.950811"/><use xlink:href="#g" x="27.969596" y="-21.950811"/></g><path fill="none" stroke="#000" stroke-miterlimit="10" stroke-width=".3985" d="M108.807 123.748a9.004 9.004 0 1 0-18.009 0 9.004 9.004 0 1 0 18.01 0Z"/><use xlink:href="#a" x="7.963196" y="-21.957813" transform="translate(88.914 149.54)scale(1.0004)"/><path fill="none" stroke="#000" stroke-miterlimit="10" stroke-width=".3985" d="M59.168 123.748a8.972 8.972 0 1 0-17.944 0 8.972 8.972 0 1 0 17.944 0Z"/><use xlink:href="#h" x="7.963196" y="-21.957813" transform="translate(39.307 149.732)scale(1.0004)"/><path fill="none" stroke="#000" stroke-miterlimit="10" stroke-width=".3985" d="M69.011 140.756a8.894 8.894 0 1 0-17.788 0 8.894 8.894 0 0 0 17.788 0Z"/><use xlink:href="#i" x="7.963196" y="-21.957813" transform="translate(49.228 166.68)scale(1.0004)"/><path fill="none" stroke="#000" stroke-miterlimit="10" stroke-width=".3985" d="M148.5 123.748a9.012 9.012 0 1 0-18.024 0 9.012 9.012 0 1 0 18.025 0Z"/><use xlink:href="#j" x="7.963196" y="-21.957813" transform="translate(128.599 149.546)scale(1.0004)"/><path fill="none" stroke="#000" stroke-miterlimit="10" stroke-width=".3985" d="M168.343 123.748a9.012 9.012 0 1 0-18.024 0 9.012 9.012 0 1 0 18.024 0Z"/><use xlink:href="#k" x="7.963196" y="-21.957813" transform="translate(148.442 149.546)scale(1.0004)"/><path fill="none" stroke="#000" stroke-miterlimit="10" stroke-width=".3985" d="M158.422 140.756a9.012 9.012 0 1 0-18.025 0 9.012 9.012 0 1 0 18.025 0Z"/><use xlink:href="#l" x="7.963196" y="-21.957813" transform="translate(138.521 166.554)scale(1.0004)"/><path fill="none" stroke="#000" stroke-miterlimit="10" stroke-width=".3985" d="M178.304 140.756a9.052 9.052 0 1 0-18.103 0 9.052 9.052 0 1 0 18.103 0Z"/><use xlink:href="#m" x="7.963196" y="-21.957813" transform="translate(158.363 166.62)scale(1.0004)"/><path fill="none" stroke="#000" stroke-miterlimit="10" stroke-width=".3985" d="M50.196 108.74v-7.67"/><path d="m50.196 111.842 1.682-4.468-1.682 1.465-1.682-1.465Z"/><path fill="none" stroke="#000" stroke-miterlimit="10" stroke-width=".3985" d="m50.196 111.842 1.682-4.468-1.682 1.465-1.682-1.465Z"/><g transform="translate(30.11 118.136)scale(1.00008)"><use xlink:href="#c" x="7.960657" y="-21.950811"/><use xlink:href="#d" x="14.026616" y="-21.950811"/><use xlink:href="#e" x="17.059597" y="-21.950811"/><use xlink:href="#f" x="22.514597" y="-21.950811"/><use xlink:href="#g" x="27.969596" y="-21.950811"/></g><path fill="none" stroke="#000" stroke-miterlimit="10" stroke-width=".3985" d="M139.488 108.74v-7.67"/><path d="m139.488 111.842 1.682-4.468-1.682 1.465-1.682-1.465Z"/><path fill="none" stroke="#000" stroke-miterlimit="10" stroke-width=".3985" d="m139.488 111.842 1.682-4.468-1.682 1.465-1.682-1.465Z"/><g transform="translate(119.403 118.136)scale(1.00008)"><use xlink:href="#c" x="7.960657" y="-21.950811"/><use xlink:href="#d" x="14.026616" y="-21.950811"/><use xlink:href="#e" x="17.059597" y="-21.950811"/><use xlink:href="#f" x="22.514597" y="-21.950811"/><use xlink:href="#g" x="27.969596" y="-21.950811"/></g><path fill="none" stroke="#000" stroke-miterlimit="10" stroke-width=".3985" d="M148.5 197.45a9.012 9.012 0 1 0-18.024 0 9.012 9.012 0 1 0 18.025 0Z"/><use xlink:href="#j" x="7.963196" y="-21.957813" transform="translate(128.599 223.248)scale(1.0004)"/><path fill="none" stroke="#000" stroke-miterlimit="10" stroke-width=".3985" d="M59.168 197.45a8.972 8.972 0 1 0-17.944 0 8.972 8.972 0 1 0 17.944 0Z"/><use xlink:href="#h" x="7.963196" y="-21.957813" transform="translate(39.307 223.433)scale(1.0004)"/><path fill="none" stroke="#000" stroke-miterlimit="10" stroke-width=".3985" d="M29.326 197.45a8.894 8.894 0 1 0-17.789 0 8.894 8.894 0 1 0 17.789 0Z"/><use xlink:href="#i" x="7.963196" y="-21.957813" transform="translate(9.543 223.374)scale(1.0004)"/><path fill="none" stroke="#000" stroke-miterlimit="10" stroke-width=".3985" d="M188.186 197.45a9.012 9.012 0 1 0-18.024 0 9.012 9.012 0 1 0 18.024 0Z"/><use xlink:href="#l" x="7.963196" y="-21.957813" transform="translate(168.285 223.248)scale(1.0004)"/><path fill="none" stroke="#000" stroke-miterlimit="10" stroke-width=".3985" d="M208.029 197.45a9.012 9.012 0 1 0-18.025 0 9.012 9.012 0 1 0 18.025 0Z"/><use xlink:href="#k" x="7.963196" y="-21.957813" transform="translate(188.128 223.248)scale(1.0004)"/><path fill="none" stroke="#000" stroke-miterlimit="10" stroke-width=".3985" d="M198.147 214.458a9.052 9.052 0 1 0-18.104 0 9.052 9.052 0 1 0 18.104 0Z"/><use xlink:href="#m" x="7.963196" y="-21.957813" transform="translate(178.206 240.322)scale(1.0004)"/><path fill="none" stroke="#000" stroke-miterlimit="10" stroke-width=".3985" d="M179.174 182.442v-7.67"/><path d="m179.174 185.543 1.682-4.468-1.682 1.466-1.682-1.466Z"/><path fill="none" stroke="#000" stroke-miterlimit="10" stroke-width=".3985" d="m179.174 185.543 1.682-4.468-1.682 1.466-1.682-1.466Z"/><g transform="translate(159.088 191.838)scale(1.00008)"><use xlink:href="#c" x="7.960657" y="-21.950811"/><use xlink:href="#d" x="14.026616" y="-21.950811"/><use xlink:href="#e" x="17.059597" y="-21.950811"/><use xlink:href="#f" x="22.514597" y="-21.950811"/><use xlink:href="#g" x="27.969596" y="-21.950811"/></g><path fill="none" stroke="#000" stroke-miterlimit="10" stroke-width=".3985" d="M158.462 254.143a9.052 9.052 0 1 0-18.104 0 9.052 9.052 0 1 0 18.104 0Z"/><use xlink:href="#m" x="7.963196" y="-21.957813" transform="translate(138.521 280.007)scale(1.0004)"/><path fill="none" stroke="#000" stroke-miterlimit="10" stroke-width=".3985" d="M188.186 254.143a9.012 9.012 0 1 0-18.024 0 9.012 9.012 0 1 0 18.024 0Z"/><use xlink:href="#l" x="7.963196" y="-21.957813" transform="translate(168.285 279.942)scale(1.0004)"/><path fill="none" stroke="#000" stroke-miterlimit="10" stroke-width=".3985" d="M217.95 254.143a9.012 9.012 0 1 0-18.024 0 9.012 9.012 0 1 0 18.024 0Z"/><use xlink:href="#k" x="7.963196" y="-21.957813" transform="translate(198.049 279.942)scale(1.0004)"/></svg>