<svg xmlns="http://www.w3.org/2000/svg" width="382.075" height="109.949" viewBox="-72 -72 286.556 82.462"><g fill="none" stroke="#000" stroke-miterlimit="10" stroke-width=".4"><path stroke-width=".398504" d="M-20.919-53.446a7.016 7.016 0 1 0-14.031 0 7.016 7.016 0 0 0 14.031 0ZM-35.092-30.77a7.016 7.016 0 1 0-14.032 0 7.016 7.016 0 0 0 14.032 0ZM-31.758-47.328l-6.526 10.44M-46.43-8.092a7.016 7.016 0 1 0-14.032 0 7.016 7.016 0 0 0 14.032 0ZM-45.334-24.316l-4.886 9.771M28.688-53.446a7.016 7.016 0 1 0-14.032 0 7.016 7.016 0 0 0 14.032 0ZM14.515-30.77a7.016 7.016 0 1 0-14.032 0 7.016 7.016 0 0 0 14.032 0ZM17.848-47.328l-6.526 10.44M25.853-8.092a7.016 7.016 0 1 0-14.032 0 7.016 7.016 0 0 0 14.032 0ZM10.725-24.316l4.886 9.771M78.294-53.446a7.016 7.016 0 1 0-14.032 0 7.016 7.016 0 0 0 14.032 0ZM64.12-30.77a7.016 7.016 0 1 0-14.03 0 7.016 7.016 0 0 0 14.03 0ZM67.454-47.328l-6.525 10.44M92.467-30.77a7.016 7.016 0 1 0-14.031 0 7.016 7.016 0 0 0 14.031 0ZM75.102-47.328l6.525 10.44M127.9-53.446a7.016 7.016 0 1 0-14.031 0 7.016 7.016 0 0 0 14.031 0ZM142.074-30.77a7.016 7.016 0 1 0-14.032 0 7.016 7.016 0 0 0 14.032 0ZM124.708-47.328l6.526 10.44M130.735-8.092a7.016 7.016 0 1 0-14.032 0 7.016 7.016 0 0 0 14.032 0ZM131.831-24.316l-4.886 9.771M177.507-53.446a7.016 7.016 0 1 0-14.032 0 7.016 7.016 0 0 0 14.032 0ZM191.68-30.77a7.016 7.016 0 1 0-14.032 0 7.016 7.016 0 0 0 14.032 0ZM174.315-47.328l6.525 10.44M203.018-8.092a7.016 7.016 0 1 0-14.031 0 7.016 7.016 0 0 0 14.031 0ZM187.89-24.316l4.886 9.771"/></g></svg>