<svg xmlns="http://www.w3.org/2000/svg" xmlns:xlink="http://www.w3.org/1999/xlink" width="378.53pt" height="98.2pt" viewBox="0 0 378.53 98.2"><defs><path id="d" d="M5.75 0v-.338c-.764 0-.851-.077-.851-.611v-6.623l-1.571.12v.339c.763 0 .85.076.85.61v2.357c-.316-.393-.785-.676-1.374-.676C1.516-4.822.37-3.753.37-2.346.37-.96 1.44.12 2.684.12c.698 0 1.189-.37 1.462-.72v.72zM4.146-1.287c0 .196 0 .218-.12.403-.328.524-.818.764-1.288.764-.49 0-.883-.284-1.145-.698-.284-.448-.317-1.07-.317-1.517 0-.403.022-1.058.339-1.549.229-.338.643-.698 1.233-.698.381 0 .84.163 1.178.654.12.186.12.208.12.404z"/><path id="e" d="M4.528-1.298c0-.11-.088-.131-.142-.131-.098 0-.12.065-.142.153C3.862-.153 2.88-.153 2.771-.153c-.545 0-.982-.327-1.233-.73-.327-.524-.327-1.244-.327-1.637h3.044c.24 0 .273 0 .273-.23 0-1.08-.59-2.138-1.953-2.138-1.266 0-2.27 1.124-2.27 2.488 0 1.462 1.146 2.52 2.4 2.52 1.332 0 1.823-1.211 1.823-1.418m-.72-1.451H1.222c.065-1.626.982-1.899 1.353-1.899 1.123 0 1.233 1.473 1.233 1.899"/><path id="b" d="M5.837 0v-.338c-.567 0-.84 0-.851-.328v-2.083c0-.939 0-1.277-.338-1.67-.153-.185-.513-.403-1.146-.403-.796 0-1.31.469-1.615 1.145v-1.145l-1.538.12v.338c.764 0 .851.076.851.611v2.924c0 .49-.12.49-.85.49V0l1.232-.033L2.804 0v-.338c-.731 0-.851 0-.851-.491v-2.008c0-1.134.775-1.745 1.473-1.745.687 0 .807.589.807 1.21v2.543c0 .49-.12.49-.85.49V0l1.232-.033z"/><path id="c" d="M5.139-2.335c0-1.396-1.091-2.553-2.411-2.553-1.364 0-2.423 1.19-2.423 2.553A2.435 2.435 0 0 0 2.717.12a2.43 2.43 0 0 0 2.422-2.455m-.906-.087c0 .393 0 .982-.24 1.462-.24.49-.72.807-1.265.807-.47 0-.95-.229-1.244-.73-.273-.48-.273-1.146-.273-1.539 0-.426 0-1.015.262-1.495a1.46 1.46 0 0 1 1.244-.73c.48 0 .949.24 1.232.708s.284 1.102.284 1.517"/><path id="h" d="M4.571 0v-.338h-.349c-.982 0-1.014-.12-1.014-.524v-6.12c0-.262 0-.284-.251-.284-.677.698-1.637.698-1.986.698v.338c.218 0 .862 0 1.43-.283v5.651c0 .393-.034.524-1.015.524h-.35V0c.382-.033 1.331-.033 1.768-.033s1.385 0 1.767.033"/><path id="g" d="M3.928-1.396c0-.579-.328-.906-.459-1.037-.36-.35-.785-.436-1.243-.524-.611-.12-1.342-.261-1.342-.894 0-.382.283-.83 1.222-.83 1.2 0 1.254.983 1.276 1.32.011.099.131.099.131.099.142 0 .142-.055.142-.262v-1.102c0-.185 0-.262-.12-.262-.055 0-.077 0-.218.131a1.4 1.4 0 0 1-.186.175c-.414-.306-.862-.306-1.025-.306C.775-4.888.36-4.157.36-3.546c0 .382.175.688.47.928.348.283.654.349 1.44.501.24.044 1.134.219 1.134 1.004 0 .557-.382.993-1.233.993-.916 0-1.31-.622-1.516-1.55C.622-1.81.61-1.854.502-1.854c-.142 0-.142.077-.142.273v1.44C.36.044.36.12.48.12.535.12.546.11.753-.098.775-.12.775-.142.97-.35c.48.458.971.469 1.2.469 1.255 0 1.757-.731 1.757-1.516"/><path id="f" d="M4.986-1.866c0-.894-.687-1.745-1.822-1.974C4.059-4.135 4.69-4.9 4.69-5.76c0-.895-.96-1.506-2.007-1.506-1.102 0-1.931.655-1.931 1.484 0 .36.24.567.556.567.338 0 .557-.24.557-.556 0-.546-.513-.546-.677-.546.338-.534 1.058-.676 1.451-.676.448 0 1.048.24 1.048 1.222 0 .13-.022.763-.306 1.243-.327.524-.698.557-.97.568-.088.01-.35.032-.426.032-.088.011-.164.022-.164.131 0 .12.076.12.262.12h.48c.894 0 1.298.742 1.298 1.811 0 1.484-.753 1.8-1.233 1.8C2.16-.065 1.342-.25.96-.894c.382.055.72-.185.72-.6 0-.392-.294-.61-.61-.61-.263 0-.612.152-.612.632C.458-.48 1.473.24 2.662.24c1.331 0 2.324-.993 2.324-2.106"/><path id="i" d="M4.899-1.898h-.273c-.055.327-.131.807-.24.97-.077.088-.797.088-1.037.088H1.386l1.156-1.124C4.244-3.469 4.899-4.059 4.899-5.15c0-1.243-.982-2.116-2.313-2.116a2.016 2.016 0 0 0-2.04 1.975c0 .61.545.61.578.61.185 0 .567-.13.567-.578a.55.55 0 0 0-.578-.567c-.087 0-.11 0-.142.011.25-.71.84-1.113 1.473-1.113.993 0 1.462.884 1.462 1.778 0 .873-.546 1.735-1.146 2.412L.666-.404c-.12.12-.12.142-.12.404h4.047z"/><path id="a" d="M5.019-3.491c0-.873-.055-1.746-.437-2.553-.502-1.048-1.396-1.222-1.854-1.222-.655 0-1.452.284-1.899 1.298C.48-5.215.425-4.364.425-3.49c0 .818.044 1.8.491 2.63A2 2 0 0 0 2.716.24c.59 0 1.419-.23 1.899-1.266.35-.752.404-1.603.404-2.465m-.906-.131c0 .818 0 1.56-.12 2.258C3.83-.327 3.208 0 2.717 0 2.29 0 1.647-.273 1.45-1.32c-.12-.655-.12-1.658-.12-2.302 0-.698 0-1.418.087-2.008.208-1.298 1.026-1.396 1.299-1.396.36 0 1.08.196 1.287 1.276.11.611.11 1.44.11 2.128"/></defs><path fill="none" stroke="#000" stroke-miterlimit="10" stroke-width=".3985" d="M58.093 18.552a7.016 7.016 0 1 0-14.032 0 7.016 7.016 0 0 0 14.032 0Z"/><path fill="none" stroke="#000" stroke-dasharray="2.98883 1.99255" stroke-miterlimit="10" stroke-width=".3985" d="M38.25 46.899a7.016 7.016 0 1 0-14.032 0 7.016 7.016 0 0 0 14.032 0Z"/><g transform="translate(36.246 119.315)scale(1.00008)"><use xlink:href="#a" x="-20.924726" y="-53.450409"/><use xlink:href="#b" x="-11.847606" y="-53.450409"/><use xlink:href="#c" x="-5.781647" y="-53.450409"/><use xlink:href="#d" x="-.021167" y="-53.450409"/><use xlink:href="#e" x="6.044794" y="-53.450409"/></g><path fill="none" stroke="#000" stroke-miterlimit="10" stroke-width=".3985" d="M55.215 24.463 67.99 42.715M67.802 42.335 51.437 70.682h32.73Z"/><g transform="translate(70.664 136.084)scale(1.00008)"><use xlink:href="#f" x="-20.924726" y="-53.450409"/><use xlink:href="#b" x="-11.847606" y="-53.450409"/><use xlink:href="#c" x="-5.781647" y="-53.450409"/><use xlink:href="#d" x="-.021167" y="-53.450409"/><use xlink:href="#e" x="6.044794" y="-53.450409"/><use xlink:href="#g" x="10.888834" y="-53.450409"/></g><path fill="none" stroke="#000" stroke-miterlimit="10" stroke-width=".3985" d="M150.22 18.552a7.016 7.016 0 1 0-14.032 0 7.016 7.016 0 0 0 14.032 0ZM130.377 46.899a7.016 7.016 0 1 0-14.032 0 7.016 7.016 0 0 0 14.032 0Z"/><g transform="translate(128.373 119.315)scale(1.00008)"><use xlink:href="#h" x="-20.924726" y="-53.450409"/><use xlink:href="#b" x="-11.847606" y="-53.450409"/><use xlink:href="#c" x="-5.781647" y="-53.450409"/><use xlink:href="#d" x="-.021167" y="-53.450409"/><use xlink:href="#e" x="6.044794" y="-53.450409"/></g><g fill="none" stroke="#000" stroke-miterlimit="10" stroke-width=".3985"><path d="m139.067 24.463-11.568 16.525M147.342 24.463l12.777 18.252M159.929 42.335l-16.365 28.347h32.73Z"/></g><g transform="translate(162.792 136.084)scale(1.00008)"><use xlink:href="#i" x="-20.924726" y="-53.450409"/><use xlink:href="#b" x="-11.847606" y="-53.450409"/><use xlink:href="#c" x="-5.781647" y="-53.450409"/><use xlink:href="#d" x="-.021167" y="-53.450409"/><use xlink:href="#e" x="6.044794" y="-53.450409"/><use xlink:href="#g" x="10.888834" y="-53.450409"/></g><g fill="none" stroke="#000" stroke-miterlimit="10" stroke-width=".3985"><path d="M242.347 18.552a7.016 7.016 0 1 0-14.032 0 7.016 7.016 0 0 0 14.032 0ZM231.194 24.463l-12.777 18.252M218.607 42.335l-16.365 28.347h32.73Z"/></g><g transform="translate(221.47 136.084)scale(1.00008)"><use xlink:href="#i" x="-20.924726" y="-53.450409"/><use xlink:href="#b" x="-11.847606" y="-53.450409"/><use xlink:href="#c" x="-5.781647" y="-53.450409"/><use xlink:href="#d" x="-.021167" y="-53.450409"/><use xlink:href="#e" x="6.044794" y="-53.450409"/><use xlink:href="#g" x="10.888834" y="-53.450409"/></g><path fill="none" stroke="#000" stroke-miterlimit="10" stroke-width=".3985" d="M262.19 46.899a7.016 7.016 0 1 0-14.032 0 7.016 7.016 0 0 0 14.032 0Z"/><g transform="translate(260.186 119.315)scale(1.00008)"><use xlink:href="#h" x="-20.924726" y="-53.450409"/><use xlink:href="#b" x="-11.847606" y="-53.450409"/><use xlink:href="#c" x="-5.781647" y="-53.450409"/><use xlink:href="#d" x="-.021167" y="-53.450409"/><use xlink:href="#e" x="6.044794" y="-53.450409"/></g><g fill="none" stroke="#000" stroke-miterlimit="10" stroke-width=".3985"><path d="m239.469 24.463 11.567 16.525M334.475 18.552a7.016 7.016 0 1 0-14.032 0 7.016 7.016 0 0 0 14.031 0ZM323.32 24.463l-12.776 18.252M310.734 42.335l-16.365 28.347h32.73Z"/></g><g transform="translate(313.597 136.084)scale(1.00008)"><use xlink:href="#f" x="-20.924726" y="-53.450409"/><use xlink:href="#b" x="-11.847606" y="-53.450409"/><use xlink:href="#c" x="-5.781647" y="-53.450409"/><use xlink:href="#d" x="-.021167" y="-53.450409"/><use xlink:href="#e" x="6.044794" y="-53.450409"/><use xlink:href="#g" x="10.888834" y="-53.450409"/></g><path fill="none" stroke="#000" stroke-dasharray="2.98883 1.99255" stroke-miterlimit="10" stroke-width=".3985" d="M354.317 46.899a7.016 7.016 0 1 0-14.032 0 7.016 7.016 0 0 0 14.032 0Z"/><g transform="translate(352.313 119.315)scale(1.00008)"><use xlink:href="#a" x="-20.924726" y="-53.450409"/><use xlink:href="#b" x="-11.847606" y="-53.450409"/><use xlink:href="#c" x="-5.781647" y="-53.450409"/><use xlink:href="#d" x="-.021167" y="-53.450409"/><use xlink:href="#e" x="6.044794" y="-53.450409"/></g></svg>