<svg xmlns="http://www.w3.org/2000/svg" xmlns:xlink="http://www.w3.org/1999/xlink" width="504.708" height="130.936" viewBox="-72 -72 378.531 98.202"><defs><path id="d" d="M5.75 0v-.338c-.765 0-.852-.077-.852-.611v-6.622l-1.57.12v.338c.763 0 .85.077.85.611v2.357c-.316-.393-.785-.677-1.374-.677C1.516-4.822.37-3.752.37-2.345.37-.96 1.44.12 2.684.12c.698 0 1.189-.37 1.461-.72v.72zM4.144-1.287c0 .196 0 .218-.12.403-.327.524-.818.764-1.287.764-.49 0-.883-.284-1.145-.698-.284-.447-.317-1.07-.317-1.517 0-.403.022-1.058.339-1.549.229-.338.643-.698 1.232-.698.382 0 .84.164 1.178.655.12.185.12.207.12.403z"/><path id="e" d="M4.527-1.298c0-.11-.087-.131-.142-.131-.098 0-.12.065-.141.153C3.862-.153 2.88-.153 2.77-.153c-.546 0-.982-.327-1.233-.73-.327-.524-.327-1.244-.327-1.637h3.044c.24 0 .272 0 .272-.23 0-1.08-.589-2.137-1.952-2.137-1.266 0-2.27 1.123-2.27 2.487 0 1.462 1.146 2.52 2.4 2.52 1.331 0 1.822-1.21 1.822-1.418m-.72-1.451H1.222c.065-1.626.982-1.898 1.353-1.898 1.123 0 1.232 1.472 1.232 1.898"/><path id="b" d="M5.836 0v-.338c-.567 0-.84 0-.85-.327V-2.75c0-.938 0-1.276-.339-1.67-.152-.185-.512-.403-1.145-.403-.797 0-1.31.47-1.615 1.146v-1.146l-1.538.12v.338c.764 0 .851.077.851.611v2.924c0 .49-.12.49-.85.49V0l1.232-.033L2.804 0v-.338c-.731 0-.851 0-.851-.491v-2.007c0-1.135.774-1.746 1.472-1.746.688 0 .808.59.808 1.211v2.542c0 .49-.12.49-.851.49V0l1.233-.033z"/><path id="c" d="M5.138-2.335c0-1.396-1.09-2.552-2.41-2.552-1.364 0-2.423 1.189-2.423 2.552A2.435 2.435 0 0 0 2.716.12a2.43 2.43 0 0 0 2.422-2.455m-.905-.087c0 .393 0 .982-.24 1.462-.24.49-.72.807-1.266.807-.469 0-.949-.229-1.243-.73-.273-.48-.273-1.146-.273-1.539 0-.425 0-1.014.262-1.494.294-.502.807-.731 1.243-.731.48 0 .95.24 1.233.709s.284 1.102.284 1.516"/><path id="h" d="M4.57 0v-.338h-.348c-.982 0-1.015-.12-1.015-.524v-6.12c0-.262 0-.283-.25-.283-.677.698-1.637.698-1.986.698v.338c.218 0 .862 0 1.429-.284v5.651c0 .393-.033.524-1.015.524h-.349V0c.382-.033 1.331-.033 1.768-.033s1.385 0 1.767.033"/><path id="g" d="M3.927-1.396c0-.579-.327-.906-.458-1.037-.36-.349-.785-.436-1.244-.523-.61-.12-1.341-.262-1.341-.895 0-.382.283-.829 1.221-.829 1.2 0 1.255.982 1.277 1.32.01.098.13.098.13.098.143 0 .143-.054.143-.262v-1.101c0-.186 0-.262-.12-.262-.055 0-.077 0-.219.13a1.4 1.4 0 0 1-.185.175c-.415-.305-.862-.305-1.026-.305-1.33 0-1.745.73-1.745 1.342 0 .381.175.687.47.927.348.283.654.349 1.44.502.24.043 1.134.218 1.134 1.003 0 .557-.382.993-1.233.993C1.255-.12.86-.742.655-1.67.622-1.81.61-1.854.502-1.854c-.142 0-.142.077-.142.273v1.44C.36.044.36.12.48.12.535.12.545.11.753-.098.775-.12.775-.142.97-.35c.48.458.97.469 1.2.469 1.254 0 1.756-.73 1.756-1.516"/><path id="f" d="M4.985-1.865c0-.895-.687-1.746-1.821-1.975.894-.295 1.527-1.058 1.527-1.92 0-.895-.96-1.505-2.007-1.505-1.102 0-1.931.654-1.931 1.483 0 .36.24.567.556.567.338 0 .556-.24.556-.556 0-.545-.512-.545-.676-.545.338-.535 1.058-.677 1.451-.677.447 0 1.047.24 1.047 1.222 0 .131-.022.764-.305 1.244-.327.523-.698.556-.971.567-.087.01-.35.033-.426.033-.087.01-.163.022-.163.13 0 .12.076.12.262.12h.48c.894 0 1.298.742 1.298 1.812 0 1.483-.753 1.8-1.233 1.8-.469 0-1.287-.186-1.669-.83.382.055.72-.185.72-.6 0-.392-.295-.61-.61-.61-.263 0-.612.152-.612.632C.458-.48 1.473.24 2.662.24c1.33 0 2.323-.993 2.323-2.105"/><path id="i" d="M4.898-1.898h-.273c-.054.327-.13.807-.24.97C4.31-.84 3.59-.84 3.35-.84H1.385l1.157-1.124c1.702-1.505 2.356-2.094 2.356-3.185 0-1.244-.982-2.116-2.313-2.116a2.016 2.016 0 0 0-2.04 1.974c0 .611.546.611.579.611.185 0 .567-.13.567-.578a.55.55 0 0 0-.578-.567c-.088 0-.11 0-.142.01.25-.709.84-1.112 1.473-1.112.992 0 1.461.883 1.461 1.778 0 .873-.545 1.734-1.145 2.41L.665-.403c-.12.12-.12.142-.12.404h4.048z"/><path id="a" d="M5.018-3.49c0-.874-.054-1.746-.436-2.554C4.08-7.09 3.185-7.265 2.727-7.265c-.654 0-1.45.283-1.898 1.298C.48-5.215.425-4.364.425-3.491c0 .818.044 1.8.491 2.63A2 2 0 0 0 2.716.24c.59 0 1.419-.23 1.899-1.265.349-.753.403-1.604.403-2.466m-.905-.132c0 .818 0 1.56-.12 2.258C3.829-.327 3.207 0 2.716 0c-.425 0-1.069-.273-1.265-1.32-.12-.655-.12-1.658-.12-2.302 0-.698 0-1.418.087-2.007.207-1.298 1.026-1.396 1.298-1.396.36 0 1.08.196 1.288 1.276.109.61.109 1.44.109 2.127"/></defs><g stroke="#000" stroke-miterlimit="10" stroke-width=".4"><path fill="none" stroke-width=".398504" d="M-13.907-53.446a7.016 7.016 0 1 0-14.032 0 7.016 7.016 0 0 0 14.032 0Zm-7.016 0"/><path fill="none" stroke-dasharray="2.98878,1.99252" stroke-width=".398504" d="M-33.75-25.1a7.016 7.016 0 1 0-14.032 0 7.016 7.016 0 0 0 14.032 0Zm-7.016 0"/><g stroke="none" transform="matrix(1 0 0 1 -35.753 47.316)"><use xlink:href="#a" x="-20.923" y="-53.446"/><use xlink:href="#b" x="-11.836" y="-53.446"/><use xlink:href="#c" x="-5.771" y="-53.446"/><use xlink:href="#d" x="-.011" y="-53.446"/><use xlink:href="#e" x="6.055" y="-53.446"/></g><path fill="none" stroke-width=".398504" d="m-16.786-47.535 12.777 18.251M-4.199-29.663-20.564-1.317h32.73Z"/><g stroke="none" transform="matrix(1 0 0 1 -1.336 64.085)"><use xlink:href="#f" x="-20.923" y="-53.446"/><use xlink:href="#b" x="-11.836" y="-53.446"/><use xlink:href="#c" x="-5.771" y="-53.446"/><use xlink:href="#d" x="-.011" y="-53.446"/><use xlink:href="#e" x="6.055" y="-53.446"/><use xlink:href="#g" x="10.898" y="-53.446"/></g><path fill="none" stroke-width=".398504" d="M78.218-53.446a7.016 7.016 0 1 0-14.031 0 7.016 7.016 0 0 0 14.031 0ZM58.376-25.1a7.016 7.016 0 1 0-14.032 0 7.016 7.016 0 0 0 14.032 0Zm-7.016 0"/><g stroke="none" transform="matrix(1 0 0 1 56.373 47.316)"><use xlink:href="#h" x="-20.923" y="-53.446"/><use xlink:href="#b" x="-11.836" y="-53.446"/><use xlink:href="#c" x="-5.771" y="-53.446"/><use xlink:href="#d" x="-.011" y="-53.446"/><use xlink:href="#e" x="6.055" y="-53.446"/></g><path fill="none" stroke-width=".398504" d="M67.065-47.535 55.498-31.011M75.34-47.535l12.777 18.251M87.927-29.663 71.562-1.317h32.73Z"/><g stroke="none" transform="matrix(1 0 0 1 90.79 64.085)"><use xlink:href="#i" x="-20.923" y="-53.446"/><use xlink:href="#b" x="-11.836" y="-53.446"/><use xlink:href="#c" x="-5.771" y="-53.446"/><use xlink:href="#d" x="-.011" y="-53.446"/><use xlink:href="#e" x="6.055" y="-53.446"/><use xlink:href="#g" x="10.898" y="-53.446"/></g><path fill="none" stroke-width=".398504" d="M170.344-53.446a7.016 7.016 0 1 0-14.031 0 7.016 7.016 0 0 0 14.031 0ZM159.191-47.535l-12.777 18.251M146.604-29.663 130.24-1.317h32.73Z"/><g stroke="none" transform="matrix(1 0 0 1 149.468 64.085)"><use xlink:href="#i" x="-20.923" y="-53.446"/><use xlink:href="#b" x="-11.836" y="-53.446"/><use xlink:href="#c" x="-5.771" y="-53.446"/><use xlink:href="#d" x="-.011" y="-53.446"/><use xlink:href="#e" x="6.055" y="-53.446"/><use xlink:href="#g" x="10.898" y="-53.446"/></g><path fill="none" stroke-width=".398504" d="M190.187-25.1a7.016 7.016 0 1 0-14.032 0 7.016 7.016 0 0 0 14.032 0Zm-7.016 0"/><g stroke="none" transform="matrix(1 0 0 1 188.184 47.316)"><use xlink:href="#h" x="-20.923" y="-53.446"/><use xlink:href="#b" x="-11.836" y="-53.446"/><use xlink:href="#c" x="-5.771" y="-53.446"/><use xlink:href="#d" x="-.011" y="-53.446"/><use xlink:href="#e" x="6.055" y="-53.446"/></g><path fill="none" stroke-width=".398504" d="m167.466-47.535 11.568 16.524M262.47-53.446a7.016 7.016 0 1 0-14.031 0 7.016 7.016 0 0 0 14.031 0ZM251.317-47.535 238.54-29.284M238.73-29.663 222.365-1.317h32.73Z"/><g stroke="none" transform="matrix(1 0 0 1 241.594 64.085)"><use xlink:href="#f" x="-20.923" y="-53.446"/><use xlink:href="#b" x="-11.836" y="-53.446"/><use xlink:href="#c" x="-5.771" y="-53.446"/><use xlink:href="#d" x="-.011" y="-53.446"/><use xlink:href="#e" x="6.055" y="-53.446"/><use xlink:href="#g" x="10.898" y="-53.446"/></g><path fill="none" stroke-dasharray="2.98878,1.99252" stroke-width=".398504" d="M282.313-25.1a7.016 7.016 0 1 0-14.032 0 7.016 7.016 0 0 0 14.032 0Zm-7.016 0"/><g stroke="none" transform="matrix(1 0 0 1 280.31 47.316)"><use xlink:href="#a" x="-20.923" y="-53.446"/><use xlink:href="#b" x="-11.836" y="-53.446"/><use xlink:href="#c" x="-5.771" y="-53.446"/><use xlink:href="#d" x="-.011" y="-53.446"/><use xlink:href="#e" x="6.055" y="-53.446"/></g></g></svg>