<svg xmlns="http://www.w3.org/2000/svg" xmlns:xlink="http://www.w3.org/1999/xlink" width="317.53" height="204.943" viewBox="-72 -72 238.147 153.707"><defs><path id="h" d="M5.356-1.985c0-1.219-.86-1.757-1.793-2.33.597-.324 1.47-.874 1.47-1.878 0-1.04-1.004-1.757-2.104-1.757-1.184 0-2.116.873-2.116 1.96 0 .407.12.813.454 1.22.132.155.144.167.98.753C1.088-3.479.49-2.678.49-1.805.49-.538 1.698.25 2.917.25c1.327 0 2.439-.98 2.439-2.236M4.543-6.18c0 .73-.526 1.315-1.22 1.698l-1.386-.909c-.156-.107-.634-.418-.634-1.004 0-.777.813-1.267 1.614-1.267.86 0 1.626.621 1.626 1.482m.263 4.579c0 .909-.92 1.53-1.877 1.53-1.016 0-1.889-.741-1.889-1.733 0-.933.682-1.686 1.459-2.045l1.446.945c.311.203.861.574.861 1.303"/><path id="e" d="M5.26-2.403c0-1.423-.956-2.606-2.211-2.606-.682 0-1.208.299-1.519.633V-6.85c.514.167.933.179 1.064.179 1.351 0 2.212-.992 2.212-1.16 0-.047-.024-.107-.096-.107 0 0-.047 0-.155.048A3.9 3.9 0 0 1 3-7.568c-.79 0-1.351-.239-1.578-.334-.084-.036-.12-.036-.12-.036-.096 0-.096.071-.096.263v3.55c0 .216 0 .287.144.287.06 0 .072-.012.191-.155.335-.49.897-.777 1.495-.777.633 0 .944.586 1.04.789.203.466.215 1.052.215 1.506s0 1.136-.335 1.674c-.263.43-.73.73-1.255.73A1.85 1.85 0 0 1 .92-1.483c.06.023.131.035.19.035.204 0 .527-.12.527-.526 0-.334-.227-.526-.526-.526-.215 0-.526.108-.526.574 0 1.016.813 2.176 2.14 2.176 1.35 0 2.534-1.136 2.534-2.654"/><path id="d" d="M5.523-1.997v-.346H4.316v-5.44c0-.227 0-.287-.168-.287-.095 0-.131 0-.227.144L.323-2.343v.346h3.144v1.088c0 .443-.024.562-.897.562h-.239V0c.275-.024 1.22-.024 1.554-.024s1.292 0 1.567.024v-.347h-.24c-.86 0-.896-.12-.896-.562v-1.088zm-1.996-.346H.622L3.527-6.85z"/><path id="j" d="M8.452-4.053c0-2.475-1.817-4.363-3.897-4.363-2.128 0-3.91 1.912-3.91 4.363C.646-1.626 2.452.251 4.544.251c2.14 0 3.91-1.9 3.91-4.304m-1.112-.18c0 3.11-1.625 4.21-2.785 4.21-1.22 0-2.798-1.149-2.798-4.21 0-2.928 1.662-3.92 2.786-3.92 1.184 0 2.797 1.028 2.797 3.92"/><path id="a" d="M4.902 0v-.347H4.53c-1.052 0-1.088-.143-1.088-.574v-6.742c0-.275 0-.287-.239-.287-.287.323-.885.765-2.116.765v.347c.275 0 .873 0 1.53-.311v6.228c0 .43-.036.574-1.088.574h-.37V0c.322-.024 1.482-.024 1.877-.024s1.542 0 1.865.024"/><path id="i" d="M3.885 2.905c0-.036 0-.06-.203-.263-1.195-1.207-1.865-3.18-1.865-5.619 0-2.32.562-4.316 1.949-5.726.12-.108.12-.132.12-.168 0-.071-.06-.095-.108-.095-.156 0-1.136.86-1.722 2.032-.61 1.207-.884 2.487-.884 3.957 0 1.064.167 2.487.789 3.766.705 1.435 1.685 2.212 1.817 2.212.048 0 .107-.024.107-.096"/><path id="k" d="M3.371-2.977c0-.908-.12-2.39-.789-3.778C1.877-8.189.897-8.966.765-8.966c-.048 0-.107.024-.107.095 0 .036 0 .06.203.263 1.195 1.208 1.865 3.18 1.865 5.62 0 2.319-.562 4.315-1.949 5.726-.12.107-.12.131-.12.167 0 .072.06.096.108.096C.921 3 1.901 2.14 2.487.968c.61-1.22.884-2.51.884-3.945"/><path id="g" d="M5.679-7.424V-7.7H2.798c-1.447 0-1.471-.156-1.519-.383h-.263L.646-5.69h.263c.035-.215.143-.956.298-1.088.096-.071.993-.071 1.16-.071h2.535L3.634-5.033c-.322.466-1.53 2.427-1.53 4.674 0 .132 0 .61.49.61.502 0 .502-.466.502-.622v-.597c0-1.782.287-3.168.85-3.97z"/><path id="f" d="M5.356-2.439c0-1.59-1.112-2.654-2.307-2.654-1.064 0-1.459.92-1.579 1.255v-.322c0-3.025 1.471-3.503 2.117-3.503.43 0 .86.131 1.087.49-.143 0-.597 0-.597.49 0 .263.179.49.49.49.299 0 .502-.18.502-.526 0-.621-.454-1.231-1.494-1.231C2.068-7.95.49-6.408.49-3.778.49-.49 1.925.252 2.941.252c1.303 0 2.415-1.137 2.415-2.69m-.98-.012c0 .61 0 1.148-.228 1.602-.298.574-.729.777-1.207.777-.753 0-1.112-.67-1.22-.92-.107-.311-.227-.897-.227-1.734 0-.944.43-2.128 1.507-2.128.657 0 1.004.443 1.183.849.192.442.192 1.04.192 1.554"/><path id="c" d="M5.356-2.044c0-1.1-.885-1.961-2.032-2.164 1.04-.3 1.71-1.172 1.71-2.104 0-.945-.981-1.638-2.14-1.638-1.196 0-2.081.73-2.081 1.602 0 .478.37.574.55.574.25 0 .538-.18.538-.538 0-.383-.287-.55-.55-.55-.072 0-.096 0-.132.012.455-.813 1.579-.813 1.638-.813.395 0 1.172.18 1.172 1.35 0 .228-.036.897-.383 1.411-.358.526-.765.562-1.088.574l-.358.036c-.203.012-.251.024-.251.132 0 .12.06.12.275.12h.55c1.016 0 1.47.836 1.47 1.984 0 1.566-.813 1.984-1.399 1.984-.574 0-1.554-.275-1.9-1.064.382.06.729-.155.729-.586a.565.565 0 0 0-.586-.585c-.287 0-.598.167-.598.621C.49-.622 1.554.251 2.881.251c1.423 0 2.475-1.088 2.475-2.295"/><path id="b" d="M5.26-2.008h-.263c-.036.203-.131.86-.25 1.052-.084.107-.766.107-1.125.107H1.411c.322-.275 1.052-1.04 1.363-1.327C4.59-3.85 5.26-4.47 5.26-5.655c0-1.375-1.088-2.295-2.474-2.295s-2.2 1.183-2.2 2.212c0 .61.526.61.562.61.25 0 .562-.18.562-.563 0-.334-.228-.562-.562-.562a.5.5 0 0 0-.168.012c.227-.813.873-1.362 1.65-1.362 1.016 0 1.638.848 1.638 1.948 0 1.016-.586 1.901-1.267 2.666L.586-.287V0h4.363z"/><path id="l" d="M8.5 0v-.347c-.705 0-.992 0-1.267-.418L4.674-4.591l1.65-2.403c.204-.287.55-.813 1.686-.825v-.346c-.514.024-.646.024-1.255.024-.323 0-1.088 0-1.363-.024v.346c.49.036.645.323.645.526 0 .132-.047.204-.12.311L4.484-4.878 2.87-7.268c-.036-.049-.083-.132-.083-.192 0-.167.25-.359.681-.359v-.346c-.287.024-1.231.024-1.578.024-.335 0-1.172 0-1.459-.024v.346c.897 0 1.017.06 1.268.443l2.235 3.311-2.008 2.93c-.203.298-.586.776-1.662.788V0c.514-.024.646-.024 1.255-.024.323 0 1.1 0 1.375.024v-.347c-.502-.024-.657-.322-.657-.526 0-.131.06-.215.131-.323l1.758-2.57L6.06-.873c.072.108.084.12.084.168 0 .143-.215.346-.681.358V0C5.75-.024 6.683-.024 7.03-.024c.334 0 1.183 0 1.47.024"/></defs><g stroke="#000" stroke-miterlimit="10" stroke-width=".4"><path fill="none" stroke-width=".398504" d="m-13.143-51.568-27.06 11.208M13.917-40.36 25.125-13.3M13.917 13.759l-65.327-27.06M-13.143 24.967l-27.06-11.208"/><g fill="#fff"><path stroke-width=".398504" d="M-4.249-51.568a8.894 8.894 0 1 0-17.788 0 8.894 8.894 0 0 0 17.788 0Zm-8.894 0"/><use xlink:href="#a" x="-13.143" y="-13.3" fill="#000" stroke="none" transform="matrix(1 0 0 1 -2.929 -34.293)"/></g><g fill="#fff"><path stroke-width=".398504" d="M22.81-40.36a8.894 8.894 0 1 0-17.788 0 8.894 8.894 0 1 0 17.789 0Zm-8.893 0"/><use xlink:href="#b" x="-13.143" y="-13.3" fill="#000" stroke="none" transform="matrix(1 0 0 1 24.13 -23.084)"/></g><g fill="#fff"><path stroke-width=".398504" d="M34.137-13.3a9.012 9.012 0 1 0-18.024 0 9.012 9.012 0 1 0 18.024 0Zm-9.012 0"/><use xlink:href="#c" x="-13.143" y="-13.3" fill="#000" stroke="none" transform="matrix(1 0 0 1 35.339 3.85)"/></g><g fill="#fff"><path stroke-width=".398504" d="M22.889 13.759a8.972 8.972 0 1 0-17.945 0 8.972 8.972 0 1 0 17.945 0Zm-8.972 0"/><use xlink:href="#d" x="-13.143" y="-13.3" fill="#000" stroke="none" transform="matrix(1 0 0 1 24.13 31.094)"/></g><g fill="#fff"><path stroke-width=".398504" d="M-4.138 24.967a9.004 9.004 0 1 0-18.009 0 9.004 9.004 0 0 0 18.009 0Zm-9.005 0"/><use xlink:href="#e" x="-13.143" y="-13.3" fill="#000" stroke="none" transform="matrix(1 0 0 1 -2.929 42.111)"/></g><g fill="#fff"><path stroke-width=".398504" d="M-31.19 13.759a9.012 9.012 0 1 0-18.024 0 9.012 9.012 0 1 0 18.024 0Zm-9.012 0"/><use xlink:href="#f" x="-13.143" y="-13.3" fill="#000" stroke="none" transform="matrix(1 0 0 1 -29.988 30.909)"/></g><g fill="#fff"><path stroke-width=".398504" d="M-42.359-13.3a9.052 9.052 0 1 0-18.103 0 9.052 9.052 0 1 0 18.103 0Zm-9.051 0"/><use xlink:href="#g" x="-13.143" y="-13.3" fill="#000" stroke="none" transform="matrix(1 0 0 1 -41.197 3.915)"/></g><g fill="#fff"><path stroke-width=".398504" d="M-31.19-40.36a9.012 9.012 0 1 0-18.024 0 9.012 9.012 0 1 0 18.024 0Zm-9.012 0"/><use xlink:href="#h" x="-13.143" y="-13.3" fill="#000" stroke="none" transform="matrix(1 0 0 1 -29.988 -23.21)"/></g><g stroke="none" transform="matrix(1 0 0 1 -9.11 76.684)"><use xlink:href="#i" x="-13.143" y="-13.3"/><use xlink:href="#j" x="-8.588" y="-13.3"/><use xlink:href="#k" x=".522" y="-13.3"/></g><path fill="none" stroke-width=".398504" d="M107.33-51.568 80.27-40.36M134.39-40.36l11.207 27.06"/><path fill="none" stroke="red" stroke-width=".398504" d="M134.39 13.759c-10.553-18.277-43.567-18.277-54.12 0"/><path fill="none" stroke="red" stroke-width=".398504" d="M107.33 24.967c0-21.19-17.079-38.267-38.268-38.267"/><g fill="#fff"><path stroke-width=".398504" d="M116.224-51.568a8.894 8.894 0 1 0-17.788 0 8.894 8.894 0 0 0 17.788 0Zm-8.894 0"/><use xlink:href="#a" x="-13.143" y="-13.3" fill="#000" stroke="none" transform="matrix(1 0 0 1 117.543 -34.293)"/></g><g fill="#fff"><path stroke-width=".398504" d="M143.283-40.36a8.894 8.894 0 1 0-17.788 0 8.894 8.894 0 1 0 17.788 0Zm-8.894 0"/><use xlink:href="#b" x="-13.143" y="-13.3" fill="#000" stroke="none" transform="matrix(1 0 0 1 144.603 -23.084)"/></g><g fill="#fff"><path stroke-width=".398504" d="M154.61-13.3a9.012 9.012 0 1 0-18.025 0 9.012 9.012 0 1 0 18.025 0Zm-9.013 0"/><use xlink:href="#c" x="-13.143" y="-13.3" fill="#000" stroke="none" transform="matrix(1 0 0 1 155.811 3.85)"/></g><g fill="#fff"><path stroke-width=".398504" d="M143.361 13.759a8.972 8.972 0 1 0-17.944 0 8.972 8.972 0 1 0 17.944 0Zm-8.972 0"/><use xlink:href="#d" x="-13.143" y="-13.3" fill="#000" stroke="none" transform="matrix(1 0 0 1 144.603 31.094)"/></g><g fill="#fff"><path stroke-width=".398504" d="M116.334 24.967a9.004 9.004 0 1 0-18.008 0 9.004 9.004 0 0 0 18.008 0Zm-9.004 0"/><use xlink:href="#e" x="-13.143" y="-13.3" fill="#000" stroke="none" transform="matrix(1 0 0 1 117.543 42.111)"/></g><g fill="#fff"><path stroke-width=".398504" d="M89.282 13.759a9.012 9.012 0 1 0-18.024 0 9.012 9.012 0 1 0 18.024 0Zm-9.012 0"/><use xlink:href="#f" x="-13.143" y="-13.3" fill="#000" stroke="none" transform="matrix(1 0 0 1 90.484 30.909)"/></g><g fill="#fff"><path stroke-width=".398504" d="M78.114-13.3a9.052 9.052 0 1 0-18.104 0 9.052 9.052 0 0 0 18.104 0Zm-9.052 0"/><use xlink:href="#g" x="-13.143" y="-13.3" fill="#000" stroke="none" transform="matrix(1 0 0 1 79.276 3.915)"/></g><g fill="#fff"><path stroke-width=".398504" d="M89.282-40.36a9.012 9.012 0 1 0-18.024 0 9.012 9.012 0 1 0 18.024 0Zm-9.012 0"/><use xlink:href="#h" x="-13.143" y="-13.3" fill="#000" stroke="none" transform="matrix(1 0 0 1 90.484 -23.21)"/></g><g stroke="none" transform="matrix(1 0 0 1 111.53 76.684)"><use xlink:href="#i" x="-13.143" y="-13.3"/><use xlink:href="#l" x="-8.588" y="-13.3"/><use xlink:href="#k" x=".187" y="-13.3"/></g></g></svg>