<svg xmlns="http://www.w3.org/2000/svg" xmlns:xlink="http://www.w3.org/1999/xlink" width="647.583" height="163.173" viewBox="-72 -72 485.688 122.379"><defs><path id="h" d="M5.356-1.985c0-1.219-.86-1.757-1.793-2.33.597-.324 1.47-.874 1.47-1.878 0-1.04-1.004-1.757-2.104-1.757-1.184 0-2.116.873-2.116 1.96 0 .407.12.813.454 1.22.132.155.144.167.98.753C1.088-3.479.49-2.678.49-1.805.49-.538 1.698.25 2.917.25c1.327 0 2.439-.98 2.439-2.236M4.543-6.18c0 .73-.526 1.315-1.22 1.698l-1.386-.909c-.156-.107-.634-.418-.634-1.004 0-.777.813-1.267 1.614-1.267.86 0 1.626.621 1.626 1.482m.263 4.579c0 .909-.92 1.53-1.877 1.53-1.016 0-1.889-.741-1.889-1.733 0-.933.682-1.686 1.459-2.045l1.446.945c.311.203.861.574.861 1.303"/><path id="e" d="M5.26-2.403c0-1.423-.956-2.606-2.211-2.606-.682 0-1.208.299-1.519.633V-6.85c.514.167.933.179 1.064.179 1.351 0 2.212-.992 2.212-1.16 0-.047-.024-.107-.096-.107 0 0-.047 0-.155.048A3.9 3.9 0 0 1 3-7.568c-.79 0-1.351-.239-1.578-.334-.084-.036-.12-.036-.12-.036-.096 0-.096.071-.096.263v3.55c0 .216 0 .287.144.287.06 0 .072-.012.191-.155.335-.49.897-.777 1.495-.777.633 0 .944.586 1.04.789.203.466.215 1.052.215 1.506s0 1.136-.335 1.674c-.263.43-.73.73-1.255.73A1.85 1.85 0 0 1 .92-1.483c.06.023.131.035.19.035.204 0 .527-.12.527-.526 0-.334-.227-.526-.526-.526-.215 0-.526.108-.526.574 0 1.016.813 2.176 2.14 2.176 1.35 0 2.534-1.136 2.534-2.654"/><path id="d" d="M5.523-1.997v-.346H4.316v-5.44c0-.227 0-.287-.168-.287-.095 0-.131 0-.227.144L.323-2.343v.346h3.144v1.088c0 .443-.024.562-.897.562h-.239V0c.275-.024 1.22-.024 1.554-.024s1.292 0 1.567.024v-.347h-.24c-.86 0-.896-.12-.896-.562v-1.088zm-1.996-.346H.622L3.527-6.85z"/><path id="a" d="M4.902 0v-.347H4.53c-1.052 0-1.088-.143-1.088-.574v-6.742c0-.275 0-.287-.239-.287-.287.323-.885.765-2.116.765v.347c.275 0 .873 0 1.53-.311v6.228c0 .43-.036.574-1.088.574h-.37V0c.322-.024 1.482-.024 1.877-.024s1.542 0 1.865.024"/><path id="g" d="M5.679-7.424V-7.7H2.798c-1.447 0-1.471-.156-1.519-.383h-.263L.646-5.69h.263c.035-.215.143-.956.298-1.088.096-.071.993-.071 1.16-.071h2.535L3.634-5.033c-.322.466-1.53 2.427-1.53 4.674 0 .132 0 .61.49.61.502 0 .502-.466.502-.622v-.597c0-1.782.287-3.168.85-3.97z"/><path id="f" d="M5.356-2.439c0-1.59-1.112-2.654-2.307-2.654-1.064 0-1.459.92-1.579 1.255v-.322c0-3.025 1.471-3.503 2.117-3.503.43 0 .86.131 1.087.49-.143 0-.597 0-.597.49 0 .263.179.49.49.49.299 0 .502-.18.502-.526 0-.621-.454-1.231-1.494-1.231C2.068-7.95.49-6.408.49-3.778.49-.49 1.925.252 2.941.252c1.303 0 2.415-1.137 2.415-2.69m-.98-.012c0 .61 0 1.148-.228 1.602-.298.574-.729.777-1.207.777-.753 0-1.112-.67-1.22-.92-.107-.311-.227-.897-.227-1.734 0-.944.43-2.128 1.507-2.128.657 0 1.004.443 1.183.849.192.442.192 1.04.192 1.554"/><path id="c" d="M5.356-2.044c0-1.1-.885-1.961-2.032-2.164 1.04-.3 1.71-1.172 1.71-2.104 0-.945-.981-1.638-2.14-1.638-1.196 0-2.081.73-2.081 1.602 0 .478.37.574.55.574.25 0 .538-.18.538-.538 0-.383-.287-.55-.55-.55-.072 0-.096 0-.132.012.455-.813 1.579-.813 1.638-.813.395 0 1.172.18 1.172 1.35 0 .228-.036.897-.383 1.411-.358.526-.765.562-1.088.574l-.358.036c-.203.012-.251.024-.251.132 0 .12.06.12.275.12h.55c1.016 0 1.47.836 1.47 1.984 0 1.566-.813 1.984-1.399 1.984-.574 0-1.554-.275-1.9-1.064.382.06.729-.155.729-.586a.565.565 0 0 0-.586-.585c-.287 0-.598.167-.598.621C.49-.622 1.554.251 2.881.251c1.423 0 2.475-1.088 2.475-2.295"/><path id="b" d="M5.26-2.008h-.263c-.036.203-.131.86-.25 1.052-.084.107-.766.107-1.125.107H1.411c.322-.275 1.052-1.04 1.363-1.327C4.59-3.85 5.26-4.47 5.26-5.655c0-1.375-1.088-2.295-2.474-2.295s-2.2 1.183-2.2 2.212c0 .61.526.61.562.61.25 0 .562-.18.562-.563 0-.334-.228-.562-.562-.562a.5.5 0 0 0-.168.012c.227-.813.873-1.362 1.65-1.362 1.016 0 1.638.848 1.638 1.948 0 1.016-.586 1.901-1.267 2.666L.586-.287V0h4.363z"/></defs><g stroke="#000" stroke-miterlimit="10" stroke-width=".4"><path fill="none" stroke-width=".398504" d="m-9.865-51.568 28.152 11.66"/><path fill="none" stroke="#e0e0e0" stroke-linecap="round" stroke-width="21.96852926" d="m29.947-11.756-11.66 28.152M18.287 16.396l-28.152 11.66M-9.865 28.057l-28.152-11.661M-38.017 16.396l-11.66-28.152M-49.677-11.756l11.66-28.151M-38.017-39.907l67.964 28.151"/><path fill="#e0e0e0" stroke="#e0e0e0" stroke-width=".398504" d="m29.947-11.756-11.66 28.152-28.152 11.66-28.152-11.66-11.66-28.152 11.66-28.151Z"/><path fill="none" stroke-width=".398504" d="m110.608-51.568 28.151 67.964"/><path fill="none" stroke="#e0e0e0" stroke-linecap="round" stroke-width="21.96852926" d="M110.608 28.057 82.456 16.396M82.456 16.396l-11.66-28.152M70.795-11.756l11.66-28.151M82.456-39.907l28.152 67.964"/><path fill="#e0e0e0" stroke="#e0e0e0" stroke-width=".398504" d="M110.608 28.057 82.456 16.396l-11.66-28.152 11.66-28.151Z"/><path fill="none" stroke="#e0e0e0" stroke-linecap="round" stroke-width="21.96852926" d="m138.76-39.907 11.66 28.151"/><path fill="none" stroke-width=".398504" d="m231.08-51.568-28.152 67.964"/><path fill="none" stroke="#e0e0e0" stroke-linecap="round" stroke-width="21.96852926" d="m191.268-11.756 11.66-28.151M259.232-39.907l11.66 28.151M270.892-11.756l-11.66 28.152M259.232 16.396l-28.152 11.66M231.08 28.057l28.152-67.964"/><path fill="#e0e0e0" stroke="#e0e0e0" stroke-width=".398504" d="m259.232-39.907 11.66 28.151-11.66 28.152-28.152 11.66Z"/><path fill="none" stroke-width=".398504" d="m351.552-51.568-28.151 11.66"/><path fill="none" stroke="#e0e0e0" stroke-linecap="round" stroke-width="21.96852926" d="m379.704-39.907 11.66 28.151M391.365-11.756l-11.66 28.152M379.704 16.396l-28.152 11.66M351.552 28.057l-28.151-11.661M323.4 16.396l-11.66-28.152M311.74-11.756l67.964-28.151"/><path fill="#e0e0e0" stroke="#e0e0e0" stroke-width=".398504" d="m379.704-39.907 11.66 28.151-11.66 28.152-28.152 11.66-28.151-11.66-11.66-28.152Z"/><g fill="#fff"><path stroke-width=".398504" d="M-.97-51.568a8.894 8.894 0 1 0-17.789 0 8.894 8.894 0 0 0 17.788 0Zm-8.895 0"/><use xlink:href="#a" x="-9.865" y="-51.568" fill="#000" stroke="none" transform="matrix(1 0 0 1 -2.929 3.975)"/></g><g fill="#fff"><path stroke-width=".398504" d="M27.181-39.907a8.894 8.894 0 1 0-17.788 0 8.894 8.894 0 0 0 17.788 0Zm-8.894 0"/><use xlink:href="#b" x="-9.865" y="-51.568" fill="#000" stroke="none" transform="matrix(1 0 0 1 25.223 15.636)"/></g><g fill="#fff"><path stroke-width=".398504" d="M38.96-11.756a9.012 9.012 0 1 0-18.025 0 9.012 9.012 0 1 0 18.025 0Zm-9.013 0"/><use xlink:href="#c" x="-9.865" y="-51.568" fill="#000" stroke="none" transform="matrix(1 0 0 1 36.883 43.662)"/></g><g fill="#fff"><path stroke-width=".398504" d="M27.26 16.396a8.972 8.972 0 1 0-17.945 0 8.972 8.972 0 1 0 17.944 0Zm-8.973 0"/><use xlink:href="#d" x="-9.865" y="-51.568" fill="#000" stroke="none" transform="matrix(1 0 0 1 25.223 71.999)"/></g><g fill="#fff"><path stroke-width=".398504" d="M-.86 28.057a9.004 9.004 0 1 0-18.01 0 9.004 9.004 0 1 0 18.01 0Zm-9.005 0"/><use xlink:href="#e" x="-9.865" y="-51.568" fill="#000" stroke="none" transform="matrix(1 0 0 1 -2.929 83.468)"/></g><g fill="#fff"><path stroke-width=".398504" d="M-29.005 16.396a9.012 9.012 0 1 0-18.024 0 9.012 9.012 0 1 0 18.024 0Zm-9.012 0"/><use xlink:href="#f" x="-9.865" y="-51.568" fill="#000" stroke="none" transform="matrix(1 0 0 1 -31.08 71.814)"/></g><g fill="#fff"><path stroke-width=".398504" d="M-40.625-11.756a9.052 9.052 0 1 0-18.104 0 9.052 9.052 0 1 0 18.104 0Zm-9.052 0"/><use xlink:href="#g" x="-9.865" y="-51.568" fill="#000" stroke="none" transform="matrix(1 0 0 1 -42.741 43.728)"/></g><g fill="#fff"><path stroke-width=".398504" d="M-29.005-39.907a9.012 9.012 0 1 0-18.024 0 9.012 9.012 0 1 0 18.024 0Zm-9.012 0"/><use xlink:href="#h" x="-9.865" y="-51.568" fill="#000" stroke="none" transform="matrix(1 0 0 1 -31.08 15.51)"/></g><g fill="#fff"><path stroke-width=".398504" d="M119.502-51.568a8.894 8.894 0 1 0-17.788 0 8.894 8.894 0 0 0 17.788 0Zm-8.894 0"/><use xlink:href="#a" x="-9.865" y="-51.568" fill="#000" stroke="none" transform="matrix(1 0 0 1 117.543 3.975)"/></g><g fill="#fff"><path stroke-width=".398504" d="M147.653-39.907a8.894 8.894 0 1 0-17.788 0 8.894 8.894 0 0 0 17.788 0Zm-8.894 0"/><use xlink:href="#b" x="-9.865" y="-51.568" fill="#000" stroke="none" transform="matrix(1 0 0 1 145.695 15.636)"/></g><g fill="#fff"><path stroke-width=".398504" d="M159.432-11.756a9.012 9.012 0 1 0-18.024 0 9.012 9.012 0 1 0 18.024 0Zm-9.012 0"/><use xlink:href="#c" x="-9.865" y="-51.568" fill="#000" stroke="none" transform="matrix(1 0 0 1 157.356 43.662)"/></g><g fill="#fff"><path stroke-width=".398504" d="M147.732 16.396a8.972 8.972 0 1 0-17.945 0 8.972 8.972 0 1 0 17.945 0Zm-8.973 0"/><use xlink:href="#d" x="-9.865" y="-51.568" fill="#000" stroke="none" transform="matrix(1 0 0 1 145.695 71.999)"/></g><g fill="#fff"><path stroke-width=".398504" d="M119.612 28.057a9.004 9.004 0 1 0-18.009 0 9.004 9.004 0 1 0 18.009 0Zm-9.004 0"/><use xlink:href="#e" x="-9.865" y="-51.568" fill="#000" stroke="none" transform="matrix(1 0 0 1 117.543 83.468)"/></g><g fill="#fff"><path stroke-width=".398504" d="M91.468 16.396a9.012 9.012 0 1 0-18.024 0 9.012 9.012 0 1 0 18.024 0Zm-9.012 0"/><use xlink:href="#f" x="-9.865" y="-51.568" fill="#000" stroke="none" transform="matrix(1 0 0 1 89.392 71.814)"/></g><g fill="#fff"><path stroke-width=".398504" d="M79.847-11.756a9.052 9.052 0 1 0-18.104 0 9.052 9.052 0 1 0 18.104 0Zm-9.052 0"/><use xlink:href="#g" x="-9.865" y="-51.568" fill="#000" stroke="none" transform="matrix(1 0 0 1 77.731 43.728)"/></g><g fill="#fff"><path stroke-width=".398504" d="M91.468-39.907a9.012 9.012 0 1 0-18.024 0 9.012 9.012 0 1 0 18.024 0Zm-9.012 0"/><use xlink:href="#h" x="-9.865" y="-51.568" fill="#000" stroke="none" transform="matrix(1 0 0 1 89.392 15.51)"/></g><g fill="#fff"><path stroke-width=".398504" d="M239.974-51.568a8.894 8.894 0 1 0-17.788 0 8.894 8.894 0 0 0 17.788 0Zm-8.894 0"/><use xlink:href="#a" x="-9.865" y="-51.568" fill="#000" stroke="none" transform="matrix(1 0 0 1 238.016 3.975)"/></g><g fill="#fff"><path stroke-width=".398504" d="M268.126-39.907a8.894 8.894 0 1 0-17.788 0 8.894 8.894 0 0 0 17.788 0Zm-8.894 0"/><use xlink:href="#b" x="-9.865" y="-51.568" fill="#000" stroke="none" transform="matrix(1 0 0 1 266.168 15.636)"/></g><g fill="#fff"><path stroke-width=".398504" d="M279.904-11.756a9.012 9.012 0 1 0-18.024 0 9.012 9.012 0 1 0 18.024 0Zm-9.012 0"/><use xlink:href="#c" x="-9.865" y="-51.568" fill="#000" stroke="none" transform="matrix(1 0 0 1 277.828 43.662)"/></g><g fill="#fff"><path stroke-width=".398504" d="M268.204 16.396a8.972 8.972 0 1 0-17.944 0 8.972 8.972 0 1 0 17.944 0Zm-8.972 0"/><use xlink:href="#d" x="-9.865" y="-51.568" fill="#000" stroke="none" transform="matrix(1 0 0 1 266.168 71.999)"/></g><g fill="#fff"><path stroke-width=".398504" d="M240.084 28.057a9.004 9.004 0 1 0-18.008 0 9.004 9.004 0 1 0 18.008 0Zm-9.004 0"/><use xlink:href="#e" x="-9.865" y="-51.568" fill="#000" stroke="none" transform="matrix(1 0 0 1 238.016 83.468)"/></g><g fill="#fff"><path stroke-width=".398504" d="M211.94 16.396a9.012 9.012 0 1 0-18.024 0 9.012 9.012 0 1 0 18.024 0Zm-9.012 0"/><use xlink:href="#f" x="-9.865" y="-51.568" fill="#000" stroke="none" transform="matrix(1 0 0 1 209.864 71.814)"/></g><g fill="#fff"><path stroke-width=".398504" d="M200.32-11.756a9.052 9.052 0 1 0-18.104 0 9.052 9.052 0 1 0 18.103 0Zm-9.052 0"/><use xlink:href="#g" x="-9.865" y="-51.568" fill="#000" stroke="none" transform="matrix(1 0 0 1 198.204 43.728)"/></g><g fill="#fff"><path stroke-width=".398504" d="M211.94-39.907a9.012 9.012 0 1 0-18.024 0 9.012 9.012 0 1 0 18.024 0Zm-9.012 0"/><use xlink:href="#h" x="-9.865" y="-51.568" fill="#000" stroke="none" transform="matrix(1 0 0 1 209.864 15.51)"/></g><g fill="#fff"><path stroke-width=".398504" d="M360.447-51.568a8.894 8.894 0 1 0-17.789 0 8.894 8.894 0 0 0 17.789 0Zm-8.895 0"/><use xlink:href="#a" x="-9.865" y="-51.568" fill="#000" stroke="none" transform="matrix(1 0 0 1 358.488 3.975)"/></g><g fill="#fff"><path stroke-width=".398504" d="M388.598-39.907a8.894 8.894 0 1 0-17.788 0 8.894 8.894 0 0 0 17.788 0Zm-8.894 0"/><use xlink:href="#b" x="-9.865" y="-51.568" fill="#000" stroke="none" transform="matrix(1 0 0 1 386.64 15.636)"/></g><g fill="#fff"><path stroke-width=".398504" d="M400.377-11.756a9.012 9.012 0 1 0-18.024 0 9.012 9.012 0 1 0 18.024 0Zm-9.012 0"/><use xlink:href="#c" x="-9.865" y="-51.568" fill="#000" stroke="none" transform="matrix(1 0 0 1 398.3 43.662)"/></g><g fill="#fff"><path stroke-width=".398504" d="M388.676 16.396a8.972 8.972 0 1 0-17.944 0 8.972 8.972 0 1 0 17.944 0Zm-8.972 0"/><use xlink:href="#d" x="-9.865" y="-51.568" fill="#000" stroke="none" transform="matrix(1 0 0 1 386.64 71.999)"/></g><g fill="#fff"><path stroke-width=".398504" d="M360.557 28.057a9.004 9.004 0 1 0-18.009 0 9.004 9.004 0 1 0 18.009 0Zm-9.005 0"/><use xlink:href="#e" x="-9.865" y="-51.568" fill="#000" stroke="none" transform="matrix(1 0 0 1 358.488 83.468)"/></g><g fill="#fff"><path stroke-width=".398504" d="M332.413 16.396a9.012 9.012 0 1 0-18.024 0 9.012 9.012 0 1 0 18.024 0Zm-9.012 0"/><use xlink:href="#f" x="-9.865" y="-51.568" fill="#000" stroke="none" transform="matrix(1 0 0 1 330.337 71.814)"/></g><g fill="#fff"><path stroke-width=".398504" d="M320.792-11.756a9.052 9.052 0 1 0-18.104 0 9.052 9.052 0 1 0 18.104 0Zm-9.052 0"/><use xlink:href="#g" x="-9.865" y="-51.568" fill="#000" stroke="none" transform="matrix(1 0 0 1 318.676 43.728)"/></g><g fill="#fff"><path stroke-width=".398504" d="M332.413-39.907a9.012 9.012 0 1 0-18.024 0 9.012 9.012 0 1 0 18.024 0Zm-9.012 0"/><use xlink:href="#h" x="-9.865" y="-51.568" fill="#000" stroke="none" transform="matrix(1 0 0 1 330.337 15.51)"/></g></g></svg>