<svg xmlns="http://www.w3.org/2000/svg" xmlns:xlink="http://www.w3.org/1999/xlink" width="92.06pt" height="172.05pt" viewBox="0 0 92.06 172.05"><defs><path id="q" d="M3.23-6.638c.286.455.621.79.92 1.017.73.55 1.46.67 1.483.67.144 0 .144-.132.144-.228 0-.191-.012-.203-.275-.287a3.2 3.2 0 0 1-1.555-.957c-.61-.657-.754-1.375-.825-1.758a.13.13 0 0 0-.132-.107c-.108 0-.12.071-.144.215-.275 1.328-1.124 2.26-2.44 2.631-.179.06-.203.06-.203.263 0 .096 0 .228.144.228.036 0 .741-.132 1.423-.622.395-.3.718-.658.98-1.065V1.89c0 .215 0 .43.24.43s.24-.215.24-.43z"/><path id="r" d="M3.23-7.87c0-.215 0-.43-.24-.43s-.24.215-.24.43V.658A3.9 3.9 0 0 0 1.83-.36c-.73-.55-1.46-.67-1.483-.67-.144 0-.144.132-.144.228 0 .191.012.203.275.287.814.227 1.28.658 1.555.957.61.657.754 1.375.825 1.746.012.06.048.12.132.12.108 0 .12-.084.144-.192C3.397.765 4.258-.167 5.574-.538c.179-.06.203-.06.203-.263 0-.096 0-.228-.144-.228-.036 0-.741.132-1.423.622A4.2 4.2 0 0 0 3.23.658z"/><path id="j" d="M5.669-1.064v-.67h-.263v.67c0 .681-.287.777-.455.777-.454 0-.454-.634-.454-.813v-2.093c0-.646 0-1.125-.526-1.591-.419-.383-.957-.55-1.483-.55-.981 0-1.735.646-1.735 1.423 0 .347.228.514.503.514.287 0 .49-.203.49-.49 0-.49-.43-.49-.61-.49.275-.503.85-.718 1.328-.718.55 0 1.256.455 1.256 1.53v.48C1.316-3.05.407-2.046.407-1.126c0 .946 1.1 1.245 1.83 1.245A1.63 1.63 0 0 0 3.79-.933c.048.562.419.993.933.993.251 0 .945-.168.945-1.124m-1.95-.622C3.72-.514 2.847-.12 2.333-.12c-.586 0-1.076-.43-1.076-1.004 0-1.579 2.033-1.722 2.464-1.746z"/><path id="n" d="M4.856-1.423c0-.108-.084-.108-.12-.108-.107 0-.12.036-.155.18-.263.849-.91 1.207-1.555 1.207-.73 0-1.698-.633-1.698-2.451 0-1.986 1.016-2.476 1.614-2.476.455 0 1.112.18 1.388.646-.144 0-.587 0-.587.49 0 .287.204.49.49.49.276 0 .503-.167.503-.514 0-.801-.837-1.375-1.806-1.375C1.53-5.334.42-4.09.42-2.584.419-1.051 1.567.12 2.919.12c1.578 0 1.937-1.436 1.937-1.543"/><path id="i" d="M4.868-1.423c0-.072-.06-.12-.132-.12-.096 0-.12.06-.143.12C4.282-.42 3.48-.143 2.978-.143s-1.71-.335-1.71-2.404v-.228H4.58c.263 0 .287 0 .287-.227 0-1.208-.646-2.332-2.093-2.332C1.41-5.334.359-4.102.359-2.62.359-1.041 1.579.12 2.906.12c1.424 0 1.962-1.292 1.962-1.543m-.742-1.579H1.28c.095-1.878 1.148-2.093 1.483-2.093 1.28 0 1.351 1.686 1.363 2.093"/><path id="h" d="M8.276 0v-.347h-.239c-.861 0-.897-.12-.897-.562v-6.35c0-.443.036-.563.897-.563h.24v-.347c-.288.024-1.268.024-1.615.024-.36 0-1.34 0-1.627-.024v.347h.24c.86 0 .896.12.896.562v2.835H2.595V-7.26c0-.442.036-.562.897-.562h.24v-.347c-.288.024-1.268.024-1.615.024-.359 0-1.34 0-1.627-.024v.347h.24c.86 0 .897.12.897.562v6.351c0 .443-.036.562-.897.562H.49V0c.287-.024 1.268-.024 1.615-.024.359 0 1.34 0 1.627.024v-.347h-.24c-.86 0-.897-.12-.897-.562v-3.17h3.576v3.17c0 .443-.036.562-.897.562h-.239V0c.287-.024 1.268-.024 1.615-.024.359 0 1.34 0 1.626.024"/><path id="o" d="M5.98 0v-.347c-.323 0-.694 0-1.029-.49L3.35-3.17l-.084-.12c0-.036.754-.682.85-.777.824-.718 1.35-.73 1.602-.742v-.347c-.24.024-.55.024-.91.024-.31 0-.92 0-1.195-.024v.347c.203.012.347.12.347.311 0 .24-.251.455-.251.455l-1.71 1.506V-8.3L.334-8.17v.347c.813 0 .909.084.909.67v6.267c0 .538-.132.538-.91.538V0c.336-.024.91-.024 1.269-.024s.933 0 1.267.024v-.347c-.765 0-.909 0-.909-.538v-1.268l.766-.67 1.148 1.65c.18.252.263.384.263.551 0 .215-.167.275-.418.275V0c.299-.024.885-.024 1.208-.024.514 0 .538 0 1.052.024"/><path id="k" d="M6.076-2.583c0-1.52-1.125-2.691-2.428-2.691-1.053 0-1.615.753-1.65.801v-.801l-1.663.131v.347c.837 0 .909.084.909.61v5.621c0 .538-.132.538-.91.538v.347c.312-.024.958-.024 1.293-.024.346 0 .992 0 1.303.024v-.347c-.765 0-.909 0-.909-.538v-2.08c.216.298.706.765 1.471.765 1.376 0 2.584-1.16 2.584-2.703m-.91 0c0 1.423-.813 2.463-1.733 2.463a1.4 1.4 0 0 1-.957-.382c-.275-.275-.455-.515-.455-.85v-2.463c0-.227 0-.24.132-.43a1.72 1.72 0 0 1 1.4-.766c.896 0 1.614 1.088 1.614 2.428"/><path id="p" d="M2.2-.586a.58.58 0 0 0-.573-.574.577.577 0 0 0-.586.574.58.58 0 1 0 1.16 0"/><path id="l" d="M5.848-2.2c0-.73-.275-1.268-.598-1.663-.442-.538-.98-.67-1.447-.79l-1.315-.334c-.61-.156-1.148-.754-1.148-1.52 0-.836.67-1.59 1.602-1.59 1.962 0 2.225 1.938 2.296 2.452.024.143.024.191.144.191.132 0 .132-.06.132-.275v-2.416c0-.215 0-.275-.12-.275-.036 0-.084 0-.167.156l-.395.73c-.574-.742-1.364-.886-1.89-.886A2.28 2.28 0 0 0 .646-6.135c0 .574.203 1.1.646 1.578.418.467.837.574 1.686.79.419.095 1.076.263 1.244.334.562.276.933.921.933 1.591 0 .897-.634 1.746-1.627 1.746-.538 0-1.28-.131-1.866-.646C.97-1.363.921-2.225.91-2.619c-.012-.096-.132-.096-.132-.096-.131 0-.131.06-.131.275v2.416c0 .215 0 .275.12.275.071 0 .083-.024.167-.167l.395-.718c.43.479 1.184.885 2.212.885C4.88.251 5.848-.885 5.848-2.2"/><path id="m" d="M3.899-1.483v-.682h-.263v.658c0 .861-.347 1.363-.813 1.363-.814 0-.814-1.112-.814-1.315v-3.349h1.687v-.347H2.009v-2.2h-.263c-.012 1.124-.442 2.272-1.53 2.308v.24h1.016v3.324C1.232-.155 2.117.12 2.75.12c.753 0 1.148-.742 1.148-1.603"/><path id="g" d="M6.088-.347c0-.347-.311-.347-.479-.347-.31 0-.55-.024-.717-.095v-2.608c0-.909-.682-1.865-2.297-1.865-.502 0-1.662 0-1.662.825 0 .323.227.502.49.502.072 0 .467-.024.479-.526 0-.06.012-.072.263-.096.143-.012.299-.012.442-.012.275 0 .682 0 1.077.3.43.334.43.669.43 1.016-.705.024-1.4.072-2.14.31C1.374-2.738.61-2.307.61-1.494c0 .85.753 1.567 1.866 1.567.382 0 1.124-.06 1.746-.49.24.394.837.418 1.292.418.287 0 .574 0 .574-.347M4.114-1.579c0 .275 0 .527-.49.754-.419.203-.98.203-1.017.203-.705 0-1.22-.383-1.22-.873 0-.706 1.28-1.112 2.727-1.112z"/><path id="f" d="M5.968-.347c0-.347-.31-.347-.478-.347H5v-6.123c0-.371-.072-.49-.48-.49h-.788c-.168 0-.479 0-.479.346s.311.347.479.347h.49v1.985c-.191-.19-.682-.598-1.411-.598C1.543-5.227.443-4.078.443-2.57c0 1.47 1.028 2.643 2.26 2.643.777 0 1.292-.467 1.519-.73 0 .503 0 .658.478.658h.79c.167 0 .478 0 .478-.347M4.222-2.272c0 .67-.55 1.65-1.447 1.65-.861 0-1.555-.873-1.555-1.95 0-1.148.813-1.96 1.662-1.96.778 0 1.34.705 1.34 1.327z"/><path id="d" d="M5.454-1.304c0-.071-.024-.335-.395-.335-.227 0-.299.084-.37.264-.3.693-1.077.753-1.304.753-.993 0-1.782-.753-1.914-1.674h3.504c.252 0 .479 0 .479-.443 0-1.4-.79-2.523-2.285-2.523-1.387 0-2.5 1.196-2.5 2.655A2.667 2.667 0 0 0 3.35.072c1.543 0 2.105-1.065 2.105-1.376m-.79-1.65H1.483c.156-1.017.933-1.615 1.686-1.615 1.196 0 1.448 1.017 1.495 1.615"/><path id="b" d="M3.755-.67a.68.68 0 0 0-.67-.681.674.674 0 0 0-.681.681c0 .359.31.67.67.67a.68.68 0 0 0 .681-.67"/><path id="c" d="M5.262-1.471c0-.24 0-.502-.394-.502-.383 0-.383.263-.383.514-.012.717-.694.837-.969.837-.933 0-.933-.598-.933-.885v-2.954h1.938c.167 0 .478 0 .478-.347s-.31-.347-.478-.347H2.583v-.98c0-.216 0-.49-.382-.49-.395 0-.395.274-.395.49v.98H.789c-.167 0-.49 0-.49.347s.311.347.478.347h1.029v3.014c0 1.112.765 1.519 1.627 1.519.645 0 1.83-.323 1.83-1.543"/><path id="e" d="M5.813-.347c0-.347-.311-.347-.479-.347h-.418L3.373-2.655l1.375-1.806h.419c.167 0 .478 0 .478-.347s-.31-.347-.478-.347H3.839c-.167 0-.478 0-.478.347s.287.347.574.347L3.038-3.23l-.921-1.232c.275 0 .562 0 .562-.347s-.31-.347-.478-.347H.873c-.167 0-.478 0-.478.347s.31.347.478.347h.419l1.423 1.806L1.22-.694H.813c-.167 0-.49 0-.49.347S.646 0 .813 0H2.13c.167 0 .478 0 .478-.347s-.275-.347-.598-.347L3.038-2.2 4.114-.694c-.299 0-.586 0-.586.347S3.84 0 4.007 0h1.327c.168 0 .479 0 .479-.347"/><path id="a" d="M5.171-3.328c0-2.029-1.112-3.458-2.313-3.458-1.221 0-2.312 1.462-2.312 3.448C.546-1.31 1.658.12 2.858.12c1.222 0 2.313-1.462 2.313-3.448m-.752-.12c0 1.615-.71 2.903-1.56 2.903s-1.56-1.288-1.56-2.903c0-1.592.752-2.673 1.56-2.673.796 0 1.56 1.07 1.56 2.673"/></defs><g fill="none" stroke="#000" stroke-miterlimit="10" stroke-width=".3985"><path d="M23.827 153.274V11.54h56.694v141.734ZM23.827 130.597h56.694M23.827 113.588h56.694M23.827 107.92h56.694M23.827 90.911h56.694M23.827 85.242h56.694M23.827 68.234h56.694M23.827 34.217h56.694M23.827 17.21h56.694"/></g><use xlink:href="#a" x="-48.176974" y="81.276705" transform="translate(63.496 75.337)scale(1.00008)"/><g transform="translate(84.954 44.098)scale(1.0004)"><use xlink:href="#b" x="-48.192341" y="81.30263"/><use xlink:href="#c" x="-42.032939" y="81.30263"/><use xlink:href="#d" x="-35.873541" y="81.30263"/><use xlink:href="#e" x="-29.714139" y="81.30263"/><use xlink:href="#c" x="-23.554738" y="81.30263"/></g><g transform="translate(84.954 21.762)scale(1.0004)"><use xlink:href="#b" x="-48.192341" y="81.30263"/><use xlink:href="#f" x="-42.032939" y="81.30263"/><use xlink:href="#g" x="-35.873541" y="81.30263"/><use xlink:href="#c" x="-29.714139" y="81.30263"/><use xlink:href="#g" x="-23.554738" y="81.30263"/></g><g transform="translate(87.178 -1.609)scale(1.0004)"><use xlink:href="#h" x="-48.192341" y="81.30263"/><use xlink:href="#i" x="-39.413704" y="81.30263"/><use xlink:href="#j" x="-34.211104" y="81.30263"/><use xlink:href="#k" x="-28.350703" y="81.30263"/></g><g transform="translate(86.359 -51.474)scale(1.0004)"><use xlink:href="#l" x="-48.192341" y="81.30263"/><use xlink:href="#m" x="-41.686104" y="81.30263"/><use xlink:href="#j" x="-37.129341" y="81.30263"/><use xlink:href="#n" x="-31.268943" y="81.30263"/><use xlink:href="#o" x="-26.377303" y="81.30263"/></g><g transform="translate(98.721 65.384)scale(1.0004)"><use xlink:href="#p" x="-48.192341" y="73.32943"/><use xlink:href="#p" x="-48.192341" y="77.31603"/><use xlink:href="#p" x="-48.192341" y="81.302638"/></g><use xlink:href="#q" x="-48.192341" y="81.30263" transform="translate(97.358 -18.552)scale(1.0004)"/><use xlink:href="#r" x="-48.192341" y="81.30263" transform="translate(97.358 -35.56)scale(1.0004)"/></svg>