<svg xmlns="http://www.w3.org/2000/svg" xmlns:xlink="http://www.w3.org/1999/xlink" width="279.78pt" height="107.14pt" viewBox="0 0 279.78 107.14"><defs><path id="G" d="M6.088-.347c0-.347-.311-.347-.479-.347-.31 0-.55-.024-.717-.095v-2.608c0-.909-.682-1.865-2.297-1.865-.502 0-1.662 0-1.662.825 0 .323.227.502.49.502.072 0 .467-.024.479-.526 0-.06.012-.072.263-.096.143-.012.299-.012.442-.012.275 0 .682 0 1.077.3.43.334.43.669.43 1.016-.705.024-1.4.072-2.14.31C1.374-2.738.61-2.307.61-1.494c0 .85.753 1.567 1.866 1.567.382 0 1.124-.06 1.746-.49.24.394.837.418 1.292.418.287 0 .574 0 .574-.347M4.114-1.579c0 .275 0 .527-.49.754-.419.203-.98.203-1.017.203-.705 0-1.22-.383-1.22-.873 0-.706 1.28-1.112 2.727-1.112z"/><path id="x" d="M5.454-1.304c0-.071-.024-.335-.395-.335-.227 0-.299.084-.37.264-.3.693-1.077.753-1.304.753-.993 0-1.782-.753-1.914-1.674h3.504c.252 0 .479 0 .479-.443 0-1.4-.79-2.523-2.285-2.523-1.387 0-2.5 1.196-2.5 2.655A2.667 2.667 0 0 0 3.35.072c1.543 0 2.105-1.065 2.105-1.376m-.79-1.65H1.483c.156-1.017.933-1.615 1.686-1.615 1.196 0 1.448 1.017 1.495 1.615"/><path id="O" d="M5.49-3.648c0-.394-.371-.394-.539-.394H1.196c-.155 0-.538 0-.538.382 0 .395.37.395.538.395h3.755c.156 0 .539 0 .539-.383"/><path id="z" d="M5.454-2.583c0-1.495-1.089-2.68-2.38-2.68S.694-4.077.694-2.582c0 1.507 1.1 2.655 2.38 2.655s2.38-1.148 2.38-2.655m-.778-.084c0 1.148-.741 2.045-1.602 2.045S1.47-1.53 1.47-2.667c0-1.112.766-1.902 1.603-1.902s1.602.79 1.602 1.902"/><path id="F" d="M5.179-.347c0-.347-.323-.347-.49-.347H3.635V-6.96c0-.18 0-.49-.347-.49-.203 0-.275.108-.347.263-.227.514-.622 1.148-1.256 1.196-.179.012-.43.036-.43.347 0 .203.12.347.383.347.67 0 1.184-.503 1.22-.527v5.131H1.805c-.167 0-.49 0-.49.347s.323.347.49.347h2.882c.168 0 .49 0 .49-.347"/><path id="M" d="M5.705-2.583c0-1.471-1.005-2.644-2.249-2.644-.873 0-1.423.527-1.53.646 0-.394 0-.574-.479-.574h-.79c-.167 0-.478 0-.478.347s.311.347.479.347h.49V1.96h-.49c-.168 0-.479 0-.479.347s.311.347.479.347h1.758c.167 0 .478 0 .478-.347s-.31-.347-.478-.347h-.49V-.598c.287.323.73.67 1.399.67 1.268 0 2.38-1.136 2.38-2.655m-.777 0c0 1.148-.814 1.961-1.663 1.961-.897 0-1.34-1.017-1.34-1.615v-.944c0-.682.67-1.352 1.448-1.352.86 0 1.555.873 1.555 1.95"/><path id="y" d="M5.717-4.52c0-.515-.502-.707-1.1-.707-.802 0-1.483.36-2.034 1.029v-.466c0-.371-.071-.49-.478-.49H.897c-.167 0-.478 0-.478.346s.31.347.478.347h.909v3.767H.897c-.167 0-.478 0-.478.347S.729 0 .897 0h2.942c.168 0 .479 0 .479-.347s-.311-.347-.479-.347H2.583V-2.26c0-1.424 1.005-2.273 2.022-2.273.06 0 .131 0 .191.012.036.43.37.467.454.467a.45.45 0 0 0 .467-.467"/><path id="L" d="M5.37-1.483c0-1.244-1.483-1.495-2.057-1.579-1.053-.18-1.77-.299-1.77-.801 0-.323.37-.706 1.495-.706 1.136 0 1.184.538 1.208.85.024.239.239.275.383.275.394 0 .394-.216.394-.455v-.909c0-.191 0-.454-.335-.454-.287 0-.358.287-.358.287-.479-.287-1.029-.287-1.268-.287-1.95 0-2.213.992-2.213 1.399 0 .49.287.825.694 1.052.383.216.73.275 1.71.431.467.084 1.423.24 1.423.897 0 .442-.406.861-1.519.861-.765 0-1.267-.299-1.518-1.16-.06-.167-.096-.299-.395-.299-.395 0-.395.227-.395.466v1.232c0 .192 0 .455.335.455.144 0 .251 0 .43-.49.55.454 1.173.49 1.543.49C5.37.072 5.37-1.363 5.37-1.483"/><path id="P" d="M5.633-6.96c0-.348-.31-.348-.478-.348h-3.9s-.071-.179-.346-.179c-.395 0-.395.263-.395.49v.431c0 .215 0 .49.383.49.395 0 .395-.25.395-.538h3.181C2.141-4.03 2.009-1.172 2.009-.394c0 .155 0 .538.395.538.37 0 .383-.371.383-.539.036-2.344 1.016-4.568 2.667-6.243.131-.12.18-.167.18-.323"/><path id="K" d="M5.537-.49v-.252c0-.215 0-.49-.382-.49-.395 0-.395.251-.395.538H1.878L4.162-2.63c.168-.144 1.375-1.172 1.375-2.5 0-1.363-1.124-2.32-2.619-2.32C1.531-7.451.61-6.411.61-5.406a.49.49 0 0 0 .49.538.48.48 0 0 0 .479-.49c0-.227-.084-.3-.144-.347.168-.634.718-1.052 1.411-1.052 1.017 0 1.914.586 1.914 1.626 0 .933-.706 1.65-1.351 2.213L.777-.634C.646-.526.61-.49.61-.347.61 0 .933 0 1.1 0h4.174c.263-.072.263-.311.263-.49"/><path id="u" d="M5.813-.347c0-.347-.311-.347-.479-.347h-.418L3.373-2.655l1.375-1.806h.419c.167 0 .478 0 .478-.347s-.31-.347-.478-.347H3.839c-.167 0-.478 0-.478.347s.287.347.574.347L3.038-3.23l-.921-1.232c.275 0 .562 0 .562-.347s-.31-.347-.478-.347H.873c-.167 0-.478 0-.478.347s.31.347.478.347h.419l1.423 1.806L1.22-.694H.813c-.167 0-.49 0-.49.347S.646 0 .813 0H2.13c.167 0 .478 0 .478-.347s-.275-.347-.598-.347L3.038-2.2 4.114-.694c-.299 0-.586 0-.586.347S3.84 0 4.007 0h1.327c.168 0 .479 0 .479-.347"/><path id="w" d="M5.573-.49v-.61c0-.216 0-.49-.382-.49-.395 0-.395.262-.395.49v.406H1.543l3.803-3.671c.144-.132.191-.18.191-.395 0-.395-.263-.395-.49-.395H1.064c-.394 0-.49.096-.49.49v.479c0 .215 0 .49.383.49.394 0 .394-.263.394-.49v-.275h3.026L.574-.79C.431-.658.383-.61.383-.395.383 0 .646 0 .873 0h4.222c.395 0 .478-.108.478-.49"/><path id="v" d="M5.55-3.648c0-2.224-1.185-3.803-2.476-3.803C1.77-7.451.598-5.848.598-3.66.598-1.435 1.782.144 3.074.144c1.303 0 2.475-1.603 2.475-3.792m-.778-.131c0 1.77-.753 3.229-1.698 3.229S1.375-1.997 1.375-3.78s.826-2.977 1.699-2.977S4.772-5.561 4.772-3.78"/><path id="h" d="M8.396 0v-.347c-.777 0-.993 0-1.16-.49L4.629-8.324c-.048-.144-.072-.215-.24-.215s-.191.035-.25.227l-2.5 7.152C1.47-.67 1.136-.36.37-.347V0l1.148-.024c.335 0 .909 0 1.22.024v-.347c-.502-.012-.801-.263-.801-.598 0-.072 0-.096.06-.251l.55-1.59H5.56L6.22-.91c.06.144.06.167.06.203 0 .36-.61.36-.909.36V0c.275-.024 1.22-.024 1.555-.024s1.196 0 1.47.024M5.442-3.134H2.667l1.387-3.982z"/><path id="l" d="M5.669-1.064v-.67h-.263v.67c0 .681-.287.777-.455.777-.454 0-.454-.634-.454-.813v-2.093c0-.646 0-1.125-.526-1.591-.419-.383-.957-.55-1.483-.55-.981 0-1.735.646-1.735 1.423 0 .347.228.514.503.514.287 0 .49-.203.49-.49 0-.49-.43-.49-.61-.49.275-.503.85-.718 1.328-.718.55 0 1.256.455 1.256 1.53v.48C1.316-3.05.407-2.046.407-1.126c0 .946 1.1 1.245 1.83 1.245A1.63 1.63 0 0 0 3.79-.933c.048.562.419.993.933.993.251 0 .945-.168.945-1.124m-1.95-.622C3.72-.514 2.847-.12 2.333-.12c-.586 0-1.076-.43-1.076-1.004 0-1.579 2.033-1.722 2.464-1.746z"/><path id="i" d="M7.63-2.189c0-.968-.873-1.925-2.296-2.08 1.136-.216 1.962-.981 1.962-1.878 0-1.029-1.04-2.022-2.608-2.022H.514v.347h.24c.86 0 .896.12.896.562v6.351c0 .443-.035.562-.897.562H.514V0h4.497c1.543 0 2.62-1.04 2.62-2.189M6.243-6.147c0 .789-.622 1.782-1.95 1.782H2.56v-2.978c0-.395.024-.479.55-.479h1.508c1.196 0 1.626 1.029 1.626 1.675m.3 3.946c0 .97-.73 1.854-1.903 1.854H3.11c-.527 0-.55-.084-.55-.478v-3.301h2.236c1.148 0 1.746 1.004 1.746 1.925"/><path id="I" d="M7.798-2.775c0-.131 0-.203-.132-.203-.12 0-.131.06-.131.143C7.427-.933 6.04-.095 4.88-.095c-.838 0-3.122-.503-3.122-3.995 0-3.457 2.249-3.983 3.11-3.983 1.256 0 2.356 1.064 2.595 2.858.024.144.024.18.167.18.168 0 .168-.036.168-.275v-2.835c0-.215 0-.275-.12-.275-.071 0-.083.024-.155.144l-.586.945c-.538-.67-1.352-1.089-2.213-1.089C2.536-8.42.646-6.53.646-4.09.646-1.615 2.559.25 4.724.25c1.962 0 3.074-1.71 3.074-3.026"/><path id="o" d="M4.856-1.423c0-.108-.084-.108-.12-.108-.107 0-.12.036-.155.18-.263.849-.91 1.207-1.555 1.207-.73 0-1.698-.633-1.698-2.451 0-1.986 1.016-2.476 1.614-2.476.455 0 1.112.18 1.388.646-.144 0-.587 0-.587.49 0 .287.204.49.49.49.276 0 .503-.167.503-.514 0-.801-.837-1.375-1.806-1.375C1.53-5.334.42-4.09.42-2.584.419-1.051 1.567.12 2.919.12c1.578 0 1.937-1.436 1.937-1.543"/><path id="n" d="M8.288-4.007c0-2.308-1.614-4.162-3.6-4.162H.502v.347h.24c.86 0 .897.12.897.562v6.351c0 .443-.036.562-.897.562h-.24V0h4.186c1.998 0 3.6-1.794 3.6-4.007M7.2-4.019c0 .67-.012 1.794-.694 2.68-.394.502-1.112.992-2.117.992H3.134c-.527 0-.55-.084-.55-.478v-6.518c0-.395.023-.479.55-.479h1.255c.993 0 1.782.479 2.273 1.268.538.85.538 2.057.538 2.535"/><path id="B" d="M6.16 0v-.347c-.814 0-.91-.084-.91-.67V-8.3l-1.662.131v.347c.813 0 .909.084.909.67v2.643a1.86 1.86 0 0 0-1.495-.765C1.615-5.274.419-4.102.419-2.571c0 1.519 1.136 2.69 2.451 2.69.91 0 1.436-.597 1.603-.825V.12zM4.472-1.4c0 .216 0 .252-.167.515-.287.419-.778.765-1.376.765-.31 0-1.602-.12-1.602-2.44 0-.86.143-1.339.406-1.734.24-.37.718-.741 1.316-.741.741 0 1.16.538 1.28.73.143.203.143.227.143.442z"/><path id="b" d="M4.868-1.423c0-.072-.06-.12-.132-.12-.096 0-.12.06-.143.12C4.282-.42 3.48-.143 2.978-.143s-1.71-.335-1.71-2.404v-.228H4.58c.263 0 .287 0 .287-.227 0-1.208-.646-2.332-2.093-2.332C1.41-5.334.359-4.102.359-2.62.359-1.041 1.579.12 2.906.12c1.424 0 1.962-1.292 1.962-1.543m-.742-1.579H1.28c.095-1.878 1.148-2.093 1.483-2.093 1.28 0 1.351 1.686 1.363 2.093"/><path id="c" d="M5.681-4.856a.56.56 0 0 0-.586-.55c-.622 0-1.088.383-1.256.562a2 2 0 0 0-1.232-.43C1.531-5.274.73-4.461.73-3.54c0 .682.418 1.124.538 1.232-.144.18-.359.526-.359.992 0 .694.419.993.514 1.053-.55.155-1.1.586-1.1 1.208 0 .825 1.124 1.507 2.595 1.507 1.423 0 2.608-.634 2.608-1.531 0-.3-.084-1.005-.802-1.375-.61-.311-1.208-.311-2.236-.311-.73 0-.814 0-1.029-.228a.88.88 0 0 1-.227-.598c0-.203.072-.406.191-.574.562.371 1.04.371 1.172.371 1.077 0 1.878-.813 1.878-1.734 0-.323-.096-.778-.478-1.16.466-.479 1.028-.479 1.088-.479.048 0 .108 0 .155.024-.12.048-.179.168-.179.3 0 .167.12.31.311.31.096 0 .311-.06.311-.323M3.648-3.54c0 .215 0 .705-.204 1.028a1.02 1.02 0 0 1-.837.467c-1.052 0-1.052-1.208-1.052-1.483 0-.215 0-.706.203-1.029a1.02 1.02 0 0 1 .837-.466c1.053 0 1.053 1.208 1.053 1.483M4.939.933c0 .706-.908 1.268-2.009 1.268C1.782 2.2.91 1.615.91.933c0-.096.024-.562.478-.873.263-.168.371-.168 1.208-.168.993 0 2.344 0 2.344 1.04"/><path id="A" d="M8.276 0v-.347h-.239c-.861 0-.897-.12-.897-.562v-6.35c0-.443.036-.563.897-.563h.24v-.347c-.288.024-1.268.024-1.615.024-.36 0-1.34 0-1.627-.024v.347h.24c.86 0 .896.12.896.562v2.835H2.595V-7.26c0-.442.036-.562.897-.562h.24v-.347c-.288.024-1.268.024-1.615.024-.359 0-1.34 0-1.627-.024v.347h.24c.86 0 .897.12.897.562v6.351c0 .443-.036.562-.897.562H.49V0c.287-.024 1.268-.024 1.615-.024.359 0 1.34 0 1.627.024v-.347h-.24c-.86 0-.897-.12-.897-.562v-3.17h3.576v3.17c0 .443-.036.562-.897.562h-.239V0c.287-.024 1.268-.024 1.615-.024.359 0 1.34 0 1.626.024"/><path id="C" d="M3.241-2.26v-.646H.131v.646z"/><path id="j" d="M3.791 0v-.347h-.263c-.897 0-.933-.12-.933-.562v-6.35c0-.443.036-.563.933-.563h.263v-.347c-.287.024-1.315.024-1.674.024s-1.4 0-1.686-.024v.347h.263c.897 0 .933.12.933.562v6.351c0 .443-.036.562-.933.562H.43V0c.287-.024 1.315-.024 1.674-.024s1.4 0 1.686.024"/><path id="d" d="M2.882 0v-.347c-.777 0-.825-.06-.825-.526v-4.401l-1.626.131v.347c.765 0 .873.072.873.658v3.253c0 .538-.132.538-.91.538V0c.336-.024.91-.024 1.256-.024.132 0 .826 0 1.232.024m-.67-7.224a.58.58 0 1 0-.586.574.576.576 0 0 0 .587-.574"/><path id="N" d="M5.98 0v-.347c-.323 0-.694 0-1.029-.49L3.35-3.17l-.084-.12c0-.036.754-.682.85-.777.824-.718 1.35-.73 1.602-.742v-.347c-.24.024-.55.024-.91.024-.31 0-.92 0-1.195-.024v.347c.203.012.347.12.347.311 0 .24-.251.455-.251.455l-1.71 1.506V-8.3L.334-8.17v.347c.813 0 .909.084.909.67v6.267c0 .538-.132.538-.91.538V0c.336-.024.91-.024 1.269-.024s.933 0 1.267.024v-.347c-.765 0-.909 0-.909-.538v-1.268l.766-.67 1.148 1.65c.18.252.263.384.263.551 0 .215-.167.275-.418.275V0c.299-.024.885-.024 1.208-.024.514 0 .538 0 1.052.024"/><path id="J" d="M2.966 0v-.347c-.765 0-.909 0-.909-.538V-8.3L.395-8.17v.347c.813 0 .909.084.909.67v6.267c0 .538-.132.538-.91.538V0c.336-.024.922-.024 1.28-.024s.957 0 1.292.024"/><path id="m" d="M9.484 0v-.347c-.598 0-.897 0-.909-.359v-2.2c0-1.113 0-1.447-.275-1.83-.347-.467-.909-.538-1.315-.538-.993 0-1.495.717-1.687 1.184-.167-.921-.813-1.184-1.566-1.184-1.16 0-1.615.992-1.71 1.232h-.013v-1.232l-1.626.131v.347c.813 0 .909.084.909.67v3.241c0 .538-.132.538-.91.538V0c.312-.024.958-.024 1.292-.024.347 0 .993 0 1.304.024v-.347c-.765 0-.909 0-.909-.538V-3.11c0-1.255.825-1.925 1.567-1.925s.909.61.909 1.34v2.81c0 .538-.132.538-.91.538V0c.312-.024.958-.024 1.293-.024.346 0 .992 0 1.303.024v-.347c-.765 0-.909 0-.909-.538V-3.11c0-1.255.825-1.925 1.567-1.925s.909.61.909 1.34v2.81c0 .538-.132.538-.909.538V0c.31-.024.957-.024 1.292-.024.346 0 .992 0 1.303.024"/><path id="k" d="M8.276-7.822v-.347c-.31.024-.945.024-1.28.024s-.968 0-1.28-.024v.347c1.137 0 1.137.562 1.137.91v5.226l-4.15-6.315c-.108-.156-.12-.168-.383-.168H.49v.347c.515 0 .814 0 1.137.084v6.482c0 .347 0 .91-1.137.91V0c.311-.024.945-.024 1.28-.024s.969 0 1.28.024v-.347c-1.136 0-1.136-.562-1.136-.909v-6.29c.095.095.095.119.203.262L6.78-.179c.12.167.132.179.216.179.107 0 .131-.048.143-.072v-6.84c0-.348 0-.91 1.136-.91"/><path id="r" d="M6.231 0v-.347c-.598 0-.897 0-.909-.359v-2.2c0-1.113 0-1.447-.275-1.83-.347-.467-.909-.538-1.315-.538-1.16 0-1.615.992-1.71 1.232h-.013v-1.232l-1.626.131v.347c.813 0 .909.084.909.67v3.241c0 .538-.132.538-.91.538V0c.312-.024.958-.024 1.292-.024.347 0 .993 0 1.304.024v-.347c-.765 0-.909 0-.909-.538V-3.11c0-1.255.825-1.925 1.567-1.925s.909.61.909 1.34v2.81c0 .538-.132.538-.91.538V0c.312-.024.958-.024 1.293-.024.346 0 .992 0 1.303.024"/><path id="q" d="M5.49-2.56c0-1.542-1.172-2.774-2.56-2.774C1.495-5.334.36-4.066.36-2.56.359-1.03 1.555.12 2.919.12c1.41 0 2.57-1.172 2.57-2.68m-.91-.107c0 .419 0 1.16-.31 1.722a1.56 1.56 0 0 1-1.34.801c-.442 0-.98-.19-1.327-.777-.323-.538-.335-1.244-.335-1.746 0-.455 0-1.184.37-1.722a1.53 1.53 0 0 1 1.28-.706c.467 0 .969.215 1.292.682.37.55.37 1.303.37 1.746"/><path id="p" d="M6.076-2.583c0-1.52-1.125-2.691-2.428-2.691-1.053 0-1.615.753-1.65.801v-.801l-1.663.131v.347c.837 0 .909.084.909.61v5.621c0 .538-.132.538-.91.538v.347c.312-.024.958-.024 1.293-.024.346 0 .992 0 1.303.024v-.347c-.765 0-.909 0-.909-.538v-2.08c.216.298.706.765 1.471.765 1.376 0 2.584-1.16 2.584-2.703m-.91 0c0 1.423-.813 2.463-1.733 2.463a1.4 1.4 0 0 1-.957-.382c-.275-.275-.455-.515-.455-.85v-2.463c0-.227 0-.24.132-.43a1.72 1.72 0 0 1 1.4-.766c.896 0 1.614 1.088 1.614 2.428"/><path id="a" d="M8.575-1.04c0-.072 0-.18-.131-.18-.12 0-.12.072-.132.191-.06.718-.406 1.041-.79 1.041-.55 0-.669-.562-.765-1.196l-.12-.897c-.083-.598-.13-.98-.49-1.352-.131-.131-.442-.454-1.1-.633 1.184-.275 2.105-1.029 2.105-1.95 0-1.16-1.351-2.153-3.074-2.153H.502v.347h.24c.86 0 .897.12.897.562v6.351c0 .443-.036.562-.897.562h-.24V0c.275-.024 1.256-.024 1.603-.024s1.34 0 1.615.024v-.347h-.24c-.86 0-.897-.12-.897-.562v-3.062h1.388c.466 0 .909.132 1.232.467.406.454.406.705.406 1.53 0 .945 0 1.256.526 1.77.18.18.682.455 1.352.455.933 0 1.088-1.04 1.088-1.292M6.04-6.017c0 1.04-.562 1.806-2.117 1.806h-1.34v-3.133c0-.276 0-.419.252-.467.107-.012.466-.012.705-.012.969 0 2.5 0 2.5 1.806"/><path id="g" d="M4.222-4.58c0-.36-.323-.694-.837-.694-1.017 0-1.364 1.1-1.436 1.327h-.011v-1.327l-1.603.131v.347c.813 0 .909.084.909.67v3.241c0 .538-.132.538-.91.538V0c.336-.024.994-.024 1.352-.024.323 0 1.172 0 1.448.024v-.347h-.24c-.873 0-.897-.131-.897-.562v-1.878c0-1.16.479-2.248 1.4-2.248.095 0 .12 0 .167.012-.096.048-.287.12-.287.442a.46.46 0 0 0 .466.479c.24 0 .479-.156.479-.479"/><path id="s" d="M5.848-2.2c0-.73-.275-1.268-.598-1.663-.442-.538-.98-.67-1.447-.79l-1.315-.334c-.61-.156-1.148-.754-1.148-1.52 0-.836.67-1.59 1.602-1.59 1.962 0 2.225 1.938 2.296 2.452.024.143.024.191.144.191.132 0 .132-.06.132-.275v-2.416c0-.215 0-.275-.12-.275-.036 0-.084 0-.167.156l-.395.73c-.574-.742-1.364-.886-1.89-.886A2.28 2.28 0 0 0 .646-6.135c0 .574.203 1.1.646 1.578.418.467.837.574 1.686.79.419.095 1.076.263 1.244.334.562.276.933.921.933 1.591 0 .897-.634 1.746-1.627 1.746-.538 0-1.28-.131-1.866-.646C.97-1.363.921-2.225.91-2.619c-.012-.096-.132-.096-.132-.096-.131 0-.131.06-.131.275v2.416c0 .215 0 .275.12.275.071 0 .083-.024.167-.167l.395-.718c.43.479 1.184.885 2.212.885C4.88.251 5.848-.885 5.848-2.2"/><path id="e" d="M4.21-1.519c0-.646-.395-1.028-.502-1.136-.431-.37-.754-.443-1.543-.586-.359-.072-1.232-.24-1.232-.957 0-.37.251-.92 1.327-.92 1.304 0 1.376 1.111 1.4 1.482.012.096.095.096.131.096.132 0 .132-.06.132-.275V-5.06c0-.215 0-.275-.12-.275-.095 0-.323.263-.406.37-.371-.298-.742-.37-1.125-.37-1.447 0-1.877.79-1.877 1.447 0 .132 0 .55.454.969.383.335.79.418 1.34.526.657.132.813.167 1.112.407.215.179.37.442.37.777 0 .514-.298 1.088-1.35 1.088C1.53-.12.956-.574.693-1.77c-.048-.215-.06-.24-.06-.24-.024-.047-.072-.047-.108-.047-.131 0-.131.06-.131.275v1.627c0 .215 0 .275.12.275.06 0 .071-.012.274-.264.06-.083.06-.107.24-.299.454.563 1.1.563 1.303.563C3.588.12 4.21-.574 4.21-1.52"/><path id="f" d="M3.899-1.483v-.682h-.263v.658c0 .861-.347 1.363-.813 1.363-.814 0-.814-1.112-.814-1.315v-3.349h1.687v-.347H2.009v-2.2h-.263c-.012 1.124-.442 2.272-1.53 2.308v.24h1.016v3.324C1.232-.155 2.117.12 2.75.12c.753 0 1.148-.742 1.148-1.603"/><path id="H" d="M6.231 0v-.347c-.813 0-.909-.084-.909-.67v-4.257l-1.686.131v.347c.813 0 .909.084.909.67v2.14C4.545-.968 4.007-.12 3.11-.12c-.981 0-1.04-.562-1.04-1.196v-3.958l-1.687.131v.347c.909 0 .909.036.909 1.1v1.794c0 .742 0 1.172.358 1.567.288.311.778.455 1.388.455.203 0 .586 0 .993-.347.346-.275.538-.73.538-.73V.12z"/><path id="t" d="M5.956-4.808v-.347c-.347.024-.514.024-.885.024l-.98-.024v.347c.502.024.561.383.561.514 0 .108-.023.168-.083.311L3.349-.897 2.009-4.27c-.06-.167-.071-.167-.071-.227 0-.31.454-.31.67-.31v-.348c-.3.024-.922.024-1.245.024L.215-5.155v.347c.67 0 .79.048.933.419l1.71 4.281c.06.168.084.228.228.228.083 0 .155-.024.239-.228l1.555-3.91c.107-.264.31-.778 1.076-.79"/><path id="D" d="M8.228-4.808v-.347c-.299.024-.514.024-.885.024l-1.016-.024v.347c.538.024.682.347.682.574 0 0 0 .096-.048.215L5.86-.885 4.663-4.27c-.06-.143-.06-.167-.06-.203 0-.335.443-.335.694-.335v-.347c-.335.024-.825.024-1.172.024L3.05-5.155v.347c.454 0 .61.024.741.18.06.071.204.466.287.705L3.062-1.005 1.914-4.258c-.06-.155-.06-.18-.06-.227 0-.323.466-.323.693-.323v-.347c-.299.024-.897.024-1.22.024L.216-5.155v.347c.61 0 .73.048.861.43L2.583-.095c.048.132.084.216.216.216.107 0 .167-.036.227-.228l1.196-3.408L5.418-.108c.06.192.12.228.227.228.132 0 .168-.084.215-.216l1.376-3.923c.263-.753.79-.777.992-.789"/><path id="E" d="M4.7-2.2h-.263C4.33-.838 4.127-.264 2.703-.264H1.256l3.3-4.557c.108-.131.108-.155.108-.203 0-.132-.083-.132-.287-.132H.622L.49-3.253h.263c.072-1.22.3-1.663 1.603-1.663h1.387l-3.42 4.7C.323 0 .347 0 .61 0h3.899z"/></defs><g transform="translate(51.072 74.887)scale(1.0004)"><use xlink:href="#a" x="-35.763353" y="-49.473856"/><use xlink:href="#b" x="-27.140194" y="-49.473856"/><use xlink:href="#c" x="-21.937594" y="-49.473856"/><use xlink:href="#d" x="-16.077192" y="-49.473856"/><use xlink:href="#e" x="-12.824072" y="-49.473856"/><use xlink:href="#f" x="-8.207512" y="-49.473856"/><use xlink:href="#b" x="-3.650751" y="-49.473856"/><use xlink:href="#g" x="1.551849" y="-49.473856"/></g><g transform="translate(101.31 74.887)scale(1.0004)"><use xlink:href="#h" x="-35.763353" y="-49.473856"/><use xlink:href="#i" x="-26.984715" y="-49.473856"/><use xlink:href="#j" x="-18.696434" y="-49.473856"/><use xlink:href="#k" x="-10.587553" y="-49.473856"/><use xlink:href="#l" x="-1.808913" y="-49.473856"/><use xlink:href="#m" x="4.051487" y="-49.473856"/><use xlink:href="#b" x="13.810848" y="-49.473856"/></g><g transform="translate(177.429 74.887)scale(1.0004)"><use xlink:href="#n" x="-35.763353" y="-49.473856"/><use xlink:href="#b" x="-26.817273" y="-49.473856"/><use xlink:href="#e" x="-21.614674" y="-49.473856"/><use xlink:href="#o" x="-16.998113" y="-49.473856"/><use xlink:href="#g" x="-11.795513" y="-49.473856"/><use xlink:href="#d" x="-7.238753" y="-49.473856"/><use xlink:href="#p" x="-3.985632" y="-49.473856"/><use xlink:href="#f" x="2.520608" y="-49.473856"/><use xlink:href="#d" x="7.077368" y="-49.473856"/><use xlink:href="#q" x="10.330489" y="-49.473856"/><use xlink:href="#r" x="16.190889" y="-49.473856"/></g><g transform="translate(270.775 74.887)scale(1.0004)"><use xlink:href="#s" x="-35.763353" y="-49.473856"/><use xlink:href="#l" x="-29.257112" y="-49.473856"/><use xlink:href="#t" x="-23.719632" y="-49.473856"/><use xlink:href="#b" x="-17.859233" y="-49.473856"/><use xlink:href="#g" x="-12.656632" y="-49.473856"/></g><g transform="translate(65.843 92.658)scale(1.0004)"><use xlink:href="#u" x="-35.763353" y="-49.473856"/><use xlink:href="#v" x="-29.603953" y="-49.473856"/></g><g transform="translate(116.38 91.6)scale(1.0004)"><use xlink:href="#w" x="-35.763353" y="-49.473856"/><use xlink:href="#x" x="-29.603953" y="-49.473856"/><use xlink:href="#y" x="-23.444552" y="-49.473856"/><use xlink:href="#z" x="-17.285151" y="-49.473856"/></g><g transform="translate(165.515 93.095)scale(1.0004)"><use xlink:href="#A" x="-35.763353" y="-49.473856"/><use xlink:href="#l" x="-26.984715" y="-49.473856"/><use xlink:href="#g" x="-21.124316" y="-49.473856"/><use xlink:href="#B" x="-16.567555" y="-49.473856"/><use xlink:href="#C" x="-10.061314" y="-49.473856"/><use xlink:href="#D" x="-6.162354" y="-49.473856"/><use xlink:href="#d" x="2.293367" y="-49.473856"/><use xlink:href="#g" x="5.546487" y="-49.473856"/><use xlink:href="#b" x="10.103248" y="-49.473856"/><use xlink:href="#B" x="15.305849" y="-49.473856"/><use xlink:href="#E" x="25.69909" y="-49.473856"/><use xlink:href="#b" x="30.90169" y="-49.473856"/><use xlink:href="#g" x="36.10429" y="-49.473856"/><use xlink:href="#q" x="40.661054" y="-49.473856"/></g><use xlink:href="#C" x="-35.763353" y="-49.473856" transform="translate(282.652 90.459)scale(1.0004)"/><g transform="translate(65.843 108.321)scale(1.0004)"><use xlink:href="#u" x="-35.763353" y="-49.473856"/><use xlink:href="#F" x="-29.603953" y="-49.473856"/></g><g transform="translate(122.537 107.191)scale(1.0004)"><use xlink:href="#y" x="-35.763353" y="-49.473856"/><use xlink:href="#G" x="-29.603953" y="-49.473856"/></g><g transform="translate(167.805 108.62)scale(1.0004)"><use xlink:href="#a" x="-35.763353" y="-49.473856"/><use xlink:href="#b" x="-27.140194" y="-49.473856"/><use xlink:href="#f" x="-21.937594" y="-49.473856"/><use xlink:href="#H" x="-17.380834" y="-49.473856"/><use xlink:href="#g" x="-10.874592" y="-49.473856"/><use xlink:href="#r" x="-6.317832" y="-49.473856"/><use xlink:href="#l" x="4.075409" y="-49.473856"/><use xlink:href="#B" x="9.93581" y="-49.473856"/><use xlink:href="#B" x="16.442051" y="-49.473856"/><use xlink:href="#g" x="22.948292" y="-49.473856"/><use xlink:href="#b" x="27.505052" y="-49.473856"/><use xlink:href="#e" x="32.707655" y="-49.473856"/><use xlink:href="#e" x="37.324216" y="-49.473856"/></g><g transform="translate(269.316 108.68)scale(1.0004)"><use xlink:href="#I" x="-35.763353" y="-49.473856"/><use xlink:href="#l" x="-27.307633" y="-49.473856"/><use xlink:href="#J" x="-21.447234" y="-49.473856"/><use xlink:href="#J" x="-18.194114" y="-49.473856"/><use xlink:href="#b" x="-14.940993" y="-49.473856"/><use xlink:href="#g" x="-9.738392" y="-49.473856"/></g><g transform="translate(65.843 123.912)scale(1.0004)"><use xlink:href="#u" x="-35.763353" y="-49.473856"/><use xlink:href="#K" x="-29.603953" y="-49.473856"/></g><g transform="translate(122.537 121.491)scale(1.0004)"><use xlink:href="#L" x="-35.763353" y="-49.473856"/><use xlink:href="#M" x="-29.603953" y="-49.473856"/></g><g transform="translate(172.497 123.236)scale(1.0004)"><use xlink:href="#s" x="-35.763353" y="-49.473856"/><use xlink:href="#f" x="-29.257112" y="-49.473856"/><use xlink:href="#l" x="-24.700353" y="-49.473856"/><use xlink:href="#o" x="-18.839951" y="-49.473856"/><use xlink:href="#N" x="-13.960271" y="-49.473856"/><use xlink:href="#p" x="-3.889951" y="-49.473856"/><use xlink:href="#q" x="2.93921" y="-49.473856"/><use xlink:href="#d" x="8.799611" y="-49.473856"/><use xlink:href="#r" x="12.052731" y="-49.473856"/><use xlink:href="#f" x="18.248013" y="-49.473856"/><use xlink:href="#b" x="22.804772" y="-49.473856"/><use xlink:href="#g" x="28.007372" y="-49.473856"/></g><g transform="translate(268.993 124.27)scale(1.0004)"><use xlink:href="#I" x="-35.763353" y="-49.473856"/><use xlink:href="#l" x="-27.307633" y="-49.473856"/><use xlink:href="#J" x="-21.447234" y="-49.473856"/><use xlink:href="#J" x="-18.194114" y="-49.473856"/><use xlink:href="#b" x="-14.940993" y="-49.473856"/><use xlink:href="#b" x="-9.738392" y="-49.473856"/></g><g transform="translate(53.529 139.449)scale(1.0004)"><use xlink:href="#u" x="-35.763353" y="-49.473856"/><use xlink:href="#F" x="-29.603953" y="-49.473856"/><use xlink:href="#v" x="-23.444552" y="-49.473856"/><use xlink:href="#O" x="-17.285151" y="-49.473856"/><use xlink:href="#F" x="-11.12575" y="-49.473856"/><use xlink:href="#P" x="-4.966349" y="-49.473856"/></g><g transform="translate(116.38 139.449)scale(1.0004)"><use xlink:href="#G" x="-35.763353" y="-49.473856"/><use xlink:href="#v" x="-29.603953" y="-49.473856"/><use xlink:href="#O" x="-23.444552" y="-49.473856"/><use xlink:href="#P" x="-17.285151" y="-49.473856"/></g><g transform="translate(178.648 138.821)scale(1.0004)"><use xlink:href="#h" x="-35.763353" y="-49.473856"/><use xlink:href="#g" x="-26.984715" y="-49.473856"/><use xlink:href="#c" x="-22.427954" y="-49.473856"/><use xlink:href="#H" x="-16.567555" y="-49.473856"/><use xlink:href="#m" x="-10.061314" y="-49.473856"/><use xlink:href="#b" x="-.301953" y="-49.473856"/><use xlink:href="#r" x="4.900647" y="-49.473856"/><use xlink:href="#f" x="11.083967" y="-49.473856"/><use xlink:href="#e" x="15.640728" y="-49.473856"/></g><g transform="translate(269.316 139.861)scale(1.0004)"><use xlink:href="#I" x="-35.763353" y="-49.473856"/><use xlink:href="#l" x="-27.307633" y="-49.473856"/><use xlink:href="#J" x="-21.447234" y="-49.473856"/><use xlink:href="#J" x="-18.194114" y="-49.473856"/><use xlink:href="#b" x="-14.940993" y="-49.473856"/><use xlink:href="#g" x="-9.738392" y="-49.473856"/></g></svg>