<svg xmlns="http://www.w3.org/2000/svg" xmlns:xlink="http://www.w3.org/1999/xlink" width="144.03pt" height="74.05pt" viewBox="0 0 144.03 74.05"><defs><path id="j" d="M4.822-.327c0-.339-.262-.339-.436-.339h-.993v-5.673c0-.174 0-.447-.327-.447-.208 0-.273.13-.328.262-.414.927-.981 1.047-1.189 1.069-.174.01-.403.033-.403.338 0 .273.196.328.36.328.207 0 .654-.066 1.134-.48v4.603h-.993c-.174 0-.436 0-.436.339 0 .327.273.327.436.327h2.739c.163 0 .436 0 .436-.327"/><path id="l" d="M5.237-1.898c0-.775-.513-1.419-1.233-1.746.61-.393.916-1.015.916-1.604 0-.807-.796-1.538-2.05-1.538-1.31 0-2.074.524-2.074 1.276a.486.486 0 1 0 .971.022.45.45 0 0 0-.098-.294c.338-.339 1.113-.339 1.211-.339.742 0 1.288.393 1.288.884 0 .327-.164.71-.459.95-.349.283-.621.305-1.014.327-.622.043-.786.043-.786.36 0 .338.262.338.437.338h.502c1.08 0 1.636.73 1.636 1.364 0 .665-.61 1.353-1.604 1.353-.436 0-1.276-.12-1.56-.633.055-.055.131-.12.131-.338a.477.477 0 0 0-.48-.48c-.25 0-.491.163-.491.512C.48-.513 1.538.12 2.88.12c1.43 0 2.357-1.004 2.357-2.018"/><path id="k" d="M5.15-.447v-.284c0-.207 0-.447-.371-.447-.382 0-.382.207-.382.512H1.8c.644-.556 1.691-1.374 2.16-1.81.688-.612 1.19-1.31 1.19-2.183 0-1.309-1.102-2.127-2.433-2.127-1.288 0-2.15.895-2.15 1.822a.486.486 0 1 0 .971.033.45.45 0 0 0-.152-.35c.163-.501.676-.84 1.276-.84.895 0 1.735.502 1.735 1.462 0 .764-.535 1.397-1.255 1.997L.731-.632c-.098.087-.164.141-.164.294C.567 0 .84 0 1.015 0h3.698c.36 0 .437-.098.437-.447"/><path id="i" d="M5.171-3.328c0-2.029-1.112-3.458-2.313-3.458-1.221 0-2.312 1.462-2.312 3.448C.546-1.31 1.658.12 2.858.12c1.222 0 2.313-1.462 2.313-3.448m-.752-.12c0 1.615-.71 2.903-1.56 2.903s-1.56-1.288-1.56-2.903c0-1.592.752-2.673 1.56-2.673.796 0 1.56 1.07 1.56 2.673"/><path id="b" d="M5.633-2.07c0-.657-.442-1.494-1.662-1.877.957-.287 1.495-.92 1.495-1.59 0-.981-.993-1.914-2.392-1.914S.682-6.518.682-5.537c0 .693.574 1.315 1.495 1.59C.969-3.564.514-2.739.514-2.069c0 1.172 1.1 2.213 2.56 2.213s2.56-1.029 2.56-2.213m-.945-3.456c0 .646-.681 1.232-1.614 1.232-.945 0-1.615-.586-1.615-1.232 0-.657.694-1.231 1.615-1.231s1.614.574 1.614 1.231m.168 3.445c0 .837-.778 1.53-1.782 1.53-1.029 0-1.782-.729-1.782-1.518 0-.85.801-1.531 1.782-1.531 1.004 0 1.782.718 1.782 1.519"/><path id="c" d="M5.537-2.272c0-1.208-.897-2.392-2.284-2.392-.395 0-.92.071-1.423.346v-2.296h2.81c.168 0 .479 0 .479-.347s-.311-.347-.479-.347H1.53c-.382 0-.478.096-.478.467v3.193c0 .168 0 .467.36.467.19 0 .238-.06.334-.18.359-.418.885-.61 1.507-.61.933 0 1.507.85 1.507 1.699 0 .968-.837 1.722-1.842 1.722-.622 0-1.256-.3-1.47-.861.047-.048.13-.132.13-.347a.49.49 0 0 0-.478-.49c-.107 0-.49.06-.49.526C.61-.718 1.603.144 2.918.144c1.447 0 2.62-1.077 2.62-2.416"/><path id="f" d="M5.8-2.356c0-.347-.31-.347-.478-.347h-.897v-4.282c0-.394-.084-.49-.49-.49H3.66c-.287 0-.347.012-.49.24L.453-2.87c-.107.155-.107.179-.107.394 0 .419.155.467.478.467h2.93v1.315h-.717c-.168 0-.479 0-.479.347S2.87 0 3.038 0h2.105c.167 0 .478 0 .478-.347s-.31-.347-.478-.347h-.718v-1.315h.897c.168 0 .479 0 .479-.347m-2.045-.347H1.148l2.607-4.186z"/><path id="g" d="M5.179-.347c0-.347-.323-.347-.49-.347H3.635V-6.96c0-.18 0-.49-.347-.49-.203 0-.275.108-.347.263-.227.514-.622 1.148-1.256 1.196-.179.012-.43.036-.43.347 0 .203.12.347.383.347.67 0 1.184-.503 1.22-.527v5.131H1.805c-.167 0-.49 0-.49.347s.323.347.49.347h2.882c.168 0 .49 0 .49-.347"/><path id="a" d="M5.633-6.96c0-.348-.31-.348-.478-.348h-3.9s-.071-.179-.346-.179c-.395 0-.395.263-.395.49v.431c0 .215 0 .49.383.49.395 0 .395-.25.395-.538h3.181C2.141-4.03 2.009-1.172 2.009-.394c0 .155 0 .538.395.538.37 0 .383-.371.383-.539.036-2.344 1.016-4.568 2.667-6.243.131-.12.18-.167.18-.323"/><path id="d" d="M5.514-2.308c0-1.4-1.041-2.452-2.285-2.452-.61 0-1.291.227-1.806.777.12-1.578 1.16-2.774 2.332-2.774.24 0 .515.035.694.227-.048.06-.096.12-.096.299 0 .227.168.478.479.478s.49-.227.49-.502c0-.634-.49-1.196-1.555-1.196-1.566 0-3.133 1.459-3.133 3.875C.634-.694 1.96.144 3.098.144a2.417 2.417 0 0 0 2.416-2.452m-.778 0c0 1.04-.777 1.758-1.638 1.758-1.089 0-1.412-1.077-1.543-1.639-.036-.143-.036-.263-.036-.478 0-.694.646-1.387 1.626-1.387.933 0 1.591.8 1.591 1.746"/><path id="e" d="M5.633-2.07c0-.609-.335-1.458-1.387-1.913.73-.454 1.052-1.172 1.052-1.794 0-.897-.897-1.674-2.188-1.674-1.328 0-2.26.574-2.26 1.459 0 .395.298.514.49.514a.48.48 0 0 0 .478-.49c0-.191-.096-.311-.096-.311.359-.454 1.184-.478 1.388-.478.813 0 1.41.43 1.41.992 0 .347-.226 1.34-1.482 1.424-.443.023-.634.047-.682.047-.24.024-.299.18-.299.347 0 .347.251.347.455.347h.55c1.244 0 1.794.873 1.794 1.519 0 .79-.694 1.53-1.746 1.53-1.196 0-1.735-.645-1.735-.812l.024-.06a.6.6 0 0 0 .084-.287.47.47 0 0 0-.478-.479c-.252 0-.49.156-.49.527C.514-.622 1.65.144 3.11.144c1.507 0 2.523-1.077 2.523-2.213"/><path id="h" d="M5.537-.49v-.252c0-.215 0-.49-.382-.49-.395 0-.395.251-.395.538H1.878L4.162-2.63c.168-.144 1.375-1.172 1.375-2.5 0-1.363-1.124-2.32-2.619-2.32C1.531-7.451.61-6.411.61-5.406a.49.49 0 0 0 .49.538.48.48 0 0 0 .479-.49c0-.227-.084-.3-.144-.347.168-.634.718-1.052 1.411-1.052 1.017 0 1.914.586 1.914 1.626 0 .933-.706 1.65-1.351 2.213L.777-.634C.646-.526.61-.49.61-.347.61 0 .933 0 1.1 0h4.174c.263-.072.263-.311.263-.49"/></defs><g fill="none" stroke="#000" stroke-miterlimit="10" stroke-width=".3985"><path d="M13.906 42.158h102.049V25.15H13.906ZM39.418 42.158V25.15M64.93 42.158V25.15M90.442 42.158V25.15"/></g><g transform="translate(78.599 67.162)scale(1.0004)"><use xlink:href="#a" x="-58.117325" y="-29.84998"/><use xlink:href="#b" x="-51.957927" y="-29.84998"/></g><g transform="translate(104.117 67.144)scale(1.0004)"><use xlink:href="#c" x="-58.117325" y="-29.84998"/><use xlink:href="#d" x="-51.957927" y="-29.84998"/></g><g transform="translate(129.623 67.156)scale(1.0004)"><use xlink:href="#e" x="-58.117325" y="-29.84998"/><use xlink:href="#f" x="-51.957927" y="-29.84998"/></g><g transform="translate(155.135 67.216)scale(1.0004)"><use xlink:href="#g" x="-58.117325" y="-29.84998"/><use xlink:href="#h" x="-51.957927" y="-29.84998"/></g><use xlink:href="#i" x="-58.098793" y="-29.840462" transform="translate(81.892 51.943)scale(1.00008)"/><use xlink:href="#j" x="-58.098793" y="-29.840462" transform="translate(107.405 52.003)scale(1.00008)"/><use xlink:href="#k" x="-58.098793" y="-29.840462" transform="translate(132.917 52.003)scale(1.00008)"/><use xlink:href="#l" x="-58.098793" y="-29.840462" transform="translate(158.429 51.943)scale(1.00008)"/><g transform="translate(73.417 88.422)scale(1.0004)"><use xlink:href="#g" x="-58.117325" y="-29.84998"/><use xlink:href="#h" x="-51.957927" y="-29.84998"/><use xlink:href="#e" x="-43.813164" y="-29.84998"/><use xlink:href="#f" x="-37.653766" y="-29.84998"/><use xlink:href="#c" x="-29.497043" y="-29.84998"/><use xlink:href="#d" x="-23.337642" y="-29.84998"/><use xlink:href="#a" x="-15.192883" y="-29.84998"/><use xlink:href="#b" x="-9.033483" y="-29.84998"/></g></svg>