<svg xmlns="http://www.w3.org/2000/svg" xmlns:xlink="http://www.w3.org/1999/xlink" width="450.17pt" height="103pt" viewBox="0 0 450.17 103"><defs><path id="t" d="M5.237-1.898c0-.819-.71-1.462-1.517-1.691.873-.295 1.364-.83 1.364-1.451 0-.895-.927-1.746-2.226-1.746-1.309 0-2.225.862-2.225 1.746 0 .621.502 1.167 1.364 1.45C1.178-3.36.48-2.716.48-1.897.48-.84 1.495.12 2.858.12c1.375 0 2.379-.96 2.379-2.018M4.33-5.03c0 .622-.676 1.102-1.473 1.102s-1.472-.49-1.472-1.102c0-.567.61-1.09 1.472-1.09.851 0 1.473.523 1.473 1.09m.153 3.12c0 .754-.72 1.364-1.626 1.364s-1.625-.61-1.625-1.363c0-.666.633-1.353 1.625-1.353 1.004 0 1.626.687 1.626 1.353"/><path id="q" d="M5.15-2.073c0-1.102-.84-2.171-2.128-2.171-.382 0-.862.076-1.31.316V-6h2.62c.163 0 .436 0 .436-.328 0-.338-.262-.338-.437-.338H1.396c-.36 0-.436.098-.436.447v2.902c0 .197 0 .448.35.448.196 0 .24-.055.327-.164.294-.35.741-.545 1.374-.545.895 0 1.386.796 1.386 1.505 0 .873-.775 1.527-1.691 1.527-.306 0-1.004-.087-1.31-.687.055-.054.142-.13.142-.349a.48.48 0 0 0-.48-.49.483.483 0 0 0-.49.523C.567-.644 1.483.12 2.705.12 4.069.12 5.15-.862 5.15-2.073"/><path id="p" d="M5.4-2.171c0-.338-.261-.338-.436-.338h-.85v-3.84c0-.36-.077-.448-.448-.448H3.36c-.262 0-.316.011-.458.23L.415-2.663c-.099.142-.099.164-.099.382 0 .36.099.436.437.436h2.75v1.178h-.677c-.175 0-.437 0-.437.339 0 .327.273.327.437.327h1.963c.164 0 .437 0 .437-.327 0-.339-.262-.339-.437-.339h-.676v-1.178h.851c.164 0 .436 0 .436-.327M3.502-2.51H1.08l2.422-3.808z"/><path id="u" d="M5.139-3.404c0-2.63-1.211-3.382-2.248-3.382-1.21 0-2.313.906-2.313 2.226 0 1.243.96 2.214 2.16 2.214.568 0 1.135-.185 1.626-.632-.11 1.352-.96 2.433-2.007 2.433-.099 0-.491-.011-.72-.186.043-.055.098-.12.098-.305a.47.47 0 0 0-.48-.48c-.273 0-.491.185-.491.512C.764-.654.96.12 2.357.12c1.44 0 2.782-1.364 2.782-3.524m-.851-.84c0 .6-.59 1.222-1.495 1.222-.884 0-1.462-.731-1.462-1.538 0-.95.775-1.56 1.56-1.56.47 0 .775.25.95.469.348.425.447.632.447 1.407"/><path id="m" d="M4.822-.327c0-.339-.262-.339-.436-.339h-.993v-5.673c0-.174 0-.447-.327-.447-.208 0-.273.13-.328.262-.414.927-.981 1.047-1.189 1.069-.174.01-.403.033-.403.338 0 .273.196.328.36.328.207 0 .654-.066 1.134-.48v4.603h-.993c-.174 0-.436 0-.436.339 0 .327.273.327.436.327h2.739c.163 0 .436 0 .436-.327"/><path id="s" d="M5.237-6.328c0-.338-.262-.338-.437-.338H1.2c-.065-.175-.262-.175-.349-.175-.371 0-.371.24-.371.448v.458c0 .207 0 .447.371.447.382 0 .382-.207.382-.512h2.88C2.226-3.993 1.855-1.593 1.855-.393c0 .153 0 .513.382.513.185 0 .37-.12.37-.436a8.05 8.05 0 0 1 2.39-5.64c.218-.197.24-.22.24-.372"/><path id="r" d="M5.139-2.106c0-1.243-.96-2.214-2.16-2.214-.568 0-1.135.185-1.626.632C1.506-5.226 2.53-6.12 3.49-6.12c.371 0 .546.12.6.175-.054.055-.109.12-.109.316 0 .262.197.48.48.48.273 0 .491-.185.491-.512 0-.535-.393-1.124-1.45-1.124-1.463 0-2.925 1.32-2.925 3.524C.578-.676 1.8.12 2.88.12 4.07.12 5.14-.796 5.14-2.106m-.753 0c0 .939-.72 1.56-1.506 1.56-.709 0-1.134-.534-1.353-1.2-.109-.261-.087-.523-.087-.676 0-.676.655-1.222 1.484-1.222.884 0 1.462.731 1.462 1.538"/><path id="o" d="M5.237-1.898c0-.775-.513-1.419-1.233-1.746.61-.393.916-1.015.916-1.604 0-.807-.796-1.538-2.05-1.538-1.31 0-2.074.524-2.074 1.276a.486.486 0 1 0 .971.022.45.45 0 0 0-.098-.294c.338-.339 1.113-.339 1.211-.339.742 0 1.288.393 1.288.884 0 .327-.164.71-.459.95-.349.283-.621.305-1.014.327-.622.043-.786.043-.786.36 0 .338.262.338.437.338h.502c1.08 0 1.636.73 1.636 1.364 0 .665-.61 1.353-1.604 1.353-.436 0-1.276-.12-1.56-.633.055-.055.131-.12.131-.338a.477.477 0 0 0-.48-.48c-.25 0-.491.163-.491.512C.48-.513 1.538.12 2.88.12c1.43 0 2.357-1.004 2.357-2.018"/><path id="n" d="M5.15-.447v-.284c0-.207 0-.447-.371-.447-.382 0-.382.207-.382.512H1.8c.644-.556 1.691-1.374 2.16-1.81.688-.612 1.19-1.31 1.19-2.183 0-1.309-1.102-2.127-2.433-2.127-1.288 0-2.15.895-2.15 1.822a.486.486 0 1 0 .971.033.45.45 0 0 0-.152-.35c.163-.501.676-.84 1.276-.84.895 0 1.735.502 1.735 1.462 0 .764-.535 1.397-1.255 1.997L.731-.632c-.098.087-.164.141-.164.294C.567 0 .84 0 1.015 0h3.698c.36 0 .437-.098.437-.447"/><path id="l" d="M5.171-3.328c0-2.029-1.112-3.458-2.313-3.458-1.221 0-2.312 1.462-2.312 3.448C.546-1.31 1.658.12 2.858.12c1.222 0 2.313-1.462 2.313-3.448m-.752-.12c0 1.615-.71 2.903-1.56 2.903s-1.56-1.288-1.56-2.903c0-1.592.752-2.673 1.56-2.673.796 0 1.56 1.07 1.56 2.673"/><path id="k" d="M6.088-.347c0-.347-.311-.347-.479-.347-.31 0-.55-.024-.717-.095v-2.608c0-.909-.682-1.865-2.297-1.865-.502 0-1.662 0-1.662.825 0 .323.227.502.49.502.072 0 .467-.024.479-.526 0-.06.012-.072.263-.096.143-.012.299-.012.442-.012.275 0 .682 0 1.077.3.43.334.43.669.43 1.016-.705.024-1.4.072-2.14.31C1.374-2.738.61-2.307.61-1.494c0 .85.753 1.567 1.866 1.567.382 0 1.124-.06 1.746-.49.24.394.837.418 1.292.418.287 0 .574 0 .574-.347M4.114-1.579c0 .275 0 .527-.49.754-.419.203-.98.203-1.017.203-.705 0-1.22-.383-1.22-.873 0-.706 1.28-1.112 2.727-1.112z"/><path id="E" d="M5.466.598c0-.096-.024-.144-.06-.215L1.47-7.953c-.096-.216-.167-.347-.407-.347a.387.387 0 0 0-.382.394c0 .096.024.144.06.216L4.676.67c.06.12.156.323.407.323.18 0 .383-.144.383-.395"/><path id="e" d="M5.454-1.304c0-.31-.3-.31-.395-.31-.275 0-.323.095-.383.263-.263.657-.849.73-1.136.73-1.016 0-1.878-.85-1.878-1.962 0-.61.347-1.986 1.914-1.986.323 0 .574.024.682.036.083.024.095.036.095.096.036.49.407.502.479.502.263 0 .49-.18.49-.502 0-.825-1.208-.825-1.734-.825-2.045 0-2.703 1.674-2.703 2.679C.885-1.124 1.997.072 3.433.072c1.602 0 2.02-1.184 2.02-1.376"/><path id="z" d="M4.007-.215c0-.634-.395-1.136-.921-1.136a.663.663 0 0 0-.682.67c0 .394.299.681.67.681A.8.8 0 0 0 3.3-.036c-.06.37-.299.825-.885 1.029-.108.024-.287.083-.287.31 0 .156.18.36.37.36.324 0 1.508-.587 1.508-1.878"/><path id="C" d="M5.968-.347c0-.347-.31-.347-.478-.347H5v-6.123c0-.371-.072-.49-.48-.49h-.788c-.168 0-.479 0-.479.346s.311.347.479.347h.49v1.985c-.191-.19-.682-.598-1.411-.598C1.543-5.227.443-4.078.443-2.57c0 1.47 1.028 2.643 2.26 2.643.777 0 1.292-.467 1.519-.73 0 .503 0 .658.478.658h.79c.167 0 .478 0 .478-.347M4.222-2.272c0 .67-.55 1.65-1.447 1.65-.861 0-1.555-.873-1.555-1.95 0-1.148.813-1.96 1.662-1.96.778 0 1.34.705 1.34 1.327z"/><path id="w" d="M5.454-1.304c0-.071-.024-.335-.395-.335-.227 0-.299.084-.37.264-.3.693-1.077.753-1.304.753-.993 0-1.782-.753-1.914-1.674h3.504c.252 0 .479 0 .479-.443 0-1.4-.79-2.523-2.285-2.523-1.387 0-2.5 1.196-2.5 2.655A2.667 2.667 0 0 0 3.35.072c1.543 0 2.105-1.065 2.105-1.376m-.79-1.65H1.483c.156-1.017.933-1.615 1.686-1.615 1.196 0 1.448 1.017 1.495 1.615"/><path id="b" d="M5.633-2.07c0-.657-.442-1.494-1.662-1.877.957-.287 1.495-.92 1.495-1.59 0-.981-.993-1.914-2.392-1.914S.682-6.518.682-5.537c0 .693.574 1.315 1.495 1.59C.969-3.564.514-2.739.514-2.069c0 1.172 1.1 2.213 2.56 2.213s2.56-1.029 2.56-2.213m-.945-3.456c0 .646-.681 1.232-1.614 1.232-.945 0-1.615-.586-1.615-1.232 0-.657.694-1.231 1.615-1.231s1.614.574 1.614 1.231m.168 3.445c0 .837-.778 1.53-1.782 1.53-1.029 0-1.782-.729-1.782-1.518 0-.85.801-1.531 1.782-1.531 1.004 0 1.782.718 1.782 1.519"/><path id="D" d="M3.612-6.817c0-.598-.43-.634-.538-.634-.12 0-.538.048-.538.634l.095 3.959c.012.67.024.777.443.777.394 0 .418-.156.43-.395l.048-2.117zm0 6.279c0-.3-.24-.538-.538-.538s-.538.239-.538.538.239.538.538.538.538-.24.538-.538"/><path id="f" d="M5.13-6.698c0-.681-.908-.681-1.088-.681-.908 0-1.865.514-1.865 1.578v.646H.993c-.168 0-.49 0-.49.347s.31.347.478.347h1.196v3.767H1.04c-.168 0-.479 0-.479.347S.873 0 1.041 0h3.05c.167 0 .478 0 .478-.347s-.311-.347-.479-.347H2.954V-4.46h1.447c.168 0 .479 0 .479-.347s-.311-.347-.479-.347H2.954v-.598c0-.933.837-.933 1.22-.933 0 0 .096.467.49.467a.467.467 0 0 0 .467-.479"/><path id="d" d="M5.537-2.272c0-1.208-.897-2.392-2.284-2.392-.395 0-.92.071-1.423.346v-2.296h2.81c.168 0 .479 0 .479-.347s-.311-.347-.479-.347H1.53c-.382 0-.478.096-.478.467v3.193c0 .168 0 .467.36.467.19 0 .238-.06.334-.18.359-.418.885-.61 1.507-.61.933 0 1.507.85 1.507 1.699 0 .968-.837 1.722-1.842 1.722-.622 0-1.256-.3-1.47-.861.047-.048.13-.132.13-.347a.49.49 0 0 0-.478-.49c-.107 0-.49.06-.49.526C.61-.718 1.603.144 2.918.144c1.447 0 2.62-1.077 2.62-2.416"/><path id="a" d="M5.8-2.356c0-.347-.31-.347-.478-.347h-.897v-4.282c0-.394-.084-.49-.49-.49H3.66c-.287 0-.347.012-.49.24L.453-2.87c-.107.155-.107.179-.107.394 0 .419.155.467.478.467h2.93v1.315h-.717c-.168 0-.479 0-.479.347S2.87 0 3.038 0h2.105c.167 0 .478 0 .478-.347s-.31-.347-.478-.347h-.718v-1.315h.897c.168 0 .479 0 .479-.347m-2.045-.347H1.148l2.607-4.186z"/><path id="v" d="M5.86-.347c0-.347-.31-.347-.478-.347h-.263v-5.92h.263c.167 0 .478 0 .478-.347s-.299-.347-.478-.347H4.078c-.167 0-.49 0-.49.347s.323.347.49.347h.263v2.464H1.806v-2.464h.263c.168 0 .49 0 .49-.347s-.322-.347-.49-.347H.765c-.179 0-.478 0-.478.347s.311.347.478.347h.264v5.92H.765c-.167 0-.478 0-.478.347S.586 0 .765 0H2.07c.168 0 .49 0 .49-.347s-.322-.347-.49-.347h-.263v-2.762h2.535v2.762h-.263c-.167 0-.49 0-.49.347s.323.347.49.347h1.304c.18 0 .478 0 .478-.347"/><path id="x" d="M5.406-.347c0-.347-.311-.347-.478-.347h-1.46v-6.123c0-.371-.071-.49-.478-.49H1.232c-.168 0-.479 0-.479.346s.311.347.479.347H2.69v5.92h-1.46c-.167 0-.478 0-.478.347S1.064 0 1.232 0h3.696c.167 0 .478 0 .478-.347"/><path id="F" d="M5.968-.347c0-.347-.31-.347-.478-.347H5v-2.81c0-1.172-.55-1.723-1.532-1.723a2.1 2.1 0 0 0-1.542.682c0-.442 0-.61-.479-.61h-.79c-.167 0-.478 0-.478.347s.311.347.479.347h.49v3.767h-.49c-.168 0-.479 0-.479.347S.49 0 .658 0h1.758c.167 0 .478 0 .478-.347s-.31-.347-.478-.347h-.49v-2.164c0-1.16.813-1.675 1.459-1.675.693 0 .837.395.837 1.077v2.762h-.49c-.168 0-.479 0-.479.347S3.564 0 3.732 0H5.49c.167 0 .478 0 .478-.347"/><path id="y" d="M5.454-2.583c0-1.495-1.089-2.68-2.38-2.68S.694-4.077.694-2.582c0 1.507 1.1 2.655 2.38 2.655s2.38-1.148 2.38-2.655m-.778-.084c0 1.148-.741 2.045-1.602 2.045S1.47-1.53 1.47-2.667c0-1.112.766-1.902 1.603-1.902s1.602.79 1.602 1.902"/><path id="j" d="M5.179-.347c0-.347-.323-.347-.49-.347H3.635V-6.96c0-.18 0-.49-.347-.49-.203 0-.275.108-.347.263-.227.514-.622 1.148-1.256 1.196-.179.012-.43.036-.43.347 0 .203.12.347.383.347.67 0 1.184-.503 1.22-.527v5.131H1.805c-.167 0-.49 0-.49.347s.323.347.49.347h2.882c.168 0 .49 0 .49-.347"/><path id="B" d="M5.717-4.52c0-.515-.502-.707-1.1-.707-.802 0-1.483.36-2.034 1.029v-.466c0-.371-.071-.49-.478-.49H.897c-.167 0-.478 0-.478.346s.31.347.478.347h.909v3.767H.897c-.167 0-.478 0-.478.347S.729 0 .897 0h2.942c.168 0 .479 0 .479-.347s-.311-.347-.479-.347H2.583V-2.26c0-1.424 1.005-2.273 2.022-2.273.06 0 .131 0 .191.012.036.43.37.467.454.467a.45.45 0 0 0 .467-.467"/><path id="i" d="M5.633-6.96c0-.348-.31-.348-.478-.348h-3.9s-.071-.179-.346-.179c-.395 0-.395.263-.395.49v.431c0 .215 0 .49.383.49.395 0 .395-.25.395-.538h3.181C2.141-4.03 2.009-1.172 2.009-.394c0 .155 0 .538.395.538.37 0 .383-.371.383-.539.036-2.344 1.016-4.568 2.667-6.243.131-.12.18-.167.18-.323"/><path id="c" d="M5.514-2.308c0-1.4-1.041-2.452-2.285-2.452-.61 0-1.291.227-1.806.777.12-1.578 1.16-2.774 2.332-2.774.24 0 .515.035.694.227-.048.06-.096.12-.096.299 0 .227.168.478.479.478s.49-.227.49-.502c0-.634-.49-1.196-1.555-1.196-1.566 0-3.133 1.459-3.133 3.875C.634-.694 1.96.144 3.098.144a2.417 2.417 0 0 0 2.416-2.452m-.778 0c0 1.04-.777 1.758-1.638 1.758-1.089 0-1.412-1.077-1.543-1.639-.036-.143-.036-.263-.036-.478 0-.694.646-1.387 1.626-1.387.933 0 1.591.8 1.591 1.746"/><path id="g" d="M5.537-.49v-.252c0-.215 0-.49-.382-.49-.395 0-.395.251-.395.538H1.878L4.162-2.63c.168-.144 1.375-1.172 1.375-2.5 0-1.363-1.124-2.32-2.619-2.32C1.531-7.451.61-6.411.61-5.406a.49.49 0 0 0 .49.538.48.48 0 0 0 .479-.49c0-.227-.084-.3-.144-.347.168-.634.718-1.052 1.411-1.052 1.017 0 1.914.586 1.914 1.626 0 .933-.706 1.65-1.351 2.213L.777-.634C.646-.526.61-.49.61-.347.61 0 .933 0 1.1 0h4.174c.263-.072.263-.311.263-.49"/><path id="A" d="M6.016-6.96c0-.348-.323-.348-.49-.348H4.64c-.167 0-.49 0-.49.347s.323.347.49.347h.276L4.4-2.739c-.083.682-.191 1.423-.203 1.878h-.012c-.06-.85-.622-3.217-.622-3.217-.084-.311-.383-.311-.49-.311s-.36 0-.467.25c-.048.108-.586 2.477-.646 3.278H1.95c-.011-.323-.035-.49-.095-.969l-.61-4.784h.263c.167 0 .49 0 .49-.347s-.323-.347-.49-.347H.622c-.168 0-.49 0-.49.347s.346.347.418.347h.012l.861 6.255c.036.24.06.467.467.467.12 0 .37 0 .478-.275.024-.072.646-2.787.694-3.373h.012c.048.55.67 3.3.717 3.408.12.24.347.24.467.24.406 0 .43-.24.466-.455l.861-6.267c.084 0 .43 0 .43-.347"/><path id="h" d="M5.55-3.648c0-2.224-1.185-3.803-2.476-3.803C1.77-7.451.598-5.848.598-3.66.598-1.435 1.782.144 3.074.144c1.303 0 2.475-1.603 2.475-3.792m-.778-.131c0 1.77-.753 3.229-1.698 3.229S1.375-1.997 1.375-3.78s.826-2.977 1.699-2.977S4.772-5.561 4.772-3.78"/></defs><g fill="none" stroke="#000" stroke-miterlimit="10" stroke-width=".3985"><path d="M13.906 42.186h382.682V25.178H13.906ZM39.418 42.186V25.178M64.93 42.186V25.178M90.442 42.186V25.178M115.955 42.186V25.178M141.467 42.186V25.178M166.979 42.186V25.178M192.49 42.186V25.178M218.003 42.186V25.178M243.515 42.186V25.178M269.027 42.186V25.178M294.54 42.186V25.178M320.051 42.186V25.178M345.564 42.186V25.178M371.076 42.186V25.178"/></g><g transform="translate(78.599 67.157)scale(1.0004)"><use xlink:href="#a" x="-58.117325" y="-29.822969"/><use xlink:href="#b" x="-51.957927" y="-29.822969"/></g><g transform="translate(104.117 67.145)scale(1.0004)"><use xlink:href="#c" x="-58.117325" y="-29.822969"/><use xlink:href="#d" x="-51.969886" y="-29.822969"/></g><g transform="translate(129.629 67.145)scale(1.0004)"><use xlink:href="#c" x="-58.117325" y="-29.822969"/><use xlink:href="#e" x="-51.969886" y="-29.822969"/></g><g transform="translate(155.141 67.145)scale(1.0004)"><use xlink:href="#c" x="-58.117325" y="-29.822969"/><use xlink:href="#e" x="-51.969886" y="-29.822969"/></g><g transform="translate(180.654 67.145)scale(1.0004)"><use xlink:href="#c" x="-58.117325" y="-29.822969"/><use xlink:href="#f" x="-51.969886" y="-29.822969"/></g><g transform="translate(206.16 67.181)scale(1.0004)"><use xlink:href="#g" x="-58.117325" y="-29.822969"/><use xlink:href="#e" x="-51.957927" y="-29.822969"/></g><g transform="translate(231.672 67.145)scale(1.0004)"><use xlink:href="#g" x="-58.117325" y="-29.822969"/><use xlink:href="#h" x="-51.957927" y="-29.822969"/></g><g transform="translate(257.184 67.163)scale(1.0004)"><use xlink:href="#i" x="-58.117325" y="-29.822969"/><use xlink:href="#i" x="-51.957927" y="-29.822969"/></g><g transform="translate(282.702 67.145)scale(1.0004)"><use xlink:href="#c" x="-58.117325" y="-29.822969"/><use xlink:href="#f" x="-51.969886" y="-29.822969"/></g><g transform="translate(308.208 67.163)scale(1.0004)"><use xlink:href="#i" x="-58.117325" y="-29.822969"/><use xlink:href="#g" x="-51.957927" y="-29.822969"/></g><g transform="translate(333.726 67.145)scale(1.0004)"><use xlink:href="#c" x="-58.117325" y="-29.822969"/><use xlink:href="#e" x="-51.969886" y="-29.822969"/></g><g transform="translate(359.238 67.157)scale(1.0004)"><use xlink:href="#c" x="-58.117325" y="-29.822969"/><use xlink:href="#a" x="-51.969886" y="-29.822969"/></g><g transform="translate(384.745 67.217)scale(1.0004)"><use xlink:href="#g" x="-58.117325" y="-29.822969"/><use xlink:href="#j" x="-51.957927" y="-29.822969"/></g><g transform="translate(410.257 67.145)scale(1.0004)"><use xlink:href="#h" x="-58.117325" y="-29.822969"/><use xlink:href="#k" x="-51.957927" y="-29.822969"/></g><use xlink:href="#h" x="-58.117325" y="-29.822969" transform="translate(438.847 67.145)scale(1.0004)"/><use xlink:href="#l" x="-58.098793" y="-29.813459" transform="translate(81.892 51.944)scale(1.00008)"/><use xlink:href="#m" x="-58.098793" y="-29.813459" transform="translate(107.405 52.004)scale(1.00008)"/><use xlink:href="#n" x="-58.098793" y="-29.813459" transform="translate(132.917 52.004)scale(1.00008)"/><use xlink:href="#o" x="-58.098793" y="-29.813459" transform="translate(158.429 51.944)scale(1.00008)"/><use xlink:href="#p" x="-58.098793" y="-29.813459" transform="translate(183.941 52.009)scale(1.00008)"/><use xlink:href="#q" x="-58.098793" y="-29.813459" transform="translate(209.453 51.884)scale(1.00008)"/><use xlink:href="#r" x="-58.098793" y="-29.813459" transform="translate(234.965 51.944)scale(1.00008)"/><use xlink:href="#s" x="-58.098793" y="-29.813459" transform="translate(260.477 51.971)scale(1.00008)"/><use xlink:href="#t" x="-58.098793" y="-29.813459" transform="translate(285.989 51.944)scale(1.00008)"/><use xlink:href="#u" x="-58.098793" y="-29.813459" transform="translate(311.502 51.944)scale(1.00008)"/><g transform="translate(334.15 51.944)scale(1.00008)"><use xlink:href="#m" x="-58.098793" y="-29.813459"/><use xlink:href="#l" x="-52.371044" y="-29.813459"/></g><g transform="translate(359.662 52.004)scale(1.00008)"><use xlink:href="#m" x="-58.098793" y="-29.813459"/><use xlink:href="#m" x="-52.371044" y="-29.813459"/></g><g transform="translate(385.174 52.004)scale(1.00008)"><use xlink:href="#m" x="-58.098793" y="-29.813459"/><use xlink:href="#n" x="-52.371044" y="-29.813459"/></g><g transform="translate(410.686 51.944)scale(1.00008)"><use xlink:href="#m" x="-58.098793" y="-29.813459"/><use xlink:href="#o" x="-52.371044" y="-29.813459"/></g><g transform="translate(436.198 52.009)scale(1.00008)"><use xlink:href="#m" x="-58.098793" y="-29.813459"/><use xlink:href="#p" x="-52.371044" y="-29.813459"/></g><g transform="translate(73.417 88.417)scale(1.0004)"><use xlink:href="#c" x="-58.117325" y="-29.822969"/><use xlink:href="#e" x="-51.969886" y="-29.822969"/><use xlink:href="#c" x="-43.825127" y="-29.822969"/><use xlink:href="#e" x="-37.677686" y="-29.822969"/><use xlink:href="#c" x="-29.520964" y="-29.822969"/><use xlink:href="#d" x="-23.373525" y="-29.822969"/><use xlink:href="#a" x="-15.216803" y="-29.822969"/><use xlink:href="#b" x="-9.057403" y="-29.822969"/></g><g transform="translate(175.466 88.423)scale(1.0004)"><use xlink:href="#i" x="-58.117325" y="-29.822969"/><use xlink:href="#i" x="-51.957927" y="-29.822969"/><use xlink:href="#g" x="-43.813164" y="-29.822969"/><use xlink:href="#h" x="-37.653766" y="-29.822969"/><use xlink:href="#g" x="-29.497043" y="-29.822969"/><use xlink:href="#e" x="-23.337642" y="-29.822969"/><use xlink:href="#c" x="-15.180922" y="-29.822969"/><use xlink:href="#f" x="-9.033481" y="-29.822969"/></g><g transform="translate(277.514 88.423)scale(1.0004)"><use xlink:href="#c" x="-58.117325" y="-29.822969"/><use xlink:href="#a" x="-51.969886" y="-29.822969"/><use xlink:href="#c" x="-43.825127" y="-29.822969"/><use xlink:href="#e" x="-37.677686" y="-29.822969"/><use xlink:href="#i" x="-29.520964" y="-29.822969"/><use xlink:href="#g" x="-23.361563" y="-29.822969"/><use xlink:href="#c" x="-15.204841" y="-29.822969"/><use xlink:href="#f" x="-9.057401" y="-29.822969"/></g><g transform="translate(379.563 88.405)scale(1.0004)"><use xlink:href="#h" x="-58.117325" y="-29.822969"/><use xlink:href="#k" x="-51.957927" y="-29.822969"/><use xlink:href="#g" x="-43.813164" y="-29.822969"/><use xlink:href="#j" x="-37.653766" y="-29.822969"/></g><g fill="none" stroke="#000" stroke-miterlimit="10" stroke-width=".3985"><path d="M13.906 88.958h382.682V71.95H13.906ZM39.418 88.958V71.95M64.93 88.958V71.95M90.442 88.958V71.95M115.955 88.958V71.95M141.467 88.958V71.95M166.979 88.958V71.95M192.49 88.958V71.95M218.003 88.958V71.95M243.515 88.958V71.95M269.027 88.958V71.95M294.54 88.958V71.95M320.051 88.958V71.95M345.564 88.958V71.95M371.076 88.958V71.95"/></g><use xlink:href="#v" x="-58.117325" y="-29.822969" transform="translate(81.678 113.154)scale(1.0004)"/><use xlink:href="#w" x="-58.117325" y="-29.822969" transform="translate(107.19 113.154)scale(1.0004)"/><use xlink:href="#x" x="-58.117325" y="-29.822969" transform="translate(132.702 113.154)scale(1.0004)"/><use xlink:href="#x" x="-58.117325" y="-29.822969" transform="translate(158.214 113.154)scale(1.0004)"/><use xlink:href="#y" x="-58.117325" y="-29.822969" transform="translate(183.726 113.154)scale(1.0004)"/><use xlink:href="#z" x="-58.117325" y="-29.822969" transform="translate(209.238 113.154)scale(1.0004)"/><use xlink:href="#A" x="-58.117325" y="-29.822969" transform="translate(260.262 113.154)scale(1.0004)"/><use xlink:href="#y" x="-58.117325" y="-29.822969" transform="translate(285.775 113.154)scale(1.0004)"/><use xlink:href="#B" x="-58.117325" y="-29.822969" transform="translate(311.287 113.154)scale(1.0004)"/><use xlink:href="#x" x="-58.117325" y="-29.822969" transform="translate(336.799 113.154)scale(1.0004)"/><use xlink:href="#C" x="-58.117325" y="-29.822969" transform="translate(362.311 113.154)scale(1.0004)"/><use xlink:href="#D" x="-58.117325" y="-29.822969" transform="translate(387.823 113.154)scale(1.0004)"/><g transform="translate(410.257 113.154)scale(1.0004)"><use xlink:href="#E" x="-58.117325" y="-29.822969"/><use xlink:href="#F" x="-51.957927" y="-29.822969"/></g><g transform="translate(435.769 113.154)scale(1.0004)"><use xlink:href="#E" x="-58.117325" y="-29.822969"/><use xlink:href="#h" x="-51.957927" y="-29.822969"/></g></svg>