<svg xmlns="http://www.w3.org/2000/svg" xmlns:xlink="http://www.w3.org/1999/xlink" width="117.57pt" height="143.7pt" viewBox="0 0 117.57 143.7"><defs><path id="j" d="M2.2-.586a.58.58 0 0 0-.573-.574.577.577 0 0 0-.586.574.58.58 0 1 0 1.16 0"/><path id="i" d="M6.088-.347c0-.347-.311-.347-.479-.347-.31 0-.55-.024-.717-.095v-2.608c0-.909-.682-1.865-2.297-1.865-.502 0-1.662 0-1.662.825 0 .323.227.502.49.502.072 0 .467-.024.479-.526 0-.06.012-.072.263-.096.143-.012.299-.012.442-.012.275 0 .682 0 1.077.3.43.334.43.669.43 1.016-.705.024-1.4.072-2.14.31C1.374-2.738.61-2.307.61-1.494c0 .85.753 1.567 1.866 1.567.382 0 1.124-.06 1.746-.49.24.394.837.418 1.292.418.287 0 .574 0 .574-.347M4.114-1.579c0 .275 0 .527-.49.754-.419.203-.98.203-1.017.203-.705 0-1.22-.383-1.22-.873 0-.706 1.28-1.112 2.727-1.112z"/><path id="h" d="M5.968-.347c0-.347-.31-.347-.478-.347H5v-6.123c0-.371-.072-.49-.48-.49h-.788c-.168 0-.479 0-.479.346s.311.347.479.347h.49v1.985c-.191-.19-.682-.598-1.411-.598C1.543-5.227.443-4.078.443-2.57c0 1.47 1.028 2.643 2.26 2.643.777 0 1.292-.467 1.519-.73 0 .503 0 .658.478.658h.79c.167 0 .478 0 .478-.347M4.222-2.272c0 .67-.55 1.65-1.447 1.65-.861 0-1.555-.873-1.555-1.95 0-1.148.813-1.96 1.662-1.96.778 0 1.34.705 1.34 1.327z"/><path id="f" d="M5.454-1.304c0-.071-.024-.335-.395-.335-.227 0-.299.084-.37.264-.3.693-1.077.753-1.304.753-.993 0-1.782-.753-1.914-1.674h3.504c.252 0 .479 0 .479-.443 0-1.4-.79-2.523-2.285-2.523-1.387 0-2.5 1.196-2.5 2.655A2.667 2.667 0 0 0 3.35.072c1.543 0 2.105-1.065 2.105-1.376m-.79-1.65H1.483c.156-1.017.933-1.615 1.686-1.615 1.196 0 1.448 1.017 1.495 1.615"/><path id="d" d="M3.755-.67a.68.68 0 0 0-.67-.681.674.674 0 0 0-.681.681c0 .359.31.67.67.67a.68.68 0 0 0 .681-.67"/><path id="e" d="M5.262-1.471c0-.24 0-.502-.394-.502-.383 0-.383.263-.383.514-.012.717-.694.837-.969.837-.933 0-.933-.598-.933-.885v-2.954h1.938c.167 0 .478 0 .478-.347s-.31-.347-.478-.347H2.583v-.98c0-.216 0-.49-.382-.49-.395 0-.395.274-.395.49v.98H.789c-.167 0-.49 0-.49.347s.311.347.478.347h1.029v3.014c0 1.112.765 1.519 1.627 1.519.645 0 1.83-.323 1.83-1.543"/><path id="g" d="M5.813-.347c0-.347-.311-.347-.479-.347h-.418L3.373-2.655l1.375-1.806h.419c.167 0 .478 0 .478-.347s-.31-.347-.478-.347H3.839c-.167 0-.478 0-.478.347s.287.347.574.347L3.038-3.23l-.921-1.232c.275 0 .562 0 .562-.347s-.31-.347-.478-.347H.873c-.167 0-.478 0-.478.347s.31.347.478.347h.419l1.423 1.806L1.22-.694H.813c-.167 0-.49 0-.49.347S.646 0 .813 0H2.13c.167 0 .478 0 .478-.347s-.275-.347-.598-.347L3.038-2.2 4.114-.694c-.299 0-.586 0-.586.347S3.84 0 4.007 0h1.327c.168 0 .479 0 .479-.347"/><path id="b" d="M4.822-.327c0-.339-.262-.339-.436-.339h-.993v-5.673c0-.174 0-.447-.327-.447-.208 0-.273.13-.328.262-.414.927-.981 1.047-1.189 1.069-.174.01-.403.033-.403.338 0 .273.196.328.36.328.207 0 .654-.066 1.134-.48v4.603h-.993c-.174 0-.436 0-.436.339 0 .327.273.327.436.327h2.739c.163 0 .436 0 .436-.327"/><path id="c" d="M5.15-.447v-.284c0-.207 0-.447-.371-.447-.382 0-.382.207-.382.512H1.8c.644-.556 1.691-1.374 2.16-1.81.688-.612 1.19-1.31 1.19-2.183 0-1.309-1.102-2.127-2.433-2.127-1.288 0-2.15.895-2.15 1.822a.486.486 0 1 0 .971.033.45.45 0 0 0-.152-.35c.163-.501.676-.84 1.276-.84.895 0 1.735.502 1.735 1.462 0 .764-.535 1.397-1.255 1.997L.731-.632c-.098.087-.164.141-.164.294C.567 0 .84 0 1.015 0h3.698c.36 0 .437-.098.437-.447"/><path id="a" d="M5.171-3.328c0-2.029-1.112-3.458-2.313-3.458-1.221 0-2.312 1.462-2.312 3.448C.546-1.31 1.658.12 2.858.12c1.222 0 2.313-1.462 2.313-3.448m-.752-.12c0 1.615-.71 2.903-1.56 2.903s-1.56-1.288-1.56-2.903c0-1.592.752-2.673 1.56-2.673.796 0 1.56 1.07 1.56 2.673"/></defs><g fill="none" stroke="#000" stroke-miterlimit="10" stroke-width=".3985"><path d="M49.339 124.924V11.537h56.694v113.387ZM49.339 102.247h56.694M49.339 79.57h56.694M49.339 68.23h56.694M49.339 45.553h56.694"/></g><use xlink:href="#a" x="-.042003" y="52.928366" transform="translate(37.984 75.333)scale(1.00008)"/><g transform="translate(37.984 52.655)scale(1.00008)"><use xlink:href="#b" x="-22.66287" y="52.928366"/><use xlink:href="#a" x="-16.935119" y="52.928366"/><use xlink:href="#b" x="-11.207369" y="52.928366"/><use xlink:href="#c" x="-5.479618" y="52.928366"/><use xlink:href="#a" x=".248132" y="52.928366"/></g><g transform="translate(37.984 18.639)scale(1.00008)"><use xlink:href="#b" x="-22.66287" y="52.928366"/><use xlink:href="#c" x="-16.935119" y="52.928366"/><use xlink:href="#a" x="-11.207369" y="52.928366"/><use xlink:href="#a" x="-5.479618" y="52.928366"/><use xlink:href="#a" x=".248132" y="52.928366"/></g><g transform="translate(84.954 41.26)scale(1.0004)"><use xlink:href="#d" x="-22.670098" y="52.945249"/><use xlink:href="#e" x="-16.510696" y="52.945249"/><use xlink:href="#f" x="-10.351295" y="52.945249"/><use xlink:href="#g" x="-4.191895" y="52.945249"/><use xlink:href="#e" x="1.967505" y="52.945249"/></g><g transform="translate(84.954 7.584)scale(1.0004)"><use xlink:href="#d" x="-22.670098" y="52.945249"/><use xlink:href="#h" x="-16.510696" y="52.945249"/><use xlink:href="#i" x="-10.351295" y="52.945249"/><use xlink:href="#e" x="-4.191895" y="52.945249"/><use xlink:href="#i" x="1.967505" y="52.945249"/></g><g transform="translate(98.721 65.38)scale(1.0004)"><use xlink:href="#j" x="-22.670098" y="44.972049"/><use xlink:href="#j" x="-22.670098" y="48.958649"/><use xlink:href="#j" x="-22.670098" y="52.945249"/></g><g transform="translate(98.721 -19.66)scale(1.0004)"><use xlink:href="#j" x="-22.670098" y="44.972049"/><use xlink:href="#j" x="-22.670098" y="48.958649"/><use xlink:href="#j" x="-22.670098" y="52.945249"/></g></svg>