<svg xmlns="http://www.w3.org/2000/svg" xmlns:xlink="http://www.w3.org/1999/xlink" width="246.55pt" height="152.2pt" viewBox="0 0 246.55 152.2"><defs><path id="B" d="M5.237-1.898c0-.819-.71-1.462-1.517-1.691.873-.295 1.364-.83 1.364-1.451 0-.895-.927-1.746-2.226-1.746-1.309 0-2.225.862-2.225 1.746 0 .621.502 1.167 1.364 1.45C1.178-3.36.48-2.716.48-1.897.48-.84 1.495.12 2.858.12c1.375 0 2.379-.96 2.379-2.018M4.33-5.03c0 .622-.676 1.102-1.473 1.102s-1.472-.49-1.472-1.102c0-.567.61-1.09 1.472-1.09.851 0 1.473.523 1.473 1.09m.153 3.12c0 .754-.72 1.364-1.626 1.364s-1.625-.61-1.625-1.363c0-.666.633-1.353 1.625-1.353 1.004 0 1.626.687 1.626 1.353"/><path id="A" d="M5.4-2.171c0-.338-.261-.338-.436-.338h-.85v-3.84c0-.36-.077-.448-.448-.448H3.36c-.262 0-.316.011-.458.23L.415-2.663c-.099.142-.099.164-.099.382 0 .36.099.436.437.436h2.75v1.178h-.677c-.175 0-.437 0-.437.339 0 .327.273.327.437.327h1.963c.164 0 .437 0 .437-.327 0-.339-.262-.339-.437-.339h-.676v-1.178h.851c.164 0 .436 0 .436-.327M3.502-2.51H1.08l2.422-3.808z"/><path id="y" d="M4.822-.327c0-.339-.262-.339-.436-.339h-.993v-5.673c0-.174 0-.447-.327-.447-.208 0-.273.13-.328.262-.414.927-.981 1.047-1.189 1.069-.174.01-.403.033-.403.338 0 .273.196.328.36.328.207 0 .654-.066 1.134-.48v4.603h-.993c-.174 0-.436 0-.436.339 0 .327.273.327.436.327h2.739c.163 0 .436 0 .436-.327"/><path id="z" d="M5.15-.447v-.284c0-.207 0-.447-.371-.447-.382 0-.382.207-.382.512H1.8c.644-.556 1.691-1.374 2.16-1.81.688-.612 1.19-1.31 1.19-2.183 0-1.309-1.102-2.127-2.433-2.127-1.288 0-2.15.895-2.15 1.822a.486.486 0 1 0 .971.033.45.45 0 0 0-.152-.35c.163-.501.676-.84 1.276-.84.895 0 1.735.502 1.735 1.462 0 .764-.535 1.397-1.255 1.997L.731-.632c-.098.087-.164.141-.164.294C.567 0 .84 0 1.015 0h3.698c.36 0 .437-.098.437-.447"/><path id="x" d="M5.171-3.328c0-2.029-1.112-3.458-2.313-3.458-1.221 0-2.312 1.462-2.312 3.448C.546-1.31 1.658.12 2.858.12c1.222 0 2.313-1.462 2.313-3.448m-.752-.12c0 1.615-.71 2.903-1.56 2.903s-1.56-1.288-1.56-2.903c0-1.592.752-2.673 1.56-2.673.796 0 1.56 1.07 1.56 2.673"/><path id="n" d="M6.088-.347c0-.347-.311-.347-.479-.347-.31 0-.55-.024-.717-.095v-2.608c0-.909-.682-1.865-2.297-1.865-.502 0-1.662 0-1.662.825 0 .323.227.502.49.502.072 0 .467-.024.479-.526 0-.06.012-.072.263-.096.143-.012.299-.012.442-.012.275 0 .682 0 1.077.3.43.334.43.669.43 1.016-.705.024-1.4.072-2.14.31C1.374-2.738.61-2.307.61-1.494c0 .85.753 1.567 1.866 1.567.382 0 1.124-.06 1.746-.49.24.394.837.418 1.292.418.287 0 .574 0 .574-.347M4.114-1.579c0 .275 0 .527-.49.754-.419.203-.98.203-1.017.203-.705 0-1.22-.383-1.22-.873 0-.706 1.28-1.112 2.727-1.112z"/><path id="h" d="M5.454-1.304c0-.31-.3-.31-.395-.31-.275 0-.323.095-.383.263-.263.657-.849.73-1.136.73-1.016 0-1.878-.85-1.878-1.962 0-.61.347-1.986 1.914-1.986.323 0 .574.024.682.036.083.024.095.036.095.096.036.49.407.502.479.502.263 0 .49-.18.49-.502 0-.825-1.208-.825-1.734-.825-2.045 0-2.703 1.674-2.703 2.679C.885-1.124 1.997.072 3.433.072c1.602 0 2.02-1.184 2.02-1.376"/><path id="o" d="M4.007-.215c0-.634-.395-1.136-.921-1.136a.663.663 0 0 0-.682.67c0 .394.299.681.67.681A.8.8 0 0 0 3.3-.036c-.06.37-.299.825-.885 1.029-.108.024-.287.083-.287.31 0 .156.18.36.37.36.324 0 1.508-.587 1.508-1.878"/><path id="r" d="M5.968-.347c0-.347-.31-.347-.478-.347H5v-6.123c0-.371-.072-.49-.48-.49h-.788c-.168 0-.479 0-.479.346s.311.347.479.347h.49v1.985c-.191-.19-.682-.598-1.411-.598C1.543-5.227.443-4.078.443-2.57c0 1.47 1.028 2.643 2.26 2.643.777 0 1.292-.467 1.519-.73 0 .503 0 .658.478.658h.79c.167 0 .478 0 .478-.347M4.222-2.272c0 .67-.55 1.65-1.447 1.65-.861 0-1.555-.873-1.555-1.95 0-1.148.813-1.96 1.662-1.96.778 0 1.34.705 1.34 1.327z"/><path id="m" d="M5.274-.347c0-.347-.31-.347-.478-.347H3.612v-3.97c0-.371-.072-.49-.478-.49h-1.58c-.167 0-.478 0-.478.346s.311.347.479.347h1.28v3.767H1.47c-.167 0-.49 0-.49.347S1.304 0 1.47 0h3.325c.167 0 .478 0 .478-.347M3.612-6.65c0-.299-.24-.538-.538-.538s-.538.24-.538.538.239.538.538.538.538-.239.538-.538"/><path id="l" d="M5.406-.347c0-.347-.311-.347-.478-.347h-1.46v-6.123c0-.371-.071-.49-.478-.49H1.232c-.168 0-.479 0-.479.346s.311.347.479.347H2.69v5.92h-1.46c-.167 0-.478 0-.478.347S1.064 0 1.232 0h3.696c.167 0 .478 0 .478-.347"/><path id="i" d="M5.179-.347c0-.347-.323-.347-.49-.347H3.635V-6.96c0-.18 0-.49-.347-.49-.203 0-.275.108-.347.263-.227.514-.622 1.148-1.256 1.196-.179.012-.43.036-.43.347 0 .203.12.347.383.347.67 0 1.184-.503 1.22-.527v5.131H1.805c-.167 0-.49 0-.49.347s.323.347.49.347h2.882c.168 0 .49 0 .49-.347"/><path id="g" d="M5.705-2.583c0-1.471-1.005-2.644-2.249-2.644-.873 0-1.423.527-1.53.646 0-.394 0-.574-.479-.574h-.79c-.167 0-.478 0-.478.347s.311.347.479.347h.49V1.96h-.49c-.168 0-.479 0-.479.347s.311.347.479.347h1.758c.167 0 .478 0 .478-.347s-.31-.347-.478-.347h-.49V-.598c.287.323.73.67 1.399.67 1.268 0 2.38-1.136 2.38-2.655m-.777 0c0 1.148-.814 1.961-1.663 1.961-.897 0-1.34-1.017-1.34-1.615v-.944c0-.682.67-1.352 1.448-1.352.86 0 1.555.873 1.555 1.95"/><path id="u" d="M5.119.682c0-.156-.084-.204-.251-.323C3.218-.777 2.81-2.488 2.81-3.648c0-1.136.382-2.858 2.057-4.018.167-.12.25-.168.25-.323 0-.12-.059-.311-.346-.311-.299 0-1.184.693-1.734 1.47a5.43 5.43 0 0 0-1.005 3.182c0 1.328.479 2.44.98 3.146C3.565.263 4.438.993 4.773.993c.287 0 .347-.204.347-.311"/><path id="v" d="M4.114-3.648c0-.933-.227-2.14-1.088-3.3-.407-.55-1.292-1.352-1.65-1.352-.276 0-.347.203-.347.31 0 .144.083.204.299.348 1.459 1.028 2.009 2.63 2.009 3.982C3.337-2.583 2.99-.825 1.28.36c-.156.107-.251.167-.251.323 0 .107.071.31.346.31.3 0 1.184-.693 1.735-1.47a5.5 5.5 0 0 0 1.004-3.17"/><path id="t" d="M5.514-2.308c0-1.4-1.041-2.452-2.285-2.452-.61 0-1.291.227-1.806.777.12-1.578 1.16-2.774 2.332-2.774.24 0 .515.035.694.227-.048.06-.096.12-.096.299 0 .227.168.478.479.478s.49-.227.49-.502c0-.634-.49-1.196-1.555-1.196-1.566 0-3.133 1.459-3.133 3.875C.634-.694 1.96.144 3.098.144a2.417 2.417 0 0 0 2.416-2.452m-.778 0c0 1.04-.777 1.758-1.638 1.758-1.089 0-1.412-1.077-1.543-1.639-.036-.143-.036-.263-.036-.478 0-.694.646-1.387 1.626-1.387.933 0 1.591.8 1.591 1.746"/><path id="s" d="M5.633-2.07c0-.609-.335-1.458-1.387-1.913.73-.454 1.052-1.172 1.052-1.794 0-.897-.897-1.674-2.188-1.674-1.328 0-2.26.574-2.26 1.459 0 .395.298.514.49.514a.48.48 0 0 0 .478-.49c0-.191-.096-.311-.096-.311.359-.454 1.184-.478 1.388-.478.813 0 1.41.43 1.41.992 0 .347-.226 1.34-1.482 1.424-.443.023-.634.047-.682.047-.24.024-.299.18-.299.347 0 .347.251.347.455.347h.55c1.244 0 1.794.873 1.794 1.519 0 .79-.694 1.53-1.746 1.53-1.196 0-1.735-.645-1.735-.812l.024-.06a.6.6 0 0 0 .084-.287.47.47 0 0 0-.478-.479c-.252 0-.49.156-.49.527C.514-.622 1.65.144 3.11.144c1.507 0 2.523-1.077 2.523-2.213"/><path id="k" d="M5.537-.49v-.252c0-.215 0-.49-.382-.49-.395 0-.395.251-.395.538H1.878L4.162-2.63c.168-.144 1.375-1.172 1.375-2.5 0-1.363-1.124-2.32-2.619-2.32C1.531-7.451.61-6.411.61-5.406a.49.49 0 0 0 .49.538.48.48 0 0 0 .479-.49c0-.227-.084-.3-.144-.347.168-.634.718-1.052 1.411-1.052 1.017 0 1.914.586 1.914 1.626 0 .933-.706 1.65-1.351 2.213L.777-.634C.646-.526.61-.49.61-.347.61 0 .933 0 1.1 0h4.174c.263-.072.263-.311.263-.49"/><path id="p" d="M5.968-.347c0-.347-.31-.347-.478-.347H5v-3.97c0-.371-.072-.49-.48-.49h-.788c-.168 0-.479 0-.479.346s.311.347.479.347h.49v2.595c0 .981-.813 1.244-1.352 1.244-.944 0-.944-.43-.944-.801v-3.241c0-.371-.072-.49-.479-.49h-.79c-.167 0-.478 0-.478.346s.311.347.479.347h.49v3.098c0 1.1.718 1.435 1.639 1.435.73 0 1.184-.3 1.423-.503C4.21 0 4.497 0 4.7 0h.79c.167 0 .478 0 .478-.347"/><path id="q" d="M5.813-.347c0-.347-.311-.347-.479-.347h-.418L3.373-2.655l1.375-1.806h.419c.167 0 .478 0 .478-.347s-.31-.347-.478-.347H3.839c-.167 0-.478 0-.478.347s.287.347.574.347L3.038-3.23l-.921-1.232c.275 0 .562 0 .562-.347s-.31-.347-.478-.347H.873c-.167 0-.478 0-.478.347s.31.347.478.347h.419l1.423 1.806L1.22-.694H.813c-.167 0-.49 0-.49.347S.646 0 .813 0H2.13c.167 0 .478 0 .478-.347s-.275-.347-.598-.347L3.038-2.2 4.114-.694c-.299 0-.586 0-.586.347S3.84 0 4.007 0h1.327c.168 0 .479 0 .479-.347"/><path id="j" d="M5.55-3.648c0-2.224-1.185-3.803-2.476-3.803C1.77-7.451.598-5.848.598-3.66.598-1.435 1.782.144 3.074.144c1.303 0 2.475-1.603 2.475-3.792m-.778-.131c0 1.77-.753 3.229-1.698 3.229S1.375-1.997 1.375-3.78s.826-2.977 1.699-2.977S4.772-5.561 4.772-3.78"/><path id="d" d="M4.856-1.423c0-.108-.084-.108-.12-.108-.107 0-.12.036-.155.18-.263.849-.91 1.207-1.555 1.207-.73 0-1.698-.633-1.698-2.451 0-1.986 1.016-2.476 1.614-2.476.455 0 1.112.18 1.388.646-.144 0-.587 0-.587.49 0 .287.204.49.49.49.276 0 .503-.167.503-.514 0-.801-.837-1.375-1.806-1.375C1.53-5.334.42-4.09.42-2.584.419-1.051 1.567.12 2.919.12c1.578 0 1.937-1.436 1.937-1.543"/><path id="e" d="M4.868-1.423c0-.072-.06-.12-.132-.12-.096 0-.12.06-.143.12C4.282-.42 3.48-.143 2.978-.143s-1.71-.335-1.71-2.404v-.228H4.58c.263 0 .287 0 .287-.227 0-1.208-.646-2.332-2.093-2.332C1.41-5.334.359-4.102.359-2.62.359-1.041 1.579.12 2.906.12c1.424 0 1.962-1.292 1.962-1.543m-.742-1.579H1.28c.095-1.878 1.148-2.093 1.483-2.093 1.28 0 1.351 1.686 1.363 2.093"/><path id="c" d="M5.49-2.56c0-1.542-1.172-2.774-2.56-2.774C1.495-5.334.36-4.066.36-2.56.359-1.03 1.555.12 2.919.12c1.41 0 2.57-1.172 2.57-2.68m-.91-.107c0 .419 0 1.16-.31 1.722a1.56 1.56 0 0 1-1.34.801c-.442 0-.98-.19-1.327-.777-.323-.538-.335-1.244-.335-1.746 0-.455 0-1.184.37-1.722a1.53 1.53 0 0 1 1.28-.706c.467 0 .969.215 1.292.682.37.55.37 1.303.37 1.746"/><path id="a" d="M7.308-5.956c0-1.16-1.16-2.213-2.775-2.213H.503v.347h.239c.86 0 .897.12.897.562v6.351c0 .443-.036.562-.897.562h-.24V0C.79-.024 1.77-.024 2.117-.024c.359 0 1.34 0 1.626.024v-.347h-.239c-.86 0-.897-.12-.897-.562v-2.894H4.63c1.399 0 2.679-.945 2.679-2.153m-1.113 0c0 .502 0 1.866-1.95 1.866H2.584v-3.253c0-.395.024-.479.55-.479h1.125c1.937 0 1.937 1.352 1.937 1.866"/><path id="w" d="M2.2-.586a.58.58 0 0 0-.573-.574.577.577 0 0 0-.586.574.58.58 0 1 0 1.16 0"/><path id="b" d="M4.222-4.58c0-.36-.323-.694-.837-.694-1.017 0-1.364 1.1-1.436 1.327h-.011v-1.327l-1.603.131v.347c.813 0 .909.084.909.67v3.241c0 .538-.132.538-.91.538V0c.336-.024.994-.024 1.352-.024.323 0 1.172 0 1.448.024v-.347h-.24c-.873 0-.897-.131-.897-.562v-1.878c0-1.16.479-2.248 1.4-2.248.095 0 .12 0 .167.012-.096.048-.287.12-.287.442a.46.46 0 0 0 .466.479c.24 0 .479-.156.479-.479"/><path id="f" d="M4.21-1.519c0-.646-.395-1.028-.502-1.136-.431-.37-.754-.443-1.543-.586-.359-.072-1.232-.24-1.232-.957 0-.37.251-.92 1.327-.92 1.304 0 1.376 1.111 1.4 1.482.012.096.095.096.131.096.132 0 .132-.06.132-.275V-5.06c0-.215 0-.275-.12-.275-.095 0-.323.263-.406.37-.371-.298-.742-.37-1.125-.37-1.447 0-1.877.79-1.877 1.447 0 .132 0 .55.454.969.383.335.79.418 1.34.526.657.132.813.167 1.112.407.215.179.37.442.37.777 0 .514-.298 1.088-1.35 1.088C1.53-.12.956-.574.693-1.77c-.048-.215-.06-.24-.06-.24-.024-.047-.072-.047-.108-.047-.131 0-.131.06-.131.275v1.627c0 .215 0 .275.12.275.06 0 .071-.012.274-.264.06-.083.06-.107.24-.299.454.563 1.1.563 1.303.563C3.588.12 4.21-.574 4.21-1.52"/></defs><path fill="none" stroke="#000" stroke-miterlimit="10" stroke-width=".3985" d="M11.538 105.078V59.723H79.57v45.355Z"/><g transform="translate(81.645 53.342)scale(1.0004)"><use xlink:href="#a" x="-60.486275" y="33.095282"/><use xlink:href="#b" x="-52.520919" y="33.095282"/><use xlink:href="#c" x="-47.96416" y="33.095282"/><use xlink:href="#d" x="-41.792798" y="33.095282"/><use xlink:href="#e" x="-36.590198" y="33.095282"/><use xlink:href="#f" x="-31.387597" y="33.095282"/><use xlink:href="#f" x="-26.771037" y="33.095282"/><use xlink:href="#c" x="-22.154476" y="33.095282"/><use xlink:href="#b" x="-16.294076" y="33.095282"/></g><path fill="none" stroke="#000" stroke-miterlimit="10" stroke-width=".3985" d="M11.538 127.755v-17.008h62.363v17.008ZM34.215 127.755v-17.008"/><g transform="translate(77.182 89.059)scale(1.0004)"><use xlink:href="#g" x="-60.486275" y="33.095282"/><use xlink:href="#h" x="-54.326877" y="33.095282"/></g><g transform="translate(99.128 89.059)scale(1.0004)"><use xlink:href="#i" x="-60.486275" y="33.095282"/><use xlink:href="#j" x="-54.326877" y="33.095282"/><use xlink:href="#i" x="-48.167476" y="33.095282"/><use xlink:href="#k" x="-42.008075" y="33.095282"/><use xlink:href="#j" x="-35.848674" y="33.095282"/></g><g fill="none" stroke="#000" stroke-miterlimit="10" stroke-width=".3985"><path d="M42.72 105.078v5.67M113.587 133.425V14.368h90.71v119.057ZM113.587 37.046h90.71M113.587 54.054h90.71M113.587 71.062h90.71M113.587 88.07h90.71"/></g><g transform="translate(194.775 49.377)scale(1.0004)"><use xlink:href="#l" x="-60.486275" y="33.095282"/><use xlink:href="#m" x="-54.326877" y="33.095282"/><use xlink:href="#n" x="-42.020034" y="33.095282"/><use xlink:href="#j" x="-35.860632" y="33.095282"/><use xlink:href="#o" x="-29.701232" y="33.095282"/><use xlink:href="#i" x="-17.38243" y="33.095282"/></g><g transform="translate(179.383 31.873)scale(1.0004)"><use xlink:href="#n" x="-60.486275" y="33.095282"/><use xlink:href="#p" x="-54.326877" y="33.095282"/><use xlink:href="#m" x="-48.167476" y="33.095282"/><use xlink:href="#g" x="-42.008075" y="33.095282"/><use xlink:href="#h" x="-35.848674" y="33.095282"/><use xlink:href="#n" x="-23.541831" y="33.095282"/><use xlink:href="#i" x="-17.38243" y="33.095282"/><use xlink:href="#o" x="-11.223029" y="33.095282"/><use xlink:href="#j" x="1.095772" y="33.095282"/><use xlink:href="#q" x="7.255173" y="33.095282"/><use xlink:href="#k" x="13.414573" y="33.095282"/></g><g transform="translate(176.311 15.785)scale(1.0004)"><use xlink:href="#l" x="-60.486275" y="33.095282"/><use xlink:href="#r" x="-54.326877" y="33.095282"/><use xlink:href="#n" x="-42.020034" y="33.095282"/><use xlink:href="#i" x="-35.860632" y="33.095282"/><use xlink:href="#o" x="-29.701232" y="33.095282"/><use xlink:href="#s" x="-17.38243" y="33.095282"/><use xlink:href="#i" x="-11.223029" y="33.095282"/><use xlink:href="#t" x="-5.063629" y="33.095282"/><use xlink:href="#u" x="1.083811" y="33.095282"/><use xlink:href="#n" x="7.243212" y="33.095282"/><use xlink:href="#i" x="13.402613" y="33.095282"/><use xlink:href="#v" x="19.562014" y="33.095282"/></g><g transform="translate(217.778 -2.656)scale(1.0004)"><use xlink:href="#w" x="-60.486275" y="25.121082"/><use xlink:href="#w" x="-60.486275" y="29.108682"/><use xlink:href="#w" x="-60.486275" y="33.095282"/></g><g transform="translate(217.778 82.384)scale(1.0004)"><use xlink:href="#w" x="-60.486275" y="25.121082"/><use xlink:href="#w" x="-60.486275" y="29.108682"/><use xlink:href="#w" x="-60.486275" y="33.095282"/></g><use xlink:href="#x" x="-60.466988" y="33.084729" transform="translate(269.01 103.676)scale(1.00008)"/><g transform="translate(269.01 58.321)scale(1.00008)"><use xlink:href="#y" x="-60.466988" y="33.084729"/><use xlink:href="#x" x="-54.739243" y="33.084729"/><use xlink:href="#y" x="-49.011491" y="33.084729"/><use xlink:href="#z" x="-43.283739" y="33.084729"/><use xlink:href="#x" x="-37.555986" y="33.084729"/></g><g transform="translate(269.01 41.318)scale(1.00008)"><use xlink:href="#y" x="-60.466988" y="33.084729"/><use xlink:href="#x" x="-54.739243" y="33.084729"/><use xlink:href="#y" x="-49.011491" y="33.084729"/><use xlink:href="#z" x="-43.283739" y="33.084729"/><use xlink:href="#A" x="-37.555986" y="33.084729"/></g><g transform="translate(269.01 24.305)scale(1.00008)"><use xlink:href="#y" x="-60.466988" y="33.084729"/><use xlink:href="#x" x="-54.739243" y="33.084729"/><use xlink:href="#y" x="-49.011491" y="33.084729"/><use xlink:href="#z" x="-43.283739" y="33.084729"/><use xlink:href="#B" x="-37.555986" y="33.084729"/></g><path fill="none" stroke="#000" stroke-miterlimit="10" stroke-width=".3985" d="M79.57 79.566h30.347"/><path d="m113.02 79.566-4.469-1.682 1.466 1.682-1.466 1.682Z"/><path fill="none" stroke="#000" stroke-miterlimit="10" stroke-width=".3985" d="m113.02 79.566-4.469-1.682 1.466 1.682-1.466 1.682Z"/></svg>