<svg xmlns="http://www.w3.org/2000/svg" xmlns:xlink="http://www.w3.org/1999/xlink" width="344.35pt" height="84.75pt" viewBox="0 0 344.35 84.75"><defs><path id="w" d="M4.822-.327c0-.339-.262-.339-.436-.339h-.993v-5.673c0-.174 0-.447-.327-.447-.208 0-.273.13-.328.262-.414.927-.981 1.047-1.189 1.069-.174.01-.403.033-.403.338 0 .273.196.328.36.328.207 0 .654-.066 1.134-.48v4.603h-.993c-.174 0-.436 0-.436.339 0 .327.273.327.436.327h2.739c.163 0 .436 0 .436-.327"/><path id="v" d="M5.171-3.328c0-2.029-1.112-3.458-2.313-3.458-1.221 0-2.312 1.462-2.312 3.448C.546-1.31 1.658.12 2.858.12c1.222 0 2.313-1.462 2.313-3.448m-.752-.12c0 1.615-.71 2.903-1.56 2.903s-1.56-1.288-1.56-2.903c0-1.592.752-2.673 1.56-2.673.796 0 1.56 1.07 1.56 2.673"/><path id="e" d="M2.2-4.58a.58.58 0 0 0-.573-.575.577.577 0 0 0-.586.574.58.58 0 1 0 1.16 0m0 3.994a.58.58 0 0 0-.573-.574.577.577 0 0 0-.586.574.58.58 0 1 0 1.16 0"/><path id="j" d="M5.27-.971v-.611h-.273v.611c0 .633-.273.698-.393.698-.36 0-.404-.49-.404-.545V-3c0-.458 0-.884-.392-1.288a2.08 2.08 0 0 0-1.495-.6c-.895 0-1.647.513-1.647 1.233 0 .327.218.513.501.513a.48.48 0 0 0 .502-.502c0-.13-.054-.49-.556-.502.294-.382.829-.502 1.178-.502.535 0 1.157.426 1.157 1.397v.403c-.557.033-1.32.066-2.008.393-.818.371-1.09.939-1.09 1.419C.35-.153 1.406.12 2.094.12a1.51 1.51 0 0 0 1.429-.95c.044.437.338.895.85.895.23 0 .896-.152.896-1.036m-1.822-.556C3.448-.491 2.662-.12 2.17-.12c-.534 0-.982-.382-.982-.927 0-.6.458-1.506 2.259-1.571z"/><path id="z" d="M5.684-2.357c0-1.385-1.07-2.465-2.313-2.465-.85 0-1.32.513-1.494.709v-3.459l-1.572.12v.339c.764 0 .851.076.851.61V0h.273l.393-.676c.164.25.622.796 1.43.796 1.297 0 2.432-1.07 2.432-2.477m-.905-.01c0 .403-.022 1.058-.339 1.549-.229.338-.643.698-1.232.698-.491 0-.884-.262-1.146-.666-.153-.229-.153-.261-.153-.458V-3.49c0-.207 0-.218.12-.393a1.58 1.58 0 0 1 1.288-.698c.49 0 .883.283 1.145.698.284.447.317 1.07.317 1.517"/><path id="r" d="M4.528-1.298c0-.11-.11-.11-.142-.11-.098 0-.12.044-.142.11C3.928-.284 3.218-.153 2.814-.153c-.577 0-1.538-.469-1.538-2.225 0-1.779.895-2.237 1.473-2.237.099 0 .786.011 1.168.404-.448.032-.513.36-.513.502 0 .283.196.501.502.501.283 0 .502-.185.502-.512 0-.742-.83-1.168-1.67-1.168-1.363 0-2.367 1.179-2.367 2.531C.37-.96 1.45.12 2.717.12c1.462 0 1.81-1.31 1.81-1.418"/><path id="i" d="M5.75 0v-.338c-.764 0-.851-.077-.851-.611v-6.623l-1.571.12v.339c.763 0 .85.076.85.61v2.357c-.316-.393-.785-.676-1.374-.676C1.516-4.822.37-3.753.37-2.346.37-.96 1.44.12 2.684.12c.698 0 1.189-.37 1.462-.72v.72zM4.146-1.287c0 .196 0 .218-.12.403-.328.524-.818.764-1.288.764-.49 0-.883-.284-1.145-.698-.284-.448-.317-1.07-.317-1.517 0-.403.022-1.058.339-1.549.229-.338.643-.698 1.233-.698.381 0 .84.163 1.178.654.12.186.12.208.12.404z"/><path id="h" d="M4.528-1.298c0-.11-.088-.131-.142-.131-.098 0-.12.065-.142.153C3.862-.153 2.88-.153 2.771-.153c-.545 0-.982-.327-1.233-.73-.327-.524-.327-1.244-.327-1.637h3.044c.24 0 .273 0 .273-.23 0-1.08-.59-2.138-1.953-2.138-1.266 0-2.27 1.124-2.27 2.488 0 1.462 1.146 2.52 2.4 2.52 1.332 0 1.823-1.211 1.823-1.418m-.72-1.451H1.222c.065-1.626.982-1.899 1.353-1.899 1.123 0 1.233 1.473 1.233 1.899"/><path id="o" d="M3.895-6.928c0-.404-.404-.764-.982-.764-.764 0-1.691.579-1.691 1.735v1.255H.36v.338h.862v3.535c0 .49-.12.49-.851.49V0l1.244-.033c.436 0 .949 0 1.385.033v-.338h-.229c-.807 0-.829-.12-.829-.513v-3.513h1.244v-.338H1.909v-1.266c0-.96.524-1.484 1.004-1.484.033 0 .196 0 .36.077a.48.48 0 0 0-.327.458c0 .251.174.47.469.47.316 0 .48-.219.48-.48"/><path id="A" d="M4.899-2.193c0-1.298-.895-2.39-2.073-2.39-.524 0-.993.175-1.386.557v-2.127c.218.065.578.142.927.142 1.342 0 2.106-.993 2.106-1.135 0-.066-.033-.12-.109-.12 0 0-.033 0-.087.033a3.6 3.6 0 0 1-1.484.316c-.436 0-.938-.076-1.451-.305-.087-.033-.131-.033-.131-.033-.11 0-.11.087-.11.262v3.23c0 .195 0 .283.154.283.076 0 .098-.033.141-.098.12-.175.524-.764 1.408-.764.567 0 .84.502.927.698.175.404.197.83.197 1.375 0 .382 0 1.036-.262 1.494-.262.426-.666.71-1.168.71-.796 0-1.418-.579-1.603-1.222.032.01.065.021.185.021.36 0 .546-.272.546-.534s-.186-.535-.546-.535c-.153 0-.535.077-.535.578C.546-.818 1.299.24 2.52.24 3.786.24 4.9-.807 4.9-2.193"/><path id="y" d="M3.011-2.04v-.633H.12v.633z"/><path id="f" d="M2.695 0v-.338c-.72 0-.764-.055-.764-.48v-4.004l-1.527.12v.338c.709 0 .807.065.807.6v2.935c0 .49-.12.49-.851.49V0l1.2-.033c.382 0 .764.022 1.135.033m-.6-6.59a.583.583 0 0 0-1.167 0 .583.583 0 0 0 1.167 0"/><path id="g" d="M8.87 0v-.338c-.567 0-.84 0-.851-.328v-2.083c0-.939 0-1.277-.338-1.67-.153-.185-.513-.403-1.146-.403-.916 0-1.396.654-1.582 1.069-.153-.95-.96-1.07-1.45-1.07-.797 0-1.31.47-1.616 1.146v-1.145l-1.538.12v.338c.764 0 .851.076.851.611v2.924c0 .49-.12.49-.85.49V0l1.232-.033L2.804 0v-.338c-.731 0-.851 0-.851-.491v-2.008c0-1.134.775-1.745 1.473-1.745.687 0 .807.589.807 1.21v2.543c0 .49-.12.49-.85.49V0l1.232-.033L5.837 0v-.338c-.731 0-.851 0-.851-.491v-2.008c0-1.134.774-1.745 1.473-1.745.687 0 .807.589.807 1.21v2.543c0 .49-.12.49-.85.49V0l1.232-.033z"/><path id="q" d="M5.837 0v-.338c-.567 0-.84 0-.851-.328v-2.083c0-.939 0-1.277-.338-1.67-.153-.185-.513-.403-1.146-.403-.796 0-1.31.469-1.615 1.145v-1.145l-1.538.12v.338c.764 0 .851.076.851.611v2.924c0 .49-.12.49-.85.49V0l1.232-.033L2.804 0v-.338c-.731 0-.851 0-.851-.491v-2.008c0-1.134.775-1.745 1.473-1.745.687 0 .807.589.807 1.21v2.543c0 .49-.12.49-.85.49V0l1.232-.033z"/><path id="t" d="M5.139-2.335c0-1.396-1.091-2.553-2.411-2.553-1.364 0-2.423 1.19-2.423 2.553A2.435 2.435 0 0 0 2.717.12a2.43 2.43 0 0 0 2.422-2.455m-.906-.087c0 .393 0 .982-.24 1.462-.24.49-.72.807-1.265.807-.47 0-.95-.229-1.244-.73-.273-.48-.273-1.146-.273-1.539 0-.426 0-1.015.262-1.495a1.46 1.46 0 0 1 1.244-.73c.48 0 .949.24 1.232.708s.284 1.102.284 1.517"/><path id="n" d="M4.571 0v-.338h-.349c-.982 0-1.014-.12-1.014-.524v-6.12c0-.262 0-.284-.251-.284-.677.698-1.637.698-1.986.698v.338c.218 0 .862 0 1.43-.283v5.651c0 .393-.034.524-1.015.524h-.35V0c.382-.033 1.331-.033 1.768-.033s1.385 0 1.767.033"/><path id="u" d="M5.684-2.357c0-1.385-1.058-2.465-2.28-2.465-.851 0-1.31.48-1.527.72v-.72l-1.572.12v.338c.775 0 .851.065.851.546v5.105c0 .491-.12.491-.85.491v.339l1.221-.033 1.233.033v-.339c-.73 0-.85 0-.85-.49V-.645c.054.175.512.764 1.341.764C4.55.12 5.684-.95 5.684-2.357m-.905 0c0 1.32-.764 2.237-1.571 2.237-.437 0-.851-.218-1.146-.666-.153-.229-.153-.24-.153-.458v-2.433c.317-.556.851-.872 1.408-.872.796 0 1.462.96 1.462 2.192"/><path id="l" d="M3.971-4.157c0-.349-.338-.665-.807-.665-.797 0-1.19.73-1.342 1.2v-1.2l-1.517.12v.338c.764 0 .851.076.851.611v2.924c0 .49-.12.49-.85.49V0l1.243-.033c.437 0 .95 0 1.386.033v-.338h-.23c-.807 0-.828-.12-.828-.513v-1.68c0-1.08.458-2.051 1.287-2.051.076 0 .098 0 .12.01a.47.47 0 0 0-.251.426c0 .306.23.47.47.47.195 0 .468-.132.468-.48"/><path id="m" d="M3.928-1.396c0-.579-.328-.906-.459-1.037-.36-.35-.785-.436-1.243-.524-.611-.12-1.342-.261-1.342-.894 0-.382.283-.83 1.222-.83 1.2 0 1.254.983 1.276 1.32.011.099.131.099.131.099.142 0 .142-.055.142-.262v-1.102c0-.185 0-.262-.12-.262-.055 0-.077 0-.218.131a1.4 1.4 0 0 1-.186.175c-.414-.306-.862-.306-1.025-.306C.775-4.888.36-4.157.36-3.546c0 .382.175.688.47.928.348.283.654.349 1.44.501.24.044 1.134.219 1.134 1.004 0 .557-.382.993-1.233.993-.916 0-1.31-.622-1.516-1.55C.622-1.81.61-1.854.502-1.854c-.142 0-.142.077-.142.273v1.44C.36.044.36.12.48.12.535.12.546.11.753-.098.775-.12.775-.142.97-.35c.48.458.971.469 1.2.469 1.255 0 1.757-.731 1.757-1.516"/><path id="B" d="M5.291-7.026h-2.65c-1.332 0-1.354-.142-1.397-.35H.97l-.36 2.248h.273c.032-.174.13-.862.272-.993.077-.065.928-.065 1.07-.065h2.258L3.262-4.462C2.28-2.99 1.92-1.472 1.92-.36c0 .11 0 .6.502.6s.502-.49.502-.6v-.556c0-.6.033-1.2.12-1.79.044-.25.196-1.189.676-1.865l1.473-2.073c.098-.131.098-.153.098-.382"/><path id="k" d="M3.622-1.353v-.622H3.35v.6c0 .808-.327 1.222-.73 1.222-.732 0-.732-.993-.732-1.178v-3.033h1.56v-.338h-1.56V-6.71h-.272c-.011.895-.339 2.062-1.408 2.106v.24h.928v3.011C1.135-.01 2.149.12 2.542.12c.775 0 1.08-.775 1.08-1.473"/><path id="s" d="M4.986-1.866c0-.894-.687-1.745-1.822-1.974C4.059-4.135 4.69-4.9 4.69-5.76c0-.895-.96-1.506-2.007-1.506-1.102 0-1.931.655-1.931 1.484 0 .36.24.567.556.567.338 0 .557-.24.557-.556 0-.546-.513-.546-.677-.546.338-.534 1.058-.676 1.451-.676.448 0 1.048.24 1.048 1.222 0 .13-.022.763-.306 1.243-.327.524-.698.557-.97.568-.088.01-.35.032-.426.032-.088.011-.164.022-.164.131 0 .12.076.12.262.12h.48c.894 0 1.298.742 1.298 1.811 0 1.484-.753 1.8-1.233 1.8C2.16-.065 1.342-.25.96-.894c.382.055.72-.185.72-.6 0-.392-.294-.61-.61-.61-.263 0-.612.152-.612.632C.458-.48 1.473.24 2.662.24c1.331 0 2.324-.993 2.324-2.106"/><path id="x" d="M4.899-1.898h-.273c-.055.327-.131.807-.24.97-.077.088-.797.088-1.037.088H1.386l1.156-1.124C4.244-3.469 4.899-4.059 4.899-5.15c0-1.243-.982-2.116-2.313-2.116a2.016 2.016 0 0 0-2.04 1.975c0 .61.545.61.578.61.185 0 .567-.13.567-.578a.55.55 0 0 0-.578-.567c-.087 0-.11 0-.142.011.25-.71.84-1.113 1.473-1.113.993 0 1.462.884 1.462 1.778 0 .873-.546 1.735-1.146 2.412L.666-.404c-.12.12-.12.142-.12.404h4.047z"/><path id="p" d="M5.837 0v-.338c-.764 0-.851-.077-.851-.611v-3.873l-1.604.12v.338c.764 0 .851.076.851.611v1.942c0 .95-.524 1.691-1.32 1.691-.916 0-.96-.513-.96-1.08v-3.622l-1.604.12v.338c.851 0 .851.033.851 1.004v1.636C1.2-.873 1.2.12 2.858.12c.611 0 1.091-.305 1.408-.982V.12z"/><path id="a" d="M6.088-.347c0-.347-.311-.347-.479-.347-.31 0-.55-.024-.717-.095v-2.608c0-.909-.682-1.865-2.297-1.865-.502 0-1.662 0-1.662.825 0 .323.227.502.49.502.072 0 .467-.024.479-.526 0-.06.012-.072.263-.096.143-.012.299-.012.442-.012.275 0 .682 0 1.077.3.43.334.43.669.43 1.016-.705.024-1.4.072-2.14.31C1.374-2.738.61-2.307.61-1.494c0 .85.753 1.567 1.866 1.567.382 0 1.124-.06 1.746-.49.24.394.837.418 1.292.418.287 0 .574 0 .574-.347M4.114-1.579c0 .275 0 .527-.49.754-.419.203-.98.203-1.017.203-.705 0-1.22-.383-1.22-.873 0-.706 1.28-1.112 2.727-1.112z"/><path id="b" d="M5.968-.347c0-.347-.31-.347-.478-.347H5v-6.123c0-.371-.072-.49-.48-.49h-.788c-.168 0-.479 0-.479.346s.311.347.479.347h.49v1.985c-.191-.19-.682-.598-1.411-.598C1.543-5.227.443-4.078.443-2.57c0 1.47 1.028 2.643 2.26 2.643.777 0 1.292-.467 1.519-.73 0 .503 0 .658.478.658h.79c.167 0 .478 0 .478-.347M4.222-2.272c0 .67-.55 1.65-1.447 1.65-.861 0-1.555-.873-1.555-1.95 0-1.148.813-1.96 1.662-1.96.778 0 1.34.705 1.34 1.327z"/><path id="c" d="M5.274-.347c0-.347-.31-.347-.478-.347H3.612v-3.97c0-.371-.072-.49-.478-.49h-1.58c-.167 0-.478 0-.478.346s.311.347.479.347h1.28v3.767H1.47c-.167 0-.49 0-.49.347S1.304 0 1.47 0h3.325c.167 0 .478 0 .478-.347M3.612-6.65c0-.299-.24-.538-.538-.538s-.538.24-.538.538.239.538.538.538.538-.239.538-.538"/><path id="d" d="M5.968-4.808c0-.347-.323-.347-.49-.347h-1.34c-.167 0-.49 0-.49.347s.323.347.49.347H4.7L4.102-.813H4.09c-.048-.311-.239-.981-.358-1.364-.216-.777-.252-.92-.646-.92-.383 0-.43.143-.646.908-.24.814-.323 1.16-.359 1.376h-.012l-.622-3.648h.562c.168 0 .49 0 .49-.347s-.322-.347-.49-.347H.67c-.167 0-.49 0-.49.347s.3.347.586.347l.718 4.066c.072.419.263.455.538.455.467 0 .49-.096.73-.921.107-.419.299-1.077.335-1.4h.012c.012.156.071.49.323 1.412.239.801.263.909.717.909.203 0 .443 0 .526-.443l.718-4.078c.287 0 .586 0 .586-.347"/></defs><g transform="translate(26.635 64.278)scale(1.0004)"><use xlink:href="#a" x="-11.316542" y="-17.824154"/><use xlink:href="#b" x="-5.157142" y="-17.824154"/><use xlink:href="#b" x="1.002259" y="-17.824154"/><use xlink:href="#c" x="7.16166" y="-17.824154"/><use xlink:href="#d" x="13.32106" y="-17.824154"/><use xlink:href="#e" x="19.479818" y="-17.824154"/></g><g fill="none" stroke="#000" stroke-miterlimit="10" stroke-width=".3985"><path d="M60.688 54.183h272.13V31.506H60.688ZM162.736 54.183V31.506M205.256 54.183V31.506M230.768 54.183V31.506M273.288 54.183V31.506"/></g><g transform="translate(98.178 41.709)scale(1.00008)"><use xlink:href="#f" x="-11.312933" y="-17.81847"/><use xlink:href="#g" x="-8.279953" y="-17.81847"/><use xlink:href="#g" x=".808077" y="-17.81847"/><use xlink:href="#h" x="9.896106" y="-17.81847"/><use xlink:href="#i" x="14.740148" y="-17.81847"/><use xlink:href="#f" x="20.806108" y="-17.81847"/><use xlink:href="#j" x="23.839089" y="-17.81847"/><use xlink:href="#k" x="29.294089" y="-17.81847"/><use xlink:href="#h" x="33.538081" y="-17.81847"/></g><g transform="translate(188.293 41.557)scale(1.00008)"><use xlink:href="#l" x="-11.312933" y="-17.81847"/><use xlink:href="#m" x="-7.036213" y="-17.81847"/><use xlink:href="#n" x="-2.737674" y="-17.81847"/></g><g transform="translate(214.318 41.709)scale(1.00008)"><use xlink:href="#o" x="-11.312933" y="-17.81847"/><use xlink:href="#p" x="-7.974473" y="-17.81847"/><use xlink:href="#q" x="-1.908513" y="-17.81847"/><use xlink:href="#r" x="4.157447" y="-17.81847"/><use xlink:href="#k" x="9.001488" y="-17.81847"/><use xlink:href="#s" x="13.245478" y="-17.81847"/></g><g transform="translate(258.169 41.709)scale(1.00008)"><use xlink:href="#l" x="-11.312933" y="-17.81847"/><use xlink:href="#i" x="-7.036213" y="-17.81847"/></g><g transform="translate(297.695 40.711)scale(1.00008)"><use xlink:href="#t" x="-11.312933" y="-17.81847"/><use xlink:href="#u" x="-5.857934" y="-17.81847"/><use xlink:href="#r" x=".502596" y="-17.81847"/><use xlink:href="#t" x="5.346637" y="-17.81847"/><use xlink:href="#i" x="11.107116" y="-17.81847"/><use xlink:href="#h" x="17.173077" y="-17.81847"/></g><g transform="translate(220.733 63.994)scale(1.00008)"><use xlink:href="#v" x="-11.312933" y="-17.81847"/><use xlink:href="#v" x="-5.585183" y="-17.81847"/><use xlink:href="#v" x=".142567" y="-17.81847"/></g><g transform="translate(294.318 63.994)scale(1.00008)"><use xlink:href="#v" x="-11.312933" y="-17.81847"/><use xlink:href="#v" x="-5.585183" y="-17.81847"/><use xlink:href="#w" x=".142567" y="-17.81847"/><use xlink:href="#w" x="5.870317" y="-17.81847"/><use xlink:href="#v" x="11.598068" y="-17.81847"/><use xlink:href="#w" x="17.325818" y="-17.81847"/><use xlink:href="#w" x="23.053569" y="-17.81847"/></g><g transform="translate(109.082 87.064)scale(1.00008)"><use xlink:href="#n" x="-11.312933" y="-17.81847"/><use xlink:href="#x" x="-5.857934" y="-17.81847"/><use xlink:href="#y" x="-.402934" y="-17.81847"/><use xlink:href="#z" x="3.230096" y="-17.81847"/><use xlink:href="#f" x="9.296056" y="-17.81847"/><use xlink:href="#k" x="12.329036" y="-17.81847"/></g><g transform="translate(184.093 87.004)scale(1.00008)"><use xlink:href="#A" x="-11.312933" y="-17.81847"/><use xlink:href="#y" x="-5.857934" y="-17.81847"/><use xlink:href="#z" x="-2.224904" y="-17.81847"/><use xlink:href="#f" x="3.841056" y="-17.81847"/><use xlink:href="#k" x="6.874037" y="-17.81847"/></g><g transform="translate(218.109 87.004)scale(1.00008)"><use xlink:href="#s" x="-11.312933" y="-17.81847"/><use xlink:href="#y" x="-5.857934" y="-17.81847"/><use xlink:href="#z" x="-2.224904" y="-17.81847"/><use xlink:href="#f" x="3.841056" y="-17.81847"/><use xlink:href="#k" x="6.874037" y="-17.81847"/></g><g transform="translate(252.125 87.004)scale(1.00008)"><use xlink:href="#A" x="-11.312933" y="-17.81847"/><use xlink:href="#y" x="-5.857934" y="-17.81847"/><use xlink:href="#z" x="-2.224904" y="-17.81847"/><use xlink:href="#f" x="3.841056" y="-17.81847"/><use xlink:href="#k" x="6.874037" y="-17.81847"/></g><g transform="translate(303.149 87.004)scale(1.00008)"><use xlink:href="#B" x="-11.312933" y="-17.81847"/><use xlink:href="#y" x="-5.857934" y="-17.81847"/><use xlink:href="#z" x="-2.224904" y="-17.81847"/><use xlink:href="#f" x="3.841056" y="-17.81847"/><use xlink:href="#k" x="6.874037" y="-17.81847"/></g></svg>