<svg xmlns="http://www.w3.org/2000/svg" xmlns:xlink="http://www.w3.org/1999/xlink" width="412.22pt" height="144.39pt" viewBox="0 0 412.22 144.39"><defs><path id="G" d="M2.654 1.993c.064 0 .16 0 .16-.096 0-.032-.009-.04-.112-.144C1.61.725 1.339-.757 1.339-1.992c0-2.296.948-3.372 1.355-3.738.111-.104.12-.112.12-.152s-.032-.096-.112-.096c-.128 0-.526.407-.59.479C1.044-4.383.821-2.95.821-1.992c0 1.785.75 3.22 1.833 3.984"/><path id="J" d="M2.463-1.992c0-.758-.128-1.666-.622-2.607-.39-.733-1.116-1.378-1.26-1.378-.079 0-.103.055-.103.095 0 .032 0 .048.096.144 1.116 1.06 1.37 2.518 1.37 3.746C1.945.295.997 1.378.59 1.745c-.104.104-.112.112-.112.152s.024.095.104.095c.127 0 .526-.406.59-.478C2.24.4 2.462-1.036 2.462-1.992"/><path id="H" d="M2.503-5.077c0-.215-.016-.223-.232-.223-.326.319-.749.51-1.506.51v.263c.215 0 .646 0 1.108-.215v4.088c0 .295-.024.391-.781.391h-.28V0c.328-.024 1.013-.024 1.372-.024s1.052 0 1.379.024v-.263h-.28c-.757 0-.78-.096-.78-.39z"/><path id="I" d="M1.1-2.638c0-.662.056-1.243.343-1.73.239-.398.645-.725 1.147-.725.16 0 .526.024.71.303-.36.016-.39.287-.39.375-.001.239.182.374.374.374.143 0 .374-.087.374-.39 0-.479-.358-.869-1.076-.869C1.474-5.3.351-4.248.351-2.526.35-.366 1.355.167 2.128.167c.383 0 .797-.103 1.156-.446.318-.31.59-.646.59-1.339 0-1.044-.79-1.777-1.674-1.777-.574 0-.917.366-1.1.757M2.128-.072c-.422 0-.685-.295-.805-.518-.183-.358-.2-.9-.2-1.203 0-.79.431-1.38 1.045-1.38.398 0 .637.208.789.487.167.295.167.654.167 1.06s0 .757-.16 1.044c-.206.367-.485.51-.836.51"/><path id="B" d="M5.662-.338c0-.328-.272-.328-.436-.328-.458 0-.567-.054-.655-.087v-2.356c0-.775-.589-1.691-2.16-1.691-.469 0-1.582 0-1.582.796 0 .327.23.502.491.502.164 0 .47-.098.48-.502 0-.087.011-.098.23-.12.152-.01.294-.01.392-.01.83 0 1.396.337 1.396 1.112-1.93.033-3.272.578-3.272 1.626 0 .752.687 1.461 1.8 1.461.403 0 1.08-.076 1.593-.414.24.338.763.349 1.178.349.305 0 .545 0 .545-.338M3.818-1.462c0 .251 0 .48-.425.676C3-.6 2.509-.6 2.422-.6c-.676 0-1.124-.371-1.124-.796 0-.535.939-.939 2.52-.982z"/><path id="F" d="M5.324-2.357c0-1.341-.97-2.41-2.127-2.41-.524 0-1.015.196-1.386.534V-6.22c0-.338-.065-.447-.436-.447H.578c-.174 0-.447 0-.447.338C.13-6 .415-6 .567-6h.491v5.553c0 .218 0 .447.382.447.371 0 .371-.218.371-.491.447.458.917.556 1.266.556 1.189 0 2.247-1.036 2.247-2.422m-.753 0C4.571-1.309 3.808-.6 3.044-.6c-.851 0-1.233-.96-1.233-1.484v-.796c0-.644.633-1.222 1.32-1.222.808 0 1.44.796 1.44 1.745"/><path id="E" d="M5.15-2.073c0-1.102-.84-2.171-2.128-2.171-.382 0-.862.076-1.31.316V-6h2.62c.163 0 .436 0 .436-.328 0-.338-.262-.338-.437-.338H1.396c-.36 0-.436.098-.436.447v2.902c0 .197 0 .448.35.448.196 0 .24-.055.327-.164.294-.35.741-.545 1.374-.545.895 0 1.386.796 1.386 1.505 0 .873-.775 1.527-1.691 1.527-.306 0-1.004-.087-1.31-.687.055-.054.142-.13.142-.349a.48.48 0 0 0-.48-.49.483.483 0 0 0-.49.523C.567-.644 1.483.12 2.705.12 4.069.12 5.15-.862 5.15-2.073"/><path id="A" d="M5.139-3.404c0-2.63-1.211-3.382-2.248-3.382-1.21 0-2.313.906-2.313 2.226 0 1.243.96 2.214 2.16 2.214.568 0 1.135-.185 1.626-.632-.11 1.352-.96 2.433-2.007 2.433-.099 0-.491-.011-.72-.186.043-.055.098-.12.098-.305a.47.47 0 0 0-.48-.48c-.273 0-.491.185-.491.512C.764-.654.96.12 2.357.12c1.44 0 2.782-1.364 2.782-3.524m-.851-.84c0 .6-.59 1.222-1.495 1.222-.884 0-1.462-.731-1.462-1.538 0-.95.775-1.56 1.56-1.56.47 0 .775.25.95.469.348.425.447.632.447 1.407"/><path id="z" d="M4.822-.327c0-.339-.262-.339-.436-.339h-.993v-5.673c0-.174 0-.447-.327-.447-.208 0-.273.13-.328.262-.414.927-.981 1.047-1.189 1.069-.174.01-.403.033-.403.338 0 .273.196.328.36.328.207 0 .654-.066 1.134-.48v4.603h-.993c-.174 0-.436 0-.436.339 0 .327.273.327.436.327h2.739c.163 0 .436 0 .436-.327"/><path id="C" d="M5.139-2.106c0-1.243-.96-2.214-2.16-2.214-.568 0-1.135.185-1.626.632C1.506-5.226 2.53-6.12 3.49-6.12c.371 0 .546.12.6.175-.054.055-.109.12-.109.316 0 .262.197.48.48.48.273 0 .491-.185.491-.512 0-.535-.393-1.124-1.45-1.124-1.463 0-2.925 1.32-2.925 3.524C.578-.676 1.8.12 2.88.12 4.07.12 5.14-.796 5.14-2.106m-.753 0c0 .939-.72 1.56-1.506 1.56-.709 0-1.134-.534-1.353-1.2-.109-.261-.087-.523-.087-.676 0-.676.655-1.222 1.484-1.222.884 0 1.462.731 1.462 1.538"/><path id="D" d="M5.237-1.898c0-.775-.513-1.419-1.233-1.746.61-.393.916-1.015.916-1.604 0-.807-.796-1.538-2.05-1.538-1.31 0-2.074.524-2.074 1.276a.486.486 0 1 0 .971.022.45.45 0 0 0-.098-.294c.338-.339 1.113-.339 1.211-.339.742 0 1.288.393 1.288.884 0 .327-.164.71-.459.95-.349.283-.621.305-1.014.327-.622.043-.786.043-.786.36 0 .338.262.338.437.338h.502c1.08 0 1.636.73 1.636 1.364 0 .665-.61 1.353-1.604 1.353-.436 0-1.276-.12-1.56-.633.055-.055.131-.12.131-.338a.477.477 0 0 0-.48-.48c-.25 0-.491.163-.491.512C.48-.513 1.538.12 2.88.12c1.43 0 2.357-1.004 2.357-2.018"/><path id="y" d="M5.171-3.328c0-2.029-1.112-3.458-2.313-3.458-1.221 0-2.312 1.462-2.312 3.448C.546-1.31 1.658.12 2.858.12c1.222 0 2.313-1.462 2.313-3.448m-.752-.12c0 1.615-.71 2.903-1.56 2.903s-1.56-1.288-1.56-2.903c0-1.592.752-2.673 1.56-2.673.796 0 1.56 1.07 1.56 2.673"/><path id="h" d="M2.2-4.58a.58.58 0 0 0-.573-.575.577.577 0 0 0-.586.574.58.58 0 1 0 1.16 0m0 3.994a.58.58 0 0 0-.573-.574.577.577 0 0 0-.586.574.58.58 0 1 0 1.16 0"/><path id="m" d="M5.27-.971v-.611h-.273v.611c0 .633-.273.698-.393.698-.36 0-.404-.49-.404-.545V-3c0-.458 0-.884-.392-1.288a2.08 2.08 0 0 0-1.495-.6c-.895 0-1.647.513-1.647 1.233 0 .327.218.513.501.513a.48.48 0 0 0 .502-.502c0-.13-.054-.49-.556-.502.294-.382.829-.502 1.178-.502.535 0 1.157.426 1.157 1.397v.403c-.557.033-1.32.066-2.008.393-.818.371-1.09.939-1.09 1.419C.35-.153 1.406.12 2.094.12a1.51 1.51 0 0 0 1.429-.95c.044.437.338.895.85.895.23 0 .896-.152.896-1.036m-1.822-.556C3.448-.491 2.662-.12 2.17-.12c-.534 0-.982-.382-.982-.927 0-.6.458-1.506 2.259-1.571z"/><path id="u" d="M4.528-1.298c0-.11-.11-.11-.142-.11-.098 0-.12.044-.142.11C3.928-.284 3.218-.153 2.814-.153c-.577 0-1.538-.469-1.538-2.225 0-1.779.895-2.237 1.473-2.237.099 0 .786.011 1.168.404-.448.032-.513.36-.513.502 0 .283.196.501.502.501.283 0 .502-.185.502-.512 0-.742-.83-1.168-1.67-1.168-1.363 0-2.367 1.179-2.367 2.531C.37-.96 1.45.12 2.717.12c1.462 0 1.81-1.31 1.81-1.418"/><path id="l" d="M5.75 0v-.338c-.764 0-.851-.077-.851-.611v-6.623l-1.571.12v.339c.763 0 .85.076.85.61v2.357c-.316-.393-.785-.676-1.374-.676C1.516-4.822.37-3.753.37-2.346.37-.96 1.44.12 2.684.12c.698 0 1.189-.37 1.462-.72v.72zM4.146-1.287c0 .196 0 .218-.12.403-.328.524-.818.764-1.288.764-.49 0-.883-.284-1.145-.698-.284-.448-.317-1.07-.317-1.517 0-.403.022-1.058.339-1.549.229-.338.643-.698 1.233-.698.381 0 .84.163 1.178.654.12.186.12.208.12.404z"/><path id="k" d="M4.528-1.298c0-.11-.088-.131-.142-.131-.098 0-.12.065-.142.153C3.862-.153 2.88-.153 2.771-.153c-.545 0-.982-.327-1.233-.73-.327-.524-.327-1.244-.327-1.637h3.044c.24 0 .273 0 .273-.23 0-1.08-.59-2.138-1.953-2.138-1.266 0-2.27 1.124-2.27 2.488 0 1.462 1.146 2.52 2.4 2.52 1.332 0 1.823-1.211 1.823-1.418m-.72-1.451H1.222c.065-1.626.982-1.899 1.353-1.899 1.123 0 1.233 1.473 1.233 1.899"/><path id="r" d="M3.895-6.928c0-.404-.404-.764-.982-.764-.764 0-1.691.579-1.691 1.735v1.255H.36v.338h.862v3.535c0 .49-.12.49-.851.49V0l1.244-.033c.436 0 .949 0 1.385.033v-.338h-.229c-.807 0-.829-.12-.829-.513v-3.513h1.244v-.338H1.909v-1.266c0-.96.524-1.484 1.004-1.484.033 0 .196 0 .36.077a.48.48 0 0 0-.327.458c0 .251.174.47.469.47.316 0 .48-.219.48-.48"/><path id="i" d="M2.695 0v-.338c-.72 0-.764-.055-.764-.48v-4.004l-1.527.12v.338c.709 0 .807.065.807.6v2.935c0 .49-.12.49-.851.49V0l1.2-.033c.382 0 .764.022 1.135.033m-.6-6.59a.583.583 0 0 0-1.167 0 .583.583 0 0 0 1.167 0"/><path id="j" d="M8.87 0v-.338c-.567 0-.84 0-.851-.328v-2.083c0-.939 0-1.277-.338-1.67-.153-.185-.513-.403-1.146-.403-.916 0-1.396.654-1.582 1.069-.153-.95-.96-1.07-1.45-1.07-.797 0-1.31.47-1.616 1.146v-1.145l-1.538.12v.338c.764 0 .851.076.851.611v2.924c0 .49-.12.49-.85.49V0l1.232-.033L2.804 0v-.338c-.731 0-.851 0-.851-.491v-2.008c0-1.134.775-1.745 1.473-1.745.687 0 .807.589.807 1.21v2.543c0 .49-.12.49-.85.49V0l1.232-.033L5.837 0v-.338c-.731 0-.851 0-.851-.491v-2.008c0-1.134.774-1.745 1.473-1.745.687 0 .807.589.807 1.21v2.543c0 .49-.12.49-.85.49V0l1.232-.033z"/><path id="t" d="M5.837 0v-.338c-.567 0-.84 0-.851-.328v-2.083c0-.939 0-1.277-.338-1.67-.153-.185-.513-.403-1.146-.403-.796 0-1.31.469-1.615 1.145v-1.145l-1.538.12v.338c.764 0 .851.076.851.611v2.924c0 .49-.12.49-.85.49V0l1.232-.033L2.804 0v-.338c-.731 0-.851 0-.851-.491v-2.008c0-1.134.775-1.745 1.473-1.745.687 0 .807.589.807 1.21v2.543c0 .49-.12.49-.85.49V0l1.232-.033z"/><path id="w" d="M5.139-2.335c0-1.396-1.091-2.553-2.411-2.553-1.364 0-2.423 1.19-2.423 2.553A2.435 2.435 0 0 0 2.717.12a2.43 2.43 0 0 0 2.422-2.455m-.906-.087c0 .393 0 .982-.24 1.462-.24.49-.72.807-1.265.807-.47 0-.95-.229-1.244-.73-.273-.48-.273-1.146-.273-1.539 0-.426 0-1.015.262-1.495a1.46 1.46 0 0 1 1.244-.73c.48 0 .949.24 1.232.708s.284 1.102.284 1.517"/><path id="q" d="M4.571 0v-.338h-.349c-.982 0-1.014-.12-1.014-.524v-6.12c0-.262 0-.284-.251-.284-.677.698-1.637.698-1.986.698v.338c.218 0 .862 0 1.43-.283v5.651c0 .393-.034.524-1.015.524h-.35V0c.382-.033 1.331-.033 1.768-.033s1.385 0 1.767.033"/><path id="x" d="M5.684-2.357c0-1.385-1.058-2.465-2.28-2.465-.851 0-1.31.48-1.527.72v-.72l-1.572.12v.338c.775 0 .851.065.851.546v5.105c0 .491-.12.491-.85.491v.339l1.221-.033 1.233.033v-.339c-.73 0-.85 0-.85-.49V-.645c.054.175.512.764 1.341.764C4.55.12 5.684-.95 5.684-2.357m-.905 0c0 1.32-.764 2.237-1.571 2.237-.437 0-.851-.218-1.146-.666-.153-.229-.153-.24-.153-.458v-2.433c.317-.556.851-.872 1.408-.872.796 0 1.462.96 1.462 2.192"/><path id="o" d="M3.971-4.157c0-.349-.338-.665-.807-.665-.797 0-1.19.73-1.342 1.2v-1.2l-1.517.12v.338c.764 0 .851.076.851.611v2.924c0 .49-.12.49-.85.49V0l1.243-.033c.437 0 .95 0 1.386.033v-.338h-.23c-.807 0-.828-.12-.828-.513v-1.68c0-1.08.458-2.051 1.287-2.051.076 0 .098 0 .12.01a.47.47 0 0 0-.251.426c0 .306.23.47.47.47.195 0 .468-.132.468-.48"/><path id="p" d="M3.928-1.396c0-.579-.328-.906-.459-1.037-.36-.35-.785-.436-1.243-.524-.611-.12-1.342-.261-1.342-.894 0-.382.283-.83 1.222-.83 1.2 0 1.254.983 1.276 1.32.011.099.131.099.131.099.142 0 .142-.055.142-.262v-1.102c0-.185 0-.262-.12-.262-.055 0-.077 0-.218.131a1.4 1.4 0 0 1-.186.175c-.414-.306-.862-.306-1.025-.306C.775-4.888.36-4.157.36-3.546c0 .382.175.688.47.928.348.283.654.349 1.44.501.24.044 1.134.219 1.134 1.004 0 .557-.382.993-1.233.993-.916 0-1.31-.622-1.516-1.55C.622-1.81.61-1.854.502-1.854c-.142 0-.142.077-.142.273v1.44C.36.044.36.12.48.12.535.12.546.11.753-.098.775-.12.775-.142.97-.35c.48.458.971.469 1.2.469 1.255 0 1.757-.731 1.757-1.516"/><path id="n" d="M3.622-1.353v-.622H3.35v.6c0 .808-.327 1.222-.73 1.222-.732 0-.732-.993-.732-1.178v-3.033h1.56v-.338h-1.56V-6.71h-.272c-.011.895-.339 2.062-1.408 2.106v.24h.928v3.011C1.135-.01 2.149.12 2.542.12c.775 0 1.08-.775 1.08-1.473"/><path id="v" d="M4.986-1.866c0-.894-.687-1.745-1.822-1.974C4.059-4.135 4.69-4.9 4.69-5.76c0-.895-.96-1.506-2.007-1.506-1.102 0-1.931.655-1.931 1.484 0 .36.24.567.556.567.338 0 .557-.24.557-.556 0-.546-.513-.546-.677-.546.338-.534 1.058-.676 1.451-.676.448 0 1.048.24 1.048 1.222 0 .13-.022.763-.306 1.243-.327.524-.698.557-.97.568-.088.01-.35.032-.426.032-.088.011-.164.022-.164.131 0 .12.076.12.262.12h.48c.894 0 1.298.742 1.298 1.811 0 1.484-.753 1.8-1.233 1.8C2.16-.065 1.342-.25.96-.894c.382.055.72-.185.72-.6 0-.392-.294-.61-.61-.61-.263 0-.612.152-.612.632C.458-.48 1.473.24 2.662.24c1.331 0 2.324-.993 2.324-2.106"/><path id="s" d="M5.837 0v-.338c-.764 0-.851-.077-.851-.611v-3.873l-1.604.12v.338c.764 0 .851.076.851.611v1.942c0 .95-.524 1.691-1.32 1.691-.916 0-.96-.513-.96-1.08v-3.622l-1.604.12v.338c.851 0 .851.033.851 1.004v1.636C1.2-.873 1.2.12 2.858.12c.611 0 1.091-.305 1.408-.982V.12z"/><path id="a" d="M6.088-.347c0-.347-.311-.347-.479-.347-.31 0-.55-.024-.717-.095v-2.608c0-.909-.682-1.865-2.297-1.865-.502 0-1.662 0-1.662.825 0 .323.227.502.49.502.072 0 .467-.024.479-.526 0-.06.012-.072.263-.096.143-.012.299-.012.442-.012.275 0 .682 0 1.077.3.43.334.43.669.43 1.016-.705.024-1.4.072-2.14.31C1.374-2.738.61-2.307.61-1.494c0 .85.753 1.567 1.866 1.567.382 0 1.124-.06 1.746-.49.24.394.837.418 1.292.418.287 0 .574 0 .574-.347M4.114-1.579c0 .275 0 .527-.49.754-.419.203-.98.203-1.017.203-.705 0-1.22-.383-1.22-.873 0-.706 1.28-1.112 2.727-1.112z"/><path id="f" d="M4.007-.215c0-.634-.395-1.136-.921-1.136a.663.663 0 0 0-.682.67c0 .394.299.681.67.681A.8.8 0 0 0 3.3-.036c-.06.37-.299.825-.885 1.029-.108.024-.287.083-.287.31 0 .156.18.36.37.36.324 0 1.508-.587 1.508-1.878"/><path id="b" d="M5.968-.347c0-.347-.31-.347-.478-.347H5v-6.123c0-.371-.072-.49-.48-.49h-.788c-.168 0-.479 0-.479.346s.311.347.479.347h.49v1.985c-.191-.19-.682-.598-1.411-.598C1.543-5.227.443-4.078.443-2.57c0 1.47 1.028 2.643 2.26 2.643.777 0 1.292-.467 1.519-.73 0 .503 0 .658.478.658h.79c.167 0 .478 0 .478-.347M4.222-2.272c0 .67-.55 1.65-1.447 1.65-.861 0-1.555-.873-1.555-1.95 0-1.148.813-1.96 1.662-1.96.778 0 1.34.705 1.34 1.327z"/><path id="c" d="M5.274-.347c0-.347-.31-.347-.478-.347H3.612v-3.97c0-.371-.072-.49-.478-.49h-1.58c-.167 0-.478 0-.478.346s.311.347.479.347h1.28v3.767H1.47c-.167 0-.49 0-.49.347S1.304 0 1.47 0h3.325c.167 0 .478 0 .478-.347M3.612-6.65c0-.299-.24-.538-.538-.538s-.538.24-.538.538.239.538.538.538.538-.239.538-.538"/><path id="g" d="M5.514-3.72c0-3.002-1.376-3.731-2.404-3.731C1.806-7.451.634-6.434.634-5c0 1.411 1.04 2.452 2.284 2.452.658 0 1.328-.252 1.806-.778C4.604-1.735 3.66-.55 2.536-.55c-.288 0-.622-.036-.838-.24a.46.46 0 0 0 .096-.286c0-.228-.167-.479-.478-.479s-.49.227-.49.503c0 .598.43 1.196 1.698 1.196 1.59 0 2.99-1.543 2.99-3.864m-.885-.932c0 .73-.682 1.399-1.627 1.399-.933 0-1.59-.801-1.59-1.746 0-1.053.825-1.758 1.698-1.758.992 0 1.327 1.04 1.435 1.387.012.048.084.359.084.718"/><path id="d" d="M5.968-4.808c0-.347-.323-.347-.49-.347h-1.34c-.167 0-.49 0-.49.347s.323.347.49.347H4.7L4.102-.813H4.09c-.048-.311-.239-.981-.358-1.364-.216-.777-.252-.92-.646-.92-.383 0-.43.143-.646.908-.24.814-.323 1.16-.359 1.376h-.012l-.622-3.648h.562c.168 0 .49 0 .49-.347s-.322-.347-.49-.347H.67c-.167 0-.49 0-.49.347s.3.347.586.347l.718 4.066c.072.419.263.455.538.455.467 0 .49-.096.73-.921.107-.419.299-1.077.335-1.4h.012c.012.156.071.49.323 1.412.239.801.263.909.717.909.203 0 .443 0 .526-.443l.718-4.078c.287 0 .586 0 .586-.347"/><path id="e" d="M5.55-3.648c0-2.224-1.185-3.803-2.476-3.803C1.77-7.451.598-5.848.598-3.66.598-1.435 1.782.144 3.074.144c1.303 0 2.475-1.603 2.475-3.792m-.778-.131c0 1.77-.753 3.229-1.698 3.229S1.375-1.997 1.375-3.78s.826-2.977 1.699-2.977S4.772-5.561 4.772-3.78"/></defs><g transform="translate(-41.233 63.558)scale(1.0004)"><use xlink:href="#a" x="56.577707" y="-17.824154"/><use xlink:href="#b" x="62.737109" y="-17.824154"/><use xlink:href="#b" x="68.896511" y="-17.824154"/><use xlink:href="#c" x="75.055913" y="-17.824154"/><use xlink:href="#d" x="81.215315" y="-17.824154"/><use xlink:href="#a" x="93.522154" y="-17.824154"/><use xlink:href="#e" x="99.681556" y="-17.824154"/><use xlink:href="#f" x="105.840958" y="-17.824154"/><use xlink:href="#a" x="118.159761" y="-17.824154"/><use xlink:href="#e" x="124.319162" y="-17.824154"/><use xlink:href="#f" x="130.478566" y="-17.824154"/><use xlink:href="#g" x="142.79735" y="-17.824154"/><use xlink:href="#g" x="148.944787" y="-17.824154"/><use xlink:href="#h" x="155.103249" y="-17.824154"/></g><g fill="none" stroke="#000" stroke-miterlimit="10" stroke-width=".3985"><path d="M128.555 54.187h272.13V31.51h-272.13ZM230.603 54.187V31.51M273.123 54.187V31.51M298.635 54.187V31.51M341.155 54.187V31.51"/></g><g transform="translate(98.178 41.713)scale(1.00008)"><use xlink:href="#i" x="56.559666" y="-17.81847"/><use xlink:href="#j" x="59.592646" y="-17.81847"/><use xlink:href="#j" x="68.680676" y="-17.81847"/><use xlink:href="#k" x="77.768705" y="-17.81847"/><use xlink:href="#l" x="82.612752" y="-17.81847"/><use xlink:href="#i" x="88.678713" y="-17.81847"/><use xlink:href="#m" x="91.711694" y="-17.81847"/><use xlink:href="#n" x="97.166695" y="-17.81847"/><use xlink:href="#k" x="101.410676" y="-17.81847"/></g><g transform="translate(188.293 41.561)scale(1.00008)"><use xlink:href="#o" x="56.559666" y="-17.81847"/><use xlink:href="#p" x="60.836388" y="-17.81847"/><use xlink:href="#q" x="65.134931" y="-17.81847"/></g><g transform="translate(214.318 41.713)scale(1.00008)"><use xlink:href="#r" x="56.559666" y="-17.81847"/><use xlink:href="#s" x="59.898127" y="-17.81847"/><use xlink:href="#t" x="65.964082" y="-17.81847"/><use xlink:href="#u" x="72.030042" y="-17.81847"/><use xlink:href="#n" x="76.87409" y="-17.81847"/><use xlink:href="#v" x="81.118072" y="-17.81847"/></g><g transform="translate(258.169 41.713)scale(1.00008)"><use xlink:href="#o" x="56.559666" y="-17.81847"/><use xlink:href="#l" x="60.836388" y="-17.81847"/></g><g transform="translate(297.695 40.715)scale(1.00008)"><use xlink:href="#w" x="56.559666" y="-17.81847"/><use xlink:href="#x" x="62.014669" y="-17.81847"/><use xlink:href="#u" x="68.3752" y="-17.81847"/><use xlink:href="#w" x="73.21924" y="-17.81847"/><use xlink:href="#l" x="78.979725" y="-17.81847"/><use xlink:href="#k" x="85.045686" y="-17.81847"/></g><g transform="translate(88.66 63.998)scale(1.00008)"><use xlink:href="#y" x="56.559666" y="-17.81847"/><use xlink:href="#y" x="62.287418" y="-17.81847"/><use xlink:href="#y" x="68.015171" y="-17.81847"/><use xlink:href="#y" x="73.742923" y="-17.81847"/><use xlink:href="#y" x="79.470676" y="-17.81847"/><use xlink:href="#z" x="85.198428" y="-17.81847"/><use xlink:href="#z" x="90.926181" y="-17.81847"/><use xlink:href="#y" x="96.653933" y="-17.81847"/><use xlink:href="#y" x="102.381686" y="-17.81847"/><use xlink:href="#y" x="108.109438" y="-17.81847"/><use xlink:href="#z" x="113.837191" y="-17.81847"/><use xlink:href="#z" x="119.564943" y="-17.81847"/></g><g transform="translate(180.99 63.998)scale(1.00008)"><use xlink:href="#y" x="56.559666" y="-17.81847"/><use xlink:href="#z" x="62.287418" y="-17.81847"/><use xlink:href="#y" x="68.015171" y="-17.81847"/><use xlink:href="#z" x="73.742923" y="-17.81847"/><use xlink:href="#y" x="79.470676" y="-17.81847"/></g><g transform="translate(220.733 63.998)scale(1.00008)"><use xlink:href="#y" x="56.559666" y="-17.81847"/><use xlink:href="#y" x="62.287418" y="-17.81847"/><use xlink:href="#y" x="68.015171" y="-17.81847"/></g><g transform="translate(249.022 63.998)scale(1.00008)"><use xlink:href="#y" x="56.559666" y="-17.81847"/><use xlink:href="#z" x="62.287418" y="-17.81847"/><use xlink:href="#y" x="68.015171" y="-17.81847"/><use xlink:href="#z" x="73.742923" y="-17.81847"/><use xlink:href="#y" x="79.470676" y="-17.81847"/></g><g transform="translate(294.318 63.998)scale(1.00008)"><use xlink:href="#y" x="56.559666" y="-17.81847"/><use xlink:href="#y" x="62.287418" y="-17.81847"/><use xlink:href="#z" x="68.015171" y="-17.81847"/><use xlink:href="#z" x="73.742923" y="-17.81847"/><use xlink:href="#y" x="79.470676" y="-17.81847"/><use xlink:href="#z" x="85.198428" y="-17.81847"/><use xlink:href="#z" x="90.926181" y="-17.81847"/></g><g transform="translate(117.297 86.675)scale(1.00008)"><use xlink:href="#A" x="56.559666" y="-17.81847"/><use xlink:href="#A" x="62.287418" y="-17.81847"/></g><g transform="translate(189.581 86.675)scale(1.00008)"><use xlink:href="#B" x="56.559666" y="-17.81847"/><use xlink:href="#y" x="62.287418" y="-17.81847"/></g><g transform="translate(257.613 86.675)scale(1.00008)"><use xlink:href="#B" x="56.559666" y="-17.81847"/><use xlink:href="#y" x="62.287418" y="-17.81847"/></g><path fill="none" stroke="#000" stroke-miterlimit="10" stroke-width=".3985" d="M128.555 110.88h272.13V88.204h-272.13Z"/><g transform="translate(110.063 120.692)scale(1.00008)"><use xlink:href="#y" x="56.559666" y="-17.81847"/><use xlink:href="#y" x="62.287418" y="-17.81847"/><use xlink:href="#y" x="68.015171" y="-17.81847"/><use xlink:href="#y" x="73.742923" y="-17.81847"/><use xlink:href="#y" x="81.281735" y="-17.81847"/><use xlink:href="#z" x="87.009488" y="-17.81847"/><use xlink:href="#z" x="92.73724" y="-17.81847"/><use xlink:href="#y" x="98.464993" y="-17.81847"/><use xlink:href="#y" x="106.014722" y="-17.81847"/><use xlink:href="#y" x="111.742468" y="-17.81847"/><use xlink:href="#z" x="117.47022" y="-17.81847"/><use xlink:href="#z" x="123.197973" y="-17.81847"/><use xlink:href="#y" x="130.736785" y="-17.81847"/><use xlink:href="#z" x="136.464537" y="-17.81847"/><use xlink:href="#y" x="142.203201" y="-17.81847"/><use xlink:href="#z" x="147.930953" y="-17.81847"/><use xlink:href="#y" x="155.469765" y="-17.81847"/><use xlink:href="#y" x="161.197518" y="-17.81847"/><use xlink:href="#y" x="166.92527" y="-17.81847"/><use xlink:href="#y" x="172.653023" y="-17.81847"/><use xlink:href="#y" x="180.202745" y="-17.81847"/><use xlink:href="#z" x="185.930498" y="-17.81847"/><use xlink:href="#y" x="191.65825" y="-17.81847"/><use xlink:href="#z" x="197.386003" y="-17.81847"/><use xlink:href="#y" x="204.935736" y="-17.81847"/><use xlink:href="#y" x="210.663478" y="-17.81847"/><use xlink:href="#y" x="216.391241" y="-17.81847"/><use xlink:href="#z" x="222.118983" y="-17.81847"/><use xlink:href="#z" x="229.657805" y="-17.81847"/><use xlink:href="#y" x="235.385558" y="-17.81847"/><use xlink:href="#z" x="241.11331" y="-17.81847"/><use xlink:href="#z" x="246.841063" y="-17.81847"/></g><g transform="translate(177.378 142.672)scale(1.00008)"><use xlink:href="#y" x="56.559666" y="-17.81847"/><use xlink:href="#C" x="62.287418" y="-17.81847"/><use xlink:href="#D" x="68.015171" y="-17.81847"/><use xlink:href="#E" x="73.742923" y="-17.81847"/><use xlink:href="#y" x="79.470676" y="-17.81847"/><use xlink:href="#E" x="85.198428" y="-17.81847"/><use xlink:href="#z" x="90.926181" y="-17.81847"/><use xlink:href="#F" x="96.653933" y="-17.81847"/></g><g transform="matrix(.99999 0 0 .99999 177.378 142.672)"><use xlink:href="#G" x="102.371716" y="-15.596803"/><use xlink:href="#H" x="105.663324" y="-15.596803"/><use xlink:href="#I" x="109.895399" y="-15.596803"/><use xlink:href="#J" x="114.127468" y="-15.596803"/></g></svg>