<svg xmlns="http://www.w3.org/2000/svg" xmlns:xlink="http://www.w3.org/1999/xlink" width="117.57pt" height="143.7pt" viewBox="0 0 117.57 143.7"><defs><path id="j" d="M3.23-7.87c0-.215 0-.43-.24-.43s-.24.215-.24.43V.658A3.9 3.9 0 0 0 1.83-.36c-.73-.55-1.46-.67-1.483-.67-.144 0-.144.132-.144.228 0 .191.012.203.275.287.814.227 1.28.658 1.555.957.61.657.754 1.375.825 1.746.012.06.048.12.132.12.108 0 .12-.084.144-.192C3.397.765 4.258-.167 5.574-.538c.179-.06.203-.06.203-.263 0-.096 0-.228-.144-.228-.036 0-.741.132-1.423.622A4.2 4.2 0 0 0 3.23.658z"/><path id="f" d="M5.669-1.064v-.67h-.263v.67c0 .681-.287.777-.455.777-.454 0-.454-.634-.454-.813v-2.093c0-.646 0-1.125-.526-1.591-.419-.383-.957-.55-1.483-.55-.981 0-1.735.646-1.735 1.423 0 .347.228.514.503.514.287 0 .49-.203.49-.49 0-.49-.43-.49-.61-.49.275-.503.85-.718 1.328-.718.55 0 1.256.455 1.256 1.53v.48C1.316-3.05.407-2.046.407-1.126c0 .946 1.1 1.245 1.83 1.245A1.63 1.63 0 0 0 3.79-.933c.048.562.419.993.933.993.251 0 .945-.168.945-1.124m-1.95-.622C3.72-.514 2.847-.12 2.333-.12c-.586 0-1.076-.43-1.076-1.004 0-1.579 2.033-1.722 2.464-1.746z"/><path id="g" d="M4.856-1.423c0-.108-.084-.108-.12-.108-.107 0-.12.036-.155.18-.263.849-.91 1.207-1.555 1.207-.73 0-1.698-.633-1.698-2.451 0-1.986 1.016-2.476 1.614-2.476.455 0 1.112.18 1.388.646-.144 0-.587 0-.587.49 0 .287.204.49.49.49.276 0 .503-.167.503-.514 0-.801-.837-1.375-1.806-1.375C1.53-5.334.42-4.09.42-2.584.419-1.051 1.567.12 2.919.12c1.578 0 1.937-1.436 1.937-1.543"/><path id="h" d="M5.98 0v-.347c-.323 0-.694 0-1.029-.49L3.35-3.17l-.084-.12c0-.036.754-.682.85-.777.824-.718 1.35-.73 1.602-.742v-.347c-.24.024-.55.024-.91.024-.31 0-.92 0-1.195-.024v.347c.203.012.347.12.347.311 0 .24-.251.455-.251.455l-1.71 1.506V-8.3L.334-8.17v.347c.813 0 .909.084.909.67v6.267c0 .538-.132.538-.91.538V0c.336-.024.91-.024 1.269-.024s.933 0 1.267.024v-.347c-.765 0-.909 0-.909-.538v-1.268l.766-.67 1.148 1.65c.18.252.263.384.263.551 0 .215-.167.275-.418.275V0c.299-.024.885-.024 1.208-.024.514 0 .538 0 1.052.024"/><path id="i" d="M2.2-.586a.58.58 0 0 0-.573-.574.577.577 0 0 0-.586.574.58.58 0 1 0 1.16 0"/><path id="d" d="M4.21-1.519c0-.646-.395-1.028-.502-1.136-.431-.37-.754-.443-1.543-.586-.359-.072-1.232-.24-1.232-.957 0-.37.251-.92 1.327-.92 1.304 0 1.376 1.111 1.4 1.482.012.096.095.096.131.096.132 0 .132-.06.132-.275V-5.06c0-.215 0-.275-.12-.275-.095 0-.323.263-.406.37-.371-.298-.742-.37-1.125-.37-1.447 0-1.877.79-1.877 1.447 0 .132 0 .55.454.969.383.335.79.418 1.34.526.657.132.813.167 1.112.407.215.179.37.442.37.777 0 .514-.298 1.088-1.35 1.088C1.53-.12.956-.574.693-1.77c-.048-.215-.06-.24-.06-.24-.024-.047-.072-.047-.108-.047-.131 0-.131.06-.131.275v1.627c0 .215 0 .275.12.275.06 0 .071-.012.274-.264.06-.083.06-.107.24-.299.454.563 1.1.563 1.303.563C3.588.12 4.21-.574 4.21-1.52"/><path id="e" d="M3.899-1.483v-.682h-.263v.658c0 .861-.347 1.363-.813 1.363-.814 0-.814-1.112-.814-1.315v-3.349h1.687v-.347H2.009v-2.2h-.263c-.012 1.124-.442 2.272-1.53 2.308v.24h1.016v3.324C1.232-.155 2.117.12 2.75.12c.753 0 1.148-.742 1.148-1.603"/><path id="c" d="M5.324-2.357c0-1.341-.97-2.41-2.127-2.41-.524 0-1.015.196-1.386.534 0-.316-.022-.47-.436-.47H.578c-.174 0-.447 0-.447.339 0 .327.284.327.436.327h.491v5.794h-.48c-.174 0-.447 0-.447.338 0 .327.284.327.436.327h1.735c.153 0 .436 0 .436-.327 0-.338-.272-.338-.447-.338h-.48V-.491c.447.458.917.556 1.266.556 1.189 0 2.247-1.036 2.247-2.422m-.753 0C4.571-1.309 3.808-.6 3.044-.6c-.851 0-1.233-.96-1.233-1.484v-.796c0-.644.633-1.222 1.32-1.222.808 0 1.44.796 1.44 1.745"/><path id="b" d="M5.008-1.364c0-1.134-1.408-1.363-1.757-1.418l-.742-.131c-.316-.044-1.058-.175-1.058-.6 0-.284.35-.622 1.386-.622.905 0 1.058.327 1.09.611.012.186.033.371.372.371.381 0 .381-.23.381-.447v-.753c0-.175 0-.447-.327-.447-.262 0-.305.152-.327.229-.48-.23-.96-.23-1.168-.23-1.822 0-2.072.895-2.072 1.288 0 1.004 1.145 1.19 2.149 1.342.534.087 1.407.229 1.407.807 0 .404-.403.764-1.396.764-.513 0-1.124-.12-1.397-.971-.054-.196-.098-.316-.382-.316-.381 0-.381.229-.381.447v1.058c0 .175 0 .447.327.447.098 0 .273-.01.403-.414.535.393 1.113.414 1.419.414 1.724 0 2.073-.905 2.073-1.429"/><path id="a" d="M5.171-3.328c0-2.029-1.112-3.458-2.313-3.458-1.221 0-2.312 1.462-2.312 3.448C.546-1.31 1.658.12 2.858.12c1.222 0 2.313-1.462 2.313-3.448m-.752-.12c0 1.615-.71 2.903-1.56 2.903s-1.56-1.288-1.56-2.903c0-1.592.752-2.673 1.56-2.673.796 0 1.56 1.07 1.56 2.673"/></defs><g fill="none" stroke="#000" stroke-miterlimit="10" stroke-width=".3985"><path d="M49.339 124.924V11.537h56.694v113.387ZM49.339 68.23h56.694M49.339 45.553h56.694"/></g><use xlink:href="#a" x="-.042003" y="52.928366" transform="translate(37.984 75.333)scale(1.00008)"/><g transform="translate(37.984 16.495)scale(1.00008)"><use xlink:href="#b" x="-5.769476" y="52.928366"/><use xlink:href="#c" x="-.041726" y="52.928366"/></g><g transform="translate(87.304 8.056)scale(1.0004)"><use xlink:href="#d" x="-22.670098" y="52.945249"/><use xlink:href="#e" x="-18.053538" y="52.945249"/><use xlink:href="#f" x="-13.496777" y="52.945249"/><use xlink:href="#g" x="-7.636376" y="52.945249"/><use xlink:href="#h" x="-2.756696" y="52.945249"/></g><g transform="translate(98.721 56.876)scale(1.0004)"><use xlink:href="#i" x="-22.670098" y="44.972049"/><use xlink:href="#i" x="-22.670098" y="48.958649"/><use xlink:href="#i" x="-22.670098" y="52.945249"/></g><use xlink:href="#j" x="-22.670098" y="52.945249" transform="translate(97.358 29.634)scale(1.0004)"/><g transform="translate(98.721 -19.66)scale(1.0004)"><use xlink:href="#i" x="-22.670098" y="44.972049"/><use xlink:href="#i" x="-22.670098" y="48.958649"/><use xlink:href="#i" x="-22.670098" y="52.945249"/></g></svg>