<svg xmlns="http://www.w3.org/2000/svg" xmlns:xlink="http://www.w3.org/1999/xlink" width="117.57pt" height="146.53pt" viewBox="0 0 117.57 146.53"><defs><path id="i" d="M2.2-.586a.58.58 0 0 0-.573-.574.577.577 0 0 0-.586.574.58.58 0 1 0 1.16 0"/><path id="h" d="M6.088-.347c0-.347-.311-.347-.479-.347-.31 0-.55-.024-.717-.095v-2.608c0-.909-.682-1.865-2.297-1.865-.502 0-1.662 0-1.662.825 0 .323.227.502.49.502.072 0 .467-.024.479-.526 0-.06.012-.072.263-.096.143-.012.299-.012.442-.012.275 0 .682 0 1.077.3.43.334.43.669.43 1.016-.705.024-1.4.072-2.14.31C1.374-2.738.61-2.307.61-1.494c0 .85.753 1.567 1.866 1.567.382 0 1.124-.06 1.746-.49.24.394.837.418 1.292.418.287 0 .574 0 .574-.347M4.114-1.579c0 .275 0 .527-.49.754-.419.203-.98.203-1.017.203-.705 0-1.22-.383-1.22-.873 0-.706 1.28-1.112 2.727-1.112z"/><path id="g" d="M5.717-4.52c0-.515-.502-.707-1.1-.707-.802 0-1.483.36-2.034 1.029v-.466c0-.371-.071-.49-.478-.49H.897c-.167 0-.478 0-.478.346s.31.347.478.347h.909v3.767H.897c-.167 0-.478 0-.478.347S.729 0 .897 0h2.942c.168 0 .479 0 .479-.347s-.311-.347-.479-.347H2.583V-2.26c0-1.424 1.005-2.273 2.022-2.273.06 0 .131 0 .191.012.036.43.37.467.454.467a.45.45 0 0 0 .467-.467"/><path id="j" d="M3.23-7.87c0-.215 0-.43-.24-.43s-.24.215-.24.43V.658A3.9 3.9 0 0 0 1.83-.36c-.73-.55-1.46-.67-1.483-.67-.144 0-.144.132-.144.228 0 .191.012.203.275.287.814.227 1.28.658 1.555.957.61.657.754 1.375.825 1.746.012.06.048.12.132.12.108 0 .12-.084.144-.192C3.397.765 4.258-.167 5.574-.538c.179-.06.203-.06.203-.263 0-.096 0-.228-.144-.228-.036 0-.741.132-1.423.622A4.2 4.2 0 0 0 3.23.658z"/><path id="d" d="M5.106-3.338c0-.382-.382-.382-.513-.382h-3.47c-.13 0-.512 0-.512.382s.382.381.513.381h3.47c.13 0 .512 0 .512-.381"/><path id="e" d="M4.822-.327c0-.339-.262-.339-.436-.339h-.993v-5.673c0-.174 0-.447-.327-.447-.208 0-.273.13-.328.262-.414.927-.981 1.047-1.189 1.069-.174.01-.403.033-.403.338 0 .273.196.328.36.328.207 0 .654-.066 1.134-.48v4.603h-.993c-.174 0-.436 0-.436.339 0 .327.273.327.436.327h2.739c.163 0 .436 0 .436-.327"/><path id="c" d="M5.324-2.357c0-1.341-.97-2.41-2.127-2.41-.524 0-1.015.196-1.386.534 0-.316-.022-.47-.436-.47H.578c-.174 0-.447 0-.447.339 0 .327.284.327.436.327h.491v5.794h-.48c-.174 0-.447 0-.447.338 0 .327.284.327.436.327h1.735c.153 0 .436 0 .436-.327 0-.338-.272-.338-.447-.338h-.48V-.491c.447.458.917.556 1.266.556 1.189 0 2.247-1.036 2.247-2.422m-.753 0C4.571-1.309 3.808-.6 3.044-.6c-.851 0-1.233-.96-1.233-1.484v-.796c0-.644.633-1.222 1.32-1.222.808 0 1.44.796 1.44 1.745"/><path id="b" d="M5.008-1.364c0-1.134-1.408-1.363-1.757-1.418l-.742-.131c-.316-.044-1.058-.175-1.058-.6 0-.284.35-.622 1.386-.622.905 0 1.058.327 1.09.611.012.186.033.371.372.371.381 0 .381-.23.381-.447v-.753c0-.175 0-.447-.327-.447-.262 0-.305.152-.327.229-.48-.23-.96-.23-1.168-.23-1.822 0-2.072.895-2.072 1.288 0 1.004 1.145 1.19 2.149 1.342.534.087 1.407.229 1.407.807 0 .404-.403.764-1.396.764-.513 0-1.124-.12-1.397-.971-.054-.196-.098-.316-.382-.316-.381 0-.381.229-.381.447v1.058c0 .175 0 .447.327.447.098 0 .273-.01.403-.414.535.393 1.113.414 1.419.414 1.724 0 2.073-.905 2.073-1.429"/><path id="f" d="M5.139-2.106c0-1.243-.96-2.214-2.16-2.214-.568 0-1.135.185-1.626.632C1.506-5.226 2.53-6.12 3.49-6.12c.371 0 .546.12.6.175-.054.055-.109.12-.109.316 0 .262.197.48.48.48.273 0 .491-.185.491-.512 0-.535-.393-1.124-1.45-1.124-1.463 0-2.925 1.32-2.925 3.524C.578-.676 1.8.12 2.88.12 4.07.12 5.14-.796 5.14-2.106m-.753 0c0 .939-.72 1.56-1.506 1.56-.709 0-1.134-.534-1.353-1.2-.109-.261-.087-.523-.087-.676 0-.676.655-1.222 1.484-1.222.884 0 1.462.731 1.462 1.538"/><path id="a" d="M5.171-3.328c0-2.029-1.112-3.458-2.313-3.458-1.221 0-2.312 1.462-2.312 3.448C.546-1.31 1.658.12 2.858.12c1.222 0 2.313-1.462 2.313-3.448m-.752-.12c0 1.615-.71 2.903-1.56 2.903s-1.56-1.288-1.56-2.903c0-1.592.752-2.673 1.56-2.673.796 0 1.56 1.07 1.56 2.673"/></defs><g fill="none" stroke="#000" stroke-miterlimit="10" stroke-width=".3985"><path d="M49.339 127.754V14.367h56.694v113.387ZM49.339 82.4h56.694M49.339 59.722h56.694M49.339 37.044h56.694"/></g><use xlink:href="#a" x="-.042003" y="55.7636" transform="translate(37.984 75.328)scale(1.00008)"/><g transform="translate(37.984 -16.533)scale(1.00008)"><use xlink:href="#b" x="-22.66287" y="55.7636"/><use xlink:href="#c" x="-16.935119" y="55.7636"/><use xlink:href="#d" x="-11.207369" y="55.7636"/><use xlink:href="#e" x="-5.479618" y="55.7636"/><use xlink:href="#f" x=".248132" y="55.7636"/></g><g transform="translate(37.984 27.829)scale(1.00008)"><use xlink:href="#b" x="-5.769476" y="55.7636"/><use xlink:href="#c" x="-.041726" y="55.7636"/></g><g transform="translate(94.19 -4.782)scale(1.0004)"><use xlink:href="#g" x="-22.670098" y="55.781387"/><use xlink:href="#h" x="-16.510696" y="55.781387"/></g><g transform="translate(98.721 62.541)scale(1.0004)"><use xlink:href="#i" x="-22.670098" y="47.808187"/><use xlink:href="#i" x="-22.670098" y="51.79479"/><use xlink:href="#i" x="-22.670098" y="55.781391"/></g><use xlink:href="#j" x="-22.670098" y="55.781387" transform="translate(97.358 40.968)scale(1.0004)"/><g transform="translate(98.721 -25.334)scale(1.0004)"><use xlink:href="#i" x="-22.670098" y="47.808187"/><use xlink:href="#i" x="-22.670098" y="51.79479"/><use xlink:href="#i" x="-22.670098" y="55.781391"/></g></svg>