<svg xmlns="http://www.w3.org/2000/svg" xmlns:xlink="http://www.w3.org/1999/xlink" width="126.25pt" height="108.83pt" viewBox="0 0 126.25 108.83"><defs><path id="f" d="M4.822-.327c0-.339-.262-.339-.436-.339h-.993v-5.673c0-.174 0-.447-.327-.447-.208 0-.273.13-.328.262-.414.927-.981 1.047-1.189 1.069-.174.01-.403.033-.403.338 0 .273.196.328.36.328.207 0 .654-.066 1.134-.48v4.603h-.993c-.174 0-.436 0-.436.339 0 .327.273.327.436.327h2.739c.163 0 .436 0 .436-.327"/><path id="g" d="M5.139-2.106c0-1.243-.96-2.214-2.16-2.214-.568 0-1.135.185-1.626.632C1.506-5.226 2.53-6.12 3.49-6.12c.371 0 .546.12.6.175-.054.055-.109.12-.109.316 0 .262.197.48.48.48.273 0 .491-.185.491-.512 0-.535-.393-1.124-1.45-1.124-1.463 0-2.925 1.32-2.925 3.524C.578-.676 1.8.12 2.88.12 4.07.12 5.14-.796 5.14-2.106m-.753 0c0 .939-.72 1.56-1.506 1.56-.709 0-1.134-.534-1.353-1.2-.109-.261-.087-.523-.087-.676 0-.676.655-1.222 1.484-1.222.884 0 1.462.731 1.462 1.538"/><path id="i" d="M5.237-1.898c0-.775-.513-1.419-1.233-1.746.61-.393.916-1.015.916-1.604 0-.807-.796-1.538-2.05-1.538-1.31 0-2.074.524-2.074 1.276a.486.486 0 1 0 .971.022.45.45 0 0 0-.098-.294c.338-.339 1.113-.339 1.211-.339.742 0 1.288.393 1.288.884 0 .327-.164.71-.459.95-.349.283-.621.305-1.014.327-.622.043-.786.043-.786.36 0 .338.262.338.437.338h.502c1.08 0 1.636.73 1.636 1.364 0 .665-.61 1.353-1.604 1.353-.436 0-1.276-.12-1.56-.633.055-.055.131-.12.131-.338a.477.477 0 0 0-.48-.48c-.25 0-.491.163-.491.512C.48-.513 1.538.12 2.88.12c1.43 0 2.357-1.004 2.357-2.018"/><path id="h" d="M5.15-.447v-.284c0-.207 0-.447-.371-.447-.382 0-.382.207-.382.512H1.8c.644-.556 1.691-1.374 2.16-1.81.688-.612 1.19-1.31 1.19-2.183 0-1.309-1.102-2.127-2.433-2.127-1.288 0-2.15.895-2.15 1.822a.486.486 0 1 0 .971.033.45.45 0 0 0-.152-.35c.163-.501.676-.84 1.276-.84.895 0 1.735.502 1.735 1.462 0 .764-.535 1.397-1.255 1.997L.731-.632c-.098.087-.164.141-.164.294C.567 0 .84 0 1.015 0h3.698c.36 0 .437-.098.437-.447"/><path id="c" d="M5.346-2.547c0-.144-.084-.252-.191-.323-.3-.18-.957-.527-1.447-.778L5.095-4.4c.143-.072.251-.18.251-.36 0-.226-.203-.37-.37-.37-.084 0-.18.06-.252.096l-1.327.825.036-1.662c0-.204-.168-.36-.36-.36s-.358.144-.358.36c0 .346.012.454.012.454L2.75-4.21l-1.328-.825c-.072-.036-.167-.096-.25-.096-.168 0-.372.144-.372.37 0 .18.108.288.251.36l1.388.741-1.388.754c-.143.071-.25.18-.25.359 0 .227.203.37.37.37.084 0 .18-.06.251-.095l1.328-.826-.012.766c-.024.203-.024.67-.024.897a.36.36 0 0 0 .718 0l-.036-1.663 1.184.73c.287.191.31.191.394.191.168 0 .371-.143.371-.37"/><path id="b" d="M5.179-.347c0-.347-.323-.347-.49-.347H3.635V-6.96c0-.18 0-.49-.347-.49-.203 0-.275.108-.347.263-.227.514-.622 1.148-1.256 1.196-.179.012-.43.036-.43.347 0 .203.12.347.383.347.67 0 1.184-.503 1.22-.527v5.131H1.805c-.167 0-.49 0-.49.347s.323.347.49.347h2.882c.168 0 .49 0 .49-.347"/><path id="a" d="M5.705-3.648c0-.394-.37-.394-.538-.394H3.468v-1.71c0-.156 0-.539-.382-.539-.395 0-.395.37-.395.538v1.71H.981c-.156 0-.538 0-.538.383 0 .395.37.395.538.395h1.71v1.71c0 .156 0 .538.383.538.394 0 .394-.37.394-.538v-1.71h1.699c.155 0 .538 0 .538-.383"/><path id="e" d="M5.633-2.07c0-.609-.335-1.458-1.387-1.913.73-.454 1.052-1.172 1.052-1.794 0-.897-.897-1.674-2.188-1.674-1.328 0-2.26.574-2.26 1.459 0 .395.298.514.49.514a.48.48 0 0 0 .478-.49c0-.191-.096-.311-.096-.311.359-.454 1.184-.478 1.388-.478.813 0 1.41.43 1.41.992 0 .347-.226 1.34-1.482 1.424-.443.023-.634.047-.682.047-.24.024-.299.18-.299.347 0 .347.251.347.455.347h.55c1.244 0 1.794.873 1.794 1.519 0 .79-.694 1.53-1.746 1.53-1.196 0-1.735-.645-1.735-.812l.024-.06a.6.6 0 0 0 .084-.287.47.47 0 0 0-.478-.479c-.252 0-.49.156-.49.527C.514-.622 1.65.144 3.11.144c1.507 0 2.523-1.077 2.523-2.213"/><path id="d" d="M5.537-.49v-.252c0-.215 0-.49-.382-.49-.395 0-.395.251-.395.538H1.878L4.162-2.63c.168-.144 1.375-1.172 1.375-2.5 0-1.363-1.124-2.32-2.619-2.32C1.531-7.451.61-6.411.61-5.406a.49.49 0 0 0 .49.538.48.48 0 0 0 .479-.49c0-.227-.084-.3-.144-.347.168-.634.718-1.052 1.411-1.052 1.017 0 1.914.586 1.914 1.626 0 .933-.706 1.65-1.351 2.213L.777-.634C.646-.526.61-.49.61-.347.61 0 .933 0 1.1 0h4.174c.263-.072.263-.311.263-.49"/></defs><path fill="none" stroke="#000" stroke-miterlimit="10" stroke-width=".3985" d="M57.556 20.167a8.627 8.627 0 1 0-17.254 0 8.627 8.627 0 0 0 17.254 0Z"/><use xlink:href="#a" x="-23.080263" y="-51.856812" transform="translate(68.922 75.147)scale(1.0004)"/><path fill="none" stroke="#000" stroke-miterlimit="10" stroke-width=".3985" d="M29.627 54.183a9.044 9.044 0 1 0-18.09 0 9.044 9.044 0 1 0 18.09 0Z"/><use xlink:href="#b" x="-23.080263" y="-51.856812" transform="translate(40.575 109.743)scale(1.0004)"/><path fill="none" stroke="#000" stroke-miterlimit="10" stroke-width=".3985" d="M43.28 26.947 26.5 47.082M85.86 54.183a8.585 8.585 0 1 0-17.169 0 8.585 8.585 0 0 0 17.17 0Z"/><use xlink:href="#c" x="-23.080263" y="-51.856812" transform="translate(97.268 109.134)scale(1.0004)"/><path fill="none" stroke="#000" stroke-miterlimit="10" stroke-width=".3985" d="m54.579 26.947 17.074 20.489M57.974 88.2a9.044 9.044 0 1 0-18.09 0 9.044 9.044 0 1 0 18.09 0Z"/><use xlink:href="#d" x="-23.080263" y="-51.856812" transform="translate(68.922 143.759)scale(1.0004)"/><path fill="none" stroke="#000" stroke-miterlimit="10" stroke-width=".3985" d="M71.653 60.93 54.846 81.099M114.716 88.2a9.093 9.093 0 1 0-18.187 0 9.093 9.093 0 1 0 18.187 0Z"/><use xlink:href="#e" x="-23.080263" y="-51.856812" transform="translate(125.615 143.688)scale(1.0004)"/><path fill="none" stroke="#000" stroke-miterlimit="10" stroke-width=".3985" d="m82.899 60.93 16.775 20.13M20.582 44.94c0-9.182 9.922-24.773 15.852-24.773"/><path d="m39.536 20.167-4.468-1.682 1.466 1.682-1.466 1.682Z"/><path fill="none" stroke="#000" stroke-miterlimit="10" stroke-width=".3985" d="m39.536 20.167-4.468-1.682 1.466 1.682-1.466 1.682Z"/><use xlink:href="#f" x="-23.072903" y="-51.840276" transform="translate(40.962 77.58)scale(1.00008)"/><path fill="none" stroke="#000" stroke-miterlimit="10" stroke-width=".3985" d="M77.276 45.4c0-9.642-9.922-25.233-15.852-25.233"/><path d="m58.322 20.167 4.468 1.682-1.466-1.682 1.466-1.682Z"/><path fill="none" stroke="#000" stroke-miterlimit="10" stroke-width=".3985" d="m58.322 20.167 4.468 1.682-1.466-1.682 1.466-1.682Z"/><use xlink:href="#g" x="-23.072903" y="-51.840276" transform="translate(97.458 77.637)scale(1.00008)"/><path fill="none" stroke="#000" stroke-miterlimit="10" stroke-width=".3985" d="M48.929 78.956c0-9.182 9.921-24.773 15.894-24.773"/><path d="m67.925 54.183-4.468-1.682 1.465 1.682-1.465 1.682Z"/><path fill="none" stroke="#000" stroke-miterlimit="10" stroke-width=".3985" d="m67.925 54.183-4.468-1.682 1.465 1.682-1.465 1.682Z"/><use xlink:href="#h" x="-23.072903" y="-51.840276" transform="translate(69.323 111.58)scale(1.00008)"/><path fill="none" stroke="#000" stroke-miterlimit="10" stroke-width=".3985" d="M105.623 78.907c0-9.133-9.922-24.724-15.894-24.724"/><path d="m86.627 54.183 4.468 1.682-1.466-1.682 1.466-1.682Z"/><path fill="none" stroke="#000" stroke-miterlimit="10" stroke-width=".3985" d="m86.627 54.183 4.468 1.682-1.466-1.682 1.466-1.682Z"/><use xlink:href="#i" x="-23.072903" y="-51.840276" transform="translate(125.628 111.441)scale(1.00008)"/></svg>