<svg xmlns="http://www.w3.org/2000/svg" width="286.56pt" height="82.46pt" viewBox="0 0 286.56 82.46"><g fill="none" stroke="#000" stroke-miterlimit="10" stroke-width=".3985"><path d="M51.081 18.552a7.016 7.016 0 1 0-14.032 0 7.016 7.016 0 0 0 14.032 0ZM36.908 41.23a7.016 7.016 0 1 0-14.032 0 7.016 7.016 0 0 0 14.032 0ZM40.241 24.67l-6.525 10.441M25.569 63.907a7.016 7.016 0 1 0-14.032 0 7.016 7.016 0 0 0 14.032 0ZM26.665 47.683l-4.886 9.77M100.688 18.552a7.016 7.016 0 1 0-14.032 0 7.016 7.016 0 0 0 14.032 0ZM86.515 41.23a7.016 7.016 0 1 0-14.032 0 7.016 7.016 0 0 0 14.032 0ZM89.848 24.67l-6.525 10.441M97.853 63.907a7.016 7.016 0 1 0-14.032 0 7.016 7.016 0 0 0 14.032 0ZM82.725 47.683l4.886 9.77M150.295 18.552a7.016 7.016 0 1 0-14.032 0 7.016 7.016 0 0 0 14.032 0ZM136.121 41.23a7.016 7.016 0 1 0-14.031 0 7.016 7.016 0 0 0 14.031 0ZM139.455 24.67l-6.526 10.441M164.468 41.23a7.016 7.016 0 1 0-14.032 0 7.016 7.016 0 0 0 14.032 0ZM147.103 24.67l6.525 10.441M199.902 18.552a7.016 7.016 0 1 0-14.032 0 7.016 7.016 0 0 0 14.032 0ZM214.075 41.23a7.016 7.016 0 1 0-14.032 0 7.016 7.016 0 0 0 14.032 0ZM196.71 24.67l6.525 10.441M202.737 63.907a7.016 7.016 0 1 0-14.032 0 7.016 7.016 0 0 0 14.032 0ZM203.833 47.683l-4.886 9.77M249.509 18.552a7.016 7.016 0 1 0-14.032 0 7.016 7.016 0 0 0 14.032 0ZM263.682 41.23a7.016 7.016 0 1 0-14.032 0 7.016 7.016 0 0 0 14.032 0ZM246.317 24.67l6.525 10.441M275.02 63.907a7.016 7.016 0 1 0-14.031 0 7.016 7.016 0 0 0 14.032 0ZM259.893 47.683l4.885 9.77"/></g></svg>