<svg xmlns="http://www.w3.org/2000/svg" width="324.237" height="97.465"><path fill="none" stroke="#000" stroke-miterlimit="10" stroke-width=".399" d="M54.746 20.387a6.015 6.015 0 1 0-12.025-.001 6.015 6.015 0 0 0 12.025 0ZM37.738 48.734a6.013 6.013 0 1 0-12.027 0 6.012 6.012 0 0 0 6.012 6.012 6.012 6.012 0 0 0 6.015-6.012ZM45.535 25.715 34.922 43.406M26.398 77.078a6.012 6.012 0 0 0-6.011-6.012 6.013 6.013 0 1 0 6.012 6.012ZM29.418 54.5l-6.727 16.813M111.438 20.387a6.015 6.015 0 0 0-6.012-6.016 6.018 6.018 0 0 0-6.016 6.016 6.015 6.015 0 0 0 12.028 0ZM94.43 48.734a6.012 6.012 0 0 0-6.012-6.015 6.015 6.015 0 1 0 6.012 6.016ZM102.23 25.715 91.613 43.406M105.77 77.078a6.012 6.012 0 0 0-6.012-6.012 6.013 6.013 0 1 0 6.012 6.012ZM90.727 54.5l6.722 16.813M168.133 20.387a6.015 6.015 0 1 0-12.03-.002 6.015 6.015 0 0 0 12.03.002ZM151.125 48.734a6.013 6.013 0 1 0-12.027 0 6.012 6.012 0 0 0 6.011 6.012 6.012 6.012 0 0 0 6.016-6.012ZM158.922 25.715l-10.613 17.691M185.14 48.734a6.013 6.013 0 1 0-6.012 6.012 6.012 6.012 0 0 0 6.013-6.012ZM165.316 25.715l10.614 17.691M224.828 20.387a6.018 6.018 0 0 0-6.016-6.016 6.015 6.015 0 0 0 0 12.027 6.015 6.015 0 0 0 6.016-6.011ZM241.836 48.734a6.016 6.016 0 0 0-6.016-6.015 6.012 6.012 0 0 0-6.011 6.015 6.015 6.015 0 0 0 12.027 0ZM222.008 25.715l10.617 17.691M230.496 77.078a6.012 6.012 0 0 0-6.016-6.012 6.012 6.012 0 0 0-6.011 6.012 6.013 6.013 0 1 0 12.027 0ZM233.516 54.5l-6.727 16.813M281.52 20.387a6.015 6.015 0 1 0-12.03-.002 6.015 6.015 0 0 0 12.03.002ZM298.527 48.734a6.012 6.012 0 0 0-6.011-6.015 6.015 6.015 0 1 0 6.012 6.016ZM278.703 25.715l10.613 17.691M309.867 77.078a6.012 6.012 0 0 0-6.015-6.012 6.012 6.012 0 0 0-6.012 6.012 6.013 6.013 0 1 0 12.027 0ZM294.82 54.5l6.727 16.813"/></svg>