<svg xmlns="http://www.w3.org/2000/svg" width="328.246" height="101.474"><path fill="none" stroke="#000" stroke-miterlimit="10" stroke-width=".399" d="M58.754 22.39a8.018 8.018 0 1 0-16.035 0 8.019 8.019 0 1 0 16.035 0ZM41.746 50.738a8.018 8.018 0 1 0-16.036-.003 8.018 8.018 0 0 0 16.036.003ZM46.508 29.438 37.957 43.69M30.41 79.082a8.018 8.018 0 0 0-8.02-8.016 8.018 8.018 0 1 0 0 16.036c4.43 0 8.02-3.59 8.02-8.02ZM30.676 58.367 25.44 71.453M115.45 22.39a8.019 8.019 0 1 0-16.036 0 8.018 8.018 0 1 0 16.035 0ZM98.441 50.738c0-4.43-3.59-8.02-8.02-8.02a8.019 8.019 0 1 0 0 16.036c4.43 0 8.02-3.59 8.02-8.016ZM103.203 29.438 94.648 43.69M109.781 79.082a8.018 8.018 0 0 0-8.02-8.016 8.018 8.018 0 1 0 0 16.036c4.43 0 8.02-3.59 8.02-8.02ZM93.473 58.367l5.238 13.086M172.145 22.39c0-4.43-3.59-8.019-8.02-8.019s-8.02 3.59-8.02 8.02 3.59 8.02 8.02 8.02 8.02-3.59 8.02-8.02ZM155.133 50.738a8.018 8.018 0 1 0-16.036-.003 8.018 8.018 0 0 0 16.036.003ZM159.895 29.438l-8.551 14.253M189.152 50.738c0-4.43-3.59-8.02-8.02-8.02a8.019 8.019 0 1 0 0 16.036c4.43 0 8.02-3.59 8.02-8.016ZM168.352 29.438l8.554 14.253M228.836 22.39a8.019 8.019 0 1 0-16.035 0 8.018 8.018 0 1 0 16.035 0ZM245.844 50.738a8.019 8.019 0 1 0-16.035 0 8.018 8.018 0 0 0 16.035 0ZM225.047 29.438l8.55 14.253M234.504 79.082a8.018 8.018 0 1 0-16.035.005 8.018 8.018 0 0 0 16.035-.005ZM234.773 58.367l-5.234 13.086M285.531 22.39c0-4.43-3.59-8.019-8.02-8.019-4.429 0-8.019 3.59-8.019 8.02s3.59 8.02 8.02 8.02 8.02-3.59 8.02-8.02ZM302.54 50.738c0-4.43-3.59-8.02-8.02-8.02a8.019 8.019 0 1 0 0 16.036c4.43 0 8.02-3.59 8.02-8.016ZM281.738 29.438l8.555 14.253M313.875 79.082a8.018 8.018 0 1 0-16.035.005 8.018 8.018 0 0 0 16.035-.005ZM297.57 58.367l5.239 13.086"/></svg>