<svg xmlns="http://www.w3.org/2000/svg" xmlns:xlink="http://www.w3.org/1999/xlink" width="471.024" height="114.09"><defs><path id="a" d="M6.422-4.594c0-1.187-.063-2.343-.578-3.437-.594-1.188-1.625-1.5-2.328-1.5-.829 0-1.86.406-2.375 1.594-.407.906-.547 1.796-.547 3.343 0 1.39.094 2.438.61 3.453C1.765-.047 2.75.297 3.5.297c1.25 0 1.969-.734 2.375-1.578.516-1.078.547-2.485.547-3.313ZM3.5.016c-.453 0-1.39-.266-1.656-1.829-.172-.859-.172-1.953-.172-2.953 0-1.171 0-2.234.234-3.078.25-.968.985-1.406 1.594-1.406.547 0 1.375.328 1.656 1.563.172.812.172 1.953.172 2.921 0 .97 0 2.047-.156 2.922C4.906-.266 4 .016 3.5.016Zm0 0"/><path id="b" d="M6.39-3.484c0-1.329 0-1.735-.343-2.204-.406-.546-1.078-.64-1.578-.64-1.39 0-1.938 1.187-2.047 1.484h-.016v-1.484l-1.953.156v.422c.984 0 1.094.094 1.094.797v3.89c0 .641-.156.641-1.094.641V0C.828-.031 1.61-.031 2.016-.031c.406 0 1.187 0 1.562.031v-.422c-.922 0-1.094 0-1.094-.64v-2.672c0-1.5.985-2.297 1.875-2.297.891 0 1.094.718 1.094 1.593v3.375c0 .641-.156.641-1.094.641V0c.375-.031 1.157-.031 1.547-.031.422 0 1.188 0 1.563.031v-.422c-.719 0-1.078 0-1.078-.422Zm0 0"/><path id="c" d="M6.578-3.063c0-1.859-1.406-3.328-3.062-3.328-1.72 0-3.079 1.516-3.079 3.329C.438-1.234 1.86.14 3.5.14c1.688 0 3.078-1.407 3.078-3.204ZM3.516-.171c-.532 0-1.172-.234-1.594-.937-.39-.641-.406-1.485-.406-2.094 0-.547 0-1.422.453-2.063A1.836 1.836 0 0 1 3.5-6.109c.563 0 1.156.25 1.547.812.453.656.453 1.563.453 2.094 0 .5 0 1.39-.375 2.062-.406.704-1.063.97-1.61.97Zm0 0"/><path id="d" d="M4.297-9.797v.422c.984 0 1.094.094 1.094.797v3.172a2.22 2.22 0 0 0-1.797-.922C1.938-6.328.5-4.922.5-3.078.5-1.266 1.86.14 3.438.14c1.093 0 1.718-.72 1.921-.985v.985L7.391 0v-.422c-.985 0-1.094-.094-1.094-.797v-8.734Zm1.062 8.125c0 .25 0 .297-.203.61-.343.5-.922.921-1.64.921-.375 0-1.922-.14-1.922-2.921 0-1.047.172-1.61.484-2.094.281-.438.86-.875 1.578-.875.89 0 1.39.64 1.531.875.172.234.172.265.172.515Zm0 0"/><path id="e" d="M5.5-3.328c.313 0 .344 0 .344-.266 0-1.453-.782-2.797-2.516-2.797-1.64 0-2.89 1.47-2.89 3.25C.438-1.25 1.89.141 3.483.141c1.704 0 2.36-1.547 2.36-1.844 0-.094-.078-.14-.157-.14-.125 0-.156.062-.171.14C5.14-.5 4.172-.172 3.578-.172c-.61 0-2.062-.406-2.062-2.89v-.266Zm-3.969-.266c.125-2.265 1.375-2.515 1.782-2.515 1.53 0 1.624 2.015 1.64 2.515Zm0 0"/><path id="f" d="M2.64-5.156c-.25.015-.296.031-.296.172 0 .14.062.14.328.14h.656c1.219 0 1.766 1 1.766 2.375 0 1.875-.985 2.375-1.688 2.375-.687 0-1.86-.328-2.265-1.265.453.062.875-.188.875-.704a.681.681 0 0 0-.704-.703c-.343 0-.718.204-.718.75C.594-.75 1.859.297 3.454.297 5.155.297 6.421-1 6.421-2.453c0-1.313-1.063-2.36-2.438-2.594 1.25-.36 2.047-1.406 2.047-2.531 0-1.125-1.172-1.953-2.562-1.953-1.438 0-2.5.875-2.5 1.922 0 .562.453.687.672.687.296 0 .64-.219.64-.656 0-.453-.344-.656-.656-.656-.094 0-.125 0-.156.015.547-.969 1.89-.969 1.953-.969.484 0 1.406.204 1.406 1.61 0 .281-.031 1.078-.453 1.703-.438.625-.922.672-1.313.688Zm0 0"/><path id="g" d="M4.703-6.063c0-.265 0-.328-.14-.328-.11 0-.391.313-.485.438-.453-.36-.89-.438-1.36-.438-1.734 0-2.25.938-2.25 1.735 0 .156 0 .656.548 1.156.468.406.953.5 1.609.625.781.156.969.203 1.328.5.266.203.453.531.453.922 0 .625-.36 1.312-1.625 1.312-.937 0-1.64-.546-1.953-1.984-.047-.25-.047-.266-.062-.281C.734-2.47.672-2.47.625-2.47c-.156 0-.156.078-.156.328v1.954c0 .265 0 .328.14.328.079 0 .094-.016.344-.313.063-.094.063-.125.281-.36.547.673 1.313.673 1.563.673 1.5 0 2.25-.829 2.25-1.97 0-.765-.469-1.234-.594-1.359-.516-.437-.906-.53-1.86-.703-.421-.078-1.468-.28-1.468-1.14 0-.453.297-1.11 1.594-1.11 1.562 0 1.64 1.329 1.672 1.782.015.109.109.109.156.109.156 0 .156-.063.156-.328Zm0 0"/><path id="h" d="M4.125-9.188c0-.343 0-.343-.281-.343-.344.375-1.063.906-2.531.906v.422c.328 0 1.046 0 1.828-.375v7.469c0 .515-.047.687-1.297.687H1.39V0c.39-.031 1.78-.031 2.25-.031.468 0 1.859 0 2.234.031v-.422h-.438c-1.265 0-1.312-.172-1.312-.687Zm0 0"/><path id="i" d="M6.313-2.406H6c-.047.234-.156 1.031-.313 1.265-.093.125-.906.125-1.343.125H1.687c.391-.328 1.266-1.25 1.641-1.593 2.188-2.016 2.985-2.75 2.985-4.172 0-1.657-1.313-2.75-2.97-2.75-1.671 0-2.64 1.406-2.64 2.64 0 .735.625.735.672.735.297 0 .672-.219.672-.672 0-.406-.266-.672-.672-.672-.125 0-.156 0-.203.016.281-.985 1.047-1.641 1.984-1.641 1.219 0 1.969 1.016 1.969 2.344 0 1.218-.703 2.281-1.531 3.203L.704-.344V0h5.234Zm0 0"/></defs><path fill="none" stroke="#000" stroke-miterlimit="10" stroke-width=".399" d="M73.453 22.39c0-4.43-3.59-8.019-8.02-8.019s-8.019 3.59-8.019 8.02 3.59 8.02 8.02 8.02 8.02-3.59 8.02-8.02Zm0 0"/><path fill="none" stroke="#000" stroke-dasharray="2.98883 1.99255" stroke-miterlimit="10" stroke-width=".399" d="M47.938 56.406a8.018 8.018 0 1 0-16.035.005 8.018 8.018 0 0 0 16.035-.005Zm0 0"/><use xlink:href="#a" x="19.436" y="80.049"/><use xlink:href="#b" x="31.137" y="80.049"/><use xlink:href="#c" x="38.941" y="80.049"/><use xlink:href="#d" x="46.367" y="80.049"/><use xlink:href="#e" x="54.157" y="80.049"/><path fill="none" stroke="#000" stroke-miterlimit="10" stroke-width=".399" d="m70.363 28.965 16.485 21.98"/><path fill="#DFDFDF" d="M94.93 36.625 70.45 79.027h48.96Zm0 0"/><use xlink:href="#f" x="71.674" y="94.654"/><use xlink:href="#b" x="83.375" y="94.654"/><use xlink:href="#c" x="91.179" y="94.654"/><use xlink:href="#d" x="98.605" y="94.654"/><use xlink:href="#e" x="106.409" y="94.654"/><use xlink:href="#g" x="112.638" y="94.654"/><path fill="none" stroke="#000" stroke-miterlimit="10" stroke-width=".399" d="M186.84 22.39c0-4.43-3.59-8.019-8.02-8.019s-8.02 3.59-8.02 8.02 3.59 8.02 8.02 8.02 8.02-3.59 8.02-8.02ZM161.328 56.406a8.018 8.018 0 0 0-8.02-8.015 8.018 8.018 0 1 0 0 16.035c4.43 0 8.02-3.59 8.02-8.02Zm0 0"/><use xlink:href="#h" x="132.822" y="80.049"/><use xlink:href="#b" x="144.523" y="80.049"/><use xlink:href="#c" x="152.327" y="80.049"/><use xlink:href="#d" x="159.753" y="80.049"/><use xlink:href="#e" x="167.543" y="80.049"/><path fill="none" stroke="#000" stroke-miterlimit="10" stroke-width=".399" d="m173.89 28.965-15.652 20.867M183.75 28.965l16.488 21.98"/><path fill="#DFDFDF" d="m206.324 39.277-16.816 29.13h33.633Zm0 0"/><use xlink:href="#i" x="183.068" y="84.03"/><use xlink:href="#b" x="194.769" y="84.03"/><use xlink:href="#c" x="202.573" y="84.03"/><use xlink:href="#d" x="209.984" y="84.03"/><use xlink:href="#e" x="217.789" y="84.03"/><use xlink:href="#g" x="224.032" y="84.03"/><path fill="none" stroke="#000" stroke-miterlimit="10" stroke-width=".399" d="M300.227 22.39c0-4.43-3.59-8.019-8.02-8.019s-8.02 3.59-8.02 8.02 3.59 8.02 8.02 8.02 8.02-3.59 8.02-8.02ZM287.277 28.965l-16.484 21.98"/><path fill="#DFDFDF" d="m264.703 39.277-16.816 29.13h33.633Zm0 0"/><use xlink:href="#i" x="241.445" y="84.03"/><use xlink:href="#b" x="253.146" y="84.03"/><use xlink:href="#c" x="260.95" y="84.03"/><use xlink:href="#d" x="268.361" y="84.03"/><use xlink:href="#e" x="276.166" y="84.03"/><use xlink:href="#g" x="282.409" y="84.03"/><path fill="none" stroke="#000" stroke-miterlimit="10" stroke-width=".399" d="M325.738 56.406a8.018 8.018 0 1 0-16.036.005 8.018 8.018 0 0 0 16.036-.005Zm0 0"/><use xlink:href="#h" x="297.231" y="80.049"/><use xlink:href="#b" x="308.932" y="80.049"/><use xlink:href="#c" x="316.736" y="80.049"/><use xlink:href="#d" x="324.162" y="80.049"/><use xlink:href="#e" x="331.966" y="80.049"/><path fill="none" stroke="#000" stroke-miterlimit="10" stroke-width=".399" d="m297.137 28.965 15.652 20.867M413.613 22.39a8.019 8.019 0 1 0-16.035 0 8.018 8.018 0 1 0 16.035 0ZM400.664 28.965l-16.484 21.98"/><path fill="#DFDFDF" d="m376.098 36.625-24.48 42.402h48.96Zm0 0"/><use xlink:href="#f" x="352.838" y="94.654"/><use xlink:href="#b" x="364.539" y="94.654"/><use xlink:href="#c" x="372.343" y="94.654"/><use xlink:href="#d" x="379.769" y="94.654"/><use xlink:href="#e" x="387.559" y="94.654"/><use xlink:href="#g" x="393.802" y="94.654"/><path fill="none" stroke="#000" stroke-dasharray="2.98883 1.99255" stroke-miterlimit="10" stroke-width=".399" d="M439.125 56.406a8.018 8.018 0 1 0-16.036.005 8.018 8.018 0 0 0 16.036-.005Zm0 0"/><use xlink:href="#a" x="410.617" y="80.049"/><use xlink:href="#b" x="422.318" y="80.049"/><use xlink:href="#c" x="430.122" y="80.049"/><use xlink:href="#d" x="437.548" y="80.049"/><use xlink:href="#e" x="445.338" y="80.049"/></svg>