<svg xmlns="http://www.w3.org/2000/svg" xmlns:xlink="http://www.w3.org/1999/xlink" width="413.284" height="112.205"><defs><path id="a" d="M5.36-3.828c0-.985-.063-1.953-.5-2.86-.485-1-1.344-1.265-1.938-1.265-.688 0-1.531.344-1.985 1.344-.328.75-.453 1.5-.453 2.78 0 1.157.094 2.032.516 2.892A2.132 2.132 0 0 0 2.922.25c1.031 0 1.625-.625 1.984-1.313.422-.89.453-2.062.453-2.765ZM2.921.016c-.39 0-1.172-.22-1.39-1.516-.126-.719-.126-1.625-.126-2.469 0-.984 0-1.86.188-2.562.203-.813.812-1.172 1.328-1.172.453 0 1.14.266 1.375 1.297.156.687.156 1.625.156 2.437 0 .797 0 1.703-.14 2.438C4.093-.22 3.328.016 2.921.016Zm0 0"/><path id="b" d="M5.313-2.906c0-1.11 0-1.438-.266-1.828-.344-.47-.906-.532-1.313-.532-1.171 0-1.625.985-1.718 1.22v-1.22L.375-5.14v.344c.813 0 .922.094.922.672v3.234c0 .547-.14.547-.922.547V0c.313-.031.969-.031 1.297-.031.344 0 1 0 1.297.031v-.344c-.75 0-.906 0-.906-.547v-2.218c0-1.25.828-1.922 1.578-1.922.734 0 .906.61.906 1.343V-.89c0 .547-.14.547-.906.547V0c.296-.031.953-.031 1.28-.031.345 0 1 0 1.313.031v-.344c-.609 0-.906 0-.921-.36Zm0 0"/><path id="c" d="M5.484-2.563c0-1.53-1.171-2.765-2.562-2.765C1.5-5.328.359-4.062.359-2.562.36-1.032 1.547.124 2.922.124c1.406 0 2.562-1.172 2.562-2.688ZM2.922-.14c-.438 0-.969-.187-1.313-.78-.328-.532-.343-1.235-.343-1.75 0-.454 0-1.173.375-1.72.328-.515.859-.703 1.28-.703.454 0 .97.219 1.282.688.375.547.375 1.297.375 1.734 0 .422 0 1.172-.312 1.735-.329.562-.891.796-1.344.796Zm0 0"/><path id="d" d="M3.578-8.156v.344c.828 0 .922.078.922.671V-4.5A1.829 1.829 0 0 0 3-5.266C1.61-5.266.422-4.094.422-2.562.422-1.048 1.547.124 2.875.124c.906 0 1.422-.61 1.594-.828v.828L6.156 0v-.344c-.812 0-.906-.094-.906-.672v-7.28Zm.89 6.75c0 .218 0 .265-.171.515-.281.422-.766.766-1.375.766-.297 0-1.594-.11-1.594-2.438 0-.859.14-1.328.406-1.734.235-.36.72-.734 1.313-.734.75 0 1.156.531 1.281.734.14.203.14.219.14.438Zm0 0"/><path id="e" d="M4.578-2.766c.266 0 .281 0 .281-.234 0-1.203-.64-2.328-2.093-2.328-1.36 0-2.407 1.234-2.407 2.703 0 1.578 1.22 2.75 2.547 2.75 1.422 0 1.953-1.297 1.953-1.547 0-.078-.046-.125-.125-.125-.093 0-.125.063-.14.125-.313 1-1.11 1.281-1.625 1.281-.5 0-1.703-.343-1.703-2.406v-.219ZM1.281-3c.094-1.875 1.14-2.094 1.485-2.094 1.28 0 1.343 1.688 1.359 2.094Zm0 0"/><path id="f" d="M2.203-4.297c-.203.016-.25.031-.25.14 0 .11.063.11.266.11h.547c1.03 0 1.484.844 1.484 1.984 0 1.579-.813 1.985-1.406 1.985-.578 0-1.547-.266-1.906-1.063.39.063.734-.156.734-.578a.571.571 0 0 0-.578-.593c-.297 0-.61.171-.61.624C.484-.625 1.547.25 2.875.25c1.422 0 2.484-1.094 2.484-2.297C5.36-3.14 4.47-4 3.33-4.203 4.358-4.5 5.03-5.375 5.03-6.313c0-.937-.984-1.64-2.14-1.64-1.188 0-2.079.734-2.079 1.61 0 .468.375.577.547.577.25 0 .547-.187.547-.546 0-.375-.297-.547-.562-.547-.063 0-.094 0-.125.015.453-.812 1.578-.812 1.64-.812.391 0 1.172.172 1.172 1.343 0 .235-.031.891-.39 1.407-.36.531-.766.562-1.079.578Zm0 0"/><path id="g" d="M3.922-5.063c0-.203 0-.265-.125-.265-.094 0-.313.266-.406.375-.36-.313-.735-.375-1.125-.375C.828-5.328.39-4.547.39-3.891c0 .141 0 .563.453.97.39.343.797.421 1.344.53.656.125.812.172 1.109.407a.97.97 0 0 1 .375.78c0 .516-.297 1.079-1.36 1.079-.78 0-1.359-.453-1.624-1.64C.64-1.986.64-2 .64-2.016c-.032-.047-.079-.047-.11-.047-.14 0-.14.062-.14.28v1.626c0 .218 0 .281.125.281.062 0 .062-.016.265-.266.063-.093.063-.109.25-.296.453.562 1.094.562 1.297.562 1.25 0 1.875-.703 1.875-1.64 0-.641-.39-1.032-.5-1.141-.422-.375-.75-.438-1.547-.578-.344-.079-1.219-.25-1.219-.97 0-.359.25-.905 1.329-.905C3.562-5.11 3.64-4 3.656-3.641c.016.11.094.11.14.11.126 0 .126-.063.126-.281Zm0 0"/><path id="h" d="M3.438-7.656c0-.282 0-.297-.235-.297-.281.328-.89.766-2.11.766v.343c.266 0 .86 0 1.532-.297v6.22c0 .437-.047.577-1.094.577h-.375V0c.328-.031 1.485-.031 1.875-.031.406 0 1.547 0 1.875.031v-.344h-.375c-1.047 0-1.093-.14-1.093-.578Zm0 0"/><path id="i" d="M5.266-2.016H5c-.047.204-.14.875-.25 1.063-.094.11-.766.11-1.125.11H1.406c.328-.282 1.063-1.048 1.36-1.329 1.828-1.672 2.5-2.297 2.5-3.484 0-1.375-1.094-2.297-2.485-2.297-1.375 0-2.203 1.187-2.203 2.219 0 .609.531.609.563.609.265 0 .562-.188.562-.563 0-.343-.219-.562-.562-.562-.094 0-.125 0-.157.016.22-.813.875-1.375 1.641-1.375 1.016 0 1.64.859 1.64 1.953 0 1.015-.577 1.906-1.265 2.672L.578-.281V0h4.375Zm0 0"/></defs><path fill="none" stroke="#000" stroke-miterlimit="10" stroke-width=".399" d="M63.836 20.387a6.015 6.015 0 1 0-12.03-.002 6.015 6.015 0 0 0 12.03.002Zm0 0"/><path fill="none" stroke="#000" stroke-dasharray="2.98883 1.99255" stroke-miterlimit="10" stroke-width=".399" d="M41.16 48.734a6.013 6.013 0 1 0-12.027 0 6.012 6.012 0 0 0 6.012 6.012 6.012 6.012 0 0 0 6.015-6.012Zm0 0"/><use xlink:href="#a" x="18.075" y="67.349"/><use xlink:href="#b" x="27.826" y="67.349"/><use xlink:href="#c" x="34.329" y="67.349"/><use xlink:href="#d" x="40.505" y="67.349"/><use xlink:href="#e" x="47.009" y="67.349"/><path fill="none" stroke="#000" stroke-miterlimit="10" stroke-width=".399" d="M61.703 25.238 77.22 44.633"/><path fill="#DFDFDF" d="m76.516 37.078-25.66 44.45h51.32Zm0 0"/><use xlink:href="#f" x="57.135" y="94.13"/><use xlink:href="#b" x="66.886" y="94.13"/><use xlink:href="#c" x="73.389" y="94.13"/><use xlink:href="#d" x="79.577" y="94.13"/><use xlink:href="#e" x="86.081" y="94.13"/><use xlink:href="#g" x="91.272" y="94.13"/><path fill="none" stroke="#000" stroke-miterlimit="10" stroke-width=".399" d="M163.05 20.387a6.015 6.015 0 1 0-12.025-.001 6.015 6.015 0 0 0 12.026 0ZM140.375 48.734a6.016 6.016 0 0 0-6.016-6.015 6.012 6.012 0 0 0-6.011 6.015 6.015 6.015 0 0 0 12.027 0Zm0 0"/><use xlink:href="#h" x="117.287" y="67.349"/><use xlink:href="#b" x="127.038" y="67.349"/><use xlink:href="#c" x="133.541" y="67.349"/><use xlink:href="#d" x="139.729" y="67.349"/><use xlink:href="#e" x="146.233" y="67.349"/><path fill="none" stroke="#000" stroke-miterlimit="10" stroke-width=".399" d="m153.156 25.238-14.914 18.645M160.918 25.238l15.516 19.395"/><path fill="#DFDFDF" d="M177.723 40.813 160.977 69.82h33.492Zm0 0"/><use xlink:href="#i" x="158.34" y="82.423"/><use xlink:href="#b" x="168.091" y="82.423"/><use xlink:href="#c" x="174.594" y="82.423"/><use xlink:href="#d" x="180.782" y="82.423"/><use xlink:href="#e" x="187.286" y="82.423"/><use xlink:href="#g" x="192.477" y="82.423"/><path fill="none" stroke="#000" stroke-miterlimit="10" stroke-width=".399" d="M262.266 20.387a6.018 6.018 0 0 0-6.016-6.016 6.015 6.015 0 0 0 0 12.027 6.015 6.015 0 0 0 6.016-6.011ZM252.371 25.238l-15.516 19.395"/><path fill="#DFDFDF" d="M235.566 40.813 218.82 69.82h33.493Zm0 0"/><use xlink:href="#i" x="216.184" y="82.423"/><use xlink:href="#b" x="225.935" y="82.423"/><use xlink:href="#c" x="232.438" y="82.423"/><use xlink:href="#d" x="238.614" y="82.423"/><use xlink:href="#e" x="245.118" y="82.423"/><use xlink:href="#g" x="250.321" y="82.423"/><path fill="none" stroke="#000" stroke-miterlimit="10" stroke-width=".399" d="M284.941 48.734a6.013 6.013 0 1 0-6.012 6.012 6.012 6.012 0 0 0 6.012-6.012Zm0 0"/><use xlink:href="#h" x="261.854" y="67.349"/><use xlink:href="#b" x="271.605" y="67.349"/><use xlink:href="#c" x="278.108" y="67.349"/><use xlink:href="#d" x="284.296" y="67.349"/><use xlink:href="#e" x="290.788" y="67.349"/><path fill="none" stroke="#000" stroke-miterlimit="10" stroke-width=".399" d="m260.133 25.238 14.914 18.645M361.477 20.387a6.015 6.015 0 0 0-6.012-6.016 6.018 6.018 0 0 0-6.016 6.016 6.015 6.015 0 0 0 12.028 0ZM351.582 25.238l-15.516 19.395"/><path fill="#DFDFDF" d="m336.773 37.078-25.664 44.45h51.325Zm0 0"/><use xlink:href="#f" x="317.389" y="94.13"/><use xlink:href="#b" x="327.14" y="94.13"/><use xlink:href="#c" x="333.643" y="94.13"/><use xlink:href="#d" x="339.819" y="94.13"/><use xlink:href="#e" x="346.323" y="94.13"/><use xlink:href="#g" x="351.526" y="94.13"/><path fill="none" stroke="#000" stroke-dasharray="2.98883 1.99255" stroke-miterlimit="10" stroke-width=".399" d="M384.156 48.734a6.013 6.013 0 1 0-12.027 0 6.012 6.012 0 0 0 6.012 6.012 6.012 6.012 0 0 0 6.015-6.012Zm0 0"/><use xlink:href="#a" x="361.067" y="67.349"/><use xlink:href="#b" x="370.818" y="67.349"/><use xlink:href="#c" x="377.321" y="67.349"/><use xlink:href="#d" x="383.497" y="67.349"/><use xlink:href="#e" x="390.001" y="67.349"/></svg>