<svg xmlns="http://www.w3.org/2000/svg" xmlns:xlink="http://www.w3.org/1999/xlink" width="280.037" height="167.818"><defs><path id="a" d="M3.438-7.656c0-.282 0-.297-.235-.297-.281.328-.89.766-2.11.766v.343c.266 0 .86 0 1.532-.297v6.22c0 .437-.047.577-1.094.577h-.375V0c.328-.031 1.485-.031 1.875-.031.406 0 1.547 0 1.875.031v-.344h-.375c-1.047 0-1.093-.14-1.093-.578Zm0 0"/><path id="b" d="M5.266-2.016H5c-.047.204-.14.875-.25 1.063-.094.11-.766.11-1.125.11H1.406c.328-.282 1.063-1.048 1.36-1.329 1.828-1.672 2.5-2.297 2.5-3.484 0-1.375-1.094-2.297-2.485-2.297-1.375 0-2.203 1.187-2.203 2.219 0 .609.531.609.563.609.265 0 .562-.188.562-.563 0-.343-.219-.562-.562-.562-.094 0-.125 0-.157.016.22-.813.875-1.375 1.641-1.375 1.016 0 1.64.859 1.64 1.953 0 1.015-.577 1.906-1.265 2.672L.578-.281V0h4.375Zm0 0"/><path id="c" d="M2.203-4.297c-.203.016-.25.031-.25.14 0 .11.063.11.266.11h.547c1.03 0 1.484.844 1.484 1.984 0 1.579-.813 1.985-1.406 1.985-.578 0-1.547-.266-1.906-1.063.39.063.734-.156.734-.578a.571.571 0 0 0-.578-.593c-.297 0-.61.171-.61.624C.484-.625 1.547.25 2.875.25c1.422 0 2.484-1.094 2.484-2.297C5.36-3.14 4.47-4 3.33-4.203 4.358-4.5 5.03-5.375 5.03-6.313c0-.937-.984-1.64-2.14-1.64-1.188 0-2.079.734-2.079 1.61 0 .468.375.577.547.577.25 0 .547-.187.547-.546 0-.375-.297-.547-.562-.547-.063 0-.094 0-.125.015.453-.812 1.578-.812 1.64-.812.391 0 1.172.172 1.172 1.343 0 .235-.031.891-.39 1.407-.36.531-.766.562-1.079.578Zm0 0"/><path id="d" d="M4.313-7.781c0-.235 0-.282-.172-.282-.094 0-.125 0-.22.141L.329-2.344V-2h3.14v1.094c0 .437-.03.562-.905.562h-.235V0c.281-.031 1.219-.031 1.563-.031.328 0 1.28 0 1.562.031v-.344H5.22c-.875 0-.907-.125-.907-.562V-2h1.204v-.344H4.312Zm-.782.937v4.5H.625Zm0 0"/><path id="e" d="M1.531-6.844a3.88 3.88 0 0 0 1.063.172c1.344 0 2.219-.984 2.219-1.156 0-.047-.032-.11-.11-.11-.016 0-.047 0-.156.047A3.987 3.987 0 0 1 3-7.562c-.781 0-1.344-.25-1.578-.344-.078-.032-.11-.032-.125-.032-.094 0-.094.079-.094.266v3.547c0 .219 0 .281.14.281.063 0 .079 0 .204-.156.328-.484.89-.766 1.484-.766.64 0 .953.579 1.047.782.203.468.219 1.062.219 1.515 0 .453 0 1.125-.344 1.672-.265.422-.719.719-1.25.719A1.838 1.838 0 0 1 .922-1.484a.396.396 0 0 0 .187.03c.204 0 .532-.109.532-.515 0-.343-.235-.531-.532-.531-.218 0-.53.11-.53.578C.578-.906 1.405.25 2.718.25c1.36 0 2.547-1.14 2.547-2.656 0-1.422-.97-2.61-2.22-2.61a2.08 2.08 0 0 0-1.515.641Zm0 0"/><path id="f" d="M1.469-4.156c0-3.032 1.468-3.5 2.11-3.5.437 0 .874.125 1.093.484-.14 0-.594 0-.594.484 0 .266.172.5.484.5.297 0 .5-.187.5-.53 0-.626-.453-1.235-1.484-1.235-1.515 0-3.094 1.547-3.094 4.172C.484-.484 1.922.25 2.938.25 4.25.25 5.358-.89 5.358-2.438c0-1.593-1.109-2.656-2.312-2.656-1.063 0-1.453.922-1.578 1.25ZM2.937-.078c-.75 0-1.109-.656-1.218-.906-.11-.313-.219-.907-.219-1.735 0-.953.422-2.14 1.5-2.14.656 0 1 .453 1.188.859.187.438.187 1.031.187 1.547 0 .61 0 1.156-.234 1.61-.297.562-.72.765-1.204.765Zm0 0"/><path id="g" d="M5.672-7.422v-.281H2.797c-1.453 0-1.469-.156-1.516-.375h-.265L.64-5.688h.265c.031-.218.14-.953.297-1.093.094-.063 1-.063 1.156-.063h2.547L3.641-5.03C3.312-4.563 2.109-2.61 2.109-.36c0 .125 0 .609.485.609.5 0 .5-.469.5-.625v-.594c0-1.781.281-3.172.844-3.969Zm0 0"/><path id="h" d="M3.563-4.313c.593-.328 1.468-.875 1.468-1.875 0-1.046-1-1.765-2.11-1.765-1.171 0-2.108.875-2.108 1.969 0 .406.125.812.453 1.218.14.157.14.157.984.75C1.094-3.484.484-2.672.484-1.812.484-.532 1.704.25 2.922.25c1.328 0 2.437-.984 2.437-2.234 0-1.22-.859-1.75-1.796-2.329ZM1.937-5.39c-.156-.109-.64-.421-.64-1 0-.78.812-1.265 1.625-1.265.86 0 1.625.61 1.625 1.468 0 .735-.531 1.329-1.219 1.704ZM2.5-3.844l1.438.938c.312.203.874.578.874 1.297 0 .921-.921 1.53-1.89 1.53-1.016 0-1.875-.734-1.875-1.734 0-.921.672-1.671 1.453-2.03Zm0 0"/><path id="i" d="M3.89 2.906c0-.031 0-.062-.203-.265C2.484 1.437 1.813-.531 1.813-2.97c0-2.328.562-4.328 1.953-5.734.125-.11.125-.125.125-.172 0-.063-.063-.094-.11-.094-.156 0-1.14.86-1.719 2.031-.609 1.22-.89 2.485-.89 3.97 0 1.062.172 2.484.781 3.75C2.672 2.218 3.641 3 3.781 3c.047 0 .11-.031.11-.094Zm0 0"/><path id="j" d="M8.453-4.047c0-2.484-1.812-4.375-3.906-4.375C2.422-8.422.64-6.5.64-4.047.64-1.625 2.453.25 4.547.25c2.14 0 3.906-1.906 3.906-4.297ZM4.547-.03c-1.219 0-2.797-1.14-2.797-4.203 0-2.922 1.672-3.922 2.797-3.922 1.172 0 2.797 1.031 2.797 3.922 0 3.109-1.625 4.203-2.797 4.203Zm0 0"/><path id="k" d="M3.375-2.969c0-.922-.125-2.39-.797-3.781C1.875-8.188.891-8.969.766-8.969c-.047 0-.11.031-.11.094 0 .047 0 .063.203.266 1.204 1.203 1.86 3.187 1.86 5.625 0 2.312-.563 4.312-1.938 5.718-.125.11-.125.141-.125.172 0 .063.063.094.11.094.156 0 1.14-.86 1.718-2.031.61-1.219.891-2.516.891-3.938Zm0 0"/><path id="l" d="M4.672-4.594 6.328-7c.203-.281.547-.813 1.688-.813v-.343c-.516.015-.657.015-1.266.015-.313 0-1.078 0-1.36-.015v.344c.485.03.641.312.641.515 0 .14-.047.203-.11.313L4.485-4.875l-1.609-2.39a.355.355 0 0 1-.094-.188c0-.172.25-.36.688-.36v-.343c-.297.015-1.235.015-1.578.015-.344 0-1.172 0-1.454-.015v.344c.891 0 1.016.062 1.266.437l2.234 3.313-2.015 2.921c-.203.297-.578.782-1.656.797V0c.515-.031.64-.031 1.25-.031.328 0 1.109 0 1.375.031v-.344c-.5-.031-.657-.328-.657-.531 0-.125.063-.219.125-.313l1.766-2.578L6.063-.875c.062.11.078.125.078.172 0 .14-.22.344-.672.36V0C5.75-.031 6.687-.031 7.03-.031c.328 0 1.188 0 1.469.031v-.344c-.703 0-1 0-1.266-.422Zm0 0"/></defs><path fill="none" stroke="#000" stroke-miterlimit="10" stroke-width=".399" d="M69.152 24.71 37.727 37.728M100.578 37.727l13.016 31.425M100.578 100.578 24.711 69.152M69.152 113.594l-31.425-13.016"/><path fill="#FFF" stroke="#000" stroke-miterlimit="10" stroke-width=".399" d="M79.492 24.71c0-5.71-4.629-10.339-10.34-10.339-5.71 0-10.34 4.629-10.34 10.34 0 5.71 4.63 10.34 10.34 10.34 5.711 0 10.34-4.63 10.34-10.34Zm0 0"/><use xlink:href="#a" x="66.226" y="28.563"/><path fill="#FFF" stroke="#000" stroke-miterlimit="10" stroke-width=".399" d="M110.914 37.727c0-5.707-4.625-10.336-10.336-10.336-5.71 0-10.34 4.629-10.34 10.336 0 5.71 4.63 10.34 10.34 10.34 5.711 0 10.336-4.63 10.336-10.34Zm0 0"/><use xlink:href="#b" x="97.651" y="41.579"/><path fill="#FFF" stroke="#000" stroke-miterlimit="10" stroke-width=".399" d="M123.934 69.152c0-5.707-4.63-10.336-10.34-10.336-5.711 0-10.336 4.63-10.336 10.336 0 5.711 4.625 10.34 10.336 10.34 5.71 0 10.34-4.629 10.34-10.34Zm0 0"/><use xlink:href="#c" x="110.667" y="73.004"/><path fill="#FFF" stroke="#000" stroke-miterlimit="10" stroke-width=".399" d="M110.914 100.578c0-5.71-4.625-10.336-10.336-10.336-5.71 0-10.34 4.625-10.34 10.336s4.63 10.34 10.34 10.34c5.711 0 10.336-4.629 10.336-10.34Zm0 0"/><use xlink:href="#d" x="97.651" y="104.431"/><path fill="#FFF" stroke="#000" stroke-miterlimit="10" stroke-width=".399" d="M79.492 113.594c0-5.707-4.629-10.336-10.34-10.336-5.71 0-10.34 4.629-10.34 10.336 0 5.71 4.63 10.34 10.34 10.34 5.711 0 10.34-4.63 10.34-10.34Zm0 0"/><use xlink:href="#e" x="66.226" y="117.446"/><path fill="#FFF" stroke="#000" stroke-miterlimit="10" stroke-width=".399" d="M48.066 100.578c0-5.71-4.629-10.336-10.34-10.336-5.71 0-10.34 4.625-10.34 10.336s4.63 10.34 10.34 10.34c5.712 0 10.34-4.629 10.34-10.34Zm0 0"/><use xlink:href="#f" x="34.801" y="104.43"/><path fill="#FFF" stroke="#000" stroke-miterlimit="10" stroke-width=".399" d="M35.047 69.152c0-5.707-4.629-10.336-10.336-10.336-5.711 0-10.34 4.63-10.34 10.336 0 5.711 4.629 10.34 10.34 10.34 5.707 0 10.336-4.629 10.336-10.34Zm0 0"/><use xlink:href="#g" x="21.784" y="73.004"/><path fill="#FFF" stroke="#000" stroke-miterlimit="10" stroke-width=".399" d="M48.066 37.727c0-5.707-4.629-10.336-10.34-10.336-5.71 0-10.34 4.629-10.34 10.336 0 5.71 4.63 10.34 10.34 10.34 5.712 0 10.34-4.63 10.34-10.34Zm0 0"/><use xlink:href="#h" x="34.801" y="41.579"/><use xlink:href="#i" x="60.048" y="146.755"/><use xlink:href="#j" x="64.601" y="146.755"/><use xlink:href="#k" x="73.706" y="146.755"/><path fill="none" stroke="#000" stroke-miterlimit="10" stroke-width=".399" d="M210.887 24.71 179.46 37.728M242.313 37.727l13.015 31.425"/><path fill="none" stroke="red" stroke-miterlimit="10" stroke-width=".399" d="M242.313 100.578H179.46M210.887 113.594l-44.442-44.442"/><path fill="#FFF" stroke="#000" stroke-miterlimit="10" stroke-width=".399" d="M221.223 24.71c0-5.71-4.625-10.339-10.336-10.339s-10.34 4.629-10.34 10.34c0 5.71 4.629 10.34 10.34 10.34 5.71 0 10.336-4.63 10.336-10.34Zm0 0"/><use xlink:href="#a" x="207.958" y="28.564"/><path fill="#FFF" stroke="#000" stroke-miterlimit="10" stroke-width=".399" d="M252.648 37.727c0-5.707-4.628-10.336-10.335-10.336-5.711 0-10.34 4.629-10.34 10.336 0 5.71 4.629 10.34 10.34 10.34 5.707 0 10.335-4.63 10.335-10.34Zm0 0"/><use xlink:href="#b" x="239.383" y="41.58"/><path fill="#FFF" stroke="#000" stroke-miterlimit="10" stroke-width=".399" d="M265.668 69.152c0-5.707-4.629-10.336-10.34-10.336-5.71 0-10.34 4.63-10.34 10.336 0 5.711 4.63 10.34 10.34 10.34 5.711 0 10.34-4.629 10.34-10.34Zm0 0"/><use xlink:href="#c" x="252.4" y="73.005"/><path fill="#FFF" stroke="#000" stroke-miterlimit="10" stroke-width=".399" d="M252.648 100.578c0-5.71-4.628-10.336-10.335-10.336-5.711 0-10.34 4.625-10.34 10.336s4.629 10.34 10.34 10.34c5.707 0 10.335-4.629 10.335-10.34Zm0 0"/><use xlink:href="#d" x="239.383" y="104.431"/><path fill="#FFF" stroke="#000" stroke-miterlimit="10" stroke-width=".399" d="M221.223 113.594c0-5.707-4.625-10.336-10.336-10.336s-10.34 4.629-10.34 10.336c0 5.71 4.629 10.34 10.34 10.34 5.71 0 10.336-4.63 10.336-10.34Zm0 0"/><use xlink:href="#e" x="207.958" y="117.447"/><path fill="#FFF" stroke="#000" stroke-miterlimit="10" stroke-width=".399" d="M189.797 100.578c0-5.71-4.625-10.336-10.336-10.336s-10.34 4.625-10.34 10.336 4.629 10.34 10.34 10.34c5.71 0 10.336-4.629 10.336-10.34Zm0 0"/><use xlink:href="#f" x="176.533" y="104.431"/><path fill="#FFF" stroke="#000" stroke-miterlimit="10" stroke-width=".399" d="M176.781 69.152c0-5.707-4.629-10.336-10.336-10.336-5.71 0-10.34 4.63-10.34 10.336 0 5.711 4.63 10.34 10.34 10.34 5.707 0 10.336-4.629 10.336-10.34Zm0 0"/><use xlink:href="#g" x="163.516" y="73.004"/><path fill="#FFF" stroke="#000" stroke-miterlimit="10" stroke-width=".399" d="M189.797 37.727c0-5.707-4.625-10.336-10.336-10.336s-10.34 4.629-10.34 10.336c0 5.71 4.629 10.34 10.34 10.34 5.71 0 10.336-4.63 10.336-10.34Zm0 0"/><use xlink:href="#h" x="176.533" y="41.579"/><use xlink:href="#i" x="201.945" y="146.755"/><use xlink:href="#l" x="206.498" y="146.755"/><use xlink:href="#k" x="215.273" y="146.755"/></svg>