<svg xmlns="http://www.w3.org/2000/svg" xmlns:xlink="http://www.w3.org/1999/xlink" width="313.9" height="209.666"><defs><path id="a" d="M4.578-11c0-.36-.016-.375-.25-.375-.672.797-1.687 1.063-2.656 1.094-.047 0-.14 0-.156.031-.016.047-.016.078-.016.438.531 0 1.422-.11 2.11-.516v9.078c0 .594-.032.797-1.516.797h-.516V0a135.04 135.04 0 0 1 2.516-.031c.828 0 1.687.015 2.515.031v-.453h-.515c-1.485 0-1.516-.188-1.516-.797Zm0 0"/><path id="b" d="M7.188-2.672h-.313c-.172 1.219-.313 1.438-.39 1.531C6.405-1 5.171-1 4.921-1H1.625c.61-.672 1.813-1.89 3.281-3.313 1.047-.984 2.282-2.156 2.282-3.859 0-2.031-1.625-3.203-3.438-3.203-1.89 0-3.047 1.656-3.047 3.219 0 .672.5.75.703.75.172 0 .688-.094.688-.703 0-.532-.438-.688-.688-.688a.673.673 0 0 0-.265.047c.328-1.453 1.328-2.188 2.375-2.188 1.5 0 2.468 1.188 2.468 2.766 0 1.485-.875 2.781-1.859 3.906L.703-.39V0h6.063Zm0 0"/><path id="c" d="M3.813-5.86c1.53 0 2.203 1.329 2.203 2.86 0 2.063-1.11 2.86-2.11 2.86-.906 0-2.39-.438-2.86-1.766a.774.774 0 0 0 .266.031c.407 0 .72-.281.72-.719 0-.5-.376-.734-.72-.734-.296 0-.75.14-.75.781C.563-.969 2.125.281 3.938.281c1.922 0 3.376-1.5 3.376-3.265 0-1.672-1.375-2.875-3-3.063 1.296-.266 2.562-1.437 2.562-3.016 0-1.343-1.36-2.312-2.922-2.312s-2.937.953-2.937 2.328c0 .61.453.719.671.719.36 0 .672-.235.672-.672 0-.453-.312-.672-.671-.672-.063 0-.157 0-.22.031.5-1.14 1.86-1.343 2.454-1.343.61 0 1.75.296 1.75 1.937 0 .485-.078 1.344-.656 2.11-.516.671-1.11.703-1.672.75-.094 0-.485.046-.547.046-.125.016-.203.032-.203.157 0 .109.031.125.375.125Zm0 0"/><path id="d" d="M5.781-11.14c0-.36-.015-.376-.328-.376L.343-3.375v.453h4.438v1.688c0 .609-.031.78-1.234.78h-.328V0c.547-.031 1.484-.031 2.062-.031.594 0 1.516 0 2.078.031v-.453h-.328c-1.218 0-1.25-.172-1.25-.781v-1.688h1.766v-.453H5.78ZM4.844-10v6.625H.687Zm0 0"/><path id="e" d="M1.969-10.078c.172.078.875.297 1.593.297 1.61 0 2.485-.86 2.985-1.36 0-.14 0-.218-.11-.218-.015 0-.046 0-.187.062a5.233 5.233 0 0 1-4.297.016c-.203-.078-.234-.078-.25-.078-.078 0-.11.015-.11.359v4.984c0 .313 0 .407.188.407.078 0 .11-.032.203-.157.547-.78 1.297-1.109 2.172-1.109.594 0 1.89.39 1.89 3.328 0 .547 0 1.547-.515 2.344C5.094-.5 4.421-.141 3.688-.141c-1.141 0-2.297-.796-2.61-2.109.078.016.219.047.281.047.22 0 .657-.125.657-.656 0-.47-.329-.657-.657-.657-.39 0-.656.25-.656.72C.703-1.297 1.891.28 3.72.28 5.5.281 7.188-1.25 7.188-3.484c0-2.063-1.344-3.657-3.016-3.657-.89 0-1.625.329-2.203.938Zm0 0"/><path id="f" d="M1.828-5.938c0-4.125 1.922-5.046 3.047-5.046.36 0 1.234.062 1.578.734-.266 0-.781 0-.781.61 0 .468.375.624.61.624.155 0 .624-.078.624-.656 0-1.094-.86-1.703-2.047-1.703-2.046 0-4.203 2.125-4.203 5.938C.656-.75 2.594.28 3.984.28c1.657 0 3.25-1.5 3.25-3.812 0-2.156-1.39-3.719-3.156-3.719-1.047 0-1.828.688-2.25 1.89ZM3.984-.14C1.86-.14 1.86-3.312 1.86-3.937c0-1.25.579-3.032 2.188-3.032.297 0 1.14 0 1.703 1.188.313.672.313 1.375.313 2.234 0 .922 0 1.625-.36 2.313-.375.703-.937 1.093-1.719 1.093Zm0 0"/><path id="g" d="M7.766-10.734v-.375H3.719c-2.016 0-2.047-.22-2.125-.547h-.297l-.5 3.219h.312c.047-.329.172-1.204.375-1.532.094-.14 1.375-.14 1.672-.14h3.781L5.032-7.266c-1.281 1.907-2.156 4.5-2.156 6.75 0 .204 0 .797.625.797.61 0 .61-.594.61-.812v-.797c0-2.828.484-4.688 1.28-5.875Zm0 0"/><path id="h" d="M4.688-6.203c1.078-.547 2.187-1.375 2.187-2.703 0-1.563-1.516-2.469-2.922-2.469-1.562 0-2.937 1.125-2.937 2.703 0 .422.109 1.172.78 1.813.173.171.891.687 1.36 1.015C2.375-5.437.562-4.5.562-2.594.563-.828 2.25.281 3.922.281c1.844 0 3.39-1.328 3.39-3.094 0-1.562-1.046-2.28-1.734-2.75ZM2.421-7.72c-.125-.078-.828-.61-.828-1.422 0-1.046 1.093-1.843 2.328-1.843 1.36 0 2.36.968 2.36 2.078 0 1.61-1.782 2.515-1.876 2.515-.015 0-.031 0-.172-.093Zm3.172 3.532c.265.187 1.093.765 1.093 1.812 0 1.266-1.28 2.234-2.734 2.234-1.562 0-2.75-1.109-2.75-2.484 0-1.36 1.047-2.484 2.234-3.016Zm0 0"/><path id="i" d="M5.266 4.203c0-.016 0-.047-.047-.11-.797-.812-2.907-3.015-2.907-8.374 0-5.375 2.079-7.563 2.922-8.422 0-.016.032-.063.032-.11 0-.046-.047-.078-.125-.078-.188 0-1.641 1.266-2.485 3.157-.86 1.921-1.11 3.78-1.11 5.421 0 1.25.126 3.344 1.157 5.563.828 1.797 2.235 3.063 2.438 3.063.093 0 .125-.047.125-.11Zm0 0"/><path id="j" d="M11.594-5.86c0-3.53-2.531-6.171-5.39-6.171-2.938 0-5.407 2.687-5.407 6.172 0 3.5 2.515 6.14 5.39 6.14 2.938 0 5.407-2.687 5.407-6.14ZM6.204-.03c-1.97 0-4.11-1.969-4.11-6.047 0-4.063 2.344-5.64 4.094-5.64 1.812 0 4.093 1.624 4.093 5.64 0 4.156-2.187 6.047-4.078 6.047Zm0 0"/><path id="k" d="M4.531-4.281c0-1.25-.125-3.344-1.156-5.563C2.547-11.64 1.141-12.89.937-12.89c-.062 0-.125.016-.125.094 0 .031.016.063.032.094.828.86 2.922 3.047 2.922 8.39 0 5.375-2.079 7.563-2.922 8.422-.016.047-.031.063-.031.094 0 .078.062.11.125.11.187 0 1.64-1.282 2.484-3.172.86-1.922 1.11-3.782 1.11-5.422Zm0 0"/><path id="l" d="m6.281-6.531 2.547-3.657c.266-.374.781-1.109 2.188-1.124v-.454c-.391.047-1.047.047-1.454.047-.578 0-1.28 0-1.703-.047v.454c.547.046.688.39.688.671 0 .204-.094.344-.219.516L6.063-6.828l-2.547-3.734c-.125-.188-.141-.235-.141-.282 0-.156.188-.453.75-.469v-.453c-.547.047-1.39.047-1.953.047-.453 0-1.313 0-1.719-.047v.454c.938 0 1.25.03 1.625.562l3.328 4.86-3 4.359C1.672-.47.546-.453.22-.453V0C.625-.031 1.28-.031 1.687-.031c.47 0 1.282 0 1.704.031v-.453c-.532-.047-.688-.39-.688-.672 0-.219.094-.344.172-.453l2.75-4 3 4.375c.14.187.14.234.14.297 0 .125-.156.422-.765.453V0c.563-.031 1.406-.031 1.969-.031.453 0 1.312 0 1.719.031v-.453c-1.094 0-1.266-.078-1.61-.563Zm0 0"/></defs><path fill="none" stroke="#000" stroke-miterlimit="10" stroke-width=".399" d="M80.414 28.566 43.75 43.754M117.078 43.754l15.188 36.66M117.078 117.078 28.566 80.414M80.414 132.266 43.75 117.078"/><path fill="#FFF" stroke="#000" stroke-miterlimit="10" stroke-width=".399" d="M94.61 28.566c0-7.84-6.356-14.195-14.196-14.195s-14.191 6.356-14.191 14.195c0 7.84 6.351 14.196 14.191 14.196 7.84 0 14.195-6.356 14.195-14.196Zm0 0"/><use xlink:href="#a" x="76.467" y="34.115"/><path fill="#FFF" stroke="#000" stroke-miterlimit="10" stroke-width=".399" d="M131.273 43.754c0-7.84-6.355-14.195-14.195-14.195s-14.195 6.355-14.195 14.195c0 7.836 6.355 14.191 14.195 14.191s14.195-6.355 14.195-14.191Zm0 0"/><use xlink:href="#b" x="113.13" y="49.301"/><path fill="#FFF" stroke="#000" stroke-miterlimit="10" stroke-width=".399" d="M146.457 80.414c0-7.836-6.355-14.191-14.191-14.191-7.84 0-14.196 6.355-14.196 14.191 0 7.84 6.356 14.195 14.196 14.195 7.836 0 14.191-6.355 14.191-14.195Zm0 0"/><use xlink:href="#c" x="128.316" y="85.963"/><path fill="#FFF" stroke="#000" stroke-miterlimit="10" stroke-width=".399" d="M131.273 117.078c0-7.84-6.355-14.195-14.195-14.195s-14.195 6.355-14.195 14.195 6.355 14.195 14.195 14.195 14.195-6.355 14.195-14.195Zm0 0"/><use xlink:href="#d" x="113.13" y="122.626"/><path fill="#FFF" stroke="#000" stroke-miterlimit="10" stroke-width=".399" d="M94.61 132.266c0-7.84-6.356-14.196-14.196-14.196s-14.191 6.356-14.191 14.196 6.351 14.191 14.191 14.191c7.84 0 14.195-6.352 14.195-14.191Zm0 0"/><use xlink:href="#e" x="76.467" y="137.812"/><path fill="#FFF" stroke="#000" stroke-miterlimit="10" stroke-width=".399" d="M57.945 117.078c0-7.84-6.355-14.195-14.195-14.195-7.836 0-14.191 6.355-14.191 14.195s6.355 14.195 14.191 14.195c7.84 0 14.195-6.355 14.195-14.195Zm0 0"/><use xlink:href="#f" x="39.804" y="122.626"/><path fill="#FFF" stroke="#000" stroke-miterlimit="10" stroke-width=".399" d="M42.758 80.414c0-7.836-6.352-14.191-14.192-14.191s-14.195 6.355-14.195 14.191c0 7.84 6.356 14.195 14.195 14.195 7.84 0 14.192-6.355 14.192-14.195Zm0 0"/><use xlink:href="#g" x="24.618" y="85.963"/><path fill="#FFF" stroke="#000" stroke-miterlimit="10" stroke-width=".399" d="M57.945 43.754c0-7.84-6.355-14.195-14.195-14.195-7.836 0-14.191 6.355-14.191 14.195 0 7.836 6.355 14.191 14.191 14.191 7.84 0 14.195-6.355 14.195-14.191Zm0 0"/><use xlink:href="#h" x="39.804" y="49.301"/><use xlink:href="#i" x="68.122" y="185.94"/><use xlink:href="#j" x="74.218" y="185.94"/><use xlink:href="#k" x="86.61" y="185.94"/><path fill="none" stroke="#000" stroke-miterlimit="10" stroke-width=".399" d="m233.488 28.566-36.664 15.188M270.152 43.754l15.184 36.66"/><path fill="none" stroke="red" stroke-miterlimit="10" stroke-width=".399" d="M270.152 117.078c-14.3-24.766-59.03-24.766-73.328 0"/><path fill="none" stroke="red" stroke-miterlimit="10" stroke-width=".399" d="M233.488 132.266c0-28.711-23.14-51.852-51.851-51.852"/><path fill="#FFF" stroke="#000" stroke-miterlimit="10" stroke-width=".399" d="M247.68 28.566c0-7.84-6.352-14.195-14.192-14.195s-14.195 6.356-14.195 14.195c0 7.84 6.355 14.196 14.195 14.196s14.192-6.356 14.192-14.196Zm0 0"/><use xlink:href="#a" x="229.538" y="34.115"/><path fill="#FFF" stroke="#000" stroke-miterlimit="10" stroke-width=".399" d="M284.344 43.754c0-7.84-6.356-14.195-14.192-14.195-7.84 0-14.195 6.355-14.195 14.195 0 7.836 6.356 14.191 14.195 14.191 7.836 0 14.192-6.355 14.192-14.191Zm0 0"/><use xlink:href="#b" x="266.201" y="49.301"/><path fill="#FFF" stroke="#000" stroke-miterlimit="10" stroke-width=".399" d="M299.531 80.414c0-7.836-6.355-14.191-14.195-14.191s-14.191 6.355-14.191 14.191c0 7.84 6.351 14.195 14.19 14.195 7.84 0 14.196-6.355 14.196-14.195Zm0 0"/><use xlink:href="#c" x="281.387" y="85.963"/><path fill="#FFF" stroke="#000" stroke-miterlimit="10" stroke-width=".399" d="M284.344 117.078c0-7.84-6.356-14.195-14.192-14.195-7.84 0-14.195 6.355-14.195 14.195s6.356 14.195 14.195 14.195c7.836 0 14.192-6.355 14.192-14.195Zm0 0"/><use xlink:href="#d" x="266.201" y="122.626"/><path fill="#FFF" stroke="#000" stroke-miterlimit="10" stroke-width=".399" d="M247.68 132.266c0-7.84-6.352-14.196-14.192-14.196s-14.195 6.356-14.195 14.196 6.355 14.191 14.195 14.191 14.192-6.352 14.192-14.191Zm0 0"/><use xlink:href="#e" x="229.538" y="137.812"/><path fill="#FFF" stroke="#000" stroke-miterlimit="10" stroke-width=".399" d="M211.02 117.078c0-7.84-6.356-14.195-14.196-14.195s-14.195 6.355-14.195 14.195 6.355 14.195 14.195 14.195 14.196-6.355 14.196-14.195Zm0 0"/><use xlink:href="#f" x="192.875" y="122.626"/><path fill="#FFF" stroke="#000" stroke-miterlimit="10" stroke-width=".399" d="M195.832 80.414c0-7.836-6.355-14.191-14.195-14.191-7.836 0-14.192 6.355-14.192 14.191 0 7.84 6.356 14.195 14.192 14.195 7.84 0 14.195-6.355 14.195-14.195Zm0 0"/><use xlink:href="#g" x="177.689" y="85.963"/><path fill="#FFF" stroke="#000" stroke-miterlimit="10" stroke-width=".399" d="M211.02 43.754c0-7.84-6.356-14.195-14.196-14.195s-14.195 6.355-14.195 14.195c0 7.836 6.355 14.191 14.195 14.191s14.196-6.355 14.196-14.191Zm0 0"/><use xlink:href="#h" x="192.875" y="49.301"/><use xlink:href="#i" x="221.421" y="185.94"/><use xlink:href="#l" x="227.517" y="185.94"/><use xlink:href="#k" x="239.452" y="185.94"/></svg>