<svg xmlns="http://www.w3.org/2000/svg" xmlns:xlink="http://www.w3.org/1999/xlink" width="620.042" height="160.829"><defs><clipPath id="a"><path d="M0 0h527v160.828H0Zm0 0"/></clipPath><clipPath id="b"><path d="M0 0h512v160.828H0Zm0 0"/></clipPath><clipPath id="c"><path d="M0 0h475v160.828H0Zm0 0"/></clipPath><clipPath id="d"><path d="M0 0h439v160.828H0Zm0 0"/></clipPath><clipPath id="e"><path d="M0 0h527v160.828H0Zm0 0"/></clipPath><clipPath id="f"><path d="M0 0h620.043v160.828H0Zm0 0"/></clipPath><clipPath id="g"><path d="M0 0h592v160.828H0Zm0 0"/></clipPath><clipPath id="h"><path d="M0 0h620.043v160.828H0Zm0 0"/></clipPath><clipPath id="i"><path d="M0 0h620.043v160.828H0Zm0 0"/></clipPath><clipPath id="j"><path d="M28 0h592.043v160.828H28Zm0 0"/></clipPath><clipPath id="k"><path d="M0 0h620.043v160.828H0Zm0 0"/></clipPath><clipPath id="l"><path d="M0 0h620.043v160.828H0Zm0 0"/></clipPath><clipPath id="m"><path d="M181 0h439.043v160.828H181Zm0 0"/></clipPath><clipPath id="n"><path d="M145 0h475.043v160.828H145Zm0 0"/></clipPath><clipPath id="o"><path d="M108 0h512.043v160.828H108Zm0 0"/></clipPath><clipPath id="p"><path d="M93 0h527.043v160.828H93Zm0 0"/></clipPath><path id="q" d="M4.578-11c0-.36-.016-.375-.25-.375-.672.797-1.687 1.063-2.656 1.094-.047 0-.14 0-.156.031-.016.047-.016.078-.016.438.531 0 1.422-.11 2.11-.516v9.078c0 .594-.032.797-1.516.797h-.516V0a135.04 135.04 0 0 1 2.516-.031c.828 0 1.687.015 2.515.031v-.453h-.515c-1.485 0-1.516-.188-1.516-.797Zm0 0"/><path id="r" d="M7.188-2.672h-.313c-.172 1.219-.313 1.438-.39 1.531C6.405-1 5.171-1 4.921-1H1.625c.61-.672 1.813-1.89 3.281-3.313 1.047-.984 2.282-2.156 2.282-3.859 0-2.031-1.625-3.203-3.438-3.203-1.89 0-3.047 1.656-3.047 3.219 0 .672.5.75.703.75.172 0 .688-.094.688-.703 0-.532-.438-.688-.688-.688a.673.673 0 0 0-.265.047c.328-1.453 1.328-2.188 2.375-2.188 1.5 0 2.468 1.188 2.468 2.766 0 1.485-.875 2.781-1.859 3.906L.703-.39V0h6.063Zm0 0"/><path id="s" d="M3.813-5.86c1.53 0 2.203 1.329 2.203 2.86 0 2.063-1.11 2.86-2.11 2.86-.906 0-2.39-.438-2.86-1.766a.774.774 0 0 0 .266.031c.407 0 .72-.281.72-.719 0-.5-.376-.734-.72-.734-.296 0-.75.14-.75.781C.563-.969 2.125.281 3.938.281c1.922 0 3.376-1.5 3.376-3.265 0-1.672-1.375-2.875-3-3.063 1.296-.266 2.562-1.437 2.562-3.016 0-1.343-1.36-2.312-2.922-2.312s-2.937.953-2.937 2.328c0 .61.453.719.671.719.36 0 .672-.235.672-.672 0-.453-.312-.672-.671-.672-.063 0-.157 0-.22.031.5-1.14 1.86-1.343 2.454-1.343.61 0 1.75.296 1.75 1.937 0 .485-.078 1.344-.656 2.11-.516.671-1.11.703-1.672.75-.094 0-.485.046-.547.046-.125.016-.203.032-.203.157 0 .109.031.125.375.125Zm0 0"/><path id="t" d="M5.781-11.14c0-.36-.015-.376-.328-.376L.343-3.375v.453h4.438v1.688c0 .609-.031.78-1.234.78h-.328V0c.547-.031 1.484-.031 2.062-.031.594 0 1.516 0 2.078.031v-.453h-.328c-1.218 0-1.25-.172-1.25-.781v-1.688h1.766v-.453H5.78ZM4.844-10v6.625H.687Zm0 0"/><path id="u" d="M1.969-10.078c.172.078.875.297 1.593.297 1.61 0 2.485-.86 2.985-1.36 0-.14 0-.218-.11-.218-.015 0-.046 0-.187.062a5.233 5.233 0 0 1-4.297.016c-.203-.078-.234-.078-.25-.078-.078 0-.11.015-.11.359v4.984c0 .313 0 .407.188.407.078 0 .11-.032.203-.157.547-.78 1.297-1.109 2.172-1.109.594 0 1.89.39 1.89 3.328 0 .547 0 1.547-.515 2.344C5.094-.5 4.421-.141 3.688-.141c-1.141 0-2.297-.796-2.61-2.109.078.016.219.047.281.047.22 0 .657-.125.657-.656 0-.47-.329-.657-.657-.657-.39 0-.656.25-.656.72C.703-1.297 1.891.28 3.72.28 5.5.281 7.188-1.25 7.188-3.484c0-2.063-1.344-3.657-3.016-3.657-.89 0-1.625.329-2.203.938Zm0 0"/><path id="v" d="M1.828-5.938c0-4.125 1.922-5.046 3.047-5.046.36 0 1.234.062 1.578.734-.266 0-.781 0-.781.61 0 .468.375.624.61.624.155 0 .624-.078.624-.656 0-1.094-.86-1.703-2.047-1.703-2.046 0-4.203 2.125-4.203 5.938C.656-.75 2.594.28 3.984.28c1.657 0 3.25-1.5 3.25-3.812 0-2.156-1.39-3.719-3.156-3.719-1.047 0-1.828.688-2.25 1.89ZM3.984-.14C1.86-.14 1.86-3.312 1.86-3.937c0-1.25.579-3.032 2.188-3.032.297 0 1.14 0 1.703 1.188.313.672.313 1.375.313 2.234 0 .922 0 1.625-.36 2.313-.375.703-.937 1.093-1.719 1.093Zm0 0"/><path id="w" d="M7.766-10.734v-.375H3.719c-2.016 0-2.047-.22-2.125-.547h-.297l-.5 3.219h.312c.047-.329.172-1.204.375-1.532.094-.14 1.375-.14 1.672-.14h3.781L5.032-7.266c-1.281 1.907-2.156 4.5-2.156 6.75 0 .204 0 .797.625.797.61 0 .61-.594.61-.812v-.797c0-2.828.484-4.688 1.28-5.875Zm0 0"/><path id="x" d="M4.688-6.203c1.078-.547 2.187-1.375 2.187-2.703 0-1.563-1.516-2.469-2.922-2.469-1.562 0-2.937 1.125-2.937 2.703 0 .422.109 1.172.78 1.813.173.171.891.687 1.36 1.015C2.375-5.437.562-4.5.562-2.594.563-.828 2.25.281 3.922.281c1.844 0 3.39-1.328 3.39-3.094 0-1.562-1.046-2.28-1.734-2.75ZM2.421-7.72c-.125-.078-.828-.61-.828-1.422 0-1.046 1.093-1.843 2.328-1.843 1.36 0 2.36.968 2.36 2.078 0 1.61-1.782 2.515-1.876 2.515-.015 0-.031 0-.172-.093Zm3.172 3.532c.265.187 1.093.765 1.093 1.812 0 1.266-1.28 2.234-2.734 2.234-1.562 0-2.75-1.109-2.75-2.484 0-1.36 1.047-2.484 2.234-3.016Zm0 0"/></defs><path fill="none" stroke="#000" stroke-miterlimit="10" stroke-width=".399" d="m80.414 28.566 36.664 15.188"/><g clip-path="url(#a)"><path fill="none" stroke="#DFDFDF" stroke-linecap="round" stroke-miterlimit="10" stroke-width="27.896" d="m132.266 80.414-15.188 36.664"/></g><g clip-path="url(#b)"><path fill="none" stroke="#DFDFDF" stroke-linecap="round" stroke-miterlimit="10" stroke-width="27.896" d="m117.078 117.078-36.664 15.188"/></g><g clip-path="url(#c)"><path fill="none" stroke="#DFDFDF" stroke-linecap="round" stroke-miterlimit="10" stroke-width="27.896" d="M80.414 132.266 43.75 117.078"/></g><g fill="none" stroke="#DFDFDF" stroke-linecap="round" stroke-miterlimit="10" stroke-width="27.896" clip-path="url(#d)"><path d="M43.75 117.078 28.566 80.414M28.566 80.414l15.184-36.66"/></g><g clip-path="url(#e)"><path fill="none" stroke="#DFDFDF" stroke-linecap="round" stroke-miterlimit="10" stroke-width="27.896" d="m43.75 43.754 88.516 36.66"/></g><path fill="#DFDFDF" stroke="#DFDFDF" stroke-miterlimit="10" stroke-width=".399" d="m132.266 80.414-15.188 36.664-36.664 15.188-36.664-15.188-15.184-36.664 15.184-36.66Zm0 0"/><path fill="none" stroke="#000" stroke-miterlimit="10" stroke-width=".399" d="m233.488 28.566 36.664 88.512"/><g clip-path="url(#f)"><path fill="none" stroke="#DFDFDF" stroke-linecap="round" stroke-miterlimit="10" stroke-width="27.896" d="m233.488 132.266-36.664-15.188"/></g><g fill="none" stroke="#DFDFDF" stroke-linecap="round" stroke-miterlimit="10" stroke-width="27.896" clip-path="url(#g)"><path d="m196.824 117.078-15.187-36.664M181.637 80.414l15.187-36.66"/></g><g clip-path="url(#h)"><path fill="none" stroke="#DFDFDF" stroke-linecap="round" stroke-miterlimit="10" stroke-width="27.896" d="m196.824 43.754 36.664 88.512"/></g><path fill="#DFDFDF" stroke="#DFDFDF" stroke-miterlimit="10" stroke-width=".399" d="m233.488 132.266-36.664-15.188-15.187-36.664 15.187-36.66Zm0 0"/><g clip-path="url(#i)"><path fill="none" stroke="#DFDFDF" stroke-linecap="round" stroke-miterlimit="10" stroke-width="27.896" d="m270.152 43.754 15.184 36.66"/></g><path fill="none" stroke="#000" stroke-miterlimit="10" stroke-width=".399" d="m386.563 28.566-36.665 88.512"/><g fill="none" stroke="#DFDFDF" stroke-linecap="round" stroke-miterlimit="10" stroke-width="27.896" clip-path="url(#j)"><path d="m423.223 43.754 15.187 36.66M438.41 80.414l-15.187 36.664"/></g><g fill="none" stroke="#DFDFDF" stroke-linecap="round" stroke-miterlimit="10" stroke-width="27.896" clip-path="url(#k)"><path d="m423.223 117.078-36.66 15.188M386.563 132.266l36.66-88.512"/></g><path fill="#DFDFDF" stroke="#DFDFDF" stroke-miterlimit="10" stroke-width=".399" d="m423.223 43.754 15.187 36.66-15.187 36.664-36.66 15.188Zm0 0"/><g clip-path="url(#l)"><path fill="none" stroke="#DFDFDF" stroke-linecap="round" stroke-miterlimit="10" stroke-width="27.896" d="m334.71 80.414 15.188-36.66"/></g><path fill="none" stroke="#000" stroke-miterlimit="10" stroke-width=".399" d="m539.633 28.566-36.664 15.188"/><g fill="none" stroke="#DFDFDF" stroke-linecap="round" stroke-miterlimit="10" stroke-width="27.896" clip-path="url(#m)"><path d="m576.297 43.754 15.187 36.66M591.484 80.414l-15.187 36.664"/></g><g clip-path="url(#n)"><path fill="none" stroke="#DFDFDF" stroke-linecap="round" stroke-miterlimit="10" stroke-width="27.896" d="m576.297 117.078-36.664 15.188"/></g><g clip-path="url(#o)"><path fill="none" stroke="#DFDFDF" stroke-linecap="round" stroke-miterlimit="10" stroke-width="27.896" d="m539.633 132.266-36.664-15.188"/></g><g fill="none" stroke="#DFDFDF" stroke-linecap="round" stroke-miterlimit="10" stroke-width="27.896" clip-path="url(#p)"><path d="m502.969 117.078-15.184-36.664M487.785 80.414l88.512-36.66"/></g><path fill="#DFDFDF" stroke="#DFDFDF" stroke-miterlimit="10" stroke-width=".399" d="m576.297 43.754 15.187 36.66-15.187 36.664-36.664 15.188-36.664-15.188-15.184-36.664Zm0 0"/><path fill="#FFF" stroke="#000" stroke-miterlimit="10" stroke-width=".399" d="M94.61 28.566c0-7.84-6.356-14.195-14.196-14.195s-14.191 6.356-14.191 14.195c0 7.84 6.351 14.196 14.191 14.196 7.84 0 14.195-6.356 14.195-14.196Zm0 0"/><use xlink:href="#q" x="76.467" y="34.114"/><path fill="#FFF" stroke="#000" stroke-miterlimit="10" stroke-width=".399" d="M131.273 43.754c0-7.84-6.355-14.195-14.195-14.195s-14.195 6.355-14.195 14.195c0 7.836 6.355 14.191 14.195 14.191s14.195-6.355 14.195-14.191Zm0 0"/><use xlink:href="#r" x="113.13" y="49.3"/><path fill="#FFF" stroke="#000" stroke-miterlimit="10" stroke-width=".399" d="M146.457 80.414c0-7.836-6.355-14.191-14.191-14.191-7.84 0-14.196 6.355-14.196 14.191 0 7.84 6.356 14.195 14.196 14.195 7.836 0 14.191-6.355 14.191-14.195Zm0 0"/><use xlink:href="#s" x="128.316" y="85.963"/><path fill="#FFF" stroke="#000" stroke-miterlimit="10" stroke-width=".399" d="M131.273 117.078c0-7.84-6.355-14.195-14.195-14.195s-14.195 6.355-14.195 14.195 6.355 14.195 14.195 14.195 14.195-6.355 14.195-14.195Zm0 0"/><use xlink:href="#t" x="113.13" y="122.626"/><path fill="#FFF" stroke="#000" stroke-miterlimit="10" stroke-width=".399" d="M94.61 132.266c0-7.84-6.356-14.196-14.196-14.196s-14.191 6.356-14.191 14.196 6.351 14.191 14.191 14.191c7.84 0 14.195-6.352 14.195-14.191Zm0 0"/><use xlink:href="#u" x="76.467" y="137.812"/><path fill="#FFF" stroke="#000" stroke-miterlimit="10" stroke-width=".399" d="M57.945 117.078c0-7.84-6.355-14.195-14.195-14.195-7.836 0-14.191 6.355-14.191 14.195s6.355 14.195 14.191 14.195c7.84 0 14.195-6.355 14.195-14.195Zm0 0"/><use xlink:href="#v" x="39.804" y="122.626"/><path fill="#FFF" stroke="#000" stroke-miterlimit="10" stroke-width=".399" d="M42.758 80.414c0-7.836-6.352-14.191-14.192-14.191s-14.195 6.355-14.195 14.191c0 7.84 6.356 14.195 14.195 14.195 7.84 0 14.192-6.355 14.192-14.195Zm0 0"/><use xlink:href="#w" x="24.618" y="85.963"/><path fill="#FFF" stroke="#000" stroke-miterlimit="10" stroke-width=".399" d="M57.945 43.754c0-7.84-6.355-14.195-14.195-14.195-7.836 0-14.191 6.355-14.191 14.195 0 7.836 6.355 14.191 14.191 14.191 7.84 0 14.195-6.355 14.195-14.191Zm0 0"/><use xlink:href="#x" x="39.804" y="49.3"/><path fill="#FFF" stroke="#000" stroke-miterlimit="10" stroke-width=".399" d="M247.68 28.566c0-7.84-6.352-14.195-14.192-14.195s-14.195 6.356-14.195 14.195c0 7.84 6.355 14.196 14.195 14.196s14.192-6.356 14.192-14.196Zm0 0"/><use xlink:href="#q" x="229.538" y="34.114"/><path fill="#FFF" stroke="#000" stroke-miterlimit="10" stroke-width=".399" d="M284.344 43.754c0-7.84-6.356-14.195-14.192-14.195-7.84 0-14.195 6.355-14.195 14.195 0 7.836 6.356 14.191 14.195 14.191 7.836 0 14.192-6.355 14.192-14.191Zm0 0"/><use xlink:href="#r" x="266.201" y="49.3"/><path fill="#FFF" stroke="#000" stroke-miterlimit="10" stroke-width=".399" d="M299.531 80.414c0-7.836-6.355-14.191-14.195-14.191s-14.191 6.355-14.191 14.191c0 7.84 6.351 14.195 14.19 14.195 7.84 0 14.196-6.355 14.196-14.195Zm0 0"/><use xlink:href="#s" x="281.387" y="85.963"/><path fill="#FFF" stroke="#000" stroke-miterlimit="10" stroke-width=".399" d="M284.344 117.078c0-7.84-6.356-14.195-14.192-14.195-7.84 0-14.195 6.355-14.195 14.195s6.356 14.195 14.195 14.195c7.836 0 14.192-6.355 14.192-14.195Zm0 0"/><use xlink:href="#t" x="266.201" y="122.626"/><path fill="#FFF" stroke="#000" stroke-miterlimit="10" stroke-width=".399" d="M247.68 132.266c0-7.84-6.352-14.196-14.192-14.196s-14.195 6.356-14.195 14.196 6.355 14.191 14.195 14.191 14.192-6.352 14.192-14.191Zm0 0"/><use xlink:href="#u" x="229.538" y="137.812"/><path fill="#FFF" stroke="#000" stroke-miterlimit="10" stroke-width=".399" d="M211.02 117.078c0-7.84-6.356-14.195-14.196-14.195s-14.195 6.355-14.195 14.195 6.355 14.195 14.195 14.195 14.196-6.355 14.196-14.195Zm0 0"/><use xlink:href="#v" x="192.875" y="122.626"/><path fill="#FFF" stroke="#000" stroke-miterlimit="10" stroke-width=".399" d="M195.832 80.414c0-7.836-6.355-14.191-14.195-14.191-7.836 0-14.192 6.355-14.192 14.191 0 7.84 6.356 14.195 14.192 14.195 7.84 0 14.195-6.355 14.195-14.195Zm0 0"/><use xlink:href="#w" x="177.689" y="85.963"/><path fill="#FFF" stroke="#000" stroke-miterlimit="10" stroke-width=".399" d="M211.02 43.754c0-7.84-6.356-14.195-14.196-14.195s-14.195 6.355-14.195 14.195c0 7.836 6.355 14.191 14.195 14.191s14.196-6.355 14.196-14.191Zm0 0"/><use xlink:href="#x" x="192.875" y="49.3"/><path fill="#FFF" stroke="#000" stroke-miterlimit="10" stroke-width=".399" d="M400.754 28.566c0-7.84-6.356-14.195-14.192-14.195-7.84 0-14.195 6.356-14.195 14.195 0 7.84 6.356 14.196 14.195 14.196 7.836 0 14.192-6.356 14.192-14.196Zm0 0"/><use xlink:href="#q" x="382.609" y="34.114"/><path fill="#FFF" stroke="#000" stroke-miterlimit="10" stroke-width=".399" d="M437.418 43.754c0-7.84-6.356-14.195-14.195-14.195-7.84 0-14.192 6.355-14.192 14.195 0 7.836 6.352 14.191 14.192 14.191s14.195-6.355 14.195-14.191Zm0 0"/><use xlink:href="#r" x="419.272" y="49.3"/><path fill="#FFF" stroke="#000" stroke-miterlimit="10" stroke-width=".399" d="M452.605 80.414c0-7.836-6.355-14.191-14.195-14.191s-14.195 6.355-14.195 14.191c0 7.84 6.355 14.195 14.195 14.195s14.195-6.355 14.195-14.195Zm0 0"/><use xlink:href="#s" x="434.457" y="85.963"/><path fill="#FFF" stroke="#000" stroke-miterlimit="10" stroke-width=".399" d="M437.418 117.078c0-7.84-6.356-14.195-14.195-14.195-7.84 0-14.192 6.355-14.192 14.195s6.352 14.195 14.192 14.195 14.195-6.355 14.195-14.195Zm0 0"/><use xlink:href="#t" x="419.272" y="122.626"/><path fill="#FFF" stroke="#000" stroke-miterlimit="10" stroke-width=".399" d="M400.754 132.266c0-7.84-6.356-14.196-14.192-14.196-7.84 0-14.195 6.356-14.195 14.196s6.356 14.191 14.195 14.191c7.836 0 14.192-6.352 14.192-14.191Zm0 0"/><use xlink:href="#u" x="382.609" y="137.812"/><path fill="#FFF" stroke="#000" stroke-miterlimit="10" stroke-width=".399" d="M364.09 117.078c0-7.84-6.352-14.195-14.192-14.195s-14.195 6.355-14.195 14.195 6.356 14.195 14.195 14.195c7.84 0 14.192-6.355 14.192-14.195Zm0 0"/><use xlink:href="#v" x="345.946" y="122.626"/><path fill="#FFF" stroke="#000" stroke-miterlimit="10" stroke-width=".399" d="M348.906 80.414c0-7.836-6.355-14.191-14.195-14.191s-14.191 6.355-14.191 14.191c0 7.84 6.351 14.195 14.19 14.195 7.84 0 14.196-6.355 14.196-14.195Zm0 0"/><use xlink:href="#w" x="330.76" y="85.963"/><path fill="#FFF" stroke="#000" stroke-miterlimit="10" stroke-width=".399" d="M364.09 43.754c0-7.84-6.352-14.195-14.192-14.195s-14.195 6.355-14.195 14.195c0 7.836 6.356 14.191 14.195 14.191 7.84 0 14.192-6.355 14.192-14.191Zm0 0"/><use xlink:href="#x" x="345.946" y="49.3"/><path fill="#FFF" stroke="#000" stroke-miterlimit="10" stroke-width=".399" d="M553.828 28.566c0-7.84-6.355-14.195-14.195-14.195s-14.192 6.356-14.192 14.195c0 7.84 6.352 14.196 14.192 14.196s14.195-6.356 14.195-14.196Zm0 0"/><use xlink:href="#q" x="535.68" y="34.114"/><path fill="#FFF" stroke="#000" stroke-miterlimit="10" stroke-width=".399" d="M590.492 43.754c0-7.84-6.355-14.195-14.195-14.195s-14.195 6.355-14.195 14.195c0 7.836 6.355 14.191 14.195 14.191s14.195-6.355 14.195-14.191Zm0 0"/><use xlink:href="#r" x="572.342" y="49.3"/><path fill="#FFF" stroke="#000" stroke-miterlimit="10" stroke-width=".399" d="M605.676 80.414c0-7.836-6.356-14.191-14.192-14.191-7.84 0-14.195 6.355-14.195 14.191 0 7.84 6.356 14.195 14.195 14.195 7.836 0 14.192-6.355 14.192-14.195Zm0 0"/><use xlink:href="#s" x="587.528" y="85.963"/><path fill="#FFF" stroke="#000" stroke-miterlimit="10" stroke-width=".399" d="M590.492 117.078c0-7.84-6.355-14.195-14.195-14.195s-14.195 6.355-14.195 14.195 6.355 14.195 14.195 14.195 14.195-6.355 14.195-14.195Zm0 0"/><use xlink:href="#t" x="572.342" y="122.626"/><path fill="#FFF" stroke="#000" stroke-miterlimit="10" stroke-width=".399" d="M553.828 132.266c0-7.84-6.355-14.196-14.195-14.196s-14.192 6.356-14.192 14.196 6.352 14.191 14.192 14.191 14.195-6.352 14.195-14.191Zm0 0"/><use xlink:href="#u" x="535.68" y="137.812"/><path fill="#FFF" stroke="#000" stroke-miterlimit="10" stroke-width=".399" d="M517.164 117.078c0-7.84-6.355-14.195-14.195-14.195-7.836 0-14.192 6.355-14.192 14.195s6.356 14.195 14.192 14.195c7.84 0 14.195-6.355 14.195-14.195Zm0 0"/><use xlink:href="#v" x="499.017" y="122.626"/><path fill="#FFF" stroke="#000" stroke-miterlimit="10" stroke-width=".399" d="M501.977 80.414c0-7.836-6.352-14.191-14.192-14.191s-14.195 6.355-14.195 14.191c0 7.84 6.355 14.195 14.195 14.195s14.192-6.355 14.192-14.195Zm0 0"/><use xlink:href="#w" x="483.831" y="85.963"/><path fill="#FFF" stroke="#000" stroke-miterlimit="10" stroke-width=".399" d="M517.164 43.754c0-7.84-6.355-14.195-14.195-14.195-7.836 0-14.192 6.355-14.192 14.195 0 7.836 6.356 14.191 14.192 14.191 7.84 0 14.195-6.355 14.195-14.191Zm0 0"/><use xlink:href="#x" x="499.017" y="49.3"/></svg>