<svg xmlns="http://www.w3.org/2000/svg" xmlns:xlink="http://www.w3.org/1999/xlink" width="463.648" height="123.491"><defs><clipPath id="a"><path d="M0 0h381v123.492H0Zm0 0"/></clipPath><clipPath id="b"><path d="M0 0h370v123.492H0Zm0 0"/></clipPath><clipPath id="c"><path d="M0 0h344v123.492H0Zm0 0"/></clipPath><clipPath id="d"><path d="M0 0h318v123.492H0Zm0 0"/></clipPath><clipPath id="e"><path d="M0 0h381v123.492H0Zm0 0"/></clipPath><clipPath id="f"><path d="M0 0h457v123.492H0Zm0 0"/></clipPath><clipPath id="g"><path d="M0 0h431v123.492H0Zm0 0"/></clipPath><clipPath id="h"><path d="M0 0h457v123.492H0Zm0 0"/></clipPath><clipPath id="i"><path d="M32 0h431.648v123.492H32Zm0 0"/></clipPath><clipPath id="j"><path d="M6 0h457.648v123.492H6Zm0 0"/></clipPath><clipPath id="k"><path d="M146 0h317.648v123.492H146Zm0 0"/></clipPath><clipPath id="l"><path d="M120 0h343.648v123.492H120Zm0 0"/></clipPath><clipPath id="m"><path d="M93 0h370.648v123.492H93Zm0 0"/></clipPath><clipPath id="n"><path d="M83 0h380.648v123.492H83Zm0 0"/></clipPath><path id="o" d="M3.438-7.656c0-.282 0-.297-.235-.297-.281.328-.89.766-2.11.766v.343c.266 0 .86 0 1.532-.297v6.22c0 .437-.047.577-1.094.577h-.375V0c.328-.031 1.485-.031 1.875-.031.406 0 1.547 0 1.875.031v-.344h-.375c-1.047 0-1.093-.14-1.093-.578Zm0 0"/><path id="p" d="M5.266-2.016H5c-.047.204-.14.875-.25 1.063-.094.11-.766.11-1.125.11H1.406c.328-.282 1.063-1.048 1.36-1.329 1.828-1.672 2.5-2.297 2.5-3.484 0-1.375-1.094-2.297-2.485-2.297-1.375 0-2.203 1.187-2.203 2.219 0 .609.531.609.563.609.265 0 .562-.188.562-.563 0-.343-.219-.562-.562-.562-.094 0-.125 0-.157.016.22-.813.875-1.375 1.641-1.375 1.016 0 1.64.859 1.64 1.953 0 1.015-.577 1.906-1.265 2.672L.578-.281V0h4.375Zm0 0"/><path id="q" d="M2.203-4.297c-.203.016-.25.031-.25.14 0 .11.063.11.266.11h.547c1.03 0 1.484.844 1.484 1.984 0 1.579-.813 1.985-1.406 1.985-.578 0-1.547-.266-1.906-1.063.39.063.734-.156.734-.578a.571.571 0 0 0-.578-.593c-.297 0-.61.171-.61.624C.484-.625 1.547.25 2.875.25c1.422 0 2.484-1.094 2.484-2.297C5.36-3.14 4.47-4 3.33-4.203 4.358-4.5 5.03-5.375 5.03-6.313c0-.937-.984-1.64-2.14-1.64-1.188 0-2.079.734-2.079 1.61 0 .468.375.577.547.577.25 0 .547-.187.547-.546 0-.375-.297-.547-.562-.547-.063 0-.094 0-.125.015.453-.812 1.578-.812 1.64-.812.391 0 1.172.172 1.172 1.343 0 .235-.031.891-.39 1.407-.36.531-.766.562-1.079.578Zm0 0"/><path id="r" d="M4.313-7.781c0-.235 0-.282-.172-.282-.094 0-.125 0-.22.141L.329-2.344V-2h3.14v1.094c0 .437-.03.562-.905.562h-.235V0c.281-.031 1.219-.031 1.563-.031.328 0 1.28 0 1.562.031v-.344H5.22c-.875 0-.907-.125-.907-.562V-2h1.204v-.344H4.312Zm-.782.937v4.5H.625Zm0 0"/><path id="s" d="M1.531-6.844a3.88 3.88 0 0 0 1.063.172c1.344 0 2.219-.984 2.219-1.156 0-.047-.032-.11-.11-.11-.016 0-.047 0-.156.047A3.987 3.987 0 0 1 3-7.562c-.781 0-1.344-.25-1.578-.344-.078-.032-.11-.032-.125-.032-.094 0-.094.079-.094.266v3.547c0 .219 0 .281.14.281.063 0 .079 0 .204-.156.328-.484.89-.766 1.484-.766.64 0 .953.579 1.047.782.203.468.219 1.062.219 1.515 0 .453 0 1.125-.344 1.672-.265.422-.719.719-1.25.719A1.838 1.838 0 0 1 .922-1.484a.396.396 0 0 0 .187.03c.204 0 .532-.109.532-.515 0-.343-.235-.531-.532-.531-.218 0-.53.11-.53.578C.578-.906 1.405.25 2.718.25c1.36 0 2.547-1.14 2.547-2.656 0-1.422-.97-2.61-2.22-2.61a2.08 2.08 0 0 0-1.515.641Zm0 0"/><path id="t" d="M1.469-4.156c0-3.032 1.468-3.5 2.11-3.5.437 0 .874.125 1.093.484-.14 0-.594 0-.594.484 0 .266.172.5.484.5.297 0 .5-.187.5-.53 0-.626-.453-1.235-1.484-1.235-1.515 0-3.094 1.547-3.094 4.172C.484-.484 1.922.25 2.938.25 4.25.25 5.358-.89 5.358-2.438c0-1.593-1.109-2.656-2.312-2.656-1.063 0-1.453.922-1.578 1.25ZM2.937-.078c-.75 0-1.109-.656-1.218-.906-.11-.313-.219-.907-.219-1.735 0-.953.422-2.14 1.5-2.14.656 0 1 .453 1.188.859.187.438.187 1.031.187 1.547 0 .61 0 1.156-.234 1.61-.297.562-.72.765-1.204.765Zm0 0"/><path id="u" d="M5.672-7.422v-.281H2.797c-1.453 0-1.469-.156-1.516-.375h-.265L.64-5.688h.265c.031-.218.14-.953.297-1.093.094-.063 1-.063 1.156-.063h2.547L3.641-5.03C3.312-4.563 2.109-2.61 2.109-.36c0 .125 0 .609.485.609.5 0 .5-.469.5-.625v-.594c0-1.781.281-3.172.844-3.969Zm0 0"/><path id="v" d="M3.563-4.313c.593-.328 1.468-.875 1.468-1.875 0-1.046-1-1.765-2.11-1.765-1.171 0-2.108.875-2.108 1.969 0 .406.125.812.453 1.218.14.157.14.157.984.75C1.094-3.484.484-2.672.484-1.812.484-.532 1.704.25 2.922.25c1.328 0 2.437-.984 2.437-2.234 0-1.22-.859-1.75-1.796-2.329ZM1.937-5.39c-.156-.109-.64-.421-.64-1 0-.78.812-1.265 1.625-1.265.86 0 1.625.61 1.625 1.468 0 .735-.531 1.329-1.219 1.704ZM2.5-3.844l1.438.938c.312.203.874.578.874 1.297 0 .921-.921 1.53-1.89 1.53-1.016 0-1.875-.734-1.875-1.734 0-.921.672-1.671 1.453-2.03Zm0 0"/></defs><path fill="none" stroke="#000" stroke-miterlimit="10" stroke-width=".399" d="M61.746 24.71 87.934 35.56"/><g clip-path="url(#a)"><path fill="none" stroke="#DFDFDF" stroke-linecap="round" stroke-miterlimit="10" stroke-width="19.926" d="M98.781 61.746 87.934 87.934"/></g><g clip-path="url(#b)"><path fill="none" stroke="#DFDFDF" stroke-linecap="round" stroke-miterlimit="10" stroke-width="19.926" d="M87.934 87.934 61.746 98.78"/></g><g clip-path="url(#c)"><path fill="none" stroke="#DFDFDF" stroke-linecap="round" stroke-miterlimit="10" stroke-width="19.926" d="M61.746 98.781 35.56 87.934"/></g><g fill="none" stroke="#DFDFDF" stroke-linecap="round" stroke-miterlimit="10" stroke-width="19.926" clip-path="url(#d)"><path d="M35.559 87.934 24.71 61.746M24.71 61.746 35.56 35.56"/></g><g clip-path="url(#e)"><path fill="none" stroke="#DFDFDF" stroke-linecap="round" stroke-miterlimit="10" stroke-width="19.926" d="M35.559 35.559 98.78 61.746"/></g><path fill="#DFDFDF" stroke="#DFDFDF" stroke-miterlimit="10" stroke-width=".399" d="M98.781 61.746 87.934 87.934 61.746 98.78 35.56 87.934 24.71 61.746 35.559 35.56Zm0 0"/><path fill="none" stroke="#000" stroke-miterlimit="10" stroke-width=".399" d="m175.133 24.71 26.187 63.224"/><g clip-path="url(#f)"><path fill="none" stroke="#DFDFDF" stroke-linecap="round" stroke-miterlimit="10" stroke-width="19.926" d="m175.133 98.781-26.188-10.847"/></g><g fill="none" stroke="#DFDFDF" stroke-linecap="round" stroke-miterlimit="10" stroke-width="19.926" clip-path="url(#g)"><path d="m148.945 87.934-10.847-26.188M138.098 61.746l10.847-26.187"/></g><g clip-path="url(#h)"><path fill="none" stroke="#DFDFDF" stroke-linecap="round" stroke-miterlimit="10" stroke-width="19.926" d="m148.945 35.559 26.188 63.222"/></g><path fill="#DFDFDF" stroke="#DFDFDF" stroke-miterlimit="10" stroke-width=".399" d="m175.133 98.781-26.188-10.847-10.847-26.188 10.847-26.187Zm0 0"/><path fill="none" stroke="#DFDFDF" stroke-linecap="round" stroke-miterlimit="10" stroke-width="19.926" d="m201.32 35.559 10.848 26.187"/><path fill="none" stroke="#000" stroke-miterlimit="10" stroke-width=".399" d="m288.52 24.71-26.188 63.224"/><g fill="none" stroke="#DFDFDF" stroke-linecap="round" stroke-miterlimit="10" stroke-width="19.926" clip-path="url(#i)"><path d="m314.707 35.559 10.848 26.187M325.555 61.746l-10.848 26.188"/></g><g fill="none" stroke="#DFDFDF" stroke-linecap="round" stroke-miterlimit="10" stroke-width="19.926" clip-path="url(#j)"><path d="M314.707 87.934 288.52 98.78M288.52 98.781l26.187-63.222"/></g><path fill="#DFDFDF" stroke="#DFDFDF" stroke-miterlimit="10" stroke-width=".399" d="m314.707 35.559 10.848 26.187-10.848 26.188L288.52 98.78Zm0 0"/><path fill="none" stroke="#DFDFDF" stroke-linecap="round" stroke-miterlimit="10" stroke-width="19.926" d="m251.484 61.746 10.848-26.187"/><path fill="none" stroke="#000" stroke-miterlimit="10" stroke-width=".399" d="M401.906 24.71 375.72 35.56"/><g fill="none" stroke="#DFDFDF" stroke-linecap="round" stroke-miterlimit="10" stroke-width="19.926" clip-path="url(#k)"><path d="m428.094 35.559 10.847 26.187M438.941 61.746l-10.847 26.188"/></g><g clip-path="url(#l)"><path fill="none" stroke="#DFDFDF" stroke-linecap="round" stroke-miterlimit="10" stroke-width="19.926" d="M428.094 87.934 401.906 98.78"/></g><g clip-path="url(#m)"><path fill="none" stroke="#DFDFDF" stroke-linecap="round" stroke-miterlimit="10" stroke-width="19.926" d="M401.906 98.781 375.72 87.934"/></g><g fill="none" stroke="#DFDFDF" stroke-linecap="round" stroke-miterlimit="10" stroke-width="19.926" clip-path="url(#n)"><path d="M375.719 87.934 364.87 61.746M364.871 61.746l63.223-26.187"/></g><path fill="#DFDFDF" stroke="#DFDFDF" stroke-miterlimit="10" stroke-width=".399" d="m428.094 35.559 10.847 26.187-10.847 26.188-26.188 10.847-26.187-10.847-10.848-26.188Zm0 0"/><path fill="#FFF" stroke="#000" stroke-miterlimit="10" stroke-width=".399" d="M72.082 24.71c0-5.71-4.629-10.339-10.336-10.339-5.71 0-10.34 4.629-10.34 10.34 0 5.71 4.63 10.34 10.34 10.34 5.707 0 10.336-4.63 10.336-10.34Zm0 0"/><use xlink:href="#o" x="58.819" y="28.563"/><path fill="#FFF" stroke="#000" stroke-miterlimit="10" stroke-width=".399" d="M98.27 35.559c0-5.711-4.625-10.34-10.336-10.34s-10.34 4.629-10.34 10.34c0 5.71 4.629 10.34 10.34 10.34 5.71 0 10.336-4.63 10.336-10.34Zm0 0"/><use xlink:href="#p" x="85.007" y="39.41"/><path fill="#FFF" stroke="#000" stroke-miterlimit="10" stroke-width=".399" d="M109.117 61.746c0-5.71-4.629-10.34-10.336-10.34-5.71 0-10.34 4.63-10.34 10.34 0 5.711 4.63 10.34 10.34 10.34 5.707 0 10.336-4.629 10.336-10.34Zm0 0"/><use xlink:href="#q" x="95.854" y="65.598"/><path fill="#FFF" stroke="#000" stroke-miterlimit="10" stroke-width=".399" d="M98.27 87.934c0-5.711-4.625-10.336-10.336-10.336s-10.34 4.625-10.34 10.336c0 5.71 4.629 10.34 10.34 10.34 5.71 0 10.336-4.63 10.336-10.34Zm0 0"/><use xlink:href="#r" x="85.007" y="91.786"/><path fill="#FFF" stroke="#000" stroke-miterlimit="10" stroke-width=".399" d="M72.082 98.781c0-5.71-4.629-10.34-10.336-10.34-5.71 0-10.34 4.63-10.34 10.34 0 5.711 4.63 10.34 10.34 10.34 5.707 0 10.336-4.629 10.336-10.34Zm0 0"/><use xlink:href="#s" x="58.819" y="102.633"/><path fill="#FFF" stroke="#000" stroke-miterlimit="10" stroke-width=".399" d="M45.895 87.934c0-5.711-4.63-10.336-10.336-10.336-5.711 0-10.34 4.625-10.34 10.336 0 5.71 4.629 10.34 10.34 10.34 5.707 0 10.336-4.63 10.336-10.34Zm0 0"/><use xlink:href="#t" x="32.631" y="91.786"/><path fill="#FFF" stroke="#000" stroke-miterlimit="10" stroke-width=".399" d="M35.047 61.746c0-5.71-4.629-10.34-10.336-10.34-5.711 0-10.34 4.63-10.34 10.34 0 5.711 4.629 10.34 10.34 10.34 5.707 0 10.336-4.629 10.336-10.34Zm0 0"/><use xlink:href="#u" x="21.784" y="65.598"/><path fill="#FFF" stroke="#000" stroke-miterlimit="10" stroke-width=".399" d="M45.895 35.559c0-5.711-4.63-10.34-10.336-10.34-5.711 0-10.34 4.629-10.34 10.34 0 5.71 4.629 10.34 10.34 10.34 5.707 0 10.336-4.63 10.336-10.34Zm0 0"/><use xlink:href="#v" x="32.631" y="39.41"/><path fill="#FFF" stroke="#000" stroke-miterlimit="10" stroke-width=".399" d="M185.469 24.71c0-5.71-4.625-10.339-10.336-10.339s-10.34 4.629-10.34 10.34c0 5.71 4.629 10.34 10.34 10.34 5.71 0 10.336-4.63 10.336-10.34Zm0 0"/><use xlink:href="#o" x="172.205" y="28.563"/><path fill="#FFF" stroke="#000" stroke-miterlimit="10" stroke-width=".399" d="M211.66 35.559c0-5.711-4.629-10.34-10.34-10.34-5.71 0-10.34 4.629-10.34 10.34 0 5.71 4.63 10.34 10.34 10.34 5.711 0 10.34-4.63 10.34-10.34Zm0 0"/><use xlink:href="#p" x="198.392" y="39.41"/><path fill="#FFF" stroke="#000" stroke-miterlimit="10" stroke-width=".399" d="M222.504 61.746c0-5.71-4.625-10.34-10.336-10.34s-10.34 4.63-10.34 10.34c0 5.711 4.629 10.34 10.34 10.34 5.71 0 10.336-4.629 10.336-10.34Zm0 0"/><use xlink:href="#q" x="209.239" y="65.598"/><path fill="#FFF" stroke="#000" stroke-miterlimit="10" stroke-width=".399" d="M211.66 87.934c0-5.711-4.629-10.336-10.34-10.336-5.71 0-10.34 4.625-10.34 10.336 0 5.71 4.63 10.34 10.34 10.34 5.711 0 10.34-4.63 10.34-10.34Zm0 0"/><use xlink:href="#r" x="198.392" y="91.786"/><path fill="#FFF" stroke="#000" stroke-miterlimit="10" stroke-width=".399" d="M185.469 98.781c0-5.71-4.625-10.34-10.336-10.34s-10.34 4.63-10.34 10.34c0 5.711 4.629 10.34 10.34 10.34 5.71 0 10.336-4.629 10.336-10.34Zm0 0"/><use xlink:href="#s" x="172.205" y="102.633"/><path fill="#FFF" stroke="#000" stroke-miterlimit="10" stroke-width=".399" d="M159.281 87.934c0-5.711-4.629-10.336-10.336-10.336-5.71 0-10.34 4.625-10.34 10.336 0 5.71 4.63 10.34 10.34 10.34 5.707 0 10.336-4.63 10.336-10.34Zm0 0"/><use xlink:href="#t" x="146.017" y="91.786"/><path fill="#FFF" stroke="#000" stroke-miterlimit="10" stroke-width=".399" d="M148.434 61.746c0-5.71-4.625-10.34-10.336-10.34s-10.34 4.63-10.34 10.34c0 5.711 4.629 10.34 10.34 10.34 5.71 0 10.336-4.629 10.336-10.34Zm0 0"/><use xlink:href="#u" x="135.17" y="65.598"/><path fill="#FFF" stroke="#000" stroke-miterlimit="10" stroke-width=".399" d="M159.281 35.559c0-5.711-4.629-10.34-10.336-10.34-5.71 0-10.34 4.629-10.34 10.34 0 5.71 4.63 10.34 10.34 10.34 5.707 0 10.336-4.63 10.336-10.34Zm0 0"/><use xlink:href="#v" x="146.017" y="39.41"/><path fill="#FFF" stroke="#000" stroke-miterlimit="10" stroke-width=".399" d="M298.86 24.71c0-5.71-4.63-10.339-10.34-10.339-5.711 0-10.34 4.629-10.34 10.34 0 5.71 4.629 10.34 10.34 10.34 5.71 0 10.34-4.63 10.34-10.34Zm0 0"/><use xlink:href="#o" x="285.59" y="28.563"/><path fill="#FFF" stroke="#000" stroke-miterlimit="10" stroke-width=".399" d="M325.047 35.559c0-5.711-4.629-10.34-10.34-10.34-5.71 0-10.336 4.629-10.336 10.34 0 5.71 4.625 10.34 10.336 10.34s10.34-4.63 10.34-10.34Zm0 0"/><use xlink:href="#p" x="311.778" y="39.41"/><path fill="#FFF" stroke="#000" stroke-miterlimit="10" stroke-width=".399" d="M335.895 61.746c0-5.71-4.63-10.34-10.34-10.34-5.711 0-10.34 4.63-10.34 10.34 0 5.711 4.629 10.34 10.34 10.34 5.71 0 10.34-4.629 10.34-10.34Zm0 0"/><use xlink:href="#q" x="322.625" y="65.598"/><path fill="#FFF" stroke="#000" stroke-miterlimit="10" stroke-width=".399" d="M325.047 87.934c0-5.711-4.629-10.336-10.34-10.336a10.333 10.333 0 0 0-10.336 10.336c0 5.71 4.625 10.34 10.336 10.34s10.34-4.63 10.34-10.34Zm0 0"/><use xlink:href="#r" x="311.778" y="91.786"/><path fill="#FFF" stroke="#000" stroke-miterlimit="10" stroke-width=".399" d="M298.86 98.781c0-5.71-4.63-10.34-10.34-10.34-5.711 0-10.34 4.63-10.34 10.34 0 5.711 4.629 10.34 10.34 10.34 5.71 0 10.34-4.629 10.34-10.34Zm0 0"/><use xlink:href="#s" x="285.59" y="102.633"/><path fill="#FFF" stroke="#000" stroke-miterlimit="10" stroke-width=".399" d="M272.668 87.934c0-5.711-4.625-10.336-10.336-10.336-5.71 0-10.34 4.625-10.34 10.336 0 5.71 4.63 10.34 10.34 10.34 5.711 0 10.336-4.63 10.336-10.34Zm0 0"/><use xlink:href="#t" x="259.403" y="91.786"/><path fill="#FFF" stroke="#000" stroke-miterlimit="10" stroke-width=".399" d="M261.824 61.746c0-5.71-4.629-10.34-10.34-10.34-5.71 0-10.34 4.63-10.34 10.34 0 5.711 4.63 10.34 10.34 10.34 5.711 0 10.34-4.629 10.34-10.34Zm0 0"/><use xlink:href="#u" x="248.556" y="65.598"/><path fill="#FFF" stroke="#000" stroke-miterlimit="10" stroke-width=".399" d="M272.668 35.559c0-5.711-4.625-10.34-10.336-10.34-5.71 0-10.34 4.629-10.34 10.34 0 5.71 4.63 10.34 10.34 10.34 5.711 0 10.336-4.63 10.336-10.34Zm0 0"/><use xlink:href="#v" x="259.403" y="39.41"/><path fill="#FFF" stroke="#000" stroke-miterlimit="10" stroke-width=".399" d="M412.246 24.71c0-5.71-4.629-10.339-10.34-10.339-5.71 0-10.336 4.629-10.336 10.34 0 5.71 4.625 10.34 10.336 10.34s10.34-4.63 10.34-10.34Zm0 0"/><use xlink:href="#o" x="398.976" y="28.563"/><path fill="#FFF" stroke="#000" stroke-miterlimit="10" stroke-width=".399" d="M438.434 35.559c0-5.711-4.63-10.34-10.34-10.34-5.707 0-10.336 4.629-10.336 10.34 0 5.71 4.629 10.34 10.336 10.34 5.71 0 10.34-4.63 10.34-10.34Zm0 0"/><use xlink:href="#p" x="425.164" y="39.41"/><path fill="#FFF" stroke="#000" stroke-miterlimit="10" stroke-width=".399" d="M449.281 61.746c0-5.71-4.629-10.34-10.34-10.34-5.71 0-10.336 4.63-10.336 10.34 0 5.711 4.625 10.34 10.336 10.34s10.34-4.629 10.34-10.34Zm0 0"/><use xlink:href="#q" x="436.011" y="65.598"/><path fill="#FFF" stroke="#000" stroke-miterlimit="10" stroke-width=".399" d="M438.434 87.934c0-5.711-4.63-10.336-10.34-10.336-5.707 0-10.336 4.625-10.336 10.336 0 5.71 4.629 10.34 10.336 10.34 5.71 0 10.34-4.63 10.34-10.34Zm0 0"/><use xlink:href="#r" x="425.164" y="91.786"/><path fill="#FFF" stroke="#000" stroke-miterlimit="10" stroke-width=".399" d="M412.246 98.781c0-5.71-4.629-10.34-10.34-10.34-5.71 0-10.336 4.63-10.336 10.34 0 5.711 4.625 10.34 10.336 10.34s10.34-4.629 10.34-10.34Zm0 0"/><use xlink:href="#s" x="398.976" y="102.633"/><path fill="#FFF" stroke="#000" stroke-miterlimit="10" stroke-width=".399" d="M386.059 87.934c0-5.711-4.63-10.336-10.34-10.336-5.711 0-10.34 4.625-10.34 10.336 0 5.71 4.629 10.34 10.34 10.34 5.71 0 10.34-4.63 10.34-10.34Zm0 0"/><use xlink:href="#t" x="372.789" y="91.786"/><path fill="#FFF" stroke="#000" stroke-miterlimit="10" stroke-width=".399" d="M375.21 61.746c0-5.71-4.628-10.34-10.339-10.34-5.71 0-10.336 4.63-10.336 10.34 0 5.711 4.625 10.34 10.336 10.34s10.34-4.629 10.34-10.34Zm0 0"/><use xlink:href="#u" x="361.942" y="65.598"/><path fill="#FFF" stroke="#000" stroke-miterlimit="10" stroke-width=".399" d="M386.059 35.559c0-5.711-4.63-10.34-10.34-10.34-5.711 0-10.34 4.629-10.34 10.34 0 5.71 4.629 10.34 10.34 10.34 5.71 0 10.34-4.63 10.34-10.34Zm0 0"/><use xlink:href="#v" x="372.789" y="39.41"/></svg>