<svg xmlns="http://www.w3.org/2000/svg" xmlns:xlink="http://www.w3.org/1999/xlink" width="248.94pt" height="99.61pt" viewBox="0 0 248.94 99.61"><defs><path id="d" d="M7.866-3.698c0-2.226-1.647-3.994-3.633-3.994C2.28-7.692.611-5.946.611-3.698.611-1.462 2.291.24 4.233.24c1.986 0 3.633-1.735 3.633-3.938m-1.124-.153c0 2.89-1.494 3.807-2.498 3.807-1.047 0-2.51-.96-2.51-3.807 0-2.826 1.594-3.568 2.5-3.568.948 0 2.508.775 2.508 3.568"/><path id="c" d="M3.611 2.618c0-.032 0-.054-.185-.24-1.364-1.374-1.713-3.436-1.713-5.105 0-1.899.414-3.797 1.756-5.16.142-.132.142-.154.142-.186 0-.077-.043-.11-.109-.11-.109 0-1.09.742-1.735 2.128-.556 1.2-.687 2.411-.687 3.327 0 .851.12 2.172.72 3.404.655 1.342 1.593 2.052 1.702 2.052.066 0 .11-.033.11-.11"/><path id="e" d="M3.153-2.727c0-.851-.12-2.172-.72-3.404C1.778-7.473.84-8.182.73-8.182c-.065 0-.11.043-.11.109 0 .032 0 .054.208.25C1.9-6.742 2.52-5.007 2.52-2.726c0 1.865-.403 3.785-1.756 5.16-.142.13-.142.153-.142.185 0 .066.044.11.109.11.11 0 1.091-.742 1.735-2.128.556-1.2.687-2.411.687-3.327"/><path id="f" d="M7.92 0v-.338h-.207c-.567 0-.796-.055-1.025-.393l-2.302-3.48L5.88-6.404c.24-.35.611-.698 1.582-.71v-.338l-1.21.033c-.437 0-.96 0-1.397-.033v.339c.436.01.676.25.676.502 0 .109-.021.13-.098.25L4.19-4.517 2.782-6.622c-.022-.033-.076-.12-.076-.164 0-.13.24-.316.709-.327v-.339c-.382.033-1.178.033-1.593.033L.404-7.452v.339H.61c.6 0 .807.076 1.015.382l2.007 3.033-1.79 2.64c-.152.218-.48.72-1.581.72V0l1.21-.033c.405 0 1.005 0 1.397.033v-.338c-.502-.011-.687-.306-.687-.502 0-.098.033-.142.11-.262L3.84-3.393 5.564-.786c.022.044.055.088.055.12 0 .131-.24.317-.71.328V0c.382-.033 1.179-.033 1.593-.033z"/><path id="b" d="M8.396 0v-.347c-.777 0-.993 0-1.16-.49L4.629-8.324c-.048-.144-.072-.215-.24-.215s-.191.035-.25.227l-2.5 7.152C1.47-.67 1.136-.36.37-.347V0l1.148-.024c.335 0 .909 0 1.22.024v-.347c-.502-.012-.801-.263-.801-.598 0-.072 0-.096.06-.251l.55-1.59H5.56L6.22-.91c.06.144.06.167.06.203 0 .36-.61.36-.909.36V0c.275-.024 1.22-.024 1.555-.024s1.196 0 1.47.024M5.442-3.134H2.667l1.387-3.982z"/><path id="a" d="M7.63-2.189c0-.968-.873-1.925-2.296-2.08 1.136-.216 1.962-.981 1.962-1.878 0-1.029-1.04-2.022-2.608-2.022H.514v.347h.24c.86 0 .896.12.896.562v6.351c0 .443-.035.562-.897.562H.514V0h4.497c1.543 0 2.62-1.04 2.62-2.189M6.243-6.147c0 .789-.622 1.782-1.95 1.782H2.56v-2.978c0-.395.024-.479.55-.479h1.508c1.196 0 1.626 1.029 1.626 1.675m.3 3.946c0 .97-.73 1.854-1.903 1.854H3.11c-.527 0-.55-.084-.55-.478v-3.301h2.236c1.148 0 1.746 1.004 1.746 1.925"/></defs><g fill="none" stroke="#000" stroke-miterlimit="10" stroke-width=".3985"><path d="M11.538 88.072h35.433V59.725H11.538Z"/><path d="M46.971 88.072 63.98 76.733V48.386M46.971 59.725 63.98 48.386H28.546l-17.008 11.34M27.27 54.056h17.717M37.759 41.3c0-9.922 25.512-21.26 45.229-21.26"/></g><path d="m86.09 20.04-4.468-1.682 1.465 1.682-1.465 1.682Z"/><path fill="none" stroke="#000" stroke-miterlimit="10" stroke-width=".3985" d="m86.09 20.04-4.468-1.682 1.465 1.682-1.465 1.682ZM94.72 39.882h22.142V11.536H94.72Z"/><use xlink:href="#a" x="-57.541093" y="16.079453" transform="translate(159.166 13.719)scale(1.0004)"/><g transform="translate(204.006 25.243)scale(1.0004)"><use xlink:href="#b" x="-60.486275" y="16.079453"/><use xlink:href="#b" x="-47.820638" y="16.079453"/><use xlink:href="#a" x="-35.143038" y="16.079453"/></g><g transform="translate(212.333 46.38)scale(1.00008)"><use xlink:href="#c" x="-60.466988" y="16.074326"/><use xlink:href="#d" x="-56.222998" y="16.074326"/><use xlink:href="#e" x="-47.735018" y="16.074326"/></g><g transform="translate(260.944 25.243)scale(1.0004)"><use xlink:href="#b" x="-60.486275" y="16.079453"/><use xlink:href="#a" x="-47.820638" y="16.079453"/></g><use xlink:href="#a" x="-35.621296" y="16.079453" fill="red" transform="translate(260.944 25.243)scale(1.0004)"/><g transform="translate(269.18 46.38)scale(1.00008)"><use xlink:href="#c" x="-60.466988" y="16.074326"/><use xlink:href="#f" x="-56.222998" y="16.074326"/><use xlink:href="#e" x="-48.040502" y="16.074326"/></g></svg>