<svg xmlns="http://www.w3.org/2000/svg" xmlns:xlink="http://www.w3.org/1999/xlink" width="388.74pt" height="102.09pt" viewBox="0 0 388.74 102.09"><defs><path id="a" d="M4.904 0v-.347h-.371C3.48-.347 3.444-.49 3.444-.92v-6.745c0-.275 0-.287-.239-.287-.287.323-.885.765-2.117.765v.347c.275 0 .873 0 1.531-.311v6.231c0 .43-.036.574-1.088.574h-.37V0c.322-.024 1.482-.024 1.877-.024s1.543 0 1.866.024"/><path id="b" d="M5.358-2.045c0-1.1-.885-1.962-2.033-2.165 1.04-.299 1.71-1.172 1.71-2.105 0-.945-.98-1.638-2.14-1.638-1.197 0-2.082.73-2.082 1.602 0 .479.371.574.55.574.252 0 .539-.18.539-.538 0-.383-.287-.55-.55-.55-.072 0-.096 0-.132.012.454-.813 1.579-.813 1.638-.813.395 0 1.173.179 1.173 1.351 0 .227-.036.897-.383 1.411-.359.527-.766.563-1.089.574l-.358.036c-.204.012-.252.024-.252.132 0 .12.06.12.276.12h.55c1.016 0 1.47.837 1.47 1.985 0 1.567-.812 1.985-1.399 1.985-.574 0-1.554-.275-1.901-1.064.383.06.73-.156.73-.586a.565.565 0 0 0-.587-.586c-.287 0-.598.167-.598.622C.49-.622 1.555.25 2.882.25c1.424 0 2.476-1.088 2.476-2.296"/><path id="c" d="M5.262-2.01H5c-.036.204-.131.862-.25 1.053-.085.108-.766.108-1.125.108H1.41c.323-.275 1.053-1.04 1.364-1.328 1.818-1.674 2.487-2.296 2.487-3.48 0-1.375-1.088-2.296-2.475-2.296S.586-6.77.586-5.741c0 .61.526.61.562.61.251 0 .562-.18.562-.562 0-.335-.227-.562-.562-.562-.107 0-.131 0-.167.012.227-.813.873-1.364 1.65-1.364 1.017 0 1.639.85 1.639 1.95 0 1.017-.586 1.902-1.268 2.667L.586-.287V0h4.365z"/></defs><path fill="none" stroke="#000" stroke-miterlimit="10" stroke-width=".3985" d="M11.538 34.761v55.791H37.05V34.761"/><use xlink:href="#a" x="-57.097916" y="-37.248949" transform="translate(113.453 64.015)scale(1.0004)"/><g fill="none" stroke="#000" stroke-miterlimit="10" stroke-width=".3985"><path d="M52.991 15.643h12.632M53.19 29.969V15.643M65.424 29.969V15.643M52.991 29.969h12.632"/></g><g transform="translate(113.453 64.015)scale(1.0004)"><use xlink:href="#b" x="-45.855404" y="-37.248949"/><use xlink:href="#c" x="-39.995008" y="-37.248949"/></g><path fill="none" stroke="#000" stroke-miterlimit="10" stroke-width=".3985" d="M124.925 34.761v55.791h25.512V34.761"/><use xlink:href="#a" x="-37.842188" y="-37.248949" transform="translate(137.566 64.015)scale(1.0004)"/><g fill="none" stroke="#000" stroke-miterlimit="10" stroke-width=".3985"><path d="M96.352 15.643h12.632M96.551 29.969V15.643M108.785 29.969V15.643M96.352 29.969h12.632"/></g><g transform="translate(226.84 63.889)scale(1.0004)"><use xlink:href="#b" x="-57.097916" y="-37.248949"/><use xlink:href="#c" x="-51.237519" y="-37.248949"/></g><g fill="none" stroke="#000" stroke-miterlimit="10" stroke-width=".3985"><path d="M166.378 15.517h18.49M166.577 30.094V15.517M184.669 30.094V15.517M166.378 30.094h18.49M123.86 22.13c.862.23 7.043 2.668 7.043 10.505"/></g><path d="m120.865 21.327 3.88 2.78-.98-2.003 1.85-1.246Z"/><path fill="none" stroke="#000" stroke-miterlimit="10" stroke-width=".398499" d="m120.865 21.327 3.88 2.78-.98-2.003 1.85-1.246Z"/><path fill="none" stroke="#000" stroke-miterlimit="10" stroke-width=".3985" d="M144.46 29.675c0-4.877 6.181-7.315 9.902-8.312"/><path d="m144.46 32.776 1.682-4.468-1.682 1.466-1.682-1.466Z"/><path fill="none" stroke="#000" stroke-miterlimit="10" stroke-width=".3985" d="m144.46 32.776 1.682-4.468-1.682 1.466-1.682-1.466ZM238.313 34.761v55.791h25.512V34.761"/><use xlink:href="#b" x="-60.486275" y="-37.248949" transform="translate(308.602 119.681)scale(1.0004)"/><use xlink:href="#c" x="-60.486275" y="-37.248949" transform="translate(308.602 99.881)scale(1.0004)"/><use xlink:href="#a" x="-34.453828" y="-37.248949" transform="translate(250.953 64.015)scale(1.0004)"/><path fill="none" stroke="#000" stroke-miterlimit="10" stroke-width=".3985" d="M257.847 29.675c0-4.877 6.181-7.315 9.902-8.312"/><path d="m257.847 32.776 1.682-4.468-1.682 1.466-1.682-1.466Z"/><path fill="none" stroke="#000" stroke-miterlimit="10" stroke-width=".3985" d="m257.847 32.776 1.682-4.468-1.682 1.466-1.682-1.466ZM351.7 34.761v55.791h25.512V34.761"/><g transform="translate(364.341 63.889)scale(1.0004)"><use xlink:href="#a" x="-54.945052" y="-37.248949"/><use xlink:href="#c" x="-43.702653" y="-37.248949"/><use xlink:href="#b" x="-37.842254" y="-37.248949"/></g><g fill="none" stroke="#000" stroke-miterlimit="10" stroke-width=".3985"><path d="M317.269 15.517h18.49M317.468 30.094V15.517M335.56 30.094V15.517M317.269 30.094h18.49M350.635 22.13c.861.23 7.042 2.668 7.042 10.505"/></g><path d="m347.64 21.327 3.88 2.78-.98-2.003 1.85-1.246Z"/><path fill="none" stroke="#000" stroke-miterlimit="10" stroke-width=".398499" d="m347.64 21.327 3.88 2.78-.98-2.003 1.85-1.246Z"/></svg>