<svg xmlns="http://www.w3.org/2000/svg" xmlns:xlink="http://www.w3.org/1999/xlink" width="482.6pt" height="119.29pt" viewBox="0 0 482.6 119.29"><defs><path id="h" d="M5.358-1.985c0-1.22-.861-1.758-1.794-2.333.598-.322 1.471-.873 1.471-1.877 0-1.04-1.004-1.758-2.105-1.758-1.184 0-2.117.873-2.117 1.961 0 .407.12.813.455 1.22.131.155.143.167.98.753C1.088-3.48.49-2.679.49-1.806.49-.538 1.698.251 2.918.251c1.328 0 2.44-.98 2.44-2.236m-.813-4.198c0 .73-.526 1.315-1.22 1.698l-1.387-.909c-.156-.108-.634-.419-.634-1.005 0-.777.813-1.267 1.614-1.267.861 0 1.627.622 1.627 1.483m.263 4.58c0 .91-.921 1.531-1.878 1.531-1.016 0-1.89-.741-1.89-1.734 0-.933.682-1.686 1.46-2.045l1.447.945c.31.203.86.574.86 1.303"/><path id="e" d="M5.262-2.404c0-1.423-.956-2.607-2.212-2.607-.682 0-1.208.299-1.52.634v-2.476c.515.167.934.18 1.065.18 1.352 0 2.213-.993 2.213-1.16 0-.049-.024-.108-.096-.108 0 0-.048 0-.155.047a3.9 3.9 0 0 1-1.555.323c-.79 0-1.352-.239-1.579-.335-.083-.035-.12-.035-.12-.035-.095 0-.095.071-.095.263v3.552c0 .215 0 .287.143.287.06 0 .072-.012.192-.156.335-.49.897-.777 1.495-.777.634 0 .945.586 1.04.79.204.466.216 1.052.216 1.506s0 1.136-.335 1.675c-.263.43-.73.73-1.256.73-.79 0-1.567-.539-1.782-1.412.06.024.131.036.191.036.204 0 .527-.12.527-.526 0-.335-.228-.527-.527-.527-.215 0-.526.108-.526.574 0 1.017.813 2.177 2.14 2.177 1.352 0 2.536-1.136 2.536-2.655"/><path id="d" d="M5.526-1.997v-.347H4.318v-5.442c0-.227 0-.287-.168-.287-.096 0-.131 0-.227.144l-3.6 5.585v.347h3.145V-.91c0 .443-.024.562-.897.562h-.239V0c.275-.024 1.22-.024 1.555-.024s1.292 0 1.567.024v-.347h-.24c-.86 0-.896-.12-.896-.562v-1.088zm-1.998-.347H.622l2.906-4.51z"/><path id="a" d="M4.904 0v-.347h-.371C3.48-.347 3.444-.49 3.444-.92v-6.745c0-.275 0-.287-.239-.287-.287.323-.885.765-2.117.765v.347c.275 0 .873 0 1.531-.311v6.231c0 .43-.036.574-1.088.574h-.37V0c.322-.024 1.482-.024 1.877-.024s1.543 0 1.866.024"/><path id="g" d="M5.681-7.427v-.275H2.799c-1.448 0-1.471-.156-1.52-.383h-.262L.646-5.693h.263c.036-.215.143-.957.299-1.088.096-.072.993-.072 1.16-.072h2.536L3.636-5.035C3.313-4.57 2.105-2.607 2.105-.36c0 .132 0 .61.49.61.503 0 .503-.466.503-.622v-.598c0-1.782.287-3.17.849-3.97z"/><path id="f" d="M5.358-2.44c0-1.59-1.112-2.655-2.308-2.655-1.065 0-1.46.921-1.579 1.256v-.323c0-3.026 1.471-3.504 2.117-3.504.43 0 .861.131 1.088.49-.143 0-.598 0-.598.49 0 .263.18.49.49.49.3 0 .503-.179.503-.526 0-.621-.454-1.231-1.495-1.231C2.069-7.953.49-6.411.49-3.78.49-.49 1.926.25 2.942.25c1.304 0 2.416-1.136 2.416-2.69m-.98-.012c0 .61 0 1.148-.228 1.603-.299.574-.73.777-1.208.777-.753 0-1.112-.67-1.22-.92-.107-.312-.227-.898-.227-1.735 0-.945.43-2.129 1.507-2.129.658 0 1.005.443 1.184.85.191.442.191 1.04.191 1.554"/><path id="c" d="M5.358-2.045c0-1.1-.885-1.962-2.033-2.165 1.04-.299 1.71-1.172 1.71-2.105 0-.945-.98-1.638-2.14-1.638-1.197 0-2.082.73-2.082 1.602 0 .479.371.574.55.574.252 0 .539-.18.539-.538 0-.383-.287-.55-.55-.55-.072 0-.096 0-.132.012.454-.813 1.579-.813 1.638-.813.395 0 1.173.179 1.173 1.351 0 .227-.036.897-.383 1.411-.359.527-.766.563-1.089.574l-.358.036c-.204.012-.252.024-.252.132 0 .12.06.12.276.12h.55c1.016 0 1.47.837 1.47 1.985 0 1.567-.812 1.985-1.399 1.985-.574 0-1.554-.275-1.901-1.064.383.06.73-.156.73-.586a.565.565 0 0 0-.587-.586c-.287 0-.598.167-.598.622C.49-.622 1.555.25 2.882.25c1.424 0 2.476-1.088 2.476-2.296"/><path id="b" d="M5.262-2.01H5c-.036.204-.131.862-.25 1.053-.085.108-.766.108-1.125.108H1.41c.323-.275 1.053-1.04 1.364-1.328 1.818-1.674 2.487-2.296 2.487-3.48 0-1.375-1.088-2.296-2.475-2.296S.586-6.77.586-5.741c0 .61.526.61.562.61.251 0 .562-.18.562-.562 0-.335-.227-.562-.562-.562-.107 0-.131 0-.167.012.227-.813.873-1.364 1.65-1.364 1.017 0 1.639.85 1.639 1.95 0 1.017-.586 1.902-1.268 2.667L.586-.287V0h4.365z"/></defs><g fill="none" stroke-miterlimit="10"><path stroke="#000" stroke-width=".3985" d="m60.591 20.432 27.06 11.208"/><g stroke="#dfdfdf" stroke-linecap="round" stroke-width="21.96877"><path d="M98.86 58.7 87.65 85.76M87.65 85.76 60.592 96.968M60.591 96.968 33.531 85.76M33.531 85.76 22.323 58.7M22.323 58.7 33.53 31.64M33.531 31.64 98.86 58.7"/></g></g><path fill="#dfdfdf" d="M98.86 58.7 87.65 85.76 60.592 96.968 33.531 85.76 22.323 58.7 33.53 31.64Z"/><g fill="none" stroke-miterlimit="10"><path stroke="#dfdfdf" stroke-width=".3985" d="M98.86 58.7 87.65 85.76 60.592 96.968 33.531 85.76 22.323 58.7 33.53 31.64Z"/><path stroke="#000" stroke-width=".3985" d="m181.065 20.432 27.06 65.328"/><g stroke="#dfdfdf" stroke-linecap="round" stroke-width="21.96877"><path d="m181.065 96.968-27.06-11.208M154.005 85.76 142.797 58.7M142.797 58.7l11.208-27.06M154.005 31.64l27.06 65.328"/></g></g><path fill="#dfdfdf" d="m181.065 96.968-27.06-11.208-11.208-27.06 11.208-27.06Z"/><g fill="none" stroke-miterlimit="10"><path stroke="#dfdfdf" stroke-width=".3985" d="m181.065 96.968-27.06-11.208-11.208-27.06 11.208-27.06Z"/><path stroke="#dfdfdf" stroke-linecap="round" stroke-width="21.96877" d="m208.125 31.64 11.208 27.06"/><path stroke="#000" stroke-width=".3985" d="m301.539 20.432-27.06 65.328"/><g stroke="#dfdfdf" stroke-linecap="round" stroke-width="21.96877"><path d="m263.27 58.7 11.21-27.06M328.599 31.64l11.208 27.06M339.807 58.7 328.6 85.76M328.599 85.76l-27.06 11.208M301.539 96.968l27.06-65.328"/></g></g><path fill="#dfdfdf" d="m328.599 31.64 11.208 27.06L328.6 85.76l-27.06 11.208Z"/><g fill="none" stroke-miterlimit="10"><path stroke="#dfdfdf" stroke-width=".3985" d="m328.599 31.64 11.208 27.06L328.6 85.76l-27.06 11.208Z"/><path stroke="#000" stroke-width=".3985" d="m422.013 20.432-27.06 11.208"/><g stroke="#dfdfdf" stroke-linecap="round" stroke-width="21.96877"><path d="M449.073 31.64 460.28 58.7M460.281 58.7l-11.208 27.06M449.073 85.76l-27.06 11.208M422.013 96.968l-27.06-11.208M394.953 85.76 383.745 58.7M383.745 58.7l65.328-27.06"/></g></g><path fill="#dfdfdf" d="M449.073 31.64 460.28 58.7l-11.208 27.06-27.06 11.208-27.06-11.208-11.208-27.06Z"/><path fill="none" stroke="#dfdfdf" stroke-miterlimit="10" stroke-width=".3985" d="M449.073 31.64 460.28 58.7l-11.208 27.06-27.06 11.208-27.06-11.208-11.208-27.06Z"/><path fill="#fff" d="M69.485 20.432a8.894 8.894 0 1 0-17.788 0 8.894 8.894 0 0 0 17.788 0"/><path fill="none" stroke="#000" stroke-miterlimit="10" stroke-width=".3985" d="M69.485 20.432a8.894 8.894 0 1 0-17.788 0 8.894 8.894 0 0 0 17.788 0Z"/><use xlink:href="#a" x="-11.413581" y="-13.30534" transform="translate(69.071 37.707)scale(1.0004)"/><path fill="#fff" d="M96.545 31.64a8.894 8.894 0 1 0-17.788 0 8.894 8.894 0 0 0 17.788 0"/><path fill="none" stroke="#000" stroke-miterlimit="10" stroke-width=".3985" d="M96.545 31.64a8.894 8.894 0 1 0-17.788 0 8.894 8.894 0 0 0 17.788 0Z"/><use xlink:href="#b" x="-11.413581" y="-13.30534" transform="translate(96.131 48.915)scale(1.0004)"/><path fill="#fff" d="M107.871 58.7a9.012 9.012 0 1 0-18.024 0 9.012 9.012 0 1 0 18.024 0"/><path fill="none" stroke="#000" stroke-miterlimit="10" stroke-width=".3985" d="M107.871 58.7a9.012 9.012 0 1 0-18.024 0 9.012 9.012 0 1 0 18.024 0Z"/><use xlink:href="#c" x="-11.413581" y="-13.30534" transform="translate(107.339 75.85)scale(1.0004)"/><path fill="#fff" d="M96.623 85.76a8.972 8.972 0 1 0-17.945 0 8.972 8.972 0 1 0 17.945 0"/><path fill="none" stroke="#000" stroke-miterlimit="10" stroke-width=".3985" d="M96.623 85.76a8.972 8.972 0 1 0-17.945 0 8.972 8.972 0 1 0 17.945 0Z"/><use xlink:href="#d" x="-11.413581" y="-13.30534" transform="translate(96.131 103.095)scale(1.0004)"/><path fill="#fff" d="M69.595 96.968a9.004 9.004 0 1 0-18.008 0 9.004 9.004 0 1 0 18.008 0"/><path fill="none" stroke="#000" stroke-miterlimit="10" stroke-width=".3985" d="M69.595 96.968a9.004 9.004 0 1 0-18.008 0 9.004 9.004 0 1 0 18.008 0Z"/><use xlink:href="#e" x="-11.413581" y="-13.30534" transform="translate(69.071 114.112)scale(1.0004)"/><path fill="#fff" d="M42.544 85.76a9.012 9.012 0 1 0-18.025 0 9.012 9.012 0 1 0 18.025 0"/><path fill="none" stroke="#000" stroke-miterlimit="10" stroke-width=".3985" d="M42.544 85.76a9.012 9.012 0 1 0-18.025 0 9.012 9.012 0 1 0 18.025 0Z"/><use xlink:href="#f" x="-11.413581" y="-13.30534" transform="translate(42.011 102.909)scale(1.0004)"/><path fill="#fff" d="M31.375 58.7a9.052 9.052 0 1 0-18.104 0 9.052 9.052 0 0 0 18.104 0"/><path fill="none" stroke="#000" stroke-miterlimit="10" stroke-width=".3985" d="M31.375 58.7a9.052 9.052 0 1 0-18.104 0 9.052 9.052 0 0 0 18.104 0Z"/><use xlink:href="#g" x="-11.413581" y="-13.30534" transform="translate(30.803 75.915)scale(1.0004)"/><path fill="#fff" d="M42.544 31.64a9.012 9.012 0 1 0-18.025 0 9.012 9.012 0 1 0 18.025 0"/><path fill="none" stroke="#000" stroke-miterlimit="10" stroke-width=".3985" d="M42.544 31.64a9.012 9.012 0 1 0-18.025 0 9.012 9.012 0 1 0 18.025 0Z"/><use xlink:href="#h" x="-11.413581" y="-13.30534" transform="translate(42.011 48.79)scale(1.0004)"/><path fill="#fff" d="M189.96 20.432a8.894 8.894 0 1 0-17.79 0 8.894 8.894 0 0 0 17.79 0"/><path fill="none" stroke="#000" stroke-miterlimit="10" stroke-width=".3985" d="M189.96 20.432a8.894 8.894 0 1 0-17.79 0 8.894 8.894 0 0 0 17.79 0Z"/><use xlink:href="#a" x="-11.413581" y="-13.30534" transform="translate(189.545 37.707)scale(1.0004)"/><path fill="#fff" d="M217.019 31.64a8.894 8.894 0 1 0-17.788 0 8.894 8.894 0 0 0 17.788 0"/><path fill="none" stroke="#000" stroke-miterlimit="10" stroke-width=".3985" d="M217.019 31.64a8.894 8.894 0 1 0-17.788 0 8.894 8.894 0 0 0 17.788 0Z"/><use xlink:href="#b" x="-11.413581" y="-13.30534" transform="translate(216.605 48.915)scale(1.0004)"/><path fill="#fff" d="M228.345 58.7a9.012 9.012 0 1 0-18.024 0 9.012 9.012 0 1 0 18.024 0"/><path fill="none" stroke="#000" stroke-miterlimit="10" stroke-width=".3985" d="M228.345 58.7a9.012 9.012 0 1 0-18.024 0 9.012 9.012 0 1 0 18.024 0Z"/><use xlink:href="#c" x="-11.413581" y="-13.30534" transform="translate(227.813 75.85)scale(1.0004)"/><path fill="#fff" d="M217.097 85.76a8.972 8.972 0 1 0-17.945 0 8.972 8.972 0 1 0 17.945 0"/><path fill="none" stroke="#000" stroke-miterlimit="10" stroke-width=".3985" d="M217.097 85.76a8.972 8.972 0 1 0-17.945 0 8.972 8.972 0 1 0 17.945 0Z"/><use xlink:href="#d" x="-11.413581" y="-13.30534" transform="translate(216.605 103.095)scale(1.0004)"/><path fill="#fff" d="M190.07 96.968a9.004 9.004 0 1 0-18.01 0 9.004 9.004 0 0 0 18.01 0"/><path fill="none" stroke="#000" stroke-miterlimit="10" stroke-width=".3985" d="M190.07 96.968a9.004 9.004 0 1 0-18.01 0 9.004 9.004 0 0 0 18.01 0Z"/><use xlink:href="#e" x="-11.413581" y="-13.30534" transform="translate(189.545 114.112)scale(1.0004)"/><path fill="#fff" d="M163.017 85.76a9.012 9.012 0 1 0-18.024 0 9.012 9.012 0 1 0 18.024 0"/><path fill="none" stroke="#000" stroke-miterlimit="10" stroke-width=".3985" d="M163.017 85.76a9.012 9.012 0 1 0-18.024 0 9.012 9.012 0 1 0 18.024 0Z"/><use xlink:href="#f" x="-11.413581" y="-13.30534" transform="translate(162.485 102.909)scale(1.0004)"/><path fill="#fff" d="M151.849 58.7a9.052 9.052 0 1 0-18.104 0 9.052 9.052 0 1 0 18.104 0"/><path fill="none" stroke="#000" stroke-miterlimit="10" stroke-width=".3985" d="M151.849 58.7a9.052 9.052 0 1 0-18.104 0 9.052 9.052 0 1 0 18.104 0Z"/><use xlink:href="#g" x="-11.413581" y="-13.30534" transform="translate(151.277 75.915)scale(1.0004)"/><path fill="#fff" d="M163.017 31.64a9.012 9.012 0 1 0-18.024 0 9.012 9.012 0 1 0 18.024 0"/><path fill="none" stroke="#000" stroke-miterlimit="10" stroke-width=".3985" d="M163.017 31.64a9.012 9.012 0 1 0-18.024 0 9.012 9.012 0 1 0 18.024 0Z"/><use xlink:href="#h" x="-11.413581" y="-13.30534" transform="translate(162.485 48.79)scale(1.0004)"/><path fill="#fff" d="M310.433 20.432a8.894 8.894 0 1 0-17.788 0 8.894 8.894 0 0 0 17.788 0"/><path fill="none" stroke="#000" stroke-miterlimit="10" stroke-width=".3985" d="M310.433 20.432a8.894 8.894 0 1 0-17.788 0 8.894 8.894 0 0 0 17.788 0Z"/><use xlink:href="#a" x="-11.413581" y="-13.30534" transform="translate(310.019 37.707)scale(1.0004)"/><path fill="#fff" d="M337.493 31.64a8.894 8.894 0 1 0-17.788 0 8.894 8.894 0 0 0 17.788 0"/><path fill="none" stroke="#000" stroke-miterlimit="10" stroke-width=".3985" d="M337.493 31.64a8.894 8.894 0 1 0-17.788 0 8.894 8.894 0 0 0 17.788 0Z"/><use xlink:href="#b" x="-11.413581" y="-13.30534" transform="translate(337.079 48.915)scale(1.0004)"/><path fill="#fff" d="M348.82 58.7a9.012 9.012 0 1 0-18.025 0 9.012 9.012 0 1 0 18.024 0"/><path fill="none" stroke="#000" stroke-miterlimit="10" stroke-width=".3985" d="M348.82 58.7a9.012 9.012 0 1 0-18.025 0 9.012 9.012 0 1 0 18.024 0Z"/><use xlink:href="#c" x="-11.413581" y="-13.30534" transform="translate(348.287 75.85)scale(1.0004)"/><path fill="#fff" d="M337.571 85.76a8.972 8.972 0 1 0-17.945 0 8.972 8.972 0 1 0 17.945 0"/><path fill="none" stroke="#000" stroke-miterlimit="10" stroke-width=".3985" d="M337.571 85.76a8.972 8.972 0 1 0-17.945 0 8.972 8.972 0 1 0 17.945 0Z"/><use xlink:href="#d" x="-11.413581" y="-13.30534" transform="translate(337.079 103.095)scale(1.0004)"/><path fill="#fff" d="M310.543 96.968a9.004 9.004 0 1 0-18.008 0 9.004 9.004 0 1 0 18.008 0"/><path fill="none" stroke="#000" stroke-miterlimit="10" stroke-width=".3985" d="M310.543 96.968a9.004 9.004 0 1 0-18.008 0 9.004 9.004 0 1 0 18.008 0Z"/><use xlink:href="#e" x="-11.413581" y="-13.30534" transform="translate(310.019 114.112)scale(1.0004)"/><path fill="#fff" d="M283.491 85.76a9.012 9.012 0 1 0-18.024 0 9.012 9.012 0 1 0 18.024 0"/><path fill="none" stroke="#000" stroke-miterlimit="10" stroke-width=".3985" d="M283.491 85.76a9.012 9.012 0 1 0-18.024 0 9.012 9.012 0 1 0 18.024 0Z"/><use xlink:href="#f" x="-11.413581" y="-13.30534" transform="translate(282.959 102.909)scale(1.0004)"/><path fill="#fff" d="M272.323 58.7a9.052 9.052 0 1 0-18.104 0 9.052 9.052 0 0 0 18.104 0"/><path fill="none" stroke="#000" stroke-miterlimit="10" stroke-width=".3985" d="M272.323 58.7a9.052 9.052 0 1 0-18.104 0 9.052 9.052 0 0 0 18.104 0Z"/><use xlink:href="#g" x="-11.413581" y="-13.30534" transform="translate(271.751 75.915)scale(1.0004)"/><path fill="#fff" d="M283.491 31.64a9.012 9.012 0 1 0-18.024 0 9.012 9.012 0 1 0 18.024 0"/><path fill="none" stroke="#000" stroke-miterlimit="10" stroke-width=".3985" d="M283.491 31.64a9.012 9.012 0 1 0-18.024 0 9.012 9.012 0 1 0 18.024 0Z"/><use xlink:href="#h" x="-11.413581" y="-13.30534" transform="translate(282.959 48.79)scale(1.0004)"/><path fill="#fff" d="M430.907 20.432a8.894 8.894 0 1 0-17.788 0 8.894 8.894 0 0 0 17.788 0"/><path fill="none" stroke="#000" stroke-miterlimit="10" stroke-width=".3985" d="M430.907 20.432a8.894 8.894 0 1 0-17.788 0 8.894 8.894 0 0 0 17.788 0Z"/><use xlink:href="#a" x="-11.413581" y="-13.30534" transform="translate(430.493 37.707)scale(1.0004)"/><path fill="#fff" d="M457.967 31.64a8.894 8.894 0 1 0-17.788 0 8.894 8.894 0 0 0 17.788 0"/><path fill="none" stroke="#000" stroke-miterlimit="10" stroke-width=".3985" d="M457.967 31.64a8.894 8.894 0 1 0-17.788 0 8.894 8.894 0 0 0 17.788 0Z"/><use xlink:href="#b" x="-11.413581" y="-13.30534" transform="translate(457.553 48.915)scale(1.0004)"/><path fill="#fff" d="M469.293 58.7a9.012 9.012 0 1 0-18.024 0 9.012 9.012 0 1 0 18.024 0"/><path fill="none" stroke="#000" stroke-miterlimit="10" stroke-width=".3985" d="M469.293 58.7a9.012 9.012 0 1 0-18.024 0 9.012 9.012 0 1 0 18.024 0Z"/><use xlink:href="#c" x="-11.413581" y="-13.30534" transform="translate(468.761 75.85)scale(1.0004)"/><path fill="#fff" d="M458.045 85.76a8.972 8.972 0 1 0-17.944 0 8.972 8.972 0 0 0 17.944 0"/><path fill="none" stroke="#000" stroke-miterlimit="10" stroke-width=".3985" d="M458.045 85.76a8.972 8.972 0 1 0-17.944 0 8.972 8.972 0 0 0 17.944 0Z"/><use xlink:href="#d" x="-11.413581" y="-13.30534" transform="translate(457.553 103.095)scale(1.0004)"/><path fill="#fff" d="M431.017 96.968a9.004 9.004 0 1 0-18.008 0 9.004 9.004 0 1 0 18.008 0"/><path fill="none" stroke="#000" stroke-miterlimit="10" stroke-width=".3985" d="M431.017 96.968a9.004 9.004 0 1 0-18.008 0 9.004 9.004 0 1 0 18.008 0Z"/><use xlink:href="#e" x="-11.413581" y="-13.30534" transform="translate(430.493 114.112)scale(1.0004)"/><path fill="#fff" d="M403.965 85.76a9.012 9.012 0 1 0-18.024 0 9.012 9.012 0 0 0 18.024 0"/><path fill="none" stroke="#000" stroke-miterlimit="10" stroke-width=".3985" d="M403.965 85.76a9.012 9.012 0 1 0-18.024 0 9.012 9.012 0 0 0 18.024 0Z"/><use xlink:href="#f" x="-11.413581" y="-13.30534" transform="translate(403.433 102.909)scale(1.0004)"/><path fill="#fff" d="M392.797 58.7a9.052 9.052 0 1 0-18.104 0 9.052 9.052 0 0 0 18.104 0"/><path fill="none" stroke="#000" stroke-miterlimit="10" stroke-width=".3985" d="M392.797 58.7a9.052 9.052 0 1 0-18.104 0 9.052 9.052 0 0 0 18.104 0Z"/><use xlink:href="#g" x="-11.413581" y="-13.30534" transform="translate(392.225 75.915)scale(1.0004)"/><path fill="#fff" d="M403.965 31.64a9.012 9.012 0 1 0-18.024 0 9.012 9.012 0 0 0 18.024 0"/><path fill="none" stroke="#000" stroke-miterlimit="10" stroke-width=".3985" d="M403.965 31.64a9.012 9.012 0 1 0-18.024 0 9.012 9.012 0 0 0 18.024 0Z"/><use xlink:href="#h" x="-11.413581" y="-13.30534" transform="translate(403.433 48.79)scale(1.0004)"/></svg>