<svg xmlns="http://www.w3.org/2000/svg" xmlns:xlink="http://www.w3.org/1999/xlink" width="282.339" height="181.862" viewBox="-72 -72 211.754 136.396"><defs><path id="b" d="M8.452-4.053c0-2.475-1.817-4.363-3.897-4.363-2.128 0-3.91 1.912-3.91 4.363C.646-1.626 2.452.251 4.544.251c2.14 0 3.91-1.9 3.91-4.304m-1.112-.18c0 3.11-1.625 4.21-2.785 4.21-1.22 0-2.798-1.149-2.798-4.21 0-2.928 1.662-3.92 2.786-3.92 1.184 0 2.797 1.028 2.797 3.92"/><path id="a" d="M3.885 2.905c0-.036 0-.06-.203-.263-1.195-1.207-1.865-3.18-1.865-5.619 0-2.32.562-4.316 1.949-5.726.12-.108.12-.132.12-.168 0-.071-.06-.095-.108-.095-.156 0-1.136.86-1.722 2.032-.61 1.207-.884 2.487-.884 3.957 0 1.064.167 2.487.789 3.766.705 1.435 1.685 2.212 1.817 2.212.048 0 .107-.024.107-.096"/><path id="c" d="M3.371-2.977c0-.908-.12-2.39-.789-3.778C1.877-8.189.897-8.966.765-8.966c-.048 0-.107.024-.107.095 0 .036 0 .06.203.263 1.195 1.208 1.865 3.18 1.865 5.62 0 2.319-.562 4.315-1.949 5.726-.12.107-.12.131-.12.167 0 .072.06.096.108.096C.921 3 1.901 2.14 2.487.968c.61-1.22.884-2.51.884-3.945"/><path id="d" d="M8.5 0v-.347c-.705 0-.992 0-1.267-.418L4.674-4.591l1.65-2.403c.204-.287.55-.813 1.686-.825v-.346c-.514.024-.646.024-1.255.024-.323 0-1.088 0-1.363-.024v.346c.49.036.645.323.645.526 0 .132-.047.204-.12.311L4.484-4.878 2.87-7.268c-.036-.049-.083-.132-.083-.192 0-.167.25-.359.681-.359v-.346c-.287.024-1.231.024-1.578.024-.335 0-1.172 0-1.459-.024v.346c.897 0 1.017.06 1.268.443l2.235 3.311-2.008 2.93c-.203.298-.586.776-1.662.788V0c.514-.024.646-.024 1.255-.024.323 0 1.1 0 1.375.024v-.347c-.502-.024-.657-.322-.657-.526 0-.131.06-.215.131-.323l1.758-2.57L6.06-.873c.072.108.084.12.084.168 0 .143-.215.346-.681.358V0C5.75-.024 6.683-.024 7.03-.024c.334 0 1.183 0 1.47.024"/></defs><g stroke="#000" stroke-miterlimit="10" stroke-width=".4"><path fill="none" stroke="#d0d0d0" stroke-width=".398504" d="M-58.958 20.412h79.37M-58.958.57h79.37m-79.37-19.843h79.37m-79.37-19.842h79.37m-79.37-19.833h79.37m-79.37 79.36v-79.37m19.843 79.37v-79.37m19.842 79.37v-79.37M.57 20.412v-79.37m19.832 79.37v-79.37M-58.958 20.412l79.37-79.37"/><path stroke="none" d="M-57.254 20.412a1.704 1.704 0 1 0-3.407 0 1.704 1.704 0 0 0 3.407 0M22.116-58.958a1.704 1.704 0 1 0-3.407 0 1.704 1.704 0 0 0 3.407 0m-1.704 0"/><path fill="none" stroke-linecap="round" stroke-width=".53100658" d="M-58.958 20.412h39.685V.57H.57v-39.685h19.842v-19.843"/><g stroke="none" transform="matrix(1 0 0 1 30.575 25.66)"><use xlink:href="#a" x="-58.958" y="20.412"/><use xlink:href="#b" x="-54.403" y="20.412"/><use xlink:href="#c" x="-45.293" y="20.412"/></g><path fill="none" stroke="#d0d0d0" stroke-width=".398504" d="M47.342 20.412h79.37M47.342.57h79.37m-79.37-19.843h79.37m-79.37-19.842h79.37m-79.37-19.833h79.37m-79.37 79.36v-79.37m19.842 79.37v-79.37m19.843 79.37v-79.37m19.842 79.37v-79.37m19.833 79.37v-79.37M47.342 20.412l79.37-79.37"/><path stroke="none" d="M49.045 20.412a1.704 1.704 0 1 0-3.407 0 1.704 1.704 0 0 0 3.407 0M128.415-58.958a1.704 1.704 0 1 0-3.407 0 1.704 1.704 0 0 0 3.407 0m-1.703 0"/><path fill="none" stroke-linecap="round" stroke-width=".53100658" d="M47.342 20.412h39.685v-39.685"/><path fill="none" stroke="red" stroke-linecap="round" stroke-width=".53100658" d="M87.027-19.273v-19.842h19.842"/><path fill="none" stroke-linecap="round" stroke-width=".53100658" d="M106.87-39.115h19.842v-19.843"/><g stroke="none" transform="matrix(1 0 0 1 137.042 25.66)"><use xlink:href="#a" x="-58.958" y="20.412"/><use xlink:href="#d" x="-54.403" y="20.412"/><use xlink:href="#c" x="-45.628" y="20.412"/></g></g></svg>