<svg xmlns="http://www.w3.org/2000/svg" xmlns:xlink="http://www.w3.org/1999/xlink" width="211.75pt" height="136.4pt" viewBox="0 0 211.75 136.4"><defs><path id="b" d="M8.456-4.054c0-2.476-1.818-4.366-3.9-4.366-2.128 0-3.91 1.914-3.91 4.366C.646-1.627 2.452.25 4.545.25c2.14 0 3.91-1.901 3.91-4.305m-1.113-.18c0 3.11-1.626 4.21-2.786 4.21-1.22 0-2.799-1.148-2.799-4.21 0-2.93 1.663-3.923 2.787-3.923 1.184 0 2.798 1.029 2.798 3.923"/><path id="a" d="M3.887 2.906c0-.036 0-.06-.203-.263C2.488 1.435 1.818-.538 1.818-2.978c0-2.32.562-4.318 1.95-5.729.119-.108.119-.131.119-.167 0-.072-.06-.096-.108-.096-.155 0-1.136.861-1.722 2.033-.61 1.208-.885 2.488-.885 3.959 0 1.064.168 2.488.79 3.767.705 1.436 1.686 2.213 1.817 2.213.048 0 .108-.024.108-.096"/><path id="c" d="M3.373-2.978c0-.909-.12-2.392-.79-3.78C1.878-8.192.897-8.97.765-8.97c-.047 0-.107.024-.107.096 0 .036 0 .06.203.263C2.057-7.403 2.727-5.43 2.727-2.99c0 2.32-.562 4.318-1.95 5.729-.12.107-.12.131-.12.167 0 .072.06.096.108.096.156 0 1.137-.861 1.723-2.033.61-1.22.885-2.512.885-3.947"/><path id="d" d="M8.504 0v-.347c-.706 0-.993 0-1.268-.418l-2.56-3.828 1.65-2.404c.204-.287.551-.813 1.687-.825v-.347c-.514.024-.646.024-1.256.024-.323 0-1.088 0-1.363-.024v.347c.49.036.646.323.646.526 0 .132-.048.204-.12.311L4.485-4.88 2.87-7.272c-.035-.048-.083-.131-.083-.191 0-.167.25-.359.681-.359v-.347c-.287.024-1.231.024-1.578.024-.335 0-1.172 0-1.46-.024v.347c.898 0 1.017.06 1.268.443l2.237 3.313-2.01 2.93c-.203.299-.585.777-1.662.79V0C.777-.024.91-.024 1.52-.024c.323 0 1.1 0 1.375.024v-.347c-.502-.024-.657-.323-.657-.526 0-.132.06-.215.131-.323l1.758-2.571L6.064-.873c.071.108.083.12.083.167 0 .144-.215.347-.681.36V0c.287-.024 1.22-.024 1.566-.024.335 0 1.185 0 1.472.024"/></defs><path fill="none" stroke="#cfcfcf" stroke-miterlimit="10" stroke-width=".3985" d="M13.042 92.416h79.371M13.042 72.573h79.371M13.042 52.73h79.371M13.042 32.888h79.371M13.042 13.055h79.371M13.042 92.416V13.045m19.843 79.371V13.045m19.843 79.371V13.045M72.57 92.416V13.045m19.833 79.371V13.045M13.042 92.416l79.371-79.371"/><path d="M14.746 92.416a1.704 1.704 0 1 0-3.408 0 1.704 1.704 0 0 0 3.408 0M94.117 13.045a1.704 1.704 0 1 0-3.408 0 1.704 1.704 0 0 0 3.408 0"/><path fill="none" stroke="#000" stroke-linecap="round" stroke-miterlimit="10" stroke-width=".53148" d="M13.042 92.416h39.686V72.573H72.57V32.888h19.843V13.045"/><g transform="translate(102.576 97.664)scale(1.0004)"><use xlink:href="#a" x="-58.981672" y="20.420195"/><use xlink:href="#b" x="-54.424913" y="20.420195"/><use xlink:href="#c" x="-45.311392" y="20.420195"/></g><path fill="none" stroke="#cfcfcf" stroke-miterlimit="10" stroke-width=".3985" d="M119.343 92.416h79.37m-79.37-19.843h79.37m-79.37-19.843h79.37m-79.37-19.842h79.37m-79.37-19.833h79.37m-79.37 79.361V13.045m19.842 79.371V13.045m19.843 79.371V13.045m19.843 79.371V13.045m19.833 79.371V13.045M119.343 92.416l79.37-79.371"/><path d="M121.046 92.416a1.704 1.704 0 1 0-3.407 0 1.704 1.704 0 0 0 3.407 0M200.417 13.045a1.704 1.704 0 1 0-3.407 0 1.704 1.704 0 0 0 3.407 0"/><g fill="none" stroke-linecap="round" stroke-miterlimit="10" stroke-width=".53148"><path stroke="#000" d="M119.343 92.416h39.685V52.73"/><path stroke="red" d="M159.028 52.73V32.888h19.843"/><path stroke="#000" d="M178.87 32.888h19.844V13.045"/></g><g transform="translate(209.044 97.664)scale(1.0004)"><use xlink:href="#a" x="-58.981672" y="20.420195"/><use xlink:href="#d" x="-54.424913" y="20.420195"/><use xlink:href="#c" x="-45.646274" y="20.420195"/></g></svg>