<svg xmlns="http://www.w3.org/2000/svg" xmlns:xlink="http://www.w3.org/1999/xlink" width="440.28pt" height="135.59pt" viewBox="0 0 440.28 135.59"><defs><path id="a" d="M8.396 0v-.347c-.777 0-.993 0-1.16-.49L4.629-8.324c-.048-.144-.072-.215-.24-.215s-.191.035-.25.227l-2.5 7.152C1.47-.67 1.136-.36.37-.347V0l1.148-.024c.335 0 .909 0 1.22.024v-.347c-.502-.012-.801-.263-.801-.598 0-.072 0-.096.06-.251l.55-1.59H5.56L6.22-.91c.06.144.06.167.06.203 0 .36-.61.36-.909.36V0c.275-.024 1.22-.024 1.555-.024s1.196 0 1.47.024M5.442-3.134H2.667l1.387-3.982z"/><path id="b" d="M7.63-2.189c0-.968-.873-1.925-2.296-2.08 1.136-.216 1.962-.981 1.962-1.878 0-1.029-1.04-2.022-2.608-2.022H.514v.347h.24c.86 0 .896.12.896.562v6.351c0 .443-.035.562-.897.562H.514V0h4.497c1.543 0 2.62-1.04 2.62-2.189M6.243-6.147c0 .789-.622 1.782-1.95 1.782H2.56v-2.978c0-.395.024-.479.55-.479h1.508c1.196 0 1.626 1.029 1.626 1.675m.3 3.946c0 .97-.73 1.854-1.903 1.854H3.11c-.527 0-.55-.084-.55-.478v-3.301h2.236c1.148 0 1.746 1.004 1.746 1.925"/><path id="c" d="M7.798-2.775c0-.131 0-.203-.132-.203-.12 0-.131.06-.131.143C7.427-.933 6.04-.095 4.88-.095c-.838 0-3.122-.503-3.122-3.995 0-3.457 2.249-3.983 3.11-3.983 1.256 0 2.356 1.064 2.595 2.858.024.144.024.18.167.18.168 0 .168-.036.168-.275v-2.835c0-.215 0-.275-.12-.275-.071 0-.083.024-.155.144l-.586.945c-.538-.67-1.352-1.089-2.213-1.089C2.536-8.42.646-6.53.646-4.09.646-1.615 2.559.25 4.724.25c1.962 0 3.074-1.71 3.074-3.026"/></defs><path fill="#e9e9e9" d="M48.125 87.704h59.528V28.176Z"/><path fill="none" stroke="#cfcfcf" stroke-miterlimit="10" stroke-width=".3985" d="M28.282 107.547h79.371M28.282 87.704h79.371M28.282 67.861h79.371M28.282 48.02h79.371M28.282 28.186h79.371m-79.371 79.361V28.176m19.843 79.371V28.176m19.843 79.371V28.176m19.842 79.371V28.176m19.833 79.371V28.176M28.282 107.547l79.371-79.371"/><path d="M29.986 107.547a1.704 1.704 0 1 0-3.408 0 1.704 1.704 0 0 0 3.408 0M49.829 87.704a1.704 1.704 0 1 0-3.408 0 1.704 1.704 0 0 0 3.408 0M109.357 28.176a1.704 1.704 0 1 0-3.408 0 1.704 1.704 0 0 0 3.408 0"/><use xlink:href="#a" x="-43.735553" y="35.559271" transform="translate(59.041 84.722)scale(1.0004)"/><use xlink:href="#b" x="-43.735553" y="35.559271" transform="translate(79.374 47.975)scale(1.0004)"/><use xlink:href="#c" x="-43.735553" y="35.559271" transform="translate(155.555 -11.804)scale(1.0004)"/><path fill="none" stroke="#000" stroke-linecap="round" stroke-miterlimit="10" stroke-width=".53148" d="M28.282 107.547h19.843V87.704"/><path fill="none" stroke="#000" stroke-dasharray="2.98883 2.98883" stroke-linecap="round" stroke-miterlimit="10" stroke-width=".53148" d="M49.542 87.704c32.599 0 58.111-25.512 58.111-53.308"/><path d="m107.653 31.059-1.799 4.774 1.799-1.57 1.8 1.57Z"/><path fill="none" stroke="#000" stroke-linecap="round" stroke-miterlimit="10" stroke-width=".53148" d="m107.653 31.059-1.799 4.774 1.799-1.57 1.8 1.57Z"/><path fill="#e9e9e9" d="M154.425 107.547h19.843V87.704ZM174.268 67.861h39.686V28.176Z"/><path fill="none" stroke="#cfcfcf" stroke-miterlimit="10" stroke-width=".3985" d="M134.583 107.547h79.37m-79.37-19.843h79.37m-79.37-19.843h79.37m-79.37-19.842h79.37m-79.37-19.833h79.37m-79.37 79.361V28.176m19.842 79.371V28.176m19.843 79.371V28.176m19.843 79.371V28.176m19.833 79.371V28.176M134.583 107.547l79.37-79.371"/><path d="M136.286 107.547a1.704 1.704 0 1 0-3.407 0 1.704 1.704 0 0 0 3.407 0M175.972 67.861a1.704 1.704 0 1 0-3.408 0 1.704 1.704 0 0 0 3.408 0M215.657 28.176a1.704 1.704 0 1 0-3.407 0 1.704 1.704 0 0 0 3.407 0"/><use xlink:href="#a" x="-43.735553" y="35.559271" transform="translate(165.341 84.722)scale(1.0004)"/><use xlink:href="#b" x="-43.735553" y="35.559271" transform="translate(205.517 28.133)scale(1.0004)"/><use xlink:href="#c" x="-43.735553" y="35.559271" transform="translate(261.856 -11.804)scale(1.0004)"/><g fill="none" stroke="#000" stroke-linecap="round" stroke-miterlimit="10" stroke-width=".53148"><path d="M134.583 107.547h19.842M174.268 87.704V67.861"/><path stroke-dasharray="2.98883 2.98883" d="M155.843 107.547c9.921 0 18.425-8.504 18.425-13.623"/></g><path d="m174.268 90.587-1.799 4.774 1.8-1.57 1.798 1.57Z"/><path fill="none" stroke="#000" stroke-linecap="round" stroke-miterlimit="10" stroke-width=".53148" d="m174.268 90.587-1.799 4.774 1.8-1.57 1.798 1.57Z"/><path fill="none" stroke="#000" stroke-dasharray="2.98883 2.98883" stroke-linecap="round" stroke-miterlimit="10" stroke-width=".53148" d="M175.685 67.861c21.26 0 38.269-17.008 38.269-33.465"/><path d="m213.954 31.059-1.8 4.774 1.8-1.57 1.799 1.57Z"/><path fill="none" stroke="#000" stroke-linecap="round" stroke-miterlimit="10" stroke-width=".53148" d="m213.954 31.059-1.8 4.774 1.8-1.57 1.799 1.57Z"/><path fill="#e9e9e9" d="M260.726 107.547h39.685V67.861ZM300.411 48.019h19.843V28.176Z"/><path fill="none" stroke="#cfcfcf" stroke-miterlimit="10" stroke-width=".3985" d="M240.883 107.547h79.371m-79.37-19.843h79.37m-79.37-19.843h79.37m-79.37-19.842h79.37m-79.37-19.833h79.37m-79.37 79.361V28.176m19.842 79.371V28.176m19.843 79.371V28.176m19.842 79.371V28.176m19.833 79.371V28.176M240.883 107.547l79.371-79.371"/><path d="M242.587 107.547a1.704 1.704 0 1 0-3.408 0 1.704 1.704 0 0 0 3.408 0M302.115 48.019a1.704 1.704 0 1 0-3.407 0 1.704 1.704 0 0 0 3.407 0M321.958 28.176a1.704 1.704 0 1 0-3.408 0 1.704 1.704 0 0 0 3.408 0"/><use xlink:href="#a" x="-43.735553" y="35.559271" transform="translate(271.642 84.722)scale(1.0004)"/><use xlink:href="#b" x="-43.735553" y="35.559271" transform="translate(331.66 8.29)scale(1.0004)"/><use xlink:href="#c" x="-43.735553" y="35.559271" transform="translate(368.156 -11.804)scale(1.0004)"/><g fill="none" stroke="#000" stroke-linecap="round" stroke-miterlimit="10" stroke-width=".53148"><path d="M240.883 107.547h19.843M300.411 67.861V48.02"/><path stroke-dasharray="2.98883 2.98883" d="M262.143 107.547c21.26 0 38.268-17.008 38.268-33.465"/></g><path d="m300.411 70.744-1.799 4.775 1.8-1.57 1.799 1.57Z"/><path fill="none" stroke="#000" stroke-linecap="round" stroke-miterlimit="10" stroke-width=".53148" d="m300.411 70.744-1.799 4.775 1.8-1.57 1.799 1.57Z"/><path fill="none" stroke="#000" stroke-dasharray="2.98883 2.98883" stroke-linecap="round" stroke-miterlimit="10" stroke-width=".53148" d="M301.829 48.019c9.921 0 18.425-8.504 18.425-13.623"/><path d="m320.254 31.059-1.799 4.774 1.8-1.57 1.798 1.57Z"/><path fill="none" stroke="#000" stroke-linecap="round" stroke-miterlimit="10" stroke-width=".53148" d="m320.254 31.059-1.799 4.774 1.8-1.57 1.798 1.57Z"/><path fill="#e9e9e9" d="M367.026 107.547h59.529V48.019Z"/><path d="M348.888 107.547a1.704 1.704 0 1 0-3.408 0 1.704 1.704 0 0 0 3.408 0M428.259 28.176a1.704 1.704 0 1 0-3.408 0 1.704 1.704 0 0 0 3.408 0"/><path fill="none" stroke="#cfcfcf" stroke-miterlimit="10" stroke-width=".3985" d="M347.184 107.547h79.37m-79.37-19.843h79.37m-79.37-19.843h79.37m-79.37-19.842h79.37m-79.37-19.833h79.37m-79.37 79.361V28.176m19.842 79.371V28.176m19.843 79.371V28.176m19.843 79.371V28.176m19.833 79.371V28.176M347.184 107.547l79.37-79.371"/><use xlink:href="#a" x="-43.735553" y="35.559271" transform="translate(377.943 84.722)scale(1.0004)"/><use xlink:href="#b" x="-43.735553" y="35.559271" transform="translate(457.804 -11.553)scale(1.0004)"/><g fill="none" stroke="#000" stroke-linecap="round" stroke-miterlimit="10" stroke-width=".53148"><path d="M347.184 107.547h19.842M426.555 48.019V28.176"/><path stroke-dasharray="2.98883 2.98883" d="M368.444 107.547c32.599 0 58.11-25.512 58.11-53.308"/></g><path d="m426.555 50.902-1.8 4.774 1.8-1.57 1.799 1.57Z"/><path fill="none" stroke="#000" stroke-linecap="round" stroke-miterlimit="10" stroke-width=".53148" d="m426.555 50.902-1.8 4.774 1.8-1.57 1.799 1.57Z"/></svg>