<svg xmlns="http://www.w3.org/2000/svg" xmlns:xlink="http://www.w3.org/1999/xlink" width="587.046" height="180.784" viewBox="-72 -72 440.284 135.588"><defs><path id="a" d="M8.393 0v-.347c-.778 0-.993 0-1.16-.49L4.627-8.32c-.048-.143-.072-.215-.24-.215s-.19.036-.25.227l-2.5 7.15c-.167.49-.501.8-1.266.812V0l1.147-.024c.335 0 .909 0 1.22.024v-.347c-.502-.012-.801-.263-.801-.597 0-.072 0-.096.06-.252l.55-1.59h3.012l.658 1.877c.06.144.06.168.06.204 0 .358-.61.358-.91.358V0c.276-.024 1.22-.024 1.555-.024s1.196 0 1.47.024M5.44-3.132H2.666l1.387-3.981z"/><path id="b" d="M7.627-2.188c0-.968-.872-1.925-2.295-2.08 1.136-.215 1.96-.98 1.96-1.877 0-1.028-1.04-2.02-2.606-2.02H.514v.346h.24c.86 0 .896.12.896.562v6.348c0 .443-.036.562-.897.562H.514V0H5.01c1.542 0 2.618-1.04 2.618-2.188M6.241-6.145c0 .79-.622 1.781-1.95 1.781H2.559V-7.34c0-.395.024-.479.55-.479h1.507c1.195 0 1.626 1.028 1.626 1.674M6.539-2.2c0 .969-.729 1.853-1.9 1.853h-1.53c-.527 0-.55-.083-.55-.478v-3.3h2.235c1.148 0 1.745 1.005 1.745 1.925"/><path id="c" d="M7.795-2.774c0-.131 0-.203-.132-.203-.12 0-.131.06-.131.144-.108 1.9-1.495 2.737-2.654 2.737-.837 0-3.12-.502-3.12-3.993 0-3.455 2.247-3.98 3.108-3.98 1.255 0 2.355 1.063 2.594 2.857.024.143.024.179.167.179.168 0 .168-.036.168-.275v-2.833c0-.216 0-.275-.12-.275-.072 0-.083.023-.155.143l-.586.944c-.538-.669-1.35-1.087-2.212-1.087C2.534-8.416.646-6.528.646-4.09c0 2.475 1.912 4.34 4.076 4.34 1.96 0 3.073-1.71 3.073-3.025"/></defs><g stroke="#000" stroke-miterlimit="10" stroke-width=".4"><path fill="#e9e9e9" stroke="none" d="M-23.875 15.702h59.527v-59.527Z"/><path fill="none" stroke="#d0d0d0" stroke-width=".398504" d="M-43.718 35.545h79.37m-79.37-19.843h79.37M-43.718-4.14h79.37m-79.37-19.843h79.37m-79.37-19.832h79.37m-79.37 79.36v-79.37m19.843 79.37v-79.37m19.842 79.37v-79.37m19.843 79.37v-79.37m19.832 79.37v-79.37M-43.718 35.545l79.37-79.37"/><path stroke="none" d="M-42.014 35.545a1.704 1.704 0 1 0-3.408 0 1.704 1.704 0 0 0 3.408 0M-22.172 15.702a1.704 1.704 0 1 0-3.407 0 1.704 1.704 0 0 0 3.407 0M37.356-43.825a1.704 1.704 0 1 0-3.408 0 1.704 1.704 0 0 0 3.408 0m-1.704 0"/><use xlink:href="#a" x="-43.718" y="35.545" stroke="none" transform="matrix(1 0 0 1 -12.959 12.72)"/><use xlink:href="#b" x="-43.718" y="35.545" stroke="none" transform="matrix(1 0 0 1 7.374 -24.026)"/><use xlink:href="#c" x="-43.718" y="35.545" stroke="none" transform="matrix(1 0 0 1 83.554 -83.805)"/><path fill="none" stroke-linecap="round" stroke-width=".53100658" d="M-43.718 35.545h19.843V15.702"/><g stroke-dasharray="3.0,3.0" stroke-linecap="round" stroke-width=".533"><path fill="none" stroke-width=".53100658" d="M-22.458 15.702c32.598 0 58.11-25.512 58.11-53.307"/><path stroke-dasharray="none" stroke-width=".53100658" d="m35.652-40.943-1.799 4.775 1.8-1.57 1.798 1.57Z"/></g><path fill="#e9e9e9" stroke="none" d="M82.424 35.545h19.842V15.702ZM102.266-4.14h39.685v-39.685Z"/><path fill="none" stroke="#d0d0d0" stroke-width=".398504" d="M62.581 35.545h79.37m-79.37-19.843h79.37M62.581-4.14h79.37m-79.37-19.843h79.37m-79.37-19.832h79.37m-79.37 79.36v-79.37m19.843 79.37v-79.37m19.842 79.37v-79.37m19.843 79.37v-79.37m19.832 79.37v-79.37M62.581 35.545l79.37-79.37"/><path stroke="none" d="M64.285 35.545a1.704 1.704 0 1 0-3.407 0 1.704 1.704 0 0 0 3.407 0M103.97-4.14a1.704 1.704 0 1 0-3.407 0 1.704 1.704 0 0 0 3.407 0M143.655-43.825a1.704 1.704 0 1 0-3.407 0 1.704 1.704 0 0 0 3.407 0m-1.704 0"/><use xlink:href="#a" x="-43.718" y="35.545" stroke="none" transform="matrix(1 0 0 1 93.34 12.72)"/><use xlink:href="#b" x="-43.718" y="35.545" stroke="none" transform="matrix(1 0 0 1 133.515 -43.869)"/><use xlink:href="#c" x="-43.718" y="35.545" stroke="none" transform="matrix(1 0 0 1 189.853 -83.805)"/><path fill="none" stroke-linecap="round" stroke-width=".53100658" d="M62.581 35.545h19.843M102.266 15.702V-4.14"/><g stroke-dasharray="3.0,3.0" stroke-linecap="round" stroke-width=".533"><path fill="none" stroke-width=".53100658" d="M83.841 35.545c9.921 0 18.425-8.504 18.425-13.623"/><path stroke-dasharray="none" stroke-width=".53100658" d="m102.266 18.585-1.799 4.774 1.8-1.57 1.798 1.57Z"/></g><g stroke-dasharray="3.0,3.0" stroke-linecap="round" stroke-width=".533"><path fill="none" stroke-width=".53100658" d="M103.684-4.14c21.26 0 38.267-17.008 38.267-33.465"/><path stroke-dasharray="none" stroke-width=".53100658" d="m141.951-40.943-1.799 4.775 1.8-1.57 1.798 1.57Z"/></g><path fill="#e9e9e9" stroke="none" d="M188.723 35.545h39.685V-4.14ZM228.408-23.983h19.843v-19.842Z"/><path fill="none" stroke="#d0d0d0" stroke-width=".398504" d="M168.88 35.545h79.37m-79.37-19.843h79.37M168.88-4.14h79.37m-79.37-19.843h79.37m-79.37-19.832h79.37m-79.37 79.36v-79.37m19.843 79.37v-79.37m19.843 79.37v-79.37m19.842 79.37v-79.37m19.833 79.37v-79.37M168.88 35.545l79.37-79.37"/><path stroke="none" d="M170.584 35.545a1.704 1.704 0 1 0-3.407 0 1.704 1.704 0 0 0 3.407 0M230.112-23.983a1.704 1.704 0 1 0-3.408 0 1.704 1.704 0 0 0 3.408 0M249.954-43.825a1.704 1.704 0 1 0-3.407 0 1.704 1.704 0 0 0 3.407 0m-1.703 0"/><use xlink:href="#a" x="-43.718" y="35.545" stroke="none" transform="matrix(1 0 0 1 199.64 12.72)"/><use xlink:href="#b" x="-43.718" y="35.545" stroke="none" transform="matrix(1 0 0 1 259.657 -63.711)"/><use xlink:href="#c" x="-43.718" y="35.545" stroke="none" transform="matrix(1 0 0 1 296.152 -83.805)"/><path fill="none" stroke-linecap="round" stroke-width=".53100658" d="M168.88 35.545h19.843M228.408-4.14v-19.843"/><g stroke-dasharray="3.0,3.0" stroke-linecap="round" stroke-width=".533"><path fill="none" stroke-width=".53100658" d="M190.14 35.545c21.26 0 38.268-17.008 38.268-33.465"/><path stroke-dasharray="none" stroke-width=".53100658" d="m228.408-1.258-1.799 4.775 1.8-1.57 1.798 1.57Z"/></g><g stroke-dasharray="3.0,3.0" stroke-linecap="round" stroke-width=".533"><path fill="none" stroke-width=".53100658" d="M229.825-23.983c9.922 0 18.426-8.504 18.426-13.622"/><path stroke-dasharray="none" stroke-width=".53100658" d="m248.25-40.943-1.798 4.775 1.799-1.57 1.799 1.57Z"/></g><path fill="#e9e9e9" stroke="none" d="M295.022 35.545h59.528v-59.528Z"/><path stroke="none" d="M276.884 35.545a1.704 1.704 0 1 0-3.408 0 1.704 1.704 0 0 0 3.408 0M356.254-43.825a1.704 1.704 0 1 0-3.408 0 1.704 1.704 0 0 0 3.408 0m-1.704 0"/><path fill="none" stroke="#d0d0d0" stroke-width=".398504" d="M275.18 35.545h79.37m-79.37-19.843h79.37M275.18-4.14h79.37m-79.37-19.843h79.37m-79.37-19.832h79.37m-79.37 79.36v-79.37m19.842 79.37v-79.37m19.843 79.37v-79.37m19.842 79.37v-79.37m19.833 79.37v-79.37M275.18 35.545l79.37-79.37"/><use xlink:href="#a" x="-43.718" y="35.545" stroke="none" transform="matrix(1 0 0 1 305.939 12.72)"/><use xlink:href="#b" x="-43.718" y="35.545" stroke="none" transform="matrix(1 0 0 1 385.799 -83.554)"/><path fill="none" stroke-linecap="round" stroke-width=".53100658" d="M275.18 35.545h19.842M354.55-23.983v-19.842"/><g stroke-dasharray="3.0,3.0" stroke-linecap="round" stroke-width=".533"><path fill="none" stroke-width=".53100658" d="M296.44 35.545c32.598 0 58.11-25.512 58.11-53.308"/><path stroke-dasharray="none" stroke-width=".53100658" d="m354.55-21.1-1.8 4.774 1.8-1.57 1.799 1.57Z"/></g></g></svg>