<svg xmlns="http://www.w3.org/2000/svg" xmlns:xlink="http://www.w3.org/1999/xlink" width="331.923" height="132.815" viewBox="-72 -72 248.943 99.611"><defs><path id="d" d="M7.865-3.698c0-2.226-1.647-3.993-3.632-3.993C2.28-7.69.61-5.945.61-3.698.61-1.462 2.29.24 4.233.24c1.985 0 3.632-1.735 3.632-3.938m-1.123-.153c0 2.891-1.495 3.807-2.498 3.807-1.048 0-2.51-.96-2.51-3.807 0-2.825 1.593-3.567 2.499-3.567.949 0 2.509.774 2.509 3.567"/><path id="c" d="M3.61 2.618c0-.033 0-.054-.185-.24-1.363-1.374-1.712-3.436-1.712-5.105 0-1.898.414-3.797 1.756-5.16.142-.131.142-.153.142-.186 0-.076-.044-.109-.11-.109-.108 0-1.09.742-1.734 2.127-.556 1.2-.687 2.411-.687 3.328 0 .85.12 2.17.72 3.403.655 1.342 1.593 2.051 1.702 2.051.065 0 .109-.032.109-.109"/><path id="e" d="M3.153-2.727c0-.851-.12-2.171-.72-3.404C1.778-7.473.84-8.18.73-8.18c-.066 0-.11.043-.11.108 0 .033 0 .055.208.251C1.9-6.742 2.52-5.007 2.52-2.727c0 1.865-.404 3.785-1.756 5.16-.142.13-.142.152-.142.185 0 .066.043.11.109.11.109 0 1.09-.743 1.734-2.128.557-1.2.688-2.41.688-3.327"/><path id="f" d="M7.92 0v-.338h-.207c-.568 0-.797-.055-1.026-.393L4.385-4.21 5.88-6.404c.24-.349.61-.698 1.582-.709v-.338l-1.211.033c-.436 0-.96 0-1.396-.033v.338c.436.011.676.251.676.502 0 .11-.022.131-.098.251L4.189-4.516 2.782-6.622c-.022-.033-.077-.12-.077-.163 0-.131.24-.317.71-.328v-.338c-.382.033-1.179.033-1.593.033L.404-7.451v.338H.61c.6 0 .807.077 1.014.382l2.008 3.033-1.79 2.64c-.152.218-.48.72-1.581.72V0l1.21-.033c.404 0 1.004 0 1.397.033v-.338c-.502-.011-.687-.306-.687-.502 0-.098.033-.142.109-.262l1.549-2.29L5.564-.786c.021.043.054.087.054.12 0 .13-.24.316-.709.327V0c.382-.033 1.178-.033 1.593-.033z"/><path id="b" d="M8.393 0v-.347c-.778 0-.993 0-1.16-.49L4.627-8.32c-.048-.143-.072-.215-.24-.215s-.19.036-.25.227l-2.5 7.15c-.167.49-.501.8-1.266.812V0l1.147-.024c.335 0 .909 0 1.22.024v-.347c-.502-.012-.801-.263-.801-.597 0-.072 0-.096.06-.252l.55-1.59h3.012l.658 1.877c.06.144.06.168.06.204 0 .358-.61.358-.91.358V0c.276-.024 1.22-.024 1.555-.024s1.196 0 1.47.024M5.44-3.132H2.666l1.387-3.981z"/><path id="a" d="M7.627-2.188c0-.968-.872-1.925-2.295-2.08 1.136-.215 1.96-.98 1.96-1.877 0-1.028-1.04-2.02-2.606-2.02H.514v.346h.24c.86 0 .896.12.896.562v6.348c0 .443-.036.562-.897.562H.514V0H5.01c1.542 0 2.618-1.04 2.618-2.188M6.241-6.145c0 .79-.622 1.781-1.95 1.781H2.559V-7.34c0-.395.024-.479.55-.479h1.507c1.195 0 1.626 1.028 1.626 1.674M6.539-2.2c0 .969-.729 1.853-1.9 1.853h-1.53c-.527 0-.55-.083-.55-.478v-3.3h2.235c1.148 0 1.745 1.005 1.745 1.925"/></defs><g stroke="#000" stroke-miterlimit="10" stroke-width=".4"><path fill="none" stroke-width=".398504" d="M-60.462 16.073h35.433v-28.346h-35.433Z"/><path fill="none" stroke-width=".398504" d="M-25.03 16.073-8.02 4.735v-28.347"/><path fill="none" stroke-width=".398504" d="M-25.03-12.273-8.02-23.612h-35.433l-17.008 11.339M-44.73-17.943h17.717M-34.242-30.698c0-9.922 25.512-21.26 45.229-21.26"/><path stroke-width=".398504" d="M14.088-51.958 9.621-53.64l1.465 1.682-1.465 1.682Z"/><path fill="none" stroke-width=".398504" d="M22.718-32.116h22.143v-28.346H22.718Z"/><use xlink:href="#a" x="-57.518" y="16.073" stroke="none" transform="matrix(1 0 0 1 87.165 -58.28)"/><g stroke="none" transform="matrix(1 0 0 1 132.004 -46.756)"><use xlink:href="#b" x="-60.462" y="16.073"/><use xlink:href="#b" x="-47.79" y="16.073"/><use xlink:href="#a" x="-35.117" y="16.073"/></g><g stroke="none" transform="matrix(1 0 0 1 140.332 -25.62)"><use xlink:href="#c" x="-60.462" y="16.073"/><use xlink:href="#d" x="-56.219" y="16.073"/><use xlink:href="#e" x="-47.731" y="16.073"/></g><g stroke="none" transform="matrix(1 0 0 1 188.942 -46.756)"><use xlink:href="#b" x="-60.462" y="16.073"/><use xlink:href="#a" x="-47.79" y="16.073"/><use xlink:href="#a" x="-35.607" y="16.073" fill="red"/></g><g stroke="none" transform="matrix(1 0 0 1 197.177 -25.62)"><use xlink:href="#c" x="-60.462" y="16.073"/><use xlink:href="#f" x="-56.219" y="16.073"/><use xlink:href="#e" x="-48.037" y="16.073"/></g></g></svg>