<svg xmlns="http://www.w3.org/2000/svg" xmlns:xlink="http://www.w3.org/1999/xlink" width="140.606" height="160.607" viewBox="-72 -72 105.455 120.455"><defs><path id="a" d="M8.393 0v-.347c-.778 0-.993 0-1.16-.49L4.627-8.32c-.048-.143-.072-.215-.24-.215s-.19.036-.25.227l-2.5 7.15c-.167.49-.501.8-1.266.812V0l1.147-.024c.335 0 .909 0 1.22.024v-.347c-.502-.012-.801-.263-.801-.597 0-.072 0-.096.06-.252l.55-1.59h3.012l.658 1.877c.06.144.06.168.06.204 0 .358-.61.358-.91.358V0c.276-.024 1.22-.024 1.555-.024s1.196 0 1.47.024M5.44-3.132H2.666l1.387-3.981z"/><path id="b" d="M7.627-2.188c0-.968-.872-1.925-2.295-2.08 1.136-.215 1.96-.98 1.96-1.877 0-1.028-1.04-2.02-2.606-2.02H.514v.346h.24c.86 0 .896.12.896.562v6.348c0 .443-.036.562-.897.562H.514V0H5.01c1.542 0 2.618-1.04 2.618-2.188M6.241-6.145c0 .79-.622 1.781-1.95 1.781H2.559V-7.34c0-.395.024-.479.55-.479h1.507c1.195 0 1.626 1.028 1.626 1.674M6.539-2.2c0 .969-.729 1.853-1.9 1.853h-1.53c-.527 0-.55-.083-.55-.478v-3.3h2.235c1.148 0 1.745 1.005 1.745 1.925"/></defs><g stroke="#000" stroke-miterlimit="10" stroke-width=".4"><path fill="none" stroke="#d0d0d0" stroke-width=".398504" d="M-58.958 20.412h79.37M-58.958.57h79.37m-79.37-19.843h79.37m-79.37-19.842h79.37m-79.37-19.833h79.37m-79.37 79.36v-79.37m19.843 79.37v-79.37m19.842 79.37v-79.37M.57 20.412v-79.37m19.832 79.37v-79.37M-58.958 20.412l79.37-79.37"/><path stroke="none" d="M-57.254 20.412a1.704 1.704 0 1 0-3.407 0 1.704 1.704 0 0 0 3.407 0M22.116-58.958a1.704 1.704 0 1 0-3.407 0 1.704 1.704 0 0 0 3.407 0m-1.704 0"/><g stroke-linecap="round" stroke-width=".533"><path fill="none" stroke-width=".53100658" d="M-57.54 20.412h12.205"/><path stroke-width=".53100658" d="m-41.998 20.412-4.774-1.799 1.57 1.8-1.57 1.798Z"/></g><g stroke-linecap="round" stroke-width=".533"><path fill="none" stroke-width=".53100658" d="M-39.115 18.995V6.79"/><path stroke-width=".53100658" d="m-39.115 3.453-1.8 4.774 1.8-1.57 1.799 1.57Z"/></g><g fill="red" stroke="red" stroke-linecap="round" stroke-width=".533"><path fill="none" stroke-width=".53100658" d="M-39.115-.847v-12.206"/><path stroke-width=".53100658" d="m-39.115-16.39-1.8 4.775 1.8-1.57 1.799 1.57Z"/></g><use xlink:href="#a" x="-58.958" y="20.412" stroke="none" transform="matrix(1 0 0 1 5.534 12.72)"/><use xlink:href="#b" x="-58.958" y="20.412" stroke="none" transform="matrix(1 0 0 1 24.026 -5.839)"/><use xlink:href="#b" x="-58.958" y="20.412" stroke="none" transform="matrix(1 0 0 1 24.026 -25.681)"/></g></svg>