<svg xmlns="http://www.w3.org/2000/svg" xmlns:xlink="http://www.w3.org/1999/xlink" width="105.45pt" height="120.46pt" viewBox="0 0 105.45 120.46"><defs><path id="a" d="M8.396 0v-.347c-.777 0-.993 0-1.16-.49L4.629-8.324c-.048-.144-.072-.215-.24-.215s-.191.035-.25.227l-2.5 7.152C1.47-.67 1.136-.36.37-.347V0l1.148-.024c.335 0 .909 0 1.22.024v-.347c-.502-.012-.801-.263-.801-.598 0-.072 0-.096.06-.251l.55-1.59H5.56L6.22-.91c.06.144.06.167.06.203 0 .36-.61.36-.909.36V0c.275-.024 1.22-.024 1.555-.024s1.196 0 1.47.024M5.442-3.134H2.667l1.387-3.982z"/><path id="b" d="M7.63-2.189c0-.968-.873-1.925-2.296-2.08 1.136-.216 1.962-.981 1.962-1.878 0-1.029-1.04-2.022-2.608-2.022H.514v.347h.24c.86 0 .896.12.896.562v6.351c0 .443-.035.562-.897.562H.514V0h4.497c1.543 0 2.62-1.04 2.62-2.189M6.243-6.147c0 .789-.622 1.782-1.95 1.782H2.56v-2.978c0-.395.024-.479.55-.479h1.508c1.196 0 1.626 1.029 1.626 1.675m.3 3.946c0 .97-.73 1.854-1.903 1.854H3.11c-.527 0-.55-.084-.55-.478v-3.301h2.236c1.148 0 1.746 1.004 1.746 1.925"/></defs><path fill="none" stroke="#cfcfcf" stroke-miterlimit="10" stroke-width=".3985" d="M13.042 92.417h79.371M13.042 72.574h79.371M13.042 52.731h79.371M13.042 32.89h79.371M13.042 13.056h79.371M13.042 92.417V13.046m19.843 79.371V13.046m19.843 79.371V13.046M72.57 92.417V13.046m19.833 79.371V13.046M13.042 92.417l79.371-79.371"/><path d="M14.746 92.417a1.704 1.704 0 1 0-3.408 0 1.704 1.704 0 0 0 3.408 0M94.117 13.046a1.704 1.704 0 1 0-3.408 0 1.704 1.704 0 0 0 3.408 0"/><path fill="none" stroke="#000" stroke-linecap="round" stroke-miterlimit="10" stroke-width=".53148" d="M14.46 92.417h12.205"/><path d="m30.002 92.417-4.774-1.8 1.57 1.8-1.57 1.8Z"/><path fill="none" stroke="#000" stroke-linecap="round" stroke-miterlimit="10" stroke-width=".53148" d="m30.002 92.417-4.774-1.8 1.57 1.8-1.57 1.8ZM32.885 91V78.794"/><path d="m32.885 75.457-1.8 4.774 1.8-1.57 1.799 1.57Z"/><path fill="none" stroke="#000" stroke-linecap="round" stroke-miterlimit="10" stroke-width=".53148" d="m32.885 75.457-1.8 4.774 1.8-1.57 1.799 1.57Z"/><path fill="none" stroke="red" stroke-linecap="round" stroke-miterlimit="10" stroke-width=".53148" d="M32.885 71.157V58.952"/><path fill="red" d="m32.885 55.614-1.8 4.775 1.8-1.57 1.799 1.57Z"/><path fill="none" stroke="red" stroke-linecap="round" stroke-miterlimit="10" stroke-width=".53148" d="m32.885 55.614-1.8 4.775 1.8-1.57 1.799 1.57Z"/><use xlink:href="#a" x="-58.981672" y="20.420195" transform="translate(77.534 84.725)scale(1.0004)"/><use xlink:href="#b" x="-58.981672" y="20.420195" transform="translate(96.027 66.166)scale(1.0004)"/><use xlink:href="#b" x="-58.981672" y="20.420195" transform="translate(96.027 46.324)scale(1.0004)"/></svg>