<svg xmlns="http://www.w3.org/2000/svg" xmlns:xlink="http://www.w3.org/1999/xlink" width="518.327" height="136.126" viewBox="-72 -72 388.745 102.095"><defs><path id="a" d="M4.902 0v-.347H4.53c-1.052 0-1.088-.143-1.088-.574v-6.742c0-.275 0-.287-.239-.287-.287.323-.885.765-2.116.765v.347c.275 0 .873 0 1.53-.311v6.228c0 .43-.036.574-1.088.574h-.37V0c.322-.024 1.482-.024 1.877-.024s1.542 0 1.865.024"/><path id="b" d="M5.356-2.044c0-1.1-.885-1.961-2.032-2.164 1.04-.3 1.71-1.172 1.71-2.104 0-.945-.981-1.638-2.14-1.638-1.196 0-2.081.73-2.081 1.602 0 .478.37.574.55.574.25 0 .538-.18.538-.538 0-.383-.287-.55-.55-.55-.072 0-.096 0-.132.012.455-.813 1.579-.813 1.638-.813.395 0 1.172.18 1.172 1.35 0 .228-.036.897-.383 1.411-.358.526-.765.562-1.088.574l-.358.036c-.203.012-.251.024-.251.132 0 .12.06.12.275.12h.55c1.016 0 1.47.836 1.47 1.984 0 1.566-.813 1.984-1.399 1.984-.574 0-1.554-.275-1.9-1.064.382.06.729-.155.729-.586a.565.565 0 0 0-.586-.585c-.287 0-.598.167-.598.621C.49-.622 1.554.251 2.881.251c1.423 0 2.475-1.088 2.475-2.295"/><path id="c" d="M5.26-2.008h-.263c-.036.203-.131.86-.25 1.052-.084.107-.766.107-1.125.107H1.411c.322-.275 1.052-1.04 1.363-1.327C4.59-3.85 5.26-4.47 5.26-5.655c0-1.375-1.088-2.295-2.474-2.295s-2.2 1.183-2.2 2.212c0 .61.526.61.562.61.25 0 .562-.18.562-.563 0-.334-.228-.562-.562-.562a.5.5 0 0 0-.168.012c.227-.813.873-1.362 1.65-1.362 1.016 0 1.638.848 1.638 1.948 0 1.016-.586 1.901-1.267 2.666L.586-.287V0h4.363z"/></defs><g stroke="#000" stroke-miterlimit="10" stroke-width=".4"><path fill="none" stroke-width=".398504" d="M-60.462-37.234v55.791h25.512v-55.79"/><g stroke="none" transform="matrix(1 0 0 1 41.452 -7.98)"><use xlink:href="#a" x="-57.075" y="-37.234"/><path d="M-60.462-48.571h12.633v.399h-12.633z"/><path d="M-60.462-48.372h.399v14.326h-.399zM-48.228-48.372h.399v14.326h-.399z"/><path d="M-60.462-34.245h12.633v.399h-12.633z"/><use xlink:href="#b" x="-45.837" y="-37.234"/><use xlink:href="#c" x="-39.979" y="-37.234"/></g><path fill="none" stroke-width=".398504" d="M52.924-37.234v55.791h25.511v-55.79"/><g stroke="none" transform="matrix(1 0 0 1 65.565 -7.98)"><use xlink:href="#a" x="-37.827" y="-37.234"/><path d="M-41.214-48.571h12.633v.399h-12.633z"/><path d="M-41.214-48.372h.399v14.326h-.399zM-28.98-48.372h.399v14.326h-.399z"/><path d="M-41.214-34.245h12.633v.399h-12.633z"/></g><g stroke="none" transform="matrix(1 0 0 1 154.838 -8.106)"><use xlink:href="#b" x="-57.075" y="-37.234"/><use xlink:href="#c" x="-51.217" y="-37.234"/><path d="M-60.462-48.571h18.491v.399h-18.491z"/><path d="M-60.462-48.372h.399v14.577h-.399zM-42.37-48.372h.399v14.577h-.399z"/><path d="M-60.462-33.994h18.491v.399h-18.491z"/></g><path fill="none" stroke-width=".398504" d="M52.032-51.181c.892 0 6.87 5.977 6.87 11.821"/><path stroke-width=".398504" d="M48.93-51.181 53.4-49.5l-1.466-1.681 1.466-1.682Z"/><path fill="none" stroke-width=".398504" d="M72.458-42.32c0-2.884 5.977-8.861 9.83-8.861"/><path stroke-width=".398504" d="m72.458-39.218 1.682-4.468-1.682 1.465-1.682-1.465Z"/><path fill="none" stroke-width=".398504" d="M166.31-37.234v55.791h25.511v-55.79"/><use xlink:href="#b" x="-60.462" y="-37.234" stroke="none" transform="matrix(1 0 0 1 236.599 47.685)"/><use xlink:href="#c" x="-60.462" y="-37.234" stroke="none" transform="matrix(1 0 0 1 236.599 27.885)"/><use xlink:href="#a" x="-34.44" y="-37.234" stroke="none" transform="matrix(1 0 0 1 178.951 -7.98)"/><path fill="none" stroke-width=".398504" d="M185.844-42.32c0-2.884 5.977-8.861 9.829-8.861"/><path stroke-width=".398504" d="m185.844-39.218 1.682-4.468-1.682 1.465-1.682-1.465Z"/><path fill="none" stroke-width=".398504" d="M279.695-37.234v55.791h25.512v-55.79"/><g stroke="none" transform="matrix(1 0 0 1 292.337 -8.106)"><use xlink:href="#a" x="-54.923" y="-37.234"/><use xlink:href="#c" x="-43.685" y="-37.234"/><use xlink:href="#b" x="-37.827" y="-37.234"/><path d="M-47.072-48.571h18.491v.399h-18.491z"/><path d="M-47.072-48.372h.399v14.577h-.399zM-28.98-48.372h.399v14.577h-.399z"/><path d="M-47.072-33.994h18.491v.399h-18.491z"/></g><path fill="none" stroke-width=".398504" d="M278.804-51.181c.891 0 6.869 5.977 6.869 11.821"/><path stroke-width=".398504" d="m275.702-51.181 4.468 1.681-1.465-1.681 1.465-1.682Z"/></g></svg>