<svg xmlns="http://www.w3.org/2000/svg" xmlns:xlink="http://www.w3.org/1999/xlink" width="304.07pt" height="264.12pt" viewBox="0 0 304.07 264.12"><defs><path id="w" d="M2.464-3.504c.024-.072.323-.67.765-1.053a1.74 1.74 0 0 1 1.184-.478c.479 0 .646.359.646.837 0 .682-.49 2.045-.73 2.691-.107.287-.167.443-.167.658 0 .538.37.969.945.969 1.112 0 1.53-1.759 1.53-1.83 0-.06-.047-.108-.119-.108-.107 0-.12.036-.18.24C6.065-.599 5.61-.12 5.144-.12c-.12 0-.311-.012-.311-.394 0-.3.131-.658.203-.826.24-.657.742-1.997.742-2.679 0-.717-.419-1.255-1.328-1.255-1.064 0-1.626.753-1.842 1.052-.036-.682-.526-1.052-1.052-1.052-.383 0-.646.227-.85.634C.49-4.21.324-3.492.324-3.444s.048.107.131.107c.096 0 .108-.012.18-.287.191-.73.407-1.411.885-1.411.275 0 .37.191.37.55 0 .263-.119.73-.203 1.1l-.335 1.292c-.047.227-.179.765-.239.98C1.03-.8.897-.238.897-.178c0 .167.132.299.311.299a.46.46 0 0 0 .407-.252c.024-.06.131-.478.191-.717l.263-1.077z"/><path id="E" d="M2.404-4.808h1.1c.228 0 .347 0 .347-.215 0-.132-.072-.132-.31-.132H2.487L2.93-6.9c.048-.167.048-.191.048-.275 0-.191-.155-.299-.31-.299-.097 0-.372.036-.467.419l-.467 1.901H.61c-.24 0-.347 0-.347.227 0 .12.084.12.311.12H1.64L.849-1.65c-.096.418-.131.538-.131.693C.718-.395 1.112.12 1.782.12c1.208 0 1.854-1.747 1.854-1.83 0-.072-.048-.108-.12-.108-.024 0-.072 0-.095.048-.012.012-.024.024-.108.215C3.062-.957 2.512-.12 1.818-.12c-.359 0-.383-.299-.383-.562 0-.012 0-.239.036-.382z"/><path id="v" d="M1.594-1.307c.024-.12.104-.422.128-.542.111-.43.111-.438.294-.701.263-.39.638-.742 1.172-.742.287 0 .454.168.454.542 0 .439-.334 1.347-.486 1.738-.103.263-.103.31-.103.414 0 .455.374.678.717.678.78 0 1.108-1.116 1.108-1.22 0-.08-.064-.103-.12-.103-.096 0-.111.055-.135.135-.192.654-.526.965-.83.965-.127 0-.19-.08-.19-.263s.063-.36.143-.558c.12-.303.47-1.22.47-1.666 0-.598-.414-.885-.988-.885-.646 0-1.06.39-1.291.694-.056-.439-.407-.694-.813-.694-.287 0-.486.184-.614.43a3.2 3.2 0 0 0-.27.79c0 .071.055.103.119.103.103 0 .111-.032.167-.239.096-.39.24-.86.574-.86.207 0 .255.199.255.374 0 .143-.04.295-.104.558a43 43 0 0 1-.167.645L.789-.518c-.032.12-.08.319-.08.35C.71.017.861.08.964.08a.39.39 0 0 0 .32-.192c.023-.047.087-.318.127-.486z"/><path id="s" d="M.96-.644c-.033.164-.098.415-.098.47 0 .196.153.294.316.294.131 0 .328-.087.404-.305.01-.022.142-.535.207-.808l.24-.982c.066-.24.131-.48.186-.73.043-.186.13-.503.142-.546.163-.338.741-1.331 1.778-1.331.49 0 .589.403.589.764 0 .676-.535 2.072-.71 2.542-.097.25-.108.381-.108.501 0 .513.382.895.894.895 1.026 0 1.43-1.593 1.43-1.68 0-.11-.099-.11-.131-.11-.11 0-.11.033-.164.197C5.717-.73 5.357-.12 4.822-.12c-.185 0-.262-.11-.262-.36 0-.273.099-.535.197-.775.207-.578.665-1.778.665-2.4 0-.73-.469-1.167-1.254-1.167-.982 0-1.517.698-1.702.949-.055-.611-.502-.95-1.004-.95s-.71.426-.818.623a5.5 5.5 0 0 0-.328 1.058c0 .109.11.109.131.109.11 0 .12-.01.186-.25.185-.776.403-1.3.796-1.3.218 0 .338.143.338.503 0 .229-.032.349-.174.916z"/><path id="z" d="M5.669-1.064v-.67h-.263v.67c0 .681-.287.777-.455.777-.454 0-.454-.634-.454-.813v-2.093c0-.646 0-1.125-.526-1.591-.419-.383-.957-.55-1.483-.55-.981 0-1.735.646-1.735 1.423 0 .347.228.514.503.514.287 0 .49-.203.49-.49 0-.49-.43-.49-.61-.49.275-.503.85-.718 1.328-.718.55 0 1.256.455 1.256 1.53v.48C1.316-3.05.407-2.046.407-1.126c0 .946 1.1 1.245 1.83 1.245A1.63 1.63 0 0 0 3.79-.933c.048.562.419.993.933.993.251 0 .945-.168.945-1.124m-1.95-.622C3.72-.514 2.847-.12 2.333-.12c-.586 0-1.076-.43-1.076-1.004 0-1.579 2.033-1.722 2.464-1.746z"/><path id="m" d="M6.16 0v-.347c-.814 0-.91-.084-.91-.67V-8.3l-1.662.131v.347c.813 0 .909.084.909.67v2.643a1.86 1.86 0 0 0-1.495-.765C1.615-5.274.419-4.102.419-2.571c0 1.519 1.136 2.69 2.451 2.69.91 0 1.436-.597 1.603-.825V.12zM4.472-1.4c0 .216 0 .252-.167.515-.287.419-.778.765-1.376.765-.31 0-1.602-.12-1.602-2.44 0-.86.143-1.339.406-1.734.24-.37.718-.741 1.316-.741.741 0 1.16.538 1.28.73.143.203.143.227.143.442z"/><path id="x" d="M4.868-1.423c0-.072-.06-.12-.132-.12-.096 0-.12.06-.143.12C4.282-.42 3.48-.143 2.978-.143s-1.71-.335-1.71-2.404v-.228H4.58c.263 0 .287 0 .287-.227 0-1.208-.646-2.332-2.093-2.332C1.41-5.334.359-4.102.359-2.62.359-1.041 1.579.12 2.906.12c1.424 0 1.962-1.292 1.962-1.543m-.742-1.579H1.28c.095-1.878 1.148-2.093 1.483-2.093 1.28 0 1.351 1.686 1.363 2.093"/><path id="l" d="M6.231 0v-.347c-.598 0-.897 0-.909-.359v-2.2c0-1.113 0-1.447-.275-1.83-.347-.467-.909-.538-1.315-.538-1.029 0-1.507.777-1.675 1.148h-.012V-8.3L.383-8.17v.347c.813 0 .909.084.909.67v6.267c0 .538-.132.538-.91.538V0c.312-.024.958-.024 1.292-.024.347 0 .993 0 1.304.024v-.347c-.765 0-.909 0-.909-.538V-3.11c0-1.255.825-1.925 1.567-1.925s.909.61.909 1.34v2.81c0 .538-.132.538-.91.538V0c.312-.024.958-.024 1.293-.024.346 0 .992 0 1.303.024"/><path id="D" d="M2.882 0v-.347c-.777 0-.825-.06-.825-.526v-4.401l-1.626.131v.347c.765 0 .873.072.873.658v3.253c0 .538-.132.538-.91.538V0c.336-.024.91-.024 1.256-.024.132 0 .826 0 1.232.024m-.67-7.224a.58.58 0 1 0-.586.574.576.576 0 0 0 .587-.574"/><path id="y" d="M2.966 0v-.347c-.765 0-.909 0-.909-.538V-8.3L.395-8.17v.347c.813 0 .909.084.909.67v6.267c0 .538-.132.538-.91.538V0c.336-.024.922-.024 1.28-.024s.957 0 1.292.024"/><path id="k" d="M9.484 0v-.347c-.598 0-.897 0-.909-.359v-2.2c0-1.113 0-1.447-.275-1.83-.347-.467-.909-.538-1.315-.538-.993 0-1.495.717-1.687 1.184-.167-.921-.813-1.184-1.566-1.184-1.16 0-1.615.992-1.71 1.232h-.013v-1.232l-1.626.131v.347c.813 0 .909.084.909.67v3.241c0 .538-.132.538-.91.538V0c.312-.024.958-.024 1.292-.024.347 0 .993 0 1.304.024v-.347c-.765 0-.909 0-.909-.538V-3.11c0-1.255.825-1.925 1.567-1.925s.909.61.909 1.34v2.81c0 .538-.132.538-.91.538V0c.312-.024.958-.024 1.293-.024.346 0 .992 0 1.303.024v-.347c-.765 0-.909 0-.909-.538V-3.11c0-1.255.825-1.925 1.567-1.925s.909.61.909 1.34v2.81c0 .538-.132.538-.909.538V0c.31-.024.957-.024 1.292-.024.346 0 .992 0 1.303.024"/><path id="j" d="M4.904 0v-.347h-.371C3.48-.347 3.444-.49 3.444-.92v-6.745c0-.275 0-.287-.239-.287-.287.323-.885.765-2.117.765v.347c.275 0 .873 0 1.531-.311v6.231c0 .43-.036.574-1.088.574h-.37V0c.322-.024 1.482-.024 1.877-.024s1.543 0 1.866.024"/><path id="A" d="M6.076-2.583c0-1.52-1.125-2.691-2.428-2.691-1.053 0-1.615.753-1.65.801v-.801l-1.663.131v.347c.837 0 .909.084.909.61v5.621c0 .538-.132.538-.91.538v.347c.312-.024.958-.024 1.293-.024.346 0 .992 0 1.303.024v-.347c-.765 0-.909 0-.909-.538v-2.08c.216.298.706.765 1.471.765 1.376 0 2.584-1.16 2.584-2.703m-.91 0c0 1.423-.813 2.463-1.733 2.463a1.4 1.4 0 0 1-.957-.382c-.275-.275-.455-.515-.455-.85v-2.463c0-.227 0-.24.132-.43a1.72 1.72 0 0 1 1.4-.766c.896 0 1.614 1.088 1.614 2.428"/><path id="B" d="M4.21-1.519c0-.646-.395-1.028-.502-1.136-.431-.37-.754-.443-1.543-.586-.359-.072-1.232-.24-1.232-.957 0-.37.251-.92 1.327-.92 1.304 0 1.376 1.111 1.4 1.482.012.096.095.096.131.096.132 0 .132-.06.132-.275V-5.06c0-.215 0-.275-.12-.275-.095 0-.323.263-.406.37-.371-.298-.742-.37-1.125-.37-1.447 0-1.877.79-1.877 1.447 0 .132 0 .55.454.969.383.335.79.418 1.34.526.657.132.813.167 1.112.407.215.179.37.442.37.777 0 .514-.298 1.088-1.35 1.088C1.53-.12.956-.574.693-1.77c-.048-.215-.06-.24-.06-.24-.024-.047-.072-.047-.108-.047-.131 0-.131.06-.131.275v1.627c0 .215 0 .275.12.275.06 0 .071-.012.274-.264.06-.083.06-.107.24-.299.454.563 1.1.563 1.303.563C3.588.12 4.21-.574 4.21-1.52"/><path id="C" d="M3.899-1.483v-.682h-.263v.658c0 .861-.347 1.363-.813 1.363-.814 0-.814-1.112-.814-1.315v-3.349h1.687v-.347H2.009v-2.2h-.263c-.012 1.124-.442 2.272-1.53 2.308v.24h1.016v3.324C1.232-.155 2.117.12 2.75.12c.753 0 1.148-.742 1.148-1.603"/><path id="n" d="M5.956-4.808v-.347c-.347.024-.514.024-.897.024l-.969-.024v.347c.443.024.55.3.55.514 0 .108-.023.168-.071.287L3.349-.993 2.02-4.246c-.072-.167-.072-.251-.072-.251 0-.31.42-.31.658-.31v-.348c-.31.024-.897.024-1.232.024l-1.16-.024v.347c.694 0 .79.06.945.43L2.942 0c-.526 1.268-.526 1.292-.574 1.387-.203.36-.526.814-1.064.814-.371 0-.598-.216-.598-.216s.418-.047.418-.466a.433.433 0 0 0-.442-.443c-.204 0-.455.12-.455.467 0 .454.443.897 1.077.897.67 0 1.16-.586 1.47-1.34l2.07-5.095c.323-.801.885-.813 1.112-.813"/><path id="r" d="M3.611 2.618c0-.032 0-.054-.185-.24-1.364-1.374-1.713-3.436-1.713-5.105 0-1.899.414-3.797 1.756-5.16.142-.132.142-.154.142-.186 0-.077-.043-.11-.109-.11-.109 0-1.09.742-1.735 2.128-.556 1.2-.687 2.411-.687 3.327 0 .851.12 2.172.72 3.404.655 1.342 1.593 2.052 1.702 2.052.066 0 .11-.033.11-.11"/><path id="t" d="M3.153-2.727c0-.851-.12-2.172-.72-3.404C1.778-7.473.84-8.182.73-8.182c-.065 0-.11.043-.11.109 0 .032 0 .054.208.25C1.9-6.742 2.52-5.007 2.52-2.726c0 1.865-.403 3.785-1.756 5.16-.142.13-.142.153-.142.185 0 .066.044.11.109.11.11 0 1.091-.742 1.735-2.128.556-1.2.687-2.411.687-3.327"/><path id="u" d="m1.386-.84 1.156-1.124C4.244-3.469 4.899-4.059 4.899-5.15c0-1.243-.982-2.116-2.313-2.116a2.016 2.016 0 0 0-2.04 1.975c0 .61.545.61.578.61.185 0 .567-.13.567-.578a.55.55 0 0 0-.578-.567c-.087 0-.11 0-.142.011.25-.71.84-1.113 1.473-1.113.993 0 1.462.884 1.462 1.778 0 .873-.546 1.735-1.146 2.412L.666-.404c-.12.12-.12.142-.12.404h4.047L4.9-1.898h-.273c-.055.327-.131.807-.24.97-.077.088-.797.088-1.037.088z"/><path id="q" d="M2.422-1.877c-.95 0-.95-1.09-.95-1.341 0-.295.012-.644.175-.917.088-.13.339-.436.775-.436.95 0 .95 1.09.95 1.342 0 .294-.012.643-.175.916-.088.131-.339.436-.775.436m-1.266.426c0-.044 0-.295.186-.513.425.306.873.338 1.08.338 1.015 0 1.767-.752 1.767-1.592 0-.404-.174-.808-.447-1.059.393-.37.786-.425.982-.425a.4.4 0 0 1 .11.01c-.12.044-.175.164-.175.295a.31.31 0 0 0 .316.317c.11 0 .316-.077.316-.328a.534.534 0 0 0-.556-.534c-.218 0-.698.065-1.157.513a1.82 1.82 0 0 0-1.156-.393C1.407-4.822.655-4.07.655-3.23c0 .48.24.894.512 1.123A1.5 1.5 0 0 0 .83-1.2c0 .338.142.753.48.97C.655-.043.305.426.305.863c0 .785 1.08 1.385 2.412 1.385 1.287 0 2.422-.556 2.422-1.407 0-.382-.153-.938-.71-1.244-.578-.305-1.21-.305-1.876-.305-.273 0-.742 0-.818-.011-.35-.044-.579-.382-.579-.731m1.572 3.448C1.626 1.997.873 1.44.873.862c0-.502.414-.906.894-.938h.644c.938 0 2.16 0 2.16.938 0 .589-.774 1.135-1.843 1.135"/><path id="p" d="m1.931-7.572-1.571.12v.339c.764 0 .851.076.851.61v5.674c0 .49-.12.49-.851.49V0c.36-.01.938-.033 1.211-.033S2.378-.01 2.782 0v-.338c-.73 0-.85 0-.85-.491z"/><path id="c" d="M2.503-5.077c0-.215-.016-.223-.232-.223-.326.319-.749.51-1.506.51v.263c.215 0 .646 0 1.108-.215v4.088c0 .295-.024.391-.781.391h-.28V0c.328-.024 1.013-.024 1.372-.024s1.052 0 1.379.024v-.263h-.28c-.757 0-.78-.096-.78-.39z"/><path id="d" d="M2.248-1.626c.127-.12.462-.382.59-.494.493-.454.964-.893.964-1.618 0-.948-.797-1.562-1.794-1.562-.956 0-1.586.725-1.586 1.435 0 .39.311.446.423.446a.41.41 0 0 0 .414-.423c0-.414-.398-.414-.494-.414a1.23 1.23 0 0 1 1.156-.781c.741 0 1.124.63 1.124 1.3 0 .828-.582 1.434-1.523 2.398L.518-.303C.422-.215.422-.199.422 0h3.149l.23-1.427h-.246c-.024.16-.088.558-.184.71-.048.063-.653.063-.78.063H1.17z"/><path id="e" d="M2.016-2.662c.63 0 1.029.462 1.029 1.3 0 .995-.566 1.29-.989 1.29-.438 0-1.036-.16-1.315-.582.287 0 .486-.183.486-.446a.423.423 0 0 0-.438-.438c-.215 0-.438.135-.438.454 0 .757.813 1.251 1.721 1.251 1.06 0 1.801-.733 1.801-1.53 0-.661-.526-1.267-1.339-1.442.63-.224 1.1-.766 1.1-1.403S2.917-5.3 2.088-5.3C1.235-5.3.59-4.838.59-4.232c0 .295.199.422.406.422a.39.39 0 0 0 .407-.406c0-.295-.255-.407-.43-.415.334-.438.948-.462 1.091-.462.207 0 .813.064.813.885 0 .558-.231.892-.343 1.02-.239.247-.422.263-.908.295-.152.008-.215.016-.215.12 0 .111.071.111.207.111z"/><path id="f" d="M3.14-5.157c0-.159 0-.223-.167-.223-.104 0-.112.008-.191.12L.239-1.57v.263h2.248v.661c0 .295-.024.383-.638.383h-.183V0c.677-.024.693-.024 1.147-.024s.47 0 1.148.024v-.263h-.183c-.614 0-.638-.088-.638-.383v-.661h.845v-.263H3.14zm-.598.646v2.94H.518z"/><path id="g" d="M1.116-4.48c.103.033.422.112.757.112.996 0 1.602-.7 1.602-.82 0-.088-.056-.112-.096-.112-.016 0-.032 0-.103.04-.311.12-.678.215-1.108.215-.47 0-.86-.12-1.108-.215C.98-5.3.964-5.3.956-5.3c-.103 0-.103.088-.103.231v2.335c0 .144 0 .24.127.24.064 0 .088-.032.128-.096.095-.12.398-.526 1.076-.526.446 0 .661.366.733.518.136.287.151.653.151.964 0 .295-.008.725-.23 1.076a1.07 1.07 0 0 1-.893.486A1.295 1.295 0 0 1 .733-.917c.024.008.072.008.08.008.223 0 .398-.143.398-.39 0-.295-.23-.399-.39-.399-.144 0-.399.08-.399.423 0 .717.622 1.442 1.539 1.442.996 0 1.84-.773 1.84-1.761 0-.925-.669-1.745-1.61-1.745-.398 0-.772.127-1.075.398z"/><path id="h" d="M1.1-2.638c0-.662.056-1.243.343-1.73.239-.398.645-.725 1.147-.725.16 0 .526.024.71.303-.36.016-.39.287-.39.375-.001.239.182.374.374.374.143 0 .374-.087.374-.39 0-.479-.358-.869-1.076-.869C1.474-5.3.351-4.248.351-2.526.35-.366 1.355.167 2.128.167c.383 0 .797-.103 1.156-.446.318-.31.59-.646.59-1.339 0-1.044-.79-1.777-1.674-1.777-.574 0-.917.366-1.1.757M2.128-.072c-.422 0-.685-.295-.805-.518-.183-.358-.2-.9-.2-1.203 0-.79.431-1.38 1.045-1.38.398 0 .637.208.789.487.167.295.167.654.167 1.06s0 .757-.16 1.044c-.206.367-.485.51-.836.51"/><path id="i" d="M4.033-4.854c.072-.087.072-.103.072-.279H2.08c-.2 0-.446-.008-.645-.024-.415-.031-.423-.103-.447-.23H.741l-.27 1.68h.246c.016-.119.104-.669.215-.732.088-.04.686-.04.805-.04h1.69l-.82 1.1c-.91 1.211-1.1 2.47-1.1 3.1 0 .08 0 .446.374.446s.375-.358.375-.454v-.382c0-1.148.19-2.089.581-2.607z"/><path id="b" d="M5.358-3.827c0-.993-.06-1.962-.49-2.87-.49-.993-1.352-1.256-1.938-1.256-.693 0-1.543.346-1.985 1.34C.61-5.86.49-5.12.49-3.828c0 1.16.084 2.033.515 2.882A2.13 2.13 0 0 0 2.918.251c1.04 0 1.639-.622 1.986-1.315.43-.897.454-2.07.454-2.763M2.918.012c-.382 0-1.16-.215-1.387-1.519-.132-.718-.132-1.627-.132-2.464 0-.98 0-1.865.192-2.571.203-.801.813-1.172 1.327-1.172.455 0 1.148.275 1.376 1.303.155.682.155 1.627.155 2.44 0 .802 0 1.71-.131 2.44C4.09-.215 3.337.012 2.918.012"/><path id="a" d="M3.444-7.666c0-.275 0-.287-.239-.287-.287.323-.885.765-2.117.765v.347c.275 0 .873 0 1.531-.311v6.231c0 .43-.036.574-1.088.574h-.37V0c.322-.024 1.482-.024 1.877-.024s1.543 0 1.866.024v-.347h-.371C3.48-.347 3.444-.49 3.444-.92z"/><clipPath id="o"><path d="M53.905 221.822H292.54V11.53H53.905Z"/></clipPath></defs><g fill="none" stroke-miterlimit="10"><path stroke="gray" stroke-width=".19925" d="M53.905 221.822v-2.83m3.304 2.83v-2.83m2.7 2.83v-2.83m2.282 2.83v-2.83m1.976 2.83v-2.83m1.745 2.83v-2.83m1.56 2.83v-2.83m10.262 2.83v-2.83m6.003 2.83v-2.83m4.259 2.83v-2.83m3.304 2.83v-2.83m2.7 2.83v-2.83m2.281 2.83v-2.83m1.977 2.83v-2.83m1.744 2.83v-2.83m1.56 2.83v-2.83m10.262 2.83v-2.83m6.003 2.83v-2.83m4.26 2.83v-2.83m3.303 2.83v-2.83m2.7 2.83v-2.83m2.282 2.83v-2.83m1.977 2.83v-2.83m1.744 2.83v-2.83m1.56 2.83v-2.83m10.262 2.83v-2.83m6.003 2.83v-2.83m4.26 2.83v-2.83m3.303 2.83v-2.83m2.7 2.83v-2.83m2.282 2.83v-2.83m1.976 2.83v-2.83m1.744 2.83v-2.83m1.56 2.83v-2.83m10.263 2.83v-2.83m6.002 2.83v-2.83m4.26 2.83v-2.83m3.303 2.83v-2.83m2.7 2.83v-2.83m2.282 2.83v-2.83m1.977 2.83v-2.83m1.744 2.83v-2.83m1.56 2.83v-2.83m10.262 2.83v-2.83m6.003 2.83v-2.83m4.26 2.83v-2.83m3.303 2.83v-2.83m2.7 2.83v-2.83m2.282 2.83v-2.83m1.976 2.83v-2.83m1.745 2.83v-2.83m1.56 2.83v-2.83m10.262 2.83v-2.83m6.003 2.83v-2.83m4.259 2.83v-2.83m3.304 2.83v-2.83m2.7 2.83v-2.83m2.281 2.83v-2.83m1.977 2.83v-2.83m1.744 2.83v-2.83m1.56 2.83v-2.83m10.262 2.83v-2.83m6.003 2.83v-2.83m4.26 2.83v-2.83M53.904 11.531v2.83m3.304-2.83v2.83m2.7-2.83v2.83m2.282-2.83v2.83m1.976-2.83v2.83m1.745-2.83v2.83m1.56-2.83v2.83m10.262-2.83v2.83m6.003-2.83v2.83m4.259-2.83v2.83m3.304-2.83v2.83m2.7-2.83v2.83m2.281-2.83v2.83m1.977-2.83v2.83m1.744-2.83v2.83m1.56-2.83v2.83m10.262-2.83v2.83m6.003-2.83v2.83m4.26-2.83v2.83m3.303-2.83v2.83m2.7-2.83v2.83m2.282-2.83v2.83m1.977-2.83v2.83m1.744-2.83v2.83m1.56-2.83v2.83m10.262-2.83v2.83m6.003-2.83v2.83m4.26-2.83v2.83m3.303-2.83v2.83m2.7-2.83v2.83m2.282-2.83v2.83m1.976-2.83v2.83m1.744-2.83v2.83m1.56-2.83v2.83m10.263-2.83v2.83m6.002-2.83v2.83m4.26-2.83v2.83m3.303-2.83v2.83m2.7-2.83v2.83m2.282-2.83v2.83m1.977-2.83v2.83m1.744-2.83v2.83m1.56-2.83v2.83m10.262-2.83v2.83m6.003-2.83v2.83m4.26-2.83v2.83m3.303-2.83v2.83m2.7-2.83v2.83m2.282-2.83v2.83m1.976-2.83v2.83m1.745-2.83v2.83m1.56-2.83v2.83m10.262-2.83v2.83m6.003-2.83v2.83m4.259-2.83v2.83m3.304-2.83v2.83m2.7-2.83v2.83m2.281-2.83v2.83m1.977-2.83v2.83m1.744-2.83v2.83m1.56-2.83v2.83m10.262-2.83v2.83m6.003-2.83v2.83m4.26-2.83v2.83M67.472 221.822v-4.244m34.09 4.244v-4.244m34.09 4.244v-4.244m34.091 4.244v-4.244m34.091 4.244v-4.244m34.09 4.244v-4.244m34.091 4.244v-4.244M67.472 11.53v4.244m34.09-4.244v4.244m34.09-4.244v4.244m34.091-4.244v4.244m34.091-4.244v4.244m34.09-4.244v4.244m34.091-4.244v4.244"/><path stroke="#000" stroke-width=".3985" d="M53.905 221.822V11.53H292.54v210.29z"/></g><g transform="translate(55.304 108.344)scale(1.0004)"><use xlink:href="#a" x="3.949585" y="127.188045"/><use xlink:href="#b" x="9.798025" y="127.188045"/></g><use xlink:href="#c" x="15.653804" y="122.797459" transform="matrix(.99999 0 0 .99999 55.304 108.344)"/><g transform="translate(89.395 108.344)scale(1.0004)"><use xlink:href="#a" x="3.949585" y="127.188045"/><use xlink:href="#b" x="9.798025" y="127.188045"/></g><use xlink:href="#d" x="15.653804" y="122.797459" transform="matrix(.99999 0 0 .99999 89.395 108.344)"/><g transform="translate(123.486 108.344)scale(1.0004)"><use xlink:href="#a" x="3.949585" y="127.188045"/><use xlink:href="#b" x="9.798025" y="127.188045"/></g><use xlink:href="#e" x="15.653804" y="122.797459" transform="matrix(.99999 0 0 .99999 123.486 108.344)"/><g transform="translate(157.576 108.344)scale(1.0004)"><use xlink:href="#a" x="3.949585" y="127.188045"/><use xlink:href="#b" x="9.798025" y="127.188045"/></g><use xlink:href="#f" x="15.653804" y="122.797459" transform="matrix(.99999 0 0 .99999 157.576 108.344)"/><g transform="translate(191.667 108.344)scale(1.0004)"><use xlink:href="#a" x="3.949585" y="127.188045"/><use xlink:href="#b" x="9.798025" y="127.188045"/></g><use xlink:href="#g" x="15.653804" y="122.797459" transform="matrix(.99999 0 0 .99999 191.667 108.344)"/><g transform="translate(225.757 108.344)scale(1.0004)"><use xlink:href="#a" x="3.949585" y="127.188045"/><use xlink:href="#b" x="9.798025" y="127.188045"/></g><use xlink:href="#h" x="15.653804" y="122.797459" transform="matrix(.99999 0 0 .99999 225.757 108.344)"/><g transform="translate(259.848 108.344)scale(1.0004)"><use xlink:href="#a" x="3.949585" y="127.188045"/><use xlink:href="#b" x="9.798025" y="127.188045"/></g><use xlink:href="#i" x="15.653804" y="122.797459" transform="matrix(.99999 0 0 .99999 259.848 108.344)"/><path fill="none" stroke="gray" stroke-miterlimit="10" stroke-width=".19925" d="M53.905 181.234h4.25m-4.25-48.859h4.25m-4.25-37.925h4.25m-4.25-70.405h4.25M292.54 181.234h-4.249m4.249-48.859h-4.249m4.249-37.925h-4.249m4.249-70.405h-4.249"/><g transform="translate(30.16 58.072)scale(1.0004)"><use xlink:href="#j" x="3.949585" y="127.188045"/><use xlink:href="#k" x="9.809985" y="127.188045"/></g><g transform="translate(33.412 9.387)scale(1.0004)"><use xlink:href="#j" x="3.949585" y="127.188045"/><use xlink:href="#l" x="9.809985" y="127.188045"/></g><g transform="translate(33.412 -28.598)scale(1.0004)"><use xlink:href="#j" x="3.949585" y="127.188045"/><use xlink:href="#m" x="9.809985" y="127.188045"/></g><g transform="translate(33.734 -100.336)scale(1.0004)"><use xlink:href="#j" x="3.949585" y="127.188045"/><use xlink:href="#n" x="9.809985" y="127.188045"/></g><g clip-path="url(#o)"><path fill="none" stroke="#000" stroke-miterlimit="10" stroke-width=".3985" d="m53.905 221.824 5.147-2.672 5.147-2.181 5.146-1.842 5.147-1.597 5.147-1.407 5.146-1.26 5.147-1.138 5.147-1.04 5.146-.955 5.147-.886 5.147-.823 5.146-.772 5.147-.724 5.147-.682 5.146-.646 5.147-.613 5.147-.582 5.146-.556 5.147-.53 5.147-.509 5.146-.487 5.147-.468 5.147-.45 5.146-.435 5.147-.418 5.147-.405 5.146-.391 5.147-.38 5.147-.367 5.146-.357 5.147-.345 5.147-.335 5.146-.328 5.147-.318 5.147-.31 5.147-.304 5.146-.294 5.147-.288 5.147-.28 5.146-.275 5.147-.269 5.147-.262 5.146-.257 5.147-.251 5.147-.246 5.146-.242 5.147-.236 5.147-.231 5.146-.228"/><g transform="translate(260.117 77.881)scale(1.00008)"><use xlink:href="#p" x="3.948326" y="127.147489"/><use xlink:href="#q" x="6.970396" y="127.147489"/><use xlink:href="#r" x="12.567226" y="127.147489"/><use xlink:href="#s" x="16.828388" y="127.147489"/><use xlink:href="#t" x="23.376928" y="127.147489"/></g><path fill="none" stroke="#000" stroke-miterlimit="10" stroke-width=".3985" d="m53.905 213.552 8.697-7.01 8.696-7.01 8.696-7.01 8.697-7.009 8.696-7.008 8.697-7.011 8.696-7.01 8.696-7.008 8.697-7.01 8.696-7.01 8.697-7.009 8.696-7.009 8.696-7.01 8.697-7.009 8.696-7.01 8.697-7.008 8.696-7.01 8.696-7.01 8.697-7.008 8.696-7.01 8.696-7.01 8.697-7.009 8.696-7.008 8.697-7.01 8.696-7.01 8.696-7.009 8.697-7.01 8.696-7.009 8.697-7.01"/><use xlink:href="#s" x="3.948326" y="127.147489" transform="translate(260.239 -91.833)scale(1.00008)"/><path fill="none" stroke="#000" stroke-miterlimit="10" stroke-width=".3985" d="m53.905 205.283 4.212-5.625 4.211-5.27 4.211-5.016 4.212-4.822 4.211-4.669 4.212-4.545 4.211-4.444 4.211-4.359 4.212-4.287 4.211-4.225 4.212-4.172 4.21-4.124 4.212-4.08 4.212-4.044 4.211-4.011 4.211-3.98 4.212-3.953 4.211-3.927 4.212-3.906 4.211-3.885 4.211-3.864 4.212-3.847 4.211-3.83 4.212-3.815 4.211-3.801 4.211-3.787 4.212-3.775 4.211-3.763 4.212-3.752 4.21-3.741 4.212-3.73 4.212-3.725 4.211-3.712 4.211-3.707 4.212-3.698 4.211-3.688 4.212-3.685 4.211-3.674 4.211-3.672 4.212-3.662 4.211-3.659 4.212-3.651 4.211-3.646 4.211-3.642 4.212-3.636 4.211-3.631 4.211-3.627 4.212-3.621 4.211-3.62"/><g transform="translate(191.749 -91.453)scale(1.00008)"><use xlink:href="#s" x="3.948326" y="127.147489"/><use xlink:href="#p" x="12.315016" y="127.147489"/><use xlink:href="#q" x="15.337086" y="127.147489"/><use xlink:href="#r" x="20.933917" y="127.147489"/><use xlink:href="#s" x="25.195078" y="127.147489"/><use xlink:href="#t" x="31.743621" y="127.147489"/></g><path fill="none" stroke="#000" stroke-miterlimit="10" stroke-width=".3985" d="m53.905 197.009 3.994-6.439 3.994-6.439 3.994-6.438 3.994-6.438 3.994-6.439 3.994-6.438 3.994-6.437 3.994-6.44 3.994-6.437 3.994-6.439 3.994-6.437 3.994-6.44 3.994-6.437 3.994-6.438 3.994-6.44 3.993-6.438 3.994-6.438 3.994-6.439 3.994-6.437 3.994-6.437 3.994-6.442 3.994-6.437 3.994-6.437 3.994-6.439 3.994-6.44 3.994-6.435 3.994-6.44 3.994-6.438 3.994-6.44"/><use xlink:href="#s" x="3.948326" y="127.147489" transform="translate(138.979 -89.615)scale(1.00008)"/><use xlink:href="#d" x="10.495868" y="123.176454" transform="matrix(.99999 0 0 .99999 138.979 -89.615)"/><path fill="none" stroke="#000" stroke-miterlimit="10" stroke-width=".3985" d="m53.905 197.015.967-2.233.967-2.384.967-2.545.967-2.714.967-2.901.967-3.094.967-3.302.967-3.53.967-3.765.967-4.018.967-4.29.967-4.58.967-4.89.967-5.219.968-5.573.967-5.946.967-6.35.967-6.775.967-7.236.967-7.722.967-8.245.967-8.801.967-9.397.967-10.026.967-10.706.967-11.426.967-12.205.967-13.018.967-13.903"/><use xlink:href="#u" x="3.948326" y="127.147489" transform="translate(62.726 -90.544)scale(1.00008)"/><use xlink:href="#v" x="9.401882" y="123.176454" transform="matrix(.99999 0 0 .99999 62.726 -90.544)"/><g fill="none" stroke="#bfbfbf" stroke-dasharray="2.98883 1.99255" stroke-miterlimit="10" stroke-width=".3985"><path d="M43.642 181.234h248.88700000000006M43.642 132.375h248.88700000000006M43.642 94.45h248.88700000000006M43.642 24.045h248.88700000000006"/></g></g><use xlink:href="#w" x="3.949585" y="127.188045" transform="translate(165.781 121.66)scale(1.0004)"/><g transform="rotate(-90 26.533 130.05)scale(1.0004)"><use xlink:href="#x" x="3.949585" y="127.188045"/><use xlink:href="#y" x="9.152185" y="127.188045"/><use xlink:href="#z" x="12.405306" y="127.188045"/><use xlink:href="#A" x="18.265707" y="127.188045"/><use xlink:href="#B" x="24.771947" y="127.188045"/><use xlink:href="#x" x="29.388508" y="127.188045"/><use xlink:href="#m" x="34.591109" y="127.188045"/><use xlink:href="#C" x="44.984349" y="127.188045"/><use xlink:href="#D" x="49.541109" y="127.188045"/><use xlink:href="#k" x="52.794228" y="127.188045"/><use xlink:href="#x" x="62.553591" y="127.188045"/><use xlink:href="#E" x="71.666763" y="127.188045"/></g></svg>