<svg xmlns="http://www.w3.org/2000/svg" xmlns:xlink="http://www.w3.org/1999/xlink" width="313.15pt" height="63.82pt" viewBox="0 0 313.15 63.82"><defs><path id="t" d="M5.684-2.357c0-1.385-1.07-2.465-2.313-2.465-.85 0-1.32.513-1.494.709v-3.459l-1.572.12v.339c.764 0 .851.076.851.61V0h.273l.393-.676c.164.25.622.796 1.43.796 1.297 0 2.432-1.07 2.432-2.477m-.905-.01c0 .403-.022 1.058-.339 1.549-.229.338-.643.698-1.232.698-.491 0-.884-.262-1.146-.666-.153-.229-.153-.261-.153-.458V-3.49c0-.207 0-.218.12-.393a1.58 1.58 0 0 1 1.288-.698c.49 0 .883.283 1.145.698.284.447.317 1.07.317 1.517"/><path id="x" d="M4.986-1.833c0-.393-.12-.884-.535-1.342-.207-.229-.382-.338-1.08-.774.786-.404 1.32-.971 1.32-1.691 0-1.004-.97-1.626-1.963-1.626-1.092 0-1.975.807-1.975 1.822 0 .196.022.687.48 1.2.12.13.524.404.796.59-.633.316-1.57.926-1.57 2.007C.458-.491 1.57.24 2.716.24c1.232 0 2.269-.906 2.269-2.073M4.21-5.64c0 .621-.425 1.145-1.08 1.527l-1.353-.873c-.502-.327-.545-.698-.545-.884 0-.665.709-1.123 1.484-1.123.796 0 1.494.567 1.494 1.353m.23 4.2c0 .807-.819 1.375-1.713 1.375-.939 0-1.724-.677-1.724-1.582 0-.633.349-1.331 1.276-1.844l1.342.85c.306.208.818.535.818 1.2"/><path id="u" d="M2.695 0v-.338c-.72 0-.764-.055-.764-.48v-4.004l-1.527.12v.338c.709 0 .807.065.807.6v2.935c0 .49-.12.49-.851.49V0l1.2-.033c.382 0 .764.022 1.135.033m-.6-6.59a.583.583 0 0 0-1.167 0 .583.583 0 0 0 1.167 0"/><path id="s" d="M4.571 0v-.338h-.349c-.982 0-1.014-.12-1.014-.524v-6.12c0-.262 0-.284-.251-.284-.677.698-1.637.698-1.986.698v.338c.218 0 .862 0 1.43-.283v5.651c0 .393-.034.524-1.015.524h-.35V0c.382-.033 1.331-.033 1.768-.033s1.385 0 1.767.033"/><path id="r" d="M3.611 2.618c0-.032 0-.054-.185-.24-1.364-1.374-1.713-3.436-1.713-5.105 0-1.899.414-3.797 1.756-5.16.142-.132.142-.154.142-.186 0-.077-.043-.11-.109-.11-.109 0-1.09.742-1.735 2.128-.556 1.2-.687 2.411-.687 3.327 0 .851.12 2.172.72 3.404.655 1.342 1.593 2.052 1.702 2.052.066 0 .11-.033.11-.11"/><path id="w" d="M3.153-2.727c0-.851-.12-2.172-.72-3.404C1.778-7.473.84-8.182.73-8.182c-.065 0-.11.043-.11.109 0 .032 0 .054.208.25C1.9-6.742 2.52-5.007 2.52-2.726c0 1.865-.403 3.785-1.756 5.16-.142.13-.142.153-.142.185 0 .066.044.11.109.11.11 0 1.091-.742 1.735-2.128.556-1.2.687-2.411.687-3.327"/><path id="y" d="M3.928-1.396c0-.579-.328-.906-.459-1.037-.36-.35-.785-.436-1.243-.524-.611-.12-1.342-.261-1.342-.894 0-.382.283-.83 1.222-.83 1.2 0 1.254.983 1.276 1.32.011.099.131.099.131.099.142 0 .142-.055.142-.262v-1.102c0-.185 0-.262-.12-.262-.055 0-.077 0-.218.131a1.4 1.4 0 0 1-.186.175c-.414-.306-.862-.306-1.025-.306C.775-4.888.36-4.157.36-3.546c0 .382.175.688.47.928.348.283.654.349 1.44.501.24.044 1.134.219 1.134 1.004 0 .557-.382.993-1.233.993-.916 0-1.31-.622-1.516-1.55C.622-1.81.61-1.854.502-1.854c-.142 0-.142.077-.142.273v1.44C.36.044.36.12.48.12.535.12.546.11.753-.098.775-.12.775-.142.97-.35c.48.458.971.469 1.2.469 1.255 0 1.757-.731 1.757-1.516"/><path id="v" d="M3.622-1.353v-.622H3.35v.6c0 .808-.327 1.222-.73 1.222-.732 0-.732-.993-.732-1.178v-3.033h1.56v-.338h-1.56V-6.71h-.272c-.011.895-.339 2.062-1.408 2.106v.24h.928v3.011C1.135-.01 2.149.12 2.542.12c.775 0 1.08-.775 1.08-1.473"/><path id="A" d="M4.986-1.866c0-.894-.687-1.745-1.822-1.974C4.059-4.135 4.69-4.9 4.69-5.76c0-.895-.96-1.506-2.007-1.506-1.102 0-1.931.655-1.931 1.484 0 .36.24.567.556.567.338 0 .557-.24.557-.556 0-.546-.513-.546-.677-.546.338-.534 1.058-.676 1.451-.676.448 0 1.048.24 1.048 1.222 0 .13-.022.763-.306 1.243-.327.524-.698.557-.97.568-.088.01-.35.032-.426.032-.088.011-.164.022-.164.131 0 .12.076.12.262.12h.48c.894 0 1.298.742 1.298 1.811 0 1.484-.753 1.8-1.233 1.8C2.16-.065 1.342-.25.96-.894c.382.055.72-.185.72-.6 0-.392-.294-.61-.61-.61-.263 0-.612.152-.612.632C.458-.48 1.473.24 2.662.24c1.331 0 2.324-.993 2.324-2.106"/><path id="z" d="M4.899-1.898h-.273c-.055.327-.131.807-.24.97-.077.088-.797.088-1.037.088H1.386l1.156-1.124C4.244-3.469 4.899-4.059 4.899-5.15c0-1.243-.982-2.116-2.313-2.116a2.016 2.016 0 0 0-2.04 1.975c0 .61.545.61.578.61.185 0 .567-.13.567-.578a.55.55 0 0 0-.578-.567c-.087 0-.11 0-.142.011.25-.71.84-1.113 1.473-1.113.993 0 1.462.884 1.462 1.778 0 .873-.546 1.735-1.146 2.412L.666-.404c-.12.12-.12.142-.12.404h4.047z"/><path id="l" d="M8.312-2.775c.012-.036.048-.12.048-.167a.12.12 0 0 0-.12-.12c-.047 0-.071.012-.107.048-.024.012-.024.036-.132.275-.705 1.675-1.22 2.392-3.133 2.392H3.122c-.168 0-.192 0-.264-.012-.131-.012-.143-.036-.143-.131 0-.084.024-.156.048-.263l.825-3.301h1.184c.933 0 1.005.203 1.005.562 0 .12 0 .227-.084.586a.3.3 0 0 0-.036.131c0 .084.06.12.132.12.107 0 .12-.084.167-.251l.682-2.775a.12.12 0 0 0-.12-.12c-.107 0-.12.048-.167.216-.24.92-.479 1.184-1.543 1.184H3.672l.741-2.942c.108-.419.132-.455.622-.455h1.71c1.472 0 1.77.395 1.77 1.304 0 .012 0 .347-.047.741a1 1 0 0 0-.024.144c0 .095.06.131.131.131.084 0 .132-.048.156-.263l.251-2.093c0-.036.024-.155.024-.18 0-.13-.108-.13-.323-.13H2.846c-.227 0-.346 0-.346.215 0 .131.083.131.287.131.741 0 .741.084.741.215a1 1 0 0 1-.048.24L1.866-.885c-.108.419-.132.538-.969.538-.227 0-.347 0-.347.215C.55 0 .622 0 .861 0h6.004c.263 0 .275-.012.359-.203z"/><path id="q" d="M3.552-3.899H4.7c.91 0 .981.203.981.55 0 .156-.024.323-.084.586a.4.4 0 0 0-.036.132c0 .084.048.131.132.131.096 0 .108-.047.155-.239l.694-2.787c0-.047-.036-.12-.12-.12-.107 0-.12.049-.167.252-.251.897-.49 1.148-1.53 1.148h-1.09l.778-3.097c.108-.419.132-.455.622-.455h1.603c1.495 0 1.71.443 1.71 1.292 0 .072 0 .335-.036.646a2 2 0 0 0-.036.25c0 .096.06.132.132.132.084 0 .131-.048.155-.263l.252-2.093c0-.036.023-.155.023-.18 0-.13-.107-.13-.322-.13h-5.67c-.227 0-.346 0-.346.215 0 .131.083.131.287.131.741 0 .741.084.741.215a1 1 0 0 1-.048.24L1.866-.885c-.108.419-.132.538-.969.538-.227 0-.347 0-.347.215C.55 0 .658 0 .73 0c.227 0 .466-.024.693-.024h1.555c.263 0 .55.024.813.024.108 0 .251 0 .251-.215 0-.132-.071-.132-.334-.132-.945 0-.97-.084-.97-.263 0-.06.025-.155.049-.24z"/><path id="e" d="M7.595-8.312c0-.108-.084-.108-.108-.108-.048 0-.06.012-.203.192-.072.083-.562.705-.574.717-.395-.777-1.184-.909-1.687-.909-1.519 0-2.894 1.388-2.894 2.739 0 .897.538 1.423 1.124 1.627.132.047.837.239 1.196.322.61.168.766.216 1.017.479.048.06.287.335.287.897 0 1.112-1.029 2.26-2.225 2.26-.98 0-2.069-.418-2.069-1.758 0-.227.048-.514.084-.634 0-.036.012-.095.012-.12 0-.047-.024-.107-.12-.107-.107 0-.12.024-.167.227L.658-.036c0 .012-.048.168-.048.18C.61.25.706.25.73.25.777.251.79.24.933.06l.55-.718c.287.43.909.91 2.021.91 1.543 0 2.954-1.496 2.954-2.99 0-.503-.12-.946-.574-1.388-.25-.251-.466-.311-1.566-.598-.802-.215-.91-.251-1.125-.443a1.22 1.22 0 0 1-.358-.897c0-1.004 1.016-2.033 2.152-2.033 1.172 0 1.723.718 1.723 1.854 0 .31-.06.634-.06.682 0 .107.095.107.131.107.108 0 .12-.036.168-.227z"/><path id="o" d="M5.669-1.064v-.67h-.263v.67c0 .681-.287.777-.455.777-.454 0-.454-.634-.454-.813v-2.093c0-.646 0-1.125-.526-1.591-.419-.383-.957-.55-1.483-.55-.981 0-1.735.646-1.735 1.423 0 .347.228.514.503.514.287 0 .49-.203.49-.49 0-.49-.43-.49-.61-.49.275-.503.85-.718 1.328-.718.55 0 1.256.455 1.256 1.53v.48C1.316-3.05.407-2.046.407-1.126c0 .946 1.1 1.245 1.83 1.245A1.63 1.63 0 0 0 3.79-.933c.048.562.419.993.933.993.251 0 .945-.168.945-1.124m-1.95-.622C3.72-.514 2.847-.12 2.333-.12c-.586 0-1.076-.43-1.076-1.004 0-1.579 2.033-1.722 2.464-1.746z"/><path id="p" d="M4.856-1.423c0-.108-.084-.108-.12-.108-.107 0-.12.036-.155.18-.263.849-.91 1.207-1.555 1.207-.73 0-1.698-.633-1.698-2.451 0-1.986 1.016-2.476 1.614-2.476.455 0 1.112.18 1.388.646-.144 0-.587 0-.587.49 0 .287.204.49.49.49.276 0 .503-.167.503-.514 0-.801-.837-1.375-1.806-1.375C1.53-5.334.42-4.09.42-2.584.419-1.051 1.567.12 2.919.12c1.578 0 1.937-1.436 1.937-1.543"/><path id="f" d="M7.63-3.062h-.263C7.08-1.196 6.793-.347 4.772-.347H3.145c-.526 0-.55-.084-.55-.478v-3.23h1.089c1.148 0 1.28.371 1.28 1.4h.263v-3.146h-.264c0 1.029-.131 1.4-1.28 1.4H2.596V-7.32c0-.394.024-.478.55-.478h1.591c1.758 0 2.129.598 2.308 2.32h.264l-.311-2.667H.49v.347h.24c.86 0 .897.12.897.562v6.327c0 .443-.036.562-.897.562H.49V0h6.662z"/><path id="j" d="M4.868-1.423c0-.072-.06-.12-.132-.12-.096 0-.12.06-.143.12C4.282-.42 3.48-.143 2.978-.143s-1.71-.335-1.71-2.404v-.228H4.58c.263 0 .287 0 .287-.227 0-1.208-.646-2.332-2.093-2.332C1.41-5.334.359-4.102.359-2.62.359-1.041 1.579.12 2.906.12c1.424 0 1.962-1.292 1.962-1.543m-.742-1.579H1.28c.095-1.878 1.148-2.093 1.483-2.093 1.28 0 1.351 1.686 1.363 2.093"/><path id="m" d="m7.14-5.478-.31-2.667H.49v.347h.24c.86 0 .897.12.897.562v6.327c0 .443-.036.562-.897.562H.49V0C.777-.024 1.842-.024 2.2-.024c.42 0 1.472 0 1.819.024v-.347h-.36c-1.04 0-1.064-.143-1.064-.574v-2.978h1.053c1.124 0 1.244.395 1.244 1.4h.263v-3.146h-.263c0 1.005-.12 1.4-1.244 1.4H2.595V-7.32c0-.394.024-.478.55-.478H4.64c1.723 0 2.07.634 2.237 2.32z"/><path id="c" d="M5.681-4.856a.56.56 0 0 0-.586-.55c-.622 0-1.088.383-1.256.562a2 2 0 0 0-1.232-.43C1.531-5.274.73-4.461.73-3.54c0 .682.418 1.124.538 1.232-.144.18-.359.526-.359.992 0 .694.419.993.514 1.053-.55.155-1.1.586-1.1 1.208 0 .825 1.124 1.507 2.595 1.507 1.423 0 2.608-.634 2.608-1.531 0-.3-.084-1.005-.802-1.375-.61-.311-1.208-.311-2.236-.311-.73 0-.814 0-1.029-.228a.88.88 0 0 1-.227-.598c0-.203.072-.406.191-.574.562.371 1.04.371 1.172.371 1.077 0 1.878-.813 1.878-1.734 0-.323-.096-.778-.478-1.16.466-.479 1.028-.479 1.088-.479.048 0 .108 0 .155.024-.12.048-.179.168-.179.3 0 .167.12.31.311.31.096 0 .311-.06.311-.323M3.648-3.54c0 .215 0 .705-.204 1.028a1.02 1.02 0 0 1-.837.467c-1.052 0-1.052-1.208-1.052-1.483 0-.215 0-.706.203-1.029a1.02 1.02 0 0 1 .837-.466c1.053 0 1.053 1.208 1.053 1.483M4.939.933c0 .706-.908 1.268-2.009 1.268C1.782 2.2.91 1.615.91.933c0-.096.024-.562.478-.873.263-.168.371-.168 1.208-.168.993 0 2.344 0 2.344 1.04"/><path id="b" d="M2.882 0v-.347c-.777 0-.825-.06-.825-.526v-4.401l-1.626.131v.347c.765 0 .873.072.873.658v3.253c0 .538-.132.538-.91.538V0c.336-.024.91-.024 1.256-.024.132 0 .826 0 1.232.024m-.67-7.224a.58.58 0 1 0-.586.574.576.576 0 0 0 .587-.574"/><path id="d" d="M6.231 0v-.347c-.598 0-.897 0-.909-.359v-2.2c0-1.113 0-1.447-.275-1.83-.347-.467-.909-.538-1.315-.538-1.16 0-1.615.992-1.71 1.232h-.013v-1.232l-1.626.131v.347c.813 0 .909.084.909.67v3.241c0 .538-.132.538-.91.538V0c.312-.024.958-.024 1.292-.024.347 0 .993 0 1.304.024v-.347c-.765 0-.909 0-.909-.538V-3.11c0-1.255.825-1.925 1.567-1.925s.909.61.909 1.34v2.81c0 .538-.132.538-.91.538V0c.312-.024.958-.024 1.293-.024.346 0 .992 0 1.303.024"/><path id="i" d="M5.49-2.56c0-1.542-1.172-2.774-2.56-2.774C1.495-5.334.36-4.066.36-2.56.359-1.03 1.555.12 2.919.12c1.41 0 2.57-1.172 2.57-2.68m-.91-.107c0 .419 0 1.16-.31 1.722a1.56 1.56 0 0 1-1.34.801c-.442 0-.98-.19-1.327-.777-.323-.538-.335-1.244-.335-1.746 0-.455 0-1.184.37-1.722a1.53 1.53 0 0 1 1.28-.706c.467 0 .969.215 1.292.682.37.55.37 1.303.37 1.746"/><path id="h" d="M6.076-2.583c0-1.52-1.125-2.691-2.428-2.691-1.053 0-1.615.753-1.65.801v-.801l-1.663.131v.347c.837 0 .909.084.909.61v5.621c0 .538-.132.538-.91.538v.347c.312-.024.958-.024 1.293-.024.346 0 .992 0 1.303.024v-.347c-.765 0-.909 0-.909-.538v-2.08c.216.298.706.765 1.471.765 1.376 0 2.584-1.16 2.584-2.703m-.91 0c0 1.423-.813 2.463-1.733 2.463a1.4 1.4 0 0 1-.957-.382c-.275-.275-.455-.515-.455-.85v-2.463c0-.227 0-.24.132-.43a1.72 1.72 0 0 1 1.4-.766c.896 0 1.614 1.088 1.614 2.428"/><path id="n" d="M4.222-4.58c0-.36-.323-.694-.837-.694-1.017 0-1.364 1.1-1.436 1.327h-.011v-1.327l-1.603.131v.347c.813 0 .909.084.909.67v3.241c0 .538-.132.538-.91.538V0c.336-.024.994-.024 1.352-.024.323 0 1.172 0 1.448.024v-.347h-.24c-.873 0-.897-.131-.897-.562v-1.878c0-1.16.479-2.248 1.4-2.248.095 0 .12 0 .167.012-.096.048-.287.12-.287.442a.46.46 0 0 0 .466.479c.24 0 .479-.156.479-.479"/><path id="a" d="M5.848-2.2c0-.73-.275-1.268-.598-1.663-.442-.538-.98-.67-1.447-.79l-1.315-.334c-.61-.156-1.148-.754-1.148-1.52 0-.836.67-1.59 1.602-1.59 1.962 0 2.225 1.938 2.296 2.452.024.143.024.191.144.191.132 0 .132-.06.132-.275v-2.416c0-.215 0-.275-.12-.275-.036 0-.084 0-.167.156l-.395.73c-.574-.742-1.364-.886-1.89-.886A2.28 2.28 0 0 0 .646-6.135c0 .574.203 1.1.646 1.578.418.467.837.574 1.686.79.419.095 1.076.263 1.244.334.562.276.933.921.933 1.591 0 .897-.634 1.746-1.627 1.746-.538 0-1.28-.131-1.866-.646C.97-1.363.921-2.225.91-2.619c-.012-.096-.132-.096-.132-.096-.131 0-.131.06-.131.275v2.416c0 .215 0 .275.12.275.071 0 .083-.024.167-.167l.395-.718c.43.479 1.184.885 2.212.885C4.88.251 5.848-.885 5.848-2.2"/><path id="k" d="M3.899-1.483v-.682h-.263v.658c0 .861-.347 1.363-.813 1.363-.814 0-.814-1.112-.814-1.315v-3.349h1.687v-.347H2.009v-2.2h-.263c-.012 1.124-.442 2.272-1.53 2.308v.24h1.016v3.324C1.232-.155 2.117.12 2.75.12c.753 0 1.148-.742 1.148-1.603"/><path id="g" d="M6.052 0v-.347c-.634 0-.85-.024-1.136-.406l-1.567-2.07c.347-.454.849-1.1 1.076-1.351.49-.55 1.053-.634 1.435-.634v-.347c-.514.024-.538.024-1.004.024l-1.077-.024v.347c.156.024.347.096.347.37 0 .204-.107.336-.18.431l-.765.97-.933-1.233c-.035-.048-.107-.155-.107-.239 0-.072.06-.287.418-.299v-.347c-.299.024-.909.024-1.231.024L.179-5.155v.347c.61 0 .838.024 1.089.347l1.4 1.83c.023.024.07.095.07.131s-.932 1.208-1.052 1.364C1.16-.49.634-.36.12-.346V0c.454-.024.478-.024.992-.024L2.19 0v-.347c-.287-.036-.335-.215-.335-.383 0-.19.084-.287.203-.442l.861-1.112.981 1.28c.203.262.203.286.203.358 0 .096-.095.287-.418.3V0c.31-.024.897-.024 1.232-.024z"/></defs><path fill="none" stroke="#000" stroke-miterlimit="10" stroke-width=".3985" d="M11.536 30.37h290.076V11.534H11.536Zm53.417-18.836V30.37m93.577-18.836V30.37"/><g transform="translate(-69.054 74.979)scale(1.0004)"><use xlink:href="#a" x="90.280233" y="-51.064494"/><use xlink:href="#b" x="96.786482" y="-51.064494"/><use xlink:href="#c" x="100.0396" y="-51.064494"/><use xlink:href="#d" x="105.900002" y="-51.064494"/><use xlink:href="#e" x="116.304677" y="-51.064494"/></g><g transform="translate(-15.437 74.921)scale(1.0004)"><use xlink:href="#f" x="95.951509" y="-51.064494"/><use xlink:href="#g" x="103.916876" y="-51.064494"/><use xlink:href="#h" x="110.100197" y="-51.064494"/><use xlink:href="#i" x="116.917402" y="-51.064494"/><use xlink:href="#d" x="122.777795" y="-51.064494"/><use xlink:href="#j" x="129.284037" y="-51.064494"/><use xlink:href="#d" x="134.486645" y="-51.064494"/><use xlink:href="#k" x="140.681921" y="-51.064494"/><use xlink:href="#l" x="149.136854" y="-51.064494"/></g><g transform="translate(78.14 76.021)scale(1.0004)"><use xlink:href="#m" x="124.30889" y="-51.064494"/><use xlink:href="#n" x="130.982578" y="-51.064494"/><use xlink:href="#o" x="135.539337" y="-51.064494"/><use xlink:href="#p" x="141.399739" y="-51.064494"/><use xlink:href="#k" x="146.602337" y="-51.064494"/><use xlink:href="#b" x="151.159106" y="-51.064494"/><use xlink:href="#i" x="154.412221" y="-51.064494"/><use xlink:href="#d" x="160.272623" y="-51.064494"/><use xlink:href="#q" x="170.666495" y="-51.064494"/></g><g transform="translate(-61.888 96.814)scale(1.00008)"><use xlink:href="#r" x="84.580977" y="-51.048211"/><use xlink:href="#s" x="88.824965" y="-51.048211"/><use xlink:href="#t" x="97.912995" y="-51.048211"/><use xlink:href="#u" x="103.978956" y="-51.048211"/><use xlink:href="#v" x="107.011936" y="-51.048211"/><use xlink:href="#w" x="111.255918" y="-51.048211"/></g><g transform="translate(9.56 96.814)scale(1.00008)"><use xlink:href="#r" x="84.580977" y="-51.048211"/><use xlink:href="#x" x="88.824965" y="-51.048211"/><use xlink:href="#t" x="97.912995" y="-51.048211"/><use xlink:href="#u" x="103.978956" y="-51.048211"/><use xlink:href="#v" x="107.011936" y="-51.048211"/><use xlink:href="#y" x="111.255918" y="-51.048211"/><use xlink:href="#w" x="115.554462" y="-51.048211"/></g><g transform="translate(125.262 96.814)scale(1.00008)"><use xlink:href="#r" x="84.580977" y="-51.048211"/><use xlink:href="#z" x="88.824965" y="-51.048211"/><use xlink:href="#A" x="94.279967" y="-51.048211"/><use xlink:href="#t" x="103.367997" y="-51.048211"/><use xlink:href="#u" x="109.433958" y="-51.048211"/><use xlink:href="#v" x="112.466938" y="-51.048211"/><use xlink:href="#y" x="116.710925" y="-51.048211"/><use xlink:href="#w" x="121.009462" y="-51.048211"/></g></svg>