<svg xmlns="http://www.w3.org/2000/svg" xmlns:xlink="http://www.w3.org/1999/xlink" width="417.531" height="85.099" viewBox="-72 -72 313.149 63.824"><defs><path id="t" d="M5.684-2.356c0-1.386-1.07-2.466-2.313-2.466-.851 0-1.32.513-1.495.71v-3.459l-1.57.12v.338c.763 0 .85.077.85.611V0h.273l.393-.676c.163.25.622.796 1.429.796 1.298 0 2.433-1.07 2.433-2.476m-.906-.011c0 .403-.022 1.058-.338 1.549-.23.338-.644.698-1.233.698-.49 0-.883-.262-1.145-.665-.153-.23-.153-.262-.153-.459V-3.49c0-.207 0-.218.12-.393a1.58 1.58 0 0 1 1.287-.698c.491 0 .884.284 1.146.698.283.448.316 1.07.316 1.517"/><path id="x" d="M4.985-1.833c0-.392-.12-.883-.534-1.342-.207-.229-.382-.338-1.08-.774.785-.404 1.32-.971 1.32-1.691 0-1.004-.971-1.625-1.964-1.625-1.09 0-1.974.807-1.974 1.821 0 .197.022.688.48 1.2.12.131.523.404.796.59-.633.316-1.57.927-1.57 2.007C.458-.491 1.57.24 2.715.24c1.233 0 2.27-.905 2.27-2.073M4.211-5.64c0 .622-.426 1.145-1.08 1.527l-1.353-.872c-.502-.328-.545-.699-.545-.884 0-.666.709-1.124 1.483-1.124.797 0 1.495.568 1.495 1.353m.229 4.2c0 .807-.818 1.375-1.713 1.375-.938 0-1.723-.677-1.723-1.582 0-.633.349-1.331 1.276-1.844l1.342.851c.305.207.818.535.818 1.2"/><path id="u" d="M2.695 0v-.338c-.72 0-.764-.055-.764-.48v-4.004l-1.527.12v.338c.709 0 .807.066.807.6v2.935c0 .49-.12.49-.851.49V0l1.2-.033c.382 0 .764.022 1.135.033m-.6-6.59a.583.583 0 0 0-1.167 0c0 .295.25.58.577.58.371 0 .59-.306.59-.58"/><path id="s" d="M4.57 0v-.338h-.348c-.982 0-1.015-.12-1.015-.524v-6.12c0-.262 0-.283-.25-.283-.677.698-1.637.698-1.986.698v.338c.218 0 .862 0 1.429-.284v5.651c0 .393-.033.524-1.015.524h-.349V0c.382-.033 1.331-.033 1.768-.033s1.385 0 1.767.033"/><path id="r" d="M3.61 2.618c0-.033 0-.054-.185-.24-1.363-1.374-1.712-3.436-1.712-5.105 0-1.898.414-3.797 1.756-5.16.142-.131.142-.153.142-.186 0-.076-.044-.109-.11-.109-.108 0-1.09.742-1.734 2.127-.556 1.2-.687 2.411-.687 3.328 0 .85.12 2.17.72 3.403.655 1.342 1.593 2.051 1.702 2.051.065 0 .109-.032.109-.109"/><path id="w" d="M3.153-2.727c0-.851-.12-2.171-.72-3.404C1.778-7.473.84-8.18.73-8.18c-.066 0-.11.043-.11.108 0 .033 0 .055.208.251C1.9-6.742 2.52-5.007 2.52-2.727c0 1.865-.404 3.785-1.756 5.16-.142.13-.142.152-.142.185 0 .066.043.11.109.11.109 0 1.09-.743 1.734-2.128.557-1.2.688-2.41.688-3.327"/><path id="y" d="M3.927-1.396c0-.579-.327-.906-.458-1.037-.36-.349-.785-.436-1.244-.523-.61-.12-1.341-.262-1.341-.895 0-.382.283-.829 1.221-.829 1.2 0 1.255.982 1.277 1.32.01.098.13.098.13.098.143 0 .143-.054.143-.262v-1.101c0-.186 0-.262-.12-.262-.055 0-.077 0-.219.13a1.4 1.4 0 0 1-.185.175c-.415-.305-.862-.305-1.026-.305-1.33 0-1.745.73-1.745 1.342 0 .381.175.687.47.927.348.283.654.349 1.44.502.24.043 1.134.218 1.134 1.003 0 .557-.382.993-1.233.993C1.255-.12.86-.742.655-1.67.622-1.81.61-1.854.502-1.854c-.142 0-.142.077-.142.273v1.44C.36.044.36.12.48.12.535.12.545.11.753-.098.775-.12.775-.142.97-.35c.48.458.97.469 1.2.469 1.254 0 1.756-.73 1.756-1.516"/><path id="v" d="M3.622-1.353v-.622h-.273v.6c0 .808-.327 1.222-.73 1.222-.732 0-.732-.992-.732-1.178v-3.033h1.56v-.338h-1.56v-2.007h-.272c-.011.894-.339 2.062-1.408 2.105v.24h.928v3.011C1.135-.01 2.149.12 2.542.12c.774 0 1.08-.775 1.08-1.473"/><path id="A" d="M4.985-1.865c0-.895-.687-1.746-1.821-1.975.894-.295 1.527-1.058 1.527-1.92 0-.895-.96-1.505-2.007-1.505-1.102 0-1.931.654-1.931 1.483 0 .36.24.567.556.567.338 0 .556-.24.556-.556 0-.545-.512-.545-.676-.545.338-.535 1.058-.677 1.451-.677.447 0 1.047.24 1.047 1.222 0 .131-.022.764-.305 1.244-.327.523-.698.556-.971.567-.087.01-.35.033-.426.033-.087.01-.163.022-.163.13 0 .12.076.12.262.12h.48c.894 0 1.298.742 1.298 1.812 0 1.483-.753 1.8-1.233 1.8-.469 0-1.287-.186-1.669-.83.382.055.72-.185.72-.6 0-.392-.295-.61-.61-.61-.263 0-.612.152-.612.632C.458-.48 1.473.24 2.662.24c1.33 0 2.323-.993 2.323-2.105"/><path id="z" d="M4.898-1.898h-.273c-.054.327-.13.807-.24.97C4.31-.84 3.59-.84 3.35-.84H1.385l1.157-1.124c1.702-1.505 2.356-2.094 2.356-3.185 0-1.244-.982-2.116-2.313-2.116a2.016 2.016 0 0 0-2.04 1.974c0 .611.546.611.579.611.185 0 .567-.13.567-.578a.55.55 0 0 0-.578-.567c-.088 0-.11 0-.142.01.25-.709.84-1.112 1.473-1.112.992 0 1.461.883 1.461 1.778 0 .873-.545 1.734-1.145 2.41L.665-.403c-.12.12-.12.142-.12.404h4.048z"/><path id="l" d="M8.309-2.774c.012-.035.048-.12.048-.167a.12.12 0 0 0-.12-.12c-.048 0-.072.012-.107.048-.024.012-.024.036-.132.275-.705 1.674-1.22 2.391-3.132 2.391H3.12c-.167 0-.191 0-.263-.012-.131-.012-.143-.036-.143-.131 0-.084.024-.156.048-.263l.825-3.3H4.77c.933 0 1.004.203 1.004.562 0 .12 0 .227-.083.586a.3.3 0 0 0-.036.131c0 .084.06.12.131.12.108 0 .12-.084.168-.251l.681-2.774a.12.12 0 0 0-.12-.12c-.107 0-.119.049-.167.216C6.11-4.663 5.87-4.4 4.806-4.4H3.67l.741-2.94c.108-.419.132-.455.622-.455h1.71c1.47 0 1.77.395 1.77 1.303 0 .012 0 .347-.049.742a1 1 0 0 0-.024.143c0 .096.06.132.132.132.084 0 .131-.048.155-.263l.251-2.093c0-.036.024-.155.024-.179 0-.131-.107-.131-.323-.131H2.845c-.227 0-.346 0-.346.215 0 .131.083.131.287.131.74 0 .74.084.74.215a1 1 0 0 1-.047.24L1.865-.885c-.108.419-.132.538-.968.538-.228 0-.347 0-.347.215C.55 0 .622 0 .86 0h6.002c.263 0 .275-.012.359-.203z"/><path id="q" d="M3.55-3.897h1.148c.909 0 .98.203.98.55 0 .155-.023.322-.083.585a.4.4 0 0 0-.036.132c0 .084.048.131.132.131.095 0 .107-.047.155-.239l.693-2.785c0-.048-.035-.12-.12-.12-.107 0-.119.048-.166.251-.252.897-.49 1.148-1.53 1.148H3.633l.777-3.096c.108-.419.132-.455.622-.455h1.602c1.495 0 1.71.443 1.71 1.291 0 .072 0 .335-.036.646a2 2 0 0 0-.036.251c0 .096.06.132.131.132.084 0 .132-.048.156-.263l.251-2.093c0-.036.024-.155.024-.179 0-.131-.108-.131-.323-.131H2.845c-.227 0-.346 0-.346.215 0 .131.083.131.287.131.74 0 .74.084.74.215a1 1 0 0 1-.047.24L1.865-.885c-.108.419-.132.538-.968.538-.228 0-.347 0-.347.215C.55 0 .658 0 .73 0c.226 0 .466-.024.693-.024h1.554c.263 0 .55.024.813.024.107 0 .25 0 .25-.215 0-.132-.07-.132-.334-.132-.944 0-.968-.083-.968-.263 0-.06.024-.155.048-.239z"/><path id="e" d="M7.592-8.309c0-.107-.084-.107-.108-.107-.048 0-.06.012-.203.19-.072.085-.562.706-.574.718-.395-.777-1.184-.908-1.686-.908-1.518 0-2.893 1.386-2.893 2.737 0 .897.538 1.423 1.124 1.626.131.048.837.24 1.195.323.61.167.765.215 1.017.478.047.06.286.335.286.897 0 1.112-1.028 2.26-2.223 2.26-.98 0-2.068-.42-2.068-1.758 0-.227.047-.514.083-.634 0-.036.012-.095.012-.12 0-.047-.024-.107-.12-.107-.107 0-.119.024-.167.227L.657-.036c0 .012-.047.168-.047.18C.61.25.705.25.73.25.776.251.788.24.932.06l.55-.718c.286.43.908.91 2.02.91 1.542 0 2.953-1.495 2.953-2.99 0-.502-.12-.944-.574-1.387-.251-.25-.466-.31-1.566-.597-.801-.215-.909-.251-1.124-.443a1.22 1.22 0 0 1-.359-.896c0-1.005 1.017-2.033 2.152-2.033 1.172 0 1.722.718 1.722 1.853 0 .311-.06.634-.06.682 0 .107.096.107.132.107.107 0 .12-.035.167-.227z"/><path id="o" d="M5.667-1.064v-.67h-.263v.67c0 .681-.287.777-.455.777-.454 0-.454-.634-.454-.813v-2.092c0-.646 0-1.124-.526-1.59-.418-.383-.956-.55-1.482-.55-.98 0-1.734.646-1.734 1.423 0 .346.227.514.502.514a.47.47 0 0 0 .49-.49c0-.49-.43-.49-.61-.49.276-.503.85-.718 1.328-.718.55 0 1.255.454 1.255 1.53v.479C1.315-3.05.406-2.044.406-1.124c0 .945 1.1 1.244 1.83 1.244A1.63 1.63 0 0 0 3.79-.933c.048.562.418.993.932.993.251 0 .945-.168.945-1.124m-1.949-.622c0 1.172-.873 1.566-1.387 1.566-.586 0-1.076-.43-1.076-1.004 0-1.578 2.033-1.721 2.463-1.745z"/><path id="p" d="M4.854-1.423c0-.107-.084-.107-.12-.107-.107 0-.12.036-.155.18-.263.848-.909 1.207-1.554 1.207-.73 0-1.698-.634-1.698-2.451 0-1.985 1.016-2.475 1.614-2.475.454 0 1.112.18 1.387.646-.144 0-.586 0-.586.49 0 .287.203.49.49.49.275 0 .502-.167.502-.514 0-.801-.837-1.375-1.805-1.375-1.399 0-2.51 1.243-2.51 2.75C.418-1.052 1.565.12 2.916.12c1.578 0 1.937-1.435 1.937-1.543"/><path id="f" d="M7.627-3.06h-.263C7.077-1.197 6.791-.348 4.77-.348H3.144c-.526 0-.55-.083-.55-.478v-3.228h1.088c1.148 0 1.28.37 1.28 1.399h.262v-3.144h-.263C4.961-4.77 4.83-4.4 3.682-4.4H2.594v-2.917c0-.394.024-.478.55-.478h1.59c1.758 0 2.128.598 2.308 2.32h.263l-.311-2.666H.49v.346h.24c.86 0 .896.12.896.562v6.324c0 .443-.036.562-.897.562H.49V0h6.66z"/><path id="j" d="M4.866-1.423c0-.071-.06-.12-.132-.12-.095 0-.12.06-.143.12C4.28-.418 3.479-.143 2.977-.143s-1.71-.335-1.71-2.403v-.228H4.58c.263 0 .287 0 .287-.227 0-1.207-.646-2.331-2.092-2.331C1.41-5.332.359-4.101.359-2.618.359-1.04 1.579.12 2.905.12c1.423 0 1.96-1.292 1.96-1.543M4.125-3H1.279c.096-1.877 1.148-2.092 1.483-2.092 1.279 0 1.35 1.686 1.363 2.092"/><path id="m" d="m7.137-5.475-.31-2.666H.49v.346h.24c.86 0 .896.12.896.562v6.324c0 .443-.036.562-.897.562H.49V0C.777-.024 1.841-.024 2.2-.024c.418 0 1.47 0 1.817.024v-.347h-.359c-1.04 0-1.064-.143-1.064-.574v-2.976h1.052c1.124 0 1.244.394 1.244 1.398h.263v-3.144H4.89c0 1.004-.12 1.399-1.244 1.399H2.594v-3.073c0-.394.024-.478.55-.478H4.64c1.721 0 2.068.634 2.235 2.32z"/><path id="c" d="M5.679-4.854a.56.56 0 0 0-.586-.55c-.622 0-1.088.383-1.255.562a2 2 0 0 0-1.232-.43C1.53-5.272.73-4.46.73-3.54c0 .682.419 1.124.538 1.232-.143.179-.358.526-.358.992 0 .693.418.992.514 1.052-.55.155-1.1.586-1.1 1.207 0 .825 1.124 1.507 2.594 1.507 1.423 0 2.606-.634 2.606-1.53 0-.3-.083-1.005-.8-1.375-.61-.311-1.208-.311-2.236-.311-.73 0-.813 0-1.028-.227a.88.88 0 0 1-.228-.598c0-.203.072-.407.192-.574.562.37 1.04.37 1.171.37 1.076 0 1.877-.812 1.877-1.733 0-.323-.095-.777-.478-1.16.466-.478 1.028-.478 1.088-.478.048 0 .108 0 .155.024-.12.048-.179.168-.179.3 0 .167.12.31.31.31.097 0 .312-.06.312-.323M3.646-3.539c0 .215 0 .706-.203 1.028a1.02 1.02 0 0 1-.837.467c-1.052 0-1.052-1.208-1.052-1.483 0-.215 0-.705.203-1.028a1.02 1.02 0 0 1 .837-.466c1.052 0 1.052 1.207 1.052 1.482M4.937.933c0 .705-.908 1.267-2.008 1.267C1.781 2.2.909 1.614.909.933c0-.096.024-.562.478-.873.263-.168.37-.168 1.207-.168.993 0 2.343 0 2.343 1.04"/><path id="b" d="M2.881 0v-.347c-.777 0-.825-.06-.825-.526v-4.4L.43-5.14v.347c.766 0 .873.072.873.658v3.251c0 .538-.131.538-.908.538V0c.334-.024.908-.024 1.255-.024.131 0 .825 0 1.231.024m-.67-7.22a.58.58 0 1 0-.586.574.576.576 0 0 0 .587-.575"/><path id="d" d="M6.229 0v-.347c-.598 0-.897 0-.909-.358v-2.2c0-1.112 0-1.447-.275-1.83-.347-.465-.909-.537-1.315-.537-1.16 0-1.614.992-1.71 1.231h-.012v-1.231l-1.625.131v.347c.813 0 .908.084.908.67v3.24c0 .537-.131.537-.908.537V0c.31-.024.956-.024 1.29-.024.347 0 .993 0 1.304.024v-.347c-.765 0-.909 0-.909-.538v-2.223c0-1.256.825-1.925 1.566-1.925s.909.61.909 1.339v2.81c0 .537-.132.537-.909.537V0c.311-.024.957-.024 1.292-.024.346 0 .992 0 1.303.024"/><path id="i" d="M5.487-2.558c0-1.543-1.171-2.774-2.558-2.774-1.435 0-2.57 1.267-2.57 2.774C.359-1.028 1.554.12 2.917.12c1.41 0 2.57-1.172 2.57-2.678m-.908-.108c0 .418 0 1.16-.311 1.722a1.56 1.56 0 0 1-1.339.8c-.442 0-.98-.19-1.327-.777-.323-.538-.335-1.243-.335-1.745 0-.454 0-1.184.37-1.722.336-.514.862-.705 1.28-.705.466 0 .968.215 1.291.682.37.55.37 1.303.37 1.745"/><path id="h" d="M6.073-2.582c0-1.519-1.124-2.69-2.427-2.69-1.052 0-1.614.753-1.65.8v-.8l-1.661.131v.347c.837 0 .908.084.908.61v5.619c0 .538-.131.538-.908.538v.346c.31-.024.956-.024 1.29-.024.348 0 .993 0 1.304.024v-.346c-.765 0-.909 0-.909-.538v-2.08c.216.298.706.765 1.47.765 1.376 0 2.583-1.16 2.583-2.702m-.908 0C5.165-1.16 4.352-.12 3.43-.12a1.4 1.4 0 0 1-.956-.382c-.275-.275-.455-.514-.455-.849v-2.463c0-.227 0-.239.132-.43A1.72 1.72 0 0 1 3.55-5.01c.896 0 1.614 1.088 1.614 2.427"/><path id="n" d="M4.22-4.579c0-.358-.323-.693-.837-.693-1.016 0-1.363 1.1-1.434 1.327h-.012v-1.327l-1.602.131v.347c.813 0 .908.084.908.67v3.24c0 .537-.131.537-.908.537V0c.334-.024.992-.024 1.35-.024.323 0 1.172 0 1.447.024v-.347h-.239c-.873 0-.896-.131-.896-.562v-1.877c0-1.16.478-2.247 1.398-2.247.096 0 .12 0 .168.012-.096.048-.287.12-.287.442 0 .347.275.478.466.478.24 0 .478-.155.478-.478"/><path id="a" d="M5.846-2.2c0-.729-.275-1.267-.598-1.662-.442-.538-.98-.669-1.446-.789l-1.315-.334c-.61-.156-1.148-.753-1.148-1.519 0-.836.67-1.59 1.602-1.59 1.96 0 2.224 1.937 2.295 2.451.024.144.024.191.144.191.131 0 .131-.06.131-.275V-8.14c0-.216 0-.275-.12-.275-.035 0-.083 0-.167.155l-.394.73c-.574-.742-1.363-.885-1.889-.885A2.28 2.28 0 0 0 .646-6.133c0 .574.203 1.1.645 1.578.419.466.837.574 1.686.79.418.095 1.076.262 1.243.334.562.275.933.92.933 1.59 0 .897-.634 1.745-1.626 1.745-.538 0-1.28-.131-1.865-.645C.968-1.363.92-2.224.909-2.618c-.012-.096-.132-.096-.132-.096-.131 0-.131.06-.131.275v2.415c0 .215 0 .275.12.275.07 0 .083-.024.167-.167l.394-.718c.43.479 1.184.885 2.212.885 1.339 0 2.307-1.136 2.307-2.45"/><path id="k" d="M3.897-1.482v-.682h-.263v.658c0 .86-.346 1.363-.813 1.363-.813 0-.813-1.112-.813-1.316v-3.347h1.686v-.347H2.008v-2.2h-.263C1.733-6.228 1.303-5.08.215-5.044v.239h1.016v3.324C1.231-.155 2.116.12 2.75.12c.753 0 1.147-.742 1.147-1.602"/><path id="g" d="M6.05 0v-.347c-.634 0-.85-.024-1.136-.406L3.347-2.821c.347-.455.85-1.1 1.076-1.351.49-.55 1.052-.634 1.435-.634v-.347c-.514.024-.538.024-1.004.024l-1.076-.024v.347c.155.024.347.096.347.37 0 .204-.108.335-.18.431l-.765.968-.932-1.231c-.036-.048-.108-.155-.108-.24 0-.07.06-.286.418-.298v-.347c-.298.024-.908.024-1.231.024L.179-5.153v.347c.61 0 .837.024 1.088.347L2.666-2.63c.024.024.072.096.072.131S1.805-1.29 1.686-1.136C1.16-.49.634-.359.12-.346V0c.454-.024.478-.024.992-.024L2.188 0v-.347c-.287-.036-.335-.215-.335-.382 0-.192.084-.287.203-.443l.861-1.111.98 1.279c.204.263.204.287.204.358 0 .096-.096.287-.419.3V0c.311-.024.897-.024 1.232-.024z"/></defs><g stroke="#000" stroke-miterlimit="10" stroke-width=".4"><path fill="none" stroke-width=".398504" d="M-60.462-41.626H229.61v-18.836H-60.462Zm53.417-18.836v18.836M86.53-60.462v18.836"/><g stroke="none" transform="matrix(1 0 0 1 -141.052 2.983)"><use xlink:href="#a" x="90.244" y="-51.044"/><use xlink:href="#b" x="96.747" y="-51.044"/><use xlink:href="#c" x="99.999" y="-51.044"/><use xlink:href="#d" x="105.857" y="-51.044"/><use xlink:href="#e" x="116.258" y="-51.044"/></g><g stroke="none" transform="matrix(1 0 0 1 -87.436 2.925)"><use xlink:href="#f" x="95.913" y="-51.044"/><use xlink:href="#g" x="103.875" y="-51.044"/><use xlink:href="#h" x="110.056" y="-51.044"/><use xlink:href="#i" x="116.882" y="-51.044"/><use xlink:href="#d" x="122.74" y="-51.044"/><use xlink:href="#j" x="129.244" y="-51.044"/><use xlink:href="#d" x="134.444" y="-51.044"/><use xlink:href="#k" x="140.625" y="-51.044"/><use xlink:href="#l" x="149.077" y="-51.044"/></g><g stroke="none" transform="matrix(1 0 0 1 6.14 4.025)"><use xlink:href="#m" x="124.259" y="-51.044"/><use xlink:href="#n" x="130.918" y="-51.044"/><use xlink:href="#o" x="135.473" y="-51.044"/><use xlink:href="#p" x="141.331" y="-51.044"/><use xlink:href="#k" x="146.532" y="-51.044"/><use xlink:href="#b" x="151.087" y="-51.044"/><use xlink:href="#i" x="154.339" y="-51.044"/><use xlink:href="#d" x="160.197" y="-51.044"/><use xlink:href="#q" x="170.598" y="-51.044"/></g><g stroke="none" transform="matrix(1 0 0 1 -133.886 24.818)"><use xlink:href="#r" x="84.574" y="-51.044"/><use xlink:href="#s" x="88.818" y="-51.044"/><use xlink:href="#t" x="97.905" y="-51.044"/><use xlink:href="#u" x="103.971" y="-51.044"/><use xlink:href="#v" x="107.003" y="-51.044"/><use xlink:href="#w" x="111.247" y="-51.044"/></g><g stroke="none" transform="matrix(1 0 0 1 -62.44 24.818)"><use xlink:href="#r" x="84.574" y="-51.044"/><use xlink:href="#x" x="88.818" y="-51.044"/><use xlink:href="#t" x="97.905" y="-51.044"/><use xlink:href="#u" x="103.971" y="-51.044"/><use xlink:href="#v" x="107.003" y="-51.044"/><use xlink:href="#y" x="111.247" y="-51.044"/><use xlink:href="#w" x="115.545" y="-51.044"/></g><g stroke="none" transform="matrix(1 0 0 1 53.261 24.818)"><use xlink:href="#r" x="84.574" y="-51.044"/><use xlink:href="#z" x="88.818" y="-51.044"/><use xlink:href="#A" x="94.272" y="-51.044"/><use xlink:href="#t" x="103.36" y="-51.044"/><use xlink:href="#u" x="109.425" y="-51.044"/><use xlink:href="#v" x="112.458" y="-51.044"/><use xlink:href="#y" x="116.702" y="-51.044"/><use xlink:href="#w" x="121" y="-51.044"/></g></g></svg>