<svg xmlns="http://www.w3.org/2000/svg" xmlns:xlink="http://www.w3.org/1999/xlink" width="152.85pt" height="88.81pt" viewBox="0 0 152.85 88.81"><defs><path id="o" d="M8.456-4.09c0-.228-.204-.228-.383-.228H1.029c-.168 0-.383 0-.383.216 0 .227.203.227.383.227h7.044c.167 0 .383 0 .383-.215m0 2.224c0-.227-.204-.227-.383-.227H1.029c-.168 0-.383 0-.383.215 0 .228.203.228.383.228h7.044c.167 0 .383 0 .383-.216"/><path id="p" d="M2.2-.586a.58.58 0 0 0-.573-.574.577.577 0 0 0-.586.574.58.58 0 1 0 1.16 0"/><path id="i" d="M5.684-2.357c0-1.385-1.07-2.465-2.313-2.465-.85 0-1.32.513-1.494.709v-3.459l-1.572.12v.339c.764 0 .851.076.851.61V0h.273l.393-.676c.164.25.622.796 1.43.796 1.297 0 2.432-1.07 2.432-2.477m-.905-.01c0 .403-.022 1.058-.339 1.549-.229.338-.643.698-1.232.698-.491 0-.884-.262-1.146-.666-.153-.229-.153-.261-.153-.458V-3.49c0-.207 0-.218.12-.393a1.58 1.58 0 0 1 1.288-.698c.49 0 .883.283 1.145.698.284.447.317 1.07.317 1.517"/><path id="j" d="M2.695 0v-.338c-.72 0-.764-.055-.764-.48v-4.004l-1.527.12v.338c.709 0 .807.065.807.6v2.935c0 .49-.12.49-.851.49V0l1.2-.033c.382 0 .764.022 1.135.033m-.6-6.59a.583.583 0 0 0-1.167 0 .583.583 0 0 0 1.167 0"/><path id="f" d="M3.611 2.618c0-.032 0-.054-.185-.24-1.364-1.374-1.713-3.436-1.713-5.105 0-1.899.414-3.797 1.756-5.16.142-.132.142-.154.142-.186 0-.077-.043-.11-.109-.11-.109 0-1.09.742-1.735 2.128-.556 1.2-.687 2.411-.687 3.327 0 .851.12 2.172.72 3.404.655 1.342 1.593 2.052 1.702 2.052.066 0 .11-.033.11-.11"/><path id="m" d="M3.153-2.727c0-.851-.12-2.172-.72-3.404C1.778-7.473.84-8.182.73-8.182c-.065 0-.11.043-.11.109 0 .032 0 .054.208.25C1.9-6.742 2.52-5.007 2.52-2.726c0 1.865-.403 3.785-1.756 5.16-.142.13-.142.153-.142.185 0 .066.044.11.109.11.11 0 1.091-.742 1.735-2.128.556-1.2.687-2.411.687-3.327"/><path id="l" d="M3.928-1.396c0-.579-.328-.906-.459-1.037-.36-.35-.785-.436-1.243-.524-.611-.12-1.342-.261-1.342-.894 0-.382.283-.83 1.222-.83 1.2 0 1.254.983 1.276 1.32.011.099.131.099.131.099.142 0 .142-.055.142-.262v-1.102c0-.185 0-.262-.12-.262-.055 0-.077 0-.218.131a1.4 1.4 0 0 1-.186.175c-.414-.306-.862-.306-1.025-.306C.775-4.888.36-4.157.36-3.546c0 .382.175.688.47.928.348.283.654.349 1.44.501.24.044 1.134.219 1.134 1.004 0 .557-.382.993-1.233.993-.916 0-1.31-.622-1.516-1.55C.622-1.81.61-1.854.502-1.854c-.142 0-.142.077-.142.273v1.44C.36.044.36.12.48.12.535.12.546.11.753-.098.775-.12.775-.142.97-.35c.48.458.971.469 1.2.469 1.255 0 1.757-.731 1.757-1.516"/><path id="k" d="M3.622-1.353v-.622H3.35v.6c0 .808-.327 1.222-.73 1.222-.732 0-.732-.993-.732-1.178v-3.033h1.56v-.338h-1.56V-6.71h-.272c-.011.895-.339 2.062-1.408 2.106v.24h.928v3.011C1.135-.01 2.149.12 2.542.12c.775 0 1.08-.775 1.08-1.473"/><path id="h" d="M4.986-1.866c0-.894-.687-1.745-1.822-1.974C4.059-4.135 4.69-4.9 4.69-5.76c0-.895-.96-1.506-2.007-1.506-1.102 0-1.931.655-1.931 1.484 0 .36.24.567.556.567.338 0 .557-.24.557-.556 0-.546-.513-.546-.677-.546.338-.534 1.058-.676 1.451-.676.448 0 1.048.24 1.048 1.222 0 .13-.022.763-.306 1.243-.327.524-.698.557-.97.568-.088.01-.35.032-.426.032-.088.011-.164.022-.164.131 0 .12.076.12.262.12h.48c.894 0 1.298.742 1.298 1.811 0 1.484-.753 1.8-1.233 1.8C2.16-.065 1.342-.25.96-.894c.382.055.72-.185.72-.6 0-.392-.294-.61-.61-.61-.263 0-.612.152-.612.632C.458-.48 1.473.24 2.662.24c1.331 0 2.324-.993 2.324-2.106"/><path id="g" d="M4.899-1.898h-.273c-.055.327-.131.807-.24.97-.077.088-.797.088-1.037.088H1.386l1.156-1.124C4.244-3.469 4.899-4.059 4.899-5.15c0-1.243-.982-2.116-2.313-2.116a2.016 2.016 0 0 0-2.04 1.975c0 .61.545.61.578.61.185 0 .567-.13.567-.578a.55.55 0 0 0-.578-.567c-.087 0-.11 0-.142.011.25-.71.84-1.113 1.473-1.113.993 0 1.462.884 1.462 1.778 0 .873-.546 1.735-1.146 2.412L.666-.404c-.12.12-.12.142-.12.404h4.047z"/><path id="b" d="M2.503-5.077c0-.215-.016-.223-.232-.223-.326.319-.749.51-1.506.51v.263c.215 0 .646 0 1.108-.215v4.088c0 .295-.024.391-.781.391h-.28V0c.328-.024 1.013-.024 1.372-.024s1.052 0 1.379.024v-.263h-.28c-.757 0-.78-.096-.78-.39z"/><path id="c" d="M2.248-1.626c.127-.12.462-.382.59-.494.493-.454.964-.893.964-1.618 0-.948-.797-1.562-1.794-1.562-.956 0-1.586.725-1.586 1.435 0 .39.311.446.423.446a.41.41 0 0 0 .414-.423c0-.414-.398-.414-.494-.414a1.23 1.23 0 0 1 1.156-.781c.741 0 1.124.63 1.124 1.3 0 .828-.582 1.434-1.523 2.398L.518-.303C.422-.215.422-.199.422 0h3.149l.23-1.427h-.246c-.024.16-.088.558-.184.71-.048.063-.653.063-.78.063H1.17z"/><path id="d" d="M2.016-2.662c.63 0 1.029.462 1.029 1.3 0 .995-.566 1.29-.989 1.29-.438 0-1.036-.16-1.315-.582.287 0 .486-.183.486-.446a.423.423 0 0 0-.438-.438c-.215 0-.438.135-.438.454 0 .757.813 1.251 1.721 1.251 1.06 0 1.801-.733 1.801-1.53 0-.661-.526-1.267-1.339-1.442.63-.224 1.1-.766 1.1-1.403S2.917-5.3 2.088-5.3C1.235-5.3.59-4.838.59-4.232c0 .295.199.422.406.422a.39.39 0 0 0 .407-.406c0-.295-.255-.407-.43-.415.334-.438.948-.462 1.091-.462.207 0 .813.064.813.885 0 .558-.231.892-.343 1.02-.239.247-.422.263-.908.295-.152.008-.215.016-.215.12 0 .111.071.111.207.111z"/><path id="e" d="M2.2-.574a.584.584 0 0 0-.573-.586.584.584 0 0 0-.586.574c0 .347.287.586.574.586A.584.584 0 0 0 2.2-.574"/><path id="n" d="M3.552-3.899H4.7c.91 0 .981.203.981.55 0 .156-.024.323-.084.586a.4.4 0 0 0-.036.132c0 .084.048.131.132.131.096 0 .108-.047.155-.239l.694-2.787c0-.047-.036-.12-.12-.12-.107 0-.12.049-.167.252-.251.897-.49 1.148-1.53 1.148h-1.09l.778-3.097c.108-.419.132-.455.622-.455h1.603c1.495 0 1.71.443 1.71 1.292 0 .072 0 .335-.036.646a2 2 0 0 0-.036.25c0 .096.06.132.132.132.084 0 .131-.048.155-.263l.252-2.093c0-.036.023-.155.023-.18 0-.13-.107-.13-.322-.13h-5.67c-.227 0-.346 0-.346.215 0 .131.083.131.287.131.741 0 .741.084.741.215a1 1 0 0 1-.048.24L1.866-.885c-.108.419-.132.538-.969.538-.227 0-.347 0-.347.215C.55 0 .658 0 .73 0c.227 0 .466-.024.693-.024h1.555c.263 0 .55.024.813.024.108 0 .251 0 .251-.215 0-.132-.071-.132-.334-.132-.945 0-.97-.084-.97-.263 0-.06.025-.155.049-.24z"/><path id="a" d="M5.334-4.808c.24 0 .335 0 .335-.227 0-.12-.096-.12-.31-.12h-.97c.228-1.232.395-2.08.49-2.464.072-.287.324-.562.635-.562.25 0 .502.108.621.216-.466.047-.61.394-.61.598 0 .239.18.382.407.382.24 0 .598-.203.598-.657 0-.503-.502-.778-1.028-.778-.515 0-1.017.383-1.256.85-.215.418-.335.848-.61 2.415h-.801c-.228 0-.347 0-.347.216 0 .131.071.131.31.131h.766C3.35-3.696 2.858-.993 2.584.287c-.204 1.04-.383 1.914-.981 1.914-.036 0-.383 0-.598-.228.61-.047.61-.574.61-.586 0-.239-.18-.382-.407-.382a.63.63 0 0 0-.598.657c0 .515.526.778.993.778 1.22 0 1.722-2.189 1.853-2.787.216-.92.802-4.102.862-4.46z"/></defs><path fill="none" stroke="#000" stroke-miterlimit="10" stroke-width=".3985" d="M11.537 30.131H141.31V11.535H11.537Zm18.671-18.596V30.13m18.87-18.596V30.13m18.87-18.596V30.13m50.456-18.596V30.13"/><use xlink:href="#a" x="4.424776" y="-51.184542" transform="translate(11.099 74.986)scale(1.0004)"/><use xlink:href="#b" x="10.192872" y="-49.370385" transform="matrix(.99999 0 0 .99999 11.099 74.986)"/><use xlink:href="#a" x="4.424776" y="-51.184542" transform="translate(29.969 74.986)scale(1.0004)"/><use xlink:href="#c" x="10.192872" y="-49.370385" transform="matrix(.99999 0 0 .99999 29.969 74.986)"/><use xlink:href="#a" x="4.424776" y="-51.184542" transform="translate(48.839 74.986)scale(1.0004)"/><use xlink:href="#d" x="10.192872" y="-49.370385" transform="matrix(.99999 0 0 .99999 48.839 74.986)"/><g transform="translate(67.71 72.578)scale(1.0004)"><use xlink:href="#e" x="18.603466" y="-51.184542"/><use xlink:href="#e" x="23.829989" y="-51.184542"/><use xlink:href="#e" x="29.068469" y="-51.184542"/></g><use xlink:href="#a" x="4.424776" y="-51.184542" transform="translate(118.165 74.986)scale(1.0004)"/><g transform="matrix(.99999 0 0 .99999 118.165 74.986)"><use xlink:href="#c" x="10.192872" y="-49.370385"/><use xlink:href="#d" x="14.424942" y="-49.370385"/></g><g transform="translate(51.665 96.695)scale(1.00008)"><use xlink:href="#f" x="4.423365" y="-51.168221"/><use xlink:href="#g" x="8.667354" y="-51.168221"/><use xlink:href="#h" x="14.122354" y="-51.168221"/><use xlink:href="#i" x="23.199474" y="-51.168221"/><use xlink:href="#j" x="29.265434" y="-51.168221"/><use xlink:href="#k" x="32.298414" y="-51.168221"/><use xlink:href="#l" x="36.542404" y="-51.168221"/><use xlink:href="#m" x="40.840948" y="-51.168221"/></g><g transform="translate(25.335 122.327)scale(1.0004)"><use xlink:href="#n" x="4.424776" y="-51.184542"/><use xlink:href="#o" x="17.531036" y="-51.184542"/><use xlink:href="#p" x="30.531558" y="-51.184542"/><use xlink:href="#a" x="33.796564" y="-51.184542"/></g><use xlink:href="#b" x="39.552504" y="-49.370385" transform="matrix(.99999 0 0 .99999 25.335 122.327)"/><use xlink:href="#a" x="44.30278" y="-51.184542" transform="translate(25.335 122.327)scale(1.0004)"/><use xlink:href="#c" x="50.054372" y="-49.370385" transform="matrix(.99999 0 0 .99999 25.335 122.327)"/><use xlink:href="#a" x="54.808997" y="-51.184542" transform="translate(25.335 122.327)scale(1.0004)"/><use xlink:href="#d" x="60.55624" y="-49.370385" transform="matrix(.99999 0 0 .99999 25.335 122.327)"/><g transform="translate(25.335 122.327)scale(1.0004)"><use xlink:href="#e" x="67.309014" y="-51.184542"/><use xlink:href="#e" x="72.535538" y="-51.184542"/><use xlink:href="#e" x="77.774023" y="-51.184542"/><use xlink:href="#a" x="83.012506" y="-51.184542"/></g><g transform="matrix(.99999 0 0 .99999 25.335 122.327)"><use xlink:href="#c" x="88.783885" y="-49.370385"/><use xlink:href="#d" x="93.015953" y="-49.370385"/></g></svg>