<svg xmlns="http://www.w3.org/2000/svg" xmlns:xlink="http://www.w3.org/1999/xlink" width="203.794" height="118.418" viewBox="-72 -72 152.846 88.813"><defs><path id="o" d="M8.452-4.089c0-.227-.203-.227-.382-.227H1.028c-.167 0-.382 0-.382.215 0 .228.203.228.382.228H8.07c.167 0 .382 0 .382-.216m0 2.224c0-.227-.203-.227-.382-.227H1.028c-.167 0-.382 0-.382.215 0 .227.203.227.382.227H8.07c.167 0 .382 0 .382-.215"/><path id="p" d="M2.2-.586a.58.58 0 0 0-.574-.574.577.577 0 0 0-.586.574.58.58 0 1 0 1.16 0"/><path id="i" d="M5.684-2.356c0-1.386-1.07-2.466-2.313-2.466-.851 0-1.32.513-1.495.71v-3.459l-1.57.12v.338c.763 0 .85.077.85.611V0h.273l.393-.676c.163.25.622.796 1.429.796 1.298 0 2.433-1.07 2.433-2.476m-.906-.011c0 .403-.022 1.058-.338 1.549-.23.338-.644.698-1.233.698-.49 0-.883-.262-1.145-.665-.153-.23-.153-.262-.153-.459V-3.49c0-.207 0-.218.12-.393a1.58 1.58 0 0 1 1.287-.698c.491 0 .884.284 1.146.698.283.448.316 1.07.316 1.517"/><path id="j" d="M2.695 0v-.338c-.72 0-.764-.055-.764-.48v-4.004l-1.527.12v.338c.709 0 .807.066.807.6v2.935c0 .49-.12.49-.851.49V0l1.2-.033c.382 0 .764.022 1.135.033m-.6-6.59a.583.583 0 0 0-1.167 0c0 .295.25.58.577.58.371 0 .59-.306.59-.58"/><path id="f" d="M3.61 2.618c0-.033 0-.054-.185-.24-1.363-1.374-1.712-3.436-1.712-5.105 0-1.898.414-3.797 1.756-5.16.142-.131.142-.153.142-.186 0-.076-.044-.109-.11-.109-.108 0-1.09.742-1.734 2.127-.556 1.2-.687 2.411-.687 3.328 0 .85.12 2.17.72 3.403.655 1.342 1.593 2.051 1.702 2.051.065 0 .109-.032.109-.109"/><path id="m" d="M3.153-2.727c0-.851-.12-2.171-.72-3.404C1.778-7.473.84-8.18.73-8.18c-.066 0-.11.043-.11.108 0 .033 0 .055.208.251C1.9-6.742 2.52-5.007 2.52-2.727c0 1.865-.404 3.785-1.756 5.16-.142.13-.142.152-.142.185 0 .066.043.11.109.11.109 0 1.09-.743 1.734-2.128.557-1.2.688-2.41.688-3.327"/><path id="l" d="M3.927-1.396c0-.579-.327-.906-.458-1.037-.36-.349-.785-.436-1.244-.523-.61-.12-1.341-.262-1.341-.895 0-.382.283-.829 1.221-.829 1.2 0 1.255.982 1.277 1.32.01.098.13.098.13.098.143 0 .143-.054.143-.262v-1.101c0-.186 0-.262-.12-.262-.055 0-.077 0-.219.13a1.4 1.4 0 0 1-.185.175c-.415-.305-.862-.305-1.026-.305-1.33 0-1.745.73-1.745 1.342 0 .381.175.687.47.927.348.283.654.349 1.44.502.24.043 1.134.218 1.134 1.003 0 .557-.382.993-1.233.993C1.255-.12.86-.742.655-1.67.622-1.81.61-1.854.502-1.854c-.142 0-.142.077-.142.273v1.44C.36.044.36.12.48.12.535.12.545.11.753-.098.775-.12.775-.142.97-.35c.48.458.97.469 1.2.469 1.254 0 1.756-.73 1.756-1.516"/><path id="k" d="M3.622-1.353v-.622h-.273v.6c0 .808-.327 1.222-.73 1.222-.732 0-.732-.992-.732-1.178v-3.033h1.56v-.338h-1.56v-2.007h-.272c-.011.894-.339 2.062-1.408 2.105v.24h.928v3.011C1.135-.01 2.149.12 2.542.12c.774 0 1.08-.775 1.08-1.473"/><path id="h" d="M4.985-1.865c0-.895-.687-1.746-1.821-1.975.894-.295 1.527-1.058 1.527-1.92 0-.895-.96-1.505-2.007-1.505-1.102 0-1.931.654-1.931 1.483 0 .36.24.567.556.567.338 0 .556-.24.556-.556 0-.545-.512-.545-.676-.545.338-.535 1.058-.677 1.451-.677.447 0 1.047.24 1.047 1.222 0 .131-.022.764-.305 1.244-.327.523-.698.556-.971.567-.087.01-.35.033-.426.033-.087.01-.163.022-.163.13 0 .12.076.12.262.12h.48c.894 0 1.298.742 1.298 1.812 0 1.483-.753 1.8-1.233 1.8-.469 0-1.287-.186-1.669-.83.382.055.72-.185.72-.6 0-.392-.295-.61-.61-.61-.263 0-.612.152-.612.632C.458-.48 1.473.24 2.662.24c1.33 0 2.323-.993 2.323-2.105"/><path id="g" d="M4.898-1.898h-.273c-.054.327-.13.807-.24.97C4.31-.84 3.59-.84 3.35-.84H1.385l1.157-1.124c1.702-1.505 2.356-2.094 2.356-3.185 0-1.244-.982-2.116-2.313-2.116a2.016 2.016 0 0 0-2.04 1.974c0 .611.546.611.579.611.185 0 .567-.13.567-.578a.55.55 0 0 0-.578-.567c-.088 0-.11 0-.142.01.25-.709.84-1.112 1.473-1.112.992 0 1.461.883 1.461 1.778 0 .873-.545 1.734-1.145 2.41L.665-.403c-.12.12-.12.142-.12.404h4.048z"/><path id="b" d="M2.503-5.077c0-.215-.016-.223-.232-.223-.326.319-.749.51-1.506.51v.263c.215 0 .646 0 1.108-.215v4.088c0 .295-.024.391-.781.391H.813V0c.327-.024 1.012-.024 1.37-.024s1.053 0 1.38.024v-.263h-.28c-.756 0-.78-.096-.78-.39z"/><path id="c" d="M2.248-1.626c.127-.12.462-.382.59-.494.494-.454.964-.893.964-1.618 0-.948-.797-1.562-1.794-1.562-.956 0-1.586.725-1.586 1.434 0 .391.311.447.423.447a.41.41 0 0 0 .414-.423c0-.414-.398-.414-.494-.414a1.23 1.23 0 0 1 1.156-.781c.741 0 1.124.63 1.124 1.299 0 .829-.582 1.435-1.523 2.399L.518-.303C.422-.215.422-.199.422 0h3.149l.23-1.427h-.246c-.024.16-.088.558-.184.71-.047.063-.653.063-.78.063H1.17z"/><path id="d" d="M2.016-2.662c.63 0 1.029.462 1.029 1.3 0 .995-.566 1.29-.989 1.29-.438 0-1.036-.16-1.315-.582.287 0 .486-.183.486-.446a.423.423 0 0 0-.438-.438c-.215 0-.438.135-.438.454 0 .757.813 1.251 1.721 1.251 1.06 0 1.801-.733 1.801-1.53 0-.661-.526-1.267-1.339-1.442.63-.224 1.1-.766 1.1-1.403S2.917-5.3 2.088-5.3C1.235-5.3.59-4.838.59-4.232c0 .295.199.422.406.422a.39.39 0 0 0 .407-.406c0-.295-.255-.407-.43-.415.334-.438.948-.462 1.091-.462.207 0 .813.064.813.885 0 .558-.23.892-.343 1.02-.239.247-.422.263-.908.295-.152.008-.215.016-.215.12 0 .111.071.111.207.111z"/><path id="e" d="M2.2-.574a.584.584 0 0 0-.574-.586.584.584 0 0 0-.586.574c0 .347.287.586.574.586A.584.584 0 0 0 2.2-.574"/><path id="n" d="M3.55-3.897h1.148c.909 0 .98.203.98.55 0 .155-.023.322-.083.585a.4.4 0 0 0-.036.132c0 .084.048.131.132.131.095 0 .107-.047.155-.239l.693-2.785c0-.048-.035-.12-.12-.12-.107 0-.119.048-.166.251-.252.897-.49 1.148-1.53 1.148H3.633l.777-3.096c.108-.419.132-.455.622-.455h1.602c1.495 0 1.71.443 1.71 1.291 0 .072 0 .335-.036.646a2 2 0 0 0-.036.251c0 .096.06.132.131.132.084 0 .132-.048.156-.263l.251-2.093c0-.036.024-.155.024-.179 0-.131-.108-.131-.323-.131H2.845c-.227 0-.346 0-.346.215 0 .131.083.131.287.131.74 0 .74.084.74.215a1 1 0 0 1-.047.24L1.865-.885c-.108.419-.132.538-.968.538-.228 0-.347 0-.347.215C.55 0 .658 0 .73 0c.226 0 .466-.024.693-.024h1.554c.263 0 .55.024.813.024.107 0 .25 0 .25-.215 0-.132-.07-.132-.334-.132-.944 0-.968-.083-.968-.263 0-.06.024-.155.048-.239z"/><path id="a" d="M5.332-4.806c.24 0 .335 0 .335-.227 0-.12-.096-.12-.311-.12h-.968c.227-1.231.394-2.08.49-2.462.071-.287.322-.562.633-.562.251 0 .502.107.622.215-.466.048-.61.394-.61.598 0 .239.18.382.407.382.239 0 .598-.203.598-.657 0-.502-.503-.777-1.029-.777-.514 0-1.016.382-1.255.848-.215.419-.335.85-.61 2.415h-.8c-.228 0-.347 0-.347.216 0 .131.071.131.31.131h.766c-.216 1.112-.706 3.814-.98 5.093C2.378 1.327 2.2 2.2 1.601 2.2c-.036 0-.383 0-.598-.227.61-.048.61-.574.61-.586 0-.24-.18-.383-.407-.383a.63.63 0 0 0-.597.658c0 .514.526.777.992.777 1.22 0 1.722-2.188 1.853-2.786.215-.92.801-4.1.86-4.459z"/></defs><g stroke="#000" stroke-miterlimit="10" stroke-width=".4"><path fill="none" stroke-width=".398504" d="M-60.462-41.866h129.77v-18.596h-129.77Zm18.67-18.596v18.596m18.87-18.596v18.596m18.87-18.596v18.596m50.455-18.596v18.596"/><g stroke="none" transform="matrix(1 0 0 1 -60.9 2.989)"><use xlink:href="#a" x="4.423" y="-51.164"/><use xlink:href="#b" x="10.193" y="-49.371"/></g><g stroke="none" transform="matrix(1 0 0 1 -42.03 2.989)"><use xlink:href="#a" x="4.423" y="-51.164"/><use xlink:href="#c" x="10.193" y="-49.371"/></g><g stroke="none" transform="matrix(1 0 0 1 -23.16 2.989)"><use xlink:href="#a" x="4.423" y="-51.164"/><use xlink:href="#d" x="10.193" y="-49.371"/></g><g stroke="none" transform="matrix(1 0 0 1 -4.29 .581)"><use xlink:href="#e" x="18.596" y="-51.164"/><use xlink:href="#e" x="23.84" y="-51.164"/><use xlink:href="#e" x="29.084" y="-51.164"/></g><g stroke="none" transform="matrix(1 0 0 1 46.164 2.989)"><use xlink:href="#a" x="4.423" y="-51.164"/><use xlink:href="#c" x="10.193" y="-49.371"/><use xlink:href="#d" x="14.427" y="-49.371"/></g><g stroke="none" transform="matrix(1 0 0 1 -20.335 24.698)"><use xlink:href="#f" x="4.423" y="-51.164"/><use xlink:href="#g" x="8.667" y="-51.164"/><use xlink:href="#h" x="14.121" y="-51.164"/><use xlink:href="#i" x="23.208" y="-51.164"/><use xlink:href="#j" x="29.274" y="-51.164"/><use xlink:href="#k" x="32.306" y="-51.164"/><use xlink:href="#l" x="36.55" y="-51.164"/><use xlink:href="#m" x="40.848" y="-51.164"/></g><g stroke="none" transform="matrix(1 0 0 1 -46.664 50.33)"><use xlink:href="#n" x="4.423" y="-51.164"/><use xlink:href="#o" x="17.524" y="-51.164"/><use xlink:href="#p" x="30.531" y="-51.164"/><use xlink:href="#a" x="33.783" y="-51.164"/><use xlink:href="#b" x="39.553" y="-49.371"/><use xlink:href="#a" x="44.285" y="-51.164"/><use xlink:href="#c" x="50.055" y="-49.371"/><use xlink:href="#a" x="54.788" y="-51.164"/><use xlink:href="#d" x="60.558" y="-49.371"/><use xlink:href="#e" x="67.282" y="-51.164"/><use xlink:href="#e" x="72.526" y="-51.164"/><use xlink:href="#e" x="77.771" y="-51.164"/><use xlink:href="#a" x="83.015" y="-51.164"/><use xlink:href="#c" x="88.785" y="-49.371"/><use xlink:href="#d" x="93.019" y="-49.371"/></g></g></svg>