<svg xmlns="http://www.w3.org/2000/svg" xmlns:xlink="http://www.w3.org/1999/xlink" width="316.522" height="120.031" viewBox="-72 -72 237.392 90.023"><defs><path id="c" d="M2.2-.574a.584.584 0 0 0-.574-.586.584.584 0 0 0-.586.574c0 .347.287.586.574.586A.584.584 0 0 0 2.2-.574"/><path id="k" d="M8.309-2.774c.012-.035.048-.12.048-.167a.12.12 0 0 0-.12-.12c-.048 0-.072.012-.107.048-.024.012-.024.036-.132.275-.705 1.674-1.22 2.391-3.132 2.391H3.12c-.167 0-.191 0-.263-.012-.131-.012-.143-.036-.143-.131 0-.084.024-.156.048-.263l.825-3.3H4.77c.933 0 1.004.203 1.004.562 0 .12 0 .227-.083.586a.3.3 0 0 0-.036.131c0 .084.06.12.131.12.108 0 .12-.084.168-.251l.681-2.774a.12.12 0 0 0-.12-.12c-.107 0-.119.049-.167.216C6.11-4.663 5.87-4.4 4.806-4.4H3.67l.741-2.94c.108-.419.132-.455.622-.455h1.71c1.47 0 1.77.395 1.77 1.303 0 .012 0 .347-.049.742a1 1 0 0 0-.024.143c0 .096.06.132.132.132.084 0 .131-.048.155-.263l.251-2.093c0-.036.024-.155.024-.179 0-.131-.107-.131-.323-.131H2.845c-.227 0-.346 0-.346.215 0 .131.083.131.287.131.74 0 .74.084.74.215a1 1 0 0 1-.047.24L1.865-.885c-.108.419-.132.538-.968.538-.228 0-.347 0-.347.215C.55 0 .622 0 .86 0h6.002c.263 0 .275-.012.359-.203z"/><path id="r" d="M3.55-3.897h1.148c.909 0 .98.203.98.55 0 .155-.023.322-.083.585a.4.4 0 0 0-.036.132c0 .084.048.131.132.131.095 0 .107-.047.155-.239l.693-2.785c0-.048-.035-.12-.12-.12-.107 0-.119.048-.166.251-.252.897-.49 1.148-1.53 1.148H3.633l.777-3.096c.108-.419.132-.455.622-.455h1.602c1.495 0 1.71.443 1.71 1.291 0 .072 0 .335-.036.646a2 2 0 0 0-.036.251c0 .096.06.132.131.132.084 0 .132-.048.156-.263l.251-2.093c0-.036.024-.155.024-.179 0-.131-.108-.131-.323-.131H2.845c-.227 0-.346 0-.346.215 0 .131.083.131.287.131.74 0 .74.084.74.215a1 1 0 0 1-.047.24L1.865-.885c-.108.419-.132.538-.968.538-.228 0-.347 0-.347.215C.55 0 .658 0 .73 0c.226 0 .466-.024.693-.024h1.554c.263 0 .55.024.813.024.107 0 .25 0 .25-.215 0-.132-.07-.132-.334-.132-.944 0-.968-.083-.968-.263 0-.06.024-.155.048-.239z"/><path id="s" d="M5.356-3.826c0-.992-.06-1.96-.49-2.869-.49-.992-1.351-1.255-1.937-1.255-.693 0-1.542.347-1.985 1.339C.61-5.858.49-5.117.49-3.826c0 1.16.084 2.033.514 2.882A2.13 2.13 0 0 0 2.917.25c1.04 0 1.638-.622 1.985-1.315.43-.897.454-2.068.454-2.762M2.917.012c-.383 0-1.16-.215-1.387-1.518C1.4-2.224 1.4-3.132 1.4-3.97c0-.98 0-1.865.191-2.57.203-.801.813-1.172 1.327-1.172.454 0 1.148.275 1.375 1.303.155.681.155 1.626.155 2.439 0 .8 0 1.71-.131 2.439C4.089-.215 3.336.012 2.917.012"/><path id="m" d="M3.443-7.663c0-.275 0-.287-.239-.287-.287.323-.885.765-2.116.765v.347c.275 0 .873 0 1.53-.311v6.228c0 .43-.036.574-1.088.574h-.37V0c.322-.024 1.482-.024 1.877-.024s1.542 0 1.865.024v-.347H4.53c-1.052 0-1.088-.143-1.088-.574z"/><path id="n" d="M5.26-2.008h-.263c-.036.203-.131.86-.25 1.052-.084.107-.766.107-1.125.107H1.411c.322-.275 1.052-1.04 1.363-1.327C4.59-3.85 5.26-4.47 5.26-5.655c0-1.375-1.088-2.295-2.474-2.295s-2.2 1.183-2.2 2.212c0 .61.526.61.562.61.25 0 .562-.18.562-.563 0-.334-.228-.562-.562-.562a.5.5 0 0 0-.168.012c.227-.813.873-1.362 1.65-1.362 1.016 0 1.638.848 1.638 1.948 0 1.016-.586 1.901-1.267 2.666L.586-.287V0h4.363z"/><path id="o" d="M3.563-4.316c.597-.323 1.47-.873 1.47-1.877 0-1.04-1.004-1.757-2.104-1.757-1.184 0-2.116.873-2.116 1.96 0 .407.12.813.454 1.22.132.155.144.167.98.753C1.088-3.479.49-2.678.49-1.805.49-.538 1.698.25 2.917.25c1.327 0 2.439-.98 2.439-2.236 0-1.219-.86-1.757-1.793-2.33M1.937-5.392c-.156-.107-.634-.418-.634-1.004 0-.777.813-1.267 1.614-1.267.86 0 1.626.621 1.626 1.482 0 .73-.526 1.315-1.22 1.698zm.562 1.542 1.446.945c.311.203.861.574.861 1.303 0 .909-.92 1.53-1.877 1.53-1.016 0-1.889-.741-1.889-1.733 0-.933.682-1.686 1.459-2.045"/><path id="l" d="M8.07-3.873c.167 0 .382 0 .382-.216 0-.227-.203-.227-.382-.227H1.028c-.167 0-.382 0-.382.215 0 .228.203.228.382.228zm0 2.223c.167 0 .382 0 .382-.215 0-.227-.203-.227-.382-.227H1.028c-.167 0-.382 0-.382.215 0 .227.203.227.382.227z"/><path id="f" d="M5.684-2.356c0-1.386-1.07-2.466-2.313-2.466-.851 0-1.32.513-1.495.71v-3.459l-1.57.12v.338c.763 0 .85.077.85.611V0h.273l.393-.676c.163.25.622.796 1.429.796 1.298 0 2.433-1.07 2.433-2.476m-.906-.011c0 .403-.022 1.058-.338 1.549-.23.338-.644.698-1.233.698-.49 0-.883-.262-1.145-.665-.153-.23-.153-.262-.153-.459V-3.49c0-.207 0-.218.12-.393a1.58 1.58 0 0 1 1.287-.698c.491 0 .884.284 1.146.698.283.448.316 1.07.316 1.517"/><path id="e" d="M4.985-1.833c0-.392-.12-.883-.534-1.342-.207-.229-.382-.338-1.08-.774.785-.404 1.32-.971 1.32-1.691 0-1.004-.971-1.625-1.964-1.625-1.09 0-1.974.807-1.974 1.821 0 .197.022.688.48 1.2.12.131.523.404.796.59-.633.316-1.57.927-1.57 2.007C.458-.491 1.57.24 2.715.24c1.233 0 2.27-.905 2.27-2.073M4.211-5.64c0 .622-.426 1.145-1.08 1.527l-1.353-.872c-.502-.328-.545-.699-.545-.884 0-.666.709-1.124 1.483-1.124.797 0 1.495.568 1.495 1.353m.229 4.2c0 .807-.818 1.375-1.713 1.375-.938 0-1.723-.677-1.723-1.582 0-.633.349-1.331 1.276-1.844l1.342.851c.305.207.818.535.818 1.2"/><path id="g" d="M2.695 0v-.338c-.72 0-.764-.055-.764-.48v-4.004l-1.527.12v.338c.709 0 .807.066.807.6v2.935c0 .49-.12.49-.851.49V0l1.2-.033c.382 0 .764.022 1.135.033m-.6-6.59a.583.583 0 0 0-1.167 0c0 .295.25.58.577.58.371 0 .59-.306.59-.58"/><path id="d" d="M3.61 2.618c0-.033 0-.054-.185-.24-1.363-1.374-1.712-3.436-1.712-5.105 0-1.898.414-3.797 1.756-5.16.142-.131.142-.153.142-.186 0-.076-.044-.109-.11-.109-.108 0-1.09.742-1.734 2.127-.556 1.2-.687 2.411-.687 3.328 0 .85.12 2.17.72 3.403.655 1.342 1.593 2.051 1.702 2.051.065 0 .109-.032.109-.109"/><path id="j" d="M3.153-2.727c0-.851-.12-2.171-.72-3.404C1.778-7.473.84-8.18.73-8.18c-.066 0-.11.043-.11.108 0 .033 0 .055.208.251C1.9-6.742 2.52-5.007 2.52-2.727c0 1.865-.404 3.785-1.756 5.16-.142.13-.142.152-.142.185 0 .066.043.11.109.11.109 0 1.09-.743 1.734-2.128.557-1.2.688-2.41.688-3.327"/><path id="i" d="M3.927-1.396c0-.579-.327-.906-.458-1.037-.36-.349-.785-.436-1.244-.523-.61-.12-1.341-.262-1.341-.895 0-.382.283-.829 1.221-.829 1.2 0 1.255.982 1.277 1.32.01.098.13.098.13.098.143 0 .143-.054.143-.262v-1.101c0-.186 0-.262-.12-.262-.055 0-.077 0-.219.13a1.4 1.4 0 0 1-.185.175c-.415-.305-.862-.305-1.026-.305-1.33 0-1.745.73-1.745 1.342 0 .381.175.687.47.927.348.283.654.349 1.44.502.24.043 1.134.218 1.134 1.003 0 .557-.382.993-1.233.993C1.255-.12.86-.742.655-1.67.622-1.81.61-1.854.502-1.854c-.142 0-.142.077-.142.273v1.44C.36.044.36.12.48.12.535.12.545.11.753-.098.775-.12.775-.142.97-.35c.48.458.97.469 1.2.469 1.254 0 1.756-.73 1.756-1.516"/><path id="h" d="M3.622-1.353v-.622h-.273v.6c0 .808-.327 1.222-.73 1.222-.732 0-.732-.992-.732-1.178v-3.033h1.56v-.338h-1.56v-2.007h-.272c-.011.894-.339 2.062-1.408 2.105v.24h.928v3.011C1.135-.01 2.149.12 2.542.12c.774 0 1.08-.775 1.08-1.473"/><path id="q" d="M4.985-1.865c0-.895-.687-1.746-1.821-1.975.894-.295 1.527-1.058 1.527-1.92 0-.895-.96-1.505-2.007-1.505-1.102 0-1.931.654-1.931 1.483 0 .36.24.567.556.567.338 0 .556-.24.556-.556 0-.545-.512-.545-.676-.545.338-.535 1.058-.677 1.451-.677.447 0 1.047.24 1.047 1.222 0 .131-.022.764-.305 1.244-.327.523-.698.556-.971.567-.087.01-.35.033-.426.033-.087.01-.163.022-.163.13 0 .12.076.12.262.12h.48c.894 0 1.298.742 1.298 1.812 0 1.483-.753 1.8-1.233 1.8-.469 0-1.287-.186-1.669-.83.382.055.72-.185.72-.6 0-.392-.295-.61-.61-.61-.263 0-.612.152-.612.632C.458-.48 1.473.24 2.662.24c1.33 0 2.323-.993 2.323-2.105"/><path id="p" d="M4.898-1.898h-.273c-.054.327-.13.807-.24.97C4.31-.84 3.59-.84 3.35-.84H1.385l1.157-1.124c1.702-1.505 2.356-2.094 2.356-3.185 0-1.244-.982-2.116-2.313-2.116a2.016 2.016 0 0 0-2.04 1.974c0 .611.546.611.579.611.185 0 .567-.13.567-.578a.55.55 0 0 0-.578-.567c-.088 0-.11 0-.142.01.25-.709.84-1.112 1.473-1.112.992 0 1.461.883 1.461 1.778 0 .873-.545 1.734-1.145 2.41L.665-.403c-.12.12-.12.142-.12.404h4.048z"/><path id="a" d="M4.902 0v-.347H4.53c-1.052 0-1.088-.143-1.088-.574v-6.742c0-.275 0-.287-.239-.287-.287.323-.885.765-2.116.765v.347c.275 0 .873 0 1.53-.311v6.228c0 .43-.036.574-1.088.574h-.37V0c.322-.024 1.482-.024 1.877-.024s1.542 0 1.865.024"/><path id="b" d="M5.356-3.826c0-.992-.06-1.96-.49-2.869-.49-.992-1.351-1.255-1.937-1.255-.693 0-1.542.347-1.985 1.339C.61-5.858.49-5.117.49-3.826c0 1.16.084 2.033.514 2.882A2.13 2.13 0 0 0 2.917.25c1.04 0 1.638-.622 1.985-1.315.43-.897.454-2.068.454-2.762m-.909-.143c0 .8 0 1.71-.131 2.439C4.089-.215 3.336.012 2.917.012c-.383 0-1.16-.215-1.387-1.518C1.4-2.224 1.4-3.132 1.4-3.97c0-.98 0-1.865.191-2.57.203-.801.813-1.172 1.327-1.172.454 0 1.148.275 1.375 1.303.155.681.155 1.626.155 2.439"/></defs><g stroke="#000" stroke-miterlimit="10" stroke-width=".4"><path fill="none" stroke-width=".398504" d="M-60.462-44.292h214.316v-16.17H-60.462Zm14.026-16.17v16.17m14.226-16.17v16.17m14.226-16.17v16.17m14.226-16.17v16.17m50.454-16.17v16.17m14.226-16.17v16.17m14.226-16.17v16.17m14.225-16.17v16.17m14.226-16.17v16.17"/><use xlink:href="#a" x="46.696" y="-52.377" stroke="none" transform="matrix(1 0 0 1 -103.173 3.975)"/><use xlink:href="#a" x="46.696" y="-52.377" stroke="none" transform="matrix(1 0 0 1 -88.948 3.975)"/><use xlink:href="#b" x="46.696" y="-52.377" stroke="none" transform="matrix(1 0 0 1 -74.722 3.85)"/><use xlink:href="#b" x="46.696" y="-52.377" stroke="none" transform="matrix(1 0 0 1 -60.496 3.85)"/><g stroke="none" transform="matrix(1 0 0 1 -46.27 .581)"><use xlink:href="#c" x="60.869" y="-52.377"/><use xlink:href="#c" x="66.113" y="-52.377"/><use xlink:href="#c" x="71.357" y="-52.377"/></g><use xlink:href="#b" x="46.696" y="-52.377" stroke="none" transform="matrix(1 0 0 1 4.184 3.85)"/><use xlink:href="#a" x="46.696" y="-52.377" stroke="none" transform="matrix(1 0 0 1 18.41 3.975)"/><use xlink:href="#a" x="46.696" y="-52.377" stroke="none" transform="matrix(1 0 0 1 32.635 3.975)"/><use xlink:href="#b" x="46.696" y="-52.377" stroke="none" transform="matrix(1 0 0 1 46.861 3.85)"/><g stroke="none" transform="matrix(1 0 0 1 61.087 .581)"><use xlink:href="#c" x="60.869" y="-52.377"/><use xlink:href="#c" x="66.113" y="-52.377"/><use xlink:href="#c" x="71.357" y="-52.377"/></g><g stroke-width="1.25"><path stroke="none" d="M-46.714-41.119c.747 1.495 2.769 2.975 5.26 2.975.822 0 .822-1.246 0-1.246-2.491 0-3.956-.513-4.703-2.007-.184-.368-.74-.09-.557.278M.409-36.416c-.748-1.494-2.77-2.974-5.26-2.974-.822 0-.822 1.246 0 1.246 2.49 0 3.956.512 4.703 2.007.183.367.74.089.557-.279"/><path fill="none" stroke-width="1.245325" d="M-41.454-38.767h36.603"/></g><g stroke-width="1.25"><path stroke="none" d="M.409-36.137c.747-1.495 2.212-2.007 4.702-2.007.822 0 .822-1.246 0-1.246-2.49 0-4.512 1.48-5.26 2.974-.183.368.374.646.558.279M46.417-41.397c-.747 1.494-2.212 2.007-4.702 2.007-.822 0-.822 1.246 0 1.246 2.49 0 4.512-1.48 5.26-2.975.183-.367-.374-.646-.558-.278"/><path fill="none" stroke-width="1.245325" d="M5.111-38.767h36.604"/></g><g stroke="none" stroke-width="1.25"><g transform="matrix(1 0 0 1 -64.173 29.578)"><use xlink:href="#d" x="46.696" y="-52.377"/><use xlink:href="#e" x="50.94" y="-52.377"/><use xlink:href="#f" x="60.027" y="-52.377"/><use xlink:href="#g" x="66.092" y="-52.377"/><use xlink:href="#h" x="69.125" y="-52.377"/><use xlink:href="#i" x="73.369" y="-52.377"/><use xlink:href="#j" x="77.667" y="-52.377"/></g><g transform="matrix(1 0 0 1 -67.902 55.077)"><use xlink:href="#k" x="46.696" y="-52.377"/><use xlink:href="#l" x="59.383" y="-52.377"/><use xlink:href="#m" x="71.808" y="-52.377"/><use xlink:href="#n" x="77.661" y="-52.377"/><use xlink:href="#o" x="83.514" y="-52.377"/></g></g><g stroke-width="1.25"><path stroke="none" d="M46.417-41.119c.748 1.495 2.77 2.975 5.26 2.975.822 0 .822-1.246 0-1.246-2.49 0-3.955-.513-4.703-2.007-.183-.368-.74-.09-.557.278M100.653-36.416c-.747-1.494-2.77-2.974-5.26-2.974-.822 0-.822 1.246 0 1.246 2.49 0 3.956.512 4.703 2.007.184.367.74.089.557-.279"/><path fill="none" stroke-width="1.245325" d="M51.677-38.767h43.716"/></g><g stroke-width="1.25"><path stroke="none" d="M100.653-36.137c.747-1.495 2.212-2.007 4.703-2.007.822 0 .822-1.246 0-1.246-2.49 0-4.513 1.48-5.26 2.974-.184.368.373.646.557.279M153.775-41.397c-.747 1.494-2.212 2.007-4.703 2.007-.822 0-.822 1.246 0 1.246 2.49 0 4.513-1.48 5.26-2.975.184-.367-.373-.646-.557-.278"/><path fill="none" stroke-width="1.245325" d="M105.356-38.767h43.716"/></g><g stroke="none" stroke-width="1.25"><g transform="matrix(1 0 0 1 33.344 29.578)"><use xlink:href="#d" x="46.696" y="-52.377"/><use xlink:href="#p" x="50.94" y="-52.377"/><use xlink:href="#q" x="56.394" y="-52.377"/><use xlink:href="#f" x="65.481" y="-52.377"/><use xlink:href="#g" x="71.547" y="-52.377"/><use xlink:href="#h" x="74.58" y="-52.377"/><use xlink:href="#i" x="78.823" y="-52.377"/><use xlink:href="#j" x="83.121" y="-52.377"/></g><g transform="matrix(1 0 0 1 30.798 55.077)"><use xlink:href="#r" x="46.696" y="-52.377"/><use xlink:href="#l" x="59.22" y="-52.377"/><use xlink:href="#c" x="71.646" y="-52.377"/><use xlink:href="#s" x="74.898" y="-52.377"/><use xlink:href="#m" x="80.751" y="-52.377"/><use xlink:href="#m" x="86.603" y="-52.377"/></g></g></g></svg>