<svg xmlns="http://www.w3.org/2000/svg" xmlns:xlink="http://www.w3.org/1999/xlink" width="321.55pt" height="128.63pt" viewBox="0 0 321.55 128.63"><defs><path id="k" d="M5.139-1.8v-.338H4.048v-4.964c0-.219 0-.284-.175-.284-.098 0-.13 0-.218.13L.305-2.137v.338h2.903v.949c0 .393-.022.513-.83.513H2.15V0c.448-.033 1.015-.033 1.473-.033s1.037 0 1.484.033v-.338h-.23c-.807 0-.828-.12-.828-.513v-.95zm-1.866-.338H.611l2.662-4.07z"/><path id="h" d="M5.291-4.408a.534.534 0 0 0-.556-.534c-.218 0-.698.065-1.157.513a1.82 1.82 0 0 0-1.156-.393C1.407-4.822.655-4.07.655-3.23c0 .48.24.894.512 1.123A1.5 1.5 0 0 0 .83-1.2c0 .338.142.753.48.97C.655-.043.305.426.305.863c0 .785 1.08 1.385 2.412 1.385 1.287 0 2.422-.556 2.422-1.407 0-.382-.153-.938-.71-1.244-.578-.305-1.21-.305-1.876-.305-.273 0-.742 0-.818-.011-.35-.044-.579-.382-.579-.731 0-.044 0-.295.186-.513.425.306.873.338 1.08.338 1.015 0 1.767-.752 1.767-1.592 0-.404-.174-.808-.447-1.059.393-.37.786-.425.982-.425 0 0 .076 0 .11.01-.12.044-.175.164-.175.295a.31.31 0 0 0 .316.317c.11 0 .316-.077.316-.328m-1.92 1.179c0 .294-.01.643-.174.916-.088.131-.339.436-.775.436-.95 0-.95-1.09-.95-1.341 0-.295.012-.644.175-.917.088-.13.339-.436.775-.436.95 0 .95 1.09.95 1.342m1.2 4.09c0 .59-.774 1.136-1.843 1.136C1.626 1.997.873 1.44.873.862c0-.502.414-.906.894-.938h.644c.938 0 2.16 0 2.16.938"/><path id="g" d="M3.011-2.04v-.633H.12v.633z"/><path id="j" d="M5.837 0v-.338c-.567 0-.84 0-.851-.328v-2.083c0-.939 0-1.277-.338-1.67-.153-.185-.513-.403-1.146-.403-.796 0-1.31.469-1.615 1.145v-1.145l-1.538.12v.338c.764 0 .851.076.851.611v2.924c0 .49-.12.49-.85.49V0l1.232-.033L2.804 0v-.338c-.731 0-.851 0-.851-.491v-2.008c0-1.134.775-1.745 1.473-1.745.687 0 .807.589.807 1.21v2.543c0 .49-.12.49-.85.49V0l1.232-.033z"/><path id="i" d="M5.139-2.335c0-1.396-1.091-2.553-2.411-2.553-1.364 0-2.423 1.19-2.423 2.553A2.435 2.435 0 0 0 2.717.12a2.43 2.43 0 0 0 2.422-2.455m-.906-.087c0 .393 0 .982-.24 1.462-.24.49-.72.807-1.265.807-.47 0-.95-.229-1.244-.73-.273-.48-.273-1.146-.273-1.539 0-.426 0-1.015.262-1.495a1.46 1.46 0 0 1 1.244-.73c.48 0 .949.24 1.232.708s.284 1.102.284 1.517"/><path id="l" d="M4.986-1.866c0-.894-.687-1.745-1.822-1.974C4.059-4.135 4.69-4.9 4.69-5.76c0-.895-.96-1.506-2.007-1.506-1.102 0-1.931.655-1.931 1.484 0 .36.24.567.556.567.338 0 .557-.24.557-.556 0-.546-.513-.546-.677-.546.338-.534 1.058-.676 1.451-.676.448 0 1.048.24 1.048 1.222 0 .13-.022.763-.306 1.243-.327.524-.698.557-.97.568-.088.01-.35.032-.426.032-.088.011-.164.022-.164.131 0 .12.076.12.262.12h.48c.894 0 1.298.742 1.298 1.811 0 1.484-.753 1.8-1.233 1.8C2.16-.065 1.342-.25.96-.894c.382.055.72-.185.72-.6 0-.392-.294-.61-.61-.61-.263 0-.612.152-.612.632C.458-.48 1.473.24 2.662.24c1.331 0 2.324-.993 2.324-2.106"/><path id="f" d="M4.899-1.898h-.273c-.055.327-.131.807-.24.97-.077.088-.797.088-1.037.088H1.386l1.156-1.124C4.244-3.469 4.899-4.059 4.899-5.15c0-1.243-.982-2.116-2.313-2.116a2.016 2.016 0 0 0-2.04 1.975c0 .61.545.61.578.61.185 0 .567-.13.567-.578a.55.55 0 0 0-.578-.567c-.087 0-.11 0-.142.011.25-.71.84-1.113 1.473-1.113.993 0 1.462.884 1.462 1.778 0 .873-.546 1.735-1.146 2.412L.666-.404c-.12.12-.12.142-.12.404h4.047z"/><path id="e" d="M5.262-2.404c0-1.423-.956-2.607-2.212-2.607-.682 0-1.208.299-1.52.634v-2.476c.515.167.934.18 1.065.18 1.352 0 2.213-.993 2.213-1.16 0-.049-.024-.108-.096-.108 0 0-.048 0-.155.047a3.9 3.9 0 0 1-1.555.323c-.79 0-1.352-.239-1.579-.335-.083-.035-.12-.035-.12-.035-.095 0-.095.071-.095.263v3.552c0 .215 0 .287.143.287.06 0 .072-.012.192-.156.335-.49.897-.777 1.495-.777.634 0 .945.586 1.04.79.204.466.216 1.052.216 1.506s0 1.136-.335 1.675c-.263.43-.73.73-1.256.73-.79 0-1.567-.539-1.782-1.412.06.024.131.036.191.036.204 0 .527-.12.527-.526 0-.335-.228-.527-.527-.527-.215 0-.526.108-.526.574 0 1.017.813 2.177 2.14 2.177 1.352 0 2.536-1.136 2.536-2.655"/><path id="d" d="M5.526-1.997v-.347H4.318v-5.442c0-.227 0-.287-.168-.287-.096 0-.131 0-.227.144l-3.6 5.585v.347h3.145V-.91c0 .443-.024.562-.897.562h-.239V0c.275-.024 1.22-.024 1.555-.024s1.292 0 1.567.024v-.347h-.24c-.86 0-.896-.12-.896-.562v-1.088zm-1.998-.347H.622l2.906-4.51z"/><path id="a" d="M4.904 0v-.347h-.371C3.48-.347 3.444-.49 3.444-.92v-6.745c0-.275 0-.287-.239-.287-.287.323-.885.765-2.117.765v.347c.275 0 .873 0 1.531-.311v6.231c0 .43-.036.574-1.088.574h-.37V0c.322-.024 1.482-.024 1.877-.024s1.543 0 1.866.024"/><path id="c" d="M5.358-2.045c0-1.1-.885-1.962-2.033-2.165 1.04-.299 1.71-1.172 1.71-2.105 0-.945-.98-1.638-2.14-1.638-1.197 0-2.082.73-2.082 1.602 0 .479.371.574.55.574.252 0 .539-.18.539-.538 0-.383-.287-.55-.55-.55-.072 0-.096 0-.132.012.454-.813 1.579-.813 1.638-.813.395 0 1.173.179 1.173 1.351 0 .227-.036.897-.383 1.411-.359.527-.766.563-1.089.574l-.358.036c-.204.012-.252.024-.252.132 0 .12.06.12.276.12h.55c1.016 0 1.47.837 1.47 1.985 0 1.567-.812 1.985-1.399 1.985-.574 0-1.554-.275-1.901-1.064.383.06.73-.156.73-.586a.565.565 0 0 0-.587-.586c-.287 0-.598.167-.598.622C.49-.622 1.555.25 2.882.25c1.424 0 2.476-1.088 2.476-2.296"/><path id="b" d="M5.262-2.01H5c-.036.204-.131.862-.25 1.053-.085.108-.766.108-1.125.108H1.41c.323-.275 1.053-1.04 1.364-1.328 1.818-1.674 2.487-2.296 2.487-3.48 0-1.375-1.088-2.296-2.475-2.296S.586-6.77.586-5.741c0 .61.526.61.562.61.251 0 .562-.18.562-.562 0-.335-.227-.562-.562-.562-.107 0-.131 0-.167.012.227-.813.873-1.364 1.65-1.364 1.017 0 1.639.85 1.639 1.95 0 1.017-.586 1.902-1.268 2.667L.586-.287V0h4.365z"/></defs><g fill="#dfdfdf"><path d="m51.616 27.454 26.96 19.587h-53.92ZM150.83 27.454l16.662 51.28-43.622-31.693ZM250.044 27.454l-16.662 51.28-10.298-31.693Z"/></g><path fill="none" stroke="#000" stroke-miterlimit="10" stroke-width=".3985" d="m51.616 27.454 26.96 19.587-10.298 31.693H34.954L24.656 47.041Z"/><use xlink:href="#a" x="-20.392184" y="-16.202503" transform="translate(69.071 39.466)scale(1.0004)"/><use xlink:href="#b" x="-20.392184" y="-16.202503" transform="translate(102.435 67.212)scale(1.0004)"/><use xlink:href="#c" x="-20.392184" y="-16.202503" transform="translate(91.428 105.647)scale(1.0004)"/><use xlink:href="#d" x="-20.392184" y="-16.202503" transform="translate(46.713 105.767)scale(1.0004)"/><use xlink:href="#e" x="-20.392184" y="-16.202503" transform="translate(35.707 67.081)scale(1.0004)"/><path fill="none" stroke="#000" stroke-miterlimit="10" stroke-width=".3985" d="M24.656 47.041h53.92M67.639 32.843c1.709-2.96 5.96-9.769 9.504-9.769"/><path d="m66.088 35.529 3.69-3.028-2.189.428-.724-2.11Z"/><path fill="none" stroke="#000" stroke-miterlimit="10" stroke-width=".398491" d="m66.088 35.529 3.69-3.028-2.189.428-.724-2.11Z"/><g transform="translate(103.837 41.779)scale(1.00008)"><use xlink:href="#f" x="-20.385682" y="-16.197336"/><use xlink:href="#g" x="-14.930683" y="-16.197336"/><use xlink:href="#h" x="-11.297653" y="-16.197336"/><use xlink:href="#i" x="-5.842653" y="-16.197336"/><use xlink:href="#j" x="-.387653" y="-16.197336"/></g><path fill="none" stroke="#000" stroke-miterlimit="10" stroke-width=".3985" d="M50.064 66.484c4.42 4.421 10.09 16.733 3.576 23.247"/><path d="m47.87 64.291 1.97 4.349.153-2.226 2.226-.153Z"/><path fill="none" stroke="#000" stroke-miterlimit="10" stroke-width=".398496" d="m47.87 64.291 1.97 4.349.153-2.226 2.226-.153Z"/><g transform="translate(59.489 119)scale(1.00008)"><use xlink:href="#k" x="-20.385682" y="-16.197336"/><use xlink:href="#g" x="-14.930683" y="-16.197336"/><use xlink:href="#h" x="-11.297653" y="-16.197336"/><use xlink:href="#i" x="-5.842653" y="-16.197336"/><use xlink:href="#j" x="-.387653" y="-16.197336"/></g><path fill="none" stroke="#000" stroke-miterlimit="10" stroke-width=".3985" d="m150.83 27.454 26.96 19.587-10.298 31.693h-33.324L123.87 47.041Z"/><use xlink:href="#a" x="-20.392184" y="-16.202503" transform="translate(168.285 39.466)scale(1.0004)"/><use xlink:href="#b" x="-20.392184" y="-16.202503" transform="translate(201.649 67.212)scale(1.0004)"/><use xlink:href="#c" x="-20.392184" y="-16.202503" transform="translate(190.642 105.647)scale(1.0004)"/><use xlink:href="#d" x="-20.392184" y="-16.202503" transform="translate(145.927 105.767)scale(1.0004)"/><use xlink:href="#e" x="-20.392184" y="-16.202503" transform="translate(134.921 67.081)scale(1.0004)"/><g fill="none" stroke="#000" stroke-miterlimit="10" stroke-width=".3985"><path d="m150.83 27.454 16.662 51.28M123.87 47.041l43.622 31.693M168.475 44.981c0-.583 2.835-17.59 6.378-17.59"/></g><path d="m168.475 48.083 1.682-4.468-1.682 1.466-1.682-1.466Z"/><path fill="none" stroke="#000" stroke-miterlimit="10" stroke-width=".3985" d="m168.475 48.083 1.682-4.468-1.682 1.466-1.682-1.466Z"/><g transform="translate(201.547 46.095)scale(1.00008)"><use xlink:href="#l" x="-20.385682" y="-16.197336"/><use xlink:href="#g" x="-14.930683" y="-16.197336"/><use xlink:href="#h" x="-11.297653" y="-16.197336"/><use xlink:href="#i" x="-5.842653" y="-16.197336"/><use xlink:href="#j" x="-.387653" y="-16.197336"/></g><path fill="none" stroke="#000" stroke-miterlimit="10" stroke-width=".3985" d="M137.381 75.216c-.291.505-8.795 11.287-4.189 19.266"/><path d="m138.932 72.53-3.69 3.028 2.19-.428.723 2.11Z"/><path fill="none" stroke="#000" stroke-miterlimit="10" stroke-width=".398491" d="m138.932 72.53-3.69 3.028 2.19-.428.723 2.11Z"/><g transform="translate(158.823 115.028)scale(1.00008)"><use xlink:href="#l" x="-20.385682" y="-16.197336"/><use xlink:href="#g" x="-14.930683" y="-16.197336"/><use xlink:href="#h" x="-11.297653" y="-16.197336"/><use xlink:href="#i" x="-5.842653" y="-16.197336"/><use xlink:href="#j" x="-.387653" y="-16.197336"/></g><path fill="none" stroke="#000" stroke-miterlimit="10" stroke-width=".3985" d="m250.044 27.454 26.96 19.587-10.298 31.693h-33.324l-10.298-31.693Z"/><use xlink:href="#a" x="-20.392184" y="-16.202503" transform="translate(267.499 39.466)scale(1.0004)"/><use xlink:href="#b" x="-20.392184" y="-16.202503" transform="translate(300.863 67.212)scale(1.0004)"/><use xlink:href="#c" x="-20.392184" y="-16.202503" transform="translate(289.856 105.647)scale(1.0004)"/><use xlink:href="#d" x="-20.392184" y="-16.202503" transform="translate(245.141 105.767)scale(1.0004)"/><use xlink:href="#e" x="-20.392184" y="-16.202503" transform="translate(234.135 67.081)scale(1.0004)"/><path fill="none" stroke="#000" stroke-miterlimit="10" stroke-width=".3985" d="m250.044 27.454-16.662 51.28M272.094 52.61c.505.292 6.934 6.721 8.705 9.79"/><path d="m269.408 51.06 3.028 3.69-.428-2.189 2.11-.724Z"/><path fill="none" stroke="#000" stroke-miterlimit="10" stroke-width=".398491" d="m269.408 51.06 3.028 3.69-.428-2.189 2.11-.724Z"/><g transform="translate(300.554 92.007)scale(1.00008)"><use xlink:href="#k" x="-20.385682" y="-16.197336"/><use xlink:href="#g" x="-14.930683" y="-16.197336"/><use xlink:href="#h" x="-11.297653" y="-16.197336"/><use xlink:href="#i" x="-5.842653" y="-16.197336"/><use xlink:href="#j" x="-.387653" y="-16.197336"/></g><path fill="none" stroke="#000" stroke-miterlimit="10" stroke-width=".3985" d="M239.107 41.653c8.796 15.234 17.3 46.619 17.3 55.832"/><path d="m237.556 38.967.778 4.71.723-2.11 2.19.428Z"/><path fill="none" stroke="#000" stroke-miterlimit="10" stroke-width=".398491" d="m237.556 38.967.778 4.71.723-2.11 2.19.428Z"/><g transform="translate(263.76 127.256)scale(1.00008)"><use xlink:href="#f" x="-20.385682" y="-16.197336"/><use xlink:href="#g" x="-14.930683" y="-16.197336"/><use xlink:href="#h" x="-11.297653" y="-16.197336"/><use xlink:href="#i" x="-5.842653" y="-16.197336"/><use xlink:href="#j" x="-.387653" y="-16.197336"/></g></svg>