<svg xmlns="http://www.w3.org/2000/svg" xmlns:xlink="http://www.w3.org/1999/xlink" width="574.063" height="232.207"><defs><path id="a" d="M7.984-5.25c0-3.203-1.703-5.484-3.562-5.484-1.875 0-3.563 2.312-3.563 5.468 0 3.204 1.704 5.47 3.563 5.47 1.875 0 3.562-2.298 3.562-5.454ZM4.422-.797c-1.36 0-2.438-2.078-2.438-4.64 0-2.563 1.188-4.297 2.438-4.297 1.266 0 2.453 1.734 2.453 4.296 0 2.547-1.094 4.641-2.453 4.641Zm0 0"/><path id="h" d="M5.234-10.016c0-.265 0-.718-.5-.718-.296 0-.39.156-.5.39-.328.735-.89 1.64-1.812 1.719-.25.016-.61.047-.61.5 0 .297.172.5.547.5.97 0 1.704-.719 1.75-.766V-1H2.594c-.235 0-.703 0-.703.5s.468.5.703.5H6.75c.234 0 .703 0 .703-.5S6.984-1 6.75-1H5.234Zm0 0"/><path id="b" d="M11.344-3.953c.297 0 .61 0 .61-.36 0-.343-.313-.343-.61-.343H2.03c-.297 0-.61 0-.61.343 0 .36.313.36.61.36Zm0 0"/><path id="o" d="M3.313-4.313c0-.484-.422-.906-.922-.906s-.907.422-.907.907c0 .5.407.921.907.921s.921-.421.921-.921Zm0 0"/><path id="c" d="M4.578-11c0-.36-.016-.375-.25-.375-.672.797-1.687 1.063-2.656 1.094-.047 0-.14 0-.156.031-.016.047-.016.078-.016.438.531 0 1.422-.11 2.11-.516v9.078c0 .594-.032.797-1.516.797h-.516V0a135.04 135.04 0 0 1 2.516-.031c.828 0 1.687.015 2.515.031v-.453h-.515c-1.485 0-1.516-.188-1.516-.797Zm0 0"/><path id="d" d="M1.828-5.938c0-4.125 1.922-5.046 3.047-5.046.36 0 1.234.062 1.578.734-.266 0-.781 0-.781.61 0 .468.375.624.61.624.155 0 .624-.078.624-.656 0-1.094-.86-1.703-2.047-1.703-2.046 0-4.203 2.125-4.203 5.938C.656-.75 2.594.28 3.984.28c1.657 0 3.25-1.5 3.25-3.812 0-2.156-1.39-3.719-3.156-3.719-1.047 0-1.828.688-2.25 1.89ZM3.984-.14C1.86-.14 1.86-3.312 1.86-3.937c0-1.25.579-3.032 2.188-3.032.297 0 1.14 0 1.703 1.188.313.672.313 1.375.313 2.234 0 .922 0 1.625-.36 2.313-.375.703-.937 1.093-1.719 1.093Zm0 0"/><path id="f" d="M7.234-5.531c0-1.047-.015-2.844-.75-4.219-.625-1.203-1.64-1.625-2.546-1.625-.829 0-1.876.375-2.532 1.61C.72-8.47.656-6.876.656-5.532c0 .984.016 2.484.547 3.797C1.953.03 3.266.28 3.937.28c.797 0 2-.328 2.704-1.969.515-1.187.593-2.578.593-3.843ZM3.938 0c-1.094 0-1.75-.953-1.985-2.25-.203-1.016-.203-2.5-.203-3.469 0-1.328 0-2.422.234-3.468.329-1.47 1.282-1.922 1.954-1.922.718 0 1.624.468 1.953 1.875.218.984.234 2.14.234 3.515 0 1.125 0 2.5-.203 3.516C5.562-.328 4.547 0 3.938 0Zm0 0"/><path id="g" d="M2.86-.703a.69.69 0 0 0-.704-.703.7.7 0 0 0-.703.703.7.7 0 0 0 .703.703.71.71 0 0 0 .703-.703Zm0 0"/><path id="i" d="M1.969-10.078c.172.078.875.297 1.593.297 1.61 0 2.485-.86 2.985-1.36 0-.14 0-.218-.11-.218-.015 0-.046 0-.187.062a5.233 5.233 0 0 1-4.297.016c-.203-.078-.234-.078-.25-.078-.078 0-.11.015-.11.359v4.984c0 .313 0 .407.188.407.078 0 .11-.032.203-.157.547-.78 1.297-1.109 2.172-1.109.594 0 1.89.39 1.89 3.328 0 .547 0 1.547-.515 2.344C5.094-.5 4.421-.141 3.688-.141c-1.141 0-2.297-.796-2.61-2.109.078.016.219.047.281.047.22 0 .657-.125.657-.656 0-.47-.329-.657-.657-.657-.39 0-.656.25-.656.72C.703-1.297 1.891.28 3.72.28 5.5.281 7.188-1.25 7.188-3.484c0-2.063-1.344-3.657-3.016-3.657-.89 0-1.625.329-2.203.938Zm0 0"/><path id="j" d="M7.766-10.734v-.375H3.719c-2.016 0-2.047-.22-2.125-.547h-.297l-.5 3.219h.312c.047-.329.172-1.204.375-1.532.094-.14 1.375-.14 1.672-.14h3.781L5.032-7.266c-1.281 1.907-2.156 4.5-2.156 6.75 0 .204 0 .797.625.797.61 0 .61-.594.61-.812v-.797c0-2.828.484-4.688 1.28-5.875Zm0 0"/><path id="k" d="M5.781-11.14c0-.36-.015-.376-.328-.376L.343-3.375v.453h4.438v1.688c0 .609-.031.78-1.234.78h-.328V0c.547-.031 1.484-.031 2.062-.031.594 0 1.516 0 2.078.031v-.453h-.328c-1.218 0-1.25-.172-1.25-.781v-1.688h1.766v-.453H5.78ZM4.844-10v6.625H.687Zm0 0"/><path id="l" d="M7.188-2.672h-.313c-.172 1.219-.313 1.438-.39 1.531C6.405-1 5.171-1 4.921-1H1.625c.61-.672 1.813-1.89 3.281-3.313 1.047-.984 2.282-2.156 2.282-3.859 0-2.031-1.625-3.203-3.438-3.203-1.89 0-3.047 1.656-3.047 3.219 0 .672.5.75.703.75.172 0 .688-.094.688-.703 0-.532-.438-.688-.688-.688a.673.673 0 0 0-.265.047c.328-1.453 1.328-2.188 2.375-2.188 1.5 0 2.468 1.188 2.468 2.766 0 1.485-.875 2.781-1.859 3.906L.703-.39V0h6.063Zm0 0"/><path id="m" d="M4.688-6.203c1.078-.547 2.187-1.375 2.187-2.703 0-1.563-1.516-2.469-2.922-2.469-1.562 0-2.937 1.125-2.937 2.703 0 .422.109 1.172.78 1.813.173.171.891.687 1.36 1.015C2.375-5.437.562-4.5.562-2.594.563-.828 2.25.281 3.922.281c1.844 0 3.39-1.328 3.39-3.094 0-1.562-1.046-2.28-1.734-2.75ZM2.421-7.72c-.125-.078-.828-.61-.828-1.422 0-1.046 1.093-1.843 2.328-1.843 1.36 0 2.36.968 2.36 2.078 0 1.61-1.782 2.515-1.876 2.515-.015 0-.031 0-.172-.093Zm3.172 3.532c.265.187 1.093.765 1.093 1.812 0 1.266-1.28 2.234-2.734 2.234-1.562 0-2.75-1.109-2.75-2.484 0-1.36 1.047-2.484 2.234-3.016Zm0 0"/><path id="n" d="M6.063-5.094C6.063-1.312 4.5-.14 3.203-.14c-.39 0-1.36-.047-1.75-.718.438.062.766-.172.766-.61 0-.453-.375-.61-.625-.61-.14 0-.61.063-.61.657C.984-.266 2 .281 3.234.281c1.985 0 4-2.172 4-5.968 0-4.72-1.937-5.688-3.234-5.688-1.703 0-3.344 1.484-3.344 3.797 0 2.14 1.39 3.719 3.156 3.719 1.438 0 2.079-1.344 2.25-1.907Zm-2.22.969c-.468 0-1.124-.094-1.655-1.125-.36-.672-.36-1.469-.36-2.313 0-1.015 0-1.718.484-2.468.235-.375.688-.953 1.688-.953 2.031 0 2.031 3.109 2.031 3.796 0 1.235-.562 3.063-2.187 3.063Zm0 0"/><path id="p" d="M5.266 4.203c0-.016 0-.047-.047-.11-.797-.812-2.907-3.015-2.907-8.374 0-5.375 2.079-7.563 2.922-8.422 0-.016.032-.063.032-.11 0-.046-.047-.078-.125-.078-.188 0-1.641 1.266-2.485 3.157-.86 1.921-1.11 3.78-1.11 5.421 0 1.25.126 3.344 1.157 5.563.828 1.797 2.235 3.063 2.438 3.063.093 0 .125-.047.125-.11Zm0 0"/><path id="r" d="M11.078-5.531c.25 0 .516 0 .516-.282 0-.312-.297-.312-.594-.312H1.375c-.297 0-.578 0-.578.313 0 .28.25.28.515.28ZM11-2.47c.297 0 .594 0 .594-.297 0-.296-.266-.296-.516-.296H1.313c-.266 0-.516 0-.516.296 0 .297.281.297.578.297Zm0 0"/><path id="s" d="M4.531-4.281c0-1.25-.125-3.344-1.156-5.563C2.547-11.64 1.141-12.89.937-12.89c-.062 0-.125.016-.125.094 0 .031.016.063.032.094.828.86 2.922 3.047 2.922 8.39 0 5.375-2.079 7.563-2.922 8.422-.016.047-.031.063-.031.094 0 .078.062.11.125.11.187 0 1.64-1.282 2.484-3.172.86-1.922 1.11-3.782 1.11-5.422Zm0 0"/><path id="e" d="M-7.297-11.813c0-.296 0-.624-.344-.624-.343 0-.343.312-.343.609v10.281c0 .297 0 .594.343.594.344 0 .344-.344.344-.61Zm6.672-.015c0-.297 0-.61-.344-.61s-.344.329-.344.626v10.25c0 .265 0 .609.344.609s.344-.297.344-.594Zm-3.328 0c0-.297 0-.61-.36-.61-.343 0-.343.313-.343.61v10.281c0 .297 0 .594.343.594.36 0 .36-.297.36-.594Zm0 0"/><path id="q" d="M3.547-5.047c.031-.094.469-.969 1.11-1.516a2.506 2.506 0 0 1 1.702-.687c.688 0 .922.516.922 1.203 0 .984-.703 2.953-1.047 3.875-.156.422-.25.64-.25.953 0 .766.547 1.39 1.375 1.39 1.594 0 2.204-2.53 2.204-2.64 0-.078-.079-.156-.172-.156-.157 0-.172.063-.266.36C8.735-.86 8.078-.173 7.406-.173c-.172 0-.453-.016-.453-.562 0-.438.188-.954.297-1.188.344-.953 1.063-2.875 1.063-3.86 0-1.03-.594-1.812-1.907-1.812-1.531 0-2.343 1.078-2.656 1.516-.047-.984-.75-1.516-1.516-1.516-.546 0-.921.328-1.218.907-.313.625-.547 1.656-.547 1.734 0 .062.062.156.187.156.14 0 .156-.031.25-.422.281-1.047.594-2.031 1.281-2.031.391 0 .532.281.532.797 0 .375-.172 1.047-.297 1.578l-.469 1.86c-.078.328-.266 1.109-.36 1.421-.109.438-.296 1.25-.296 1.328 0 .25.187.438.437.438.22 0 .454-.11.594-.36.031-.093.188-.687.266-1.03l.39-1.548Zm0 0"/></defs><use xlink:href="#a" x="111.002" y="29.956"/><use xlink:href="#a" x="119.861" y="29.956"/><use xlink:href="#a" x="128.72" y="29.956"/><use xlink:href="#a" x="137.579" y="29.956"/><path fill="none" stroke="#000" stroke-miterlimit="10" stroke-width=".399" d="M128.719 40.637v13.297"/><path stroke="#000" stroke-miterlimit="10" stroke-width=".399" d="m128.719 57.078 1.707-4.527-1.707 1.484-1.703-1.484Zm0 0"/><use xlink:href="#b" x="114.13" y="78.416" fill="#9F9F9F"/><g fill="#9F9F9F"><use xlink:href="#c" x="127.52" y="78.416"/><use xlink:href="#d" x="135.415" y="78.416"/></g><use xlink:href="#e" x="132.712" y="102.197" fill="#9F9F9F"/><use xlink:href="#f" x="124.772" y="122.969"/><use xlink:href="#e" x="132.712" y="146.033" fill="#9F9F9F"/><g fill="#9F9F9F"><use xlink:href="#c" x="120.825" y="166.804"/><use xlink:href="#d" x="128.72" y="166.804"/></g><use xlink:href="#e" x="132.712" y="189.868" fill="#9F9F9F"/><use xlink:href="#g" x="126.571" y="204.801" fill="#9F9F9F"/><use xlink:href="#g" x="126.571" y="208.786" fill="#9F9F9F"/><use xlink:href="#g" x="126.571" y="212.771" fill="#9F9F9F"/><use xlink:href="#a" x="162.026" y="29.956"/><use xlink:href="#a" x="170.885" y="29.956"/><use xlink:href="#a" x="179.744" y="29.956"/><use xlink:href="#h" x="188.603" y="29.956"/><path fill="none" stroke="#000" stroke-miterlimit="10" stroke-width=".399" d="M179.746 40.637v13.297"/><path stroke="#000" stroke-miterlimit="10" stroke-width=".399" d="m179.746 57.078 1.703-4.527-1.703 1.484-1.707-1.484Zm0 0"/><use xlink:href="#b" x="165.153" y="78.416" fill="#9F9F9F"/><g fill="#9F9F9F"><use xlink:href="#c" x="178.543" y="78.416"/><use xlink:href="#i" x="186.438" y="78.416"/></g><use xlink:href="#e" x="183.735" y="102.197" fill="#9F9F9F"/><use xlink:href="#c" x="175.796" y="122.969"/><use xlink:href="#e" x="183.735" y="146.033" fill="#9F9F9F"/><g fill="#9F9F9F"><use xlink:href="#c" x="171.848" y="166.804"/><use xlink:href="#j" x="179.743" y="166.804"/></g><use xlink:href="#e" x="183.735" y="189.868" fill="#9F9F9F"/><use xlink:href="#g" x="177.595" y="204.801" fill="#9F9F9F"/><use xlink:href="#g" x="177.595" y="208.786" fill="#9F9F9F"/><use xlink:href="#g" x="177.595" y="212.771" fill="#9F9F9F"/><use xlink:href="#a" x="213.05" y="29.956"/><use xlink:href="#a" x="221.909" y="29.956"/><use xlink:href="#h" x="230.768" y="29.956"/><use xlink:href="#a" x="239.627" y="29.956"/><path fill="none" stroke="#000" stroke-miterlimit="10" stroke-width=".399" d="M230.77 40.637v13.297"/><path stroke="#000" stroke-miterlimit="10" stroke-width=".399" d="m230.77 57.078 1.703-4.527-1.703 1.484-1.708-1.484Zm0 0"/><use xlink:href="#b" x="216.177" y="78.416" fill="#9F9F9F"/><g fill="#9F9F9F"><use xlink:href="#c" x="229.567" y="78.416"/><use xlink:href="#k" x="237.462" y="78.416"/></g><use xlink:href="#e" x="234.759" y="102.197" fill="#9F9F9F"/><use xlink:href="#l" x="226.82" y="122.969"/><use xlink:href="#e" x="234.759" y="146.033" fill="#9F9F9F"/><g fill="#9F9F9F"><use xlink:href="#c" x="222.872" y="166.804"/><use xlink:href="#m" x="230.767" y="166.804"/></g><use xlink:href="#e" x="234.759" y="189.868" fill="#9F9F9F"/><use xlink:href="#g" x="228.618" y="204.801" fill="#9F9F9F"/><use xlink:href="#g" x="228.618" y="208.786" fill="#9F9F9F"/><use xlink:href="#g" x="228.618" y="212.771" fill="#9F9F9F"/><use xlink:href="#a" x="315.097" y="29.956"/><use xlink:href="#h" x="323.956" y="29.956"/><use xlink:href="#h" x="332.815" y="29.956"/><use xlink:href="#h" x="341.674" y="29.956"/><path fill="none" stroke="#000" stroke-miterlimit="10" stroke-width=".399" d="M332.816 40.637v13.297"/><path stroke="#000" stroke-miterlimit="10" stroke-width=".399" d="m332.816 57.078 1.704-4.527-1.704 1.484-1.703-1.484Zm0 0"/><use xlink:href="#b" x="322.172" y="78.416" fill="#9F9F9F"/><use xlink:href="#n" x="335.562" y="78.416" fill="#9F9F9F"/><use xlink:href="#e" x="336.806" y="102.197" fill="#9F9F9F"/><use xlink:href="#j" x="328.867" y="122.969"/><use xlink:href="#e" x="336.806" y="146.033" fill="#9F9F9F"/><g fill="#9F9F9F"><use xlink:href="#c" x="324.919" y="166.804"/><use xlink:href="#n" x="332.814" y="166.804"/></g><use xlink:href="#e" x="336.806" y="189.868" fill="#9F9F9F"/><use xlink:href="#g" x="330.666" y="204.801" fill="#9F9F9F"/><use xlink:href="#g" x="330.666" y="208.786" fill="#9F9F9F"/><use xlink:href="#g" x="330.666" y="212.771" fill="#9F9F9F"/><use xlink:href="#h" x="366.121" y="29.956"/><use xlink:href="#a" x="374.98" y="29.956"/><use xlink:href="#a" x="383.839" y="29.956"/><use xlink:href="#a" x="392.698" y="29.956"/><path fill="none" stroke="#000" stroke-miterlimit="10" stroke-width=".399" d="M383.84 40.637v13.297"/><path stroke="#000" stroke-miterlimit="10" stroke-width=".399" d="m383.84 57.078 1.707-4.527-1.707 1.484-1.703-1.484Zm0 0"/><use xlink:href="#b" x="373.196" y="78.416" fill="#9F9F9F"/><use xlink:href="#m" x="386.585" y="78.416" fill="#9F9F9F"/><use xlink:href="#e" x="387.83" y="102.197" fill="#9F9F9F"/><use xlink:href="#m" x="379.89" y="122.969"/><use xlink:href="#e" x="387.83" y="146.033" fill="#9F9F9F"/><g fill="#9F9F9F"><use xlink:href="#l" x="375.943" y="166.804"/><use xlink:href="#f" x="383.838" y="166.804"/></g><use xlink:href="#e" x="387.83" y="189.868" fill="#9F9F9F"/><use xlink:href="#g" x="381.689" y="204.801" fill="#9F9F9F"/><use xlink:href="#g" x="381.689" y="208.786" fill="#9F9F9F"/><use xlink:href="#g" x="381.689" y="212.771" fill="#9F9F9F"/><use xlink:href="#h" x="417.144" y="29.956"/><use xlink:href="#a" x="426.003" y="29.956"/><use xlink:href="#a" x="434.862" y="29.956"/><use xlink:href="#h" x="443.721" y="29.956"/><path fill="none" stroke="#000" stroke-miterlimit="10" stroke-width=".399" d="M434.867 40.637v13.297"/><path stroke="#000" stroke-miterlimit="10" stroke-width=".399" d="m434.867 57.078 1.703-4.527-1.703 1.484-1.707-1.484Zm0 0"/><use xlink:href="#b" x="424.219" y="78.416" fill="#9F9F9F"/><use xlink:href="#j" x="437.609" y="78.416" fill="#9F9F9F"/><use xlink:href="#e" x="438.853" y="102.197" fill="#9F9F9F"/><use xlink:href="#n" x="430.914" y="122.969"/><use xlink:href="#e" x="438.853" y="146.033" fill="#9F9F9F"/><g fill="#9F9F9F"><use xlink:href="#l" x="426.966" y="166.804"/><use xlink:href="#c" x="434.861" y="166.804"/></g><use xlink:href="#e" x="438.853" y="189.868" fill="#9F9F9F"/><use xlink:href="#g" x="432.713" y="204.801" fill="#9F9F9F"/><use xlink:href="#g" x="432.713" y="208.786" fill="#9F9F9F"/><use xlink:href="#g" x="432.713" y="212.771" fill="#9F9F9F"/><use xlink:href="#h" x="519.191" y="29.956"/><use xlink:href="#h" x="528.05" y="29.956"/><use xlink:href="#h" x="536.909" y="29.956"/><use xlink:href="#h" x="545.768" y="29.956"/><path fill="none" stroke="#000" stroke-miterlimit="10" stroke-width=".399" d="M536.914 40.637v13.297"/><path stroke="#000" stroke-miterlimit="10" stroke-width=".399" d="m536.914 57.078 1.703-4.527-1.703 1.484-1.703-1.484Zm0 0"/><use xlink:href="#b" x="526.266" y="78.416" fill="#9F9F9F"/><use xlink:href="#c" x="539.656" y="78.416" fill="#9F9F9F"/><use xlink:href="#e" x="540.901" y="102.197" fill="#9F9F9F"/><use xlink:href="#c" x="529.014" y="122.969"/><use xlink:href="#i" x="536.909" y="122.969"/><use xlink:href="#e" x="540.901" y="146.033" fill="#9F9F9F"/><g fill="#9F9F9F"><use xlink:href="#l" x="529.014" y="166.804"/><use xlink:href="#l" x="536.909" y="166.804"/></g><use xlink:href="#e" x="540.901" y="189.868" fill="#9F9F9F"/><use xlink:href="#g" x="534.76" y="204.801" fill="#9F9F9F"/><use xlink:href="#g" x="534.76" y="208.786" fill="#9F9F9F"/><use xlink:href="#g" x="534.76" y="212.771" fill="#9F9F9F"/><use xlink:href="#o" x="271.748" y="28.522"/><use xlink:href="#o" x="279.405" y="28.522"/><use xlink:href="#o" x="287.046" y="28.522"/><use xlink:href="#o" x="271.748" y="77.41" fill="#9F9F9F"/><use xlink:href="#o" x="279.405" y="77.41" fill="#9F9F9F"/><use xlink:href="#o" x="287.046" y="77.41" fill="#9F9F9F"/><use xlink:href="#o" x="271.748" y="121.246" fill="#9F9F9F"/><use xlink:href="#o" x="279.405" y="121.246" fill="#9F9F9F"/><use xlink:href="#o" x="287.046" y="121.246" fill="#9F9F9F"/><use xlink:href="#o" x="271.748" y="165.081" fill="#9F9F9F"/><use xlink:href="#o" x="279.405" y="165.081" fill="#9F9F9F"/><use xlink:href="#o" x="287.046" y="165.081" fill="#9F9F9F"/><use xlink:href="#o" x="475.843" y="28.522"/><use xlink:href="#o" x="483.5" y="28.522"/><use xlink:href="#o" x="491.141" y="28.522"/><use xlink:href="#o" x="475.843" y="77.41" fill="#9F9F9F"/><use xlink:href="#o" x="483.5" y="77.41" fill="#9F9F9F"/><use xlink:href="#o" x="491.141" y="77.41" fill="#9F9F9F"/><use xlink:href="#o" x="475.843" y="121.246" fill="#9F9F9F"/><use xlink:href="#o" x="483.5" y="121.246" fill="#9F9F9F"/><use xlink:href="#o" x="491.141" y="121.246" fill="#9F9F9F"/><use xlink:href="#o" x="475.843" y="165.081" fill="#9F9F9F"/><use xlink:href="#o" x="483.5" y="165.081" fill="#9F9F9F"/><use xlink:href="#o" x="491.141" y="165.081" fill="#9F9F9F"/><use xlink:href="#p" x="19.436" y="77.888"/><use xlink:href="#q" x="25.533" y="77.888"/><use xlink:href="#r" x="40.377" y="77.888"/><use xlink:href="#b" x="57.551" y="77.888"/><use xlink:href="#c" x="70.941" y="77.888"/><use xlink:href="#s" x="78.836" y="77.888"/><use xlink:href="#p" x="26.131" y="121.723"/><use xlink:href="#q" x="32.228" y="121.723"/><use xlink:href="#r" x="47.072" y="121.723"/><use xlink:href="#f" x="64.25" y="121.723"/><use xlink:href="#s" x="72.145" y="121.723"/><use xlink:href="#p" x="26.131" y="165.559"/><use xlink:href="#q" x="32.228" y="165.559"/><use xlink:href="#r" x="47.072" y="165.559"/><use xlink:href="#c" x="64.25" y="165.559"/><use xlink:href="#s" x="72.145" y="165.559"/></svg>