<svg xmlns="http://www.w3.org/2000/svg" xmlns:xlink="http://www.w3.org/1999/xlink" width="482.496" height="168.446"><defs><path id="a" d="M7.984-5.25c0-3.203-1.703-5.484-3.562-5.484-1.875 0-3.563 2.312-3.563 5.468 0 3.204 1.704 5.47 3.563 5.47 1.875 0 3.562-2.298 3.562-5.454ZM4.422-.797c-1.36 0-2.438-2.078-2.438-4.64 0-2.563 1.188-4.297 2.438-4.297 1.266 0 2.453 1.734 2.453 4.296 0 2.547-1.094 4.641-2.453 4.641Zm0 0"/><path id="b" d="M5.234-10.016c0-.265 0-.718-.5-.718-.296 0-.39.156-.5.39-.328.735-.89 1.64-1.812 1.719-.25.016-.61.047-.61.5 0 .297.172.5.547.5.97 0 1.704-.719 1.75-.766V-1H2.594c-.235 0-.703 0-.703.5s.468.5.703.5H6.75c.234 0 .703 0 .703-.5S6.984-1 6.75-1H5.234Zm0 0"/><path id="c" d="M3.313-4.313c0-.484-.422-.906-.922-.906s-.907.422-.907.907c0 .5.407.921.907.921s.921-.421.921-.921Zm0 0"/><path id="d" d="M11.344-3.953c.297 0 .61 0 .61-.36 0-.343-.313-.343-.61-.343H2.03c-.297 0-.61 0-.61.343 0 .36.313.36.61.36Zm0 0"/><path id="e" d="M4.578-11c0-.36-.016-.375-.25-.375-.672.797-1.687 1.063-2.656 1.094-.047 0-.14 0-.156.031-.016.047-.016.078-.016.438.531 0 1.422-.11 2.11-.516v9.078c0 .594-.032.797-1.516.797h-.516V0a135.04 135.04 0 0 1 2.516-.031c.828 0 1.687.015 2.515.031v-.453h-.515c-1.485 0-1.516-.188-1.516-.797Zm0 0"/><path id="f" d="M1.828-5.938c0-4.125 1.922-5.046 3.047-5.046.36 0 1.234.062 1.578.734-.266 0-.781 0-.781.61 0 .468.375.624.61.624.155 0 .624-.078.624-.656 0-1.094-.86-1.703-2.047-1.703-2.046 0-4.203 2.125-4.203 5.938C.656-.75 2.594.28 3.984.28c1.657 0 3.25-1.5 3.25-3.812 0-2.156-1.39-3.719-3.156-3.719-1.047 0-1.828.688-2.25 1.89ZM3.984-.14C1.86-.14 1.86-3.312 1.86-3.937c0-1.25.579-3.032 2.188-3.032.297 0 1.14 0 1.703 1.188.313.672.313 1.375.313 2.234 0 .922 0 1.625-.36 2.313-.375.703-.937 1.093-1.719 1.093Zm0 0"/><path id="g" d="M1.969-10.078c.172.078.875.297 1.593.297 1.61 0 2.485-.86 2.985-1.36 0-.14 0-.218-.11-.218-.015 0-.046 0-.187.062a5.233 5.233 0 0 1-4.297.016c-.203-.078-.234-.078-.25-.078-.078 0-.11.015-.11.359v4.984c0 .313 0 .407.188.407.078 0 .11-.032.203-.157.547-.78 1.297-1.109 2.172-1.109.594 0 1.89.39 1.89 3.328 0 .547 0 1.547-.515 2.344C5.094-.5 4.421-.141 3.688-.141c-1.141 0-2.297-.796-2.61-2.109.078.016.219.047.281.047.22 0 .657-.125.657-.656 0-.47-.329-.657-.657-.657-.39 0-.656.25-.656.72C.703-1.297 1.891.28 3.72.28 5.5.281 7.188-1.25 7.188-3.484c0-2.063-1.344-3.657-3.016-3.657-.89 0-1.625.329-2.203.938Zm0 0"/><path id="h" d="M5.781-11.14c0-.36-.015-.376-.328-.376L.343-3.375v.453h4.438v1.688c0 .609-.031.78-1.234.78h-.328V0c.547-.031 1.484-.031 2.062-.031.594 0 1.516 0 2.078.031v-.453h-.328c-1.218 0-1.25-.172-1.25-.781v-1.688h1.766v-.453H5.78ZM4.844-10v6.625H.687Zm0 0"/><path id="i" d="M6.063-5.094C6.063-1.312 4.5-.14 3.203-.14c-.39 0-1.36-.047-1.75-.718.438.062.766-.172.766-.61 0-.453-.375-.61-.625-.61-.14 0-.61.063-.61.657C.984-.266 2 .281 3.234.281c1.985 0 4-2.172 4-5.968 0-4.72-1.937-5.688-3.234-5.688-1.703 0-3.344 1.484-3.344 3.797 0 2.14 1.39 3.719 3.156 3.719 1.438 0 2.079-1.344 2.25-1.907Zm-2.22.969c-.468 0-1.124-.094-1.655-1.125-.36-.672-.36-1.469-.36-2.313 0-1.015 0-1.718.484-2.468.235-.375.688-.953 1.688-.953 2.031 0 2.031 3.109 2.031 3.796 0 1.235-.562 3.063-2.187 3.063Zm0 0"/><path id="j" d="M4.688-6.203c1.078-.547 2.187-1.375 2.187-2.703 0-1.563-1.516-2.469-2.922-2.469-1.562 0-2.937 1.125-2.937 2.703 0 .422.109 1.172.78 1.813.173.171.891.687 1.36 1.015C2.375-5.437.562-4.5.562-2.594.563-.828 2.25.281 3.922.281c1.844 0 3.39-1.328 3.39-3.094 0-1.562-1.046-2.28-1.734-2.75ZM2.421-7.72c-.125-.078-.828-.61-.828-1.422 0-1.046 1.093-1.843 2.328-1.843 1.36 0 2.36.968 2.36 2.078 0 1.61-1.782 2.515-1.876 2.515-.015 0-.031 0-.172-.093Zm3.172 3.532c.265.187 1.093.765 1.093 1.812 0 1.266-1.28 2.234-2.734 2.234-1.562 0-2.75-1.109-2.75-2.484 0-1.36 1.047-2.484 2.234-3.016Zm0 0"/><path id="k" d="M7.766-10.734v-.375H3.719c-2.016 0-2.047-.22-2.125-.547h-.297l-.5 3.219h.312c.047-.329.172-1.204.375-1.532.094-.14 1.375-.14 1.672-.14h3.781L5.032-7.266c-1.281 1.907-2.156 4.5-2.156 6.75 0 .204 0 .797.625.797.61 0 .61-.594.61-.812v-.797c0-2.828.484-4.688 1.28-5.875Zm0 0"/><path id="l" d="M7.234-5.531c0-1.047-.015-2.844-.75-4.219-.625-1.203-1.64-1.625-2.546-1.625-.829 0-1.876.375-2.532 1.61C.72-8.47.656-6.876.656-5.532c0 .984.016 2.484.547 3.797C1.953.03 3.266.28 3.937.28c.797 0 2-.328 2.704-1.969.515-1.187.593-2.578.593-3.843ZM3.938 0c-1.094 0-1.75-.953-1.985-2.25-.203-1.016-.203-2.5-.203-3.469 0-1.328 0-2.422.234-3.468.329-1.47 1.282-1.922 1.954-1.922.718 0 1.624.468 1.953 1.875.218.984.234 2.14.234 3.515 0 1.125 0 2.5-.203 3.516C5.562-.328 4.547 0 3.938 0Zm0 0"/><path id="m" d="M7.188-2.672h-.313c-.172 1.219-.313 1.438-.39 1.531C6.405-1 5.171-1 4.921-1H1.625c.61-.672 1.813-1.89 3.281-3.313 1.047-.984 2.282-2.156 2.282-3.859 0-2.031-1.625-3.203-3.438-3.203-1.89 0-3.047 1.656-3.047 3.219 0 .672.5.75.703.75.172 0 .688-.094.688-.703 0-.532-.438-.688-.688-.688a.673.673 0 0 0-.265.047c.328-1.453 1.328-2.188 2.375-2.188 1.5 0 2.468 1.188 2.468 2.766 0 1.485-.875 2.781-1.859 3.906L.703-.39V0h6.063Zm0 0"/><path id="n" d="M3.813-5.86c1.53 0 2.203 1.329 2.203 2.86 0 2.063-1.11 2.86-2.11 2.86-.906 0-2.39-.438-2.86-1.766a.774.774 0 0 0 .266.031c.407 0 .72-.281.72-.719 0-.5-.376-.734-.72-.734-.296 0-.75.14-.75.781C.563-.969 2.125.281 3.938.281c1.922 0 3.376-1.5 3.376-3.265 0-1.672-1.375-2.875-3-3.063 1.296-.266 2.562-1.437 2.562-3.016 0-1.343-1.36-2.312-2.922-2.312s-2.937.953-2.937 2.328c0 .61.453.719.671.719.36 0 .672-.235.672-.672 0-.453-.312-.672-.671-.672-.063 0-.157 0-.22.031.5-1.14 1.86-1.343 2.454-1.343.61 0 1.75.296 1.75 1.937 0 .485-.078 1.344-.656 2.11-.516.671-1.11.703-1.672.75-.094 0-.485.046-.547.046-.125.016-.203.032-.203.157 0 .109.031.125.375.125Zm0 0"/><path id="o" d="M2.86-.703a.69.69 0 0 0-.704-.703.7.7 0 0 0-.703.703.7.7 0 0 0 .703.703.71.71 0 0 0 .703-.703Zm0 0"/></defs><use xlink:href="#a" x="19.436" y="29.956"/><use xlink:href="#a" x="28.295" y="29.956"/><use xlink:href="#a" x="37.154" y="29.956"/><use xlink:href="#a" x="46.013" y="29.956"/><use xlink:href="#a" x="70.46" y="29.956"/><use xlink:href="#a" x="79.319" y="29.956"/><use xlink:href="#a" x="88.178" y="29.956"/><use xlink:href="#b" x="97.037" y="29.956"/><use xlink:href="#a" x="121.483" y="29.956"/><use xlink:href="#a" x="130.342" y="29.956"/><use xlink:href="#b" x="139.201" y="29.956"/><use xlink:href="#a" x="148.06" y="29.956"/><use xlink:href="#c" x="180.182" y="28.522"/><use xlink:href="#c" x="187.839" y="28.522"/><use xlink:href="#c" x="195.48" y="28.522"/><use xlink:href="#a" x="223.531" y="29.956"/><use xlink:href="#b" x="232.39" y="29.956"/><use xlink:href="#b" x="241.249" y="29.956"/><use xlink:href="#b" x="250.108" y="29.956"/><use xlink:href="#b" x="274.554" y="29.956"/><use xlink:href="#a" x="283.413" y="29.956"/><use xlink:href="#a" x="292.272" y="29.956"/><use xlink:href="#a" x="301.131" y="29.956"/><use xlink:href="#b" x="325.578" y="29.956"/><use xlink:href="#a" x="334.437" y="29.956"/><use xlink:href="#a" x="343.296" y="29.956"/><use xlink:href="#b" x="352.155" y="29.956"/><use xlink:href="#c" x="384.277" y="28.522"/><use xlink:href="#c" x="391.934" y="28.522"/><use xlink:href="#c" x="399.575" y="28.522"/><use xlink:href="#b" x="427.625" y="29.956"/><use xlink:href="#b" x="436.484" y="29.956"/><use xlink:href="#b" x="445.343" y="29.956"/><use xlink:href="#b" x="454.202" y="29.956"/><path fill="none" stroke="#000" stroke-miterlimit="10" stroke-width=".399" d="M37.152 36.652V49.95"/><path stroke="#000" stroke-miterlimit="10" stroke-width=".399" d="m37.152 53.094 1.707-4.532-1.707 1.489-1.703-1.489Zm0 0"/><path fill="none" stroke="#000" stroke-miterlimit="10" stroke-width=".399" d="M88.18 36.652V49.95"/><path stroke="#000" stroke-miterlimit="10" stroke-width=".399" d="m88.18 53.094 1.703-4.532-1.703 1.489-1.707-1.489Zm0 0"/><path fill="none" stroke="#000" stroke-miterlimit="10" stroke-width=".399" d="M139.203 36.652V49.95"/><path stroke="#000" stroke-miterlimit="10" stroke-width=".399" d="m139.203 53.094 1.703-4.532-1.703 1.489-1.703-1.489Zm0 0"/><path fill="none" stroke="#000" stroke-miterlimit="10" stroke-width=".399" d="M241.25 36.652V49.95"/><path stroke="#000" stroke-miterlimit="10" stroke-width=".399" d="m241.25 53.094 1.707-4.532-1.707 1.489-1.703-1.489Zm0 0"/><path fill="none" stroke="#000" stroke-miterlimit="10" stroke-width=".399" d="M292.273 36.652V49.95"/><path stroke="#000" stroke-miterlimit="10" stroke-width=".399" d="m292.273 53.094 1.707-4.532-1.707 1.489-1.703-1.489Zm0 0"/><path fill="none" stroke="#000" stroke-miterlimit="10" stroke-width=".399" d="M343.3 36.652V49.95"/><path stroke="#000" stroke-miterlimit="10" stroke-width=".399" d="m343.3 53.094 1.704-4.532-1.703 1.489-1.707-1.489Zm0 0"/><path fill="none" stroke="#000" stroke-miterlimit="10" stroke-width=".399" d="M445.348 36.652V49.95"/><path stroke="#000" stroke-miterlimit="10" stroke-width=".399" d="m445.348 53.094 1.703-4.532-1.703 1.489-1.703-1.489Zm0 0"/><use xlink:href="#d" x="22.564" y="74.431" fill="#BFBFBF"/><g fill="#BFBFBF"><use xlink:href="#e" x="35.953" y="74.431"/><use xlink:href="#f" x="43.848" y="74.431"/></g><use xlink:href="#d" x="73.587" y="74.431" fill="#BFBFBF"/><g fill="#BFBFBF"><use xlink:href="#e" x="86.977" y="74.431"/><use xlink:href="#g" x="94.872" y="74.431"/></g><use xlink:href="#d" x="124.611" y="74.431" fill="#BFBFBF"/><g fill="#BFBFBF"><use xlink:href="#e" x="138.001" y="74.431"/><use xlink:href="#h" x="145.896" y="74.431"/></g><use xlink:href="#c" x="180.182" y="73.425"/><use xlink:href="#c" x="187.839" y="73.425"/><use xlink:href="#c" x="195.48" y="73.425"/><use xlink:href="#d" x="230.606" y="74.431" fill="#BFBFBF"/><use xlink:href="#i" x="243.995" y="74.431" fill="#BFBFBF"/><use xlink:href="#d" x="281.629" y="74.431" fill="#BFBFBF"/><use xlink:href="#j" x="295.019" y="74.431" fill="#BFBFBF"/><use xlink:href="#d" x="332.653" y="74.431" fill="#BFBFBF"/><use xlink:href="#k" x="346.043" y="74.431" fill="#BFBFBF"/><use xlink:href="#c" x="384.277" y="73.425" fill="#BFBFBF"/><use xlink:href="#c" x="391.934" y="73.425" fill="#BFBFBF"/><use xlink:href="#c" x="399.575" y="73.425" fill="#BFBFBF"/><use xlink:href="#d" x="434.7" y="74.431" fill="#BFBFBF"/><use xlink:href="#e" x="448.09" y="74.431" fill="#BFBFBF"/><use xlink:href="#l" x="33.206" y="99.058"/><use xlink:href="#e" x="84.23" y="99.058"/><use xlink:href="#m" x="135.253" y="99.058"/><use xlink:href="#c" x="180.182" y="97.335"/><use xlink:href="#c" x="187.839" y="97.335"/><use xlink:href="#c" x="195.48" y="97.335"/><use xlink:href="#k" x="237.301" y="99.058"/><use xlink:href="#j" x="288.324" y="99.058"/><use xlink:href="#i" x="339.348" y="99.058"/><use xlink:href="#c" x="384.277" y="97.335"/><use xlink:href="#c" x="391.934" y="97.335"/><use xlink:href="#c" x="399.575" y="97.335"/><use xlink:href="#e" x="437.447" y="99.058"/><use xlink:href="#g" x="445.342" y="99.058"/><g fill="#BFBFBF"><use xlink:href="#e" x="29.258" y="122.969"/><use xlink:href="#f" x="37.153" y="122.969"/></g><g fill="#BFBFBF"><use xlink:href="#e" x="80.282" y="122.969"/><use xlink:href="#k" x="88.177" y="122.969"/></g><g fill="#BFBFBF"><use xlink:href="#e" x="131.306" y="122.969"/><use xlink:href="#j" x="139.201" y="122.969"/></g><use xlink:href="#c" x="180.182" y="121.246"/><use xlink:href="#c" x="187.839" y="121.246"/><use xlink:href="#c" x="195.48" y="121.246"/><g fill="#BFBFBF"><use xlink:href="#m" x="233.353" y="122.969"/><use xlink:href="#h" x="241.248" y="122.969"/></g><g fill="#BFBFBF"><use xlink:href="#m" x="284.377" y="122.969"/><use xlink:href="#g" x="292.272" y="122.969"/></g><g fill="#BFBFBF"><use xlink:href="#m" x="335.4" y="122.969"/><use xlink:href="#f" x="343.295" y="122.969"/></g><use xlink:href="#c" x="384.277" y="121.246"/><use xlink:href="#c" x="391.934" y="121.246"/><use xlink:href="#c" x="399.575" y="121.246"/><g fill="#BFBFBF"><use xlink:href="#n" x="437.447" y="122.969"/><use xlink:href="#e" x="445.342" y="122.969"/></g><use xlink:href="#o" x="35.005" y="141.04"/><use xlink:href="#o" x="35.005" y="145.025"/><use xlink:href="#o" x="35.005" y="149.01"/><use xlink:href="#o" x="86.029" y="141.04"/><use xlink:href="#o" x="86.029" y="145.025"/><use xlink:href="#o" x="86.029" y="149.01"/><use xlink:href="#o" x="137.052" y="141.04"/><use xlink:href="#o" x="137.052" y="145.025"/><use xlink:href="#o" x="137.052" y="149.01"/><use xlink:href="#o" x="239.099" y="141.04"/><use xlink:href="#o" x="239.099" y="145.025"/><use xlink:href="#o" x="239.099" y="149.01"/><use xlink:href="#o" x="290.123" y="141.04"/><use xlink:href="#o" x="290.123" y="145.025"/><use xlink:href="#o" x="290.123" y="149.01"/><use xlink:href="#o" x="341.147" y="141.04"/><use xlink:href="#o" x="341.147" y="145.025"/><use xlink:href="#o" x="341.147" y="149.01"/><use xlink:href="#o" x="443.194" y="141.04"/><use xlink:href="#o" x="443.194" y="145.025"/><use xlink:href="#o" x="443.194" y="149.01"/></svg>