<svg xmlns="http://www.w3.org/2000/svg" xmlns:xlink="http://www.w3.org/1999/xlink" width="418.99pt" height="150.81pt" viewBox="0 0 418.99 150.81"><defs><path id="C" d="M5.27-.971v-.611h-.273v.611c0 .633-.273.698-.393.698-.36 0-.404-.49-.404-.545V-3c0-.458 0-.884-.392-1.288a2.08 2.08 0 0 0-1.495-.6c-.895 0-1.647.513-1.647 1.233 0 .327.218.513.501.513a.48.48 0 0 0 .502-.502c0-.13-.054-.49-.556-.502.294-.382.829-.502 1.178-.502.535 0 1.157.426 1.157 1.397v.403c-.557.033-1.32.066-2.008.393-.818.371-1.09.939-1.09 1.419C.35-.153 1.406.12 2.094.12a1.51 1.51 0 0 0 1.429-.95c.044.437.338.895.85.895.23 0 .896-.152.896-1.036m-1.822-.556C3.448-.491 2.662-.12 2.17-.12c-.534 0-.982-.382-.982-.927 0-.6.458-1.506 2.259-1.571z"/><path id="E" d="M4.528-1.298c0-.11-.088-.131-.142-.131-.098 0-.12.065-.142.153C3.862-.153 2.88-.153 2.771-.153c-.545 0-.982-.327-1.233-.73-.327-.524-.327-1.244-.327-1.637h3.044c.24 0 .273 0 .273-.23 0-1.08-.59-2.138-1.953-2.138-1.266 0-2.27 1.124-2.27 2.488 0 1.462 1.146 2.52 2.4 2.52 1.332 0 1.823-1.211 1.823-1.418m-.72-1.451H1.222c.065-1.626.982-1.899 1.353-1.899 1.123 0 1.233 1.473 1.233 1.899"/><path id="w" d="M5.291-4.408a.534.534 0 0 0-.556-.534c-.218 0-.698.065-1.157.513a1.82 1.82 0 0 0-1.156-.393C1.407-4.822.655-4.07.655-3.23c0 .48.24.894.512 1.123A1.5 1.5 0 0 0 .83-1.2c0 .338.142.753.48.97C.655-.043.305.426.305.863c0 .785 1.08 1.385 2.412 1.385 1.287 0 2.422-.556 2.422-1.407 0-.382-.153-.938-.71-1.244-.578-.305-1.21-.305-1.876-.305-.273 0-.742 0-.818-.011-.35-.044-.579-.382-.579-.731 0-.044 0-.295.186-.513.425.306.873.338 1.08.338 1.015 0 1.767-.752 1.767-1.592 0-.404-.174-.808-.447-1.059.393-.37.786-.425.982-.425 0 0 .076 0 .11.01-.12.044-.175.164-.175.295a.31.31 0 0 0 .316.317c.11 0 .316-.077.316-.328m-1.92 1.179c0 .294-.01.643-.174.916-.088.131-.339.436-.775.436-.95 0-.95-1.09-.95-1.341 0-.295.012-.644.175-.917.088-.13.339-.436.775-.436.95 0 .95 1.09.95 1.342m1.2 4.09c0 .59-.774 1.136-1.843 1.136C1.626 1.997.873 1.44.873.862c0-.502.414-.906.894-.938h.644c.938 0 2.16 0 2.16.938"/><path id="u" d="M7.812 0v-.338H7.55c-.84 0-.862-.12-.862-.513v-5.75c0-.392.022-.512.862-.512h.262v-.339c-.382.033-1.19.033-1.604.033s-1.233 0-1.615-.033v.339h.262c.84 0 .862.12.862.512v2.553H2.455V-6.6c0-.392.022-.512.862-.512h.261v-.339c-.381.033-1.189.033-1.603.033s-1.233 0-1.615-.033v.339h.262c.84 0 .862.12.862.512v5.75c0 .393-.022.513-.862.513H.36V0c.382-.033 1.19-.033 1.604-.033s1.233 0 1.614.033v-.338h-.261c-.84 0-.862-.12-.862-.513v-2.858h3.262v2.858c0 .393-.022.513-.862.513h-.262V0c.382-.033 1.19-.033 1.604-.033s1.233 0 1.615.033"/><path id="x" d="M5.837 0v-.338c-.567 0-.84 0-.851-.328v-2.083c0-.939 0-1.277-.338-1.67-.153-.185-.513-.403-1.146-.403-.916 0-1.396.654-1.57 1.047H1.92v-3.797l-1.57.12v.339c.763 0 .85.076.85.61v5.674c0 .49-.12.49-.85.49V0l1.232-.033L2.804 0v-.338c-.731 0-.851 0-.851-.491v-2.008c0-1.134.775-1.745 1.473-1.745.687 0 .807.589.807 1.21v2.543c0 .49-.12.49-.85.49V0l1.232-.033z"/><path id="v" d="M2.695 0v-.338c-.72 0-.764-.055-.764-.48v-4.004l-1.527.12v.338c.709 0 .807.065.807.6v2.935c0 .49-.12.49-.851.49V0l1.2-.033c.382 0 .764.022 1.135.033m-.6-6.59a.583.583 0 0 0-1.167 0 .583.583 0 0 0 1.167 0"/><path id="O" d="M6.35-2.815h-.273c-.12 1.113-.273 2.477-2.193 2.477h-.895c-.512 0-.534-.077-.534-.437V-6.59c0-.37 0-.523 1.036-.523h.36v-.339c-.393.033-1.385.033-1.833.033-.425 0-1.276 0-1.658-.033v.339h.262c.84 0 .862.12.862.512v5.75c0 .393-.022.513-.862.513H.36V0h5.684z"/><path id="B" d="M5.139-2.335c0-1.396-1.091-2.553-2.411-2.553-1.364 0-2.423 1.19-2.423 2.553A2.435 2.435 0 0 0 2.717.12a2.43 2.43 0 0 0 2.422-2.455m-.906-.087c0 .393 0 .982-.24 1.462-.24.49-.72.807-1.265.807-.47 0-.95-.229-1.244-.73-.273-.48-.273-1.146-.273-1.539 0-.426 0-1.015.262-1.495a1.46 1.46 0 0 1 1.244-.73c.48 0 .949.24 1.232.708s.284 1.102.284 1.517"/><path id="t" d="M3.611 2.618c0-.032 0-.054-.185-.24-1.364-1.374-1.713-3.436-1.713-5.105 0-1.899.414-3.797 1.756-5.16.142-.132.142-.154.142-.186 0-.077-.043-.11-.109-.11-.109 0-1.09.742-1.735 2.128-.556 1.2-.687 2.411-.687 3.327 0 .851.12 2.172.72 3.404.655 1.342 1.593 2.052 1.702 2.052.066 0 .11-.033.11-.11"/><path id="F" d="M3.153-2.727c0-.851-.12-2.172-.72-3.404C1.778-7.473.84-8.182.73-8.182c-.065 0-.11.043-.11.109 0 .032 0 .054.208.25C1.9-6.742 2.52-5.007 2.52-2.726c0 1.865-.403 3.785-1.756 5.16-.142.13-.142.153-.142.185 0 .066.044.11.109.11.11 0 1.091-.742 1.735-2.128.556-1.2.687-2.411.687-3.327"/><path id="A" d="M3.971-4.157c0-.349-.338-.665-.807-.665-.797 0-1.19.73-1.342 1.2v-1.2l-1.517.12v.338c.764 0 .851.076.851.611v2.924c0 .49-.12.49-.85.49V0l1.243-.033c.437 0 .95 0 1.386.033v-.338h-.23c-.807 0-.828-.12-.828-.513v-1.68c0-1.08.458-2.051 1.287-2.051.076 0 .098 0 .12.01a.47.47 0 0 0-.251.426c0 .306.23.47.47.47.195 0 .468-.132.468-.48"/><path id="y" d="M3.928-1.396c0-.579-.328-.906-.459-1.037-.36-.35-.785-.436-1.243-.524-.611-.12-1.342-.261-1.342-.894 0-.382.283-.83 1.222-.83 1.2 0 1.254.983 1.276 1.32.011.099.131.099.131.099.142 0 .142-.055.142-.262v-1.102c0-.185 0-.262-.12-.262-.055 0-.077 0-.218.131a1.4 1.4 0 0 1-.186.175c-.414-.306-.862-.306-1.025-.306C.775-4.888.36-4.157.36-3.546c0 .382.175.688.47.928.348.283.654.349 1.44.501.24.044 1.134.219 1.134 1.004 0 .557-.382.993-1.233.993-.916 0-1.31-.622-1.516-1.55C.622-1.81.61-1.854.502-1.854c-.142 0-.142.077-.142.273v1.44C.36.044.36.12.48.12.535.12.546.11.753-.098.775-.12.775-.142.97-.35c.48.458.971.469 1.2.469 1.255 0 1.757-.731 1.757-1.516"/><path id="D" d="M3.622-1.353v-.622H3.35v.6c0 .808-.327 1.222-.73 1.222-.732 0-.732-.993-.732-1.178v-3.033h1.56v-.338h-1.56V-6.71h-.272c-.011.895-.339 2.062-1.408 2.106v.24h.928v3.011C1.135-.01 2.149.12 2.542.12c.775 0 1.08-.775 1.08-1.473"/><path id="z" d="M5.837 0v-.338c-.764 0-.851-.077-.851-.611v-3.873l-1.604.12v.338c.764 0 .851.076.851.611v1.942c0 .95-.524 1.691-1.32 1.691-.916 0-.96-.513-.96-1.08v-3.622l-1.604.12v.338c.851 0 .851.033.851 1.004v1.636C1.2-.873 1.2.12 2.858.12c.611 0 1.091-.305 1.408-.982V.12z"/><path id="P" d="M7.67-4.364v-.338c-.24.022-.557.033-.797.033L5.86-4.702v.338c.392.01.632.207.632.524 0 .065 0 .087-.054.229L5.444-.818l-1.08-3.044c-.044-.131-.055-.153-.055-.207 0-.295.426-.295.644-.295v-.338l-1.135.033c-.327 0-.643-.011-.97-.033v.338c.403 0 .578.022.687.164.054.065.174.392.25.6L2.849-.96 1.81-3.873c-.054-.131-.054-.153-.054-.196 0-.295.425-.295.643-.295v-.338l-1.189.033-1.015-.033v.338c.546 0 .677.033.808.382L2.378-.12c.055.153.088.24.23.24s.163-.065.218-.218l1.102-3.088L5.04-.087c.044.12.077.207.219.207s.174-.098.218-.207l1.276-3.579c.197-.545.535-.687.917-.698"/><path id="a" d="M7.882-2.75c.203 0 .418 0 .418-.24s-.215-.24-.418-.24h-6.47c-.204 0-.42 0-.42.24s.216.24.42.24z"/><path id="p" d="M9.975-2.75c-.658.502-.981.992-1.077 1.147-.538.826-.634 1.58-.634 1.591 0 .144.144.144.24.144.203 0 .215-.024.263-.24.275-1.172.98-2.176 2.332-2.727.143-.047.18-.071.18-.155s-.072-.12-.096-.132c-.527-.203-1.974-.8-2.428-2.81-.036-.144-.048-.18-.251-.18-.096 0-.24 0-.24.144 0 .024.108.777.61 1.579.24.358.586.777 1.1 1.16H1.089c-.215 0-.43 0-.43.239s.215.24.43.24z"/><path id="G" d="M4.822-.327c0-.339-.262-.339-.436-.339h-.993v-5.673c0-.174 0-.447-.327-.447-.208 0-.273.13-.328.262-.414.927-.981 1.047-1.189 1.069-.174.01-.403.033-.403.338 0 .273.196.328.36.328.207 0 .654-.066 1.134-.48v4.603h-.993c-.174 0-.436 0-.436.339 0 .327.273.327.436.327h2.739c.163 0 .436 0 .436-.327"/><path id="I" d="M5.542-4.375c0-.327-.262-.327-.458-.327H3.83c-.196 0-.458 0-.458.327 0 .338.251.338.458.338h.535L3.818-.786h-.01c-.044-.283-.186-.785-.317-1.232-.196-.688-.229-.808-.61-.808-.11 0-.317 0-.437.24-.033.077-.47 1.582-.513 1.8h-.01l-.568-3.25h.534c.197 0 .459 0 .459-.328 0-.338-.251-.338-.459-.338H.633c-.197 0-.458 0-.458.327 0 .338.229.338.556.338L1.386-.37c.043.251.076.415.512.415s.47-.099.666-.764c.273-.96.284-1.113.316-1.353h.011c.055.567.458 1.844.502 1.931.13.186.327.186.458.186.404 0 .437-.175.48-.415l.655-3.666c.327 0 .556 0 .556-.338"/><path id="m" d="M5.411-.327c0-.339-.283-.339-.447-.339h-.436L3.13-2.422l1.244-1.615h.436c.153 0 .448 0 .448-.327 0-.338-.284-.338-.448-.338H3.535c-.164 0-.437 0-.437.327 0 .338.24.338.535.338l-.807 1.102-.83-1.102c.284 0 .524 0 .524-.338 0-.327-.273-.327-.436-.327H.807c-.163 0-.447 0-.447.338 0 .327.295.327.447.327h.437L2.53-2.422 1.178-.666H.742c-.164 0-.447 0-.447.339C.295 0 .589 0 .742 0h1.276c.164 0 .437 0 .437-.327 0-.339-.23-.339-.568-.339l.939-1.341.97 1.341c-.305 0-.545 0-.545.339 0 .327.273.327.437.327h1.276c.153 0 .447 0 .447-.327"/><path id="n" d="M5.455-4.364c0-.338-.262-.338-.436-.338H3.742c-.164 0-.436 0-.436.327 0 .338.262.338.436.338h.306l-.786 2.324c-.142.404-.207.6-.284.938h-.01c-.055-.207-.153-.436-.23-.643L1.724-4.037h.273c.163 0 .436 0 .436-.327 0-.338-.262-.338-.436-.338H.72c-.174 0-.436 0-.436.338 0 .327.272.327.436.327h.338l1.55 3.895c.043.11.043.142.043.142s-.273.916-.414 1.19c-.317.6-.71.621-.873.632 0 0 .054-.098.054-.24a.453.453 0 0 0-.469-.47c-.294 0-.48.197-.48.48a.9.9 0 0 0 .906.895c1.09 0 1.582-1.44 1.625-1.56l1.691-4.964h.328c.163 0 .436 0 .436-.327"/><path id="o" d="M5.182-.447v-.633c0-.207 0-.447-.37-.447-.383 0-.383.229-.383.447v.414H1.495l3.404-3.229c.229-.218.24-.25.24-.436 0-.371-.24-.371-.448-.371H.981c-.36 0-.446.087-.446.447v.502c0 .207 0 .447.37.447.382 0 .382-.229.382-.447v-.284h2.717L.6-.807c-.23.218-.24.25-.24.436C.36 0 .6 0 .807 0h4.135c.24-.065.24-.284.24-.447"/><path id="H" d="M5.171-3.328c0-2.029-1.112-3.458-2.313-3.458-1.221 0-2.312 1.462-2.312 3.448C.546-1.31 1.658.12 2.858.12c1.222 0 2.313-1.462 2.313-3.448m-.752-.12c0 1.615-.71 2.903-1.56 2.903s-1.56-1.288-1.56-2.903c0-1.592.752-2.673 1.56-2.673.796 0 1.56 1.07 1.56 2.673"/><path id="J" d="M3.611 2.618c0-.032 0-.054-.185-.24-1.364-1.374-1.713-3.436-1.713-5.105 0-1.899.414-3.797 1.756-5.16.142-.132.142-.154.142-.186 0-.077-.043-.11-.109-.11-.109 0-1.09.742-1.735 2.128-.556 1.2-.687 2.411-.687 3.327 0 .851.12 2.172.72 3.404.655 1.342 1.593 2.052 1.702 2.052.066 0 .11-.033.11-.11"/><path id="N" d="M3.153-2.727c0-.851-.12-2.172-.72-3.404C1.778-7.473.84-8.182.73-8.182c-.065 0-.11.043-.11.109 0 .032 0 .054.208.25C1.9-6.742 2.52-5.007 2.52-2.726c0 1.865-.403 3.785-1.756 5.16-.142.13-.142.153-.142.185 0 .066.044.11.109.11.11 0 1.091-.742 1.735-2.128.556-1.2.687-2.411.687-3.327"/><path id="M" d="M3.208-6.982c0-.262 0-.284-.251-.284-.677.698-1.637.698-1.986.698v.338c.218 0 .862 0 1.43-.283v5.651c0 .393-.034.524-1.015.524h-.35V0c.382-.033 1.331-.033 1.768-.033s1.385 0 1.767.033v-.338h-.349c-.982 0-1.014-.12-1.014-.524z"/><path id="K" d="M7.495-3.568c.164 0 .371 0 .371-.218s-.207-.218-.36-.218H.971c-.153 0-.36 0-.36.218s.207.218.37.218zm.011 2.117c.153 0 .36 0 .36-.218s-.207-.218-.37-.218H.981c-.164 0-.371 0-.371.218s.207.218.36.218z"/><path id="e" d="M5.669-1.064v-.67h-.263v.67c0 .681-.287.777-.455.777-.454 0-.454-.634-.454-.813v-2.093c0-.646 0-1.125-.526-1.591-.419-.383-.957-.55-1.483-.55-.981 0-1.735.646-1.735 1.423 0 .347.228.514.503.514.287 0 .49-.203.49-.49 0-.49-.43-.49-.61-.49.275-.503.85-.718 1.328-.718.55 0 1.256.455 1.256 1.53v.48C1.316-3.05.407-2.046.407-1.126c0 .946 1.1 1.245 1.83 1.245A1.63 1.63 0 0 0 3.79-.933c.048.562.419.993.933.993.251 0 .945-.168.945-1.124m-1.95-.622C3.72-.514 2.847-.12 2.333-.12c-.586 0-1.076-.43-1.076-1.004 0-1.579 2.033-1.722 2.464-1.746z"/><path id="b" d="M7.63-2.189c0-.968-.873-1.925-2.296-2.08 1.136-.216 1.962-.981 1.962-1.878 0-1.029-1.04-2.022-2.608-2.022H.514v.347h.24c.86 0 .896.12.896.562v6.351c0 .443-.035.562-.897.562H.514V0h4.497c1.543 0 2.62-1.04 2.62-2.189M6.243-6.147c0 .789-.622 1.782-1.95 1.782H2.56v-2.978c0-.395.024-.479.55-.479h1.508c1.196 0 1.626 1.029 1.626 1.675m.3 3.946c0 .97-.73 1.854-1.903 1.854H3.11c-.527 0-.55-.084-.55-.478v-3.301h2.236c1.148 0 1.746 1.004 1.746 1.925"/><path id="s" d="M4.856-1.423c0-.108-.084-.108-.12-.108-.107 0-.12.036-.155.18-.263.849-.91 1.207-1.555 1.207-.73 0-1.698-.633-1.698-2.451 0-1.986 1.016-2.476 1.614-2.476.455 0 1.112.18 1.388.646-.144 0-.587 0-.587.49 0 .287.204.49.49.49.276 0 .503-.167.503-.514 0-.801-.837-1.375-1.806-1.375C1.53-5.334.42-4.09.42-2.584.419-1.051 1.567.12 2.919.12c1.578 0 1.937-1.436 1.937-1.543"/><path id="h" d="M4.868-1.423c0-.072-.06-.12-.132-.12-.096 0-.12.06-.143.12C4.282-.42 3.48-.143 2.978-.143s-1.71-.335-1.71-2.404v-.228H4.58c.263 0 .287 0 .287-.227 0-1.208-.646-2.332-2.093-2.332C1.41-5.334.359-4.102.359-2.62.359-1.041 1.579.12 2.906.12c1.424 0 1.962-1.292 1.962-1.543m-.742-1.579H1.28c.095-1.878 1.148-2.093 1.483-2.093 1.28 0 1.351 1.686 1.363 2.093"/><path id="c" d="M2.882 0v-.347c-.777 0-.825-.06-.825-.526v-4.401l-1.626.131v.347c.765 0 .873.072.873.658v3.253c0 .538-.132.538-.91.538V0c.336-.024.91-.024 1.256-.024.132 0 .826 0 1.232.024m-.67-7.224a.58.58 0 1 0-.586.574.576.576 0 0 0 .587-.574"/><path id="d" d="M6.231 0v-.347c-.598 0-.897 0-.909-.359v-2.2c0-1.113 0-1.447-.275-1.83-.347-.467-.909-.538-1.315-.538-1.16 0-1.615.992-1.71 1.232h-.013v-1.232l-1.626.131v.347c.813 0 .909.084.909.67v3.241c0 .538-.132.538-.91.538V0c.312-.024.958-.024 1.292-.024.347 0 .993 0 1.304.024v-.347c-.765 0-.909 0-.909-.538V-3.11c0-1.255.825-1.925 1.567-1.925s.909.61.909 1.34v2.81c0 .538-.132.538-.91.538V0c.312-.024.958-.024 1.293-.024.346 0 .992 0 1.303.024"/><path id="l" d="M5.49-2.56c0-1.542-1.172-2.774-2.56-2.774C1.495-5.334.36-4.066.36-2.56.359-1.03 1.555.12 2.919.12c1.41 0 2.57-1.172 2.57-2.68m-.91-.107c0 .419 0 1.16-.31 1.722a1.56 1.56 0 0 1-1.34.801c-.442 0-.98-.19-1.327-.777-.323-.538-.335-1.244-.335-1.746 0-.455 0-1.184.37-1.722a1.53 1.53 0 0 1 1.28-.706c.467 0 .969.215 1.292.682.37.55.37 1.303.37 1.746"/><path id="i" d="M6.076-2.583c0-1.52-1.125-2.691-2.428-2.691-1.053 0-1.615.753-1.65.801v-.801l-1.663.131v.347c.837 0 .909.084.909.61v5.621c0 .538-.132.538-.91.538v.347c.312-.024.958-.024 1.293-.024.346 0 .992 0 1.303.024v-.347c-.765 0-.909 0-.909-.538v-2.08c.216.298.706.765 1.471.765 1.376 0 2.584-1.16 2.584-2.703m-.91 0c0 1.423-.813 2.463-1.733 2.463a1.4 1.4 0 0 1-.957-.382c-.275-.275-.455-.515-.455-.85v-2.463c0-.227 0-.24.132-.43a1.72 1.72 0 0 1 1.4-.766c.896 0 1.614 1.088 1.614 2.428"/><path id="q" d="M6.16 2.32v-.347c-.766 0-.91 0-.91-.538v-6.71h-.239L4.57-4.161c-.216-.455-.682-1.112-1.591-1.112-1.316 0-2.56 1.124-2.56 2.703 0 1.519 1.149 2.69 2.452 2.69.646 0 1.172-.298 1.603-.896v2.212c0 .538-.132.538-.909.538v.347c.311-.024.957-.024 1.292-.024.347 0 .992 0 1.303.024M4.496-1.603c0 .383-.215.73-.49 1.005-.431.443-.885.478-1.065.478-.909 0-1.614-1.124-1.614-2.451 0-1.436.837-2.44 1.722-2.44.945 0 1.447 1.028 1.447 1.65z"/><path id="f" d="M4.222-4.58c0-.36-.323-.694-.837-.694-1.017 0-1.364 1.1-1.436 1.327h-.011v-1.327l-1.603.131v.347c.813 0 .909.084.909.67v3.241c0 .538-.132.538-.91.538V0c.336-.024.994-.024 1.352-.024.323 0 1.172 0 1.448.024v-.347h-.24c-.873 0-.897-.131-.897-.562v-1.878c0-1.16.479-2.248 1.4-2.248.095 0 .12 0 .167.012-.096.048-.287.12-.287.442a.46.46 0 0 0 .466.479c.24 0 .479-.156.479-.479"/><path id="j" d="M4.21-1.519c0-.646-.395-1.028-.502-1.136-.431-.37-.754-.443-1.543-.586-.359-.072-1.232-.24-1.232-.957 0-.37.251-.92 1.327-.92 1.304 0 1.376 1.111 1.4 1.482.012.096.095.096.131.096.132 0 .132-.06.132-.275V-5.06c0-.215 0-.275-.12-.275-.095 0-.323.263-.406.37-.371-.298-.742-.37-1.125-.37-1.447 0-1.877.79-1.877 1.447 0 .132 0 .55.454.969.383.335.79.418 1.34.526.657.132.813.167 1.112.407.215.179.37.442.37.777 0 .514-.298 1.088-1.35 1.088C1.53-.12.956-.574.693-1.77c-.048-.215-.06-.24-.06-.24-.024-.047-.072-.047-.108-.047-.131 0-.131.06-.131.275v1.627c0 .215 0 .275.12.275.06 0 .071-.012.274-.264.06-.083.06-.107.24-.299.454.563 1.1.563 1.303.563C3.588.12 4.21-.574 4.21-1.52"/><path id="k" d="M3.899-1.483v-.682h-.263v.658c0 .861-.347 1.363-.813 1.363-.814 0-.814-1.112-.814-1.315v-3.349h1.687v-.347H2.009v-2.2h-.263c-.012 1.124-.442 2.272-1.53 2.308v.24h1.016v3.324C1.232-.155 2.117.12 2.75.12c.753 0 1.148-.742 1.148-1.603"/><path id="r" d="M6.231 0v-.347c-.813 0-.909-.084-.909-.67v-4.257l-1.686.131v.347c.813 0 .909.084.909.67v2.14C4.545-.968 4.007-.12 3.11-.12c-.981 0-1.04-.562-1.04-1.196v-3.958l-1.687.131v.347c.909 0 .909.036.909 1.1v1.794c0 .742 0 1.172.358 1.567.288.311.778.455 1.388.455.203 0 .586 0 .993-.347.346-.275.538-.73.538-.73V.12z"/><path id="g" d="M5.956-4.808v-.347c-.347.024-.514.024-.897.024l-.969-.024v.347c.443.024.55.3.55.514 0 .108-.023.168-.071.287L3.349-.993 2.02-4.246c-.072-.167-.072-.251-.072-.251 0-.31.42-.31.658-.31v-.348c-.31.024-.897.024-1.232.024l-1.16-.024v.347c.694 0 .79.06.945.43L2.942 0c-.526 1.268-.526 1.292-.574 1.387-.203.36-.526.814-1.064.814-.371 0-.598-.216-.598-.216s.418-.047.418-.466a.433.433 0 0 0-.442-.443c-.204 0-.455.12-.455.467 0 .454.443.897 1.077.897.67 0 1.16-.586 1.47-1.34l2.07-5.095c.323-.801.885-.813 1.112-.813"/><use xlink:href="#a" id="L" transform="scale(.9122)"/></defs><g transform="translate(-1.702 74.885)scale(1.0004)"><use xlink:href="#b" x="35.1331" y="-49.473856"/><use xlink:href="#c" x="43.421382" y="-49.473856"/><use xlink:href="#d" x="46.674502" y="-49.473856"/><use xlink:href="#e" x="53.180742" y="-49.473856"/><use xlink:href="#f" x="59.041141" y="-49.473856"/><use xlink:href="#g" x="63.597902" y="-49.473856"/><use xlink:href="#f" x="73.763894" y="-49.473856"/><use xlink:href="#h" x="78.320653" y="-49.473856"/><use xlink:href="#i" x="83.523261" y="-49.473856"/><use xlink:href="#f" x="90.029502" y="-49.473856"/><use xlink:href="#h" x="94.586261" y="-49.473856"/><use xlink:href="#j" x="99.788869" y="-49.473856"/><use xlink:href="#h" x="104.405431" y="-49.473856"/><use xlink:href="#d" x="109.60803" y="-49.473856"/><use xlink:href="#k" x="115.803315" y="-49.473856"/><use xlink:href="#e" x="120.360075" y="-49.473856"/><use xlink:href="#k" x="126.220475" y="-49.473856"/><use xlink:href="#c" x="130.777236" y="-49.473856"/><use xlink:href="#l" x="134.030361" y="-49.473856"/><use xlink:href="#d" x="139.890753" y="-49.473856"/></g><g transform="translate(-1.702 103.053)scale(1.00008)"><use xlink:href="#m" x="60.840019" y="-49.45808"/><use xlink:href="#m" x="66.567771" y="-49.45808"/><use xlink:href="#m" x="72.295524" y="-49.45808"/><use xlink:href="#m" x="78.023276" y="-49.45808"/><use xlink:href="#m" x="87.733177" y="-49.45808"/><use xlink:href="#m" x="93.46093" y="-49.45808"/><use xlink:href="#m" x="99.188682" y="-49.45808"/><use xlink:href="#m" x="104.916434" y="-49.45808"/><use xlink:href="#m" x="114.626334" y="-49.45808"/><use xlink:href="#m" x="120.354086" y="-49.45808"/><use xlink:href="#m" x="126.081838" y="-49.45808"/><use xlink:href="#m" x="131.809573" y="-49.45808"/><use xlink:href="#m" x="141.519494" y="-49.45808"/><use xlink:href="#m" x="147.247237" y="-49.45808"/><use xlink:href="#m" x="152.974989" y="-49.45808"/><use xlink:href="#m" x="158.702742" y="-49.45808"/></g><g transform="translate(-1.702 131.399)scale(1.00008)"><use xlink:href="#m" x="24.231999" y="-49.45808"/><use xlink:href="#m" x="33.9419" y="-49.45808"/><use xlink:href="#m" x="39.669648" y="-49.45808"/><use xlink:href="#m" x="45.3974" y="-49.45808"/><use xlink:href="#m" x="51.125152" y="-49.45808"/><use xlink:href="#n" x="60.835056" y="-49.45808"/><use xlink:href="#n" x="66.562801" y="-49.45808"/><use xlink:href="#n" x="72.290553" y="-49.45808"/><use xlink:href="#n" x="78.018306" y="-49.45808"/><use xlink:href="#n" x="87.728207" y="-49.45808"/><use xlink:href="#n" x="93.455959" y="-49.45808"/><use xlink:href="#o" x="99.183712" y="-49.45808"/><use xlink:href="#o" x="104.911464" y="-49.45808"/><use xlink:href="#o" x="114.632276" y="-49.45808"/><use xlink:href="#o" x="120.360029" y="-49.45808"/><use xlink:href="#o" x="126.087781" y="-49.45808"/><use xlink:href="#o" x="131.815534" y="-49.45808"/><use xlink:href="#o" x="141.525445" y="-49.45808"/><use xlink:href="#o" x="147.253197" y="-49.45808"/><use xlink:href="#o" x="152.98095" y="-49.45808"/><use xlink:href="#o" x="158.708692" y="-49.45808"/></g><use xlink:href="#p" x="17.030835" y="-49.473856" transform="translate(156.732 103.232)scale(1.0004)"/><use xlink:href="#p" x="17.030835" y="-49.473856" transform="translate(156.732 131.579)scale(1.0004)"/><g transform="translate(176.883 74.859)scale(1.0004)"><use xlink:href="#b" x="85.535329" y="-49.473856"/><use xlink:href="#g" x="93.823605" y="-49.473856"/><use xlink:href="#k" x="100.006927" y="-49.473856"/><use xlink:href="#h" x="104.563685" y="-49.473856"/><use xlink:href="#j" x="113.748971" y="-49.473856"/><use xlink:href="#h" x="118.365525" y="-49.473856"/><use xlink:href="#q" x="123.568133" y="-49.473856"/><use xlink:href="#r" x="129.751444" y="-49.473856"/><use xlink:href="#h" x="136.257685" y="-49.473856"/><use xlink:href="#d" x="141.460293" y="-49.473856"/><use xlink:href="#s" x="147.966535" y="-49.473856"/><use xlink:href="#h" x="153.169143" y="-49.473856"/></g><g transform="translate(176.883 103.053)scale(1.00008)"><use xlink:href="#m" x="17.025404" y="-49.45808"/><use xlink:href="#m" x="22.753155" y="-49.45808"/><use xlink:href="#m" x="28.480905" y="-49.45808"/><use xlink:href="#m" x="34.208657" y="-49.45808"/><use xlink:href="#m" x="43.91856" y="-49.45808"/><use xlink:href="#m" x="49.646308" y="-49.45808"/><use xlink:href="#m" x="55.374058" y="-49.45808"/><use xlink:href="#m" x="61.10181" y="-49.45808"/><use xlink:href="#m" x="70.811711" y="-49.45808"/><use xlink:href="#m" x="76.539464" y="-49.45808"/><use xlink:href="#m" x="82.267216" y="-49.45808"/><use xlink:href="#m" x="87.994969" y="-49.45808"/><use xlink:href="#m" x="97.70487" y="-49.45808"/><use xlink:href="#m" x="103.432622" y="-49.45808"/><use xlink:href="#m" x="109.160375" y="-49.45808"/><use xlink:href="#m" x="114.888127" y="-49.45808"/></g><g transform="translate(176.883 132.781)scale(1.00008)"><use xlink:href="#t" x="17.025404" y="-49.45808"/><use xlink:href="#u" x="21.269395" y="-49.45808"/><use xlink:href="#v" x="29.451895" y="-49.45808"/><use xlink:href="#w" x="32.484874" y="-49.45808"/><use xlink:href="#x" x="37.939876" y="-49.45808"/><use xlink:href="#y" x="47.987988" y="-49.45808"/><use xlink:href="#z" x="52.286523" y="-49.45808"/><use xlink:href="#A" x="58.352484" y="-49.45808"/><use xlink:href="#A" x="62.629206" y="-49.45808"/><use xlink:href="#B" x="66.905928" y="-49.45808"/><use xlink:href="#w" x="72.360929" y="-49.45808"/><use xlink:href="#C" x="77.815929" y="-49.45808"/><use xlink:href="#D" x="83.270929" y="-49.45808"/><use xlink:href="#E" x="87.514919" y="-49.45808"/><use xlink:href="#F" x="92.358959" y="-49.45808"/><use xlink:href="#G" x="17.025404" y="-35.907962"/><use xlink:href="#G" x="22.753155" y="-35.907962"/><use xlink:href="#H" x="28.480905" y="-35.907962"/><use xlink:href="#G" x="34.208657" y="-35.907962"/><use xlink:href="#G" x="43.91856" y="-35.907962"/><use xlink:href="#H" x="49.646308" y="-35.907962"/><use xlink:href="#I" x="55.374058" y="-35.907962"/><use xlink:href="#I" x="61.10181" y="-35.907962"/><use xlink:href="#I" x="70.811711" y="-35.907962"/><use xlink:href="#I" x="76.539464" y="-35.907962"/><use xlink:href="#n" x="82.267216" y="-35.907962"/><use xlink:href="#n" x="87.994969" y="-35.907962"/><use xlink:href="#n" x="97.70487" y="-35.907962"/><use xlink:href="#n" x="103.432622" y="-35.907962"/><use xlink:href="#n" x="109.160375" y="-35.907962"/><use xlink:href="#n" x="114.888127" y="-35.907962"/><use xlink:href="#J" x="131.533851" y="-35.907962"/><use xlink:href="#I" x="135.777191" y="-35.907962"/><use xlink:href="#I" x="141.504943" y="-35.907962"/><use xlink:href="#I" x="147.232696" y="-35.907962"/><use xlink:href="#I" x="152.960448" y="-35.907962"/><use xlink:href="#K" x="161.718331" y="-35.907962"/><use xlink:href="#m" x="173.234281" y="-35.907962"/><use xlink:href="#m" x="178.962033" y="-35.907962"/><use xlink:href="#m" x="184.689786" y="-35.907962"/><use xlink:href="#m" x="190.417538" y="-35.907962"/><use xlink:href="#m" x="196.145281" y="-35.907962"/><use xlink:href="#L" x="204.297843" y="-35.907962"/><use xlink:href="#M" x="215.207743" y="-35.907962"/><use xlink:href="#N" x="220.662733" y="-35.907962"/><use xlink:href="#t" x="17.025391" y="-18.371515"/><use xlink:href="#O" x="21.269383" y="-18.371515"/><use xlink:href="#B" x="28.088133" y="-18.371515"/><use xlink:href="#P" x="33.248567" y="-18.371515"/><use xlink:href="#y" x="45.096827" y="-18.371515"/><use xlink:href="#z" x="49.395365" y="-18.371515"/><use xlink:href="#A" x="55.461325" y="-18.371515"/><use xlink:href="#A" x="59.738046" y="-18.371515"/><use xlink:href="#B" x="64.014761" y="-18.371515"/><use xlink:href="#w" x="69.469769" y="-18.371515"/><use xlink:href="#C" x="74.924771" y="-18.371515"/><use xlink:href="#D" x="80.379771" y="-18.371515"/><use xlink:href="#E" x="84.62376" y="-18.371515"/><use xlink:href="#F" x="89.4678" y="-18.371515"/><use xlink:href="#G" x="17.025391" y="-3.925323"/><use xlink:href="#G" x="22.753142" y="-3.925323"/><use xlink:href="#H" x="28.480892" y="-3.925323"/><use xlink:href="#G" x="34.208642" y="-3.925323"/><use xlink:href="#G" x="43.918543" y="-3.925323"/><use xlink:href="#G" x="49.646293" y="-3.925323"/><use xlink:href="#o" x="55.374046" y="-3.925323"/><use xlink:href="#o" x="61.101797" y="-3.925323"/><use xlink:href="#o" x="70.811699" y="-3.925323"/><use xlink:href="#o" x="76.539452" y="-3.925323"/><use xlink:href="#o" x="82.267203" y="-3.925323"/><use xlink:href="#o" x="87.994949" y="-3.925323"/><use xlink:href="#o" x="97.70485" y="-3.925323"/><use xlink:href="#o" x="103.432602" y="-3.925323"/><use xlink:href="#o" x="109.160355" y="-3.925323"/><use xlink:href="#o" x="114.888107" y="-3.925323"/></g></svg>