<svg xmlns="http://www.w3.org/2000/svg" xmlns:xlink="http://www.w3.org/1999/xlink" width="297.54pt" height="61.41pt" viewBox="0 0 297.54 61.41"><defs><path id="b" d="M5.662-.338c0-.328-.272-.328-.436-.328-.458 0-.567-.054-.655-.087v-2.356c0-.775-.589-1.691-2.16-1.691-.469 0-1.582 0-1.582.796 0 .327.23.502.491.502.164 0 .47-.098.48-.502 0-.087.011-.098.23-.12.152-.01.294-.01.392-.01.83 0 1.396.337 1.396 1.112-1.93.033-3.272.578-3.272 1.626 0 .752.687 1.461 1.8 1.461.403 0 1.08-.076 1.593-.414.24.338.763.349 1.178.349.305 0 .545 0 .545-.338M3.818-1.462c0 .251 0 .48-.425.676C3-.6 2.509-.6 2.422-.6c-.676 0-1.124-.371-1.124-.796 0-.535.939-.939 2.52-.982z"/><path id="a" d="M5.586-.338c0-.328-.284-.328-.436-.328h-.491v-5.553c0-.338-.066-.447-.437-.447h-.796c-.175 0-.448 0-.448.338 0 .328.284.328.437.328h.49v1.723a1.93 1.93 0 0 0-1.276-.49C1.44-4.768.393-3.732.393-2.347.393-.993 1.375.065 2.53.065c.611 0 1.07-.294 1.375-.61 0 .392 0 .545.436.545h.797c.174 0 .447 0 .447-.338m-1.68-1.779c0 .611-.491 1.517-1.331 1.517-.775 0-1.43-.775-1.43-1.746 0-1.047.764-1.756 1.528-1.756.698 0 1.233.61 1.233 1.21z"/><path id="e" d="M5.062-1.19c0-.305-.316-.305-.382-.305-.196 0-.283.033-.36.24-.24.557-.829.655-1.134.655-.819 0-1.637-.546-1.811-1.484h3.25c.23 0 .437 0 .437-.403 0-1.244-.698-2.313-2.116-2.313C1.647-4.8.6-3.71.6-2.367.6-1.037 1.702.065 3.11.065c1.44 0 1.952-.981 1.952-1.254m-.774-1.548H1.386c.152-.797.796-1.397 1.56-1.397.567 0 1.243.273 1.342 1.397"/><path id="d" d="M5.586-.327c0-.339-.273-.339-.447-.339h-.48v-2.53c0-1.103-.557-1.572-1.419-1.572-.73 0-1.222.371-1.429.579 0-.35 0-.513-.436-.513H.578c-.174 0-.447 0-.447.338 0 .327.284.327.436.327h.491v3.371h-.48c-.174 0-.447 0-.447.339C.13 0 .415 0 .567 0h1.735c.153 0 .436 0 .436-.327 0-.339-.272-.339-.447-.339h-.48v-1.93c0-1.092.807-1.506 1.364-1.506.578 0 .73.305.73.96v2.476H3.48c-.174 0-.447 0-.447.339 0 .327.295.327.447.327h1.67c.152 0 .436 0 .436-.327"/><path id="c" d="M4.899-1.375c0-.196 0-.425-.382-.425-.36 0-.371.229-.371.414-.011.677-.633.786-.884.786-.84 0-.84-.567-.84-.84v-2.597h1.79c.163 0 .436 0 .436-.327 0-.338-.262-.338-.437-.338H2.422v-.895c0-.207 0-.447-.37-.447-.383 0-.383.229-.383.447v.895H.72c-.174 0-.447 0-.447.338 0 .327.272.327.436.327h.96v2.662c0 1.048.742 1.44 1.539 1.44.807 0 1.69-.469 1.69-1.44"/><path id="f" d="M5.411-.327c0-.339-.283-.339-.447-.339h-.436L3.13-2.422l1.244-1.615h.436c.153 0 .448 0 .448-.327 0-.338-.284-.338-.448-.338H3.535c-.164 0-.437 0-.437.327 0 .338.24.338.535.338l-.807 1.102-.83-1.102c.284 0 .524 0 .524-.338 0-.327-.273-.327-.436-.327H.807c-.163 0-.447 0-.447.338 0 .327.295.327.447.327h.437L2.53-2.422 1.178-.666H.742c-.164 0-.447 0-.447.339C.295 0 .589 0 .742 0h1.276c.164 0 .437 0 .437-.327 0-.339-.23-.339-.568-.339l.939-1.341.97 1.341c-.305 0-.545 0-.545.339 0 .327.273.327.437.327h1.276c.153 0 .447 0 .447-.327"/></defs><path fill="none" stroke="#000" stroke-miterlimit="10" stroke-width=".3985" d="M11.538 34.217H85.24V11.54H11.538ZM59.444 34.217V11.54"/><g transform="translate(84.498 83.806)scale(1.00008)"><use xlink:href="#a" x="-60.466988" y="-37.788117"/><use xlink:href="#b" x="-54.739243" y="-37.788117"/><use xlink:href="#c" x="-49.011491" y="-37.788117"/><use xlink:href="#b" x="-43.283739" y="-37.788117"/></g><g transform="translate(121.349 83.495)scale(1.00008)"><use xlink:href="#d" x="-60.466988" y="-37.788117"/><use xlink:href="#e" x="-54.739243" y="-37.788117"/><use xlink:href="#f" x="-49.011491" y="-37.788117"/><use xlink:href="#c" x="-43.283739" y="-37.788117"/></g><path fill="none" stroke="#000" stroke-miterlimit="10" stroke-width=".3985" d="M110.752 34.217h73.702V11.54h-73.702ZM158.658 34.217V11.54"/><g transform="translate(183.712 83.806)scale(1.00008)"><use xlink:href="#a" x="-60.466988" y="-37.788117"/><use xlink:href="#b" x="-54.739243" y="-37.788117"/><use xlink:href="#c" x="-49.011491" y="-37.788117"/><use xlink:href="#b" x="-43.283739" y="-37.788117"/></g><g transform="translate(220.563 83.495)scale(1.00008)"><use xlink:href="#d" x="-60.466988" y="-37.788117"/><use xlink:href="#e" x="-54.739243" y="-37.788117"/><use xlink:href="#f" x="-49.011491" y="-37.788117"/><use xlink:href="#c" x="-43.283739" y="-37.788117"/></g><path fill="none" stroke="#000" stroke-miterlimit="10" stroke-width=".3985" d="M209.966 34.217h73.701V11.54h-73.701ZM257.871 34.217V11.54"/><g transform="translate(282.926 83.806)scale(1.00008)"><use xlink:href="#a" x="-60.466988" y="-37.788117"/><use xlink:href="#b" x="-54.739243" y="-37.788117"/><use xlink:href="#c" x="-49.011491" y="-37.788117"/><use xlink:href="#b" x="-43.283739" y="-37.788117"/></g><g transform="translate(319.777 83.495)scale(1.00008)"><use xlink:href="#d" x="-60.466988" y="-37.788117"/><use xlink:href="#e" x="-54.739243" y="-37.788117"/><use xlink:href="#f" x="-49.011491" y="-37.788117"/><use xlink:href="#c" x="-43.283739" y="-37.788117"/></g><path fill="none" stroke="#000" stroke-miterlimit="10" stroke-width=".3985" d="M73.759 22.878h31.198"/><path d="m108.058 22.878-4.467-1.682 1.465 1.682-1.465 1.682Z"/><path fill="none" stroke="#000" stroke-miterlimit="10" stroke-width=".3985" d="m108.058 22.878-4.467-1.682 1.465 1.682-1.465 1.682ZM172.973 22.878h31.198"/><path d="m207.272 22.878-4.468-1.682 1.466 1.682-1.466 1.682Z"/><path fill="none" stroke="#000" stroke-miterlimit="10" stroke-width=".3985" d="m207.272 22.878-4.468-1.682 1.466 1.682-1.466 1.682Z"/></svg>