<svg xmlns="http://www.w3.org/2000/svg" xmlns:xlink="http://www.w3.org/1999/xlink" width="411.28pt" height="225.28pt" viewBox="0 0 411.28 225.28"><defs><path id="w" d="M4.211 2.728c.164 0 .393 0 .393-.219s-.23-.218-.393-.218H2.335v-10.08c0-.197 0-.393-.218-.393s-.219.229-.219.392V2.335c0 .349.044.393.393.393z"/><path id="y" d="M2.935-7.79c0-.196 0-.392-.218-.392s-.219.229-.219.392V2.291H.622c-.164 0-.393 0-.393.218s.23.219.393.219h1.93c.35 0 .383-.033.383-.393z"/><path id="j" d="M3.611 2.618c0-.032 0-.054-.185-.24-1.364-1.374-1.713-3.436-1.713-5.105 0-1.899.414-3.797 1.756-5.16.142-.132.142-.154.142-.186 0-.077-.043-.11-.109-.11-.109 0-1.09.742-1.735 2.128-.556 1.2-.687 2.411-.687 3.327 0 .851.12 2.172.72 3.404.655 1.342 1.593 2.052 1.702 2.052.066 0 .11-.033.11-.11"/><path id="l" d="M3.153-2.727c0-.851-.12-2.172-.72-3.404C1.778-7.473.84-8.182.73-8.182c-.065 0-.11.043-.11.109 0 .032 0 .054.208.25C1.9-6.742 2.52-5.007 2.52-2.726c0 1.865-.403 3.785-1.756 5.16-.142.13-.142.153-.142.185 0 .066.044.11.109.11.11 0 1.091-.742 1.735-2.128.556-1.2.687-2.411.687-3.327"/><path id="A" d="M3.208-6.982c0-.262 0-.284-.251-.284-.677.698-1.637.698-1.986.698v.338c.218 0 .862 0 1.43-.283v5.651c0 .393-.034.524-1.015.524h-.35V0c.382-.033 1.331-.033 1.768-.033s1.385 0 1.767.033v-.338h-.349c-.982 0-1.014-.12-1.014-.524z"/><path id="z" d="m1.386-.84 1.156-1.124C4.244-3.469 4.899-4.059 4.899-5.15c0-1.243-.982-2.116-2.313-2.116a2.016 2.016 0 0 0-2.04 1.975c0 .61.545.61.578.61.185 0 .567-.13.567-.578a.55.55 0 0 0-.578-.567c-.087 0-.11 0-.142.011.25-.71.84-1.113 1.473-1.113.993 0 1.462.884 1.462 1.778 0 .873-.546 1.735-1.146 2.412L.666-.404c-.12.12-.12.142-.12.404h4.047L4.9-1.898h-.273c-.055.327-.131.807-.24.97-.077.088-.797.088-1.037.088z"/><path id="E" d="M3.164-3.84C4.059-4.135 4.69-4.9 4.69-5.76c0-.895-.96-1.506-2.007-1.506-1.102 0-1.931.655-1.931 1.484 0 .36.24.567.556.567.338 0 .557-.24.557-.556 0-.546-.513-.546-.677-.546.338-.534 1.058-.676 1.451-.676.448 0 1.048.24 1.048 1.222 0 .13-.022.763-.306 1.243-.327.524-.698.557-.97.568-.088.01-.35.032-.426.032-.088.011-.164.022-.164.131 0 .12.076.12.262.12h.48c.894 0 1.298.742 1.298 1.811 0 1.484-.753 1.8-1.233 1.8C2.16-.065 1.342-.25.96-.894c.382.055.72-.185.72-.6 0-.392-.294-.61-.61-.61-.263 0-.612.152-.612.632C.458-.48 1.473.24 2.662.24c1.331 0 2.324-.993 2.324-2.106 0-.894-.687-1.745-1.822-1.974"/><path id="B" d="M5.193-6.644c.098-.131.098-.153.098-.382h-2.65c-1.332 0-1.354-.142-1.397-.35H.97l-.36 2.248h.273c.032-.174.13-.862.272-.993.077-.065.928-.065 1.07-.065h2.258c-.12.175-.982 1.364-1.222 1.724C2.28-2.99 1.92-1.472 1.92-.36c0 .11 0 .6.502.6s.502-.49.502-.6v-.556c0-.6.033-1.2.12-1.79.044-.25.196-1.189.676-1.865z"/><path id="D" d="M7.495-3.568c.164 0 .371 0 .371-.218s-.207-.218-.36-.218H.971c-.153 0-.36 0-.36.218s.207.218.37.218zm.011 2.117c.153 0 .36 0 .36-.218s-.207-.218-.37-.218H.981c-.164 0-.371 0-.371.218s.207.218.36.218z"/><path id="x" d="M4.768-7.31c0-.022.032-.142.032-.152s0-.11-.13-.11c-.11 0-.12.033-.164.219l-.633 2.52C2.138-4.78.535-3.328.535-1.843.535-.808 1.298.054 2.629.13c-.087.338-.163.687-.25 1.025-.132.513-.24.928-.24.96 0 .11.076.12.13.12s.077-.01.11-.043c.021-.022.087-.284.12-.436L2.912.13C4.669.076 6.251-1.396 6.251-2.86c0-.861-.578-1.865-2.094-1.974zM2.684-.11c-.655-.032-1.44-.414-1.44-1.505 0-1.309.938-2.836 2.564-2.978zM4.09-4.592c.83.044 1.451.545 1.451 1.505 0 1.288-.938 2.848-2.574 2.979z"/><path id="i" d="M3.131-7.452c0-.01 0-.12-.142-.12-.25 0-1.047.088-1.33.11-.088.01-.208.021-.208.218 0 .13.098.13.262.13.524 0 .545.077.545.186l-.032.218L.644-.425C.6-.273.6-.251.6-.185.6.065.818.12.916.12c.175 0 .35-.13.404-.284l.207-.829.24-.982c.066-.24.131-.48.186-.73.022-.066.109-.426.12-.492.033-.098.37-.709.742-1.003.24-.175.578-.382 1.047-.382s.59.37.59.764c0 .589-.415 1.778-.677 2.443-.087.251-.142.382-.142.6 0 .513.382.895.895.895 1.025 0 1.429-1.593 1.429-1.68 0-.11-.098-.11-.131-.11-.11 0-.11.033-.164.197C5.5-.895 5.15-.12 4.55-.12c-.185 0-.261-.11-.261-.36 0-.273.098-.535.196-.775.175-.469.666-1.767.666-2.4 0-.709-.437-1.167-1.255-1.167-.687 0-1.211.338-1.615.84z"/><path id="C" d="M.96-.644c-.033.164-.098.415-.098.47 0 .196.153.294.316.294.131 0 .328-.087.404-.305.01-.022.142-.535.207-.808l.24-.982c.066-.24.131-.48.186-.73.043-.186.13-.503.142-.546.163-.338.741-1.331 1.778-1.331.49 0 .589.403.589.764 0 .272-.076.578-.164.905l-.305 1.266-.218.829c-.044.218-.142.589-.142.643 0 .197.153.295.316.295.338 0 .404-.273.491-.622.153-.61.557-2.204.655-2.63.033-.141.61-1.45 1.8-1.45.47 0 .59.37.59.764 0 .621-.46 1.865-.677 2.443-.099.262-.142.382-.142.6 0 .513.382.895.894.895 1.026 0 1.43-1.593 1.43-1.68 0-.11-.099-.11-.131-.11-.11 0-.11.033-.164.197C8.793-.895 8.444-.12 7.844-.12c-.185 0-.262-.11-.262-.36 0-.273.099-.535.197-.775.207-.567.665-1.778.665-2.4 0-.709-.436-1.167-1.254-1.167s-1.375.48-1.779 1.058c-.01-.142-.043-.513-.349-.775-.273-.229-.622-.283-.894-.283-.982 0-1.517.698-1.702.949-.055-.622-.513-.95-1.004-.95-.502 0-.71.426-.807.623-.197.382-.339 1.025-.339 1.058 0 .109.11.109.131.109.11 0 .12-.01.186-.25.185-.776.403-1.3.796-1.3.175 0 .338.088.338.503 0 .229-.032.349-.174.916z"/><path id="k" d="M.96-.644c-.033.164-.098.415-.098.47 0 .196.153.294.316.294.131 0 .328-.087.404-.305.01-.022.142-.535.207-.808l.24-.982c.066-.24.131-.48.186-.73.043-.186.13-.503.142-.546.163-.338.741-1.331 1.778-1.331.49 0 .589.403.589.764 0 .676-.535 2.072-.71 2.542-.097.25-.108.381-.108.501 0 .513.382.895.894.895 1.026 0 1.43-1.593 1.43-1.68 0-.11-.099-.11-.131-.11-.11 0-.11.033-.164.197C5.717-.73 5.357-.12 4.822-.12c-.185 0-.262-.11-.262-.36 0-.273.099-.535.197-.775.207-.578.665-1.778.665-2.4 0-.73-.469-1.167-1.254-1.167-.982 0-1.517.698-1.702.949-.055-.611-.502-.95-1.004-.95s-.71.426-.818.623a5.5 5.5 0 0 0-.328 1.058c0 .109.11.109.131.109.11 0 .12-.01.186-.25.185-.776.403-1.3.796-1.3.218 0 .338.143.338.503 0 .229-.032.349-.174.916z"/><path id="g" d="M5.27-.971v-.611h-.273v.611c0 .633-.273.698-.393.698-.36 0-.404-.49-.404-.545V-3c0-.458 0-.884-.392-1.288a2.08 2.08 0 0 0-1.495-.6c-.895 0-1.647.513-1.647 1.233 0 .327.218.513.501.513a.48.48 0 0 0 .502-.502c0-.13-.054-.49-.556-.502.294-.382.829-.502 1.178-.502.535 0 1.157.426 1.157 1.397v.403c-.557.033-1.32.066-2.008.393-.818.371-1.09.939-1.09 1.419C.35-.153 1.406.12 2.094.12a1.51 1.51 0 0 0 1.429-.95c.044.437.338.895.85.895.23 0 .896-.152.896-1.036m-1.822-.556C3.448-.491 2.662-.12 2.17-.12c-.534 0-.982-.382-.982-.927 0-.6.458-1.506 2.259-1.571z"/><path id="H" d="M5.684-2.357c0-1.385-1.07-2.465-2.313-2.465-.85 0-1.32.513-1.494.709v-3.459l-1.572.12v.339c.764 0 .851.076.851.61V0h.273l.393-.676c.164.25.622.796 1.43.796 1.297 0 2.432-1.07 2.432-2.477m-.905-.01c0 .403-.022 1.058-.339 1.549-.229.338-.643.698-1.232.698-.491 0-.884-.262-1.146-.666-.153-.229-.153-.261-.153-.458V-3.49c0-.207 0-.218.12-.393a1.58 1.58 0 0 1 1.288-.698c.49 0 .883.283 1.145.698.284.447.317 1.07.317 1.517"/><path id="J" d="M4.528-1.298c0-.11-.11-.11-.142-.11-.098 0-.12.044-.142.11C3.928-.284 3.218-.153 2.814-.153c-.577 0-1.538-.469-1.538-2.225 0-1.779.895-2.237 1.473-2.237.099 0 .786.011 1.168.404-.448.032-.513.36-.513.502 0 .283.196.501.502.501.283 0 .502-.185.502-.512 0-.742-.83-1.168-1.67-1.168-1.363 0-2.367 1.179-2.367 2.531C.37-.96 1.45.12 2.717.12c1.462 0 1.81-1.31 1.81-1.418"/><path id="n" d="M2.215-.01c0-.7-.262-1.146-.699-1.146-.381 0-.578.294-.578.578S1.124 0 1.516 0a.65.65 0 0 0 .437-.175c.022.862-.284 1.528-.764 2.04-.065.066-.076.077-.076.12 0 .077.054.12.109.12.13 0 .993-.861.993-2.116"/><path id="d" d="M5.75 0v-.338c-.764 0-.851-.077-.851-.611v-6.623l-1.571.12v.339c.763 0 .85.076.85.61v2.357c-.316-.393-.785-.676-1.374-.676C1.516-4.822.37-3.753.37-2.346.37-.96 1.44.12 2.684.12c.698 0 1.189-.37 1.462-.72v.72zM4.146-1.287c0 .196 0 .218-.12.403-.328.524-.818.764-1.288.764-.49 0-.883-.284-1.145-.698-.284-.448-.317-1.07-.317-1.517 0-.403.022-1.058.339-1.549.229-.338.643-.698 1.233-.698.381 0 .84.163 1.178.654.12.186.12.208.12.404z"/><path id="t" d="M4.986-1.833c0-.393-.12-.884-.535-1.342-.207-.229-.382-.338-1.08-.774.786-.404 1.32-.971 1.32-1.691 0-1.004-.97-1.626-1.963-1.626-1.092 0-1.975.807-1.975 1.822 0 .196.022.687.48 1.2.12.13.524.404.796.59-.633.316-1.57.926-1.57 2.007C.458-.491 1.57.24 2.716.24c1.232 0 2.269-.906 2.269-2.073M4.21-5.64c0 .621-.425 1.145-1.08 1.527l-1.353-.873c-.502-.327-.545-.698-.545-.884 0-.665.709-1.123 1.484-1.123.796 0 1.494.567 1.494 1.353m.23 4.2c0 .807-.819 1.375-1.713 1.375-.939 0-1.724-.677-1.724-1.582 0-.633.349-1.331 1.276-1.844l1.342.85c.306.208.818.535.818 1.2"/><path id="F" d="M6.655-4.964 6.35-7.42H.36v.338h.262c.84 0 .862.12.862.513V-.85c0 .393-.022.513-.862.513H.36V0c.382-.033 1.233-.033 1.658-.033.448 0 1.44 0 1.833.033v-.338h-.36c-1.036 0-1.036-.142-1.036-.524v-2.684h.938c1.047 0 1.156.35 1.156 1.277h.273V-5.16H4.55c0 .916-.109 1.276-1.156 1.276h-.938v-2.76c0-.36.022-.437.534-.437H4.3c1.636 0 1.909.611 2.083 2.117z"/><path id="r" d="M4.899-2.193c0-1.298-.895-2.39-2.073-2.39-.524 0-.993.175-1.386.557v-2.127c.218.065.578.142.927.142 1.342 0 2.106-.993 2.106-1.135 0-.066-.033-.12-.109-.12 0 0-.033 0-.087.033a3.6 3.6 0 0 1-1.484.316c-.436 0-.938-.076-1.451-.305-.087-.033-.131-.033-.131-.033-.11 0-.11.087-.11.262v3.23c0 .195 0 .283.154.283.076 0 .098-.033.141-.098.12-.175.524-.764 1.408-.764.567 0 .84.502.927.698.175.404.197.83.197 1.375 0 .382 0 1.036-.262 1.494-.262.426-.666.71-1.168.71-.796 0-1.418-.579-1.603-1.222.032.01.065.021.185.021.36 0 .546-.272.546-.534s-.186-.535-.546-.535c-.153 0-.535.077-.535.578C.546-.818 1.299.24 2.52.24 3.786.24 4.9-.807 4.9-2.193"/><path id="s" d="M5.139-1.8v-.338H4.048v-4.964c0-.219 0-.284-.175-.284-.098 0-.13 0-.218.13L.305-2.137v.338h2.903v.949c0 .393-.022.513-.83.513H2.15V0c.448-.033 1.015-.033 1.473-.033s1.037 0 1.484.033v-.338h-.23c-.807 0-.828-.12-.828-.513v-.95zm-1.866-.338H.611l2.662-4.07z"/><path id="G" d="M2.695 0v-.338c-.72 0-.764-.055-.764-.48v-4.004l-1.527.12v.338c.709 0 .807.065.807.6v2.935c0 .49-.12.49-.851.49V0l1.2-.033c.382 0 .764.022 1.135.033m-.6-6.59a.583.583 0 0 0-1.167 0 .583.583 0 0 0 1.167 0"/><path id="f" d="M2.782 0v-.338c-.73 0-.85 0-.85-.491v-6.743l-1.572.12v.339c.764 0 .851.076.851.61v5.674c0 .49-.12.49-.851.49V0l1.211-.033z"/><path id="b" d="M9.59 0v-.338h-.262c-.84 0-.862-.12-.862-.513v-5.75c0-.392.022-.512.862-.512h.262v-.339H7.746c-.284 0-.284.011-.36.208l-2.39 6.142-2.367-6.11c-.098-.24-.13-.24-.382-.24H.404v.339h.262c.84 0 .861.12.861.512v5.455c0 .295 0 .808-1.123.808V0L1.68-.033 2.957 0v-.338c-1.124 0-1.124-.513-1.124-.808v-5.88h.01L4.474-.24c.055.142.11.24.218.24.12 0 .153-.087.197-.207l2.684-6.906h.01v6.262c0 .393-.021.513-.861.513h-.262V0c.403-.033 1.145-.033 1.57-.033s1.157 0 1.56.033"/><path id="I" d="M5.837 0v-.338c-.567 0-.84 0-.851-.328v-2.083c0-.939 0-1.277-.338-1.67-.153-.185-.513-.403-1.146-.403-.796 0-1.31.469-1.615 1.145v-1.145l-1.538.12v.338c.764 0 .851.076.851.611v2.924c0 .49-.12.49-.85.49V0l1.232-.033L2.804 0v-.338c-.731 0-.851 0-.851-.491v-2.008c0-1.134.775-1.745 1.473-1.745.687 0 .807.589.807 1.21v2.543c0 .49-.12.49-.85.49V0l1.232-.033z"/><path id="c" d="M5.139-2.335c0-1.396-1.091-2.553-2.411-2.553-1.364 0-2.423 1.19-2.423 2.553A2.435 2.435 0 0 0 2.717.12a2.43 2.43 0 0 0 2.422-2.455m-.906-.087c0 .393 0 .982-.24 1.462-.24.49-.72.807-1.265.807-.47 0-.95-.229-1.244-.73-.273-.48-.273-1.146-.273-1.539 0-.426 0-1.015.262-1.495a1.46 1.46 0 0 1 1.244-.73c.48 0 .949.24 1.232.708s.284 1.102.284 1.517"/><path id="o" d="M4.571 0v-.338h-.349c-.982 0-1.014-.12-1.014-.524v-6.12c0-.262 0-.284-.251-.284-.677.698-1.637.698-1.986.698v.338c.218 0 .862 0 1.43-.283v5.651c0 .393-.034.524-1.015.524h-.35V0c.382-.033 1.331-.033 1.768-.033s1.385 0 1.767.033"/><path id="h" d="M3.971-4.157c0-.349-.338-.665-.807-.665-.797 0-1.19.73-1.342 1.2v-1.2l-1.517.12v.338c.764 0 .851.076.851.611v2.924c0 .49-.12.49-.85.49V0l1.243-.033c.437 0 .95 0 1.386.033v-.338h-.23c-.807 0-.828-.12-.828-.513v-1.68c0-1.08.458-2.051 1.287-2.051.076 0 .098 0 .12.01a.47.47 0 0 0-.251.426c0 .306.23.47.47.47.195 0 .468-.132.468-.48"/><path id="v" d="M4.986-2.226c0-1.385-.971-2.433-2.182-2.433-.742 0-1.146.557-1.364 1.08v-.261c0-2.76 1.353-3.153 1.91-3.153.261 0 .72.065.96.436-.164 0-.6 0-.6.491 0 .338.261.502.501.502.175 0 .502-.098.502-.524 0-.654-.48-1.178-1.385-1.178-1.397 0-2.87 1.407-2.87 3.818C.458-.535 1.724.24 2.738.24 3.95.24 4.986-.786 4.986-2.226m-.982-.01c0 .523 0 1.069-.185 1.461-.328.655-.83.71-1.08.71-.688 0-1.015-.655-1.08-.819-.197-.512-.197-1.385-.197-1.582 0-.85.35-1.942 1.331-1.942.175 0 .676 0 1.015.677.196.403.196.96.196 1.494"/><path id="u" d="M4.986-1.866c0-.894-.687-1.745-1.822-1.974C4.059-4.135 4.69-4.9 4.69-5.76c0-.895-.96-1.506-2.007-1.506-1.102 0-1.931.655-1.931 1.484 0 .36.24.567.556.567.338 0 .557-.24.557-.556 0-.546-.513-.546-.677-.546.338-.534 1.058-.676 1.451-.676.448 0 1.048.24 1.048 1.222 0 .13-.022.763-.306 1.243-.327.524-.698.557-.97.568-.088.01-.35.032-.426.032-.088.011-.164.022-.164.131 0 .12.076.12.262.12h.48c.894 0 1.298.742 1.298 1.811 0 1.484-.753 1.8-1.233 1.8C2.16-.065 1.342-.25.96-.894c.382.055.72-.185.72-.6 0-.392-.294-.61-.61-.61-.263 0-.612.152-.612.632C.458-.48 1.473.24 2.662.24c1.331 0 2.324-.993 2.324-2.106"/><path id="p" d="M4.899-1.898h-.273c-.055.327-.131.807-.24.97-.077.088-.797.088-1.037.088H1.386l1.156-1.124C4.244-3.469 4.899-4.059 4.899-5.15c0-1.243-.982-2.116-2.313-2.116a2.016 2.016 0 0 0-2.04 1.975c0 .61.545.61.578.61.185 0 .567-.13.567-.578a.55.55 0 0 0-.578-.567c-.087 0-.11 0-.142.011.25-.71.84-1.113 1.473-1.113.993 0 1.462.884 1.462 1.778 0 .873-.546 1.735-1.146 2.412L.666-.404c-.12.12-.12.142-.12.404h4.047z"/><path id="e" d="M5.837 0v-.338c-.764 0-.851-.077-.851-.611v-3.873l-1.604.12v.338c.764 0 .851.076.851.611v1.942c0 .95-.524 1.691-1.32 1.691-.916 0-.96-.513-.96-1.08v-3.622l-1.604.12v.338c.851 0 .851.033.851 1.004v1.636C1.2-.873 1.2.12 2.858.12c.611 0 1.091-.305 1.408-.982V.12z"/><path id="m" d="M5.019-3.491c0-.873-.055-1.746-.437-2.553-.502-1.048-1.396-1.222-1.854-1.222-.655 0-1.452.284-1.899 1.298C.48-5.215.425-4.364.425-3.49c0 .818.044 1.8.491 2.63A2 2 0 0 0 2.716.24c.59 0 1.419-.23 1.899-1.266.35-.752.404-1.603.404-2.465m-.906-.131c0 .818 0 1.56-.12 2.258C3.83-.327 3.208 0 2.717 0 2.29 0 1.647-.273 1.45-1.32c-.12-.655-.12-1.658-.12-2.302 0-.698 0-1.418.087-2.008.208-1.298 1.026-1.396 1.299-1.396.36 0 1.08.196 1.287 1.276.11.611.11 1.44.11 2.128"/><path id="q" d="M2.095-.578c0-.317-.262-.578-.579-.578s-.578.261-.578.578S1.2 0 1.516 0s.579-.262.579-.578m2.138 0c0-.317-.262-.578-.578-.578s-.578.261-.578.578.261.578.578.578.578-.262.578-.578m2.138 0c0-.317-.261-.578-.578-.578s-.578.261-.578.578.262.578.578.578.578-.262.578-.578"/><path id="a" d="M2.464-3.504c.024-.072.323-.67.765-1.053a1.74 1.74 0 0 1 1.184-.478c.479 0 .646.359.646.837 0 .682-.49 2.045-.73 2.691-.107.287-.167.443-.167.658 0 .538.37.969.945.969 1.112 0 1.53-1.759 1.53-1.83 0-.06-.047-.108-.119-.108-.107 0-.12.036-.18.24C6.065-.599 5.61-.12 5.144-.12c-.12 0-.311-.012-.311-.394 0-.3.131-.658.203-.826.24-.657.742-1.997.742-2.679 0-.717-.419-1.255-1.328-1.255-1.064 0-1.626.753-1.842 1.052-.036-.682-.526-1.052-1.052-1.052-.383 0-.646.227-.85.634C.49-4.21.324-3.492.324-3.444s.048.107.131.107c.096 0 .108-.012.18-.287.191-.73.407-1.411.885-1.411.275 0 .37.191.37.55 0 .263-.119.73-.203 1.1l-.335 1.292c-.047.227-.179.765-.239.98C1.03-.8.897-.238.897-.178c0 .167.132.299.311.299a.46.46 0 0 0 .407-.252c.024-.06.131-.478.191-.717l.263-1.077z"/></defs><use xlink:href="#a" x="108.83568" y="-28.556461" transform="translate(-42.046 51.9)scale(1.0004)"/><g transform="translate(87.03 52.054)scale(1.00008)"><use xlink:href="#b" x="108.800975" y="-28.547355"/><use xlink:href="#c" x="118.805451" y="-28.547355"/><use xlink:href="#d" x="124.555025" y="-28.547355"/><use xlink:href="#e" x="130.620975" y="-28.547355"/><use xlink:href="#f" x="136.686936" y="-28.547355"/><use xlink:href="#g" x="139.719916" y="-28.547355"/><use xlink:href="#h" x="145.174916" y="-28.547355"/><use xlink:href="#i" x="153.095639" y="-28.547355"/><use xlink:href="#j" x="159.381158" y="-28.547355"/><use xlink:href="#k" x="163.623518" y="-28.547355"/><use xlink:href="#l" x="170.172058" y="-28.547355"/></g><g transform="translate(-69.175 79.368)scale(1.00008)"><use xlink:href="#m" x="108.800975" y="-28.547355"/><use xlink:href="#n" x="114.255975" y="-28.547355"/><use xlink:href="#o" x="120.911074" y="-28.547355"/><use xlink:href="#n" x="126.366074" y="-28.547355"/><use xlink:href="#p" x="133.032094" y="-28.547355"/><use xlink:href="#n" x="138.487084" y="-28.547355"/><use xlink:href="#q" x="145.153104" y="-28.547355"/><use xlink:href="#n" x="152.462807" y="-28.547355"/><use xlink:href="#o" x="159.128817" y="-28.547355"/><use xlink:href="#r" x="164.583817" y="-28.547355"/></g><path fill="none" stroke="#000" stroke-miterlimit="10" stroke-width=".3985" d="M154.445 48.243h-13.339"/><path d="m157.547 48.243-4.468-1.682 1.466 1.682-1.466 1.681Z"/><path fill="none" stroke="#000" stroke-miterlimit="10" stroke-width=".3985" d="m157.547 48.243-4.468-1.682 1.466 1.682-1.466 1.681Z"/><path d="M181.855 43.459a1.063 1.063 0 1 0-2.126 0 1.063 1.063 0 0 0 2.126 0"/><path fill="none" stroke="#000" stroke-miterlimit="10" stroke-width=".3985" d="M181.855 43.459a1.063 1.063 0 1 0-2.126 0 1.063 1.063 0 0 0 2.126 0Z"/><path d="M188.233 43.459a1.063 1.063 0 1 0-2.126 0 1.063 1.063 0 0 0 2.126 0"/><path fill="none" stroke="#000" stroke-miterlimit="10" stroke-width=".3985" d="M188.233 43.459a1.063 1.063 0 1 0-2.126 0 1.063 1.063 0 0 0 2.126 0Z"/><path d="M194.611 43.459a1.063 1.063 0 1 0-2.126 0 1.063 1.063 0 0 0 2.126 0"/><path fill="none" stroke="#000" stroke-miterlimit="10" stroke-width=".3985" d="M194.611 43.459a1.063 1.063 0 1 0-2.126 0 1.063 1.063 0 0 0 2.126 0Z"/><path d="M200.989 43.459a1.063 1.063 0 1 0-2.126 0 1.063 1.063 0 0 0 2.126 0"/><path fill="none" stroke="#000" stroke-miterlimit="10" stroke-width=".3985" d="M200.989 43.459a1.063 1.063 0 1 0-2.126 0 1.063 1.063 0 0 0 2.126 0Z"/><path d="M207.367 43.459a1.063 1.063 0 1 0-2.126 0 1.063 1.063 0 0 0 2.126 0"/><path fill="none" stroke="#000" stroke-miterlimit="10" stroke-width=".3985" d="M207.367 43.459a1.063 1.063 0 1 0-2.126 0 1.063 1.063 0 0 0 2.126 0Z"/><path d="M213.745 43.459a1.063 1.063 0 1 0-2.126 0 1.063 1.063 0 0 0 2.126 0"/><path fill="none" stroke="#000" stroke-miterlimit="10" stroke-width=".3985" d="M213.745 43.459a1.063 1.063 0 1 0-2.126 0 1.063 1.063 0 0 0 2.126 0Z"/><path d="M220.123 43.459a1.063 1.063 0 1 0-2.126 0 1.063 1.063 0 0 0 2.126 0"/><path fill="none" stroke="#000" stroke-miterlimit="10" stroke-width=".3985" d="M220.123 43.459a1.063 1.063 0 1 0-2.126 0 1.063 1.063 0 0 0 2.126 0Z"/><path d="M226.501 43.459a1.063 1.063 0 1 0-2.126 0 1.063 1.063 0 0 0 2.126 0"/><path fill="none" stroke="#000" stroke-miterlimit="10" stroke-width=".3985" d="M226.501 43.459a1.063 1.063 0 1 0-2.126 0 1.063 1.063 0 0 0 2.126 0Z"/><path d="M232.88 43.459a1.063 1.063 0 1 0-2.127 0 1.063 1.063 0 0 0 2.126 0"/><path fill="none" stroke="#000" stroke-miterlimit="10" stroke-width=".3985" d="M232.88 43.459a1.063 1.063 0 1 0-2.127 0 1.063 1.063 0 0 0 2.126 0Z"/><path d="M239.257 43.459a1.063 1.063 0 1 0-2.126 0 1.063 1.063 0 0 0 2.126 0"/><path fill="none" stroke="#000" stroke-miterlimit="10" stroke-width=".3985" d="M239.257 43.459a1.063 1.063 0 1 0-2.126 0 1.063 1.063 0 0 0 2.126 0Z"/><path d="M245.635 43.459a1.063 1.063 0 1 0-2.126 0 1.063 1.063 0 0 0 2.126 0"/><path fill="none" stroke="#000" stroke-miterlimit="10" stroke-width=".3985" d="M245.635 43.459a1.063 1.063 0 1 0-2.126 0 1.063 1.063 0 0 0 2.126 0Z"/><path d="M252.013 43.459a1.063 1.063 0 1 0-2.126 0 1.063 1.063 0 0 0 2.126 0"/><path fill="none" stroke="#000" stroke-miterlimit="10" stroke-width=".3985" d="M252.013 43.459a1.063 1.063 0 1 0-2.126 0 1.063 1.063 0 0 0 2.126 0Z"/><path d="M258.391 43.459a1.063 1.063 0 1 0-2.126 0 1.063 1.063 0 0 0 2.126 0"/><path fill="none" stroke="#000" stroke-miterlimit="10" stroke-width=".3985" d="M258.391 43.459a1.063 1.063 0 1 0-2.126 0 1.063 1.063 0 0 0 2.126 0Z"/><path d="M264.77 43.459a1.063 1.063 0 1 0-2.127 0 1.063 1.063 0 0 0 2.126 0"/><path fill="none" stroke="#000" stroke-miterlimit="10" stroke-width=".3985" d="M264.77 43.459a1.063 1.063 0 1 0-2.127 0 1.063 1.063 0 0 0 2.126 0Z"/><path d="M271.147 43.459a1.063 1.063 0 1 0-2.126 0 1.063 1.063 0 0 0 2.126 0"/><path fill="none" stroke="#000" stroke-miterlimit="10" stroke-width=".3985" d="M271.147 43.459a1.063 1.063 0 1 0-2.126 0 1.063 1.063 0 0 0 2.126 0Z"/><path d="M277.525 43.459a1.063 1.063 0 1 0-2.126 0 1.063 1.063 0 0 0 2.126 0"/><path fill="none" stroke="#000" stroke-miterlimit="10" stroke-width=".3985" d="M277.525 43.459a1.063 1.063 0 1 0-2.126 0 1.063 1.063 0 0 0 2.126 0Z"/><path d="M180.792 53.026"/><path fill="none" stroke="#000" stroke-miterlimit="10" stroke-width=".3985" d="M180.792 53.026Z"/><path d="M187.17 53.026"/><path fill="none" stroke="#000" stroke-miterlimit="10" stroke-width=".3985" d="M187.17 53.026Z"/><path d="M193.548 53.026"/><path fill="none" stroke="#000" stroke-miterlimit="10" stroke-width=".3985" d="M193.548 53.026Z"/><path d="M199.926 53.026"/><path fill="none" stroke="#000" stroke-miterlimit="10" stroke-width=".3985" d="M199.926 53.026Z"/><path d="M206.304 53.026"/><path fill="none" stroke="#000" stroke-miterlimit="10" stroke-width=".3985" d="M206.304 53.026Z"/><path d="M212.682 53.026"/><path fill="none" stroke="#000" stroke-miterlimit="10" stroke-width=".3985" d="M212.682 53.026Z"/><path d="M219.06 53.026"/><path fill="none" stroke="#000" stroke-miterlimit="10" stroke-width=".3985" d="M219.06 53.026Z"/><path d="M225.438 53.026"/><path fill="none" stroke="#000" stroke-miterlimit="10" stroke-width=".3985" d="M225.438 53.026Z"/><path d="M231.816 53.026"/><path fill="none" stroke="#000" stroke-miterlimit="10" stroke-width=".3985" d="M231.816 53.026Z"/><path d="M238.194 53.026"/><path fill="none" stroke="#000" stroke-miterlimit="10" stroke-width=".3985" d="M238.194 53.026Z"/><path d="M244.572 53.026"/><path fill="none" stroke="#000" stroke-miterlimit="10" stroke-width=".3985" d="M244.572 53.026Z"/><path d="M250.95 53.026"/><path fill="none" stroke="#000" stroke-miterlimit="10" stroke-width=".3985" d="M250.95 53.026Z"/><path d="M257.328 53.026"/><path fill="none" stroke="#000" stroke-miterlimit="10" stroke-width=".3985" d="M257.328 53.026Z"/><path d="M263.706 53.026"/><path fill="none" stroke="#000" stroke-miterlimit="10" stroke-width=".3985" d="M263.706 53.026Z"/><path d="M270.084 53.026"/><path fill="none" stroke="#000" stroke-miterlimit="10" stroke-width=".3985" d="M270.084 53.026Z"/><path d="M276.462 53.026"/><path fill="none" stroke="#000" stroke-miterlimit="10" stroke-width=".3985" d="M276.462 53.026Z"/><g transform="translate(-71.902 111.318)scale(1.00008)"><use xlink:href="#m" x="108.800975" y="-28.547355"/><use xlink:href="#n" x="114.255975" y="-28.547355"/><use xlink:href="#p" x="120.911074" y="-28.547355"/><use xlink:href="#n" x="126.366074" y="-28.547355"/><use xlink:href="#s" x="133.032094" y="-28.547355"/><use xlink:href="#n" x="138.487084" y="-28.547355"/><use xlink:href="#q" x="145.153104" y="-28.547355"/><use xlink:href="#n" x="152.462807" y="-28.547355"/><use xlink:href="#p" x="159.128817" y="-28.547355"/><use xlink:href="#r" x="164.583817" y="-28.547355"/><use xlink:href="#s" x="170.038807" y="-28.547355"/></g><path fill="none" stroke="#000" stroke-miterlimit="10" stroke-width=".3985" d="M154.445 80.133h-13.339"/><path d="m157.547 80.133-4.468-1.682 1.466 1.682-1.466 1.682Z"/><path fill="none" stroke="#000" stroke-miterlimit="10" stroke-width=".3985" d="m157.547 80.133-4.468-1.682 1.466 1.682-1.466 1.682Z"/><path d="M183.799 75.35a3.007 3.007 0 1 0-6.014 0 3.007 3.007 0 0 0 6.014 0"/><path fill="none" stroke="#000" stroke-miterlimit="10" stroke-width=".3985" d="M183.799 75.35a3.007 3.007 0 1 0-6.014 0 3.007 3.007 0 0 0 6.014 0Z"/><path d="M187.17 75.35"/><path fill="none" stroke="#000" stroke-miterlimit="10" stroke-width=".3985" d="M187.17 75.35Z"/><path d="M196.555 75.35a3.007 3.007 0 1 0-6.014 0 3.007 3.007 0 0 0 6.014 0"/><path fill="none" stroke="#000" stroke-miterlimit="10" stroke-width=".3985" d="M196.555 75.35a3.007 3.007 0 1 0-6.014 0 3.007 3.007 0 0 0 6.014 0Z"/><path d="M199.926 75.35"/><path fill="none" stroke="#000" stroke-miterlimit="10" stroke-width=".3985" d="M199.926 75.35Z"/><path d="M209.31 75.35a3.007 3.007 0 1 0-6.012 0 3.007 3.007 0 0 0 6.013 0"/><path fill="none" stroke="#000" stroke-miterlimit="10" stroke-width=".3985" d="M209.31 75.35a3.007 3.007 0 1 0-6.012 0 3.007 3.007 0 0 0 6.013 0Z"/><path d="M212.682 75.35"/><path fill="none" stroke="#000" stroke-miterlimit="10" stroke-width=".3985" d="M212.682 75.35Z"/><path d="M222.067 75.35a3.007 3.007 0 1 0-6.013 0 3.007 3.007 0 0 0 6.013 0"/><path fill="none" stroke="#000" stroke-miterlimit="10" stroke-width=".3985" d="M222.067 75.35a3.007 3.007 0 1 0-6.013 0 3.007 3.007 0 0 0 6.013 0Z"/><path d="M225.438 75.35"/><path fill="none" stroke="#000" stroke-miterlimit="10" stroke-width=".3985" d="M225.438 75.35Z"/><path d="M234.823 75.35a3.007 3.007 0 1 0-6.013 0 3.007 3.007 0 0 0 6.013 0"/><path fill="none" stroke="#000" stroke-miterlimit="10" stroke-width=".3985" d="M234.823 75.35a3.007 3.007 0 1 0-6.013 0 3.007 3.007 0 0 0 6.013 0Z"/><path d="M238.194 75.35"/><path fill="none" stroke="#000" stroke-miterlimit="10" stroke-width=".3985" d="M238.194 75.35Z"/><path d="M247.579 75.35a3.007 3.007 0 1 0-6.013 0 3.007 3.007 0 0 0 6.013 0"/><path fill="none" stroke="#000" stroke-miterlimit="10" stroke-width=".3985" d="M247.579 75.35a3.007 3.007 0 1 0-6.013 0 3.007 3.007 0 0 0 6.013 0Z"/><path d="M250.95 75.35"/><path fill="none" stroke="#000" stroke-miterlimit="10" stroke-width=".3985" d="M250.95 75.35Z"/><path d="M260.335 75.35a3.007 3.007 0 1 0-6.013 0 3.007 3.007 0 0 0 6.013 0"/><path fill="none" stroke="#000" stroke-miterlimit="10" stroke-width=".3985" d="M260.335 75.35a3.007 3.007 0 1 0-6.013 0 3.007 3.007 0 0 0 6.013 0Z"/><path d="M263.706 75.35"/><path fill="none" stroke="#000" stroke-miterlimit="10" stroke-width=".3985" d="M263.706 75.35Z"/><path d="M273.09 75.35a3.007 3.007 0 1 0-6.012 0 3.007 3.007 0 0 0 6.013 0"/><path fill="none" stroke="#000" stroke-miterlimit="10" stroke-width=".3985" d="M273.09 75.35a3.007 3.007 0 1 0-6.012 0 3.007 3.007 0 0 0 6.013 0Z"/><path d="M276.462 75.35"/><path fill="none" stroke="#000" stroke-miterlimit="10" stroke-width=".3985" d="M276.462 75.35Z"/><path d="M183.799 84.916a3.007 3.007 0 1 0-6.014 0 3.007 3.007 0 0 0 6.014 0"/><path fill="none" stroke="#000" stroke-miterlimit="10" stroke-width=".3985" d="M183.799 84.916a3.007 3.007 0 1 0-6.014 0 3.007 3.007 0 0 0 6.014 0Z"/><path d="M187.17 84.916"/><path fill="none" stroke="#000" stroke-miterlimit="10" stroke-width=".3985" d="M187.17 84.916Z"/><path d="M196.555 84.916a3.007 3.007 0 1 0-6.014 0 3.007 3.007 0 0 0 6.014 0"/><path fill="none" stroke="#000" stroke-miterlimit="10" stroke-width=".3985" d="M196.555 84.916a3.007 3.007 0 1 0-6.014 0 3.007 3.007 0 0 0 6.014 0Z"/><path d="M199.926 84.916"/><path fill="none" stroke="#000" stroke-miterlimit="10" stroke-width=".3985" d="M199.926 84.916Z"/><path d="M209.31 84.916a3.007 3.007 0 1 0-6.013 0 3.007 3.007 0 0 0 6.014 0"/><path fill="none" stroke="#000" stroke-miterlimit="10" stroke-width=".3985" d="M209.31 84.916a3.007 3.007 0 1 0-6.013 0 3.007 3.007 0 0 0 6.014 0Z"/><path d="M212.682 84.916"/><path fill="none" stroke="#000" stroke-miterlimit="10" stroke-width=".3985" d="M212.682 84.916Z"/><path d="M222.067 84.916a3.007 3.007 0 1 0-6.013 0 3.007 3.007 0 0 0 6.013 0"/><path fill="none" stroke="#000" stroke-miterlimit="10" stroke-width=".3985" d="M222.067 84.916a3.007 3.007 0 1 0-6.013 0 3.007 3.007 0 0 0 6.013 0Z"/><path d="M225.438 84.916"/><path fill="none" stroke="#000" stroke-miterlimit="10" stroke-width=".3985" d="M225.438 84.916Z"/><path d="M234.823 84.916a3.007 3.007 0 1 0-6.013 0 3.007 3.007 0 0 0 6.013 0"/><path fill="none" stroke="#000" stroke-miterlimit="10" stroke-width=".3985" d="M234.823 84.916a3.007 3.007 0 1 0-6.013 0 3.007 3.007 0 0 0 6.013 0Z"/><path d="M238.194 84.916"/><path fill="none" stroke="#000" stroke-miterlimit="10" stroke-width=".3985" d="M238.194 84.916Z"/><path d="M247.579 84.916a3.007 3.007 0 1 0-6.013 0 3.007 3.007 0 0 0 6.013 0"/><path fill="none" stroke="#000" stroke-miterlimit="10" stroke-width=".3985" d="M247.579 84.916a3.007 3.007 0 1 0-6.013 0 3.007 3.007 0 0 0 6.013 0Z"/><path d="M250.95 84.916"/><path fill="none" stroke="#000" stroke-miterlimit="10" stroke-width=".3985" d="M250.95 84.916Z"/><path d="M260.335 84.916a3.007 3.007 0 1 0-6.013 0 3.007 3.007 0 0 0 6.013 0"/><path fill="none" stroke="#000" stroke-miterlimit="10" stroke-width=".3985" d="M260.335 84.916a3.007 3.007 0 1 0-6.013 0 3.007 3.007 0 0 0 6.013 0Z"/><path d="M263.706 84.916"/><path fill="none" stroke="#000" stroke-miterlimit="10" stroke-width=".3985" d="M263.706 84.916Z"/><path d="M273.09 84.916a3.007 3.007 0 1 0-6.012 0 3.007 3.007 0 0 0 6.013 0"/><path fill="none" stroke="#000" stroke-miterlimit="10" stroke-width=".3985" d="M273.09 84.916a3.007 3.007 0 1 0-6.012 0 3.007 3.007 0 0 0 6.013 0Z"/><path d="M276.462 84.916"/><path fill="none" stroke="#000" stroke-miterlimit="10" stroke-width=".3985" d="M276.462 84.916Z"/><g transform="translate(-71.902 143.208)scale(1.00008)"><use xlink:href="#m" x="108.800975" y="-28.547355"/><use xlink:href="#n" x="114.255975" y="-28.547355"/><use xlink:href="#s" x="120.911074" y="-28.547355"/><use xlink:href="#n" x="126.366074" y="-28.547355"/><use xlink:href="#t" x="133.032094" y="-28.547355"/><use xlink:href="#n" x="138.487084" y="-28.547355"/><use xlink:href="#q" x="145.153104" y="-28.547355"/><use xlink:href="#n" x="152.462807" y="-28.547355"/><use xlink:href="#r" x="159.128817" y="-28.547355"/><use xlink:href="#m" x="164.583817" y="-28.547355"/><use xlink:href="#t" x="170.038807" y="-28.547355"/></g><path fill="none" stroke="#000" stroke-miterlimit="10" stroke-width=".3985" d="M154.445 112.023h-13.339"/><path d="m157.547 112.023-4.468-1.682 1.466 1.682-1.466 1.682Z"/><path fill="none" stroke="#000" stroke-miterlimit="10" stroke-width=".3985" d="m157.547 112.023-4.468-1.682 1.466 1.682-1.466 1.682Z"/><path d="M185.044 107.24a4.252 4.252 0 1 0-8.504 0 4.252 4.252 0 0 0 8.504 0"/><path fill="none" stroke="#000" stroke-miterlimit="10" stroke-width=".3985" d="M185.044 107.24a4.252 4.252 0 1 0-8.504 0 4.252 4.252 0 0 0 8.504 0Z"/><path d="M187.17 107.24"/><path fill="none" stroke="#000" stroke-miterlimit="10" stroke-width=".3985" d="M187.17 107.24Z"/><path d="M193.548 107.24"/><path fill="none" stroke="#000" stroke-miterlimit="10" stroke-width=".3985" d="M193.548 107.24Z"/><path d="M199.926 107.24"/><path fill="none" stroke="#000" stroke-miterlimit="10" stroke-width=".3985" d="M199.926 107.24Z"/><path d="M210.556 107.24a4.252 4.252 0 1 0-8.504 0 4.252 4.252 0 0 0 8.504 0"/><path fill="none" stroke="#000" stroke-miterlimit="10" stroke-width=".3985" d="M210.556 107.24a4.252 4.252 0 1 0-8.504 0 4.252 4.252 0 0 0 8.504 0Z"/><path d="M212.682 107.24"/><path fill="none" stroke="#000" stroke-miterlimit="10" stroke-width=".3985" d="M212.682 107.24Z"/><path d="M219.06 107.24"/><path fill="none" stroke="#000" stroke-miterlimit="10" stroke-width=".3985" d="M219.06 107.24Z"/><path d="M225.438 107.24"/><path fill="none" stroke="#000" stroke-miterlimit="10" stroke-width=".3985" d="M225.438 107.24Z"/><path d="M236.068 107.24a4.252 4.252 0 1 0-8.504 0 4.252 4.252 0 0 0 8.504 0"/><path fill="none" stroke="#000" stroke-miterlimit="10" stroke-width=".3985" d="M236.068 107.24a4.252 4.252 0 1 0-8.504 0 4.252 4.252 0 0 0 8.504 0Z"/><path d="M238.194 107.24"/><path fill="none" stroke="#000" stroke-miterlimit="10" stroke-width=".3985" d="M238.194 107.24Z"/><path d="M244.572 107.24"/><path fill="none" stroke="#000" stroke-miterlimit="10" stroke-width=".3985" d="M244.572 107.24Z"/><path d="M250.95 107.24"/><path fill="none" stroke="#000" stroke-miterlimit="10" stroke-width=".3985" d="M250.95 107.24Z"/><path d="M261.58 107.24a4.252 4.252 0 1 0-8.504 0 4.252 4.252 0 0 0 8.504 0"/><path fill="none" stroke="#000" stroke-miterlimit="10" stroke-width=".3985" d="M261.58 107.24a4.252 4.252 0 1 0-8.504 0 4.252 4.252 0 0 0 8.504 0Z"/><path d="M263.706 107.24"/><path fill="none" stroke="#000" stroke-miterlimit="10" stroke-width=".3985" d="M263.706 107.24Z"/><path d="M270.084 107.24"/><path fill="none" stroke="#000" stroke-miterlimit="10" stroke-width=".3985" d="M270.084 107.24Z"/><path d="M276.462 107.24"/><path fill="none" stroke="#000" stroke-miterlimit="10" stroke-width=".3985" d="M276.462 107.24Z"/><path d="M185.044 116.806a4.252 4.252 0 1 0-8.504 0 4.252 4.252 0 0 0 8.504 0"/><path fill="none" stroke="#000" stroke-miterlimit="10" stroke-width=".3985" d="M185.044 116.806a4.252 4.252 0 1 0-8.504 0 4.252 4.252 0 0 0 8.504 0Z"/><path d="M187.17 116.806"/><path fill="none" stroke="#000" stroke-miterlimit="10" stroke-width=".3985" d="M187.17 116.806Z"/><path d="M193.548 116.806"/><path fill="none" stroke="#000" stroke-miterlimit="10" stroke-width=".3985" d="M193.548 116.806Z"/><path d="M199.926 116.806"/><path fill="none" stroke="#000" stroke-miterlimit="10" stroke-width=".3985" d="M199.926 116.806Z"/><path d="M210.556 116.806a4.252 4.252 0 1 0-8.504 0 4.252 4.252 0 0 0 8.504 0"/><path fill="none" stroke="#000" stroke-miterlimit="10" stroke-width=".3985" d="M210.556 116.806a4.252 4.252 0 1 0-8.504 0 4.252 4.252 0 0 0 8.504 0Z"/><path d="M212.682 116.806"/><path fill="none" stroke="#000" stroke-miterlimit="10" stroke-width=".3985" d="M212.682 116.806Z"/><path d="M219.06 116.806"/><path fill="none" stroke="#000" stroke-miterlimit="10" stroke-width=".3985" d="M219.06 116.806Z"/><path d="M225.438 116.806"/><path fill="none" stroke="#000" stroke-miterlimit="10" stroke-width=".3985" d="M225.438 116.806Z"/><path d="M236.068 116.806a4.252 4.252 0 1 0-8.504 0 4.252 4.252 0 0 0 8.504 0"/><path fill="none" stroke="#000" stroke-miterlimit="10" stroke-width=".3985" d="M236.068 116.806a4.252 4.252 0 1 0-8.504 0 4.252 4.252 0 0 0 8.504 0Z"/><path d="M238.194 116.806"/><path fill="none" stroke="#000" stroke-miterlimit="10" stroke-width=".3985" d="M238.194 116.806Z"/><path d="M244.572 116.806"/><path fill="none" stroke="#000" stroke-miterlimit="10" stroke-width=".3985" d="M244.572 116.806Z"/><path d="M250.95 116.806"/><path fill="none" stroke="#000" stroke-miterlimit="10" stroke-width=".3985" d="M250.95 116.806Z"/><path d="M261.58 116.806a4.252 4.252 0 1 0-8.504 0 4.252 4.252 0 0 0 8.504 0"/><path fill="none" stroke="#000" stroke-miterlimit="10" stroke-width=".3985" d="M261.58 116.806a4.252 4.252 0 1 0-8.504 0 4.252 4.252 0 0 0 8.504 0Z"/><path d="M263.706 116.806"/><path fill="none" stroke="#000" stroke-miterlimit="10" stroke-width=".3985" d="M263.706 116.806Z"/><path d="M270.084 116.806"/><path fill="none" stroke="#000" stroke-miterlimit="10" stroke-width=".3985" d="M270.084 116.806Z"/><path d="M276.462 116.806"/><path fill="none" stroke="#000" stroke-miterlimit="10" stroke-width=".3985" d="M276.462 116.806Z"/><g transform="translate(-80.084 175.098)scale(1.00008)"><use xlink:href="#m" x="108.800975" y="-28.547355"/><use xlink:href="#n" x="114.255975" y="-28.547355"/><use xlink:href="#u" x="120.911074" y="-28.547355"/><use xlink:href="#p" x="126.366074" y="-28.547355"/><use xlink:href="#n" x="131.821074" y="-28.547355"/><use xlink:href="#v" x="138.487084" y="-28.547355"/><use xlink:href="#s" x="143.942074" y="-28.547355"/><use xlink:href="#n" x="149.397074" y="-28.547355"/><use xlink:href="#q" x="156.063094" y="-28.547355"/><use xlink:href="#n" x="163.372797" y="-28.547355"/><use xlink:href="#s" x="170.038807" y="-28.547355"/><use xlink:href="#m" x="175.493807" y="-28.547355"/><use xlink:href="#v" x="180.948797" y="-28.547355"/><use xlink:href="#s" x="186.403797" y="-28.547355"/></g><path fill="none" stroke="#000" stroke-miterlimit="10" stroke-width=".3985" d="M154.445 143.913h-13.339"/><path d="m157.547 143.913-4.468-1.682 1.466 1.682-1.466 1.682Z"/><path fill="none" stroke="#000" stroke-miterlimit="10" stroke-width=".3985" d="m157.547 143.913-4.468-1.682 1.466 1.682-1.466 1.682Z"/><path d="M187.858 139.13a7.066 7.066 0 1 0-14.132 0 7.066 7.066 0 0 0 14.132 0"/><path fill="none" stroke="#000" stroke-miterlimit="10" stroke-width=".3985" d="M187.858 139.13a7.066 7.066 0 1 0-14.132 0 7.066 7.066 0 0 0 14.132 0Z"/><g transform="translate(-93.471 207.075)scale(1.00008)"><use xlink:href="#m" x="108.800975" y="-28.547355"/><use xlink:href="#n" x="114.255975" y="-28.547355"/><use xlink:href="#w" x="120.921975" y="-28.547355"/><use xlink:href="#x" x="125.770375" y="-28.547355"/><use xlink:href="#y" x="132.270921" y="-28.547355"/><use xlink:href="#n" x="137.120321" y="-28.547355"/><use xlink:href="#w" x="143.785861" y="-28.547355"/><use xlink:href="#z" x="148.635261" y="-28.547355"/><use xlink:href="#x" x="154.089711" y="-28.547355"/><use xlink:href="#y" x="160.590248" y="-28.547355"/><use xlink:href="#n" x="165.439648" y="-28.547355"/><use xlink:href="#q" x="172.094747" y="-28.547355"/><use xlink:href="#n" x="179.40445" y="-28.547355"/><use xlink:href="#w" x="186.08135" y="-28.547355"/><use xlink:href="#A" x="190.92975" y="-28.547355"/><use xlink:href="#z" x="196.38475" y="-28.547355"/><use xlink:href="#B" x="201.83974" y="-28.547355"/><use xlink:href="#x" x="207.2951" y="-28.547355"/><use xlink:href="#y" x="213.795637" y="-28.547355"/></g><path fill="none" stroke="#000" stroke-miterlimit="10" stroke-width=".3985" d="M154.445 175.803h-13.339"/><path d="m157.547 175.803-4.468-1.682 1.466 1.682-1.466 1.682Z"/><path fill="none" stroke="#000" stroke-miterlimit="10" stroke-width=".3985" d="m157.547 175.803-4.468-1.682 1.466 1.682-1.466 1.682Z"/><path d="M183.169 171.02a2.377 2.377 0 1 0-4.754 0 2.377 2.377 0 0 0 4.754 0"/><path fill="none" stroke="#000" stroke-miterlimit="10" stroke-width=".3985" d="M183.169 171.02a2.377 2.377 0 1 0-4.754 0 2.377 2.377 0 0 0 4.754 0Z"/><path d="M189.547 171.02a2.377 2.377 0 1 0-4.754 0 2.377 2.377 0 0 0 4.754 0"/><path fill="none" stroke="#000" stroke-miterlimit="10" stroke-width=".3985" d="M189.547 171.02a2.377 2.377 0 1 0-4.754 0 2.377 2.377 0 0 0 4.754 0Z"/><path d="M195.39 171.02a1.841 1.841 0 1 0-3.683 0 1.841 1.841 0 0 0 3.682 0"/><path fill="none" stroke="#000" stroke-miterlimit="10" stroke-width=".3985" d="M195.39 171.02a1.841 1.841 0 1 0-3.683 0 1.841 1.841 0 0 0 3.682 0Z"/><path d="M202.53 171.02a2.604 2.604 0 1 0-5.208 0 2.604 2.604 0 0 0 5.208 0"/><path fill="none" stroke="#000" stroke-miterlimit="10" stroke-width=".3985" d="M202.53 171.02a2.604 2.604 0 1 0-5.208 0 2.604 2.604 0 0 0 5.208 0Z"/><path d="M208.145 171.02a1.841 1.841 0 1 0-3.682 0 1.841 1.841 0 0 0 3.682 0"/><path fill="none" stroke="#000" stroke-miterlimit="10" stroke-width=".3985" d="M208.145 171.02a1.841 1.841 0 1 0-3.682 0 1.841 1.841 0 0 0 3.682 0Z"/><path d="M215.059 171.02a2.377 2.377 0 1 0-4.754 0 2.377 2.377 0 0 0 4.754 0"/><path fill="none" stroke="#000" stroke-miterlimit="10" stroke-width=".3985" d="M215.059 171.02a2.377 2.377 0 1 0-4.754 0 2.377 2.377 0 0 0 4.754 0Z"/><path d="M221.186 171.02a2.126 2.126 0 1 0-4.252 0 2.126 2.126 0 0 0 4.252 0"/><path fill="none" stroke="#000" stroke-miterlimit="10" stroke-width=".3985" d="M221.186 171.02a2.126 2.126 0 1 0-4.252 0 2.126 2.126 0 0 0 4.252 0Z"/><path d="M227.564 171.02a2.126 2.126 0 1 0-4.252 0 2.126 2.126 0 0 0 4.252 0"/><path fill="none" stroke="#000" stroke-miterlimit="10" stroke-width=".3985" d="M227.564 171.02a2.126 2.126 0 1 0-4.252 0 2.126 2.126 0 0 0 4.252 0Z"/><path d="M234.193 171.02a2.377 2.377 0 1 0-4.754 0 2.377 2.377 0 0 0 4.754 0"/><path fill="none" stroke="#000" stroke-miterlimit="10" stroke-width=".3985" d="M234.193 171.02a2.377 2.377 0 1 0-4.754 0 2.377 2.377 0 0 0 4.754 0Z"/><path d="M240.32 171.02a2.126 2.126 0 1 0-4.252 0 2.126 2.126 0 0 0 4.252 0"/><path fill="none" stroke="#000" stroke-miterlimit="10" stroke-width=".3985" d="M240.32 171.02a2.126 2.126 0 1 0-4.252 0 2.126 2.126 0 0 0 4.252 0Z"/><path d="M246.698 171.02a2.126 2.126 0 1 0-4.252 0 2.126 2.126 0 0 0 4.252 0"/><path fill="none" stroke="#000" stroke-miterlimit="10" stroke-width=".3985" d="M246.698 171.02a2.126 2.126 0 1 0-4.252 0 2.126 2.126 0 0 0 4.252 0Z"/><path d="M253.327 171.02a2.377 2.377 0 1 0-4.754 0 2.377 2.377 0 0 0 4.754 0"/><path fill="none" stroke="#000" stroke-miterlimit="10" stroke-width=".3985" d="M253.327 171.02a2.377 2.377 0 1 0-4.754 0 2.377 2.377 0 0 0 4.754 0Z"/><path d="M259.454 171.02a2.126 2.126 0 1 0-4.252 0 2.126 2.126 0 0 0 4.252 0"/><path fill="none" stroke="#000" stroke-miterlimit="10" stroke-width=".3985" d="M259.454 171.02a2.126 2.126 0 1 0-4.252 0 2.126 2.126 0 0 0 4.252 0Z"/><path d="M265.832 171.02a2.126 2.126 0 1 0-4.252 0 2.126 2.126 0 0 0 4.252 0"/><path fill="none" stroke="#000" stroke-miterlimit="10" stroke-width=".3985" d="M265.832 171.02a2.126 2.126 0 1 0-4.252 0 2.126 2.126 0 0 0 4.252 0Z"/><path d="M272.461 171.02a2.377 2.377 0 1 0-4.754 0 2.377 2.377 0 0 0 4.754 0"/><path fill="none" stroke="#000" stroke-miterlimit="10" stroke-width=".3985" d="M272.461 171.02a2.377 2.377 0 1 0-4.754 0 2.377 2.377 0 0 0 4.754 0Z"/><path d="M277.966 171.02a1.503 1.503 0 1 0-3.007 0 1.503 1.503 0 0 0 3.007 0"/><path fill="none" stroke="#000" stroke-miterlimit="10" stroke-width=".3985" d="M277.966 171.02a1.503 1.503 0 1 0-3.007 0 1.503 1.503 0 0 0 3.007 0Z"/><path d="M183.169 180.587a2.377 2.377 0 1 0-4.754 0 2.377 2.377 0 0 0 4.754 0"/><path fill="none" stroke="#000" stroke-miterlimit="10" stroke-width=".3985" d="M183.169 180.587a2.377 2.377 0 1 0-4.754 0 2.377 2.377 0 0 0 4.754 0Z"/><path d="M189.296 180.587a2.126 2.126 0 1 0-4.252 0 2.126 2.126 0 0 0 4.252 0"/><path fill="none" stroke="#000" stroke-miterlimit="10" stroke-width=".3985" d="M189.296 180.587a2.126 2.126 0 1 0-4.252 0 2.126 2.126 0 0 0 4.252 0Z"/><path d="M195.39 180.587a1.841 1.841 0 1 0-3.683 0 1.841 1.841 0 0 0 3.682 0"/><path fill="none" stroke="#000" stroke-miterlimit="10" stroke-width=".3985" d="M195.39 180.587a1.841 1.841 0 1 0-3.683 0 1.841 1.841 0 0 0 3.682 0Z"/><path d="M202.052 180.587a2.126 2.126 0 1 0-4.252 0 2.126 2.126 0 0 0 4.252 0"/><path fill="none" stroke="#000" stroke-miterlimit="10" stroke-width=".3985" d="M202.052 180.587a2.126 2.126 0 1 0-4.252 0 2.126 2.126 0 0 0 4.252 0Z"/><path d="M208.145 180.587a1.841 1.841 0 1 0-3.682 0 1.841 1.841 0 0 0 3.682 0"/><path fill="none" stroke="#000" stroke-miterlimit="10" stroke-width=".3985" d="M208.145 180.587a1.841 1.841 0 1 0-3.682 0 1.841 1.841 0 0 0 3.682 0Z"/><path d="M214.808 180.587a2.126 2.126 0 1 0-4.252 0 2.126 2.126 0 0 0 4.252 0"/><path fill="none" stroke="#000" stroke-miterlimit="10" stroke-width=".3985" d="M214.808 180.587a2.126 2.126 0 1 0-4.252 0 2.126 2.126 0 0 0 4.252 0Z"/><path d="M221.186 180.587a2.126 2.126 0 1 0-4.252 0 2.126 2.126 0 0 0 4.252 0"/><path fill="none" stroke="#000" stroke-miterlimit="10" stroke-width=".3985" d="M221.186 180.587a2.126 2.126 0 1 0-4.252 0 2.126 2.126 0 0 0 4.252 0Z"/><path d="M227.28 180.587a1.841 1.841 0 1 0-3.683 0 1.841 1.841 0 0 0 3.682 0"/><path fill="none" stroke="#000" stroke-miterlimit="10" stroke-width=".3985" d="M227.28 180.587a1.841 1.841 0 1 0-3.683 0 1.841 1.841 0 0 0 3.682 0Z"/><path d="M234.193 180.587a2.377 2.377 0 1 0-4.754 0 2.377 2.377 0 0 0 4.754 0"/><path fill="none" stroke="#000" stroke-miterlimit="10" stroke-width=".3985" d="M234.193 180.587a2.377 2.377 0 1 0-4.754 0 2.377 2.377 0 0 0 4.754 0Z"/><path d="M240.035 180.587a1.841 1.841 0 1 0-3.682 0 1.841 1.841 0 0 0 3.682 0"/><path fill="none" stroke="#000" stroke-miterlimit="10" stroke-width=".3985" d="M240.035 180.587a1.841 1.841 0 1 0-3.682 0 1.841 1.841 0 0 0 3.682 0Z"/><path d="M246.698 180.587a2.126 2.126 0 1 0-4.252 0 2.126 2.126 0 0 0 4.252 0"/><path fill="none" stroke="#000" stroke-miterlimit="10" stroke-width=".3985" d="M246.698 180.587a2.126 2.126 0 1 0-4.252 0 2.126 2.126 0 0 0 4.252 0Z"/><path d="M253.076 180.587a2.126 2.126 0 1 0-4.252 0 2.126 2.126 0 0 0 4.252 0"/><path fill="none" stroke="#000" stroke-miterlimit="10" stroke-width=".3985" d="M253.076 180.587a2.126 2.126 0 1 0-4.252 0 2.126 2.126 0 0 0 4.252 0Z"/><path d="M259.17 180.587a1.841 1.841 0 1 0-3.683 0 1.841 1.841 0 0 0 3.682 0"/><path fill="none" stroke="#000" stroke-miterlimit="10" stroke-width=".3985" d="M259.17 180.587a1.841 1.841 0 1 0-3.683 0 1.841 1.841 0 0 0 3.682 0Z"/><path d="M265.832 180.587a2.126 2.126 0 1 0-4.252 0 2.126 2.126 0 0 0 4.252 0"/><path fill="none" stroke="#000" stroke-miterlimit="10" stroke-width=".3985" d="M265.832 180.587a2.126 2.126 0 1 0-4.252 0 2.126 2.126 0 0 0 4.252 0Z"/><path d="M272.21 180.587a2.126 2.126 0 1 0-4.252 0 2.126 2.126 0 0 0 4.252 0"/><path fill="none" stroke="#000" stroke-miterlimit="10" stroke-width=".3985" d="M272.21 180.587a2.126 2.126 0 1 0-4.252 0 2.126 2.126 0 0 0 4.252 0Z"/><path d="M278.303 180.587a1.841 1.841 0 1 0-3.682 0 1.841 1.841 0 0 0 3.682 0"/><path fill="none" stroke="#000" stroke-miterlimit="10" stroke-width=".3985" d="M278.303 180.587a1.841 1.841 0 1 0-3.682 0 1.841 1.841 0 0 0 3.682 0Z"/><g transform="translate(158.313 235.777)scale(1.00008)"><use xlink:href="#j" x="108.800975" y="-28.547355"/><use xlink:href="#C" x="113.043325" y="-28.547355"/><use xlink:href="#D" x="125.653366" y="-28.547355"/><use xlink:href="#E" x="137.152504" y="-28.547355"/><use xlink:href="#z" x="142.607504" y="-28.547355"/><use xlink:href="#l" x="148.062494" y="-28.547355"/></g><g transform="translate(204.722 52.054)scale(1.00008)"><use xlink:href="#F" x="108.800975" y="-28.547355"/><use xlink:href="#G" x="115.925203" y="-28.547355"/><use xlink:href="#H" x="118.958183" y="-28.547355"/><use xlink:href="#c" x="125.318718" y="-28.547355"/><use xlink:href="#I" x="130.773718" y="-28.547355"/><use xlink:href="#g" x="136.839678" y="-28.547355"/><use xlink:href="#J" x="142.294668" y="-28.547355"/><use xlink:href="#J" x="147.138708" y="-28.547355"/><use xlink:href="#G" x="151.982758" y="-28.547355"/><use xlink:href="#i" x="158.659088" y="-28.547355"/><use xlink:href="#j" x="164.945597" y="-28.547355"/><use xlink:href="#k" x="169.187957" y="-28.547355"/><use xlink:href="#l" x="175.736497" y="-28.547355"/></g><path d="M302.329 43.459a1.063 1.063 0 1 0-2.126 0 1.063 1.063 0 0 0 2.126 0"/><path fill="none" stroke="#000" stroke-miterlimit="10" stroke-width=".3985" d="M302.329 43.459a1.063 1.063 0 1 0-2.126 0 1.063 1.063 0 0 0 2.126 0Z"/><path d="M308.707 43.459a1.063 1.063 0 1 0-2.126 0 1.063 1.063 0 0 0 2.126 0"/><path fill="none" stroke="#000" stroke-miterlimit="10" stroke-width=".3985" d="M308.707 43.459a1.063 1.063 0 1 0-2.126 0 1.063 1.063 0 0 0 2.126 0Z"/><path d="M315.085 43.459a1.063 1.063 0 1 0-2.126 0 1.063 1.063 0 0 0 2.126 0"/><path fill="none" stroke="#000" stroke-miterlimit="10" stroke-width=".3985" d="M315.085 43.459a1.063 1.063 0 1 0-2.126 0 1.063 1.063 0 0 0 2.126 0Z"/><path d="M320.4 43.459"/><path fill="none" stroke="#000" stroke-miterlimit="10" stroke-width=".3985" d="M320.4 43.459Z"/><path d="M326.778 43.459"/><path fill="none" stroke="#000" stroke-miterlimit="10" stroke-width=".3985" d="M326.778 43.459Z"/><path d="M334.22 43.459a1.063 1.063 0 1 0-2.127 0 1.063 1.063 0 0 0 2.126 0"/><path fill="none" stroke="#000" stroke-miterlimit="10" stroke-width=".3985" d="M334.22 43.459a1.063 1.063 0 1 0-2.127 0 1.063 1.063 0 0 0 2.126 0Z"/><path d="M339.534 43.459"/><path fill="none" stroke="#000" stroke-miterlimit="10" stroke-width=".3985" d="M339.534 43.459Z"/><path d="M346.975 43.459a1.063 1.063 0 1 0-2.126 0 1.063 1.063 0 0 0 2.126 0"/><path fill="none" stroke="#000" stroke-miterlimit="10" stroke-width=".3985" d="M346.975 43.459a1.063 1.063 0 1 0-2.126 0 1.063 1.063 0 0 0 2.126 0Z"/><path d="M353.353 43.459a1.063 1.063 0 1 0-2.126 0 1.063 1.063 0 0 0 2.126 0"/><path fill="none" stroke="#000" stroke-miterlimit="10" stroke-width=".3985" d="M353.353 43.459a1.063 1.063 0 1 0-2.126 0 1.063 1.063 0 0 0 2.126 0Z"/><path d="M358.668 43.459"/><path fill="none" stroke="#000" stroke-miterlimit="10" stroke-width=".3985" d="M358.668 43.459Z"/><path d="M366.11 43.459a1.063 1.063 0 1 0-2.127 0 1.063 1.063 0 0 0 2.126 0"/><path fill="none" stroke="#000" stroke-miterlimit="10" stroke-width=".3985" d="M366.11 43.459a1.063 1.063 0 1 0-2.127 0 1.063 1.063 0 0 0 2.126 0Z"/><path d="M371.424 43.459"/><path fill="none" stroke="#000" stroke-miterlimit="10" stroke-width=".3985" d="M371.424 43.459Z"/><path d="M377.802 43.459"/><path fill="none" stroke="#000" stroke-miterlimit="10" stroke-width=".3985" d="M377.802 43.459Z"/><path d="M385.243 43.459a1.063 1.063 0 1 0-2.126 0 1.063 1.063 0 0 0 2.126 0"/><path fill="none" stroke="#000" stroke-miterlimit="10" stroke-width=".3985" d="M385.243 43.459a1.063 1.063 0 1 0-2.126 0 1.063 1.063 0 0 0 2.126 0Z"/><path d="M390.558 43.459"/><path fill="none" stroke="#000" stroke-miterlimit="10" stroke-width=".3985" d="M390.558 43.459Z"/><path d="M398 43.459a1.063 1.063 0 1 0-2.127 0 1.063 1.063 0 0 0 2.126 0"/><path fill="none" stroke="#000" stroke-miterlimit="10" stroke-width=".3985" d="M398 43.459a1.063 1.063 0 1 0-2.127 0 1.063 1.063 0 0 0 2.126 0Z"/><path d="M301.266 53.026"/><path fill="none" stroke="#000" stroke-miterlimit="10" stroke-width=".3985" d="M301.266 53.026Z"/><path d="M308.707 53.026a1.063 1.063 0 1 0-2.126 0 1.063 1.063 0 0 0 2.126 0"/><path fill="none" stroke="#000" stroke-miterlimit="10" stroke-width=".3985" d="M308.707 53.026a1.063 1.063 0 1 0-2.126 0 1.063 1.063 0 0 0 2.126 0Z"/><path d="M314.022 53.026"/><path fill="none" stroke="#000" stroke-miterlimit="10" stroke-width=".3985" d="M314.022 53.026Z"/><path d="M321.463 53.026a1.063 1.063 0 1 0-2.126 0 1.063 1.063 0 0 0 2.126 0"/><path fill="none" stroke="#000" stroke-miterlimit="10" stroke-width=".3985" d="M321.463 53.026a1.063 1.063 0 1 0-2.126 0 1.063 1.063 0 0 0 2.126 0Z"/><path d="M327.841 53.026a1.063 1.063 0 1 0-2.126 0 1.063 1.063 0 0 0 2.126 0"/><path fill="none" stroke="#000" stroke-miterlimit="10" stroke-width=".3985" d="M327.841 53.026a1.063 1.063 0 1 0-2.126 0 1.063 1.063 0 0 0 2.126 0Z"/><path d="M333.156 53.026"/><path fill="none" stroke="#000" stroke-miterlimit="10" stroke-width=".3985" d="M333.156 53.026Z"/><path d="M340.597 53.026a1.063 1.063 0 1 0-2.126 0 1.063 1.063 0 0 0 2.126 0"/><path fill="none" stroke="#000" stroke-miterlimit="10" stroke-width=".3985" d="M340.597 53.026a1.063 1.063 0 1 0-2.126 0 1.063 1.063 0 0 0 2.126 0Z"/><path d="M345.912 53.026"/><path fill="none" stroke="#000" stroke-miterlimit="10" stroke-width=".3985" d="M345.912 53.026Z"/><path d="M352.29 53.026"/><path fill="none" stroke="#000" stroke-miterlimit="10" stroke-width=".3985" d="M352.29 53.026Z"/><path d="M359.731 53.026a1.063 1.063 0 1 0-2.126 0 1.063 1.063 0 0 0 2.126 0"/><path fill="none" stroke="#000" stroke-miterlimit="10" stroke-width=".3985" d="M359.731 53.026a1.063 1.063 0 1 0-2.126 0 1.063 1.063 0 0 0 2.126 0Z"/><path d="M365.046 53.026"/><path fill="none" stroke="#000" stroke-miterlimit="10" stroke-width=".3985" d="M365.046 53.026Z"/><path d="M372.487 53.026a1.063 1.063 0 1 0-2.126 0 1.063 1.063 0 0 0 2.126 0"/><path fill="none" stroke="#000" stroke-miterlimit="10" stroke-width=".3985" d="M372.487 53.026a1.063 1.063 0 1 0-2.126 0 1.063 1.063 0 0 0 2.126 0Z"/><path d="M377.802 53.026"/><path fill="none" stroke="#000" stroke-miterlimit="10" stroke-width=".3985" d="M377.802 53.026Z"/><path d="M384.18 53.026"/><path fill="none" stroke="#000" stroke-miterlimit="10" stroke-width=".3985" d="M384.18 53.026Z"/><path d="M391.621 53.026a1.063 1.063 0 1 0-2.126 0 1.063 1.063 0 0 0 2.126 0"/><path fill="none" stroke="#000" stroke-miterlimit="10" stroke-width=".3985" d="M391.621 53.026a1.063 1.063 0 1 0-2.126 0 1.063 1.063 0 0 0 2.126 0Z"/><path d="M396.936 53.026"/><path fill="none" stroke="#000" stroke-miterlimit="10" stroke-width=".3985" d="M396.936 53.026Z"/><path d="M303.643 75.35a2.377 2.377 0 1 0-4.754 0 2.377 2.377 0 0 0 4.754 0"/><path fill="none" stroke="#000" stroke-miterlimit="10" stroke-width=".3985" d="M303.643 75.35a2.377 2.377 0 1 0-4.754 0 2.377 2.377 0 0 0 4.754 0Z"/><path d="M309.485 75.35a1.841 1.841 0 1 0-3.682 0 1.841 1.841 0 0 0 3.682 0"/><path fill="none" stroke="#000" stroke-miterlimit="10" stroke-width=".3985" d="M309.485 75.35a1.841 1.841 0 1 0-3.682 0 1.841 1.841 0 0 0 3.682 0Z"/><path d="M316.399 75.35a2.377 2.377 0 1 0-4.754 0 2.377 2.377 0 0 0 4.754 0"/><path fill="none" stroke="#000" stroke-miterlimit="10" stroke-width=".3985" d="M316.399 75.35a2.377 2.377 0 1 0-4.754 0 2.377 2.377 0 0 0 4.754 0Z"/><path d="M322.526 75.35a2.126 2.126 0 1 0-4.252 0 2.126 2.126 0 0 0 4.252 0"/><path fill="none" stroke="#000" stroke-miterlimit="10" stroke-width=".3985" d="M322.526 75.35a2.126 2.126 0 1 0-4.252 0 2.126 2.126 0 0 0 4.252 0Z"/><path d="M328.904 75.35a2.126 2.126 0 1 0-4.252 0 2.126 2.126 0 0 0 4.252 0"/><path fill="none" stroke="#000" stroke-miterlimit="10" stroke-width=".3985" d="M328.904 75.35a2.126 2.126 0 1 0-4.252 0 2.126 2.126 0 0 0 4.252 0Z"/><path d="M334.997 75.35a1.841 1.841 0 1 0-3.682 0 1.841 1.841 0 0 0 3.682 0"/><path fill="none" stroke="#000" stroke-miterlimit="10" stroke-width=".3985" d="M334.997 75.35a1.841 1.841 0 1 0-3.682 0 1.841 1.841 0 0 0 3.682 0Z"/><path d="M341.66 75.35a2.126 2.126 0 1 0-4.252 0 2.126 2.126 0 0 0 4.252 0"/><path fill="none" stroke="#000" stroke-miterlimit="10" stroke-width=".3985" d="M341.66 75.35a2.126 2.126 0 1 0-4.252 0 2.126 2.126 0 0 0 4.252 0Z"/><path d="M348.289 75.35a2.377 2.377 0 1 0-4.754 0 2.377 2.377 0 0 0 4.754 0"/><path fill="none" stroke="#000" stroke-miterlimit="10" stroke-width=".3985" d="M348.289 75.35a2.377 2.377 0 1 0-4.754 0 2.377 2.377 0 0 0 4.754 0Z"/><path d="M354.416 75.35a2.126 2.126 0 1 0-4.252 0 2.126 2.126 0 0 0 4.252 0"/><path fill="none" stroke="#000" stroke-miterlimit="10" stroke-width=".3985" d="M354.416 75.35a2.126 2.126 0 1 0-4.252 0 2.126 2.126 0 0 0 4.252 0Z"/><path d="M360.51 75.35a1.841 1.841 0 1 0-3.683 0 1.841 1.841 0 0 0 3.682 0"/><path fill="none" stroke="#000" stroke-miterlimit="10" stroke-width=".3985" d="M360.51 75.35a1.841 1.841 0 1 0-3.683 0 1.841 1.841 0 0 0 3.682 0Z"/><path d="M367.172 75.35a2.126 2.126 0 1 0-4.252 0 2.126 2.126 0 0 0 4.252 0"/><path fill="none" stroke="#000" stroke-miterlimit="10" stroke-width=".3985" d="M367.172 75.35a2.126 2.126 0 1 0-4.252 0 2.126 2.126 0 0 0 4.252 0Z"/><path d="M373.801 75.35a2.377 2.377 0 1 0-4.754 0 2.377 2.377 0 0 0 4.754 0"/><path fill="none" stroke="#000" stroke-miterlimit="10" stroke-width=".3985" d="M373.801 75.35a2.377 2.377 0 1 0-4.754 0 2.377 2.377 0 0 0 4.754 0Z"/><path d="M379.643 75.35a1.841 1.841 0 1 0-3.682 0 1.841 1.841 0 0 0 3.682 0"/><path fill="none" stroke="#000" stroke-miterlimit="10" stroke-width=".3985" d="M379.643 75.35a1.841 1.841 0 1 0-3.682 0 1.841 1.841 0 0 0 3.682 0Z"/><path d="M386.306 75.35a2.126 2.126 0 1 0-4.252 0 2.126 2.126 0 0 0 4.252 0"/><path fill="none" stroke="#000" stroke-miterlimit="10" stroke-width=".3985" d="M386.306 75.35a2.126 2.126 0 1 0-4.252 0 2.126 2.126 0 0 0 4.252 0Z"/><path d="M392.4 75.35a1.841 1.841 0 1 0-3.683 0 1.841 1.841 0 0 0 3.682 0"/><path fill="none" stroke="#000" stroke-miterlimit="10" stroke-width=".3985" d="M392.4 75.35a1.841 1.841 0 1 0-3.683 0 1.841 1.841 0 0 0 3.682 0Z"/><path d="M399.54 75.35a2.604 2.604 0 1 0-5.207 0 2.604 2.604 0 0 0 5.207 0"/><path fill="none" stroke="#000" stroke-miterlimit="10" stroke-width=".3985" d="M399.54 75.35a2.604 2.604 0 1 0-5.207 0 2.604 2.604 0 0 0 5.207 0Z"/><path d="M303.107 84.916a1.841 1.841 0 1 0-3.682 0 1.841 1.841 0 0 0 3.682 0"/><path fill="none" stroke="#000" stroke-miterlimit="10" stroke-width=".3985" d="M303.107 84.916a1.841 1.841 0 1 0-3.682 0 1.841 1.841 0 0 0 3.682 0Z"/><path d="M309.77 84.916a2.126 2.126 0 1 0-4.252 0 2.126 2.126 0 0 0 4.252 0"/><path fill="none" stroke="#000" stroke-miterlimit="10" stroke-width=".3985" d="M309.77 84.916a2.126 2.126 0 1 0-4.252 0 2.126 2.126 0 0 0 4.252 0Z"/><path d="M316.148 84.916a2.126 2.126 0 1 0-4.252 0 2.126 2.126 0 0 0 4.252 0"/><path fill="none" stroke="#000" stroke-miterlimit="10" stroke-width=".3985" d="M316.148 84.916a2.126 2.126 0 1 0-4.252 0 2.126 2.126 0 0 0 4.252 0Z"/><path d="M322.777 84.916a2.377 2.377 0 1 0-4.754 0 2.377 2.377 0 0 0 4.754 0"/><path fill="none" stroke="#000" stroke-miterlimit="10" stroke-width=".3985" d="M322.777 84.916a2.377 2.377 0 1 0-4.754 0 2.377 2.377 0 0 0 4.754 0Z"/><path d="M328.62 84.916a1.841 1.841 0 1 0-3.683 0 1.841 1.841 0 0 0 3.682 0"/><path fill="none" stroke="#000" stroke-miterlimit="10" stroke-width=".3985" d="M328.62 84.916a1.841 1.841 0 1 0-3.683 0 1.841 1.841 0 0 0 3.682 0Z"/><path d="M335.282 84.916a2.126 2.126 0 1 0-4.252 0 2.126 2.126 0 0 0 4.252 0"/><path fill="none" stroke="#000" stroke-miterlimit="10" stroke-width=".3985" d="M335.282 84.916a2.126 2.126 0 1 0-4.252 0 2.126 2.126 0 0 0 4.252 0Z"/><path d="M341.66 84.916a2.126 2.126 0 1 0-4.252 0 2.126 2.126 0 0 0 4.252 0"/><path fill="none" stroke="#000" stroke-miterlimit="10" stroke-width=".3985" d="M341.66 84.916a2.126 2.126 0 1 0-4.252 0 2.126 2.126 0 0 0 4.252 0Z"/><path d="M348.289 84.916a2.377 2.377 0 1 0-4.754 0 2.377 2.377 0 0 0 4.754 0"/><path fill="none" stroke="#000" stroke-miterlimit="10" stroke-width=".3985" d="M348.289 84.916a2.377 2.377 0 1 0-4.754 0 2.377 2.377 0 0 0 4.754 0Z"/><path d="M354.131 84.916a1.841 1.841 0 1 0-3.682 0 1.841 1.841 0 0 0 3.682 0"/><path fill="none" stroke="#000" stroke-miterlimit="10" stroke-width=".3985" d="M354.131 84.916a1.841 1.841 0 1 0-3.682 0 1.841 1.841 0 0 0 3.682 0Z"/><path d="M360.794 84.916a2.126 2.126 0 1 0-4.252 0 2.126 2.126 0 0 0 4.252 0"/><path fill="none" stroke="#000" stroke-miterlimit="10" stroke-width=".3985" d="M360.794 84.916a2.126 2.126 0 1 0-4.252 0 2.126 2.126 0 0 0 4.252 0Z"/><path d="M367.172 84.916a2.126 2.126 0 1 0-4.252 0 2.126 2.126 0 0 0 4.252 0"/><path fill="none" stroke="#000" stroke-miterlimit="10" stroke-width=".3985" d="M367.172 84.916a2.126 2.126 0 1 0-4.252 0 2.126 2.126 0 0 0 4.252 0Z"/><path d="M373.55 84.916a2.126 2.126 0 1 0-4.252 0 2.126 2.126 0 0 0 4.252 0"/><path fill="none" stroke="#000" stroke-miterlimit="10" stroke-width=".3985" d="M373.55 84.916a2.126 2.126 0 1 0-4.252 0 2.126 2.126 0 0 0 4.252 0Z"/><path d="M379.928 84.916a2.126 2.126 0 1 0-4.252 0 2.126 2.126 0 0 0 4.252 0"/><path fill="none" stroke="#000" stroke-miterlimit="10" stroke-width=".3985" d="M379.928 84.916a2.126 2.126 0 1 0-4.252 0 2.126 2.126 0 0 0 4.252 0Z"/><path d="M386.021 84.916a1.841 1.841 0 1 0-3.682 0 1.841 1.841 0 0 0 3.682 0"/><path fill="none" stroke="#000" stroke-miterlimit="10" stroke-width=".3985" d="M386.021 84.916a1.841 1.841 0 1 0-3.682 0 1.841 1.841 0 0 0 3.682 0Z"/><path d="M392.935 84.916a2.377 2.377 0 1 0-4.754 0 2.377 2.377 0 0 0 4.754 0"/><path fill="none" stroke="#000" stroke-miterlimit="10" stroke-width=".3985" d="M392.935 84.916a2.377 2.377 0 1 0-4.754 0 2.377 2.377 0 0 0 4.754 0Z"/><path d="M399.062 84.916a2.126 2.126 0 1 0-4.252 0 2.126 2.126 0 0 0 4.252 0"/><path fill="none" stroke="#000" stroke-miterlimit="10" stroke-width=".3985" d="M399.062 84.916a2.126 2.126 0 1 0-4.252 0 2.126 2.126 0 0 0 4.252 0Z"/><path d="M303.643 107.24a2.377 2.377 0 1 0-4.754 0 2.377 2.377 0 0 0 4.754 0"/><path fill="none" stroke="#000" stroke-miterlimit="10" stroke-width=".3985" d="M303.643 107.24a2.377 2.377 0 1 0-4.754 0 2.377 2.377 0 0 0 4.754 0Z"/><path d="M309.485 107.24a1.841 1.841 0 1 0-3.682 0 1.841 1.841 0 0 0 3.682 0"/><path fill="none" stroke="#000" stroke-miterlimit="10" stroke-width=".3985" d="M309.485 107.24a1.841 1.841 0 1 0-3.682 0 1.841 1.841 0 0 0 3.682 0Z"/><path d="M316.148 107.24a2.126 2.126 0 1 0-4.252 0 2.126 2.126 0 0 0 4.252 0"/><path fill="none" stroke="#000" stroke-miterlimit="10" stroke-width=".3985" d="M316.148 107.24a2.126 2.126 0 1 0-4.252 0 2.126 2.126 0 0 0 4.252 0Z"/><path d="M322.241 107.24a1.841 1.841 0 1 0-3.682 0 1.841 1.841 0 0 0 3.682 0"/><path fill="none" stroke="#000" stroke-miterlimit="10" stroke-width=".3985" d="M322.241 107.24a1.841 1.841 0 1 0-3.682 0 1.841 1.841 0 0 0 3.682 0Z"/><path d="M328.904 107.24a2.126 2.126 0 1 0-4.252 0 2.126 2.126 0 0 0 4.252 0"/><path fill="none" stroke="#000" stroke-miterlimit="10" stroke-width=".3985" d="M328.904 107.24a2.126 2.126 0 1 0-4.252 0 2.126 2.126 0 0 0 4.252 0Z"/><path d="M335.533 107.24a2.377 2.377 0 1 0-4.754 0 2.377 2.377 0 0 0 4.754 0"/><path fill="none" stroke="#000" stroke-miterlimit="10" stroke-width=".3985" d="M335.533 107.24a2.377 2.377 0 1 0-4.754 0 2.377 2.377 0 0 0 4.754 0Z"/><path d="M341.66 107.24a2.126 2.126 0 1 0-4.252 0 2.126 2.126 0 0 0 4.252 0"/><path fill="none" stroke="#000" stroke-miterlimit="10" stroke-width=".3985" d="M341.66 107.24a2.126 2.126 0 1 0-4.252 0 2.126 2.126 0 0 0 4.252 0Z"/><path d="M348.289 107.24a2.377 2.377 0 1 0-4.754 0 2.377 2.377 0 0 0 4.754 0"/><path fill="none" stroke="#000" stroke-miterlimit="10" stroke-width=".3985" d="M348.289 107.24a2.377 2.377 0 1 0-4.754 0 2.377 2.377 0 0 0 4.754 0Z"/><path d="M354.131 107.24a1.841 1.841 0 1 0-3.682 0 1.841 1.841 0 0 0 3.682 0"/><path fill="none" stroke="#000" stroke-miterlimit="10" stroke-width=".3985" d="M354.131 107.24a1.841 1.841 0 1 0-3.682 0 1.841 1.841 0 0 0 3.682 0Z"/><path d="M360.794 107.24a2.126 2.126 0 1 0-4.252 0 2.126 2.126 0 0 0 4.252 0"/><path fill="none" stroke="#000" stroke-miterlimit="10" stroke-width=".3985" d="M360.794 107.24a2.126 2.126 0 1 0-4.252 0 2.126 2.126 0 0 0 4.252 0Z"/><path d="M366.887 107.24a1.841 1.841 0 1 0-3.682 0 1.841 1.841 0 0 0 3.682 0"/><path fill="none" stroke="#000" stroke-miterlimit="10" stroke-width=".3985" d="M366.887 107.24a1.841 1.841 0 1 0-3.682 0 1.841 1.841 0 0 0 3.682 0Z"/><path d="M373.55 107.24a2.126 2.126 0 1 0-4.252 0 2.126 2.126 0 0 0 4.252 0"/><path fill="none" stroke="#000" stroke-miterlimit="10" stroke-width=".3985" d="M373.55 107.24a2.126 2.126 0 1 0-4.252 0 2.126 2.126 0 0 0 4.252 0Z"/><path d="M379.643 107.24a1.841 1.841 0 1 0-3.682 0 1.841 1.841 0 0 0 3.682 0"/><path fill="none" stroke="#000" stroke-miterlimit="10" stroke-width=".3985" d="M379.643 107.24a1.841 1.841 0 1 0-3.682 0 1.841 1.841 0 0 0 3.682 0Z"/><path d="M386.557 107.24a2.377 2.377 0 1 0-4.754 0 2.377 2.377 0 0 0 4.754 0"/><path fill="none" stroke="#000" stroke-miterlimit="10" stroke-width=".3985" d="M386.557 107.24a2.377 2.377 0 1 0-4.754 0 2.377 2.377 0 0 0 4.754 0Z"/><path d="M392.684 107.24a2.126 2.126 0 1 0-4.252 0 2.126 2.126 0 0 0 4.252 0"/><path fill="none" stroke="#000" stroke-miterlimit="10" stroke-width=".3985" d="M392.684 107.24a2.126 2.126 0 1 0-4.252 0 2.126 2.126 0 0 0 4.252 0Z"/><path d="M399.54 107.24a2.604 2.604 0 1 0-5.208 0 2.604 2.604 0 0 0 5.208 0"/><path fill="none" stroke="#000" stroke-miterlimit="10" stroke-width=".3985" d="M399.54 107.24a2.604 2.604 0 1 0-5.208 0 2.604 2.604 0 0 0 5.208 0Z"/><path d="M303.107 116.806a1.841 1.841 0 1 0-3.682 0 1.841 1.841 0 0 0 3.682 0"/><path fill="none" stroke="#000" stroke-miterlimit="10" stroke-width=".3985" d="M303.107 116.806a1.841 1.841 0 1 0-3.682 0 1.841 1.841 0 0 0 3.682 0Z"/><path d="M309.77 116.806a2.126 2.126 0 1 0-4.252 0 2.126 2.126 0 0 0 4.252 0"/><path fill="none" stroke="#000" stroke-miterlimit="10" stroke-width=".3985" d="M309.77 116.806a2.126 2.126 0 1 0-4.252 0 2.126 2.126 0 0 0 4.252 0Z"/><path d="M315.863 116.806a1.841 1.841 0 1 0-3.682 0 1.841 1.841 0 0 0 3.682 0"/><path fill="none" stroke="#000" stroke-miterlimit="10" stroke-width=".3985" d="M315.863 116.806a1.841 1.841 0 1 0-3.682 0 1.841 1.841 0 0 0 3.682 0Z"/><path d="M322.526 116.806a2.126 2.126 0 1 0-4.252 0 2.126 2.126 0 0 0 4.252 0"/><path fill="none" stroke="#000" stroke-miterlimit="10" stroke-width=".3985" d="M322.526 116.806a2.126 2.126 0 1 0-4.252 0 2.126 2.126 0 0 0 4.252 0Z"/><path d="M328.62 116.806a1.841 1.841 0 1 0-3.683 0 1.841 1.841 0 0 0 3.682 0"/><path fill="none" stroke="#000" stroke-miterlimit="10" stroke-width=".3985" d="M328.62 116.806a1.841 1.841 0 1 0-3.683 0 1.841 1.841 0 0 0 3.682 0Z"/><path d="M335.533 116.806a2.377 2.377 0 1 0-4.754 0 2.377 2.377 0 0 0 4.754 0"/><path fill="none" stroke="#000" stroke-miterlimit="10" stroke-width=".3985" d="M335.533 116.806a2.377 2.377 0 1 0-4.754 0 2.377 2.377 0 0 0 4.754 0Z"/><path d="M341.911 116.806a2.377 2.377 0 1 0-4.754 0 2.377 2.377 0 0 0 4.754 0"/><path fill="none" stroke="#000" stroke-miterlimit="10" stroke-width=".3985" d="M341.911 116.806a2.377 2.377 0 1 0-4.754 0 2.377 2.377 0 0 0 4.754 0Z"/><path d="M348.038 116.806a2.126 2.126 0 1 0-4.252 0 2.126 2.126 0 0 0 4.252 0"/><path fill="none" stroke="#000" stroke-miterlimit="10" stroke-width=".3985" d="M348.038 116.806a2.126 2.126 0 1 0-4.252 0 2.126 2.126 0 0 0 4.252 0Z"/><path d="M354.416 116.806a2.126 2.126 0 1 0-4.252 0 2.126 2.126 0 0 0 4.252 0"/><path fill="none" stroke="#000" stroke-miterlimit="10" stroke-width=".3985" d="M354.416 116.806a2.126 2.126 0 1 0-4.252 0 2.126 2.126 0 0 0 4.252 0Z"/><path d="M360.51 116.806a1.841 1.841 0 1 0-3.683 0 1.841 1.841 0 0 0 3.682 0"/><path fill="none" stroke="#000" stroke-miterlimit="10" stroke-width=".3985" d="M360.51 116.806a1.841 1.841 0 1 0-3.683 0 1.841 1.841 0 0 0 3.682 0Z"/><path d="M367.172 116.806a2.126 2.126 0 1 0-4.252 0 2.126 2.126 0 0 0 4.252 0"/><path fill="none" stroke="#000" stroke-miterlimit="10" stroke-width=".3985" d="M367.172 116.806a2.126 2.126 0 1 0-4.252 0 2.126 2.126 0 0 0 4.252 0Z"/><path d="M373.265 116.806a1.841 1.841 0 1 0-3.682 0 1.841 1.841 0 0 0 3.682 0"/><path fill="none" stroke="#000" stroke-miterlimit="10" stroke-width=".3985" d="M373.265 116.806a1.841 1.841 0 1 0-3.682 0 1.841 1.841 0 0 0 3.682 0Z"/><path d="M379.928 116.806a2.126 2.126 0 1 0-4.252 0 2.126 2.126 0 0 0 4.252 0"/><path fill="none" stroke="#000" stroke-miterlimit="10" stroke-width=".3985" d="M379.928 116.806a2.126 2.126 0 1 0-4.252 0 2.126 2.126 0 0 0 4.252 0Z"/><path d="M386.306 116.806a2.126 2.126 0 1 0-4.252 0 2.126 2.126 0 0 0 4.252 0"/><path fill="none" stroke="#000" stroke-miterlimit="10" stroke-width=".3985" d="M386.306 116.806a2.126 2.126 0 1 0-4.252 0 2.126 2.126 0 0 0 4.252 0Z"/><path d="M393.162 116.806a2.604 2.604 0 1 0-5.208 0 2.604 2.604 0 0 0 5.208 0"/><path fill="none" stroke="#000" stroke-miterlimit="10" stroke-width=".3985" d="M393.162 116.806a2.604 2.604 0 1 0-5.208 0 2.604 2.604 0 0 0 5.208 0Z"/><path d="M399.062 116.806a2.126 2.126 0 1 0-4.252 0 2.126 2.126 0 0 0 4.252 0"/><path fill="none" stroke="#000" stroke-miterlimit="10" stroke-width=".3985" d="M399.062 116.806a2.126 2.126 0 1 0-4.252 0 2.126 2.126 0 0 0 4.252 0Z"/><path d="M302.77 139.13a1.503 1.503 0 1 0-3.007 0 1.503 1.503 0 0 0 3.006 0"/><path fill="none" stroke="#000" stroke-miterlimit="10" stroke-width=".3985" d="M302.77 139.13a1.503 1.503 0 1 0-3.007 0 1.503 1.503 0 0 0 3.006 0Z"/><path d="M310.02 139.13a2.377 2.377 0 1 0-4.753 0 2.377 2.377 0 0 0 4.754 0"/><path fill="none" stroke="#000" stroke-miterlimit="10" stroke-width=".3985" d="M310.02 139.13a2.377 2.377 0 1 0-4.753 0 2.377 2.377 0 0 0 4.754 0Z"/><path d="M316.399 139.13a2.377 2.377 0 1 0-4.754 0 2.377 2.377 0 0 0 4.754 0"/><path fill="none" stroke="#000" stroke-miterlimit="10" stroke-width=".3985" d="M316.399 139.13a2.377 2.377 0 1 0-4.754 0 2.377 2.377 0 0 0 4.754 0Z"/><path d="M322.241 139.13a1.841 1.841 0 1 0-3.682 0 1.841 1.841 0 0 0 3.682 0"/><path fill="none" stroke="#000" stroke-miterlimit="10" stroke-width=".3985" d="M322.241 139.13a1.841 1.841 0 1 0-3.682 0 1.841 1.841 0 0 0 3.682 0Z"/><path d="M328.904 139.13a2.126 2.126 0 1 0-4.252 0 2.126 2.126 0 0 0 4.252 0"/><path fill="none" stroke="#000" stroke-miterlimit="10" stroke-width=".3985" d="M328.904 139.13a2.126 2.126 0 1 0-4.252 0 2.126 2.126 0 0 0 4.252 0Z"/><path d="M335.533 139.13a2.377 2.377 0 1 0-4.754 0 2.377 2.377 0 0 0 4.754 0"/><path fill="none" stroke="#000" stroke-miterlimit="10" stroke-width=".3985" d="M335.533 139.13a2.377 2.377 0 1 0-4.754 0 2.377 2.377 0 0 0 4.754 0Z"/><path d="M341.911 139.13a2.377 2.377 0 1 0-4.754 0 2.377 2.377 0 0 0 4.754 0"/><path fill="none" stroke="#000" stroke-miterlimit="10" stroke-width=".3985" d="M341.911 139.13a2.377 2.377 0 1 0-4.754 0 2.377 2.377 0 0 0 4.754 0Z"/><path d="M345.912 139.13"/><path fill="none" stroke="#000" stroke-miterlimit="10" stroke-width=".3985" d="M345.912 139.13Z"/><path d="M354.667 139.13a2.377 2.377 0 1 0-4.754 0 2.377 2.377 0 0 0 4.754 0"/><path fill="none" stroke="#000" stroke-miterlimit="10" stroke-width=".3985" d="M354.667 139.13a2.377 2.377 0 1 0-4.754 0 2.377 2.377 0 0 0 4.754 0Z"/><path d="M361.045 139.13a2.377 2.377 0 1 0-4.754 0 2.377 2.377 0 0 0 4.754 0"/><path fill="none" stroke="#000" stroke-miterlimit="10" stroke-width=".3985" d="M361.045 139.13a2.377 2.377 0 1 0-4.754 0 2.377 2.377 0 0 0 4.754 0Z"/><path d="M367.172 139.13a2.126 2.126 0 1 0-4.252 0 2.126 2.126 0 0 0 4.252 0"/><path fill="none" stroke="#000" stroke-miterlimit="10" stroke-width=".3985" d="M367.172 139.13a2.126 2.126 0 1 0-4.252 0 2.126 2.126 0 0 0 4.252 0Z"/><path d="M373.265 139.13a1.841 1.841 0 1 0-3.682 0 1.841 1.841 0 0 0 3.682 0"/><path fill="none" stroke="#000" stroke-miterlimit="10" stroke-width=".3985" d="M373.265 139.13a1.841 1.841 0 1 0-3.682 0 1.841 1.841 0 0 0 3.682 0Z"/><path d="M380.18 139.13a2.377 2.377 0 1 0-4.755 0 2.377 2.377 0 0 0 4.754 0"/><path fill="none" stroke="#000" stroke-miterlimit="10" stroke-width=".3985" d="M380.18 139.13a2.377 2.377 0 1 0-4.755 0 2.377 2.377 0 0 0 4.754 0Z"/><path d="M386.557 139.13a2.377 2.377 0 1 0-4.754 0 2.377 2.377 0 0 0 4.754 0"/><path fill="none" stroke="#000" stroke-miterlimit="10" stroke-width=".3985" d="M386.557 139.13a2.377 2.377 0 1 0-4.754 0 2.377 2.377 0 0 0 4.754 0Z"/><path d="M391.621 139.13a1.063 1.063 0 1 0-2.126 0 1.063 1.063 0 0 0 2.126 0"/><path fill="none" stroke="#000" stroke-miterlimit="10" stroke-width=".3985" d="M391.621 139.13a1.063 1.063 0 1 0-2.126 0 1.063 1.063 0 0 0 2.126 0Z"/><path d="M399.313 139.13a2.377 2.377 0 1 0-4.754 0 2.377 2.377 0 0 0 4.754 0"/><path fill="none" stroke="#000" stroke-miterlimit="10" stroke-width=".3985" d="M399.313 139.13a2.377 2.377 0 1 0-4.754 0 2.377 2.377 0 0 0 4.754 0Z"/><path d="M303.643 148.697a2.377 2.377 0 1 0-4.754 0 2.377 2.377 0 0 0 4.754 0"/><path fill="none" stroke="#000" stroke-miterlimit="10" stroke-width=".3985" d="M303.643 148.697a2.377 2.377 0 1 0-4.754 0 2.377 2.377 0 0 0 4.754 0Z"/><path d="M309.77 148.697a2.126 2.126 0 1 0-4.252 0 2.126 2.126 0 0 0 4.252 0"/><path fill="none" stroke="#000" stroke-miterlimit="10" stroke-width=".3985" d="M309.77 148.697a2.126 2.126 0 1 0-4.252 0 2.126 2.126 0 0 0 4.252 0Z"/><path d="M315.525 148.697a1.503 1.503 0 1 0-3.006 0 1.503 1.503 0 0 0 3.006 0"/><path fill="none" stroke="#000" stroke-miterlimit="10" stroke-width=".3985" d="M315.525 148.697a1.503 1.503 0 1 0-3.006 0 1.503 1.503 0 0 0 3.006 0Z"/><path d="M322.777 148.697a2.377 2.377 0 1 0-4.754 0 2.377 2.377 0 0 0 4.754 0"/><path fill="none" stroke="#000" stroke-miterlimit="10" stroke-width=".3985" d="M322.777 148.697a2.377 2.377 0 1 0-4.754 0 2.377 2.377 0 0 0 4.754 0Z"/><path d="M329.155 148.697a2.377 2.377 0 1 0-4.754 0 2.377 2.377 0 0 0 4.754 0"/><path fill="none" stroke="#000" stroke-miterlimit="10" stroke-width=".3985" d="M329.155 148.697a2.377 2.377 0 1 0-4.754 0 2.377 2.377 0 0 0 4.754 0Z"/><path d="M334.66 148.697a1.503 1.503 0 1 0-3.007 0 1.503 1.503 0 0 0 3.006 0"/><path fill="none" stroke="#000" stroke-miterlimit="10" stroke-width=".3985" d="M334.66 148.697a1.503 1.503 0 1 0-3.007 0 1.503 1.503 0 0 0 3.006 0Z"/><path d="M341.911 148.697a2.377 2.377 0 1 0-4.754 0 2.377 2.377 0 0 0 4.754 0"/><path fill="none" stroke="#000" stroke-miterlimit="10" stroke-width=".3985" d="M341.911 148.697a2.377 2.377 0 1 0-4.754 0 2.377 2.377 0 0 0 4.754 0Z"/><path d="M348.289 148.697a2.377 2.377 0 1 0-4.754 0 2.377 2.377 0 0 0 4.754 0"/><path fill="none" stroke="#000" stroke-miterlimit="10" stroke-width=".3985" d="M348.289 148.697a2.377 2.377 0 1 0-4.754 0 2.377 2.377 0 0 0 4.754 0Z"/><path d="M354.667 148.697a2.377 2.377 0 1 0-4.754 0 2.377 2.377 0 0 0 4.754 0"/><path fill="none" stroke="#000" stroke-miterlimit="10" stroke-width=".3985" d="M354.667 148.697a2.377 2.377 0 1 0-4.754 0 2.377 2.377 0 0 0 4.754 0Z"/><path d="M360.171 148.697a1.503 1.503 0 1 0-3.006 0 1.503 1.503 0 0 0 3.006 0"/><path fill="none" stroke="#000" stroke-miterlimit="10" stroke-width=".3985" d="M360.171 148.697a1.503 1.503 0 1 0-3.006 0 1.503 1.503 0 0 0 3.006 0Z"/><path d="M367.423 148.697a2.377 2.377 0 1 0-4.754 0 2.377 2.377 0 0 0 4.754 0"/><path fill="none" stroke="#000" stroke-miterlimit="10" stroke-width=".3985" d="M367.423 148.697a2.377 2.377 0 1 0-4.754 0 2.377 2.377 0 0 0 4.754 0Z"/><path d="M373.801 148.697a2.377 2.377 0 1 0-4.754 0 2.377 2.377 0 0 0 4.754 0"/><path fill="none" stroke="#000" stroke-miterlimit="10" stroke-width=".3985" d="M373.801 148.697a2.377 2.377 0 1 0-4.754 0 2.377 2.377 0 0 0 4.754 0Z"/><path d="M379.305 148.697a1.503 1.503 0 1 0-3.006 0 1.503 1.503 0 0 0 3.006 0"/><path fill="none" stroke="#000" stroke-miterlimit="10" stroke-width=".3985" d="M379.305 148.697a1.503 1.503 0 1 0-3.006 0 1.503 1.503 0 0 0 3.006 0Z"/><path d="M386.306 148.697a2.126 2.126 0 1 0-4.252 0 2.126 2.126 0 0 0 4.252 0"/><path fill="none" stroke="#000" stroke-miterlimit="10" stroke-width=".3985" d="M386.306 148.697a2.126 2.126 0 1 0-4.252 0 2.126 2.126 0 0 0 4.252 0Z"/><path d="M392.935 148.697a2.377 2.377 0 1 0-4.754 0 2.377 2.377 0 0 0 4.754 0"/><path fill="none" stroke="#000" stroke-miterlimit="10" stroke-width=".3985" d="M392.935 148.697a2.377 2.377 0 1 0-4.754 0 2.377 2.377 0 0 0 4.754 0Z"/><path d="M399.313 148.697a2.377 2.377 0 1 0-4.754 0 2.377 2.377 0 0 0 4.754 0"/><path fill="none" stroke="#000" stroke-miterlimit="10" stroke-width=".3985" d="M399.313 148.697a2.377 2.377 0 1 0-4.754 0 2.377 2.377 0 0 0 4.754 0Z"/><path d="M302.329 171.02a1.063 1.063 0 1 0-2.126 0 1.063 1.063 0 0 0 2.126 0"/><path fill="none" stroke="#000" stroke-miterlimit="10" stroke-width=".3985" d="M302.329 171.02a1.063 1.063 0 1 0-2.126 0 1.063 1.063 0 0 0 2.126 0Z"/><path d="M307.644 171.02"/><path fill="none" stroke="#000" stroke-miterlimit="10" stroke-width=".3985" d="M307.644 171.02Z"/><path d="M314.022 171.02"/><path fill="none" stroke="#000" stroke-miterlimit="10" stroke-width=".3985" d="M314.022 171.02Z"/><path d="M320.4 171.02"/><path fill="none" stroke="#000" stroke-miterlimit="10" stroke-width=".3985" d="M320.4 171.02Z"/><path d="M326.778 171.02"/><path fill="none" stroke="#000" stroke-miterlimit="10" stroke-width=".3985" d="M326.778 171.02Z"/><path d="M333.156 171.02"/><path fill="none" stroke="#000" stroke-miterlimit="10" stroke-width=".3985" d="M333.156 171.02Z"/><path d="M339.534 171.02"/><path fill="none" stroke="#000" stroke-miterlimit="10" stroke-width=".3985" d="M339.534 171.02Z"/><path d="M345.912 171.02"/><path fill="none" stroke="#000" stroke-miterlimit="10" stroke-width=".3985" d="M345.912 171.02Z"/><path d="M352.29 171.02"/><path fill="none" stroke="#000" stroke-miterlimit="10" stroke-width=".3985" d="M352.29 171.02Z"/><path d="M358.668 171.02"/><path fill="none" stroke="#000" stroke-miterlimit="10" stroke-width=".3985" d="M358.668 171.02Z"/><path d="M365.046 171.02"/><path fill="none" stroke="#000" stroke-miterlimit="10" stroke-width=".3985" d="M365.046 171.02Z"/><path d="M371.424 171.02"/><path fill="none" stroke="#000" stroke-miterlimit="10" stroke-width=".3985" d="M371.424 171.02Z"/><path d="M379.928 171.02a2.126 2.126 0 1 0-4.252 0 2.126 2.126 0 0 0 4.252 0"/><path fill="none" stroke="#000" stroke-miterlimit="10" stroke-width=".3985" d="M379.928 171.02a2.126 2.126 0 1 0-4.252 0 2.126 2.126 0 0 0 4.252 0Z"/><path d="M386.993 171.02a2.812 2.812 0 1 0-5.625 0 2.812 2.812 0 0 0 5.625 0"/><path fill="none" stroke="#000" stroke-miterlimit="10" stroke-width=".3985" d="M386.993 171.02a2.812 2.812 0 1 0-5.625 0 2.812 2.812 0 0 0 5.625 0Z"/><path d="M393.162 171.02a2.604 2.604 0 1 0-5.208 0 2.604 2.604 0 0 0 5.208 0"/><path fill="none" stroke="#000" stroke-miterlimit="10" stroke-width=".3985" d="M393.162 171.02a2.604 2.604 0 1 0-5.208 0 2.604 2.604 0 0 0 5.208 0Z"/><path d="M399.749 171.02a2.812 2.812 0 1 0-5.625 0 2.812 2.812 0 0 0 5.625 0"/><path fill="none" stroke="#000" stroke-miterlimit="10" stroke-width=".3985" d="M399.749 171.02a2.812 2.812 0 1 0-5.625 0 2.812 2.812 0 0 0 5.625 0Z"/><path d="M303.87 180.587a2.604 2.604 0 1 0-5.208 0 2.604 2.604 0 0 0 5.208 0"/><path fill="none" stroke="#000" stroke-miterlimit="10" stroke-width=".3985" d="M303.87 180.587a2.604 2.604 0 1 0-5.208 0 2.604 2.604 0 0 0 5.208 0Z"/><path d="M310.456 180.587a2.812 2.812 0 1 0-5.624 0 2.812 2.812 0 0 0 5.624 0"/><path fill="none" stroke="#000" stroke-miterlimit="10" stroke-width=".3985" d="M310.456 180.587a2.812 2.812 0 1 0-5.624 0 2.812 2.812 0 0 0 5.624 0Z"/><path d="M316.626 180.587a2.604 2.604 0 1 0-5.208 0 2.604 2.604 0 0 0 5.208 0"/><path fill="none" stroke="#000" stroke-miterlimit="10" stroke-width=".3985" d="M316.626 180.587a2.604 2.604 0 1 0-5.208 0 2.604 2.604 0 0 0 5.208 0Z"/><path d="M323.212 180.587a2.812 2.812 0 1 0-5.624 0 2.812 2.812 0 0 0 5.624 0"/><path fill="none" stroke="#000" stroke-miterlimit="10" stroke-width=".3985" d="M323.212 180.587a2.812 2.812 0 1 0-5.624 0 2.812 2.812 0 0 0 5.624 0Z"/><path d="M329.382 180.587a2.604 2.604 0 1 0-5.208 0 2.604 2.604 0 0 0 5.208 0"/><path fill="none" stroke="#000" stroke-miterlimit="10" stroke-width=".3985" d="M329.382 180.587a2.604 2.604 0 1 0-5.208 0 2.604 2.604 0 0 0 5.208 0Z"/><path d="M335.969 180.587a2.812 2.812 0 1 0-5.625 0 2.812 2.812 0 0 0 5.625 0"/><path fill="none" stroke="#000" stroke-miterlimit="10" stroke-width=".3985" d="M335.969 180.587a2.812 2.812 0 1 0-5.625 0 2.812 2.812 0 0 0 5.625 0Z"/><path d="M342.347 180.587a2.812 2.812 0 1 0-5.625 0 2.812 2.812 0 0 0 5.625 0"/><path fill="none" stroke="#000" stroke-miterlimit="10" stroke-width=".3985" d="M342.347 180.587a2.812 2.812 0 1 0-5.625 0 2.812 2.812 0 0 0 5.625 0Z"/><path d="M348.516 180.587a2.604 2.604 0 1 0-5.208 0 2.604 2.604 0 0 0 5.208 0"/><path fill="none" stroke="#000" stroke-miterlimit="10" stroke-width=".3985" d="M348.516 180.587a2.604 2.604 0 1 0-5.208 0 2.604 2.604 0 0 0 5.208 0Z"/><path d="M354.894 180.587a2.604 2.604 0 1 0-5.208 0 2.604 2.604 0 0 0 5.208 0"/><path fill="none" stroke="#000" stroke-miterlimit="10" stroke-width=".3985" d="M354.894 180.587a2.604 2.604 0 1 0-5.208 0 2.604 2.604 0 0 0 5.208 0Z"/><path d="M361.48 180.587a2.812 2.812 0 1 0-5.624 0 2.812 2.812 0 0 0 5.625 0"/><path fill="none" stroke="#000" stroke-miterlimit="10" stroke-width=".3985" d="M361.48 180.587a2.812 2.812 0 1 0-5.624 0 2.812 2.812 0 0 0 5.625 0Z"/><path d="M367.65 180.587a2.604 2.604 0 1 0-5.208 0 2.604 2.604 0 0 0 5.208 0"/><path fill="none" stroke="#000" stroke-miterlimit="10" stroke-width=".3985" d="M367.65 180.587a2.604 2.604 0 1 0-5.208 0 2.604 2.604 0 0 0 5.208 0Z"/><path d="M374.237 180.587a2.812 2.812 0 1 0-5.625 0 2.812 2.812 0 0 0 5.625 0"/><path fill="none" stroke="#000" stroke-miterlimit="10" stroke-width=".3985" d="M374.237 180.587a2.812 2.812 0 1 0-5.625 0 2.812 2.812 0 0 0 5.625 0Z"/><path d="M380.406 180.587a2.604 2.604 0 1 0-5.208 0 2.604 2.604 0 0 0 5.208 0"/><path fill="none" stroke="#000" stroke-miterlimit="10" stroke-width=".3985" d="M380.406 180.587a2.604 2.604 0 1 0-5.208 0 2.604 2.604 0 0 0 5.208 0Z"/><path d="M386.784 180.587a2.604 2.604 0 1 0-5.208 0 2.604 2.604 0 0 0 5.208 0"/><path fill="none" stroke="#000" stroke-miterlimit="10" stroke-width=".3985" d="M386.784 180.587a2.604 2.604 0 1 0-5.208 0 2.604 2.604 0 0 0 5.208 0Z"/><path d="M393.162 180.587a2.604 2.604 0 1 0-5.208 0 2.604 2.604 0 0 0 5.208 0"/><path fill="none" stroke="#000" stroke-miterlimit="10" stroke-width=".3985" d="M393.162 180.587a2.604 2.604 0 1 0-5.208 0 2.604 2.604 0 0 0 5.208 0Z"/><path d="M399.749 180.587a2.812 2.812 0 1 0-5.625 0 2.812 2.812 0 0 0 5.625 0"/><path fill="none" stroke="#000" stroke-miterlimit="10" stroke-width=".3985" d="M399.749 180.587a2.812 2.812 0 1 0-5.625 0 2.812 2.812 0 0 0 5.625 0Z"/></svg>