<svg xmlns="http://www.w3.org/2000/svg" xmlns:xlink="http://www.w3.org/1999/xlink" width="429.07pt" height="250.39pt" viewBox="0 0 429.07 250.39"><defs><path id="ai" d="M2.335-4.433c0-.188-.014-.195-.21-.195-.445.439-1.08.446-1.365.446v.25c.167 0 .627 0 1.01-.194v3.554c0 .23 0 .321-.697.321H.81V0c.125-.007.982-.028 1.24-.028.216 0 1.094.021 1.248.028v-.25h-.265c-.697 0-.697-.092-.697-.322z"/><path id="ak" d="M3.52-1.269h-.237c-.021.154-.09.565-.181.635-.056.042-.593.042-.69.042H1.129a24 24 0 0 1 1.394-1.171c.516-.412.997-.844.997-1.506 0-.843-.739-1.36-1.631-1.36-.864 0-1.45.607-1.45 1.249 0 .355.3.39.37.39.167 0 .369-.119.369-.37 0-.125-.049-.369-.411-.369.216-.495.69-.648 1.017-.648.697 0 1.06.543 1.06 1.108 0 .606-.432 1.087-.655 1.338L.509-.27C.439-.21.439-.196.439 0h2.872z"/><path id="ah" d="M5.186-1.575c.111 0 .278 0 .278-.167 0-.175-.16-.175-.278-.175H1.032c-.112 0-.28 0-.28.168 0 .174.161.174.28.174z"/><path id="ad" d="M3.297 2.39c0-.03 0-.05-.17-.219C1.882.916 1.564-.966 1.564-2.49c0-1.733.378-3.466 1.603-4.711.13-.12.13-.14.13-.17 0-.07-.04-.099-.1-.099-.1 0-.996.677-1.583 1.942C1.106-4.432.986-3.327.986-2.49c0 .777.11 1.982.657 3.108.598 1.225 1.455 1.872 1.554 1.872.06 0 .1-.03.1-.1"/><path id="ag" d="M2.878-2.49c0-.777-.11-1.982-.657-3.108C1.623-6.823.767-7.47.667-7.47c-.06 0-.1.04-.1.1 0 .03 0 .05.19.229.976.986 1.544 2.57 1.544 4.651C2.3-.787 1.932.966.697 2.221c-.13.12-.13.14-.13.17 0 .06.04.099.1.099.1 0 .996-.677 1.584-1.942.508-1.096.627-2.201.627-3.038"/><path id="am" d="M4.582-3.187c0-.797-.05-1.594-.399-2.33-.458-.957-1.275-1.116-1.693-1.116-.598 0-1.325.259-1.733 1.185-.319.687-.369 1.464-.369 2.26 0 .748.04 1.644.449 2.401A1.83 1.83 0 0 0 2.48.22C3.018.22 3.775.01 4.213-.936c.319-.687.369-1.464.369-2.251M2.48 0c-.388 0-.976-.249-1.155-1.205-.11-.598-.11-1.514-.11-2.102 0-.637 0-1.295.08-1.832.189-1.186.936-1.275 1.185-1.275.329 0 .986.179 1.175 1.165.1.558.1 1.315.1 1.942 0 .747 0 1.425-.11 2.062C3.496-.299 2.928 0 2.48 0"/><path id="ac" d="M2.928-6.374c0-.24 0-.26-.229-.26-.617.638-1.494.638-1.813.638v.309c.2 0 .787 0 1.305-.26v5.16c0 .359-.03.478-.926.478H.946V0c.349-.03 1.215-.03 1.614-.03s1.265 0 1.613.03v-.309h-.318c-.897 0-.927-.11-.927-.478z"/><path id="an" d="M2.928-1.643v.866c0 .359-.02.468-.757.468h-.209V0c.408-.03.926-.03 1.345-.03s.946 0 1.354.03v-.309h-.209c-.737 0-.757-.11-.757-.468v-.866h.996v-.31h-.996v-4.531c0-.2 0-.259-.16-.259-.089 0-.119 0-.198.12L.279-1.953v.31zm.06-.31H.558l2.43-3.714z"/><path id="Z" d="M4.472-2.002c0-1.185-.817-2.181-1.892-2.181-.478 0-.907.16-1.265.508v-1.942c.199.06.528.129.846.129 1.225 0 1.923-.906 1.923-1.036 0-.06-.03-.11-.1-.11-.01 0-.03 0-.08.03-.199.09-.687.29-1.354.29-.399 0-.857-.07-1.325-.28-.08-.03-.1-.03-.12-.03-.099 0-.099.08-.099.24v2.948c0 .18 0 .259.14.259.07 0 .089-.03.129-.09.11-.16.478-.697 1.285-.697.518 0 .767.458.846.637.16.369.18.757.18 1.255 0 .349 0 .947-.24 1.365-.238.388-.607.647-1.065.647C1.554-.06.986-.588.817-1.175c.03.01.06.02.169.02.329 0 .498-.25.498-.488s-.17-.488-.498-.488c-.14 0-.488.07-.488.527C.498-.747 1.185.22 2.301.22c1.155 0 2.171-.956 2.171-2.221"/><path id="ao" d="M1.315-3.267v-.239c0-2.52 1.235-2.878 1.743-2.878.239 0 .657.06.876.398-.15 0-.548 0-.548.448 0 .309.24.458.459.458.159 0 .458-.09.458-.478 0-.597-.439-1.075-1.265-1.075-1.275 0-2.62 1.284-2.62 3.486C.418-.488 1.574.219 2.5.219c1.106 0 2.052-.936 2.052-2.25 0-1.266-.887-2.222-1.992-2.222-.678 0-1.046.508-1.245.986M2.5-.06c-.628 0-.926-.597-.986-.747-.18-.468-.18-1.265-.18-1.444 0-.777.32-1.773 1.216-1.773.16 0 .617 0 .926.618.18.368.18.876.18 1.364 0 .478 0 .976-.17 1.335-.299.597-.757.647-.986.647"/><path id="ab" d="M3.655-3.167v.318c0 2.331-1.036 2.79-1.613 2.79-.17 0-.707-.02-.976-.36.438 0 .518-.288.518-.457 0-.31-.24-.459-.459-.459-.159 0-.458.09-.458.478C.667-.189 1.205.22 2.052.22c1.285 0 2.5-1.354 2.5-3.496 0-2.68-1.146-3.356-2.032-3.356-.548 0-1.036.179-1.464.627-.409.448-.638.867-.638 1.614 0 1.245.877 2.22 1.992 2.22.608 0 1.016-.418 1.245-.995M2.42-2.4c-.16 0-.617 0-.926-.628-.18-.368-.18-.866-.18-1.354 0-.538 0-1.006.21-1.375.269-.498.647-.627.996-.627.458 0 .787.338.956.786.12.32.16.947.16 1.405 0 .827-.34 1.793-1.216 1.793"/><path id="al" d="M6.843-3.257c.149 0 .338 0 .338-.2s-.19-.198-.329-.198H.886c-.139 0-.328 0-.328.199s.189.2.338.2zm.01 1.932c.139 0 .328 0 .328-.199s-.19-.2-.338-.2H.896c-.149 0-.338 0-.338.2s.189.2.328.2z"/><path id="af" d="M4.75-2.35c0-1.564-.925-2.052-1.662-2.052-1.365 0-2.68 1.424-2.68 2.828C.408-.647 1.006.11 2.022.11c.627 0 1.344-.23 2.101-.837.13.528.459.837.907.837.528 0 .836-.548.836-.708 0-.07-.06-.1-.12-.1-.069 0-.099.03-.129.1-.179.488-.537.488-.557.488-.31 0-.31-.776-.31-1.015 0-.21 0-.23.1-.35.937-1.174 1.146-2.33 1.146-2.34 0-.02-.01-.1-.12-.1-.1 0-.1.03-.149.21-.18.627-.508 1.384-.976 1.972zM4.085-.987c-.877.767-1.644.876-2.042.876-.598 0-.897-.448-.897-1.085 0-.488.26-1.564.578-2.072.468-.727 1.006-.916 1.355-.916.986 0 .986 1.305.986 2.081 0 .369 0 .947.02 1.116"/><path id="aa" d="M1.912-.528c0-.289-.239-.528-.528-.528s-.527.24-.527.528.239.528.527.528.528-.239.528-.528"/><path id="aj" d="M3.735-6.115c.06-.24.09-.34.279-.369.09-.01.408-.01.607-.01.708 0 1.813 0 1.813.986 0 .339-.16 1.026-.548 1.414-.259.26-.786.578-1.683.578H3.088zm1.434 2.729c1.006-.22 2.191-.917 2.191-1.923 0-.856-.896-1.494-2.2-1.494H2.32c-.199 0-.288 0-.288.2 0 .11.09.11.279.11.02 0 .209 0 .378.019.18.02.27.03.27.16 0 .04-.01.07-.04.189L1.583-.777c-.1.389-.12.468-.907.468-.179 0-.269 0-.269.2 0 .109.12.109.14.109.279 0 .976-.03 1.255-.03S2.789 0 3.068 0c.08 0 .199 0 .199-.2 0-.109-.09-.109-.279-.109-.369 0-.647 0-.647-.179 0-.06.02-.11.03-.17l.657-2.639h1.185c.906 0 1.086.558 1.086.907 0 .149-.08.458-.14.687-.07.279-.16.647-.16.846C5 .22 6.196.22 6.326.22 7.17.22 7.52-.787 7.52-.926c0-.12-.11-.12-.12-.12-.09 0-.11.07-.13.14C7.023-.17 6.595 0 6.365 0c-.328 0-.398-.22-.398-.608 0-.308.06-.816.1-1.135.02-.14.04-.329.04-.468 0-.767-.668-1.076-.937-1.175"/><path id="X" d="M2.052-3.984h.936c.2 0 .299 0 .299-.2 0-.109-.1-.109-.28-.109h-.876c.359-1.414.409-1.613.409-1.673 0-.17-.12-.269-.289-.269-.03 0-.309.01-.398.359l-.389 1.583H.528c-.2 0-.299 0-.299.19 0 .119.08.119.279.119h.876C.667-1.155.627-.986.627-.807c0 .538.379.917.917.917 1.016 0 1.583-1.455 1.583-1.534 0-.1-.08-.1-.12-.1-.089 0-.099.03-.148.14C2.43-.35 1.902-.11 1.564-.11c-.21 0-.309-.129-.309-.458 0-.239.02-.308.06-.478z"/><path id="I" d="M5.454-1.304c0-.071-.024-.335-.395-.335-.227 0-.299.084-.37.264-.3.693-1.077.753-1.304.753-.993 0-1.782-.753-1.914-1.674h3.504c.252 0 .479 0 .479-.443 0-1.4-.79-2.523-2.285-2.523-1.387 0-2.5 1.196-2.5 2.655A2.667 2.667 0 0 0 3.35.072c1.543 0 2.105-1.065 2.105-1.376m-.79-1.65H1.483c.156-1.017.933-1.615 1.686-1.615 1.196 0 1.448 1.017 1.495 1.615"/><path id="H" d="M5.98-4.676c0-.228-.18-.622-.85-.622-.214 0-.753.048-1.255.442a2 2 0 0 0-1.136-.37A1.91 1.91 0 0 0 .813-3.326c0 .263.06.718.395 1.148a1.57 1.57 0 0 0-.263.837c0 .42.203.754.299.862A1.7 1.7 0 0 0 .347.992c0 .993 1.208 1.747 2.727 1.747S5.8 1.997 5.8.993C5.8-.73 3.684-.73 3.289-.73H2.272c-.143 0-.693 0-.693-.645 0-.228.036-.275.083-.371.24.167.634.323 1.065.323a1.91 1.91 0 0 0 1.925-1.902c0-.299-.071-.67-.322-1.064.31-.168.598-.204.777-.216.072.371.43.383.43.383.144 0 .443-.096.443-.454M3.875-3.325c0 .682-.514 1.232-1.148 1.232-.598 0-1.136-.526-1.136-1.232s.55-1.232 1.136-1.232c.634 0 1.148.55 1.148 1.232M5.119.993c0 .55-.873 1.076-2.045 1.076S1.029 1.543 1.029.993c0-.18.06-.598.502-.873.275-.18.395-.18 1.22-.18 1.052 0 2.368 0 2.368 1.053"/><path id="K" d="M5.119.682c0-.156-.084-.204-.251-.323C3.218-.777 2.81-2.488 2.81-3.648c0-1.136.382-2.858 2.057-4.018.167-.12.25-.168.25-.323 0-.12-.059-.311-.346-.311-.299 0-1.184.693-1.734 1.47a5.43 5.43 0 0 0-1.005 3.182c0 1.328.479 2.44.98 3.146C3.565.263 4.438.993 4.773.993c.287 0 .347-.204.347-.311"/><path id="L" d="M4.114-3.648c0-.933-.227-2.14-1.088-3.3-.407-.55-1.292-1.352-1.65-1.352-.276 0-.347.203-.347.31 0 .144.083.204.299.348 1.459 1.028 2.009 2.63 2.009 3.982C3.337-2.583 2.99-.825 1.28.36c-.156.107-.251.167-.251.323 0 .107.071.31.346.31.3 0 1.184-.693 1.735-1.47a5.5 5.5 0 0 0 1.004-3.17"/><path id="J" d="M5.262-1.471c0-.24 0-.502-.394-.502-.383 0-.383.263-.383.514-.012.717-.694.837-.969.837-.933 0-.933-.598-.933-.885v-2.954h1.938c.167 0 .478 0 .478-.347s-.31-.347-.478-.347H2.583v-.98c0-.216 0-.49-.382-.49-.395 0-.395.274-.395.49v.98H.789c-.167 0-.49 0-.49.347s.311.347.478.347h1.029v3.014c0 1.112.765 1.519 1.627 1.519.645 0 1.83-.323 1.83-1.543"/><path id="ae" d="M6.564-2.29c.169 0 .348 0 .348-.2s-.179-.2-.348-.2H1.175c-.169 0-.348 0-.348.2s.179.2.348.2z"/><path id="Y" d="M7.191-3.327c0-.219-.06-.318-.14-.318-.05 0-.129.07-.139.259-.04.956-.697 1.504-1.394 1.504-.628 0-1.106-.429-1.594-.857-.508-.458-1.026-.916-1.703-.916C1.135-3.655.548-2.56.548-1.653c0 .318.13.318.14.318.109 0 .139-.199.139-.229.04-1.095.787-1.534 1.394-1.534.628 0 1.106.429 1.594.857.508.458 1.026.916 1.703.916 1.085 0 1.673-1.095 1.673-2.002"/><path id="P" d="M5.537-3.026c0-1.16-.657-2.248-1.925-2.248-1.567 0-3.134 1.71-3.134 3.408C.478-.826 1.124.12 2.344.12c.742 0 1.627-.287 2.476-1.005.167.67.538 1.005 1.052 1.005.646 0 .97-.67.97-.826 0-.107-.085-.107-.12-.107-.096 0-.108.036-.144.131-.108.3-.383.562-.67.562-.37 0-.37-.765-.37-1.495 1.22-1.459 1.506-2.966 1.506-2.978 0-.107-.095-.107-.131-.107-.108 0-.12.036-.168.25a7.4 7.4 0 0 1-1.208 2.44zm-.753 1.854C3.732-.227 2.787-.12 2.368-.12c-.85 0-1.088-.753-1.088-1.315 0-.514.263-1.734.634-2.392.49-.837 1.16-1.208 1.698-1.208 1.16 0 1.16 1.519 1.16 2.523 0 .3-.012.61-.012.91 0 .239.012.298.024.43"/><path id="R" d="M2.2-.574a.584.584 0 0 0-.573-.586.584.584 0 0 0-.586.574c0 .347.287.586.574.586A.584.584 0 0 0 2.2-.574"/><path id="ar" d="M2.464-3.504c.024-.072.323-.67.765-1.053a1.74 1.74 0 0 1 1.184-.478c.479 0 .646.359.646.837 0 .072 0 .311-.143.873l-.3 1.232A47 47 0 0 0 4.27-.718c-.048.18-.12.49-.12.539 0 .167.132.299.311.299.359 0 .419-.275.526-.706l.718-2.858c.024-.096.646-1.591 1.961-1.591.479 0 .646.359.646.837 0 .67-.466 1.973-.73 2.691-.107.287-.167.443-.167.658 0 .538.371.969.945.969 1.112 0 1.53-1.759 1.53-1.83 0-.06-.047-.108-.119-.108-.107 0-.12.036-.18.24C9.318-.623 8.875-.12 8.397-.12c-.12 0-.311-.012-.311-.394 0-.311.143-.694.191-.826.216-.574.754-1.985.754-2.679 0-.717-.419-1.255-1.328-1.255-.801 0-1.447.454-1.925 1.16-.036-.646-.43-1.16-1.328-1.16-1.064 0-1.626.753-1.842 1.052-.036-.682-.526-1.052-1.052-1.052-.347 0-.622.167-.85.622-.215.43-.382 1.16-.382 1.208s.048.107.131.107c.096 0 .108-.012.18-.287.18-.706.407-1.411.885-1.411.275 0 .37.191.37.55 0 .263-.119.73-.203 1.1l-.335 1.292c-.047.227-.179.765-.239.98C1.03-.8.897-.238.897-.178c0 .167.132.299.311.299a.46.46 0 0 0 .407-.252c.024-.06.131-.478.191-.717l.263-1.077z"/><path id="r" d="M2.464-3.504c.024-.072.323-.67.765-1.053a1.74 1.74 0 0 1 1.184-.478c.479 0 .646.359.646.837 0 .682-.49 2.045-.73 2.691-.107.287-.167.443-.167.658 0 .538.37.969.945.969 1.112 0 1.53-1.759 1.53-1.83 0-.06-.047-.108-.119-.108-.107 0-.12.036-.18.24C6.065-.599 5.61-.12 5.144-.12c-.12 0-.311-.012-.311-.394 0-.3.131-.658.203-.826.24-.657.742-1.997.742-2.679 0-.717-.419-1.255-1.328-1.255-1.064 0-1.626.753-1.842 1.052-.036-.682-.526-1.052-1.052-1.052-.383 0-.646.227-.85.634C.49-4.21.324-3.492.324-3.444s.048.107.131.107c.096 0 .108-.012.18-.287.191-.73.407-1.411.885-1.411.275 0 .37.191.37.55 0 .263-.119.73-.203 1.1l-.335 1.292c-.047.227-.179.765-.239.98C1.03-.8.897-.238.897-.178c0 .167.132.299.311.299a.46.46 0 0 0 .407-.252c.024-.06.131-.478.191-.717l.263-1.077z"/><path id="w" d="M2.404-4.808h1.1c.228 0 .347 0 .347-.215 0-.132-.072-.132-.31-.132H2.487L2.93-6.9c.048-.167.048-.191.048-.275 0-.191-.155-.299-.31-.299-.097 0-.372.036-.467.419l-.467 1.901H.61c-.24 0-.347 0-.347.227 0 .12.084.12.311.12H1.64L.849-1.65c-.096.418-.131.538-.131.693C.718-.395 1.112.12 1.782.12c1.208 0 1.854-1.747 1.854-1.83 0-.072-.048-.108-.12-.108-.024 0-.072 0-.095.048-.012.012-.024.024-.108.215C3.062-.957 2.512-.12 1.818-.12c-.359 0-.383-.299-.383-.562 0-.012 0-.239.036-.382z"/><path id="s" d="M5.669-1.064v-.67h-.263v.67c0 .681-.287.777-.455.777-.454 0-.454-.634-.454-.813v-2.093c0-.646 0-1.125-.526-1.591-.419-.383-.957-.55-1.483-.55-.981 0-1.735.646-1.735 1.423 0 .347.228.514.503.514.287 0 .49-.203.49-.49 0-.49-.43-.49-.61-.49.275-.503.85-.718 1.328-.718.55 0 1.256.455 1.256 1.53v.48C1.316-3.05.407-2.046.407-1.126c0 .946 1.1 1.245 1.83 1.245A1.63 1.63 0 0 0 3.79-.933c.048.562.419.993.933.993.251 0 .945-.168.945-1.124m-1.95-.622C3.72-.514 2.847-.12 2.333-.12c-.586 0-1.076-.43-1.076-1.004 0-1.579 2.033-1.722 2.464-1.746z"/><path id="F" d="M6.076-2.583c0-1.52-1.125-2.691-2.452-2.691-.658 0-1.22.299-1.627.801V-8.3L.335-8.17v.347c.813 0 .909.084.909.67V0h.263l.43-.777c.276.442.79.897 1.555.897 1.376 0 2.584-1.16 2.584-2.703m-.91-.012c0 .801-.119 1.303-.406 1.734-.24.37-.718.741-1.316.741C2.8-.12 2.38-.538 2.177-.86c-.156-.251-.156-.3-.156-.502v-2.464c0-.215 0-.24.132-.43.287-.431.813-.778 1.4-.778.358 0 1.614.143 1.614 2.44"/><path id="aq" d="M4.856-1.423c0-.108-.084-.108-.12-.108-.107 0-.12.036-.155.18-.263.849-.91 1.207-1.555 1.207-.73 0-1.698-.633-1.698-2.451 0-1.986 1.016-2.476 1.614-2.476.455 0 1.112.18 1.388.646-.144 0-.587 0-.587.49 0 .287.204.49.49.49.276 0 .503-.167.503-.514 0-.801-.837-1.375-1.806-1.375C1.53-5.334.42-4.09.42-2.584.419-1.051 1.567.12 2.919.12c1.578 0 1.937-1.436 1.937-1.543"/><path id="u" d="M6.16 0v-.347c-.814 0-.91-.084-.91-.67V-8.3l-1.662.131v.347c.813 0 .909.084.909.67v2.643a1.86 1.86 0 0 0-1.495-.765C1.615-5.274.419-4.102.419-2.571c0 1.519 1.136 2.69 2.451 2.69.91 0 1.436-.597 1.603-.825V.12zM4.472-1.4c0 .216 0 .252-.167.515-.287.419-.778.765-1.376.765-.31 0-1.602-.12-1.602-2.44 0-.86.143-1.339.406-1.734.24-.37.718-.741 1.316-.741.741 0 1.16.538 1.28.73.143.203.143.227.143.442z"/><path id="q" d="M4.868-1.423c0-.072-.06-.12-.132-.12-.096 0-.12.06-.143.12C4.282-.42 3.48-.143 2.978-.143s-1.71-.335-1.71-2.404v-.228H4.58c.263 0 .287 0 .287-.227 0-1.208-.646-2.332-2.093-2.332C1.41-5.334.359-4.102.359-2.62.359-1.041 1.579.12 2.906.12c1.424 0 1.962-1.292 1.962-1.543m-.742-1.579H1.28c.095-1.878 1.148-2.093 1.483-2.093 1.28 0 1.351 1.686 1.363 2.093"/><path id="N" d="m7.14-5.478-.31-2.667H.49v.347h.24c.86 0 .897.12.897.562v6.327c0 .443-.036.562-.897.562H.49V0C.777-.024 1.842-.024 2.2-.024c.42 0 1.472 0 1.819.024v-.347h-.36c-1.04 0-1.064-.143-1.064-.574v-2.978h1.053c1.124 0 1.244.395 1.244 1.4h.263v-3.146h-.263c0 1.005-.12 1.4-1.244 1.4H2.595V-7.32c0-.394.024-.478.55-.478H4.64c1.723 0 2.07.634 2.237 2.32z"/><path id="ap" d="M4.09-7.63c0-.443-.43-.79-1.004-.79-.838 0-1.782.646-1.782 1.866v1.4H.37v.346h.933v3.923c0 .538-.132.538-.91.538V0c.336-.024.993-.024 1.352-.024.323 0 1.172 0 1.447.024v-.347h-.239c-.873 0-.897-.131-.897-.562v-3.899H3.41v-.347H2.033v-1.4c0-1.075.55-1.626 1.04-1.626.096 0 .276.024.42.096a.48.48 0 0 0-.348.466c0 .276.192.467.467.467.287 0 .478-.191.478-.478"/><path id="G" d="M5.681-4.856a.56.56 0 0 0-.586-.55c-.622 0-1.088.383-1.256.562a2 2 0 0 0-1.232-.43C1.531-5.274.73-4.461.73-3.54c0 .682.418 1.124.538 1.232-.144.18-.359.526-.359.992 0 .694.419.993.514 1.053-.55.155-1.1.586-1.1 1.208 0 .825 1.124 1.507 2.595 1.507 1.423 0 2.608-.634 2.608-1.531 0-.3-.084-1.005-.802-1.375-.61-.311-1.208-.311-2.236-.311-.73 0-.814 0-1.029-.228a.88.88 0 0 1-.227-.598c0-.203.072-.406.191-.574.562.371 1.04.371 1.172.371 1.077 0 1.878-.813 1.878-1.734 0-.323-.096-.778-.478-1.16.466-.479 1.028-.479 1.088-.479.048 0 .108 0 .155.024-.12.048-.179.168-.179.3 0 .167.12.31.311.31.096 0 .311-.06.311-.323M3.648-3.54c0 .215 0 .705-.204 1.028a1.02 1.02 0 0 1-.837.467c-1.052 0-1.052-1.208-1.052-1.483 0-.215 0-.706.203-1.029a1.02 1.02 0 0 1 .837-.466c1.053 0 1.053 1.208 1.053 1.483M4.939.933c0 .706-.908 1.268-2.009 1.268C1.782 2.2.91 1.615.91.933c0-.096.024-.562.478-.873.263-.168.371-.168 1.208-.168.993 0 2.344 0 2.344 1.04"/><path id="o" d="M2.882 0v-.347c-.777 0-.825-.06-.825-.526v-4.401l-1.626.131v.347c.765 0 .873.072.873.658v3.253c0 .538-.132.538-.91.538V0c.336-.024.91-.024 1.256-.024.132 0 .826 0 1.232.024m-.67-7.224a.58.58 0 1 0-.586.574.576.576 0 0 0 .587-.574"/><path id="B" d="M6.817-3.062h-.263C6.434-1.866 6.28-.347 4.186-.347h-1.04c-.527 0-.55-.084-.55-.478v-6.423c0-.43.023-.574 1.064-.574h.359v-.347c-.347.024-1.4.024-1.818.024-.36 0-1.424 0-1.71-.024v.347H.73c.86 0 .897.12.897.562v6.351c0 .443-.036.562-.897.562H.49V0h6.016z"/><path id="l" d="M2.966 0v-.347c-.765 0-.909 0-.909-.538V-8.3L.395-8.17v.347c.813 0 .909.084.909.67v6.267c0 .538-.132.538-.91.538V0c.336-.024.922-.024 1.28-.024s.957 0 1.292.024"/><path id="v" d="M9.484 0v-.347c-.598 0-.897 0-.909-.359v-2.2c0-1.113 0-1.447-.275-1.83-.347-.467-.909-.538-1.315-.538-.993 0-1.495.717-1.687 1.184-.167-.921-.813-1.184-1.566-1.184-1.16 0-1.615.992-1.71 1.232h-.013v-1.232l-1.626.131v.347c.813 0 .909.084.909.67v3.241c0 .538-.132.538-.91.538V0c.312-.024.958-.024 1.292-.024.347 0 .993 0 1.304.024v-.347c-.765 0-.909 0-.909-.538V-3.11c0-1.255.825-1.925 1.567-1.925s.909.61.909 1.34v2.81c0 .538-.132.538-.91.538V0c.312-.024.958-.024 1.293-.024.346 0 .992 0 1.303.024v-.347c-.765 0-.909 0-.909-.538V-3.11c0-1.255.825-1.925 1.567-1.925s.909.61.909 1.34v2.81c0 .538-.132.538-.909.538V0c.31-.024.957-.024 1.292-.024.346 0 .992 0 1.303.024"/><path id="C" d="M6.231 0v-.347c-.598 0-.897 0-.909-.359v-2.2c0-1.113 0-1.447-.275-1.83-.347-.467-.909-.538-1.315-.538-1.16 0-1.615.992-1.71 1.232h-.013v-1.232l-1.626.131v.347c.813 0 .909.084.909.67v3.241c0 .538-.132.538-.91.538V0c.312-.024.958-.024 1.292-.024.347 0 .993 0 1.304.024v-.347c-.765 0-.909 0-.909-.538V-3.11c0-1.255.825-1.925 1.567-1.925s.909.61.909 1.34v2.81c0 .538-.132.538-.91.538V0c.312-.024.958-.024 1.293-.024.346 0 .992 0 1.303.024"/><path id="m" d="M5.49-2.56c0-1.542-1.172-2.774-2.56-2.774C1.495-5.334.36-4.066.36-2.56.359-1.03 1.555.12 2.919.12c1.41 0 2.57-1.172 2.57-2.68m-.91-.107c0 .419 0 1.16-.31 1.722a1.56 1.56 0 0 1-1.34.801c-.442 0-.98-.19-1.327-.777-.323-.538-.335-1.244-.335-1.746 0-.455 0-1.184.37-1.722a1.53 1.53 0 0 1 1.28-.706c.467 0 .969.215 1.292.682.37.55.37 1.303.37 1.746"/><path id="E" d="M7.308-5.956c0-1.16-1.16-2.213-2.775-2.213H.503v.347h.239c.86 0 .897.12.897.562v6.351c0 .443-.036.562-.897.562h-.24V0C.79-.024 1.77-.024 2.117-.024c.359 0 1.34 0 1.626.024v-.347h-.239c-.86 0-.897-.12-.897-.562v-2.894H4.63c1.399 0 2.679-.945 2.679-2.153m-1.113 0c0 .502 0 1.866-1.95 1.866H2.584v-3.253c0-.395.024-.479.55-.479h1.125c1.937 0 1.937 1.352 1.937 1.866"/><path id="t" d="M6.076-2.583c0-1.52-1.125-2.691-2.428-2.691-1.053 0-1.615.753-1.65.801v-.801l-1.663.131v.347c.837 0 .909.084.909.61v5.621c0 .538-.132.538-.91.538v.347c.312-.024.958-.024 1.293-.024.346 0 .992 0 1.303.024v-.347c-.765 0-.909 0-.909-.538v-2.08c.216.298.706.765 1.471.765 1.376 0 2.584-1.16 2.584-2.703m-.91 0c0 1.423-.813 2.463-1.733 2.463a1.4 1.4 0 0 1-.957-.382c-.275-.275-.455-.515-.455-.85v-2.463c0-.227 0-.24.132-.43a1.72 1.72 0 0 1 1.4-.766c.896 0 1.614 1.088 1.614 2.428"/><path id="M" d="M3.887 2.906c0-.036 0-.06-.203-.263C2.488 1.435 1.818-.538 1.818-2.978c0-2.32.562-4.318 1.95-5.729.119-.108.119-.131.119-.167 0-.072-.06-.096-.108-.096-.155 0-1.136.861-1.722 2.033-.61 1.208-.885 2.488-.885 3.959 0 1.064.168 2.488.79 3.767.705 1.436 1.686 2.213 1.817 2.213.048 0 .108-.024.108-.096"/><path id="T" d="M3.373-2.978c0-.909-.12-2.392-.79-3.78C1.878-8.192.897-8.97.765-8.97c-.047 0-.107.024-.107.096 0 .036 0 .06.203.263C2.057-7.403 2.727-5.43 2.727-2.99c0 2.32-.562 4.318-1.95 5.729-.12.107-.12.131-.12.167 0 .072.06.096.108.096.156 0 1.137-.861 1.723-2.033.61-1.22.885-2.512.885-3.947"/><path id="D" d="M4.222-4.58c0-.36-.323-.694-.837-.694-1.017 0-1.364 1.1-1.436 1.327h-.011v-1.327l-1.603.131v.347c.813 0 .909.084.909.67v3.241c0 .538-.132.538-.91.538V0c.336-.024.994-.024 1.352-.024.323 0 1.172 0 1.448.024v-.347h-.24c-.873 0-.897-.131-.897-.562v-1.878c0-1.16.479-2.248 1.4-2.248.095 0 .12 0 .167.012-.096.048-.287.12-.287.442a.46.46 0 0 0 .466.479c.24 0 .479-.156.479-.479"/><path id="k" d="M4.21-1.519c0-.646-.395-1.028-.502-1.136-.431-.37-.754-.443-1.543-.586-.359-.072-1.232-.24-1.232-.957 0-.37.251-.92 1.327-.92 1.304 0 1.376 1.111 1.4 1.482.012.096.095.096.131.096.132 0 .132-.06.132-.275V-5.06c0-.215 0-.275-.12-.275-.095 0-.323.263-.406.37-.371-.298-.742-.37-1.125-.37-1.447 0-1.877.79-1.877 1.447 0 .132 0 .55.454.969.383.335.79.418 1.34.526.657.132.813.167 1.112.407.215.179.37.442.37.777 0 .514-.298 1.088-1.35 1.088C1.53-.12.956-.574.693-1.77c-.048-.215-.06-.24-.06-.24-.024-.047-.072-.047-.108-.047-.131 0-.131.06-.131.275v1.627c0 .215 0 .275.12.275.06 0 .071-.012.274-.264.06-.083.06-.107.24-.299.454.563 1.1.563 1.303.563C3.588.12 4.21-.574 4.21-1.52"/><path id="n" d="M3.899-1.483v-.682h-.263v.658c0 .861-.347 1.363-.813 1.363-.814 0-.814-1.112-.814-1.315v-3.349h1.687v-.347H2.009v-2.2h-.263c-.012 1.124-.442 2.272-1.53 2.308v.24h1.016v3.324C1.232-.155 2.117.12 2.75.12c.753 0 1.148-.742 1.148-1.603"/><path id="O" d="M6.052 0v-.347c-.634 0-.85-.024-1.136-.406l-1.567-2.07c.347-.454.849-1.1 1.076-1.351.49-.55 1.053-.634 1.435-.634v-.347c-.514.024-.538.024-1.004.024l-1.077-.024v.347c.156.024.347.096.347.37 0 .204-.107.336-.18.431l-.765.97-.933-1.233c-.035-.048-.107-.155-.107-.239 0-.072.06-.287.418-.299v-.347c-.299.024-.909.024-1.231.024L.179-5.155v.347c.61 0 .838.024 1.089.347l1.4 1.83c.023.024.07.095.07.131s-.932 1.208-1.052 1.364C1.16-.49.634-.36.12-.346V0c.454-.024.478-.024.992-.024L2.19 0v-.347c-.287-.036-.335-.215-.335-.383 0-.19.084-.287.203-.442l.861-1.112.981 1.28c.203.262.203.286.203.358 0 .096-.095.287-.418.3V0c.31-.024.897-.024 1.232-.024z"/><path id="p" d="M4.7-2.2h-.263C4.33-.838 4.127-.264 2.703-.264H1.256l3.3-4.557c.108-.131.108-.155.108-.203 0-.132-.083-.132-.287-.132H.622L.49-3.253h.263c.072-1.22.3-1.663 1.603-1.663h1.387l-3.42 4.7C.323 0 .347 0 .61 0h3.899z"/><path id="e" d="M2.503-5.077c0-.215-.016-.223-.232-.223-.326.319-.749.51-1.506.51v.263c.215 0 .646 0 1.108-.215v4.088c0 .295-.024.391-.781.391h-.28V0c.328-.024 1.013-.024 1.372-.024s1.052 0 1.379.024v-.263h-.28c-.757 0-.78-.096-.78-.39z"/><path id="f" d="M2.016-2.662c.63 0 1.029.462 1.029 1.3 0 .995-.566 1.29-.989 1.29-.438 0-1.036-.16-1.315-.582.287 0 .486-.183.486-.446a.423.423 0 0 0-.438-.438c-.215 0-.438.135-.438.454 0 .757.813 1.251 1.721 1.251 1.06 0 1.801-.733 1.801-1.53 0-.661-.526-1.267-1.339-1.442.63-.224 1.1-.766 1.1-1.403S2.917-5.3 2.088-5.3C1.235-5.3.59-4.838.59-4.232c0 .295.199.422.406.422a.39.39 0 0 0 .407-.406c0-.295-.255-.407-.43-.415.334-.438.948-.462 1.091-.462.207 0 .813.064.813.885 0 .558-.231.892-.343 1.02-.239.247-.422.263-.908.295-.152.008-.215.016-.215.12 0 .111.071.111.207.111z"/><path id="b" d="M1.116-4.48c.103.033.422.112.757.112.996 0 1.602-.7 1.602-.82 0-.088-.056-.112-.096-.112-.016 0-.032 0-.103.04-.311.12-.678.215-1.108.215-.47 0-.86-.12-1.108-.215C.98-5.3.964-5.3.956-5.3c-.103 0-.103.088-.103.231v2.335c0 .144 0 .24.127.24.064 0 .088-.032.128-.096.095-.12.398-.526 1.076-.526.446 0 .661.366.733.518.136.287.151.653.151.964 0 .295-.008.725-.23 1.076a1.07 1.07 0 0 1-.893.486A1.295 1.295 0 0 1 .733-.917c.024.008.072.008.08.008.223 0 .398-.143.398-.39 0-.295-.23-.399-.39-.399-.144 0-.399.08-.399.423 0 .717.622 1.442 1.539 1.442.996 0 1.84-.773 1.84-1.761 0-.925-.669-1.745-1.61-1.745-.398 0-.772.127-1.075.398z"/><path id="c" d="M4.033-4.854c.072-.087.072-.103.072-.279H2.08c-.2 0-.446-.008-.645-.024-.415-.031-.423-.103-.447-.23H.741l-.27 1.68h.246c.016-.119.104-.669.215-.732.088-.04.686-.04.805-.04h1.69l-.82 1.1c-.91 1.211-1.1 2.47-1.1 3.1 0 .08 0 .446.374.446s.375-.358.375-.454v-.382c0-1.148.19-2.089.581-2.607z"/><path id="d" d="M3.124-2.351c0 1.945-.924 2.28-1.387 2.28-.167 0-.581-.025-.797-.272.351-.032.375-.295.375-.374a.364.364 0 0 0-.375-.375c-.143 0-.374.088-.374.39 0 .543.446.87 1.18.87 1.091 0 2.127-1.085 2.127-2.79 0-2.072-.916-2.678-1.737-2.678-.94 0-1.785.733-1.785 1.777 0 1.028.773 1.778 1.673 1.778.566 0 .909-.36 1.1-.766zm-1.068.382c-.366 0-.597-.167-.773-.462C1.1-2.726 1.1-3.108 1.1-3.515c0-.47 0-.805.215-1.132.2-.286.454-.446.829-.446.534 0 .765.526.789.566.167.39.175 1.012.175 1.172 0 .63-.342 1.386-1.052 1.386"/><path id="h" d="M5.358-3.827c0-.993-.06-1.962-.49-2.87-.49-.993-1.352-1.256-1.938-1.256-.693 0-1.543.346-1.985 1.34C.61-5.86.49-5.12.49-3.828c0 1.16.084 2.033.515 2.882A2.13 2.13 0 0 0 2.918.251c1.04 0 1.639-.622 1.986-1.315.43-.897.454-2.07.454-2.763M2.918.012c-.382 0-1.16-.215-1.387-1.519-.132-.718-.132-1.627-.132-2.464 0-.98 0-1.865.192-2.571.203-.801.813-1.172 1.327-1.172.455 0 1.148.275 1.376 1.303.155.682.155 1.627.155 2.44 0 .802 0 1.71-.131 2.44C4.09-.215 3.337.012 2.918.012"/><path id="g" d="M3.444-7.666c0-.275 0-.287-.239-.287-.287.323-.885.765-2.117.765v.347c.275 0 .873 0 1.531-.311v6.231c0 .43-.036.574-1.088.574h-.37V0c.322-.024 1.482-.024 1.877-.024s1.543 0 1.866.024v-.347h-.371C3.48-.347 3.444-.49 3.444-.92z"/><path id="a" d="M5.262-2.01H5c-.036.204-.131.862-.25 1.053-.085.108-.766.108-1.125.108H1.41c.323-.275 1.053-1.04 1.364-1.328 1.818-1.674 2.487-2.296 2.487-3.48 0-1.375-1.088-2.296-2.475-2.296S.586-6.77.586-5.741c0 .61.526.61.562.61.251 0 .562-.18.562-.562 0-.335-.227-.562-.562-.562-.107 0-.131 0-.167.012.227-.813.873-1.364 1.65-1.364 1.017 0 1.639.85 1.639 1.95 0 1.017-.586 1.902-1.268 2.667L.586-.287V0h4.365z"/><path id="j" d="M2.2-4.294c-.203.012-.25.024-.25.132 0 .12.06.12.275.12h.55c1.016 0 1.47.837 1.47 1.985 0 1.567-.812 1.985-1.399 1.985-.574 0-1.554-.275-1.901-1.064.383.06.73-.156.73-.586a.565.565 0 0 0-.587-.586c-.287 0-.598.167-.598.622C.49-.622 1.555.25 2.882.25c1.424 0 2.476-1.088 2.476-2.296 0-1.1-.885-1.962-2.033-2.165 1.04-.299 1.71-1.172 1.71-2.105 0-.945-.98-1.638-2.14-1.638-1.197 0-2.082.73-2.082 1.602 0 .479.371.574.55.574.252 0 .539-.18.539-.538 0-.383-.287-.55-.55-.55-.072 0-.096 0-.132.012.454-.813 1.579-.813 1.638-.813.395 0 1.173.179 1.173 1.351 0 .227-.036.897-.383 1.411-.359.527-.766.563-1.089.574z"/><path id="U" d="M4.318-7.786c0-.227 0-.287-.168-.287-.096 0-.131 0-.227.144l-3.6 5.585v.347h3.145V-.91c0 .443-.024.562-.897.562h-.239V0c.275-.024 1.22-.024 1.555-.024s1.292 0 1.567.024v-.347h-.24c-.86 0-.896-.12-.896-.562v-1.088h1.208v-.347H4.318zm-.79.933v4.509H.622z"/><path id="i" d="M1.53-6.853c.515.167.934.18 1.065.18 1.352 0 2.213-.993 2.213-1.16 0-.049-.024-.108-.096-.108-.024 0-.048 0-.155.047a3.9 3.9 0 0 1-1.555.323c-.79 0-1.352-.239-1.579-.335-.083-.035-.107-.035-.12-.035-.095 0-.095.071-.095.263v3.552c0 .215 0 .287.143.287.06 0 .072-.012.192-.156.335-.49.897-.777 1.495-.777.634 0 .945.586 1.04.79.204.466.216 1.052.216 1.506s0 1.136-.335 1.675c-.263.43-.73.73-1.256.73-.79 0-1.567-.539-1.782-1.412.06.024.131.036.191.036.204 0 .527-.12.527-.526 0-.335-.228-.527-.527-.527-.215 0-.526.108-.526.574 0 1.017.813 2.177 2.14 2.177 1.352 0 2.536-1.136 2.536-2.655 0-1.423-.956-2.607-2.212-2.607-.682 0-1.208.299-1.52.634z"/><path id="V" d="M1.471-4.162c0-3.026 1.471-3.504 2.117-3.504.43 0 .861.131 1.088.49-.143 0-.598 0-.598.49 0 .263.18.49.49.49.3 0 .503-.179.503-.526 0-.621-.454-1.231-1.495-1.231C2.069-7.953.49-6.411.49-3.78.49-.49 1.926.25 2.942.25c1.304 0 2.416-1.136 2.416-2.69 0-1.592-1.112-2.656-2.308-2.656-1.065 0-1.46.921-1.579 1.256zm1.471 4.09c-.753 0-1.112-.67-1.22-.92-.107-.312-.227-.898-.227-1.735 0-.945.43-2.129 1.507-2.129.658 0 1.005.443 1.184.85.191.442.191 1.04.191 1.554 0 .61 0 1.148-.227 1.603-.299.574-.73.777-1.208.777"/><path id="S" d="M5.681-7.427v-.275H2.799c-1.448 0-1.471-.156-1.52-.383h-.262L.646-5.693h.263c.036-.215.143-.957.299-1.088.096-.072.993-.072 1.16-.072h2.536L3.636-5.035C3.313-4.57 2.105-2.607 2.105-.36c0 .132 0 .61.49.61.503 0 .503-.466.503-.622v-.598c0-1.782.287-3.17.849-3.97z"/><path id="Q" d="M8.073-3.875c.167 0 .383 0 .383-.215 0-.228-.204-.228-.383-.228H1.029c-.168 0-.383 0-.383.216 0 .227.203.227.383.227zm0 2.225c.167 0 .383 0 .383-.216 0-.227-.204-.227-.383-.227H1.029c-.168 0-.383 0-.383.215 0 .228.203.228.383.228z"/><path id="x" d="M2.99 2.99v-.443H1.83V-8.527h1.16v-.443H1.387V2.99z"/><path id="A" d="M1.854-8.97H.25v.443h1.16V2.547H.251v.443h1.603z"/><path id="y" d="M5.322-2.906c0-1.113 0-1.447-.275-1.83-.347-.467-.909-.538-1.315-.538-1.16 0-1.615.992-1.71 1.232h-.013v-1.232l-1.626.131v.347c.813 0 .909.084.909.67v3.241c0 .538-.132.538-.91.538V0c.312-.024.958-.024 1.292-.024.347 0 .993 0 1.304.024v-.347c-.765 0-.909 0-.909-.538V-3.11c0-1.255.825-1.925 1.567-1.925s.909.61.909 1.34v2.81c0 .538-.132.538-.91.538V0c.312-.024.958-.024 1.293-.024.346 0 .992 0 1.303.024v-.347c-.598 0-.897 0-.909-.359z"/><path id="z" d="M3.923-5.06c0-.214 0-.274-.12-.274-.095 0-.323.263-.406.37-.371-.298-.742-.37-1.125-.37-1.447 0-1.877.79-1.877 1.447 0 .132 0 .55.454.969.383.335.79.418 1.34.526.657.132.813.167 1.112.407.215.179.37.442.37.777 0 .514-.298 1.088-1.35 1.088C1.53-.12.956-.574.693-1.77c-.048-.215-.048-.227-.06-.24-.024-.047-.072-.047-.108-.047-.131 0-.131.06-.131.275v1.627c0 .215 0 .275.12.275.06 0 .071-.012.274-.264.06-.083.06-.107.24-.299.454.563 1.1.563 1.303.563C3.588.12 4.21-.574 4.21-1.52c0-.646-.395-1.028-.502-1.136-.431-.37-.754-.443-1.543-.586-.359-.072-1.232-.24-1.232-.957 0-.37.251-.92 1.327-.92 1.304 0 1.376 1.111 1.4 1.482.012.096.095.096.131.096.132 0 .132-.06.132-.275z"/><clipPath id="W"><path d="M263.937 204.823h153.595V51.23H263.937Z"/></clipPath></defs><g fill="none" stroke-miterlimit="10"><path stroke="gray" stroke-width=".19925" d="M56.232 204.824v-4.252m23.63 4.252v-4.252m23.63 4.252v-4.252m23.63 4.252v-4.252m23.63 4.252v-4.252m23.631 4.252v-4.252m23.63 4.252v-4.252M56.233 51.23v4.252m23.63-4.252v4.252m23.63-4.252v4.252m23.63-4.252v4.252m23.63-4.252v4.252m23.63-4.252v4.252m23.63-4.252v4.252M51.336 204.824h4.25m-4.25-38.399h4.25m-4.25-38.398h4.25m-4.25-38.399h4.25m-4.25-38.399h4.25m149.345 153.595h-4.25m4.25-38.399h-4.25m4.25-38.398h-4.25m4.25-38.399h-4.25m4.25-38.399h-4.25"/><path stroke="#000" stroke-width=".3985" d="M51.336 204.824V51.229h153.595v153.595z"/></g><use xlink:href="#a" x="-34.849987" y="98.632585" transform="translate(85.776 119.89)scale(1.0004)"/><use xlink:href="#b" x="-28.982634" y="94.252826" transform="matrix(.99999 0 0 .99999 85.776 119.89)"/><use xlink:href="#a" x="-34.849987" y="98.632585" transform="translate(109.406 119.89)scale(1.0004)"/><use xlink:href="#c" x="-28.982634" y="94.252826" transform="matrix(.99999 0 0 .99999 109.406 119.89)"/><use xlink:href="#a" x="-34.849987" y="98.632585" transform="translate(133.036 119.89)scale(1.0004)"/><use xlink:href="#d" x="-28.982634" y="94.252826" transform="matrix(.99999 0 0 .99999 133.036 119.89)"/><use xlink:href="#a" x="-34.849987" y="98.632585" transform="translate(154.549 119.89)scale(1.0004)"/><g transform="matrix(.99999 0 0 .99999 154.549 119.89)"><use xlink:href="#e" x="-28.982634" y="94.252826"/><use xlink:href="#e" x="-24.750563" y="94.252826"/></g><use xlink:href="#a" x="-34.849987" y="98.632585" transform="translate(178.179 119.89)scale(1.0004)"/><g transform="matrix(.99999 0 0 .99999 178.179 119.89)"><use xlink:href="#e" x="-28.982634" y="94.252826"/><use xlink:href="#f" x="-24.750563" y="94.252826"/></g><use xlink:href="#a" x="-34.849987" y="98.632585" transform="translate(201.809 119.89)scale(1.0004)"/><g transform="matrix(.99999 0 0 .99999 201.809 119.89)"><use xlink:href="#e" x="-28.982634" y="94.252826"/><use xlink:href="#b" x="-24.750563" y="94.252826"/></g><use xlink:href="#a" x="-34.849987" y="98.632585" transform="translate(225.439 119.89)scale(1.0004)"/><g transform="matrix(.99999 0 0 .99999 225.439 119.89)"><use xlink:href="#e" x="-28.982634" y="94.252826"/><use xlink:href="#c" x="-24.750563" y="94.252826"/></g><g transform="translate(70.282 110.083)scale(1.0004)"><use xlink:href="#g" x="-34.849987" y="98.632585"/><use xlink:href="#h" x="-29.001546" y="98.632585"/></g><g transform="translate(70.282 71.685)scale(1.0004)"><use xlink:href="#g" x="-34.849987" y="98.632585"/><use xlink:href="#i" x="-29.001546" y="98.632585"/></g><g transform="translate(70.282 33.286)scale(1.0004)"><use xlink:href="#a" x="-34.849987" y="98.632585"/><use xlink:href="#h" x="-29.001546" y="98.632585"/></g><g transform="translate(70.282 -5.113)scale(1.0004)"><use xlink:href="#a" x="-34.849987" y="98.632585"/><use xlink:href="#i" x="-29.001546" y="98.632585"/></g><g transform="translate(70.282 -43.511)scale(1.0004)"><use xlink:href="#j" x="-34.849987" y="98.632585"/><use xlink:href="#h" x="-29.001546" y="98.632585"/></g><path d="M64.272 193.473a1.12 1.12 0 1 0-2.241 0 1.12 1.12 0 0 0 2.241 0"/><path fill="none" stroke="#000" stroke-miterlimit="10" stroke-width=".3985" d="M64.272 193.473a1.12 1.12 0 1 0-2.241 0 1.12 1.12 0 0 0 2.241 0Z"/><path d="M76.087 159.475a1.12 1.12 0 1 0-2.241 0 1.12 1.12 0 0 0 2.241 0"/><path fill="none" stroke="#000" stroke-miterlimit="10" stroke-width=".3985" d="M76.087 159.475a1.12 1.12 0 1 0-2.241 0 1.12 1.12 0 0 0 2.241 0Z"/><path d="M87.9 175.242a1.12 1.12 0 1 0-2.241 0 1.12 1.12 0 0 0 2.242 0"/><path fill="none" stroke="#000" stroke-miterlimit="10" stroke-width=".3985" d="M87.9 175.242a1.12 1.12 0 1 0-2.241 0 1.12 1.12 0 0 0 2.242 0Z"/><path d="M99.716 164.26a1.12 1.12 0 1 0-2.242 0 1.12 1.12 0 0 0 2.242 0"/><path fill="none" stroke="#000" stroke-miterlimit="10" stroke-width=".3985" d="M99.716 164.26a1.12 1.12 0 1 0-2.242 0 1.12 1.12 0 0 0 2.242 0Z"/><path d="M111.53 163.86a1.12 1.12 0 1 0-2.24 0 1.12 1.12 0 0 0 2.24 0"/><path fill="none" stroke="#000" stroke-miterlimit="10" stroke-width=".3985" d="M111.53 163.86a1.12 1.12 0 1 0-2.24 0 1.12 1.12 0 0 0 2.24 0Z"/><path d="M123.347 164.567a1.12 1.12 0 1 0-2.241 0 1.12 1.12 0 0 0 2.241 0"/><path fill="none" stroke="#000" stroke-miterlimit="10" stroke-width=".3985" d="M123.347 164.567a1.12 1.12 0 1 0-2.241 0 1.12 1.12 0 0 0 2.241 0Z"/><path d="M135.163 145.867a1.12 1.12 0 1 0-2.242 0 1.12 1.12 0 0 0 2.242 0"/><path fill="none" stroke="#000" stroke-miterlimit="10" stroke-width=".3985" d="M135.163 145.867a1.12 1.12 0 1 0-2.242 0 1.12 1.12 0 0 0 2.242 0Z"/><path d="M146.978 131.398a1.12 1.12 0 1 0-2.242 0 1.12 1.12 0 0 0 2.242 0"/><path fill="none" stroke="#000" stroke-miterlimit="10" stroke-width=".3985" d="M146.978 131.398a1.12 1.12 0 1 0-2.242 0 1.12 1.12 0 0 0 2.242 0Z"/><path d="M158.794 116.607a1.12 1.12 0 1 0-2.242 0 1.12 1.12 0 0 0 2.242 0"/><path fill="none" stroke="#000" stroke-miterlimit="10" stroke-width=".3985" d="M158.794 116.607a1.12 1.12 0 1 0-2.242 0 1.12 1.12 0 0 0 2.242 0Z"/><path d="M170.608 111.07a1.12 1.12 0 1 0-2.241 0 1.12 1.12 0 0 0 2.241 0"/><path fill="none" stroke="#000" stroke-miterlimit="10" stroke-width=".3985" d="M170.608 111.07a1.12 1.12 0 1 0-2.241 0 1.12 1.12 0 0 0 2.241 0Z"/><path d="M182.424 104.204a1.12 1.12 0 1 0-2.242 0 1.12 1.12 0 0 0 2.242 0"/><path fill="none" stroke="#000" stroke-miterlimit="10" stroke-width=".3985" d="M182.424 104.204a1.12 1.12 0 1 0-2.242 0 1.12 1.12 0 0 0 2.242 0Z"/><path d="M194.239 77.747a1.12 1.12 0 1 0-2.242 0 1.12 1.12 0 0 0 2.242 0"/><path fill="none" stroke="#000" stroke-miterlimit="10" stroke-width=".3985" d="M194.239 77.747a1.12 1.12 0 1 0-2.242 0 1.12 1.12 0 0 0 2.242 0Z"/><g transform="translate(137.305 136.355)scale(1.0004)"><use xlink:href="#k" x="-34.849987" y="98.632585"/><use xlink:href="#l" x="-30.233424" y="98.632585"/><use xlink:href="#m" x="-26.980305" y="98.632585"/><use xlink:href="#n" x="-21.119904" y="98.632585"/><use xlink:href="#k" x="-12.664184" y="98.632585"/><use xlink:href="#o" x="-8.047624" y="98.632585"/><use xlink:href="#p" x="-4.794503" y="98.632585"/><use xlink:href="#q" x=".408097" y="98.632585"/><use xlink:href="#r" x="9.509818" y="98.632585"/></g><g transform="rotate(-90 32.803 107.107)scale(1.0004)"><use xlink:href="#q" x="-34.849987" y="98.632585"/><use xlink:href="#l" x="-29.647386" y="98.632585"/><use xlink:href="#s" x="-26.394266" y="98.632585"/><use xlink:href="#t" x="-20.533865" y="98.632585"/><use xlink:href="#k" x="-14.027624" y="98.632585"/><use xlink:href="#q" x="-9.411063" y="98.632585"/><use xlink:href="#u" x="-4.208463" y="98.632585"/><use xlink:href="#n" x="6.196738" y="98.632585"/><use xlink:href="#o" x="10.753499" y="98.632585"/><use xlink:href="#v" x="14.006619" y="98.632585"/><use xlink:href="#q" x="23.76598" y="98.632585"/><use xlink:href="#w" x="32.867196" y="98.632585"/><use xlink:href="#x" x="40.995458" y="98.632585"/><use xlink:href="#y" x="44.23662" y="98.632585"/><use xlink:href="#z" x="50.7309" y="98.632585"/><use xlink:href="#A" x="55.347463" y="98.632585"/></g><g transform="translate(107.091 -60.526)scale(1.0004)"><use xlink:href="#B" x="-34.849987" y="84.180785"/><use xlink:href="#o" x="-27.530464" y="84.180785"/><use xlink:href="#C" x="-24.277344" y="84.180785"/><use xlink:href="#q" x="-17.771104" y="84.180785"/><use xlink:href="#s" x="-12.568503" y="84.180785"/><use xlink:href="#D" x="-6.708103" y="84.180785"/><use xlink:href="#E" x="1.747617" y="84.180785"/><use xlink:href="#D" x="9.712978" y="84.180785"/><use xlink:href="#m" x="14.269738" y="84.180785"/><use xlink:href="#F" x="20.130138" y="84.180785"/><use xlink:href="#o" x="26.636379" y="84.180785"/><use xlink:href="#C" x="29.889499" y="84.180785"/><use xlink:href="#G" x="36.395737" y="84.180785"/><use xlink:href="#H" x="46.155524" y="84.180785"/><use xlink:href="#I" x="52.314926" y="84.180785"/><use xlink:href="#J" x="58.474328" y="84.180785"/><use xlink:href="#K" x="64.63373" y="84.180785"/><use xlink:href="#L" x="70.793132" y="84.180785"/><use xlink:href="#M" x="-24.824966" y="98.632585"/><use xlink:href="#N" x="-20.268204" y="98.632585"/><use xlink:href="#o" x="-12.625764" y="98.632585"/><use xlink:href="#O" x="-9.372644" y="98.632585"/><use xlink:href="#q" x="-3.189324" y="98.632585"/><use xlink:href="#u" x="2.013277" y="98.632585"/><use xlink:href="#P" x="12.418982" y="98.632585"/><use xlink:href="#Q" x="23.265334" y="98.632585"/><use xlink:href="#h" x="35.679818" y="98.632585"/><use xlink:href="#R" x="41.551673" y="98.632585"/><use xlink:href="#j" x="44.803979" y="98.632585"/><use xlink:href="#S" x="50.652418" y="98.632585"/><use xlink:href="#i" x="56.500856" y="98.632585"/><use xlink:href="#T" x="62.370026" y="98.632585"/></g><g fill="none" stroke-miterlimit="10"><path stroke="gray" stroke-width=".19925" d="M283.136 204.823v-4.252m38.399 4.252v-4.252m38.399 4.252v-4.252m38.398 4.252v-4.252M283.136 51.23v4.251m38.399-4.251v4.251m38.399-4.251v4.251m38.398-4.251v4.251M263.937 176.024h4.252m-4.252-47.998h4.252m-4.252-47.998h4.252m149.343 95.996h-4.252m4.252-47.998h-4.252m4.252-47.998h-4.252"/><path stroke="#000" stroke-width=".3985" d="M263.937 204.823V51.23h153.595v153.593z"/></g><g transform="translate(256.322 116.468)scale(1.0004)"><use xlink:href="#h" x="19.342763" y="100.283247"/><use xlink:href="#R" x="25.198113" y="100.283247"/><use xlink:href="#U" x="28.451419" y="100.283247"/></g><g transform="translate(294.721 116.468)scale(1.0004)"><use xlink:href="#h" x="19.342763" y="100.283247"/><use xlink:href="#R" x="25.198113" y="100.283247"/><use xlink:href="#i" x="28.451419" y="100.283247"/></g><g transform="translate(333.12 116.468)scale(1.0004)"><use xlink:href="#h" x="19.342763" y="100.283247"/><use xlink:href="#R" x="25.198113" y="100.283247"/><use xlink:href="#V" x="28.451419" y="100.283247"/></g><g transform="translate(371.518 116.468)scale(1.0004)"><use xlink:href="#h" x="19.342763" y="100.283247"/><use xlink:href="#R" x="25.198113" y="100.283247"/><use xlink:href="#S" x="28.451419" y="100.283247"/></g><g transform="translate(228.712 79.633)scale(1.0004)"><use xlink:href="#a" x="19.342763" y="100.283247"/><use xlink:href="#i" x="25.191202" y="100.283247"/></g><g transform="translate(228.712 31.636)scale(1.0004)"><use xlink:href="#j" x="19.342763" y="100.283247"/><use xlink:href="#h" x="25.191202" y="100.283247"/></g><g transform="translate(228.712 -16.362)scale(1.0004)"><use xlink:href="#j" x="19.342763" y="100.283247"/><use xlink:href="#i" x="25.191202" y="100.283247"/></g><g clip-path="url(#W)"><path fill="none" stroke="#000" stroke-miterlimit="10" stroke-width=".3985" d="m263.937 181.123 6.4-2.272 6.4-2.385 6.4-2.524 6.399-2.664 6.4-2.82 6.4-2.994 6.4-3.18 6.399-3.38 6.4-3.615 6.4-3.862 6.4-4.13 6.399-4.45 6.4-4.779 6.4-5.165 6.4-5.597 6.399-6.078 6.4-6.648 6.4-7.253 6.4-8.004 6.399-8.842 6.4-9.81 6.4-10.976 6.4-12.346 6.399-13.991"/><g transform="matrix(.801 -.59818 .59818 .801 225.297 123.408)"><use xlink:href="#X" x="19.329954" y="100.216839"/><use xlink:href="#Y" x="25.693292" y="100.216839"/><use xlink:href="#Z" x="36.206548" y="100.216839"/><use xlink:href="#aa" x="41.186249" y="100.216839"/><use xlink:href="#ab" x="43.953526" y="100.216839"/><use xlink:href="#ac" x="48.933526" y="100.216839"/><use xlink:href="#ad" x="53.913526" y="100.216839"/><use xlink:href="#ac" x="57.778007" y="100.216839"/><use xlink:href="#ae" x="64.980037" y="100.216839"/><use xlink:href="#af" x="74.940437" y="100.216839"/><use xlink:href="#ag" x="81.348762" y="100.216839"/></g><g transform="rotate(-36.752 298.394 -277.399)scale(.99942)"><use xlink:href="#ah" x="85.19755" y="96.077619"/><use xlink:href="#ai" x="91.421148" y="96.077619"/></g><g transform="matrix(.801 -.59818 .59818 .801 225.297 123.408)"><use xlink:href="#ad" x="98.128374" y="100.216839"/><use xlink:href="#aj" x="102.001363" y="100.216839"/></g><use xlink:href="#ak" x="109.610231" y="96.077619" transform="rotate(-36.752 298.394 -277.399)scale(.99942)"/><g transform="matrix(.801 -.59818 .59818 .801 225.297 123.408)"><use xlink:href="#al" x="116.87548" y="100.216839"/><use xlink:href="#am" x="127.37332" y="100.216839"/><use xlink:href="#aa" x="132.369436" y="100.216839"/><use xlink:href="#ab" x="135.135714" y="100.216839"/><use xlink:href="#an" x="140.115714" y="100.216839"/><use xlink:href="#ao" x="145.095704" y="100.216839"/><use xlink:href="#ag" x="150.075694" y="100.216839"/></g></g><path d="M274.657 191.268a1.12 1.12 0 1 0-2.241 0 1.12 1.12 0 0 0 2.241 0"/><path fill="none" stroke="#000" stroke-miterlimit="10" stroke-width=".3985" d="M274.657 191.268a1.12 1.12 0 1 0-2.241 0 1.12 1.12 0 0 0 2.241 0Z"/><path d="M284.257 182.61a1.12 1.12 0 1 0-2.241 0 1.12 1.12 0 0 0 2.241 0"/><path fill="none" stroke="#000" stroke-miterlimit="10" stroke-width=".3985" d="M284.257 182.61a1.12 1.12 0 1 0-2.241 0 1.12 1.12 0 0 0 2.241 0Z"/><path d="M293.857 176.303a1.12 1.12 0 1 0-2.242 0 1.12 1.12 0 0 0 2.242 0"/><path fill="none" stroke="#000" stroke-miterlimit="10" stroke-width=".3985" d="M293.857 176.303a1.12 1.12 0 1 0-2.242 0 1.12 1.12 0 0 0 2.242 0Z"/><path d="M303.456 166.463a1.12 1.12 0 1 0-2.241 0 1.12 1.12 0 0 0 2.241 0"/><path fill="none" stroke="#000" stroke-miterlimit="10" stroke-width=".3985" d="M303.456 166.463a1.12 1.12 0 1 0-2.241 0 1.12 1.12 0 0 0 2.241 0Z"/><path d="M313.056 161.615a1.12 1.12 0 1 0-2.241 0 1.12 1.12 0 0 0 2.241 0"/><path fill="none" stroke="#000" stroke-miterlimit="10" stroke-width=".3985" d="M313.056 161.615a1.12 1.12 0 1 0-2.241 0 1.12 1.12 0 0 0 2.241 0Z"/><path d="M322.656 153.158a1.12 1.12 0 1 0-2.242 0 1.12 1.12 0 0 0 2.242 0"/><path fill="none" stroke="#000" stroke-miterlimit="10" stroke-width=".3985" d="M322.656 153.158a1.12 1.12 0 1 0-2.242 0 1.12 1.12 0 0 0 2.242 0Z"/><path d="M332.255 146.246a1.12 1.12 0 1 0-2.241 0 1.12 1.12 0 0 0 2.241 0"/><path fill="none" stroke="#000" stroke-miterlimit="10" stroke-width=".3985" d="M332.255 146.246a1.12 1.12 0 1 0-2.241 0 1.12 1.12 0 0 0 2.241 0Z"/><path d="M341.855 135.36a1.12 1.12 0 1 0-2.241 0 1.12 1.12 0 0 0 2.241 0"/><path fill="none" stroke="#000" stroke-miterlimit="10" stroke-width=".3985" d="M341.855 135.36a1.12 1.12 0 1 0-2.241 0 1.12 1.12 0 0 0 2.241 0Z"/><path d="M351.455 126.308a1.12 1.12 0 1 0-2.242 0 1.12 1.12 0 0 0 2.242 0"/><path fill="none" stroke="#000" stroke-miterlimit="10" stroke-width=".3985" d="M351.455 126.308a1.12 1.12 0 1 0-2.242 0 1.12 1.12 0 0 0 2.242 0Z"/><path d="M361.055 117.246a1.12 1.12 0 1 0-2.242 0 1.12 1.12 0 0 0 2.242 0"/><path fill="none" stroke="#000" stroke-miterlimit="10" stroke-width=".3985" d="M361.055 117.246a1.12 1.12 0 1 0-2.242 0 1.12 1.12 0 0 0 2.242 0Z"/><path d="M370.654 108.424a1.12 1.12 0 1 0-2.241 0 1.12 1.12 0 0 0 2.241 0"/><path fill="none" stroke="#000" stroke-miterlimit="10" stroke-width=".3985" d="M370.654 108.424a1.12 1.12 0 1 0-2.241 0 1.12 1.12 0 0 0 2.241 0Z"/><path d="M380.254 98.67a1.12 1.12 0 1 0-2.242 0 1.12 1.12 0 0 0 2.242 0"/><path fill="none" stroke="#000" stroke-miterlimit="10" stroke-width=".3985" d="M380.254 98.67a1.12 1.12 0 1 0-2.242 0 1.12 1.12 0 0 0 2.242 0Z"/><path d="M389.854 97.836a1.12 1.12 0 1 0-2.242 0 1.12 1.12 0 0 0 2.241 0"/><path fill="none" stroke="#000" stroke-miterlimit="10" stroke-width=".3985" d="M389.854 97.836a1.12 1.12 0 1 0-2.242 0 1.12 1.12 0 0 0 2.241 0Z"/><path d="M399.453 86.326a1.12 1.12 0 1 0-2.241 0 1.12 1.12 0 0 0 2.241 0"/><path fill="none" stroke="#000" stroke-miterlimit="10" stroke-width=".3985" d="M399.453 86.326a1.12 1.12 0 1 0-2.241 0 1.12 1.12 0 0 0 2.241 0Z"/><path d="M409.053 79.28a1.12 1.12 0 1 0-2.242 0 1.12 1.12 0 0 0 2.242 0"/><path fill="none" stroke="#000" stroke-miterlimit="10" stroke-width=".3985" d="M409.053 79.28a1.12 1.12 0 1 0-2.242 0 1.12 1.12 0 0 0 2.242 0Z"/><g transform="translate(288.204 133.054)scale(1.0004)"><use xlink:href="#l" x="19.342763" y="100.283247"/><use xlink:href="#m" x="22.595882" y="100.283247"/><use xlink:href="#s" x="28.456284" y="100.283247"/><use xlink:href="#u" x="34.316683" y="100.283247"/><use xlink:href="#ap" x="44.709924" y="100.283247"/><use xlink:href="#s" x="48.285963" y="100.283247"/><use xlink:href="#aq" x="54.146361" y="100.283247"/><use xlink:href="#n" x="59.348959" y="100.283247"/><use xlink:href="#m" x="63.905723" y="100.283247"/><use xlink:href="#D" x="69.76612" y="100.283247"/><use xlink:href="#P" x="78.233397" y="100.283247"/></g><g transform="rotate(-90 165.364 28.718)scale(1.0004)"><use xlink:href="#q" x="19.342763" y="100.283247"/><use xlink:href="#l" x="24.545362" y="100.283247"/><use xlink:href="#s" x="27.798482" y="100.283247"/><use xlink:href="#t" x="33.658885" y="100.283247"/><use xlink:href="#k" x="40.165123" y="100.283247"/><use xlink:href="#q" x="44.781683" y="100.283247"/><use xlink:href="#u" x="49.984284" y="100.283247"/><use xlink:href="#n" x="60.377522" y="100.283247"/><use xlink:href="#o" x="64.934281" y="100.283247"/><use xlink:href="#v" x="68.187403" y="100.283247"/><use xlink:href="#q" x="77.958728" y="100.283247"/><use xlink:href="#w" x="87.05994" y="100.283247"/><use xlink:href="#x" x="95.188203" y="100.283247"/><use xlink:href="#y" x="98.429363" y="100.283247"/><use xlink:href="#z" x="104.92365" y="100.283247"/><use xlink:href="#A" x="109.540213" y="100.283247"/></g><g transform="translate(265.52 -62.176)scale(1.0004)"><use xlink:href="#B" x="19.342763" y="85.832448"/><use xlink:href="#o" x="26.662284" y="85.832448"/><use xlink:href="#C" x="29.915403" y="85.832448"/><use xlink:href="#q" x="36.421643" y="85.832448"/><use xlink:href="#s" x="41.624243" y="85.832448"/><use xlink:href="#D" x="47.484642" y="85.832448"/><use xlink:href="#E" x="55.928404" y="85.832448"/><use xlink:href="#D" x="63.893763" y="85.832448"/><use xlink:href="#m" x="68.450522" y="85.832448"/><use xlink:href="#F" x="74.310924" y="85.832448"/><use xlink:href="#o" x="80.817165" y="85.832448"/><use xlink:href="#C" x="84.082245" y="85.832448"/><use xlink:href="#G" x="90.588487" y="85.832448"/><use xlink:href="#H" x="100.347273" y="85.832448"/><use xlink:href="#I" x="106.506675" y="85.832448"/><use xlink:href="#J" x="112.666077" y="85.832448"/><use xlink:href="#K" x="118.825479" y="85.832448"/><use xlink:href="#L" x="124.98488" y="85.832448"/><use xlink:href="#M" x="33.932618" y="100.283247"/><use xlink:href="#N" x="38.489377" y="100.283247"/><use xlink:href="#o" x="46.13182" y="100.283247"/><use xlink:href="#O" x="49.38494" y="100.283247"/><use xlink:href="#q" x="55.568262" y="100.283247"/><use xlink:href="#u" x="60.77086" y="100.283247"/><use xlink:href="#ar" x="71.176564" y="100.283247"/><use xlink:href="#Q" x="84.742" y="100.283247"/><use xlink:href="#a" x="97.156483" y="100.283247"/></g><g transform="matrix(.99999 0 0 .99999 265.52 -62.176)"><use xlink:href="#e" x="102.984698" y="95.903797"/><use xlink:href="#c" x="107.216775" y="95.903797"/></g><use xlink:href="#T" x="111.997948" y="100.283247" transform="translate(265.52 -62.176)scale(1.0004)"/></svg>