<svg xmlns="http://www.w3.org/2000/svg" xmlns:xlink="http://www.w3.org/1999/xlink" width="286.271" height="308.705" viewBox="-72 -72 214.703 231.529"><defs><path id="i" d="M4.77-2.762h3.3c.167 0 .382 0 .382-.215 0-.227-.203-.227-.382-.227h-3.3v-3.3c0-.167 0-.382-.215-.382-.227 0-.227.203-.227.382v3.3h-3.3c-.167 0-.382 0-.382.215 0 .227.203.227.382.227h3.3v3.3c0 .167 0 .383.215.383.227 0 .227-.204.227-.383z"/><path id="b" d="M4.627 0v-.514h-1.34v-7.173h1.34v-.514c-.43.024-1.626.024-2.128.024S.8-8.177.37-8.201v.514H1.71v7.173H.37V0C.802-.024 1.998-.024 2.5-.024s1.697 0 2.128.024"/><path id="c" d="M7.173 0v-.514h-.825v-3.144c0-1.136-.49-1.722-1.805-1.722-.86 0-1.602.419-2.009 1.315h-.011V-5.38l-2.02.096v.514c.74 0 .824 0 .824.466v3.79H.502V0c.275-.024 1.136-.024 1.47-.024s1.208 0 1.483.024v-.514H2.63v-2.547c0-1.29.957-1.924 1.722-1.924.442 0 .693.287.693 1.195v3.276H4.22V0c.275-.024 1.136-.024 1.47-.024s1.208 0 1.483.024"/><path id="d" d="M7.006-2.666c0-1.65-1.112-2.714-2.726-2.714-.705 0-1.315.24-1.793.622v-.622l-2.069.096v.514c.742 0 .825 0 .825.466v6.11H.418v.513c.275-.024 1.136-.024 1.47-.024s1.208 0 1.483.024v-.514h-.825V-.49c.3.263.825.562 1.543.562 1.638 0 2.917-.993 2.917-2.738m-1.435 0c0 1.733-.86 2.343-1.626 2.343-.514 0-1.028-.263-1.399-.825v-3.036A1.96 1.96 0 0 1 4.09-4.95c.777 0 1.482.705 1.482 2.283"/><path id="f" d="M4.471-1.482v-.634H3.97v.622c0 .789-.359 1.135-.73 1.135-.716 0-.716-.8-.716-1.076v-3.359h1.721v-.514H2.523v-2.284H2.02C2.008-6.408 1.435-5.224.251-5.189v.395h.968v3.324C1.22-.203 2.2.072 3.061.072c.884 0 1.41-.67 1.41-1.554"/><path id="e" d="M7.173 0v-.514c-.741 0-.825 0-.825-.466v-4.4l-2.128.096v.514c.741 0 .825 0 .825.466v2.343c0 .909-.538 1.638-1.47 1.638-.897 0-.945-.299-.945-.956v-4.1l-2.128.095v.514c.741 0 .825 0 .825.466v2.834c0 1.195.801 1.542 2.08 1.542.287 0 1.172 0 1.686-.969h.012v.969z"/><path id="g" d="M2.2-4.579a.58.58 0 0 0-.574-.574.577.577 0 0 0-.586.574.58.58 0 1 0 1.16 0m0 3.993a.58.58 0 0 0-.574-.574.577.577 0 0 0-.586.574.58.58 0 1 0 1.16 0"/><path id="k" d="M2.331.048c0-.741-.25-1.208-.717-1.208a.56.56 0 0 0-.574.574c0 .323.227.586.586.586a.6.6 0 0 0 .382-.143c.036-.036.06-.036.06-.036s.024.167.024.227a2.94 2.94 0 0 1-.837 2.032c-.048.036-.06.06-.06.108 0 .06.06.12.12.12.108 0 1.016-.885 1.016-2.26"/><path id="a" d="M4.902 0v-.347H4.53c-1.052 0-1.088-.143-1.088-.574v-6.742c0-.275 0-.287-.239-.287-.287.323-.885.765-2.116.765v.347c.275 0 .873 0 1.53-.311v6.228c0 .43-.036.574-1.088.574h-.37V0c.322-.024 1.482-.024 1.877-.024s1.542 0 1.865.024"/><path id="j" d="M5.356-2.044c0-1.1-.885-1.961-2.032-2.164 1.04-.3 1.71-1.172 1.71-2.104 0-.945-.981-1.638-2.14-1.638-1.196 0-2.081.73-2.081 1.602 0 .478.37.574.55.574.25 0 .538-.18.538-.538 0-.383-.287-.55-.55-.55-.072 0-.096 0-.132.012.455-.813 1.579-.813 1.638-.813.395 0 1.172.18 1.172 1.35 0 .228-.036.897-.383 1.411-.358.526-.765.562-1.088.574l-.358.036c-.203.012-.251.024-.251.132 0 .12.06.12.275.12h.55c1.016 0 1.47.836 1.47 1.984 0 1.566-.813 1.984-1.399 1.984-.574 0-1.554-.275-1.9-1.064.382.06.729-.155.729-.586a.565.565 0 0 0-.586-.585c-.287 0-.598.167-.598.621C.49-.622 1.554.251 2.881.251c1.423 0 2.475-1.088 2.475-2.295"/><path id="h" d="M5.26-2.008h-.263c-.036.203-.131.86-.25 1.052-.084.107-.766.107-1.125.107H1.411c.322-.275 1.052-1.04 1.363-1.327C4.59-3.85 5.26-4.47 5.26-5.655c0-1.375-1.088-2.295-2.474-2.295s-2.2 1.183-2.2 2.212c0 .61.526.61.562.61.25 0 .562-.18.562-.563 0-.334-.228-.562-.562-.562a.5.5 0 0 0-.168.012c.227-.813.873-1.362 1.65-1.362 1.016 0 1.638.848 1.638 1.948 0 1.016-.586 1.901-1.267 2.666L.586-.287V0h4.363z"/></defs><g stroke="#000" stroke-miterlimit="10" stroke-width=".4"><path fill="none" stroke-width=".398504" d="M6.057-52.702c-7.827 0-14.173 6.346-14.173 10.464"/><path stroke-width=".398504" d="m-8.116-39.096 1.704-4.528-1.704 1.486-1.704-1.486Z"/><use xlink:href="#a" x="-28.525" y="-39.095" stroke="none" transform="matrix(1 0 0 1 38.767 -9.631)"/><path fill="none" stroke-width=".398504" d="M-28.525-39.095v17.007h25.511v-17.007"/><path fill="none" stroke-width=".398504" d="M-28.525-22.088V-5.08h25.511v-17.008"/><use xlink:href="#a" x="-28.525" y="-39.095" stroke="none" transform="matrix(1 0 0 1 9.827 29.487)"/><g stroke="none" transform="matrix(1 0 0 1 53.858 12.479)"><use xlink:href="#b" x="-28.525" y="-39.095"/><use xlink:href="#c" x="-23.516" y="-39.095"/><use xlink:href="#d" x="-16.044" y="-39.095"/><use xlink:href="#e" x="-8.572" y="-39.095"/><use xlink:href="#f" x="-1.1" y="-39.095"/><use xlink:href="#g" x="4.136" y="-39.095"/><use xlink:href="#a" x="16.753" y="-39.095"/><path d="M13.366-50.433h12.633v.399H13.366z"/><path d="M13.366-50.234h.399v14.326h-.399zM25.6-50.234h.399v14.326H25.6z"/><path d="M13.366-36.107h12.633v.399H13.366z"/><use xlink:href="#h" x="27.991" y="-39.095"/><use xlink:href="#i" x="35.841" y="-39.095"/></g><path fill="none" stroke-width=".398504" d="M6.057 15.33c-7.827 0-14.173 6.345-14.173 10.464"/><path stroke-width=".398504" d="m-8.116 28.935 1.704-4.527-1.704 1.485-1.704-1.485Z"/><use xlink:href="#h" x="-28.525" y="-39.095" stroke="none" transform="matrix(1 0 0 1 38.767 58.4)"/><path fill="none" stroke-width=".398504" d="M-28.525 28.936v17.008h25.511V28.936M-28.525 45.944v17.008h25.511V45.944"/><use xlink:href="#h" x="-28.525" y="-39.095" stroke="none" transform="matrix(1 0 0 1 9.827 97.518)"/><path fill="none" stroke-width=".398504" d="M-28.525 62.952V79.96h25.511V62.952"/><use xlink:href="#a" x="-28.525" y="-39.095" stroke="none" transform="matrix(1 0 0 1 9.827 114.526)"/><g stroke="none" transform="matrix(1 0 0 1 53.858 80.51)"><use xlink:href="#b" x="-28.525" y="-39.095"/><use xlink:href="#c" x="-23.516" y="-39.095"/><use xlink:href="#d" x="-16.044" y="-39.095"/><use xlink:href="#e" x="-8.572" y="-39.095"/><use xlink:href="#f" x="-1.1" y="-39.095"/><use xlink:href="#g" x="4.136" y="-39.095"/><use xlink:href="#a" x="13.366" y="-39.095"/><use xlink:href="#h" x="24.603" y="-39.095"/><path d="M21.216-50.433h12.633v.399H21.216z"/><path d="M21.216-50.234h.399v14.326h-.399zM33.45-50.234h.399v14.326h-.399z"/><path d="M21.216-36.107h12.633v.399H21.216z"/><use xlink:href="#i" x="35.841" y="-39.095"/></g><path fill="none" stroke-width=".398504" d="M6.057 100.369c-7.827 0-14.173 6.345-14.173 10.464"/><path stroke-width=".398504" d="m-8.116 113.975 1.704-4.528-1.704 1.485-1.704-1.485Z"/><use xlink:href="#j" x="-28.525" y="-39.095" stroke="none" transform="matrix(1 0 0 1 38.767 143.314)"/><path fill="none" stroke-width=".398504" d="M-19.454 114.542c0-7.828-6.346-14.173-10.464-14.173"/><path stroke-width=".398504" d="m-33.06 100.369 4.527 1.704-1.485-1.704 1.485-1.704Z"/><g stroke="none" transform="matrix(1 0 0 1 -28.151 142.286)"><use xlink:href="#h" x="-28.525" y="-39.095"/><use xlink:href="#k" x="-22.667" y="-39.095"/><use xlink:href="#a" x="-15.518" y="-39.095"/></g><path fill="none" stroke-width=".398504" d="M-28.525 113.975v17.008h25.511v-17.008M-28.525 130.983v17.008h25.511v-17.008"/><use xlink:href="#j" x="-28.525" y="-39.095" stroke="none" transform="matrix(1 0 0 1 9.827 182.432)"/><g stroke="none" transform="matrix(1 0 0 1 53.858 164.563)"><use xlink:href="#b" x="-28.525" y="-39.095"/><use xlink:href="#c" x="-23.516" y="-39.095"/><use xlink:href="#d" x="-16.044" y="-39.095"/><use xlink:href="#e" x="-8.572" y="-39.095"/><use xlink:href="#f" x="-1.1" y="-39.095"/><use xlink:href="#g" x="4.136" y="-39.095"/><use xlink:href="#a" x="13.366" y="-39.095"/><use xlink:href="#h" x="21.216" y="-39.095"/><use xlink:href="#i" x="32.454" y="-39.095"/><path d="M29.067-49.373h15.879v.399H29.067z"/><path d="M29.067-49.174h.399v14.18h-.399zM44.548-49.174h.399v14.18h-.399z"/><path d="M29.067-35.193h15.879v.399H29.067z"/></g></g></svg>