<svg xmlns="http://www.w3.org/2000/svg" xmlns:xlink="http://www.w3.org/1999/xlink" width="295.934" height="328.573" viewBox="-72 -72 221.951 246.43"><defs><path id="h" d="M4.77-2.762h3.3c.167 0 .382 0 .382-.215 0-.227-.203-.227-.382-.227h-3.3v-3.3c0-.167 0-.382-.215-.382-.227 0-.227.203-.227.382v3.3h-3.3c-.167 0-.382 0-.382.215 0 .227.203.227.382.227h3.3v3.3c0 .167 0 .383.215.383.227 0 .227-.204.227-.383z"/><path id="f" d="M2.2-4.579a.58.58 0 0 0-.574-.574.577.577 0 0 0-.586.574.58.58 0 1 0 1.16 0m0 3.993a.58.58 0 0 0-.574-.574.577.577 0 0 0-.586.574.58.58 0 1 0 1.16 0"/><path id="g" d="M4.902 0v-.347H4.53c-1.052 0-1.088-.143-1.088-.574v-6.742c0-.275 0-.287-.239-.287-.287.323-.885.765-2.116.765v.347c.275 0 .873 0 1.53-.311v6.228c0 .43-.036.574-1.088.574h-.37V0c.322-.024 1.482-.024 1.877-.024s1.542 0 1.865.024"/><path id="i" d="M5.26-2.008h-.263c-.036.203-.131.86-.25 1.052-.084.107-.766.107-1.125.107H1.411c.322-.275 1.052-1.04 1.363-1.327C4.59-3.85 5.26-4.47 5.26-5.655c0-1.375-1.088-2.295-2.474-2.295s-2.2 1.183-2.2 2.212c0 .61.526.61.562.61.25 0 .562-.18.562-.563 0-.334-.228-.562-.562-.562a.5.5 0 0 0-.168.012c.227-.813.873-1.362 1.65-1.362 1.016 0 1.638.848 1.638 1.948 0 1.016-.586 1.901-1.267 2.666L.586-.287V0h4.363z"/><path id="a" d="M4.627 0v-.514h-1.34v-7.173h1.34v-.514c-.43.024-1.626.024-2.128.024S.8-8.177.37-8.201v.514H1.71v7.173H.37V0C.802-.024 1.998-.024 2.5-.024s1.697 0 2.128.024"/><path id="b" d="M7.173 0v-.514h-.825v-3.144c0-1.136-.49-1.722-1.805-1.722-.86 0-1.602.419-2.009 1.315h-.011V-5.38l-2.02.096v.514c.74 0 .824 0 .824.466v3.79H.502V0c.275-.024 1.136-.024 1.47-.024s1.208 0 1.483.024v-.514H2.63v-2.547c0-1.29.957-1.924 1.722-1.924.442 0 .693.287.693 1.195v3.276H4.22V0c.275-.024 1.136-.024 1.47-.024s1.208 0 1.483.024"/><path id="j" d="M9.349-4.065c0-2.534-1.65-4.28-4.304-4.28-2.666 0-4.304 1.758-4.304 4.28S2.415.143 5.045.143 9.35-1.542 9.35-4.065m-1.686-.167c0 1.183-.131 2.176-.729 3a2.37 2.37 0 0 1-1.889.921c-.777 0-1.53-.37-1.984-1.052-.574-.873-.634-1.996-.634-2.87 0-.728.036-1.733.526-2.546.526-.836 1.387-1.135 2.092-1.135.968 0 1.686.514 2.032 1.052.443.693.586 1.434.586 2.63"/><path id="c" d="M7.006-2.666c0-1.65-1.112-2.714-2.726-2.714-.705 0-1.315.24-1.793.622v-.622l-2.069.096v.514c.742 0 .825 0 .825.466v6.11H.418v.513c.275-.024 1.136-.024 1.47-.024s1.208 0 1.483.024v-.514h-.825V-.49c.3.263.825.562 1.543.562 1.638 0 2.917-.993 2.917-2.738m-1.435 0c0 1.733-.86 2.343-1.626 2.343-.514 0-1.028-.263-1.399-.825v-3.036A1.96 1.96 0 0 1 4.09-4.95c.777 0 1.482.705 1.482 2.283"/><path id="e" d="M4.471-1.482v-.634H3.97v.622c0 .789-.359 1.135-.73 1.135-.716 0-.716-.8-.716-1.076v-3.359h1.721v-.514H2.523v-2.284H2.02C2.008-6.408 1.435-5.224.251-5.189v.395h.968v3.324C1.22-.203 2.2.072 3.061.072c.884 0 1.41-.67 1.41-1.554"/><path id="d" d="M7.173 0v-.514c-.741 0-.825 0-.825-.466v-4.4l-2.128.096v.514c.741 0 .825 0 .825.466v2.343c0 .909-.538 1.638-1.47 1.638-.897 0-.945-.299-.945-.956v-4.1l-2.128.095v.514c.741 0 .825 0 .825.466v2.834c0 1.195.801 1.542 2.08 1.542.287 0 1.172 0 1.686-.969h.012v.969z"/></defs><g stroke="#000" stroke-miterlimit="10" stroke-width=".4"><path fill="none" stroke-width=".398504" d="M-38.286-49.958v17.008h25.512v-17.008"/><g stroke="none" transform="matrix(1 0 0 1 53.858 4.619)"><use xlink:href="#a" x="-38.286" y="-49.958"/><use xlink:href="#b" x="-33.277" y="-49.958"/><use xlink:href="#c" x="-25.805" y="-49.958"/><use xlink:href="#d" x="-18.333" y="-49.958"/><use xlink:href="#e" x="-10.861" y="-49.958"/><use xlink:href="#f" x="-5.624" y="-49.958"/><use xlink:href="#g" x="6.992" y="-49.958"/><path d="M3.605-61.295h12.633v.399H3.605z"/><path d="M3.605-61.096h.399v14.326h-.399zM15.839-61.096h.399v14.326h-.399z"/><path d="M3.605-46.969h12.633v.399H3.605z"/><use xlink:href="#h" x="18.23" y="-49.958"/><use xlink:href="#i" x="29.327" y="-49.958"/><use xlink:href="#j" x="-38.286" y="-34.237"/><use xlink:href="#d" x="-28.184" y="-34.237"/><use xlink:href="#e" x="-20.712" y="-34.237"/><use xlink:href="#c" x="-15.476" y="-34.237"/><use xlink:href="#d" x="-8.004" y="-34.237"/><use xlink:href="#e" x="-.532" y="-34.237"/><use xlink:href="#f" x="4.705" y="-34.237"/><use xlink:href="#g" x="17.321" y="-34.237"/><path d="M13.934-45.574h12.633v.399H13.934z"/><path d="M13.934-45.375h.399v14.326h-.399zM26.168-45.375h.399v14.326h-.399z"/><path d="M13.934-31.248h12.633v.399H13.934z"/></g><path fill="none" stroke-width=".398504" d="M-3.703-12.54c-7.828 0-14.173 6.345-14.173 10.463"/><path stroke-width=".398504" d="m-17.876 1.065 1.704-4.527-1.704 1.485-1.705-1.485Z"/><use xlink:href="#h" x="-38.286" y="-49.958" stroke="none" transform="matrix(1 0 0 1 38.767 40.406)"/><path fill="none" stroke-width=".398504" d="M-38.286 1.066v17.008h25.512V1.066M-38.286 18.074V35.08h25.512V18.074"/><use xlink:href="#h" x="-38.286" y="-49.958" stroke="none" transform="matrix(1 0 0 1 8.204 79.524)"/><g stroke="none" transform="matrix(1 0 0 1 53.858 56.284)"><use xlink:href="#a" x="-38.286" y="-49.958"/><use xlink:href="#b" x="-33.277" y="-49.958"/><use xlink:href="#c" x="-25.805" y="-49.958"/><use xlink:href="#d" x="-18.333" y="-49.958"/><use xlink:href="#e" x="-10.861" y="-49.958"/><use xlink:href="#f" x="-5.624" y="-49.958"/><use xlink:href="#g" x="3.605" y="-49.958"/><use xlink:href="#h" x="14.843" y="-49.958"/><path d="M11.456-60.236h15.879v.399H11.456z"/><path d="M11.456-60.037h.399v14.18h-.399zM26.936-60.037h.399v14.18h-.399z"/><path d="M11.456-46.056h15.879v.399H11.456z"/><use xlink:href="#i" x="29.327" y="-49.958"/><use xlink:href="#j" x="-38.286" y="-35.512"/><use xlink:href="#d" x="-28.184" y="-35.512"/><use xlink:href="#e" x="-20.712" y="-35.512"/><use xlink:href="#c" x="-15.476" y="-35.512"/><use xlink:href="#d" x="-8.004" y="-35.512"/><use xlink:href="#e" x="-.532" y="-35.512"/><use xlink:href="#f" x="4.705" y="-35.512"/><use xlink:href="#g" x="13.934" y="-35.512"/></g><path fill="none" stroke-width=".398504" d="M-38.286 69.097v17.008h25.512V69.097M-38.286 86.105v17.008h25.512V86.105"/><use xlink:href="#h" x="-38.286" y="-49.958" stroke="none" transform="matrix(1 0 0 1 8.204 147.556)"/><g stroke="none" transform="matrix(1 0 0 1 53.858 123.674)"><use xlink:href="#a" x="-38.286" y="-49.958"/><use xlink:href="#b" x="-33.277" y="-49.958"/><use xlink:href="#c" x="-25.805" y="-49.958"/><use xlink:href="#d" x="-18.333" y="-49.958"/><use xlink:href="#e" x="-10.861" y="-49.958"/><use xlink:href="#f" x="-5.624" y="-49.958"/><use xlink:href="#g" x="3.605" y="-49.958"/><use xlink:href="#h" x="11.456" y="-49.958"/><use xlink:href="#i" x="25.94" y="-49.958"/><path d="M22.553-61.295h12.633v.399H22.553z"/><path d="M22.553-61.096h.399v14.326h-.399zM34.787-61.096h.399v14.326h-.399z"/><path d="M22.553-46.969h12.633v.399H22.553z"/><use xlink:href="#j" x="-38.286" y="-34.237"/><use xlink:href="#d" x="-28.184" y="-34.237"/><use xlink:href="#e" x="-20.712" y="-34.237"/><use xlink:href="#c" x="-15.476" y="-34.237"/><use xlink:href="#d" x="-8.004" y="-34.237"/><use xlink:href="#e" x="-.532" y="-34.237"/><use xlink:href="#f" x="4.705" y="-34.237"/><use xlink:href="#g" x="13.934" y="-34.237"/><use xlink:href="#i" x="25.172" y="-34.237"/><path d="M21.785-45.574h12.633v.399H21.785z"/><path d="M21.785-45.375h.399v14.326h-.399zM34.019-45.375h.399v14.326h-.399z"/><path d="M21.785-31.248h12.633v.399H21.785z"/></g><path fill="none" stroke-width=".398504" d="M-29.215 137.696c0-7.828-6.346-14.174-10.464-14.174"/><path stroke-width=".398504" d="m-42.82 123.522 4.527 1.705-1.485-1.705 1.485-1.704Z"/><use xlink:href="#h" x="-38.286" y="-49.958" stroke="none" transform="matrix(1 0 0 1 -18.39 176.469)"/><path fill="none" stroke-width=".398504" d="M-38.286 137.129v17.007h25.512V137.13"/><g stroke="none" transform="matrix(1 0 0 1 53.858 190.318)"><use xlink:href="#a" x="-38.286" y="-49.958"/><use xlink:href="#b" x="-33.277" y="-49.958"/><use xlink:href="#c" x="-25.805" y="-49.958"/><use xlink:href="#d" x="-18.333" y="-49.958"/><use xlink:href="#e" x="-10.861" y="-49.958"/><use xlink:href="#f" x="-5.624" y="-49.958"/><use xlink:href="#g" x="3.605" y="-49.958"/><use xlink:href="#h" x="11.456" y="-49.958"/><use xlink:href="#i" x="22.553" y="-49.958"/><use xlink:href="#j" x="-38.286" y="-35.512"/><use xlink:href="#d" x="-28.184" y="-35.512"/><use xlink:href="#e" x="-20.712" y="-35.512"/><use xlink:href="#c" x="-15.476" y="-35.512"/><use xlink:href="#d" x="-8.004" y="-35.512"/><use xlink:href="#e" x="-.532" y="-35.512"/><use xlink:href="#f" x="4.705" y="-35.512"/><use xlink:href="#g" x="13.934" y="-35.512"/><use xlink:href="#i" x="21.785" y="-35.512"/><use xlink:href="#h" x="33.023" y="-35.512"/><path d="M29.635-45.79h15.879v.399H29.635z"/><path d="M29.635-45.591h.399v14.18h-.399zM45.116-45.591h.399v14.18h-.399z"/><path d="M29.635-31.61h15.879v.399H29.635z"/></g></g></svg>