<svg xmlns="http://www.w3.org/2000/svg" xmlns:xlink="http://www.w3.org/1999/xlink" width="326.429" height="351.305" viewBox="-72 -72 244.822 263.479"><defs><path id="g" d="M2.2-4.579a.58.58 0 0 0-.574-.574.577.577 0 0 0-.586.574.58.58 0 1 0 1.16 0m0 3.993a.58.58 0 0 0-.574-.574.577.577 0 0 0-.586.574.58.58 0 1 0 1.16 0"/><path id="h" d="M4.902 0v-.347H4.53c-1.052 0-1.088-.143-1.088-.574v-6.742c0-.275 0-.287-.239-.287-.287.323-.885.765-2.116.765v.347c.275 0 .873 0 1.53-.311v6.228c0 .43-.036.574-1.088.574h-.37V0c.322-.024 1.482-.024 1.877-.024s1.542 0 1.865.024"/><path id="k" d="M5.356-2.044c0-1.1-.885-1.961-2.032-2.164 1.04-.3 1.71-1.172 1.71-2.104 0-.945-.981-1.638-2.14-1.638-1.196 0-2.081.73-2.081 1.602 0 .478.37.574.55.574.25 0 .538-.18.538-.538 0-.383-.287-.55-.55-.55-.072 0-.096 0-.132.012.455-.813 1.579-.813 1.638-.813.395 0 1.172.18 1.172 1.35 0 .228-.036.897-.383 1.411-.358.526-.765.562-1.088.574l-.358.036c-.203.012-.251.024-.251.132 0 .12.06.12.275.12h.55c1.016 0 1.47.836 1.47 1.984 0 1.566-.813 1.984-1.399 1.984-.574 0-1.554-.275-1.9-1.064.382.06.729-.155.729-.586a.565.565 0 0 0-.586-.585c-.287 0-.598.167-.598.621C.49-.622 1.554.251 2.881.251c1.423 0 2.475-1.088 2.475-2.295"/><path id="i" d="M5.26-2.008h-.263c-.036.203-.131.86-.25 1.052-.084.107-.766.107-1.125.107H1.411c.322-.275 1.052-1.04 1.363-1.327C4.59-3.85 5.26-4.47 5.26-5.655c0-1.375-1.088-2.295-2.474-2.295s-2.2 1.183-2.2 2.212c0 .61.526.61.562.61.25 0 .562-.18.562-.563 0-.334-.228-.562-.562-.562a.5.5 0 0 0-.168.012c.227-.813.873-1.362 1.65-1.362 1.016 0 1.638.848 1.638 1.948 0 1.016-.586 1.901-1.267 2.666L.586-.287V0h4.363z"/><path id="b" d="M4.627 0v-.514h-1.34v-7.173h1.34v-.514c-.43.024-1.626.024-2.128.024S.8-8.177.37-8.201v.514H1.71v7.173H.37V0C.802-.024 1.998-.024 2.5-.024s1.697 0 2.128.024"/><path id="c" d="M7.173 0v-.514h-.825v-3.144c0-1.136-.49-1.722-1.805-1.722-.86 0-1.602.419-2.009 1.315h-.011V-5.38l-2.02.096v.514c.74 0 .824 0 .824.466v3.79H.502V0c.275-.024 1.136-.024 1.47-.024s1.208 0 1.483.024v-.514H2.63v-2.547c0-1.29.957-1.924 1.722-1.924.442 0 .693.287.693 1.195v3.276H4.22V0c.275-.024 1.136-.024 1.47-.024s1.208 0 1.483.024"/><path id="l" d="M9.349-4.065c0-2.534-1.65-4.28-4.304-4.28-2.666 0-4.304 1.758-4.304 4.28S2.415.143 5.045.143 9.35-1.542 9.35-4.065m-1.686-.167c0 1.183-.131 2.176-.729 3a2.37 2.37 0 0 1-1.889.921c-.777 0-1.53-.37-1.984-1.052-.574-.873-.634-1.996-.634-2.87 0-.728.036-1.733.526-2.546.526-.836 1.387-1.135 2.092-1.135.968 0 1.686.514 2.032 1.052.443.693.586 1.434.586 2.63"/><path id="d" d="M7.006-2.666c0-1.65-1.112-2.714-2.726-2.714-.705 0-1.315.24-1.793.622v-.622l-2.069.096v.514c.742 0 .825 0 .825.466v6.11H.418v.513c.275-.024 1.136-.024 1.47-.024s1.208 0 1.483.024v-.514h-.825V-.49c.3.263.825.562 1.543.562 1.638 0 2.917-.993 2.917-2.738m-1.435 0c0 1.733-.86 2.343-1.626 2.343-.514 0-1.028-.263-1.399-.825v-3.036A1.96 1.96 0 0 1 4.09-4.95c.777 0 1.482.705 1.482 2.283"/><path id="f" d="M4.471-1.482v-.634H3.97v.622c0 .789-.359 1.135-.73 1.135-.716 0-.716-.8-.716-1.076v-3.359h1.721v-.514H2.523v-2.284H2.02C2.008-6.408 1.435-5.224.251-5.189v.395h.968v3.324C1.22-.203 2.2.072 3.061.072c.884 0 1.41-.67 1.41-1.554"/><path id="e" d="M7.173 0v-.514c-.741 0-.825 0-.825-.466v-4.4l-2.128.096v.514c.741 0 .825 0 .825.466v2.343c0 .909-.538 1.638-1.47 1.638-.897 0-.945-.299-.945-.956v-4.1l-2.128.095v.514c.741 0 .825 0 .825.466v2.834c0 1.195.801 1.542 2.08 1.542.287 0 1.172 0 1.686-.969h.012v.969z"/><path id="j" d="M7.878-2.75c.204 0 .419 0 .419-.239s-.215-.239-.419-.239H1.411c-.204 0-.419 0-.419.24s.215.238.419.238z"/><path id="a" d="M4.77-2.762h3.3c.167 0 .382 0 .382-.215 0-.227-.203-.227-.382-.227h-3.3v-3.3c0-.167 0-.382-.215-.382-.227 0-.227.203-.227.382v3.3h-3.3c-.167 0-.382 0-.382.215 0 .227.203.227.382.227h3.3v3.3c0 .167 0 .383.215.383.227 0 .227-.204.227-.383z"/></defs><g stroke="#000" stroke-miterlimit="10" stroke-width=".4"><path fill="none" stroke-width=".398504" d="M-38.092-49.958v17.008h25.512v-17.008M-38.092-32.95v17.008h25.512V-32.95"/><use xlink:href="#a" x="-38.092" y="-49.958" stroke="none" transform="matrix(1 0 0 1 8.204 28.5)"/><g stroke="none" transform="matrix(1 0 0 1 53.858 4.619)"><use xlink:href="#b" x="-38.092" y="-49.958"/><use xlink:href="#c" x="-33.083" y="-49.958"/><use xlink:href="#d" x="-25.611" y="-49.958"/><use xlink:href="#e" x="-18.139" y="-49.958"/><use xlink:href="#f" x="-10.667" y="-49.958"/><use xlink:href="#g" x="-5.431" y="-49.958"/><use xlink:href="#h" x="3.799" y="-49.958"/><use xlink:href="#a" x="11.649" y="-49.958"/><use xlink:href="#i" x="26.134" y="-49.958"/><path d="M22.747-61.295H35.38v.399H22.747z"/><path d="M22.747-61.096h.399v14.326h-.399zM34.981-61.096h.399v14.326h-.399z"/><path d="M22.747-46.969H35.38v.399H22.747z"/><use xlink:href="#j" x="37.372" y="-49.958"/><use xlink:href="#k" x="48.663" y="-49.958"/><use xlink:href="#l" x="-38.092" y="-34.237"/><use xlink:href="#e" x="-27.99" y="-34.237"/><use xlink:href="#f" x="-20.518" y="-34.237"/><use xlink:href="#d" x="-15.282" y="-34.237"/><use xlink:href="#e" x="-7.81" y="-34.237"/><use xlink:href="#f" x="-.338" y="-34.237"/><use xlink:href="#g" x="4.899" y="-34.237"/><use xlink:href="#h" x="14.128" y="-34.237"/><use xlink:href="#i" x="25.366" y="-34.237"/><path d="M21.979-45.574h12.633v.399H21.979z"/><path d="M21.979-45.375h.399v14.326h-.399zM34.213-45.375h.399v14.326h-.399z"/><path d="M21.979-31.248h12.633v.399H21.979z"/></g><path fill="none" stroke-width=".398504" d="M-29.021 18.64c0-7.827-6.346-14.173-10.464-14.173"/><path stroke-width=".398504" d="m-42.627 4.467 4.528 1.705-1.486-1.705 1.486-1.704Z"/><use xlink:href="#a" x="-38.092" y="-49.958" stroke="none" transform="matrix(1 0 0 1 -18.39 57.414)"/><path fill="none" stroke-width=".398504" d="M-3.51 4.467c-7.827 0-14.173 6.346-14.173 10.464"/><path stroke-width=".398504" d="m-17.683 18.073 1.705-4.528-1.705 1.486-1.704-1.486Z"/><use xlink:href="#j" x="-38.092" y="-49.958" stroke="none" transform="matrix(1 0 0 1 38.767 57.414)"/><path fill="none" stroke-width=".398504" d="M-38.092 18.074V35.08h25.512V18.074M-38.092 35.081V52.09h25.512V35.081"/><use xlink:href="#j" x="-38.092" y="-49.958" stroke="none" transform="matrix(1 0 0 1 8.107 96.532)"/><g stroke="none" transform="matrix(1 0 0 1 53.858 71.737)"><use xlink:href="#b" x="-38.092" y="-49.958"/><use xlink:href="#c" x="-33.083" y="-49.958"/><use xlink:href="#d" x="-25.611" y="-49.958"/><use xlink:href="#e" x="-18.139" y="-49.958"/><use xlink:href="#f" x="-10.667" y="-49.958"/><use xlink:href="#g" x="-5.431" y="-49.958"/><use xlink:href="#h" x="3.799" y="-49.958"/><use xlink:href="#a" x="11.649" y="-49.958"/><use xlink:href="#i" x="22.747" y="-49.958"/><use xlink:href="#j" x="33.985" y="-49.958"/><path d="M30.597-60.319H46.67v.399H30.597z"/><path d="M30.597-60.12h.399v14.346h-.399zM46.272-60.12h.399v14.346h-.399z"/><path d="M30.597-45.973H46.67v.399H30.597z"/><use xlink:href="#k" x="48.663" y="-49.958"/><use xlink:href="#l" x="-38.092" y="-34.3"/><use xlink:href="#e" x="-27.99" y="-34.3"/><use xlink:href="#f" x="-20.518" y="-34.3"/><use xlink:href="#d" x="-15.282" y="-34.3"/><use xlink:href="#e" x="-7.81" y="-34.3"/><use xlink:href="#f" x="-.338" y="-34.3"/><use xlink:href="#g" x="4.899" y="-34.3"/><use xlink:href="#h" x="14.128" y="-34.3"/><use xlink:href="#i" x="21.979" y="-34.3"/><use xlink:href="#a" x="33.217" y="-34.3"/><path d="M29.829-44.578h15.879v.399H29.829z"/><path d="M29.829-44.379h.399v14.18h-.399zM45.31-44.379h.399v14.18h-.399z"/><path d="M29.829-30.398h15.879v.399H29.829z"/></g><path fill="none" stroke-width=".398504" d="M-38.092 86.105v17.008h25.512V86.105M-38.092 103.113v17.008h25.512v-17.008"/><use xlink:href="#j" x="-38.092" y="-49.958" stroke="none" transform="matrix(1 0 0 1 8.107 164.563)"/><g stroke="none" transform="matrix(1 0 0 1 53.858 140.43)"><use xlink:href="#b" x="-38.092" y="-49.958"/><use xlink:href="#c" x="-33.083" y="-49.958"/><use xlink:href="#d" x="-25.611" y="-49.958"/><use xlink:href="#e" x="-18.139" y="-49.958"/><use xlink:href="#f" x="-10.667" y="-49.958"/><use xlink:href="#g" x="-5.431" y="-49.958"/><use xlink:href="#h" x="3.799" y="-49.958"/><use xlink:href="#a" x="11.649" y="-49.958"/><use xlink:href="#i" x="22.747" y="-49.958"/><use xlink:href="#j" x="30.597" y="-49.958"/><use xlink:href="#k" x="45.276" y="-49.958"/><path d="M41.888-61.295h12.633v.399H41.888z"/><path d="M41.888-61.096h.399v14.577h-.399zM54.122-61.096h.399v14.577h-.399z"/><path d="M41.888-46.718h12.633v.399H41.888z"/><use xlink:href="#l" x="-38.092" y="-33.986"/><use xlink:href="#e" x="-27.99" y="-33.986"/><use xlink:href="#f" x="-20.518" y="-33.986"/><use xlink:href="#d" x="-15.282" y="-33.986"/><use xlink:href="#e" x="-7.81" y="-33.986"/><use xlink:href="#f" x="-.338" y="-33.986"/><use xlink:href="#g" x="4.899" y="-33.986"/><use xlink:href="#h" x="14.128" y="-33.986"/><use xlink:href="#i" x="21.979" y="-33.986"/><use xlink:href="#a" x="29.829" y="-33.986"/><use xlink:href="#k" x="44.314" y="-33.986"/><path d="M40.927-45.323H53.56v.399H40.927z"/><path d="M40.927-45.124h.399v14.577h-.399zM53.161-45.124h.399v14.577h-.399z"/><path d="M40.927-30.746H53.56v.399H40.927z"/></g><path fill="none" stroke-width=".398504" d="M-29.021 154.703c0-7.827-6.346-14.173-10.464-14.173"/><path stroke-width=".398504" d="m-42.627 140.53 4.528 1.705-1.486-1.705 1.486-1.704Z"/><use xlink:href="#j" x="-38.092" y="-49.958" stroke="none" transform="matrix(1 0 0 1 -18.585 193.477)"/><path fill="none" stroke-width=".398504" d="M-38.092 154.136v17.008h25.512v-17.008"/><g stroke="none" transform="matrix(1 0 0 1 53.858 207.284)"><use xlink:href="#b" x="-38.092" y="-49.958"/><use xlink:href="#c" x="-33.083" y="-49.958"/><use xlink:href="#d" x="-25.611" y="-49.958"/><use xlink:href="#e" x="-18.139" y="-49.958"/><use xlink:href="#f" x="-10.667" y="-49.958"/><use xlink:href="#g" x="-5.431" y="-49.958"/><use xlink:href="#h" x="3.799" y="-49.958"/><use xlink:href="#a" x="11.649" y="-49.958"/><use xlink:href="#i" x="22.747" y="-49.958"/><use xlink:href="#j" x="30.597" y="-49.958"/><use xlink:href="#k" x="41.888" y="-49.958"/><use xlink:href="#l" x="-38.092" y="-35.512"/><use xlink:href="#e" x="-27.99" y="-35.512"/><use xlink:href="#f" x="-20.518" y="-35.512"/><use xlink:href="#d" x="-15.282" y="-35.512"/><use xlink:href="#e" x="-7.81" y="-35.512"/><use xlink:href="#f" x="-.338" y="-35.512"/><use xlink:href="#g" x="4.899" y="-35.512"/><use xlink:href="#h" x="14.128" y="-35.512"/><use xlink:href="#i" x="21.979" y="-35.512"/><use xlink:href="#a" x="29.829" y="-35.512"/><use xlink:href="#k" x="40.927" y="-35.512"/><use xlink:href="#j" x="52.164" y="-35.512"/><path d="M48.777-45.873H64.85v.399H48.777z"/><path d="M48.777-45.674h.399v14.346h-.399zM64.452-45.674h.399v14.346h-.399z"/><path d="M48.777-31.527H64.85v.399H48.777z"/></g></g></svg>