<svg xmlns="http://www.w3.org/2000/svg" xmlns:xlink="http://www.w3.org/1999/xlink" width="341.776" height="306.132" viewBox="-72 -72 256.332 229.599"><defs><path id="d" d="M4.627 0v-.514h-1.34v-7.173h1.34v-.514c-.43.024-1.626.024-2.128.024S.8-8.177.37-8.201v.514H1.71v7.173H.37V0C.802-.024 1.998-.024 2.5-.024s1.697 0 2.128.024"/><path id="e" d="M7.173 0v-.514h-.825v-3.144c0-1.136-.49-1.722-1.805-1.722-.86 0-1.602.419-2.009 1.315h-.011V-5.38l-2.02.096v.514c.74 0 .824 0 .824.466v3.79H.502V0c.275-.024 1.136-.024 1.47-.024s1.208 0 1.483.024v-.514H2.63v-2.547c0-1.29.957-1.924 1.722-1.924.442 0 .693.287.693 1.195v3.276H4.22V0c.275-.024 1.136-.024 1.47-.024s1.208 0 1.483.024"/><path id="n" d="M9.349-4.065c0-2.534-1.65-4.28-4.304-4.28-2.666 0-4.304 1.758-4.304 4.28S2.415.143 5.045.143 9.35-1.542 9.35-4.065m-1.686-.167c0 1.183-.131 2.176-.729 3a2.37 2.37 0 0 1-1.889.921c-.777 0-1.53-.37-1.984-1.052-.574-.873-.634-1.996-.634-2.87 0-.728.036-1.733.526-2.546.526-.836 1.387-1.135 2.092-1.135.968 0 1.686.514 2.032 1.052.443.693.586 1.434.586 2.63"/><path id="f" d="M7.006-2.666c0-1.65-1.112-2.714-2.726-2.714-.705 0-1.315.24-1.793.622v-.622l-2.069.096v.514c.742 0 .825 0 .825.466v6.11H.418v.513c.275-.024 1.136-.024 1.47-.024s1.208 0 1.483.024v-.514h-.825V-.49c.3.263.825.562 1.543.562 1.638 0 2.917-.993 2.917-2.738m-1.435 0c0 1.733-.86 2.343-1.626 2.343-.514 0-1.028-.263-1.399-.825v-3.036A1.96 1.96 0 0 1 4.09-4.95c.777 0 1.482.705 1.482 2.283"/><path id="h" d="M4.471-1.482v-.634H3.97v.622c0 .789-.359 1.135-.73 1.135-.716 0-.716-.8-.716-1.076v-3.359h1.721v-.514H2.523v-2.284H2.02C2.008-6.408 1.435-5.224.251-5.189v.395h.968v3.324C1.22-.203 2.2.072 3.061.072c.884 0 1.41-.67 1.41-1.554"/><path id="g" d="M7.173 0v-.514c-.741 0-.825 0-.825-.466v-4.4l-2.128.096v.514c.741 0 .825 0 .825.466v2.343c0 .909-.538 1.638-1.47 1.638-.897 0-.945-.299-.945-.956v-4.1l-2.128.095v.514c.741 0 .825 0 .825.466v2.834c0 1.195.801 1.542 2.08 1.542.287 0 1.172 0 1.686-.969h.012v.969z"/><path id="c" d="M3.288-5.105c.012-.167.012-.454-.3-.454-.19 0-.346.155-.31.31v.156l.167 1.853-1.53-1.112c-.108-.06-.131-.083-.215-.083-.167 0-.323.167-.323.334 0 .192.12.24.24.3l1.697.812-1.65.801c-.191.096-.287.144-.287.323s.156.335.323.335c.084 0 .107 0 .406-.227l1.34-.969-.18 2.009c0 .25.215.31.31.31.144 0 .324-.083.324-.31l-.18-2.009 1.53 1.112c.108.06.132.084.216.084.167 0 .323-.168.323-.335 0-.18-.108-.24-.252-.31-.717-.36-.74-.36-1.685-.802l1.65-.8c.19-.096.287-.144.287-.324s-.156-.334-.323-.334c-.084 0-.108 0-.407.227L3.12-3.24z"/><path id="i" d="M2.2-4.579a.58.58 0 0 0-.574-.574.577.577 0 0 0-.586.574.58.58 0 1 0 1.16 0m0 3.993a.58.58 0 0 0-.574-.574.577.577 0 0 0-.586.574.58.58 0 1 0 1.16 0"/><path id="o" d="M2.331.048c0-.741-.25-1.208-.717-1.208a.56.56 0 0 0-.574.574c0 .323.227.586.586.586a.6.6 0 0 0 .382-.143c.036-.036.06-.036.06-.036s.024.167.024.227a2.94 2.94 0 0 1-.837 2.032c-.048.036-.06.06-.06.108 0 .06.06.12.12.12.108 0 1.016-.885 1.016-2.26"/><path id="j" d="M4.902 0v-.347H4.53c-1.052 0-1.088-.143-1.088-.574v-6.742c0-.275 0-.287-.239-.287-.287.323-.885.765-2.116.765v.347c.275 0 .873 0 1.53-.311v6.228c0 .43-.036.574-1.088.574h-.37V0c.322-.024 1.482-.024 1.877-.024s1.542 0 1.865.024"/><path id="b" d="M3.885 2.905c0-.036 0-.06-.203-.263-1.195-1.207-1.865-3.18-1.865-5.619 0-2.32.562-4.316 1.949-5.726.12-.108.12-.132.12-.168 0-.071-.06-.095-.108-.095-.156 0-1.136.86-1.722 2.032-.61 1.207-.884 2.487-.884 3.957 0 1.064.167 2.487.789 3.766.705 1.435 1.685 2.212 1.817 2.212.048 0 .107-.024.107-.096"/><path id="m" d="M3.371-2.977c0-.908-.12-2.39-.789-3.778C1.877-8.189.897-8.966.765-8.966c-.048 0-.107.024-.107.095 0 .036 0 .06.203.263 1.195 1.208 1.865 3.18 1.865 5.62 0 2.319-.562 4.315-1.949 5.726-.12.107-.12.131-.12.167 0 .072.06.096.108.096C.921 3 1.901 2.14 2.487.968c.61-1.22.884-2.51.884-3.945"/><path id="l" d="M5.356-2.044c0-1.1-.885-1.961-2.032-2.164 1.04-.3 1.71-1.172 1.71-2.104 0-.945-.981-1.638-2.14-1.638-1.196 0-2.081.73-2.081 1.602 0 .478.37.574.55.574.25 0 .538-.18.538-.538 0-.383-.287-.55-.55-.55-.072 0-.096 0-.132.012.455-.813 1.579-.813 1.638-.813.395 0 1.172.18 1.172 1.35 0 .228-.036.897-.383 1.411-.358.526-.765.562-1.088.574l-.358.036c-.203.012-.251.024-.251.132 0 .12.06.12.275.12h.55c1.016 0 1.47.836 1.47 1.984 0 1.566-.813 1.984-1.399 1.984-.574 0-1.554-.275-1.9-1.064.382.06.729-.155.729-.586a.565.565 0 0 0-.586-.585c-.287 0-.598.167-.598.621C.49-.622 1.554.251 2.881.251c1.423 0 2.475-1.088 2.475-2.295"/><path id="k" d="M5.26-2.008h-.263c-.036.203-.131.86-.25 1.052-.084.107-.766.107-1.125.107H1.411c.322-.275 1.052-1.04 1.363-1.327C4.59-3.85 5.26-4.47 5.26-5.655c0-1.375-1.088-2.295-2.474-2.295s-2.2 1.183-2.2 2.212c0 .61.526.61.562.61.25 0 .562-.18.562-.563 0-.334-.228-.562-.562-.562a.5.5 0 0 0-.168.012c.227-.813.873-1.362 1.65-1.362 1.016 0 1.638.848 1.638 1.948 0 1.016-.586 1.901-1.267 2.666L.586-.287V0h4.363z"/><path id="a" d="M4.77-2.762h3.3c.167 0 .382 0 .382-.215 0-.227-.203-.227-.382-.227h-3.3v-3.3c0-.167 0-.382-.215-.382-.227 0-.227.203-.227.382v3.3h-3.3c-.167 0-.382 0-.382.215 0 .227.203.227.382.227h3.3v3.3c0 .167 0 .383.215.383.227 0 .227-.204.227-.383z"/></defs><g stroke="#000" stroke-miterlimit="10" stroke-width=".4"><path fill="none" stroke-width=".398504" d="M-26.582-49.707v17.008H-1.07v-17.008"/><path fill="none" stroke-width=".398504" d="M-26.582-32.699v17.008H-1.07V-32.7"/><use xlink:href="#a" x="-26.582" y="-49.707" stroke="none" transform="matrix(1 0 0 1 8.204 28.5)"/><path fill="none" stroke-width=".398504" d="M-26.582-15.691V1.317H-1.07v-17.008"/><use xlink:href="#b" x="-26.582" y="-49.707" stroke="none" transform="matrix(1 0 0 1 10.478 45.502)"/><path fill="none" stroke-width=".398504" d="M-26.582 1.317v17.008H-1.07V1.317"/><use xlink:href="#c" x="-26.582" y="-49.707" stroke="none" transform="matrix(1 0 0 1 9.767 62.309)"/><g stroke="none" transform="matrix(1 0 0 1 53.858 4.367)"><use xlink:href="#d" x="-26.582" y="-49.707"/><use xlink:href="#e" x="-21.573" y="-49.707"/><use xlink:href="#f" x="-14.101" y="-49.707"/><use xlink:href="#g" x="-6.629" y="-49.707"/><use xlink:href="#h" x=".843" y="-49.707"/><use xlink:href="#i" x="6.08" y="-49.707"/><use xlink:href="#j" x="15.309" y="-49.707"/><use xlink:href="#c" x="23.16" y="-49.707"/><use xlink:href="#b" x="31.13" y="-49.707"/><use xlink:href="#k" x="37.677" y="-49.707"/><use xlink:href="#a" x="45.528" y="-49.707"/><use xlink:href="#l" x="60.013" y="-49.707"/><path d="M56.625-61.044h12.633v.399H56.625z"/><path d="M56.625-60.845h.399v14.577h-.399zM68.859-60.845h.399v14.577h-.399z"/><path d="M56.625-46.467h12.633v.399H56.625z"/><use xlink:href="#m" x="73.242" y="-49.707"/><use xlink:href="#n" x="-26.582" y="-33.735"/><use xlink:href="#g" x="-16.48" y="-33.735"/><use xlink:href="#h" x="-9.008" y="-33.735"/><use xlink:href="#f" x="-3.771" y="-33.735"/><use xlink:href="#g" x="3.701" y="-33.735"/><use xlink:href="#h" x="11.173" y="-33.735"/><use xlink:href="#i" x="16.409" y="-33.735"/><use xlink:href="#j" x="25.638" y="-33.735"/><use xlink:href="#k" x="33.489" y="-33.735"/><use xlink:href="#l" x="44.727" y="-33.735"/><path d="M41.34-45.072h12.633v.399H41.34z"/><path d="M41.34-44.873h.399v14.577h-.399zM53.574-44.873h.399v14.577h-.399z"/><path d="M41.34-30.495h12.633v.399H41.34z"/></g><path fill="none" stroke-width=".398504" d="M-17.51 52.907c0-7.827-6.346-14.173-10.465-14.173"/><path stroke-width=".398504" d="m-31.117 38.734 4.528 1.704-1.485-1.704 1.485-1.704Z"/><g stroke="none" transform="matrix(1 0 0 1 -30.095 91.424)"><use xlink:href="#a" x="-26.582" y="-49.707"/><use xlink:href="#o" x="-17.477" y="-49.707"/><use xlink:href="#b" x="-10.328" y="-49.707"/></g><path fill="none" stroke-width=".398504" d="M-26.582 52.34v17.008H-1.07V52.34M-26.582 69.348v17.008H-1.07V69.348"/><use xlink:href="#c" x="-26.582" y="-49.707" stroke="none" transform="matrix(1 0 0 1 9.767 130.34)"/><g stroke="none" transform="matrix(1 0 0 1 53.858 105.746)"><use xlink:href="#d" x="-26.582" y="-49.707"/><use xlink:href="#e" x="-21.573" y="-49.707"/><use xlink:href="#f" x="-14.101" y="-49.707"/><use xlink:href="#g" x="-6.629" y="-49.707"/><use xlink:href="#h" x=".843" y="-49.707"/><use xlink:href="#i" x="6.08" y="-49.707"/><use xlink:href="#j" x="15.309" y="-49.707"/><use xlink:href="#c" x="23.16" y="-49.707"/><use xlink:href="#b" x="31.13" y="-49.707"/><use xlink:href="#k" x="37.677" y="-49.707"/><use xlink:href="#a" x="45.528" y="-49.707"/><use xlink:href="#l" x="56.625" y="-49.707"/><use xlink:href="#m" x="67.863" y="-49.707"/><path d="M64.476-62.06h11.33v.399h-11.33z"/><path d="M64.476-61.861h.399v18.343h-.399zM75.407-61.861h.399v18.343h-.399z"/><path d="M64.476-43.717h11.33v.399h-11.33z"/><use xlink:href="#n" x="-26.582" y="-32.044"/><use xlink:href="#g" x="-16.48" y="-32.044"/><use xlink:href="#h" x="-9.008" y="-32.044"/><use xlink:href="#f" x="-3.771" y="-32.044"/><use xlink:href="#g" x="3.701" y="-32.044"/><use xlink:href="#h" x="11.173" y="-32.044"/><use xlink:href="#i" x="16.409" y="-32.044"/><use xlink:href="#j" x="25.638" y="-32.044"/><use xlink:href="#k" x="33.489" y="-32.044"/><use xlink:href="#l" x="41.34" y="-32.044"/><use xlink:href="#a" x="52.577" y="-32.044"/><path d="M49.19-42.323h15.879v.399H49.19z"/><path d="M49.19-42.123h.399v14.18h-.399zM64.671-42.123h.399v14.18h-.399z"/><path d="M49.19-28.142h15.879v.399H49.19z"/></g><path fill="none" stroke-width=".398504" d="M-17.51 120.939c0-7.828-6.346-14.174-10.465-14.174"/><path stroke-width=".398504" d="m-31.117 106.765 4.528 1.705-1.485-1.705 1.485-1.704Z"/><use xlink:href="#c" x="-26.582" y="-49.707" stroke="none" transform="matrix(1 0 0 1 -15.264 159.254)"/><path fill="none" stroke-width=".398504" d="M-26.582 120.372v17.008H-1.07v-17.008"/><g stroke="none" transform="matrix(1 0 0 1 53.858 174.15)"><use xlink:href="#d" x="-26.582" y="-49.707"/><use xlink:href="#e" x="-21.573" y="-49.707"/><use xlink:href="#f" x="-14.101" y="-49.707"/><use xlink:href="#g" x="-6.629" y="-49.707"/><use xlink:href="#h" x=".843" y="-49.707"/><use xlink:href="#i" x="6.08" y="-49.707"/><use xlink:href="#j" x="15.309" y="-49.707"/><use xlink:href="#c" x="23.16" y="-49.707"/><use xlink:href="#b" x="31.13" y="-49.707"/><use xlink:href="#k" x="37.677" y="-49.707"/><use xlink:href="#a" x="45.528" y="-49.707"/><use xlink:href="#l" x="56.625" y="-49.707"/><use xlink:href="#m" x="64.476" y="-49.707"/><use xlink:href="#n" x="-26.582" y="-35.261"/><use xlink:href="#g" x="-16.48" y="-35.261"/><use xlink:href="#h" x="-9.008" y="-35.261"/><use xlink:href="#f" x="-3.771" y="-35.261"/><use xlink:href="#g" x="3.701" y="-35.261"/><use xlink:href="#h" x="11.173" y="-35.261"/><use xlink:href="#i" x="16.409" y="-35.261"/><use xlink:href="#j" x="25.638" y="-35.261"/><use xlink:href="#k" x="33.489" y="-35.261"/><use xlink:href="#l" x="41.34" y="-35.261"/><use xlink:href="#a" x="49.19" y="-35.261"/><use xlink:href="#c" x="63.675" y="-35.261"/><path d="M60.287-44.211h12.752v.399H60.287z"/><path d="M60.287-44.011h.399v11.939h-.399zM72.641-44.011h.399v11.939h-.399z"/><path d="M60.287-32.272h12.752v.399H60.287z"/></g></g></svg>