<svg xmlns="http://www.w3.org/2000/svg" xmlns:xlink="http://www.w3.org/1999/xlink" width="240.18pt" height="163.51pt" viewBox="0 0 240.18 163.51"><defs><path id="P" d="M4.822-.327c0-.339-.262-.339-.436-.339h-.993v-5.673c0-.174 0-.447-.327-.447-.208 0-.273.13-.328.262-.414.927-.981 1.047-1.189 1.069-.174.01-.403.033-.403.338 0 .273.196.328.36.328.207 0 .654-.066 1.134-.48v4.603h-.993c-.174 0-.436 0-.436.339 0 .327.273.327.436.327h2.739c.163 0 .436 0 .436-.327"/><path id="R" d="M5.237-1.898c0-.775-.513-1.419-1.233-1.746.61-.393.916-1.015.916-1.604 0-.807-.796-1.538-2.05-1.538-1.31 0-2.074.524-2.074 1.276a.486.486 0 1 0 .971.022.45.45 0 0 0-.098-.294c.338-.339 1.113-.339 1.211-.339.742 0 1.288.393 1.288.884 0 .327-.164.71-.459.95-.349.283-.621.305-1.014.327-.622.043-.786.043-.786.36 0 .338.262.338.437.338h.502c1.08 0 1.636.73 1.636 1.364 0 .665-.61 1.353-1.604 1.353-.436 0-1.276-.12-1.56-.633.055-.055.131-.12.131-.338a.477.477 0 0 0-.48-.48c-.25 0-.491.163-.491.512C.48-.513 1.538.12 2.88.12c1.43 0 2.357-1.004 2.357-2.018"/><path id="Q" d="M5.15-.447v-.284c0-.207 0-.447-.371-.447-.382 0-.382.207-.382.512H1.8c.644-.556 1.691-1.374 2.16-1.81.688-.612 1.19-1.31 1.19-2.183 0-1.309-1.102-2.127-2.433-2.127-1.288 0-2.15.895-2.15 1.822a.486.486 0 1 0 .971.033.45.45 0 0 0-.152-.35c.163-.501.676-.84 1.276-.84.895 0 1.735.502 1.735 1.462 0 .764-.535 1.397-1.255 1.997L.731-.632c-.098.087-.164.141-.164.294C.567 0 .84 0 1.015 0h3.698c.36 0 .437-.098.437-.447"/><path id="K" d="M2.332.048c0-.742-.251-1.208-.717-1.208a.56.56 0 0 0-.574.574c0 .323.227.586.586.586a.6.6 0 0 0 .382-.144c.036-.035.06-.035.06-.035s.024.167.024.227c0 .765-.311 1.483-.837 2.033-.048.036-.06.06-.06.108 0 .06.06.12.12.12.107 0 1.016-.886 1.016-2.261"/><path id="I" d="M8.456-4.09c0-.228-.204-.228-.383-.228H1.029c-.168 0-.383 0-.383.216 0 .227.203.227.383.227h7.044c.167 0 .383 0 .383-.215m0 2.224c0-.227-.204-.227-.383-.227H1.029c-.168 0-.383 0-.383.215 0 .228.203.228.383.228h7.044c.167 0 .383 0 .383-.216"/><path id="D" d="M6.088-.347c0-.347-.311-.347-.479-.347-.31 0-.55-.024-.717-.095v-2.608c0-.909-.682-1.865-2.297-1.865-.502 0-1.662 0-1.662.825 0 .323.227.502.49.502.072 0 .467-.024.479-.526 0-.06.012-.072.263-.096.143-.012.299-.012.442-.012.275 0 .682 0 1.077.3.43.334.43.669.43 1.016-.705.024-1.4.072-2.14.31C1.374-2.738.61-2.307.61-1.494c0 .85.753 1.567 1.866 1.567.382 0 1.124-.06 1.746-.49.24.394.837.418 1.292.418.287 0 .574 0 .574-.347M4.114-1.579c0 .275 0 .527-.49.754-.419.203-.98.203-1.017.203-.705 0-1.22-.383-1.22-.873 0-.706 1.28-1.112 2.727-1.112z"/><path id="y" d="M5.454-1.304c0-.071-.024-.335-.395-.335-.227 0-.299.084-.37.264-.3.693-1.077.753-1.304.753-.993 0-1.782-.753-1.914-1.674h3.504c.252 0 .479 0 .479-.443 0-1.4-.79-2.523-2.285-2.523-1.387 0-2.5 1.196-2.5 2.655A2.667 2.667 0 0 0 3.35.072c1.543 0 2.105-1.065 2.105-1.376m-.79-1.65H1.483c.156-1.017.933-1.615 1.686-1.615 1.196 0 1.448 1.017 1.495 1.615"/><path id="C" d="M5.13-6.698c0-.681-.908-.681-1.088-.681-.908 0-1.865.514-1.865 1.578v.646H.993c-.168 0-.49 0-.49.347s.31.347.478.347h1.196v3.767H1.04c-.168 0-.479 0-.479.347S.873 0 1.041 0h3.05c.167 0 .478 0 .478-.347s-.311-.347-.479-.347H2.954V-4.46h1.447c.168 0 .479 0 .479-.347s-.311-.347-.479-.347H2.954v-.598c0-.933.837-.933 1.22-.933 0 0 .096.467.49.467a.467.467 0 0 0 .467-.479"/><path id="H" d="M5.274-.347c0-.347-.31-.347-.478-.347H3.612v-3.97c0-.371-.072-.49-.478-.49h-1.58c-.167 0-.478 0-.478.346s.311.347.479.347h1.28v3.767H1.47c-.167 0-.49 0-.49.347S1.304 0 1.47 0h3.325c.167 0 .478 0 .478-.347M3.612-6.65c0-.299-.24-.538-.538-.538s-.538.24-.538.538.239.538.538.538.538-.239.538-.538"/><path id="E" d="M5.406-.347c0-.347-.311-.347-.478-.347h-1.46v-6.123c0-.371-.071-.49-.478-.49H1.232c-.168 0-.479 0-.479.346s.311.347.479.347H2.69v5.92h-1.46c-.167 0-.478 0-.478.347S1.064 0 1.232 0h3.696c.167 0 .478 0 .478-.347"/><path id="N" d="M5.968-.347c0-.347-.31-.347-.478-.347H5v-2.81c0-1.172-.55-1.723-1.532-1.723a2.1 2.1 0 0 0-1.542.682c0-.442 0-.61-.479-.61h-.79c-.167 0-.478 0-.478.347s.311.347.479.347h.49v3.767h-.49c-.168 0-.479 0-.479.347S.49 0 .658 0h1.758c.167 0 .478 0 .478-.347s-.31-.347-.478-.347h-.49v-2.164c0-1.16.813-1.675 1.459-1.675.693 0 .837.395.837 1.077v2.762h-.49c-.168 0-.479 0-.479.347S3.564 0 3.732 0H5.49c.167 0 .478 0 .478-.347"/><path id="J" d="M5.179-.347c0-.347-.323-.347-.49-.347H3.635V-6.96c0-.18 0-.49-.347-.49-.203 0-.275.108-.347.263-.227.514-.622 1.148-1.256 1.196-.179.012-.43.036-.43.347 0 .203.12.347.383.347.67 0 1.184-.503 1.22-.527v5.131H1.805c-.167 0-.49 0-.49.347s.323.347.49.347h2.882c.168 0 .49 0 .49-.347"/><path id="O" d="M3.755-.67a.68.68 0 0 0-.67-.681.674.674 0 0 0-.681.681c0 .359.31.67.67.67a.68.68 0 0 0 .681-.67"/><path id="w" d="M5.717-4.52c0-.515-.502-.707-1.1-.707-.802 0-1.483.36-2.034 1.029v-.466c0-.371-.071-.49-.478-.49H.897c-.167 0-.478 0-.478.346s.31.347.478.347h.909v3.767H.897c-.167 0-.478 0-.478.347S.729 0 .897 0h2.942c.168 0 .479 0 .479-.347s-.311-.347-.479-.347H2.583V-2.26c0-1.424 1.005-2.273 2.022-2.273.06 0 .131 0 .191.012.036.43.37.467.454.467a.45.45 0 0 0 .467-.467"/><path id="F" d="M5.37-1.483c0-1.244-1.483-1.495-2.057-1.579-1.053-.18-1.77-.299-1.77-.801 0-.323.37-.706 1.495-.706 1.136 0 1.184.538 1.208.85.024.239.239.275.383.275.394 0 .394-.216.394-.455v-.909c0-.191 0-.454-.335-.454-.287 0-.358.287-.358.287-.479-.287-1.029-.287-1.268-.287-1.95 0-2.213.992-2.213 1.399 0 .49.287.825.694 1.052.383.216.73.275 1.71.431.467.084 1.423.24 1.423.897 0 .442-.406.861-1.519.861-.765 0-1.267-.299-1.518-1.16-.06-.167-.096-.299-.395-.299-.395 0-.395.227-.395.466v1.232c0 .192 0 .455.335.455.144 0 .251 0 .43-.49.55.454 1.173.49 1.543.49C5.37.072 5.37-1.363 5.37-1.483"/><path id="v" d="M5.262-1.471c0-.24 0-.502-.394-.502-.383 0-.383.263-.383.514-.012.717-.694.837-.969.837-.933 0-.933-.598-.933-.885v-2.954h1.938c.167 0 .478 0 .478-.347s-.31-.347-.478-.347H2.583v-.98c0-.216 0-.49-.382-.49-.395 0-.395.274-.395.49v.98H.789c-.167 0-.49 0-.49.347s.311.347.478.347h1.029v3.014c0 1.112.765 1.519 1.627 1.519.645 0 1.83-.323 1.83-1.543"/><path id="L" d="M5.537-.49v-.252c0-.215 0-.49-.382-.49-.395 0-.395.251-.395.538H1.878L4.162-2.63c.168-.144 1.375-1.172 1.375-2.5 0-1.363-1.124-2.32-2.619-2.32C1.531-7.451.61-6.411.61-5.406a.49.49 0 0 0 .49.538.48.48 0 0 0 .479-.49c0-.227-.084-.3-.144-.347.168-.634.718-1.052 1.411-1.052 1.017 0 1.914.586 1.914 1.626 0 .933-.706 1.65-1.351 2.213L.777-.634C.646-.526.61-.49.61-.347.61 0 .933 0 1.1 0h4.174c.263-.072.263-.311.263-.49"/><path id="x" d="M5.968-.347c0-.347-.31-.347-.478-.347H5v-3.97c0-.371-.072-.49-.48-.49h-.788c-.168 0-.479 0-.479.346s.311.347.479.347h.49v2.595c0 .981-.813 1.244-1.352 1.244-.944 0-.944-.43-.944-.801v-3.241c0-.371-.072-.49-.479-.49h-.79c-.167 0-.478 0-.478.346s.311.347.479.347h.49v3.098c0 1.1.718 1.435 1.639 1.435.73 0 1.184-.3 1.423-.503C4.21 0 4.497 0 4.7 0h.79c.167 0 .478 0 .478-.347"/><path id="M" d="M1.698-.67a.68.68 0 0 0-.67-.681.674.674 0 0 0-.681.681c0 .359.31.67.67.67a.68.68 0 0 0 .681-.67m2.057 0a.68.68 0 0 0-.67-.681.674.674 0 0 0-.681.681c0 .359.31.67.67.67a.68.68 0 0 0 .681-.67m2.046 0a.68.68 0 0 0-.67-.681.674.674 0 0 0-.682.681c0 .359.311.67.67.67A.68.68 0 0 0 5.8-.67"/><path id="r" d="M6.028 5.418c0-.98.263-3.265 2.392-4.772.155-.12.167-.132.167-.347 0-.275-.012-.287-.31-.287h-.192C5.514 1.399 4.593 3.66 4.593 5.418v5.143c0 .31.012.323.335.323h.765c.323 0 .335-.012.335-.323z"/><path id="u" d="M8.276 10.752c.3 0 .311-.012.311-.287 0-.215-.012-.227-.06-.263-.37-.275-1.231-.885-1.794-1.985a6.1 6.1 0 0 1-.705-2.87V.202c0-.31-.012-.323-.335-.323h-.765c-.323 0-.335.012-.335.323v5.143c0 1.77.92 4.03 3.492 5.406z"/><path id="t" d="M4.593 21.325c0 .31.012.323.335.323h.765c.323 0 .335-.012.335-.323v-5.047c0-1.448-.61-3.887-3.29-5.514 2.704-1.639 3.29-4.102 3.29-5.514V.203c0-.31-.012-.323-.335-.323h-.765c-.323 0-.335.012-.335.323v5.06c0 1.004-.216 3.492-2.416 5.166-.132.108-.144.12-.144.335s.012.227.144.335c.31.24 1.136.873 1.71 2.08.466.958.706 2.022.706 3.087z"/><path id="s" d="M6.028.203c0-.31-.012-.323-.335-.323h-.765c-.323 0-.335.012-.335.323v3.182c0 .31.012.323.335.323h.765c.323 0 .335-.012.335-.323z"/><path id="z" d="M3.887 2.906c0-.036 0-.06-.203-.263C2.488 1.435 1.818-.538 1.818-2.978c0-2.32.562-4.318 1.95-5.729.119-.108.119-.131.119-.167 0-.072-.06-.096-.108-.096-.155 0-1.136.861-1.722 2.033-.61 1.208-.885 2.488-.885 3.959 0 1.064.168 2.488.79 3.767.705 1.436 1.686 2.213 1.817 2.213.048 0 .108-.024.108-.096"/><path id="B" d="M3.373-2.978c0-.909-.12-2.392-.79-3.78C1.878-8.192.897-8.97.765-8.97c-.047 0-.107.024-.107.096 0 .036 0 .06.203.263C2.057-7.403 2.727-5.43 2.727-2.99c0 2.32-.562 4.318-1.95 5.729-.12.107-.12.131-.12.167 0 .072.06.096.108.096.156 0 1.137-.861 1.723-2.033.61-1.22.885-2.512.885-3.947"/><path id="d" d="M3.444-7.666c0-.275 0-.287-.239-.287-.287.323-.885.765-2.117.765v.347c.275 0 .873 0 1.531-.311v6.231c0 .43-.036.574-1.088.574h-.37V0c.322-.024 1.482-.024 1.877-.024s1.543 0 1.866.024v-.347h-.371C3.48-.347 3.444-.49 3.444-.92z"/><path id="f" d="M5.262-2.01H5c-.036.204-.131.862-.25 1.053-.085.108-.766.108-1.125.108H1.41c.323-.275 1.053-1.04 1.364-1.328 1.818-1.674 2.487-2.296 2.487-3.48 0-1.375-1.088-2.296-2.475-2.296S.586-6.77.586-5.741c0 .61.526.61.562.61.251 0 .562-.18.562-.562 0-.335-.227-.562-.562-.562-.107 0-.131 0-.167.012.227-.813.873-1.364 1.65-1.364 1.017 0 1.639.85 1.639 1.95 0 1.017-.586 1.902-1.268 2.667L.586-.287V0h4.365z"/><path id="G" d="M2.2-4.294c-.203.012-.25.024-.25.132 0 .12.06.12.275.12h.55c1.016 0 1.47.837 1.47 1.985 0 1.567-.812 1.985-1.399 1.985-.574 0-1.554-.275-1.901-1.064.383.06.73-.156.73-.586a.565.565 0 0 0-.587-.586c-.287 0-.598.167-.598.622C.49-.622 1.555.25 2.882.25c1.424 0 2.476-1.088 2.476-2.296 0-1.1-.885-1.962-2.033-2.165 1.04-.299 1.71-1.172 1.71-2.105 0-.945-.98-1.638-2.14-1.638-1.197 0-2.082.73-2.082 1.602 0 .479.371.574.55.574.252 0 .539-.18.539-.538 0-.383-.287-.55-.55-.55-.072 0-.096 0-.132.012.454-.813 1.579-.813 1.638-.813.395 0 1.173.179 1.173 1.351 0 .227-.036.897-.383 1.411-.359.527-.766.563-1.089.574z"/><path id="A" d="M8.073-3.875c.167 0 .383 0 .383-.215 0-.228-.204-.228-.383-.228H1.029c-.168 0-.383 0-.383.216 0 .227.203.227.383.227zm0 2.225c.167 0 .383 0 .383-.216 0-.227-.204-.227-.383-.227H1.029c-.168 0-.383 0-.383.215 0 .228.203.228.383.228z"/><path id="n" d="M5.27-.971v-.611h-.273v.611c0 .633-.273.698-.393.698-.36 0-.404-.49-.404-.545V-3c0-.458 0-.884-.392-1.288a2.08 2.08 0 0 0-1.495-.6c-.895 0-1.647.513-1.647 1.233 0 .327.218.513.501.513a.48.48 0 0 0 .502-.502c0-.13-.054-.49-.556-.502.294-.382.829-.502 1.178-.502.535 0 1.157.426 1.157 1.397v.403c-.557.033-1.32.066-2.008.393-.818.371-1.09.939-1.09 1.419C.35-.153 1.406.12 2.094.12a1.51 1.51 0 0 0 1.429-.95c.044.437.338.895.85.895.23 0 .896-.152.896-1.036m-1.822-.556C3.448-.491 2.662-.12 2.17-.12c-.534 0-.982-.382-.982-.927 0-.6.458-1.506 2.259-1.571z"/><path id="k" d="M5.75 0v-.338c-.764 0-.851-.077-.851-.611v-6.623l-1.571.12v.339c.763 0 .85.076.85.61v2.357c-.316-.393-.785-.676-1.374-.676C1.516-4.822.37-3.753.37-2.346.37-.96 1.44.12 2.684.12c.698 0 1.189-.37 1.462-.72v.72zM4.146-1.287c0 .196 0 .218-.12.403-.328.524-.818.764-1.288.764-.49 0-.883-.284-1.145-.698-.284-.448-.317-1.07-.317-1.517 0-.403.022-1.058.339-1.549.229-.338.643-.698 1.233-.698.381 0 .84.163 1.178.654.12.186.12.208.12.404z"/><path id="o" d="M2.695 0v-.338c-.72 0-.764-.055-.764-.48v-4.004l-1.527.12v.338c.709 0 .807.065.807.6v2.935c0 .49-.12.49-.851.49V0l1.2-.033c.382 0 .764.022 1.135.033m-.6-6.59a.583.583 0 0 0-1.167 0 .583.583 0 0 0 1.167 0"/><path id="m" d="M8.87 0v-.338c-.567 0-.84 0-.851-.328v-2.083c0-.939 0-1.277-.338-1.67-.153-.185-.513-.403-1.146-.403-.916 0-1.396.654-1.582 1.069-.153-.95-.96-1.07-1.45-1.07-.797 0-1.31.47-1.616 1.146v-1.145l-1.538.12v.338c.764 0 .851.076.851.611v2.924c0 .49-.12.49-.85.49V0l1.232-.033L2.804 0v-.338c-.731 0-.851 0-.851-.491v-2.008c0-1.134.775-1.745 1.473-1.745.687 0 .807.589.807 1.21v2.543c0 .49-.12.49-.85.49V0l1.232-.033L5.837 0v-.338c-.731 0-.851 0-.851-.491v-2.008c0-1.134.774-1.745 1.473-1.745.687 0 .807.589.807 1.21v2.543c0 .49-.12.49-.85.49V0l1.232-.033z"/><path id="p" d="M5.837 0v-.338c-.567 0-.84 0-.851-.328v-2.083c0-.939 0-1.277-.338-1.67-.153-.185-.513-.403-1.146-.403-.796 0-1.31.469-1.615 1.145v-1.145l-1.538.12v.338c.764 0 .851.076.851.611v2.924c0 .49-.12.49-.85.49V0l1.232-.033L2.804 0v-.338c-.731 0-.851 0-.851-.491v-2.008c0-1.134.775-1.745 1.473-1.745.687 0 .807.589.807 1.21v2.543c0 .49-.12.49-.85.49V0l1.232-.033z"/><path id="l" d="M5.139-2.335c0-1.396-1.091-2.553-2.411-2.553-1.364 0-2.423 1.19-2.423 2.553A2.435 2.435 0 0 0 2.717.12a2.43 2.43 0 0 0 2.422-2.455m-.906-.087c0 .393 0 .982-.24 1.462-.24.49-.72.807-1.265.807-.47 0-.95-.229-1.244-.73-.273-.48-.273-1.146-.273-1.539 0-.426 0-1.015.262-1.495a1.46 1.46 0 0 1 1.244-.73c.48 0 .949.24 1.232.708s.284 1.102.284 1.517"/><path id="j" d="M3.611 2.618c0-.032 0-.054-.185-.24-1.364-1.374-1.713-3.436-1.713-5.105 0-1.899.414-3.797 1.756-5.16.142-.132.142-.154.142-.186 0-.077-.043-.11-.109-.11-.109 0-1.09.742-1.735 2.128-.556 1.2-.687 2.411-.687 3.327 0 .851.12 2.172.72 3.404.655 1.342 1.593 2.052 1.702 2.052.066 0 .11-.033.11-.11"/><path id="q" d="M3.153-2.727c0-.851-.12-2.172-.72-3.404C1.778-7.473.84-8.182.73-8.182c-.065 0-.11.043-.11.109 0 .032 0 .054.208.25C1.9-6.742 2.52-5.007 2.52-2.726c0 1.865-.403 3.785-1.756 5.16-.142.13-.142.153-.142.185 0 .066.044.11.109.11.11 0 1.091-.742 1.735-2.128.556-1.2.687-2.411.687-3.327"/><path id="b" d="M6.554-2.75c.203 0 .419 0 .419-.24s-.216-.24-.419-.24H1.483c.144-1.602 1.519-2.75 3.205-2.75h1.866c.203 0 .419 0 .419-.24s-.216-.238-.419-.238h-1.89C2.62-6.458.993-4.904.993-2.99S2.619.478 4.664.478h1.89c.203 0 .419 0 .419-.239S6.757 0 6.554 0H4.688C3.002 0 1.627-1.148 1.483-2.75z"/><path id="c" d="M3.385-7.38c0-.478.31-1.243 1.614-1.327a.13.13 0 0 0 .108-.131c0-.132-.096-.132-.227-.132-1.196 0-2.285.61-2.297 1.495v2.727c0 .466 0 .849-.478 1.244-.419.347-.873.37-1.136.382a.13.13 0 0 0-.108.132c0 .12.072.12.191.132.79.047 1.364.478 1.495 1.064.036.132.036.155.036.586V1.16c0 .502 0 .885.574 1.34.467.358 1.256.49 1.723.49.131 0 .227 0 .227-.132 0-.12-.072-.12-.191-.131-.754-.048-1.34-.43-1.495-1.04-.036-.108-.036-.132-.036-.563v-2.511c0-.55-.096-.754-.479-1.137-.25-.25-.598-.37-.933-.466.981-.275 1.412-.825 1.412-1.519z"/><path id="i" d="M2.583 1.4c0 .478-.31 1.243-1.614 1.327a.13.13 0 0 0-.108.131c0 .132.132.132.24.132 1.16 0 2.272-.586 2.284-1.495v-2.727c0-.466 0-.849.478-1.244.419-.347.873-.37 1.136-.382a.13.13 0 0 0 .108-.132c0-.12-.072-.12-.191-.132-.79-.047-1.364-.478-1.495-1.064-.036-.132-.036-.155-.036-.586V-7.14c0-.502 0-.885-.574-1.34-.479-.37-1.304-.49-1.71-.49-.108 0-.24 0-.24.132 0 .12.072.12.191.131.754.048 1.34.43 1.495 1.04.036.108.036.132.036.563v2.511c0 .55.096.754.479 1.137.25.25.598.37.933.466-.981.275-1.412.825-1.412 1.519z"/><path id="g" d="M2.2-.574a.584.584 0 0 0-.573-.586.584.584 0 0 0-.586.574c0 .347.287.586.574.586A.584.584 0 0 0 2.2-.574"/><path id="e" d="M2.332.048c0-.694-.227-1.208-.717-1.208-.383 0-.574.31-.574.574S1.22 0 1.627 0a.53.53 0 0 0 .394-.155c.024-.024.036-.024.048-.024.024 0 .024.167.024.227 0 .395-.072 1.172-.765 1.95-.132.143-.132.167-.132.19 0 .06.06.12.12.12.095 0 1.016-.885 1.016-2.26"/><path id="h" d="M2.464-3.504c.024-.072.323-.67.765-1.053a1.74 1.74 0 0 1 1.184-.478c.479 0 .646.359.646.837 0 .682-.49 2.045-.73 2.691-.107.287-.167.443-.167.658 0 .538.37.969.945.969 1.112 0 1.53-1.759 1.53-1.83 0-.06-.047-.108-.119-.108-.107 0-.12.036-.18.24C6.065-.599 5.61-.12 5.144-.12c-.12 0-.311-.012-.311-.394 0-.3.131-.658.203-.826.24-.657.742-1.997.742-2.679 0-.717-.419-1.255-1.328-1.255-1.064 0-1.626.753-1.842 1.052-.036-.682-.526-1.052-1.052-1.052-.383 0-.646.227-.85.634C.49-4.21.324-3.492.324-3.444s.048.107.131.107c.096 0 .108-.012.18-.287.191-.73.407-1.411.885-1.411.275 0 .37.191.37.55 0 .263-.119.73-.203 1.1l-.335 1.292c-.047.227-.179.765-.239.98C1.03-.8.897-.238.897-.178c0 .167.132.299.311.299a.46.46 0 0 0 .407-.252c.024-.06.131-.478.191-.717l.263-1.077z"/><path id="a" d="M5.669-4.88c-.383.072-.526.36-.526.586 0 .287.227.383.394.383.36 0 .61-.31.61-.634 0-.502-.574-.73-1.076-.73-.73 0-1.136.718-1.244.945-.275-.897-1.016-.944-1.232-.944-1.22 0-1.865 1.566-1.865 1.83 0 .047.047.107.131.107.096 0 .12-.072.144-.12.406-1.327 1.208-1.578 1.554-1.578.539 0 .646.502.646.79 0 .262-.071.537-.215 1.111l-.407 1.639C2.404-.777 2.057-.12 1.423-.12c-.06 0-.359 0-.61-.155a.62.62 0 0 0 .527-.586c0-.24-.18-.383-.407-.383a.623.623 0 0 0-.598.634c0 .502.562.73 1.076.73.574 0 .981-.455 1.232-.945.192.705.79.945 1.232.945 1.22 0 1.866-1.567 1.866-1.83 0-.06-.048-.108-.12-.108-.107 0-.12.06-.155.156C5.143-.61 4.449-.12 3.91-.12c-.419 0-.646-.31-.646-.8 0-.264.048-.455.24-1.245l.418-1.626c.18-.718.586-1.244 1.136-1.244.024 0 .359 0 .61.155"/></defs><g transform="translate(30.311 74.988)scale(1.0004)"><use xlink:href="#a" x="-14.994018" y="-30.686316"/><use xlink:href="#b" x="-5.017014" y="-30.686316"/><use xlink:href="#c" x="6.261267" y="-30.686316"/><use xlink:href="#d" x="12.258919" y="-30.686316"/><use xlink:href="#e" x="18.114269" y="-30.686316"/><use xlink:href="#f" x="23.360373" y="-30.686316"/><use xlink:href="#e" x="29.215724" y="-30.686316"/><use xlink:href="#g" x="34.442243" y="-30.686316"/><use xlink:href="#g" x="39.680725" y="-30.686316"/><use xlink:href="#g" x="44.907243" y="-30.686316"/><use xlink:href="#e" x="50.145725" y="-30.686316"/><use xlink:href="#h" x="55.384206" y="-30.686316"/><use xlink:href="#i" x="62.437058" y="-30.686316"/></g><g transform="translate(61.515 91.734)scale(1.00008)"><use xlink:href="#j" x="-14.989237" y="-30.676531"/><use xlink:href="#k" x="-10.745246" y="-30.676531"/><use xlink:href="#l" x="-4.679286" y="-30.676531"/><use xlink:href="#m" x=".775714" y="-30.676531"/><use xlink:href="#n" x="9.863744" y="-30.676531"/><use xlink:href="#o" x="15.318744" y="-30.676531"/><use xlink:href="#p" x="18.351724" y="-30.676531"/><use xlink:href="#q" x="24.417684" y="-30.676531"/></g><path fill="none" stroke="#000" stroke-miterlimit="10" stroke-width=".3985" d="M109.454 41.325h9.795"/><path d="m122.35 41.325-4.467-1.682 1.466 1.682-1.466 1.682Z"/><path fill="none" stroke="#000" stroke-miterlimit="10" stroke-width=".3985" d="m122.35 41.325-4.467-1.682 1.466 1.682-1.466 1.682Z"/><g transform="translate(147.932 74.988)scale(1.0004)"><use xlink:href="#r" x="-14.994018" y="-58.792596"/><use xlink:href="#s" x="-14.994018" y="-48.02928"/><use xlink:href="#t" x="-14.994018" y="-44.440842"/><use xlink:href="#s" x="-14.994018" y="-22.9122"/><use xlink:href="#u" x="-14.994018" y="-19.32476"/><use xlink:href="#v" x="-4.362751" y="-47.550091"/><use xlink:href="#w" x="1.79665" y="-47.550091"/><use xlink:href="#x" x="7.95605" y="-47.550091"/><use xlink:href="#y" x="14.11545" y="-47.550091"/><use xlink:href="#z" x="38.394409" y="-47.550091"/><use xlink:href="#a" x="42.948237" y="-47.550091"/><use xlink:href="#A" x="52.925241" y="-47.550091"/><use xlink:href="#d" x="65.339723" y="-47.550091"/><use xlink:href="#B" x="71.18816" y="-47.550091"/><use xlink:href="#C" x="-4.362751" y="-30.208131"/><use xlink:href="#D" x="1.79665" y="-30.208131"/><use xlink:href="#E" x="7.95605" y="-30.208131"/><use xlink:href="#F" x="14.11545" y="-30.208131"/><use xlink:href="#y" x="20.274852" y="-30.208131"/><use xlink:href="#z" x="38.394409" y="-30.208131"/><use xlink:href="#a" x="42.948237" y="-30.208131"/><use xlink:href="#A" x="52.925241" y="-30.208131"/><use xlink:href="#f" x="65.339723" y="-30.208131"/><use xlink:href="#B" x="71.18816" y="-30.208131"/><use xlink:href="#v" x="-4.362751" y="-12.866172"/><use xlink:href="#w" x="1.79665" y="-12.866172"/><use xlink:href="#x" x="7.95605" y="-12.866172"/><use xlink:href="#y" x="14.11545" y="-12.866172"/><use xlink:href="#z" x="38.394409" y="-12.866172"/><use xlink:href="#a" x="42.948237" y="-12.866172"/><use xlink:href="#A" x="52.925241" y="-12.866172"/><use xlink:href="#G" x="65.339723" y="-12.866172"/><use xlink:href="#B" x="71.18816" y="-12.866172"/></g><g transform="translate(37.431 131.263)scale(1.0004)"><use xlink:href="#H" x="-14.994018" y="-30.686316"/><use xlink:href="#I" x="-4.935981" y="-30.686316"/><use xlink:href="#J" x="8.077242" y="-30.686316"/><use xlink:href="#K" x="14.235714" y="-30.686316"/><use xlink:href="#L" x="21.388586" y="-30.686316"/><use xlink:href="#K" x="27.548056" y="-30.686316"/><use xlink:href="#M" x="34.699926" y="-30.686316"/><use xlink:href="#K" x="40.859402" y="-30.686316"/><use xlink:href="#N" x="48.011275" y="-30.686316"/></g><g transform="translate(61.515 148.428)scale(1.00008)"><use xlink:href="#j" x="-14.989237" y="-30.676531"/><use xlink:href="#k" x="-10.745246" y="-30.676531"/><use xlink:href="#l" x="-4.679286" y="-30.676531"/><use xlink:href="#m" x=".775714" y="-30.676531"/><use xlink:href="#n" x="9.863744" y="-30.676531"/><use xlink:href="#o" x="15.318744" y="-30.676531"/><use xlink:href="#p" x="18.351724" y="-30.676531"/><use xlink:href="#q" x="24.417684" y="-30.676531"/></g><path fill="none" stroke="#000" stroke-miterlimit="10" stroke-width=".3985" d="M109.454 98.019h9.795"/><path d="m122.35 98.019-4.467-1.682 1.466 1.682-1.466 1.682Z"/><path fill="none" stroke="#000" stroke-miterlimit="10" stroke-width=".3985" d="m122.35 98.019-4.467-1.682 1.466 1.682-1.466 1.682ZM144.887 98.019V81.01h62.363v17.008"/><g transform="translate(178.743 123.464)scale(1.0004)"><use xlink:href="#v" x="-14.994018" y="-30.686316"/><use xlink:href="#w" x="-8.834618" y="-30.686316"/><use xlink:href="#x" x="-2.675217" y="-30.686316"/><use xlink:href="#y" x="3.484184" y="-30.686316"/></g><path fill="none" stroke="#000" stroke-miterlimit="10" stroke-width=".3985" d="M144.887 115.027V98.019h62.363v17.008"/><g transform="translate(175.664 140.849)scale(1.0004)"><use xlink:href="#C" x="-14.994018" y="-30.686316"/><use xlink:href="#D" x="-8.834618" y="-30.686316"/><use xlink:href="#E" x="-2.675217" y="-30.686316"/><use xlink:href="#F" x="3.484184" y="-30.686316"/><use xlink:href="#y" x="9.643583" y="-30.686316"/></g><path fill="none" stroke="#000" stroke-miterlimit="10" stroke-width=".3985" d="M144.887 132.035v-17.008h62.363v17.008"/><g transform="translate(178.743 157.48)scale(1.0004)"><use xlink:href="#v" x="-14.994018" y="-30.686316"/><use xlink:href="#w" x="-8.834618" y="-30.686316"/><use xlink:href="#x" x="-2.675217" y="-30.686316"/><use xlink:href="#y" x="3.484184" y="-30.686316"/></g><path fill="none" stroke="#000" stroke-miterlimit="10" stroke-width=".3985" d="M144.887 149.043v-17.008h62.363v17.008"/><g transform="translate(187.978 178.862)scale(1.0004)"><use xlink:href="#O" x="-14.994018" y="-38.660516"/><use xlink:href="#O" x="-14.994018" y="-34.673916"/><use xlink:href="#O" x="-14.994018" y="-30.686316"/></g><use xlink:href="#P" x="-14.989237" y="-30.676531" transform="translate(227.879 123.581)scale(1.00008)"/><use xlink:href="#Q" x="-14.989237" y="-30.676531" transform="translate(227.879 140.589)scale(1.00008)"/><use xlink:href="#R" x="-14.989237" y="-30.676531" transform="translate(227.879 157.538)scale(1.00008)"/></svg>