<svg xmlns="http://www.w3.org/2000/svg" xmlns:xlink="http://www.w3.org/1999/xlink" width="262.14pt" height="176.07pt" viewBox="0 0 262.14 176.07"><defs><path id="h" d="M5.586-.338c0-.328-.284-.328-.436-.328h-.491v-5.553c0-.338-.066-.447-.437-.447h-.796c-.175 0-.448 0-.448.338 0 .328.284.328.437.328h.49v1.723a1.93 1.93 0 0 0-1.276-.49C1.44-4.768.393-3.732.393-2.347.393-.993 1.375.065 2.53.065c.611 0 1.07-.294 1.375-.61 0 .392 0 .545.436.545h.797c.174 0 .447 0 .447-.338m-1.68-1.779c0 .611-.491 1.517-1.331 1.517-.775 0-1.43-.775-1.43-1.746 0-1.047.764-1.756 1.528-1.756.698 0 1.233.61 1.233 1.21z"/><path id="f" d="M5.062-1.19c0-.305-.316-.305-.382-.305-.196 0-.283.033-.36.24-.24.557-.829.655-1.134.655-.819 0-1.637-.546-1.811-1.484h3.25c.23 0 .437 0 .437-.403 0-1.244-.698-2.313-2.116-2.313C1.647-4.8.6-3.71.6-2.367.6-1.037 1.702.065 3.11.065c1.44 0 1.952-.981 1.952-1.254m-.774-1.548H1.386c.152-.797.796-1.397 1.56-1.397.567 0 1.243.273 1.342 1.397"/><path id="g" d="M5.586-.327c0-.339-.273-.339-.447-.339h-.48v-2.53c0-1.103-.557-1.572-1.419-1.572-.73 0-1.222.371-1.429.579 0-.35 0-.513-.436-.513H.578c-.174 0-.447 0-.447.338 0 .327.284.327.436.327h.491v3.371h-.48c-.174 0-.447 0-.447.339C.13 0 .415 0 .567 0h1.735c.153 0 .436 0 .436-.327 0-.339-.272-.339-.447-.339h-.48v-1.93c0-1.092.807-1.506 1.364-1.506.578 0 .73.305.73.96v2.476H3.48c-.174 0-.447 0-.447.339 0 .327.295.327.447.327h1.67c.152 0 .436 0 .436-.327"/><path id="j" d="M4.822-.327c0-.339-.262-.339-.436-.339h-.993v-5.673c0-.174 0-.447-.327-.447-.208 0-.273.13-.328.262-.414.927-.981 1.047-1.189 1.069-.174.01-.403.033-.403.338 0 .273.196.328.36.328.207 0 .654-.066 1.134-.48v4.603h-.993c-.174 0-.436 0-.436.339 0 .327.273.327.436.327h2.739c.163 0 .436 0 .436-.327"/><path id="d" d="M5.324-2.357c0-1.341-.97-2.41-2.127-2.41-.524 0-1.015.196-1.386.534 0-.316-.022-.47-.436-.47H.578c-.174 0-.447 0-.447.339 0 .327.284.327.436.327h.491v5.794h-.48c-.174 0-.447 0-.447.338 0 .327.284.327.436.327h1.735c.153 0 .436 0 .436-.327 0-.338-.272-.338-.447-.338h-.48V-.491c.447.458.917.556 1.266.556 1.189 0 2.247-1.036 2.247-2.422m-.753 0C4.571-1.309 3.808-.6 3.044-.6c-.851 0-1.233-.96-1.233-1.484v-.796c0-.644.633-1.222 1.32-1.222.808 0 1.44.796 1.44 1.745"/><path id="i" d="M4.768.59c0-.165-.077-.208-.273-.34C3.142-.665 2.64-2.116 2.64-3.337c0-1.091.415-2.608 1.877-3.6.174-.12.25-.164.25-.328 0-.087-.054-.306-.338-.306-.316 0-2.542 1.44-2.542 4.234 0 1.298.502 2.28.884 2.825C3.35.284 4.168.895 4.43.895c.284 0 .339-.219.339-.306"/><path id="k" d="M3.84-3.338c0-1.299-.502-2.28-.883-2.826-.579-.797-1.397-1.408-1.659-1.408a.315.315 0 0 0-.338.306c0 .164.12.24.175.273 1.789 1.189 1.953 2.945 1.953 3.655 0 1.09-.404 2.607-1.877 3.6-.164.109-.25.163-.25.327 0 .087.065.306.337.306.317 0 2.542-1.44 2.542-4.233"/><path id="e" d="M5.313-4.091c0-.218-.13-.677-1.036-.677-.557 0-1.255.197-1.855.884v-.37c0-.34-.065-.448-.436-.448h-1.2c-.164 0-.437 0-.437.327 0 .338.262.338.437.338h.883v3.371H.786c-.164 0-.437 0-.437.328C.35 0 .611 0 .786 0h2.847c.164 0 .447 0 .447-.327 0-.339-.283-.339-.447-.339H2.422v-1.363c0-1.026.644-2.073 1.964-2.073.01.262.196.48.469.48a.45.45 0 0 0 .458-.47"/><path id="l" d="M5.15-.447v-.284c0-.207 0-.447-.371-.447-.382 0-.382.207-.382.512H1.8c.644-.556 1.691-1.374 2.16-1.81.688-.612 1.19-1.31 1.19-2.183 0-1.309-1.102-2.127-2.433-2.127-1.288 0-2.15.895-2.15 1.822a.486.486 0 1 0 .971.033.45.45 0 0 0-.152-.35c.163-.501.676-.84 1.276-.84.895 0 1.735.502 1.735 1.462 0 .764-.535 1.397-1.255 1.997L.731-.632c-.098.087-.164.141-.164.294C.567 0 .84 0 1.015 0h3.698c.36 0 .437-.098.437-.447"/><path id="c" d="M5.968-.347c0-.347-.31-.347-.478-.347H5v-6.123c0-.371-.072-.49-.48-.49h-.788c-.168 0-.479 0-.479.346s.311.347.479.347h.49v1.985c-.191-.19-.682-.598-1.411-.598C1.543-5.227.443-4.078.443-2.57c0 1.47 1.028 2.643 2.26 2.643.777 0 1.292-.467 1.519-.73 0 .503 0 .658.478.658h.79c.167 0 .478 0 .478-.347M4.222-2.272c0 .67-.55 1.65-1.447 1.65-.861 0-1.555-.873-1.555-1.95 0-1.148.813-1.96 1.662-1.96.778 0 1.34.705 1.34 1.327z"/><path id="a" d="M5.454-1.304c0-.071-.024-.335-.395-.335-.227 0-.299.084-.37.264-.3.693-1.077.753-1.304.753-.993 0-1.782-.753-1.914-1.674h3.504c.252 0 .479 0 .479-.443 0-1.4-.79-2.523-2.285-2.523-1.387 0-2.5 1.196-2.5 2.655A2.667 2.667 0 0 0 3.35.072c1.543 0 2.105-1.065 2.105-1.376m-.79-1.65H1.483c.156-1.017.933-1.615 1.686-1.615 1.196 0 1.448 1.017 1.495 1.615"/><path id="b" d="M5.968-.347c0-.347-.31-.347-.478-.347H5v-2.81c0-1.172-.55-1.723-1.532-1.723a2.1 2.1 0 0 0-1.542.682c0-.442 0-.61-.479-.61h-.79c-.167 0-.478 0-.478.347s.311.347.479.347h.49v3.767h-.49c-.168 0-.479 0-.479.347S.49 0 .658 0h1.758c.167 0 .478 0 .478-.347s-.31-.347-.478-.347h-.49v-2.164c0-1.16.813-1.675 1.459-1.675.693 0 .837.395.837 1.077v2.762h-.49c-.168 0-.479 0-.479.347S3.564 0 3.732 0H5.49c.167 0 .478 0 .478-.347"/></defs><g fill="none" stroke="#000" stroke-miterlimit="10" stroke-width=".3985"><path d="M83.355 50.195h42.52V27.518h-42.52ZM110.993 50.195V27.518"/><path d="M118.434 40.274v21.26h-21.26V55.99"/></g><path d="m97.174 52.888-1.682 4.468 1.682-1.465 1.682 1.465Z"/><path fill="none" stroke="#000" stroke-miterlimit="10" stroke-width=".3985" d="m97.174 52.888-1.682 4.468 1.682-1.465 1.682 1.465Z"/><g transform="translate(76.583 44.438)scale(1.0004)"><use xlink:href="#a" x="11.359559" y="-21.816756"/><use xlink:href="#b" x="17.51896" y="-21.816756"/><use xlink:href="#c" x="23.678361" y="-21.816756"/></g><g transform="translate(3.968 114.263)scale(1.00008)"><use xlink:href="#d" x="11.355937" y="-21.809799"/><use xlink:href="#e" x="17.083687" y="-21.809799"/><use xlink:href="#f" x="22.811438" y="-21.809799"/><use xlink:href="#d" x="28.539187" y="-21.809799"/><use xlink:href="#f" x="34.266937" y="-21.809799"/><use xlink:href="#g" x="39.994687" y="-21.809799"/><use xlink:href="#h" x="45.722439" y="-21.809799"/><use xlink:href="#i" x="51.450191" y="-21.809799"/><use xlink:href="#j" x="57.177944" y="-21.809799"/><use xlink:href="#k" x="62.905695" y="-21.809799"/></g><g fill="none" stroke="#000" stroke-miterlimit="10" stroke-width=".3985"><path d="M83.355 101.22h42.52V78.541h-42.52ZM110.993 101.22V78.541M145.718 101.22h42.52V78.541h-42.52ZM173.356 101.22V78.541M119.851 89.88h20.072"/></g><path d="m143.025 89.88-4.468-1.681 1.465 1.682-1.465 1.682Z"/><path fill="none" stroke="#000" stroke-miterlimit="10" stroke-width=".3985" d="m143.025 89.88-4.468-1.681 1.465 1.682-1.465 1.682ZM180.797 91.298v21.26H97.174v-5.544"/><path d="m97.174 103.913-1.682 4.468 1.682-1.466 1.682 1.466Z"/><path fill="none" stroke="#000" stroke-miterlimit="10" stroke-width=".3985" d="m97.174 103.913-1.682 4.468 1.682-1.466 1.682 1.466Z"/><use xlink:href="#j" x="11.355937" y="-21.809799" transform="translate(82.955 115.081)scale(1.00008)"/><g transform="translate(3.968 165.287)scale(1.00008)"><use xlink:href="#d" x="11.355937" y="-21.809799"/><use xlink:href="#e" x="17.083687" y="-21.809799"/><use xlink:href="#f" x="22.811438" y="-21.809799"/><use xlink:href="#d" x="28.539187" y="-21.809799"/><use xlink:href="#f" x="34.266937" y="-21.809799"/><use xlink:href="#g" x="39.994687" y="-21.809799"/><use xlink:href="#h" x="45.722439" y="-21.809799"/><use xlink:href="#i" x="51.450191" y="-21.809799"/><use xlink:href="#l" x="57.177944" y="-21.809799"/><use xlink:href="#k" x="62.905695" y="-21.809799"/></g><g fill="none" stroke="#000" stroke-miterlimit="10" stroke-width=".3985"><path d="M83.355 152.244h42.52v-22.678h-42.52ZM110.993 152.244v-22.678M145.718 152.244h42.52v-22.678h-42.52ZM173.356 152.244v-22.678M208.081 152.244h42.52v-22.678h-42.52ZM235.719 152.244v-22.678M119.851 140.905h20.072"/></g><path d="m143.025 140.905-4.468-1.682 1.465 1.682-1.465 1.682Z"/><path fill="none" stroke="#000" stroke-miterlimit="10" stroke-width=".3985" d="m143.025 140.905-4.468-1.682 1.465 1.682-1.465 1.682ZM182.214 140.905h20.072"/><path d="m205.388 140.905-4.468-1.682 1.465 1.682-1.465 1.682Z"/><path fill="none" stroke="#000" stroke-miterlimit="10" stroke-width=".3985" d="m205.388 140.905-4.468-1.682 1.465 1.682-1.465 1.682ZM243.16 142.322v21.26H97.174v-5.543"/><path d="m97.174 154.937-1.682 4.468 1.682-1.466 1.682 1.466Z"/><path fill="none" stroke="#000" stroke-miterlimit="10" stroke-width=".3985" d="m97.174 154.937-1.682 4.468 1.682-1.466 1.682 1.466Z"/><use xlink:href="#l" x="11.355937" y="-21.809799" transform="translate(82.955 166.106)scale(1.00008)"/><use xlink:href="#j" x="11.355937" y="-21.809799" transform="translate(145.318 166.106)scale(1.00008)"/></svg>