<svg xmlns="http://www.w3.org/2000/svg" xmlns:xlink="http://www.w3.org/1999/xlink" width="456.39pt" height="250.24pt" viewBox="0 0 456.39 250.24"><defs><path id="ah" d="M5.454-1.304c0-.071-.024-.335-.395-.335-.227 0-.299.084-.37.264-.3.693-1.077.753-1.304.753-.993 0-1.782-.753-1.914-1.674h3.504c.252 0 .479 0 .479-.443 0-1.4-.79-2.523-2.285-2.523-1.387 0-2.5 1.196-2.5 2.655A2.667 2.667 0 0 0 3.35.072c1.543 0 2.105-1.065 2.105-1.376m-.79-1.65H1.483c.156-1.017.933-1.615 1.686-1.615 1.196 0 1.448 1.017 1.495 1.615"/><path id="ag" d="M5.98-4.676c0-.228-.18-.622-.85-.622-.214 0-.753.048-1.255.442a2 2 0 0 0-1.136-.37A1.91 1.91 0 0 0 .813-3.326c0 .263.06.718.395 1.148a1.57 1.57 0 0 0-.263.837c0 .42.203.754.299.862A1.7 1.7 0 0 0 .347.992c0 .993 1.208 1.747 2.727 1.747S5.8 1.997 5.8.993C5.8-.73 3.684-.73 3.289-.73H2.272c-.143 0-.693 0-.693-.645 0-.228.036-.275.083-.371.24.167.634.323 1.065.323a1.91 1.91 0 0 0 1.925-1.902c0-.299-.071-.67-.322-1.064.31-.168.598-.204.777-.216.072.371.43.383.43.383.144 0 .443-.096.443-.454M3.875-3.325c0 .682-.514 1.232-1.148 1.232-.598 0-1.136-.526-1.136-1.232s.55-1.232 1.136-1.232c.634 0 1.148.55 1.148 1.232M5.119.993c0 .55-.873 1.076-2.045 1.076S1.029 1.543 1.029.993c0-.18.06-.598.502-.873.275-.18.395-.18 1.22-.18 1.052 0 2.368 0 2.368 1.053"/><path id="aj" d="M5.119.682c0-.156-.084-.204-.251-.323C3.218-.777 2.81-2.488 2.81-3.648c0-1.136.382-2.858 2.057-4.018.167-.12.25-.168.25-.323 0-.12-.059-.311-.346-.311-.299 0-1.184.693-1.734 1.47a5.43 5.43 0 0 0-1.005 3.182c0 1.328.479 2.44.98 3.146C3.565.263 4.438.993 4.773.993c.287 0 .347-.204.347-.311"/><path id="ak" d="M4.114-3.648c0-.933-.227-2.14-1.088-3.3-.407-.55-1.292-1.352-1.65-1.352-.276 0-.347.203-.347.31 0 .144.083.204.299.348 1.459 1.028 2.009 2.63 2.009 3.982C3.337-2.583 2.99-.825 1.28.36c-.156.107-.251.167-.251.323 0 .107.071.31.346.31.3 0 1.184-.693 1.735-1.47a5.5 5.5 0 0 0 1.004-3.17"/><path id="as" d="M5.37-1.483c0-1.244-1.483-1.495-2.057-1.579-1.053-.18-1.77-.299-1.77-.801 0-.323.37-.706 1.495-.706 1.136 0 1.184.538 1.208.85.024.239.239.275.383.275.394 0 .394-.216.394-.455v-.909c0-.191 0-.454-.335-.454-.287 0-.358.287-.358.287-.479-.287-1.029-.287-1.268-.287-1.95 0-2.213.992-2.213 1.399 0 .49.287.825.694 1.052.383.216.73.275 1.71.431.467.084 1.423.24 1.423.897 0 .442-.406.861-1.519.861-.765 0-1.267-.299-1.518-1.16-.06-.167-.096-.299-.395-.299-.395 0-.395.227-.395.466v1.232c0 .192 0 .455.335.455.144 0 .251 0 .43-.49.55.454 1.173.49 1.543.49C5.37.072 5.37-1.363 5.37-1.483"/><path id="ai" d="M5.262-1.471c0-.24 0-.502-.394-.502-.383 0-.383.263-.383.514-.012.717-.694.837-.969.837-.933 0-.933-.598-.933-.885v-2.954h1.938c.167 0 .478 0 .478-.347s-.31-.347-.478-.347H2.583v-.98c0-.216 0-.49-.382-.49-.395 0-.395.274-.395.49v.98H.789c-.167 0-.49 0-.49.347s.311.347.478.347h1.029v3.014c0 1.112.765 1.519 1.627 1.519.645 0 1.83-.323 1.83-1.543"/><path id="C" d="M2.464-3.504c.024-.072.323-.67.765-1.053a1.74 1.74 0 0 1 1.184-.478c.479 0 .646.359.646.837 0 .682-.49 2.045-.73 2.691-.107.287-.167.443-.167.658 0 .538.37.969.945.969 1.112 0 1.53-1.759 1.53-1.83 0-.06-.047-.108-.119-.108-.107 0-.12.036-.18.24C6.065-.599 5.61-.12 5.144-.12c-.12 0-.311-.012-.311-.394 0-.3.131-.658.203-.826.24-.657.742-1.997.742-2.679 0-.717-.419-1.255-1.328-1.255-1.064 0-1.626.753-1.842 1.052-.036-.682-.526-1.052-1.052-1.052-.383 0-.646.227-.85.634C.49-4.21.324-3.492.324-3.444s.048.107.131.107c.096 0 .108-.012.18-.287.191-.73.407-1.411.885-1.411.275 0 .37.191.37.55 0 .263-.119.73-.203 1.1l-.335 1.292c-.047.227-.179.765-.239.98C1.03-.8.897-.238.897-.178c0 .167.132.299.311.299a.46.46 0 0 0 .407-.252c.024-.06.131-.478.191-.717l.263-1.077z"/><path id="N" d="M2.404-4.808h1.1c.228 0 .347 0 .347-.215 0-.132-.072-.132-.31-.132H2.487L2.93-6.9c.048-.167.048-.191.048-.275 0-.191-.155-.299-.31-.299-.097 0-.372.036-.467.419l-.467 1.901H.61c-.24 0-.347 0-.347.227 0 .12.084.12.311.12H1.64L.849-1.65c-.096.418-.131.538-.131.693C.718-.395 1.112.12 1.782.12c1.208 0 1.854-1.747 1.854-1.83 0-.072-.048-.108-.12-.108-.024 0-.072 0-.095.048-.012.012-.024.024-.108.215C3.062-.957 2.512-.12 1.818-.12c-.359 0-.383-.299-.383-.562 0-.012 0-.239.036-.382z"/><path id="t" d="M1.582-.397c0-.251-.209-.405-.397-.405a.403.403 0 0 0-.404.398c0 .25.209.404.397.404.23 0 .404-.188.404-.397"/><path id="u" d="M3.597-2.223c0-.767-.091-1.318-.412-1.806-.216-.32-.648-.6-1.206-.6C.362-4.628.362-2.724.362-2.222S.362.139 1.98.139s1.618-1.86 1.618-2.362M1.979-.056c-.32 0-.745-.188-.885-.76-.097-.41-.097-.982-.097-1.498 0-.509 0-1.039.104-1.422a.89.89 0 0 1 .878-.697c.377 0 .74.23.865.634.111.377.118.879.118 1.485 0 .516 0 1.032-.09 1.47-.14.635-.614.788-.893.788"/><path id="s" d="M2.335-4.433c0-.188-.014-.195-.21-.195-.445.439-1.08.446-1.365.446v.25c.167 0 .627 0 1.01-.194v3.554c0 .23 0 .321-.697.321H.81V0c.125-.007.982-.028 1.24-.028.216 0 1.094.021 1.248.028v-.25h-.265c-.697 0-.697-.092-.697-.322z"/><path id="y" d="M3.52-1.269h-.237c-.021.154-.09.565-.181.635-.056.042-.593.042-.69.042H1.129a24 24 0 0 1 1.394-1.171c.516-.412.997-.844.997-1.506 0-.843-.739-1.36-1.631-1.36-.864 0-1.45.607-1.45 1.249 0 .355.3.39.37.39.167 0 .369-.119.369-.37 0-.125-.049-.369-.411-.369.216-.495.69-.648 1.017-.648.697 0 1.06.543 1.06 1.108 0 .606-.432 1.087-.655 1.338L.509-.27C.439-.21.439-.196.439 0h2.872z"/><path id="v" d="M1.903-2.328c.543 0 .934.376.934 1.122 0 .864-.502 1.122-.906 1.122-.28 0-.892-.076-1.185-.488.327-.013.404-.243.404-.39a.374.374 0 0 0-.383-.383c-.195 0-.39.118-.39.404C.376-.286 1.1.14 1.944.14c.968 0 1.638-.648 1.638-1.345 0-.543-.447-1.087-1.213-1.247.732-.265.997-.788.997-1.213 0-.55-.635-.962-1.408-.962s-1.367.376-1.367.934c0 .237.154.37.363.37.216 0 .355-.161.355-.356 0-.202-.139-.349-.355-.363.244-.306.725-.383.983-.383.313 0 .752.153.752.76 0 .293-.097.613-.278.83-.23.264-.426.278-.774.299-.174.014-.188.014-.223.02-.014 0-.07.015-.07.091 0 .098.063.098.181.098z"/><path id="ar" d="M2.474-2.516c.544-.265.893-.593.893-1.074 0-.676-.704-1.038-1.38-1.038-.767 0-1.395.502-1.395 1.164 0 .328.154.564.28.704.125.146.174.174.585.418-.39.167-1.08.544-1.08 1.276 0 .773.8 1.205 1.596 1.205.885 0 1.61-.564 1.61-1.317 0-.46-.272-.85-.677-1.087-.09-.056-.334-.195-.432-.251m-1.136-.662c-.181-.105-.376-.293-.376-.551 0-.44.509-.697 1.01-.697.544 0 1.025.342 1.025.836 0 .62-.725.934-.739.934s-.028-.007-.076-.034zm.342.969.955.55c.18.105.53.314.53.725 0 .523-.58.85-1.179.85-.64 0-1.191-.41-1.191-.982 0-.516.383-.913.885-1.143"/><path id="J" d="M5.669-1.064v-.67h-.263v.67c0 .681-.287.777-.455.777-.454 0-.454-.634-.454-.813v-2.093c0-.646 0-1.125-.526-1.591-.419-.383-.957-.55-1.483-.55-.981 0-1.735.646-1.735 1.423 0 .347.228.514.503.514.287 0 .49-.203.49-.49 0-.49-.43-.49-.61-.49.275-.503.85-.718 1.328-.718.55 0 1.256.455 1.256 1.53v.48C1.316-3.05.407-2.046.407-1.126c0 .946 1.1 1.245 1.83 1.245A1.63 1.63 0 0 0 3.79-.933c.048.562.419.993.933.993.251 0 .945-.168.945-1.124m-1.95-.622C3.72-.514 2.847-.12 2.333-.12c-.586 0-1.076-.43-1.076-1.004 0-1.579 2.033-1.722 2.464-1.746z"/><path id="ab" d="M6.076-2.583c0-1.52-1.125-2.691-2.452-2.691-.658 0-1.22.299-1.627.801V-8.3L.335-8.17v.347c.813 0 .909.084.909.67V0h.263l.43-.777c.276.442.79.897 1.555.897 1.376 0 2.584-1.16 2.584-2.703m-.91-.012c0 .801-.119 1.303-.406 1.734-.24.37-.718.741-1.316.741C2.8-.12 2.38-.538 2.177-.86c-.156-.251-.156-.3-.156-.502v-2.464c0-.215 0-.24.132-.43.287-.431.813-.778 1.4-.778.358 0 1.614.143 1.614 2.44"/><path id="W" d="M7.798-2.775c0-.131 0-.203-.132-.203-.12 0-.131.06-.131.143C7.427-.933 6.04-.095 4.88-.095c-.838 0-3.122-.503-3.122-3.995 0-3.457 2.249-3.983 3.11-3.983 1.256 0 2.356 1.064 2.595 2.858.024.144.024.18.167.18.168 0 .168-.036.168-.275v-2.835c0-.215 0-.275-.12-.275-.071 0-.083.024-.155.144l-.586.945c-.538-.67-1.352-1.089-2.213-1.089C2.536-8.42.646-6.53.646-4.09.646-1.615 2.559.25 4.724.25c1.962 0 3.074-1.71 3.074-3.026"/><path id="ae" d="M4.856-1.423c0-.108-.084-.108-.12-.108-.107 0-.12.036-.155.18-.263.849-.91 1.207-1.555 1.207-.73 0-1.698-.633-1.698-2.451 0-1.986 1.016-2.476 1.614-2.476.455 0 1.112.18 1.388.646-.144 0-.587 0-.587.49 0 .287.204.49.49.49.276 0 .503-.167.503-.514 0-.801-.837-1.375-1.806-1.375C1.53-5.334.42-4.09.42-2.584.419-1.051 1.567.12 2.919.12c1.578 0 1.937-1.436 1.937-1.543"/><path id="L" d="M6.16 0v-.347c-.814 0-.91-.084-.91-.67V-8.3l-1.662.131v.347c.813 0 .909.084.909.67v2.643a1.86 1.86 0 0 0-1.495-.765C1.615-5.274.419-4.102.419-2.571c0 1.519 1.136 2.69 2.451 2.69.91 0 1.436-.597 1.603-.825V.12zM4.472-1.4c0 .216 0 .252-.167.515-.287.419-.778.765-1.376.765-.31 0-1.602-.12-1.602-2.44 0-.86.143-1.339.406-1.734.24-.37.718-.741 1.316-.741.741 0 1.16.538 1.28.73.143.203.143.227.143.442z"/><path id="D" d="M4.868-1.423c0-.072-.06-.12-.132-.12-.096 0-.12.06-.143.12C4.282-.42 3.48-.143 2.978-.143s-1.71-.335-1.71-2.404v-.228H4.58c.263 0 .287 0 .287-.227 0-1.208-.646-2.332-2.093-2.332C1.41-5.334.359-4.102.359-2.62.359-1.041 1.579.12 2.906.12c1.424 0 1.962-1.292 1.962-1.543m-.742-1.579H1.28c.095-1.878 1.148-2.093 1.483-2.093 1.28 0 1.351 1.686 1.363 2.093"/><path id="S" d="m7.14-5.478-.31-2.667H.49v.347h.24c.86 0 .897.12.897.562v6.327c0 .443-.036.562-.897.562H.49V0C.777-.024 1.842-.024 2.2-.024c.42 0 1.472 0 1.819.024v-.347h-.36c-1.04 0-1.064-.143-1.064-.574v-2.978h1.053c1.124 0 1.244.395 1.244 1.4h.263v-3.146h-.263c0 1.005-.12 1.4-1.244 1.4H2.595V-7.32c0-.394.024-.478.55-.478H4.64c1.723 0 2.07.634 2.237 2.32z"/><path id="af" d="M4.09-7.63c0-.443-.43-.79-1.004-.79-.838 0-1.782.646-1.782 1.866v1.4H.37v.346h.933v3.923c0 .538-.132.538-.91.538V0c.336-.024.993-.024 1.352-.024.323 0 1.172 0 1.447.024v-.347h-.239c-.873 0-.897-.131-.897-.562v-3.899H3.41v-.347H2.033v-1.4c0-1.075.55-1.626 1.04-1.626.096 0 .276.024.42.096a.48.48 0 0 0-.348.466c0 .276.192.467.467.467.287 0 .478-.191.478-.478"/><path id="Y" d="M5.681-4.856a.56.56 0 0 0-.586-.55c-.622 0-1.088.383-1.256.562a2 2 0 0 0-1.232-.43C1.531-5.274.73-4.461.73-3.54c0 .682.418 1.124.538 1.232-.144.18-.359.526-.359.992 0 .694.419.993.514 1.053-.55.155-1.1.586-1.1 1.208 0 .825 1.124 1.507 2.595 1.507 1.423 0 2.608-.634 2.608-1.531 0-.3-.084-1.005-.802-1.375-.61-.311-1.208-.311-2.236-.311-.73 0-.814 0-1.029-.228a.88.88 0 0 1-.227-.598c0-.203.072-.406.191-.574.562.371 1.04.371 1.172.371 1.077 0 1.878-.813 1.878-1.734 0-.323-.096-.778-.478-1.16.466-.479 1.028-.479 1.088-.479.048 0 .108 0 .155.024-.12.048-.179.168-.179.3 0 .167.12.31.311.31.096 0 .311-.06.311-.323M3.648-3.54c0 .215 0 .705-.204 1.028a1.02 1.02 0 0 1-.837.467c-1.052 0-1.052-1.208-1.052-1.483 0-.215 0-.706.203-1.029a1.02 1.02 0 0 1 .837-.466c1.053 0 1.053 1.208 1.053 1.483M4.939.933c0 .706-.908 1.268-2.009 1.268C1.782 2.2.91 1.615.91.933c0-.096.024-.562.478-.873.263-.168.371-.168 1.208-.168.993 0 2.344 0 2.344 1.04"/><path id="Z" d="M8.276 0v-.347h-.239c-.861 0-.897-.12-.897-.562v-6.35c0-.443.036-.563.897-.563h.24v-.347c-.288.024-1.268.024-1.615.024-.36 0-1.34 0-1.627-.024v.347h.24c.86 0 .896.12.896.562v2.835H2.595V-7.26c0-.442.036-.562.897-.562h.24v-.347c-.288.024-1.268.024-1.615.024-.359 0-1.34 0-1.627-.024v.347h.24c.86 0 .897.12.897.562v6.351c0 .443-.036.562-.897.562H.49V0c.287-.024 1.268-.024 1.615-.024.359 0 1.34 0 1.627.024v-.347h-.24c-.86 0-.897-.12-.897-.562v-3.17h3.576v3.17c0 .443-.036.562-.897.562h-.239V0c.287-.024 1.268-.024 1.615-.024.359 0 1.34 0 1.626.024"/><path id="X" d="M6.231 0v-.347c-.598 0-.897 0-.909-.359v-2.2c0-1.113 0-1.447-.275-1.83-.347-.467-.909-.538-1.315-.538-1.029 0-1.507.777-1.675 1.148h-.012V-8.3L.383-8.17v.347c.813 0 .909.084.909.67v6.267c0 .538-.132.538-.91.538V0c.312-.024.958-.024 1.292-.024.347 0 .993 0 1.304.024v-.347c-.765 0-.909 0-.909-.538V-3.11c0-1.255.825-1.925 1.567-1.925s.909.61.909 1.34v2.81c0 .538-.132.538-.91.538V0c.312-.024.958-.024 1.293-.024.346 0 .992 0 1.303.024"/><path id="U" d="M3.241-2.26v-.646H.131v.646z"/><path id="M" d="M2.882 0v-.347c-.777 0-.825-.06-.825-.526v-4.401l-1.626.131v.347c.765 0 .873.072.873.658v3.253c0 .538-.132.538-.91.538V0c.336-.024.91-.024 1.256-.024.132 0 .826 0 1.232.024m-.67-7.224a.58.58 0 1 0-.586.574.576.576 0 0 0 .587-.574"/><path id="E" d="M2.966 0v-.347c-.765 0-.909 0-.909-.538V-8.3L.395-8.17v.347c.813 0 .909.084.909.67v6.267c0 .538-.132.538-.91.538V0c.336-.024.922-.024 1.28-.024s.957 0 1.292.024"/><path id="F" d="M9.484 0v-.347c-.598 0-.897 0-.909-.359v-2.2c0-1.113 0-1.447-.275-1.83-.347-.467-.909-.538-1.315-.538-.993 0-1.495.717-1.687 1.184-.167-.921-.813-1.184-1.566-1.184-1.16 0-1.615.992-1.71 1.232h-.013v-1.232l-1.626.131v.347c.813 0 .909.084.909.67v3.241c0 .538-.132.538-.91.538V0c.312-.024.958-.024 1.292-.024.347 0 .993 0 1.304.024v-.347c-.765 0-.909 0-.909-.538V-3.11c0-1.255.825-1.925 1.567-1.925s.909.61.909 1.34v2.81c0 .538-.132.538-.91.538V0c.312-.024.958-.024 1.293-.024.346 0 .992 0 1.303.024v-.347c-.765 0-.909 0-.909-.538V-3.11c0-1.255.825-1.925 1.567-1.925s.909.61.909 1.34v2.81c0 .538-.132.538-.909.538V0c.31-.024.957-.024 1.292-.024.346 0 .992 0 1.303.024"/><path id="G" d="M6.231 0v-.347c-.598 0-.897 0-.909-.359v-2.2c0-1.113 0-1.447-.275-1.83-.347-.467-.909-.538-1.315-.538-1.16 0-1.615.992-1.71 1.232h-.013v-1.232l-1.626.131v.347c.813 0 .909.084.909.67v3.241c0 .538-.132.538-.91.538V0c.312-.024.958-.024 1.292-.024.347 0 .993 0 1.304.024v-.347c-.765 0-.909 0-.909-.538V-3.11c0-1.255.825-1.925 1.567-1.925s.909.61.909 1.34v2.81c0 .538-.132.538-.91.538V0c.312-.024.958-.024 1.293-.024.346 0 .992 0 1.303.024"/><path id="K" d="M6.076-2.583c0-1.52-1.125-2.691-2.428-2.691-1.053 0-1.615.753-1.65.801v-.801l-1.663.131v.347c.837 0 .909.084.909.61v5.621c0 .538-.132.538-.91.538v.347c.312-.024.958-.024 1.293-.024.346 0 .992 0 1.303.024v-.347c-.765 0-.909 0-.909-.538v-2.08c.216.298.706.765 1.471.765 1.376 0 2.584-1.16 2.584-2.703m-.91 0c0 1.423-.813 2.463-1.733 2.463a1.4 1.4 0 0 1-.957-.382c-.275-.275-.455-.515-.455-.85v-2.463c0-.227 0-.24.132-.43a1.72 1.72 0 0 1 1.4-.766c.896 0 1.614 1.088 1.614 2.428"/><path id="ac" d="M5.848-2.2c0-.73-.275-1.268-.598-1.663-.442-.538-.98-.67-1.447-.79l-1.315-.334c-.61-.156-1.148-.754-1.148-1.52 0-.836.67-1.59 1.602-1.59 1.962 0 2.225 1.938 2.296 2.452.024.143.024.191.144.191.132 0 .132-.06.132-.275v-2.416c0-.215 0-.275-.12-.275-.036 0-.084 0-.167.156l-.395.73c-.574-.742-1.364-.886-1.89-.886A2.28 2.28 0 0 0 .646-6.135c0 .574.203 1.1.646 1.578.418.467.837.574 1.686.79.419.095 1.076.263 1.244.334.562.276.933.921.933 1.591 0 .897-.634 1.746-1.627 1.746-.538 0-1.28-.131-1.866-.646C.97-1.363.921-2.225.91-2.619c-.012-.096-.132-.096-.132-.096-.131 0-.131.06-.131.275v2.416c0 .215 0 .275.12.275.071 0 .083-.024.167-.167l.395-.718c.43.479 1.184.885 2.212.885C4.88.251 5.848-.885 5.848-2.2"/><path id="I" d="M4.21-1.519c0-.646-.395-1.028-.502-1.136-.431-.37-.754-.443-1.543-.586-.359-.072-1.232-.24-1.232-.957 0-.37.251-.92 1.327-.92 1.304 0 1.376 1.111 1.4 1.482.012.096.095.096.131.096.132 0 .132-.06.132-.275V-5.06c0-.215 0-.275-.12-.275-.095 0-.323.263-.406.37-.371-.298-.742-.37-1.125-.37-1.447 0-1.877.79-1.877 1.447 0 .132 0 .55.454.969.383.335.79.418 1.34.526.657.132.813.167 1.112.407.215.179.37.442.37.777 0 .514-.298 1.088-1.35 1.088C1.53-.12.956-.574.693-1.77c-.048-.215-.06-.24-.06-.24-.024-.047-.072-.047-.108-.047-.131 0-.131.06-.131.275v1.627c0 .215 0 .275.12.275.06 0 .071-.012.274-.264.06-.083.06-.107.24-.299.454.563 1.1.563 1.303.563C3.588.12 4.21-.574 4.21-1.52"/><path id="aa" d="M8.025-5.442 7.81-8.109H.634L.419-5.442h.263c.167-1.89.275-2.32 2.164-2.32.216 0 .55 0 .646.024.24.036.251.18.251.454V-.92c0 .407 0 .574-1.172.574h-.43V0c.383-.024 1.614-.024 2.08-.024s1.711 0 2.094.024v-.347h-.43c-1.173 0-1.173-.167-1.173-.574v-6.363c0-.299.024-.406.216-.454.095-.024.442-.024.67-.024 1.889 0 1.997.43 2.164 2.32z"/><path id="H" d="M3.899-1.483v-.682h-.263v.658c0 .861-.347 1.363-.813 1.363-.814 0-.814-1.112-.814-1.315v-3.349h1.687v-.347H2.009v-2.2h-.263c-.012 1.124-.442 2.272-1.53 2.308v.24h1.016v3.324C1.232-.155 2.117.12 2.75.12c.753 0 1.148-.742 1.148-1.603"/><path id="ad" d="M6.231 0v-.347c-.813 0-.909-.084-.909-.67v-4.257l-1.686.131v.347c.813 0 .909.084.909.67v2.14C4.545-.968 4.007-.12 3.11-.12c-.981 0-1.04-.562-1.04-1.196v-3.958l-1.687.131v.347c.909 0 .909.036.909 1.1v1.794c0 .742 0 1.172.358 1.567.288.311.778.455 1.388.455.203 0 .586 0 .993-.347.346-.275.538-.73.538-.73V.12z"/><path id="T" d="M6.052 0v-.347c-.634 0-.85-.024-1.136-.406l-1.567-2.07c.347-.454.849-1.1 1.076-1.351.49-.55 1.053-.634 1.435-.634v-.347c-.514.024-.538.024-1.004.024l-1.077-.024v.347c.156.024.347.096.347.37 0 .204-.107.336-.18.431l-.765.97-.933-1.233c-.035-.048-.107-.155-.107-.239 0-.072.06-.287.418-.299v-.347c-.299.024-.909.024-1.231.024L.179-5.155v.347c.61 0 .838.024 1.089.347l1.4 1.83c.023.024.07.095.07.131s-.932 1.208-1.052 1.364C1.16-.49.634-.36.12-.346V0c.454-.024.478-.024.992-.024L2.19 0v-.347c-.287-.036-.335-.215-.335-.383 0-.19.084-.287.203-.442l.861-1.112.981 1.28c.203.262.203.286.203.358 0 .096-.095.287-.418.3V0c.31-.024.897-.024 1.232-.024z"/><path id="V" d="M4.7-2.2h-.263C4.33-.838 4.127-.264 2.703-.264H1.256l3.3-4.557c.108-.131.108-.155.108-.203 0-.132-.083-.132-.287-.132H.622L.49-3.253h.263c.072-1.22.3-1.663 1.603-1.663h1.387l-3.42 4.7C.323 0 .347 0 .61 0h3.899z"/><path id="an" d="M3.897-2.542c0-.853-.087-1.371-.35-1.881-.351-.702-.997-.877-1.435-.877-1.004 0-1.37.75-1.482.972-.287.582-.303 1.371-.303 1.786 0 .526.024 1.33.406 1.968.367.59.957.741 1.38.741.382 0 1.067-.12 1.466-.908.294-.574.318-1.283.318-1.801M2.112-.056c-.27 0-.82-.127-.988-.964-.088-.454-.088-1.204-.088-1.618 0-.55 0-1.108.088-1.546.167-.813.789-.893.988-.893.271 0 .821.136.98.86.096.44.096 1.037.096 1.579 0 .47 0 1.187-.096 1.634-.167.837-.717.948-.98.948"/><path id="d" d="M2.503-5.077c0-.215-.016-.223-.232-.223-.326.319-.749.51-1.506.51v.263c.215 0 .646 0 1.108-.215v4.088c0 .295-.024.391-.781.391h-.28V0c.328-.024 1.013-.024 1.372-.024s1.052 0 1.379.024v-.263h-.28c-.757 0-.78-.096-.78-.39z"/><path id="i" d="M2.248-1.626c.127-.12.462-.382.59-.494.493-.454.964-.893.964-1.618 0-.948-.797-1.562-1.794-1.562-.956 0-1.586.725-1.586 1.435 0 .39.311.446.423.446a.41.41 0 0 0 .414-.423c0-.414-.398-.414-.494-.414a1.23 1.23 0 0 1 1.156-.781c.741 0 1.124.63 1.124 1.3 0 .828-.582 1.434-1.523 2.398L.518-.303C.422-.215.422-.199.422 0h3.149l.23-1.427h-.246c-.024.16-.088.558-.184.71-.048.063-.653.063-.78.063H1.17z"/><path id="e" d="M2.016-2.662c.63 0 1.029.462 1.029 1.3 0 .995-.566 1.29-.989 1.29-.438 0-1.036-.16-1.315-.582.287 0 .486-.183.486-.446a.423.423 0 0 0-.438-.438c-.215 0-.438.135-.438.454 0 .757.813 1.251 1.721 1.251 1.06 0 1.801-.733 1.801-1.53 0-.661-.526-1.267-1.339-1.442.63-.224 1.1-.766 1.1-1.403S2.917-5.3 2.088-5.3C1.235-5.3.59-4.838.59-4.232c0 .295.199.422.406.422a.39.39 0 0 0 .407-.406c0-.295-.255-.407-.43-.415.334-.438.948-.462 1.091-.462.207 0 .813.064.813.885 0 .558-.231.892-.343 1.02-.239.247-.422.263-.908.295-.152.008-.215.016-.215.12 0 .111.071.111.207.111z"/><path id="j" d="M3.14-5.157c0-.159 0-.223-.167-.223-.104 0-.112.008-.191.12L.239-1.57v.263h2.248v.661c0 .295-.024.383-.638.383h-.183V0c.677-.024.693-.024 1.147-.024s.47 0 1.148.024v-.263h-.183c-.614 0-.638-.088-.638-.383v-.661h.845v-.263H3.14zm-.598.646v2.94H.518z"/><path id="f" d="M1.116-4.48c.103.033.422.112.757.112.996 0 1.602-.7 1.602-.82 0-.088-.056-.112-.096-.112-.016 0-.032 0-.103.04-.311.12-.678.215-1.108.215-.47 0-.86-.12-1.108-.215C.98-5.3.964-5.3.956-5.3c-.103 0-.103.088-.103.231v2.335c0 .144 0 .24.127.24.064 0 .088-.032.128-.096.095-.12.398-.526 1.076-.526.446 0 .661.366.733.518.136.287.151.653.151.964 0 .295-.008.725-.23 1.076a1.07 1.07 0 0 1-.893.486A1.295 1.295 0 0 1 .733-.917c.024.008.072.008.08.008.223 0 .398-.143.398-.39 0-.295-.23-.399-.39-.399-.144 0-.399.08-.399.423 0 .717.622 1.442 1.539 1.442.996 0 1.84-.773 1.84-1.761 0-.925-.669-1.745-1.61-1.745-.398 0-.772.127-1.075.398z"/><path id="al" d="M1.1-2.638c0-.662.056-1.243.343-1.73.239-.398.645-.725 1.147-.725.16 0 .526.024.71.303-.36.016-.39.287-.39.375-.001.239.182.374.374.374.143 0 .374-.087.374-.39 0-.479-.358-.869-1.076-.869C1.474-5.3.351-4.248.351-2.526.35-.366 1.355.167 2.128.167c.383 0 .797-.103 1.156-.446.318-.31.59-.646.59-1.339 0-1.044-.79-1.777-1.674-1.777-.574 0-.917.366-1.1.757M2.128-.072c-.422 0-.685-.295-.805-.518-.183-.358-.2-.9-.2-1.203 0-.79.431-1.38 1.045-1.38.398 0 .637.208.789.487.167.295.167.654.167 1.06s0 .757-.16 1.044c-.206.367-.485.51-.836.51"/><path id="b" d="M4.033-4.854c.072-.087.072-.103.072-.279H2.08c-.2 0-.446-.008-.645-.024-.415-.031-.423-.103-.447-.23H.741l-.27 1.68h.246c.016-.119.104-.669.215-.732.088-.04.686-.04.805-.04h1.69l-.82 1.1c-.91 1.211-1.1 2.47-1.1 3.1 0 .08 0 .446.374.446s.375-.358.375-.454v-.382c0-1.148.19-2.089.581-2.607z"/><path id="am" d="M2.646-2.877c.446-.215.988-.614.988-1.236 0-.757-.773-1.187-1.514-1.187-.845 0-1.53.582-1.53 1.33 0 .296.103.567.303.798.135.167.167.183.661.494C.566-2.24.351-1.658.351-1.21c0 .876.884 1.378 1.753 1.378.98 0 1.77-.661 1.77-1.506 0-.502-.272-.837-.4-.972-.135-.128-.143-.136-.828-.566m-1.235-.75c-.231-.135-.423-.366-.423-.645 0-.502.55-.82 1.116-.82.622 0 1.132.422 1.132.98 0 .462-.359.852-.83 1.083zm.39 1.093c.032.015.94.573 1.076.661.128.072.542.327.542.805 0 .614-.645.996-1.299.996-.71 0-1.315-.486-1.315-1.14 0-.597.446-1.067.996-1.322"/><path id="c" d="M3.124-2.351c0 1.945-.924 2.28-1.387 2.28-.167 0-.581-.025-.797-.272.351-.032.375-.295.375-.374a.364.364 0 0 0-.375-.375c-.143 0-.374.088-.374.39 0 .543.446.87 1.18.87 1.091 0 2.127-1.085 2.127-2.79 0-2.072-.916-2.678-1.737-2.678-.94 0-1.785.733-1.785 1.777 0 1.028.773 1.778 1.673 1.778.566 0 .909-.36 1.1-.766zm-1.068.382c-.366 0-.597-.167-.773-.462C1.1-2.726 1.1-3.108 1.1-3.515c0-.47 0-.805.215-1.132.2-.286.454-.446.829-.446.534 0 .765.526.789.566.167.39.175 1.012.175 1.172 0 .63-.342 1.386-1.052 1.386"/><path id="w" d="M3.297 2.39c0-.03 0-.05-.17-.219C1.882.916 1.564-.966 1.564-2.49c0-1.733.378-3.466 1.603-4.711.13-.12.13-.14.13-.17 0-.07-.04-.099-.1-.099-.1 0-.996.677-1.583 1.942C1.106-4.432.986-3.327.986-2.49c0 .777.11 1.982.657 3.108.598 1.225 1.455 1.872 1.554 1.872.06 0 .1-.03.1-.1"/><path id="B" d="M2.878-2.49c0-.777-.11-1.982-.657-3.108C1.623-6.823.767-7.47.667-7.47c-.06 0-.1.04-.1.1 0 .03 0 .05.19.229.976.986 1.544 2.57 1.544 4.651C2.3-.787 1.932.966.697 2.221c-.13.12-.13.14-.13.17 0 .06.04.099.1.099.1 0 .996-.677 1.584-1.942.508-1.096.627-2.201.627-3.038"/><path id="n" d="M4.582-3.187c0-.797-.05-1.594-.399-2.33-.458-.957-1.275-1.116-1.693-1.116-.598 0-1.325.259-1.733 1.185-.319.687-.369 1.464-.369 2.26 0 .748.04 1.644.449 2.401A1.83 1.83 0 0 0 2.48.22C3.018.22 3.775.01 4.213-.936c.319-.687.369-1.464.369-2.251M2.48 0c-.388 0-.976-.249-1.155-1.205-.11-.598-.11-1.514-.11-2.102 0-.637 0-1.295.08-1.832.189-1.186.936-1.275 1.185-1.275.329 0 .986.179 1.175 1.165.1.558.1 1.315.1 1.942 0 .747 0 1.425-.11 2.062C3.496-.299 2.928 0 2.48 0"/><path id="p" d="M2.928-6.374c0-.24 0-.26-.229-.26-.617.638-1.494.638-1.813.638v.309c.2 0 .787 0 1.305-.26v5.16c0 .359-.03.478-.926.478H.946V0c.349-.03 1.215-.03 1.614-.03s1.265 0 1.613.03v-.309h-.318c-.897 0-.927-.11-.927-.478z"/><path id="q" d="M1.265-.767 2.32-1.793C3.874-3.167 4.472-3.705 4.472-4.7c0-1.136-.896-1.932-2.111-1.932A1.84 1.84 0 0 0 .498-4.831c0 .558.498.558.528.558.17 0 .518-.12.518-.528a.504.504 0 0 0-.528-.518c-.08 0-.1 0-.13.01.23-.647.767-1.016 1.345-1.016.906 0 1.335.807 1.335 1.624 0 .797-.498 1.584-1.046 2.201L.608-.369c-.11.11-.11.13-.11.369h3.695l.279-1.733h-.249c-.05.299-.12.737-.22.886-.069.08-.726.08-.945.08z"/><path id="aq" d="M2.888-3.506c.817-.269 1.395-.966 1.395-1.753 0-.817-.877-1.374-1.833-1.374-1.006 0-1.763.597-1.763 1.354 0 .329.22.518.508.518.309 0 .508-.219.508-.508 0-.498-.468-.498-.617-.498.308-.488.966-.617 1.324-.617.409 0 .956.219.956 1.115 0 .12-.02.697-.278 1.136-.3.478-.638.508-.887.518-.08.01-.319.03-.388.03-.08.01-.15.02-.15.119 0 .11.07.11.24.11h.438c.816 0 1.185.677 1.185 1.653C3.526-.35 2.839-.06 2.4-.06c-.428 0-1.175-.17-1.524-.757.35.05.658-.169.658-.548 0-.358-.27-.557-.558-.557-.239 0-.558.14-.558.577C.418-.438 1.345.22 2.43.22c1.215 0 2.122-.906 2.122-1.922 0-.817-.628-1.594-1.664-1.803"/><path id="ap" d="M2.928-1.643v.866c0 .359-.02.468-.757.468h-.209V0c.408-.03.926-.03 1.345-.03s.946 0 1.354.03v-.309h-.209c-.737 0-.757-.11-.757-.468v-.866h.996v-.31h-.996v-4.531c0-.2 0-.259-.16-.259-.089 0-.119 0-.198.12L.279-1.953v.31zm.06-.31H.558l2.43-3.714z"/><path id="A" d="M1.623-4.552c-.458-.299-.498-.637-.498-.806 0-.608.648-1.026 1.355-1.026.727 0 1.365.518 1.365 1.235 0 .567-.389 1.045-.986 1.394zm1.455.946c.717-.368 1.205-.886 1.205-1.543 0-.917-.887-1.484-1.793-1.484-.996 0-1.803.737-1.803 1.663 0 .18.02.627.438 1.096.11.12.479.368.728.537-.578.29-1.435.847-1.435 1.833C.418-.448 1.434.219 2.48.219c1.126 0 2.072-.827 2.072-1.892a1.8 1.8 0 0 0-.488-1.225c-.19-.21-.349-.31-.986-.708m-.996.419 1.225.777c.279.189.747.488.747 1.095 0 .737-.747 1.255-1.564 1.255C1.633-.06.916-.677.916-1.504c0-.578.319-1.215 1.166-1.683"/><path id="z" d="M3.655-3.167v.318c0 2.331-1.036 2.79-1.613 2.79-.17 0-.707-.02-.976-.36.438 0 .518-.288.518-.457 0-.31-.24-.459-.459-.459-.159 0-.458.09-.458.478C.667-.189 1.205.22 2.052.22c1.285 0 2.5-1.354 2.5-3.496 0-2.68-1.146-3.356-2.032-3.356-.548 0-1.036.179-1.464.627-.409.448-.638.867-.638 1.614 0 1.245.877 2.22 1.992 2.22.608 0 1.016-.418 1.245-.995M2.42-2.4c-.16 0-.617 0-.926-.628-.18-.368-.18-.866-.18-1.354 0-.538 0-1.006.21-1.375.269-.498.647-.627.996-.627.458 0 .787.338.956.786.12.32.16.947.16 1.405 0 .827-.34 1.793-1.216 1.793"/><path id="m" d="M6.843-3.257c.149 0 .338 0 .338-.2s-.19-.198-.329-.198H.886c-.139 0-.328 0-.328.199s.189.2.338.2zm.01 1.932c.139 0 .328 0 .328-.199s-.19-.2-.338-.2H.896c-.149 0-.338 0-.338.2s.189.2.328.2z"/><path id="o" d="M1.912-.528c0-.289-.239-.528-.528-.528s-.527.24-.527.528.239.528.527.528.528-.239.528-.528"/><path id="x" d="M3.735-6.115c.06-.24.09-.34.279-.369.09-.01.408-.01.607-.01.708 0 1.813 0 1.813.986 0 .339-.16 1.026-.548 1.414-.259.26-.786.578-1.683.578H3.088zm1.434 2.729c1.006-.22 2.191-.917 2.191-1.923 0-.856-.896-1.494-2.2-1.494H2.32c-.199 0-.288 0-.288.2 0 .11.09.11.279.11.02 0 .209 0 .378.019.18.02.27.03.27.16 0 .04-.01.07-.04.189L1.583-.777c-.1.389-.12.468-.907.468-.179 0-.269 0-.269.2 0 .109.12.109.14.109.279 0 .976-.03 1.255-.03S2.789 0 3.068 0c.08 0 .199 0 .199-.2 0-.109-.09-.109-.279-.109-.369 0-.647 0-.647-.179 0-.06.02-.11.03-.17l.657-2.639h1.185c.906 0 1.086.558 1.086.907 0 .149-.08.458-.14.687-.07.279-.16.647-.16.846C5 .22 6.196.22 6.326.22 7.17.22 7.52-.787 7.52-.926c0-.12-.11-.12-.12-.12-.09 0-.11.07-.13.14C7.023-.17 6.595 0 6.365 0c-.328 0-.398-.22-.398-.608 0-.308.06-.816.1-1.135.02-.14.04-.329.04-.468 0-.767-.668-1.076-.937-1.175"/><path id="r" d="M.876-.588c-.03.15-.09.379-.09.429 0 .179.14.269.29.269.12 0 .298-.08.368-.28.01-.02.13-.487.19-.736l.219-.897c.06-.219.12-.438.169-.667.04-.17.12-.458.13-.498.149-.309.677-1.215 1.623-1.215.448 0 .538.368.538.697 0 .618-.488 1.892-.648 2.32-.09.23-.1.35-.1.459 0 .468.35.817.817.817.937 0 1.305-1.455 1.305-1.534 0-.1-.09-.1-.12-.1-.099 0-.099.03-.149.18C5.22-.668 4.89-.11 4.402-.11c-.169 0-.239-.1-.239-.328 0-.25.09-.488.18-.707.189-.528.607-1.624.607-2.192 0-.667-.428-1.065-1.145-1.065-.897 0-1.385.637-1.554.866-.05-.558-.458-.866-.916-.866s-.648.388-.747.567a5 5 0 0 0-.3.967c0 .1.1.1.12.1.1 0 .11-.01.17-.23.169-.707.368-1.185.727-1.185.199 0 .309.13.309.458 0 .21-.03.319-.16.837z"/><path id="l" d="M2.052-3.984h.936c.2 0 .299 0 .299-.2 0-.109-.1-.109-.28-.109h-.876c.359-1.414.409-1.613.409-1.673 0-.17-.12-.269-.289-.269-.03 0-.309.01-.398.359l-.389 1.583H.528c-.2 0-.299 0-.299.19 0 .119.08.119.279.119h.876C.667-1.155.627-.986.627-.807c0 .538.379.917.917.917 1.016 0 1.583-1.455 1.583-1.534 0-.1-.08-.1-.12-.1-.089 0-.099.03-.148.14C2.43-.35 1.902-.11 1.564-.11c-.21 0-.309-.129-.309-.458 0-.239.02-.308.06-.478z"/><path id="h" d="M5.358-3.827c0-.993-.06-1.962-.49-2.87-.49-.993-1.352-1.256-1.938-1.256-.693 0-1.543.346-1.985 1.34C.61-5.86.49-5.12.49-3.828c0 1.16.084 2.033.515 2.882A2.13 2.13 0 0 0 2.918.251c1.04 0 1.639-.622 1.986-1.315.43-.897.454-2.07.454-2.763M2.918.012c-.382 0-1.16-.215-1.387-1.519-.132-.718-.132-1.627-.132-2.464 0-.98 0-1.865.192-2.571.203-.801.813-1.172 1.327-1.172.455 0 1.148.275 1.376 1.303.155.682.155 1.627.155 2.44 0 .802 0 1.71-.131 2.44C4.09-.215 3.337.012 2.918.012"/><path id="g" d="M3.444-7.666c0-.275 0-.287-.239-.287-.287.323-.885.765-2.117.765v.347c.275 0 .873 0 1.531-.311v6.231c0 .43-.036.574-1.088.574h-.37V0c.322-.024 1.482-.024 1.877-.024s1.543 0 1.866.024v-.347h-.371C3.48-.347 3.444-.49 3.444-.92z"/><path id="a" d="M5.262-2.01H5c-.036.204-.131.862-.25 1.053-.085.108-.766.108-1.125.108H1.41c.323-.275 1.053-1.04 1.364-1.328 1.818-1.674 2.487-2.296 2.487-3.48 0-1.375-1.088-2.296-2.475-2.296S.586-6.77.586-5.741c0 .61.526.61.562.61.251 0 .562-.18.562-.562 0-.335-.227-.562-.562-.562-.107 0-.131 0-.167.012.227-.813.873-1.364 1.65-1.364 1.017 0 1.639.85 1.639 1.95 0 1.017-.586 1.902-1.268 2.667L.586-.287V0h4.365z"/><path id="O" d="M2.99 2.99v-.443H1.83V-8.527h1.16v-.443H1.387V2.99z"/><path id="R" d="M1.854-8.97H.25v.443h1.16V2.547H.251v.443h1.603z"/><path id="P" d="M5.322-2.906c0-1.113 0-1.447-.275-1.83-.347-.467-.909-.538-1.315-.538-1.16 0-1.615.992-1.71 1.232h-.013v-1.232l-1.626.131v.347c.813 0 .909.084.909.67v3.241c0 .538-.132.538-.91.538V0c.312-.024.958-.024 1.292-.024.347 0 .993 0 1.304.024v-.347c-.765 0-.909 0-.909-.538V-3.11c0-1.255.825-1.925 1.567-1.925s.909.61.909 1.34v2.81c0 .538-.132.538-.91.538V0c.312-.024.958-.024 1.293-.024.346 0 .992 0 1.303.024v-.347c-.598 0-.897 0-.909-.359z"/><path id="Q" d="M3.923-5.06c0-.214 0-.274-.12-.274-.095 0-.323.263-.406.37-.371-.298-.742-.37-1.125-.37-1.447 0-1.877.79-1.877 1.447 0 .132 0 .55.454.969.383.335.79.418 1.34.526.657.132.813.167 1.112.407.215.179.37.442.37.777 0 .514-.298 1.088-1.35 1.088C1.53-.12.956-.574.693-1.77c-.048-.215-.048-.227-.06-.24-.024-.047-.072-.047-.108-.047-.131 0-.131.06-.131.275v1.627c0 .215 0 .275.12.275.06 0 .071-.012.274-.264.06-.083.06-.107.24-.299.454.563 1.1.563 1.303.563C3.588.12 4.21-.574 4.21-1.52c0-.646-.395-1.028-.502-1.136-.431-.37-.754-.443-1.543-.586-.359-.072-1.232-.24-1.232-.957 0-.37.251-.92 1.327-.92 1.304 0 1.376 1.111 1.4 1.482.012.096.095.096.131.096.132 0 .132-.06.132-.275z"/><clipPath id="k"><path d="M56.07 204.673h153.595V51.08H56.069Z"/></clipPath><clipPath id="ao"><path d="M282.843 204.674H436.44V51.076H282.843Z"/></clipPath></defs><g fill="none" stroke="gray" stroke-miterlimit="10" stroke-width=".19925"><path d="M68.858 204.673v-4.246m25.599 4.246v-4.246m25.598 4.246v-4.246m25.6 4.246v-4.246m25.598 4.246v-4.246m25.6 4.246v-4.246M68.857 51.08v4.246m25.599-4.246v4.246m25.598-4.246v4.246m25.6-4.246v4.246m25.598-4.246v4.246m25.6-4.246v4.246M56.07 203.479h2.833m-2.834-3.334h2.834m-2.834-2.724h2.834m-2.834-2.303h2.834m-2.834-1.994h2.834m-2.834-1.76h2.834m-2.834-1.574h2.834m-2.834-10.356h2.834m-2.834-6.057h2.834m-2.834-4.298h2.834m-2.834-3.334h2.834m-2.834-2.724h2.834m-2.834-2.303h2.834m-2.834-1.995h2.834m-2.834-1.76h2.834m-2.834-1.573h2.834m-2.834-10.356h2.834m-2.834-6.058h2.834m-2.834-4.298h2.834m-2.834-3.333h2.834m-2.834-2.724h2.834m-2.834-2.303h2.834m-2.834-1.995h2.834m-2.834-1.76h2.834m-2.834-1.574h2.834m-2.834-10.355h2.834m-2.834-6.058h2.834m-2.834-4.298h2.834m-2.834-3.334h2.834m-2.834-2.723h2.834m-2.834-2.303h2.834m-2.834-1.995h2.834m-2.834-1.76h2.834m-2.834-1.574h2.834m-2.834-10.356h2.834m-2.834-6.057h2.834m-2.834-4.298h2.834m-2.834-3.334h2.834m-2.834-2.724h2.834m-2.834-2.303h2.834m-2.834-1.995h2.834m-2.834-1.76h2.834M209.665 203.48h-2.833m2.833-3.334h-2.833m2.833-2.724h-2.833m2.833-2.303h-2.833m2.833-1.994h-2.833m2.833-1.76h-2.833m2.833-1.574h-2.833m2.833-10.356h-2.833m2.833-6.057h-2.833m2.833-4.298h-2.833m2.833-3.334h-2.833m2.833-2.724h-2.833m2.833-2.303h-2.833m2.833-1.995h-2.833m2.833-1.76h-2.833m2.833-1.573h-2.833m2.833-10.356h-2.833m2.833-6.058h-2.833m2.833-4.298h-2.833m2.833-3.333h-2.833m2.833-2.724h-2.833m2.833-2.303h-2.833m2.833-1.995h-2.833m2.833-1.76h-2.833m2.833-1.574h-2.833m2.833-10.355h-2.833m2.833-6.058h-2.833m2.833-4.298h-2.833m2.833-3.334h-2.833m2.833-2.723h-2.833m2.833-2.303h-2.833m2.833-1.995h-2.833m2.833-1.76h-2.833m2.833-1.574h-2.833m2.833-10.356h-2.833m2.833-6.057h-2.833m2.833-4.298h-2.833m2.833-3.334h-2.833m2.833-2.724h-2.833m2.833-2.303h-2.833m2.833-1.995h-2.833m2.833-1.76h-2.833M56.07 189.79h4.249m-4.25-34.4h4.25m-4.25-34.4h4.25m-4.25-34.401h4.25m-4.25-34.4h4.25m149.346 137.6h-4.25m4.25-34.4h-4.25m4.25-34.4h-4.25m4.25-34.4h-4.25m4.25-34.4h-4.25"/></g><path fill="none" stroke="#000" stroke-miterlimit="10" stroke-width=".3985" d="M56.07 204.673V51.08h153.595v153.593z"/><use xlink:href="#a" x="-48.01427" y="118.011362" transform="translate(111.56 100.368)scale(1.0004)"/><use xlink:href="#b" x="-42.141471" y="113.624574" transform="matrix(.99999 0 0 .99999 111.56 100.368)"/><use xlink:href="#a" x="-48.01427" y="118.011362" transform="translate(137.159 100.368)scale(1.0004)"/><use xlink:href="#c" x="-42.141471" y="113.624574" transform="matrix(.99999 0 0 .99999 137.159 100.368)"/><use xlink:href="#a" x="-48.01427" y="118.011362" transform="translate(160.641 100.368)scale(1.0004)"/><g transform="matrix(.99999 0 0 .99999 160.641 100.368)"><use xlink:href="#d" x="-42.141471" y="113.624574"/><use xlink:href="#d" x="-37.909399" y="113.624574"/></g><use xlink:href="#a" x="-48.01427" y="118.011362" transform="translate(186.24 100.368)scale(1.0004)"/><g transform="matrix(.99999 0 0 .99999 186.24 100.368)"><use xlink:href="#d" x="-42.141471" y="113.624574"/><use xlink:href="#e" x="-37.909399" y="113.624574"/></g><use xlink:href="#a" x="-48.01427" y="118.011362" transform="translate(211.838 100.368)scale(1.0004)"/><g transform="matrix(.99999 0 0 .99999 211.838 100.368)"><use xlink:href="#d" x="-42.141471" y="113.624574"/><use xlink:href="#f" x="-37.909399" y="113.624574"/></g><use xlink:href="#a" x="-48.01427" y="118.011362" transform="translate(237.437 100.368)scale(1.0004)"/><g transform="matrix(.99999 0 0 .99999 237.437 100.368)"><use xlink:href="#d" x="-42.141471" y="113.624574"/><use xlink:href="#b" x="-37.909399" y="113.624574"/></g><g transform="translate(83.442 76.563)scale(1.0004)"><use xlink:href="#g" x="-48.01427" y="118.011362"/><use xlink:href="#h" x="-42.165831" y="118.011362"/></g><use xlink:href="#d" x="-36.288544" y="113.624574" transform="matrix(.99999 0 0 .99999 83.442 76.563)"/><g transform="translate(83.442 42.163)scale(1.0004)"><use xlink:href="#g" x="-48.01427" y="118.011362"/><use xlink:href="#h" x="-42.165831" y="118.011362"/></g><use xlink:href="#i" x="-36.288544" y="113.624574" transform="matrix(.99999 0 0 .99999 83.442 42.163)"/><g transform="translate(83.442 7.763)scale(1.0004)"><use xlink:href="#g" x="-48.01427" y="118.011362"/><use xlink:href="#h" x="-42.165831" y="118.011362"/></g><use xlink:href="#e" x="-36.288544" y="113.624574" transform="matrix(.99999 0 0 .99999 83.442 7.763)"/><g transform="translate(83.442 -26.638)scale(1.0004)"><use xlink:href="#g" x="-48.01427" y="118.011362"/><use xlink:href="#h" x="-42.165831" y="118.011362"/></g><use xlink:href="#j" x="-36.288544" y="113.624574" transform="matrix(.99999 0 0 .99999 83.442 -26.638)"/><g transform="translate(83.442 -61.038)scale(1.0004)"><use xlink:href="#g" x="-48.01427" y="118.011362"/><use xlink:href="#h" x="-42.165831" y="118.011362"/></g><use xlink:href="#f" x="-36.288544" y="113.624574" transform="matrix(.99999 0 0 .99999 83.442 -61.038)"/><g clip-path="url(#k)"><path fill="none" stroke="#000" stroke-miterlimit="10" stroke-width=".3985" d="m56.07 191.873 6.4-5.334 6.399-5.333 6.4-5.333 6.399-5.331 6.4-5.334 6.4-5.333 6.399-5.333 6.4-5.334 6.399-5.334 6.4-5.332 6.4-5.333 6.399-5.333 6.4-5.333 6.4-5.334 6.399-5.332 6.4-5.333 6.399-5.333 6.4-5.333 6.4-5.332 6.399-5.334 6.4-5.334 6.4-5.333 6.399-5.331 6.4-5.334"/><g transform="scale(.9997)rotate(-39.818 114.754 -56.677)"><use xlink:href="#l" x="-47.982474" y="117.933214"/><use xlink:href="#m" x="-41.619135" y="117.933214"/><use xlink:href="#n" x="-31.121294" y="117.933214"/><use xlink:href="#o" x="-26.126178" y="117.933214"/><use xlink:href="#p" x="-23.3589" y="117.933214"/><use xlink:href="#q" x="-18.3789" y="117.933214"/><use xlink:href="#n" x="-13.398899" y="117.933214"/><use xlink:href="#r" x="-8.4188" y="117.933214"/></g><g transform="rotate(-39.818 114.72 -56.66)scale(.99941)"><use xlink:href="#s" x="-2.439668" y="114.286692"/><use xlink:href="#t" x="1.529169" y="114.286692"/><use xlink:href="#u" x="3.893879" y="114.286692"/><use xlink:href="#v" x="7.85981" y="114.286692"/></g><g transform="scale(.9997)rotate(-39.818 114.754 -56.677)"><use xlink:href="#w" x="14.547205" y="117.933214"/><use xlink:href="#x" x="18.420196" y="117.933214"/></g><use xlink:href="#y" x="26.051799" y="114.286692" transform="rotate(-39.818 114.72 -56.66)scale(.99941)"/><g transform="scale(.9997)rotate(-39.818 114.754 -56.677)"><use xlink:href="#m" x="33.294309" y="117.933214"/><use xlink:href="#n" x="43.792148" y="117.933214"/><use xlink:href="#o" x="48.788268" y="117.933214"/><use xlink:href="#z" x="51.554542" y="117.933214"/><use xlink:href="#A" x="56.534542" y="117.933214"/><use xlink:href="#q" x="61.514542" y="117.933214"/><use xlink:href="#B" x="66.494542" y="117.933214"/></g></g><path d="M69.991 171.166a1.12 1.12 0 1 0-2.242 0 1.12 1.12 0 0 0 2.242 0"/><path fill="none" stroke="#000" stroke-miterlimit="10" stroke-width=".3985" d="M69.991 171.166a1.12 1.12 0 1 0-2.242 0 1.12 1.12 0 0 0 2.242 0Z"/><path d="M82.79 168.052a1.12 1.12 0 1 0-2.241 0 1.12 1.12 0 0 0 2.241 0"/><path fill="none" stroke="#000" stroke-miterlimit="10" stroke-width=".3985" d="M82.79 168.052a1.12 1.12 0 1 0-2.241 0 1.12 1.12 0 0 0 2.241 0Z"/><path d="M95.59 162.919a1.12 1.12 0 1 0-2.241 0 1.12 1.12 0 0 0 2.241 0"/><path fill="none" stroke="#000" stroke-miterlimit="10" stroke-width=".3985" d="M95.59 162.919a1.12 1.12 0 1 0-2.241 0 1.12 1.12 0 0 0 2.241 0Z"/><path d="M108.39 156.67a1.12 1.12 0 1 0-2.242 0 1.12 1.12 0 0 0 2.242 0"/><path fill="none" stroke="#000" stroke-miterlimit="10" stroke-width=".3985" d="M108.39 156.67a1.12 1.12 0 1 0-2.242 0 1.12 1.12 0 0 0 2.242 0Z"/><path d="M121.189 144.916a1.12 1.12 0 1 0-2.242 0 1.12 1.12 0 0 0 2.242 0"/><path fill="none" stroke="#000" stroke-miterlimit="10" stroke-width=".3985" d="M121.189 144.916a1.12 1.12 0 1 0-2.242 0 1.12 1.12 0 0 0 2.242 0Z"/><path d="M133.988 128.843a1.12 1.12 0 1 0-2.242 0 1.12 1.12 0 0 0 2.242 0"/><path fill="none" stroke="#000" stroke-miterlimit="10" stroke-width=".3985" d="M133.988 128.843a1.12 1.12 0 1 0-2.242 0 1.12 1.12 0 0 0 2.242 0Z"/><path d="M146.787 115.528a1.12 1.12 0 1 0-2.241 0 1.12 1.12 0 0 0 2.241 0"/><path fill="none" stroke="#000" stroke-miterlimit="10" stroke-width=".3985" d="M146.787 115.528a1.12 1.12 0 1 0-2.241 0 1.12 1.12 0 0 0 2.241 0Z"/><path d="M159.588 104.887a1.12 1.12 0 1 0-2.242 0 1.12 1.12 0 0 0 2.242 0"/><path fill="none" stroke="#000" stroke-miterlimit="10" stroke-width=".3985" d="M159.588 104.887a1.12 1.12 0 1 0-2.242 0 1.12 1.12 0 0 0 2.242 0Z"/><path d="M172.387 93.846a1.12 1.12 0 1 0-2.242 0 1.12 1.12 0 0 0 2.242 0"/><path fill="none" stroke="#000" stroke-miterlimit="10" stroke-width=".3985" d="M172.387 93.846a1.12 1.12 0 1 0-2.242 0 1.12 1.12 0 0 0 2.242 0Z"/><path d="M185.186 82.699a1.12 1.12 0 1 0-2.241 0 1.12 1.12 0 0 0 2.241 0"/><path fill="none" stroke="#000" stroke-miterlimit="10" stroke-width=".3985" d="M185.186 82.699a1.12 1.12 0 1 0-2.241 0 1.12 1.12 0 0 0 2.241 0Z"/><path d="M197.986 71.94a1.12 1.12 0 1 0-2.242 0 1.12 1.12 0 0 0 2.242 0"/><path fill="none" stroke="#000" stroke-miterlimit="10" stroke-width=".3985" d="M197.986 71.94a1.12 1.12 0 1 0-2.242 0 1.12 1.12 0 0 0 2.242 0Z"/><g transform="translate(153.44 116.833)scale(1.0004)"><use xlink:href="#C" x="-48.01427" y="118.011362"/><use xlink:href="#D" x="-37.1249" y="118.011362"/><use xlink:href="#E" x="-31.922301" y="118.011362"/><use xlink:href="#D" x="-28.669181" y="118.011362"/><use xlink:href="#F" x="-23.466581" y="118.011362"/><use xlink:href="#D" x="-13.70722" y="118.011362"/><use xlink:href="#G" x="-8.50462" y="118.011362"/><use xlink:href="#H" x="-2.30934" y="118.011362"/><use xlink:href="#I" x="2.24742" y="118.011362"/></g><g transform="rotate(-90 16.464 110.138)scale(1.0004)"><use xlink:href="#D" x="-48.01427" y="118.011362"/><use xlink:href="#E" x="-42.81167" y="118.011362"/><use xlink:href="#J" x="-39.558546" y="118.011362"/><use xlink:href="#K" x="-33.698149" y="118.011362"/><use xlink:href="#I" x="-27.191907" y="118.011362"/><use xlink:href="#D" x="-22.575347" y="118.011362"/><use xlink:href="#L" x="-17.372747" y="118.011362"/><use xlink:href="#H" x="-6.967546" y="118.011362"/><use xlink:href="#M" x="-2.410785" y="118.011362"/><use xlink:href="#F" x=".842335" y="118.011362"/><use xlink:href="#D" x="10.601696" y="118.011362"/><use xlink:href="#N" x="19.702912" y="118.011362"/><use xlink:href="#O" x="27.831174" y="118.011362"/><use xlink:href="#P" x="31.072335" y="118.011362"/><use xlink:href="#Q" x="37.566615" y="118.011362"/><use xlink:href="#R" x="42.183176" y="118.011362"/></g><g transform="translate(99.434 -79.783)scale(1.0004)"><use xlink:href="#S" x="-48.01427" y="103.560563"/><use xlink:href="#M" x="-40.37183" y="103.560563"/><use xlink:href="#T" x="-37.118707" y="103.560563"/><use xlink:href="#D" x="-30.935386" y="103.560563"/><use xlink:href="#L" x="-25.732786" y="103.560563"/><use xlink:href="#U" x="-19.226545" y="103.560563"/><use xlink:href="#I" x="-15.327585" y="103.560563"/><use xlink:href="#M" x="-10.711025" y="103.560563"/><use xlink:href="#V" x="-7.457904" y="103.560563"/><use xlink:href="#D" x="-2.255304" y="103.560563"/><use xlink:href="#W" x="6.846257" y="103.560563"/><use xlink:href="#X" x="15.301977" y="103.560563"/><use xlink:href="#J" x="21.808218" y="103.560563"/><use xlink:href="#M" x="27.668617" y="103.560563"/><use xlink:href="#G" x="30.921737" y="103.560563"/><use xlink:href="#M" x="37.427979" y="103.560563"/><use xlink:href="#G" x="40.6811" y="103.560563"/><use xlink:href="#Y" x="47.187338" y="103.560563"/><use xlink:href="#Z" x="56.9467" y="103.560563"/><use xlink:href="#J" x="65.725338" y="103.560563"/><use xlink:href="#I" x="71.58574" y="103.560563"/><use xlink:href="#X" x="76.202301" y="103.560563"/><use xlink:href="#aa" x="86.607499" y="103.560563"/><use xlink:href="#J" x="94.094461" y="103.560563"/><use xlink:href="#ab" x="99.954856" y="103.560563"/><use xlink:href="#E" x="106.461097" y="103.560563"/><use xlink:href="#D" x="109.714222" y="103.560563"/><use xlink:href="#ac" x="-9.496811" y="118.011362"/><use xlink:href="#ad" x="-2.990571" y="118.011362"/><use xlink:href="#ae" x="3.515669" y="118.011362"/><use xlink:href="#ae" x="8.71827" y="118.011362"/><use xlink:href="#D" x="13.92087" y="118.011362"/><use xlink:href="#I" x="19.123471" y="118.011362"/><use xlink:href="#I" x="23.740032" y="118.011362"/><use xlink:href="#af" x="28.356592" y="118.011362"/><use xlink:href="#ad" x="31.932633" y="118.011362"/><use xlink:href="#E" x="38.438875" y="118.011362"/><use xlink:href="#ag" x="45.590297" y="118.011362"/><use xlink:href="#ah" x="51.749698" y="118.011362"/><use xlink:href="#ai" x="57.909099" y="118.011362"/><use xlink:href="#aj" x="64.068502" y="118.011362"/><use xlink:href="#ak" x="70.227903" y="118.011362"/></g><g fill="none" stroke-miterlimit="10"><path stroke="gray" stroke-width=".19925" d="M295.632 204.674v-4.252m25.599 4.252v-4.252m25.598 4.252v-4.252m25.6 4.252v-4.252m25.598 4.252v-4.252m25.6 4.252v-4.252M295.631 51.076v4.252m25.599-4.252v4.252m25.598-4.252v4.252m25.6-4.252v4.252m25.598-4.252v4.252m25.6-4.252v4.252M282.843 200.864h4.25m-4.25-32.506h4.25m-4.25-32.507h4.25m-4.25-32.506h4.25m-4.25-32.507h4.25m149.346 130.026h-4.25m4.25-32.506h-4.25m4.25-32.507h-4.25m4.25-32.506h-4.25m4.25-32.507h-4.25"/><path stroke="#000" stroke-width=".3985" d="M282.843 204.674V51.076H436.44v153.598z"/></g><use xlink:href="#a" x="-43.77857" y="127.196049" transform="translate(334.1 91.187)scale(1.0004)"/><use xlink:href="#b" x="-37.907524" y="122.804459" transform="matrix(.99999 0 0 .99999 334.1 91.187)"/><use xlink:href="#a" x="-43.77857" y="127.196049" transform="translate(359.699 91.187)scale(1.0004)"/><use xlink:href="#c" x="-37.907524" y="122.804459" transform="matrix(.99999 0 0 .99999 359.699 91.187)"/><use xlink:href="#a" x="-43.77857" y="127.196049" transform="translate(383.181 91.187)scale(1.0004)"/><g transform="matrix(.99999 0 0 .99999 383.181 91.187)"><use xlink:href="#d" x="-37.907524" y="122.804459"/><use xlink:href="#d" x="-33.675455" y="122.804459"/></g><use xlink:href="#a" x="-43.77857" y="127.196049" transform="translate(408.78 91.187)scale(1.0004)"/><g transform="matrix(.99999 0 0 .99999 408.78 91.187)"><use xlink:href="#d" x="-37.907524" y="122.804459"/><use xlink:href="#e" x="-33.675455" y="122.804459"/></g><use xlink:href="#a" x="-43.77857" y="127.196049" transform="translate(434.378 91.187)scale(1.0004)"/><g transform="matrix(.99999 0 0 .99999 434.378 91.187)"><use xlink:href="#d" x="-37.907524" y="122.804459"/><use xlink:href="#f" x="-33.675455" y="122.804459"/></g><use xlink:href="#a" x="-43.77857" y="127.196049" transform="translate(459.977 91.187)scale(1.0004)"/><g transform="matrix(.99999 0 0 .99999 459.977 91.187)"><use xlink:href="#d" x="-37.907524" y="122.804459"/><use xlink:href="#b" x="-33.675455" y="122.804459"/></g><g transform="translate(305.982 78.457)scale(1.0004)"><use xlink:href="#g" x="-43.77857" y="127.196049"/><use xlink:href="#h" x="-37.930133" y="127.196049"/></g><use xlink:href="#i" x="-32.054598" y="122.804459" transform="matrix(.99999 0 0 .99999 305.982 78.457)"/><g transform="translate(305.982 45.95)scale(1.0004)"><use xlink:href="#g" x="-43.77857" y="127.196049"/><use xlink:href="#h" x="-37.930133" y="127.196049"/></g><use xlink:href="#j" x="-32.054598" y="122.804459" transform="matrix(.99999 0 0 .99999 305.982 45.95)"/><g transform="translate(305.982 13.444)scale(1.0004)"><use xlink:href="#g" x="-43.77857" y="127.196049"/><use xlink:href="#h" x="-37.930133" y="127.196049"/></g><use xlink:href="#al" x="-32.054598" y="122.804459" transform="matrix(.99999 0 0 .99999 305.982 13.444)"/><g transform="translate(305.982 -19.063)scale(1.0004)"><use xlink:href="#g" x="-43.77857" y="127.196049"/><use xlink:href="#h" x="-37.930133" y="127.196049"/></g><use xlink:href="#am" x="-32.054598" y="122.804459" transform="matrix(.99999 0 0 .99999 305.982 -19.063)"/><g transform="translate(301.748 -51.569)scale(1.0004)"><use xlink:href="#g" x="-43.77857" y="127.196049"/><use xlink:href="#h" x="-37.930133" y="127.196049"/></g><g transform="matrix(.99999 0 0 .99999 301.748 -51.569)"><use xlink:href="#d" x="-32.054598" y="122.804459"/><use xlink:href="#an" x="-27.822527" y="122.804459"/></g><g clip-path="url(#ao)"><path fill="none" stroke="#000" stroke-miterlimit="10" stroke-width=".3985" d="m282.843 191.873 3.135-2.612 3.135-2.613 3.134-2.613 3.135-2.612 3.134-2.612 3.135-2.61 3.135-2.615 3.134-2.612 3.135-2.61 3.134-2.613 3.135-2.613 3.134-2.612 3.135-2.612 3.135-2.612 3.134-2.613 3.135-2.612 3.134-2.611 3.135-2.613 3.135-2.612 3.134-2.609 3.135-2.616 3.134-2.611 3.135-2.612 3.135-2.611 3.134-2.614 3.135-2.612 3.134-2.61 3.135-2.614 3.134-2.613 3.135-2.612 3.135-2.612 3.134-2.612 3.135-2.61 3.134-2.614 3.135-2.612 3.135-2.613 3.134-2.611 3.135-2.613 3.134-2.612 3.135-2.611 3.135-2.613 3.134-2.611 3.135-2.614 3.134-2.613 3.135-2.611 3.134-2.612 3.135-2.61 3.135-2.615 3.134-2.611"/><g transform="scale(.9997)rotate(-39.818 212.99 -353.846)"><use xlink:href="#l" x="-43.749579" y="127.111818"/><use xlink:href="#m" x="-37.386246" y="127.111818"/><use xlink:href="#n" x="-26.888405" y="127.111818"/><use xlink:href="#o" x="-21.892288" y="127.111818"/><use xlink:href="#n" x="-19.12601" y="127.111818"/><use xlink:href="#ap" x="-14.146009" y="127.111818"/><use xlink:href="#p" x="-9.166009" y="127.111818"/><use xlink:href="#aq" x="-4.186009" y="127.111818"/><use xlink:href="#r" x=".79379" y="127.111818"/></g><g transform="rotate(-39.818 212.925 -353.737)scale(.99941)"><use xlink:href="#y" x="6.770306" y="123.461689"/><use xlink:href="#t" x="10.740141" y="123.461689"/><use xlink:href="#s" x="13.104852" y="123.461689"/><use xlink:href="#ar" x="17.070783" y="123.461689"/></g><g transform="scale(.9997)rotate(-39.818 212.99 -353.846)"><use xlink:href="#w" x="23.759795" y="127.111818"/><use xlink:href="#x" x="27.633783" y="127.111818"/></g><use xlink:href="#y" x="35.262774" y="123.461689" transform="rotate(-39.818 212.925 -353.737)scale(.99941)"/><g transform="scale(.9997)rotate(-39.818 212.99 -353.846)"><use xlink:href="#m" x="42.507903" y="127.111818"/><use xlink:href="#n" x="53.005741" y="127.111818"/><use xlink:href="#o" x="58.000859" y="127.111818"/><use xlink:href="#z" x="60.768137" y="127.111818"/><use xlink:href="#z" x="65.748137" y="127.111818"/><use xlink:href="#A" x="70.728137" y="127.111818"/><use xlink:href="#B" x="75.708137" y="127.111818"/></g></g><path d="M296.765 178.902a1.12 1.12 0 1 0-2.242 0 1.12 1.12 0 0 0 2.242 0"/><path fill="none" stroke="#000" stroke-miterlimit="10" stroke-width=".3985" d="M296.765 178.902a1.12 1.12 0 1 0-2.242 0 1.12 1.12 0 0 0 2.242 0Z"/><path d="M309.564 170.426a1.12 1.12 0 1 0-2.241 0 1.12 1.12 0 0 0 2.241 0"/><path fill="none" stroke="#000" stroke-miterlimit="10" stroke-width=".3985" d="M309.564 170.426a1.12 1.12 0 1 0-2.241 0 1.12 1.12 0 0 0 2.241 0Z"/><path d="M322.364 160.04a1.12 1.12 0 1 0-2.241 0 1.12 1.12 0 0 0 2.241 0"/><path fill="none" stroke="#000" stroke-miterlimit="10" stroke-width=".3985" d="M322.364 160.04a1.12 1.12 0 1 0-2.241 0 1.12 1.12 0 0 0 2.241 0Z"/><path d="M335.164 149.57a1.12 1.12 0 1 0-2.242 0 1.12 1.12 0 0 0 2.242 0"/><path fill="none" stroke="#000" stroke-miterlimit="10" stroke-width=".3985" d="M335.164 149.57a1.12 1.12 0 1 0-2.242 0 1.12 1.12 0 0 0 2.242 0Z"/><path d="M347.963 139.726a1.12 1.12 0 1 0-2.242 0 1.12 1.12 0 0 0 2.242 0"/><path fill="none" stroke="#000" stroke-miterlimit="10" stroke-width=".3985" d="M347.963 139.726a1.12 1.12 0 1 0-2.242 0 1.12 1.12 0 0 0 2.242 0Z"/><path d="M360.762 128.44a1.12 1.12 0 1 0-2.242 0 1.12 1.12 0 0 0 2.242 0"/><path fill="none" stroke="#000" stroke-miterlimit="10" stroke-width=".3985" d="M360.762 128.44a1.12 1.12 0 1 0-2.242 0 1.12 1.12 0 0 0 2.242 0Z"/><path d="M373.561 120.018a1.12 1.12 0 1 0-2.241 0 1.12 1.12 0 0 0 2.241 0"/><path fill="none" stroke="#000" stroke-miterlimit="10" stroke-width=".3985" d="M373.561 120.018a1.12 1.12 0 1 0-2.241 0 1.12 1.12 0 0 0 2.241 0Z"/><path d="M386.362 107.455a1.12 1.12 0 1 0-2.242 0 1.12 1.12 0 0 0 2.241 0"/><path fill="none" stroke="#000" stroke-miterlimit="10" stroke-width=".3985" d="M386.362 107.455a1.12 1.12 0 1 0-2.242 0 1.12 1.12 0 0 0 2.241 0Z"/><path d="M399.16 94.111a1.12 1.12 0 1 0-2.24 0 1.12 1.12 0 0 0 2.24 0"/><path fill="none" stroke="#000" stroke-miterlimit="10" stroke-width=".3985" d="M399.16 94.111a1.12 1.12 0 1 0-2.24 0 1.12 1.12 0 0 0 2.24 0Z"/><path d="M411.96 83.087a1.12 1.12 0 1 0-2.241 0 1.12 1.12 0 0 0 2.241 0"/><path fill="none" stroke="#000" stroke-miterlimit="10" stroke-width=".3985" d="M411.96 83.087a1.12 1.12 0 1 0-2.241 0 1.12 1.12 0 0 0 2.241 0Z"/><path d="M424.76 74.398a1.12 1.12 0 1 0-2.242 0 1.12 1.12 0 0 0 2.242 0"/><path fill="none" stroke="#000" stroke-miterlimit="10" stroke-width=".3985" d="M424.76 74.398a1.12 1.12 0 1 0-2.242 0 1.12 1.12 0 0 0 2.242 0Z"/><g transform="translate(375.98 107.653)scale(1.0004)"><use xlink:href="#C" x="-43.77857" y="127.196049"/><use xlink:href="#D" x="-32.8892" y="127.196049"/><use xlink:href="#E" x="-27.6866" y="127.196049"/><use xlink:href="#D" x="-24.43348" y="127.196049"/><use xlink:href="#F" x="-19.23088" y="127.196049"/><use xlink:href="#D" x="-9.471519" y="127.196049"/><use xlink:href="#G" x="-4.268919" y="127.196049"/><use xlink:href="#H" x="1.926361" y="127.196049"/><use xlink:href="#I" x="6.483122" y="127.196049"/></g><g transform="rotate(-90 125.26 5.574)scale(1.0004)"><use xlink:href="#D" x="-43.77857" y="127.196049"/><use xlink:href="#E" x="-38.575972" y="127.196049"/><use xlink:href="#J" x="-35.322851" y="127.196049"/><use xlink:href="#K" x="-29.462451" y="127.196049"/><use xlink:href="#I" x="-22.95621" y="127.196049"/><use xlink:href="#D" x="-18.339649" y="127.196049"/><use xlink:href="#L" x="-13.137049" y="127.196049"/><use xlink:href="#H" x="-2.731849" y="127.196049"/><use xlink:href="#M" x="1.824912" y="127.196049"/><use xlink:href="#F" x="5.078032" y="127.196049"/><use xlink:href="#D" x="14.837393" y="127.196049"/><use xlink:href="#N" x="23.938607" y="127.196049"/><use xlink:href="#O" x="32.06687" y="127.196049"/><use xlink:href="#P" x="35.30803" y="127.196049"/><use xlink:href="#Q" x="41.802316" y="127.196049"/><use xlink:href="#R" x="46.418877" y="127.196049"/></g><g transform="translate(321.974 -87.223)scale(1.0004)"><use xlink:href="#S" x="-43.77857" y="112.744249"/><use xlink:href="#M" x="-36.136132" y="112.744249"/><use xlink:href="#T" x="-32.88301" y="112.744249"/><use xlink:href="#D" x="-26.699689" y="112.744249"/><use xlink:href="#L" x="-21.497088" y="112.744249"/><use xlink:href="#U" x="-14.990847" y="112.744249"/><use xlink:href="#I" x="-11.091888" y="112.744249"/><use xlink:href="#M" x="-6.475327" y="112.744249"/><use xlink:href="#V" x="-3.222207" y="112.744249"/><use xlink:href="#D" x="1.980394" y="112.744249"/><use xlink:href="#W" x="11.081954" y="112.744249"/><use xlink:href="#X" x="19.537674" y="112.744249"/><use xlink:href="#J" x="26.043915" y="112.744249"/><use xlink:href="#M" x="31.904314" y="112.744249"/><use xlink:href="#G" x="35.157437" y="112.744249"/><use xlink:href="#M" x="41.663676" y="112.744249"/><use xlink:href="#G" x="44.916797" y="112.744249"/><use xlink:href="#Y" x="51.423037" y="112.744249"/><use xlink:href="#Z" x="61.182395" y="112.744249"/><use xlink:href="#J" x="69.961038" y="112.744249"/><use xlink:href="#I" x="75.82144" y="112.744249"/><use xlink:href="#X" x="80.438002" y="112.744249"/><use xlink:href="#aa" x="90.843199" y="112.744249"/><use xlink:href="#J" x="98.330163" y="112.744249"/><use xlink:href="#ab" x="104.190556" y="112.744249"/><use xlink:href="#E" x="110.696805" y="112.744249"/><use xlink:href="#D" x="113.949922" y="112.744249"/><use xlink:href="#C" x="16.837756" y="127.196049"/><use xlink:href="#as" x="27.727126" y="127.196049"/><use xlink:href="#ah" x="33.886526" y="127.196049"/><use xlink:href="#ai" x="40.045927" y="127.196049"/><use xlink:href="#aj" x="46.205328" y="127.196049"/><use xlink:href="#ak" x="52.364726" y="127.196049"/></g></svg>