<svg xmlns="http://www.w3.org/2000/svg" xmlns:xlink="http://www.w3.org/1999/xlink" width="434.92pt" height="250.24pt" viewBox="0 0 434.92 250.24"><defs><path id="ap" d="M6.713-3.227c.14-.06.2-.13.2-.22 0-.099-.04-.159-.2-.228l-5.488-2.59c-.14-.07-.18-.07-.2-.07-.119 0-.198.09-.198.2 0 .12.08.169.189.219l5.229 2.46-5.21 2.46c-.198.09-.208.17-.208.23 0 .109.09.198.199.198.03 0 .05 0 .18-.07zm-.15 4.592c.17 0 .35 0 .35-.2s-.21-.199-.36-.199H1.186c-.15 0-.358 0-.358.2s.179.199.348.199z"/><path id="ak" d="M1.582-.397c0-.251-.209-.405-.397-.405a.403.403 0 0 0-.404.398c0 .25.209.404.397.404.23 0 .404-.188.404-.397"/><path id="aj" d="M2.335-4.433c0-.188-.014-.195-.21-.195-.445.439-1.08.446-1.365.446v.25c.167 0 .627 0 1.01-.194v3.554c0 .23 0 .321-.697.321H.81V0c.125-.007.982-.028 1.24-.028.216 0 1.094.021 1.248.028v-.25h-.265c-.697 0-.697-.092-.697-.322z"/><path id="ao" d="M3.52-1.269h-.237c-.021.154-.09.565-.181.635-.056.042-.593.042-.69.042H1.129a24 24 0 0 1 1.394-1.171c.516-.412.997-.844.997-1.506 0-.843-.739-1.36-1.631-1.36-.864 0-1.45.607-1.45 1.249 0 .355.3.39.37.39.167 0 .369-.119.369-.37 0-.125-.049-.369-.411-.369.216-.495.69-.648 1.017-.648.697 0 1.06.543 1.06 1.108 0 .606-.432 1.087-.655 1.338L.509-.27C.439-.21.439-.196.439 0h2.872z"/><path id="al" d="M3.729-4.21c.07-.084.07-.097.07-.279H1.973c-.28 0-.356-.007-.607-.028-.362-.027-.376-.076-.397-.195H.732L.488-3.22h.237c.014-.105.084-.565.195-.634.056-.042.62-.042.725-.042h1.52c-.224.293-.58.725-.726.92-.913 1.199-.996 2.307-.996 2.718 0 .077 0 .397.327.397.335 0 .335-.313.335-.404v-.279c0-1.352.279-1.972.578-2.349z"/><path id="am" d="M3.297 2.39c0-.03 0-.05-.17-.219C1.882.916 1.564-.966 1.564-2.49c0-1.733.378-3.466 1.603-4.711.13-.12.13-.14.13-.17 0-.07-.04-.099-.1-.099-.1 0-.996.677-1.583 1.942C1.106-4.432.986-3.327.986-2.49c0 .777.11 1.982.657 3.108.598 1.225 1.455 1.872 1.554 1.872.06 0 .1-.03.1-.1"/><path id="ar" d="M2.878-2.49c0-.777-.11-1.982-.657-3.108C1.623-6.823.767-7.47.667-7.47c-.06 0-.1.04-.1.1 0 .03 0 .05.19.229.976.986 1.544 2.57 1.544 4.651C2.3-.787 1.932.966.697 2.221c-.13.12-.13.14-.13.17 0 .06.04.099.1.099.1 0 .996-.677 1.584-1.942.508-1.096.627-2.201.627-3.038"/><path id="aq" d="M4.582-3.187c0-.797-.05-1.594-.399-2.33-.458-.957-1.275-1.116-1.693-1.116-.598 0-1.325.259-1.733 1.185-.319.687-.369 1.464-.369 2.26 0 .748.04 1.644.449 2.401A1.83 1.83 0 0 0 2.48.22C3.018.22 3.775.01 4.213-.936c.319-.687.369-1.464.369-2.251M2.48 0c-.388 0-.976-.249-1.155-1.205-.11-.598-.11-1.514-.11-2.102 0-.637 0-1.295.08-1.832.189-1.186.936-1.275 1.185-1.275.329 0 .986.179 1.175 1.165.1.558.1 1.315.1 1.942 0 .747 0 1.425-.11 2.062C3.496-.299 2.928 0 2.48 0"/><path id="ae" d="M2.888-3.506c.817-.269 1.395-.966 1.395-1.753 0-.817-.877-1.374-1.833-1.374-1.006 0-1.763.597-1.763 1.354 0 .329.22.518.508.518.309 0 .508-.219.508-.508 0-.498-.468-.498-.617-.498.308-.488.966-.617 1.324-.617.409 0 .956.219.956 1.115 0 .12-.02.697-.278 1.136-.3.478-.638.508-.887.518-.08.01-.319.03-.388.03-.08.01-.15.02-.15.119 0 .11.07.11.24.11h.438c.816 0 1.185.677 1.185 1.653C3.526-.35 2.839-.06 2.4-.06c-.428 0-1.175-.17-1.524-.757.35.05.658-.169.658-.548 0-.358-.27-.557-.558-.557-.239 0-.558.14-.558.577C.418-.438 1.345.22 2.43.22c1.215 0 2.122-.906 2.122-1.922 0-.817-.628-1.594-1.664-1.803"/><path id="ah" d="M4.741-6.066c.09-.12.09-.14.09-.348H2.41c-1.216 0-1.236-.13-1.276-.319H.886L.558-4.681h.249c.03-.16.12-.787.249-.907.07-.06.846-.06.976-.06h2.062c-.11.16-.897 1.246-1.116 1.574-.896 1.345-1.225 2.73-1.225 3.745 0 .1 0 .548.458.548s.458-.448.458-.548v-.508c0-.547.03-1.095.11-1.633.04-.23.18-1.086.617-1.703z"/><path id="ag" d="M3.655-3.167v.318c0 2.331-1.036 2.79-1.613 2.79-.17 0-.707-.02-.976-.36.438 0 .518-.288.518-.457 0-.31-.24-.459-.459-.459-.159 0-.458.09-.458.478C.667-.189 1.205.22 2.052.22c1.285 0 2.5-1.354 2.5-3.496 0-2.68-1.146-3.356-2.032-3.356-.548 0-1.036.179-1.464.627-.409.448-.638.867-.638 1.614 0 1.245.877 2.22 1.992 2.22.608 0 1.016-.418 1.245-.995M2.42-2.4c-.16 0-.617 0-.926-.628-.18-.368-.18-.866-.18-1.354 0-.538 0-1.006.21-1.375.269-.498.647-.627.996-.627.458 0 .787.338.956.786.12.32.16.947.16 1.405 0 .827-.34 1.793-1.216 1.793"/><path id="ad" d="M6.843-3.257c.149 0 .338 0 .338-.2s-.19-.198-.329-.198H.886c-.139 0-.328 0-.328.199s.189.2.338.2zm.01 1.932c.139 0 .328 0 .328-.199s-.19-.2-.338-.2H.896c-.149 0-.338 0-.338.2s.189.2.328.2z"/><path id="af" d="M1.912-.528c0-.289-.239-.528-.528-.528s-.527.24-.527.528.239.528.527.528.528-.239.528-.528"/><path id="an" d="M3.735-6.115c.06-.24.09-.34.279-.369.09-.01.408-.01.607-.01.708 0 1.813 0 1.813.986 0 .339-.16 1.026-.548 1.414-.259.26-.786.578-1.683.578H3.088zm1.434 2.729c1.006-.22 2.191-.917 2.191-1.923 0-.856-.896-1.494-2.2-1.494H2.32c-.199 0-.288 0-.288.2 0 .11.09.11.279.11.02 0 .209 0 .378.019.18.02.27.03.27.16 0 .04-.01.07-.04.189L1.583-.777c-.1.389-.12.468-.907.468-.179 0-.269 0-.269.2 0 .109.12.109.14.109.279 0 .976-.03 1.255-.03S2.789 0 3.068 0c.08 0 .199 0 .199-.2 0-.109-.09-.109-.279-.109-.369 0-.647 0-.647-.179 0-.06.02-.11.03-.17l.657-2.639h1.185c.906 0 1.086.558 1.086.907 0 .149-.08.458-.14.687-.07.279-.16.647-.16.846C5 .22 6.196.22 6.326.22 7.17.22 7.52-.787 7.52-.926c0-.12-.11-.12-.12-.12-.09 0-.11.07-.13.14C7.023-.17 6.595 0 6.365 0c-.328 0-.398-.22-.398-.608 0-.308.06-.816.1-1.135.02-.14.04-.329.04-.468 0-.767-.668-1.076-.937-1.175"/><path id="ai" d="M.876-.588c-.03.15-.09.379-.09.429 0 .179.14.269.29.269.12 0 .298-.08.368-.28.01-.02.13-.487.19-.736l.219-.897c.06-.219.12-.438.169-.667.04-.17.12-.458.13-.498.149-.309.677-1.215 1.623-1.215.448 0 .538.368.538.697 0 .618-.488 1.892-.648 2.32-.09.23-.1.35-.1.459 0 .468.35.817.817.817.937 0 1.305-1.455 1.305-1.534 0-.1-.09-.1-.12-.1-.099 0-.099.03-.149.18C5.22-.668 4.89-.11 4.402-.11c-.169 0-.239-.1-.239-.328 0-.25.09-.488.18-.707.189-.528.607-1.624.607-2.192 0-.667-.428-1.065-1.145-1.065-.897 0-1.385.637-1.554.866-.05-.558-.458-.866-.916-.866s-.648.388-.747.567a5 5 0 0 0-.3.967c0 .1.1.1.12.1.1 0 .11-.01.17-.23.169-.707.368-1.185.727-1.185.199 0 .309.13.309.458 0 .21-.03.319-.16.837z"/><path id="ac" d="M2.052-3.984h.936c.2 0 .299 0 .299-.2 0-.109-.1-.109-.28-.109h-.876c.359-1.414.409-1.613.409-1.673 0-.17-.12-.269-.289-.269-.03 0-.309.01-.398.359l-.389 1.583H.528c-.2 0-.299 0-.299.19 0 .119.08.119.279.119h.876C.667-1.155.627-.986.627-.807c0 .538.379.917.917.917 1.016 0 1.583-1.455 1.583-1.534 0-.1-.08-.1-.12-.1-.089 0-.099.03-.148.14C2.43-.35 1.902-.11 1.564-.11c-.21 0-.309-.129-.309-.458 0-.239.02-.308.06-.478z"/><path id="M" d="M5.454-1.304c0-.071-.024-.335-.395-.335-.227 0-.299.084-.37.264-.3.693-1.077.753-1.304.753-.993 0-1.782-.753-1.914-1.674h3.504c.252 0 .479 0 .479-.443 0-1.4-.79-2.523-2.285-2.523-1.387 0-2.5 1.196-2.5 2.655A2.667 2.667 0 0 0 3.35.072c1.543 0 2.105-1.065 2.105-1.376m-.79-1.65H1.483c.156-1.017.933-1.615 1.686-1.615 1.196 0 1.448 1.017 1.495 1.615"/><path id="L" d="M5.98-4.676c0-.228-.18-.622-.85-.622-.214 0-.753.048-1.255.442a2 2 0 0 0-1.136-.37A1.91 1.91 0 0 0 .813-3.326c0 .263.06.718.395 1.148a1.57 1.57 0 0 0-.263.837c0 .42.203.754.299.862A1.7 1.7 0 0 0 .347.992c0 .993 1.208 1.747 2.727 1.747S5.8 1.997 5.8.993C5.8-.73 3.684-.73 3.289-.73H2.272c-.143 0-.693 0-.693-.645 0-.228.036-.275.083-.371.24.167.634.323 1.065.323a1.91 1.91 0 0 0 1.925-1.902c0-.299-.071-.67-.322-1.064.31-.168.598-.204.777-.216.072.371.43.383.43.383.144 0 .443-.096.443-.454M3.875-3.325c0 .682-.514 1.232-1.148 1.232-.598 0-1.136-.526-1.136-1.232s.55-1.232 1.136-1.232c.634 0 1.148.55 1.148 1.232M5.119.993c0 .55-.873 1.076-2.045 1.076S1.029 1.543 1.029.993c0-.18.06-.598.502-.873.275-.18.395-.18 1.22-.18 1.052 0 2.368 0 2.368 1.053"/><path id="O" d="M5.119.682c0-.156-.084-.204-.251-.323C3.218-.777 2.81-2.488 2.81-3.648c0-1.136.382-2.858 2.057-4.018.167-.12.25-.168.25-.323 0-.12-.059-.311-.346-.311-.299 0-1.184.693-1.734 1.47a5.43 5.43 0 0 0-1.005 3.182c0 1.328.479 2.44.98 3.146C3.565.263 4.438.993 4.773.993c.287 0 .347-.204.347-.311"/><path id="P" d="M4.114-3.648c0-.933-.227-2.14-1.088-3.3-.407-.55-1.292-1.352-1.65-1.352-.276 0-.347.203-.347.31 0 .144.083.204.299.348 1.459 1.028 2.009 2.63 2.009 3.982C3.337-2.583 2.99-.825 1.28.36c-.156.107-.251.167-.251.323 0 .107.071.31.346.31.3 0 1.184-.693 1.735-1.47a5.5 5.5 0 0 0 1.004-3.17"/><path id="as" d="M5.37-1.483c0-1.244-1.483-1.495-2.057-1.579-1.053-.18-1.77-.299-1.77-.801 0-.323.37-.706 1.495-.706 1.136 0 1.184.538 1.208.85.024.239.239.275.383.275.394 0 .394-.216.394-.455v-.909c0-.191 0-.454-.335-.454-.287 0-.358.287-.358.287-.479-.287-1.029-.287-1.268-.287-1.95 0-2.213.992-2.213 1.399 0 .49.287.825.694 1.052.383.216.73.275 1.71.431.467.084 1.423.24 1.423.897 0 .442-.406.861-1.519.861-.765 0-1.267-.299-1.518-1.16-.06-.167-.096-.299-.395-.299-.395 0-.395.227-.395.466v1.232c0 .192 0 .455.335.455.144 0 .251 0 .43-.49.55.454 1.173.49 1.543.49C5.37.072 5.37-1.363 5.37-1.483"/><path id="N" d="M5.262-1.471c0-.24 0-.502-.394-.502-.383 0-.383.263-.383.514-.012.717-.694.837-.969.837-.933 0-.933-.598-.933-.885v-2.954h1.938c.167 0 .478 0 .478-.347s-.31-.347-.478-.347H2.583v-.98c0-.216 0-.49-.382-.49-.395 0-.395.274-.395.49v.98H.789c-.167 0-.49 0-.49.347s.311.347.478.347h1.029v3.014c0 1.112.765 1.519 1.627 1.519.645 0 1.83-.323 1.83-1.543"/><path id="s" d="M5.669-1.064v-.67h-.263v.67c0 .681-.287.777-.455.777-.454 0-.454-.634-.454-.813v-2.093c0-.646 0-1.125-.526-1.591-.419-.383-.957-.55-1.483-.55-.981 0-1.735.646-1.735 1.423 0 .347.228.514.503.514.287 0 .49-.203.49-.49 0-.49-.43-.49-.61-.49.275-.503.85-.718 1.328-.718.55 0 1.256.455 1.256 1.53v.48C1.316-3.05.407-2.046.407-1.126c0 .946 1.1 1.245 1.83 1.245A1.63 1.63 0 0 0 3.79-.933c.048.562.419.993.933.993.251 0 .945-.168.945-1.124m-1.95-.622C3.72-.514 2.847-.12 2.333-.12c-.586 0-1.076-.43-1.076-1.004 0-1.579 2.033-1.722 2.464-1.746z"/><path id="G" d="M6.076-2.583c0-1.52-1.125-2.691-2.452-2.691-.658 0-1.22.299-1.627.801V-8.3L.335-8.17v.347c.813 0 .909.084.909.67V0h.263l.43-.777c.276.442.79.897 1.555.897 1.376 0 2.584-1.16 2.584-2.703m-.91-.012c0 .801-.119 1.303-.406 1.734-.24.37-.718.741-1.316.741C2.8-.12 2.38-.538 2.177-.86c-.156-.251-.156-.3-.156-.502v-2.464c0-.215 0-.24.132-.43.287-.431.813-.778 1.4-.778.358 0 1.614.143 1.614 2.44"/><path id="B" d="M7.798-2.775c0-.131 0-.203-.132-.203-.12 0-.131.06-.131.143C7.427-.933 6.04-.095 4.88-.095c-.838 0-3.122-.503-3.122-3.995 0-3.457 2.249-3.983 3.11-3.983 1.256 0 2.356 1.064 2.595 2.858.024.144.024.18.167.18.168 0 .168-.036.168-.275v-2.835c0-.215 0-.275-.12-.275-.071 0-.083.024-.155.144l-.586.945c-.538-.67-1.352-1.089-2.213-1.089C2.536-8.42.646-6.53.646-4.09.646-1.615 2.559.25 4.724.25c1.962 0 3.074-1.71 3.074-3.026"/><path id="J" d="M4.856-1.423c0-.108-.084-.108-.12-.108-.107 0-.12.036-.155.18-.263.849-.91 1.207-1.555 1.207-.73 0-1.698-.633-1.698-2.451 0-1.986 1.016-2.476 1.614-2.476.455 0 1.112.18 1.388.646-.144 0-.587 0-.587.49 0 .287.204.49.49.49.276 0 .503-.167.503-.514 0-.801-.837-1.375-1.806-1.375C1.53-5.334.42-4.09.42-2.584.419-1.051 1.567.12 2.919.12c1.578 0 1.937-1.436 1.937-1.543"/><path id="u" d="M6.16 0v-.347c-.814 0-.91-.084-.91-.67V-8.3l-1.662.131v.347c.813 0 .909.084.909.67v2.643a1.86 1.86 0 0 0-1.495-.765C1.615-5.274.419-4.102.419-2.571c0 1.519 1.136 2.69 2.451 2.69.91 0 1.436-.597 1.603-.825V.12zM4.472-1.4c0 .216 0 .252-.167.515-.287.419-.778.765-1.376.765-.31 0-1.602-.12-1.602-2.44 0-.86.143-1.339.406-1.734.24-.37.718-.741 1.316-.741.741 0 1.16.538 1.28.73.143.203.143.227.143.442z"/><path id="m" d="M4.868-1.423c0-.072-.06-.12-.132-.12-.096 0-.12.06-.143.12C4.282-.42 3.48-.143 2.978-.143s-1.71-.335-1.71-2.404v-.228H4.58c.263 0 .287 0 .287-.227 0-1.208-.646-2.332-2.093-2.332C1.41-5.334.359-4.102.359-2.62.359-1.041 1.579.12 2.906.12c1.424 0 1.962-1.292 1.962-1.543m-.742-1.579H1.28c.095-1.878 1.148-2.093 1.483-2.093 1.28 0 1.351 1.686 1.363 2.093"/><path id="K" d="M4.09-7.63c0-.443-.43-.79-1.004-.79-.838 0-1.782.646-1.782 1.866v1.4H.37v.346h.933v3.923c0 .538-.132.538-.91.538V0c.336-.024.993-.024 1.352-.024.323 0 1.172 0 1.447.024v-.347h-.239c-.873 0-.897-.131-.897-.562v-3.899H3.41v-.347H2.033v-1.4c0-1.075.55-1.626 1.04-1.626.096 0 .276.024.42.096a.48.48 0 0 0-.348.466c0 .276.192.467.467.467.287 0 .478-.191.478-.478"/><path id="D" d="M5.681-4.856a.56.56 0 0 0-.586-.55c-.622 0-1.088.383-1.256.562a2 2 0 0 0-1.232-.43C1.531-5.274.73-4.461.73-3.54c0 .682.418 1.124.538 1.232-.144.18-.359.526-.359.992 0 .694.419.993.514 1.053-.55.155-1.1.586-1.1 1.208 0 .825 1.124 1.507 2.595 1.507 1.423 0 2.608-.634 2.608-1.531 0-.3-.084-1.005-.802-1.375-.61-.311-1.208-.311-2.236-.311-.73 0-.814 0-1.029-.228a.88.88 0 0 1-.227-.598c0-.203.072-.406.191-.574.562.371 1.04.371 1.172.371 1.077 0 1.878-.813 1.878-1.734 0-.323-.096-.778-.478-1.16.466-.479 1.028-.479 1.088-.479.048 0 .108 0 .155.024-.12.048-.179.168-.179.3 0 .167.12.31.311.31.096 0 .311-.06.311-.323M3.648-3.54c0 .215 0 .705-.204 1.028a1.02 1.02 0 0 1-.837.467c-1.052 0-1.052-1.208-1.052-1.483 0-.215 0-.706.203-1.029a1.02 1.02 0 0 1 .837-.466c1.053 0 1.053 1.208 1.053 1.483M4.939.933c0 .706-.908 1.268-2.009 1.268C1.782 2.2.91 1.615.91.933c0-.096.024-.562.478-.873.263-.168.371-.168 1.208-.168.993 0 2.344 0 2.344 1.04"/><path id="E" d="M8.276 0v-.347h-.239c-.861 0-.897-.12-.897-.562v-6.35c0-.443.036-.563.897-.563h.24v-.347c-.288.024-1.268.024-1.615.024-.36 0-1.34 0-1.627-.024v.347h.24c.86 0 .896.12.896.562v2.835H2.595V-7.26c0-.442.036-.562.897-.562h.24v-.347c-.288.024-1.268.024-1.615.024-.359 0-1.34 0-1.627-.024v.347h.24c.86 0 .897.12.897.562v6.351c0 .443-.036.562-.897.562H.49V0c.287-.024 1.268-.024 1.615-.024.359 0 1.34 0 1.627.024v-.347h-.24c-.86 0-.897-.12-.897-.562v-3.17h3.576v3.17c0 .443-.036.562-.897.562h-.239V0c.287-.024 1.268-.024 1.615-.024.359 0 1.34 0 1.626.024"/><path id="C" d="M6.231 0v-.347c-.598 0-.897 0-.909-.359v-2.2c0-1.113 0-1.447-.275-1.83-.347-.467-.909-.538-1.315-.538-1.029 0-1.507.777-1.675 1.148h-.012V-8.3L.383-8.17v.347c.813 0 .909.084.909.67v6.267c0 .538-.132.538-.91.538V0c.312-.024.958-.024 1.292-.024.347 0 .993 0 1.304.024v-.347c-.765 0-.909 0-.909-.538V-3.11c0-1.255.825-1.925 1.567-1.925s.909.61.909 1.34v2.81c0 .538-.132.538-.91.538V0c.312-.024.958-.024 1.293-.024.346 0 .992 0 1.303.024"/><path id="v" d="M2.882 0v-.347c-.777 0-.825-.06-.825-.526v-4.401l-1.626.131v.347c.765 0 .873.072.873.658v3.253c0 .538-.132.538-.91.538V0c.336-.024.91-.024 1.256-.024.132 0 .826 0 1.232.024m-.67-7.224a.58.58 0 1 0-.586.574.576.576 0 0 0 .587-.574"/><path id="n" d="M2.966 0v-.347c-.765 0-.909 0-.909-.538V-8.3L.395-8.17v.347c.813 0 .909.084.909.67v6.267c0 .538-.132.538-.91.538V0c.336-.024.922-.024 1.28-.024s.957 0 1.292.024"/><path id="o" d="M9.484 0v-.347c-.598 0-.897 0-.909-.359v-2.2c0-1.113 0-1.447-.275-1.83-.347-.467-.909-.538-1.315-.538-.993 0-1.495.717-1.687 1.184-.167-.921-.813-1.184-1.566-1.184-1.16 0-1.615.992-1.71 1.232h-.013v-1.232l-1.626.131v.347c.813 0 .909.084.909.67v3.241c0 .538-.132.538-.91.538V0c.312-.024.958-.024 1.292-.024.347 0 .993 0 1.304.024v-.347c-.765 0-.909 0-.909-.538V-3.11c0-1.255.825-1.925 1.567-1.925s.909.61.909 1.34v2.81c0 .538-.132.538-.91.538V0c.312-.024.958-.024 1.293-.024.346 0 .992 0 1.303.024v-.347c-.765 0-.909 0-.909-.538V-3.11c0-1.255.825-1.925 1.567-1.925s.909.61.909 1.34v2.81c0 .538-.132.538-.909.538V0c.31-.024.957-.024 1.292-.024.346 0 .992 0 1.303.024"/><path id="p" d="M6.231 0v-.347c-.598 0-.897 0-.909-.359v-2.2c0-1.113 0-1.447-.275-1.83-.347-.467-.909-.538-1.315-.538-1.16 0-1.615.992-1.71 1.232h-.013v-1.232l-1.626.131v.347c.813 0 .909.084.909.67v3.241c0 .538-.132.538-.91.538V0c.312-.024.958-.024 1.292-.024.347 0 .993 0 1.304.024v-.347c-.765 0-.909 0-.909-.538V-3.11c0-1.255.825-1.925 1.567-1.925s.909.61.909 1.34v2.81c0 .538-.132.538-.91.538V0c.312-.024.958-.024 1.293-.024.346 0 .992 0 1.303.024"/><path id="t" d="M6.076-2.583c0-1.52-1.125-2.691-2.428-2.691-1.053 0-1.615.753-1.65.801v-.801l-1.663.131v.347c.837 0 .909.084.909.61v5.621c0 .538-.132.538-.91.538v.347c.312-.024.958-.024 1.293-.024.346 0 .992 0 1.303.024v-.347c-.765 0-.909 0-.909-.538v-2.08c.216.298.706.765 1.471.765 1.376 0 2.584-1.16 2.584-2.703m-.91 0c0 1.423-.813 2.463-1.733 2.463a1.4 1.4 0 0 1-.957-.382c-.275-.275-.455-.515-.455-.85v-2.463c0-.227 0-.24.132-.43a1.72 1.72 0 0 1 1.4-.766c.896 0 1.614 1.088 1.614 2.428"/><path id="H" d="M5.848-2.2c0-.73-.275-1.268-.598-1.663-.442-.538-.98-.67-1.447-.79l-1.315-.334c-.61-.156-1.148-.754-1.148-1.52 0-.836.67-1.59 1.602-1.59 1.962 0 2.225 1.938 2.296 2.452.024.143.024.191.144.191.132 0 .132-.06.132-.275v-2.416c0-.215 0-.275-.12-.275-.036 0-.084 0-.167.156l-.395.73c-.574-.742-1.364-.886-1.89-.886A2.28 2.28 0 0 0 .646-6.135c0 .574.203 1.1.646 1.578.418.467.837.574 1.686.79.419.095 1.076.263 1.244.334.562.276.933.921.933 1.591 0 .897-.634 1.746-1.627 1.746-.538 0-1.28-.131-1.866-.646C.97-1.363.921-2.225.91-2.619c-.012-.096-.132-.096-.132-.096-.131 0-.131.06-.131.275v2.416c0 .215 0 .275.12.275.071 0 .083-.024.167-.167l.395-.718c.43.479 1.184.885 2.212.885C4.88.251 5.848-.885 5.848-2.2"/><path id="r" d="M4.21-1.519c0-.646-.395-1.028-.502-1.136-.431-.37-.754-.443-1.543-.586-.359-.072-1.232-.24-1.232-.957 0-.37.251-.92 1.327-.92 1.304 0 1.376 1.111 1.4 1.482.012.096.095.096.131.096.132 0 .132-.06.132-.275V-5.06c0-.215 0-.275-.12-.275-.095 0-.323.263-.406.37-.371-.298-.742-.37-1.125-.37-1.447 0-1.877.79-1.877 1.447 0 .132 0 .55.454.969.383.335.79.418 1.34.526.657.132.813.167 1.112.407.215.179.37.442.37.777 0 .514-.298 1.088-1.35 1.088C1.53-.12.956-.574.693-1.77c-.048-.215-.06-.24-.06-.24-.024-.047-.072-.047-.108-.047-.131 0-.131.06-.131.275v1.627c0 .215 0 .275.12.275.06 0 .071-.012.274-.264.06-.083.06-.107.24-.299.454.563 1.1.563 1.303.563C3.588.12 4.21-.574 4.21-1.52"/><path id="F" d="M8.025-5.442 7.81-8.109H.634L.419-5.442h.263c.167-1.89.275-2.32 2.164-2.32.216 0 .55 0 .646.024.24.036.251.18.251.454V-.92c0 .407 0 .574-1.172.574h-.43V0c.383-.024 1.614-.024 2.08-.024s1.711 0 2.094.024v-.347h-.43c-1.173 0-1.173-.167-1.173-.574v-6.363c0-.299.024-.406.216-.454.095-.024.442-.024.67-.024 1.889 0 1.997.43 2.164 2.32z"/><path id="q" d="M3.899-1.483v-.682h-.263v.658c0 .861-.347 1.363-.813 1.363-.814 0-.814-1.112-.814-1.315v-3.349h1.687v-.347H2.009v-2.2h-.263c-.012 1.124-.442 2.272-1.53 2.308v.24h1.016v3.324C1.232-.155 2.117.12 2.75.12c.753 0 1.148-.742 1.148-1.603"/><path id="I" d="M6.231 0v-.347c-.813 0-.909-.084-.909-.67v-4.257l-1.686.131v.347c.813 0 .909.084.909.67v2.14C4.545-.968 4.007-.12 3.11-.12c-.981 0-1.04-.562-1.04-1.196v-3.958l-1.687.131v.347c.909 0 .909.036.909 1.1v1.794c0 .742 0 1.172.358 1.567.288.311.778.455 1.388.455.203 0 .586 0 .993-.347.346-.275.538-.73.538-.73V.12z"/><path id="l" d="M2.464-3.504c.024-.072.323-.67.765-1.053a1.74 1.74 0 0 1 1.184-.478c.479 0 .646.359.646.837 0 .682-.49 2.045-.73 2.691-.107.287-.167.443-.167.658 0 .538.37.969.945.969 1.112 0 1.53-1.759 1.53-1.83 0-.06-.047-.108-.119-.108-.107 0-.12.036-.18.24C6.065-.599 5.61-.12 5.144-.12c-.12 0-.311-.012-.311-.394 0-.3.131-.658.203-.826.24-.657.742-1.997.742-2.679 0-.717-.419-1.255-1.328-1.255-1.064 0-1.626.753-1.842 1.052-.036-.682-.526-1.052-1.052-1.052-.383 0-.646.227-.85.634C.49-4.21.324-3.492.324-3.444s.048.107.131.107c.096 0 .108-.012.18-.287.191-.73.407-1.411.885-1.411.275 0 .37.191.37.55 0 .263-.119.73-.203 1.1l-.335 1.292c-.047.227-.179.765-.239.98C1.03-.8.897-.238.897-.178c0 .167.132.299.311.299a.46.46 0 0 0 .407-.252c.024-.06.131-.478.191-.717l.263-1.077z"/><path id="w" d="M2.404-4.808h1.1c.228 0 .347 0 .347-.215 0-.132-.072-.132-.31-.132H2.487L2.93-6.9c.048-.167.048-.191.048-.275 0-.191-.155-.299-.31-.299-.097 0-.372.036-.467.419l-.467 1.901H.61c-.24 0-.347 0-.347.227 0 .12.084.12.311.12H1.64L.849-1.65c-.096.418-.131.538-.131.693C.718-.395 1.112.12 1.782.12c1.208 0 1.854-1.747 1.854-1.83 0-.072-.048-.108-.12-.108-.024 0-.072 0-.095.048-.012.012-.024.024-.108.215C3.062-.957 2.512-.12 1.818-.12c-.359 0-.383-.299-.383-.562 0-.012 0-.239.036-.382z"/><path id="d" d="M2.503-5.077c0-.215-.016-.223-.232-.223-.326.319-.749.51-1.506.51v.263c.215 0 .646 0 1.108-.215v4.088c0 .295-.024.391-.781.391h-.28V0c.328-.024 1.013-.024 1.372-.024s1.052 0 1.379.024v-.263h-.28c-.757 0-.78-.096-.78-.39z"/><path id="e" d="M2.016-2.662c.63 0 1.029.462 1.029 1.3 0 .995-.566 1.29-.989 1.29-.438 0-1.036-.16-1.315-.582.287 0 .486-.183.486-.446a.423.423 0 0 0-.438-.438c-.215 0-.438.135-.438.454 0 .757.813 1.251 1.721 1.251 1.06 0 1.801-.733 1.801-1.53 0-.661-.526-1.267-1.339-1.442.63-.224 1.1-.766 1.1-1.403S2.917-5.3 2.088-5.3C1.235-5.3.59-4.838.59-4.232c0 .295.199.422.406.422a.39.39 0 0 0 .407-.406c0-.295-.255-.407-.43-.415.334-.438.948-.462 1.091-.462.207 0 .813.064.813.885 0 .558-.231.892-.343 1.02-.239.247-.422.263-.908.295-.152.008-.215.016-.215.12 0 .111.071.111.207.111z"/><path id="f" d="M1.116-4.48c.103.033.422.112.757.112.996 0 1.602-.7 1.602-.82 0-.088-.056-.112-.096-.112-.016 0-.032 0-.103.04-.311.12-.678.215-1.108.215-.47 0-.86-.12-1.108-.215C.98-5.3.964-5.3.956-5.3c-.103 0-.103.088-.103.231v2.335c0 .144 0 .24.127.24.064 0 .088-.032.128-.096.095-.12.398-.526 1.076-.526.446 0 .661.366.733.518.136.287.151.653.151.964 0 .295-.008.725-.23 1.076a1.07 1.07 0 0 1-.893.486A1.295 1.295 0 0 1 .733-.917c.024.008.072.008.08.008.223 0 .398-.143.398-.39 0-.295-.23-.399-.39-.399-.144 0-.399.08-.399.423 0 .717.622 1.442 1.539 1.442.996 0 1.84-.773 1.84-1.761 0-.925-.669-1.745-1.61-1.745-.398 0-.772.127-1.075.398z"/><path id="b" d="M4.033-4.854c.072-.087.072-.103.072-.279H2.08c-.2 0-.446-.008-.645-.024-.415-.031-.423-.103-.447-.23H.741l-.27 1.68h.246c.016-.119.104-.669.215-.732.088-.04.686-.04.805-.04h1.69l-.82 1.1c-.91 1.211-1.1 2.47-1.1 3.1 0 .08 0 .446.374.446s.375-.358.375-.454v-.382c0-1.148.19-2.089.581-2.607z"/><path id="c" d="M3.124-2.351c0 1.945-.924 2.28-1.387 2.28-.167 0-.581-.025-.797-.272.351-.032.375-.295.375-.374a.364.364 0 0 0-.375-.375c-.143 0-.374.088-.374.39 0 .543.446.87 1.18.87 1.091 0 2.127-1.085 2.127-2.79 0-2.072-.916-2.678-1.737-2.678-.94 0-1.785.733-1.785 1.777 0 1.028.773 1.778 1.673 1.778.566 0 .909-.36 1.1-.766zm-1.068.382c-.366 0-.597-.167-.773-.462C1.1-2.726 1.1-3.108 1.1-3.515c0-.47 0-.805.215-1.132.2-.286.454-.446.829-.446.534 0 .765.526.789.566.167.39.175 1.012.175 1.172 0 .63-.342 1.386-1.052 1.386"/><path id="Z" d="M5.75 0v-.338c-.764 0-.851-.077-.851-.611v-6.623l-1.571.12v.339c.763 0 .85.076.85.61v2.357c-.316-.393-.785-.676-1.374-.676C1.516-4.822.37-3.753.37-2.346.37-.96 1.44.12 2.684.12c.698 0 1.189-.37 1.462-.72v.72zM4.146-1.287c0 .196 0 .218-.12.403-.328.524-.818.764-1.288.764-.49 0-.883-.284-1.145-.698-.284-.448-.317-1.07-.317-1.517 0-.403.022-1.058.339-1.549.229-.338.643-.698 1.233-.698.381 0 .84.163 1.178.654.12.186.12.208.12.404z"/><path id="R" d="M4.528-1.298c0-.11-.088-.131-.142-.131-.098 0-.12.065-.142.153C3.862-.153 2.88-.153 2.771-.153c-.545 0-.982-.327-1.233-.73-.327-.524-.327-1.244-.327-1.637h3.044c.24 0 .273 0 .273-.23 0-1.08-.59-2.138-1.953-2.138-1.266 0-2.27 1.124-2.27 2.488 0 1.462 1.146 2.52 2.4 2.52 1.332 0 1.823-1.211 1.823-1.418m-.72-1.451H1.222c.065-1.626.982-1.899 1.353-1.899 1.123 0 1.233 1.473 1.233 1.899"/><path id="X" d="M6.655-4.964 6.35-7.42H.36v.338h.262c.84 0 .862.12.862.513V-.85c0 .393-.022.513-.862.513H.36V0c.382-.033 1.233-.033 1.658-.033.448 0 1.44 0 1.833.033v-.338h-.36c-1.036 0-1.036-.142-1.036-.524v-2.684h.938c1.047 0 1.156.35 1.156 1.277h.273V-5.16H4.55c0 .916-.109 1.276-1.156 1.276h-.938v-2.76c0-.36.022-.437.534-.437H4.3c1.636 0 1.909.611 2.083 2.117z"/><path id="W" d="M5.291-4.408a.534.534 0 0 0-.556-.534c-.218 0-.698.065-1.157.513a1.82 1.82 0 0 0-1.156-.393C1.407-4.822.655-4.07.655-3.23c0 .48.24.894.512 1.123A1.5 1.5 0 0 0 .83-1.2c0 .338.142.753.48.97C.655-.043.305.426.305.863c0 .785 1.08 1.385 2.412 1.385 1.287 0 2.422-.556 2.422-1.407 0-.382-.153-.938-.71-1.244-.578-.305-1.21-.305-1.876-.305-.273 0-.742 0-.818-.011-.35-.044-.579-.382-.579-.731 0-.044 0-.295.186-.513.425.306.873.338 1.08.338 1.015 0 1.767-.752 1.767-1.592 0-.404-.174-.808-.447-1.059.393-.37.786-.425.982-.425 0 0 .076 0 .11.01-.12.044-.175.164-.175.295a.31.31 0 0 0 .316.317c.11 0 .316-.077.316-.328m-1.92 1.179c0 .294-.01.643-.174.916-.088.131-.339.436-.775.436-.95 0-.95-1.09-.95-1.341 0-.295.012-.644.175-.917.088-.13.339-.436.775-.436.95 0 .95 1.09.95 1.342m1.2 4.09c0 .59-.774 1.136-1.843 1.136C1.626 1.997.873 1.44.873.862c0-.502.414-.906.894-.938h.644c.938 0 2.16 0 2.16.938"/><path id="aa" d="M3.011-2.04v-.633H.12v.633z"/><path id="T" d="M2.695 0v-.338c-.72 0-.764-.055-.764-.48v-4.004l-1.527.12v.338c.709 0 .807.065.807.6v2.935c0 .49-.12.49-.851.49V0l1.2-.033c.382 0 .764.022 1.135.033m-.6-6.59a.583.583 0 0 0-1.167 0 .583.583 0 0 0 1.167 0"/><path id="V" d="M5.837 0v-.338c-.567 0-.84 0-.851-.328v-2.083c0-.939 0-1.277-.338-1.67-.153-.185-.513-.403-1.146-.403-.796 0-1.31.469-1.615 1.145v-1.145l-1.538.12v.338c.764 0 .851.076.851.611v2.924c0 .49-.12.49-.85.49V0l1.232-.033L2.804 0v-.338c-.731 0-.851 0-.851-.491v-2.008c0-1.134.775-1.745 1.473-1.745.687 0 .807.589.807 1.21v2.543c0 .49-.12.49-.85.49V0l1.232-.033z"/><path id="Q" d="M7.986-.96c0-.066 0-.186-.142-.186-.12 0-.12.099-.13.175-.066.775-.448.971-.72.971-.535 0-.623-.556-.775-1.571l-.142-.873c-.197-.698-.731-1.058-1.331-1.265 1.058-.262 1.91-.928 1.91-1.779 0-1.047-1.245-1.964-2.848-1.964H.382v.339h.262c.84 0 .862.12.862.512v5.75c0 .393-.022.513-.862.513H.382V0c.393-.033 1.167-.033 1.593-.033s1.2 0 1.593.033v-.338h-.262c-.84 0-.862-.12-.862-.513v-2.76h1.254c.175 0 .633 0 1.015.37.415.393.415.732.415 1.463 0 .709 0 1.145.447 1.56C6.022.175 6.622.24 6.95.24c.85 0 1.036-.895 1.036-1.2M5.531-5.488c0 .753-.261 1.637-1.876 1.637H2.444v-2.826c0-.25 0-.382.24-.415.109-.021.425-.021.644-.021.981 0 2.203.043 2.203 1.625"/><path id="S" d="M3.928-1.396c0-.579-.328-.906-.459-1.037-.36-.35-.785-.436-1.243-.524-.611-.12-1.342-.261-1.342-.894 0-.382.283-.83 1.222-.83 1.2 0 1.254.983 1.276 1.32.011.099.131.099.131.099.142 0 .142-.055.142-.262v-1.102c0-.185 0-.262-.12-.262-.055 0-.077 0-.218.131a1.4 1.4 0 0 1-.186.175c-.414-.306-.862-.306-1.025-.306C.775-4.888.36-4.157.36-3.546c0 .382.175.688.47.928.348.283.654.349 1.44.501.24.044 1.134.219 1.134 1.004 0 .557-.382.993-1.233.993-.916 0-1.31-.622-1.516-1.55C.622-1.81.61-1.854.502-1.854c-.142 0-.142.077-.142.273v1.44C.36.044.36.12.48.12.535.12.546.11.753-.098.775-.12.775-.142.97-.35c.48.458.971.469 1.2.469 1.255 0 1.757-.731 1.757-1.516"/><path id="Y" d="M5.63 0v-.338c-.59 0-.786-.022-1.037-.338L3.131-2.564c.327-.414.742-.949 1.004-1.233.338-.392.785-.556 1.298-.567v-.338c-.283.022-.61.033-.894.033-.328 0-.906-.022-1.048-.033v.338c.23.022.317.164.317.338s-.11.317-.164.382l-.676.851-.851-1.102c-.099-.109-.099-.13-.099-.196 0-.164.164-.262.382-.273v-.338l-1.178.033c-.23 0-.742-.011-1.037-.033v.338c.764 0 .775.01 1.288.666l1.08 1.407c-.513.654-.513.676-1.026 1.298a1.75 1.75 0 0 1-1.396.655V0c.284-.022.622-.033.905-.033L2.073 0v-.338c-.24-.033-.316-.175-.316-.338 0-.24.316-.6.981-1.386l.83 1.091c.087.12.229.295.229.36 0 .098-.099.262-.393.273V0l1.178-.033c.295 0 .72.011 1.048.033"/><path id="U" d="M4.375-2.04h-.273C4.004-.753 3.775-.273 2.51-.273H1.222l3.033-4.102c.098-.12.098-.142.098-.185 0-.142-.087-.142-.284-.142H.58l-.12 1.756H.73c.065-1.113.273-1.516 1.473-1.516h1.244L.404-.35c-.099.12-.099.142-.099.196C.305 0 .382 0 .59 0h3.6z"/><path id="g" d="M5.358-3.827c0-.993-.06-1.962-.49-2.87-.49-.993-1.352-1.256-1.938-1.256-.693 0-1.543.346-1.985 1.34C.61-5.86.49-5.12.49-3.828c0 1.16.084 2.033.515 2.882A2.13 2.13 0 0 0 2.918.251c1.04 0 1.639-.622 1.986-1.315.43-.897.454-2.07.454-2.763M2.918.012c-.382 0-1.16-.215-1.387-1.519-.132-.718-.132-1.627-.132-2.464 0-.98 0-1.865.192-2.571.203-.801.813-1.172 1.327-1.172.455 0 1.148.275 1.376 1.303.155.682.155 1.627.155 2.44 0 .802 0 1.71-.131 2.44C4.09-.215 3.337.012 2.918.012"/><path id="k" d="M3.444-7.666c0-.275 0-.287-.239-.287-.287.323-.885.765-2.117.765v.347c.275 0 .873 0 1.531-.311v6.231c0 .43-.036.574-1.088.574h-.37V0c.322-.024 1.482-.024 1.877-.024s1.543 0 1.866.024v-.347h-.371C3.48-.347 3.444-.49 3.444-.92z"/><path id="a" d="M5.262-2.01H5c-.036.204-.131.862-.25 1.053-.085.108-.766.108-1.125.108H1.41c.323-.275 1.053-1.04 1.364-1.328 1.818-1.674 2.487-2.296 2.487-3.48 0-1.375-1.088-2.296-2.475-2.296S.586-6.77.586-5.741c0 .61.526.61.562.61.251 0 .562-.18.562-.562 0-.335-.227-.562-.562-.562-.107 0-.131 0-.167.012.227-.813.873-1.364 1.65-1.364 1.017 0 1.639.85 1.639 1.95 0 1.017-.586 1.902-1.268 2.667L.586-.287V0h4.365z"/><path id="h" d="M4.318-7.786c0-.227 0-.287-.168-.287-.096 0-.131 0-.227.144l-3.6 5.585v.347h3.145V-.91c0 .443-.024.562-.897.562h-.239V0c.275-.024 1.22-.024 1.555-.024s1.292 0 1.567.024v-.347h-.24c-.86 0-.896-.12-.896-.562v-1.088h1.208v-.347H4.318zm-.79.933v4.509H.622z"/><path id="i" d="M1.471-4.162c0-3.026 1.471-3.504 2.117-3.504.43 0 .861.131 1.088.49-.143 0-.598 0-.598.49 0 .263.18.49.49.49.3 0 .503-.179.503-.526 0-.621-.454-1.231-1.495-1.231C2.069-7.953.49-6.411.49-3.78.49-.49 1.926.25 2.942.25c1.304 0 2.416-1.136 2.416-2.69 0-1.592-1.112-2.656-2.308-2.656-1.065 0-1.46.921-1.579 1.256zm1.471 4.09c-.753 0-1.112-.67-1.22-.92-.107-.312-.227-.898-.227-1.735 0-.945.43-2.129 1.507-2.129.658 0 1.005.443 1.184.85.191.442.191 1.04.191 1.554 0 .61 0 1.148-.227 1.603-.299.574-.73.777-1.208.777"/><path id="j" d="M3.564-4.318c.598-.322 1.471-.873 1.471-1.877 0-1.04-1.004-1.758-2.105-1.758-1.184 0-2.117.873-2.117 1.961 0 .407.12.813.455 1.22.131.155.143.167.98.753C1.088-3.48.49-2.679.49-1.806.49-.538 1.698.251 2.918.251c1.328 0 2.44-.98 2.44-2.236 0-1.22-.861-1.758-1.794-2.333M1.938-5.394c-.156-.108-.634-.419-.634-1.005 0-.777.813-1.267 1.614-1.267.861 0 1.627.622 1.627 1.483 0 .73-.526 1.315-1.22 1.698zM2.5-3.851l1.447.945c.31.203.86.574.86 1.303 0 .91-.92 1.531-1.877 1.531-1.016 0-1.89-.741-1.89-1.734 0-.933.682-1.686 1.46-2.045"/><path id="x" d="M2.99 2.99v-.443H1.83V-8.527h1.16v-.443H1.387V2.99z"/><path id="A" d="M1.854-8.97H.25v.443h1.16V2.547H.251v.443h1.603z"/><path id="y" d="M5.322-2.906c0-1.113 0-1.447-.275-1.83-.347-.467-.909-.538-1.315-.538-1.16 0-1.615.992-1.71 1.232h-.013v-1.232l-1.626.131v.347c.813 0 .909.084.909.67v3.241c0 .538-.132.538-.91.538V0c.312-.024.958-.024 1.292-.024.347 0 .993 0 1.304.024v-.347c-.765 0-.909 0-.909-.538V-3.11c0-1.255.825-1.925 1.567-1.925s.909.61.909 1.34v2.81c0 .538-.132.538-.91.538V0c.312-.024.958-.024 1.293-.024.346 0 .992 0 1.303.024v-.347c-.598 0-.897 0-.909-.359z"/><path id="z" d="M3.923-5.06c0-.214 0-.274-.12-.274-.095 0-.323.263-.406.37-.371-.298-.742-.37-1.125-.37-1.447 0-1.877.79-1.877 1.447 0 .132 0 .55.454.969.383.335.79.418 1.34.526.657.132.813.167 1.112.407.215.179.37.442.37.777 0 .514-.298 1.088-1.35 1.088C1.53-.12.956-.574.693-1.77c-.048-.215-.048-.227-.06-.24-.024-.047-.072-.047-.108-.047-.131 0-.131.06-.131.275v1.627c0 .215 0 .275.12.275.06 0 .071-.012.274-.264.06-.083.06-.107.24-.299.454.563 1.1.563 1.303.563C3.588.12 4.21-.574 4.21-1.52c0-.646-.395-1.028-.502-1.136-.431-.37-.754-.443-1.543-.586-.359-.072-1.232-.24-1.232-.957 0-.37.251-.92 1.327-.92 1.304 0 1.376 1.111 1.4 1.482.012.096.095.096.131.096.132 0 .132-.06.132-.275z"/><clipPath id="ab"><path d="M269.791 204.674h153.596V51.08H269.79Z"/></clipPath></defs><g fill="none" stroke-miterlimit="10"><path stroke="gray" stroke-width=".19925" d="M69.978 204.674v-4.252m25.599 4.252v-4.252m25.598 4.252v-4.252m25.6 4.252v-4.252m25.598 4.252v-4.252m25.6 4.252v-4.252M69.977 51.079v4.253m25.599-4.253v4.253m25.598-4.253v4.253m25.6-4.253v4.253m25.598-4.253v4.253m25.6-4.253v4.253M57.19 204.674h4.249m-4.25-30.719h4.25m-4.25-30.719h4.25m-4.25-30.719h4.25m-4.25-30.719h4.25m-4.25-30.719h4.25m149.346 153.595h-4.25m4.25-30.719h-4.25m4.25-30.719h-4.25m4.25-30.719h-4.25m4.25-30.719h-4.25m4.25-30.719h-4.25"/><path stroke="#000" stroke-width=".3985" d="M57.19 204.674V51.079h153.595v153.595z"/></g><use xlink:href="#a" x="-45.77237" y="98.488527" transform="translate(110.439 119.884)scale(1.0004)"/><use xlink:href="#b" x="-39.900499" y="94.109819" transform="matrix(.99999 0 0 .99999 110.439 119.884)"/><use xlink:href="#a" x="-45.77237" y="98.488527" transform="translate(136.038 119.884)scale(1.0004)"/><use xlink:href="#c" x="-39.900499" y="94.109819" transform="matrix(.99999 0 0 .99999 136.038 119.884)"/><use xlink:href="#a" x="-45.77237" y="98.488527" transform="translate(159.52 119.884)scale(1.0004)"/><g transform="matrix(.99999 0 0 .99999 159.52 119.884)"><use xlink:href="#d" x="-39.900499" y="94.109819"/><use xlink:href="#d" x="-35.66843" y="94.109819"/></g><use xlink:href="#a" x="-45.77237" y="98.488527" transform="translate(185.119 119.884)scale(1.0004)"/><g transform="matrix(.99999 0 0 .99999 185.119 119.884)"><use xlink:href="#d" x="-39.900499" y="94.109819"/><use xlink:href="#e" x="-35.66843" y="94.109819"/></g><use xlink:href="#a" x="-45.77237" y="98.488527" transform="translate(210.717 119.884)scale(1.0004)"/><g transform="matrix(.99999 0 0 .99999 210.717 119.884)"><use xlink:href="#d" x="-39.900499" y="94.109819"/><use xlink:href="#f" x="-35.66843" y="94.109819"/></g><use xlink:href="#a" x="-45.77237" y="98.488527" transform="translate(236.316 119.884)scale(1.0004)"/><g transform="matrix(.99999 0 0 .99999 236.316 119.884)"><use xlink:href="#d" x="-39.900499" y="94.109819"/><use xlink:href="#b" x="-35.66843" y="94.109819"/></g><g transform="translate(87.053 110.077)scale(1.0004)"><use xlink:href="#a" x="-45.77237" y="98.488527"/><use xlink:href="#g" x="-39.923933" y="98.488527"/></g><g transform="translate(87.053 79.358)scale(1.0004)"><use xlink:href="#h" x="-45.77237" y="98.488527"/><use xlink:href="#g" x="-39.923933" y="98.488527"/></g><g transform="translate(87.053 48.639)scale(1.0004)"><use xlink:href="#i" x="-45.77237" y="98.488527"/><use xlink:href="#g" x="-39.923933" y="98.488527"/></g><g transform="translate(87.053 17.92)scale(1.0004)"><use xlink:href="#j" x="-45.77237" y="98.488527"/><use xlink:href="#g" x="-39.923933" y="98.488527"/></g><g transform="translate(81.2 -12.798)scale(1.0004)"><use xlink:href="#k" x="-45.77237" y="98.488527"/><use xlink:href="#g" x="-39.923933" y="98.488527"/><use xlink:href="#g" x="-34.075495" y="98.488527"/></g><g transform="translate(81.2 -43.517)scale(1.0004)"><use xlink:href="#k" x="-45.77237" y="98.488527"/><use xlink:href="#a" x="-39.923933" y="98.488527"/><use xlink:href="#g" x="-34.075495" y="98.488527"/></g><path d="M71.111 193.068a1.12 1.12 0 1 0-2.242 0 1.12 1.12 0 0 0 2.242 0"/><path fill="none" stroke="#000" stroke-miterlimit="10" stroke-width=".3985" d="M71.111 193.068a1.12 1.12 0 1 0-2.242 0 1.12 1.12 0 0 0 2.242 0Z"/><path d="M83.91 195.592a1.12 1.12 0 1 0-2.241 0 1.12 1.12 0 0 0 2.241 0"/><path fill="none" stroke="#000" stroke-miterlimit="10" stroke-width=".3985" d="M83.91 195.592a1.12 1.12 0 1 0-2.241 0 1.12 1.12 0 0 0 2.241 0Z"/><path d="M96.71 193.972a1.12 1.12 0 1 0-2.241 0 1.12 1.12 0 0 0 2.241 0"/><path fill="none" stroke="#000" stroke-miterlimit="10" stroke-width=".3985" d="M96.71 193.972a1.12 1.12 0 1 0-2.241 0 1.12 1.12 0 0 0 2.241 0Z"/><path d="M109.51 189.462a1.12 1.12 0 1 0-2.242 0 1.12 1.12 0 0 0 2.242 0"/><path fill="none" stroke="#000" stroke-miterlimit="10" stroke-width=".3985" d="M109.51 189.462a1.12 1.12 0 1 0-2.242 0 1.12 1.12 0 0 0 2.242 0Z"/><path d="M122.309 185.756a1.12 1.12 0 1 0-2.242 0 1.12 1.12 0 0 0 2.242 0"/><path fill="none" stroke="#000" stroke-miterlimit="10" stroke-width=".3985" d="M122.309 185.756a1.12 1.12 0 1 0-2.242 0 1.12 1.12 0 0 0 2.242 0Z"/><path d="M135.108 182.768a1.12 1.12 0 1 0-2.242 0 1.12 1.12 0 0 0 2.242 0"/><path fill="none" stroke="#000" stroke-miterlimit="10" stroke-width=".3985" d="M135.108 182.768a1.12 1.12 0 1 0-2.242 0 1.12 1.12 0 0 0 2.242 0Z"/><path d="M147.907 181.871a1.12 1.12 0 1 0-2.241 0 1.12 1.12 0 0 0 2.241 0"/><path fill="none" stroke="#000" stroke-miterlimit="10" stroke-width=".3985" d="M147.907 181.871a1.12 1.12 0 1 0-2.241 0 1.12 1.12 0 0 0 2.241 0Z"/><path d="M160.707 180.362a1.12 1.12 0 1 0-2.241 0 1.12 1.12 0 0 0 2.241 0"/><path fill="none" stroke="#000" stroke-miterlimit="10" stroke-width=".3985" d="M160.707 180.362a1.12 1.12 0 1 0-2.241 0 1.12 1.12 0 0 0 2.241 0Z"/><path d="M173.507 179.093a1.12 1.12 0 1 0-2.242 0 1.12 1.12 0 0 0 2.242 0"/><path fill="none" stroke="#000" stroke-miterlimit="10" stroke-width=".3985" d="M173.507 179.093a1.12 1.12 0 1 0-2.242 0 1.12 1.12 0 0 0 2.242 0Z"/><path d="M186.306 186.565a1.12 1.12 0 1 0-2.241 0 1.12 1.12 0 0 0 2.241 0"/><path fill="none" stroke="#000" stroke-miterlimit="10" stroke-width=".3985" d="M186.306 186.565a1.12 1.12 0 1 0-2.241 0 1.12 1.12 0 0 0 2.241 0Z"/><path d="M199.106 165.925a1.12 1.12 0 1 0-2.242 0 1.12 1.12 0 0 0 2.242 0"/><g fill="none" stroke="#000" stroke-miterlimit="10" stroke-width=".3985"><path d="M199.106 165.925a1.12 1.12 0 1 0-2.242 0 1.12 1.12 0 0 0 2.242 0ZM71.236 181.964a1.245 1.245 0 1 0-2.491 0 1.245 1.245 0 0 0 2.49 0ZM84.035 169.584a1.245 1.245 0 1 0-2.49 0 1.245 1.245 0 0 0 2.49 0ZM96.835 142.597a1.245 1.245 0 1 0-2.491 0 1.245 1.245 0 0 0 2.49 0ZM109.634 94.402a1.245 1.245 0 1 0-2.49 0 1.245 1.245 0 0 0 2.49 0Z"/></g><g transform="translate(152.319 136.349)scale(1.0004)"><use xlink:href="#l" x="-45.77237" y="98.488527"/><use xlink:href="#m" x="-34.883005" y="98.488527"/><use xlink:href="#n" x="-29.680404" y="98.488527"/><use xlink:href="#m" x="-26.427284" y="98.488527"/><use xlink:href="#o" x="-21.224684" y="98.488527"/><use xlink:href="#m" x="-11.465323" y="98.488527"/><use xlink:href="#p" x="-6.262723" y="98.488527"/><use xlink:href="#q" x="-.067443" y="98.488527"/><use xlink:href="#r" x="4.489318" y="98.488527"/></g><g transform="rotate(-90 27.342 101.501)scale(1.0004)"><use xlink:href="#m" x="-45.77237" y="98.488527"/><use xlink:href="#n" x="-40.569772" y="98.488527"/><use xlink:href="#s" x="-37.316652" y="98.488527"/><use xlink:href="#t" x="-31.456252" y="98.488527"/><use xlink:href="#r" x="-24.95001" y="98.488527"/><use xlink:href="#m" x="-20.33345" y="98.488527"/><use xlink:href="#u" x="-15.13085" y="98.488527"/><use xlink:href="#q" x="-4.725649" y="98.488527"/><use xlink:href="#v" x="-.168888" y="98.488527"/><use xlink:href="#o" x="3.084232" y="98.488527"/><use xlink:href="#m" x="12.843593" y="98.488527"/><use xlink:href="#w" x="21.945808" y="98.488527"/><use xlink:href="#x" x="30.073069" y="98.488527"/><use xlink:href="#y" x="33.31423" y="98.488527"/><use xlink:href="#z" x="39.808512" y="98.488527"/><use xlink:href="#A" x="44.425069" y="98.488527"/></g><g transform="translate(125.733 -60.269)scale(1.0004)"><use xlink:href="#B" x="-45.77237" y="84.036727"/><use xlink:href="#C" x="-37.316652" y="84.036727"/><use xlink:href="#s" x="-30.81041" y="84.036727"/><use xlink:href="#v" x="-24.950008" y="84.036727"/><use xlink:href="#p" x="-21.696888" y="84.036727"/><use xlink:href="#v" x="-15.190648" y="84.036727"/><use xlink:href="#p" x="-11.937527" y="84.036727"/><use xlink:href="#D" x="-5.431287" y="84.036727"/><use xlink:href="#E" x="4.328074" y="84.036727"/><use xlink:href="#s" x="13.106714" y="84.036727"/><use xlink:href="#r" x="18.967116" y="84.036727"/><use xlink:href="#C" x="23.583677" y="84.036727"/><use xlink:href="#F" x="33.988877" y="84.036727"/><use xlink:href="#s" x="41.475836" y="84.036727"/><use xlink:href="#G" x="47.336237" y="84.036727"/><use xlink:href="#n" x="53.842476" y="84.036727"/><use xlink:href="#m" x="57.095595" y="84.036727"/><use xlink:href="#H" x="-34.68492" y="98.488527"/><use xlink:href="#I" x="-28.178681" y="98.488527"/><use xlink:href="#J" x="-21.672441" y="98.488527"/><use xlink:href="#J" x="-16.46984" y="98.488527"/><use xlink:href="#m" x="-11.26724" y="98.488527"/><use xlink:href="#r" x="-6.06464" y="98.488527"/><use xlink:href="#r" x="-1.448079" y="98.488527"/><use xlink:href="#K" x="3.168481" y="98.488527"/><use xlink:href="#I" x="6.744522" y="98.488527"/><use xlink:href="#n" x="13.250761" y="98.488527"/><use xlink:href="#L" x="20.402186" y="98.488527"/><use xlink:href="#M" x="26.561587" y="98.488527"/><use xlink:href="#N" x="32.720989" y="98.488527"/><use xlink:href="#O" x="38.88039" y="98.488527"/><use xlink:href="#P" x="45.039791" y="98.488527"/></g><path fill="#fff" d="M61.996 73.22h105.758V55.887H61.996Z"/><path fill="none" stroke="#000" stroke-miterlimit="10" stroke-width=".3985" d="M61.996 73.22h105.758V55.887H61.996Z"/><path d="M67.227 64.553a1.12 1.12 0 1 0-2.242 0 1.12 1.12 0 0 0 2.242 0"/><path fill="none" stroke="#000" stroke-miterlimit="10" stroke-width=".3985" d="M67.227 64.553a1.12 1.12 0 1 0-2.242 0 1.12 1.12 0 0 0 2.242 0Z"/><g transform="translate(90.939 -31.067)scale(1.00008)"><use xlink:href="#Q" x="-21.720792" y="98.457122"/><use xlink:href="#R" x="-13.691031" y="98.457122"/><use xlink:href="#S" x="-8.846992" y="98.457122"/><use xlink:href="#T" x="-4.548452" y="98.457122"/><use xlink:href="#U" x="-1.515472" y="98.457122"/><use xlink:href="#T" x="3.328569" y="98.457122"/><use xlink:href="#V" x="6.361549" y="98.457122"/><use xlink:href="#W" x="12.427508" y="98.457122"/></g><path fill="none" stroke="#000" stroke-miterlimit="10" stroke-width=".3985" d="M113.302 64.553a1.245 1.245 0 1 0-2.49 0 1.245 1.245 0 0 0 2.49 0Z"/><g transform="translate(87.001 -31.007)scale(1.00008)"><use xlink:href="#X" x="28.296334" y="98.457122"/><use xlink:href="#T" x="35.420568" y="98.457122"/><use xlink:href="#Y" x="38.453548" y="98.457122"/><use xlink:href="#R" x="44.214027" y="98.457122"/><use xlink:href="#Z" x="49.058067" y="98.457122"/><use xlink:href="#aa" x="55.124027" y="98.457122"/><use xlink:href="#S" x="58.757057" y="98.457122"/><use xlink:href="#T" x="63.055596" y="98.457122"/><use xlink:href="#U" x="66.088572" y="98.457122"/><use xlink:href="#R" x="70.93262" y="98.457122"/></g><g fill="none" stroke-miterlimit="10"><path stroke="gray" stroke-width=".19925" d="M282.58 204.674v-4.25m25.599 4.25v-4.25m25.598 4.25v-4.25m25.6 4.25v-4.25m25.598 4.25v-4.25m25.6 4.25v-4.25M282.58 51.08v4.25m25.599-4.25v4.25m25.598-4.25v4.25m25.6-4.25v4.25m25.598-4.25v4.25m25.6-4.25v4.25M269.791 186.658h4.25m-4.25-36.213h4.25m-4.25-36.212h4.25m-4.25-36.213h4.25m149.346 108.638h-4.25m4.25-36.213h-4.25m4.25-36.212h-4.25m4.25-36.213h-4.25"/><path stroke="#000" stroke-width=".3985" d="M269.791 204.674V51.08h153.596v153.594z"/></g><use xlink:href="#a" x="-46.89282" y="134.805102" transform="translate(324.161 83.582)scale(1.0004)"/><use xlink:href="#b" x="-41.020485" y="130.411374" transform="matrix(.99999 0 0 .99999 324.161 83.582)"/><use xlink:href="#a" x="-46.89282" y="134.805102" transform="translate(349.76 83.582)scale(1.0004)"/><use xlink:href="#c" x="-41.020485" y="130.411374" transform="matrix(.99999 0 0 .99999 349.76 83.582)"/><use xlink:href="#a" x="-46.89282" y="134.805102" transform="translate(373.242 83.582)scale(1.0004)"/><g transform="matrix(.99999 0 0 .99999 373.242 83.582)"><use xlink:href="#d" x="-41.020485" y="130.411374"/><use xlink:href="#d" x="-36.788415" y="130.411374"/></g><use xlink:href="#a" x="-46.89282" y="134.805102" transform="translate(398.841 83.582)scale(1.0004)"/><g transform="matrix(.99999 0 0 .99999 398.841 83.582)"><use xlink:href="#d" x="-41.020485" y="130.411374"/><use xlink:href="#e" x="-36.788415" y="130.411374"/></g><use xlink:href="#a" x="-46.89282" y="134.805102" transform="translate(424.439 83.582)scale(1.0004)"/><g transform="matrix(.99999 0 0 .99999 424.439 83.582)"><use xlink:href="#d" x="-41.020485" y="130.411374"/><use xlink:href="#f" x="-36.788415" y="130.411374"/></g><use xlink:href="#a" x="-46.89282" y="134.805102" transform="translate(450.038 83.582)scale(1.0004)"/><g transform="matrix(.99999 0 0 .99999 450.038 83.582)"><use xlink:href="#d" x="-41.020485" y="130.411374"/><use xlink:href="#b" x="-36.788415" y="130.411374"/></g><g transform="translate(296.043 56.644)scale(1.0004)"><use xlink:href="#k" x="-46.89282" y="134.805102"/><use xlink:href="#g" x="-41.044383" y="134.805102"/></g><use xlink:href="#e" x="-35.167559" y="130.411374" transform="matrix(.99999 0 0 .99999 296.043 56.644)"/><g transform="translate(296.043 20.432)scale(1.0004)"><use xlink:href="#k" x="-46.89282" y="134.805102"/><use xlink:href="#g" x="-41.044383" y="134.805102"/></g><use xlink:href="#f" x="-35.167559" y="130.411374" transform="matrix(.99999 0 0 .99999 296.043 20.432)"/><g transform="translate(296.043 -15.781)scale(1.0004)"><use xlink:href="#k" x="-46.89282" y="134.805102"/><use xlink:href="#g" x="-41.044383" y="134.805102"/></g><use xlink:href="#b" x="-35.167559" y="130.411374" transform="matrix(.99999 0 0 .99999 296.043 -15.781)"/><g transform="translate(296.043 -51.993)scale(1.0004)"><use xlink:href="#k" x="-46.89282" y="134.805102"/><use xlink:href="#g" x="-41.044383" y="134.805102"/></g><use xlink:href="#c" x="-35.167559" y="130.411374" transform="matrix(.99999 0 0 .99999 296.043 -51.993)"/><g clip-path="url(#ab)"><path fill="none" stroke="#000" stroke-miterlimit="10" stroke-width=".3985" d="m269.791 191.874 6.4-3.189 6.4-3.19 6.4-3.186 6.399-3.19 6.4-3.187 6.4-3.19 6.399-3.188 6.4-3.19 6.399-3.187 6.4-3.189 6.4-3.188 6.399-3.189 6.4-3.188 6.4-3.189 6.399-3.189 6.4-3.187 6.399-3.19 6.4-3.187 6.4-3.19 6.399-3.188 6.4-3.189 6.4-3.187 6.399-3.188 6.4-3.19"/><g transform="matrix(.8947 -.44597 .44597 .8947 285.39 50.98)"><use xlink:href="#ac" x="-46.861767" y="134.715833"/><use xlink:href="#ad" x="-40.498432" y="134.715833"/><use xlink:href="#ae" x="-30.000592" y="134.715833"/><use xlink:href="#af" x="-25.005475" y="134.715833"/><use xlink:href="#ag" x="-22.238199" y="134.715833"/><use xlink:href="#ah" x="-17.258198" y="134.715833"/><use xlink:href="#ai" x="-12.278798" y="134.715833"/></g><g transform="scale(.9994)rotate(-26.495 251.12 -580.989)"><use xlink:href="#aj" x="-6.29857" y="131.064544"/><use xlink:href="#ak" x="-2.329733" y="131.064544"/><use xlink:href="#aj" x=".035977" y="131.064544"/><use xlink:href="#al" x="4.001908" y="131.064544"/></g><g transform="matrix(.8947 -.44597 .44597 .8947 285.39 50.98)"><use xlink:href="#am" x="10.687207" y="134.715833"/><use xlink:href="#an" x="14.560196" y="134.715833"/></g><use xlink:href="#ao" x="22.193898" y="131.064544" transform="scale(.9994)rotate(-26.495 251.12 -580.989)"/><g transform="matrix(.8947 -.44597 .44597 .8947 285.39 50.98)"><use xlink:href="#ap" x="29.435313" y="134.715833"/><use xlink:href="#aq" x="39.948569" y="134.715833"/><use xlink:href="#af" x="44.928268" y="134.715833"/><use xlink:href="#ag" x="47.694545" y="134.715833"/><use xlink:href="#ag" x="52.674545" y="134.715833"/><use xlink:href="#ag" x="57.654545" y="134.715833"/><use xlink:href="#ar" x="62.634546" y="134.715833"/></g></g><path d="M283.713 185.745a1.12 1.12 0 1 0-2.242 0 1.12 1.12 0 0 0 2.242 0"/><path fill="none" stroke="#000" stroke-miterlimit="10" stroke-width=".3985" d="M283.713 185.745a1.12 1.12 0 1 0-2.242 0 1.12 1.12 0 0 0 2.242 0Z"/><path d="M296.512 178.25a1.12 1.12 0 1 0-2.241 0 1.12 1.12 0 0 0 2.241 0"/><path fill="none" stroke="#000" stroke-miterlimit="10" stroke-width=".3985" d="M296.512 178.25a1.12 1.12 0 1 0-2.241 0 1.12 1.12 0 0 0 2.241 0Z"/><path d="M309.312 172.951a1.12 1.12 0 1 0-2.241 0 1.12 1.12 0 0 0 2.241 0"/><path fill="none" stroke="#000" stroke-miterlimit="10" stroke-width=".3985" d="M309.312 172.951a1.12 1.12 0 1 0-2.241 0 1.12 1.12 0 0 0 2.241 0Z"/><path d="M322.112 167.28a1.12 1.12 0 1 0-2.242 0 1.12 1.12 0 0 0 2.242 0"/><path fill="none" stroke="#000" stroke-miterlimit="10" stroke-width=".3985" d="M322.112 167.28a1.12 1.12 0 1 0-2.242 0 1.12 1.12 0 0 0 2.242 0Z"/><path d="M334.911 159.75a1.12 1.12 0 1 0-2.242 0 1.12 1.12 0 0 0 2.242 0"/><path fill="none" stroke="#000" stroke-miterlimit="10" stroke-width=".3985" d="M334.911 159.75a1.12 1.12 0 1 0-2.242 0 1.12 1.12 0 0 0 2.242 0Z"/><path d="M347.71 153.454a1.12 1.12 0 1 0-2.242 0 1.12 1.12 0 0 0 2.242 0"/><path fill="none" stroke="#000" stroke-miterlimit="10" stroke-width=".3985" d="M347.71 153.454a1.12 1.12 0 1 0-2.242 0 1.12 1.12 0 0 0 2.242 0Z"/><path d="M360.51 146.848a1.12 1.12 0 1 0-2.242 0 1.12 1.12 0 0 0 2.241 0"/><path fill="none" stroke="#000" stroke-miterlimit="10" stroke-width=".3985" d="M360.51 146.848a1.12 1.12 0 1 0-2.242 0 1.12 1.12 0 0 0 2.241 0Z"/><path d="M373.31 140.276a1.12 1.12 0 1 0-2.242 0 1.12 1.12 0 0 0 2.242 0"/><path fill="none" stroke="#000" stroke-miterlimit="10" stroke-width=".3985" d="M373.31 140.276a1.12 1.12 0 1 0-2.242 0 1.12 1.12 0 0 0 2.242 0Z"/><path d="M386.109 134.133a1.12 1.12 0 1 0-2.242 0 1.12 1.12 0 0 0 2.242 0"/><path fill="none" stroke="#000" stroke-miterlimit="10" stroke-width=".3985" d="M386.109 134.133a1.12 1.12 0 1 0-2.242 0 1.12 1.12 0 0 0 2.242 0Z"/><path d="M398.908 128.349a1.12 1.12 0 1 0-2.241 0 1.12 1.12 0 0 0 2.241 0"/><path fill="none" stroke="#000" stroke-miterlimit="10" stroke-width=".3985" d="M398.908 128.349a1.12 1.12 0 1 0-2.241 0 1.12 1.12 0 0 0 2.241 0Z"/><path d="M411.708 121.935a1.12 1.12 0 1 0-2.242 0 1.12 1.12 0 0 0 2.242 0"/><g fill="none" stroke="#000" stroke-miterlimit="10" stroke-width=".3985"><path d="M411.708 121.935a1.12 1.12 0 1 0-2.242 0 1.12 1.12 0 0 0 2.242 0ZM283.838 180.297a1.245 1.245 0 1 0-2.491 0 1.245 1.245 0 0 0 2.49 0ZM296.637 170.855a1.245 1.245 0 1 0-2.49 0 1.245 1.245 0 0 0 2.49 0ZM309.437 159.285a1.245 1.245 0 1 0-2.491 0 1.245 1.245 0 0 0 2.49 0ZM322.236 147.622a1.245 1.245 0 1 0-2.49 0 1.245 1.245 0 0 0 2.49 0ZM335.036 136.655a1.245 1.245 0 1 0-2.491 0 1.245 1.245 0 0 0 2.49 0ZM347.835 124.082a1.245 1.245 0 1 0-2.491 0 1.245 1.245 0 0 0 2.49 0ZM360.634 114.7a1.245 1.245 0 1 0-2.49 0 1.245 1.245 0 0 0 2.49 0ZM373.434 100.705a1.245 1.245 0 1 0-2.49 0 1.245 1.245 0 0 0 2.49 0ZM386.233 85.84a1.245 1.245 0 1 0-2.49 0 1.245 1.245 0 0 0 2.49 0ZM399.033 73.56a1.245 1.245 0 1 0-2.49 0 1.245 1.245 0 0 0 2.49 0ZM411.833 63.88a1.245 1.245 0 1 0-2.491 0 1.245 1.245 0 0 0 2.49 0Z"/></g><g transform="translate(366.041 100.047)scale(1.0004)"><use xlink:href="#l" x="-46.89282" y="134.805102"/><use xlink:href="#m" x="-36.00345" y="134.805102"/><use xlink:href="#n" x="-30.800849" y="134.805102"/><use xlink:href="#m" x="-27.547729" y="134.805102"/><use xlink:href="#o" x="-22.345128" y="134.805102"/><use xlink:href="#m" x="-12.585768" y="134.805102"/><use xlink:href="#p" x="-7.383168" y="134.805102"/><use xlink:href="#q" x="-1.199847" y="134.805102"/><use xlink:href="#r" x="3.356913" y="134.805102"/></g><g transform="rotate(-90 115.491 12.231)scale(1.0004)"><use xlink:href="#m" x="-46.89282" y="134.805102"/><use xlink:href="#n" x="-41.690222" y="134.805102"/><use xlink:href="#s" x="-38.4371" y="134.805102"/><use xlink:href="#t" x="-32.576701" y="134.805102"/><use xlink:href="#r" x="-26.070459" y="134.805102"/><use xlink:href="#m" x="-21.453898" y="134.805102"/><use xlink:href="#u" x="-16.251298" y="134.805102"/><use xlink:href="#q" x="-5.858057" y="134.805102"/><use xlink:href="#v" x="-1.301297" y="134.805102"/><use xlink:href="#o" x="1.951823" y="134.805102"/><use xlink:href="#m" x="11.711184" y="134.805102"/><use xlink:href="#w" x="20.82436" y="134.805102"/><use xlink:href="#x" x="28.951622" y="134.805102"/><use xlink:href="#y" x="32.192784" y="134.805102"/><use xlink:href="#z" x="38.687067" y="134.805102"/><use xlink:href="#A" x="43.303628" y="134.805102"/></g><g transform="translate(339.455 -94.825)scale(1.0004)"><use xlink:href="#B" x="-46.89282" y="120.353302"/><use xlink:href="#C" x="-38.4371" y="120.353302"/><use xlink:href="#s" x="-31.930859" y="120.353302"/><use xlink:href="#v" x="-26.070457" y="120.353302"/><use xlink:href="#p" x="-22.817337" y="120.353302"/><use xlink:href="#v" x="-16.311096" y="120.353302"/><use xlink:href="#p" x="-13.057976" y="120.353302"/><use xlink:href="#D" x="-6.551735" y="120.353302"/><use xlink:href="#E" x="3.195665" y="120.353302"/><use xlink:href="#s" x="11.974306" y="120.353302"/><use xlink:href="#r" x="17.834707" y="120.353302"/><use xlink:href="#C" x="22.451268" y="120.353302"/><use xlink:href="#F" x="32.856467" y="120.353302"/><use xlink:href="#s" x="40.343429" y="120.353302"/><use xlink:href="#G" x="46.203828" y="120.353302"/><use xlink:href="#n" x="52.710065" y="120.353302"/><use xlink:href="#m" x="55.963189" y="120.353302"/><use xlink:href="#l" x="-13.707501" y="134.805102"/><use xlink:href="#as" x="-2.818131" y="134.805102"/><use xlink:href="#M" x="3.34127" y="134.805102"/><use xlink:href="#N" x="9.500671" y="134.805102"/><use xlink:href="#O" x="15.660071" y="134.805102"/><use xlink:href="#P" x="21.819472" y="134.805102"/></g><path fill="#fff" d="M274.598 73.221h105.758V55.887H274.598Z"/><path fill="none" stroke="#000" stroke-miterlimit="10" stroke-width=".3985" d="M274.598 73.221h105.758V55.887H274.598Z"/><path d="M279.829 64.554a1.12 1.12 0 1 0-2.242 0 1.12 1.12 0 0 0 2.242 0"/><path fill="none" stroke="#000" stroke-miterlimit="10" stroke-width=".3985" d="M279.829 64.554a1.12 1.12 0 1 0-2.242 0 1.12 1.12 0 0 0 2.242 0Z"/><g transform="translate(304.661 -67.368)scale(1.00008)"><use xlink:href="#Q" x="-22.841884" y="134.762117"/><use xlink:href="#R" x="-14.812125" y="134.762117"/><use xlink:href="#S" x="-9.968084" y="134.762117"/><use xlink:href="#T" x="-5.669545" y="134.762117"/><use xlink:href="#U" x="-2.636564" y="134.762117"/><use xlink:href="#T" x="2.207476" y="134.762117"/><use xlink:href="#V" x="5.240456" y="134.762117"/><use xlink:href="#W" x="11.306416" y="134.762117"/></g><path fill="none" stroke="#000" stroke-miterlimit="10" stroke-width=".3985" d="M325.904 64.554a1.245 1.245 0 1 0-2.49 0 1.245 1.245 0 0 0 2.49 0Z"/><g transform="translate(300.723 -67.308)scale(1.00008)"><use xlink:href="#X" x="27.176242" y="134.762117"/><use xlink:href="#T" x="34.30047" y="134.762117"/><use xlink:href="#Y" x="37.33345" y="134.762117"/><use xlink:href="#R" x="43.093934" y="134.762117"/><use xlink:href="#Z" x="47.937974" y="134.762117"/><use xlink:href="#aa" x="54.003934" y="134.762117"/><use xlink:href="#S" x="57.636962" y="134.762117"/><use xlink:href="#T" x="61.935499" y="134.762117"/><use xlink:href="#U" x="64.968479" y="134.762117"/><use xlink:href="#R" x="69.812519" y="134.762117"/></g></svg>