<svg xmlns="http://www.w3.org/2000/svg" xmlns:xlink="http://www.w3.org/1999/xlink" width="416.34pt" height="150.78pt" viewBox="0 0 416.34 150.78"><defs><path id="b" d="M2.503-5.077c0-.215-.016-.223-.232-.223-.326.319-.749.51-1.506.51v.263c.215 0 .646 0 1.108-.215v4.088c0 .295-.024.391-.781.391h-.28V0c.328-.024 1.013-.024 1.372-.024s1.052 0 1.379.024v-.263h-.28c-.757 0-.78-.096-.78-.39z"/><path id="c" d="M2.248-1.626c.127-.12.462-.382.59-.494.493-.454.964-.893.964-1.618 0-.948-.797-1.562-1.794-1.562-.956 0-1.586.725-1.586 1.435 0 .39.311.446.423.446a.41.41 0 0 0 .414-.423c0-.414-.398-.414-.494-.414a1.23 1.23 0 0 1 1.156-.781c.741 0 1.124.63 1.124 1.3 0 .828-.582 1.434-1.523 2.398L.518-.303C.422-.215.422-.199.422 0h3.149l.23-1.427h-.246c-.024.16-.088.558-.184.71-.048.063-.653.063-.78.063H1.17z"/><path id="d" d="M2.016-2.662c.63 0 1.029.462 1.029 1.3 0 .995-.566 1.29-.989 1.29-.438 0-1.036-.16-1.315-.582.287 0 .486-.183.486-.446a.423.423 0 0 0-.438-.438c-.215 0-.438.135-.438.454 0 .757.813 1.251 1.721 1.251 1.06 0 1.801-.733 1.801-1.53 0-.661-.526-1.267-1.339-1.442.63-.224 1.1-.766 1.1-1.403S2.917-5.3 2.088-5.3C1.235-5.3.59-4.838.59-4.232c0 .295.199.422.406.422a.39.39 0 0 0 .407-.406c0-.295-.255-.407-.43-.415.334-.438.948-.462 1.091-.462.207 0 .813.064.813.885 0 .558-.231.892-.343 1.02-.239.247-.422.263-.908.295-.152.008-.215.016-.215.12 0 .111.071.111.207.111z"/><path id="a" d="M5.04-3.698c.055-.24.164-.644.164-.71 0-.196-.153-.294-.316-.294a.45.45 0 0 0-.404.305c-.033.077-.545 2.16-.622 2.444a3 3 0 0 0-.098.72c0 .12 0 .142.01.197-.25.578-.577.916-1.003.916-.873 0-.873-.807-.873-.993 0-.349.055-.774.568-2.116.12-.328.185-.48.185-.699 0-.49-.36-.894-.894-.894-1.037 0-1.44 1.582-1.44 1.68 0 .109.108.109.13.109.11 0 .12-.022.175-.196.294-1.015.72-1.353 1.102-1.353.098 0 .273.01.273.36 0 .273-.12.578-.197.764-.48 1.287-.61 1.789-.61 2.203C1.19-.262 1.92.12 2.737.12c.186 0 .699 0 1.135-.764C4.157.055 4.91.12 5.237.12c.818 0 1.298-.687 1.582-1.342.37-.85.72-2.313.72-2.837 0-.6-.295-.763-.48-.763-.273 0-.546.283-.546.523 0 .142.066.208.164.295.12.12.393.404.393.927 0 .371-.317 1.44-.6 1.997-.284.578-.666.96-1.2.96-.513 0-.808-.327-.808-.95 0-.305.077-.643.12-.796z"/></defs><g fill="none" stroke="#000" stroke-miterlimit="10" stroke-width=".3985"><path d="M30.49 103.81h14.174M37.577 103.81V52.786M21.595 55.473v-8.504l15.982 5.817M53.56 67.107v-8.504l-15.983-5.817M13.8 73.898V55.473h15.59v18.425Z"/></g><use xlink:href="#a" x="-34.42584" y="31.814624" transform="translate(49.746 34.404)scale(1.00008)"/><use xlink:href="#b" x="-26.612666" y="33.44758" transform="matrix(.99999 0 0 .99999 49.746 34.404)"/><path fill="none" stroke="#000" stroke-miterlimit="10" stroke-width=".3985" d="M45.764 85.532V67.107h15.59v18.425Z"/><use xlink:href="#a" x="-34.42584" y="31.814624" transform="translate(81.711 46.038)scale(1.00008)"/><use xlink:href="#c" x="-26.612666" y="33.44758" transform="matrix(.99999 0 0 .99999 81.711 46.038)"/><path fill="none" stroke="#000" stroke-miterlimit="10" stroke-width=".3985" d="M69.467 103.81V85.385h15.59v18.425Z"/><use xlink:href="#a" x="-34.42584" y="31.814624" transform="translate(105.414 64.316)scale(1.00008)"/><use xlink:href="#d" x="-26.612666" y="33.44758" transform="matrix(.99999 0 0 .99999 105.414 64.316)"/><path fill="none" stroke="#000" stroke-miterlimit="10" stroke-width=".3985" d="m95.602 67.892 11.87-4.32"/><path d="m110.386 62.511-4.774-.052 1.953 1.079-.802 2.081Z"/><path fill="none" stroke="#000" stroke-miterlimit="10" stroke-width=".398494" d="m110.386 62.511-4.774-.052 1.953 1.079-.802 2.081Z"/><path fill="none" stroke="#000" stroke-miterlimit="10" stroke-width=".3985" d="m95.602 86.578 11.87 4.32"/><path d="m110.386 91.959-3.623-3.109.802 2.082-1.953 1.08Z"/><g fill="none" stroke="#000" stroke-miterlimit="10"><path stroke-width=".398494" d="m110.386 91.959-3.623-3.109.802 2.082-1.953 1.08Z"/><g stroke-width=".3985"><path d="M143.878 68.377h14.173M150.964 68.377V17.351M134.982 20.04v-8.505l15.982 5.817M166.947 31.673V23.17l-15.983-5.817M127.186 38.464V20.04h15.591v18.425Z"/></g></g><use xlink:href="#a" x="-34.42584" y="31.814624" transform="translate(163.134 -1.03)scale(1.00008)"/><use xlink:href="#c" x="-26.612666" y="33.44758" transform="matrix(.99999 0 0 .99999 163.134 -1.03)"/><path fill="none" stroke="#000" stroke-miterlimit="10" stroke-width=".3985" d="M159.151 50.099V31.673h15.591V50.1Z"/><use xlink:href="#a" x="-34.42584" y="31.814624" transform="translate(195.098 10.604)scale(1.00008)"/><use xlink:href="#d" x="-26.612666" y="33.44758" transform="matrix(.99999 0 0 .99999 195.098 10.604)"/><path fill="none" stroke="#000" stroke-miterlimit="10" stroke-width=".3985" d="M182.854 68.377V49.95h15.591v18.425Z"/><use xlink:href="#a" x="-34.42584" y="31.814624" transform="translate(218.802 28.882)scale(1.00008)"/><use xlink:href="#b" x="-26.612666" y="33.44758" transform="matrix(.99999 0 0 .99999 218.802 28.882)"/><path fill="none" stroke="#000" stroke-miterlimit="10" stroke-width=".3985" d="M209.075 41.801h12.63"/><path d="m224.807 41.801-4.468-1.682 1.466 1.682-1.466 1.682Z"/><path fill="none" stroke="#000" stroke-miterlimit="10" stroke-width=".3985" d="m224.807 41.801-4.468-1.682 1.466 1.682-1.466 1.682ZM239.548 68.377V49.95h15.59v18.425Z"/><use xlink:href="#a" x="-34.42584" y="31.814624" transform="translate(275.495 28.882)scale(1.00008)"/><use xlink:href="#b" x="-26.612666" y="33.44758" transform="matrix(.99999 0 0 .99999 275.495 28.882)"/><path fill="none" stroke="#000" stroke-miterlimit="10" stroke-width=".3985" d="M256.556 68.377V49.95h15.591v18.425Z"/><use xlink:href="#a" x="-34.42584" y="31.814624" transform="translate(292.503 28.882)scale(1.00008)"/><use xlink:href="#c" x="-26.612666" y="33.44758" transform="matrix(.99999 0 0 .99999 292.503 28.882)"/><path fill="none" stroke="#000" stroke-miterlimit="10" stroke-width=".3985" d="M273.564 68.377V49.95h15.591v18.425Z"/><use xlink:href="#a" x="-34.42584" y="31.814624" transform="translate(309.511 28.882)scale(1.00008)"/><use xlink:href="#d" x="-26.612666" y="33.44758" transform="matrix(.99999 0 0 .99999 309.511 28.882)"/><g fill="none" stroke="#000" stroke-miterlimit="10" stroke-width=".3985"><path d="M143.878 139.244h14.173M150.964 139.244V88.219M134.982 102.54v-8.504l15.982-5.817M166.947 90.906v-8.504l-15.983 5.817M127.186 120.966V102.54h15.591v18.426Z"/></g><use xlink:href="#a" x="-34.42584" y="31.814624" transform="translate(163.134 81.471)scale(1.00008)"/><use xlink:href="#c" x="-26.612666" y="33.44758" transform="matrix(.99999 0 0 .99999 163.134 81.471)"/><path fill="none" stroke="#000" stroke-miterlimit="10" stroke-width=".3985" d="M159.151 109.332V90.906h15.591v18.426Z"/><use xlink:href="#a" x="-34.42584" y="31.814624" transform="translate(195.098 69.837)scale(1.00008)"/><use xlink:href="#d" x="-26.612666" y="33.44758" transform="matrix(.99999 0 0 .99999 195.098 69.837)"/><path fill="none" stroke="#000" stroke-miterlimit="10" stroke-width=".3985" d="M182.854 139.244v-18.426h15.591v18.426Z"/><use xlink:href="#a" x="-34.42584" y="31.814624" transform="translate(218.802 99.749)scale(1.00008)"/><use xlink:href="#b" x="-26.612666" y="33.44758" transform="matrix(.99999 0 0 .99999 218.802 99.749)"/><path fill="none" stroke="#000" stroke-miterlimit="10" stroke-width=".3985" d="M209.075 112.668h12.63"/><path d="m224.807 112.668-4.468-1.682 1.466 1.682-1.466 1.682Z"/><g fill="none" stroke="#000" stroke-miterlimit="10" stroke-width=".3985"><path d="m224.807 112.668-4.468-1.682 1.466 1.682-1.466 1.682ZM257.265 139.244h14.173M264.352 139.244V88.219M248.37 90.906v-8.504l15.982 5.817M280.334 102.54v-8.504l-15.982-5.817M240.574 109.332V90.906h15.59v18.426Z"/></g><use xlink:href="#a" x="-34.42584" y="31.814624" transform="translate(276.521 69.837)scale(1.00008)"/><use xlink:href="#b" x="-26.612666" y="33.44758" transform="matrix(.99999 0 0 .99999 276.521 69.837)"/><path fill="none" stroke="#000" stroke-miterlimit="10" stroke-width=".3985" d="M272.539 120.966V102.54h15.59v18.426Z"/><use xlink:href="#a" x="-34.42584" y="31.814624" transform="translate(308.486 81.471)scale(1.00008)"/><use xlink:href="#d" x="-26.612666" y="33.44758" transform="matrix(.99999 0 0 .99999 308.486 81.471)"/><path fill="none" stroke="#000" stroke-miterlimit="10" stroke-width=".3985" d="M296.242 139.244v-18.426h15.59v18.426Z"/><use xlink:href="#a" x="-34.42584" y="31.814624" transform="translate(332.189 99.749)scale(1.00008)"/><use xlink:href="#c" x="-26.612666" y="33.44758" transform="matrix(.99999 0 0 .99999 332.189 99.749)"/><path fill="none" stroke="#000" stroke-miterlimit="10" stroke-width=".3985" d="M322.463 112.668h12.63"/><path d="m338.195 112.668-4.468-1.682 1.465 1.682-1.465 1.682Z"/><path fill="none" stroke="#000" stroke-miterlimit="10" stroke-width=".3985" d="m338.195 112.668-4.468-1.682 1.465 1.682-1.465 1.682ZM352.935 139.244v-18.426h15.591v18.426Z"/><use xlink:href="#a" x="-34.42584" y="31.814624" transform="translate(388.882 99.749)scale(1.00008)"/><use xlink:href="#b" x="-26.612666" y="33.44758" transform="matrix(.99999 0 0 .99999 388.882 99.749)"/><path fill="none" stroke="#000" stroke-miterlimit="10" stroke-width=".3985" d="M369.944 139.244v-18.426h15.59v18.426Z"/><use xlink:href="#a" x="-34.42584" y="31.814624" transform="translate(405.891 99.749)scale(1.00008)"/><use xlink:href="#d" x="-26.612666" y="33.44758" transform="matrix(.99999 0 0 .99999 405.891 99.749)"/><path fill="none" stroke="#000" stroke-miterlimit="10" stroke-width=".3985" d="M386.952 139.244v-18.426h15.59v18.426Z"/><use xlink:href="#a" x="-34.42584" y="31.814624" transform="translate(422.899 99.749)scale(1.00008)"/><use xlink:href="#c" x="-26.612666" y="33.44758" transform="matrix(.99999 0 0 .99999 422.899 99.749)"/></svg>