<svg xmlns="http://www.w3.org/2000/svg" xmlns:xlink="http://www.w3.org/1999/xlink" width="370.8pt" height="135.64pt" viewBox="0 0 370.8 135.64"><defs><path id="C" d="M5.259-1.822c0-.753-.524-1.462-1.408-1.67.698-.24 1.179-.807 1.179-1.483 0-.796-.666-1.691-1.877-1.691H.687c-.152 0-.436 0-.436.327C.25-6 .524-6 .698-6h.295v5.334H.698c-.174 0-.447 0-.447.339C.25 0 .535 0 .687 0h2.684A1.83 1.83 0 0 0 5.26-1.822m-.982-3.142c0 .447-.35 1.167-1.408 1.167H1.746V-6h1.363c.928 0 1.168.676 1.168 1.036m.229 3.12c0 .535-.426 1.178-1.375 1.178H1.746V-3.13H3.25c.928 0 1.255.796 1.255 1.287"/><path id="A" d="M5.28-1.833c0-.36-.261-.36-.381-.36-.099 0-.35 0-.371.316C4.45-.807 3.568-.545 3.12-.545c-.993 0-1.93-1.157-1.93-2.793 0-1.626.948-2.783 1.92-2.783.654 0 1.254.502 1.407 1.386.032.186.054.36.382.36.381 0 .381-.229.381-.447V-6.34c0-.174 0-.447-.327-.447-.196 0-.25.11-.305.185-.022.044-.022.066-.164.339a2.2 2.2 0 0 0-1.418-.524c-1.408 0-2.63 1.462-2.63 3.448C.436-1.342 1.658.12 3.076.12 4.343.12 5.28-.851 5.28-1.833"/><path id="B" d="M5.477-.447v-.971c0-.208 0-.448-.371-.448-.382 0-.382.23-.382.448v.752H1.811V-3.12h1.43c0 .447 0 .622.381.622.371 0 .371-.24.371-.448V-3.96c0-.208 0-.448-.37-.448-.383 0-.383.175-.383.622H1.811V-6h2.673v.578c0 .207 0 .447.37.447.383 0 .383-.23.383-.447v-.797c0-.338-.066-.447-.437-.447H.731c-.164 0-.447 0-.447.327C.284-6 .567-6 .73-6h.327v5.334H.731c-.175 0-.447 0-.447.339C.284 0 .567 0 .73 0h4.31c.36 0 .436-.098.436-.447"/><path id="D" d="M4.822-.327c0-.339-.262-.339-.436-.339h-.993v-5.673c0-.174 0-.447-.327-.447-.208 0-.273.13-.328.262-.414.927-.981 1.047-1.189 1.069-.174.01-.403.033-.403.338 0 .273.196.328.36.328.207 0 .654-.066 1.134-.48v4.603h-.993c-.174 0-.436 0-.436.339 0 .327.273.327.436.327h2.739c.163 0 .436 0 .436-.327"/><path id="F" d="M5.237-1.898c0-.775-.513-1.419-1.233-1.746.61-.393.916-1.015.916-1.604 0-.807-.796-1.538-2.05-1.538-1.31 0-2.074.524-2.074 1.276a.486.486 0 1 0 .971.022.45.45 0 0 0-.098-.294c.338-.339 1.113-.339 1.211-.339.742 0 1.288.393 1.288.884 0 .327-.164.71-.459.95-.349.283-.621.305-1.014.327-.622.043-.786.043-.786.36 0 .338.262.338.437.338h.502c1.08 0 1.636.73 1.636 1.364 0 .665-.61 1.353-1.604 1.353-.436 0-1.276-.12-1.56-.633.055-.055.131-.12.131-.338a.477.477 0 0 0-.48-.48c-.25 0-.491.163-.491.512C.48-.513 1.538.12 2.88.12c1.43 0 2.357-1.004 2.357-2.018"/><path id="E" d="M5.15-.447v-.284c0-.207 0-.447-.371-.447-.382 0-.382.207-.382.512H1.8c.644-.556 1.691-1.374 2.16-1.81.688-.612 1.19-1.31 1.19-2.183 0-1.309-1.102-2.127-2.433-2.127-1.288 0-2.15.895-2.15 1.822a.486.486 0 1 0 .971.033.45.45 0 0 0-.152-.35c.163-.501.676-.84 1.276-.84.895 0 1.735.502 1.735 1.462 0 .764-.535 1.397-1.255 1.997L.731-.632c-.098.087-.164.141-.164.294C.567 0 .84 0 1.015 0h3.698c.36 0 .437-.098.437-.447"/><path id="v" d="M7.102-1.997c0-.949-.894-1.767-2.105-1.898 1.058-.207 1.81-.905 1.81-1.713 0-.949-1.003-1.844-2.421-1.844H.393v.339h.262c.84 0 .861.12.861.512v5.75c0 .393-.021.513-.861.513H.393V0h4.276c1.452 0 2.433-.971 2.433-1.997M5.75-5.607c0 .697-.535 1.614-1.746 1.614H2.422v-2.684c0-.36.022-.436.535-.436h1.352c1.059 0 1.44.927 1.44 1.505m.261 3.6c0 .774-.567 1.669-1.69 1.669H2.956c-.513 0-.535-.077-.535-.437v-2.978h2.051c1.08 0 1.538 1.015 1.538 1.746"/><path id="w" d="M4.571 0v-.338h-.349c-.982 0-1.014-.12-1.014-.524v-6.12c0-.262 0-.284-.251-.284-.677.698-1.637.698-1.986.698v.338c.218 0 .862 0 1.43-.283v5.651c0 .393-.034.524-1.015.524h-.35V0c.382-.033 1.331-.033 1.768-.033s1.385 0 1.767.033"/><path id="l" d="M2.095-.578c0-.317-.262-.578-.579-.578s-.578.261-.578.578S1.2 0 1.516 0s.579-.262.579-.578"/><path id="s" d="M7.866-2.727c0-.219-.207-.219-.36-.219H4.462V-6c0-.153 0-.36-.218-.36s-.218.207-.218.36v3.054H.97c-.153 0-.36 0-.36.219s.207.218.36.218h3.055V.546c0 .152 0 .36.218.36s.218-.208.218-.36V-2.51h3.044c.153 0 .36 0 .36-.219"/><path id="u" d="M4.986-1.866c0-.894-.687-1.745-1.822-1.974C4.059-4.135 4.69-4.9 4.69-5.76c0-.895-.96-1.506-2.007-1.506-1.102 0-1.931.655-1.931 1.484 0 .36.24.567.556.567.338 0 .557-.24.557-.556 0-.546-.513-.546-.677-.546.338-.534 1.058-.676 1.451-.676.448 0 1.048.24 1.048 1.222 0 .13-.022.763-.306 1.243-.327.524-.698.557-.97.568-.088.01-.35.032-.426.032-.088.011-.164.022-.164.131 0 .12.076.12.262.12h.48c.894 0 1.298.742 1.298 1.811 0 1.484-.753 1.8-1.233 1.8C2.16-.065 1.342-.25.96-.894c.382.055.72-.185.72-.6 0-.392-.294-.61-.61-.61-.263 0-.612.152-.612.632C.458-.48 1.473.24 2.662.24c1.331 0 2.324-.993 2.324-2.106"/><path id="x" d="M4.899-1.898h-.273c-.055.327-.131.807-.24.97-.077.088-.797.088-1.037.088H1.386l1.156-1.124C4.244-3.469 4.899-4.059 4.899-5.15c0-1.243-.982-2.116-2.313-2.116a2.016 2.016 0 0 0-2.04 1.975c0 .61.545.61.578.61.185 0 .567-.13.567-.578a.55.55 0 0 0-.578-.567c-.087 0-.11 0-.142.011.25-.71.84-1.113 1.473-1.113.993 0 1.462.884 1.462 1.778 0 .873-.546 1.735-1.146 2.412L.666-.404c-.12.12-.12.142-.12.404h4.047z"/><path id="r" d="M7.812-7.113v-.339l-1.288.033-1.298-.033v.339c1.124 0 1.124.512 1.124.807v3.786C6.35-.971 5.29-.098 4.255-.098c-.513 0-1.8-.273-1.8-2.346V-6.6c0-.392.022-.512.862-.512h.261v-.339c-.381.033-1.189.033-1.603.033s-1.233 0-1.615-.033v.339h.262c.84 0 .862.12.862.512v4.114C1.484-.95 2.749.24 4.234.24 5.487.24 6.47-.775 6.654-2.018c.033-.219.033-.317.033-.753v-3.491c0-.36 0-.851 1.124-.851"/><path id="t" d="M5.019-3.491c0-.873-.055-1.746-.437-2.553-.502-1.048-1.396-1.222-1.854-1.222-.655 0-1.452.284-1.899 1.298C.48-5.215.425-4.364.425-3.49c0 .818.044 1.8.491 2.63A2 2 0 0 0 2.716.24c.59 0 1.419-.23 1.899-1.266.35-.752.404-1.603.404-2.465m-.906-.131c0 .818 0 1.56-.12 2.258C3.83-.327 3.208 0 2.717 0 2.29 0 1.647-.273 1.45-1.32c-.12-.655-.12-1.658-.12-2.302 0-.698 0-1.418.087-2.008.208-1.298 1.026-1.396 1.299-1.396.36 0 1.08.196 1.287 1.276.11.611.11 1.44.11 2.128"/><path id="i" d="M5.204-2.575c0-1.713-1.015-2.247-1.822-2.247-1.495 0-2.935 1.56-2.935 3.098C.447-.709 1.102.12 2.215.12c.687 0 1.473-.25 2.302-.916.142.578.502.916.993.916.578 0 .916-.6.916-.775 0-.076-.065-.109-.13-.109-.077 0-.11.033-.143.11-.196.534-.589.534-.61.534-.339 0-.339-.851-.339-1.113 0-.229 0-.25.11-.382 1.025-1.287 1.254-2.553 1.254-2.564 0-.021-.011-.109-.131-.109-.11 0-.11.033-.164.23-.196.687-.556 1.516-1.069 2.16zm-.73 1.495c-.961.84-1.801.96-2.237.96-.655 0-.982-.491-.982-1.19 0-.534.283-1.712.632-2.268.513-.797 1.102-1.004 1.484-1.004 1.08 0 1.08 1.429 1.08 2.28 0 .404 0 1.036.022 1.222"/><path id="j" d="M6.273-6.208c0-.818-.6-1.494-1.484-1.494-.632 0-.938.174-1.32.458-.6.436-1.2 1.494-1.407 2.324L.327 2.007c-.01.044.044.11.131.11s.12-.022.131-.055l.764-3.011C1.56-.295 2.04.109 2.837.109S4.45-.273 4.942-.753c.524-.502.873-1.2.873-2.007 0-.786-.404-1.353-.796-1.626.632-.36 1.254-1.036 1.254-1.822M4.31-4.397c-.141.055-.261.077-.523.077-.153 0-.371.01-.48-.044.022-.11.414-.087.534-.087.23 0 .328 0 .47.054m1.353-2.062c0 .764-.414 1.55-.982 1.888-.294-.11-.512-.131-.84-.131-.229 0-.84-.011-.84.349-.01.305.557.273.753.273.404 0 .567-.011.895-.142.414.393.469.73.48 1.233.022.632-.24 1.45-.546 1.876-.425.59-1.156.982-1.778.982-.83 0-1.244-.633-1.244-1.407 0-.11 0-.273.055-.48l.698-2.76c.24-.939 1.025-2.674 2.335-2.674.632 0 1.014.339 1.014.993"/><path id="k" d="M.447-2.771c.426-1.255 1.615-1.266 1.735-1.266 1.647 0 1.767 1.91 1.767 2.771 0 .666-.054.851-.13 1.07-.24.796-.568 2.062-.568 2.345 0 .12.055.197.142.197.142 0 .23-.24.35-.655.25-.916.36-1.538.403-1.876.022-.142.043-.284.087-.426.35-1.08 1.047-2.706 1.484-3.568.076-.13.207-.37.207-.414 0-.11-.109-.11-.13-.11-.034 0-.099 0-.132.077-.567 1.037-1.003 2.128-1.44 3.23-.01-.339-.022-1.168-.447-2.226-.262-.666-.698-1.2-1.451-1.2C.96-4.822.196-3.164.196-2.826c0 .11.099.11.208.11z"/><path id="c" d="M5.669-1.064v-.67h-.263v.67c0 .681-.287.777-.455.777-.454 0-.454-.634-.454-.813v-2.093c0-.646 0-1.125-.526-1.591-.419-.383-.957-.55-1.483-.55-.981 0-1.735.646-1.735 1.423 0 .347.228.514.503.514.287 0 .49-.203.49-.49 0-.49-.43-.49-.61-.49.275-.503.85-.718 1.328-.718.55 0 1.256.455 1.256 1.53v.48C1.316-3.05.407-2.046.407-1.126c0 .946 1.1 1.245 1.83 1.245A1.63 1.63 0 0 0 3.79-.933c.048.562.419.993.933.993.251 0 .945-.168.945-1.124m-1.95-.622C3.72-.514 2.847-.12 2.333-.12c-.586 0-1.076-.43-1.076-1.004 0-1.579 2.033-1.722 2.464-1.746z"/><path id="a" d="M7.798-2.775c0-.131 0-.203-.132-.203-.12 0-.131.06-.131.143C7.427-.933 6.04-.095 4.88-.095c-.838 0-3.122-.503-3.122-3.995 0-3.457 2.249-3.983 3.11-3.983 1.256 0 2.356 1.064 2.595 2.858.024.144.024.18.167.18.168 0 .168-.036.168-.275v-2.835c0-.215 0-.275-.12-.275-.071 0-.083.024-.155.144l-.586.945c-.538-.67-1.352-1.089-2.213-1.089C2.536-8.42.646-6.53.646-4.09.646-1.615 2.559.25 4.724.25c1.962 0 3.074-1.71 3.074-3.026"/><path id="e" d="M4.856-1.423c0-.108-.084-.108-.12-.108-.107 0-.12.036-.155.18-.263.849-.91 1.207-1.555 1.207-.73 0-1.698-.633-1.698-2.451 0-1.986 1.016-2.476 1.614-2.476.455 0 1.112.18 1.388.646-.144 0-.587 0-.587.49 0 .287.204.49.49.49.276 0 .503-.167.503-.514 0-.801-.837-1.375-1.806-1.375C1.53-5.334.42-4.09.42-2.584.419-1.051 1.567.12 2.919.12c1.578 0 1.937-1.436 1.937-1.543"/><path id="n" d="M6.16 0v-.347c-.814 0-.91-.084-.91-.67V-8.3l-1.662.131v.347c.813 0 .909.084.909.67v2.643a1.86 1.86 0 0 0-1.495-.765C1.615-5.274.419-4.102.419-2.571c0 1.519 1.136 2.69 2.451 2.69.91 0 1.436-.597 1.603-.825V.12zM4.472-1.4c0 .216 0 .252-.167.515-.287.419-.778.765-1.376.765-.31 0-1.602-.12-1.602-2.44 0-.86.143-1.339.406-1.734.24-.37.718-.741 1.316-.741.741 0 1.16.538 1.28.73.143.203.143.227.143.442z"/><path id="g" d="M4.868-1.423c0-.072-.06-.12-.132-.12-.096 0-.12.06-.143.12C4.282-.42 3.48-.143 2.978-.143s-1.71-.335-1.71-2.404v-.228H4.58c.263 0 .287 0 .287-.227 0-1.208-.646-2.332-2.093-2.332C1.41-5.334.359-4.102.359-2.62.359-1.041 1.579.12 2.906.12c1.424 0 1.962-1.292 1.962-1.543m-.742-1.579H1.28c.095-1.878 1.148-2.093 1.483-2.093 1.28 0 1.351 1.686 1.363 2.093"/><path id="K" d="M5.358-1.985c0-1.22-.861-1.758-1.794-2.333.598-.322 1.471-.873 1.471-1.877 0-1.04-1.004-1.758-2.105-1.758-1.184 0-2.117.873-2.117 1.961 0 .407.12.813.455 1.22.131.155.143.167.98.753C1.088-3.48.49-2.679.49-1.806.49-.538 1.698.251 2.918.251c1.328 0 2.44-.98 2.44-2.236m-.813-4.198c0 .73-.526 1.315-1.22 1.698l-1.387-.909c-.156-.108-.634-.419-.634-1.005 0-.777.813-1.267 1.614-1.267.861 0 1.627.622 1.627 1.483m.263 4.58c0 .91-.921 1.531-1.878 1.531-1.016 0-1.89-.741-1.89-1.734 0-.933.682-1.686 1.46-2.045l1.447.945c.31.203.86.574.86 1.303"/><path id="I" d="m7.14-5.478-.31-2.667H.49v.347h.24c.86 0 .897.12.897.562v6.327c0 .443-.036.562-.897.562H.49V0C.777-.024 1.842-.024 2.2-.024c.42 0 1.472 0 1.819.024v-.347h-.36c-1.04 0-1.064-.143-1.064-.574v-2.978h1.053c1.124 0 1.244.395 1.244 1.4h.263v-3.146h-.263c0 1.005-.12 1.4-1.244 1.4H2.595V-7.32c0-.394.024-.478.55-.478H4.64c1.723 0 2.07.634 2.237 2.32z"/><path id="b" d="M6.231 0v-.347c-.598 0-.897 0-.909-.359v-2.2c0-1.113 0-1.447-.275-1.83-.347-.467-.909-.538-1.315-.538-1.029 0-1.507.777-1.675 1.148h-.012V-8.3L.383-8.17v.347c.813 0 .909.084.909.67v6.267c0 .538-.132.538-.91.538V0c.312-.024.958-.024 1.292-.024.347 0 .993 0 1.304.024v-.347c-.765 0-.909 0-.909-.538V-3.11c0-1.255.825-1.925 1.567-1.925s.909.61.909 1.34v2.81c0 .538-.132.538-.91.538V0c.312-.024.958-.024 1.293-.024.346 0 .992 0 1.303.024"/><path id="J" d="M3.241-2.26v-.646H.131v.646z"/><path id="p" d="M2.882 0v-.347c-.777 0-.825-.06-.825-.526v-4.401l-1.626.131v.347c.765 0 .873.072.873.658v3.253c0 .538-.132.538-.91.538V0c.336-.024.91-.024 1.256-.024.132 0 .826 0 1.232.024m-.67-7.224a.58.58 0 1 0-.586.574.576.576 0 0 0 .587-.574"/><path id="q" d="M6.231 0v-.347c-.598 0-.897 0-.909-.359v-2.2c0-1.113 0-1.447-.275-1.83-.347-.467-.909-.538-1.315-.538-1.16 0-1.615.992-1.71 1.232h-.013v-1.232l-1.626.131v.347c.813 0 .909.084.909.67v3.241c0 .538-.132.538-.91.538V0c.312-.024.958-.024 1.292-.024.347 0 .993 0 1.304.024v-.347c-.765 0-.909 0-.909-.538V-3.11c0-1.255.825-1.925 1.567-1.925s.909.61.909 1.34v2.81c0 .538-.132.538-.91.538V0c.312-.024.958-.024 1.293-.024.346 0 .992 0 1.303.024"/><path id="m" d="M5.49-2.56c0-1.542-1.172-2.774-2.56-2.774C1.495-5.334.36-4.066.36-2.56.359-1.03 1.555.12 2.919.12c1.41 0 2.57-1.172 2.57-2.68m-.91-.107c0 .419 0 1.16-.31 1.722a1.56 1.56 0 0 1-1.34.801c-.442 0-.98-.19-1.327-.777-.323-.538-.335-1.244-.335-1.746 0-.455 0-1.184.37-1.722a1.53 1.53 0 0 1 1.28-.706c.467 0 .969.215 1.292.682.37.55.37 1.303.37 1.746"/><path id="o" d="M6.076-2.583c0-1.52-1.125-2.691-2.428-2.691-1.053 0-1.615.753-1.65.801v-.801l-1.663.131v.347c.837 0 .909.084.909.61v5.621c0 .538-.132.538-.91.538v.347c.312-.024.958-.024 1.293-.024.346 0 .992 0 1.303.024v-.347c-.765 0-.909 0-.909-.538v-2.08c.216.298.706.765 1.471.765 1.376 0 2.584-1.16 2.584-2.703m-.91 0c0 1.423-.813 2.463-1.733 2.463a1.4 1.4 0 0 1-.957-.382c-.275-.275-.455-.515-.455-.85v-2.463c0-.227 0-.24.132-.43a1.72 1.72 0 0 1 1.4-.766c.896 0 1.614 1.088 1.614 2.428"/><path id="z" d="M6.16 2.32v-.347c-.766 0-.91 0-.91-.538v-6.71h-.239L4.57-4.161c-.216-.455-.682-1.112-1.591-1.112-1.316 0-2.56 1.124-2.56 2.703 0 1.519 1.149 2.69 2.452 2.69.646 0 1.172-.298 1.603-.896v2.212c0 .538-.132.538-.909.538v.347c.311-.024.957-.024 1.292-.024.347 0 .992 0 1.303.024M4.496-1.603c0 .383-.215.73-.49 1.005-.431.443-.885.478-1.065.478-.909 0-1.614-1.124-1.614-2.451 0-1.436.837-2.44 1.722-2.44.945 0 1.447 1.028 1.447 1.65z"/><path id="d" d="M4.222-4.58c0-.36-.323-.694-.837-.694-1.017 0-1.364 1.1-1.436 1.327h-.011v-1.327l-1.603.131v.347c.813 0 .909.084.909.67v3.241c0 .538-.132.538-.91.538V0c.336-.024.994-.024 1.352-.024.323 0 1.172 0 1.448.024v-.347h-.24c-.873 0-.897-.131-.897-.562v-1.878c0-1.16.479-2.248 1.4-2.248.095 0 .12 0 .167.012-.096.048-.287.12-.287.442a.46.46 0 0 0 .466.479c.24 0 .479-.156.479-.479"/><path id="h" d="M4.21-1.519c0-.646-.395-1.028-.502-1.136-.431-.37-.754-.443-1.543-.586-.359-.072-1.232-.24-1.232-.957 0-.37.251-.92 1.327-.92 1.304 0 1.376 1.111 1.4 1.482.012.096.095.096.131.096.132 0 .132-.06.132-.275V-5.06c0-.215 0-.275-.12-.275-.095 0-.323.263-.406.37-.371-.298-.742-.37-1.125-.37-1.447 0-1.877.79-1.877 1.447 0 .132 0 .55.454.969.383.335.79.418 1.34.526.657.132.813.167 1.112.407.215.179.37.442.37.777 0 .514-.298 1.088-1.35 1.088C1.53-.12.956-.574.693-1.77c-.048-.215-.06-.24-.06-.24-.024-.047-.072-.047-.108-.047-.131 0-.131.06-.131.275v1.627c0 .215 0 .275.12.275.06 0 .071-.012.274-.264.06-.083.06-.107.24-.299.454.563 1.1.563 1.303.563C3.588.12 4.21-.574 4.21-1.52"/><path id="H" d="M8.025-5.442 7.81-8.109H.634L.419-5.442h.263c.167-1.89.275-2.32 2.164-2.32.216 0 .55 0 .646.024.24.036.251.18.251.454V-.92c0 .407 0 .574-1.172.574h-.43V0c.383-.024 1.614-.024 2.08-.024s1.711 0 2.094.024v-.347h-.43c-1.173 0-1.173-.167-1.173-.574v-6.363c0-.299.024-.406.216-.454.095-.024.442-.024.67-.024 1.889 0 1.997.43 2.164 2.32z"/><path id="f" d="M3.899-1.483v-.682h-.263v.658c0 .861-.347 1.363-.813 1.363-.814 0-.814-1.112-.814-1.315v-3.349h1.687v-.347H2.009v-2.2h-.263c-.012 1.124-.442 2.272-1.53 2.308v.24h1.016v3.324C1.232-.155 2.117.12 2.75.12c.753 0 1.148-.742 1.148-1.603"/><path id="G" d="M8.276-7.822v-.347c-.31.024-.956.024-1.291.024-.347 0-.993 0-1.304-.024v.347c1.136 0 1.136.562 1.136.885v4.186c0 1.675-1.136 2.655-2.26 2.655-.718 0-1.962-.478-1.962-2.571V-7.26c0-.442.036-.562.897-.562h.24v-.347c-.288.024-1.268.024-1.615.024-.359 0-1.34 0-1.627-.024v.347h.24c.86 0 .897.12.897.562v4.521c0 1.734 1.387 2.99 2.906 2.99C6.195.251 7.14-1.375 7.14-2.57v-4.521c0-.73.921-.73 1.136-.73"/><path id="y" d="M6.231 0v-.347c-.813 0-.909-.084-.909-.67v-4.257l-1.686.131v.347c.813 0 .909.084.909.67v2.14C4.545-.968 4.007-.12 3.11-.12c-.981 0-1.04-.562-1.04-1.196v-3.958l-1.687.131v.347c.909 0 .909.036.909 1.1v1.794c0 .742 0 1.172.358 1.567.288.311.778.455 1.388.455.203 0 .586 0 .993-.347.346-.275.538-.73.538-.73V.12z"/></defs><g transform="translate(40.819 74.889)scale(1.0004)"><use xlink:href="#a" x="-21.999829" y="-49.473856"/><use xlink:href="#b" x="-13.544108" y="-49.473856"/><use xlink:href="#c" x="-7.037868" y="-49.473856"/><use xlink:href="#d" x="-1.177467" y="-49.473856"/><use xlink:href="#c" x="3.379293" y="-49.473856"/><use xlink:href="#e" x="9.239693" y="-49.473856"/><use xlink:href="#f" x="14.442293" y="-49.473856"/><use xlink:href="#g" x="18.999054" y="-49.473856"/><use xlink:href="#d" x="24.201653" y="-49.473856"/><use xlink:href="#h" x="28.758414" y="-49.473856"/></g><g transform="translate(40.819 94.208)scale(1.00008)"><use xlink:href="#i" x="2.17618" y="-49.45808"/><use xlink:href="#j" x="2.312191" y="-35.907962"/><use xlink:href="#k" x="2.558211" y="-22.357843"/><use xlink:href="#l" x="4.169344" y="-12.104998"/><use xlink:href="#l" x="4.169344" y="-8.11967"/><use xlink:href="#l" x="4.169344" y="-4.134341"/></g><g transform="translate(151.371 74.889)scale(1.0004)"><use xlink:href="#a" x="-22.292947" y="-49.473856"/><use xlink:href="#m" x="-13.837227" y="-49.473856"/><use xlink:href="#n" x="-7.665867" y="-49.473856"/><use xlink:href="#g" x="-1.159626" y="-49.473856"/><use xlink:href="#o" x="8.037615" y="-49.473856"/><use xlink:href="#m" x="14.866774" y="-49.473856"/><use xlink:href="#p" x="20.727176" y="-49.473856"/><use xlink:href="#q" x="23.980294" y="-49.473856"/><use xlink:href="#f" x="30.175577" y="-49.473856"/><use xlink:href="#h" x="34.732339" y="-49.473856"/></g><g transform="translate(151.371 96.193)scale(1.00008)"><use xlink:href="#r" x="-11.858978" y="-49.45808"/><use xlink:href="#s" x="-3.676477" y="-49.45808"/><use xlink:href="#t" x="4.811503" y="-49.45808"/><use xlink:href="#u" x="10.266503" y="-49.45808"/><use xlink:href="#v" x="15.721502" y="-49.45808"/><use xlink:href="#w" x="23.445782" y="-49.45808"/><use xlink:href="#r" x="-11.858978" y="-35.907962"/><use xlink:href="#s" x="-3.676477" y="-35.907962"/><use xlink:href="#t" x="4.811503" y="-35.907962"/><use xlink:href="#u" x="10.266503" y="-35.907962"/><use xlink:href="#v" x="15.721502" y="-35.907962"/><use xlink:href="#x" x="23.445782" y="-35.907962"/><use xlink:href="#r" x="-11.858978" y="-22.357843"/><use xlink:href="#s" x="-3.676477" y="-22.357843"/><use xlink:href="#t" x="4.811503" y="-22.357843"/><use xlink:href="#u" x="10.266503" y="-22.357843"/><use xlink:href="#v" x="15.721502" y="-22.357843"/><use xlink:href="#u" x="23.445782" y="-22.357843"/><use xlink:href="#l" x="7.004578" y="-13.321098"/><use xlink:href="#l" x="7.004578" y="-9.335769"/><use xlink:href="#l" x="7.004578" y="-5.350441"/></g><g transform="translate(253.42 74.889)scale(1.0004)"><use xlink:href="#a" x="-20.981421" y="-49.473856"/><use xlink:href="#m" x="-12.5257" y="-49.473856"/><use xlink:href="#n" x="-6.342379" y="-49.473856"/><use xlink:href="#g" x=".163861" y="-49.473856"/><use xlink:href="#y" x="9.349141" y="-49.473856"/><use xlink:href="#q" x="15.855381" y="-49.473856"/><use xlink:href="#p" x="22.361623" y="-49.473856"/><use xlink:href="#f" x="25.614742" y="-49.473856"/><use xlink:href="#h" x="34.154185" y="-49.473856"/><use xlink:href="#g" x="38.770746" y="-49.473856"/><use xlink:href="#z" x="43.973346" y="-49.473856"/><use xlink:href="#y" x="50.156667" y="-49.473856"/><use xlink:href="#g" x="56.662906" y="-49.473856"/><use xlink:href="#q" x="61.865506" y="-49.473856"/><use xlink:href="#e" x="68.37175" y="-49.473856"/><use xlink:href="#g" x="73.574348" y="-49.473856"/><use xlink:href="#h" x="78.776956" y="-49.473856"/></g><g transform="translate(239.246 96.253)scale(1.00008)"><use xlink:href="#A" x="31.926634" y="-49.45808"/><use xlink:href="#B" x="37.654383" y="-49.45808"/><use xlink:href="#C" x="47.364287" y="-49.45808"/><use xlink:href="#D" x="53.092036" y="-49.45808"/><use xlink:href="#A" x="31.926634" y="-35.907962"/><use xlink:href="#B" x="37.654383" y="-35.907962"/><use xlink:href="#C" x="47.364287" y="-35.907962"/><use xlink:href="#E" x="53.092036" y="-35.907962"/><use xlink:href="#A" x="31.926634" y="-22.357843"/><use xlink:href="#B" x="37.654383" y="-22.357843"/><use xlink:href="#C" x="47.364287" y="-22.357843"/><use xlink:href="#F" x="53.092036" y="-22.357843"/><use xlink:href="#l" x="43.857618" y="-14.106163"/><use xlink:href="#l" x="43.857618" y="-10.120834"/><use xlink:href="#l" x="43.857618" y="-6.135506"/></g><path fill="none" stroke="#000" stroke-miterlimit="10" stroke-width=".3985" d="M70.599 65.066h43.812"/><path d="m117.512 65.066-4.468-1.682 1.466 1.682-1.466 1.682Z"/><path fill="none" stroke="#000" stroke-miterlimit="10" stroke-width=".3985" d="m117.512 65.066-4.468-1.682 1.466 1.682-1.466 1.682ZM200.994 65.066h43.812"/><path d="m247.908 65.066-4.468-1.682 1.466 1.682-1.466 1.682Z"/><path fill="none" stroke="#000" stroke-miterlimit="10" stroke-width=".3985" d="m247.908 65.066-4.468-1.682 1.466 1.682-1.466 1.682ZM94.694 81.491v21.135"/><path d="m94.694 78.39-1.682 4.468 1.682-1.466 1.682 1.466Z"/><path fill="none" stroke="#000" stroke-miterlimit="10" stroke-width=".3985" d="m94.694 78.39-1.682 4.468 1.682-1.466 1.682 1.466Z"/><g transform="translate(99.381 169.521)scale(1.0004)"><use xlink:href="#G" x="-25.506237" y="-49.473856"/><use xlink:href="#q" x="-16.727596" y="-49.473856"/><use xlink:href="#p" x="-10.221355" y="-49.473856"/><use xlink:href="#e" x="-6.968235" y="-49.473856"/><use xlink:href="#m" x="-1.765634" y="-49.473856"/><use xlink:href="#n" x="4.417687" y="-49.473856"/><use xlink:href="#g" x="10.923926" y="-49.473856"/></g><path fill="none" stroke="#000" stroke-miterlimit="10" stroke-width=".3985" d="M225.089 81.491v21.135"/><path d="m225.089 78.39-1.682 4.468 1.682-1.466 1.682 1.466Z"/><path fill="none" stroke="#000" stroke-miterlimit="10" stroke-width=".3985" d="m225.089 78.39-1.682 4.468 1.682-1.466 1.682 1.466Z"/><g transform="translate(233.274 169.39)scale(1.0004)"><use xlink:href="#G" x="-25.506237" y="-49.473856"/><use xlink:href="#H" x="-16.727596" y="-49.473856"/><use xlink:href="#I" x="-8.271876" y="-49.473856"/><use xlink:href="#J" x="-.629435" y="-49.473856"/><use xlink:href="#K" x="3.269526" y="-49.473856"/></g></svg>