<svg xmlns="http://www.w3.org/2000/svg" xmlns:xlink="http://www.w3.org/1999/xlink" width="424.66pt" height="124.46pt" viewBox="0 0 424.66 124.46"><defs><path id="p" d="M9.975-2.75c-.658.502-.981.992-1.077 1.147-.538.826-.634 1.58-.634 1.591 0 .144.144.144.24.144.203 0 .215-.024.263-.24.275-1.172.98-2.176 2.332-2.727.143-.047.18-.071.18-.155s-.072-.12-.096-.132c-.527-.203-1.974-.8-2.428-2.81-.036-.144-.048-.18-.251-.18-.096 0-.24 0-.24.144 0 .024.108.777.61 1.579.24.358.586.777 1.1 1.16H1.089c-.215 0-.43 0-.43.239s.215.24.43.24z"/><path id="u" d="M4.822-.327c0-.339-.262-.339-.436-.339h-.993v-5.673c0-.174 0-.447-.327-.447-.208 0-.273.13-.328.262-.414.927-.981 1.047-1.189 1.069-.174.01-.403.033-.403.338 0 .273.196.328.36.328.207 0 .654-.066 1.134-.48v4.603h-.993c-.174 0-.436 0-.436.339 0 .327.273.327.436.327h2.739c.163 0 .436 0 .436-.327"/><path id="o" d="M5.542-4.375c0-.327-.262-.327-.458-.327H3.83c-.196 0-.458 0-.458.327 0 .338.251.338.458.338h.535L3.818-.786h-.01c-.044-.283-.186-.785-.317-1.232-.196-.688-.229-.808-.61-.808-.11 0-.317 0-.437.24-.033.077-.47 1.582-.513 1.8h-.01l-.568-3.25h.534c.197 0 .459 0 .459-.328 0-.338-.251-.338-.459-.338H.633c-.197 0-.458 0-.458.327 0 .338.229.338.556.338L1.386-.37c.043.251.076.415.512.415s.47-.099.666-.764c.273-.96.284-1.113.316-1.353h.011c.055.567.458 1.844.502 1.931.13.186.327.186.458.186.404 0 .437-.175.48-.415l.655-3.666c.327 0 .556 0 .556-.338"/><path id="l" d="M5.411-.327c0-.339-.283-.339-.447-.339h-.436L3.13-2.422l1.244-1.615h.436c.153 0 .448 0 .448-.327 0-.338-.284-.338-.448-.338H3.535c-.164 0-.437 0-.437.327 0 .338.24.338.535.338l-.807 1.102-.83-1.102c.284 0 .524 0 .524-.338 0-.327-.273-.327-.436-.327H.807c-.163 0-.447 0-.447.338 0 .327.295.327.447.327h.437L2.53-2.422 1.178-.666H.742c-.164 0-.447 0-.447.339C.295 0 .589 0 .742 0h1.276c.164 0 .437 0 .437-.327 0-.339-.23-.339-.568-.339l.939-1.341.97 1.341c-.305 0-.545 0-.545.339 0 .327.273.327.437.327h1.276c.153 0 .447 0 .447-.327"/><path id="m" d="M5.455-4.364c0-.338-.262-.338-.436-.338H3.742c-.164 0-.436 0-.436.327 0 .338.262.338.436.338h.306l-.786 2.324c-.142.404-.207.6-.284.938h-.01c-.055-.207-.153-.436-.23-.643L1.724-4.037h.273c.163 0 .436 0 .436-.327 0-.338-.262-.338-.436-.338H.72c-.174 0-.436 0-.436.338 0 .327.272.327.436.327h.338l1.55 3.895c.043.11.043.142.043.142s-.273.916-.414 1.19c-.317.6-.71.621-.873.632 0 0 .054-.098.054-.24a.453.453 0 0 0-.469-.47c-.294 0-.48.197-.48.48a.9.9 0 0 0 .906.895c1.09 0 1.582-1.44 1.625-1.56l1.691-4.964h.328c.163 0 .436 0 .436-.327"/><path id="n" d="M5.182-.447v-.633c0-.207 0-.447-.37-.447-.383 0-.383.229-.383.447v.414H1.495l3.404-3.229c.229-.218.24-.25.24-.436 0-.371-.24-.371-.448-.371H.981c-.36 0-.446.087-.446.447v.502c0 .207 0 .447.37.447.382 0 .382-.229.382-.447v-.284h2.717L.6-.807c-.23.218-.24.25-.24.436C.36 0 .6 0 .807 0h4.135c.24-.065.24-.284.24-.447"/><path id="t" d="M5.171-3.328c0-2.029-1.112-3.458-2.313-3.458-1.221 0-2.312 1.462-2.312 3.448C.546-1.31 1.658.12 2.858.12c1.222 0 2.313-1.462 2.313-3.448m-.752-.12c0 1.615-.71 2.903-1.56 2.903s-1.56-1.288-1.56-2.903c0-1.592.752-2.673 1.56-2.673.796 0 1.56 1.07 1.56 2.673"/><path id="d" d="M5.669-1.064v-.67h-.263v.67c0 .681-.287.777-.455.777-.454 0-.454-.634-.454-.813v-2.093c0-.646 0-1.125-.526-1.591-.419-.383-.957-.55-1.483-.55-.981 0-1.735.646-1.735 1.423 0 .347.228.514.503.514.287 0 .49-.203.49-.49 0-.49-.43-.49-.61-.49.275-.503.85-.718 1.328-.718.55 0 1.256.455 1.256 1.53v.48C1.316-3.05.407-2.046.407-1.126c0 .946 1.1 1.245 1.83 1.245A1.63 1.63 0 0 0 3.79-.933c.048.562.419.993.933.993.251 0 .945-.168.945-1.124m-1.95-.622C3.72-.514 2.847-.12 2.333-.12c-.586 0-1.076-.43-1.076-1.004 0-1.579 2.033-1.722 2.464-1.746z"/><path id="a" d="M7.63-2.189c0-.968-.873-1.925-2.296-2.08 1.136-.216 1.962-.981 1.962-1.878 0-1.029-1.04-2.022-2.608-2.022H.514v.347h.24c.86 0 .896.12.896.562v6.351c0 .443-.035.562-.897.562H.514V0h4.497c1.543 0 2.62-1.04 2.62-2.189M6.243-6.147c0 .789-.622 1.782-1.95 1.782H2.56v-2.978c0-.395.024-.479.55-.479h1.508c1.196 0 1.626 1.029 1.626 1.675m.3 3.946c0 .97-.73 1.854-1.903 1.854H3.11c-.527 0-.55-.084-.55-.478v-3.301h2.236c1.148 0 1.746 1.004 1.746 1.925"/><path id="s" d="M4.856-1.423c0-.108-.084-.108-.12-.108-.107 0-.12.036-.155.18-.263.849-.91 1.207-1.555 1.207-.73 0-1.698-.633-1.698-2.451 0-1.986 1.016-2.476 1.614-2.476.455 0 1.112.18 1.388.646-.144 0-.587 0-.587.49 0 .287.204.49.49.49.276 0 .503-.167.503-.514 0-.801-.837-1.375-1.806-1.375C1.53-5.334.42-4.09.42-2.584.419-1.051 1.567.12 2.919.12c1.578 0 1.937-1.436 1.937-1.543"/><path id="g" d="M4.868-1.423c0-.072-.06-.12-.132-.12-.096 0-.12.06-.143.12C4.282-.42 3.48-.143 2.978-.143s-1.71-.335-1.71-2.404v-.228H4.58c.263 0 .287 0 .287-.227 0-1.208-.646-2.332-2.093-2.332C1.41-5.334.359-4.102.359-2.62.359-1.041 1.579.12 2.906.12c1.424 0 1.962-1.292 1.962-1.543m-.742-1.579H1.28c.095-1.878 1.148-2.093 1.483-2.093 1.28 0 1.351 1.686 1.363 2.093"/><path id="b" d="M2.882 0v-.347c-.777 0-.825-.06-.825-.526v-4.401l-1.626.131v.347c.765 0 .873.072.873.658v3.253c0 .538-.132.538-.91.538V0c.336-.024.91-.024 1.256-.024.132 0 .826 0 1.232.024m-.67-7.224a.58.58 0 1 0-.586.574.576.576 0 0 0 .587-.574"/><path id="c" d="M6.231 0v-.347c-.598 0-.897 0-.909-.359v-2.2c0-1.113 0-1.447-.275-1.83-.347-.467-.909-.538-1.315-.538-1.16 0-1.615.992-1.71 1.232h-.013v-1.232l-1.626.131v.347c.813 0 .909.084.909.67v3.241c0 .538-.132.538-.91.538V0c.312-.024.958-.024 1.292-.024.347 0 .993 0 1.304.024v-.347c-.765 0-.909 0-.909-.538V-3.11c0-1.255.825-1.925 1.567-1.925s.909.61.909 1.34v2.81c0 .538-.132.538-.91.538V0c.312-.024.958-.024 1.293-.024.346 0 .992 0 1.303.024"/><path id="k" d="M5.49-2.56c0-1.542-1.172-2.774-2.56-2.774C1.495-5.334.36-4.066.36-2.56.359-1.03 1.555.12 2.919.12c1.41 0 2.57-1.172 2.57-2.68m-.91-.107c0 .419 0 1.16-.31 1.722a1.56 1.56 0 0 1-1.34.801c-.442 0-.98-.19-1.327-.777-.323-.538-.335-1.244-.335-1.746 0-.455 0-1.184.37-1.722a1.53 1.53 0 0 1 1.28-.706c.467 0 .969.215 1.292.682.37.55.37 1.303.37 1.746"/><path id="h" d="M6.076-2.583c0-1.52-1.125-2.691-2.428-2.691-1.053 0-1.615.753-1.65.801v-.801l-1.663.131v.347c.837 0 .909.084.909.61v5.621c0 .538-.132.538-.91.538v.347c.312-.024.958-.024 1.293-.024.346 0 .992 0 1.303.024v-.347c-.765 0-.909 0-.909-.538v-2.08c.216.298.706.765 1.471.765 1.376 0 2.584-1.16 2.584-2.703m-.91 0c0 1.423-.813 2.463-1.733 2.463a1.4 1.4 0 0 1-.957-.382c-.275-.275-.455-.515-.455-.85v-2.463c0-.227 0-.24.132-.43a1.72 1.72 0 0 1 1.4-.766c.896 0 1.614 1.088 1.614 2.428"/><path id="q" d="M6.16 2.32v-.347c-.766 0-.91 0-.91-.538v-6.71h-.239L4.57-4.161c-.216-.455-.682-1.112-1.591-1.112-1.316 0-2.56 1.124-2.56 2.703 0 1.519 1.149 2.69 2.452 2.69.646 0 1.172-.298 1.603-.896v2.212c0 .538-.132.538-.909.538v.347c.311-.024.957-.024 1.292-.024.347 0 .992 0 1.303.024M4.496-1.603c0 .383-.215.73-.49 1.005-.431.443-.885.478-1.065.478-.909 0-1.614-1.124-1.614-2.451 0-1.436.837-2.44 1.722-2.44.945 0 1.447 1.028 1.447 1.65z"/><path id="e" d="M4.222-4.58c0-.36-.323-.694-.837-.694-1.017 0-1.364 1.1-1.436 1.327h-.011v-1.327l-1.603.131v.347c.813 0 .909.084.909.67v3.241c0 .538-.132.538-.91.538V0c.336-.024.994-.024 1.352-.024.323 0 1.172 0 1.448.024v-.347h-.24c-.873 0-.897-.131-.897-.562v-1.878c0-1.16.479-2.248 1.4-2.248.095 0 .12 0 .167.012-.096.048-.287.12-.287.442a.46.46 0 0 0 .466.479c.24 0 .479-.156.479-.479"/><path id="i" d="M4.21-1.519c0-.646-.395-1.028-.502-1.136-.431-.37-.754-.443-1.543-.586-.359-.072-1.232-.24-1.232-.957 0-.37.251-.92 1.327-.92 1.304 0 1.376 1.111 1.4 1.482.012.096.095.096.131.096.132 0 .132-.06.132-.275V-5.06c0-.215 0-.275-.12-.275-.095 0-.323.263-.406.37-.371-.298-.742-.37-1.125-.37-1.447 0-1.877.79-1.877 1.447 0 .132 0 .55.454.969.383.335.79.418 1.34.526.657.132.813.167 1.112.407.215.179.37.442.37.777 0 .514-.298 1.088-1.35 1.088C1.53-.12.956-.574.693-1.77c-.048-.215-.06-.24-.06-.24-.024-.047-.072-.047-.108-.047-.131 0-.131.06-.131.275v1.627c0 .215 0 .275.12.275.06 0 .071-.012.274-.264.06-.083.06-.107.24-.299.454.563 1.1.563 1.303.563C3.588.12 4.21-.574 4.21-1.52"/><path id="j" d="M3.899-1.483v-.682h-.263v.658c0 .861-.347 1.363-.813 1.363-.814 0-.814-1.112-.814-1.315v-3.349h1.687v-.347H2.009v-2.2h-.263c-.012 1.124-.442 2.272-1.53 2.308v.24h1.016v3.324C1.232-.155 2.117.12 2.75.12c.753 0 1.148-.742 1.148-1.603"/><path id="r" d="M6.231 0v-.347c-.813 0-.909-.084-.909-.67v-4.257l-1.686.131v.347c.813 0 .909.084.909.67v2.14C4.545-.968 4.007-.12 3.11-.12c-.981 0-1.04-.562-1.04-1.196v-3.958l-1.687.131v.347c.909 0 .909.036.909 1.1v1.794c0 .742 0 1.172.358 1.567.288.311.778.455 1.388.455.203 0 .586 0 .993-.347.346-.275.538-.73.538-.73V.12z"/><path id="f" d="M5.956-4.808v-.347c-.347.024-.514.024-.897.024l-.969-.024v.347c.443.024.55.3.55.514 0 .108-.023.168-.071.287L3.349-.993 2.02-4.246c-.072-.167-.072-.251-.072-.251 0-.31.42-.31.658-.31v-.348c-.31.024-.897.024-1.232.024l-1.16-.024v.347c.694 0 .79.06.945.43L2.942 0c-.526 1.268-.526 1.292-.574 1.387-.203.36-.526.814-1.064.814-.371 0-.598-.216-.598-.216s.418-.047.418-.466a.433.433 0 0 0-.442-.443c-.204 0-.455.12-.455.467 0 .454.443.897 1.077.897.67 0 1.16-.586 1.47-1.34l2.07-5.095c.323-.801.885-.813 1.112-.813"/></defs><g transform="translate(1.133 74.887)scale(1.0004)"><use xlink:href="#a" x="29.461824" y="-49.473856"/><use xlink:href="#b" x="37.750107" y="-49.473856"/><use xlink:href="#c" x="41.003226" y="-49.473856"/><use xlink:href="#d" x="47.509467" y="-49.473856"/><use xlink:href="#e" x="53.369866" y="-49.473856"/><use xlink:href="#f" x="57.926627" y="-49.473856"/><use xlink:href="#e" x="68.092618" y="-49.473856"/><use xlink:href="#g" x="72.649384" y="-49.473856"/><use xlink:href="#h" x="77.851985" y="-49.473856"/><use xlink:href="#e" x="84.358226" y="-49.473856"/><use xlink:href="#g" x="88.914985" y="-49.473856"/><use xlink:href="#i" x="94.117593" y="-49.473856"/><use xlink:href="#g" x="98.734156" y="-49.473856"/><use xlink:href="#c" x="103.936754" y="-49.473856"/><use xlink:href="#j" x="110.13204" y="-49.473856"/><use xlink:href="#d" x="114.688799" y="-49.473856"/><use xlink:href="#j" x="120.549201" y="-49.473856"/><use xlink:href="#b" x="125.10596" y="-49.473856"/><use xlink:href="#k" x="128.359075" y="-49.473856"/><use xlink:href="#c" x="134.219467" y="-49.473856"/></g><g transform="translate(1.133 94.551)scale(1.00008)"><use xlink:href="#l" x="111.855227" y="-49.45808"/><use xlink:href="#l" x="117.58298" y="-49.45808"/><use xlink:href="#l" x="123.310732" y="-49.45808"/><use xlink:href="#l" x="133.020633" y="-49.45808"/><use xlink:href="#l" x="138.748386" y="-49.45808"/><use xlink:href="#l" x="144.476138" y="-49.45808"/><use xlink:href="#l" x="150.203891" y="-49.45808"/></g><g transform="translate(1.133 114.393)scale(1.00008)"><use xlink:href="#m" x="84.959009" y="-49.45808"/><use xlink:href="#m" x="90.686761" y="-49.45808"/><use xlink:href="#m" x="96.414514" y="-49.45808"/><use xlink:href="#m" x="106.124415" y="-49.45808"/><use xlink:href="#m" x="111.852167" y="-49.45808"/><use xlink:href="#l" x="117.57992" y="-49.45808"/><use xlink:href="#l" x="123.307672" y="-49.45808"/><use xlink:href="#l" x="133.017573" y="-49.45808"/><use xlink:href="#l" x="138.745336" y="-49.45808"/><use xlink:href="#l" x="144.473088" y="-49.45808"/><use xlink:href="#l" x="150.200841" y="-49.45808"/></g><g transform="translate(1.133 134.236)scale(1.00008)"><use xlink:href="#n" x="52.335317" y="-49.45808"/><use xlink:href="#n" x="58.06307" y="-49.45808"/><use xlink:href="#n" x="63.790822" y="-49.45808"/><use xlink:href="#n" x="69.518575" y="-49.45808"/><use xlink:href="#m" x="79.228476" y="-49.45808"/><use xlink:href="#m" x="84.956228" y="-49.45808"/><use xlink:href="#m" x="90.683981" y="-49.45808"/><use xlink:href="#m" x="96.411733" y="-49.45808"/><use xlink:href="#m" x="106.121634" y="-49.45808"/><use xlink:href="#m" x="111.849387" y="-49.45808"/><use xlink:href="#l" x="117.577139" y="-49.45808"/><use xlink:href="#l" x="123.304891" y="-49.45808"/><use xlink:href="#l" x="133.014793" y="-49.45808"/><use xlink:href="#l" x="138.742545" y="-49.45808"/><use xlink:href="#l" x="144.470298" y="-49.45808"/><use xlink:href="#l" x="150.19805" y="-49.45808"/></g><g transform="translate(1.133 154.079)scale(1.00008)"><use xlink:href="#o" x="15.727297" y="-49.45808"/><use xlink:href="#o" x="25.437197" y="-49.45808"/><use xlink:href="#o" x="31.164948" y="-49.45808"/><use xlink:href="#n" x="36.8927" y="-49.45808"/><use xlink:href="#n" x="42.620453" y="-49.45808"/><use xlink:href="#n" x="52.330357" y="-49.45808"/><use xlink:href="#n" x="58.058105" y="-49.45808"/><use xlink:href="#n" x="63.785857" y="-49.45808"/><use xlink:href="#n" x="69.513604" y="-49.45808"/><use xlink:href="#m" x="79.223505" y="-49.45808"/><use xlink:href="#m" x="84.951258" y="-49.45808"/><use xlink:href="#m" x="90.67901" y="-49.45808"/><use xlink:href="#m" x="96.406763" y="-49.45808"/><use xlink:href="#m" x="106.127575" y="-49.45808"/><use xlink:href="#m" x="111.855327" y="-49.45808"/><use xlink:href="#l" x="117.58308" y="-49.45808"/><use xlink:href="#l" x="123.310832" y="-49.45808"/><use xlink:href="#l" x="133.020743" y="-49.45808"/><use xlink:href="#l" x="138.748496" y="-49.45808"/><use xlink:href="#l" x="144.476248" y="-49.45808"/><use xlink:href="#l" x="150.203991" y="-49.45808"/></g><use xlink:href="#p" x="14.194697" y="-49.473856" transform="translate(156.732 94.73)scale(1.0004)"/><use xlink:href="#p" x="14.194697" y="-49.473856" transform="translate(156.732 114.573)scale(1.0004)"/><use xlink:href="#p" x="14.194697" y="-49.473856" transform="translate(156.732 134.415)scale(1.0004)"/><use xlink:href="#p" x="14.194697" y="-49.473856" transform="translate(156.732 154.258)scale(1.0004)"/><g transform="translate(179.718 74.861)scale(1.0004)"><use xlink:href="#a" x="83.226402" y="-49.473856"/><use xlink:href="#f" x="91.514678" y="-49.473856"/><use xlink:href="#j" x="97.698" y="-49.473856"/><use xlink:href="#g" x="102.254759" y="-49.473856"/><use xlink:href="#i" x="111.440045" y="-49.473856"/><use xlink:href="#g" x="116.056606" y="-49.473856"/><use xlink:href="#q" x="121.259206" y="-49.473856"/><use xlink:href="#r" x="127.442528" y="-49.473856"/><use xlink:href="#g" x="133.948759" y="-49.473856"/><use xlink:href="#c" x="139.151367" y="-49.473856"/><use xlink:href="#s" x="145.657608" y="-49.473856"/><use xlink:href="#g" x="150.860216" y="-49.473856"/><use xlink:href="#i" x="156.062824" y="-49.473856"/></g><g transform="translate(179.718 94.551)scale(1.00008)"><use xlink:href="#t" x="14.190171" y="-49.45808"/><use xlink:href="#l" x="19.917922" y="-49.45808"/><use xlink:href="#l" x="25.645673" y="-49.45808"/><use xlink:href="#l" x="31.373423" y="-49.45808"/><use xlink:href="#l" x="41.083327" y="-49.45808"/><use xlink:href="#l" x="46.811076" y="-49.45808"/><use xlink:href="#l" x="52.538828" y="-49.45808"/><use xlink:href="#l" x="58.266581" y="-49.45808"/></g><g transform="translate(179.718 114.393)scale(1.00008)"><use xlink:href="#u" x="14.190171" y="-49.45808"/><use xlink:href="#u" x="19.917922" y="-49.45808"/><use xlink:href="#t" x="25.645673" y="-49.45808"/><use xlink:href="#m" x="31.373423" y="-49.45808"/><use xlink:href="#m" x="41.083327" y="-49.45808"/><use xlink:href="#m" x="46.811076" y="-49.45808"/><use xlink:href="#m" x="52.538828" y="-49.45808"/><use xlink:href="#m" x="58.266581" y="-49.45808"/><use xlink:href="#u" x="67.976478" y="-49.45808"/><use xlink:href="#t" x="73.70423" y="-49.45808"/><use xlink:href="#l" x="79.431983" y="-49.45808"/><use xlink:href="#l" x="85.159735" y="-49.45808"/><use xlink:href="#l" x="94.869636" y="-49.45808"/><use xlink:href="#l" x="100.597389" y="-49.45808"/><use xlink:href="#l" x="106.325141" y="-49.45808"/><use xlink:href="#l" x="112.052894" y="-49.45808"/></g><g transform="translate(179.718 134.236)scale(1.00008)"><use xlink:href="#u" x="14.190171" y="-49.45808"/><use xlink:href="#u" x="19.917922" y="-49.45808"/><use xlink:href="#u" x="25.645673" y="-49.45808"/><use xlink:href="#t" x="31.373423" y="-49.45808"/><use xlink:href="#n" x="41.083327" y="-49.45808"/><use xlink:href="#n" x="46.811076" y="-49.45808"/><use xlink:href="#n" x="52.538828" y="-49.45808"/><use xlink:href="#n" x="58.266581" y="-49.45808"/><use xlink:href="#u" x="67.976478" y="-49.45808"/><use xlink:href="#t" x="73.70423" y="-49.45808"/><use xlink:href="#m" x="79.431983" y="-49.45808"/><use xlink:href="#m" x="85.159735" y="-49.45808"/><use xlink:href="#m" x="94.869636" y="-49.45808"/><use xlink:href="#m" x="100.597389" y="-49.45808"/><use xlink:href="#m" x="106.325141" y="-49.45808"/><use xlink:href="#m" x="112.052894" y="-49.45808"/><use xlink:href="#u" x="121.773705" y="-49.45808"/><use xlink:href="#t" x="127.501458" y="-49.45808"/><use xlink:href="#l" x="133.22921" y="-49.45808"/><use xlink:href="#l" x="138.956963" y="-49.45808"/><use xlink:href="#l" x="148.666864" y="-49.45808"/><use xlink:href="#l" x="154.394616" y="-49.45808"/><use xlink:href="#l" x="160.122369" y="-49.45808"/><use xlink:href="#l" x="165.850121" y="-49.45808"/></g><g transform="translate(179.718 154.079)scale(1.00008)"><use xlink:href="#u" x="14.190171" y="-49.45808"/><use xlink:href="#u" x="19.917922" y="-49.45808"/><use xlink:href="#u" x="25.645673" y="-49.45808"/><use xlink:href="#u" x="31.373423" y="-49.45808"/><use xlink:href="#t" x="41.083327" y="-49.45808"/><use xlink:href="#o" x="46.811076" y="-49.45808"/><use xlink:href="#o" x="52.538828" y="-49.45808"/><use xlink:href="#o" x="58.266581" y="-49.45808"/><use xlink:href="#u" x="67.976478" y="-49.45808"/><use xlink:href="#t" x="73.70423" y="-49.45808"/><use xlink:href="#n" x="79.431983" y="-49.45808"/><use xlink:href="#n" x="85.159735" y="-49.45808"/><use xlink:href="#n" x="94.869636" y="-49.45808"/><use xlink:href="#n" x="100.597389" y="-49.45808"/><use xlink:href="#n" x="106.325141" y="-49.45808"/><use xlink:href="#n" x="112.052894" y="-49.45808"/><use xlink:href="#u" x="121.773705" y="-49.45808"/><use xlink:href="#t" x="127.501458" y="-49.45808"/><use xlink:href="#m" x="133.22921" y="-49.45808"/><use xlink:href="#m" x="138.956963" y="-49.45808"/><use xlink:href="#m" x="148.666864" y="-49.45808"/><use xlink:href="#m" x="154.394616" y="-49.45808"/><use xlink:href="#m" x="160.122369" y="-49.45808"/><use xlink:href="#m" x="165.850121" y="-49.45808"/><use xlink:href="#u" x="175.560032" y="-49.45808"/><use xlink:href="#t" x="181.287785" y="-49.45808"/><use xlink:href="#l" x="187.015527" y="-49.45808"/><use xlink:href="#l" x="192.74329" y="-49.45808"/><use xlink:href="#l" x="202.453201" y="-49.45808"/><use xlink:href="#l" x="208.180953" y="-49.45808"/><use xlink:href="#l" x="213.908696" y="-49.45808"/><use xlink:href="#l" x="219.636448" y="-49.45808"/></g></svg>