<svg xmlns="http://www.w3.org/2000/svg" xmlns:xlink="http://www.w3.org/1999/xlink" width="272.52pt" height="177.84pt" viewBox="0 0 272.52 177.84"><defs><path id="p" d="M7.822 0v-.338h-.196c-.655 0-.807-.077-.927-.437L4.342-7.593c-.054-.142-.076-.219-.25-.219s-.208.066-.263.219L1.571-1.07c-.196.556-.633.72-1.222.73V0l1.113-.033L2.717 0v-.338c-.546 0-.819-.273-.819-.557 0-.032.011-.141.022-.163l.502-1.43h2.695l.578 1.67c.01.043.033.109.033.152 0 .328-.611.328-.906.328V0c.393-.033 1.157-.033 1.571-.033zM4.997-2.826H2.542L3.764-6.37z"/><path id="i" d="M7.102-1.997c0-.949-.894-1.767-2.105-1.898 1.058-.207 1.81-.905 1.81-1.713 0-.949-1.003-1.844-2.421-1.844H.393v.339h.262c.84 0 .861.12.861.512v5.75c0 .393-.021.513-.861.513H.393V0h4.276c1.452 0 2.433-.971 2.433-1.997M5.75-5.607c0 .697-.535 1.614-1.746 1.614H2.422v-2.684c0-.36.022-.436.535-.436h1.352c1.059 0 1.44.927 1.44 1.505m.261 3.6c0 .774-.567 1.669-1.69 1.669H2.956c-.513 0-.535-.077-.535-.437v-2.978h2.051c1.08 0 1.538 1.015 1.538 1.746"/><path id="m" d="M3.633 0v-.338h-.284c-.862 0-.894-.12-.894-.513v-5.75c0-.392.032-.512.894-.512h.284v-.339c-.382.033-1.244.033-1.658.033-.426 0-1.288 0-1.67-.033v.339H.59c.862 0 .895.12.895.512v5.75c0 .393-.033.513-.895.513H.305V0C.687-.033 1.55-.033 1.964-.033c.425 0 1.287 0 1.669.033"/><path id="j" d="M9.59 0v-.338h-.262c-.84 0-.862-.12-.862-.513v-5.75c0-.392.022-.512.862-.512h.262v-.339H7.746c-.284 0-.284.011-.36.208l-2.39 6.142-2.367-6.11c-.098-.24-.13-.24-.382-.24H.404v.339h.262c.84 0 .861.12.861.512v5.455c0 .295 0 .808-1.123.808V0L1.68-.033 2.957 0v-.338c-1.124 0-1.124-.513-1.124-.808v-5.88h.01L4.474-.24c.055.142.11.24.218.24.12 0 .153-.087.197-.207l2.684-6.906h.01v6.262c0 .393-.021.513-.861.513h-.262V0c.403-.033 1.145-.033 1.57-.033s1.157 0 1.56.033"/><path id="k" d="M6.808-5.422c0-1.07-1.08-2.03-2.575-2.03H.382v.339h.262c.84 0 .862.12.862.512v5.75c0 .393-.022.513-.862.513H.382V0C.764-.033 1.57-.033 1.986-.033S3.218-.033 3.6 0v-.338h-.262c-.84 0-.861-.12-.861-.513v-2.597H4.32c1.31 0 2.488-.883 2.488-1.974m-1.124 0c0 .512 0 1.69-1.735 1.69H2.444v-2.945c0-.36.022-.436.534-.436h.971c1.735 0 1.735 1.156 1.735 1.69"/><path id="l" d="M5.444-2.03c0-1.09-.72-1.985-1.636-2.203L2.41-4.571A1.425 1.425 0 0 1 1.31-5.957c0-.764.59-1.43 1.44-1.43 1.822 0 2.062 1.79 2.128 2.281.01.066.01.131.13.131.143 0 .143-.055.143-.262V-7.43c0-.185 0-.262-.12-.262-.077 0-.088.011-.164.142l-.382.622c-.327-.316-.775-.764-1.746-.764a2.115 2.115 0 0 0-.698 4.113c.12.044.677.175 1.44.36.295.077.622.153.928.557.229.284.338.644.338 1.004 0 .774-.546 1.56-1.462 1.56-.316 0-1.146-.055-1.724-.59-.633-.588-.665-1.287-.676-1.68-.011-.109-.098-.109-.131-.109-.142 0-.142.077-.142.273v2.182c0 .186 0 .262.12.262C.807.24.818.218.895.098c0 0 .032-.043.392-.622.339.371 1.037.764 2.008.764 1.276 0 2.15-1.07 2.15-2.27"/><path id="n" d="m7.473-4.931-.207-2.455H.6L.393-4.931h.273c.152-1.757.316-2.117 1.963-2.117.197 0 .48 0 .59.022.229.044.229.164.229.415v5.75c0 .37 0 .523-1.146.523h-.436V0c.447-.033 1.56-.033 2.062-.033S5.553-.033 6 0v-.338h-.437C4.42-.338 4.42-.491 4.42-.862v-5.75c0-.218 0-.37.196-.414.12-.022.415-.022.622-.022 1.647 0 1.81.36 1.964 2.117z"/><path id="o" d="M7.812-7.113v-.339l-1.288.033-1.298-.033v.339c1.124 0 1.124.512 1.124.807v3.786C6.35-.971 5.29-.098 4.255-.098c-.513 0-1.8-.273-1.8-2.346V-6.6c0-.392.022-.512.862-.512h.261v-.339c-.381.033-1.189.033-1.603.033s-1.233 0-1.615-.033v.339h.262c.84 0 .862.12.862.512v4.114C1.484-.95 2.749.24 4.234.24 5.487.24 6.47-.775 6.654-2.018c.033-.219.033-.317.033-.753v-3.491c0-.36 0-.851 1.124-.851"/><path id="g" d="M5.669-1.064v-.67h-.263v.67c0 .681-.287.777-.455.777-.454 0-.454-.634-.454-.813v-2.093c0-.646 0-1.125-.526-1.591-.419-.383-.957-.55-1.483-.55-.981 0-1.735.646-1.735 1.423 0 .347.228.514.503.514.287 0 .49-.203.49-.49 0-.49-.43-.49-.61-.49.275-.503.85-.718 1.328-.718.55 0 1.256.455 1.256 1.53v.48C1.316-3.05.407-2.046.407-1.126c0 .946 1.1 1.245 1.83 1.245A1.63 1.63 0 0 0 3.79-.933c.048.562.419.993.933.993.251 0 .945-.168.945-1.124m-1.95-.622C3.72-.514 2.847-.12 2.333-.12c-.586 0-1.076-.43-1.076-1.004 0-1.579 2.033-1.722 2.464-1.746z"/><path id="t" d="M7.63-2.189c0-.968-.873-1.925-2.296-2.08 1.136-.216 1.962-.981 1.962-1.878 0-1.029-1.04-2.022-2.608-2.022H.514v.347h.24c.86 0 .896.12.896.562v6.351c0 .443-.035.562-.897.562H.514V0h4.497c1.543 0 2.62-1.04 2.62-2.189M6.243-6.147c0 .789-.622 1.782-1.95 1.782H2.56v-2.978c0-.395.024-.479.55-.479h1.508c1.196 0 1.626 1.029 1.626 1.675m.3 3.946c0 .97-.73 1.854-1.903 1.854H3.11c-.527 0-.55-.084-.55-.478v-3.301h2.236c1.148 0 1.746 1.004 1.746 1.925"/><path id="a" d="M7.798-2.775c0-.131 0-.203-.132-.203-.12 0-.131.06-.131.143C7.427-.933 6.04-.095 4.88-.095c-.838 0-3.122-.503-3.122-3.995 0-3.457 2.249-3.983 3.11-3.983 1.256 0 2.356 1.064 2.595 2.858.024.144.024.18.167.18.168 0 .168-.036.168-.275v-2.835c0-.215 0-.275-.12-.275-.071 0-.083.024-.155.144l-.586.945c-.538-.67-1.352-1.089-2.213-1.089C2.536-8.42.646-6.53.646-4.09.646-1.615 2.559.25 4.724.25c1.962 0 3.074-1.71 3.074-3.026"/><path id="h" d="M4.856-1.423c0-.108-.084-.108-.12-.108-.107 0-.12.036-.155.18-.263.849-.91 1.207-1.555 1.207-.73 0-1.698-.633-1.698-2.451 0-1.986 1.016-2.476 1.614-2.476.455 0 1.112.18 1.388.646-.144 0-.587 0-.587.49 0 .287.204.49.49.49.276 0 .503-.167.503-.514 0-.801-.837-1.375-1.806-1.375C1.53-5.334.42-4.09.42-2.584.419-1.051 1.567.12 2.919.12c1.578 0 1.937-1.436 1.937-1.543"/><path id="c" d="M6.16 0v-.347c-.814 0-.91-.084-.91-.67V-8.3l-1.662.131v.347c.813 0 .909.084.909.67v2.643a1.86 1.86 0 0 0-1.495-.765C1.615-5.274.419-4.102.419-2.571c0 1.519 1.136 2.69 2.451 2.69.91 0 1.436-.597 1.603-.825V.12zM4.472-1.4c0 .216 0 .252-.167.515-.287.419-.778.765-1.376.765-.31 0-1.602-.12-1.602-2.44 0-.86.143-1.339.406-1.734.24-.37.718-.741 1.316-.741.741 0 1.16.538 1.28.73.143.203.143.227.143.442z"/><path id="d" d="M4.868-1.423c0-.072-.06-.12-.132-.12-.096 0-.12.06-.143.12C4.282-.42 3.48-.143 2.978-.143s-1.71-.335-1.71-2.404v-.228H4.58c.263 0 .287 0 .287-.227 0-1.208-.646-2.332-2.093-2.332C1.41-5.334.359-4.102.359-2.62.359-1.041 1.579.12 2.906.12c1.424 0 1.962-1.292 1.962-1.543m-.742-1.579H1.28c.095-1.878 1.148-2.093 1.483-2.093 1.28 0 1.351 1.686 1.363 2.093"/><path id="u" d="M5.98 0v-.347c-.323 0-.694 0-1.029-.49L3.35-3.17l-.084-.12c0-.036.754-.682.85-.777.824-.718 1.35-.73 1.602-.742v-.347c-.24.024-.55.024-.91.024-.31 0-.92 0-1.195-.024v.347c.203.012.347.12.347.311 0 .24-.251.455-.251.455l-1.71 1.506V-8.3L.334-8.17v.347c.813 0 .909.084.909.67v6.267c0 .538-.132.538-.91.538V0c.336-.024.91-.024 1.269-.024s.933 0 1.267.024v-.347c-.765 0-.909 0-.909-.538v-1.268l.766-.67 1.148 1.65c.18.252.263.384.263.551 0 .215-.167.275-.418.275V0c.299-.024.885-.024 1.208-.024.514 0 .538 0 1.052.024"/><path id="r" d="M2.966 0v-.347c-.765 0-.909 0-.909-.538V-8.3L.395-8.17v.347c.813 0 .909.084.909.67v6.267c0 .538-.132.538-.91.538V0c.336-.024.922-.024 1.28-.024s.957 0 1.292.024"/><path id="s" d="M6.231 0v-.347c-.598 0-.897 0-.909-.359v-2.2c0-1.113 0-1.447-.275-1.83-.347-.467-.909-.538-1.315-.538-1.16 0-1.615.992-1.71 1.232h-.013v-1.232l-1.626.131v.347c.813 0 .909.084.909.67v3.241c0 .538-.132.538-.91.538V0c.312-.024.958-.024 1.292-.024.347 0 .993 0 1.304.024v-.347c-.765 0-.909 0-.909-.538V-3.11c0-1.255.825-1.925 1.567-1.925s.909.61.909 1.34v2.81c0 .538-.132.538-.91.538V0c.312-.024.958-.024 1.293-.024.346 0 .992 0 1.303.024"/><path id="b" d="M5.49-2.56c0-1.542-1.172-2.774-2.56-2.774C1.495-5.334.36-4.066.36-2.56.359-1.03 1.555.12 2.919.12c1.41 0 2.57-1.172 2.57-2.68m-.91-.107c0 .419 0 1.16-.31 1.722a1.56 1.56 0 0 1-1.34.801c-.442 0-.98-.19-1.327-.777-.323-.538-.335-1.244-.335-1.746 0-.455 0-1.184.37-1.722a1.53 1.53 0 0 1 1.28-.706c.467 0 .969.215 1.292.682.37.55.37 1.303.37 1.746"/><path id="q" d="M7.308-5.956c0-1.16-1.16-2.213-2.775-2.213H.503v.347h.239c.86 0 .897.12.897.562v6.351c0 .443-.036.562-.897.562h-.24V0C.79-.024 1.77-.024 2.117-.024c.359 0 1.34 0 1.626.024v-.347h-.239c-.86 0-.897-.12-.897-.562v-2.894H4.63c1.399 0 2.679-.945 2.679-2.153m-1.113 0c0 .502 0 1.866-1.95 1.866H2.584v-3.253c0-.395.024-.479.55-.479h1.125c1.937 0 1.937 1.352 1.937 1.866"/><path id="f" d="M6.076-2.583c0-1.52-1.125-2.691-2.428-2.691-1.053 0-1.615.753-1.65.801v-.801l-1.663.131v.347c.837 0 .909.084.909.61v5.621c0 .538-.132.538-.91.538v.347c.312-.024.958-.024 1.293-.024.346 0 .992 0 1.303.024v-.347c-.765 0-.909 0-.909-.538v-2.08c.216.298.706.765 1.471.765 1.376 0 2.584-1.16 2.584-2.703m-.91 0c0 1.423-.813 2.463-1.733 2.463a1.4 1.4 0 0 1-.957-.382c-.275-.275-.455-.515-.455-.85v-2.463c0-.227 0-.24.132-.43a1.72 1.72 0 0 1 1.4-.766c.896 0 1.614 1.088 1.614 2.428"/><path id="e" d="M4.21-1.519c0-.646-.395-1.028-.502-1.136-.431-.37-.754-.443-1.543-.586-.359-.072-1.232-.24-1.232-.957 0-.37.251-.92 1.327-.92 1.304 0 1.376 1.111 1.4 1.482.012.096.095.096.131.096.132 0 .132-.06.132-.275V-5.06c0-.215 0-.275-.12-.275-.095 0-.323.263-.406.37-.371-.298-.742-.37-1.125-.37-1.447 0-1.877.79-1.877 1.447 0 .132 0 .55.454.969.383.335.79.418 1.34.526.657.132.813.167 1.112.407.215.179.37.442.37.777 0 .514-.298 1.088-1.35 1.088C1.53-.12.956-.574.693-1.77c-.048-.215-.06-.24-.06-.24-.024-.047-.072-.047-.108-.047-.131 0-.131.06-.131.275v1.627c0 .215 0 .275.12.275.06 0 .071-.012.274-.264.06-.083.06-.107.24-.299.454.563 1.1.563 1.303.563C3.588.12 4.21-.574 4.21-1.52"/></defs><path fill="#dfdfdf" d="M45.554 166.302H79.57v-34.016H181.62V30.237h-34.016v34.016H45.554Z"/><path fill="none" stroke="#000" stroke-miterlimit="10" stroke-width=".3985" d="M45.554 166.302h136.065M45.554 132.286h136.065M45.554 98.27h136.065M45.554 64.253h136.065M45.554 30.247h136.065M45.554 166.302V30.237M79.57 166.302V30.237m34.016 136.065V30.237m34.017 136.065V30.237m34.006 136.065V30.237M45.554 30.237H11.538v34.016h34.016"/><g transform="translate(111.226 -70.572)scale(1.0004)"><use xlink:href="#a" x="-26.456618" y="94.343864"/><use xlink:href="#b" x="-18.000896" y="94.343864"/><use xlink:href="#c" x="-11.829536" y="94.343864"/><use xlink:href="#d" x="-5.323295" y="94.343864"/><use xlink:href="#e" x="3.778265" y="94.343864"/><use xlink:href="#f" x="8.394826" y="94.343864"/><use xlink:href="#g" x="14.901066" y="94.343864"/><use xlink:href="#h" x="20.761468" y="94.343864"/><use xlink:href="#d" x="25.964068" y="94.343864"/></g><g transform="translate(42.414 -43.335)scale(1.00008)"><use xlink:href="#i" x="-26.448182" y="94.31378"/><use xlink:href="#j" x="-18.723902" y="94.31378"/><use xlink:href="#k" x="-8.719431" y="94.31378"/></g><g transform="translate(77.259 -43.335)scale(1.00008)"><use xlink:href="#l" x="-26.448182" y="94.31378"/><use xlink:href="#j" x="-20.38222" y="94.31378"/><use xlink:href="#k" x="-10.37775" y="94.31378"/></g><g transform="translate(114.308 -43.335)scale(1.00008)"><use xlink:href="#l" x="-26.448182" y="94.31378"/><use xlink:href="#m" x="-20.38222" y="94.31378"/><use xlink:href="#k" x="-16.443711" y="94.31378"/></g><g transform="translate(147.418 -43.335)scale(1.00008)"><use xlink:href="#n" x="-26.448182" y="94.31378"/><use xlink:href="#m" x="-18.571162" y="94.31378"/><use xlink:href="#k" x="-14.632652" y="94.31378"/></g><g transform="translate(113.244 58.713)scale(1.00008)"><use xlink:href="#l" x="-26.448182" y="94.31378"/><use xlink:href="#l" x="-20.38222" y="94.31378"/><use xlink:href="#k" x="-14.31626" y="94.31378"/></g><g transform="translate(145.144 58.773)scale(1.00008)"><use xlink:href="#k" x="-26.448182" y="94.31378"/><use xlink:href="#o" x="-19.018472" y="94.31378"/><use xlink:href="#p" x="-10.835971" y="94.31378"/></g><g transform="translate(179.16 58.773)scale(1.00008)"><use xlink:href="#k" x="-26.448182" y="94.31378"/><use xlink:href="#o" x="-19.018472" y="94.31378"/><use xlink:href="#p" x="-10.835971" y="94.31378"/></g><path fill="none" stroke="#000" stroke-miterlimit="10" stroke-width=".3985" d="M141.642 34.336c8.795-15.234 85.332-15.234 95.607 2.564"/><path d="m140.09 37.023 3.691-3.029-2.19.429-.723-2.11Z"/><path fill="none" stroke="#000" stroke-miterlimit="10" stroke-width=".398491" d="m140.09 37.023 3.691-3.029-2.19.429-.723-2.11Z"/><g transform="translate(250.37 -43.084)scale(1.0004)"><use xlink:href="#q" x="-26.456618" y="94.343864"/><use xlink:href="#r" x="-18.491257" y="94.343864"/><use xlink:href="#g" x="-15.238136" y="94.343864"/><use xlink:href="#s" x="-9.377736" y="94.343864"/><use xlink:href="#d" x="-2.871495" y="94.343864"/></g><g fill="none" stroke="#000" stroke-miterlimit="10" stroke-width=".3985"><path d="M215.635 58.584h45.355v45.355h-45.355ZM238.312 58.584v45.355M260.99 81.262h-45.355"/><path d="M224.43 102.675c-1.708 2.96-5.96 13.362-4.189 16.43"/></g><path d="m225.981 99.988-3.69 3.029 2.19-.429.723 2.11Z"/><path fill="none" stroke="#000" stroke-miterlimit="10" stroke-width=".398491" d="m225.981 99.988-3.69 3.029 2.19-.429.723 2.11Z"/><g transform="translate(233.362 39.122)scale(1.0004)"><use xlink:href="#t" x="-26.456618" y="94.343864"/><use xlink:href="#r" x="-18.168338" y="94.343864"/><use xlink:href="#b" x="-14.915216" y="94.343864"/><use xlink:href="#h" x="-8.743856" y="94.343864"/><use xlink:href="#u" x="-3.852216" y="94.343864"/></g></svg>