<svg xmlns="http://www.w3.org/2000/svg" xmlns:xlink="http://www.w3.org/1999/xlink" width="398.02pt" height="94.39pt" viewBox="0 0 398.02 94.39"><defs><path id="n" d="M2.2-4.58a.58.58 0 0 0-.573-.575.577.577 0 0 0-.586.574.58.58 0 1 0 1.16 0m0 3.994a.58.58 0 0 0-.573-.574.577.577 0 0 0-.586.574.58.58 0 1 0 1.16 0"/><path id="m" d="M5.358-1.985c0-1.22-.861-1.758-1.794-2.333.598-.322 1.471-.873 1.471-1.877 0-1.04-1.004-1.758-2.105-1.758-1.184 0-2.117.873-2.117 1.961 0 .407.12.813.455 1.22.131.155.143.167.98.753C1.088-3.48.49-2.679.49-1.806.49-.538 1.698.251 2.918.251c1.328 0 2.44-.98 2.44-2.236m-.813-4.198c0 .73-.526 1.315-1.22 1.698l-1.387-.909c-.156-.108-.634-.419-.634-1.005 0-.777.813-1.267 1.614-1.267.861 0 1.627.622 1.627 1.483m.263 4.58c0 .91-.921 1.531-1.878 1.531-1.016 0-1.89-.741-1.89-1.734 0-.933.682-1.686 1.46-2.045l1.447.945c.31.203.86.574.86 1.303"/><path id="k" d="m7.14-5.478-.31-2.667H.49v.347h.24c.86 0 .897.12.897.562v6.327c0 .443-.036.562-.897.562H.49V0C.777-.024 1.842-.024 2.2-.024c.42 0 1.472 0 1.819.024v-.347h-.36c-1.04 0-1.064-.143-1.064-.574v-2.978h1.053c1.124 0 1.244.395 1.244 1.4h.263v-3.146h-.263c0 1.005-.12 1.4-1.244 1.4H2.595V-7.32c0-.394.024-.478.55-.478H4.64c1.723 0 2.07.634 2.237 2.32z"/><path id="l" d="M3.241-2.26v-.646H.131v.646z"/><path id="o" d="M4.904 0v-.347h-.371C3.48-.347 3.444-.49 3.444-.92v-6.745c0-.275 0-.287-.239-.287-.287.323-.885.765-2.117.765v.347c.275 0 .873 0 1.531-.311v6.231c0 .43-.036.574-1.088.574h-.37V0c.322-.024 1.482-.024 1.877-.024s1.543 0 1.866.024"/><path id="p" d="M5.358-2.44c0-1.59-1.112-2.655-2.308-2.655-1.065 0-1.46.921-1.579 1.256v-.323c0-3.026 1.471-3.504 2.117-3.504.43 0 .861.131 1.088.49-.143 0-.598 0-.598.49 0 .263.18.49.49.49.3 0 .503-.179.503-.526 0-.621-.454-1.231-1.495-1.231C2.069-7.953.49-6.411.49-3.78.49-.49 1.926.25 2.942.25c1.304 0 2.416-1.136 2.416-2.69m-.98-.012c0 .61 0 1.148-.228 1.603-.299.574-.73.777-1.208.777-.753 0-1.112-.67-1.22-.92-.107-.312-.227-.898-.227-1.735 0-.945.43-2.129 1.507-2.129.658 0 1.005.443 1.184.85.191.442.191 1.04.191 1.554"/><path id="j" d="M8.025-5.442 7.81-8.109H.634L.419-5.442h.263c.167-1.89.275-2.32 2.164-2.32.216 0 .55 0 .646.024.24.036.251.18.251.454V-.92c0 .407 0 .574-1.172.574h-.43V0c.383-.024 1.614-.024 2.08-.024s1.711 0 2.094.024v-.347h-.43c-1.173 0-1.173-.167-1.173-.574v-6.363c0-.299.024-.406.216-.454.095-.024.442-.024.67-.024 1.889 0 1.997.43 2.164 2.32z"/><path id="q" d="M5.358-2.045c0-1.1-.885-1.962-2.033-2.165 1.04-.299 1.71-1.172 1.71-2.105 0-.945-.98-1.638-2.14-1.638-1.197 0-2.082.73-2.082 1.602 0 .479.371.574.55.574.252 0 .539-.18.539-.538 0-.383-.287-.55-.55-.55-.072 0-.096 0-.132.012.454-.813 1.579-.813 1.638-.813.395 0 1.173.179 1.173 1.351 0 .227-.036.897-.383 1.411-.359.527-.766.563-1.089.574l-.358.036c-.204.012-.252.024-.252.132 0 .12.06.12.276.12h.55c1.016 0 1.47.837 1.47 1.985 0 1.567-.812 1.985-1.399 1.985-.574 0-1.554-.275-1.901-1.064.383.06.73-.156.73-.586a.565.565 0 0 0-.587-.586c-.287 0-.598.167-.598.622C.49-.622 1.555.25 2.882.25c1.424 0 2.476-1.088 2.476-2.296"/><path id="r" d="M5.262-2.01H5c-.036.204-.131.862-.25 1.053-.085.108-.766.108-1.125.108H1.41c.323-.275 1.053-1.04 1.364-1.328 1.818-1.674 2.487-2.296 2.487-3.48 0-1.375-1.088-2.296-2.475-2.296S.586-6.77.586-5.741c0 .61.526.61.562.61.251 0 .562-.18.562-.562 0-.335-.227-.562-.562-.562-.107 0-.131 0-.167.012.227-.813.873-1.364 1.65-1.364 1.017 0 1.639.85 1.639 1.95 0 1.017-.586 1.902-1.268 2.667L.586-.287V0h4.365z"/><path id="i" d="M8.276-7.822v-.347c-.31.024-.956.024-1.291.024-.347 0-.993 0-1.304-.024v.347c1.136 0 1.136.562 1.136.885v4.186c0 1.675-1.136 2.655-2.26 2.655-.718 0-1.962-.478-1.962-2.571V-7.26c0-.442.036-.562.897-.562h.24v-.347c-.288.024-1.268.024-1.615.024-.359 0-1.34 0-1.627-.024v.347h.24c.86 0 .897.12.897.562v4.521c0 1.734 1.387 2.99 2.906 2.99C6.195.251 7.14-1.375 7.14-2.57v-4.521c0-.73.921-.73 1.136-.73"/><path id="e" d="M5.74-6.028v-.79c0-.37-.071-.49-.478-.49h-4.4c-.168 0-.491 0-.491.347s.323.347.49.347h.359v5.92H.86c-.167 0-.49 0-.49.347S.694 0 .86 0h1.71c.168 0 .479 0 .479-.347s-.311-.347-.479-.347h-.574v-2.619h1.627c0 .419 0 .646.395.646.382 0 .382-.275.382-.49v-1.005c0-.215 0-.49-.382-.49-.395 0-.395.227-.395.645H1.997v-2.607h2.966v.586c0 .215 0 .49.383.49.395 0 .395-.263.395-.49"/><path id="d" d="M5.179-.347c0-.347-.323-.347-.49-.347H3.635V-6.96c0-.18 0-.49-.347-.49-.203 0-.275.108-.347.263-.227.514-.622 1.148-1.256 1.196-.179.012-.43.036-.43.347 0 .203.12.347.383.347.67 0 1.184-.503 1.22-.527v5.131H1.805c-.167 0-.49 0-.49.347s.323.347.49.347h2.882c.168 0 .49 0 .49-.347"/><path id="c" d="M5.705-3.648c0-.394-.37-.394-.538-.394H3.468v-1.71c0-.156 0-.539-.382-.539-.395 0-.395.37-.395.538v1.71H.981c-.156 0-.538 0-.538.383 0 .395.37.395.538.395h1.71v1.71c0 .156 0 .538.383.538.394 0 .394-.37.394-.538v-1.71h1.699c.155 0 .538 0 .538-.383"/><path id="f" d="M5.514-2.308c0-1.4-1.041-2.452-2.285-2.452-.61 0-1.291.227-1.806.777.12-1.578 1.16-2.774 2.332-2.774.24 0 .515.035.694.227-.048.06-.096.12-.096.299 0 .227.168.478.479.478s.49-.227.49-.502c0-.634-.49-1.196-1.555-1.196-1.566 0-3.133 1.459-3.133 3.875C.634-.694 1.96.144 3.098.144a2.417 2.417 0 0 0 2.416-2.452m-.778 0c0 1.04-.777 1.758-1.638 1.758-1.089 0-1.412-1.077-1.543-1.639-.036-.143-.036-.263-.036-.478 0-.694.646-1.387 1.626-1.387.933 0 1.591.8 1.591 1.746"/><path id="h" d="M5.537-.49v-.252c0-.215 0-.49-.382-.49-.395 0-.395.251-.395.538H1.878L4.162-2.63c.168-.144 1.375-1.172 1.375-2.5 0-1.363-1.124-2.32-2.619-2.32C1.531-7.451.61-6.411.61-5.406a.49.49 0 0 0 .49.538.48.48 0 0 0 .479-.49c0-.227-.084-.3-.144-.347.168-.634.718-1.052 1.411-1.052 1.017 0 1.914.586 1.914 1.626 0 .933-.706 1.65-1.351 2.213L.777-.634C.646-.526.61-.49.61-.347.61 0 .933 0 1.1 0h4.174c.263-.072.263-.311.263-.49"/><path id="b" d="M6.064-6.96c0-.348-.323-.348-.49-.348H4.15c-.167 0-.49 0-.49.347s.323.347.49.347h.323V-2.5c0 1.304-.777 1.95-1.4 1.95-.633 0-1.399-.658-1.399-1.95v-4.114h.323c.168 0 .49 0 .49-.347s-.322-.347-.49-.347H.574c-.167 0-.49 0-.49.347s.323.347.49.347h.323v4.186C.897-.98 1.89.144 3.074.144S5.25-.981 5.25-2.428v-4.186h.323c.168 0 .49 0 .49-.347"/><path id="g" d="M5.55-3.648c0-2.224-1.185-3.803-2.476-3.803C1.77-7.451.598-5.848.598-3.66.598-1.435 1.782.144 3.074.144c1.303 0 2.475-1.603 2.475-3.792m-.778-.131c0 1.77-.753 3.229-1.698 3.229S1.375-1.997 1.375-3.78s.826-2.977 1.699-2.977S4.772-5.561 4.772-3.78"/><path id="a" d="M2.186-5.911q0-1.79.681-3.363.681-1.581 1.884-2.783 1.202-1.211 2.783-1.892 1.589-.681 3.397-.681t3.388.68q1.59.682 2.792 1.893 1.202 1.202 1.883 2.783.681 1.572.681 3.363l-.68-.219q0-1.496-.623-2.892-.614-1.404-1.724-2.514-1.101-1.118-2.564-1.766-1.463-.656-3.153-.656t-3.153.656q-1.463.648-2.573 1.766-1.102 1.11-1.724 2.514-.614 1.396-.614 2.892zm.067 3.346q.58 0 .917-.445t.58-1.556q.11-.487.202-.807.092-.328.202-.614-1.43.169-2.237.766-.799.588-.799 1.48 0 .554.295.865.302.311.84.311m-.016.614q-.8 0-1.27-.47-.463-.48-.463-1.295 0-1.32 1.17-2.077 1.176-.757 3.354-.85-.235.564-.387 1.043-.151.471-.31 1.144-.312 1.345-.8 1.925t-1.294.58m8.694 4.81q-1.808 0-3.397-.681Q5.953 1.497 4.75.294 3.548-.9 2.876-2.464l.613-.294q.614 1.455 1.724 2.573 1.11 1.11 2.573 1.74 1.471.631 3.145.631 1.681 0 3.144-.63t2.573-1.741q1.119-1.118 1.724-2.573l.614.294Q18.32-.9 17.11.294q-1.203 1.203-2.792 1.884-1.58.68-3.388.68M6.01-6.987l-.445-.387q.749-1.135 1.9-1.135 1.144 0 1.91 1.135l-.446.387q-.59-.891-1.464-.891-.857 0-1.454.89m-.958-1.631-.513-.278q.774-1.43 2.666-1.993l.202.555q-.85.253-1.43.673-.572.42-.925 1.043m7.879 1.63-.446-.386q.765-1.135 1.909-1.135 1.152 0 1.9 1.135l-.446.387q-.597-.891-1.454-.891-.875 0-1.463.89m6.693 5.037q-.807 0-1.295-.58-.48-.58-.799-1.925-.16-.673-.311-1.144-.151-.48-.387-1.042 2.186.092 3.355.849t1.169 2.077q0 .815-.471 1.294-.462.471-1.261.471m-.017-.614q.538 0 .832-.31.303-.312.303-.867 0-.89-.807-1.48-.799-.596-2.228-.765.109.286.201.614.093.32.202.807.244 1.11.58 1.556t.917.445m-2.8-6.053q-.353-.623-.933-1.043-.572-.42-1.421-.673l.201-.555q1.892.564 2.666 1.993zM10.931-.48q1.143 0 2.152-.387-1.093-.597-2.152-.597t-2.153.597q1.01.387 2.153.387m0 .462q-1.051 0-2.077-.336-1.018-.336-1.85-.9-.824-.563-1.32-1.253-.496-.698-.496-1.404 0-.345.151-.487.152-.152.412-.152.194 0 .429.042.235.034.538.101.807.185 1.926.32 1.126.134 2.287.134t2.278-.134q1.127-.135 1.943-.32.302-.067.538-.1.235-.043.42-.043.27 0 .42.152.152.142.152.487 0 .706-.496 1.404-.496.69-1.329 1.253T13-.353q-1.017.336-2.068.336m0-2.8q.79 0 1.69-.059.9-.067 1.8-.201.899-.143 1.68-.354v-.462q0-.118-.083-.143-.076-.034-.185-.008-.673.16-1.53.286t-1.741.201q-.875.068-1.631.068-.749 0-1.632-.068-.882-.075-1.74-.201-.85-.127-1.53-.286-.11-.026-.194.008-.075.025-.075.143v.462q.782.21 1.681.354.9.134 1.8.201.908.06 1.69.06"/></defs><use xlink:href="#a" x="-35.143388" y="-47.947808" transform="matrix(1.00027 0 0 1.00027 61.072 77.882)"/><g transform="translate(50.457 98.328)scale(1.0004)"><use xlink:href="#b" x="-35.148106" y="-47.954246"/><use xlink:href="#c" x="-28.988704" y="-47.954246"/><use xlink:href="#d" x="-22.829302" y="-47.954246"/><use xlink:href="#e" x="-16.669902" y="-47.954246"/><use xlink:href="#f" x="-10.510501" y="-47.954246"/><use xlink:href="#g" x="-4.363061" y="-47.954246"/><use xlink:href="#h" x="1.796339" y="-47.954246"/></g><g transform="translate(123.024 75.65)scale(1.0004)"><use xlink:href="#i" x="-35.148106" y="-47.954246"/><use xlink:href="#j" x="-26.369466" y="-47.954246"/><use xlink:href="#k" x="-17.913745" y="-47.954246"/><use xlink:href="#l" x="-10.271303" y="-47.954246"/><use xlink:href="#m" x="-6.372344" y="-47.954246"/><use xlink:href="#n" x="5.348457" y="-47.954246"/><use xlink:href="#d" x="17.970214" y="-47.954246"/><use xlink:href="#d" x="24.129614" y="-47.954246"/><use xlink:href="#d" x="30.289016" y="-47.954246"/><use xlink:href="#d" x="36.448418" y="-47.954246"/><use xlink:href="#g" x="42.607819" y="-47.954246"/><use xlink:href="#g" x="48.76722" y="-47.954246"/><use xlink:href="#g" x="54.926621" y="-47.954246"/><use xlink:href="#g" x="61.086022" y="-47.954246"/></g><g fill="none" stroke="#000" stroke-miterlimit="10" stroke-width=".3985"><path d="M137.6 17.079h56.03M137.799 31.047V17.079M193.431 31.047V17.079M137.6 31.047h56.03"/></g><g transform="translate(123.024 75.65)scale(1.0004)"><use xlink:href="#d" x="78.009308" y="-47.954246"/><use xlink:href="#g" x="84.168709" y="-47.954246"/><use xlink:href="#g" x="90.32811" y="-47.954246"/><use xlink:href="#d" x="96.487511" y="-47.954246"/><use xlink:href="#d" x="102.646906" y="-47.954246"/><use xlink:href="#d" x="108.806308" y="-47.954246"/><use xlink:href="#d" x="114.96571" y="-47.954246"/><use xlink:href="#d" x="121.125112" y="-47.954246"/></g><g fill="none" stroke="#000" stroke-miterlimit="10" stroke-width=".3985"><path d="M197.615 17.079h56.029M197.814 31.047V17.079M253.445 31.047V17.079M197.615 31.047h56.029"/></g><g transform="translate(123.024 75.65)scale(1.0004)"><use xlink:href="#d" x="138.047404" y="-47.954246"/><use xlink:href="#g" x="144.206806" y="-47.954246"/><use xlink:href="#g" x="150.366198" y="-47.954246"/><use xlink:href="#d" x="156.52559" y="-47.954246"/><use xlink:href="#d" x="162.684982" y="-47.954246"/><use xlink:href="#g" x="168.844374" y="-47.954246"/><use xlink:href="#g" x="175.003776" y="-47.954246"/><use xlink:href="#g" x="181.163168" y="-47.954246"/></g><g fill="none" stroke="#000" stroke-miterlimit="10" stroke-width=".3985"><path d="M257.629 17.079h56.03M257.828 31.047V17.079M313.46 31.047V17.079M257.629 31.047h56.03"/></g><g transform="translate(123.024 75.65)scale(1.0004)"><use xlink:href="#d" x="198.0865" y="-47.954246"/><use xlink:href="#g" x="204.245902" y="-47.954246"/><use xlink:href="#g" x="210.405294" y="-47.954246"/><use xlink:href="#g" x="216.564686" y="-47.954246"/><use xlink:href="#g" x="222.724078" y="-47.954246"/><use xlink:href="#g" x="228.88347" y="-47.954246"/><use xlink:href="#d" x="235.042862" y="-47.954246"/><use xlink:href="#g" x="241.202264" y="-47.954246"/></g><g fill="none" stroke="#000" stroke-miterlimit="10" stroke-width=".3985"><path d="M317.644 17.079h56.029M317.843 31.047V17.079M373.474 31.047V17.079M317.644 31.047h56.029"/></g><g transform="translate(123.024 99.561)scale(1.0004)"><use xlink:href="#i" x="-35.148106" y="-47.954246"/><use xlink:href="#j" x="-26.369466" y="-47.954246"/><use xlink:href="#k" x="-17.913745" y="-47.954246"/><use xlink:href="#l" x="-10.271303" y="-47.954246"/><use xlink:href="#o" x="-6.372344" y="-47.954246"/><use xlink:href="#p" x="-.511943" y="-47.954246"/><use xlink:href="#n" x="5.348457" y="-47.954246"/><use xlink:href="#d" x="17.970214" y="-47.954246"/><use xlink:href="#d" x="24.129614" y="-47.954246"/><use xlink:href="#g" x="30.289016" y="-47.954246"/><use xlink:href="#d" x="36.448418" y="-47.954246"/><use xlink:href="#d" x="42.607819" y="-47.954246"/><use xlink:href="#g" x="48.76722" y="-47.954246"/><use xlink:href="#g" x="54.926621" y="-47.954246"/><use xlink:href="#g" x="61.086022" y="-47.954246"/><use xlink:href="#g" x="78.033338" y="-47.954246"/><use xlink:href="#g" x="84.19274" y="-47.954246"/><use xlink:href="#d" x="90.352142" y="-47.954246"/><use xlink:href="#d" x="96.511544" y="-47.954246"/><use xlink:href="#d" x="102.670946" y="-47.954246"/><use xlink:href="#d" x="108.830348" y="-47.954246"/><use xlink:href="#g" x="114.989749" y="-47.954246"/><use xlink:href="#d" x="121.14915" y="-47.954246"/></g><g fill="none" stroke="#000" stroke-miterlimit="10" stroke-width=".3985"><path d="M137.6 40.99h116.073M137.799 54.958V40.99M253.474 54.958V40.99M137.6 54.958h116.073"/></g><g transform="translate(123.024 99.561)scale(1.0004)"><use xlink:href="#d" x="138.076415" y="-47.954246"/><use xlink:href="#d" x="144.235807" y="-47.954246"/><use xlink:href="#g" x="150.395199" y="-47.954246"/><use xlink:href="#d" x="156.554591" y="-47.954246"/><use xlink:href="#d" x="162.713983" y="-47.954246"/><use xlink:href="#d" x="168.873375" y="-47.954246"/><use xlink:href="#d" x="175.032777" y="-47.954246"/><use xlink:href="#g" x="181.192169" y="-47.954246"/><use xlink:href="#g" x="198.139471" y="-47.954246"/><use xlink:href="#g" x="204.298873" y="-47.954246"/><use xlink:href="#g" x="210.458265" y="-47.954246"/><use xlink:href="#g" x="216.617657" y="-47.954246"/><use xlink:href="#g" x="222.777049" y="-47.954246"/><use xlink:href="#g" x="228.936441" y="-47.954246"/><use xlink:href="#d" x="235.095833" y="-47.954246"/><use xlink:href="#g" x="241.255225" y="-47.954246"/></g><g fill="none" stroke="#000" stroke-miterlimit="10" stroke-width=".3985"><path d="M257.658 40.99H373.73M257.857 54.958V40.99M373.531 54.958V40.99M257.658 54.958H373.73"/></g><g transform="translate(123.024 123.472)scale(1.0004)"><use xlink:href="#i" x="-35.148106" y="-47.954246"/><use xlink:href="#j" x="-26.369466" y="-47.954246"/><use xlink:href="#k" x="-17.913745" y="-47.954246"/><use xlink:href="#l" x="-10.271303" y="-47.954246"/><use xlink:href="#q" x="-6.372344" y="-47.954246"/><use xlink:href="#r" x="-.511943" y="-47.954246"/><use xlink:href="#n" x="5.348457" y="-47.954246"/><use xlink:href="#g" x="17.970214" y="-47.954246"/><use xlink:href="#g" x="24.129614" y="-47.954246"/><use xlink:href="#g" x="30.289016" y="-47.954246"/><use xlink:href="#g" x="36.448418" y="-47.954246"/><use xlink:href="#g" x="42.607819" y="-47.954246"/><use xlink:href="#g" x="48.76722" y="-47.954246"/><use xlink:href="#g" x="54.926621" y="-47.954246"/><use xlink:href="#g" x="61.086022" y="-47.954246"/><use xlink:href="#g" x="78.033338" y="-47.954246"/><use xlink:href="#g" x="84.19274" y="-47.954246"/><use xlink:href="#g" x="90.352142" y="-47.954246"/><use xlink:href="#g" x="96.511544" y="-47.954246"/><use xlink:href="#g" x="102.670946" y="-47.954246"/><use xlink:href="#g" x="108.830348" y="-47.954246"/><use xlink:href="#g" x="114.989749" y="-47.954246"/><use xlink:href="#d" x="121.14915" y="-47.954246"/><use xlink:href="#d" x="138.096473" y="-47.954246"/><use xlink:href="#d" x="144.255865" y="-47.954246"/><use xlink:href="#d" x="150.415257" y="-47.954246"/><use xlink:href="#d" x="156.574649" y="-47.954246"/><use xlink:href="#g" x="162.734041" y="-47.954246"/><use xlink:href="#d" x="168.893443" y="-47.954246"/><use xlink:href="#d" x="175.052835" y="-47.954246"/><use xlink:href="#g" x="181.212227" y="-47.954246"/><use xlink:href="#g" x="198.171504" y="-47.954246"/><use xlink:href="#g" x="204.330896" y="-47.954246"/><use xlink:href="#g" x="210.490278" y="-47.954246"/><use xlink:href="#g" x="216.64968" y="-47.954246"/><use xlink:href="#g" x="222.809072" y="-47.954246"/><use xlink:href="#g" x="228.968464" y="-47.954246"/><use xlink:href="#d" x="235.127866" y="-47.954246"/><use xlink:href="#g" x="241.287258" y="-47.954246"/></g><g fill="none" stroke="#000" stroke-miterlimit="10" stroke-width=".3985"><path d="M137.6 64.901h236.159M137.799 78.869V64.901M373.56 78.869V64.901M137.6 78.869h236.159"/></g></svg>