<svg xmlns="http://www.w3.org/2000/svg" xmlns:xlink="http://www.w3.org/1999/xlink" width="197.03pt" height="100.59pt" viewBox="0 0 197.03 100.59"><defs><path id="h" d="M6.088-.347c0-.347-.311-.347-.479-.347-.31 0-.55-.024-.717-.095v-2.608c0-.909-.682-1.865-2.297-1.865-.502 0-1.662 0-1.662.825 0 .323.227.502.49.502.072 0 .467-.024.479-.526 0-.06.012-.072.263-.096.143-.012.299-.012.442-.012.275 0 .682 0 1.077.3.43.334.43.669.43 1.016-.705.024-1.4.072-2.14.31C1.374-2.738.61-2.307.61-1.494c0 .85.753 1.567 1.866 1.567.382 0 1.124-.06 1.746-.49.24.394.837.418 1.292.418.287 0 .574 0 .574-.347M4.114-1.579c0 .275 0 .527-.49.754-.419.203-.98.203-1.017.203-.705 0-1.22-.383-1.22-.873 0-.706 1.28-1.112 2.727-1.112z"/><path id="r" d="M3.755-4.473a.68.68 0 0 0-.67-.682.674.674 0 0 0-.681.682c0 .359.31.67.67.67a.68.68 0 0 0 .681-.67m0 3.803a.68.68 0 0 0-.67-.681.674.674 0 0 0-.681.681c0 .359.31.67.67.67a.68.68 0 0 0 .681-.67"/><path id="i" d="M5.705-4.557c0-.394-.395-.394-.574-.394H1.017c-.18 0-.574 0-.574.394 0 .383.37.383.514.383H5.19c.155 0 .514 0 .514-.383m0 1.806c0-.383-.37-.383-.514-.383H.957c-.156 0-.514 0-.514.383 0 .395.394.395.574.395H5.13c.18 0 .574 0 .574-.395"/><path id="j" d="M5.179-.347c0-.347-.323-.347-.49-.347H3.635V-6.96c0-.18 0-.49-.347-.49-.203 0-.275.108-.347.263-.227.514-.622 1.148-1.256 1.196-.179.012-.43.036-.43.347 0 .203.12.347.383.347.67 0 1.184-.503 1.22-.527v5.131H1.805c-.167 0-.49 0-.49.347s.323.347.49.347h2.882c.168 0 .49 0 .49-.347"/><path id="k" d="M5.705-3.648c0-.394-.37-.394-.538-.394H3.468v-1.71c0-.156 0-.539-.382-.539-.395 0-.395.37-.395.538v1.71H.981c-.156 0-.538 0-.538.383 0 .395.37.395.538.395h1.71v1.71c0 .156 0 .538.383.538.394 0 .394-.37.394-.538v-1.71h1.699c.155 0 .538 0 .538-.383"/><path id="l" d="M5.537-.49v-.252c0-.215 0-.49-.382-.49-.395 0-.395.251-.395.538H1.878L4.162-2.63c.168-.144 1.375-1.172 1.375-2.5 0-1.363-1.124-2.32-2.619-2.32C1.531-7.451.61-6.411.61-5.406a.49.49 0 0 0 .49.538.48.48 0 0 0 .479-.49c0-.227-.084-.3-.144-.347.168-.634.718-1.052 1.411-1.052 1.017 0 1.914.586 1.914 1.626 0 .933-.706 1.65-1.351 2.213L.777-.634C.646-.526.61-.49.61-.347.61 0 .933 0 1.1 0h4.174c.263-.072.263-.311.263-.49"/><path id="u" d="M5.27-.971v-.611h-.273v.611c0 .633-.273.698-.393.698-.36 0-.404-.49-.404-.545V-3c0-.458 0-.884-.392-1.288a2.08 2.08 0 0 0-1.495-.6c-.895 0-1.647.513-1.647 1.233 0 .327.218.513.501.513a.48.48 0 0 0 .502-.502c0-.13-.054-.49-.556-.502.294-.382.829-.502 1.178-.502.535 0 1.157.426 1.157 1.397v.403c-.557.033-1.32.066-2.008.393-.818.371-1.09.939-1.09 1.419C.35-.153 1.406.12 2.094.12a1.51 1.51 0 0 0 1.429-.95c.044.437.338.895.85.895.23 0 .896-.152.896-1.036m-1.822-.556C3.448-.491 2.662-.12 2.17-.12c-.534 0-.982-.382-.982-.927 0-.6.458-1.506 2.259-1.571z"/><path id="w" d="M4.528-1.298c0-.11-.11-.11-.142-.11-.098 0-.12.044-.142.11C3.928-.284 3.218-.153 2.814-.153c-.577 0-1.538-.469-1.538-2.225 0-1.779.895-2.237 1.473-2.237.099 0 .786.011 1.168.404-.448.032-.513.36-.513.502 0 .283.196.501.502.501.283 0 .502-.185.502-.512 0-.742-.83-1.168-1.67-1.168-1.363 0-2.367 1.179-2.367 2.531C.37-.96 1.45.12 2.717.12c1.462 0 1.81-1.31 1.81-1.418"/><path id="t" d="M4.528-1.298c0-.11-.088-.131-.142-.131-.098 0-.12.065-.142.153C3.862-.153 2.88-.153 2.771-.153c-.545 0-.982-.327-1.233-.73-.327-.524-.327-1.244-.327-1.637h3.044c.24 0 .273 0 .273-.23 0-1.08-.59-2.138-1.953-2.138-1.266 0-2.27 1.124-2.27 2.488 0 1.462 1.146 2.52 2.4 2.52 1.332 0 1.823-1.211 1.823-1.418m-.72-1.451H1.222c.065-1.626.982-1.899 1.353-1.899 1.123 0 1.233 1.473 1.233 1.899"/><path id="x" d="M5.837 0v-.338c-.567 0-.84 0-.851-.328v-2.083c0-.939 0-1.277-.338-1.67-.153-.185-.513-.403-1.146-.403-.916 0-1.396.654-1.57 1.047H1.92v-3.797l-1.57.12v.339c.763 0 .85.076.85.61v5.674c0 .49-.12.49-.85.49V0l1.232-.033L2.804 0v-.338c-.731 0-.851 0-.851-.491v-2.008c0-1.134.775-1.745 1.473-1.745.687 0 .807.589.807 1.21v2.543c0 .49-.12.49-.85.49V0l1.232-.033z"/><path id="v" d="M3.971-4.157c0-.349-.338-.665-.807-.665-.797 0-1.19.73-1.342 1.2v-1.2l-1.517.12v.338c.764 0 .851.076.851.611v2.924c0 .49-.12.49-.85.49V0l1.243-.033c.437 0 .95 0 1.386.033v-.338h-.23c-.807 0-.828-.12-.828-.513v-1.68c0-1.08.458-2.051 1.287-2.051.076 0 .098 0 .12.01a.47.47 0 0 0-.251.426c0 .306.23.47.47.47.195 0 .468-.132.468-.48"/><path id="s" d="M3.928-1.396c0-.579-.328-.906-.459-1.037-.36-.35-.785-.436-1.243-.524-.611-.12-1.342-.261-1.342-.894 0-.382.283-.83 1.222-.83 1.2 0 1.254.983 1.276 1.32.011.099.131.099.131.099.142 0 .142-.055.142-.262v-1.102c0-.185 0-.262-.12-.262-.055 0-.077 0-.218.131a1.4 1.4 0 0 1-.186.175c-.414-.306-.862-.306-1.025-.306C.775-4.888.36-4.157.36-3.546c0 .382.175.688.47.928.348.283.654.349 1.44.501.24.044 1.134.219 1.134 1.004 0 .557-.382.993-1.233.993-.916 0-1.31-.622-1.516-1.55C.622-1.81.61-1.854.502-1.854c-.142 0-.142.077-.142.273v1.44C.36.044.36.12.48.12.535.12.546.11.753-.098.775-.12.775-.142.97-.35c.48.458.971.469 1.2.469 1.255 0 1.757-.731 1.757-1.516"/><path id="e" d="M5.084-1.19c0-.305-.316-.305-.382-.305-.174 0-.283.022-.36.24-.065.142-.273.655-1.08.655-.927 0-1.713-.764-1.713-1.757 0-.523.306-1.778 1.779-1.778.229 0 .654 0 .654.098.011.382.218.535.48.535s.491-.186.491-.502c0-.796-1.135-.796-1.625-.796C1.45-4.8.796-3.317.796-2.357c0 1.31 1.026 2.422 2.4 2.422 1.517 0 1.888-1.069 1.888-1.254"/><path id="g" d="M5.586-.338c0-.328-.284-.328-.436-.328h-.491v-5.553c0-.338-.066-.447-.437-.447h-.796c-.175 0-.448 0-.448.338 0 .328.284.328.437.328h.49v1.723a1.93 1.93 0 0 0-1.276-.49C1.44-4.768.393-3.732.393-2.347.393-.993 1.375.065 2.53.065c.611 0 1.07-.294 1.375-.61 0 .392 0 .545.436.545h.797c.174 0 .447 0 .447-.338m-1.68-1.779c0 .611-.491 1.517-1.331 1.517-.775 0-1.43-.775-1.43-1.746 0-1.047.764-1.756 1.528-1.756.698 0 1.233.61 1.233 1.21z"/><path id="f" d="M5.062-1.19c0-.305-.316-.305-.382-.305-.196 0-.283.033-.36.24-.24.557-.829.655-1.134.655-.819 0-1.637-.546-1.811-1.484h3.25c.23 0 .437 0 .437-.403 0-1.244-.698-2.313-2.116-2.313C1.647-4.8.6-3.71.6-2.367.6-1.037 1.702.065 3.11.065c1.44 0 1.952-.981 1.952-1.254m-.774-1.548H1.386c.152-.797.796-1.397 1.56-1.397.567 0 1.243.273 1.342 1.397"/><path id="o" d="M4.964-.327c0-.339-.284-.339-.447-.339H3.37v-3.589c0-.338-.065-.447-.436-.447h-1.55c-.163 0-.447 0-.447.327 0 .338.284.338.448.338h1.232v3.371h-1.32c-.174 0-.447 0-.447.339 0 .327.284.327.447.327h3.219c.163 0 .447 0 .447-.327m-1.55-5.728c0-.306-.24-.546-.545-.546s-.545.24-.545.546.24.545.545.545.546-.24.546-.545"/><path id="p" d="M5.63-.327c0-.339-.23-.339-.622-.339v-2.64c0-.218 0-1.462-.971-1.462-.328 0-.775.142-1.08.568-.164-.371-.47-.568-.83-.568-.349 0-.676.153-.938.393-.022-.327-.24-.327-.436-.327h-.35c-.163 0-.447 0-.447.327 0 .338.23.338.622.338v3.371c-.393 0-.622 0-.622.339C-.044 0 .251 0 .404 0h.96c.163 0 .447 0 .447-.327 0-.339-.229-.339-.622-.339v-1.952c0-.971.448-1.484.895-1.484.25 0 .403.185.403.894v2.542c-.207 0-.48 0-.48.339 0 .327.295.327.448.327h.818c.164 0 .447 0 .447-.327 0-.339-.229-.339-.622-.339v-1.952c0-.971.448-1.484.895-1.484.251 0 .404.185.404.894v2.542c-.208 0-.48 0-.48.339 0 .327.294.327.447.327h.818c.164 0 .448 0 .448-.327"/><path id="m" d="M5.586-.327c0-.339-.273-.339-.447-.339h-.48v-2.53c0-1.103-.557-1.572-1.419-1.572-.73 0-1.222.371-1.429.579 0-.35 0-.513-.436-.513H.578c-.174 0-.447 0-.447.338 0 .327.284.327.436.327h.491v3.371h-.48c-.174 0-.447 0-.447.339C.13 0 .415 0 .567 0h1.735c.153 0 .436 0 .436-.327 0-.339-.272-.339-.447-.339h-.48v-1.93c0-1.092.807-1.506 1.364-1.506.578 0 .73.305.73.96v2.476H3.48c-.174 0-.447 0-.447.339 0 .327.295.327.447.327h1.67c.152 0 .436 0 .436-.327"/><path id="b" d="M5.095-2.357C5.095-3.72 4.08-4.8 2.858-4.8S.622-3.72.622-2.357C.622-.97 1.658.065 2.858.065S5.095-.982 5.095-2.357m-.753-.076C4.342-1.418 3.666-.6 2.858-.6s-1.483-.818-1.483-1.833c0-.993.709-1.702 1.483-1.702.786 0 1.484.71 1.484 1.702"/><path id="d" d="M5.313-4.091c0-.218-.13-.677-1.036-.677-.557 0-1.255.197-1.855.884v-.37c0-.34-.065-.448-.436-.448h-1.2c-.164 0-.437 0-.437.327 0 .338.262.338.437.338h.883v3.371H.786c-.164 0-.437 0-.437.328C.35 0 .611 0 .786 0h2.847c.164 0 .447 0 .447-.327 0-.339-.283-.339-.447-.339H2.422v-1.363c0-1.026.644-2.073 1.964-2.073.01.262.196.48.469.48a.45.45 0 0 0 .458-.47"/><path id="a" d="M5.008-1.364c0-1.134-1.408-1.363-1.757-1.418l-.742-.131c-.316-.044-1.058-.175-1.058-.6 0-.284.35-.622 1.386-.622.905 0 1.058.327 1.09.611.012.186.033.371.372.371.381 0 .381-.23.381-.447v-.753c0-.175 0-.447-.327-.447-.262 0-.305.152-.327.229-.48-.23-.96-.23-1.168-.23-1.822 0-2.072.895-2.072 1.288 0 1.004 1.145 1.19 2.149 1.342.534.087 1.407.229 1.407.807 0 .404-.403.764-1.396.764-.513 0-1.124-.12-1.397-.971-.054-.196-.098-.316-.382-.316-.381 0-.381.229-.381.447v1.058c0 .175 0 .447.327.447.098 0 .273-.01.403-.414.535.393 1.113.414 1.419.414 1.724 0 2.073-.905 2.073-1.429"/><path id="q" d="M4.899-1.375c0-.196 0-.425-.382-.425-.36 0-.371.229-.371.414-.011.677-.633.786-.884.786-.84 0-.84-.567-.84-.84v-2.597h1.79c.163 0 .436 0 .436-.327 0-.338-.262-.338-.437-.338H2.422v-.895c0-.207 0-.447-.37-.447-.383 0-.383.229-.383.447v.895H.72c-.174 0-.447 0-.447.338 0 .327.272.327.436.327h.96v2.662c0 1.048.742 1.44 1.539 1.44.807 0 1.69-.469 1.69-1.44"/><path id="c" d="M5.586-.338c0-.328-.284-.328-.436-.328h-.491v-3.589c0-.338-.066-.447-.437-.447h-.796c-.175 0-.448 0-.448.338 0 .327.284.327.437.327h.49v2.324C3.906-.73 3.023-.6 2.674-.6c-.862 0-.862-.36-.862-.71v-2.945c0-.338-.065-.447-.436-.447H.578c-.174 0-.447 0-.447.338 0 .327.284.327.436.327h.491v2.793c0 1.048.753 1.31 1.55 1.31.447 0 .894-.11 1.298-.415.01.349.24.349.436.349h.797c.174 0 .447 0 .447-.338"/><path id="n" d="M5.455-4.364c0-.338-.262-.338-.436-.338H3.742c-.164 0-.436 0-.436.327 0 .338.262.338.436.338h.306L2.858-.524 1.67-4.037h.306c.163 0 .436 0 .436-.327 0-.338-.262-.338-.436-.338H.698c-.174 0-.436 0-.436.338 0 .327.273.327.436.327h.328L2.28-.327c.131.37.35.37.578.37.208 0 .459 0 .579-.36l1.254-3.72h.328c.163 0 .436 0 .436-.327"/></defs><g transform="translate(61.84 49.397)scale(1.00008)"><use xlink:href="#a" x="-46.520838" y="-27.410261"/><use xlink:href="#b" x="-40.793085" y="-27.410261"/><use xlink:href="#c" x="-35.065333" y="-27.410261"/><use xlink:href="#d" x="-29.337582" y="-27.410261"/><use xlink:href="#e" x="-23.609832" y="-27.410261"/><use xlink:href="#f" x="-17.882081" y="-27.410261"/><use xlink:href="#e" x="-6.42658" y="-27.410261"/><use xlink:href="#b" x="-.69883" y="-27.410261"/><use xlink:href="#g" x="5.02892" y="-27.410261"/><use xlink:href="#f" x="10.75667" y="-27.410261"/></g><g transform="translate(76.184 75.688)scale(1.0004)"><use xlink:href="#h" x="-46.535677" y="-27.419004"/><use xlink:href="#i" x="-34.216873" y="-27.419004"/><use xlink:href="#j" x="-21.898072" y="-27.419004"/></g><g transform="translate(76.184 104.035)scale(1.0004)"><use xlink:href="#h" x="-46.535677" y="-27.419004"/><use xlink:href="#k" x="-34.216873" y="-27.419004"/><use xlink:href="#l" x="-21.898072" y="-27.419004"/></g><g transform="translate(165.226 49.364)scale(1.00008)"><use xlink:href="#f" x="-46.520838" y="-27.410261"/><use xlink:href="#m" x="-40.793085" y="-27.410261"/><use xlink:href="#n" x="-35.065333" y="-27.410261"/><use xlink:href="#o" x="-29.337582" y="-27.410261"/><use xlink:href="#d" x="-23.609832" y="-27.410261"/><use xlink:href="#b" x="-17.882081" y="-27.410261"/><use xlink:href="#m" x="-12.154331" y="-27.410261"/><use xlink:href="#p" x="-6.42658" y="-27.410261"/><use xlink:href="#f" x="-.69883" y="-27.410261"/><use xlink:href="#m" x="5.02892" y="-27.410261"/><use xlink:href="#q" x="10.75667" y="-27.410261"/></g><g transform="translate(181.025 74.889)scale(1.0004)"><use xlink:href="#h" x="-43.146316" y="-27.419004"/><use xlink:href="#r" x="-36.986918" y="-27.419004"/><use xlink:href="#j" x="-24.680075" y="-27.419004"/></g><g fill="none" stroke="#000" stroke-miterlimit="10" stroke-width=".3985"><path d="M134.508 34.18h31.403M134.708 55.002V34.18M165.711 55.002V34.18M134.508 55.002h31.403M64.636 72.939c39.685 0 45.887-28.347 62.019-28.347"/></g><path d="m129.756 44.592-4.468-1.682 1.466 1.682-1.466 1.682Z"/><path fill="none" stroke="#000" stroke-miterlimit="10" stroke-width=".3985" d="m129.756 44.592-4.468-1.682 1.466 1.682-1.466 1.682Z"/><g transform="translate(129.258 112.556)scale(1.00008)"><use xlink:href="#s" x="-46.520838" y="-27.410261"/><use xlink:href="#t" x="-42.222293" y="-27.410261"/><use xlink:href="#u" x="-37.378253" y="-27.410261"/><use xlink:href="#v" x="-31.923255" y="-27.410261"/><use xlink:href="#w" x="-27.646536" y="-27.410261"/><use xlink:href="#x" x="-23.097065" y="-27.410261"/></g></svg>