<svg xmlns="http://www.w3.org/2000/svg" xmlns:xlink="http://www.w3.org/1999/xlink" width="298.08pt" height="124.16pt" viewBox="0 0 298.08 124.16"><defs><path id="l" d="M6.088-.347c0-.347-.311-.347-.479-.347-.31 0-.55-.024-.717-.095v-2.608c0-.909-.682-1.865-2.297-1.865-.502 0-1.662 0-1.662.825 0 .323.227.502.49.502.072 0 .467-.024.479-.526 0-.06.012-.072.263-.096.143-.012.299-.012.442-.012.275 0 .682 0 1.077.3.43.334.43.669.43 1.016-.705.024-1.4.072-2.14.31C1.374-2.738.61-2.307.61-1.494c0 .85.753 1.567 1.866 1.567.382 0 1.124-.06 1.746-.49.24.394.837.418 1.292.418.287 0 .574 0 .574-.347M4.114-1.579c0 .275 0 .527-.49.754-.419.203-.98.203-1.017.203-.705 0-1.22-.383-1.22-.873 0-.706 1.28-1.112 2.727-1.112z"/><path id="m" d="M5.968-.347c0-.347-.31-.347-.478-.347H5v-6.123c0-.371-.072-.49-.48-.49h-.788c-.168 0-.479 0-.479.346s.311.347.479.347h.49v1.985c-.191-.19-.682-.598-1.411-.598C1.543-5.227.443-4.078.443-2.57c0 1.47 1.028 2.643 2.26 2.643.777 0 1.292-.467 1.519-.73 0 .503 0 .658.478.658h.79c.167 0 .478 0 .478-.347M4.222-2.272c0 .67-.55 1.65-1.447 1.65-.861 0-1.555-.873-1.555-1.95 0-1.148.813-1.96 1.662-1.96.778 0 1.34.705 1.34 1.327z"/><path id="r" d="M5.406-.347c0-.347-.311-.347-.478-.347h-1.46v-6.123c0-.371-.071-.49-.478-.49H1.232c-.168 0-.479 0-.479.346s.311.347.479.347H2.69v5.92h-1.46c-.167 0-.478 0-.478.347S1.064 0 1.232 0h3.696c.167 0 .478 0 .478-.347"/><path id="q" d="M5.454-2.583c0-1.495-1.089-2.68-2.38-2.68S.694-4.077.694-2.582c0 1.507 1.1 2.655 2.38 2.655s2.38-1.148 2.38-2.655m-.778-.084c0 1.148-.741 2.045-1.602 2.045S1.47-1.53 1.47-2.667c0-1.112.766-1.902 1.603-1.902s1.602.79 1.602 1.902"/><path id="p" d="M5.705-2.583c0-1.471-1.005-2.644-2.249-2.644-.873 0-1.423.527-1.53.646 0-.394 0-.574-.479-.574h-.79c-.167 0-.478 0-.478.347s.311.347.479.347h.49V1.96h-.49c-.168 0-.479 0-.479.347s.311.347.479.347h1.758c.167 0 .478 0 .478-.347s-.31-.347-.478-.347h-.49V-.598c.287.323.73.67 1.399.67 1.268 0 2.38-1.136 2.38-2.655m-.777 0c0 1.148-.814 1.961-1.663 1.961-.897 0-1.34-1.017-1.34-1.615v-.944c0-.682.67-1.352 1.448-1.352.86 0 1.555.873 1.555 1.95"/><path id="n" d="M5.119.682c0-.156-.084-.204-.251-.323C3.218-.777 2.81-2.488 2.81-3.648c0-1.136.382-2.858 2.057-4.018.167-.12.25-.168.25-.323 0-.12-.059-.311-.346-.311-.299 0-1.184.693-1.734 1.47a5.43 5.43 0 0 0-1.005 3.182c0 1.328.479 2.44.98 3.146C3.565.263 4.438.993 4.773.993c.287 0 .347-.204.347-.311"/><path id="o" d="M4.114-3.648c0-.933-.227-2.14-1.088-3.3-.407-.55-1.292-1.352-1.65-1.352-.276 0-.347.203-.347.31 0 .144.083.204.299.348 1.459 1.028 2.009 2.63 2.009 3.982C3.337-2.583 2.99-.825 1.28.36c-.156.107-.251.167-.251.323 0 .107.071.31.346.31.3 0 1.184-.693 1.735-1.47a5.5 5.5 0 0 0 1.004-3.17"/><path id="y" d="M2.2-7.99c0-.382-.322-.561-.573-.561s-.622.167-.586.67l.43 5.477c.012.203.036.251.144.251.12 0 .143-.036.155-.251zm0 7.404a.58.58 0 1 0-1.161.01.58.58 0 0 0 1.162-.01"/><path id="k" d="M4.904 0v-.347h-.371C3.48-.347 3.444-.49 3.444-.92v-6.745c0-.275 0-.287-.239-.287-.287.323-.885.765-2.117.765v.347c.275 0 .873 0 1.531-.311v6.231c0 .43-.036.574-1.088.574h-.37V0c.322-.024 1.482-.024 1.877-.024s1.543 0 1.866.024"/><path id="i" d="M5.358-2.045c0-1.1-.885-1.962-2.033-2.165 1.04-.299 1.71-1.172 1.71-2.105 0-.945-.98-1.638-2.14-1.638-1.197 0-2.082.73-2.082 1.602 0 .479.371.574.55.574.252 0 .539-.18.539-.538 0-.383-.287-.55-.55-.55-.072 0-.096 0-.132.012.454-.813 1.579-.813 1.638-.813.395 0 1.173.179 1.173 1.351 0 .227-.036.897-.383 1.411-.359.527-.766.563-1.089.574l-.358.036c-.204.012-.252.024-.252.132 0 .12.06.12.276.12h.55c1.016 0 1.47.837 1.47 1.985 0 1.567-.812 1.985-1.399 1.985-.574 0-1.554-.275-1.901-1.064.383.06.73-.156.73-.586a.565.565 0 0 0-.587-.586c-.287 0-.598.167-.598.622C.49-.622 1.555.25 2.882.25c1.424 0 2.476-1.088 2.476-2.296"/><path id="j" d="M5.262-2.01H5c-.036.204-.131.862-.25 1.053-.085.108-.766.108-1.125.108H1.41c.323-.275 1.053-1.04 1.364-1.328 1.818-1.674 2.487-2.296 2.487-3.48 0-1.375-1.088-2.296-2.475-2.296S.586-6.77.586-5.741c0 .61.526.61.562.61.251 0 .562-.18.562-.562 0-.335-.227-.562-.562-.562-.107 0-.131 0-.167.012.227-.813.873-1.364 1.65-1.364 1.017 0 1.639.85 1.639 1.95 0 1.017-.586 1.902-1.268 2.667L.586-.287V0h4.365z"/><path id="g" d="M4.528-1.298c0-.11-.088-.131-.142-.131-.098 0-.12.065-.142.153C3.862-.153 2.88-.153 2.771-.153c-.545 0-.982-.327-1.233-.73-.327-.524-.327-1.244-.327-1.637h3.044c.24 0 .273 0 .273-.23 0-1.08-.59-2.138-1.953-2.138-1.266 0-2.27 1.124-2.27 2.488 0 1.462 1.146 2.52 2.4 2.52 1.332 0 1.823-1.211 1.823-1.418m-.72-1.451H1.222c.065-1.626.982-1.899 1.353-1.899 1.123 0 1.233 1.473 1.233 1.899"/><path id="b" d="M6.655-4.964 6.35-7.42H.36v.338h.262c.84 0 .862.12.862.513V-.85c0 .393-.022.513-.862.513H.36V0c.382-.033 1.233-.033 1.658-.033.448 0 1.44 0 1.833.033v-.338h-.36c-1.036 0-1.036-.142-1.036-.524v-2.684h.938c1.047 0 1.156.35 1.156 1.277h.273V-5.16H4.55c0 .916-.109 1.276-1.156 1.276h-.938v-2.76c0-.36.022-.437.534-.437H4.3c1.636 0 1.909.611 2.083 2.117z"/><path id="c" d="M3.633 0v-.338h-.284c-.862 0-.894-.12-.894-.513v-5.75c0-.392.032-.512.894-.512h.284v-.339c-.382.033-1.244.033-1.658.033-.426 0-1.288 0-1.67-.033v.339H.59c.862 0 .895.12.895.512v5.75c0 .393-.033.513-.895.513H.305V0C.687-.033 1.55-.033 1.964-.033c.425 0 1.287 0 1.669.033"/><path id="u" d="M2.695 0v-.338c-.72 0-.764-.055-.764-.48v-4.004l-1.527.12v.338c.709 0 .807.065.807.6v2.935c0 .49-.12.49-.851.49V0l1.2-.033c.382 0 .764.022 1.135.033m-.6-6.59a.583.583 0 0 0-1.167 0 .583.583 0 0 0 1.167 0"/><path id="d" d="M7.866-3.698c0-2.226-1.647-3.994-3.633-3.994C2.28-7.692.611-5.946.611-3.698.611-1.462 2.291.24 4.233.24c1.986 0 3.633-1.735 3.633-3.938m-1.124-.153c0 2.89-1.494 3.807-2.498 3.807-1.047 0-2.51-.96-2.51-3.807 0-2.826 1.594-3.568 2.5-3.568.948 0 2.508.775 2.508 3.568"/><path id="v" d="M5.139-2.335c0-1.396-1.091-2.553-2.411-2.553-1.364 0-2.423 1.19-2.423 2.553A2.435 2.435 0 0 0 2.717.12a2.43 2.43 0 0 0 2.422-2.455m-.906-.087c0 .393 0 .982-.24 1.462-.24.49-.72.807-1.265.807-.47 0-.95-.229-1.244-.73-.273-.48-.273-1.146-.273-1.539 0-.426 0-1.015.262-1.495a1.46 1.46 0 0 1 1.244-.73c.48 0 .949.24 1.232.708s.284 1.102.284 1.517"/><path id="s" d="M6.808-5.422c0-1.07-1.08-2.03-2.575-2.03H.382v.339h.262c.84 0 .862.12.862.512v5.75c0 .393-.022.513-.862.513H.382V0C.764-.033 1.57-.033 1.986-.033S3.218-.033 3.6 0v-.338h-.262c-.84 0-.861-.12-.861-.513v-2.597H4.32c1.31 0 2.488-.883 2.488-1.974m-1.124 0c0 .512 0 1.69-1.735 1.69H2.444v-2.945c0-.36.022-.436.534-.436h.971c1.735 0 1.735 1.156 1.735 1.69"/><path id="a" d="M3.611 2.618c0-.032 0-.054-.185-.24-1.364-1.374-1.713-3.436-1.713-5.105 0-1.899.414-3.797 1.756-5.16.142-.132.142-.154.142-.186 0-.077-.043-.11-.109-.11-.109 0-1.09.742-1.735 2.128-.556 1.2-.687 2.411-.687 3.327 0 .851.12 2.172.72 3.404.655 1.342 1.593 2.052 1.702 2.052.066 0 .11-.033.11-.11"/><path id="h" d="M3.153-2.727c0-.851-.12-2.172-.72-3.404C1.778-7.473.84-8.182.73-8.182c-.065 0-.11.043-.11.109 0 .032 0 .054.208.25C1.9-6.742 2.52-5.007 2.52-2.726c0 1.865-.403 3.785-1.756 5.16-.142.13-.142.153-.142.185 0 .066.044.11.109.11.11 0 1.091-.742 1.735-2.128.556-1.2.687-2.411.687-3.327"/><path id="e" d="M7.932.11c0-.11 0-.23-.12-.23-.099 0-.11.087-.12.196-.066.59-.524.917-.993.917-.513 0-.786-.371-1.048-1.07C6.94-.654 7.866-2.05 7.866-3.697c0-2.226-1.647-3.994-3.633-3.994C2.28-7.692.611-5.946.611-3.698.611-1.495 2.258.24 4.244.24c.338 0 .72-.065 1.036-.164.164 1.037.317 2.04 1.331 2.04 1.113 0 1.32-1.45 1.32-2.007M6.775-3.699c0 .85-.13 2.389-1.287 3.24-.24-.611-.59-1.157-1.233-1.157-.557 0-.895.47-.895.917 0 .294.142.502.153.523-.59-.218-1.811-1.014-1.811-3.523 0-2.837 1.527-3.72 2.531-3.72 1.058 0 2.542.937 2.542 3.72M5.205-.284c-.372.208-.721.251-.961.251-.556 0-.644-.502-.644-.665 0-.317.23-.677.655-.677.589 0 .83.459.95 1.091"/><path id="t" d="M3.971-4.157c0-.349-.338-.665-.807-.665-.797 0-1.19.73-1.342 1.2v-1.2l-1.517.12v.338c.764 0 .851.076.851.611v2.924c0 .49-.12.49-.85.49V0l1.243-.033c.437 0 .95 0 1.386.033v-.338h-.23c-.807 0-.828-.12-.828-.513v-1.68c0-1.08.458-2.051 1.287-2.051.076 0 .098 0 .12.01a.47.47 0 0 0-.251.426c0 .306.23.47.47.47.195 0 .468-.132.468-.48"/><path id="w" d="M3.622-1.353v-.622H3.35v.6c0 .808-.327 1.222-.73 1.222-.732 0-.732-.993-.732-1.178v-3.033h1.56v-.338h-1.56V-6.71h-.272c-.011.895-.339 2.062-1.408 2.106v.24h.928v3.011C1.135-.01 2.149.12 2.542.12c.775 0 1.08-.775 1.08-1.473"/><path id="f" d="M5.837 0v-.338c-.764 0-.851-.077-.851-.611v-3.873l-1.604.12v.338c.764 0 .851.076.851.611v1.942c0 .95-.524 1.691-1.32 1.691-.916 0-.96-.513-.96-1.08v-3.622l-1.604.12v.338c.851 0 .851.033.851 1.004v1.636C1.2-.873 1.2.12 2.858.12c.611 0 1.091-.305 1.408-.982V.12z"/><path id="x" d="M5.542-4.364v-.338c-.25.022-.567.033-.818.033l-.95-.033v.338c.34.01.514.196.514.47 0 .108-.011.13-.066.261L3.12-.949 1.91-3.884c-.044-.11-.066-.153-.066-.196 0-.284.403-.284.61-.284v-.338l-1.188.033C.97-4.67.535-4.68.207-4.702v.338c.524 0 .731 0 .884.382L2.728 0l-.273.644c-.24.6-.546 1.353-1.244 1.353-.055 0-.305 0-.513-.197.338-.043.426-.284.426-.458A.44.44 0 0 0 .666.884c-.219 0-.459.142-.459.469 0 .49.459.884 1.004.884.687 0 1.135-.622 1.396-1.244l1.92-4.659c.284-.687.84-.698 1.015-.698"/></defs><g fill="none" stroke="#000" stroke-miterlimit="10" stroke-width=".3985"><path d="M77.22 22.877c0-6.262-2.538-11.339-5.669-11.339s-5.67 5.077-5.67 11.339 2.539 11.339 5.67 11.339 5.67-5.077 5.67-11.339ZM71.551 11.538h120.474M71.551 34.216h120.474"/></g><g transform="translate(97.84 98.54)scale(1.00008)"><use xlink:href="#a" x="-.449037" y="-49.128053"/><use xlink:href="#b" x="3.794953" y="-49.128053"/><use xlink:href="#c" x="10.919184" y="-49.128053"/><use xlink:href="#b" x="14.857694" y="-49.128053"/><use xlink:href="#d" x="21.687353" y="-49.128053"/><use xlink:href="#e" x="33.797456" y="-49.128053"/><use xlink:href="#f" x="42.285434" y="-49.128053"/><use xlink:href="#g" x="48.351395" y="-49.128053"/><use xlink:href="#f" x="53.195433" y="-49.128053"/><use xlink:href="#g" x="59.261394" y="-49.128053"/><use xlink:href="#h" x="64.105428" y="-49.128053"/></g><g fill="none" stroke="#000" stroke-miterlimit="10" stroke-width=".3985"><path d="M192.025 11.538c3.131 0 5.67 5.077 5.67 11.339s-2.539 11.339-5.67 11.339"/><path stroke-dasharray="2.98883 2.98883" d="M192.025 11.538c-3.131 0-5.67 5.077-5.67 11.339s2.539 11.339 5.67 11.339"/><path d="M115.489 22.877a8.504 8.504 0 1 0-17.008 0 8.504 8.504 0 0 0 17.008 0Z"/></g><use xlink:href="#i" x="-.44918" y="-49.143723" transform="translate(104.504 75.851)scale(1.0004)"/><path fill="none" stroke="#000" stroke-miterlimit="10" stroke-width=".3985" d="M143.835 22.877a8.504 8.504 0 1 0-17.008 0 8.504 8.504 0 0 0 17.008 0Z"/><use xlink:href="#j" x="-.44918" y="-49.143723" transform="translate(132.851 75.976)scale(1.0004)"/><path fill="none" stroke="#9f9f9f" stroke-miterlimit="10" stroke-width=".3985" d="M172.182 22.877a8.504 8.504 0 1 0-17.008 0 8.504 8.504 0 0 0 17.008 0Z"/><use xlink:href="#k" x="-.44918" y="-49.143723" fill="#9f9f9f" transform="translate(161.198 75.976)scale(1.0004)"/><path fill="none" stroke="#000" stroke-miterlimit="10" stroke-width=".3985" d="M89.142 22.877H50.29"/><path d="m92.244 22.877-4.468-1.682 1.466 1.682-1.466 1.682Z"/><path fill="none" stroke="#000" stroke-miterlimit="10" stroke-width=".3985" d="m92.244 22.877-4.468-1.682 1.466 1.682-1.466 1.682Z"/><g transform="translate(15.771 75.653)scale(1.0004)"><use xlink:href="#l" x="-.44918" y="-49.143723"/><use xlink:href="#m" x="5.710221" y="-49.143723"/><use xlink:href="#m" x="11.869621" y="-49.143723"/><use xlink:href="#n" x="18.029022" y="-49.143723"/><use xlink:href="#o" x="24.188423" y="-49.143723"/></g><path fill="none" stroke="#000" stroke-miterlimit="10" stroke-width=".3985" d="M177.852 22.877h31.764"/><path d="m212.718 22.877-4.468-1.682 1.466 1.682-1.466 1.682Z"/><path fill="none" stroke="#000" stroke-miterlimit="10" stroke-width=".3985" d="m212.718 22.877-4.468-1.682 1.466 1.682-1.466 1.682ZM235.963 22.877a8.504 8.504 0 1 0-17.008 0 8.504 8.504 0 0 0 17.008 0Z"/><use xlink:href="#k" x="-.44918" y="-49.143723" transform="translate(224.978 75.976)scale(1.0004)"/><g transform="translate(246.265 74.822)scale(1.0004)"><use xlink:href="#p" x="-.44918" y="-49.143723"/><use xlink:href="#q" x="5.710221" y="-49.143723"/><use xlink:href="#r" x="11.869621" y="-49.143723"/><use xlink:href="#r" x="18.029022" y="-49.143723"/><use xlink:href="#n" x="24.188423" y="-49.143723"/><use xlink:href="#o" x="30.347824" y="-49.143723"/></g><g fill="none" stroke="#000" stroke-miterlimit="10" stroke-width=".3985"><path d="M77.22 79.57c0-6.262-2.538-11.338-5.669-11.338s-5.67 5.076-5.67 11.339c0 6.262 2.539 11.338 5.67 11.338s5.67-5.076 5.67-11.338ZM71.551 68.232h120.474M71.551 90.91h120.474"/></g><g transform="translate(92.424 155.234)scale(1.00008)"><use xlink:href="#a" x="-.449037" y="-49.128053"/><use xlink:href="#s" x="3.794953" y="-49.128053"/><use xlink:href="#t" x="11.224664" y="-49.128053"/><use xlink:href="#u" x="15.501384" y="-49.128053"/><use xlink:href="#v" x="18.534364" y="-49.128053"/><use xlink:href="#t" x="23.989364" y="-49.128053"/><use xlink:href="#u" x="28.266084" y="-49.128053"/><use xlink:href="#w" x="31.299065" y="-49.128053"/><use xlink:href="#x" x="35.248488" y="-49.128053"/><use xlink:href="#e" x="44.63109" y="-49.128053"/><use xlink:href="#f" x="53.119068" y="-49.128053"/><use xlink:href="#g" x="59.185029" y="-49.128053"/><use xlink:href="#f" x="64.029072" y="-49.128053"/><use xlink:href="#g" x="70.095032" y="-49.128053"/><use xlink:href="#h" x="74.939072" y="-49.128053"/></g><g fill="none" stroke="#000" stroke-miterlimit="10" stroke-width=".3985"><path d="M192.025 68.232c3.131 0 5.67 5.076 5.67 11.339 0 6.262-2.539 11.338-5.67 11.338"/><path stroke-dasharray="2.98883 2.98883" d="M192.025 68.232c-3.131 0-5.67 5.076-5.67 11.339 0 6.262 2.539 11.338 5.67 11.338"/><path d="M115.489 79.57a8.504 8.504 0 1 0-17.008 0 8.504 8.504 0 0 0 17.008 0Z"/></g><use xlink:href="#i" x="-.44918" y="-49.143723" transform="translate(104.504 132.544)scale(1.0004)"/><path fill="none" stroke="#9f9f9f" stroke-miterlimit="10" stroke-width=".3985" d="M143.835 79.57a8.504 8.504 0 1 0-17.008 0 8.504 8.504 0 0 0 17.008 0Z"/><use xlink:href="#j" x="-.44918" y="-49.143723" fill="#9f9f9f" transform="translate(132.851 132.67)scale(1.0004)"/><g fill="#9f9f9f" transform="translate(144.222 127.299)scale(1.0004)"><use xlink:href="#y" x="-.44918" y="-49.143723"/><use xlink:href="#y" x="2.0983" y="-49.143723"/></g><path fill="none" stroke="#000" stroke-miterlimit="10" stroke-width=".3985" d="M172.182 79.57a8.504 8.504 0 1 0-17.008 0 8.504 8.504 0 0 0 17.008 0Z"/><use xlink:href="#k" x="-.44918" y="-49.143723" transform="translate(161.198 132.67)scale(1.0004)"/><use xlink:href="#y" x="-.44918" y="-49.143723" transform="translate(173.84 127.299)scale(1.0004)"/><path fill="none" stroke="#000" stroke-miterlimit="10" stroke-width=".3985" d="M89.142 79.57H50.29"/><path d="m92.244 79.57-4.468-1.681 1.466 1.682-1.466 1.682Z"/><path fill="none" stroke="#000" stroke-miterlimit="10" stroke-width=".3985" d="m92.244 79.57-4.468-1.681 1.466 1.682-1.466 1.682Z"/><g transform="translate(15.771 132.347)scale(1.0004)"><use xlink:href="#l" x="-.44918" y="-49.143723"/><use xlink:href="#m" x="5.710221" y="-49.143723"/><use xlink:href="#m" x="11.869621" y="-49.143723"/><use xlink:href="#n" x="18.029022" y="-49.143723"/><use xlink:href="#o" x="24.188423" y="-49.143723"/></g><path fill="none" stroke="#000" stroke-miterlimit="10" stroke-width=".3985" d="M177.852 79.57h31.764"/><path d="m212.718 79.57-4.468-1.681 1.466 1.682-1.466 1.682Z"/><path fill="none" stroke="#000" stroke-miterlimit="10" stroke-width=".3985" d="m212.718 79.57-4.468-1.681 1.466 1.682-1.466 1.682ZM235.963 79.57a8.504 8.504 0 1 0-17.008 0 8.504 8.504 0 0 0 17.008 0Z"/><use xlink:href="#j" x="-.44918" y="-49.143723" transform="translate(224.978 132.67)scale(1.0004)"/><g transform="translate(246.265 131.516)scale(1.0004)"><use xlink:href="#p" x="-.44918" y="-49.143723"/><use xlink:href="#q" x="5.710221" y="-49.143723"/><use xlink:href="#r" x="11.869621" y="-49.143723"/><use xlink:href="#r" x="18.029022" y="-49.143723"/><use xlink:href="#n" x="24.188423" y="-49.143723"/><use xlink:href="#o" x="30.347824" y="-49.143723"/></g><g transform="translate(236.349 127.299)scale(1.0004)"><use xlink:href="#y" x="-.44918" y="-49.143723"/><use xlink:href="#y" x="2.0983" y="-49.143723"/></g></svg>