<svg xmlns="http://www.w3.org/2000/svg" xmlns:xlink="http://www.w3.org/1999/xlink" width="433.8pt" height="252.08pt" viewBox="0 0 433.8 252.08"><defs><path id="N" d="M2.464-3.504c.024-.072.323-.67.765-1.053a1.74 1.74 0 0 1 1.184-.478c.479 0 .646.359.646.837 0 .682-.49 2.045-.73 2.691-.107.287-.167.443-.167.658 0 .538.37.969.945.969 1.112 0 1.53-1.759 1.53-1.83 0-.06-.047-.108-.119-.108-.107 0-.12.036-.18.24C6.065-.599 5.61-.12 5.144-.12c-.12 0-.311-.012-.311-.394 0-.3.131-.658.203-.826.24-.657.742-1.997.742-2.679 0-.717-.419-1.255-1.328-1.255-1.064 0-1.626.753-1.842 1.052-.036-.682-.526-1.052-1.052-1.052-.383 0-.646.227-.85.634C.49-4.21.324-3.492.324-3.444s.048.107.131.107c.096 0 .108-.012.18-.287.191-.73.407-1.411.885-1.411.275 0 .37.191.37.55 0 .263-.119.73-.203 1.1l-.335 1.292c-.047.227-.179.765-.239.98C1.03-.8.897-.238.897-.178c0 .167.132.299.311.299a.46.46 0 0 0 .407-.252c.024-.06.131-.478.191-.717l.263-1.077z"/><path id="T" d="M2.404-4.808h1.1c.228 0 .347 0 .347-.215 0-.132-.072-.132-.31-.132H2.487L2.93-6.9c.048-.167.048-.191.048-.275 0-.191-.155-.299-.31-.299-.097 0-.372.036-.467.419l-.467 1.901H.61c-.24 0-.347 0-.347.227 0 .12.084.12.311.12H1.64L.849-1.65c-.096.418-.131.538-.131.693C.718-.395 1.112.12 1.782.12c1.208 0 1.854-1.747 1.854-1.83 0-.072-.048-.108-.12-.108-.024 0-.072 0-.095.048-.012.012-.024.024-.108.215C3.062-.957 2.512-.12 1.818-.12c-.359 0-.383-.299-.383-.562 0-.012 0-.239.036-.382z"/><path id="G" d="M5.669-1.064v-.67h-.263v.67c0 .681-.287.777-.455.777-.454 0-.454-.634-.454-.813v-2.093c0-.646 0-1.125-.526-1.591-.419-.383-.957-.55-1.483-.55-.981 0-1.735.646-1.735 1.423 0 .347.228.514.503.514.287 0 .49-.203.49-.49 0-.49-.43-.49-.61-.49.275-.503.85-.718 1.328-.718.55 0 1.256.455 1.256 1.53v.48C1.316-3.05.407-2.046.407-1.126c0 .946 1.1 1.245 1.83 1.245A1.63 1.63 0 0 0 3.79-.933c.048.562.419.993.933.993.251 0 .945-.168.945-1.124m-1.95-.622C3.72-.514 2.847-.12 2.333-.12c-.586 0-1.076-.43-1.076-1.004 0-1.579 2.033-1.722 2.464-1.746z"/><path id="Q" d="M6.16 0v-.347c-.814 0-.91-.084-.91-.67V-8.3l-1.662.131v.347c.813 0 .909.084.909.67v2.643a1.86 1.86 0 0 0-1.495-.765C1.615-5.274.419-4.102.419-2.571c0 1.519 1.136 2.69 2.451 2.69.91 0 1.436-.597 1.603-.825V.12zM4.472-1.4c0 .216 0 .252-.167.515-.287.419-.778.765-1.376.765-.31 0-1.602-.12-1.602-2.44 0-.86.143-1.339.406-1.734.24-.37.718-.741 1.316-.741.741 0 1.16.538 1.28.73.143.203.143.227.143.442z"/><path id="M" d="M4.868-1.423c0-.072-.06-.12-.132-.12-.096 0-.12.06-.143.12C4.282-.42 3.48-.143 2.978-.143s-1.71-.335-1.71-2.404v-.228H4.58c.263 0 .287 0 .287-.227 0-1.208-.646-2.332-2.093-2.332C1.41-5.334.359-4.102.359-2.62.359-1.041 1.579.12 2.906.12c1.424 0 1.962-1.292 1.962-1.543m-.742-1.579H1.28c.095-1.878 1.148-2.093 1.483-2.093 1.28 0 1.351 1.686 1.363 2.093"/><path id="Y" d="M8.276 0v-.347h-.239c-.861 0-.897-.12-.897-.562v-6.35c0-.443.036-.563.897-.563h.24v-.347c-.288.024-1.268.024-1.615.024-.36 0-1.34 0-1.627-.024v.347h.24c.86 0 .896.12.896.562v2.835H2.595V-7.26c0-.442.036-.562.897-.562h.24v-.347c-.288.024-1.268.024-1.615.024-.359 0-1.34 0-1.627-.024v.347h.24c.86 0 .897.12.897.562v6.351c0 .443-.036.562-.897.562H.49V0c.287-.024 1.268-.024 1.615-.024.359 0 1.34 0 1.627.024v-.347h-.24c-.86 0-.897-.12-.897-.562v-3.17h3.576v3.17c0 .443-.036.562-.897.562h-.239V0c.287-.024 1.268-.024 1.615-.024.359 0 1.34 0 1.626.024"/><path id="K" d="M2.882 0v-.347c-.777 0-.825-.06-.825-.526v-4.401l-1.626.131v.347c.765 0 .873.072.873.658v3.253c0 .538-.132.538-.91.538V0c.336-.024.91-.024 1.256-.024.132 0 .826 0 1.232.024m-.67-7.224a.58.58 0 1 0-.586.574.576.576 0 0 0 .587-.574"/><path id="O" d="M2.966 0v-.347c-.765 0-.909 0-.909-.538V-8.3L.395-8.17v.347c.813 0 .909.084.909.67v6.267c0 .538-.132.538-.91.538V0c.336-.024.922-.024 1.28-.024s.957 0 1.292.024"/><path id="S" d="M9.484 0v-.347c-.598 0-.897 0-.909-.359v-2.2c0-1.113 0-1.447-.275-1.83-.347-.467-.909-.538-1.315-.538-.993 0-1.495.717-1.687 1.184-.167-.921-.813-1.184-1.566-1.184-1.16 0-1.615.992-1.71 1.232h-.013v-1.232l-1.626.131v.347c.813 0 .909.084.909.67v3.241c0 .538-.132.538-.91.538V0c.312-.024.958-.024 1.292-.024.347 0 .993 0 1.304.024v-.347c-.765 0-.909 0-.909-.538V-3.11c0-1.255.825-1.925 1.567-1.925s.909.61.909 1.34v2.81c0 .538-.132.538-.91.538V0c.312-.024.958-.024 1.293-.024.346 0 .992 0 1.303.024v-.347c-.765 0-.909 0-.909-.538V-3.11c0-1.255.825-1.925 1.567-1.925s.909.61.909 1.34v2.81c0 .538-.132.538-.909.538V0c.31-.024.957-.024 1.292-.024.346 0 .992 0 1.303.024"/><path id="Z" d="M5.49-2.56c0-1.542-1.172-2.774-2.56-2.774C1.495-5.334.36-4.066.36-2.56.359-1.03 1.555.12 2.919.12c1.41 0 2.57-1.172 2.57-2.68m-.91-.107c0 .419 0 1.16-.31 1.722a1.56 1.56 0 0 1-1.34.801c-.442 0-.98-.19-1.327-.777-.323-.538-.335-1.244-.335-1.746 0-.455 0-1.184.37-1.722a1.53 1.53 0 0 1 1.28-.706c.467 0 .969.215 1.292.682.37.55.37 1.303.37 1.746"/><path id="P" d="M6.076-2.583c0-1.52-1.125-2.691-2.428-2.691-1.053 0-1.615.753-1.65.801v-.801l-1.663.131v.347c.837 0 .909.084.909.61v5.621c0 .538-.132.538-.91.538v.347c.312-.024.958-.024 1.293-.024.346 0 .992 0 1.303.024v-.347c-.765 0-.909 0-.909-.538v-2.08c.216.298.706.765 1.471.765 1.376 0 2.584-1.16 2.584-2.703m-.91 0c0 1.423-.813 2.463-1.733 2.463a1.4 1.4 0 0 1-.957-.382c-.275-.275-.455-.515-.455-.85v-2.463c0-.227 0-.24.132-.43a1.72 1.72 0 0 1 1.4-.766c.896 0 1.614 1.088 1.614 2.428"/><path id="aa" d="M3.887 2.906c0-.036 0-.06-.203-.263C2.488 1.435 1.818-.538 1.818-2.978c0-2.32.562-4.318 1.95-5.729.119-.108.119-.131.119-.167 0-.072-.06-.096-.108-.096-.155 0-1.136.861-1.722 2.033-.61 1.208-.885 2.488-.885 3.959 0 1.064.168 2.488.79 3.767.705 1.436 1.686 2.213 1.817 2.213.048 0 .108-.024.108-.096"/><path id="ac" d="M3.373-2.978c0-.909-.12-2.392-.79-3.78C1.878-8.192.897-8.97.765-8.97c-.047 0-.107.024-.107.096 0 .036 0 .06.203.263C2.057-7.403 2.727-5.43 2.727-2.99c0 2.32-.562 4.318-1.95 5.729-.12.107-.12.131-.12.167 0 .072.06.096.108.096.156 0 1.137-.861 1.723-2.033.61-1.22.885-2.512.885-3.947"/><path id="ag" d="M8.575-1.04c0-.072 0-.18-.131-.18-.12 0-.12.072-.132.191-.06.718-.406 1.041-.79 1.041-.55 0-.669-.562-.765-1.196l-.12-.897c-.083-.598-.13-.98-.49-1.352-.131-.131-.442-.454-1.1-.633 1.184-.275 2.105-1.029 2.105-1.95 0-1.16-1.351-2.153-3.074-2.153H.502v.347h.24c.86 0 .897.12.897.562v6.351c0 .443-.036.562-.897.562h-.24V0c.275-.024 1.256-.024 1.603-.024s1.34 0 1.615.024v-.347h-.24c-.86 0-.897-.12-.897-.562v-3.062h1.388c.466 0 .909.132 1.232.467.406.454.406.705.406 1.53 0 .945 0 1.256.526 1.77.18.18.682.455 1.352.455.933 0 1.088-1.04 1.088-1.292M6.04-6.017c0 1.04-.562 1.806-2.117 1.806h-1.34v-3.133c0-.276 0-.419.252-.467.107-.012.466-.012.705-.012.969 0 2.5 0 2.5 1.806"/><path id="H" d="M4.222-4.58c0-.36-.323-.694-.837-.694-1.017 0-1.364 1.1-1.436 1.327h-.011v-1.327l-1.603.131v.347c.813 0 .909.084.909.67v3.241c0 .538-.132.538-.91.538V0c.336-.024.994-.024 1.352-.024.323 0 1.172 0 1.448.024v-.347h-.24c-.873 0-.897-.131-.897-.562v-1.878c0-1.16.479-2.248 1.4-2.248.095 0 .12 0 .167.012-.096.048-.287.12-.287.442a.46.46 0 0 0 .466.479c.24 0 .479-.156.479-.479"/><path id="ab" d="M5.848-2.2c0-.73-.275-1.268-.598-1.663-.442-.538-.98-.67-1.447-.79l-1.315-.334c-.61-.156-1.148-.754-1.148-1.52 0-.836.67-1.59 1.602-1.59 1.962 0 2.225 1.938 2.296 2.452.024.143.024.191.144.191.132 0 .132-.06.132-.275v-2.416c0-.215 0-.275-.12-.275-.036 0-.084 0-.167.156l-.395.73c-.574-.742-1.364-.886-1.89-.886A2.28 2.28 0 0 0 .646-6.135c0 .574.203 1.1.646 1.578.418.467.837.574 1.686.79.419.095 1.076.263 1.244.334.562.276.933.921.933 1.591 0 .897-.634 1.746-1.627 1.746-.538 0-1.28-.131-1.866-.646C.97-1.363.921-2.225.91-2.619c-.012-.096-.132-.096-.132-.096-.131 0-.131.06-.131.275v2.416c0 .215 0 .275.12.275.071 0 .083-.024.167-.167l.395-.718c.43.479 1.184.885 2.212.885C4.88.251 5.848-.885 5.848-2.2"/><path id="J" d="M4.21-1.519c0-.646-.395-1.028-.502-1.136-.431-.37-.754-.443-1.543-.586-.359-.072-1.232-.24-1.232-.957 0-.37.251-.92 1.327-.92 1.304 0 1.376 1.111 1.4 1.482.012.096.095.096.131.096.132 0 .132-.06.132-.275V-5.06c0-.215 0-.275-.12-.275-.095 0-.323.263-.406.37-.371-.298-.742-.37-1.125-.37-1.447 0-1.877.79-1.877 1.447 0 .132 0 .55.454.969.383.335.79.418 1.34.526.657.132.813.167 1.112.407.215.179.37.442.37.777 0 .514-.298 1.088-1.35 1.088C1.53-.12.956-.574.693-1.77c-.048-.215-.06-.24-.06-.24-.024-.047-.072-.047-.108-.047-.131 0-.131.06-.131.275v1.627c0 .215 0 .275.12.275.06 0 .071-.012.274-.264.06-.083.06-.107.24-.299.454.563 1.1.563 1.303.563C3.588.12 4.21-.574 4.21-1.52"/><path id="R" d="M3.899-1.483v-.682h-.263v.658c0 .861-.347 1.363-.813 1.363-.814 0-.814-1.112-.814-1.315v-3.349h1.687v-.347H2.009v-2.2h-.263c-.012 1.124-.442 2.272-1.53 2.308v.24h1.016v3.324C1.232-.155 2.117.12 2.75.12c.753 0 1.148-.742 1.148-1.603"/><path id="ah" d="M5.956-4.808v-.347c-.347.024-.514.024-.885.024l-.98-.024v.347c.502.024.561.383.561.514 0 .108-.023.168-.083.311L3.349-.897 2.009-4.27c-.06-.167-.071-.167-.071-.227 0-.31.454-.31.67-.31v-.348c-.3.024-.922.024-1.245.024L.215-5.155v.347c.67 0 .79.048.933.419l1.71 4.281c.06.168.084.228.228.228.083 0 .155-.024.239-.228l1.555-3.91c.107-.264.31-.778 1.076-.79"/><path id="I" d="M5.956-4.808v-.347c-.347.024-.514.024-.897.024l-.969-.024v.347c.443.024.55.3.55.514 0 .108-.023.168-.071.287L3.349-.993 2.02-4.246c-.072-.167-.072-.251-.072-.251 0-.31.42-.31.658-.31v-.348c-.31.024-.897.024-1.232.024l-1.16-.024v.347c.694 0 .79.06.945.43L2.942 0c-.526 1.268-.526 1.292-.574 1.387-.203.36-.526.814-1.064.814-.371 0-.598-.216-.598-.216s.418-.047.418-.466a.433.433 0 0 0-.442-.443c-.204 0-.455.12-.455.467 0 .454.443.897 1.077.897.67 0 1.16-.586 1.47-1.34l2.07-5.095c.323-.801.885-.813 1.112-.813"/><path id="L" d="M4.7-2.2h-.263C4.33-.838 4.127-.264 2.703-.264H1.256l3.3-4.557c.108-.131.108-.155.108-.203 0-.132-.083-.132-.287-.132H.622L.49-3.253h.263c.072-1.22.3-1.663 1.603-1.663h1.387l-3.42 4.7C.323 0 .347 0 .61 0h3.899z"/><path id="B" d="M3.597-2.223c0-.767-.091-1.318-.412-1.806-.216-.32-.648-.6-1.206-.6C.362-4.628.362-2.724.362-2.222S.362.139 1.98.139s1.618-1.86 1.618-2.362M1.979-.056c-.32 0-.745-.188-.885-.76-.097-.41-.097-.982-.097-1.498 0-.509 0-1.039.104-1.422a.89.89 0 0 1 .878-.697c.377 0 .74.23.865.634.111.377.118.879.118 1.485 0 .516 0 1.032-.09 1.47-.14.635-.614.788-.893.788"/><path id="z" d="M2.335-4.433c0-.188-.014-.195-.21-.195-.445.439-1.08.446-1.365.446v.25c.167 0 .627 0 1.01-.194v3.554c0 .23 0 .321-.697.321H.81V0c.125-.007.982-.028 1.24-.028.216 0 1.094.021 1.248.028v-.25h-.265c-.697 0-.697-.092-.697-.322z"/><path id="x" d="M3.52-1.269h-.237c-.021.154-.09.565-.181.635-.056.042-.593.042-.69.042H1.129a24 24 0 0 1 1.394-1.171c.516-.412.997-.844.997-1.506 0-.843-.739-1.36-1.631-1.36-.864 0-1.45.607-1.45 1.249 0 .355.3.39.37.39.167 0 .369-.119.369-.37 0-.125-.049-.369-.411-.369.216-.495.69-.648 1.017-.648.697 0 1.06.543 1.06 1.108 0 .606-.432 1.087-.655 1.338L.509-.27C.439-.21.439-.196.439 0h2.872z"/><path id="af" d="M3.687-1.143v-.251h-.774v-3.109c0-.146 0-.195-.153-.195-.084 0-.111 0-.181.098L.272-1.394v.25H2.32v.572c0 .237 0 .321-.565.321h-.188V0c.349-.014.795-.028 1.046-.028.258 0 .704.014 1.052.028v-.25h-.188c-.565 0-.565-.085-.565-.322v-.571zM2.37-3.945v2.551H.53z"/><path id="q" d="M1.912-.528c0-.289-.239-.528-.528-.528s-.527.24-.527.528.239.528.527.528.528-.239.528-.528"/><path id="C" d="M3.735-6.115c.06-.24.09-.34.279-.369.09-.01.408-.01.607-.01.708 0 1.813 0 1.813.986 0 .339-.16 1.026-.548 1.414-.259.26-.786.578-1.683.578H3.088zm1.434 2.729c1.006-.22 2.191-.917 2.191-1.923 0-.856-.896-1.494-2.2-1.494H2.32c-.199 0-.288 0-.288.2 0 .11.09.11.279.11.02 0 .209 0 .378.019.18.02.27.03.27.16 0 .04-.01.07-.04.189L1.583-.777c-.1.389-.12.468-.907.468-.179 0-.269 0-.269.2 0 .109.12.109.14.109.279 0 .976-.03 1.255-.03S2.789 0 3.068 0c.08 0 .199 0 .199-.2 0-.109-.09-.109-.279-.109-.369 0-.647 0-.647-.179 0-.06.02-.11.03-.17l.657-2.639h1.185c.906 0 1.086.558 1.086.907 0 .149-.08.458-.14.687-.07.279-.16.647-.16.846C5 .22 6.196.22 6.326.22 7.17.22 7.52-.787 7.52-.926c0-.12-.11-.12-.12-.12-.09 0-.11.07-.13.14C7.023-.17 6.595 0 6.365 0c-.328 0-.398-.22-.398-.608 0-.308.06-.816.1-1.135.02-.14.04-.329.04-.468 0-.767-.668-1.076-.937-1.175"/><path id="t" d="M.876-.588c-.03.15-.09.379-.09.429 0 .179.14.269.29.269.12 0 .298-.08.368-.28.01-.02.13-.487.19-.736l.219-.897c.06-.219.12-.438.169-.667.04-.17.12-.458.13-.498.149-.309.677-1.215 1.623-1.215.448 0 .538.368.538.697 0 .618-.488 1.892-.648 2.32-.09.23-.1.35-.1.459 0 .468.35.817.817.817.937 0 1.305-1.455 1.305-1.534 0-.1-.09-.1-.12-.1-.099 0-.099.03-.149.18C5.22-.668 4.89-.11 4.402-.11c-.169 0-.239-.1-.239-.328 0-.25.09-.488.18-.707.189-.528.607-1.624.607-2.192 0-.667-.428-1.065-1.145-1.065-.897 0-1.385.637-1.554.866-.05-.558-.458-.866-.916-.866s-.648.388-.747.567a5 5 0 0 0-.3.967c0 .1.1.1.12.1.1 0 .11-.01.17-.23.169-.707.368-1.185.727-1.185.199 0 .309.13.309.458 0 .21-.03.319-.16.837z"/><path id="m" d="M2.052-3.984h.936c.2 0 .299 0 .299-.2 0-.109-.1-.109-.28-.109h-.876c.359-1.414.409-1.613.409-1.673 0-.17-.12-.269-.289-.269-.03 0-.309.01-.398.359l-.389 1.583H.528c-.2 0-.299 0-.299.19 0 .119.08.119.279.119h.876C.667-1.155.627-.986.627-.807c0 .538.379.917.917.917 1.016 0 1.583-1.455 1.583-1.534 0-.1-.08-.1-.12-.1-.089 0-.099.03-.148.14C2.43-.35 1.902-.11 1.564-.11c-.21 0-.309-.129-.309-.458 0-.239.02-.308.06-.478z"/><path id="A" d="M1.582-.397c0-.251-.209-.405-.397-.405a.403.403 0 0 0-.404.398c0 .25.209.404.397.404.23 0 .404-.188.404-.397"/><path id="d" d="M2.503-5.077c0-.215-.016-.223-.232-.223-.326.319-.749.51-1.506.51v.263c.215 0 .646 0 1.108-.215v4.088c0 .295-.024.391-.781.391h-.28V0c.328-.024 1.013-.024 1.372-.024s1.052 0 1.379.024v-.263h-.28c-.757 0-.78-.096-.78-.39z"/><path id="e" d="M2.016-2.662c.63 0 1.029.462 1.029 1.3 0 .995-.566 1.29-.989 1.29-.438 0-1.036-.16-1.315-.582.287 0 .486-.183.486-.446a.423.423 0 0 0-.438-.438c-.215 0-.438.135-.438.454 0 .757.813 1.251 1.721 1.251 1.06 0 1.801-.733 1.801-1.53 0-.661-.526-1.267-1.339-1.442.63-.224 1.1-.766 1.1-1.403S2.917-5.3 2.088-5.3C1.235-5.3.59-4.838.59-4.232c0 .295.199.422.406.422a.39.39 0 0 0 .407-.406c0-.295-.255-.407-.43-.415.334-.438.948-.462 1.091-.462.207 0 .813.064.813.885 0 .558-.231.892-.343 1.02-.239.247-.422.263-.908.295-.152.008-.215.016-.215.12 0 .111.071.111.207.111z"/><path id="i" d="M3.14-5.157c0-.159 0-.223-.167-.223-.104 0-.112.008-.191.12L.239-1.57v.263h2.248v.661c0 .295-.024.383-.638.383h-.183V0c.677-.024.693-.024 1.147-.024s.47 0 1.148.024v-.263h-.183c-.614 0-.638-.088-.638-.383v-.661h.845v-.263H3.14zm-.598.646v2.94H.518z"/><path id="f" d="M1.116-4.48c.103.033.422.112.757.112.996 0 1.602-.7 1.602-.82 0-.088-.056-.112-.096-.112-.016 0-.032 0-.103.04-.311.12-.678.215-1.108.215-.47 0-.86-.12-1.108-.215C.98-5.3.964-5.3.956-5.3c-.103 0-.103.088-.103.231v2.335c0 .144 0 .24.127.24.064 0 .088-.032.128-.096.095-.12.398-.526 1.076-.526.446 0 .661.366.733.518.136.287.151.653.151.964 0 .295-.008.725-.23 1.076a1.07 1.07 0 0 1-.893.486A1.295 1.295 0 0 1 .733-.917c.024.008.072.008.08.008.223 0 .398-.143.398-.39 0-.295-.23-.399-.39-.399-.144 0-.399.08-.399.423 0 .717.622 1.442 1.539 1.442.996 0 1.84-.773 1.84-1.761 0-.925-.669-1.745-1.61-1.745-.398 0-.772.127-1.075.398z"/><path id="j" d="M1.1-2.638c0-.662.056-1.243.343-1.73.239-.398.645-.725 1.147-.725.16 0 .526.024.71.303-.36.016-.39.287-.39.375-.001.239.182.374.374.374.143 0 .374-.087.374-.39 0-.479-.358-.869-1.076-.869C1.474-5.3.351-4.248.351-2.526.35-.366 1.355.167 2.128.167c.383 0 .797-.103 1.156-.446.318-.31.59-.646.59-1.339 0-1.044-.79-1.777-1.674-1.777-.574 0-.917.366-1.1.757M2.128-.072c-.422 0-.685-.295-.805-.518-.183-.358-.2-.9-.2-1.203 0-.79.431-1.38 1.045-1.38.398 0 .637.208.789.487.167.295.167.654.167 1.06s0 .757-.16 1.044c-.206.367-.485.51-.836.51"/><path id="b" d="M4.033-4.854c.072-.087.072-.103.072-.279H2.08c-.2 0-.446-.008-.645-.024-.415-.031-.423-.103-.447-.23H.741l-.27 1.68h.246c.016-.119.104-.669.215-.732.088-.04.686-.04.805-.04h1.69l-.82 1.1c-.91 1.211-1.1 2.47-1.1 3.1 0 .08 0 .446.374.446s.375-.358.375-.454v-.382c0-1.148.19-2.089.581-2.607z"/><path id="k" d="M2.646-2.877c.446-.215.988-.614.988-1.236 0-.757-.773-1.187-1.514-1.187-.845 0-1.53.582-1.53 1.33 0 .296.103.567.303.798.135.167.167.183.661.494C.566-2.24.351-1.658.351-1.21c0 .876.884 1.378 1.753 1.378.98 0 1.77-.661 1.77-1.506 0-.502-.272-.837-.4-.972-.135-.128-.143-.136-.828-.566m-1.235-.75c-.231-.135-.423-.366-.423-.645 0-.502.55-.82 1.116-.82.622 0 1.132.422 1.132.98 0 .462-.359.852-.83 1.083zm.39 1.093c.032.015.94.573 1.076.661.128.072.542.327.542.805 0 .614-.645.996-1.299.996-.71 0-1.315-.486-1.315-1.14 0-.597.446-1.067.996-1.322"/><path id="c" d="M3.124-2.351c0 1.945-.924 2.28-1.387 2.28-.167 0-.581-.025-.797-.272.351-.032.375-.295.375-.374a.364.364 0 0 0-.375-.375c-.143 0-.374.088-.374.39 0 .543.446.87 1.18.87 1.091 0 2.127-1.085 2.127-2.79 0-2.072-.916-2.678-1.737-2.678-.94 0-1.785.733-1.785 1.777 0 1.028.773 1.778 1.673 1.778.566 0 .909-.36 1.1-.766zm-1.068.382c-.366 0-.597-.167-.773-.462C1.1-2.726 1.1-3.108 1.1-3.515c0-.47 0-.805.215-1.132.2-.286.454-.446.829-.446.534 0 .765.526.789.566.167.39.175 1.012.175 1.172 0 .63-.342 1.386-1.052 1.386"/><path id="s" d="M3.297 2.39c0-.03 0-.05-.17-.219C1.882.916 1.564-.966 1.564-2.49c0-1.733.378-3.466 1.603-4.711.13-.12.13-.14.13-.17 0-.07-.04-.099-.1-.099-.1 0-.996.677-1.583 1.942C1.106-4.432.986-3.327.986-2.49c0 .777.11 1.982.657 3.108.598 1.225 1.455 1.872 1.554 1.872.06 0 .1-.03.1-.1"/><path id="y" d="M2.878-2.49c0-.777-.11-1.982-.657-3.108C1.623-6.823.767-7.47.667-7.47c-.06 0-.1.04-.1.1 0 .03 0 .05.19.229.976.986 1.544 2.57 1.544 4.651C2.3-.787 1.932.966.697 2.221c-.13.12-.13.14-.13.17 0 .06.04.099.1.099.1 0 .996-.677 1.584-1.942.508-1.096.627-2.201.627-3.038"/><path id="D" d="M4.582-3.187c0-.797-.05-1.594-.399-2.33-.458-.957-1.275-1.116-1.693-1.116-.598 0-1.325.259-1.733 1.185-.319.687-.369 1.464-.369 2.26 0 .748.04 1.644.449 2.401A1.83 1.83 0 0 0 2.48.22C3.018.22 3.775.01 4.213-.936c.319-.687.369-1.464.369-2.251M2.48 0c-.388 0-.976-.249-1.155-1.205-.11-.598-.11-1.514-.11-2.102 0-.637 0-1.295.08-1.832.189-1.186.936-1.275 1.185-1.275.329 0 .986.179 1.175 1.165.1.558.1 1.315.1 1.942 0 .747 0 1.425-.11 2.062C3.496-.299 2.928 0 2.48 0"/><path id="o" d="M2.928-6.374c0-.24 0-.26-.229-.26-.617.638-1.494.638-1.813.638v.309c.2 0 .787 0 1.305-.26v5.16c0 .359-.03.478-.926.478H.946V0c.349-.03 1.215-.03 1.614-.03s1.265 0 1.613.03v-.309h-.318c-.897 0-.927-.11-.927-.478z"/><path id="F" d="M1.265-.767 2.32-1.793C3.874-3.167 4.472-3.705 4.472-4.7c0-1.136-.896-1.932-2.111-1.932A1.84 1.84 0 0 0 .498-4.831c0 .558.498.558.528.558.17 0 .518-.12.518-.528a.504.504 0 0 0-.528-.518c-.08 0-.1 0-.13.01.23-.647.767-1.016 1.345-1.016.906 0 1.335.807 1.335 1.624 0 .797-.498 1.584-1.046 2.201L.608-.369c-.11.11-.11.13-.11.369h3.695l.279-1.733h-.249c-.05.299-.12.737-.22.886-.069.08-.726.08-.945.08z"/><path id="ae" d="M2.928-1.643v.866c0 .359-.02.468-.757.468h-.209V0c.408-.03.926-.03 1.345-.03s.946 0 1.354.03v-.309h-.209c-.737 0-.757-.11-.757-.468v-.866h.996v-.31h-.996v-4.531c0-.2 0-.259-.16-.259-.089 0-.119 0-.198.12L.279-1.953v.31zm.06-.31H.558l2.43-3.714z"/><path id="p" d="M4.741-6.066c.09-.12.09-.14.09-.348H2.41c-1.216 0-1.236-.13-1.276-.319H.886L.558-4.681h.249c.03-.16.12-.787.249-.907.07-.06.846-.06.976-.06h2.062c-.11.16-.897 1.246-1.116 1.574-.896 1.345-1.225 2.73-1.225 3.745 0 .1 0 .548.458.548s.458-.448.458-.548v-.508c0-.547.03-1.095.11-1.633.04-.23.18-1.086.617-1.703z"/><path id="E" d="M1.623-4.552c-.458-.299-.498-.637-.498-.806 0-.608.648-1.026 1.355-1.026.727 0 1.365.518 1.365 1.235 0 .567-.389 1.045-.986 1.394zm1.455.946c.717-.368 1.205-.886 1.205-1.543 0-.917-.887-1.484-1.793-1.484-.996 0-1.803.737-1.803 1.663 0 .18.02.627.438 1.096.11.12.479.368.728.537-.578.29-1.435.847-1.435 1.833C.418-.448 1.434.219 2.48.219c1.126 0 2.072-.827 2.072-1.892a1.8 1.8 0 0 0-.488-1.225c-.19-.21-.349-.31-.986-.708m-.996.419 1.225.777c.279.189.747.488.747 1.095 0 .737-.747 1.255-1.564 1.255C1.633-.06.916-.677.916-1.504c0-.578.319-1.215 1.166-1.683"/><path id="r" d="M3.655-3.167v.318c0 2.331-1.036 2.79-1.613 2.79-.17 0-.707-.02-.976-.36.438 0 .518-.288.518-.457 0-.31-.24-.459-.459-.459-.159 0-.458.09-.458.478C.667-.189 1.205.22 2.052.22c1.285 0 2.5-1.354 2.5-3.496 0-2.68-1.146-3.356-2.032-3.356-.548 0-1.036.179-1.464.627-.409.448-.638.867-.638 1.614 0 1.245.877 2.22 1.992 2.22.608 0 1.016-.418 1.245-.995M2.42-2.4c-.16 0-.617 0-.926-.628-.18-.368-.18-.866-.18-1.354 0-.538 0-1.006.21-1.375.269-.498.647-.627.996-.627.458 0 .787.338.956.786.12.32.16.947.16 1.405 0 .827-.34 1.793-1.216 1.793"/><path id="n" d="M6.843-3.257c.149 0 .338 0 .338-.2s-.19-.198-.329-.198H.886c-.139 0-.328 0-.328.199s.189.2.338.2zm.01 1.932c.139 0 .328 0 .328-.199s-.19-.2-.338-.2H.896c-.149 0-.338 0-.338.2s.189.2.328.2z"/><path id="w" d="M2.211-1.713c-.866 0-.866-.996-.866-1.225 0-.27.01-.588.159-.837.08-.12.309-.398.707-.398.867 0 .867.996.867 1.225 0 .269-.01.587-.16.836-.08.12-.308.399-.707.399m-1.155.388c0-.04 0-.269.17-.468.388.28.796.309.985.309.926 0 1.614-.687 1.614-1.454 0-.369-.16-.737-.409-.966.359-.339.717-.389.897-.389.02 0 .07 0 .1.01-.11.04-.16.15-.16.27 0 .168.13.288.289.288.1 0 .289-.07.289-.299 0-.17-.12-.488-.508-.488-.2 0-.638.06-1.056.468a1.66 1.66 0 0 0-1.056-.358c-.926 0-1.613.687-1.613 1.454 0 .438.219.817.468 1.026-.13.15-.309.478-.309.826 0 .31.13.688.438.887C.598-.04.28.388.28.787c0 .717.986 1.265 2.201 1.265 1.175 0 2.211-.508 2.211-1.285 0-.349-.14-.857-.647-1.136-.528-.278-1.106-.278-1.713-.278-.25 0-.678 0-.747-.01-.32-.04-.528-.349-.528-.668M2.49 1.823C1.484 1.823.797 1.315.797.787c0-.458.378-.827.817-.857H2.2c.857 0 1.972 0 1.972.857 0 .538-.707 1.036-1.683 1.036"/><path id="u" d="m1.763-6.912-1.434.11v.308c.697 0 .777.07.777.558v5.179c0 .448-.11.448-.777.448V0c.328-.01.856-.03 1.105-.03s.737.02 1.106.03v-.309c-.668 0-.777 0-.777-.448z"/><path id="v" d="M4.691-2.131c0-1.275-.996-2.331-2.201-2.331-1.245 0-2.211 1.086-2.211 2.33A2.223 2.223 0 0 0 2.48.11a2.22 2.22 0 0 0 2.211-2.241M2.49-.14c-.428 0-.867-.21-1.135-.668-.25-.438-.25-1.046-.25-1.404 0-.389 0-.926.24-1.365a1.34 1.34 0 0 1 1.135-.667c.438 0 .867.22 1.126.647s.258 1.006.258 1.385c0 .358 0 .896-.219 1.335-.219.448-.657.737-1.155.737"/><path id="h" d="M5.358-3.827c0-.993-.06-1.962-.49-2.87-.49-.993-1.352-1.256-1.938-1.256-.693 0-1.543.346-1.985 1.34C.61-5.86.49-5.12.49-3.828c0 1.16.084 2.033.515 2.882A2.13 2.13 0 0 0 2.918.251c1.04 0 1.639-.622 1.986-1.315.43-.897.454-2.07.454-2.763M2.918.012c-.382 0-1.16-.215-1.387-1.519-.132-.718-.132-1.627-.132-2.464 0-.98 0-1.865.192-2.571.203-.801.813-1.172 1.327-1.172.455 0 1.148.275 1.376 1.303.155.682.155 1.627.155 2.44 0 .802 0 1.71-.131 2.44C4.09-.215 3.337.012 2.918.012"/><path id="g" d="M3.444-7.666c0-.275 0-.287-.239-.287-.287.323-.885.765-2.117.765v.347c.275 0 .873 0 1.531-.311v6.231c0 .43-.036.574-1.088.574h-.37V0c.322-.024 1.482-.024 1.877-.024s1.543 0 1.866.024v-.347h-.371C3.48-.347 3.444-.49 3.444-.92z"/><path id="a" d="M5.262-2.01H5c-.036.204-.131.862-.25 1.053-.085.108-.766.108-1.125.108H1.41c.323-.275 1.053-1.04 1.364-1.328 1.818-1.674 2.487-2.296 2.487-3.48 0-1.375-1.088-2.296-2.475-2.296S.586-6.77.586-5.741c0 .61.526.61.562.61.251 0 .562-.18.562-.562 0-.335-.227-.562-.562-.562-.107 0-.131 0-.167.012.227-.813.873-1.364 1.65-1.364 1.017 0 1.639.85 1.639 1.95 0 1.017-.586 1.902-1.268 2.667L.586-.287V0h4.365z"/><path id="U" d="M2.99 2.99v-.443H1.83V-8.527h1.16v-.443H1.387V2.99z"/><path id="X" d="M1.854-8.97H.25v.443h1.16V2.547H.251v.443h1.603z"/><path id="V" d="M5.322-2.906c0-1.113 0-1.447-.275-1.83-.347-.467-.909-.538-1.315-.538-1.16 0-1.615.992-1.71 1.232h-.013v-1.232l-1.626.131v.347c.813 0 .909.084.909.67v3.241c0 .538-.132.538-.91.538V0c.312-.024.958-.024 1.292-.024.347 0 .993 0 1.304.024v-.347c-.765 0-.909 0-.909-.538V-3.11c0-1.255.825-1.925 1.567-1.925s.909.61.909 1.34v2.81c0 .538-.132.538-.91.538V0c.312-.024.958-.024 1.293-.024.346 0 .992 0 1.303.024v-.347c-.598 0-.897 0-.909-.359z"/><path id="W" d="M3.923-5.06c0-.214 0-.274-.12-.274-.095 0-.323.263-.406.37-.371-.298-.742-.37-1.125-.37-1.447 0-1.877.79-1.877 1.447 0 .132 0 .55.454.969.383.335.79.418 1.34.526.657.132.813.167 1.112.407.215.179.37.442.37.777 0 .514-.298 1.088-1.35 1.088C1.53-.12.956-.574.693-1.77c-.048-.215-.048-.227-.06-.24-.024-.047-.072-.047-.108-.047-.131 0-.131.06-.131.275v1.627c0 .215 0 .275.12.275.06 0 .071-.012.274-.264.06-.083.06-.107.24-.299.454.563 1.1.563 1.303.563C3.588.12 4.21-.574 4.21-1.52c0-.646-.395-1.028-.502-1.136-.431-.37-.754-.443-1.543-.586-.359-.072-1.232-.24-1.232-.957 0-.37.251-.92 1.327-.92 1.304 0 1.376 1.111 1.4 1.482.012.096.095.096.131.096.132 0 .132-.06.132-.275z"/><clipPath id="l"><path d="M56.07 204.683h153.595V51.089H56.069Z"/></clipPath><clipPath id="ad"><path d="M268.67 204.683h153.596V51.09H268.67Z"/></clipPath></defs><g fill="none" stroke="gray" stroke-miterlimit="10" stroke-width=".19925"><path d="M68.858 204.683v-4.249m25.599 4.249v-4.249m25.598 4.249v-4.249m25.6 4.249v-4.249m25.598 4.249v-4.249m25.6 4.249v-4.249M68.857 51.09v4.249m25.599-4.249v4.249m25.598-4.249v4.249m25.6-4.249v4.249m25.598-4.249v4.249m25.6-4.249v4.249M56.07 203.97h2.833m-2.834-3.923h2.834m-2.834-3.043h2.834m-2.834-2.486h2.834m-2.834-2.102h2.834m-2.834-1.82h2.834m-2.834-1.607h2.834m-2.834-1.437h2.834m-2.834-9.451h2.834m-2.834-5.53h2.834m-2.834-3.922h2.834m-2.834-3.043h2.834m-2.834-2.486h2.834m-2.834-2.102h2.834m-2.834-1.82h2.834m-2.834-1.606h2.834m-2.834-1.437h2.834m-2.834-9.452h2.834m-2.834-5.529h2.834m-2.834-3.922h2.834m-2.834-3.043h2.834m-2.834-2.486h2.834m-2.834-2.102h2.834m-2.834-1.821h2.834m-2.834-1.606h2.834m-2.834-1.437h2.834m-2.834-9.451h2.834m-2.834-5.53h2.834m-2.834-3.922h2.834m-2.834-3.043h2.834m-2.834-2.486h2.834m-2.834-2.102h2.834m-2.834-1.82h2.834m-2.834-1.607h2.834m-2.834-1.436h2.834m-2.834-9.452h2.834m-2.834-5.529h2.834m-2.834-3.923h2.834m-2.834-3.042h2.834m-2.834-2.487h2.834m-2.834-2.102h2.834m-2.834-1.82h2.834m-2.834-1.606h2.834m150.762 140.57h-2.833m2.833-3.922h-2.833m2.833-3.043h-2.833m2.833-2.486h-2.833m2.833-2.102h-2.833m2.833-1.82h-2.833m2.833-1.607h-2.833m2.833-1.437h-2.833m2.833-9.451h-2.833m2.833-5.53h-2.833m2.833-3.922h-2.833m2.833-3.043h-2.833m2.833-2.486h-2.833m2.833-2.102h-2.833m2.833-1.82h-2.833m2.833-1.606h-2.833m2.833-1.437h-2.833m2.833-9.452h-2.833m2.833-5.529h-2.833m2.833-3.922h-2.833m2.833-3.043h-2.833m2.833-2.486h-2.833m2.833-2.102h-2.833m2.833-1.821h-2.833m2.833-1.606h-2.833m2.833-1.437h-2.833m2.833-9.451h-2.833m2.833-5.53h-2.833m2.833-3.922h-2.833m2.833-3.043h-2.833m2.833-2.486h-2.833m2.833-2.102h-2.833m2.833-1.82h-2.833m2.833-1.607h-2.833m2.833-1.436h-2.833m2.833-9.452h-2.833m2.833-5.529h-2.833m2.833-3.923h-2.833m2.833-3.042h-2.833m2.833-2.487h-2.833m2.833-2.102h-2.833m2.833-1.82h-2.833m2.833-1.606h-2.833M56.07 187.552h4.249m-4.25-31.397h4.25m-4.25-31.398h4.25m-4.25-31.397h4.25m-4.25-31.398h4.25m149.346 125.59h-4.25m4.25-31.397h-4.25m4.25-31.398h-4.25m4.25-31.397h-4.25m4.25-31.398h-4.25"/></g><path fill="none" stroke="#000" stroke-miterlimit="10" stroke-width=".3985" d="M56.07 204.683V51.089h153.595v153.594z"/><use xlink:href="#a" x="-48.01427" y="205.172343" transform="translate(111.56 13.252)scale(1.0004)"/><use xlink:href="#b" x="-42.141471" y="200.749481" transform="matrix(.99999 0 0 .99999 111.56 13.252)"/><use xlink:href="#a" x="-48.01427" y="205.172343" transform="translate(137.159 13.252)scale(1.0004)"/><use xlink:href="#c" x="-42.141471" y="200.749481" transform="matrix(.99999 0 0 .99999 137.159 13.252)"/><use xlink:href="#a" x="-48.01427" y="205.172343" transform="translate(160.641 13.252)scale(1.0004)"/><g transform="matrix(.99999 0 0 .99999 160.641 13.252)"><use xlink:href="#d" x="-42.141471" y="200.749481"/><use xlink:href="#d" x="-37.909399" y="200.749481"/></g><use xlink:href="#a" x="-48.01427" y="205.172343" transform="translate(186.24 13.252)scale(1.0004)"/><g transform="matrix(.99999 0 0 .99999 186.24 13.252)"><use xlink:href="#d" x="-42.141471" y="200.749481"/><use xlink:href="#e" x="-37.909399" y="200.749481"/></g><use xlink:href="#a" x="-48.01427" y="205.172343" transform="translate(211.838 13.252)scale(1.0004)"/><g transform="matrix(.99999 0 0 .99999 211.838 13.252)"><use xlink:href="#d" x="-42.141471" y="200.749481"/><use xlink:href="#f" x="-37.909399" y="200.749481"/></g><use xlink:href="#a" x="-48.01427" y="205.172343" transform="translate(237.437 13.252)scale(1.0004)"/><g transform="matrix(.99999 0 0 .99999 237.437 13.252)"><use xlink:href="#d" x="-42.141471" y="200.749481"/><use xlink:href="#b" x="-37.909399" y="200.749481"/></g><g transform="translate(83.442 -12.8)scale(1.0004)"><use xlink:href="#g" x="-48.01427" y="205.172343"/><use xlink:href="#h" x="-42.165831" y="205.172343"/></g><use xlink:href="#i" x="-36.288544" y="200.749481" transform="matrix(.99999 0 0 .99999 83.442 -12.8)"/><g transform="translate(83.442 -44.198)scale(1.0004)"><use xlink:href="#g" x="-48.01427" y="205.172343"/><use xlink:href="#h" x="-42.165831" y="205.172343"/></g><use xlink:href="#f" x="-36.288544" y="200.749481" transform="matrix(.99999 0 0 .99999 83.442 -44.198)"/><g transform="translate(83.442 -75.595)scale(1.0004)"><use xlink:href="#g" x="-48.01427" y="205.172343"/><use xlink:href="#h" x="-42.165831" y="205.172343"/></g><use xlink:href="#j" x="-36.288544" y="200.749481" transform="matrix(.99999 0 0 .99999 83.442 -75.595)"/><g transform="translate(83.442 -106.993)scale(1.0004)"><use xlink:href="#g" x="-48.01427" y="205.172343"/><use xlink:href="#h" x="-42.165831" y="205.172343"/></g><use xlink:href="#b" x="-36.288544" y="200.749481" transform="matrix(.99999 0 0 .99999 83.442 -106.993)"/><g transform="translate(83.442 -138.391)scale(1.0004)"><use xlink:href="#g" x="-48.01427" y="205.172343"/><use xlink:href="#h" x="-42.165831" y="205.172343"/></g><use xlink:href="#k" x="-36.288544" y="200.749481" transform="matrix(.99999 0 0 .99999 83.442 -138.391)"/><g clip-path="url(#l)"><path fill="none" stroke="#000" stroke-miterlimit="10" stroke-width=".3985" d="m43.27 203.914 7.466-7.089 7.467-6.937 7.466-6.814 7.467-6.71 7.466-6.622 7.467-6.548 7.466-6.484 7.466-6.424 7.467-6.378 7.466-6.328 7.467-6.293 7.466-6.255 7.466-6.22 7.467-6.196 7.466-6.163 7.467-6.142 7.466-6.12 7.467-6.095 7.466-6.079 7.466-6.058 7.467-6.044 7.466-6.026 7.467-6.012 7.466-6"/><g transform="rotate(-39.957 -7.649 14.615)scale(.99971)"><use xlink:href="#m" x="-47.982474" y="205.036476"/><use xlink:href="#n" x="-41.619135" y="205.036476"/><use xlink:href="#o" x="-31.121294" y="205.036476"/><use xlink:href="#p" x="-26.141294" y="205.036476"/><use xlink:href="#q" x="-21.145478" y="205.036476"/><use xlink:href="#r" x="-18.379199" y="205.036476"/><use xlink:href="#s" x="-13.399199" y="205.036476"/><use xlink:href="#t" x="-9.52551" y="205.036476"/><use xlink:href="#u" x="-1.887504" y="205.036476"/><use xlink:href="#v" x=".871416" y="205.036476"/><use xlink:href="#w" x="5.851416" y="205.036476"/></g><use xlink:href="#x" x="10.975019" y="207.41292" transform="scale(.99943)rotate(-39.957 -7.653 14.624)"/><g transform="rotate(-39.957 -7.649 14.615)scale(.99971)"><use xlink:href="#s" x="15.445971" y="205.036476"/><use xlink:href="#t" x="19.318961" y="205.036476"/><use xlink:href="#y" x="25.297399" y="205.036476"/><use xlink:href="#y" x="29.161877" y="205.036476"/></g><g transform="scale(.99943)rotate(-39.957 -7.653 14.624)"><use xlink:href="#z" x="33.03499" y="201.365207"/><use xlink:href="#A" x="37.003829" y="201.365207"/><use xlink:href="#B" x="39.368542" y="201.365207"/><use xlink:href="#z" x="43.334472" y="201.365207"/></g><g transform="rotate(-39.957 -7.649 14.615)scale(.99971)"><use xlink:href="#s" x="50.031942" y="205.036476"/><use xlink:href="#C" x="53.904932" y="205.036476"/></g><use xlink:href="#x" x="61.527462" y="201.365207" transform="scale(.99943)rotate(-39.957 -7.653 14.624)"/><g transform="rotate(-39.957 -7.649 14.615)scale(.99971)"><use xlink:href="#n" x="68.779054" y="205.036476"/><use xlink:href="#D" x="79.276895" y="205.036476"/><use xlink:href="#q" x="84.27301" y="205.036476"/><use xlink:href="#r" x="87.039286" y="205.036476"/><use xlink:href="#E" x="92.019287" y="205.036476"/><use xlink:href="#F" x="96.999287" y="205.036476"/><use xlink:href="#y" x="101.979287" y="205.036476"/></g></g><path d="M69.991 191.883a1.12 1.12 0 1 0-2.242 0 1.12 1.12 0 0 0 2.242 0"/><path fill="none" stroke="#000" stroke-miterlimit="10" stroke-width=".3985" d="M69.991 191.883a1.12 1.12 0 1 0-2.242 0 1.12 1.12 0 0 0 2.242 0Z"/><path d="M82.79 166.791a1.12 1.12 0 1 0-2.241 0 1.12 1.12 0 0 0 2.241 0"/><path fill="none" stroke="#000" stroke-miterlimit="10" stroke-width=".3985" d="M82.79 166.791a1.12 1.12 0 1 0-2.241 0 1.12 1.12 0 0 0 2.241 0Z"/><path d="M95.59 151.806a1.12 1.12 0 1 0-2.241 0 1.12 1.12 0 0 0 2.241 0"/><path fill="none" stroke="#000" stroke-miterlimit="10" stroke-width=".3985" d="M95.59 151.806a1.12 1.12 0 1 0-2.241 0 1.12 1.12 0 0 0 2.241 0Z"/><path d="M108.39 142.557a1.12 1.12 0 1 0-2.242 0 1.12 1.12 0 0 0 2.242 0"/><path fill="none" stroke="#000" stroke-miterlimit="10" stroke-width=".3985" d="M108.39 142.557a1.12 1.12 0 1 0-2.242 0 1.12 1.12 0 0 0 2.242 0Z"/><path d="M121.189 131.98a1.12 1.12 0 1 0-2.242 0 1.12 1.12 0 0 0 2.242 0"/><path fill="none" stroke="#000" stroke-miterlimit="10" stroke-width=".3985" d="M121.189 131.98a1.12 1.12 0 1 0-2.242 0 1.12 1.12 0 0 0 2.242 0Z"/><path d="M133.988 121.893a1.12 1.12 0 1 0-2.242 0 1.12 1.12 0 0 0 2.242 0"/><path fill="none" stroke="#000" stroke-miterlimit="10" stroke-width=".3985" d="M133.988 121.893a1.12 1.12 0 1 0-2.242 0 1.12 1.12 0 0 0 2.242 0Z"/><path d="M146.787 111.618a1.12 1.12 0 1 0-2.241 0 1.12 1.12 0 0 0 2.241 0"/><path fill="none" stroke="#000" stroke-miterlimit="10" stroke-width=".3985" d="M146.787 111.618a1.12 1.12 0 1 0-2.241 0 1.12 1.12 0 0 0 2.241 0Z"/><path d="M159.588 105.287a1.12 1.12 0 1 0-2.242 0 1.12 1.12 0 0 0 2.242 0"/><path fill="none" stroke="#000" stroke-miterlimit="10" stroke-width=".3985" d="M159.588 105.287a1.12 1.12 0 1 0-2.242 0 1.12 1.12 0 0 0 2.242 0Z"/><path d="M172.387 94.943a1.12 1.12 0 1 0-2.242 0 1.12 1.12 0 0 0 2.242 0"/><path fill="none" stroke="#000" stroke-miterlimit="10" stroke-width=".3985" d="M172.387 94.943a1.12 1.12 0 1 0-2.242 0 1.12 1.12 0 0 0 2.242 0Z"/><path d="M185.186 84.545a1.12 1.12 0 1 0-2.241 0 1.12 1.12 0 0 0 2.241 0"/><path fill="none" stroke="#000" stroke-miterlimit="10" stroke-width=".3985" d="M185.186 84.545a1.12 1.12 0 1 0-2.241 0 1.12 1.12 0 0 0 2.241 0Z"/><path d="M197.986 74.166a1.12 1.12 0 1 0-2.242 0 1.12 1.12 0 0 0 2.242 0"/><path fill="none" stroke="#000" stroke-miterlimit="10" stroke-width=".3985" d="M197.986 74.166a1.12 1.12 0 1 0-2.242 0 1.12 1.12 0 0 0 2.242 0Z"/><g transform="translate(150.995 29.227)scale(1.0004)"><use xlink:href="#G" x="-48.01427" y="205.172343"/><use xlink:href="#H" x="-42.153868" y="205.172343"/><use xlink:href="#H" x="-37.597109" y="205.172343"/><use xlink:href="#G" x="-33.04035" y="205.172343"/><use xlink:href="#I" x="-27.490909" y="205.172343"/><use xlink:href="#J" x="-17.42059" y="205.172343"/><use xlink:href="#K" x="-12.804028" y="205.172343"/><use xlink:href="#L" x="-9.550907" y="205.172343"/><use xlink:href="#M" x="-4.348307" y="205.172343"/><use xlink:href="#N" x="4.752907" y="205.172343"/></g><g transform="rotate(-90 -27.094 153.706)scale(1.0004)"><use xlink:href="#M" x="-48.01427" y="205.172343"/><use xlink:href="#O" x="-42.81167" y="205.172343"/><use xlink:href="#G" x="-39.558546" y="205.172343"/><use xlink:href="#P" x="-33.698149" y="205.172343"/><use xlink:href="#J" x="-27.191907" y="205.172343"/><use xlink:href="#M" x="-22.575347" y="205.172343"/><use xlink:href="#Q" x="-17.372747" y="205.172343"/><use xlink:href="#R" x="-6.967546" y="205.172343"/><use xlink:href="#K" x="-2.410785" y="205.172343"/><use xlink:href="#S" x=".842335" y="205.172343"/><use xlink:href="#M" x="10.601696" y="205.172343"/><use xlink:href="#T" x="19.702912" y="205.172343"/><use xlink:href="#U" x="27.831174" y="205.172343"/><use xlink:href="#V" x="31.072335" y="205.172343"/><use xlink:href="#W" x="37.566615" y="205.172343"/><use xlink:href="#X" x="42.183176" y="205.172343"/></g><g transform="translate(157.902 -167.163)scale(1.0004)"><use xlink:href="#Y" x="-48.01427" y="190.721544"/><use xlink:href="#M" x="-39.235631" y="190.721544"/><use xlink:href="#G" x="-34.033029" y="190.721544"/><use xlink:href="#P" x="-28.172631" y="190.721544"/><use xlink:href="#J" x="-21.66639" y="190.721544"/><use xlink:href="#Z" x="-17.049829" y="190.721544"/><use xlink:href="#H" x="-11.189429" y="190.721544"/><use xlink:href="#R" x="-6.632668" y="190.721544"/><use xlink:href="#aa" x="-46.196539" y="205.172343"/><use xlink:href="#ab" x="-41.639779" y="205.172343"/><use xlink:href="#Z" x="-35.13354" y="205.172343"/><use xlink:href="#H" x="-29.273138" y="205.172343"/><use xlink:href="#R" x="-24.716379" y="205.172343"/><use xlink:href="#M" x="-20.159619" y="205.172343"/><use xlink:href="#Q" x="-14.957018" y="205.172343"/><use xlink:href="#ac" x="-8.450778" y="205.172343"/></g><g fill="none" stroke="gray" stroke-miterlimit="10" stroke-width=".19925"><path d="M281.459 204.683v-4.248m25.599 4.248v-4.248m25.598 4.248v-4.248m25.6 4.248v-4.248m25.598 4.248v-4.248m25.6 4.248v-4.248M281.458 51.09v4.248m25.599-4.248v4.248m25.598-4.248v4.248m25.6-4.248v4.248m25.598-4.248v4.248m25.6-4.248v4.248M268.67 202.15h2.834m-2.834-3.87h2.834m-2.834-3.001h2.834m-2.834-2.453h2.834m-2.834-2.073h2.834m-2.834-1.796h2.834m-2.834-1.585h2.834m-2.834-1.417h2.834m-2.834-9.323h2.834m-2.834-5.454h2.834m-2.834-3.87h2.834m-2.834-3h2.834m-2.834-2.453h2.834m-2.834-2.074h2.834m-2.834-1.796h2.834m-2.834-1.584h2.834m-2.834-1.417h2.834m-2.834-9.323h2.834m-2.834-5.454h2.834m-2.834-3.87h2.834m-2.834-3.001h2.834m-2.834-2.453h2.834m-2.834-2.073h2.834m-2.834-1.796h2.834m-2.834-1.584h2.834m-2.834-1.418h2.834m-2.834-9.323h2.834m-2.834-5.454h2.834m-2.834-3.87h2.834m-2.834-3h2.834m-2.834-2.453h2.834m-2.834-2.073h2.834m-2.834-1.797h2.834m-2.834-1.584h2.834m-2.834-1.417h2.834m-2.834-9.323h2.834m-2.834-5.454h2.834m-2.834-3.87h2.834m-2.834-3.001h2.834m-2.834-2.453h2.834m-2.834-2.073h2.834m-2.834-1.796h2.834m-2.834-1.584h2.834m150.762 138.662h-2.833m2.833-3.869h-2.833m2.833-3.001h-2.833m2.833-2.453h-2.833m2.833-2.073h-2.833m2.833-1.796h-2.833m2.833-1.585h-2.833m2.833-1.417h-2.833m2.833-9.323h-2.833m2.833-5.454h-2.833m2.833-3.87h-2.833m2.833-3h-2.833m2.833-2.453h-2.833m2.833-2.074h-2.833m2.833-1.796h-2.833m2.833-1.584h-2.833m2.833-1.417h-2.833m2.833-9.323h-2.833m2.833-5.454h-2.833m2.833-3.87h-2.833m2.833-3.001h-2.833m2.833-2.453h-2.833m2.833-2.073h-2.833m2.833-1.796h-2.833m2.833-1.584h-2.833m2.833-1.418h-2.833m2.833-9.323h-2.833m2.833-5.454h-2.833m2.833-3.87h-2.833m2.833-3h-2.833m2.833-2.453h-2.833m2.833-2.073h-2.833m2.833-1.797h-2.833m2.833-1.584h-2.833m2.833-1.417h-2.833m2.833-9.323h-2.833m2.833-5.454h-2.833m2.833-3.87h-2.833m2.833-3.001h-2.833m2.833-2.453h-2.833m2.833-2.073h-2.833m2.833-1.796h-2.833m2.833-1.584h-2.833M268.67 185.955h4.25m-4.25-30.971h4.25m-4.25-30.972h4.25m-4.25-30.971h4.25m-4.25-30.971h4.25m149.346 123.885h-4.25m4.25-30.971h-4.25m4.25-30.972h-4.25m4.25-30.971h-4.25m4.25-30.971h-4.25"/></g><path fill="none" stroke="#000" stroke-miterlimit="10" stroke-width=".3985" d="M268.67 204.683V51.09h153.596v153.594z"/><use xlink:href="#a" x="-48.01427" y="201.869018" transform="translate(324.161 16.554)scale(1.0004)"/><use xlink:href="#b" x="-42.141471" y="197.447523" transform="matrix(.99999 0 0 .99999 324.161 16.554)"/><use xlink:href="#a" x="-48.01427" y="201.869018" transform="translate(349.76 16.554)scale(1.0004)"/><use xlink:href="#c" x="-42.141471" y="197.447523" transform="matrix(.99999 0 0 .99999 349.76 16.554)"/><use xlink:href="#a" x="-48.01427" y="201.869018" transform="translate(373.242 16.554)scale(1.0004)"/><g transform="matrix(.99999 0 0 .99999 373.242 16.554)"><use xlink:href="#d" x="-42.141471" y="197.447523"/><use xlink:href="#d" x="-37.909399" y="197.447523"/></g><use xlink:href="#a" x="-48.01427" y="201.869018" transform="translate(398.841 16.554)scale(1.0004)"/><g transform="matrix(.99999 0 0 .99999 398.841 16.554)"><use xlink:href="#d" x="-42.141471" y="197.447523"/><use xlink:href="#e" x="-37.909399" y="197.447523"/></g><use xlink:href="#a" x="-48.01427" y="201.869018" transform="translate(424.439 16.554)scale(1.0004)"/><g transform="matrix(.99999 0 0 .99999 424.439 16.554)"><use xlink:href="#d" x="-42.141471" y="197.447523"/><use xlink:href="#f" x="-37.909399" y="197.447523"/></g><use xlink:href="#a" x="-48.01427" y="201.869018" transform="translate(450.038 16.554)scale(1.0004)"/><g transform="matrix(.99999 0 0 .99999 450.038 16.554)"><use xlink:href="#d" x="-42.141471" y="197.447523"/><use xlink:href="#b" x="-37.909399" y="197.447523"/></g><g transform="translate(296.043 -11.095)scale(1.0004)"><use xlink:href="#g" x="-48.01427" y="201.869018"/><use xlink:href="#h" x="-42.165831" y="201.869018"/></g><use xlink:href="#i" x="-36.288544" y="197.447523" transform="matrix(.99999 0 0 .99999 296.043 -11.095)"/><g transform="translate(296.043 -42.067)scale(1.0004)"><use xlink:href="#g" x="-48.01427" y="201.869018"/><use xlink:href="#h" x="-42.165831" y="201.869018"/></g><use xlink:href="#f" x="-36.288544" y="197.447523" transform="matrix(.99999 0 0 .99999 296.043 -42.067)"/><g transform="translate(296.043 -73.038)scale(1.0004)"><use xlink:href="#g" x="-48.01427" y="201.869018"/><use xlink:href="#h" x="-42.165831" y="201.869018"/></g><use xlink:href="#j" x="-36.288544" y="197.447523" transform="matrix(.99999 0 0 .99999 296.043 -73.038)"/><g transform="translate(296.043 -104.01)scale(1.0004)"><use xlink:href="#g" x="-48.01427" y="201.869018"/><use xlink:href="#h" x="-42.165831" y="201.869018"/></g><use xlink:href="#b" x="-36.288544" y="197.447523" transform="matrix(.99999 0 0 .99999 296.043 -104.01)"/><g transform="translate(296.043 -134.981)scale(1.0004)"><use xlink:href="#g" x="-48.01427" y="201.869018"/><use xlink:href="#h" x="-42.165831" y="201.869018"/></g><use xlink:href="#k" x="-36.288544" y="197.447523" transform="matrix(.99999 0 0 .99999 296.043 -134.981)"/><g clip-path="url(#ad)"><path fill="none" stroke="#000" stroke-miterlimit="10" stroke-width=".3985" d="m255.871 206.115 7.466-7.2 7.467-7.045 7.466-6.922 7.467-6.816 7.466-6.726 7.467-6.651 7.466-6.584 7.466-6.527 7.467-6.477 7.466-6.428 7.467-6.393 7.466-6.353 7.466-6.319 7.467-6.291 7.466-6.261 7.467-6.238 7.466-6.216 7.467-6.192 7.466-6.173 7.466-6.155 7.467-6.137 7.466-6.122 7.467-6.107 7.466-6.093"/><g transform="rotate(-40.397 105.522 -273.755)scale(.99969)"><use xlink:href="#m" x="-47.982474" y="201.735338"/><use xlink:href="#n" x="-41.619135" y="201.735338"/><use xlink:href="#o" x="-31.121294" y="201.735338"/><use xlink:href="#o" x="-26.141294" y="201.735338"/><use xlink:href="#q" x="-21.145478" y="201.735338"/><use xlink:href="#ae" x="-18.379199" y="201.735338"/><use xlink:href="#s" x="-13.399199" y="201.735338"/><use xlink:href="#t" x="-9.52551" y="201.735338"/><use xlink:href="#u" x="-1.887504" y="201.735338"/><use xlink:href="#v" x=".871416" y="201.735338"/><use xlink:href="#w" x="5.851416" y="201.735338"/></g><use xlink:href="#x" x="10.975019" y="204.11171" transform="scale(.9994)rotate(-40.396 105.584 -273.919)"/><g transform="rotate(-40.397 105.522 -273.755)scale(.99969)"><use xlink:href="#s" x="15.445971" y="201.735338"/><use xlink:href="#t" x="19.318961" y="201.735338"/><use xlink:href="#y" x="25.297399" y="201.735338"/><use xlink:href="#y" x="29.161877" y="201.735338"/></g><g transform="scale(.9994)rotate(-40.396 105.584 -273.919)"><use xlink:href="#z" x="33.03499" y="198.065006"/><use xlink:href="#A" x="37.003829" y="198.065006"/><use xlink:href="#B" x="39.368542" y="198.065006"/><use xlink:href="#af" x="43.334472" y="198.065006"/></g><g transform="rotate(-40.397 105.522 -273.755)scale(.99969)"><use xlink:href="#s" x="50.031942" y="201.735338"/><use xlink:href="#C" x="53.904932" y="201.735338"/></g><use xlink:href="#x" x="61.527462" y="198.065006" transform="scale(.9994)rotate(-40.396 105.584 -273.919)"/><g transform="rotate(-40.397 105.522 -273.755)scale(.99969)"><use xlink:href="#n" x="68.779054" y="201.735338"/><use xlink:href="#D" x="79.276895" y="201.735338"/><use xlink:href="#q" x="84.27301" y="201.735338"/><use xlink:href="#r" x="87.039286" y="201.735338"/><use xlink:href="#E" x="92.019287" y="201.735338"/><use xlink:href="#E" x="96.999287" y="201.735338"/><use xlink:href="#y" x="101.979287" y="201.735338"/></g></g><path d="M282.592 191.883a1.12 1.12 0 1 0-2.242 0 1.12 1.12 0 0 0 2.242 0"/><path fill="none" stroke="#000" stroke-miterlimit="10" stroke-width=".3985" d="M282.592 191.883a1.12 1.12 0 1 0-2.242 0 1.12 1.12 0 0 0 2.242 0Z"/><path d="M295.391 169.423a1.12 1.12 0 1 0-2.241 0 1.12 1.12 0 0 0 2.241 0"/><path fill="none" stroke="#000" stroke-miterlimit="10" stroke-width=".3985" d="M295.391 169.423a1.12 1.12 0 1 0-2.241 0 1.12 1.12 0 0 0 2.241 0Z"/><path d="M308.191 155.658a1.12 1.12 0 1 0-2.241 0 1.12 1.12 0 0 0 2.241 0"/><path fill="none" stroke="#000" stroke-miterlimit="10" stroke-width=".3985" d="M308.191 155.658a1.12 1.12 0 1 0-2.241 0 1.12 1.12 0 0 0 2.241 0Z"/><path d="M320.99 143.816a1.12 1.12 0 1 0-2.241 0 1.12 1.12 0 0 0 2.242 0"/><path fill="none" stroke="#000" stroke-miterlimit="10" stroke-width=".3985" d="M320.99 143.816a1.12 1.12 0 1 0-2.241 0 1.12 1.12 0 0 0 2.242 0Z"/><path d="M333.79 132.705a1.12 1.12 0 1 0-2.242 0 1.12 1.12 0 0 0 2.242 0"/><path fill="none" stroke="#000" stroke-miterlimit="10" stroke-width=".3985" d="M333.79 132.705a1.12 1.12 0 1 0-2.242 0 1.12 1.12 0 0 0 2.242 0Z"/><path d="M346.589 125.707a1.12 1.12 0 1 0-2.242 0 1.12 1.12 0 0 0 2.242 0"/><path fill="none" stroke="#000" stroke-miterlimit="10" stroke-width=".3985" d="M346.589 125.707a1.12 1.12 0 1 0-2.242 0 1.12 1.12 0 0 0 2.242 0Z"/><path d="M359.388 113.903a1.12 1.12 0 1 0-2.241 0 1.12 1.12 0 0 0 2.241 0"/><path fill="none" stroke="#000" stroke-miterlimit="10" stroke-width=".3985" d="M359.388 113.903a1.12 1.12 0 1 0-2.241 0 1.12 1.12 0 0 0 2.241 0Z"/><path d="M372.189 103.268a1.12 1.12 0 1 0-2.242 0 1.12 1.12 0 0 0 2.241 0"/><path fill="none" stroke="#000" stroke-miterlimit="10" stroke-width=".3985" d="M372.189 103.268a1.12 1.12 0 1 0-2.242 0 1.12 1.12 0 0 0 2.241 0Z"/><path d="M384.988 95.805a1.12 1.12 0 1 0-2.242 0 1.12 1.12 0 0 0 2.242 0"/><path fill="none" stroke="#000" stroke-miterlimit="10" stroke-width=".3985" d="M384.988 95.805a1.12 1.12 0 1 0-2.242 0 1.12 1.12 0 0 0 2.242 0Z"/><path d="M397.787 85.507a1.12 1.12 0 1 0-2.241 0 1.12 1.12 0 0 0 2.241 0"/><path fill="none" stroke="#000" stroke-miterlimit="10" stroke-width=".3985" d="M397.787 85.507a1.12 1.12 0 1 0-2.241 0 1.12 1.12 0 0 0 2.241 0Z"/><path d="M410.587 75.313a1.12 1.12 0 1 0-2.242 0 1.12 1.12 0 0 0 2.242 0"/><path fill="none" stroke="#000" stroke-miterlimit="10" stroke-width=".3985" d="M410.587 75.313a1.12 1.12 0 1 0-2.242 0 1.12 1.12 0 0 0 2.242 0Z"/><g transform="translate(363.596 32.53)scale(1.0004)"><use xlink:href="#G" x="-48.01427" y="201.869018"/><use xlink:href="#H" x="-42.153868" y="201.869018"/><use xlink:href="#H" x="-37.597109" y="201.869018"/><use xlink:href="#G" x="-33.04035" y="201.869018"/><use xlink:href="#I" x="-27.490909" y="201.869018"/><use xlink:href="#J" x="-17.42059" y="201.869018"/><use xlink:href="#K" x="-12.804028" y="201.869018"/><use xlink:href="#L" x="-9.550907" y="201.869018"/><use xlink:href="#M" x="-4.348307" y="201.869018"/><use xlink:href="#N" x="4.752907" y="201.869018"/></g><g transform="rotate(-90 80.857 45.754)scale(1.0004)"><use xlink:href="#M" x="-48.01427" y="201.869018"/><use xlink:href="#O" x="-42.81167" y="201.869018"/><use xlink:href="#G" x="-39.558546" y="201.869018"/><use xlink:href="#P" x="-33.698149" y="201.869018"/><use xlink:href="#J" x="-27.191907" y="201.869018"/><use xlink:href="#M" x="-22.575347" y="201.869018"/><use xlink:href="#Q" x="-17.372747" y="201.869018"/><use xlink:href="#R" x="-6.967546" y="201.869018"/><use xlink:href="#K" x="-2.410785" y="201.869018"/><use xlink:href="#S" x=".842335" y="201.869018"/><use xlink:href="#M" x="10.601696" y="201.869018"/><use xlink:href="#T" x="19.702912" y="201.869018"/><use xlink:href="#U" x="27.831174" y="201.869018"/><use xlink:href="#V" x="31.072335" y="201.869018"/><use xlink:href="#W" x="37.566615" y="201.869018"/><use xlink:href="#X" x="42.183176" y="201.869018"/></g><g transform="translate(366.032 -163.861)scale(1.0004)"><use xlink:href="#Y" x="-43.541475" y="187.417218"/><use xlink:href="#M" x="-34.762836" y="187.417218"/><use xlink:href="#G" x="-29.560234" y="187.417218"/><use xlink:href="#P" x="-23.699835" y="187.417218"/><use xlink:href="#J" x="-17.193594" y="187.417218"/><use xlink:href="#Z" x="-12.577033" y="187.417218"/><use xlink:href="#H" x="-6.716633" y="187.417218"/><use xlink:href="#R" x="-2.159872" y="187.417218"/><use xlink:href="#aa" x="-48.01427" y="201.869018"/><use xlink:href="#ag" x="-43.45751" y="201.869018"/><use xlink:href="#M" x="-34.834347" y="201.869018"/><use xlink:href="#ah" x="-29.631746" y="201.869018"/><use xlink:href="#M" x="-23.759386" y="201.869018"/><use xlink:href="#H" x="-18.556786" y="201.869018"/><use xlink:href="#J" x="-14.000025" y="201.869018"/><use xlink:href="#M" x="-9.383464" y="201.869018"/><use xlink:href="#Q" x="-4.180864" y="201.869018"/><use xlink:href="#ac" x="2.325377" y="201.869018"/></g></svg>