<svg xmlns="http://www.w3.org/2000/svg" xmlns:xlink="http://www.w3.org/1999/xlink" width="304.71pt" height="129.85pt" viewBox="0 0 304.71 129.85"><defs><path id="i" d="M4.768-6.077c0-.654-.873-.654-1.048-.654-.872 0-1.713.501-1.713 1.45v.579H.917c-.175 0-.448 0-.448.338 0 .327.273.327.437.327h1.101v3.371H.906c-.164 0-.448 0-.448.328C.458 0 .742 0 .906 0h2.956c.164 0 .447 0 .447-.327 0-.339-.283-.339-.447-.339H2.76v-3.37h1.331c.164 0 .437 0 .437-.328 0-.338-.262-.338-.437-.338h-1.33v-.513c0-.851.73-.851 1.057-.851 0 .044.099.47.48.47.219 0 .47-.175.47-.48"/><path id="h" d="M4.964-.327c0-.339-.284-.339-.447-.339H3.37v-3.589c0-.338-.065-.447-.436-.447h-1.55c-.163 0-.447 0-.447.327 0 .338.284.338.448.338h1.232v3.371h-1.32c-.174 0-.447 0-.447.339 0 .327.284.327.447.327h3.219c.163 0 .447 0 .447-.327m-1.55-5.728c0-.306-.24-.546-.545-.546s-.545.24-.545.546.24.545.545.545.546-.24.546-.545"/><path id="n" d="M5.139-3.404c0-2.63-1.211-3.382-2.248-3.382-1.21 0-2.313.906-2.313 2.226 0 1.243.96 2.214 2.16 2.214.568 0 1.135-.185 1.626-.632-.11 1.352-.96 2.433-2.007 2.433-.099 0-.491-.011-.72-.186.043-.055.098-.12.098-.305a.47.47 0 0 0-.48-.48c-.273 0-.491.185-.491.512C.764-.654.96.12 2.357.12c1.44 0 2.782-1.364 2.782-3.524m-.851-.84c0 .6-.59 1.222-1.495 1.222-.884 0-1.462-.731-1.462-1.538 0-.95.775-1.56 1.56-1.56.47 0 .775.25.95.469.348.425.447.632.447 1.407"/><path id="l" d="M5.324-2.357c0-1.341-.97-2.41-2.127-2.41-.524 0-1.015.196-1.386.534 0-.316-.022-.47-.436-.47H.578c-.174 0-.447 0-.447.339 0 .327.284.327.436.327h.491v5.794h-.48c-.174 0-.447 0-.447.338 0 .327.284.327.436.327h1.735c.153 0 .436 0 .436-.327 0-.338-.272-.338-.447-.338h-.48V-.491c.447.458.917.556 1.266.556 1.189 0 2.247-1.036 2.247-2.422m-.753 0C4.571-1.309 3.808-.6 3.044-.6c-.851 0-1.233-.96-1.233-1.484v-.796c0-.644.633-1.222 1.32-1.222.808 0 1.44.796 1.44 1.745"/><path id="m" d="M4.768.59c0-.165-.077-.208-.273-.34C3.142-.665 2.64-2.116 2.64-3.337c0-1.091.415-2.608 1.877-3.6.174-.12.25-.164.25-.328 0-.087-.054-.306-.338-.306-.316 0-2.542 1.44-2.542 4.234 0 1.298.502 2.28.884 2.825C3.35.284 4.168.895 4.43.895c.284 0 .339-.219.339-.306"/><path id="o" d="M3.84-3.338c0-1.299-.502-2.28-.883-2.826-.579-.797-1.397-1.408-1.659-1.408a.315.315 0 0 0-.338.306c0 .164.12.24.175.273 1.789 1.189 1.953 2.945 1.953 3.655 0 1.09-.404 2.607-1.877 3.6-.164.109-.25.163-.25.327 0 .087.065.306.337.306.317 0 2.542-1.44 2.542-4.233"/><path id="g" d="M5.008-1.364c0-1.134-1.408-1.363-1.757-1.418l-.742-.131c-.316-.044-1.058-.175-1.058-.6 0-.284.35-.622 1.386-.622.905 0 1.058.327 1.09.611.012.186.033.371.372.371.381 0 .381-.23.381-.447v-.753c0-.175 0-.447-.327-.447-.262 0-.305.152-.327.229-.48-.23-.96-.23-1.168-.23-1.822 0-2.072.895-2.072 1.288 0 1.004 1.145 1.19 2.149 1.342.534.087 1.407.229 1.407.807 0 .404-.403.764-1.396.764-.513 0-1.124-.12-1.397-.971-.054-.196-.098-.316-.382-.316-.381 0-.381.229-.381.447v1.058c0 .175 0 .447.327.447.098 0 .273-.01.403-.414.535.393 1.113.414 1.419.414 1.724 0 2.073-.905 2.073-1.429"/><path id="j" d="M4.899-1.375c0-.196 0-.425-.382-.425-.36 0-.371.229-.371.414-.011.677-.633.786-.884.786-.84 0-.84-.567-.84-.84v-2.597h1.79c.163 0 .436 0 .436-.327 0-.338-.262-.338-.437-.338H2.422v-.895c0-.207 0-.447-.37-.447-.383 0-.383.229-.383.447v.895H.72c-.174 0-.447 0-.447.338 0 .327.272.327.436.327h.96v2.662c0 1.048.742 1.44 1.539 1.44.807 0 1.69-.469 1.69-1.44"/><path id="k" d="M5.673-6.339c0-.327-.283-.327-.447-.327H3.818c-.163 0-.447 0-.447.327 0 .339.284.339.447.339h.328v3.72c0 1.167-.72 1.734-1.288 1.734-.578 0-1.287-.567-1.287-1.734V-6h.327c.164 0 .448 0 .448-.339 0-.327-.284-.327-.448-.327H.491c-.164 0-.447 0-.447.327C.044-6 .327-6 .49-6h.327v3.774c0 1.342.95 2.346 2.04 2.346s2.04-1.004 2.04-2.346V-6h.328c.174 0 .447 0 .447-.339"/><path id="e" d="M5.262-2.404c0-1.423-.956-2.607-2.212-2.607-.682 0-1.208.299-1.52.634v-2.476c.515.167.934.18 1.065.18 1.352 0 2.213-.993 2.213-1.16 0-.049-.024-.108-.096-.108 0 0-.048 0-.155.047a3.9 3.9 0 0 1-1.555.323c-.79 0-1.352-.239-1.579-.335-.083-.035-.12-.035-.12-.035-.095 0-.095.071-.095.263v3.552c0 .215 0 .287.143.287.06 0 .072-.012.192-.156.335-.49.897-.777 1.495-.777.634 0 .945.586 1.04.79.204.466.216 1.052.216 1.506s0 1.136-.335 1.675c-.263.43-.73.73-1.256.73-.79 0-1.567-.539-1.782-1.412.06.024.131.036.191.036.204 0 .527-.12.527-.526 0-.335-.228-.527-.527-.527-.215 0-.526.108-.526.574 0 1.017.813 2.177 2.14 2.177 1.352 0 2.536-1.136 2.536-2.655"/><path id="d" d="M5.358-3.935c0-3.217-1.34-4.018-2.392-4.018C1.65-7.953.49-6.853.49-5.274S1.603-2.62 2.8-2.62c.885 0 1.34-.646 1.578-1.256v.395c0 2.822-1.255 3.408-1.973 3.408-.287 0-.921-.036-1.22-.454h.072c.084.024.514-.048.514-.49 0-.264-.18-.491-.49-.491s-.503.203-.503.514c0 .742.598 1.244 1.639 1.244 1.495 0 2.942-1.59 2.942-4.186M4.353-5.01c0 1.004-.454 2.153-1.507 2.153-.753 0-1.076-.61-1.184-.838-.19-.454-.19-1.028-.19-1.566 0-.67 0-1.244.31-1.735.215-.323.538-.67 1.184-.67.682 0 1.029.599 1.148.874.24.586.24 1.602.24 1.782"/><path id="c" d="M4.904 0v-.347h-.371C3.48-.347 3.444-.49 3.444-.92v-6.745c0-.275 0-.287-.239-.287-.287.323-.885.765-2.117.765v.347c.275 0 .873 0 1.531-.311v6.231c0 .43-.036.574-1.088.574h-.37V0c.322-.024 1.482-.024 1.877-.024s1.543 0 1.866.024"/><path id="a" d="M5.681-7.427v-.275H2.799c-1.448 0-1.471-.156-1.52-.383h-.262L.646-5.693h.263c.036-.215.143-.957.299-1.088.096-.072.993-.072 1.16-.072h2.536L3.636-5.035C3.313-4.57 2.105-2.607 2.105-.36c0 .132 0 .61.49.61.503 0 .503-.466.503-.622v-.598c0-1.782.287-3.17.849-3.97z"/><path id="b" d="M5.358-2.44c0-1.59-1.112-2.655-2.308-2.655-1.065 0-1.46.921-1.579 1.256v-.323c0-3.026 1.471-3.504 2.117-3.504.43 0 .861.131 1.088.49-.143 0-.598 0-.598.49 0 .263.18.49.49.49.3 0 .503-.179.503-.526 0-.621-.454-1.231-1.495-1.231C2.069-7.953.49-6.411.49-3.78.49-.49 1.926.25 2.942.25c1.304 0 2.416-1.136 2.416-2.69m-.98-.012c0 .61 0 1.148-.228 1.603-.299.574-.73.777-1.208.777-.753 0-1.112-.67-1.22-.92-.107-.312-.227-.898-.227-1.735 0-.945.43-2.129 1.507-2.129.658 0 1.005.443 1.184.85.191.442.191 1.04.191 1.554"/><path id="f" d="M5.262-2.01H5c-.036.204-.131.862-.25 1.053-.085.108-.766.108-1.125.108H1.41c.323-.275 1.053-1.04 1.364-1.328 1.818-1.674 2.487-2.296 2.487-3.48 0-1.375-1.088-2.296-2.475-2.296S.586-6.77.586-5.741c0 .61.526.61.562.61.251 0 .562-.18.562-.562 0-.335-.227-.562-.562-.562-.107 0-.131 0-.167.012.227-.813.873-1.364 1.65-1.364 1.017 0 1.639.85 1.639 1.95 0 1.017-.586 1.902-1.268 2.667L.586-.287V0h4.365z"/></defs><path fill="#fff" d="M63.315 19.592a8.054 8.054 0 1 0-16.108 0 8.054 8.054 0 0 0 16.108 0"/><path fill="none" stroke="#000" stroke-miterlimit="10" stroke-width=".3985" d="M63.315 19.592a8.054 8.054 0 1 0-16.108 0 8.054 8.054 0 0 0 16.108 0Z"/><use xlink:href="#a" x="-16.745721" y="-52.429042" transform="translate(69.071 75.915)scale(1.0004)"/><path fill="#fff" d="M40.594 53.608a8.01 8.01 0 1 0-16.02 0 8.01 8.01 0 0 0 16.02 0"/><path fill="none" stroke="#000" stroke-miterlimit="10" stroke-width=".3985" d="M40.594 53.608a8.01 8.01 0 1 0-16.02 0 8.01 8.01 0 0 0 16.02 0Z"/><use xlink:href="#b" x="-16.745721" y="-52.429042" transform="translate(46.394 109.866)scale(1.0004)"/><path fill="none" stroke="#000" stroke-miterlimit="10" stroke-width=".3985" d="M50.683 26.459 37.137 46.778"/><path fill="#fff" d="M29.173 87.624a7.928 7.928 0 1 0-15.856 0 7.928 7.928 0 0 0 15.856 0"/><path fill="none" stroke="#000" stroke-miterlimit="10" stroke-width=".3985" d="M29.173 87.624a7.928 7.928 0 1 0-15.856 0 7.928 7.928 0 0 0 15.856 0Z"/><use xlink:href="#c" x="-16.745721" y="-52.429042" transform="translate(35.055 144.007)scale(1.0004)"/><path fill="none" stroke="#000" stroke-miterlimit="10" stroke-width=".3985" d="m29.988 61.396-6.173 18.518"/><path fill="#dfdfdf" d="M51.932 87.624a8.01 8.01 0 1 0-16.02 0 8.01 8.01 0 0 0 16.02 0"/><path fill="none" stroke="#000" stroke-miterlimit="10" stroke-width=".3985" d="M51.932 87.624a8.01 8.01 0 1 0-16.02 0 8.01 8.01 0 0 0 16.02 0Z"/><use xlink:href="#d" x="-16.745721" y="-52.429042" transform="translate(57.732 143.882)scale(1.0004)"/><path fill="none" stroke="#000" stroke-miterlimit="10" stroke-width=".3985" d="m35.18 61.396 6.146 18.44"/><path fill="#fff" d="M85.94 53.608a8.002 8.002 0 1 0-16.004 0 8.002 8.002 0 0 0 16.005 0"/><path fill="none" stroke="#000" stroke-miterlimit="10" stroke-width=".3985" d="M85.94 53.608a8.002 8.002 0 1 0-16.004 0 8.002 8.002 0 0 0 16.005 0Z"/><use xlink:href="#e" x="-16.745721" y="-52.429042" transform="translate(91.748 109.86)scale(1.0004)"/><path fill="none" stroke="#000" stroke-miterlimit="10" stroke-width=".3985" d="m59.839 26.459 13.55 20.325"/><path fill="#fff" d="M74.528 87.624a7.928 7.928 0 1 0-15.856 0 7.928 7.928 0 0 0 15.856 0"/><path fill="none" stroke="#000" stroke-miterlimit="10" stroke-width=".3985" d="M74.528 87.624a7.928 7.928 0 1 0-15.856 0 7.928 7.928 0 0 0 15.856 0Z"/><use xlink:href="#f" x="-16.745721" y="-52.429042" transform="translate(80.41 144.007)scale(1.0004)"/><path fill="none" stroke="#000" stroke-miterlimit="10" stroke-width=".3985" d="M75.345 61.389 69.17 79.914"/><g transform="translate(32.062 164.059)scale(1.00008)"><use xlink:href="#g" x="-16.740381" y="-52.412324"/><use xlink:href="#h" x="-11.012631" y="-52.412324"/><use xlink:href="#i" x="-5.284881" y="-52.412324"/><use xlink:href="#j" x=".442869" y="-52.412324"/><use xlink:href="#k" x="6.17062" y="-52.412324"/><use xlink:href="#l" x="11.89837" y="-52.412324"/><use xlink:href="#m" x="17.626121" y="-52.412324"/></g><path fill="#fff" d="M66.595 108.837a5.491 5.491 0 1 0-10.982 0 5.491 5.491 0 0 0 10.982 0"/><path fill="none" stroke="#000" stroke-miterlimit="10" stroke-width=".3985" d="M66.595 108.837a5.491 5.491 0 1 0-10.982 0 5.491 5.491 0 0 0 10.982 0Z"/><use xlink:href="#n" x="29.044396" y="-60.917025" transform="translate(29.198 173.082)scale(1.00008)"/><use xlink:href="#o" x="34.735865" y="-52.412324" transform="translate(32.062 164.059)scale(1.00008)"/><path fill="none" stroke="#000" stroke-miterlimit="10" stroke-width=".3985" d="M96.364 53.608h15.465"/><path d="m114.93 53.608-4.467-1.682 1.465 1.682-1.465 1.682Z"/><path fill="none" stroke="#000" stroke-miterlimit="10" stroke-width=".3985" d="m114.93 53.608-4.467-1.682 1.465 1.682-1.465 1.682Z"/><path fill="#fff" d="M165.364 19.592a8.054 8.054 0 1 0-16.108 0 8.054 8.054 0 0 0 16.108 0"/><path fill="none" stroke="#000" stroke-miterlimit="10" stroke-width=".3985" d="M165.364 19.592a8.054 8.054 0 1 0-16.108 0 8.054 8.054 0 0 0 16.108 0Z"/><use xlink:href="#a" x="-16.745721" y="-52.429042" transform="translate(171.119 75.915)scale(1.0004)"/><path fill="#dfdfdf" d="M142.642 53.608a8.01 8.01 0 1 0-16.02 0 8.01 8.01 0 0 0 16.02 0"/><path fill="none" stroke="#000" stroke-miterlimit="10" stroke-width=".3985" d="M142.642 53.608a8.01 8.01 0 1 0-16.02 0 8.01 8.01 0 0 0 16.02 0Z"/><use xlink:href="#d" x="-16.745721" y="-52.429042" transform="translate(148.442 109.866)scale(1.0004)"/><path fill="none" stroke="#000" stroke-miterlimit="10" stroke-width=".3985" d="m152.732 26.459-13.546 20.319"/><path fill="#fff" d="M131.222 87.624a7.928 7.928 0 1 0-15.857 0 7.928 7.928 0 0 0 15.857 0"/><path fill="none" stroke="#000" stroke-miterlimit="10" stroke-width=".3985" d="M131.222 87.624a7.928 7.928 0 1 0-15.857 0 7.928 7.928 0 0 0 15.857 0Z"/><use xlink:href="#c" x="-16.745721" y="-52.429042" transform="translate(137.103 144.007)scale(1.0004)"/><path fill="none" stroke="#000" stroke-miterlimit="10" stroke-width=".3985" d="m132.036 61.396-6.173 18.518"/><path fill="#fff" d="M153.981 87.624a8.01 8.01 0 1 0-16.02 0 8.01 8.01 0 0 0 16.02 0"/><path fill="none" stroke="#000" stroke-miterlimit="10" stroke-width=".3985" d="M153.981 87.624a8.01 8.01 0 1 0-16.02 0 8.01 8.01 0 0 0 16.02 0Z"/><use xlink:href="#b" x="-16.745721" y="-52.429042" transform="translate(159.781 143.882)scale(1.0004)"/><path fill="none" stroke="#000" stroke-miterlimit="10" stroke-width=".3985" d="m137.228 61.396 6.147 18.44"/><path fill="#fff" d="M187.99 53.608a8.002 8.002 0 1 0-16.005 0 8.002 8.002 0 0 0 16.004 0"/><path fill="none" stroke="#000" stroke-miterlimit="10" stroke-width=".3985" d="M187.99 53.608a8.002 8.002 0 1 0-16.005 0 8.002 8.002 0 0 0 16.004 0Z"/><use xlink:href="#e" x="-16.745721" y="-52.429042" transform="translate(193.797 109.86)scale(1.0004)"/><path fill="none" stroke="#000" stroke-miterlimit="10" stroke-width=".3985" d="m161.887 26.459 13.55 20.325"/><path fill="#fff" d="M176.576 87.624a7.928 7.928 0 1 0-15.856 0 7.928 7.928 0 0 0 15.856 0"/><path fill="none" stroke="#000" stroke-miterlimit="10" stroke-width=".3985" d="M176.576 87.624a7.928 7.928 0 1 0-15.856 0 7.928 7.928 0 0 0 15.856 0Z"/><use xlink:href="#f" x="-16.745721" y="-52.429042" transform="translate(182.458 144.007)scale(1.0004)"/><path fill="none" stroke="#000" stroke-miterlimit="10" stroke-width=".3985" d="m177.394 61.389-6.176 18.525M198.412 53.608h15.465"/><path d="m216.98 53.608-4.469-1.682 1.466 1.682-1.466 1.682Z"/><path fill="none" stroke="#000" stroke-miterlimit="10" stroke-width=".3985" d="m216.98 53.608-4.469-1.682 1.466 1.682-1.466 1.682Z"/><path fill="#dfdfdf" d="M267.368 19.592a8.01 8.01 0 1 0-16.02 0 8.01 8.01 0 0 0 16.02 0"/><path fill="none" stroke="#000" stroke-miterlimit="10" stroke-width=".3985" d="M267.368 19.592a8.01 8.01 0 1 0-16.02 0 8.01 8.01 0 0 0 16.02 0Z"/><use xlink:href="#d" x="-16.745721" y="-52.429042" transform="translate(273.168 75.85)scale(1.0004)"/><path fill="#fff" d="M244.735 53.608a8.054 8.054 0 1 0-16.108 0 8.054 8.054 0 0 0 16.108 0"/><path fill="none" stroke="#000" stroke-miterlimit="10" stroke-width=".3985" d="M244.735 53.608a8.054 8.054 0 1 0-16.108 0 8.054 8.054 0 0 0 16.108 0Z"/><use xlink:href="#a" x="-16.745721" y="-52.429042" transform="translate(250.491 109.932)scale(1.0004)"/><path fill="none" stroke="#000" stroke-miterlimit="10" stroke-width=".3985" d="m254.805 26.422-13.546 20.32"/><path fill="#fff" d="M233.27 87.624a7.928 7.928 0 1 0-15.856 0 7.928 7.928 0 0 0 15.856 0"/><path fill="none" stroke="#000" stroke-miterlimit="10" stroke-width=".3985" d="M233.27 87.624a7.928 7.928 0 1 0-15.856 0 7.928 7.928 0 0 0 15.856 0Z"/><use xlink:href="#c" x="-16.745721" y="-52.429042" transform="translate(239.152 144.007)scale(1.0004)"/><path fill="none" stroke="#000" stroke-miterlimit="10" stroke-width=".3985" d="m234.07 61.438-6.158 18.476"/><path fill="#fff" d="M256.03 87.624a8.01 8.01 0 1 0-16.02 0 8.01 8.01 0 0 0 16.02 0"/><path fill="none" stroke="#000" stroke-miterlimit="10" stroke-width=".3985" d="M256.03 87.624a8.01 8.01 0 1 0-16.02 0 8.01 8.01 0 0 0 16.02 0Z"/><use xlink:href="#b" x="-16.745721" y="-52.429042" transform="translate(261.829 143.882)scale(1.0004)"/><path fill="none" stroke="#000" stroke-miterlimit="10" stroke-width=".3985" d="m239.29 61.438 6.134 18.399"/><path fill="#fff" d="M290.038 53.608a8.002 8.002 0 1 0-16.005 0 8.002 8.002 0 0 0 16.005 0"/><path fill="none" stroke="#000" stroke-miterlimit="10" stroke-width=".3985" d="M290.038 53.608a8.002 8.002 0 1 0-16.005 0 8.002 8.002 0 0 0 16.005 0Z"/><use xlink:href="#e" x="-16.745721" y="-52.429042" transform="translate(295.846 109.86)scale(1.0004)"/><path fill="none" stroke="#000" stroke-miterlimit="10" stroke-width=".3985" d="m263.912 26.422 13.574 20.362"/><path fill="#fff" d="M278.625 87.624a7.928 7.928 0 1 0-15.856 0 7.928 7.928 0 0 0 15.856 0"/><path fill="none" stroke="#000" stroke-miterlimit="10" stroke-width=".3985" d="M278.625 87.624a7.928 7.928 0 1 0-15.856 0 7.928 7.928 0 0 0 15.856 0Z"/><use xlink:href="#f" x="-16.745721" y="-52.429042" transform="translate(284.507 144.007)scale(1.0004)"/><path fill="none" stroke="#000" stroke-miterlimit="10" stroke-width=".3985" d="m279.442 61.389-6.175 18.525"/></svg>