<svg xmlns="http://www.w3.org/2000/svg" xmlns:xlink="http://www.w3.org/1999/xlink" width="244.82pt" height="263.48pt" viewBox="0 0 244.82 263.48"><defs><path id="j" d="M7.882-2.75c.203 0 .418 0 .418-.24s-.215-.24-.418-.24h-6.47c-.204 0-.42 0-.42.24s.216.24.42.24z"/><path id="g" d="M2.2-4.58a.58.58 0 0 0-.573-.575.577.577 0 0 0-.586.574.58.58 0 1 0 1.16 0m0 3.994a.58.58 0 0 0-.573-.574.577.577 0 0 0-.586.574.58.58 0 1 0 1.16 0"/><path id="h" d="M4.904 0v-.347h-.371C3.48-.347 3.444-.49 3.444-.92v-6.745c0-.275 0-.287-.239-.287-.287.323-.885.765-2.117.765v.347c.275 0 .873 0 1.531-.311v6.231c0 .43-.036.574-1.088.574h-.37V0c.322-.024 1.482-.024 1.877-.024s1.543 0 1.866.024"/><path id="k" d="M5.358-2.045c0-1.1-.885-1.962-2.033-2.165 1.04-.299 1.71-1.172 1.71-2.105 0-.945-.98-1.638-2.14-1.638-1.197 0-2.082.73-2.082 1.602 0 .479.371.574.55.574.252 0 .539-.18.539-.538 0-.383-.287-.55-.55-.55-.072 0-.096 0-.132.012.454-.813 1.579-.813 1.638-.813.395 0 1.173.179 1.173 1.351 0 .227-.036.897-.383 1.411-.359.527-.766.563-1.089.574l-.358.036c-.204.012-.252.024-.252.132 0 .12.06.12.276.12h.55c1.016 0 1.47.837 1.47 1.985 0 1.567-.812 1.985-1.399 1.985-.574 0-1.554-.275-1.901-1.064.383.06.73-.156.73-.586a.565.565 0 0 0-.587-.586c-.287 0-.598.167-.598.622C.49-.622 1.555.25 2.882.25c1.424 0 2.476-1.088 2.476-2.296"/><path id="i" d="M5.262-2.01H5c-.036.204-.131.862-.25 1.053-.085.108-.766.108-1.125.108H1.41c.323-.275 1.053-1.04 1.364-1.328 1.818-1.674 2.487-2.296 2.487-3.48 0-1.375-1.088-2.296-2.475-2.296S.586-6.77.586-5.741c0 .61.526.61.562.61.251 0 .562-.18.562-.562 0-.335-.227-.562-.562-.562-.107 0-.131 0-.167.012.227-.813.873-1.364 1.65-1.364 1.017 0 1.639.85 1.639 1.95 0 1.017-.586 1.902-1.268 2.667L.586-.287V0h4.365z"/><path id="b" d="M4.629 0v-.514h-1.34V-7.69h1.34v-.515c-.431.024-1.627.024-2.13.024s-1.698 0-2.128-.024v.515h1.34v7.176H.37V0C.8-.024 1.997-.024 2.5-.024s1.698 0 2.129.024"/><path id="c" d="M7.176 0v-.514h-.825V-3.66c0-1.136-.49-1.722-1.806-1.722-.861 0-1.603.419-2.01 1.316h-.011v-1.316l-2.022.096v.514c.742 0 .826 0 .826.466v3.792H.502V0C.777-.024 1.64-.024 1.973-.024s1.208 0 1.483.024v-.514h-.825v-2.548c0-1.291.957-1.925 1.722-1.925.443 0 .694.287.694 1.196v3.277h-.825V0c.275-.024 1.136-.024 1.471-.024s1.208 0 1.483.024"/><path id="l" d="M9.353-4.066c0-2.536-1.65-4.282-4.306-4.282C2.38-8.348.742-6.59.742-4.066S2.416.144 5.047.144s4.306-1.687 4.306-4.21m-1.687-.168c0 1.184-.131 2.177-.73 3.002a2.37 2.37 0 0 1-1.889.921c-.777 0-1.53-.37-1.985-1.052-.574-.874-.634-1.998-.634-2.87 0-.73.036-1.735.526-2.548.526-.838 1.387-1.137 2.093-1.137.969 0 1.686.515 2.033 1.053.443.694.586 1.435.586 2.631"/><path id="d" d="M7.009-2.667c0-1.65-1.113-2.715-2.727-2.715-.706 0-1.316.24-1.794.622v-.622l-2.07.096v.514c.742 0 .826 0 .826.466v6.112H.419v.514c.275-.024 1.136-.024 1.47-.024s1.209 0 1.484.024v-.514h-.826V-.49c.3.263.826.562 1.543.562 1.639 0 2.919-.993 2.919-2.74m-1.436 0c0 1.734-.86 2.344-1.626 2.344-.514 0-1.029-.263-1.4-.825v-3.038a1.97 1.97 0 0 1 1.543-.765c.778 0 1.483.705 1.483 2.284"/><path id="f" d="M4.473-1.483v-.634h-.502v.622c0 .79-.36 1.136-.73 1.136-.717 0-.717-.801-.717-1.076v-3.361h1.722v-.514H2.524v-2.285H2.02C2.01-6.41 1.435-5.227.251-5.19v.395h.969v3.325C1.22-.203 2.2.072 3.062.072c.885 0 1.411-.67 1.411-1.555"/><path id="e" d="M7.176 0v-.514c-.742 0-.825 0-.825-.467v-4.401l-2.13.096v.514c.742 0 .826 0 .826.466v2.345c0 .909-.538 1.638-1.471 1.638-.897 0-.945-.299-.945-.957v-4.102l-2.129.096v.514c.742 0 .826 0 .826.466v2.835c0 1.196.8 1.543 2.08 1.543.288 0 1.173 0 1.687-.969h.012v.969z"/><path id="a" d="M4.772-2.763h3.301c.167 0 .383 0 .383-.215 0-.227-.204-.227-.383-.227H4.772v-3.301c0-.168 0-.383-.215-.383-.227 0-.227.203-.227.383v3.3H1.029c-.168 0-.383 0-.383.216 0 .227.203.227.383.227h3.3V.538c0 .168 0 .383.216.383.227 0 .227-.203.227-.383z"/></defs><path fill="none" stroke="#000" stroke-miterlimit="10" stroke-width=".3985" d="M33.908 22.043v17.008H59.42V22.043M33.908 39.051V56.06H59.42V39.051"/><use xlink:href="#a" x="-38.107294" y="-49.978058" transform="translate(80.204 100.502)scale(1.0004)"/><g transform="translate(125.859 76.62)scale(1.0004)"><use xlink:href="#b" x="-38.107294" y="-49.978058"/><use xlink:href="#c" x="-33.096053" y="-49.978058"/><use xlink:href="#d" x="-25.621055" y="-49.978058"/><use xlink:href="#e" x="-18.146055" y="-49.978058"/><use xlink:href="#f" x="-10.671054" y="-49.978058"/><use xlink:href="#g" x="-5.43318" y="-49.978058"/><use xlink:href="#h" x="3.799941" y="-49.978058"/><use xlink:href="#a" x="11.653677" y="-49.978058"/><use xlink:href="#i" x="26.144492" y="-49.978058"/></g><g fill="none" stroke="#000" stroke-miterlimit="10" stroke-width=".3985"><path d="M148.606 15.524h12.632M148.805 29.85V15.524M161.039 29.85V15.524M148.606 29.85h12.632"/></g><g transform="translate(125.859 76.62)scale(1.0004)"><use xlink:href="#j" x="37.387005" y="-49.978058"/><use xlink:href="#k" x="48.682541" y="-49.978058"/><use xlink:href="#l" x="-38.107291" y="-34.250746"/><use xlink:href="#e" x="-28.001089" y="-34.250746"/><use xlink:href="#f" x="-20.526088" y="-34.250746"/><use xlink:href="#d" x="-15.287608" y="-34.250746"/><use xlink:href="#e" x="-7.812608" y="-34.250746"/><use xlink:href="#f" x="-.337608" y="-34.250746"/><use xlink:href="#g" x="4.900973" y="-34.250746"/><use xlink:href="#h" x="14.122135" y="-34.250746"/><use xlink:href="#i" x="25.364535" y="-34.250746"/></g><g fill="none" stroke="#000" stroke-miterlimit="10" stroke-width=".3985"><path d="M147.838 31.245h12.632M148.037 45.571V31.245M160.271 45.571V31.245M147.838 45.571h12.632M42.979 90.642c0-7.828-6.346-14.173-10.464-14.173"/></g><path d="m29.373 76.469 4.528 1.704-1.485-1.704 1.485-1.705Z"/><path fill="none" stroke="#000" stroke-miterlimit="10" stroke-width=".3985" d="m29.373 76.469 4.528 1.704-1.485-1.704 1.485-1.705Z"/><use xlink:href="#a" x="-38.107294" y="-49.978058" transform="translate(53.609 129.416)scale(1.0004)"/><path fill="none" stroke="#000" stroke-miterlimit="10" stroke-width=".3985" d="M68.491 76.469c-7.828 0-14.173 6.345-14.173 10.464"/><path d="m54.318 90.075 1.704-4.528-1.704 1.485-1.705-1.485Z"/><path fill="none" stroke="#000" stroke-miterlimit="10" stroke-width=".3985" d="m54.318 90.075 1.704-4.528-1.704 1.485-1.705-1.485Z"/><use xlink:href="#j" x="-38.107294" y="-49.978058" transform="translate(110.767 129.416)scale(1.0004)"/><path fill="none" stroke="#000" stroke-miterlimit="10" stroke-width=".3985" d="M33.908 90.075v17.008H59.42V90.075M33.908 107.083v17.008H59.42v-17.008"/><use xlink:href="#j" x="-38.107294" y="-49.978058" transform="translate(80.107 168.534)scale(1.0004)"/><g transform="translate(125.859 143.739)scale(1.0004)"><use xlink:href="#b" x="-38.107294" y="-49.978058"/><use xlink:href="#c" x="-33.096053" y="-49.978058"/><use xlink:href="#d" x="-25.621055" y="-49.978058"/><use xlink:href="#e" x="-18.146055" y="-49.978058"/><use xlink:href="#f" x="-10.671054" y="-49.978058"/><use xlink:href="#g" x="-5.43318" y="-49.978058"/><use xlink:href="#h" x="3.799941" y="-49.978058"/><use xlink:href="#a" x="11.653677" y="-49.978058"/><use xlink:href="#i" x="22.756133" y="-49.978058"/><use xlink:href="#j" x="33.998645" y="-49.978058"/></g><g fill="none" stroke="#000" stroke-miterlimit="10" stroke-width=".3985"><path d="M156.456 83.619h16.073M156.655 97.965V83.619M172.33 97.965V83.619M156.456 97.965h16.073"/></g><g transform="translate(125.859 143.739)scale(1.0004)"><use xlink:href="#k" x="48.682538" y="-49.978058"/><use xlink:href="#l" x="-38.107294" y="-34.313771"/><use xlink:href="#e" x="-28.001093" y="-34.313771"/><use xlink:href="#f" x="-20.526093" y="-34.313771"/><use xlink:href="#d" x="-15.287612" y="-34.313771"/><use xlink:href="#e" x="-7.812612" y="-34.313771"/><use xlink:href="#f" x="-.337612" y="-34.313771"/><use xlink:href="#g" x="4.900969" y="-34.313771"/><use xlink:href="#h" x="14.122131" y="-34.313771"/><use xlink:href="#i" x="21.979851" y="-34.313771"/><use xlink:href="#a" x="33.230341" y="-34.313771"/></g><g fill="none" stroke="#000" stroke-miterlimit="10" stroke-width=".3985"><path d="M155.688 99.36h15.88M155.888 113.54V99.36M171.368 113.54V99.36M155.688 113.54h15.88M33.908 158.108v17.008H59.42v-17.008M33.908 175.116v17.008H59.42v-17.008"/></g><use xlink:href="#j" x="-38.107294" y="-49.978058" transform="translate(80.107 236.567)scale(1.0004)"/><g transform="translate(125.859 212.433)scale(1.0004)"><use xlink:href="#b" x="-38.107294" y="-49.978058"/><use xlink:href="#c" x="-33.096053" y="-49.978058"/><use xlink:href="#d" x="-25.621055" y="-49.978058"/><use xlink:href="#e" x="-18.146055" y="-49.978058"/><use xlink:href="#f" x="-10.671054" y="-49.978058"/><use xlink:href="#g" x="-5.43318" y="-49.978058"/><use xlink:href="#h" x="3.799941" y="-49.978058"/><use xlink:href="#a" x="11.653677" y="-49.978058"/><use xlink:href="#i" x="22.756133" y="-49.978058"/><use xlink:href="#j" x="30.609285" y="-49.978058"/><use xlink:href="#k" x="45.294178" y="-49.978058"/></g><g fill="none" stroke="#000" stroke-miterlimit="10" stroke-width=".3985"><path d="M167.747 151.337h12.633M167.947 165.914v-14.577M180.181 165.914v-14.577M167.747 165.914h12.633"/></g><g transform="translate(125.859 212.433)scale(1.0004)"><use xlink:href="#l" x="-38.107294" y="-33.999645"/><use xlink:href="#e" x="-28.001093" y="-33.999645"/><use xlink:href="#f" x="-20.526093" y="-33.999645"/><use xlink:href="#d" x="-15.287612" y="-33.999645"/><use xlink:href="#e" x="-7.812612" y="-33.999645"/><use xlink:href="#f" x="-.337612" y="-33.999645"/><use xlink:href="#g" x="4.900969" y="-33.999645"/><use xlink:href="#h" x="14.122131" y="-33.999645"/><use xlink:href="#i" x="21.979851" y="-33.999645"/><use xlink:href="#a" x="29.840979" y="-33.999645"/><use xlink:href="#k" x="44.331796" y="-33.999645"/></g><g fill="none" stroke="#000" stroke-miterlimit="10" stroke-width=".3985"><path d="M166.786 167.309h12.632M166.985 181.886v-14.577M179.219 181.886v-14.577M166.786 181.886h12.632M42.979 226.707c0-7.828-6.346-14.174-10.464-14.174"/></g><path d="m29.373 212.533 4.528 1.705-1.485-1.705 1.485-1.704Z"/><path fill="none" stroke="#000" stroke-miterlimit="10" stroke-width=".3985" d="m29.373 212.533 4.528 1.705-1.485-1.705 1.485-1.704Z"/><use xlink:href="#j" x="-38.107294" y="-49.978058" transform="translate(53.415 265.48)scale(1.0004)"/><path fill="none" stroke="#000" stroke-miterlimit="10" stroke-width=".3985" d="M33.908 226.14v17.008H59.42V226.14"/><g transform="translate(125.859 279.288)scale(1.0004)"><use xlink:href="#b" x="-38.107294" y="-49.978058"/><use xlink:href="#c" x="-33.096053" y="-49.978058"/><use xlink:href="#d" x="-25.621055" y="-49.978058"/><use xlink:href="#e" x="-18.146055" y="-49.978058"/><use xlink:href="#f" x="-10.671054" y="-49.978058"/><use xlink:href="#g" x="-5.43318" y="-49.978058"/><use xlink:href="#h" x="3.799941" y="-49.978058"/><use xlink:href="#a" x="11.653677" y="-49.978058"/><use xlink:href="#i" x="22.756133" y="-49.978058"/><use xlink:href="#j" x="30.609285" y="-49.978058"/><use xlink:href="#k" x="41.904818" y="-49.978058"/><use xlink:href="#l" x="-38.107298" y="-35.526258"/><use xlink:href="#e" x="-28.001097" y="-35.526258"/><use xlink:href="#f" x="-20.526097" y="-35.526258"/><use xlink:href="#d" x="-15.287616" y="-35.526258"/><use xlink:href="#e" x="-7.812616" y="-35.526258"/><use xlink:href="#f" x="-.337616" y="-35.526258"/><use xlink:href="#g" x="4.900965" y="-35.526258"/><use xlink:href="#h" x="14.122127" y="-35.526258"/><use xlink:href="#i" x="21.979847" y="-35.526258"/><use xlink:href="#a" x="29.840975" y="-35.526258"/><use xlink:href="#k" x="40.943432" y="-35.526258"/><use xlink:href="#j" x="52.184943" y="-35.526258"/></g><g fill="none" stroke="#000" stroke-miterlimit="10" stroke-width=".3985"><path d="M174.636 233.614h16.073M174.835 247.96v-14.346M190.51 247.96v-14.346M174.636 247.96h16.073"/></g></svg>