<svg xmlns="http://www.w3.org/2000/svg" xmlns:xlink="http://www.w3.org/1999/xlink" width="257.75pt" height="280.45pt" viewBox="0 0 257.75 280.45"><defs><path id="g" d="M2.2-4.58a.58.58 0 0 0-.573-.575.577.577 0 0 0-.586.574.58.58 0 1 0 1.16 0m0 3.994a.58.58 0 0 0-.573-.574.577.577 0 0 0-.586.574.58.58 0 1 0 1.16 0"/><path id="m" d="M2.332.048c0-.742-.251-1.208-.717-1.208a.56.56 0 0 0-.574.574c0 .323.227.586.586.586a.6.6 0 0 0 .382-.144c.036-.035.06-.035.06-.035s.024.167.024.227c0 .765-.311 1.483-.837 2.033-.048.036-.06.06-.06.108 0 .06.06.12.12.12.107 0 1.016-.886 1.016-2.261"/><path id="h" d="M4.904 0v-.347h-.371C3.48-.347 3.444-.49 3.444-.92v-6.745c0-.275 0-.287-.239-.287-.287.323-.885.765-2.117.765v.347c.275 0 .873 0 1.531-.311v6.231c0 .43-.036.574-1.088.574h-.37V0c.322-.024 1.482-.024 1.877-.024s1.543 0 1.866.024"/><path id="k" d="M5.358-2.045c0-1.1-.885-1.962-2.033-2.165 1.04-.299 1.71-1.172 1.71-2.105 0-.945-.98-1.638-2.14-1.638-1.197 0-2.082.73-2.082 1.602 0 .479.371.574.55.574.252 0 .539-.18.539-.538 0-.383-.287-.55-.55-.55-.072 0-.096 0-.132.012.454-.813 1.579-.813 1.638-.813.395 0 1.173.179 1.173 1.351 0 .227-.036.897-.383 1.411-.359.527-.766.563-1.089.574l-.358.036c-.204.012-.252.024-.252.132 0 .12.06.12.276.12h.55c1.016 0 1.47.837 1.47 1.985 0 1.567-.812 1.985-1.399 1.985-.574 0-1.554-.275-1.901-1.064.383.06.73-.156.73-.586a.565.565 0 0 0-.587-.586c-.287 0-.598.167-.598.622C.49-.622 1.555.25 2.882.25c1.424 0 2.476-1.088 2.476-2.296"/><path id="i" d="M5.262-2.01H5c-.036.204-.131.862-.25 1.053-.085.108-.766.108-1.125.108H1.41c.323-.275 1.053-1.04 1.364-1.328 1.818-1.674 2.487-2.296 2.487-3.48 0-1.375-1.088-2.296-2.475-2.296S.586-6.77.586-5.741c0 .61.526.61.562.61.251 0 .562-.18.562-.562 0-.335-.227-.562-.562-.562-.107 0-.131 0-.167.012.227-.813.873-1.364 1.65-1.364 1.017 0 1.639.85 1.639 1.95 0 1.017-.586 1.902-1.268 2.667L.586-.287V0h4.365z"/><path id="j" d="M3.289-5.107c.012-.167.012-.454-.299-.454-.191 0-.347.155-.311.31v.156l.167 1.854-1.53-1.112c-.108-.06-.132-.084-.216-.084-.167 0-.323.167-.323.335 0 .191.12.239.24.299l1.698.813-1.65.801c-.192.096-.288.144-.288.323s.156.335.323.335c.084 0 .108 0 .407-.227l1.34-.969-.18 2.01c0 .25.215.31.311.31.144 0 .323-.083.323-.31l-.18-2.01 1.531 1.112c.108.06.132.084.216.084.167 0 .323-.167.323-.335 0-.18-.108-.239-.252-.31-.717-.36-.741-.36-1.686-.802l1.65-.801c.192-.096.288-.144.288-.323s-.156-.335-.323-.335c-.084 0-.108 0-.407.227l-1.34.969z"/><path id="b" d="M4.629 0v-.514h-1.34V-7.69h1.34v-.515c-.431.024-1.627.024-2.13.024s-1.698 0-2.128-.024v.515h1.34v7.176H.37V0C.8-.024 1.997-.024 2.5-.024s1.698 0 2.129.024"/><path id="c" d="M7.176 0v-.514h-.825V-3.66c0-1.136-.49-1.722-1.806-1.722-.861 0-1.603.419-2.01 1.316h-.011v-1.316l-2.022.096v.514c.742 0 .826 0 .826.466v3.792H.502V0C.777-.024 1.64-.024 1.973-.024s1.208 0 1.483.024v-.514h-.825v-2.548c0-1.291.957-1.925 1.722-1.925.443 0 .694.287.694 1.196v3.277h-.825V0c.275-.024 1.136-.024 1.471-.024s1.208 0 1.483.024"/><path id="l" d="M9.353-4.066c0-2.536-1.65-4.282-4.306-4.282C2.38-8.348.742-6.59.742-4.066S2.416.144 5.047.144s4.306-1.687 4.306-4.21m-1.687-.168c0 1.184-.131 2.177-.73 3.002a2.37 2.37 0 0 1-1.889.921c-.777 0-1.53-.37-1.985-1.052-.574-.874-.634-1.998-.634-2.87 0-.73.036-1.735.526-2.548.526-.838 1.387-1.137 2.093-1.137.969 0 1.686.515 2.033 1.053.443.694.586 1.435.586 2.631"/><path id="d" d="M7.009-2.667c0-1.65-1.113-2.715-2.727-2.715-.706 0-1.316.24-1.794.622v-.622l-2.07.096v.514c.742 0 .826 0 .826.466v6.112H.419v.514c.275-.024 1.136-.024 1.47-.024s1.209 0 1.484.024v-.514h-.826V-.49c.3.263.826.562 1.543.562 1.639 0 2.919-.993 2.919-2.74m-1.436 0c0 1.734-.86 2.344-1.626 2.344-.514 0-1.029-.263-1.4-.825v-3.038a1.97 1.97 0 0 1 1.543-.765c.778 0 1.483.705 1.483 2.284"/><path id="f" d="M4.473-1.483v-.634h-.502v.622c0 .79-.36 1.136-.73 1.136-.717 0-.717-.801-.717-1.076v-3.361h1.722v-.514H2.524v-2.285H2.02C2.01-6.41 1.435-5.227.251-5.19v.395h.969v3.325C1.22-.203 2.2.072 3.062.072c.885 0 1.411-.67 1.411-1.555"/><path id="e" d="M7.176 0v-.514c-.742 0-.825 0-.825-.467v-4.401l-2.13.096v.514c.742 0 .826 0 .826.466v2.345c0 .909-.538 1.638-1.471 1.638-.897 0-.945-.299-.945-.957v-4.102l-2.129.096v.514c.742 0 .826 0 .826.466v2.835c0 1.196.8 1.543 2.08 1.543.288 0 1.173 0 1.687-.969h.012v.969z"/><path id="a" d="M4.772-2.763h3.301c.167 0 .383 0 .383-.215 0-.227-.204-.227-.383-.227H4.772v-3.301c0-.168 0-.383-.215-.383-.227 0-.227.203-.227.383v3.3H1.029c-.168 0-.383 0-.383.216 0 .227.203.227.383.227h3.3V.538c0 .168 0 .383.216.383.227 0 .227-.203.227-.383z"/></defs><path fill="none" stroke="#000" stroke-miterlimit="10" stroke-width=".3985" d="M46.841 22.047v17.008h25.512V22.047M46.841 39.055v17.008h25.512V39.055"/><use xlink:href="#a" x="-25.169101" y="-49.978058" transform="translate(80.204 100.506)scale(1.0004)"/><g transform="translate(125.859 76.624)scale(1.0004)"><use xlink:href="#b" x="-25.169101" y="-49.978058"/><use xlink:href="#c" x="-20.15786" y="-49.978058"/><use xlink:href="#d" x="-12.682861" y="-49.978058"/><use xlink:href="#e" x="-5.207861" y="-49.978058"/><use xlink:href="#f" x="2.26714" y="-49.978058"/><use xlink:href="#g" x="7.505011" y="-49.978058"/><use xlink:href="#h" x="16.738133" y="-49.978058"/><use xlink:href="#a" x="24.591869" y="-49.978058"/><use xlink:href="#i" x="39.082684" y="-49.978058"/></g><g fill="none" stroke="#000" stroke-miterlimit="10" stroke-width=".3985"><path d="M161.539 15.528h12.632M161.738 29.854V15.528M173.972 29.854V15.528M161.539 29.854h12.632"/></g><g transform="translate(125.859 76.624)scale(1.0004)"><use xlink:href="#j" x="50.325197" y="-49.978058"/><use xlink:href="#k" x="58.298397" y="-49.978058"/><use xlink:href="#l" x="-25.169098" y="-34.250746"/><use xlink:href="#e" x="-15.062897" y="-34.250746"/><use xlink:href="#f" x="-7.587897" y="-34.250746"/><use xlink:href="#d" x="-2.349417" y="-34.250746"/><use xlink:href="#e" x="5.125583" y="-34.250746"/><use xlink:href="#f" x="12.600583" y="-34.250746"/><use xlink:href="#g" x="17.839165" y="-34.250746"/><use xlink:href="#h" x="27.060324" y="-34.250746"/><use xlink:href="#i" x="38.302727" y="-34.250746"/></g><g fill="none" stroke="#000" stroke-miterlimit="10" stroke-width=".3985"><path d="M160.771 31.249h12.632M160.97 45.575V31.249M173.204 45.575V31.249M160.771 45.575h12.632M81.424 76.473c-7.828 0-14.173 6.345-14.173 10.464"/></g><path d="m67.25 90.079 1.705-4.528-1.704 1.485-1.705-1.485Z"/><path fill="none" stroke="#000" stroke-miterlimit="10" stroke-width=".3985" d="m67.25 90.079 1.705-4.528-1.704 1.485-1.705-1.485Z"/><use xlink:href="#j" x="-25.169101" y="-49.978058" transform="translate(110.767 129.212)scale(1.0004)"/><path fill="none" stroke="#000" stroke-miterlimit="10" stroke-width=".3985" d="M46.841 90.08v17.007h25.512V90.08M46.841 107.087v17.008h25.512v-17.008"/><use xlink:href="#j" x="-25.169101" y="-49.978058" transform="translate(81.767 168.331)scale(1.0004)"/><path fill="none" stroke="#000" stroke-miterlimit="10" stroke-width=".3985" d="M46.841 124.095v17.009h25.512v-17.009"/><use xlink:href="#a" x="-25.169101" y="-49.978058" transform="translate(80.204 185.546)scale(1.0004)"/><g transform="translate(125.859 145.827)scale(1.0004)"><use xlink:href="#b" x="-25.169101" y="-49.978058"/><use xlink:href="#c" x="-20.15786" y="-49.978058"/><use xlink:href="#d" x="-12.682861" y="-49.978058"/><use xlink:href="#e" x="-5.207861" y="-49.978058"/><use xlink:href="#f" x="2.26714" y="-49.978058"/><use xlink:href="#g" x="7.505011" y="-49.978058"/><use xlink:href="#h" x="16.738133" y="-49.978058"/><use xlink:href="#a" x="24.591869" y="-49.978058"/><use xlink:href="#i" x="35.694325" y="-49.978058"/><use xlink:href="#j" x="46.936838" y="-49.978058"/></g><g fill="none" stroke="#000" stroke-miterlimit="10" stroke-width=".3985"><path d="M169.389 84.731h12.752M169.588 99.308V84.731M181.942 99.308V84.731M169.389 99.308h12.752"/></g><g transform="translate(125.859 145.827)scale(1.0004)"><use xlink:href="#k" x="58.298397" y="-49.978058"/><use xlink:href="#l" x="-25.169098" y="-35.526258"/><use xlink:href="#e" x="-15.062897" y="-35.526258"/><use xlink:href="#f" x="-7.587897" y="-35.526258"/><use xlink:href="#d" x="-2.349417" y="-35.526258"/><use xlink:href="#e" x="5.125583" y="-35.526258"/><use xlink:href="#f" x="12.600583" y="-35.526258"/><use xlink:href="#g" x="17.839165" y="-35.526258"/><use xlink:href="#h" x="27.060324" y="-35.526258"/><use xlink:href="#i" x="34.918044" y="-35.526258"/></g><path fill="none" stroke="#000" stroke-miterlimit="10" stroke-width=".3985" d="M46.841 158.112v17.008h25.512v-17.008M46.841 175.12v17.008h25.512V175.12"/><use xlink:href="#j" x="-25.169101" y="-49.978058" transform="translate(81.767 236.363)scale(1.0004)"/><path fill="none" stroke="#000" stroke-miterlimit="10" stroke-width=".3985" d="M46.841 192.128v17.008h25.512v-17.008"/><use xlink:href="#a" x="-25.169101" y="-49.978058" transform="translate(80.204 253.579)scale(1.0004)"/><g transform="translate(125.859 212.437)scale(1.0004)"><use xlink:href="#b" x="-25.169101" y="-49.978058"/><use xlink:href="#c" x="-20.15786" y="-49.978058"/><use xlink:href="#d" x="-12.682861" y="-49.978058"/><use xlink:href="#e" x="-5.207861" y="-49.978058"/><use xlink:href="#f" x="2.26714" y="-49.978058"/><use xlink:href="#g" x="7.505011" y="-49.978058"/><use xlink:href="#h" x="16.738133" y="-49.978058"/><use xlink:href="#a" x="24.591869" y="-49.978058"/><use xlink:href="#i" x="35.694325" y="-49.978058"/><use xlink:href="#j" x="43.547477" y="-49.978058"/><use xlink:href="#k" x="54.910037" y="-49.978058"/></g><g fill="none" stroke="#000" stroke-miterlimit="10" stroke-width=".3985"><path d="M177.359 151.341h12.633M177.559 165.918v-14.577M189.793 165.918v-14.577M177.359 165.918h12.633"/></g><g transform="translate(125.859 212.437)scale(1.0004)"><use xlink:href="#l" x="-25.169101" y="-33.999645"/><use xlink:href="#e" x="-15.062901" y="-33.999645"/><use xlink:href="#f" x="-7.587901" y="-33.999645"/><use xlink:href="#d" x="-2.349421" y="-33.999645"/><use xlink:href="#e" x="5.12558" y="-33.999645"/><use xlink:href="#f" x="12.600579" y="-33.999645"/><use xlink:href="#g" x="17.83916" y="-33.999645"/><use xlink:href="#h" x="27.06032" y="-33.999645"/><use xlink:href="#i" x="34.918041" y="-33.999645"/><use xlink:href="#k" x="46.160442" y="-33.999645"/></g><g fill="none" stroke="#000" stroke-miterlimit="10" stroke-width=".3985"><path d="M168.621 167.313h12.633M168.82 181.89v-14.577M181.055 181.89v-14.577M168.621 181.89h12.633M55.912 243.719c0-7.828-6.346-14.173-10.464-14.173"/></g><path d="m42.306 229.546 4.528 1.704-1.485-1.704 1.485-1.705Z"/><path fill="none" stroke="#000" stroke-miterlimit="10" stroke-width=".3985" d="m42.306 229.546 4.528 1.704-1.485-1.704 1.485-1.705Z"/><g transform="translate(40.482 281.795)scale(1.0004)"><use xlink:href="#j" x="-25.169101" y="-49.978058"/><use xlink:href="#m" x="-19.189702" y="-49.978058"/><use xlink:href="#a" x="-12.036831" y="-49.978058"/></g><path fill="none" stroke="#000" stroke-miterlimit="10" stroke-width=".3985" d="M46.841 243.152v17.008h25.512v-17.008"/><g transform="translate(125.859 296.341)scale(1.0004)"><use xlink:href="#b" x="-25.169101" y="-49.978058"/><use xlink:href="#c" x="-20.15786" y="-49.978058"/><use xlink:href="#d" x="-12.682861" y="-49.978058"/><use xlink:href="#e" x="-5.207861" y="-49.978058"/><use xlink:href="#f" x="2.26714" y="-49.978058"/><use xlink:href="#g" x="7.505011" y="-49.978058"/><use xlink:href="#h" x="16.738133" y="-49.978058"/><use xlink:href="#a" x="24.591869" y="-49.978058"/><use xlink:href="#i" x="35.694325" y="-49.978058"/><use xlink:href="#j" x="43.547477" y="-49.978058"/><use xlink:href="#k" x="51.520677" y="-49.978058"/><use xlink:href="#l" x="-25.169098" y="-35.526258"/><use xlink:href="#e" x="-15.062897" y="-35.526258"/><use xlink:href="#f" x="-7.587897" y="-35.526258"/><use xlink:href="#d" x="-2.349417" y="-35.526258"/><use xlink:href="#e" x="5.125583" y="-35.526258"/><use xlink:href="#f" x="12.600583" y="-35.526258"/><use xlink:href="#g" x="17.839165" y="-35.526258"/><use xlink:href="#h" x="27.060324" y="-35.526258"/><use xlink:href="#i" x="34.918044" y="-35.526258"/><use xlink:href="#k" x="42.775764" y="-35.526258"/><use xlink:href="#j" x="54.021686" y="-35.526258"/><use xlink:href="#a" x="63.987688" y="-35.526258"/></g><g fill="none" stroke="#000" stroke-miterlimit="10" stroke-width=".3985"><path d="M176.472 250.75h25.841M176.671 264.93v-14.18M202.114 264.93v-14.18M176.472 264.93h25.841"/></g></svg>