<svg xmlns="http://www.w3.org/2000/svg" xmlns:xlink="http://www.w3.org/1999/xlink" width="329.22pt" height="96.78pt" viewBox="0 0 329.22 96.78"><defs><path id="d" d="M5.8-2.356c0-.347-.31-.347-.478-.347h-.897v-4.282c0-.394-.084-.49-.49-.49H3.66c-.287 0-.347.012-.49.24L.453-2.87c-.107.155-.107.179-.107.394 0 .419.155.467.478.467h2.93v1.315h-.717c-.168 0-.479 0-.479.347S2.87 0 3.038 0h2.105c.167 0 .478 0 .478-.347s-.31-.347-.478-.347h-.718v-1.315h.897c.168 0 .479 0 .479-.347m-2.045-.347H1.148l2.607-4.186z"/><path id="a" d="M5.179-.347c0-.347-.323-.347-.49-.347H3.635V-6.96c0-.18 0-.49-.347-.49-.203 0-.275.108-.347.263-.227.514-.622 1.148-1.256 1.196-.179.012-.43.036-.43.347 0 .203.12.347.383.347.67 0 1.184-.503 1.22-.527v5.131H1.805c-.167 0-.49 0-.49.347s.323.347.49.347h2.882c.168 0 .49 0 .49-.347"/><path id="c" d="M5.633-2.07c0-.609-.335-1.458-1.387-1.913.73-.454 1.052-1.172 1.052-1.794 0-.897-.897-1.674-2.188-1.674-1.328 0-2.26.574-2.26 1.459 0 .395.298.514.49.514a.48.48 0 0 0 .478-.49c0-.191-.096-.311-.096-.311.359-.454 1.184-.478 1.388-.478.813 0 1.41.43 1.41.992 0 .347-.226 1.34-1.482 1.424-.443.023-.634.047-.682.047-.24.024-.299.18-.299.347 0 .347.251.347.455.347h.55c1.244 0 1.794.873 1.794 1.519 0 .79-.694 1.53-1.746 1.53-1.196 0-1.735-.645-1.735-.812l.024-.06a.6.6 0 0 0 .084-.287.47.47 0 0 0-.478-.479c-.252 0-.49.156-.49.527C.514-.622 1.65.144 3.11.144c1.507 0 2.523-1.077 2.523-2.213"/><path id="b" d="M5.537-.49v-.252c0-.215 0-.49-.382-.49-.395 0-.395.251-.395.538H1.878L4.162-2.63c.168-.144 1.375-1.172 1.375-2.5 0-1.363-1.124-2.32-2.619-2.32C1.531-7.451.61-6.411.61-5.406a.49.49 0 0 0 .49.538.48.48 0 0 0 .479-.49c0-.227-.084-.3-.144-.347.168-.634.718-1.052 1.411-1.052 1.017 0 1.914.586 1.914 1.626 0 .933-.706 1.65-1.351 2.213L.777-.634C.646-.526.61-.49.61-.347.61 0 .933 0 1.1 0h4.174c.263-.072.263-.311.263-.49"/></defs><g fill="none" stroke="#000" stroke-miterlimit="10" stroke-width=".3985"><path d="M11.538 11.542h170.08M11.538 34.22h170.08M11.538 62.566h306.146M11.538 85.244h306.146M28.546 11.542v22.677M62.562 11.542v22.677M96.578 11.542v22.677M130.595 11.542v22.677M164.61 11.542v22.677M28.546 62.566v22.678M62.562 62.566v22.678M96.578 62.566v22.678M130.595 62.566v22.678M164.61 62.566v22.678M198.627 62.566v22.678M232.643 62.566v22.678M266.66 62.566v22.678M300.675 62.566v22.678M45.554 39.889v13.339"/></g><path d="m45.554 56.33 1.682-4.468-1.682 1.465-1.682-1.465Z"/><path fill="none" stroke="#000" stroke-miterlimit="10" stroke-width=".3985" d="m45.554 56.33 1.682-4.468-1.682 1.465-1.682-1.465ZM79.57 39.889v13.339"/><path d="m79.57 56.33 1.682-4.468-1.682 1.465-1.682-1.465Z"/><path fill="none" stroke="#000" stroke-miterlimit="10" stroke-width=".3985" d="m79.57 56.33 1.682-4.468-1.682 1.465-1.682-1.465ZM113.587 39.889v13.339"/><path d="m113.587 56.33 1.681-4.468-1.681 1.465-1.682-1.465Z"/><path fill="none" stroke="#000" stroke-miterlimit="10" stroke-width=".3985" d="m113.587 56.33 1.681-4.468-1.681 1.465-1.682-1.465ZM147.603 39.889v13.339"/><path d="m147.603 56.33 1.682-4.468-1.682 1.465-1.682-1.465Z"/><path fill="none" stroke="#000" stroke-miterlimit="10" stroke-width=".3985" d="m147.603 56.33 1.682-4.468-1.682 1.465-1.682-1.465Z"/><use xlink:href="#a" x="-60.486275" y="-60.486275" transform="translate(102.938 87.067)scale(1.0004)"/><use xlink:href="#b" x="-60.486275" y="-60.486275" transform="translate(136.954 87.067)scale(1.0004)"/><use xlink:href="#c" x="-60.486275" y="-60.486275" transform="translate(170.97 86.995)scale(1.0004)"/><use xlink:href="#d" x="-60.486275" y="-60.486275" transform="translate(204.986 87.079)scale(1.0004)"/><use xlink:href="#a" x="-60.486275" y="-60.486275" transform="translate(102.938 138.091)scale(1.0004)"/><use xlink:href="#b" x="-60.486275" y="-60.486275" transform="translate(136.954 138.091)scale(1.0004)"/><use xlink:href="#c" x="-60.486275" y="-60.486275" transform="translate(170.97 138.019)scale(1.0004)"/><use xlink:href="#d" x="-60.486275" y="-60.486275" transform="translate(204.986 138.103)scale(1.0004)"/></svg>