<svg xmlns="http://www.w3.org/2000/svg" xmlns:xlink="http://www.w3.org/1999/xlink" width="447.97pt" height="251.99pt" viewBox="0 0 447.97 251.99"><defs><path id="X" d="M8.396 0v-.347c-.777 0-.993 0-1.16-.49L4.629-8.324c-.048-.144-.072-.215-.24-.215s-.191.035-.25.227l-2.5 7.152C1.47-.67 1.136-.36.37-.347V0l1.148-.024c.335 0 .909 0 1.22.024v-.347c-.502-.012-.801-.263-.801-.598 0-.072 0-.096.06-.251l.55-1.59H5.56L6.22-.91c.06.144.06.167.06.203 0 .36-.61.36-.909.36V0c.275-.024 1.22-.024 1.555-.024s1.196 0 1.47.024M5.442-3.134H2.667l1.387-3.982z"/><path id="H" d="M5.669-1.064v-.67h-.263v.67c0 .681-.287.777-.455.777-.454 0-.454-.634-.454-.813v-2.093c0-.646 0-1.125-.526-1.591-.419-.383-.957-.55-1.483-.55-.981 0-1.735.646-1.735 1.423 0 .347.228.514.503.514.287 0 .49-.203.49-.49 0-.49-.43-.49-.61-.49.275-.503.85-.718 1.328-.718.55 0 1.256.455 1.256 1.53v.48C1.316-3.05.407-2.046.407-1.126c0 .946 1.1 1.245 1.83 1.245A1.63 1.63 0 0 0 3.79-.933c.048.562.419.993.933.993.251 0 .945-.168.945-1.124m-1.95-.622C3.72-.514 2.847-.12 2.333-.12c-.586 0-1.076-.43-1.076-1.004 0-1.579 2.033-1.722 2.464-1.746z"/><path id="W" d="M4.856-1.423c0-.108-.084-.108-.12-.108-.107 0-.12.036-.155.18-.263.849-.91 1.207-1.555 1.207-.73 0-1.698-.633-1.698-2.451 0-1.986 1.016-2.476 1.614-2.476.455 0 1.112.18 1.388.646-.144 0-.587 0-.587.49 0 .287.204.49.49.49.276 0 .503-.167.503-.514 0-.801-.837-1.375-1.806-1.375C1.53-5.334.42-4.09.42-2.584.419-1.051 1.567.12 2.919.12c1.578 0 1.937-1.436 1.937-1.543"/><path id="U" d="M8.288-4.007c0-2.308-1.614-4.162-3.6-4.162H.502v.347h.24c.86 0 .897.12.897.562v6.351c0 .443-.036.562-.897.562h-.24V0h4.186c1.998 0 3.6-1.794 3.6-4.007M7.2-4.019c0 .67-.012 1.794-.694 2.68-.394.502-1.112.992-2.117.992H3.134c-.527 0-.55-.084-.55-.478v-6.518c0-.395.023-.479.55-.479h1.255c.993 0 1.782.479 2.273 1.268.538.85.538 2.057.538 2.535"/><path id="N" d="M6.16 0v-.347c-.814 0-.91-.084-.91-.67V-8.3l-1.662.131v.347c.813 0 .909.084.909.67v2.643a1.86 1.86 0 0 0-1.495-.765C1.615-5.274.419-4.102.419-2.571c0 1.519 1.136 2.69 2.451 2.69.91 0 1.436-.597 1.603-.825V.12zM4.472-1.4c0 .216 0 .252-.167.515-.287.419-.778.765-1.376.765-.31 0-1.602-.12-1.602-2.44 0-.86.143-1.339.406-1.734.24-.37.718-.741 1.316-.741.741 0 1.16.538 1.28.73.143.203.143.227.143.442z"/><path id="F" d="M4.868-1.423c0-.072-.06-.12-.132-.12-.096 0-.12.06-.143.12C4.282-.42 3.48-.143 2.978-.143s-1.71-.335-1.71-2.404v-.228H4.58c.263 0 .287 0 .287-.227 0-1.208-.646-2.332-2.093-2.332C1.41-5.334.359-4.102.359-2.62.359-1.041 1.579.12 2.906.12c1.424 0 1.962-1.292 1.962-1.543m-.742-1.579H1.28c.095-1.878 1.148-2.093 1.483-2.093 1.28 0 1.351 1.686 1.363 2.093"/><path id="J" d="M2.882 0v-.347c-.777 0-.825-.06-.825-.526v-4.401l-1.626.131v.347c.765 0 .873.072.873.658v3.253c0 .538-.132.538-.91.538V0c.336-.024.91-.024 1.256-.024.132 0 .826 0 1.232.024m-.67-7.224a.58.58 0 1 0-.586.574.576.576 0 0 0 .587-.574"/><path id="M" d="M2.966 0v-.347c-.765 0-.909 0-.909-.538V-8.3L.395-8.17v.347c.813 0 .909.084.909.67v6.267c0 .538-.132.538-.91.538V0c.336-.024.922-.024 1.28-.024s.957 0 1.292.024"/><path id="O" d="M9.484 0v-.347c-.598 0-.897 0-.909-.359v-2.2c0-1.113 0-1.447-.275-1.83-.347-.467-.909-.538-1.315-.538-.993 0-1.495.717-1.687 1.184-.167-.921-.813-1.184-1.566-1.184-1.16 0-1.615.992-1.71 1.232h-.013v-1.232l-1.626.131v.347c.813 0 .909.084.909.67v3.241c0 .538-.132.538-.91.538V0c.312-.024.958-.024 1.292-.024.347 0 .993 0 1.304.024v-.347c-.765 0-.909 0-.909-.538V-3.11c0-1.255.825-1.925 1.567-1.925s.909.61.909 1.34v2.81c0 .538-.132.538-.91.538V0c.312-.024.958-.024 1.293-.024.346 0 .992 0 1.303.024v-.347c-.765 0-.909 0-.909-.538V-3.11c0-1.255.825-1.925 1.567-1.925s.909.61.909 1.34v2.81c0 .538-.132.538-.909.538V0c.31-.024.957-.024 1.292-.024.346 0 .992 0 1.303.024"/><path id="K" d="M6.231 0v-.347c-.598 0-.897 0-.909-.359v-2.2c0-1.113 0-1.447-.275-1.83-.347-.467-.909-.538-1.315-.538-1.16 0-1.615.992-1.71 1.232h-.013v-1.232l-1.626.131v.347c.813 0 .909.084.909.67v3.241c0 .538-.132.538-.91.538V0c.312-.024.958-.024 1.292-.024.347 0 .993 0 1.304.024v-.347c-.765 0-.909 0-.909-.538V-3.11c0-1.255.825-1.925 1.567-1.925s.909.61.909 1.34v2.81c0 .538-.132.538-.91.538V0c.312-.024.958-.024 1.293-.024.346 0 .992 0 1.303.024"/><path id="D" d="M5.49-2.56c0-1.542-1.172-2.774-2.56-2.774C1.495-5.334.36-4.066.36-2.56.359-1.03 1.555.12 2.919.12c1.41 0 2.57-1.172 2.57-2.68m-.91-.107c0 .419 0 1.16-.31 1.722a1.56 1.56 0 0 1-1.34.801c-.442 0-.98-.19-1.327-.777-.323-.538-.335-1.244-.335-1.746 0-.455 0-1.184.37-1.722a1.53 1.53 0 0 1 1.28-.706c.467 0 .969.215 1.292.682.37.55.37 1.303.37 1.746"/><path id="E" d="M6.076-2.583c0-1.52-1.125-2.691-2.428-2.691-1.053 0-1.615.753-1.65.801v-.801l-1.663.131v.347c.837 0 .909.084.909.61v5.621c0 .538-.132.538-.91.538v.347c.312-.024.958-.024 1.293-.024.346 0 .992 0 1.303.024v-.347c-.765 0-.909 0-.909-.538v-2.08c.216.298.706.765 1.471.765 1.376 0 2.584-1.16 2.584-2.703m-.91 0c0 1.423-.813 2.463-1.733 2.463a1.4 1.4 0 0 1-.957-.382c-.275-.275-.455-.515-.455-.85v-2.463c0-.227 0-.24.132-.43a1.72 1.72 0 0 1 1.4-.766c.896 0 1.614 1.088 1.614 2.428"/><path id="G" d="M4.222-4.58c0-.36-.323-.694-.837-.694-1.017 0-1.364 1.1-1.436 1.327h-.011v-1.327l-1.603.131v.347c.813 0 .909.084.909.67v3.241c0 .538-.132.538-.91.538V0c.336-.024.994-.024 1.352-.024.323 0 1.172 0 1.448.024v-.347h-.24c-.873 0-.897-.131-.897-.562v-1.878c0-1.16.479-2.248 1.4-2.248.095 0 .12 0 .167.012-.096.048-.287.12-.287.442a.46.46 0 0 0 .466.479c.24 0 .479-.156.479-.479"/><path id="L" d="M4.21-1.519c0-.646-.395-1.028-.502-1.136-.431-.37-.754-.443-1.543-.586-.359-.072-1.232-.24-1.232-.957 0-.37.251-.92 1.327-.92 1.304 0 1.376 1.111 1.4 1.482.012.096.095.096.131.096.132 0 .132-.06.132-.275V-5.06c0-.215 0-.275-.12-.275-.095 0-.323.263-.406.37-.371-.298-.742-.37-1.125-.37-1.447 0-1.877.79-1.877 1.447 0 .132 0 .55.454.969.383.335.79.418 1.34.526.657.132.813.167 1.112.407.215.179.37.442.37.777 0 .514-.298 1.088-1.35 1.088C1.53-.12.956-.574.693-1.77c-.048-.215-.06-.24-.06-.24-.024-.047-.072-.047-.108-.047-.131 0-.131.06-.131.275v1.627c0 .215 0 .275.12.275.06 0 .071-.012.274-.264.06-.083.06-.107.24-.299.454.563 1.1.563 1.303.563C3.588.12 4.21-.574 4.21-1.52"/><path id="I" d="M3.899-1.483v-.682h-.263v.658c0 .861-.347 1.363-.813 1.363-.814 0-.814-1.112-.814-1.315v-3.349h1.687v-.347H2.009v-2.2h-.263c-.012 1.124-.442 2.272-1.53 2.308v.24h1.016v3.324C1.232-.155 2.117.12 2.75.12c.753 0 1.148-.742 1.148-1.603"/><path id="V" d="M5.956-4.808v-.347c-.347.024-.514.024-.897.024l-.969-.024v.347c.443.024.55.3.55.514 0 .108-.023.168-.071.287L3.349-.993 2.02-4.246c-.072-.167-.072-.251-.072-.251 0-.31.42-.31.658-.31v-.348c-.31.024-.897.024-1.232.024l-1.16-.024v.347c.694 0 .79.06.945.43L2.942 0c-.526 1.268-.526 1.292-.574 1.387-.203.36-.526.814-1.064.814-.371 0-.598-.216-.598-.216s.418-.047.418-.466a.433.433 0 0 0-.442-.443c-.204 0-.455.12-.455.467 0 .454.443.897 1.077.897.67 0 1.16-.586 1.47-1.34l2.07-5.095c.323-.801.885-.813 1.112-.813"/><path id="C" d="M2.464-3.504c.024-.072.323-.67.765-1.053a1.74 1.74 0 0 1 1.184-.478c.479 0 .646.359.646.837 0 .682-.49 2.045-.73 2.691-.107.287-.167.443-.167.658 0 .538.37.969.945.969 1.112 0 1.53-1.759 1.53-1.83 0-.06-.047-.108-.119-.108-.107 0-.12.036-.18.24C6.065-.599 5.61-.12 5.144-.12c-.12 0-.311-.012-.311-.394 0-.3.131-.658.203-.826.24-.657.742-1.997.742-2.679 0-.717-.419-1.255-1.328-1.255-1.064 0-1.626.753-1.842 1.052-.036-.682-.526-1.052-1.052-1.052-.383 0-.646.227-.85.634C.49-4.21.324-3.492.324-3.444s.048.107.131.107c.096 0 .108-.012.18-.287.191-.73.407-1.411.885-1.411.275 0 .37.191.37.55 0 .263-.119.73-.203 1.1l-.335 1.292c-.047.227-.179.765-.239.98C1.03-.8.897-.238.897-.178c0 .167.132.299.311.299a.46.46 0 0 0 .407-.252c.024-.06.131-.478.191-.717l.263-1.077z"/><path id="P" d="M2.404-4.808h1.1c.228 0 .347 0 .347-.215 0-.132-.072-.132-.31-.132H2.487L2.93-6.9c.048-.167.048-.191.048-.275 0-.191-.155-.299-.31-.299-.097 0-.372.036-.467.419l-.467 1.901H.61c-.24 0-.347 0-.347.227 0 .12.084.12.311.12H1.64L.849-1.65c-.096.418-.131.538-.131.693C.718-.395 1.112.12 1.782.12c1.208 0 1.854-1.747 1.854-1.83 0-.072-.048-.108-.12-.108-.024 0-.072 0-.095.048-.012.012-.024.024-.108.215C3.062-.957 2.512-.12 1.818-.12c-.359 0-.383-.299-.383-.562 0-.012 0-.239.036-.382z"/><path id="u" d="M1.582-.397c0-.251-.209-.405-.397-.405a.403.403 0 0 0-.404.398c0 .25.209.404.397.404.23 0 .404-.188.404-.397"/><path id="v" d="M3.597-2.223c0-.767-.091-1.318-.412-1.806-.216-.32-.648-.6-1.206-.6C.362-4.628.362-2.724.362-2.222S.362.139 1.98.139s1.618-1.86 1.618-2.362M1.979-.056c-.32 0-.745-.188-.885-.76-.097-.41-.097-.982-.097-1.498 0-.509 0-1.039.104-1.422a.89.89 0 0 1 .878-.697c.377 0 .74.23.865.634.111.377.118.879.118 1.485 0 .516 0 1.032-.09 1.47-.14.635-.614.788-.893.788"/><path id="t" d="M2.335-4.433c0-.188-.014-.195-.21-.195-.445.439-1.08.446-1.365.446v.25c.167 0 .627 0 1.01-.194v3.554c0 .23 0 .321-.697.321H.81V0c.125-.007.982-.028 1.24-.028.216 0 1.094.021 1.248.028v-.25h-.265c-.697 0-.697-.092-.697-.322z"/><path id="w" d="M3.52-1.269h-.237c-.021.154-.09.565-.181.635-.056.042-.593.042-.69.042H1.129a24 24 0 0 1 1.394-1.171c.516-.412.997-.844.997-1.506 0-.843-.739-1.36-1.631-1.36-.864 0-1.45.607-1.45 1.249 0 .355.3.39.37.39.167 0 .369-.119.369-.37 0-.125-.049-.369-.411-.369.216-.495.69-.648 1.017-.648.697 0 1.06.543 1.06 1.108 0 .606-.432 1.087-.655 1.338L.509-.27C.439-.21.439-.196.439 0h2.872z"/><path id="x" d="M3.297 2.39c0-.03 0-.05-.17-.219C1.882.916 1.564-.966 1.564-2.49c0-1.733.378-3.466 1.603-4.711.13-.12.13-.14.13-.17 0-.07-.04-.099-.1-.099-.1 0-.996.677-1.583 1.942C1.106-4.432.986-3.327.986-2.49c0 .777.11 1.982.657 3.108.598 1.225 1.455 1.872 1.554 1.872.06 0 .1-.03.1-.1"/><path id="B" d="M2.878-2.49c0-.777-.11-1.982-.657-3.108C1.623-6.823.767-7.47.667-7.47c-.06 0-.1.04-.1.1 0 .03 0 .05.19.229.976.986 1.544 2.57 1.544 4.651C2.3-.787 1.932.966.697 2.221c-.13.12-.13.14-.13.17 0 .06.04.099.1.099.1 0 .996-.677 1.584-1.942.508-1.096.627-2.201.627-3.038"/><path id="z" d="M4.582-3.187c0-.797-.05-1.594-.399-2.33-.458-.957-1.275-1.116-1.693-1.116-.598 0-1.325.259-1.733 1.185-.319.687-.369 1.464-.369 2.26 0 .748.04 1.644.449 2.401A1.83 1.83 0 0 0 2.48.22C3.018.22 3.775.01 4.213-.936c.319-.687.369-1.464.369-2.251M2.48 0c-.388 0-.976-.249-1.155-1.205-.11-.598-.11-1.514-.11-2.102 0-.637 0-1.295.08-1.832.189-1.186.936-1.275 1.185-1.275.329 0 .986.179 1.175 1.165.1.558.1 1.315.1 1.942 0 .747 0 1.425-.11 2.062C3.496-.299 2.928 0 2.48 0"/><path id="o" d="M2.928-6.374c0-.24 0-.26-.229-.26-.617.638-1.494.638-1.813.638v.309c.2 0 .787 0 1.305-.26v5.16c0 .359-.03.478-.926.478H.946V0c.349-.03 1.215-.03 1.614-.03s1.265 0 1.613.03v-.309h-.318c-.897 0-.927-.11-.927-.478z"/><path id="ag" d="M2.928-1.643v.866c0 .359-.02.468-.757.468h-.209V0c.408-.03.926-.03 1.345-.03s.946 0 1.354.03v-.309h-.209c-.737 0-.757-.11-.757-.468v-.866h.996v-.31h-.996v-4.531c0-.2 0-.259-.16-.259-.089 0-.119 0-.198.12L.279-1.953v.31zm.06-.31H.558l2.43-3.714z"/><path id="A" d="M4.472-2.002c0-1.185-.817-2.181-1.892-2.181-.478 0-.907.16-1.265.508v-1.942c.199.06.528.129.846.129 1.225 0 1.923-.906 1.923-1.036 0-.06-.03-.11-.1-.11-.01 0-.03 0-.08.03-.199.09-.687.29-1.354.29-.399 0-.857-.07-1.325-.28-.08-.03-.1-.03-.12-.03-.099 0-.099.08-.099.24v2.948c0 .18 0 .259.14.259.07 0 .089-.03.129-.09.11-.16.478-.697 1.285-.697.518 0 .767.458.846.637.16.369.18.757.18 1.255 0 .349 0 .947-.24 1.365-.238.388-.607.647-1.065.647C1.554-.06.986-.588.817-1.175c.03.01.06.02.169.02.329 0 .498-.25.498-.488s-.17-.488-.498-.488c-.14 0-.488.07-.488.527C.498-.747 1.185.22 2.301.22c1.155 0 2.171-.956 2.171-2.221"/><path id="r" d="M1.315-3.267v-.239c0-2.52 1.235-2.878 1.743-2.878.239 0 .657.06.876.398-.15 0-.548 0-.548.448 0 .309.24.458.459.458.159 0 .458-.09.458-.478 0-.597-.439-1.075-1.265-1.075-1.275 0-2.62 1.284-2.62 3.486C.418-.488 1.574.219 2.5.219c1.106 0 2.052-.936 2.052-2.25 0-1.266-.887-2.222-1.992-2.222-.678 0-1.046.508-1.245.986M2.5-.06c-.628 0-.926-.597-.986-.747-.18-.468-.18-1.265-.18-1.444 0-.777.32-1.773 1.216-1.773.16 0 .617 0 .926.618.18.368.18.876.18 1.364 0 .478 0 .976-.17 1.335-.299.597-.757.647-.986.647"/><path id="ah" d="M1.623-4.552c-.458-.299-.498-.637-.498-.806 0-.608.648-1.026 1.355-1.026.727 0 1.365.518 1.365 1.235 0 .567-.389 1.045-.986 1.394zm1.455.946c.717-.368 1.205-.886 1.205-1.543 0-.917-.887-1.484-1.793-1.484-.996 0-1.803.737-1.803 1.663 0 .18.02.627.438 1.096.11.12.479.368.728.537-.578.29-1.435.847-1.435 1.833C.418-.448 1.434.219 2.48.219c1.126 0 2.072-.827 2.072-1.892a1.8 1.8 0 0 0-.488-1.225c-.19-.21-.349-.31-.986-.708m-.996.419 1.225.777c.279.189.747.488.747 1.095 0 .737-.747 1.255-1.564 1.255C1.633-.06.916-.677.916-1.504c0-.578.319-1.215 1.166-1.683"/><path id="q" d="M3.655-3.167v.318c0 2.331-1.036 2.79-1.613 2.79-.17 0-.707-.02-.976-.36.438 0 .518-.288.518-.457 0-.31-.24-.459-.459-.459-.159 0-.458.09-.458.478C.667-.189 1.205.22 2.052.22c1.285 0 2.5-1.354 2.5-3.496 0-2.68-1.146-3.356-2.032-3.356-.548 0-1.036.179-1.464.627-.409.448-.638.867-.638 1.614 0 1.245.877 2.22 1.992 2.22.608 0 1.016-.418 1.245-.995M2.42-2.4c-.16 0-.617 0-.926-.628-.18-.368-.18-.866-.18-1.354 0-.538 0-1.006.21-1.375.269-.498.647-.627.996-.627.458 0 .787.338.956.786.12.32.16.947.16 1.405 0 .827-.34 1.793-1.216 1.793"/><path id="n" d="M6.843-3.257c.149 0 .338 0 .338-.2s-.19-.198-.329-.198H.886c-.139 0-.328 0-.328.199s.189.2.338.2zm.01 1.932c.139 0 .328 0 .328-.199s-.19-.2-.338-.2H.896c-.149 0-.338 0-.338.2s.189.2.328.2z"/><path id="p" d="M1.912-.528c0-.289-.239-.528-.528-.528s-.527.24-.527.528.239.528.527.528.528-.239.528-.528"/><path id="y" d="M3.735-6.115c.06-.24.09-.34.279-.369.09-.01.408-.01.607-.01.708 0 1.813 0 1.813.986 0 .339-.16 1.026-.548 1.414-.259.26-.786.578-1.683.578H3.088zm1.434 2.729c1.006-.22 2.191-.917 2.191-1.923 0-.856-.896-1.494-2.2-1.494H2.32c-.199 0-.288 0-.288.2 0 .11.09.11.279.11.02 0 .209 0 .378.019.18.02.27.03.27.16 0 .04-.01.07-.04.189L1.583-.777c-.1.389-.12.468-.907.468-.179 0-.269 0-.269.2 0 .109.12.109.14.109.279 0 .976-.03 1.255-.03S2.789 0 3.068 0c.08 0 .199 0 .199-.2 0-.109-.09-.109-.279-.109-.369 0-.647 0-.647-.179 0-.06.02-.11.03-.17l.657-2.639h1.185c.906 0 1.086.558 1.086.907 0 .149-.08.458-.14.687-.07.279-.16.647-.16.846C5 .22 6.196.22 6.326.22 7.17.22 7.52-.787 7.52-.926c0-.12-.11-.12-.12-.12-.09 0-.11.07-.13.14C7.023-.17 6.595 0 6.365 0c-.328 0-.398-.22-.398-.608 0-.308.06-.816.1-1.135.02-.14.04-.329.04-.468 0-.767-.668-1.076-.937-1.175"/><path id="s" d="M.876-.588c-.03.15-.09.379-.09.429 0 .179.14.269.29.269.12 0 .298-.08.368-.28.01-.02.13-.487.19-.736l.219-.897c.06-.219.12-.438.169-.667.04-.17.12-.458.13-.498.149-.309.677-1.215 1.623-1.215.448 0 .538.368.538.697 0 .618-.488 1.892-.648 2.32-.09.23-.1.35-.1.459 0 .468.35.817.817.817.937 0 1.305-1.455 1.305-1.534 0-.1-.09-.1-.12-.1-.099 0-.099.03-.149.18C5.22-.668 4.89-.11 4.402-.11c-.169 0-.239-.1-.239-.328 0-.25.09-.488.18-.707.189-.528.607-1.624.607-2.192 0-.667-.428-1.065-1.145-1.065-.897 0-1.385.637-1.554.866-.05-.558-.458-.866-.916-.866s-.648.388-.747.567a5 5 0 0 0-.3.967c0 .1.1.1.12.1.1 0 .11-.01.17-.23.169-.707.368-1.185.727-1.185.199 0 .309.13.309.458 0 .21-.03.319-.16.837z"/><path id="m" d="M2.052-3.984h.936c.2 0 .299 0 .299-.2 0-.109-.1-.109-.28-.109h-.876c.359-1.414.409-1.613.409-1.673 0-.17-.12-.269-.289-.269-.03 0-.309.01-.398.359l-.389 1.583H.528c-.2 0-.299 0-.299.19 0 .119.08.119.279.119h.876C.667-1.155.627-.986.627-.807c0 .538.379.917.917.917 1.016 0 1.583-1.455 1.583-1.534 0-.1-.08-.1-.12-.1-.089 0-.099.03-.148.14C2.43-.35 1.902-.11 1.564-.11c-.21 0-.309-.129-.309-.458 0-.239.02-.308.06-.478z"/><path id="Y" d="M6.088-.347c0-.347-.311-.347-.479-.347-.31 0-.55-.024-.717-.095v-2.608c0-.909-.682-1.865-2.297-1.865-.502 0-1.662 0-1.662.825 0 .323.227.502.49.502.072 0 .467-.024.479-.526 0-.06.012-.072.263-.096.143-.012.299-.012.442-.012.275 0 .682 0 1.077.3.43.334.43.669.43 1.016-.705.024-1.4.072-2.14.31C1.374-2.738.61-2.307.61-1.494c0 .85.753 1.567 1.866 1.567.382 0 1.124-.06 1.746-.49.24.394.837.418 1.292.418.287 0 .574 0 .574-.347M4.114-1.579c0 .275 0 .527-.49.754-.419.203-.98.203-1.017.203-.705 0-1.22-.383-1.22-.873 0-.706 1.28-1.112 2.727-1.112z"/><path id="ac" d="M5.968-.347c0-.347-.31-.347-.478-.347H5v-6.123c0-.371-.072-.49-.48-.49h-.788c-.168 0-.479 0-.479.346s.311.347.479.347h.49v1.985c-.191-.19-.682-.598-1.411-.598C1.543-5.227.443-4.078.443-2.57c0 1.47 1.028 2.643 2.26 2.643.777 0 1.292-.467 1.519-.73 0 .503 0 .658.478.658h.79c.167 0 .478 0 .478-.347M4.222-2.272c0 .67-.55 1.65-1.447 1.65-.861 0-1.555-.873-1.555-1.95 0-1.148.813-1.96 1.662-1.96.778 0 1.34.705 1.34 1.327z"/><path id="aa" d="M5.454-1.304c0-.071-.024-.335-.395-.335-.227 0-.299.084-.37.264-.3.693-1.077.753-1.304.753-.993 0-1.782-.753-1.914-1.674h3.504c.252 0 .479 0 .479-.443 0-1.4-.79-2.523-2.285-2.523-1.387 0-2.5 1.196-2.5 2.655A2.667 2.667 0 0 0 3.35.072c1.543 0 2.105-1.065 2.105-1.376m-.79-1.65H1.483c.156-1.017.933-1.615 1.686-1.615 1.196 0 1.448 1.017 1.495 1.615"/><path id="aj" d="M6.064-.347c0-.347-.275-.347-.646-.347v-2.93c0-.263 0-1.603-1.053-1.603-.418 0-.825.192-1.148.634-.072-.179-.335-.634-.909-.634-.538 0-.909.347-1.004.455-.012-.383-.263-.383-.479-.383H.466c-.167 0-.478 0-.478.347s.275.347.646.347v3.767c-.383 0-.646 0-.646.347S.299 0 .466 0h1.005c.168 0 .478 0 .478-.347s-.275-.347-.645-.347v-2.2c0-1.005.43-1.639.956-1.639.335 0 .431.419.431.98v2.86c-.203 0-.526 0-.526.346s.323.347.49.347h.873c.168 0 .479 0 .479-.347s-.275-.347-.646-.347v-2.2c0-1.005.43-1.639.957-1.639.334 0 .43.419.43.98v2.86c-.203 0-.526 0-.526.346s.323.347.49.347h.873c.168 0 .479 0 .479-.347"/><path id="ab" d="M5.968-.347c0-.347-.31-.347-.478-.347H5v-2.81c0-1.172-.55-1.723-1.532-1.723a2.1 2.1 0 0 0-1.542.682c0-.442 0-.61-.479-.61h-.79c-.167 0-.478 0-.478.347s.311.347.479.347h.49v3.767h-.49c-.168 0-.479 0-.479.347S.49 0 .658 0h1.758c.167 0 .478 0 .478-.347s-.31-.347-.478-.347h-.49v-2.164c0-1.16.813-1.675 1.459-1.675.693 0 .837.395.837 1.077v2.762h-.49c-.168 0-.479 0-.479.347S3.564 0 3.732 0H5.49c.167 0 .478 0 .478-.347"/><path id="ak" d="M5.454-2.583c0-1.495-1.089-2.68-2.38-2.68S.694-4.077.694-2.582c0 1.507 1.1 2.655 2.38 2.655s2.38-1.148 2.38-2.655m-.778-.084c0 1.148-.741 2.045-1.602 2.045S1.47-1.53 1.47-2.667c0-1.112.766-1.902 1.603-1.902s1.602.79 1.602 1.902"/><path id="Z" d="M5.705-2.583c0-1.471-1.005-2.644-2.249-2.644-.873 0-1.423.527-1.53.646 0-.394 0-.574-.479-.574h-.79c-.167 0-.478 0-.478.347s.311.347.479.347h.49V1.96h-.49c-.168 0-.479 0-.479.347s.311.347.479.347h1.758c.167 0 .478 0 .478-.347s-.31-.347-.478-.347h-.49V-.598c.287.323.73.67 1.399.67 1.268 0 2.38-1.136 2.38-2.655m-.777 0c0 1.148-.814 1.961-1.663 1.961-.897 0-1.34-1.017-1.34-1.615v-.944c0-.682.67-1.352 1.448-1.352.86 0 1.555.873 1.555 1.95"/><path id="ad" d="M5.119.682c0-.156-.084-.204-.251-.323C3.218-.777 2.81-2.488 2.81-3.648c0-1.136.382-2.858 2.057-4.018.167-.12.25-.168.25-.323 0-.12-.059-.311-.346-.311-.299 0-1.184.693-1.734 1.47a5.43 5.43 0 0 0-1.005 3.182c0 1.328.479 2.44.98 3.146C3.565.263 4.438.993 4.773.993c.287 0 .347-.204.347-.311"/><path id="ae" d="M4.114-3.648c0-.933-.227-2.14-1.088-3.3-.407-.55-1.292-1.352-1.65-1.352-.276 0-.347.203-.347.31 0 .144.083.204.299.348 1.459 1.028 2.009 2.63 2.009 3.982C3.337-2.583 2.99-.825 1.28.36c-.156.107-.251.167-.251.323 0 .107.071.31.346.31.3 0 1.184-.693 1.735-1.47a5.5 5.5 0 0 0 1.004-3.17"/><path id="ai" d="M5.717-4.52c0-.515-.502-.707-1.1-.707-.802 0-1.483.36-2.034 1.029v-.466c0-.371-.071-.49-.478-.49H.897c-.167 0-.478 0-.478.346s.31.347.478.347h.909v3.767H.897c-.167 0-.478 0-.478.347S.729 0 .897 0h2.942c.168 0 .479 0 .479-.347s-.311-.347-.479-.347H2.583V-2.26c0-1.424 1.005-2.273 2.022-2.273.06 0 .131 0 .191.012.036.43.37.467.454.467a.45.45 0 0 0 .467-.467"/><path id="al" d="M5.872-4.808c0-.347-.323-.347-.49-.347H4.066c-.167 0-.49 0-.49.347s.323.347.49.347h.3L3.073-.61 1.782-4.461h.299c.167 0 .49 0 .49-.347s-.323-.347-.49-.347H.765c-.167 0-.49 0-.49.347s.323.347.49.347h.311L2.452-.347c.131.407.394.407.622.407s.49 0 .622-.407L5.07-4.46h.311c.167 0 .49 0 .49-.347"/><path id="d" d="M2.503-5.077c0-.215-.016-.223-.232-.223-.326.319-.749.51-1.506.51v.263c.215 0 .646 0 1.108-.215v4.088c0 .295-.024.391-.781.391h-.28V0c.328-.024 1.013-.024 1.372-.024s1.052 0 1.379.024v-.263h-.28c-.757 0-.78-.096-.78-.39z"/><path id="i" d="M2.248-1.626c.127-.12.462-.382.59-.494.493-.454.964-.893.964-1.618 0-.948-.797-1.562-1.794-1.562-.956 0-1.586.725-1.586 1.435 0 .39.311.446.423.446a.41.41 0 0 0 .414-.423c0-.414-.398-.414-.494-.414a1.23 1.23 0 0 1 1.156-.781c.741 0 1.124.63 1.124 1.3 0 .828-.582 1.434-1.523 2.398L.518-.303C.422-.215.422-.199.422 0h3.149l.23-1.427h-.246c-.024.16-.088.558-.184.71-.048.063-.653.063-.78.063H1.17z"/><path id="e" d="M2.016-2.662c.63 0 1.029.462 1.029 1.3 0 .995-.566 1.29-.989 1.29-.438 0-1.036-.16-1.315-.582.287 0 .486-.183.486-.446a.423.423 0 0 0-.438-.438c-.215 0-.438.135-.438.454 0 .757.813 1.251 1.721 1.251 1.06 0 1.801-.733 1.801-1.53 0-.661-.526-1.267-1.339-1.442.63-.224 1.1-.766 1.1-1.403S2.917-5.3 2.088-5.3C1.235-5.3.59-4.838.59-4.232c0 .295.199.422.406.422a.39.39 0 0 0 .407-.406c0-.295-.255-.407-.43-.415.334-.438.948-.462 1.091-.462.207 0 .813.064.813.885 0 .558-.231.892-.343 1.02-.239.247-.422.263-.908.295-.152.008-.215.016-.215.12 0 .111.071.111.207.111z"/><path id="j" d="M3.14-5.157c0-.159 0-.223-.167-.223-.104 0-.112.008-.191.12L.239-1.57v.263h2.248v.661c0 .295-.024.383-.638.383h-.183V0c.677-.024.693-.024 1.147-.024s.47 0 1.148.024v-.263h-.183c-.614 0-.638-.088-.638-.383v-.661h.845v-.263H3.14zm-.598.646v2.94H.518z"/><path id="f" d="M1.116-4.48c.103.033.422.112.757.112.996 0 1.602-.7 1.602-.82 0-.088-.056-.112-.096-.112-.016 0-.032 0-.103.04-.311.12-.678.215-1.108.215-.47 0-.86-.12-1.108-.215C.98-5.3.964-5.3.956-5.3c-.103 0-.103.088-.103.231v2.335c0 .144 0 .24.127.24.064 0 .088-.032.128-.096.095-.12.398-.526 1.076-.526.446 0 .661.366.733.518.136.287.151.653.151.964 0 .295-.008.725-.23 1.076a1.07 1.07 0 0 1-.893.486A1.295 1.295 0 0 1 .733-.917c.024.008.072.008.08.008.223 0 .398-.143.398-.39 0-.295-.23-.399-.39-.399-.144 0-.399.08-.399.423 0 .717.622 1.442 1.539 1.442.996 0 1.84-.773 1.84-1.761 0-.925-.669-1.745-1.61-1.745-.398 0-.772.127-1.075.398z"/><path id="k" d="M1.1-2.638c0-.662.056-1.243.343-1.73.239-.398.645-.725 1.147-.725.16 0 .526.024.71.303-.36.016-.39.287-.39.375-.001.239.182.374.374.374.143 0 .374-.087.374-.39 0-.479-.358-.869-1.076-.869C1.474-5.3.351-4.248.351-2.526.35-.366 1.355.167 2.128.167c.383 0 .797-.103 1.156-.446.318-.31.59-.646.59-1.339 0-1.044-.79-1.777-1.674-1.777-.574 0-.917.366-1.1.757M2.128-.072c-.422 0-.685-.295-.805-.518-.183-.358-.2-.9-.2-1.203 0-.79.431-1.38 1.045-1.38.398 0 .637.208.789.487.167.295.167.654.167 1.06s0 .757-.16 1.044c-.206.367-.485.51-.836.51"/><path id="b" d="M4.033-4.854c.072-.087.072-.103.072-.279H2.08c-.2 0-.446-.008-.645-.024-.415-.031-.423-.103-.447-.23H.741l-.27 1.68h.246c.016-.119.104-.669.215-.732.088-.04.686-.04.805-.04h1.69l-.82 1.1c-.91 1.211-1.1 2.47-1.1 3.1 0 .08 0 .446.374.446s.375-.358.375-.454v-.382c0-1.148.19-2.089.581-2.607z"/><path id="c" d="M3.124-2.351c0 1.945-.924 2.28-1.387 2.28-.167 0-.581-.025-.797-.272.351-.032.375-.295.375-.374a.364.364 0 0 0-.375-.375c-.143 0-.374.088-.374.39 0 .543.446.87 1.18.87 1.091 0 2.127-1.085 2.127-2.79 0-2.072-.916-2.678-1.737-2.678-.94 0-1.785.733-1.785 1.777 0 1.028.773 1.778 1.673 1.778.566 0 .909-.36 1.1-.766zm-1.068.382c-.366 0-.597-.167-.773-.462C1.1-2.726 1.1-3.108 1.1-3.515c0-.47 0-.805.215-1.132.2-.286.454-.446.829-.446.534 0 .765.526.789.566.167.39.175 1.012.175 1.172 0 .63-.342 1.386-1.052 1.386"/><path id="h" d="M5.358-3.827c0-.993-.06-1.962-.49-2.87-.49-.993-1.352-1.256-1.938-1.256-.693 0-1.543.346-1.985 1.34C.61-5.86.49-5.12.49-3.828c0 1.16.084 2.033.515 2.882A2.13 2.13 0 0 0 2.918.251c1.04 0 1.639-.622 1.986-1.315.43-.897.454-2.07.454-2.763M2.918.012c-.382 0-1.16-.215-1.387-1.519-.132-.718-.132-1.627-.132-2.464 0-.98 0-1.865.192-2.571.203-.801.813-1.172 1.327-1.172.455 0 1.148.275 1.376 1.303.155.682.155 1.627.155 2.44 0 .802 0 1.71-.131 2.44C4.09-.215 3.337.012 2.918.012"/><path id="g" d="M3.444-7.666c0-.275 0-.287-.239-.287-.287.323-.885.765-2.117.765v.347c.275 0 .873 0 1.531-.311v6.231c0 .43-.036.574-1.088.574h-.37V0c.322-.024 1.482-.024 1.877-.024s1.543 0 1.866.024v-.347h-.371C3.48-.347 3.444-.49 3.444-.92z"/><path id="a" d="M5.262-2.01H5c-.036.204-.131.862-.25 1.053-.085.108-.766.108-1.125.108H1.41c.323-.275 1.053-1.04 1.364-1.328 1.818-1.674 2.487-2.296 2.487-3.48 0-1.375-1.088-2.296-2.475-2.296S.586-6.77.586-5.741c0 .61.526.61.562.61.251 0 .562-.18.562-.562 0-.335-.227-.562-.562-.562-.107 0-.131 0-.167.012.227-.813.873-1.364 1.65-1.364 1.017 0 1.639.85 1.639 1.95 0 1.017-.586 1.902-1.268 2.667L.586-.287V0h4.365z"/><path id="Q" d="M2.99 2.99v-.443H1.83V-8.527h1.16v-.443H1.387V2.99z"/><path id="T" d="M1.854-8.97H.25v.443h1.16V2.547H.251v.443h1.603z"/><path id="R" d="M5.322-2.906c0-1.113 0-1.447-.275-1.83-.347-.467-.909-.538-1.315-.538-1.16 0-1.615.992-1.71 1.232h-.013v-1.232l-1.626.131v.347c.813 0 .909.084.909.67v3.241c0 .538-.132.538-.91.538V0c.312-.024.958-.024 1.292-.024.347 0 .993 0 1.304.024v-.347c-.765 0-.909 0-.909-.538V-3.11c0-1.255.825-1.925 1.567-1.925s.909.61.909 1.34v2.81c0 .538-.132.538-.91.538V0c.312-.024.958-.024 1.293-.024.346 0 .992 0 1.303.024v-.347c-.598 0-.897 0-.909-.359z"/><path id="S" d="M3.923-5.06c0-.214 0-.274-.12-.274-.095 0-.323.263-.406.37-.371-.298-.742-.37-1.125-.37-1.447 0-1.877.79-1.877 1.447 0 .132 0 .55.454.969.383.335.79.418 1.34.526.657.132.813.167 1.112.407.215.179.37.442.37.777 0 .514-.298 1.088-1.35 1.088C1.53-.12.956-.574.693-1.77c-.048-.215-.048-.227-.06-.24-.024-.047-.072-.047-.108-.047-.131 0-.131.06-.131.275v1.627c0 .215 0 .275.12.275.06 0 .071-.012.274-.264.06-.083.06-.107.24-.299.454.563 1.1.563 1.303.563C3.588.12 4.21-.574 4.21-1.52c0-.646-.395-1.028-.502-1.136-.431-.37-.754-.443-1.543-.586-.359-.072-1.232-.24-1.232-.957 0-.37.251-.92 1.327-.92 1.304 0 1.376 1.111 1.4 1.482.012.096.095.096.131.096.132 0 .132-.06.132-.275z"/><clipPath id="l"><path d="M56.07 204.714h153.595V51.119H56.069Z"/></clipPath><clipPath id="af"><path d="M282.843 204.713H436.44V51.119H282.843Z"/></clipPath></defs><g fill="none" stroke="gray" stroke-miterlimit="10" stroke-width=".19925"><path d="M68.858 204.714v-4.25m25.599 4.25v-4.25m25.598 4.25v-4.25m25.6 4.25v-4.25m25.598 4.25v-4.25m25.6 4.25v-4.25M68.857 51.119v4.25m25.599-4.25v4.25m25.598-4.25v4.25m25.6-4.25v4.25m25.598-4.25v4.25m25.6-4.25v4.25M56.07 204.29h2.833m-2.834-2.325h2.834m-2.834-2.015h2.834m-2.834-1.777h2.834m-2.834-1.59h2.834m-2.834-10.457h2.834m-2.834-6.117h2.834m-2.834-4.34h2.834m-2.834-3.366h2.834m-2.834-2.75h2.834m-2.834-2.326h2.834m-2.834-2.015h2.834m-2.834-1.777h2.834m-2.834-1.59h2.834m-2.834-10.456h2.834m-2.834-6.117h2.834m-2.834-4.34h2.834m-2.834-3.367h2.834m-2.834-2.75h2.834m-2.834-2.326h2.834m-2.834-2.014h2.834m-2.834-1.777h2.834m-2.834-1.59h2.834m-2.834-10.457h2.834m-2.834-6.117h2.834m-2.834-4.34h2.834m-2.834-3.367h2.834m-2.834-2.75h2.834m-2.834-2.326h2.834m-2.834-2.014h2.834m-2.834-1.777h2.834m-2.834-1.59h2.834m-2.834-10.457h2.834m-2.834-6.117h2.834m-2.834-4.34h2.834m-2.834-3.366h2.834m-2.834-2.75h2.834m-2.834-2.326h2.834m-2.834-2.015h2.834m-2.834-1.777h2.834M209.665 204.29h-2.833m2.833-2.325h-2.833m2.833-2.015h-2.833m2.833-1.777h-2.833m2.833-1.59h-2.833m2.833-10.457h-2.833m2.833-6.117h-2.833m2.833-4.34h-2.833m2.833-3.366h-2.833m2.833-2.75h-2.833m2.833-2.326h-2.833m2.833-2.015h-2.833m2.833-1.777h-2.833m2.833-1.59h-2.833m2.833-10.456h-2.833m2.833-6.117h-2.833m2.833-4.34h-2.833m2.833-3.367h-2.833m2.833-2.75h-2.833m2.833-2.326h-2.833m2.833-2.014h-2.833m2.833-1.777h-2.833m2.833-1.59h-2.833m2.833-10.457h-2.833m2.833-6.117h-2.833m2.833-4.34h-2.833m2.833-3.367h-2.833m2.833-2.75h-2.833m2.833-2.326h-2.833m2.833-2.014h-2.833m2.833-1.777h-2.833m2.833-1.59h-2.833m2.833-10.457h-2.833m2.833-6.117h-2.833m2.833-4.34h-2.833m2.833-3.366h-2.833m2.833-2.75h-2.833m2.833-2.326h-2.833m2.833-2.015h-2.833m2.833-1.777h-2.833M56.07 196.584h4.249m-4.25-34.738h4.25m-4.25-34.738h4.25m-4.25-34.738h4.25m-4.25-34.737h4.25m149.346 138.95h-4.25m4.25-34.737h-4.25m4.25-34.738h-4.25m4.25-34.738h-4.25m4.25-34.737h-4.25"/></g><path fill="none" stroke="#000" stroke-miterlimit="10" stroke-width=".3985" d="M56.07 204.714V51.119h153.595v153.595z"/><use xlink:href="#a" x="-48.01427" y="158.183485" transform="translate(111.56 60.253)scale(1.0004)"/><use xlink:href="#b" x="-42.141471" y="153.779061" transform="matrix(.99999 0 0 .99999 111.56 60.253)"/><use xlink:href="#a" x="-48.01427" y="158.183485" transform="translate(137.159 60.253)scale(1.0004)"/><use xlink:href="#c" x="-42.141471" y="153.779061" transform="matrix(.99999 0 0 .99999 137.159 60.253)"/><use xlink:href="#a" x="-48.01427" y="158.183485" transform="translate(160.641 60.253)scale(1.0004)"/><g transform="matrix(.99999 0 0 .99999 160.641 60.253)"><use xlink:href="#d" x="-42.141471" y="153.779061"/><use xlink:href="#d" x="-37.909399" y="153.779061"/></g><use xlink:href="#a" x="-48.01427" y="158.183485" transform="translate(186.24 60.253)scale(1.0004)"/><g transform="matrix(.99999 0 0 .99999 186.24 60.253)"><use xlink:href="#d" x="-42.141471" y="153.779061"/><use xlink:href="#e" x="-37.909399" y="153.779061"/></g><use xlink:href="#a" x="-48.01427" y="158.183485" transform="translate(211.838 60.253)scale(1.0004)"/><g transform="matrix(.99999 0 0 .99999 211.838 60.253)"><use xlink:href="#d" x="-42.141471" y="153.779061"/><use xlink:href="#f" x="-37.909399" y="153.779061"/></g><use xlink:href="#a" x="-48.01427" y="158.183485" transform="translate(237.437 60.253)scale(1.0004)"/><g transform="matrix(.99999 0 0 .99999 237.437 60.253)"><use xlink:href="#d" x="-42.141471" y="153.779061"/><use xlink:href="#b" x="-37.909399" y="153.779061"/></g><g transform="translate(83.442 43.201)scale(1.0004)"><use xlink:href="#g" x="-48.01427" y="158.183485"/><use xlink:href="#h" x="-42.165831" y="158.183485"/></g><use xlink:href="#i" x="-36.288544" y="153.779061" transform="matrix(.99999 0 0 .99999 83.442 43.201)"/><g transform="translate(83.442 8.463)scale(1.0004)"><use xlink:href="#g" x="-48.01427" y="158.183485"/><use xlink:href="#h" x="-42.165831" y="158.183485"/></g><use xlink:href="#e" x="-36.288544" y="153.779061" transform="matrix(.99999 0 0 .99999 83.442 8.463)"/><g transform="translate(83.442 -26.275)scale(1.0004)"><use xlink:href="#g" x="-48.01427" y="158.183485"/><use xlink:href="#h" x="-42.165831" y="158.183485"/></g><use xlink:href="#j" x="-36.288544" y="153.779061" transform="matrix(.99999 0 0 .99999 83.442 -26.275)"/><g transform="translate(83.442 -61.012)scale(1.0004)"><use xlink:href="#g" x="-48.01427" y="158.183485"/><use xlink:href="#h" x="-42.165831" y="158.183485"/></g><use xlink:href="#f" x="-36.288544" y="153.779061" transform="matrix(.99999 0 0 .99999 83.442 -61.012)"/><g transform="translate(83.442 -95.75)scale(1.0004)"><use xlink:href="#g" x="-48.01427" y="158.183485"/><use xlink:href="#h" x="-42.165831" y="158.183485"/></g><use xlink:href="#k" x="-36.288544" y="153.779061" transform="matrix(.99999 0 0 .99999 83.442 -95.75)"/><g clip-path="url(#l)"><path fill="none" stroke="#000" stroke-miterlimit="10" stroke-width=".3985" d="m56.07 191.914 6.4-5.334 6.399-5.335 6.4-5.328 6.399-5.336 6.4-5.33 6.4-5.337 6.399-5.331 6.4-5.336 6.399-5.333 6.4-5.333 6.4-5.332 6.399-5.333 6.4-5.333 6.4-5.334 6.399-5.333 6.4-5.331 6.399-5.335 6.4-5.332 6.4-5.334 6.399-5.332 6.4-5.334 6.4-5.332 6.399-5.333 6.4-5.334"/><g transform="rotate(-39.819 50.266 -37.161)scale(.9997)"><use xlink:href="#m" x="-47.982474" y="158.078734"/><use xlink:href="#n" x="-41.619135" y="158.078734"/><use xlink:href="#o" x="-31.121294" y="158.078734"/><use xlink:href="#p" x="-26.126178" y="158.078734"/><use xlink:href="#q" x="-23.3589" y="158.078734"/><use xlink:href="#r" x="-18.3789" y="158.078734"/><use xlink:href="#s" x="-13.3985" y="158.078734"/></g><g transform="matrix(.76762 -.64 .64 .76762 35.455 23.57)"><use xlink:href="#t" x="-7.418953" y="154.419811"/><use xlink:href="#u" x="-3.449117" y="154.419811"/><use xlink:href="#v" x="-1.084406" y="154.419811"/><use xlink:href="#w" x="2.881524" y="154.419811"/></g><g transform="rotate(-39.819 50.266 -37.161)scale(.9997)"><use xlink:href="#x" x="9.566505" y="158.078734"/><use xlink:href="#y" x="13.440493" y="158.078734"/></g><use xlink:href="#w" x="21.073514" y="154.419811" transform="matrix(.76762 -.64 .64 .76762 35.455 23.57)"/><g transform="rotate(-39.819 50.266 -37.161)scale(.9997)"><use xlink:href="#n" x="28.314612" y="158.078734"/><use xlink:href="#z" x="38.812452" y="158.078734"/><use xlink:href="#p" x="43.807564" y="158.078734"/><use xlink:href="#q" x="46.574842" y="158.078734"/><use xlink:href="#q" x="51.554846" y="158.078734"/><use xlink:href="#A" x="56.534846" y="158.078734"/><use xlink:href="#B" x="61.514846" y="158.078734"/></g></g><path d="M69.991 179.528a1.12 1.12 0 1 0-2.242 0 1.12 1.12 0 0 0 2.242 0"/><path fill="none" stroke="#000" stroke-miterlimit="10" stroke-width=".3985" d="M69.991 179.528a1.12 1.12 0 1 0-2.242 0 1.12 1.12 0 0 0 2.242 0Z"/><path d="M82.79 169.07a1.12 1.12 0 1 0-2.241 0 1.12 1.12 0 0 0 2.241 0"/><path fill="none" stroke="#000" stroke-miterlimit="10" stroke-width=".3985" d="M82.79 169.07a1.12 1.12 0 1 0-2.241 0 1.12 1.12 0 0 0 2.241 0Z"/><path d="M95.59 159.083a1.12 1.12 0 1 0-2.241 0 1.12 1.12 0 0 0 2.241 0"/><path fill="none" stroke="#000" stroke-miterlimit="10" stroke-width=".3985" d="M95.59 159.083a1.12 1.12 0 1 0-2.241 0 1.12 1.12 0 0 0 2.241 0Z"/><path d="M108.39 149.01a1.12 1.12 0 1 0-2.242 0 1.12 1.12 0 0 0 2.242 0"/><path fill="none" stroke="#000" stroke-miterlimit="10" stroke-width=".3985" d="M108.39 149.01a1.12 1.12 0 1 0-2.242 0 1.12 1.12 0 0 0 2.242 0Z"/><path d="M121.189 138.935a1.12 1.12 0 1 0-2.242 0 1.12 1.12 0 0 0 2.242 0"/><path fill="none" stroke="#000" stroke-miterlimit="10" stroke-width=".3985" d="M121.189 138.935a1.12 1.12 0 1 0-2.242 0 1.12 1.12 0 0 0 2.242 0Z"/><path d="M133.988 128.347a1.12 1.12 0 1 0-2.242 0 1.12 1.12 0 0 0 2.242 0"/><path fill="none" stroke="#000" stroke-miterlimit="10" stroke-width=".3985" d="M133.988 128.347a1.12 1.12 0 1 0-2.242 0 1.12 1.12 0 0 0 2.242 0Z"/><path d="M146.787 118.032a1.12 1.12 0 1 0-2.241 0 1.12 1.12 0 0 0 2.241 0"/><path fill="none" stroke="#000" stroke-miterlimit="10" stroke-width=".3985" d="M146.787 118.032a1.12 1.12 0 1 0-2.241 0 1.12 1.12 0 0 0 2.241 0Z"/><path d="M159.588 107.714a1.12 1.12 0 1 0-2.242 0 1.12 1.12 0 0 0 2.242 0"/><path fill="none" stroke="#000" stroke-miterlimit="10" stroke-width=".3985" d="M159.588 107.714a1.12 1.12 0 1 0-2.242 0 1.12 1.12 0 0 0 2.242 0Z"/><path d="M172.387 97.339a1.12 1.12 0 1 0-2.242 0 1.12 1.12 0 0 0 2.242 0"/><path fill="none" stroke="#000" stroke-miterlimit="10" stroke-width=".3985" d="M172.387 97.339a1.12 1.12 0 1 0-2.242 0 1.12 1.12 0 0 0 2.242 0Z"/><path d="M185.186 86.82a1.12 1.12 0 1 0-2.241 0 1.12 1.12 0 0 0 2.241 0"/><path fill="none" stroke="#000" stroke-miterlimit="10" stroke-width=".3985" d="M185.186 86.82a1.12 1.12 0 1 0-2.241 0 1.12 1.12 0 0 0 2.241 0Z"/><path d="M197.986 67.44a1.12 1.12 0 1 0-2.242 0 1.12 1.12 0 0 0 2.242 0"/><path fill="none" stroke="#000" stroke-miterlimit="10" stroke-width=".3985" d="M197.986 67.44a1.12 1.12 0 1 0-2.242 0 1.12 1.12 0 0 0 2.242 0Z"/><g transform="translate(148.879 76.228)scale(1.0004)"><use xlink:href="#C" x="-48.01427" y="158.183485"/><use xlink:href="#D" x="-37.1249" y="158.183485"/><use xlink:href="#E" x="-31.264502" y="158.183485"/><use xlink:href="#F" x="-24.435341" y="158.183485"/><use xlink:href="#G" x="-19.232741" y="158.183485"/><use xlink:href="#H" x="-14.67598" y="158.183485"/><use xlink:href="#I" x="-8.815579" y="158.183485"/><use xlink:href="#J" x="-4.258819" y="158.183485"/><use xlink:href="#D" x="-1.005699" y="158.183485"/><use xlink:href="#K" x="4.854702" y="158.183485"/><use xlink:href="#L" x="11.360942" y="158.183485"/></g><g transform="rotate(-90 -3.594 130.235)scale(1.0004)"><use xlink:href="#F" x="-48.01427" y="158.183485"/><use xlink:href="#M" x="-42.81167" y="158.183485"/><use xlink:href="#H" x="-39.558546" y="158.183485"/><use xlink:href="#E" x="-33.698149" y="158.183485"/><use xlink:href="#L" x="-27.191907" y="158.183485"/><use xlink:href="#F" x="-22.575347" y="158.183485"/><use xlink:href="#N" x="-17.372747" y="158.183485"/><use xlink:href="#I" x="-6.967546" y="158.183485"/><use xlink:href="#J" x="-2.410785" y="158.183485"/><use xlink:href="#O" x=".842335" y="158.183485"/><use xlink:href="#F" x="10.601696" y="158.183485"/><use xlink:href="#P" x="19.702912" y="158.183485"/><use xlink:href="#Q" x="27.831174" y="158.183485"/><use xlink:href="#R" x="31.072335" y="158.183485"/><use xlink:href="#S" x="37.566615" y="158.183485"/><use xlink:href="#T" x="42.183176" y="158.183485"/></g><g transform="translate(141.266 -119.816)scale(1.0004)"><use xlink:href="#U" x="-48.01427" y="143.731685"/><use xlink:href="#V" x="-39.06819" y="143.731685"/><use xlink:href="#K" x="-32.884868" y="143.731685"/><use xlink:href="#H" x="-26.378627" y="143.731685"/><use xlink:href="#O" x="-20.518225" y="143.731685"/><use xlink:href="#J" x="-10.758865" y="143.731685"/><use xlink:href="#W" x="-7.505745" y="143.731685"/><use xlink:href="#X" x="1.595816" y="143.731685"/><use xlink:href="#G" x="10.374457" y="143.731685"/><use xlink:href="#G" x="14.931216" y="143.731685"/><use xlink:href="#H" x="19.487977" y="143.731685"/><use xlink:href="#V" x="25.037417" y="143.731685"/><use xlink:href="#Y" x="-33.04026" y="158.183485"/><use xlink:href="#Z" x="-26.88086" y="158.183485"/><use xlink:href="#Z" x="-20.721459" y="158.183485"/><use xlink:href="#aa" x="-14.562057" y="158.183485"/><use xlink:href="#ab" x="-8.402656" y="158.183485"/><use xlink:href="#ac" x="-2.243256" y="158.183485"/><use xlink:href="#ad" x="3.916144" y="158.183485"/><use xlink:href="#ae" x="10.075545" y="158.183485"/></g><g fill="none" stroke="gray" stroke-miterlimit="10" stroke-width=".19925"><path d="M295.632 204.713v-4.246m25.599 4.246v-4.246m25.598 4.246v-4.246m25.6 4.246v-4.246m25.598 4.246v-4.246m25.6 4.246v-4.246M295.631 51.119v4.246m25.599-4.246v4.246m25.598-4.246v4.246m25.6-4.246v4.246m25.598-4.246v4.246m25.6-4.246v4.246M282.843 196.974h2.834m-2.834-6.177h2.834m-2.834-4.383h2.834m-2.834-3.4h2.834m-2.834-2.778h2.834m-2.834-2.349h2.834m-2.834-2.034h2.834m-2.834-1.794h2.834m-2.834-1.606h2.834m-2.834-10.56h2.834m-2.834-6.178h2.834m-2.834-4.383h2.834m-2.834-3.4h2.834m-2.834-2.778h2.834m-2.834-2.348h2.834m-2.834-2.035h2.834m-2.834-1.794h2.834m-2.834-1.605h2.834m-2.834-10.56h2.834m-2.834-6.179h2.834m-2.834-4.382h2.834m-2.834-3.4h2.834m-2.834-2.778h2.834m-2.834-2.349h2.834m-2.834-2.034h2.834m-2.834-1.795h2.834m-2.834-1.605h2.834m-2.834-10.56h2.834m-2.834-6.178h2.834m-2.834-4.383h2.834m-2.834-3.4h2.834m-2.834-2.778h2.834m-2.834-2.348h2.834m-2.834-2.035h2.834m-2.834-1.794h2.834m150.762 128.16h-2.833m2.833-6.177h-2.833m2.833-4.383h-2.833m2.833-3.4h-2.833m2.833-2.778h-2.833m2.833-2.349h-2.833m2.833-2.034h-2.833m2.833-1.794h-2.833m2.833-1.606h-2.833m2.833-10.56h-2.833m2.833-6.178h-2.833m2.833-4.383h-2.833m2.833-3.4h-2.833m2.833-2.778h-2.833m2.833-2.348h-2.833m2.833-2.035h-2.833m2.833-1.794h-2.833m2.833-1.605h-2.833m2.833-10.56h-2.833m2.833-6.179h-2.833m2.833-4.382h-2.833m2.833-3.4h-2.833m2.833-2.778h-2.833m2.833-2.349h-2.833m2.833-2.034h-2.833m2.833-1.795h-2.833m2.833-1.605h-2.833m2.833-10.56h-2.833m2.833-6.178h-2.833m2.833-4.383h-2.833m2.833-3.4h-2.833m2.833-2.778h-2.833m2.833-2.348h-2.833m2.833-2.035h-2.833m2.833-1.794h-2.833M282.843 172.453h4.25m-4.25-35.081h4.25m-4.25-35.082h4.25m-4.25-35.081h4.25m149.346 105.244h-4.25m4.25-35.081h-4.25m4.25-35.082h-4.25m4.25-35.081h-4.25"/></g><path fill="none" stroke="#000" stroke-miterlimit="10" stroke-width=".3985" d="M282.843 204.713V51.119H436.44v153.594z"/><use xlink:href="#a" x="-48.01427" y="169.827158" transform="translate(338.334 48.613)scale(1.0004)"/><use xlink:href="#b" x="-42.141471" y="165.418924" transform="matrix(.99999 0 0 .99999 338.334 48.613)"/><use xlink:href="#a" x="-48.01427" y="169.827158" transform="translate(363.933 48.613)scale(1.0004)"/><use xlink:href="#c" x="-42.141471" y="165.418924" transform="matrix(.99999 0 0 .99999 363.933 48.613)"/><use xlink:href="#a" x="-48.01427" y="169.827158" transform="translate(387.415 48.613)scale(1.0004)"/><g transform="matrix(.99999 0 0 .99999 387.415 48.613)"><use xlink:href="#d" x="-42.141471" y="165.418924"/><use xlink:href="#d" x="-37.909399" y="165.418924"/></g><use xlink:href="#a" x="-48.01427" y="169.827158" transform="translate(413.014 48.613)scale(1.0004)"/><g transform="matrix(.99999 0 0 .99999 413.014 48.613)"><use xlink:href="#d" x="-42.141471" y="165.418924"/><use xlink:href="#e" x="-37.909399" y="165.418924"/></g><use xlink:href="#a" x="-48.01427" y="169.827158" transform="translate(438.612 48.613)scale(1.0004)"/><g transform="matrix(.99999 0 0 .99999 438.612 48.613)"><use xlink:href="#d" x="-42.141471" y="165.418924"/><use xlink:href="#f" x="-37.909399" y="165.418924"/></g><use xlink:href="#a" x="-48.01427" y="169.827158" transform="translate(464.211 48.613)scale(1.0004)"/><g transform="matrix(.99999 0 0 .99999 464.211 48.613)"><use xlink:href="#d" x="-42.141471" y="165.418924"/><use xlink:href="#b" x="-37.909399" y="165.418924"/></g><g transform="translate(310.216 7.432)scale(1.0004)"><use xlink:href="#g" x="-48.01427" y="169.827158"/><use xlink:href="#h" x="-42.165831" y="169.827158"/></g><use xlink:href="#e" x="-36.288544" y="165.418924" transform="matrix(.99999 0 0 .99999 310.216 7.432)"/><g transform="translate(310.216 -27.65)scale(1.0004)"><use xlink:href="#g" x="-48.01427" y="169.827158"/><use xlink:href="#h" x="-42.165831" y="169.827158"/></g><use xlink:href="#j" x="-36.288544" y="165.418924" transform="matrix(.99999 0 0 .99999 310.216 -27.65)"/><g transform="translate(310.216 -62.731)scale(1.0004)"><use xlink:href="#g" x="-48.01427" y="169.827158"/><use xlink:href="#h" x="-42.165831" y="169.827158"/></g><use xlink:href="#f" x="-36.288544" y="165.418924" transform="matrix(.99999 0 0 .99999 310.216 -62.731)"/><g transform="translate(310.216 -97.813)scale(1.0004)"><use xlink:href="#g" x="-48.01427" y="169.827158"/><use xlink:href="#h" x="-42.165831" y="169.827158"/></g><use xlink:href="#k" x="-36.288544" y="165.418924" transform="matrix(.99999 0 0 .99999 310.216 -97.813)"/><g clip-path="url(#af)"><path fill="none" stroke="#000" stroke-miterlimit="10" stroke-width=".3985" d="m282.843 191.913 6.4-5.333 6.4-5.335 6.4-5.33 6.399-5.335 6.4-5.332 6.4-5.334 6.399-5.332 6.4-5.336 6.399-5.331 6.4-5.334 6.4-5.333 6.399-5.332 6.4-5.334 6.4-5.332 6.399-5.335 6.4-5.33 6.399-5.335 6.4-5.332 6.4-5.335 6.399-5.332 6.4-5.334 6.4-5.332 6.399-5.332 6.4-5.334"/><g transform="rotate(-39.827 147.599 -344.308)scale(.99968)"><use xlink:href="#m" x="-47.982474" y="169.714697"/><use xlink:href="#n" x="-41.619135" y="169.714697"/><use xlink:href="#ag" x="-31.121294" y="169.714697"/><use xlink:href="#p" x="-26.126178" y="169.714697"/><use xlink:href="#o" x="-23.3589" y="169.714697"/><use xlink:href="#ah" x="-18.3789" y="169.714697"/><use xlink:href="#s" x="-13.3985" y="169.714697"/></g><g transform="scale(.9994)rotate(-39.827 147.688 -344.516)"><use xlink:href="#t" x="-7.418953" y="166.053469"/><use xlink:href="#u" x="-3.449117" y="166.053469"/><use xlink:href="#v" x="-1.084406" y="166.053469"/><use xlink:href="#t" x="2.881524" y="166.053469"/></g><g transform="rotate(-39.827 147.599 -344.308)scale(.99968)"><use xlink:href="#x" x="9.566505" y="169.714697"/><use xlink:href="#y" x="13.440493" y="169.714697"/></g><use xlink:href="#w" x="21.073514" y="166.053469" transform="scale(.9994)rotate(-39.827 147.688 -344.516)"/><g transform="rotate(-39.827 147.599 -344.308)scale(.99968)"><use xlink:href="#n" x="28.314612" y="169.714697"/><use xlink:href="#z" x="38.812452" y="169.714697"/><use xlink:href="#p" x="43.807564" y="169.714697"/><use xlink:href="#q" x="46.574842" y="169.714697"/><use xlink:href="#q" x="51.554846" y="169.714697"/><use xlink:href="#q" x="56.534846" y="169.714697"/><use xlink:href="#B" x="61.514846" y="169.714697"/></g></g><path d="M296.765 180.56a1.12 1.12 0 1 0-2.242 0 1.12 1.12 0 0 0 2.242 0"/><path fill="none" stroke="#000" stroke-miterlimit="10" stroke-width=".3985" d="M296.765 180.56a1.12 1.12 0 1 0-2.242 0 1.12 1.12 0 0 0 2.242 0Z"/><path d="M309.564 170.221a1.12 1.12 0 1 0-2.241 0 1.12 1.12 0 0 0 2.241 0"/><path fill="none" stroke="#000" stroke-miterlimit="10" stroke-width=".3985" d="M309.564 170.221a1.12 1.12 0 1 0-2.241 0 1.12 1.12 0 0 0 2.241 0Z"/><path d="M322.364 159.84a1.12 1.12 0 1 0-2.241 0 1.12 1.12 0 0 0 2.241 0"/><path fill="none" stroke="#000" stroke-miterlimit="10" stroke-width=".3985" d="M322.364 159.84a1.12 1.12 0 1 0-2.241 0 1.12 1.12 0 0 0 2.241 0Z"/><path d="M335.164 149.639a1.12 1.12 0 1 0-2.242 0 1.12 1.12 0 0 0 2.242 0"/><path fill="none" stroke="#000" stroke-miterlimit="10" stroke-width=".3985" d="M335.164 149.639a1.12 1.12 0 1 0-2.242 0 1.12 1.12 0 0 0 2.242 0Z"/><path d="M347.963 139.223a1.12 1.12 0 1 0-2.242 0 1.12 1.12 0 0 0 2.242 0"/><path fill="none" stroke="#000" stroke-miterlimit="10" stroke-width=".3985" d="M347.963 139.223a1.12 1.12 0 1 0-2.242 0 1.12 1.12 0 0 0 2.242 0Z"/><path d="M360.762 128.42a1.12 1.12 0 1 0-2.242 0 1.12 1.12 0 0 0 2.242 0"/><path fill="none" stroke="#000" stroke-miterlimit="10" stroke-width=".3985" d="M360.762 128.42a1.12 1.12 0 1 0-2.242 0 1.12 1.12 0 0 0 2.242 0Z"/><path d="M373.561 117.913a1.12 1.12 0 1 0-2.241 0 1.12 1.12 0 0 0 2.241 0"/><path fill="none" stroke="#000" stroke-miterlimit="10" stroke-width=".3985" d="M373.561 117.913a1.12 1.12 0 1 0-2.241 0 1.12 1.12 0 0 0 2.241 0Z"/><path d="M386.362 107.584a1.12 1.12 0 1 0-2.242 0 1.12 1.12 0 0 0 2.241 0"/><path fill="none" stroke="#000" stroke-miterlimit="10" stroke-width=".3985" d="M386.362 107.584a1.12 1.12 0 1 0-2.242 0 1.12 1.12 0 0 0 2.241 0Z"/><path d="M399.16 97.178a1.12 1.12 0 1 0-2.24 0 1.12 1.12 0 0 0 2.24 0"/><path fill="none" stroke="#000" stroke-miterlimit="10" stroke-width=".3985" d="M399.16 97.178a1.12 1.12 0 1 0-2.24 0 1.12 1.12 0 0 0 2.24 0Z"/><path d="M411.96 86.642a1.12 1.12 0 1 0-2.241 0 1.12 1.12 0 0 0 2.241 0"/><path fill="none" stroke="#000" stroke-miterlimit="10" stroke-width=".3985" d="M411.96 86.642a1.12 1.12 0 1 0-2.241 0 1.12 1.12 0 0 0 2.241 0Z"/><path d="M424.76 71.814a1.12 1.12 0 1 0-2.242 0 1.12 1.12 0 0 0 2.242 0"/><path fill="none" stroke="#000" stroke-miterlimit="10" stroke-width=".3985" d="M424.76 71.814a1.12 1.12 0 1 0-2.242 0 1.12 1.12 0 0 0 2.242 0Z"/><g transform="translate(375.653 64.588)scale(1.0004)"><use xlink:href="#C" x="-48.01427" y="169.827158"/><use xlink:href="#D" x="-37.1249" y="169.827158"/><use xlink:href="#E" x="-31.264502" y="169.827158"/><use xlink:href="#F" x="-24.435341" y="169.827158"/><use xlink:href="#G" x="-19.232741" y="169.827158"/><use xlink:href="#H" x="-14.67598" y="169.827158"/><use xlink:href="#I" x="-8.815579" y="169.827158"/><use xlink:href="#J" x="-4.258819" y="169.827158"/><use xlink:href="#D" x="-1.005699" y="169.827158"/><use xlink:href="#K" x="4.854702" y="169.827158"/><use xlink:href="#L" x="11.360942" y="169.827158"/></g><g transform="rotate(-90 103.972 22.668)scale(1.0004)"><use xlink:href="#F" x="-48.01427" y="169.827158"/><use xlink:href="#M" x="-42.81167" y="169.827158"/><use xlink:href="#H" x="-39.558546" y="169.827158"/><use xlink:href="#E" x="-33.698149" y="169.827158"/><use xlink:href="#L" x="-27.191907" y="169.827158"/><use xlink:href="#F" x="-22.575347" y="169.827158"/><use xlink:href="#N" x="-17.372747" y="169.827158"/><use xlink:href="#I" x="-6.967546" y="169.827158"/><use xlink:href="#J" x="-2.410785" y="169.827158"/><use xlink:href="#O" x=".842335" y="169.827158"/><use xlink:href="#F" x="10.601696" y="169.827158"/><use xlink:href="#P" x="19.702912" y="169.827158"/><use xlink:href="#Q" x="27.831174" y="169.827158"/><use xlink:href="#R" x="31.072335" y="169.827158"/><use xlink:href="#S" x="37.566615" y="169.827158"/><use xlink:href="#T" x="42.183176" y="169.827158"/></g><g transform="translate(345.05 -131.456)scale(1.0004)"><use xlink:href="#U" x="-25.015039" y="155.375358"/><use xlink:href="#V" x="-16.068959" y="155.375358"/><use xlink:href="#K" x="-9.885638" y="155.375358"/><use xlink:href="#H" x="-3.379398" y="155.375358"/><use xlink:href="#O" x="2.481003" y="155.375358"/><use xlink:href="#J" x="12.240364" y="155.375358"/><use xlink:href="#W" x="15.493484" y="155.375358"/><use xlink:href="#X" x="24.583086" y="155.375358"/><use xlink:href="#G" x="33.361726" y="155.375358"/><use xlink:href="#G" x="37.918486" y="155.375358"/><use xlink:href="#H" x="42.475247" y="155.375358"/><use xlink:href="#V" x="48.024684" y="155.375358"/><use xlink:href="#Y" x="-48.01427" y="169.827158"/><use xlink:href="#Z" x="-41.854868" y="169.827158"/><use xlink:href="#Z" x="-35.695466" y="169.827158"/><use xlink:href="#aa" x="-29.536066" y="169.827158"/><use xlink:href="#ab" x="-23.376665" y="169.827158"/><use xlink:href="#ac" x="-17.217264" y="169.827158"/><use xlink:href="#ad" x="-11.057863" y="169.827158"/><use xlink:href="#ae" x="-4.898462" y="169.827158"/><use xlink:href="#H" x="5.160072" y="169.827158"/><use xlink:href="#K" x="11.020472" y="169.827158"/><use xlink:href="#N" x="17.526713" y="169.827158"/><use xlink:href="#ai" x="27.93121" y="169.827158"/><use xlink:href="#aa" x="34.090611" y="169.827158"/><use xlink:href="#aj" x="40.250012" y="169.827158"/><use xlink:href="#ak" x="46.409413" y="169.827158"/><use xlink:href="#al" x="52.568814" y="169.827158"/><use xlink:href="#aa" x="58.728215" y="169.827158"/><use xlink:href="#ad" x="64.887612" y="169.827158"/><use xlink:href="#ae" x="71.047014" y="169.827158"/></g></svg>