<svg xmlns="http://www.w3.org/2000/svg" xmlns:xlink="http://www.w3.org/1999/xlink" width="291.28pt" height="122.34pt" viewBox="0 0 291.28 122.34"><defs><path id="e" d="M5.019-3.491c0-.873-.055-1.746-.437-2.553-.502-1.048-1.396-1.222-1.854-1.222-.655 0-1.452.284-1.899 1.298C.48-5.215.425-4.364.425-3.49c0 .818.044 1.8.491 2.63A2 2 0 0 0 2.716.24c.59 0 1.419-.23 1.899-1.266.35-.752.404-1.603.404-2.465M2.717 0C2.29 0 1.647-.273 1.45-1.32c-.12-.655-.12-1.658-.12-2.302 0-.698 0-1.418.087-2.008.208-1.298 1.026-1.396 1.299-1.396.36 0 1.08.196 1.287 1.276.11.611.11 1.44.11 2.128 0 .818 0 1.56-.12 2.258C3.828-.327 3.207 0 2.716 0"/><path id="i" d="M3.208-6.982c0-.262 0-.284-.251-.284-.677.698-1.637.698-1.986.698v.338c.218 0 .862 0 1.43-.283v5.651c0 .393-.034.524-1.015.524h-.35V0c.382-.033 1.331-.033 1.768-.033s1.385 0 1.767.033v-.338h-.349c-.982 0-1.014-.12-1.014-.524z"/><path id="j" d="m1.386-.84 1.156-1.124C4.244-3.469 4.899-4.059 4.899-5.15c0-1.243-.982-2.116-2.313-2.116a2.016 2.016 0 0 0-2.04 1.975c0 .61.545.61.578.61.185 0 .567-.13.567-.578a.55.55 0 0 0-.578-.567c-.087 0-.11 0-.142.011.25-.71.84-1.113 1.473-1.113.993 0 1.462.884 1.462 1.778 0 .873-.546 1.735-1.146 2.412L.666-.404c-.12.12-.12.142-.12.404h4.047L4.9-1.898h-.273c-.055.327-.131.807-.24.97-.077.088-.797.088-1.037.088z"/><path id="d" d="M7.495-3.568c.164 0 .371 0 .371-.218s-.207-.218-.36-.218H.971c-.153 0-.36 0-.36.218s.207.218.37.218zm.011 2.117c.153 0 .36 0 .36-.218s-.207-.218-.37-.218H.981c-.164 0-.371 0-.371.218s.207.218.36.218z"/><path id="c" d="M5.859-3.186c0-1.298-.917-1.745-1.746-1.745-.49 0-.895.196-1.07.305L3.689-7.2c.01-.054.032-.12.032-.174 0-.207-.196-.197-.349-.186l-1.342.066c-.12.01-.338.01-.338.327 0 .197.196.197.295.197.13 0 .327.01.458.021L1.32-2.422c-.098.393-.098.676-.098.786 0 1.32.916 1.723 1.702 1.723 1.865 0 2.935-1.833 2.935-3.273m-1.67 1.659C3.797-.404 3.153-.305 2.946-.305c-.677 0-.677-.71-.677-.862 0-.371.066-.655.24-1.32.088-.393.164-.666.24-1.004.077-.284.077-.306.186-.426.283-.349.72-.622 1.134-.622.251 0 .622.153.622.775 0 .59-.382 1.931-.502 2.237"/><path id="b" d="M7.724-1.615c0-.152-.142-.152-.305-.152-.262 0-.273.01-.35.283-.087.36-.283 1.179-.654 1.179-.13 0-.207-.088-.207-.339a1.5 1.5 0 0 1 .065-.48l.862-3.425a.6.6 0 0 0 .022-.142c0-.153-.142-.153-.306-.153H3.71c.382-2.138.437-2.422 1.866-2.422.196 0 .796 0 1.19.175-.24.13-.437.392-.437.698 0 .294.218.502.545.502.339 0 .775-.284.775-.84 0-.917-1.397-.928-2.084-.928s-1.45.011-2.04.491c-.666.535-.807 1.31-.982 2.324H1.538c-.185 0-.382 0-.382.316 0 .197.186.197.35.197h.938L1.69-.218c-.11.589-.12.654-.262 1.254-.054.24-.174.775-.502.775 0 0-.152 0-.283-.076a.79.79 0 0 0 .469-.71C1.113.732.895.525.567.525c-.392 0-.774.338-.774.818 0 .535.523.862 1.113.862.61 0 1.276-.535 1.625-1.43.207-.534.338-1.09.447-1.658l.633-3.447h2.302L5.15-1.287c-.044.174-.044.25-.044.316 0 .698.654 1.058 1.265 1.058.513 0 .786-.37.928-.589.283-.458.425-1.069.425-1.113"/><path id="g" d="M2.332.048c0-.742-.251-1.208-.717-1.208a.56.56 0 0 0-.574.574c0 .323.227.586.586.586a.6.6 0 0 0 .382-.144c.036-.035.06-.035.06-.035s.024.167.024.227c0 .765-.311 1.483-.837 2.033-.048.036-.06.06-.06.108 0 .06.06.12.12.12.107 0 1.016-.886 1.016-2.261"/><path id="f" d="M4.904 0v-.347h-.371C3.48-.347 3.444-.49 3.444-.92v-6.745c0-.275 0-.287-.239-.287-.287.323-.885.765-2.117.765v.347c.275 0 .873 0 1.531-.311v6.231c0 .43-.036.574-1.088.574h-.37V0c.322-.024 1.482-.024 1.877-.024s1.543 0 1.866.024"/><path id="a" d="M5.358-2.045c0-1.1-.885-1.962-2.033-2.165 1.04-.299 1.71-1.172 1.71-2.105 0-.945-.98-1.638-2.14-1.638-1.197 0-2.082.73-2.082 1.602 0 .479.371.574.55.574.252 0 .539-.18.539-.538 0-.383-.287-.55-.55-.55-.072 0-.096 0-.132.012.454-.813 1.579-.813 1.638-.813.395 0 1.173.179 1.173 1.351 0 .227-.036.897-.383 1.411-.359.527-.766.563-1.089.574l-.358.036c-.204.012-.252.024-.252.132 0 .12.06.12.276.12h.55c1.016 0 1.47.837 1.47 1.985 0 1.567-.812 1.985-1.399 1.985-.574 0-1.554-.275-1.901-1.064.383.06.73-.156.73-.586a.565.565 0 0 0-.587-.586c-.287 0-.598.167-.598.622C.49-.622 1.555.25 2.882.25c1.424 0 2.476-1.088 2.476-2.296"/><path id="h" d="M5.262-2.01H5c-.036.204-.131.862-.25 1.053-.085.108-.766.108-1.125.108H1.41c.323-.275 1.053-1.04 1.364-1.328 1.818-1.674 2.487-2.296 2.487-3.48 0-1.375-1.088-2.296-2.475-2.296S.586-6.77.586-5.741c0 .61.526.61.562.61.251 0 .562-.18.562-.562 0-.335-.227-.562-.562-.562-.107 0-.131 0-.167.012.227-.813.873-1.364 1.65-1.364 1.017 0 1.639.85 1.639 1.95 0 1.017-.586 1.902-1.268 2.667L.586-.287V0h4.365z"/></defs><path fill="none" stroke="#000" stroke-miterlimit="10" stroke-width=".3985" d="M53.728 37.456c-7.828 0-14.173 6.345-14.173 10.463"/><path d="m39.555 51.061 1.704-4.527-1.704 1.485-1.705-1.485Z"/><path fill="none" stroke="#000" stroke-miterlimit="10" stroke-width=".3985" d="m39.555 51.061 1.704-4.527-1.704 1.485-1.705-1.485Z"/><use xlink:href="#a" x="-52.876221" y="-37.957234" transform="translate(110.767 79.247)scale(1.0004)"/><path fill="none" stroke="#000" stroke-miterlimit="10" stroke-width=".3985" d="M19.145 51.062V68.07h25.512V51.062M19.145 68.07v17.008h25.512V68.07"/><use xlink:href="#a" x="-52.876221" y="-37.957234" transform="translate(81.827 118.366)scale(1.0004)"/><g transform="translate(68.178 142.756)scale(1.00008)"><use xlink:href="#b" x="-52.859361" y="-37.94513"/><use xlink:href="#c" x="-45.506021" y="-37.94513"/><use xlink:href="#d" x="-36.671025" y="-37.94513"/><use xlink:href="#e" x="-25.171885" y="-37.94513"/></g><path fill="none" stroke="#000" stroke-miterlimit="10" stroke-width=".3985" d="M129.556 20.447c-7.828 0-14.174 6.346-14.174 10.464"/><path d="m115.383 34.053 1.704-4.527-1.704 1.485-1.705-1.485Z"/><path fill="none" stroke="#000" stroke-miterlimit="10" stroke-width=".3985" d="m115.383 34.053 1.704-4.527-1.704 1.485-1.705-1.485Z"/><g transform="translate(186.595 61.211)scale(1.0004)"><use xlink:href="#f" x="-52.876221" y="-37.957234"/><use xlink:href="#g" x="-47.015822" y="-37.957234"/><use xlink:href="#h" x="-39.863739" y="-37.957234"/></g><path fill="none" stroke="#000" stroke-miterlimit="10" stroke-width=".3985" d="M104.044 34.62c0-7.827-6.346-14.173-10.464-14.173"/><path d="m90.438 20.447 4.527 1.705-1.485-1.705 1.485-1.704Z"/><path fill="none" stroke="#000" stroke-miterlimit="10" stroke-width=".3985" d="m90.438 20.447 4.527 1.705-1.485-1.705 1.485-1.704Z"/><use xlink:href="#a" x="-52.876221" y="-37.957234" transform="translate(132.683 62.239)scale(1.0004)"/><path fill="none" stroke="#000" stroke-miterlimit="10" stroke-width=".3985" d="M94.973 34.054v17.008h25.512V34.054M94.973 51.062V68.07h25.512V51.062"/><use xlink:href="#h" x="-52.876221" y="-37.957234" transform="translate(157.655 101.483)scale(1.0004)"/><path fill="none" stroke="#000" stroke-miterlimit="10" stroke-width=".3985" d="M94.973 68.07v17.008h25.512V68.07"/><use xlink:href="#f" x="-52.876221" y="-37.957234" transform="translate(157.655 118.491)scale(1.0004)"/><g transform="translate(144.005 142.756)scale(1.00008)"><use xlink:href="#b" x="-52.859361" y="-37.94513"/><use xlink:href="#c" x="-45.506021" y="-37.94513"/><use xlink:href="#d" x="-36.671025" y="-37.94513"/><use xlink:href="#e" x="-25.171885" y="-37.94513"/></g><path fill="none" stroke="#000" stroke-miterlimit="10" stroke-width=".3985" d="M179.872 51.629c0-7.828-6.346-14.173-10.464-14.173"/><path d="m166.266 37.456 4.527 1.704-1.485-1.704 1.485-1.705Z"/><path fill="none" stroke="#000" stroke-miterlimit="10" stroke-width=".3985" d="m166.266 37.456 4.527 1.704-1.485-1.704 1.485-1.705Z"/><use xlink:href="#h" x="-52.876221" y="-37.957234" transform="translate(208.511 79.373)scale(1.0004)"/><path fill="none" stroke="#000" stroke-miterlimit="10" stroke-width=".3985" d="M170.8 51.062V68.07h25.513V51.062M170.8 68.07v17.008h25.513V68.07"/><use xlink:href="#f" x="-52.876221" y="-37.957234" transform="translate(233.482 118.491)scale(1.0004)"/><g transform="translate(219.833 142.756)scale(1.00008)"><use xlink:href="#b" x="-52.859361" y="-37.94513"/><use xlink:href="#c" x="-45.506021" y="-37.94513"/><use xlink:href="#d" x="-36.671025" y="-37.94513"/><use xlink:href="#i" x="-25.171885" y="-37.94513"/></g><path fill="none" stroke="#000" stroke-miterlimit="10" stroke-width=".3985" d="M255.7 68.637c0-7.828-6.346-14.173-10.465-14.173"/><path d="m242.093 54.464 4.528 1.704-1.485-1.704 1.485-1.705Z"/><path fill="none" stroke="#000" stroke-miterlimit="10" stroke-width=".3985" d="m242.093 54.464 4.528 1.704-1.485-1.704 1.485-1.705Z"/><use xlink:href="#f" x="-52.876221" y="-37.957234" transform="translate(284.339 96.381)scale(1.0004)"/><path fill="none" stroke="#000" stroke-miterlimit="10" stroke-width=".3985" d="M246.628 68.07v17.008h25.512V68.07"/><g transform="translate(295.661 142.756)scale(1.00008)"><use xlink:href="#b" x="-52.859361" y="-37.94513"/><use xlink:href="#c" x="-45.506021" y="-37.94513"/><use xlink:href="#d" x="-36.671025" y="-37.94513"/><use xlink:href="#j" x="-25.171885" y="-37.94513"/></g></svg>