<svg xmlns="http://www.w3.org/2000/svg" xmlns:xlink="http://www.w3.org/1999/xlink" width="295.2pt" height="105.86pt" viewBox="0 0 295.2 105.86"><defs><path id="b" d="M6.71-1.615c0-.152-.142-.152-.306-.152-.262 0-.273.01-.349.283-.087.36-.284 1.179-.655 1.179-.13 0-.207-.088-.207-.339 0-.207.022-.294.066-.469l.73-2.946c.044-.163.044-.185.044-.229 0-.25-.185-.458-.49-.458a.74.74 0 0 0-.513.23c-.35-.36-.775-.415-1.059-.415-1.833 0-2.924 1.81-2.924 3.273 0 1.298.917 1.745 1.746 1.745.665 0 1.178-.349 1.44-.556.207.382.698.556 1.124.556.513 0 .785-.37.927-.589.284-.458.426-1.069.426-1.113m-2.608.524c-.469.622-.927.786-1.265.786-.251 0-.622-.153-.622-.775 0-.59.382-1.931.502-2.237.37-1.058.97-1.222 1.254-1.222.382 0 .688.24.808.677l-.644 2.575c-.022.076-.022.109-.033.196"/><path id="a" d="M6.819-1.615c0-.152-.142-.152-.306-.152-.262 0-.272.01-.349.283-.087.36-.284 1.179-.654 1.179-.131 0-.208-.088-.208-.339 0-.207.022-.294.066-.469L6.895-7.2c.011-.054.033-.12.033-.174 0-.207-.197-.197-.35-.186l-1.341.066c-.12.01-.338.01-.338.327 0 .197.196.197.294.197.131 0 .327.01.458.021l-.578 2.368a1.47 1.47 0 0 0-.993-.35c-1.833 0-2.924 1.812-2.924 3.274 0 1.298.917 1.745 1.746 1.745.666 0 1.178-.349 1.44-.556.207.382.698.556 1.124.556.513 0 .785-.37.927-.589.284-.458.426-1.069.426-1.113M4.21-1.09c-.469.622-.927.786-1.265.786-.251 0-.622-.153-.622-.775 0-.59.382-1.931.502-2.237.37-1.058.97-1.222 1.254-1.222.382 0 .688.24.808.677l-.644 2.575c-.022.076-.022.109-.033.196"/><path id="e" d="M5.848-.938c0-.088-.218-.35-.328-.35-.032 0-.076 0-.152.077-.808.906-1.91.906-2.062.906-.611 0-.928-.36-.928-1.004 0-.273.077-.698.175-1.07h.436c.655 0 2.815 0 2.815-1.505 0-.655-.61-1.047-1.418-1.047-1.888 0-3.186 1.429-3.186 3.109 0 1.178.731 1.91 2.095 1.91.338 0 .982-.033 1.538-.24.59-.23 1.015-.655 1.015-.786m-.753-2.957c0 1.124-1.778 1.124-2.444 1.124.153-.546.262-.873.578-1.222.306-.371.786-.546 1.157-.546.458 0 .709.295.709.644"/><path id="d" d="M6.819-1.615c0-.152-.142-.152-.306-.152-.207 0-.262 0-.305.141-.087.284-.382 1.32-1.004 1.32-.054 0-.153 0-.153-.196 0-.229.11-.513.251-.884.153-.403.644-1.69.644-2.312 0-.906-.644-1.233-1.506-1.233-.556 0-.992.174-1.462.556l.71-2.826c.01-.054.032-.12.032-.174 0-.207-.196-.197-.349-.186l-1.342.066c-.12.01-.338.01-.338.327 0 .197.196.197.295.197.13 0 .327.01.458.021L.873-.622c-.044.164-.044.186-.044.24 0 .273.207.47.502.47.13 0 .546-.055.676-.579l.677-2.717c.076-.305.687-1.33 1.68-1.33.47 0 .47.414.47.621 0 .655-.503 1.997-.7 2.488-.097.273-.13.382-.13.545 0 .611.556.971 1.146.971 1.134 0 1.669-1.473 1.669-1.702"/><path id="f" d="M7.462-1.615c0-.152-.141-.152-.305-.152-.207 0-.262 0-.306.141-.087.284-.381 1.32-1.003 1.32-.055 0-.153 0-.153-.196 0-.229.11-.513.25-.884.154-.403.645-1.69.645-2.312 0-.906-.644-1.233-1.506-1.233-.229 0-.95 0-1.67.752-.217-.621-.872-.752-1.221-.752-.513 0-.786.37-.927.589A3.7 3.7 0 0 0 .84-3.23c0 .152.142.152.306.152.261 0 .272-.01.349-.283.087-.36.283-1.179.654-1.179.131 0 .208.088.208.339 0 .207-.022.294-.066.469l-.775 3.11c-.043.163-.043.185-.043.24 0 .337.262.468.49.468.077 0 .546-.022.688-.589l.677-2.706c.076-.316.687-1.33 1.68-1.33.469 0 .469.414.469.621 0 .655-.502 1.997-.698 2.488-.099.273-.131.382-.131.545 0 .611.556.971 1.145.971 1.135 0 1.67-1.473 1.67-1.702"/><path id="g" d="M6.491-3.098c0-1.124-.774-1.833-2.072-1.833-2.16 0-3.252 1.822-3.252 3.185 0 1.124.775 1.833 2.073 1.833 2.15 0 3.251-1.81 3.251-3.185M4.746-1.353c-.317.687-.928 1.048-1.484 1.048-.382 0-.905-.186-.905-.96 0-.426.283-1.648.556-2.226.316-.688.927-1.048 1.484-1.048.382 0 .905.186.905.96 0 .426-.283 1.648-.556 2.226"/><path id="c" d="M4.571-1.615c0-.152-.142-.152-.305-.152-.24 0-.251.01-.338.185C3.469-.502 2.935-.305 2.65-.305c-.098 0-.229-.011-.229-.339 0-.207.022-.294.065-.469l.808-3.218h.873c.185 0 .37 0 .37-.317 0-.196-.185-.196-.338-.196h-.774l.207-.862c.076-.284.196-.764.196-.85 0-.252-.185-.46-.49-.46-.142 0-.557.066-.688.58l-.393 1.592h-.883c-.197 0-.382 0-.382.316 0 .197.185.197.349.197h.785l-.763 3.044c-.044.174-.044.25-.044.316 0 .687.622 1.058 1.277 1.058C3.85.087 4.57-1.429 4.57-1.615"/></defs><g fill="none" stroke="#000" stroke-miterlimit="10" stroke-width=".3985"><path d="M11.538 53.172H85.24V30.495H11.538ZM59.444 53.172V30.495M110.752 53.172h73.702V30.495h-73.702ZM158.658 53.172V30.495M209.966 53.172h73.701V30.495h-73.701ZM257.871 53.172V30.495M73.759 41.833h31.198"/></g><path d="m108.058 41.833-4.467-1.682 1.465 1.682-1.465 1.682Z"/><path fill="none" stroke="#000" stroke-miterlimit="10" stroke-width=".3985" d="m108.058 41.833-4.467-1.682 1.465 1.682-1.465 1.682ZM172.973 41.833h31.198"/><path d="m207.272 41.833-4.468-1.682 1.466 1.682-1.466 1.682Z"/><path fill="none" stroke="#000" stroke-miterlimit="10" stroke-width=".3985" d="m207.272 41.833-4.468-1.682 1.466 1.682-1.466 1.682Z"/><g transform="translate(84.051 64.408)scale(1.00008)"><use xlink:href="#a" x="-60.466988" y="-18.828553"/><use xlink:href="#b" x="-54.019182" y="-18.828553"/><use xlink:href="#c" x="-47.571373" y="-18.828553"/><use xlink:href="#b" x="-43.371022" y="-18.828553"/></g><path fill="none" stroke="#000" stroke-miterlimit="10" stroke-width=".3985" d="M48.389 77.267v-12.63"/><path d="m48.389 61.535-1.682 4.468 1.682-1.466 1.682 1.466Z"/><path fill="none" stroke="#000" stroke-miterlimit="10" stroke-width=".3985" d="m48.389 61.535-1.682 4.468 1.682-1.466 1.682 1.466Z"/><g transform="translate(96.36 109.277)scale(1.00008)"><use xlink:href="#d" x="-60.466988" y="-18.828553"/><use xlink:href="#e" x="-54.019182" y="-18.828553"/><use xlink:href="#b" x="-48.858751" y="-18.828553"/><use xlink:href="#a" x="-42.410944" y="-18.828553"/></g><path fill="none" stroke="#9f9f9f" stroke-miterlimit="10" stroke-width=".3985" d="M147.603 77.267v-12.63"/><path fill="#9f9f9f" d="m147.603 61.535-1.682 4.468 1.682-1.466 1.682 1.466Z"/><path fill="none" stroke="#9f9f9f" stroke-miterlimit="10" stroke-width=".3985" d="m147.603 61.535-1.682 4.468 1.682-1.466 1.682 1.466Z"/><g fill="#9f9f9f" transform="translate(195.574 109.277)scale(1.00008)"><use xlink:href="#d" x="-60.466988" y="-18.828553"/><use xlink:href="#e" x="-54.019182" y="-18.828553"/><use xlink:href="#b" x="-48.858751" y="-18.828553"/><use xlink:href="#a" x="-42.410944" y="-18.828553"/></g><g transform="translate(96.256 41.73)scale(1.00008)"><use xlink:href="#f" x="-60.466988" y="-18.828553"/><use xlink:href="#g" x="-53.375491" y="-18.828553"/><use xlink:href="#a" x="-47.571373" y="-18.828553"/><use xlink:href="#e" x="-41.123562" y="-18.828553"/></g></svg>