<svg xmlns="http://www.w3.org/2000/svg" xmlns:xlink="http://www.w3.org/1999/xlink" width="332.485" height="68.788"><defs><path id="a" d="M2.484-4.984c-.609-.157-1.14-.75-1.14-1.516a1.59 1.59 0 0 1 1.593-1.594c1.97 0 2.22 1.938 2.297 2.453.032.141.032.188.141.188.14 0 .14-.063.14-.266V-8.14c0-.218 0-.28-.124-.28-.032 0-.079 0-.172.155l-.39.735c-.579-.735-1.36-.89-1.891-.89A2.29 2.29 0 0 0 .64-6.126c0 .563.203 1.094.656 1.578.406.453.828.563 1.672.781.422.094 1.078.266 1.25.329.562.28.937.921.937 1.593 0 .907-.64 1.75-1.625 1.75-.547 0-1.281-.14-1.875-.64C.97-1.36.922-2.22.906-2.625c-.015-.094-.11-.094-.125-.094-.14 0-.14.063-.14.281V-.03C.64.187.64.25.766.25.844.25.844.234.937.078c.047-.094.297-.531.391-.719.422.485 1.188.891 2.203.891 1.344 0 2.313-1.14 2.313-2.453 0-.719-.282-1.266-.594-1.656-.438-.547-.984-.672-1.453-.797Zm0 0"/><path id="b" d="M2.078-7.36a.59.59 0 0 0-.578-.593.577.577 0 0 0-.578.578c0 .36.281.578.578.578.36 0 .578-.297.578-.562ZM.438-5.14v.343c.75 0 .859.078.859.656v3.25c0 .547-.125.547-.906.547V0c.343-.031.906-.031 1.265-.031.125 0 .813 0 1.219.031v-.344c-.766 0-.813-.062-.813-.531v-4.39Zm0 0"/><path id="c" d="M1.422-2.156c.562.36 1.047.36 1.172.36 1.078 0 1.875-.813 1.875-1.735 0-.313-.094-.766-.469-1.156.453-.47 1.016-.47 1.078-.47.047 0 .11 0 .156.016-.125.047-.171.172-.171.297 0 .172.109.313.296.313.11 0 .313-.063.313-.328a.556.556 0 0 0-.578-.547c-.625 0-1.094.39-1.25.562a2.067 2.067 0 0 0-1.235-.422c-1.078 0-1.875.813-1.875 1.735 0 .672.407 1.11.532 1.219-.141.187-.36.53-.36 1 0 .687.422.984.516 1.046C.875-.109.328.328.328.938c0 .828 1.125 1.515 2.594 1.515 1.422 0 2.594-.64 2.594-1.531 0-.297-.079-1-.797-1.375-.61-.313-1.203-.313-2.235-.313-.734 0-.812 0-1.03-.218a.982.982 0 0 1-.22-.61c0-.203.063-.406.188-.562Zm1.187.11c-1.062 0-1.062-1.204-1.062-1.485 0-.203 0-.703.203-1.016.234-.36.594-.469.844-.469 1.047 0 1.047 1.204 1.047 1.485 0 .203 0 .703-.204 1.015a.97.97 0 0 1-.828.47Zm.313 4.25C1.782 2.203.906 1.608.906.936c0-.093.031-.562.485-.875.265-.171.359-.171 1.203-.171.984 0 2.344 0 2.344 1.046 0 .704-.907 1.266-2.016 1.266Zm0 0"/><path id="d" d="M5.313-2.906c0-1.11 0-1.438-.266-1.828-.344-.47-.906-.532-1.313-.532-1.171 0-1.625.985-1.718 1.22v-1.22L.375-5.14v.344c.813 0 .922.094.922.672v3.234c0 .547-.14.547-.922.547V0c.313-.031.969-.031 1.297-.031.344 0 1 0 1.297.031v-.344c-.75 0-.906 0-.906-.547v-2.218c0-1.25.828-1.922 1.578-1.922.734 0 .906.61.906 1.343V-.89c0 .547-.14.547-.906.547V0c.296-.031.953-.031 1.28-.031.345 0 1 0 1.313.031v-.344c-.609 0-.906 0-.921-.36Zm0 0"/><path id="f" d="M7.625-3.063h-.266c-.28 1.876-.562 2.72-2.593 2.72H3.14c-.516 0-.547-.094-.547-.485v-3.219h1.094c1.14 0 1.265.36 1.265 1.39h.266v-3.14h-.266c0 1.031-.125 1.39-1.266 1.39H2.595v-2.905c0-.391.031-.485.547-.485h1.593c1.75 0 2.125.594 2.313 2.328h.25L7-8.14H.484v.344h.25c.86 0 .891.125.891.563v6.328c0 .437-.031.562-.89.562h-.25V0H7.14Zm0 0"/><path id="g" d="M3.344-2.828c.344-.453.86-1.094 1.078-1.344a1.841 1.841 0 0 1 1.437-.64v-.344c-.515.031-.546.031-1 .031-.453 0-.484 0-1.078-.031v.343c.156.032.344.11.344.375 0 .204-.11.344-.188.438l-.765.969-.922-1.235c-.031-.046-.11-.156-.11-.234 0-.078.063-.297.422-.313v-.343c-.296.031-.906.031-1.234.031-.39 0-.422 0-1.156-.031v.343c.61 0 .844.032 1.094.36l1.406 1.828a.314.314 0 0 1 .062.125c0 .031-.921 1.203-1.046 1.36C1.155-.485.64-.36.125-.345V0c.453-.031.469-.031.984-.031.454 0 .485 0 1.079.031v-.344c-.282-.031-.329-.219-.329-.39 0-.188.079-.282.204-.438.171-.25.562-.734.859-1.11L3.89-1c.203.266.203.281.203.36 0 .093-.094.28-.407.296V0c.313-.031.891-.031 1.22-.031.405 0 .421 0 1.14.031v-.344c-.625 0-.844-.031-1.14-.406Zm0 0"/><path id="h" d="M2.922 1.969c-.766 0-.906 0-.906-.532V-.64c.218.297.703.766 1.468.766 1.375 0 2.594-1.172 2.594-2.703 0-1.516-1.125-2.688-2.437-2.688-1.047 0-1.61.75-1.641.797v-.797L.328-5.14v.344c.844 0 .922.094.922.61v5.625c0 .53-.14.53-.922.53v.345c.313-.016.969-.016 1.297-.016.344 0 1 0 1.297.015Zm-.906-5.782c0-.234 0-.234.14-.437.36-.531.938-.766 1.39-.766.907 0 1.61 1.094 1.61 2.438 0 1.422-.812 2.453-1.718 2.453a1.49 1.49 0 0 1-.97-.375c-.265-.281-.452-.516-.452-.844Zm0 0"/><path id="i" d="M5.484-2.563c0-1.53-1.171-2.765-2.562-2.765C1.5-5.328.359-4.062.359-2.562.36-1.032 1.547.124 2.922.124c1.406 0 2.562-1.172 2.562-2.688ZM2.922-.14c-.438 0-.969-.187-1.313-.78-.328-.532-.343-1.235-.343-1.75 0-.454 0-1.173.375-1.72.328-.515.859-.703 1.28-.703.454 0 .97.219 1.282.688.375.547.375 1.297.375 1.734 0 .422 0 1.172-.312 1.735-.329.562-.891.796-1.344.796Zm0 0"/><path id="j" d="M4.578-2.766c.266 0 .281 0 .281-.234 0-1.203-.64-2.328-2.093-2.328-1.36 0-2.407 1.234-2.407 2.703 0 1.578 1.22 2.75 2.547 2.75 1.422 0 1.953-1.297 1.953-1.547 0-.078-.046-.125-.125-.125-.093 0-.125.063-.14.125-.313 1-1.11 1.281-1.625 1.281-.5 0-1.703-.343-1.703-2.406v-.219ZM1.281-3c.094-1.875 1.14-2.094 1.485-2.094 1.28 0 1.343 1.688 1.359 2.094Zm0 0"/><path id="k" d="M2.016-4.813h1.671v-.343H2.016v-2.188H1.75c-.016 1.11-.453 2.266-1.531 2.297v.234h1.015v3.329C1.234-.156 2.11.125 2.75.125c.75 0 1.14-.75 1.14-1.61v-.671h-.25v.656c0 .86-.359 1.36-.812 1.36-.812 0-.812-1.11-.812-1.313Zm0 0"/><path id="m" d="M6.828-8.14H.484v.343h.25c.86 0 .891.125.891.563v6.328c0 .437-.031.562-.89.562h-.25V0C.78-.031 1.843-.031 2.202-.031c.422 0 1.469 0 1.813.031v-.344h-.36c-1.031 0-1.062-.14-1.062-.578V-3.89H3.64c1.125 0 1.25.391 1.25 1.391h.265v-3.14h-.265c0 1-.125 1.39-1.25 1.39H2.594v-3.063c0-.39.031-.484.547-.484h1.5c1.718 0 2.062.64 2.234 2.328h.266Zm0 0"/><path id="n" d="M2-2.781c0-1.156.469-2.25 1.39-2.25.094 0 .126 0 .172.015-.093.047-.28.11-.28.438 0 .344.265.484.452.484.25 0 .485-.156.485-.484 0-.36-.328-.688-.844-.688-1.016 0-1.36 1.094-1.422 1.329h-.016v-1.329L.329-5.14v.344c.813 0 .922.094.922.672v3.234c0 .547-.14.547-.922.547V0c.344-.031 1-.031 1.36-.031.328 0 1.171 0 1.437.031v-.344h-.234C2.016-.344 2-.484 2-.906Zm0 0"/><path id="o" d="M4.61-3.188c0-.656 0-1.124-.516-1.593a2.242 2.242 0 0 0-1.485-.547c-.984 0-1.734.64-1.734 1.422 0 .344.219.515.5.515s.484-.203.484-.5c0-.484-.421-.484-.609-.484.281-.5.86-.719 1.328-.719.547 0 1.266.453 1.266 1.532v.484C1.438-3.047.53-2.047.53-1.125c0 .953 1.094 1.25 1.828 1.25.782 0 1.329-.484 1.547-1.063.047.563.422 1 .938 1 .25 0 .937-.171.937-1.125v-.671h-.265v.671c0 .688-.282.782-.454.782-.453 0-.453-.64-.453-.813Zm-.766 1.5c0 1.172-.875 1.563-1.39 1.563-.595 0-1.079-.422-1.079-1 0-1.578 2.031-1.719 2.469-1.75Zm0 0"/><path id="p" d="M4.328-4.422c-.14 0-.594 0-.594.484 0 .297.204.5.5.5.266 0 .5-.171.5-.515 0-.797-.843-1.375-1.812-1.375-1.39 0-2.5 1.234-2.5 2.75 0 1.531 1.14 2.703 2.5 2.703 1.578 0 1.937-1.438 1.937-1.547 0-.11-.093-.11-.125-.11-.109 0-.125.032-.156.188C4.312-.5 3.672-.14 3.031-.14c-.734 0-1.703-.64-1.703-2.453 0-1.984 1.016-2.469 1.61-2.469.453 0 1.109.172 1.39.641Zm0 0"/><path id="e" d="M7.594-8.313c0-.109-.094-.109-.11-.109-.046 0-.062.016-.203.203-.078.078-.562.703-.578.719-.39-.781-1.187-.922-1.687-.922-1.516 0-2.891 1.39-2.891 2.75 0 .89.547 1.422 1.125 1.625.125.047.844.234 1.203.313.61.171.766.218 1.016.484.047.063.281.328.281.89 0 1.11-1.031 2.266-2.219 2.266-.984 0-2.078-.422-2.078-1.765 0-.22.047-.5.094-.625v-.125c0-.047-.016-.11-.11-.11-.109 0-.125.031-.171.235L.656-.031S.61.125.61.14C.61.25.703.25.734.25.781.25.781.234.938.062l.546-.718c.282.422.907.906 2.016.906 1.547 0 2.953-1.5 2.953-2.984 0-.5-.125-.954-.578-1.391-.25-.25-.453-.313-1.563-.594-.796-.218-.906-.25-1.125-.437-.203-.203-.359-.5-.359-.907 0-1 1.016-2.03 2.156-2.03 1.172 0 1.72.718 1.72 1.859 0 .312-.063.625-.063.671 0 .11.093.11.14.11.11 0 .11-.031.157-.219Zm0 0"/><path id="l" d="M8.313-2.766c0-.046.046-.125.046-.171a.123.123 0 0 0-.125-.126.142.142 0 0 0-.109.047c-.016.016-.016.047-.125.282-.703 1.671-1.219 2.39-3.14 2.39H3.124c-.172 0-.203 0-.266-.015-.14-.016-.14-.032-.14-.125 0-.094.015-.157.047-.266l.812-3.297h1.188c.937 0 1 .203 1 .563 0 .109 0 .218-.079.578-.015.047-.03.094-.03.14 0 .079.062.11.124.11.11 0 .125-.078.172-.25l.688-2.766a.123.123 0 0 0-.125-.125c-.11 0-.125.047-.172.219-.235.922-.469 1.172-1.532 1.172h-1.14l.734-2.938c.11-.406.14-.453.625-.453h1.703c1.485 0 1.782.39 1.782 1.313 0 0 0 .343-.047.734a.793.793 0 0 0-.031.14c0 .094.062.141.14.141.078 0 .125-.047.14-.265l.266-2.094c0-.031.016-.156.016-.188 0-.125-.11-.125-.328-.125H2.844c-.219 0-.344 0-.344.22 0 .124.078.124.281.124.75 0 .75.094.75.219 0 .062-.015.11-.047.234L1.86-.89c-.109.422-.125.547-.968.547-.22 0-.344 0-.344.219C.547 0 .625 0 .859 0h6c.266 0 .282-.016.36-.203Zm0 0"/><path id="q" d="M3.547-3.89h1.156c.906 0 .969.203.969.546 0 .156-.016.313-.078.578-.032.047-.032.11-.032.141 0 .078.047.125.125.125.094 0 .11-.047.157-.234l.687-2.782c0-.046-.031-.125-.11-.125-.109 0-.124.047-.171.25C6-4.5 5.766-4.25 4.719-4.25H3.64l.765-3.094c.11-.406.14-.453.625-.453h1.61c1.484 0 1.703.453 1.703 1.297 0 .063 0 .328-.031.64a1.407 1.407 0 0 0-.047.25c0 .094.062.141.14.141.078 0 .125-.047.156-.265l.25-2.094c0-.031.016-.156.016-.188 0-.125-.11-.125-.312-.125H2.844c-.219 0-.344 0-.344.22 0 .124.078.124.281.124.75 0 .75.094.75.219 0 .062-.015.11-.047.234L1.86-.89c-.109.422-.125.547-.968.547-.22 0-.344 0-.344.219C.547 0 .657 0 .734 0c.22 0 .454-.031.688-.031h1.547c.265 0 .562.031.828.031.094 0 .25 0 .25-.219 0-.125-.078-.125-.344-.125-.937 0-.969-.094-.969-.265 0-.063.032-.157.047-.235Zm0 0"/><path id="r" d="M3.61 2.625c0-.047 0-.063-.188-.25C2.062 1 1.719-1.063 1.719-2.719c0-1.906.406-3.797 1.75-5.172.14-.125.14-.14.14-.187 0-.063-.046-.094-.109-.094-.11 0-1.094.735-1.734 2.125-.563 1.188-.688 2.406-.688 3.328 0 .844.125 2.156.719 3.39C2.453 2.017 3.39 2.72 3.5 2.72c.063 0 .11-.031.11-.094Zm0 0"/><path id="s" d="M3.203-6.984c0-.25 0-.282-.25-.282-.672.704-1.64.704-1.984.704v.328c.219 0 .86 0 1.437-.282v5.657c0 .39-.047.515-1.015.515h-.36V0c.39-.031 1.328-.031 1.766-.031.437 0 1.39 0 1.765.031v-.344H4.22c-.985 0-1.016-.11-1.016-.515Zm0 0"/><path id="t" d="M1.875-4.11v-3.452l-1.563.109v.344c.75 0 .844.078.844.609V0h.266c.016-.016.11-.156.406-.672.156.25.61.797 1.422.797 1.297 0 2.438-1.078 2.438-2.484 0-1.375-1.079-2.47-2.313-2.47-.86 0-1.328.516-1.5.72Zm.031 2.86v-2.234c0-.22 0-.22.125-.391a1.528 1.528 0 0 1 1.281-.703c.5 0 .891.281 1.141.703.297.438.328 1.063.328 1.516 0 .39-.031 1.046-.343 1.546-.235.329-.641.688-1.235.688-.484 0-.875-.25-1.14-.656-.157-.235-.157-.266-.157-.469Zm0 0"/><path id="u" d="m1.938-4.828-1.532.125v.344c.703 0 .797.062.797.593v2.938c0 .484-.11.484-.844.484V0c.344-.016.938-.031 1.204-.031.375 0 .765.015 1.125.031v-.344c-.72 0-.75-.047-.75-.469Zm.03-1.89a.567.567 0 0 0-.577-.579c-.329 0-.579.297-.579.578 0 .297.25.578.579.578a.567.567 0 0 0 .578-.578Zm0 0"/><path id="v" d="M1.89-4.36h1.563v-.343H1.891v-2h-.282c0 .89-.328 2.062-1.406 2.094v.25h.938v3C1.14-.016 2.156.125 2.547.125c.765 0 1.078-.781 1.078-1.484v-.61h-.281v.594c0 .813-.328 1.219-.719 1.219-.734 0-.734-.985-.734-1.172Zm0 0"/><path id="w" d="M3.156-2.719c0-.86-.125-2.172-.719-3.406C1.781-7.469.845-8.172.734-8.172c-.062 0-.109.031-.109.094 0 .047 0 .062.203.265C1.891-6.734 2.516-5 2.516-2.718c0 1.86-.407 3.781-1.75 5.156-.141.126-.141.141-.141.188 0 .063.047.094.11.094.109 0 1.093-.735 1.734-2.125.547-1.188.687-2.406.687-3.313Zm0 0"/><path id="x" d="M1.781-4.984c-.5-.329-.547-.704-.547-.891 0-.656.704-1.11 1.485-1.11.797 0 1.484.563 1.484 1.344 0 .625-.422 1.141-1.078 1.532Zm1.594 1.03c.781-.405 1.313-.968 1.313-1.687 0-1-.97-1.625-1.97-1.625-1.077 0-1.968.813-1.968 1.829 0 .187.031.687.484 1.187.125.14.516.406.797.594-.64.312-1.578.937-1.578 2.015C.453-.484 1.578.234 2.72.234c1.234 0 2.265-.906 2.265-2.062 0-.39-.125-.89-.53-1.344-.204-.234-.391-.344-1.079-.781Zm-1.094.47 1.344.843c.297.204.813.532.813 1.204 0 .812-.813 1.375-1.72 1.375C1.782-.063 1-.735 1-1.641c0-.64.36-1.343 1.281-1.843Zm0 0"/><path id="y" d="M2.266-2.11c.25.032 1.14.22 1.14 1 0 .548-.39.985-1.234.985-.922 0-1.313-.61-1.516-1.547C.625-1.812.61-1.859.5-1.859c-.14 0-.14.078-.14.28V-.14c0 .188 0 .266.124.266.047 0 .063-.016.266-.219.031-.031.031-.047.219-.25.484.453.969.469 1.203.469 1.25 0 1.75-.734 1.75-1.516 0-.578-.328-.906-.453-1.046-.36-.344-.781-.438-1.25-.516C1.609-3.078.89-3.22.89-3.843c0-.391.28-.829 1.218-.829 1.188 0 1.25.969 1.266 1.313.016.093.11.093.14.093.141 0 .141-.046.141-.25v-1.109c0-.188 0-.266-.125-.266-.047 0-.078 0-.219.141-.03.031-.14.14-.187.172-.406-.313-.86-.313-1.016-.313-1.328 0-1.75.735-1.75 1.344 0 .39.172.688.47.922.343.297.655.36 1.437.516Zm0 0"/><path id="z" d="m1.39-.844 1.157-1.125C4.25-3.469 4.89-4.062 4.89-5.14c0-1.25-.97-2.125-2.313-2.125-1.219 0-2.031 1-2.031 1.97 0 .624.547.624.578.624.188 0 .563-.14.563-.578 0-.297-.188-.578-.579-.578-.078 0-.109 0-.14.016.25-.704.844-1.11 1.469-1.11 1 0 1.468.875 1.468 1.781 0 .86-.547 1.735-1.14 2.407L.672-.406C.547-.281.547-.266.547 0h4.047l.297-1.89h-.266c-.063.312-.125.796-.234.968-.079.078-.797.078-1.047.078Zm0 0"/><path id="A" d="M3.156-3.844c.906-.297 1.531-1.047 1.531-1.922 0-.89-.953-1.5-2-1.5C1.579-7.266.75-6.609.75-5.78c0 .36.25.562.563.562a.525.525 0 0 0 .546-.547c0-.546-.5-.546-.671-.546.343-.532 1.062-.672 1.453-.672.453 0 1.046.234 1.046 1.218 0 .125-.015.766-.312 1.235-.328.531-.688.562-.969.578-.078 0-.344.031-.422.031-.093 0-.156.016-.156.125 0 .125.063.125.25.125h.485c.89 0 1.296.735 1.296 1.813 0 1.484-.75 1.796-1.234 1.796-.469 0-1.281-.187-1.672-.828.39.047.719-.187.719-.609 0-.39-.281-.61-.61-.61-.25 0-.609.157-.609.641C.453-.484 1.47.234 2.656.234c1.328 0 2.328-.984 2.328-2.093 0-.907-.687-1.75-1.828-1.985Zm0 0"/></defs><path fill="none" stroke="#000" stroke-miterlimit="10" stroke-width=".399" d="M14.371 32.668h303.742V14.371H14.371Zm56.086-18.297v18.297m99.078-18.297v18.297"/><use xlink:href="#a" x="25.361" y="26.443"/><use xlink:href="#b" x="31.865" y="26.443"/><use xlink:href="#c" x="35.116" y="26.443"/><use xlink:href="#d" x="40.97" y="26.443"/><use xlink:href="#e" x="51.374" y="26.443"/><use xlink:href="#f" x="88.731" y="26.443"/><use xlink:href="#g" x="96.696" y="26.443"/><use xlink:href="#h" x="102.874" y="26.443"/><use xlink:href="#i" x="109.7" y="26.443"/><use xlink:href="#d" x="115.554" y="26.443"/><use xlink:href="#j" x="122.057" y="26.443"/><use xlink:href="#d" x="127.26" y="26.443"/><use xlink:href="#k" x="133.441" y="26.443"/><use xlink:href="#l" x="141.893" y="26.443"/><use xlink:href="#m" x="216.154" y="27.606"/><use xlink:href="#n" x="222.813" y="27.606"/><use xlink:href="#o" x="227.366" y="27.606"/><use xlink:href="#p" x="233.219" y="27.606"/><use xlink:href="#k" x="238.422" y="27.606"/><use xlink:href="#b" x="242.974" y="27.606"/><use xlink:href="#i" x="246.226" y="27.606"/><use xlink:href="#d" x="252.079" y="27.606"/><use xlink:href="#q" x="262.488" y="27.606"/><use xlink:href="#r" x="26.86" y="47.986"/><use xlink:href="#s" x="31.103" y="47.986"/><use xlink:href="#t" x="40.19" y="47.986"/><use xlink:href="#u" x="46.251" y="47.986"/><use xlink:href="#v" x="49.281" y="47.986"/><use xlink:href="#w" x="53.524" y="47.986"/><use xlink:href="#r" x="102.389" y="47.986"/><use xlink:href="#x" x="106.632" y="47.986"/><use xlink:href="#t" x="115.719" y="47.986"/><use xlink:href="#u" x="121.78" y="47.986"/><use xlink:href="#v" x="124.81" y="47.986"/><use xlink:href="#y" x="129.053" y="47.986"/><use xlink:href="#w" x="133.356" y="47.986"/><use xlink:href="#r" x="223.589" y="47.986"/><use xlink:href="#z" x="227.832" y="47.986"/><use xlink:href="#A" x="233.286" y="47.986"/><use xlink:href="#t" x="242.373" y="47.986"/><use xlink:href="#u" x="248.434" y="47.986"/><use xlink:href="#v" x="251.465" y="47.986"/><use xlink:href="#y" x="255.708" y="47.986"/><use xlink:href="#w" x="260.01" y="47.986"/></svg>