<svg xmlns="http://www.w3.org/2000/svg" xmlns:xlink="http://www.w3.org/1999/xlink" width="395.782" height="82.289"><defs><path id="a" d="M7.547-11.688c0-.312-.016-.328-.125-.328-.11 0-.14.063-.203.22l-.516 1.14c-.656-.953-1.656-1.375-2.75-1.375a3.134 3.134 0 0 0-3.156 3.14c0 .547.11 1.297.703 2.016.64.797 1.234.938 2.61 1.297.515.14 1.39.36 1.562.437.969.407 1.484 1.438 1.484 2.407 0 1.234-.875 2.562-2.375 2.562-1.843 0-3.562-1.031-3.672-3.437-.03-.282-.046-.297-.156-.297-.14 0-.156.015-.156.36v3.483c0 .297.015.329.11.329.124 0 .155-.094.405-.625.016-.047.016-.094.344-.75C2.516.03 3.953.28 4.781.28c1.875 0 3.203-1.578 3.203-3.39 0-.907-.328-1.594-.515-1.907-.719-1.093-1.5-1.296-2.328-1.515-.11-.047-.141-.047-1.11-.282-.937-.25-1.328-.375-1.765-.828-.47-.53-.641-1.093-.641-1.64 0-1.125.89-2.344 2.36-2.344 1.812 0 2.953 1.297 3.218 3.453.047.297.063.313.188.313.156 0 .156-.047.156-.344Zm0 0"/><path id="b" d="M2.672-10.61a.71.71 0 0 0-1.422 0c0 .376.313.704.719.704a.7.7 0 0 0 .703-.703ZM.656-7.36v.454c.969 0 1.094.11 1.094.937v4.782c0 .656-.063.734-1.172.734V0C1-.031 1.734-.031 2.172-.031c.406 0 1.11 0 1.515.031v-.453c-1.015 0-1.046-.094-1.046-.719v-6.375Zm0 0"/><path id="c" d="M1.906-3.094c.328.25.907.547 1.594.547 1.36 0 2.531-1.062 2.531-2.5 0-.453-.14-1.14-.656-1.672.484-.515 1.188-.687 1.578-.687.078 0 .172 0 .266.047-.078.03-.235.093-.235.375 0 .218.157.375.391.375.25 0 .39-.172.39-.407 0-.312-.265-.656-.812-.656-.687 0-1.281.313-1.766.766a2.494 2.494 0 0 0-1.687-.64c-1.36 0-2.531 1.077-2.531 2.5 0 .984.562 1.609.734 1.78-.516.594-.516 1.297-.516 1.391 0 .453.172 1.094.766 1.469C1.047-.187.343.5.343 1.359c0 1.235 1.641 2.157 3.595 2.157 1.906 0 3.609-.875 3.609-2.172C7.547-1 5-1 3.672-1c-.406 0-1.11 0-1.188-.016-.53-.093-.906-.562-.906-1.171 0-.157 0-.532.328-.907Zm1.594.25c-1.516 0-1.516-1.86-1.516-2.203 0-.344 0-2.203 1.516-2.203s1.516 1.86 1.516 2.203c0 .344 0 2.203-1.516 2.203Zm.438 6.063c-1.72 0-2.907-.906-2.907-1.86 0-.53.297-1.03.672-1.312.438-.281.61-.281 1.781-.281 1.407 0 3.375 0 3.375 1.593 0 .954-1.187 1.86-2.921 1.86Zm0 0"/><path id="d" d="M7.14-5.234c0-.875-.171-2.313-2.202-2.313-1.36 0-2.063 1.063-2.313 1.75h-.031v-1.75l-2.031.188v.453c1.015 0 1.171.11 1.171.937v4.782c0 .656-.062.734-1.171.734V0c.421-.031 1.171-.031 1.625-.031.453 0 1.218 0 1.64.031v-.453c-1.11 0-1.172-.063-1.172-.734V-4.5c0-1.578.953-2.766 2.172-2.766 1.266 0 1.406 1.141 1.406 1.97v4.109c0 .656-.062.734-1.171.734V0c.406-.031 1.171-.031 1.625-.031.437 0 1.218 0 1.625.031v-.453c-1.094 0-1.172-.063-1.172-.734Zm0 0"/><path id="f" d="M10.453-4.36h-.312C9.766-1.827 9.547-.452 6.516-.452H4.109c-.687 0-.718-.078-.718-.672v-4.75h1.625c1.609 0 1.765.594 1.765 2.016h.313v-4.47H6.78c0 1.423-.156 2.017-1.765 2.017H3.39v-4.297c0-.579.03-.672.718-.672h2.36c2.672 0 2.984 1.078 3.218 3.36H10l-.406-3.798H.875v.438c1.188 0 1.375 0 1.375.781v9.281c0 .766-.188.766-1.375.766V0h8.953Zm0 0"/><path id="g" d="M4.484-4.016a64.462 64.462 0 0 1 1.579-2c.562-.64 1.218-.921 1.984-.937v-.453c-.297.015-.906.031-1.219.031-.453 0-.984 0-1.39-.031v.453c.25.031.375.203.375.437 0 .313-.172.5-.25.625L4.28-4.266 2.766-6.25c-.141-.188-.141-.219-.141-.313 0-.203.172-.375.453-.39v-.453c-.406.031-1.156.031-1.578.031-.469 0-1.016 0-1.39-.031v.453c.921 0 1.124.062 1.546.578l1.985 2.563c.03.046.109.14.109.203 0 .062-1.5 1.906-1.688 2.14C1.297-.53.484-.469.017-.453V0c.296-.016.89-.031 1.203-.031.343 0 1.11 0 1.422.031v-.453C2.53-.47 2.25-.5 2.25-.891c0-.312.14-.5.297-.703l1.437-1.765L5.47-1.406c.14.187.343.437.343.562 0 .235-.203.375-.468.39V0c.406-.031 1.14-.031 1.578-.031.469 0 1.016 0 1.39.031v-.453c-.859 0-1.109-.031-1.53-.563Zm0 0"/><path id="h" d="M3.781 2.906c-1.094 0-1.156-.062-1.156-.734v-3.219C3.109-.328 3.844.141 4.75.141c1.719 0 3.469-1.516 3.469-3.86 0-2.172-1.5-3.828-3.281-3.828-1.032 0-1.875.578-2.36 1.266v-1.266l-2.047.188v.453c1.016 0 1.172.11 1.172.937v8.14c0 .657-.062.735-1.172.735v.453c.422-.03 1.172-.03 1.625-.03.438 0 1.219 0 1.625.03ZM2.625-5.406c0-.235 0-.61.656-1.235.094-.078.672-.593 1.547-.593 1.25 0 2.281 1.562 2.281 3.53 0 1.97-1.093 3.563-2.453 3.563-.625 0-1.297-.296-1.812-1.093-.219-.391-.219-.485-.219-.766Zm0 0"/><path id="i" d="M7.422-3.688c0-2.203-1.61-3.921-3.484-3.921-1.876 0-3.47 1.718-3.47 3.921 0 2.172 1.595 3.829 3.47 3.829 1.874 0 3.484-1.657 3.484-3.829ZM3.938-.171c-.797 0-1.5-.484-1.891-1.156-.422-.766-.485-1.734-.485-2.5 0-.719.032-1.61.485-2.39.344-.563 1.015-1.11 1.89-1.11.782 0 1.438.422 1.844 1.031.532.797.532 1.938.532 2.469 0 .672-.032 1.703-.5 2.531-.47.797-1.22 1.125-1.875 1.125Zm0 0"/><path id="j" d="M6.563-4.047c.062-.062.062-.11.062-.281 0-1.75-.922-3.281-2.89-3.281C1.905-7.61.468-5.875.468-3.75.469-1.516 2.094.14 3.922.14c1.937 0 2.687-1.828 2.687-2.187 0-.125-.093-.125-.14-.125-.11 0-.125.031-.203.25C5.89-.75 4.937-.172 4.046-.172c-.734 0-1.484-.406-1.952-1.172-.531-.875-.531-1.89-.531-2.703Zm-4.985-.266c.125-2.468 1.453-3.015 2.14-3.015 1.173 0 1.97 1.094 1.985 3.016Zm0 0"/><path id="k" d="M2.594-6.953h2.422v-.453H2.594v-3.188h-.297c-.047 1.781-.64 3.328-2.11 3.36v.28h1.5v4.829c0 .328 0 2.266 2 2.266 1.016 0 1.594-1 1.594-2.282v-.968H4.97v.953c0 1.187-.453 1.984-1.188 1.984-.5 0-1.187-.344-1.187-1.906Zm0 0"/><path id="m" d="M9.36-11.719H.874v.438c1.188 0 1.375 0 1.375.781v9.281c0 .766-.188.766-1.375.766V0c.5-.031 1.469-.031 2-.031.703 0 1.531 0 2.234.031v-.453h-.375c-1.312 0-1.343-.172-1.343-.781v-4.407h1.546c1.61 0 1.766.563 1.766 2h.313v-4.468h-.313c0 1.453-.156 2.015-1.766 2.015H3.391v-4.515c0-.579.03-.672.718-.672h2.235c2.593 0 2.89 1.078 3.125 3.36h.312Zm0 0"/><path id="n" d="M2.578-4.063c0-1.656.703-3.203 2-3.203.125 0 .25.016.36.063 0 0-.375.125-.375.578 0 .406.328.578.578.578.218 0 .593-.125.593-.594 0-.562-.546-.906-1.14-.906-1.313 0-1.875 1.281-2.047 1.875H2.53v-1.875l-2 .188v.453c1.016 0 1.172.11 1.172.937v4.782c0 .656-.062.734-1.172.734V0c.422-.031 1.203-.031 1.656-.031.5 0 1.376 0 1.844.031v-.453c-1.234 0-1.453 0-1.453-.766Zm0 0"/><path id="o" d="M6.203-4.453c0-1.14 0-1.75-.734-2.422a2.921 2.921 0 0 0-1.953-.734c-1.36 0-2.344 1.062-2.344 2.203 0 .64.516.672.625.672.219 0 .61-.141.61-.625 0-.422-.329-.61-.61-.61a.922.922 0 0 0-.219.032c.375-1.094 1.297-1.391 1.906-1.391.86 0 1.797.75 1.797 2.203v.75c-1.015.031-2.234.172-3.203.688C1-3.079.688-2.22.688-1.563.688-.234 2.234.141 3.155.141c.938 0 1.813-.532 2.203-1.516.032.75.516 1.438 1.266 1.438.36 0 1.281-.235 1.281-1.594V-2.5h-.312v.984c0 1.047-.469 1.188-.688 1.188-.703 0-.703-.89-.703-1.656Zm-.922 2.062c0 1.5-1.062 2.25-2.015 2.25-.86 0-1.532-.64-1.532-1.421 0-.516.235-1.438 1.235-1.985.812-.469 1.765-.531 2.312-.562Zm0 0"/><path id="p" d="M6.016-6.031c-.329 0-.813 0-.813.61 0 .484.39.624.61.624.125 0 .625-.062.625-.656 0-1.234-1.172-2.156-2.5-2.156C2.125-7.61.562-5.922.562-3.72c0 2.297 1.625 3.86 3.375 3.86C6.079.14 6.61-1.844 6.61-2.031c0-.063-.015-.125-.14-.125-.11 0-.125.015-.203.25C5.812-.516 4.844-.172 4.094-.172 3-.172 1.672-1.188 1.672-3.734c0-2.625 1.266-3.563 2.281-3.563.672 0 1.672.328 2.063 1.266Zm0 0"/><path id="e" d="M10.938-11.969c0-.156-.126-.156-.157-.156-.078 0-.094.016-.297.281a76.6 76.6 0 0 1-.828 1.031c-.562-1.124-1.703-1.312-2.422-1.312-2.187 0-4.171 2-4.171 3.953 0 1.281.78 2.047 1.624 2.328.188.078 1.204.344 1.72.469.874.25 1.093.313 1.468.688.063.093.406.484.406 1.296 0 1.594-1.484 3.25-3.203 3.25-1.406 0-2.984-.593-2.984-2.53 0-.329.078-.735.125-.907 0-.063.015-.14.015-.172 0-.078-.03-.156-.171-.156-.157 0-.172.031-.235.328L.953-.047c0 .016-.078.234-.078.25 0 .156.14.156.172.156.078 0 .094-.015.297-.265L2.14-.953C2.547-.328 3.437.359 5.047.359c2.219 0 4.25-2.156 4.25-4.296 0-.735-.172-1.36-.828-2-.36-.36-.672-.454-2.25-.86-1.157-.312-1.313-.36-1.625-.64a1.806 1.806 0 0 1-.516-1.297c0-1.438 1.469-2.922 3.11-2.922 1.687 0 2.468 1.031 2.468 2.672 0 .437-.078.906-.078.984 0 .14.14.14.188.14.156 0 .171-.046.234-.312Zm0 0"/><path id="l" d="M11.969-4c.015-.047.062-.172.062-.234 0-.094-.062-.172-.172-.172-.062 0-.093.015-.156.062-.031.016-.031.063-.187.407C10.5-1.531 9.766-.5 7.016-.5H4.5c-.25 0-.281 0-.39-.016-.188-.015-.204-.046-.204-.187 0-.125.031-.235.078-.375l1.188-4.766h1.703c1.344 0 1.438.297 1.438.813 0 .172 0 .328-.11.843A.373.373 0 0 0 8.141-4c0 .125.093.172.187.172.156 0 .172-.11.25-.36l.985-3.984a.173.173 0 0 0-.172-.172c-.157 0-.172.063-.25.297-.344 1.328-.688 1.703-2.22 1.703h-1.64l1.078-4.234c.157-.594.188-.656.891-.656h2.469c2.11 0 2.547.578 2.547 1.89 0 .016 0 .5-.079 1.063a1.3 1.3 0 0 0-.03.203c0 .14.093.187.187.187.125 0 .187-.062.219-.375l.374-3.015c0-.047.032-.219.032-.25 0-.188-.156-.188-.469-.188H4.094c-.328 0-.5 0-.5.297 0 .188.125.188.422.188 1.062 0 1.062.125 1.062.312 0 .094-.016.156-.062.344L2.687-1.281c-.156.61-.187.781-1.39.781-.328 0-.5 0-.5.313C.797 0 .89 0 1.234 0h8.657c.375 0 .39-.016.515-.297Zm0 0"/><path id="q" d="M5.11-5.61h1.656c1.312 0 1.406.282 1.406.782 0 .234-.031.469-.11.844-.03.078-.062.156-.062.203 0 .11.078.187.203.187s.14-.078.219-.344l1-4.015a.173.173 0 0 0-.172-.172c-.156 0-.172.063-.25.36C8.64-6.47 8.297-6.11 6.797-6.11H5.234l1.125-4.47c.157-.593.188-.655.891-.655h2.313c2.14 0 2.453.64 2.453 1.875 0 .093 0 .468-.047.921a2.829 2.829 0 0 0-.047.36c0 .14.078.187.187.187.11 0 .188-.062.22-.375l.358-3.015c0-.047.032-.219.032-.25 0-.188-.156-.188-.453-.188H4.094c-.328 0-.5 0-.5.297 0 .188.125.188.422.188 1.062 0 1.062.125 1.062.312 0 .094-.016.156-.062.344L2.687-1.281c-.156.61-.187.781-1.39.781-.328 0-.5 0-.5.313 0 .187.156.187.25.187.328 0 .672-.031 1-.031H4.28c.39 0 .797.031 1.172.031.156 0 .36 0 .36-.313 0-.187-.094-.187-.47-.187-1.359 0-1.405-.125-1.405-.375 0-.094.046-.234.078-.344Zm0 0"/><path id="r" d="M4.656 3.484c0-.046 0-.078-.234-.312-1.438-1.453-2.234-3.813-2.234-6.75 0-2.781.671-5.172 2.328-6.86.14-.14.14-.156.14-.203 0-.093-.062-.109-.125-.109-.187 0-1.36 1.031-2.062 2.438-.735 1.437-1.063 2.984-1.063 4.734 0 1.281.203 2.984.953 4.531.844 1.719 2.016 2.64 2.172 2.64.063 0 .125-.015.125-.109Zm0 0"/><path id="s" d="M4.125-9.188c0-.343 0-.343-.281-.343-.344.375-1.063.906-2.531.906v.422c.328 0 1.046 0 1.828-.375v7.469c0 .515-.047.687-1.297.687H1.39V0c.39-.031 1.78-.031 2.25-.031.468 0 1.859 0 2.234.031v-.422h-.438c-1.265 0-1.312-.172-1.312-.687Zm0 0"/><path id="t" d="m2.39-9.953-1.984.156v.422c.969 0 1.078.094 1.078.797V0h.329c.046-.11.453-.828.515-.938.328.532.938 1.079 1.86 1.079C5.843.14 7.28-1.25 7.28-3.094c0-1.828-1.343-3.234-2.937-3.234-.782 0-1.453.36-1.953.969Zm.032 5.36c0-.25 0-.282.156-.516.344-.516.985-.922 1.688-.922.421 0 1.937.172 1.937 2.922 0 .953-.156 1.562-.5 2.078-.281.437-.86.89-1.578.89-.766 0-1.266-.5-1.516-.89-.187-.297-.187-.36-.187-.61Zm0 0"/><path id="u" d="M2.5-8.828a.71.71 0 0 0-.703-.703.684.684 0 0 0-.688.687c0 .422.344.703.688.703a.706.706 0 0 0 .703-.687ZM.516-6.172v.422c.921 0 1.046.078 1.046.781v3.907c0 .64-.156.64-1.093.64V0c.406-.031 1.094-.031 1.515-.031.157 0 .985 0 1.47.031v-.422c-.923 0-.985-.062-.985-.625v-5.281Zm0 0"/><path id="v" d="M2.406-5.766h2.031v-.421h-2.03v-2.641h-.313c-.016 1.36-.531 2.734-1.828 2.781v.281h1.218v3.985C1.484-.188 2.531.14 3.297.14c.906 0 1.375-.891 1.375-1.922v-.813h-.313v.781c0 1.032-.421 1.641-.968 1.641-.985 0-.985-1.328-.985-1.578Zm0 0"/><path id="w" d="M4.047-3.578c0-1.078-.14-2.86-.953-4.531C2.25-9.83 1.078-10.75.922-10.75c-.063 0-.14.016-.14.11 0 .046 0 .062.25.312 1.437 1.453 2.234 3.812 2.234 6.75 0 2.781-.672 5.172-2.329 6.86-.156.124-.156.155-.156.202 0 .094.078.11.14.11.188 0 1.36-1.031 2.063-2.438.735-1.453 1.063-3 1.063-4.734Zm0 0"/><path id="x" d="M4.281-5.172c.703-.39 1.75-1.047 1.75-2.266 0-1.234-1.203-2.093-2.515-2.093-1.422 0-2.547 1.047-2.547 2.344 0 .484.156.984.547 1.468.156.188.171.203 1.187.907-1.39.64-2.11 1.593-2.11 2.64C.594-.64 2.032.297 3.5.297c1.594 0 2.922-1.172 2.922-2.672 0-1.469-1.031-2.11-2.14-2.797ZM2.328-6.469c-.187-.125-.765-.5-.765-1.203 0-.937.968-1.516 1.937-1.516 1.031 0 1.953.735 1.953 1.766 0 .875-.64 1.578-1.469 2.047ZM3-4.625l1.734 1.14c.375.25 1.032.688 1.032 1.563 0 1.094-1.11 1.828-2.25 1.828-1.22 0-2.266-.875-2.266-2.078 0-1.11.813-2.015 1.75-2.453Zm0 0"/><path id="y" d="M4.703-6.063c0-.265 0-.328-.14-.328-.11 0-.391.313-.485.438-.453-.36-.89-.438-1.36-.438-1.734 0-2.25.938-2.25 1.735 0 .156 0 .656.548 1.156.468.406.953.5 1.609.625.781.156.969.203 1.328.5.266.203.453.531.453.922 0 .625-.36 1.312-1.625 1.312-.937 0-1.64-.546-1.953-1.984-.047-.25-.047-.266-.062-.281C.734-2.47.672-2.47.625-2.47c-.156 0-.156.078-.156.328v1.954c0 .265 0 .328.14.328.079 0 .094-.016.344-.313.063-.094.063-.125.281-.36.547.673 1.313.673 1.563.673 1.5 0 2.25-.829 2.25-1.97 0-.765-.469-1.234-.594-1.359-.516-.437-.906-.53-1.86-.703-.421-.078-1.468-.28-1.468-1.14 0-.453.297-1.11 1.594-1.11 1.562 0 1.64 1.329 1.672 1.782.015.109.109.109.156.109.156 0 .156-.063.156-.328Zm0 0"/><path id="z" d="M6.313-2.406H6c-.047.234-.156 1.031-.313 1.265-.093.125-.906.125-1.343.125H1.687c.391-.328 1.266-1.25 1.641-1.593 2.188-2.016 2.985-2.75 2.985-4.172 0-1.657-1.313-2.75-2.97-2.75-1.671 0-2.64 1.406-2.64 2.64 0 .735.625.735.672.735.297 0 .672-.219.672-.672 0-.406-.266-.672-.672-.672-.125 0-.156 0-.203.016.281-.985 1.047-1.641 1.984-1.641 1.219 0 1.969 1.016 1.969 2.344 0 1.218-.703 2.281-1.531 3.203L.704-.344V0h5.234Zm0 0"/><path id="A" d="M2.64-5.156c-.25.015-.296.031-.296.172 0 .14.062.14.328.14h.656c1.219 0 1.766 1 1.766 2.375 0 1.875-.985 2.375-1.688 2.375-.687 0-1.86-.328-2.265-1.265.453.062.875-.188.875-.704a.681.681 0 0 0-.704-.703c-.343 0-.718.204-.718.75C.594-.75 1.859.297 3.454.297 5.155.297 6.421-1 6.421-2.453c0-1.313-1.063-2.36-2.438-2.594 1.25-.36 2.047-1.406 2.047-2.531 0-1.125-1.172-1.953-2.562-1.953-1.438 0-2.5.875-2.5 1.922 0 .562.453.687.672.687.296 0 .64-.219.64-.656 0-.453-.344-.656-.656-.656-.094 0-.125 0-.156.015.547-.969 1.89-.969 1.953-.969.484 0 1.406.204 1.406 1.61 0 .281-.031 1.078-.453 1.703-.438.625-.922.672-1.313.688Zm0 0"/></defs><path fill="none" stroke="#000" stroke-miterlimit="10" stroke-width=".399" d="M14.371 40.012h367.04v-25.64H14.37Zm71.246-25.64v25.64m124.488-25.64v25.64"/><use xlink:href="#a" x="26.722" y="31.399"/><use xlink:href="#b" x="35.517" y="31.399"/><use xlink:href="#c" x="39.814" y="31.399"/><use xlink:href="#d" x="47.709" y="31.399"/><use xlink:href="#e" x="61.702" y="31.399"/><use xlink:href="#f" x="105.255" y="31.399"/><use xlink:href="#g" x="116.07" y="31.399"/><use xlink:href="#h" x="124.414" y="31.399"/><use xlink:href="#i" x="133.657" y="31.399"/><use xlink:href="#d" x="141.552" y="31.399"/><use xlink:href="#j" x="150.347" y="31.399"/><use xlink:href="#d" x="157.344" y="31.399"/><use xlink:href="#k" x="165.691" y="31.399"/><use xlink:href="#l" x="176.984" y="31.399"/><use xlink:href="#m" x="258.089" y="33.073"/><use xlink:href="#n" x="267.112" y="33.073"/><use xlink:href="#o" x="273.208" y="33.073"/><use xlink:href="#p" x="281.103" y="33.073"/><use xlink:href="#k" x="288.099" y="33.073"/><use xlink:href="#b" x="294.195" y="33.073"/><use xlink:href="#i" x="298.492" y="33.073"/><use xlink:href="#d" x="306.387" y="33.073"/><use xlink:href="#q" x="320.374" y="33.073"/><use xlink:href="#r" x="29.996" y="59.266"/><use xlink:href="#s" x="35.459" y="59.266"/><use xlink:href="#t" x="47.16" y="59.266"/><use xlink:href="#u" x="54.964" y="59.266"/><use xlink:href="#v" x="58.866" y="59.266"/><use xlink:href="#w" x="64.329" y="59.266"/><use xlink:href="#r" x="125.193" y="59.266"/><use xlink:href="#x" x="130.656" y="59.266"/><use xlink:href="#t" x="142.357" y="59.266"/><use xlink:href="#u" x="150.161" y="59.266"/><use xlink:href="#v" x="154.063" y="59.266"/><use xlink:href="#y" x="159.526" y="59.266"/><use xlink:href="#w" x="165.067" y="59.266"/><use xlink:href="#r" x="269.676" y="59.266"/><use xlink:href="#z" x="275.139" y="59.266"/><use xlink:href="#A" x="282.163" y="59.266"/><use xlink:href="#t" x="293.864" y="59.266"/><use xlink:href="#u" x="301.668" y="59.266"/><use xlink:href="#v" x="305.57" y="59.266"/><use xlink:href="#y" x="311.033" y="59.266"/><use xlink:href="#w" x="316.574" y="59.266"/></svg>