<svg xmlns="http://www.w3.org/2000/svg" xmlns:xlink="http://www.w3.org/1999/xlink" width="157.684" height="87.105"><defs><path id="a" d="M5.328-4.813c.234 0 .344 0 .344-.218 0-.125-.11-.125-.313-.125h-.968c.218-1.235.39-2.078.484-2.453.078-.297.328-.563.64-.563.25 0 .5.11.61.219-.453.047-.61.39-.61.594 0 .234.188.375.407.375.25 0 .61-.204.61-.657 0-.5-.5-.78-1.032-.78-.516 0-1.016.39-1.25.858-.219.422-.344.844-.61 2.407h-.812c-.219 0-.344 0-.344.218 0 .125.079.125.313.125h.765C3.345-3.688 2.86-.983 2.579.282c-.203 1.047-.375 1.922-.969 1.922-.046 0-.39 0-.609-.234.61-.047.61-.563.61-.578 0-.25-.173-.391-.407-.391a.627.627 0 0 0-.594.656c0 .516.532.782 1 .782 1.22 0 1.72-2.188 1.844-2.782.219-.922.797-4.11.86-4.468Zm0 0"/><path id="e" d="M2.203-.578a.586.586 0 0 0-.578-.578.576.576 0 0 0-.578.578c0 .344.281.578.562.578a.59.59 0 0 0 .594-.578Zm0 0"/><path id="n" d="M3.547-3.89h1.156c.906 0 .969.203.969.546 0 .156-.016.313-.078.578-.032.047-.032.11-.032.141 0 .078.047.125.125.125.094 0 .11-.047.157-.234l.687-2.782c0-.046-.031-.125-.11-.125-.109 0-.124.047-.171.25C6-4.5 5.766-4.25 4.719-4.25H3.64l.765-3.094c.11-.406.14-.453.625-.453h1.61c1.484 0 1.703.453 1.703 1.297 0 .063 0 .328-.031.64a1.407 1.407 0 0 0-.047.25c0 .094.062.141.14.141.078 0 .125-.047.156-.265l.25-2.094c0-.031.016-.156.016-.188 0-.125-.11-.125-.312-.125H2.844c-.219 0-.344 0-.344.22 0 .124.078.124.281.124.75 0 .75.094.75.219 0 .062-.015.11-.047.234L1.86-.89c-.109.422-.125.547-.968.547-.22 0-.344 0-.344.219C.547 0 .657 0 .734 0c.22 0 .454-.031.688-.031h1.547c.265 0 .562.031.828.031.094 0 .25 0 .25-.219 0-.125-.078-.125-.344-.125-.937 0-.969-.094-.969-.265 0-.063.032-.157.047-.235Zm0 0"/><path id="b" d="M2.5-5.078c0-.219-.016-.219-.234-.219-.329.313-.75.5-1.5.5v.266c.218 0 .64 0 1.109-.203v4.078c0 .297-.031.39-.781.39H.812V0c.329-.031 1.016-.031 1.375-.031.36 0 1.047 0 1.376.031v-.266H3.28c-.75 0-.781-.093-.781-.39Zm0 0"/><path id="c" d="M2.25-1.625c.125-.125.453-.39.594-.5.484-.453.953-.89.953-1.61 0-.953-.797-1.562-1.781-1.562-.97 0-1.594.719-1.594 1.438 0 .39.312.437.422.437.172 0 .422-.11.422-.422 0-.406-.407-.406-.5-.406.234-.594.765-.781 1.156-.781.734 0 1.125.625 1.125 1.297 0 .828-.578 1.437-1.531 2.39l-1 1.047C.422-.219.422-.203.422 0h3.14l.235-1.422h-.25c-.016.156-.078.547-.172.703-.047.063-.656.063-.781.063H1.172Zm0 0"/><path id="d" d="M2.016-2.656c.625 0 1.03.453 1.03 1.297 0 1-.562 1.28-.983 1.28-.438 0-1.047-.155-1.329-.577.297 0 .5-.188.5-.438 0-.265-.187-.437-.453-.437-.203 0-.437.125-.437.453 0 .75.812 1.25 1.734 1.25 1.047 0 1.797-.734 1.797-1.531 0-.672-.531-1.266-1.344-1.454.625-.218 1.11-.75 1.11-1.39 0-.64-.72-1.094-1.547-1.094-.86 0-1.5.453-1.5 1.063 0 .296.187.421.406.421.25 0 .406-.171.406-.406 0-.297-.265-.406-.437-.406.344-.438.953-.469 1.094-.469.203 0 .812.063.812.89 0 .548-.234.891-.344 1.016-.234.25-.422.266-.906.297-.156 0-.219.016-.219.125 0 .11.078.11.219.11Zm0 0"/><path id="f" d="M3.61 2.625c0-.047 0-.063-.188-.25C2.062 1 1.719-1.063 1.719-2.719c0-1.906.406-3.797 1.75-5.172.14-.125.14-.14.14-.187 0-.063-.046-.094-.109-.094-.11 0-1.094.735-1.734 2.125-.563 1.188-.688 2.406-.688 3.328 0 .844.125 2.156.719 3.39C2.453 2.017 3.39 2.72 3.5 2.72c.063 0 .11-.031.11-.094Zm0 0"/><path id="g" d="m1.39-.844 1.157-1.125C4.25-3.469 4.89-4.062 4.89-5.14c0-1.25-.97-2.125-2.313-2.125-1.219 0-2.031 1-2.031 1.97 0 .624.547.624.578.624.188 0 .563-.14.563-.578 0-.297-.188-.578-.579-.578-.078 0-.109 0-.14.016.25-.704.844-1.11 1.469-1.11 1 0 1.468.875 1.468 1.781 0 .86-.547 1.735-1.14 2.407L.672-.406C.547-.281.547-.266.547 0h4.047l.297-1.89h-.266c-.063.312-.125.796-.234.968-.079.078-.797.078-1.047.078Zm0 0"/><path id="h" d="M3.156-3.844c.906-.297 1.531-1.047 1.531-1.922 0-.89-.953-1.5-2-1.5C1.579-7.266.75-6.609.75-5.78c0 .36.25.562.563.562a.525.525 0 0 0 .546-.547c0-.546-.5-.546-.671-.546.343-.532 1.062-.672 1.453-.672.453 0 1.046.234 1.046 1.218 0 .125-.015.766-.312 1.235-.328.531-.688.562-.969.578-.078 0-.344.031-.422.031-.093 0-.156.016-.156.125 0 .125.063.125.25.125h.485c.89 0 1.296.735 1.296 1.813 0 1.484-.75 1.796-1.234 1.796-.469 0-1.281-.187-1.672-.828.39.047.719-.187.719-.609 0-.39-.281-.61-.61-.61-.25 0-.609.157-.609.641C.453-.484 1.47.234 2.656.234c1.328 0 2.328-.984 2.328-2.093 0-.907-.687-1.75-1.828-1.985Zm0 0"/><path id="i" d="M1.875-4.11v-3.452l-1.563.109v.344c.75 0 .844.078.844.609V0h.266c.016-.016.11-.156.406-.672.156.25.61.797 1.422.797 1.297 0 2.438-1.078 2.438-2.484 0-1.375-1.079-2.47-2.313-2.47-.86 0-1.328.516-1.5.72Zm.031 2.86v-2.234c0-.22 0-.22.125-.391a1.528 1.528 0 0 1 1.281-.703c.5 0 .891.281 1.141.703.297.438.328 1.063.328 1.516 0 .39-.031 1.046-.343 1.546-.235.329-.641.688-1.235.688-.484 0-.875-.25-1.14-.656-.157-.235-.157-.266-.157-.469Zm0 0"/><path id="j" d="m1.938-4.828-1.532.125v.344c.703 0 .797.062.797.593v2.938c0 .484-.11.484-.844.484V0c.344-.016.938-.031 1.204-.031.375 0 .765.015 1.125.031v-.344c-.72 0-.75-.047-.75-.469Zm.03-1.89a.567.567 0 0 0-.577-.579c-.329 0-.579.297-.579.578 0 .297.25.578.579.578a.567.567 0 0 0 .578-.578Zm0 0"/><path id="k" d="M1.89-4.36h1.563v-.343H1.891v-2h-.282c0 .89-.328 2.062-1.406 2.094v.25h.938v3C1.14-.016 2.156.125 2.547.125c.765 0 1.078-.781 1.078-1.484v-.61h-.281v.594c0 .813-.328 1.219-.719 1.219-.734 0-.734-.985-.734-1.172Zm0 0"/><path id="l" d="M2.266-2.11c.25.032 1.14.22 1.14 1 0 .548-.39.985-1.234.985-.922 0-1.313-.61-1.516-1.547C.625-1.812.61-1.859.5-1.859c-.14 0-.14.078-.14.28V-.14c0 .188 0 .266.124.266.047 0 .063-.016.266-.219.031-.031.031-.047.219-.25.484.453.969.469 1.203.469 1.25 0 1.75-.734 1.75-1.516 0-.578-.328-.906-.453-1.046-.36-.344-.781-.438-1.25-.516C1.609-3.078.89-3.22.89-3.843c0-.391.28-.829 1.218-.829 1.188 0 1.25.969 1.266 1.313.016.093.11.093.14.093.141 0 .141-.046.141-.25v-1.109c0-.188 0-.266-.125-.266-.047 0-.078 0-.219.141-.03.031-.14.14-.187.172-.406-.313-.86-.313-1.016-.313-1.328 0-1.75.735-1.75 1.344 0 .39.172.688.47.922.343.297.655.36 1.437.516Zm0 0"/><path id="m" d="M3.156-2.719c0-.86-.125-2.172-.719-3.406C1.781-7.469.845-8.172.734-8.172c-.062 0-.109.031-.109.094 0 .047 0 .062.203.265C1.891-6.734 2.516-5 2.516-2.718c0 1.86-.407 3.781-1.75 5.156-.141.126-.141.141-.141.188 0 .063.047.094.11.094.109 0 1.093-.735 1.734-2.125.547-1.188.687-2.406.687-3.313Zm0 0"/><path id="o" d="M8.063-3.875c.171 0 .39 0 .39-.219 0-.218-.203-.218-.39-.218H1.03c-.172 0-.39 0-.39.218 0 .219.203.219.39.219Zm0 2.219c.171 0 .39 0 .39-.203 0-.235-.203-.235-.39-.235H1.03c-.172 0-.39 0-.39.219s.203.219.39.219Zm0 0"/><path id="p" d="M2.203-.578a.587.587 0 0 0-.578-.578.567.567 0 0 0-.578.578c0 .344.297.578.562.578a.58.58 0 0 0 .594-.578Zm0 0"/></defs><path fill="none" stroke="#000" stroke-miterlimit="10" stroke-width=".399" d="M14.371 32.8h128.941V14.372H14.373Zm18.504-18.429v18.43m18.707-18.43v18.43m18.703-18.43v18.43m50.29-18.43v18.43"/><use xlink:href="#a" x="18.274" y="26.576"/><use xlink:href="#b" x="24.044" y="28.369"/><use xlink:href="#a" x="36.978" y="26.576"/><use xlink:href="#c" x="42.748" y="28.369"/><use xlink:href="#a" x="55.682" y="26.576"/><use xlink:href="#d" x="61.452" y="28.369"/><use xlink:href="#e" x="88.559" y="24.168"/><use xlink:href="#e" x="93.807" y="24.168"/><use xlink:href="#e" x="99.044" y="24.168"/><use xlink:href="#a" x="124.674" y="26.576"/><use xlink:href="#c" x="130.444" y="28.369"/><use xlink:href="#d" x="134.679" y="28.369"/><use xlink:href="#f" x="58.509" y="48.119"/><use xlink:href="#g" x="62.752" y="48.119"/><use xlink:href="#h" x="68.206" y="48.119"/><use xlink:href="#i" x="77.293" y="48.119"/><use xlink:href="#j" x="83.354" y="48.119"/><use xlink:href="#k" x="86.385" y="48.119"/><use xlink:href="#l" x="90.628" y="48.119"/><use xlink:href="#m" x="94.93" y="48.119"/><use xlink:href="#n" x="32.176" y="66.706"/><use xlink:href="#o" x="45.282" y="66.706"/><use xlink:href="#p" x="58.284" y="66.706"/><use xlink:href="#a" x="61.54" y="66.706"/><use xlink:href="#b" x="67.31" y="68.499"/><use xlink:href="#a" x="72.042" y="66.706"/><use xlink:href="#c" x="77.812" y="68.499"/><use xlink:href="#a" x="82.545" y="66.706"/><use xlink:href="#d" x="88.315" y="68.499"/><use xlink:href="#e" x="95.039" y="66.706"/><use xlink:href="#e" x="100.287" y="66.706"/><use xlink:href="#e" x="105.524" y="66.706"/><use xlink:href="#a" x="110.772" y="66.706"/><use xlink:href="#c" x="116.542" y="68.499"/><use xlink:href="#d" x="120.777" y="68.499"/></svg>