<svg xmlns="http://www.w3.org/2000/svg" xmlns:xlink="http://www.w3.org/1999/xlink" width="193.601" height="111.557"><defs><path id="a" d="M7.672-6.922c.36 0 .484 0 .484-.328 0-.172-.125-.172-.437-.172H6.312c.329-1.766.579-3 .72-3.547.093-.406.452-.812.905-.812.36 0 .72.156.891.312-.672.063-.875.563-.875.86 0 .343.266.546.594.546.344 0 .86-.28.86-.937 0-.719-.735-1.125-1.485-1.125-.734 0-1.469.547-1.813 1.219-.312.61-.484 1.234-.875 3.484H4.078c-.328 0-.5 0-.5.313 0 .187.11.187.453.187h1.094c-.297 1.594-1.016 5.5-1.406 7.328-.297 1.5-.547 2.766-1.406 2.766-.063 0-.563 0-.86-.328.875-.078.875-.828.875-.844 0-.344-.265-.547-.594-.547-.343 0-.859.281-.859.938 0 .75.766 1.125 1.438 1.125C4.063 3.516 4.78.359 4.969-.5c.312-1.328 1.156-5.906 1.25-6.422Zm0 0"/><path id="e" d="M3.172-.828c0-.5-.422-.844-.828-.844-.5 0-.844.422-.844.828a.837.837 0 0 0 1.672.016Zm0 0"/><path id="n" d="M5.11-5.61h1.656c1.312 0 1.406.282 1.406.782 0 .234-.031.469-.11.844-.03.078-.062.156-.062.203 0 .11.078.187.203.187s.14-.078.219-.344l1-4.015a.173.173 0 0 0-.172-.172c-.156 0-.172.063-.25.36C8.64-6.47 8.297-6.11 6.797-6.11H5.234l1.125-4.47c.157-.593.188-.655.891-.655h2.313c2.14 0 2.453.64 2.453 1.875 0 .093 0 .468-.047.921a2.829 2.829 0 0 0-.047.36c0 .14.078.187.187.187.11 0 .188-.062.22-.375l.358-3.015c0-.047.032-.219.032-.25 0-.188-.156-.188-.453-.188H4.094c-.328 0-.5 0-.5.297 0 .188.125.188.422.188 1.062 0 1.062.125 1.062.312 0 .094-.016.156-.062.344L2.687-1.281c-.156.61-.187.781-1.39.781-.328 0-.5 0-.5.313 0 .187.156.187.25.187.328 0 .672-.031 1-.031H4.28c.39 0 .797.031 1.172.031.156 0 .36 0 .36-.313 0-.187-.094-.187-.47-.187-1.359 0-1.405-.125-1.405-.375 0-.094.046-.234.078-.344Zm0 0"/><path id="b" d="M3.203-6.984c0-.25 0-.282-.25-.282-.672.704-1.64.704-1.984.704v.328c.219 0 .86 0 1.437-.282v5.657c0 .39-.047.515-1.015.515h-.36V0c.39-.031 1.328-.031 1.766-.031.437 0 1.39 0 1.765.031v-.344H4.22c-.985 0-1.016-.11-1.016-.515Zm0 0"/><path id="c" d="m1.39-.844 1.157-1.125C4.25-3.469 4.89-4.062 4.89-5.14c0-1.25-.97-2.125-2.313-2.125-1.219 0-2.031 1-2.031 1.97 0 .624.547.624.578.624.188 0 .563-.14.563-.578 0-.297-.188-.578-.579-.578-.078 0-.109 0-.14.016.25-.704.844-1.11 1.469-1.11 1 0 1.468.875 1.468 1.781 0 .86-.547 1.735-1.14 2.407L.672-.406C.547-.281.547-.266.547 0h4.047l.297-1.89h-.266c-.063.312-.125.796-.234.968-.079.078-.797.078-1.047.078Zm0 0"/><path id="d" d="M3.156-3.844c.906-.297 1.531-1.047 1.531-1.922 0-.89-.953-1.5-2-1.5C1.579-7.266.75-6.609.75-5.78c0 .36.25.562.563.562a.525.525 0 0 0 .546-.547c0-.546-.5-.546-.671-.546.343-.532 1.062-.672 1.453-.672.453 0 1.046.234 1.046 1.218 0 .125-.015.766-.312 1.235-.328.531-.688.562-.969.578-.078 0-.344.031-.422.031-.093 0-.156.016-.156.125 0 .125.063.125.25.125h.485c.89 0 1.296.735 1.296 1.813 0 1.484-.75 1.796-1.234 1.796-.469 0-1.281-.187-1.672-.828.39.047.719-.187.719-.609 0-.39-.281-.61-.61-.61-.25 0-.609.157-.609.641C.453-.484 1.47.234 2.656.234c1.328 0 2.328-.984 2.328-2.093 0-.907-.687-1.75-1.828-1.985Zm0 0"/><path id="f" d="M4.656 3.484c0-.046 0-.078-.234-.312-1.438-1.453-2.234-3.813-2.234-6.75 0-2.781.671-5.172 2.328-6.86.14-.14.14-.156.14-.203 0-.093-.062-.109-.125-.109-.187 0-1.36 1.031-2.062 2.438-.735 1.437-1.063 2.984-1.063 4.734 0 1.281.203 2.984.953 4.531.844 1.719 2.016 2.64 2.172 2.64.063 0 .125-.015.125-.109Zm0 0"/><path id="g" d="M6.313-2.406H6c-.047.234-.156 1.031-.313 1.265-.093.125-.906.125-1.343.125H1.687c.391-.328 1.266-1.25 1.641-1.593 2.188-2.016 2.985-2.75 2.985-4.172 0-1.657-1.313-2.75-2.97-2.75-1.671 0-2.64 1.406-2.64 2.64 0 .735.625.735.672.735.297 0 .672-.219.672-.672 0-.406-.266-.672-.672-.672-.125 0-.156 0-.203.016.281-.985 1.047-1.641 1.984-1.641 1.219 0 1.969 1.016 1.969 2.344 0 1.218-.703 2.281-1.531 3.203L.704-.344V0h5.234Zm0 0"/><path id="h" d="M2.64-5.156c-.25.015-.296.031-.296.172 0 .14.062.14.328.14h.656c1.219 0 1.766 1 1.766 2.375 0 1.875-.985 2.375-1.688 2.375-.687 0-1.86-.328-2.265-1.265.453.062.875-.188.875-.704a.681.681 0 0 0-.704-.703c-.343 0-.718.204-.718.75C.594-.75 1.859.297 3.454.297 5.155.297 6.421-1 6.421-2.453c0-1.313-1.063-2.36-2.438-2.594 1.25-.36 2.047-1.406 2.047-2.531 0-1.125-1.172-1.953-2.562-1.953-1.438 0-2.5.875-2.5 1.922 0 .562.453.687.672.687.296 0 .64-.219.64-.656 0-.453-.344-.656-.656-.656-.094 0-.125 0-.156.015.547-.969 1.89-.969 1.953-.969.484 0 1.406.204 1.406 1.61 0 .281-.031 1.078-.453 1.703-.438.625-.922.672-1.313.688Zm0 0"/><path id="i" d="m2.39-9.953-1.984.156v.422c.969 0 1.078.094 1.078.797V0h.329c.046-.11.453-.828.515-.938.328.532.938 1.079 1.86 1.079C5.843.14 7.28-1.25 7.28-3.094c0-1.828-1.343-3.234-2.937-3.234-.782 0-1.453.36-1.953.969Zm.032 5.36c0-.25 0-.282.156-.516.344-.516.985-.922 1.688-.922.421 0 1.937.172 1.937 2.922 0 .953-.156 1.562-.5 2.078-.281.437-.86.89-1.578.89-.766 0-1.266-.5-1.516-.89-.187-.297-.187-.36-.187-.61Zm0 0"/><path id="j" d="M2.5-8.828a.71.71 0 0 0-.703-.703.684.684 0 0 0-.688.687c0 .422.344.703.688.703a.706.706 0 0 0 .703-.687ZM.516-6.172v.422c.921 0 1.046.078 1.046.781v3.907c0 .64-.156.64-1.093.64V0c.406-.031 1.094-.031 1.515-.031.157 0 .985 0 1.47.031v-.422c-.923 0-.985-.062-.985-.625v-5.281Zm0 0"/><path id="k" d="M2.406-5.766h2.031v-.421h-2.03v-2.641h-.313c-.016 1.36-.531 2.734-1.828 2.781v.281h1.218v3.985C1.484-.188 2.531.14 3.297.14c.906 0 1.375-.891 1.375-1.922v-.813h-.313v.781c0 1.032-.421 1.641-.968 1.641-.985 0-.985-1.328-.985-1.578Zm0 0"/><path id="l" d="M4.703-6.063c0-.265 0-.328-.14-.328-.11 0-.391.313-.485.438-.453-.36-.89-.438-1.36-.438-1.734 0-2.25.938-2.25 1.735 0 .156 0 .656.548 1.156.468.406.953.5 1.609.625.781.156.969.203 1.328.5.266.203.453.531.453.922 0 .625-.36 1.312-1.625 1.312-.937 0-1.64-.546-1.953-1.984-.047-.25-.047-.266-.062-.281C.734-2.47.672-2.47.625-2.47c-.156 0-.156.078-.156.328v1.954c0 .265 0 .328.14.328.079 0 .094-.016.344-.313.063-.094.063-.125.281-.36.547.673 1.313.673 1.563.673 1.5 0 2.25-.829 2.25-1.97 0-.765-.469-1.234-.594-1.359-.516-.437-.906-.53-1.86-.703-.421-.078-1.468-.28-1.468-1.14 0-.453.297-1.11 1.594-1.11 1.562 0 1.64 1.329 1.672 1.782.015.109.109.109.156.109.156 0 .156-.063.156-.328Zm0 0"/><path id="m" d="M4.047-3.578c0-1.078-.14-2.86-.953-4.531C2.25-9.83 1.078-10.75.922-10.75c-.063 0-.14.016-.14.11 0 .046 0 .062.25.312 1.437 1.453 2.234 3.812 2.234 6.75 0 2.781-.672 5.172-2.329 6.86-.156.124-.156.155-.156.202 0 .094.078.11.14.11.188 0 1.36-1.031 2.063-2.438.735-1.453 1.063-3 1.063-4.734Zm0 0"/><path id="o" d="M11.078-5.531c.25 0 .516 0 .516-.282 0-.312-.297-.312-.594-.312H1.375c-.297 0-.578 0-.578.313 0 .28.25.28.515.28ZM11-2.47c.297 0 .594 0 .594-.297 0-.296-.266-.296-.516-.296H1.313c-.266 0-.516 0-.516.296 0 .297.281.297.578.297Zm0 0"/><path id="p" d="M2.86-.703a.69.69 0 0 0-.704-.703.7.7 0 0 0-.703.703.7.7 0 0 0 .703.703.71.71 0 0 0 .703-.703Zm0 0"/></defs><path fill="none" stroke="#000" stroke-miterlimit="10" stroke-width=".399" d="M14.371 40.203h164.86V14.371H14.37ZM39.36 14.371v25.832m25.188-25.832v25.832M89.73 14.371v25.832m59.06-25.832v25.832"/><use xlink:href="#a" x="19.635" y="31.591"/><use xlink:href="#b" x="27.944" y="34.173"/><use xlink:href="#a" x="44.821" y="31.591"/><use xlink:href="#c" x="53.13" y="34.173"/><use xlink:href="#a" x="70.007" y="31.591"/><use xlink:href="#d" x="78.316" y="34.173"/><use xlink:href="#e" x="109.366" y="28.124"/><use xlink:href="#e" x="116.924" y="28.124"/><use xlink:href="#e" x="124.464" y="28.124"/><use xlink:href="#a" x="154.25" y="31.591"/><use xlink:href="#c" x="162.558" y="34.173"/><use xlink:href="#d" x="168.013" y="34.173"/><use xlink:href="#f" x="70.618" y="59.457"/><use xlink:href="#g" x="76.081" y="59.457"/><use xlink:href="#h" x="83.105" y="59.457"/><use xlink:href="#i" x="94.806" y="59.457"/><use xlink:href="#j" x="102.61" y="59.457"/><use xlink:href="#k" x="106.512" y="59.457"/><use xlink:href="#l" x="111.975" y="59.457"/><use xlink:href="#m" x="117.516" y="59.457"/><use xlink:href="#n" x="32.62" y="88.773"/><use xlink:href="#o" x="51.07" y="88.773"/><use xlink:href="#p" x="68.661" y="88.773"/><use xlink:href="#a" x="72.957" y="88.773"/><use xlink:href="#b" x="81.266" y="91.356"/><use xlink:href="#a" x="87.219" y="88.773"/><use xlink:href="#c" x="95.527" y="91.356"/><use xlink:href="#a" x="101.48" y="88.773"/><use xlink:href="#d" x="109.789" y="91.356"/><use xlink:href="#e" x="118.611" y="88.773"/><use xlink:href="#e" x="126.169" y="88.773"/><use xlink:href="#e" x="133.709" y="88.773"/><use xlink:href="#a" x="141.266" y="88.773"/><use xlink:href="#c" x="149.574" y="91.356"/><use xlink:href="#d" x="155.029" y="91.356"/></svg>