<svg xmlns="http://www.w3.org/2000/svg" xmlns:xlink="http://www.w3.org/1999/xlink" width="297.017" height="107.296"><defs><path id="a" d="M4.578-11c0-.36-.016-.375-.25-.375-.672.797-1.687 1.063-2.656 1.094-.047 0-.14 0-.156.031-.016.047-.016.078-.016.438.531 0 1.422-.11 2.11-.516v9.078c0 .594-.032.797-1.516.797h-.516V0a135.04 135.04 0 0 1 2.516-.031c.828 0 1.687.015 2.515.031v-.453h-.515c-1.485 0-1.516-.188-1.516-.797Zm0 0"/><path id="b" d="M7.234-5.531c0-1.047-.015-2.844-.75-4.219-.625-1.203-1.64-1.625-2.546-1.625-.829 0-1.876.375-2.532 1.61C.72-8.47.656-6.876.656-5.532c0 .984.016 2.484.547 3.797C1.953.03 3.266.28 3.937.28c.797 0 2-.328 2.704-1.969.515-1.187.593-2.578.593-3.843ZM3.938 0c-1.094 0-1.75-.953-1.985-2.25-.203-1.016-.203-2.5-.203-3.469 0-1.328 0-2.422.234-3.468.329-1.47 1.282-1.922 1.954-1.922.718 0 1.624.468 1.953 1.875.218.984.234 2.14.234 3.515 0 1.125 0 2.5-.203 3.516C5.562-.328 4.547 0 3.938 0Zm0 0"/><path id="l" d="M11.078-5.531c.25 0 .516 0 .516-.282 0-.312-.297-.312-.594-.312H1.375c-.297 0-.578 0-.578.313 0 .28.25.28.515.28ZM11-2.47c.297 0 .594 0 .594-.297 0-.296-.266-.296-.516-.296H1.313c-.266 0-.516 0-.516.296 0 .297.281.297.578.297Zm0 0"/><path id="m" d="M7.188-2.672h-.313c-.172 1.219-.313 1.438-.39 1.531C6.405-1 5.171-1 4.921-1H1.625c.61-.672 1.813-1.89 3.281-3.313 1.047-.984 2.282-2.156 2.282-3.859 0-2.031-1.625-3.203-3.438-3.203-1.89 0-3.047 1.656-3.047 3.219 0 .672.5.75.703.75.172 0 .688-.094.688-.703 0-.532-.438-.688-.688-.688a.673.673 0 0 0-.265.047c.328-1.453 1.328-2.188 2.375-2.188 1.5 0 2.468 1.188 2.468 2.766 0 1.485-.875 2.781-1.859 3.906L.703-.39V0h6.063Zm0 0"/><path id="n" d="M4.688-6.203c1.078-.547 2.187-1.375 2.187-2.703 0-1.563-1.516-2.469-2.922-2.469-1.562 0-2.937 1.125-2.937 2.703 0 .422.109 1.172.78 1.813.173.171.891.687 1.36 1.015C2.375-5.437.562-4.5.562-2.594.563-.828 2.25.281 3.922.281c1.844 0 3.39-1.328 3.39-3.094 0-1.562-1.046-2.28-1.734-2.75ZM2.421-7.72c-.125-.078-.828-.61-.828-1.422 0-1.046 1.093-1.843 2.328-1.843 1.36 0 2.36.968 2.36 2.078 0 1.61-1.782 2.515-1.876 2.515-.015 0-.031 0-.172-.093Zm3.172 3.532c.265.187 1.093.765 1.093 1.812 0 1.266-1.28 2.234-2.734 2.234-1.562 0-2.75-1.109-2.75-2.484 0-1.36 1.047-2.484 2.234-3.016Zm0 0"/><path id="c" d="M3.172-.828c0-.5-.422-.844-.828-.844-.5 0-.844.422-.844.828a.837.837 0 0 0 1.672.016Zm0 0"/><path id="k" d="M11.969-4c.015-.047.062-.172.062-.234 0-.094-.062-.172-.172-.172-.062 0-.093.015-.156.062-.031.016-.031.063-.187.407C10.5-1.531 9.766-.5 7.016-.5H4.5c-.25 0-.281 0-.39-.016-.188-.015-.204-.046-.204-.187 0-.125.031-.235.078-.375l1.188-4.766h1.703c1.344 0 1.438.297 1.438.813 0 .172 0 .328-.11.843A.373.373 0 0 0 8.141-4c0 .125.093.172.187.172.156 0 .172-.11.25-.36l.985-3.984a.173.173 0 0 0-.172-.172c-.157 0-.172.063-.25.297-.344 1.328-.688 1.703-2.22 1.703h-1.64l1.078-4.234c.157-.594.188-.656.891-.656h2.469c2.11 0 2.547.578 2.547 1.89 0 .016 0 .5-.079 1.063a1.3 1.3 0 0 0-.03.203c0 .14.093.187.187.187.125 0 .187-.062.219-.375l.374-3.015c0-.047.032-.219.032-.25 0-.188-.156-.188-.469-.188H4.094c-.328 0-.5 0-.5.297 0 .188.125.188.422.188 1.062 0 1.062.125 1.062.312 0 .094-.016.156-.062.344L2.687-1.281c-.156.61-.187.781-1.39.781-.328 0-.5 0-.5.313C.797 0 .89 0 1.234 0h8.657c.375 0 .39-.016.515-.297Zm0 0"/><path id="q" d="M5.11-5.61h1.656c1.312 0 1.406.282 1.406.782 0 .234-.031.469-.11.844-.03.078-.062.156-.062.203 0 .11.078.187.203.187s.14-.078.219-.344l1-4.015a.173.173 0 0 0-.172-.172c-.156 0-.172.063-.25.36C8.64-6.47 8.297-6.11 6.797-6.11H5.234l1.125-4.47c.157-.593.188-.655.891-.655h2.313c2.14 0 2.453.64 2.453 1.875 0 .093 0 .468-.047.921a2.829 2.829 0 0 0-.047.36c0 .14.078.187.187.187.11 0 .188-.062.22-.375l.358-3.015c0-.047.032-.219.032-.25 0-.188-.156-.188-.453-.188H4.094c-.328 0-.5 0-.5.297 0 .188.125.188.422.188 1.062 0 1.062.125 1.062.312 0 .094-.016.156-.062.344L2.687-1.281c-.156.61-.187.781-1.39.781-.328 0-.5 0-.5.313 0 .187.156.187.25.187.328 0 .672-.031 1-.031H4.28c.39 0 .797.031 1.172.031.156 0 .36 0 .36-.313 0-.187-.094-.187-.47-.187-1.359 0-1.405-.125-1.405-.375 0-.094.046-.234.078-.344Zm0 0"/><path id="d" d="M4.656 3.484c0-.046 0-.078-.234-.312-1.438-1.453-2.234-3.813-2.234-6.75 0-2.781.671-5.172 2.328-6.86.14-.14.14-.156.14-.203 0-.093-.062-.109-.125-.109-.187 0-1.36 1.031-2.062 2.438-.735 1.437-1.063 2.984-1.063 4.734 0 1.281.203 2.984.953 4.531.844 1.719 2.016 2.64 2.172 2.64.063 0 .125-.015.125-.109Zm0 0"/><path id="e" d="M4.281-5.172c.703-.39 1.75-1.047 1.75-2.266 0-1.234-1.203-2.093-2.515-2.093-1.422 0-2.547 1.047-2.547 2.344 0 .484.156.984.547 1.468.156.188.171.203 1.187.907-1.39.64-2.11 1.593-2.11 2.64C.594-.64 2.032.297 3.5.297c1.594 0 2.922-1.172 2.922-2.672 0-1.469-1.031-2.11-2.14-2.797ZM2.328-6.469c-.187-.125-.765-.5-.765-1.203 0-.937.968-1.516 1.937-1.516 1.031 0 1.953.735 1.953 1.766 0 .875-.64 1.578-1.469 2.047ZM3-4.625l1.734 1.14c.375.25 1.032.688 1.032 1.563 0 1.094-1.11 1.828-2.25 1.828-1.22 0-2.266-.875-2.266-2.078 0-1.11.813-2.015 1.75-2.453Zm0 0"/><path id="f" d="m2.39-9.953-1.984.156v.422c.969 0 1.078.094 1.078.797V0h.329c.046-.11.453-.828.515-.938.328.532.938 1.079 1.86 1.079C5.843.14 7.28-1.25 7.28-3.094c0-1.828-1.343-3.234-2.937-3.234-.782 0-1.453.36-1.953.969Zm.032 5.36c0-.25 0-.282.156-.516.344-.516.985-.922 1.688-.922.421 0 1.937.172 1.937 2.922 0 .953-.156 1.562-.5 2.078-.281.437-.86.89-1.578.89-.766 0-1.266-.5-1.516-.89-.187-.297-.187-.36-.187-.61Zm0 0"/><path id="g" d="M2.5-8.828a.71.71 0 0 0-.703-.703.684.684 0 0 0-.688.687c0 .422.344.703.688.703a.706.706 0 0 0 .703-.687ZM.516-6.172v.422c.921 0 1.046.078 1.046.781v3.907c0 .64-.156.64-1.093.64V0c.406-.031 1.094-.031 1.515-.031.157 0 .985 0 1.47.031v-.422c-.923 0-.985-.062-.985-.625v-5.281Zm0 0"/><path id="h" d="M2.406-5.766h2.031v-.421h-2.03v-2.641h-.313c-.016 1.36-.531 2.734-1.828 2.781v.281h1.218v3.985C1.484-.188 2.531.14 3.297.14c.906 0 1.375-.891 1.375-1.922v-.813h-.313v.781c0 1.032-.421 1.641-.968 1.641-.985 0-.985-1.328-.985-1.578Zm0 0"/><path id="i" d="M4.703-6.063c0-.265 0-.328-.14-.328-.11 0-.391.313-.485.438-.453-.36-.89-.438-1.36-.438-1.734 0-2.25.938-2.25 1.735 0 .156 0 .656.548 1.156.468.406.953.5 1.609.625.781.156.969.203 1.328.5.266.203.453.531.453.922 0 .625-.36 1.312-1.625 1.312-.937 0-1.64-.546-1.953-1.984-.047-.25-.047-.266-.062-.281C.734-2.47.672-2.47.625-2.47c-.156 0-.156.078-.156.328v1.954c0 .265 0 .328.14.328.079 0 .094-.016.344-.313.063-.094.063-.125.281-.36.547.673 1.313.673 1.563.673 1.5 0 2.25-.829 2.25-1.97 0-.765-.469-1.234-.594-1.359-.516-.437-.906-.53-1.86-.703-.421-.078-1.468-.28-1.468-1.14 0-.453.297-1.11 1.594-1.11 1.562 0 1.64 1.329 1.672 1.782.015.109.109.109.156.109.156 0 .156-.063.156-.328Zm0 0"/><path id="j" d="M4.047-3.578c0-1.078-.14-2.86-.953-4.531C2.25-9.83 1.078-10.75.922-10.75c-.063 0-.14.016-.14.11 0 .046 0 .062.25.312 1.437 1.453 2.234 3.812 2.234 6.75 0 2.781-.672 5.172-2.329 6.86-.156.124-.156.155-.156.202 0 .094.078.11.14.11.188 0 1.36-1.031 2.063-2.438.735-1.453 1.063-3 1.063-4.734Zm0 0"/><path id="o" d="M6.313-2.406H6c-.047.234-.156 1.031-.313 1.265-.093.125-.906.125-1.343.125H1.687c.391-.328 1.266-1.25 1.641-1.593 2.188-2.016 2.985-2.75 2.985-4.172 0-1.657-1.313-2.75-2.97-2.75-1.671 0-2.64 1.406-2.64 2.64 0 .735.625.735.672.735.297 0 .672-.219.672-.672 0-.406-.266-.672-.672-.672-.125 0-.156 0-.203.016.281-.985 1.047-1.641 1.984-1.641 1.219 0 1.969 1.016 1.969 2.344 0 1.218-.703 2.281-1.531 3.203L.704-.344V0h5.234Zm0 0"/><path id="p" d="M2.64-5.156c-.25.015-.296.031-.296.172 0 .14.062.14.328.14h.656c1.219 0 1.766 1 1.766 2.375 0 1.875-.985 2.375-1.688 2.375-.687 0-1.86-.328-2.265-1.265.453.062.875-.188.875-.704a.681.681 0 0 0-.704-.703c-.343 0-.718.204-.718.75C.594-.75 1.859.297 3.454.297 5.155.297 6.421-1 6.421-2.453c0-1.313-1.063-2.36-2.438-2.594 1.25-.36 2.047-1.406 2.047-2.531 0-1.125-1.172-1.953-2.562-1.953-1.438 0-2.5.875-2.5 1.922 0 .562.453.687.672.687.296 0 .64-.219.64-.656 0-.453-.344-.656-.656-.656-.094 0-.125 0-.156.015.547-.969 1.89-.969 1.953-.969.484 0 1.406.204 1.406 1.61 0 .281-.031 1.078-.453 1.703-.438.625-.922.672-1.313.688Zm0 0"/></defs><path fill="none" stroke="#000" stroke-miterlimit="10" stroke-width=".399" d="M14.371 35.996h268.277V14.371H14.371Zm18.621-21.625v21.625m18.82-21.625v21.625m18.82-21.625v21.625m18.821-21.625v21.625m59.055-21.625v21.625m18.82-21.625v21.625m18.82-21.625v21.625m18.82-21.625v21.625m18.821-21.625v21.625"/><use xlink:href="#a" x="19.635" y="30.732"/><use xlink:href="#a" x="38.455" y="30.732"/><use xlink:href="#b" x="57.275" y="30.732"/><use xlink:href="#b" x="76.095" y="30.732"/><use xlink:href="#c" x="109.088" y="26.021"/><use xlink:href="#c" x="116.646" y="26.021"/><use xlink:href="#c" x="124.186" y="26.021"/><use xlink:href="#b" x="153.971" y="30.732"/><use xlink:href="#a" x="172.791" y="30.732"/><use xlink:href="#a" x="191.611" y="30.732"/><use xlink:href="#b" x="210.43" y="30.732"/><use xlink:href="#c" x="243.423" y="26.021"/><use xlink:href="#c" x="250.981" y="26.021"/><use xlink:href="#c" x="258.521" y="26.021"/><path d="M32.715 39.168c.746 1.496 2.77 2.977 5.258 2.977.824 0 .824-1.247 0-1.247-2.489 0-3.957-.511-4.703-2.007-.184-.368-.739-.09-.555.277M91.027 43.871c-.746-1.492-2.77-2.973-5.257-2.973-.825 0-.825 1.247 0 1.247 2.488 0 3.957.511 4.703 2.003.183.372.738.09.554-.277"/><path fill="none" stroke="#000" stroke-miterlimit="10" stroke-width="1.245" d="M37.973 41.52H85.77"/><path d="M91.027 44.148c.75-1.492 2.215-2.003 4.703-2.003.825 0 .825-1.247 0-1.247-2.488 0-4.511 1.48-5.257 2.973-.184.367.37.649.554.277M148.23 38.89c-.746 1.497-2.21 2.008-4.703 2.008-.82 0-.82 1.247 0 1.247 2.493 0 4.512-1.48 5.262-2.977.184-.367-.375-.645-.559-.277"/><path fill="none" stroke="#000" stroke-miterlimit="10" stroke-width="1.245" d="M95.73 41.52h47.797"/><use xlink:href="#d" x="68.08" y="61.344"/><use xlink:href="#e" x="73.543" y="61.344"/><use xlink:href="#f" x="85.244" y="61.344"/><use xlink:href="#g" x="93.048" y="61.344"/><use xlink:href="#h" x="96.95" y="61.344"/><use xlink:href="#i" x="102.413" y="61.344"/><use xlink:href="#j" x="107.954" y="61.344"/><use xlink:href="#k" x="61.186" y="87.86"/><use xlink:href="#l" x="79.455" y="87.86"/><use xlink:href="#a" x="96.633" y="87.86"/><use xlink:href="#m" x="104.528" y="87.86"/><use xlink:href="#n" x="112.422" y="87.86"/><path d="M148.23 39.168c.747 1.496 2.77 2.977 5.262 2.977.82 0 .82-1.247 0-1.247-2.492 0-3.957-.511-4.703-2.007-.184-.368-.742-.09-.559.277M215.957 43.871c-.75-1.492-2.77-2.973-5.262-2.973-.82 0-.82 1.247 0 1.247 2.493 0 3.957.511 4.703 2.003.184.372.743.09.559-.277"/><path fill="none" stroke="#000" stroke-miterlimit="10" stroke-width="1.245" d="M153.492 41.52h57.203"/><path d="M215.957 44.148c.746-1.492 2.211-2.003 4.703-2.003.82 0 .82-1.247 0-1.247-2.492 0-4.515 1.48-5.262 2.973-.183.367.375.649.559.277M282.566 38.89c-.746 1.497-2.21 2.008-4.703 2.008-.82 0-.82 1.247 0 1.247 2.492 0 4.516-1.48 5.262-2.977.184-.367-.375-.645-.559-.277"/><path fill="none" stroke="#000" stroke-miterlimit="10" stroke-width="1.245" d="M220.66 41.52h57.203"/><use xlink:href="#d" x="189.494" y="61.344"/><use xlink:href="#o" x="194.957" y="61.344"/><use xlink:href="#p" x="201.981" y="61.344"/><use xlink:href="#f" x="213.682" y="61.344"/><use xlink:href="#g" x="221.486" y="61.344"/><use xlink:href="#h" x="225.388" y="61.344"/><use xlink:href="#i" x="230.851" y="61.344"/><use xlink:href="#j" x="236.392" y="61.344"/><use xlink:href="#q" x="183.888" y="87.86"/><use xlink:href="#l" x="201.923" y="87.86"/><use xlink:href="#c" x="219.097" y="87.86"/><use xlink:href="#b" x="223.779" y="87.86"/><use xlink:href="#a" x="231.674" y="87.86"/><use xlink:href="#a" x="239.569" y="87.86"/></svg>