<svg xmlns="http://www.w3.org/2000/svg" xmlns:xlink="http://www.w3.org/1999/xlink" width="241.36" height="86.359"><defs><path id="a" d="M3.438-7.656c0-.282 0-.297-.235-.297-.281.328-.89.766-2.11.766v.343c.266 0 .86 0 1.532-.297v6.22c0 .437-.047.577-1.094.577h-.375V0c.328-.031 1.485-.031 1.875-.031.406 0 1.547 0 1.875.031v-.344h-.375c-1.047 0-1.093-.14-1.093-.578Zm0 0"/><path id="b" d="M5.36-3.828c0-.985-.063-1.953-.5-2.86-.485-1-1.344-1.265-1.938-1.265-.688 0-1.531.344-1.985 1.344-.328.75-.453 1.5-.453 2.78 0 1.157.094 2.032.516 2.892A2.132 2.132 0 0 0 2.922.25c1.031 0 1.625-.625 1.984-1.313.422-.89.453-2.062.453-2.765ZM2.921.016c-.39 0-1.172-.22-1.39-1.516-.126-.719-.126-1.625-.126-2.469 0-.984 0-1.86.188-2.562.203-.813.812-1.172 1.328-1.172.453 0 1.14.266 1.375 1.297.156.687.156 1.625.156 2.437 0 .797 0 1.703-.14 2.438C4.093-.22 3.328.016 2.921.016Zm0 0"/><path id="l" d="M8.063-3.875c.171 0 .39 0 .39-.219 0-.218-.203-.218-.39-.218H1.03c-.172 0-.39 0-.39.218 0 .219.203.219.39.219Zm0 2.219c.171 0 .39 0 .39-.203 0-.235-.203-.235-.39-.235H1.03c-.172 0-.39 0-.39.219s.203.219.39.219Zm0 0"/><path id="m" d="M5.266-2.016H5c-.047.204-.14.875-.25 1.063-.094.11-.766.11-1.125.11H1.406c.328-.282 1.063-1.048 1.36-1.329 1.828-1.672 2.5-2.297 2.5-3.484 0-1.375-1.094-2.297-2.485-2.297-1.375 0-2.203 1.187-2.203 2.219 0 .609.531.609.563.609.265 0 .562-.188.562-.563 0-.343-.219-.562-.562-.562-.094 0-.125 0-.157.016.22-.813.875-1.375 1.641-1.375 1.016 0 1.64.859 1.64 1.953 0 1.015-.577 1.906-1.265 2.672L.578-.281V0h4.375Zm0 0"/><path id="n" d="M3.563-4.313c.593-.328 1.468-.875 1.468-1.875 0-1.046-1-1.765-2.11-1.765-1.171 0-2.108.875-2.108 1.969 0 .406.125.812.453 1.218.14.157.14.157.984.75C1.094-3.484.484-2.672.484-1.812.484-.532 1.704.25 2.922.25c1.328 0 2.437-.984 2.437-2.234 0-1.22-.859-1.75-1.796-2.329ZM1.937-5.39c-.156-.109-.64-.421-.64-1 0-.78.812-1.265 1.625-1.265.86 0 1.625.61 1.625 1.468 0 .735-.531 1.329-1.219 1.704ZM2.5-3.844l1.438.938c.312.203.874.578.874 1.297 0 .921-.921 1.53-1.89 1.53-1.016 0-1.875-.734-1.875-1.734 0-.921.672-1.671 1.453-2.03Zm0 0"/><path id="c" d="M2.203-.578a.586.586 0 0 0-.578-.578.576.576 0 0 0-.578.578c0 .344.281.578.562.578a.59.59 0 0 0 .594-.578Zm0 0"/><path id="k" d="M8.313-2.766c0-.046.046-.125.046-.171a.123.123 0 0 0-.125-.126.142.142 0 0 0-.109.047c-.016.016-.016.047-.125.282-.703 1.671-1.219 2.39-3.14 2.39H3.124c-.172 0-.203 0-.266-.015-.14-.016-.14-.032-.14-.125 0-.094.015-.157.047-.266l.812-3.297h1.188c.937 0 1 .203 1 .563 0 .109 0 .218-.079.578-.015.047-.03.094-.03.14 0 .079.062.11.124.11.11 0 .125-.078.172-.25l.688-2.766a.123.123 0 0 0-.125-.125c-.11 0-.125.047-.172.219-.235.922-.469 1.172-1.532 1.172h-1.14l.734-2.938c.11-.406.14-.453.625-.453h1.703c1.485 0 1.782.39 1.782 1.313 0 0 0 .343-.047.734a.793.793 0 0 0-.031.14c0 .094.062.141.14.141.078 0 .125-.047.14-.265l.266-2.094c0-.031.016-.156.016-.188 0-.125-.11-.125-.328-.125H2.844c-.219 0-.344 0-.344.22 0 .124.078.124.281.124.75 0 .75.094.75.219 0 .062-.015.11-.047.234L1.86-.89c-.109.422-.125.547-.968.547-.22 0-.344 0-.344.219C.547 0 .625 0 .859 0h6c.266 0 .282-.016.36-.203Zm0 0"/><path id="q" d="M3.547-3.89h1.156c.906 0 .969.203.969.546 0 .156-.016.313-.078.578-.032.047-.032.11-.032.141 0 .078.047.125.125.125.094 0 .11-.047.157-.234l.687-2.782c0-.046-.031-.125-.11-.125-.109 0-.124.047-.171.25C6-4.5 5.766-4.25 4.719-4.25H3.64l.765-3.094c.11-.406.14-.453.625-.453h1.61c1.484 0 1.703.453 1.703 1.297 0 .063 0 .328-.031.64a1.407 1.407 0 0 0-.047.25c0 .094.062.141.14.141.078 0 .125-.047.156-.265l.25-2.094c0-.031.016-.156.016-.188 0-.125-.11-.125-.312-.125H2.844c-.219 0-.344 0-.344.22 0 .124.078.124.281.124.75 0 .75.094.75.219 0 .062-.015.11-.047.234L1.86-.89c-.109.422-.125.547-.968.547-.22 0-.344 0-.344.219C.547 0 .657 0 .734 0c.22 0 .454-.031.688-.031h1.547c.265 0 .562.031.828.031.094 0 .25 0 .25-.219 0-.125-.078-.125-.344-.125-.937 0-.969-.094-.969-.265 0-.063.032-.157.047-.235Zm0 0"/><path id="d" d="M3.61 2.625c0-.047 0-.063-.188-.25C2.062 1 1.719-1.063 1.719-2.719c0-1.906.406-3.797 1.75-5.172.14-.125.14-.14.14-.187 0-.063-.046-.094-.109-.094-.11 0-1.094.735-1.734 2.125-.563 1.188-.688 2.406-.688 3.328 0 .844.125 2.156.719 3.39C2.453 2.017 3.39 2.72 3.5 2.72c.063 0 .11-.031.11-.094Zm0 0"/><path id="e" d="M1.781-4.984c-.5-.329-.547-.704-.547-.891 0-.656.704-1.11 1.485-1.11.797 0 1.484.563 1.484 1.344 0 .625-.422 1.141-1.078 1.532Zm1.594 1.03c.781-.405 1.313-.968 1.313-1.687 0-1-.97-1.625-1.97-1.625-1.077 0-1.968.813-1.968 1.829 0 .187.031.687.484 1.187.125.14.516.406.797.594-.64.312-1.578.937-1.578 2.015C.453-.484 1.578.234 2.72.234c1.234 0 2.265-.906 2.265-2.062 0-.39-.125-.89-.53-1.344-.204-.234-.391-.344-1.079-.781Zm-1.094.47 1.344.843c.297.204.813.532.813 1.204 0 .812-.813 1.375-1.72 1.375C1.782-.063 1-.735 1-1.641c0-.64.36-1.343 1.281-1.843Zm0 0"/><path id="f" d="M1.875-4.11v-3.452l-1.563.109v.344c.75 0 .844.078.844.609V0h.266c.016-.016.11-.156.406-.672.156.25.61.797 1.422.797 1.297 0 2.438-1.078 2.438-2.484 0-1.375-1.079-2.47-2.313-2.47-.86 0-1.328.516-1.5.72Zm.031 2.86v-2.234c0-.22 0-.22.125-.391a1.528 1.528 0 0 1 1.281-.703c.5 0 .891.281 1.141.703.297.438.328 1.063.328 1.516 0 .39-.031 1.046-.343 1.546-.235.329-.641.688-1.235.688-.484 0-.875-.25-1.14-.656-.157-.235-.157-.266-.157-.469Zm0 0"/><path id="g" d="m1.938-4.828-1.532.125v.344c.703 0 .797.062.797.593v2.938c0 .484-.11.484-.844.484V0c.344-.016.938-.031 1.204-.031.375 0 .765.015 1.125.031v-.344c-.72 0-.75-.047-.75-.469Zm.03-1.89a.567.567 0 0 0-.577-.579c-.329 0-.579.297-.579.578 0 .297.25.578.579.578a.567.567 0 0 0 .578-.578Zm0 0"/><path id="h" d="M1.89-4.36h1.563v-.343H1.891v-2h-.282c0 .89-.328 2.062-1.406 2.094v.25h.938v3C1.14-.016 2.156.125 2.547.125c.765 0 1.078-.781 1.078-1.484v-.61h-.281v.594c0 .813-.328 1.219-.719 1.219-.734 0-.734-.985-.734-1.172Zm0 0"/><path id="i" d="M2.266-2.11c.25.032 1.14.22 1.14 1 0 .548-.39.985-1.234.985-.922 0-1.313-.61-1.516-1.547C.625-1.812.61-1.859.5-1.859c-.14 0-.14.078-.14.28V-.14c0 .188 0 .266.124.266.047 0 .063-.016.266-.219.031-.031.031-.047.219-.25.484.453.969.469 1.203.469 1.25 0 1.75-.734 1.75-1.516 0-.578-.328-.906-.453-1.046-.36-.344-.781-.438-1.25-.516C1.609-3.078.89-3.22.89-3.843c0-.391.28-.829 1.218-.829 1.188 0 1.25.969 1.266 1.313.016.093.11.093.14.093.141 0 .141-.046.141-.25v-1.109c0-.188 0-.266-.125-.266-.047 0-.078 0-.219.141-.03.031-.14.14-.187.172-.406-.313-.86-.313-1.016-.313-1.328 0-1.75.735-1.75 1.344 0 .39.172.688.47.922.343.297.655.36 1.437.516Zm0 0"/><path id="j" d="M3.156-2.719c0-.86-.125-2.172-.719-3.406C1.781-7.469.845-8.172.734-8.172c-.062 0-.109.031-.109.094 0 .047 0 .062.203.265C1.891-6.734 2.516-5 2.516-2.718c0 1.86-.407 3.781-1.75 5.156-.141.126-.141.141-.141.188 0 .063.047.094.11.094.109 0 1.093-.735 1.734-2.125.547-1.188.687-2.406.687-3.313Zm0 0"/><path id="o" d="m1.39-.844 1.157-1.125C4.25-3.469 4.89-4.062 4.89-5.14c0-1.25-.97-2.125-2.313-2.125-1.219 0-2.031 1-2.031 1.97 0 .624.547.624.578.624.188 0 .563-.14.563-.578 0-.297-.188-.578-.579-.578-.078 0-.109 0-.14.016.25-.704.844-1.11 1.469-1.11 1 0 1.468.875 1.468 1.781 0 .86-.547 1.735-1.14 2.407L.672-.406C.547-.281.547-.266.547 0h4.047l.297-1.89h-.266c-.063.312-.125.796-.234.968-.079.078-.797.078-1.047.078Zm0 0"/><path id="p" d="M3.156-3.844c.906-.297 1.531-1.047 1.531-1.922 0-.89-.953-1.5-2-1.5C1.579-7.266.75-6.609.75-5.78c0 .36.25.562.563.562a.525.525 0 0 0 .546-.547c0-.546-.5-.546-.671-.546.343-.532 1.062-.672 1.453-.672.453 0 1.046.234 1.046 1.218 0 .125-.015.766-.312 1.235-.328.531-.688.562-.969.578-.078 0-.344.031-.422.031-.093 0-.156.016-.156.125 0 .125.063.125.25.125h.485c.89 0 1.296.735 1.296 1.813 0 1.484-.75 1.796-1.234 1.796-.469 0-1.281-.187-1.672-.828.39.047.719-.187.719-.609 0-.39-.281-.61-.61-.61-.25 0-.609.157-.609.641C.453-.484 1.47.234 2.656.234c1.328 0 2.328-.984 2.328-2.093 0-.907-.687-1.75-1.828-1.985Zm0 0"/></defs><path fill="none" stroke="#000" stroke-miterlimit="10" stroke-width=".399" d="M14.371 29.879h212.617V14.37H14.371ZM28.227 14.37V29.88M42.28 14.37V29.88M56.336 14.37V29.88M70.39 14.37V29.88M120.68 14.37V29.88m14.054-15.508V29.88M148.79 14.37V29.88m14.055-15.508V29.88m14.054-15.508V29.88"/><use xlink:href="#a" x="18.274" y="25.978"/><use xlink:href="#a" x="32.329" y="25.978"/><use xlink:href="#b" x="46.383" y="25.978"/><use xlink:href="#b" x="60.438" y="25.978"/><use xlink:href="#c" x="88.666" y="22.707"/><use xlink:href="#c" x="93.914" y="22.707"/><use xlink:href="#c" x="99.151" y="22.707"/><use xlink:href="#b" x="124.781" y="25.978"/><use xlink:href="#a" x="138.835" y="25.978"/><use xlink:href="#a" x="152.89" y="25.978"/><use xlink:href="#b" x="166.944" y="25.978"/><use xlink:href="#c" x="195.172" y="22.707"/><use xlink:href="#c" x="200.42" y="22.707"/><use xlink:href="#c" x="205.657" y="22.707"/><path d="M27.95 33.055c.745 1.492 2.769 2.972 5.257 2.972.824 0 .824-1.246 0-1.246-2.488 0-3.953-.511-4.703-2.008-.184-.367-.738-.09-.555.282M74.73 37.758c-.746-1.496-2.77-2.977-5.257-2.977-.825 0-.825 1.246 0 1.246 2.488 0 3.957.512 4.703 2.008.183.367.738.09.554-.277"/><path fill="none" stroke="#000" stroke-miterlimit="10" stroke-width="1.245" d="M33.207 35.406h36.266"/><path d="M74.73 38.035c.75-1.496 2.215-2.008 4.704-2.008.824 0 .824-1.246 0-1.246-2.489 0-4.512 1.48-5.258 2.977-.184.367.37.644.554.277M120.402 32.773c-.746 1.497-2.215 2.008-4.703 2.008-.824 0-.824 1.246 0 1.246 2.489 0 4.512-1.48 5.258-2.972.184-.371-.371-.649-.555-.282"/><path fill="none" stroke="#000" stroke-miterlimit="10" stroke-width="1.245" d="M79.434 35.406h36.265"/><use xlink:href="#d" x="56.848" y="51.289"/><use xlink:href="#e" x="61.091" y="51.289"/><use xlink:href="#f" x="70.178" y="51.289"/><use xlink:href="#g" x="76.239" y="51.289"/><use xlink:href="#h" x="79.269" y="51.289"/><use xlink:href="#i" x="83.512" y="51.289"/><use xlink:href="#j" x="87.815" y="51.289"/><use xlink:href="#k" x="53.118" y="68.284"/><use xlink:href="#l" x="65.805" y="68.284"/><use xlink:href="#a" x="78.234" y="68.284"/><use xlink:href="#m" x="84.087" y="68.284"/><use xlink:href="#n" x="89.94" y="68.284"/><path d="M120.402 33.055c.746 1.492 2.77 2.972 5.258 2.972.824 0 .824-1.246 0-1.246-2.488 0-3.953-.511-4.703-2.008-.184-.367-.738-.09-.555.282M174.21 37.758c-.745-1.496-2.769-2.977-5.257-2.977-.824 0-.824 1.246 0 1.246 2.488 0 3.957.512 4.703 2.008.184.367.739.09.555-.277"/><path fill="none" stroke="#000" stroke-miterlimit="10" stroke-width="1.245" d="M125.66 35.406h43.293"/><path d="M174.21 38.035c.75-1.496 2.216-2.008 4.704-2.008.824 0 .824-1.246 0-1.246-2.488 0-4.512 1.48-5.258 2.977-.183.367.371.644.555.277M226.91 32.773c-.746 1.497-2.215 2.008-4.703 2.008-.824 0-.824 1.246 0 1.246 2.488 0 4.512-1.48 5.258-2.972.183-.371-.371-.649-.555-.282"/><path fill="none" stroke="#000" stroke-miterlimit="10" stroke-width="1.245" d="M178.914 35.406h43.293"/><use xlink:href="#d" x="153.6" y="51.289"/><use xlink:href="#o" x="157.843" y="51.289"/><use xlink:href="#p" x="163.297" y="51.289"/><use xlink:href="#f" x="172.384" y="51.289"/><use xlink:href="#g" x="178.445" y="51.289"/><use xlink:href="#h" x="181.476" y="51.289"/><use xlink:href="#i" x="185.719" y="51.289"/><use xlink:href="#j" x="190.021" y="51.289"/><use xlink:href="#q" x="151.053" y="68.284"/><use xlink:href="#l" x="163.577" y="68.284"/><use xlink:href="#c" x="176.003" y="68.284"/><use xlink:href="#b" x="179.254" y="68.284"/><use xlink:href="#a" x="185.107" y="68.284"/><use xlink:href="#a" x="190.961" y="68.284"/></svg>