<svg xmlns="http://www.w3.org/2000/svg" xmlns:xlink="http://www.w3.org/1999/xlink" width="195.173" height="303.89"><defs><path id="a" d="M3.438-7.656c0-.282 0-.297-.235-.297-.281.328-.89.766-2.11.766v.343c.266 0 .86 0 1.532-.297v6.22c0 .437-.047.577-1.094.577h-.375V0c.328-.031 1.485-.031 1.875-.031.406 0 1.547 0 1.875.031v-.344h-.375c-1.047 0-1.093-.14-1.093-.578Zm0 0"/><path id="g" d="M2.203-4.578a.587.587 0 0 0-.578-.578.576.576 0 0 0-.578.578c0 .36.297.578.562.578a.58.58 0 0 0 .594-.578Zm0 4a.587.587 0 0 0-.578-.578.567.567 0 0 0-.578.578c0 .344.297.578.562.578a.58.58 0 0 0 .594-.578Zm0 0"/><path id="h" d="M5.266-2.016H5c-.047.204-.14.875-.25 1.063-.094.11-.766.11-1.125.11H1.406c.328-.282 1.063-1.048 1.36-1.329 1.828-1.672 2.5-2.297 2.5-3.484 0-1.375-1.094-2.297-2.485-2.297-1.375 0-2.203 1.187-2.203 2.219 0 .609.531.609.563.609.265 0 .562-.188.562-.563 0-.343-.219-.562-.562-.562-.094 0-.125 0-.157.016.22-.813.875-1.375 1.641-1.375 1.016 0 1.64.859 1.64 1.953 0 1.015-.577 1.906-1.265 2.672L.578-.281V0h4.375Zm0 0"/><path id="i" d="M4.766-2.766h3.296c.172 0 .391 0 .391-.203 0-.234-.203-.234-.39-.234H4.765V-6.5c0-.172 0-.39-.22-.39-.218 0-.218.202-.218.39v3.297H1.031c-.172 0-.39 0-.39.219 0 .218.203.218.39.218h3.297V.531c0 .172 0 .39.219.39s.219-.202.219-.39Zm0 0"/><path id="j" d="M2.203-4.297c-.203.016-.25.031-.25.14 0 .11.063.11.266.11h.547c1.03 0 1.484.844 1.484 1.984 0 1.579-.813 1.985-1.406 1.985-.578 0-1.547-.266-1.906-1.063.39.063.734-.156.734-.578a.571.571 0 0 0-.578-.593c-.297 0-.61.171-.61.624C.484-.625 1.547.25 2.875.25c1.422 0 2.484-1.094 2.484-2.297C5.36-3.14 4.47-4 3.33-4.203 4.358-4.5 5.03-5.375 5.03-6.313c0-.937-.984-1.64-2.14-1.64-1.188 0-2.079.734-2.079 1.61 0 .468.375.577.547.577.25 0 .547-.187.547-.546 0-.375-.297-.547-.562-.547-.063 0-.094 0-.125.015.453-.812 1.578-.812 1.64-.812.391 0 1.172.172 1.172 1.343 0 .235-.031.891-.39 1.407-.36.531-.766.562-1.079.578Zm0 0"/><path id="k" d="M2.328.047c0-.735-.25-1.203-.719-1.203-.343 0-.562.265-.562.578 0 .312.219.578.578.578a.605.605 0 0 0 .39-.14c.032-.032.047-.032.047-.032.032 0 .032.156.032.219 0 .765-.313 1.484-.844 2.031-.047.031-.063.063-.063.11 0 .062.063.124.125.124.11 0 1.016-.89 1.016-2.265Zm0 0"/><path id="b" d="M3.281-7.688h1.344v-.515c-.422.031-1.625.031-2.125.031s-1.703 0-2.125-.031v.515h1.328v7.172H.375V0C.797-.031 2-.031 2.5-.031s1.703 0 2.125.031v-.516H3.281Zm0 0"/><path id="c" d="M6.344-3.656c0-1.14-.485-1.719-1.797-1.719-.86 0-1.61.422-2.016 1.313h-.015v-1.313L.5-5.281v.515c.75 0 .828 0 .828.47v3.78H.5V0c.281-.031 1.14-.031 1.469-.031.343 0 1.203 0 1.484.031v-.516h-.828v-2.546c0-1.282.953-1.922 1.719-1.922.453 0 .703.28.703 1.187v3.281h-.828V0c.281-.031 1.14-.031 1.468-.031.344 0 1.204 0 1.485.031v-.516h-.828Zm0 0"/><path id="d" d="M3.375 1.813h-.828V-.485c.297.25.828.562 1.547.562C5.719.078 7-.922 7-2.672c0-1.64-1.11-2.703-2.719-2.703-.703 0-1.312.234-1.797.625v-.625l-2.062.094v.515c.734 0 .828 0 .828.47v6.109H.422v.5c.266-.016 1.125-.016 1.469-.016.328 0 1.203 0 1.484.015Zm-.828-6a1.998 1.998 0 0 1 1.547-.766c.765 0 1.468.703 1.468 2.281 0 1.735-.859 2.344-1.625 2.344-.5 0-1.015-.25-1.39-.813Zm0 0"/><path id="e" d="M4.219-5.281v.515c.734 0 .828 0 .828.47v2.343c0 .906-.547 1.625-1.469 1.625-.906 0-.953-.297-.953-.953v-4.094L.5-5.281v.515c.75 0 .828 0 .828.47v2.827c0 1.188.797 1.547 2.078 1.547.281 0 1.172 0 1.688-.969h.015v.97L7.172 0v-.516c-.734 0-.828 0-.828-.468v-4.391Zm0 0"/><path id="f" d="M2.516-4.797H4.25v-.516H2.516v-2.28h-.5c0 1.187-.579 2.374-1.766 2.405v.391h.969v3.328c0 1.266.984 1.547 1.843 1.547.876 0 1.407-.672 1.407-1.562v-.625h-.5v.609c0 .797-.36 1.14-.735 1.14-.718 0-.718-.796-.718-1.078Zm0 0"/></defs><path fill="none" stroke="#000" stroke-miterlimit="10" stroke-width=".399" d="M83.555 21.926c-7.828 0-14.172 6.347-14.172 11.11"/><path stroke="#000" stroke-miterlimit="10" stroke-width=".399" d="m69.383 35.531 1.344-3.57-1.344 1.176-1.348-1.176Zm0 0"/><use xlink:href="#a" x="87.656" y="25.779"/><path fill="none" stroke="#000" stroke-miterlimit="10" stroke-width=".399" d="M46.703 40.07v22.676h28.348V40.07M46.703 62.746v22.68h28.348v-22.68"/><use xlink:href="#a" x="57.951" y="77.937"/><use xlink:href="#b" x="97.728" y="55.26"/><use xlink:href="#c" x="102.737" y="55.26"/><use xlink:href="#d" x="110.209" y="55.26"/><use xlink:href="#e" x="117.681" y="55.26"/><use xlink:href="#f" x="125.153" y="55.26"/><use xlink:href="#g" x="130.383" y="55.26"/><use xlink:href="#a" x="142.876" y="55.26"/><path fill="none" stroke="#000" stroke-miterlimit="10" stroke-width=".398" d="M139.488 44.367h12.63M139.688 58.45V44.366M151.914 58.45V44.366M139.488 58.45h12.63"/><use xlink:href="#h" x="154.067" y="55.26"/><use xlink:href="#i" x="161.869" y="55.26"/><path fill="none" stroke="#000" stroke-miterlimit="10" stroke-width=".399" d="M83.555 112.637c-7.828 0-14.172 6.343-14.172 11.11"/><path stroke="#000" stroke-miterlimit="10" stroke-width=".399" d="m69.383 126.242 1.344-3.57-1.344 1.176-1.348-1.176Zm0 0"/><use xlink:href="#h" x="87.656" y="116.488"/><path fill="none" stroke="#000" stroke-miterlimit="10" stroke-width=".399" d="M46.703 130.777v22.68h28.348v-22.68M46.703 153.457v22.676h28.348v-22.676"/><use xlink:href="#h" x="57.951" y="168.645"/><path fill="none" stroke="#000" stroke-miterlimit="10" stroke-width=".399" d="M46.703 176.133v22.68h28.348v-22.68"/><use xlink:href="#a" x="57.951" y="191.323"/><use xlink:href="#b" x="97.728" y="145.968"/><use xlink:href="#c" x="102.737" y="145.968"/><use xlink:href="#d" x="110.209" y="145.968"/><use xlink:href="#e" x="117.681" y="145.968"/><use xlink:href="#f" x="125.153" y="145.968"/><use xlink:href="#g" x="130.383" y="145.968"/><use xlink:href="#a" x="139.493" y="145.968"/><use xlink:href="#h" x="150.678" y="145.968"/><path fill="none" stroke="#000" stroke-miterlimit="10" stroke-width=".398" d="M147.293 135.074h12.629M147.492 149.156v-14.082M159.719 149.156v-14.082M147.293 149.156h12.629"/><use xlink:href="#i" x="161.871" y="145.968"/><path fill="none" stroke="#000" stroke-miterlimit="10" stroke-width=".399" d="M83.555 226.023c-7.828 0-14.172 6.348-14.172 11.11"/><path stroke="#000" stroke-miterlimit="10" stroke-width=".399" d="m69.383 239.629 1.344-3.57-1.344 1.175-1.348-1.175Zm0 0"/><use xlink:href="#j" x="87.656" y="229.874"/><path fill="none" stroke="#000" stroke-miterlimit="10" stroke-width=".399" d="M55.207 240.2c0-7.829-6.344-14.177-11.11-14.177"/><path stroke="#000" stroke-miterlimit="10" stroke-width=".399" d="m41.602 226.023 3.57 1.348L44 226.023l1.172-1.343Zm0 0"/><use xlink:href="#h" x="18.075" y="228.711"/><use xlink:href="#k" x="23.928" y="228.711"/><use xlink:href="#a" x="31.077" y="228.711"/><path fill="none" stroke="#000" stroke-miterlimit="10" stroke-width=".399" d="M46.703 244.164v22.68h28.348v-22.68M46.703 266.844v22.676h28.348v-22.676"/><use xlink:href="#j" x="57.951" y="282.031"/><use xlink:href="#b" x="97.728" y="258.491"/><use xlink:href="#c" x="102.737" y="258.491"/><use xlink:href="#d" x="110.209" y="258.491"/><use xlink:href="#e" x="117.681" y="258.491"/><use xlink:href="#f" x="125.153" y="258.491"/><use xlink:href="#g" x="130.383" y="258.491"/><use xlink:href="#a" x="139.493" y="258.491"/><use xlink:href="#h" x="147.295" y="258.491"/><use xlink:href="#i" x="158.48" y="258.491"/><path fill="none" stroke="#000" stroke-miterlimit="10" stroke-width=".398" d="M155.098 248.41h15.879M155.297 262.594V248.41M170.777 262.594V248.41M155.098 262.594h15.879"/></svg>