<svg xmlns="http://www.w3.org/2000/svg" xmlns:xlink="http://www.w3.org/1999/xlink" width="235.163" height="340.397"><defs><path id="a" d="M4.578-11c0-.36-.016-.375-.25-.375-.672.797-1.687 1.063-2.656 1.094-.047 0-.14 0-.156.031-.016.047-.016.078-.016.438.531 0 1.422-.11 2.11-.516v9.078c0 .594-.032.797-1.516.797h-.516V0a135.04 135.04 0 0 1 2.516-.031c.828 0 1.687.015 2.515.031v-.453h-.515c-1.485 0-1.516-.188-1.516-.797Zm0 0"/><path id="g" d="M2.86-6.703a.7.7 0 0 0-.704-.703.71.71 0 0 0-.703.703c0 .437.344.719.703.719a.713.713 0 0 0 .703-.72Zm0 6a.69.69 0 0 0-.704-.703.7.7 0 0 0-.703.703.7.7 0 0 0 .703.703.71.71 0 0 0 .703-.703Zm0 0"/><path id="h" d="M7.188-2.672h-.313c-.172 1.219-.313 1.438-.39 1.531C6.405-1 5.171-1 4.921-1H1.625c.61-.672 1.813-1.89 3.281-3.313 1.047-.984 2.282-2.156 2.282-3.859 0-2.031-1.625-3.203-3.438-3.203-1.89 0-3.047 1.656-3.047 3.219 0 .672.5.75.703.75.172 0 .688-.094.688-.703 0-.532-.438-.688-.688-.688a.673.673 0 0 0-.265.047c.328-1.453 1.328-2.188 2.375-2.188 1.5 0 2.468 1.188 2.468 2.766 0 1.485-.875 2.781-1.859 3.906L.703-.39V0h6.063Zm0 0"/><path id="i" d="M6.484-4h4.563c.25 0 .547 0 .547-.281 0-.313-.281-.313-.547-.313H6.484v-4.562c0-.25 0-.531-.28-.531-.313 0-.313.265-.313.53v4.563H1.328c-.25 0-.531 0-.531.282 0 .312.265.312.531.312h4.563V.563c0 .25 0 .546.296.546.297 0 .297-.28.297-.546Zm0 0"/><path id="j" d="M3.813-5.86c1.53 0 2.203 1.329 2.203 2.86 0 2.063-1.11 2.86-2.11 2.86-.906 0-2.39-.438-2.86-1.766a.774.774 0 0 0 .266.031c.407 0 .72-.281.72-.719 0-.5-.376-.734-.72-.734-.296 0-.75.14-.75.781C.563-.969 2.125.281 3.938.281c1.922 0 3.376-1.5 3.376-3.265 0-1.672-1.375-2.875-3-3.063 1.296-.266 2.562-1.437 2.562-3.016 0-1.343-1.36-2.312-2.922-2.312s-2.937.953-2.937 2.328c0 .61.453.719.671.719.36 0 .672-.235.672-.672 0-.453-.312-.672-.671-.672-.063 0-.157 0-.22.031.5-1.14 1.86-1.343 2.454-1.343.61 0 1.75.296 1.75 1.937 0 .485-.078 1.344-.656 2.11-.516.671-1.11.703-1.672.75-.094 0-.485.046-.547.046-.125.016-.203.032-.203.157 0 .109.031.125.375.125Zm0 0"/><path id="k" d="M2.719-.281c.031.156.031.219.031.484 0 1.031-.344 1.984-1.063 2.844-.093.094-.093.125-.093.156 0 .063.078.14.14.14.11 0 1.297-1.202 1.297-3.124 0-.563-.062-1.625-.875-1.625-.375 0-.703.25-.703.703 0 .437.328.703.703.703a.71.71 0 0 0 .563-.281Zm0 0"/><path id="b" d="M4.734-11.078h1.922v-.735c-.61.032-2.328.032-3.062.032-.719 0-2.438 0-3.063-.031v.734H2.47V-.734H.53V0c.625-.031 2.344-.031 3.063-.031.734 0 2.453 0 3.062.031v-.734H4.734Zm0 0"/><path id="c" d="M9.14-5.266c0-1.64-.703-2.484-2.593-2.484-1.25 0-2.313.61-2.89 1.89H3.64v-1.89l-2.922.14v.735c1.078 0 1.187 0 1.187.672v5.469H.72V0c.406-.031 1.64-.031 2.125-.031.484 0 1.734 0 2.125.031v-.734H3.78v-3.672c0-1.86 1.39-2.782 2.485-2.782.64 0 1 .422 1 1.735v4.719H6.078V0c.39-.031 1.64-.031 2.125-.031.469 0 1.735 0 2.125.031v-.734H9.141Zm0 0"/><path id="d" d="M4.86 2.594H3.671V-.703A3.357 3.357 0 0 0 5.89.109c2.359 0 4.203-1.437 4.203-3.953 0-2.375-1.61-3.906-3.922-3.906a4.098 4.098 0 0 0-2.594.89v-.89L.61-7.61v.735c1.063 0 1.188 0 1.188.672v8.797H.609v.75c.391-.031 1.625-.031 2.11-.031.484 0 1.734 0 2.14.03ZM3.671-6.031A2.812 2.812 0 0 1 5.89-7.125c1.125 0 2.14 1.016 2.14 3.281 0 2.5-1.25 3.375-2.344 3.375-.75 0-1.484-.375-2.015-1.187Zm0 0"/><path id="e" d="M6.078-7.61v.735c1.063 0 1.188 0 1.188.672v3.375c0 1.312-.782 2.36-2.125 2.36-1.282 0-1.36-.423-1.36-1.376V-7.75L.72-7.61v.735c1.078 0 1.187 0 1.187.672v4.078c0 1.734 1.157 2.234 3 2.234.422 0 1.688 0 2.422-1.406h.031V.11L10.33 0v-.734c-1.063 0-1.188 0-1.188-.672V-7.75Zm0 0"/><path id="f" d="M3.64-6.906h2.47v-.735H3.64v-3.296h-.734C2.891-9.235 2.062-7.531.36-7.47v.563H1.75v4.781C1.75-.297 3.172.109 4.406.109c1.282 0 2.032-.968 2.032-2.25v-.906h-.72v.89c0 1.141-.515 1.641-1.046 1.641-1.031 0-1.031-1.156-1.031-1.546Zm0 0"/></defs><path fill="none" stroke="#000" stroke-miterlimit="10" stroke-width=".399" d="M98.375 24.984c-7.828 0-14.176 6.348-14.176 10.465"/><path stroke="#000" stroke-miterlimit="10" stroke-width=".399" d="m84.2 38.59 1.706-4.528-1.707 1.485-1.703-1.484Zm0 0"/><use xlink:href="#a" x="103.835" y="30.534"/><path fill="none" stroke="#000" stroke-miterlimit="10" stroke-width=".399" d="M56.988 45.395v25.511h34.016V45.395M56.988 70.906v25.512h34.016V70.906"/><use xlink:href="#a" x="70.047" y="89.211"/><use xlink:href="#b" x="113.68" y="63.699"/><use xlink:href="#c" x="120.893" y="63.699"/><use xlink:href="#d" x="131.653" y="63.699"/><use xlink:href="#e" x="142.413" y="63.699"/><use xlink:href="#f" x="153.172" y="63.699"/><use xlink:href="#g" x="160.703" y="63.699"/><use xlink:href="#a" x="176.276" y="63.699"/><path fill="none" stroke="#000" stroke-miterlimit="10" stroke-width=".398" d="M172.895 49.414h14.671M173.098 66.887V49.414M187.367 66.887V49.414M172.895 66.887h14.671"/><use xlink:href="#h" x="190.198" y="63.699"/><use xlink:href="#i" x="200.727" y="63.699"/><path fill="none" stroke="#000" stroke-miterlimit="10" stroke-width=".399" d="M98.375 127.035c-7.828 0-14.176 6.344-14.176 10.461"/><path stroke="#000" stroke-miterlimit="10" stroke-width=".399" d="m84.2 140.64 1.706-4.527-1.707 1.485-1.703-1.485Zm0 0"/><use xlink:href="#h" x="103.835" y="132.581"/><path fill="none" stroke="#000" stroke-miterlimit="10" stroke-width=".399" d="M56.988 147.445v25.512h34.016v-25.512M56.988 172.957v25.512h34.016v-25.512"/><use xlink:href="#h" x="70.047" y="191.258"/><path fill="none" stroke="#000" stroke-miterlimit="10" stroke-width=".399" d="M56.988 198.469v25.511h34.016V198.47"/><use xlink:href="#a" x="70.047" y="216.77"/><use xlink:href="#b" x="113.68" y="165.746"/><use xlink:href="#c" x="120.893" y="165.746"/><use xlink:href="#d" x="131.653" y="165.746"/><use xlink:href="#e" x="142.413" y="165.746"/><use xlink:href="#f" x="153.172" y="165.746"/><use xlink:href="#g" x="160.703" y="165.746"/><use xlink:href="#a" x="172.902" y="165.746"/><use xlink:href="#h" x="186.805" y="165.746"/><path fill="none" stroke="#000" stroke-miterlimit="10" stroke-width=".398" d="M183.426 151.46h14.668M183.621 168.934V151.46M197.895 168.934V151.46M183.426 168.934h14.668"/><use xlink:href="#i" x="200.725" y="165.746"/><path fill="none" stroke="#000" stroke-miterlimit="10" stroke-width=".399" d="M98.375 254.594c-7.828 0-14.176 6.347-14.176 10.465"/><path stroke="#000" stroke-miterlimit="10" stroke-width=".399" d="m84.2 268.2 1.706-4.528-1.707 1.484-1.703-1.484Zm0 0"/><use xlink:href="#j" x="103.835" y="260.14"/><path fill="none" stroke="#000" stroke-miterlimit="10" stroke-width=".399" d="M64.355 268.77c0-7.829-6.343-14.176-10.46-14.176"/><path stroke="#000" stroke-miterlimit="10" stroke-width=".399" d="m50.75 254.594 4.527 1.703-1.484-1.703 1.484-1.703Zm0 0"/><use xlink:href="#h" x="19.436" y="258.466"/><use xlink:href="#k" x="27.331" y="258.466"/><use xlink:href="#a" x="36.827" y="258.466"/><path fill="none" stroke="#000" stroke-miterlimit="10" stroke-width=".399" d="M56.988 275.004v25.512h34.016v-25.512M56.988 300.516v25.511h34.016v-25.511"/><use xlink:href="#j" x="70.047" y="318.817"/><use xlink:href="#b" x="113.68" y="292.06"/><use xlink:href="#c" x="120.893" y="292.06"/><use xlink:href="#d" x="131.653" y="292.06"/><use xlink:href="#e" x="142.413" y="292.06"/><use xlink:href="#f" x="153.172" y="292.06"/><use xlink:href="#g" x="160.703" y="292.06"/><use xlink:href="#a" x="172.902" y="292.06"/><use xlink:href="#h" x="183.431" y="292.06"/><use xlink:href="#i" x="197.334" y="292.06"/><path fill="none" stroke="#000" stroke-miterlimit="10" stroke-width=".398" d="M193.95 279.172h19.167M194.148 296.34v-17.168M212.918 296.34v-17.168M193.95 296.34h19.167"/></svg>