<svg xmlns="http://www.w3.org/2000/svg" xmlns:xlink="http://www.w3.org/1999/xlink" width="196.756" height="314.05"><defs><path id="a" d="M3.281-7.688h1.344v-.515c-.422.031-1.625.031-2.125.031s-1.703 0-2.125-.031v.515h1.328v7.172H.375V0C.797-.031 2-.031 2.5-.031s1.703 0 2.125.031v-.516H3.281Zm0 0"/><path id="b" d="M6.344-3.656c0-1.14-.485-1.719-1.797-1.719-.86 0-1.61.422-2.016 1.313h-.015v-1.313L.5-5.281v.515c.75 0 .828 0 .828.47v3.78H.5V0c.281-.031 1.14-.031 1.469-.031.343 0 1.203 0 1.484.031v-.516h-.828v-2.546c0-1.282.953-1.922 1.719-1.922.453 0 .703.28.703 1.187v3.281h-.828V0c.281-.031 1.14-.031 1.468-.031.344 0 1.204 0 1.485.031v-.516h-.828Zm0 0"/><path id="c" d="M3.375 1.813h-.828V-.485c.297.25.828.562 1.547.562C5.719.078 7-.922 7-2.672c0-1.64-1.11-2.703-2.719-2.703-.703 0-1.312.234-1.797.625v-.625l-2.062.094v.515c.734 0 .828 0 .828.47v6.109H.422v.5c.266-.016 1.125-.016 1.469-.016.328 0 1.203 0 1.484.015Zm-.828-6a1.998 1.998 0 0 1 1.547-.766c.765 0 1.468.703 1.468 2.281 0 1.735-.859 2.344-1.625 2.344-.5 0-1.015-.25-1.39-.813Zm0 0"/><path id="d" d="M4.219-5.281v.515c.734 0 .828 0 .828.47v2.343c0 .906-.547 1.625-1.469 1.625-.906 0-.953-.297-.953-.953v-4.094L.5-5.281v.515c.75 0 .828 0 .828.47v2.827c0 1.188.797 1.547 2.078 1.547.281 0 1.172 0 1.688-.969h.015v.97L7.172 0v-.516c-.734 0-.828 0-.828-.468v-4.391Zm0 0"/><path id="e" d="M2.516-4.797H4.25v-.516H2.516v-2.28h-.5c0 1.187-.579 2.374-1.766 2.405v.391h.969v3.328c0 1.266.984 1.547 1.843 1.547.876 0 1.407-.672 1.407-1.562v-.625h-.5v.609c0 .797-.36 1.14-.735 1.14-.718 0-.718-.796-.718-1.078Zm0 0"/><path id="j" d="M9.344-4.063c0-2.53-1.64-4.28-4.297-4.28-2.672 0-4.313 1.75-4.313 4.28C.734-1.546 2.422.141 5.047.141s4.297-1.688 4.297-4.204ZM5.047-.313a2.385 2.385 0 0 1-1.984-1.046c-.579-.875-.641-2-.641-2.875 0-.72.047-1.735.531-2.547.531-.828 1.39-1.125 2.094-1.125.969 0 1.687.5 2.031 1.047.438.687.578 1.437.578 2.625 0 1.187-.125 2.171-.718 3-.297.406-.97.921-1.891.921Zm0 0"/><path id="f" d="M2.203-4.578a.587.587 0 0 0-.578-.578.576.576 0 0 0-.578.578c0 .36.297.578.562.578a.58.58 0 0 0 .594-.578Zm0 4a.587.587 0 0 0-.578-.578.567.567 0 0 0-.578.578c0 .344.297.578.562.578a.58.58 0 0 0 .594-.578Zm0 0"/><path id="g" d="M3.438-7.656c0-.282 0-.297-.235-.297-.281.328-.89.766-2.11.766v.343c.266 0 .86 0 1.532-.297v6.22c0 .437-.047.577-1.094.577h-.375V0c.328-.031 1.485-.031 1.875-.031.406 0 1.547 0 1.875.031v-.344h-.375c-1.047 0-1.093-.14-1.093-.578Zm0 0"/><path id="h" d="M4.766-2.766h3.296c.172 0 .391 0 .391-.203 0-.234-.203-.234-.39-.234H4.765V-6.5c0-.172 0-.39-.22-.39-.218 0-.218.202-.218.39v3.297H1.031c-.172 0-.39 0-.39.219 0 .218.203.218.39.218h3.297V.531c0 .172 0 .39.219.39s.219-.202.219-.39Zm0 0"/><path id="i" d="M5.266-2.016H5c-.047.204-.14.875-.25 1.063-.094.11-.766.11-1.125.11H1.406c.328-.282 1.063-1.048 1.36-1.329 1.828-1.672 2.5-2.297 2.5-3.484 0-1.375-1.094-2.297-2.485-2.297-1.375 0-2.203 1.187-2.203 2.219 0 .609.531.609.563.609.265 0 .562-.188.562-.563 0-.343-.219-.562-.562-.562-.094 0-.125 0-.157.016.22-.813.875-1.375 1.641-1.375 1.016 0 1.64.859 1.64 1.953 0 1.015-.577 1.906-1.265 2.672L.578-.281V0h4.375Zm0 0"/></defs><path fill="none" stroke="#000" stroke-miterlimit="10" stroke-width=".399" d="M36.95 21.715V44.39h28.347V21.715"/><use xlink:href="#a" x="87.973" y="29.167"/><use xlink:href="#b" x="92.982" y="29.167"/><use xlink:href="#c" x="100.454" y="29.167"/><use xlink:href="#d" x="107.926" y="29.167"/><use xlink:href="#e" x="115.398" y="29.167"/><use xlink:href="#f" x="120.628" y="29.167"/><use xlink:href="#g" x="133.121" y="29.167"/><path fill="none" stroke="#000" stroke-miterlimit="10" stroke-width=".398" d="M129.734 18.273h12.625M129.934 32.355V18.273M142.16 32.355V18.273M129.734 32.355h12.625"/><use xlink:href="#h" x="144.312" y="29.167"/><use xlink:href="#i" x="155.366" y="29.167"/><use xlink:href="#j" x="87.973" y="44.642"/><use xlink:href="#d" x="98.074" y="44.642"/><use xlink:href="#e" x="105.546" y="44.642"/><use xlink:href="#c" x="110.776" y="44.642"/><use xlink:href="#d" x="118.248" y="44.642"/><use xlink:href="#e" x="125.72" y="44.642"/><use xlink:href="#f" x="130.951" y="44.642"/><use xlink:href="#g" x="143.444" y="44.642"/><path fill="none" stroke="#000" stroke-miterlimit="10" stroke-width=".398" d="M140.055 33.75h12.629M140.254 47.828V33.75M152.484 47.828V33.75M140.055 47.828h12.629"/><path fill="none" stroke="#000" stroke-miterlimit="10" stroke-width=".399" d="M73.8 71.605c-7.827 0-14.175 6.344-14.175 11.11"/><path stroke="#000" stroke-miterlimit="10" stroke-width=".399" d="m59.625 85.21 1.348-3.57-1.348 1.172-1.344-1.171Zm0 0"/><use xlink:href="#h" x="77.901" y="74.592"/><path fill="none" stroke="#000" stroke-miterlimit="10" stroke-width=".399" d="M36.95 89.746v22.676h28.347V89.746M36.95 112.422v22.68h28.347v-22.68"/><use xlink:href="#h" x="46.57" y="126.75"/><use xlink:href="#a" x="87.973" y="97.837"/><use xlink:href="#b" x="92.982" y="97.837"/><use xlink:href="#c" x="100.454" y="97.837"/><use xlink:href="#d" x="107.926" y="97.837"/><use xlink:href="#e" x="115.398" y="97.837"/><use xlink:href="#f" x="120.628" y="97.837"/><use xlink:href="#g" x="129.738" y="97.837"/><use xlink:href="#h" x="140.923" y="97.837"/><path fill="none" stroke="#000" stroke-miterlimit="10" stroke-width=".398" d="M137.535 87.758h15.88M137.734 101.938v-14.18M153.219 101.938v-14.18M137.535 101.938h15.88"/><use xlink:href="#i" x="155.367" y="97.837"/><use xlink:href="#j" x="87.973" y="112.283"/><use xlink:href="#d" x="98.074" y="112.283"/><use xlink:href="#e" x="105.546" y="112.283"/><use xlink:href="#c" x="110.776" y="112.283"/><use xlink:href="#d" x="118.248" y="112.283"/><use xlink:href="#e" x="125.72" y="112.283"/><use xlink:href="#f" x="130.951" y="112.283"/><use xlink:href="#g" x="140.061" y="112.283"/><path fill="none" stroke="#000" stroke-miterlimit="10" stroke-width=".399" d="M36.95 180.457v22.676h28.347v-22.676M36.95 203.133v22.68h28.347v-22.68"/><use xlink:href="#h" x="46.57" y="217.458"/><use xlink:href="#a" x="87.973" y="187.907"/><use xlink:href="#b" x="92.982" y="187.907"/><use xlink:href="#c" x="100.454" y="187.907"/><use xlink:href="#d" x="107.926" y="187.907"/><use xlink:href="#e" x="115.398" y="187.907"/><use xlink:href="#f" x="120.628" y="187.907"/><use xlink:href="#g" x="129.738" y="187.907"/><use xlink:href="#h" x="137.54" y="187.907"/><use xlink:href="#i" x="151.977" y="187.907"/><path fill="none" stroke="#000" stroke-miterlimit="10" stroke-width=".398" d="M148.594 177.016h12.629M148.793 191.094v-14.078M161.02 191.094v-14.078M148.594 191.094h12.629"/><use xlink:href="#j" x="87.973" y="203.382"/><use xlink:href="#d" x="98.074" y="203.382"/><use xlink:href="#e" x="105.546" y="203.382"/><use xlink:href="#c" x="110.776" y="203.382"/><use xlink:href="#d" x="118.248" y="203.382"/><use xlink:href="#e" x="125.72" y="203.382"/><use xlink:href="#f" x="130.951" y="203.382"/><use xlink:href="#g" x="140.061" y="203.382"/><use xlink:href="#i" x="151.246" y="203.382"/><path fill="none" stroke="#000" stroke-miterlimit="10" stroke-width=".398" d="M147.86 192.488h12.628M148.059 206.57v-14.082M160.29 206.57v-14.082M147.86 206.57h12.628"/><path fill="none" stroke="#000" stroke-miterlimit="10" stroke-width=".399" d="M45.453 267.2c0-7.829-6.344-14.177-11.11-14.177"/><path stroke="#000" stroke-miterlimit="10" stroke-width=".399" d="m31.848 253.023 3.57 1.348-1.176-1.348 1.176-1.343Zm0 0"/><use xlink:href="#h" x="18.075" y="256.009"/><path fill="none" stroke="#000" stroke-miterlimit="10" stroke-width=".399" d="M36.95 271.164v22.68h28.347v-22.68"/><use xlink:href="#a" x="87.973" y="277.229"/><use xlink:href="#b" x="92.982" y="277.229"/><use xlink:href="#c" x="100.454" y="277.229"/><use xlink:href="#d" x="107.926" y="277.229"/><use xlink:href="#e" x="115.398" y="277.229"/><use xlink:href="#f" x="120.628" y="277.229"/><use xlink:href="#g" x="129.738" y="277.229"/><use xlink:href="#h" x="137.54" y="277.229"/><use xlink:href="#i" x="148.594" y="277.229"/><use xlink:href="#j" x="87.973" y="291.675"/><use xlink:href="#d" x="98.074" y="291.675"/><use xlink:href="#e" x="105.546" y="291.675"/><use xlink:href="#c" x="110.776" y="291.675"/><use xlink:href="#d" x="118.248" y="291.675"/><use xlink:href="#e" x="125.72" y="291.675"/><use xlink:href="#f" x="130.951" y="291.675"/><use xlink:href="#g" x="140.061" y="291.675"/><use xlink:href="#i" x="147.863" y="291.675"/><use xlink:href="#h" x="159.048" y="291.675"/><path fill="none" stroke="#000" stroke-miterlimit="10" stroke-width=".398" d="M155.664 281.598h15.879M155.863 295.777v-14.18M171.344 295.777v-14.18M155.664 295.777h15.879"/></svg>