<svg xmlns="http://www.w3.org/2000/svg" xmlns:xlink="http://www.w3.org/1999/xlink" width="262.953" height="381.395"><defs><path id="a" d="M6.484-4h4.563c.25 0 .547 0 .547-.281 0-.313-.281-.313-.547-.313H6.484v-4.562c0-.25 0-.531-.28-.531-.313 0-.313.265-.313.53v4.563H1.328c-.25 0-.531 0-.531.282 0 .312.265.312.531.312h4.563V.563c0 .25 0 .546.296.546.297 0 .297-.28.297-.546Zm0 0"/><path id="g" d="M2.86-6.703a.7.7 0 0 0-.704-.703.71.71 0 0 0-.703.703c0 .437.344.719.703.719a.713.713 0 0 0 .703-.72Zm0 6a.69.69 0 0 0-.704-.703.7.7 0 0 0-.703.703.7.7 0 0 0 .703.703.71.71 0 0 0 .703-.703Zm0 0"/><path id="h" d="M4.578-11c0-.36-.016-.375-.25-.375-.672.797-1.687 1.063-2.656 1.094-.047 0-.14 0-.156.031-.016.047-.016.078-.016.438.531 0 1.422-.11 2.11-.516v9.078c0 .594-.032.797-1.516.797h-.516V0a135.04 135.04 0 0 1 2.516-.031c.828 0 1.687.015 2.515.031v-.453h-.515c-1.485 0-1.516-.188-1.516-.797Zm0 0"/><path id="i" d="M7.188-2.672h-.313c-.172 1.219-.313 1.438-.39 1.531C6.405-1 5.171-1 4.921-1H1.625c.61-.672 1.813-1.89 3.281-3.313 1.047-.984 2.282-2.156 2.282-3.859 0-2.031-1.625-3.203-3.438-3.203-1.89 0-3.047 1.656-3.047 3.219 0 .672.5.75.703.75.172 0 .688-.094.688-.703 0-.532-.438-.688-.688-.688a.673.673 0 0 0-.265.047c.328-1.453 1.328-2.188 2.375-2.188 1.5 0 2.468 1.188 2.468 2.766 0 1.485-.875 2.781-1.859 3.906L.703-.39V0h6.063Zm0 0"/><path id="k" d="M3.813-5.86c1.53 0 2.203 1.329 2.203 2.86 0 2.063-1.11 2.86-2.11 2.86-.906 0-2.39-.438-2.86-1.766a.774.774 0 0 0 .266.031c.407 0 .72-.281.72-.719 0-.5-.376-.734-.72-.734-.296 0-.75.14-.75.781C.563-.969 2.125.281 3.938.281c1.922 0 3.376-1.5 3.376-3.265 0-1.672-1.375-2.875-3-3.063 1.296-.266 2.562-1.437 2.562-3.016 0-1.343-1.36-2.312-2.922-2.312s-2.937.953-2.937 2.328c0 .61.453.719.671.719.36 0 .672-.235.672-.672 0-.453-.312-.672-.671-.672-.063 0-.157 0-.22.031.5-1.14 1.86-1.343 2.454-1.343.61 0 1.75.296 1.75 1.937 0 .485-.078 1.344-.656 2.11-.516.671-1.11.703-1.672.75-.094 0-.485.046-.547.046-.125.016-.203.032-.203.157 0 .109.031.125.375.125Zm0 0"/><path id="b" d="M4.734-11.078h1.922v-.735c-.61.032-2.328.032-3.062.032-.719 0-2.438 0-3.063-.031v.734H2.47V-.734H.53V0c.625-.031 2.344-.031 3.063-.031.734 0 2.453 0 3.062.031v-.734H4.734Zm0 0"/><path id="c" d="M9.14-5.266c0-1.64-.703-2.484-2.593-2.484-1.25 0-2.313.61-2.89 1.89H3.64v-1.89l-2.922.14v.735c1.078 0 1.187 0 1.187.672v5.469H.72V0c.406-.031 1.64-.031 2.125-.031.484 0 1.734 0 2.125.031v-.734H3.78v-3.672c0-1.86 1.39-2.782 2.485-2.782.64 0 1 .422 1 1.735v4.719H6.078V0c.39-.031 1.64-.031 2.125-.031.469 0 1.735 0 2.125.031v-.734H9.141Zm0 0"/><path id="d" d="M4.86 2.594H3.671V-.703A3.357 3.357 0 0 0 5.89.109c2.359 0 4.203-1.437 4.203-3.953 0-2.375-1.61-3.906-3.922-3.906a4.098 4.098 0 0 0-2.594.89v-.89L.61-7.61v.735c1.063 0 1.188 0 1.188.672v8.797H.609v.75c.391-.031 1.625-.031 2.11-.031.484 0 1.734 0 2.14.03ZM3.671-6.031A2.812 2.812 0 0 1 5.89-7.125c1.125 0 2.14 1.016 2.14 3.281 0 2.5-1.25 3.375-2.344 3.375-.75 0-1.484-.375-2.015-1.187Zm0 0"/><path id="e" d="M6.078-7.61v.735c1.063 0 1.188 0 1.188.672v3.375c0 1.312-.782 2.36-2.125 2.36-1.282 0-1.36-.423-1.36-1.376V-7.75L.72-7.61v.735c1.078 0 1.187 0 1.187.672v4.078c0 1.734 1.157 2.234 3 2.234.422 0 1.688 0 2.422-1.406h.031V.11L10.33 0v-.734c-1.063 0-1.188 0-1.188-.672V-7.75Zm0 0"/><path id="f" d="M3.64-6.906h2.47v-.735H3.64v-3.296h-.734C2.891-9.235 2.062-7.531.36-7.47v.563H1.75v4.781C1.75-.297 3.172.109 4.406.109c1.282 0 2.032-.968 2.032-2.25v-.906h-.72v.89c0 1.141-.515 1.641-1.046 1.641-1.031 0-1.031-1.156-1.031-1.546Zm0 0"/><path id="l" d="M13.469-5.86c0-3.64-2.375-6.156-6.203-6.156-3.844 0-6.204 2.532-6.204 6.157 0 3.64 2.422 6.062 6.204 6.062 3.78 0 6.203-2.422 6.203-6.062ZM7.266-.452a3.409 3.409 0 0 1-2.86-1.516C3.578-3.219 3.5-4.844 3.5-6.094c0-1.047.047-2.5.75-3.672.766-1.203 2-1.64 3.016-1.64 1.39 0 2.421.75 2.921 1.515.641 1 .844 2.079.844 3.797 0 1.703-.187 3.125-1.047 4.313-.421.593-1.375 1.328-2.718 1.328Zm0 0"/><path id="j" d="M11.344-3.953c.297 0 .61 0 .61-.36 0-.343-.313-.343-.61-.343H2.03c-.297 0-.61 0-.61.343 0 .36.313.36.61.36Zm0 0"/></defs><path fill="none" stroke="#000" stroke-miterlimit="10" stroke-width=".399" d="M45.09 25.18V50.69h34.015V25.18M45.09 50.691v25.512h34.015V50.691"/><use xlink:href="#a" x="55.903" y="67.751"/><use xlink:href="#b" x="101.784" y="33.921"/><use xlink:href="#c" x="108.997" y="33.921"/><use xlink:href="#d" x="119.757" y="33.921"/><use xlink:href="#e" x="130.517" y="33.921"/><use xlink:href="#f" x="141.276" y="33.921"/><use xlink:href="#g" x="148.808" y="33.921"/><use xlink:href="#h" x="161.007" y="33.921"/><use xlink:href="#a" x="171.536" y="33.921"/><use xlink:href="#i" x="189.936" y="33.921"/><path fill="none" stroke="#000" stroke-miterlimit="10" stroke-width=".398" d="M186.55 19.637h14.673M186.75 37.11V19.636M201.023 37.11V19.636M186.55 37.11h14.673"/><use xlink:href="#j" x="203.854" y="33.921"/><use xlink:href="#k" x="219.875" y="33.921"/><use xlink:href="#l" x="101.784" y="53.049"/><use xlink:href="#e" x="116.329" y="53.049"/><use xlink:href="#f" x="127.089" y="53.049"/><use xlink:href="#d" x="134.621" y="53.049"/><use xlink:href="#e" x="145.38" y="53.049"/><use xlink:href="#f" x="156.14" y="53.049"/><use xlink:href="#g" x="163.672" y="53.049"/><use xlink:href="#h" x="175.871" y="53.049"/><use xlink:href="#i" x="189.774" y="53.049"/><path fill="none" stroke="#000" stroke-miterlimit="10" stroke-width=".398" d="M186.39 38.766h14.673M186.59 56.238V38.766M200.863 56.238V38.766M186.39 56.238h14.673"/><path fill="none" stroke="#000" stroke-miterlimit="10" stroke-width=".399" d="M52.46 120.992c0-7.828-6.343-14.172-10.464-14.172"/><path stroke="#000" stroke-miterlimit="10" stroke-width=".399" d="m38.855 106.82 4.528 1.703-1.485-1.703 1.485-1.707Zm0 0"/><use xlink:href="#a" x="20.434" y="111.121"/><path fill="none" stroke="#000" stroke-miterlimit="10" stroke-width=".399" d="M86.477 106.82c-7.829 0-14.172 6.344-14.172 10.461"/><path stroke="#000" stroke-miterlimit="10" stroke-width=".399" d="m72.305 120.426 1.703-4.528-1.703 1.485-1.703-1.485Zm0 0"/><use xlink:href="#j" x="91.939" y="111.122"/><path fill="none" stroke="#000" stroke-miterlimit="10" stroke-width=".399" d="M45.09 127.227v25.515h34.015v-25.515"/><path fill="none" stroke="#000" stroke-miterlimit="10" stroke-width=".399" d="M45.09 152.742v25.512h34.015v-25.512"/><use xlink:href="#j" x="55.404" y="169.799"/><use xlink:href="#b" x="101.784" y="134.894"/><use xlink:href="#c" x="108.997" y="134.894"/><use xlink:href="#d" x="119.757" y="134.894"/><use xlink:href="#e" x="130.517" y="134.894"/><use xlink:href="#f" x="141.276" y="134.894"/><use xlink:href="#g" x="148.808" y="134.894"/><use xlink:href="#h" x="161.007" y="134.894"/><use xlink:href="#a" x="171.536" y="134.894"/><use xlink:href="#i" x="186.544" y="134.894"/><use xlink:href="#j" x="200.466" y="134.894"/><path fill="none" stroke="#000" stroke-miterlimit="10" stroke-width=".398" d="M197.078 121.664h20.164M197.277 139.516v-17.852M217.043 139.516v-17.852M197.078 139.516h20.164"/><use xlink:href="#k" x="219.875" y="134.894"/><use xlink:href="#l" x="101.784" y="154.022"/><use xlink:href="#e" x="116.329" y="154.022"/><use xlink:href="#f" x="127.089" y="154.022"/><use xlink:href="#d" x="134.621" y="154.022"/><use xlink:href="#e" x="145.38" y="154.022"/><use xlink:href="#f" x="156.14" y="154.022"/><use xlink:href="#g" x="163.672" y="154.022"/><use xlink:href="#h" x="175.871" y="154.022"/><use xlink:href="#i" x="186.4" y="154.022"/><use xlink:href="#a" x="200.303" y="154.022"/><path fill="none" stroke="#000" stroke-miterlimit="10" stroke-width=".398" d="M196.918 141.133h19.168M197.117 158.305v-17.172M215.887 158.305v-17.172M196.918 158.305h19.168"/><path fill="none" stroke="#000" stroke-miterlimit="10" stroke-width=".399" d="M45.09 229.277v25.512h34.015v-25.512M45.09 254.79v25.51h34.015v-25.51"/><use xlink:href="#j" x="55.404" y="271.846"/><use xlink:href="#b" x="101.784" y="238.015"/><use xlink:href="#c" x="108.997" y="238.015"/><use xlink:href="#d" x="119.757" y="238.015"/><use xlink:href="#e" x="130.517" y="238.015"/><use xlink:href="#f" x="141.276" y="238.015"/><use xlink:href="#g" x="148.808" y="238.015"/><use xlink:href="#h" x="161.007" y="238.015"/><use xlink:href="#a" x="171.536" y="238.015"/><use xlink:href="#i" x="186.544" y="238.015"/><use xlink:href="#j" x="197.079" y="238.015"/><use xlink:href="#k" x="216.488" y="238.015"/><path fill="none" stroke="#000" stroke-miterlimit="10" stroke-width=".398" d="M213.102 223.73h14.668M213.3 241.203V223.73M227.57 241.203V223.73M213.102 241.203h14.668"/><use xlink:href="#l" x="101.784" y="257.143"/><use xlink:href="#e" x="116.329" y="257.143"/><use xlink:href="#f" x="127.089" y="257.143"/><use xlink:href="#d" x="134.621" y="257.143"/><use xlink:href="#e" x="145.38" y="257.143"/><use xlink:href="#f" x="156.14" y="257.143"/><use xlink:href="#g" x="163.672" y="257.143"/><use xlink:href="#h" x="175.871" y="257.143"/><use xlink:href="#i" x="186.4" y="257.143"/><use xlink:href="#a" x="196.911" y="257.143"/><use xlink:href="#k" x="215.329" y="257.143"/><path fill="none" stroke="#000" stroke-miterlimit="10" stroke-width=".398" d="M211.941 242.86h14.672M212.145 260.332v-17.473M226.414 260.332v-17.473M211.941 260.332h14.672"/><path fill="none" stroke="#000" stroke-miterlimit="10" stroke-width=".399" d="M52.46 325.09c0-7.828-6.343-14.176-10.464-14.176"/><path stroke="#000" stroke-miterlimit="10" stroke-width=".399" d="m38.855 310.914 4.528 1.707-1.485-1.707 1.485-1.703Zm0 0"/><use xlink:href="#j" x="19.436" y="315.216"/><path fill="none" stroke="#000" stroke-miterlimit="10" stroke-width=".399" d="M45.09 331.324v25.512h34.015v-25.512"/><use xlink:href="#b" x="101.784" y="338.009"/><use xlink:href="#c" x="108.997" y="338.009"/><use xlink:href="#d" x="119.757" y="338.009"/><use xlink:href="#e" x="130.517" y="338.009"/><use xlink:href="#f" x="141.276" y="338.009"/><use xlink:href="#g" x="148.808" y="338.009"/><use xlink:href="#h" x="161.007" y="338.009"/><use xlink:href="#a" x="171.536" y="338.009"/><use xlink:href="#i" x="186.544" y="338.009"/><use xlink:href="#j" x="197.079" y="338.009"/><use xlink:href="#k" x="213.101" y="338.009"/><use xlink:href="#l" x="101.784" y="357.137"/><use xlink:href="#e" x="116.329" y="357.137"/><use xlink:href="#f" x="127.089" y="357.137"/><use xlink:href="#d" x="134.621" y="357.137"/><use xlink:href="#e" x="145.38" y="357.137"/><use xlink:href="#f" x="156.14" y="357.137"/><use xlink:href="#g" x="163.672" y="357.137"/><use xlink:href="#h" x="175.871" y="357.137"/><use xlink:href="#i" x="186.4" y="357.137"/><use xlink:href="#a" x="196.911" y="357.137"/><use xlink:href="#k" x="211.937" y="357.137"/><use xlink:href="#j" x="225.858" y="357.137"/><path fill="none" stroke="#000" stroke-miterlimit="10" stroke-width=".398" d="M222.469 343.906h20.164M222.672 361.758v-17.852M242.438 361.758v-17.852M222.469 361.758h20.164"/></svg>