<svg xmlns="http://www.w3.org/2000/svg" xmlns:xlink="http://www.w3.org/1999/xlink" width="225.47" height="291.298"><defs><path id="a" d="M4.766-2.766h3.296c.172 0 .391 0 .391-.203 0-.234-.203-.234-.39-.234H4.765V-6.5c0-.172 0-.39-.22-.39-.218 0-.218.202-.218.39v3.297H1.031c-.172 0-.39 0-.39.219 0 .218.203.218.39.218h3.297V.531c0 .172 0 .39.219.39s.219-.202.219-.39Zm0 0"/><path id="b" d="M3.89 2.906c0-.031 0-.062-.203-.265C2.484 1.437 1.813-.531 1.813-2.97c0-2.328.562-4.328 1.953-5.734.125-.11.125-.125.125-.172 0-.063-.063-.094-.11-.094-.156 0-1.14.86-1.719 2.031-.609 1.22-.89 2.485-.89 3.97 0 1.062.172 2.484.781 3.75C2.672 2.218 3.641 3 3.781 3c.047 0 .11-.031.11-.094Zm0 0"/><path id="i" d="M2.203-4.578a.587.587 0 0 0-.578-.578.576.576 0 0 0-.578.578c0 .36.297.578.562.578a.58.58 0 0 0 .594-.578Zm0 4a.587.587 0 0 0-.578-.578.567.567 0 0 0-.578.578c0 .344.297.578.562.578a.58.58 0 0 0 .594-.578Zm0 0"/><path id="j" d="M3.438-7.656c0-.282 0-.297-.235-.297-.281.328-.89.766-2.11.766v.343c.266 0 .86 0 1.532-.297v6.22c0 .437-.047.577-1.094.577h-.375V0c.328-.031 1.485-.031 1.875-.031.406 0 1.547 0 1.875.031v-.344h-.375c-1.047 0-1.093-.14-1.093-.578Zm0 0"/><path id="k" d="M5.266-2.016H5c-.047.204-.14.875-.25 1.063-.094.11-.766.11-1.125.11H1.406c.328-.282 1.063-1.048 1.36-1.329 1.828-1.672 2.5-2.297 2.5-3.484 0-1.375-1.094-2.297-2.485-2.297-1.375 0-2.203 1.187-2.203 2.219 0 .609.531.609.563.609.265 0 .562-.188.562-.563 0-.343-.219-.562-.562-.562-.094 0-.125 0-.157.016.22-.813.875-1.375 1.641-1.375 1.016 0 1.64.859 1.64 1.953 0 1.015-.577 1.906-1.265 2.672L.578-.281V0h4.375Zm0 0"/><path id="l" d="M2.203-4.297c-.203.016-.25.031-.25.14 0 .11.063.11.266.11h.547c1.03 0 1.484.844 1.484 1.984 0 1.579-.813 1.985-1.406 1.985-.578 0-1.547-.266-1.906-1.063.39.063.734-.156.734-.578a.571.571 0 0 0-.578-.593c-.297 0-.61.171-.61.624C.484-.625 1.547.25 2.875.25c1.422 0 2.484-1.094 2.484-2.297C5.36-3.14 4.47-4 3.33-4.203 4.358-4.5 5.03-5.375 5.03-6.313c0-.937-.984-1.64-2.14-1.64-1.188 0-2.079.734-2.079 1.61 0 .468.375.577.547.577.25 0 .547-.187.547-.546 0-.375-.297-.547-.562-.547-.063 0-.094 0-.125.015.453-.812 1.578-.812 1.64-.812.391 0 1.172.172 1.172 1.343 0 .235-.031.891-.39 1.407-.36.531-.766.562-1.079.578Zm0 0"/><path id="m" d="M3.375-2.969c0-.922-.125-2.39-.797-3.781C1.875-8.188.891-8.969.766-8.969c-.047 0-.11.031-.11.094 0 .047 0 .063.203.266 1.204 1.203 1.86 3.187 1.86 5.625 0 2.312-.563 4.312-1.938 5.718-.125.11-.125.141-.125.172 0 .063.063.094.11.094.156 0 1.14-.86 1.718-2.031.61-1.219.891-2.516.891-3.938Zm0 0"/><path id="o" d="M2.328.047c0-.735-.25-1.203-.719-1.203-.343 0-.562.265-.562.578 0 .312.219.578.578.578a.605.605 0 0 0 .39-.14c.032-.032.047-.032.047-.032.032 0 .032.156.032.219 0 .765-.313 1.484-.844 2.031-.047.031-.063.063-.063.11 0 .062.063.124.125.124.11 0 1.016-.89 1.016-2.265Zm0 0"/><path id="c" d="M3.281-5.11c.016-.156.016-.452-.297-.452-.187 0-.343.156-.312.312v.156l.172 1.86-1.531-1.11c-.11-.062-.125-.093-.22-.093-.155 0-.312.171-.312.343 0 .188.11.235.235.297l1.703.813-1.656.796c-.188.094-.282.141-.282.329 0 .171.156.328.313.328.093 0 .11 0 .406-.219l1.344-.969-.172 2c0 .25.203.313.297.313.156 0 .328-.078.328-.313l-.172-2 1.531 1.11c.094.062.125.078.203.078.172 0 .329-.172.329-.328 0-.188-.11-.25-.25-.313-.72-.36-.735-.36-1.688-.797l1.656-.812c.188-.094.282-.14.282-.313 0-.187-.157-.343-.329-.343-.078 0-.109 0-.406.234l-1.328.969Zm0 0"/><path id="d" d="M3.281-7.688h1.344v-.515c-.422.031-1.625.031-2.125.031s-1.703 0-2.125-.031v.515h1.328v7.172H.375V0C.797-.031 2-.031 2.5-.031s1.703 0 2.125.031v-.516H3.281Zm0 0"/><path id="e" d="M6.344-3.656c0-1.14-.485-1.719-1.797-1.719-.86 0-1.61.422-2.016 1.313h-.015v-1.313L.5-5.281v.515c.75 0 .828 0 .828.47v3.78H.5V0c.281-.031 1.14-.031 1.469-.031.343 0 1.203 0 1.484.031v-.516h-.828v-2.546c0-1.282.953-1.922 1.719-1.922.453 0 .703.28.703 1.187v3.281h-.828V0c.281-.031 1.14-.031 1.468-.031.344 0 1.204 0 1.485.031v-.516h-.828Zm0 0"/><path id="f" d="M3.375 1.813h-.828V-.485c.297.25.828.562 1.547.562C5.719.078 7-.922 7-2.672c0-1.64-1.11-2.703-2.719-2.703-.703 0-1.312.234-1.797.625v-.625l-2.062.094v.515c.734 0 .828 0 .828.47v6.109H.422v.5c.266-.016 1.125-.016 1.469-.016.328 0 1.203 0 1.484.015Zm-.828-6a1.998 1.998 0 0 1 1.547-.766c.765 0 1.468.703 1.468 2.281 0 1.735-.859 2.344-1.625 2.344-.5 0-1.015-.25-1.39-.813Zm0 0"/><path id="g" d="M4.219-5.281v.515c.734 0 .828 0 .828.47v2.343c0 .906-.547 1.625-1.469 1.625-.906 0-.953-.297-.953-.953v-4.094L.5-5.281v.515c.75 0 .828 0 .828.47v2.827c0 1.188.797 1.547 2.078 1.547.281 0 1.172 0 1.688-.969h.015v.97L7.172 0v-.516c-.734 0-.828 0-.828-.468v-4.391Zm0 0"/><path id="h" d="M2.516-4.797H4.25v-.516H2.516v-2.28h-.5c0 1.187-.579 2.374-1.766 2.405v.391h.969v3.328c0 1.266.984 1.547 1.843 1.547.876 0 1.407-.672 1.407-1.562v-.625h-.5v.609c0 .797-.36 1.14-.735 1.14-.718 0-.718-.796-.718-1.078Zm0 0"/><path id="n" d="M9.344-4.063c0-2.53-1.64-4.28-4.297-4.28-2.672 0-4.313 1.75-4.313 4.28C.734-1.546 2.422.141 5.047.141s4.297-1.688 4.297-4.204ZM5.047-.313a2.385 2.385 0 0 1-1.984-1.046c-.579-.875-.641-2-.641-2.875 0-.72.047-1.735.531-2.547.531-.828 1.39-1.125 2.094-1.125.969 0 1.687.5 2.031 1.047.438.687.578 1.437.578 2.625 0 1.187-.125 2.171-.718 3-.297.406-.97.921-1.891.921Zm0 0"/></defs><path fill="none" stroke="#000" stroke-miterlimit="10" stroke-width=".399" d="M48.656 21.715V44.39H77V21.715M48.656 44.39v22.676H77V44.391"/><use xlink:href="#a" x="58.276" y="58.718"/><path fill="none" stroke="#000" stroke-miterlimit="10" stroke-width=".399" d="M48.656 67.066v22.68H77v-22.68"/><use xlink:href="#b" x="60.552" y="81.395"/><path fill="none" stroke="#000" stroke-miterlimit="10" stroke-width=".399" d="M48.656 89.746v22.676H77V89.746"/><use xlink:href="#c" x="59.84" y="103.865"/><use xlink:href="#d" x="99.679" y="29.167"/><use xlink:href="#e" x="104.688" y="29.167"/><use xlink:href="#f" x="112.16" y="29.167"/><use xlink:href="#g" x="119.632" y="29.167"/><use xlink:href="#h" x="127.104" y="29.167"/><use xlink:href="#i" x="132.334" y="29.167"/><use xlink:href="#j" x="141.444" y="29.167"/><use xlink:href="#c" x="149.243" y="29.167"/><use xlink:href="#b" x="157.172" y="29.167"/><use xlink:href="#k" x="163.673" y="29.167"/><use xlink:href="#a" x="171.475" y="29.167"/><use xlink:href="#l" x="185.924" y="29.167"/><path fill="none" stroke="#000" stroke-miterlimit="10" stroke-width=".398" d="M182.535 18.273h12.63M182.734 32.355V18.273M194.965 32.355V18.273M182.535 32.355h12.63"/><use xlink:href="#m" x="199.064" y="29.167"/><use xlink:href="#n" x="99.679" y="44.642"/><use xlink:href="#g" x="109.78" y="44.642"/><use xlink:href="#h" x="117.252" y="44.642"/><use xlink:href="#f" x="122.482" y="44.642"/><use xlink:href="#g" x="129.954" y="44.642"/><use xlink:href="#h" x="137.426" y="44.642"/><use xlink:href="#i" x="142.657" y="44.642"/><use xlink:href="#j" x="151.767" y="44.642"/><use xlink:href="#k" x="159.569" y="44.642"/><use xlink:href="#l" x="170.754" y="44.642"/><path fill="none" stroke="#000" stroke-miterlimit="10" stroke-width=".398" d="M167.367 33.75h12.63M167.57 47.828V33.75M179.797 47.828V33.75M167.367 47.828h12.63"/><path fill="none" stroke="#000" stroke-miterlimit="10" stroke-width=".399" d="M57.16 153.809c0-7.829-6.347-14.172-11.11-14.172"/><path stroke="#000" stroke-miterlimit="10" stroke-width=".399" d="m43.555 139.637 3.57 1.343-1.176-1.343 1.176-1.348Zm0 0"/><use xlink:href="#a" x="18.075" y="142.623"/><use xlink:href="#o" x="27.18" y="142.623"/><use xlink:href="#b" x="34.329" y="142.623"/><path fill="none" stroke="#000" stroke-miterlimit="10" stroke-width=".399" d="M48.656 157.777v22.68H77v-22.68M48.656 180.457v22.676H77v-22.676"/><use xlink:href="#c" x="59.84" y="194.573"/><use xlink:href="#d" x="99.679" y="164.316"/><use xlink:href="#e" x="104.688" y="164.316"/><use xlink:href="#f" x="112.16" y="164.316"/><use xlink:href="#g" x="119.632" y="164.316"/><use xlink:href="#h" x="127.104" y="164.316"/><use xlink:href="#i" x="132.334" y="164.316"/><use xlink:href="#j" x="141.444" y="164.316"/><use xlink:href="#c" x="149.243" y="164.316"/><use xlink:href="#b" x="157.172" y="164.316"/><use xlink:href="#k" x="163.673" y="164.316"/><use xlink:href="#a" x="171.475" y="164.316"/><use xlink:href="#l" x="182.529" y="164.316"/><use xlink:href="#m" x="193.726" y="164.316"/><path fill="none" stroke="#000" stroke-miterlimit="10" stroke-width=".398" d="M190.34 152.16h11.324M190.54 170.492V152.16M201.465 170.492V152.16M190.34 170.492h11.324"/><use xlink:href="#n" x="99.679" y="181.967"/><use xlink:href="#g" x="109.78" y="181.967"/><use xlink:href="#h" x="117.252" y="181.967"/><use xlink:href="#f" x="122.482" y="181.967"/><use xlink:href="#g" x="129.954" y="181.967"/><use xlink:href="#h" x="137.426" y="181.967"/><use xlink:href="#i" x="142.657" y="181.967"/><use xlink:href="#j" x="151.767" y="181.967"/><use xlink:href="#k" x="159.569" y="181.967"/><use xlink:href="#l" x="167.371" y="181.967"/><use xlink:href="#a" x="178.556" y="181.967"/><path fill="none" stroke="#000" stroke-miterlimit="10" stroke-width=".398" d="M175.172 171.887h15.879M175.371 186.066v-14.18M190.852 186.066v-14.18M175.172 186.066h15.879"/><path fill="none" stroke="#000" stroke-miterlimit="10" stroke-width=".399" d="M57.16 244.52c0-7.829-6.347-14.176-11.11-14.176"/><path stroke="#000" stroke-miterlimit="10" stroke-width=".399" d="m43.555 230.344 3.57 1.347-1.176-1.347L47.125 229Zm0 0"/><use xlink:href="#c" x="32.908" y="233.124"/><path fill="none" stroke="#000" stroke-miterlimit="10" stroke-width=".399" d="M48.656 248.488v22.676H77v-22.676"/><use xlink:href="#d" x="99.679" y="255.39"/><use xlink:href="#e" x="104.688" y="255.39"/><use xlink:href="#f" x="112.16" y="255.39"/><use xlink:href="#g" x="119.632" y="255.39"/><use xlink:href="#h" x="127.104" y="255.39"/><use xlink:href="#i" x="132.334" y="255.39"/><use xlink:href="#j" x="141.444" y="255.39"/><use xlink:href="#c" x="149.243" y="255.39"/><use xlink:href="#b" x="157.172" y="255.39"/><use xlink:href="#k" x="163.673" y="255.39"/><use xlink:href="#a" x="171.475" y="255.39"/><use xlink:href="#l" x="182.529" y="255.39"/><use xlink:href="#m" x="190.343" y="255.39"/><use xlink:href="#n" x="99.679" y="269.836"/><use xlink:href="#g" x="109.78" y="269.836"/><use xlink:href="#h" x="117.252" y="269.836"/><use xlink:href="#f" x="122.482" y="269.836"/><use xlink:href="#g" x="129.954" y="269.836"/><use xlink:href="#h" x="137.426" y="269.836"/><use xlink:href="#i" x="142.657" y="269.836"/><use xlink:href="#j" x="151.767" y="269.836"/><use xlink:href="#k" x="159.569" y="269.836"/><use xlink:href="#l" x="167.371" y="269.836"/><use xlink:href="#a" x="175.173" y="269.836"/><use xlink:href="#c" x="189.616" y="269.836"/><path fill="none" stroke="#000" stroke-miterlimit="10" stroke-width=".398" d="M186.23 261.086h12.75M186.43 273.023v-11.937M198.781 273.023v-11.937M186.23 273.023h12.75"/></svg>