<svg xmlns="http://www.w3.org/2000/svg" xmlns:xlink="http://www.w3.org/1999/xlink" width="277.546" height="330.196"><defs><path id="a" d="M6.484-4h4.563c.25 0 .547 0 .547-.281 0-.313-.281-.313-.547-.313H6.484v-4.562c0-.25 0-.531-.28-.531-.313 0-.313.265-.313.53v4.563H1.328c-.25 0-.531 0-.531.282 0 .312.265.312.531.312h4.563V.563c0 .25 0 .546.296.546.297 0 .297-.28.297-.546Zm0 0"/><path id="b" d="M5.266 4.203c0-.016 0-.047-.047-.11-.797-.812-2.907-3.015-2.907-8.374 0-5.375 2.079-7.563 2.922-8.422 0-.016.032-.063.032-.11 0-.046-.047-.078-.125-.078-.188 0-1.641 1.266-2.485 3.157-.86 1.921-1.11 3.78-1.11 5.421 0 1.25.126 3.344 1.157 5.563.828 1.797 2.235 3.063 2.438 3.063.093 0 .125-.047.125-.11Zm0 0"/><path id="i" d="M2.86-6.703a.7.7 0 0 0-.704-.703.71.71 0 0 0-.703.703c0 .437.344.719.703.719a.713.713 0 0 0 .703-.72Zm0 6a.69.69 0 0 0-.704-.703.7.7 0 0 0-.703.703.7.7 0 0 0 .703.703.71.71 0 0 0 .703-.703Zm0 0"/><path id="j" d="M4.578-11c0-.36-.016-.375-.25-.375-.672.797-1.687 1.063-2.656 1.094-.047 0-.14 0-.156.031-.016.047-.016.078-.016.438.531 0 1.422-.11 2.11-.516v9.078c0 .594-.032.797-1.516.797h-.516V0a135.04 135.04 0 0 1 2.516-.031c.828 0 1.687.015 2.515.031v-.453h-.515c-1.485 0-1.516-.188-1.516-.797Zm0 0"/><path id="k" d="M7.188-2.672h-.313c-.172 1.219-.313 1.438-.39 1.531C6.405-1 5.171-1 4.921-1H1.625c.61-.672 1.813-1.89 3.281-3.313 1.047-.984 2.282-2.156 2.282-3.859 0-2.031-1.625-3.203-3.438-3.203-1.89 0-3.047 1.656-3.047 3.219 0 .672.5.75.703.75.172 0 .688-.094.688-.703 0-.532-.438-.688-.688-.688a.673.673 0 0 0-.265.047c.328-1.453 1.328-2.188 2.375-2.188 1.5 0 2.468 1.188 2.468 2.766 0 1.485-.875 2.781-1.859 3.906L.703-.39V0h6.063Zm0 0"/><path id="l" d="M3.813-5.86c1.53 0 2.203 1.329 2.203 2.86 0 2.063-1.11 2.86-2.11 2.86-.906 0-2.39-.438-2.86-1.766a.774.774 0 0 0 .266.031c.407 0 .72-.281.72-.719 0-.5-.376-.734-.72-.734-.296 0-.75.14-.75.781C.563-.969 2.125.281 3.938.281c1.922 0 3.376-1.5 3.376-3.265 0-1.672-1.375-2.875-3-3.063 1.296-.266 2.562-1.437 2.562-3.016 0-1.343-1.36-2.312-2.922-2.312s-2.937.953-2.937 2.328c0 .61.453.719.671.719.36 0 .672-.235.672-.672 0-.453-.312-.672-.671-.672-.063 0-.157 0-.22.031.5-1.14 1.86-1.343 2.454-1.343.61 0 1.75.296 1.75 1.937 0 .485-.078 1.344-.656 2.11-.516.671-1.11.703-1.672.75-.094 0-.485.046-.547.046-.125.016-.203.032-.203.157 0 .109.031.125.375.125Zm0 0"/><path id="m" d="M4.531-4.281c0-1.25-.125-3.344-1.156-5.563C2.547-11.64 1.141-12.89.937-12.89c-.062 0-.125.016-.125.094 0 .031.016.063.032.094.828.86 2.922 3.047 2.922 8.39 0 5.375-2.079 7.563-2.922 8.422-.016.047-.031.063-.031.094 0 .078.062.11.125.11.187 0 1.64-1.282 2.484-3.172.86-1.922 1.11-3.782 1.11-5.422Zm0 0"/><path id="o" d="M2.719-.281c.031.156.031.219.031.484 0 1.031-.344 1.984-1.063 2.844-.093.094-.093.125-.093.156 0 .063.078.14.14.14.11 0 1.297-1.202 1.297-3.124 0-.563-.062-1.625-.875-1.625-.375 0-.703.25-.703.703 0 .437.328.703.703.703a.71.71 0 0 0 .563-.281Zm0 0"/><path id="c" d="M4.734-7.36C4.75-7.593 4.75-8 4.313-8c-.282 0-.5.219-.454.438v.234l.235 2.656L1.89-6.266c-.157-.093-.188-.125-.313-.125-.234 0-.453.25-.453.485 0 .281.172.343.344.437l2.437 1.157-2.375 1.156c-.281.14-.406.219-.406.469 0 .265.219.484.453.484.125 0 .156 0 .594-.328l1.922-1.39-.25 2.89c0 .36.312.453.437.453.219 0 .469-.125.469-.453l-.25-2.89 2.203 1.593c.156.094.188.125.313.125.234 0 .453-.235.453-.485s-.157-.343-.36-.453c-1.03-.515-1.062-.515-2.421-1.14l2.375-1.157c.265-.14.406-.203.406-.468 0-.266-.219-.485-.453-.485-.125 0-.157 0-.594.329L4.5-4.673Zm0 0"/><path id="d" d="M4.734-11.078h1.922v-.735c-.61.032-2.328.032-3.062.032-.719 0-2.438 0-3.063-.031v.734H2.47V-.734H.53V0c.625-.031 2.344-.031 3.063-.031.734 0 2.453 0 3.062.031v-.734H4.734Zm0 0"/><path id="e" d="M9.14-5.266c0-1.64-.703-2.484-2.593-2.484-1.25 0-2.313.61-2.89 1.89H3.64v-1.89l-2.922.14v.735c1.078 0 1.187 0 1.187.672v5.469H.72V0c.406-.031 1.64-.031 2.125-.031.484 0 1.734 0 2.125.031v-.734H3.78v-3.672c0-1.86 1.39-2.782 2.485-2.782.64 0 1 .422 1 1.735v4.719H6.078V0c.39-.031 1.64-.031 2.125-.031.469 0 1.735 0 2.125.031v-.734H9.141Zm0 0"/><path id="f" d="M4.86 2.594H3.671V-.703A3.357 3.357 0 0 0 5.89.109c2.359 0 4.203-1.437 4.203-3.953 0-2.375-1.61-3.906-3.922-3.906a4.098 4.098 0 0 0-2.594.89v-.89L.61-7.61v.735c1.063 0 1.188 0 1.188.672v8.797H.609v.75c.391-.031 1.625-.031 2.11-.031.484 0 1.734 0 2.14.03ZM3.671-6.031A2.812 2.812 0 0 1 5.89-7.125c1.125 0 2.14 1.016 2.14 3.281 0 2.5-1.25 3.375-2.344 3.375-.75 0-1.484-.375-2.015-1.187Zm0 0"/><path id="g" d="M6.078-7.61v.735c1.063 0 1.188 0 1.188.672v3.375c0 1.312-.782 2.36-2.125 2.36-1.282 0-1.36-.423-1.36-1.376V-7.75L.72-7.61v.735c1.078 0 1.187 0 1.187.672v4.078c0 1.734 1.157 2.234 3 2.234.422 0 1.688 0 2.422-1.406h.031V.11L10.33 0v-.734c-1.063 0-1.188 0-1.188-.672V-7.75Zm0 0"/><path id="h" d="M3.64-6.906h2.47v-.735H3.64v-3.296h-.734C2.891-9.235 2.062-7.531.36-7.47v.563H1.75v4.781C1.75-.297 3.172.109 4.406.109c1.282 0 2.032-.968 2.032-2.25v-.906h-.72v.89c0 1.141-.515 1.641-1.046 1.641-1.031 0-1.031-1.156-1.031-1.546Zm0 0"/><path id="n" d="M13.469-5.86c0-3.64-2.375-6.156-6.203-6.156-3.844 0-6.204 2.532-6.204 6.157 0 3.64 2.422 6.062 6.204 6.062 3.78 0 6.203-2.422 6.203-6.062ZM7.266-.452a3.409 3.409 0 0 1-2.86-1.516C3.578-3.219 3.5-4.844 3.5-6.094c0-1.047.047-2.5.75-3.672.766-1.203 2-1.64 3.016-1.64 1.39 0 2.421.75 2.921 1.515.641 1 .844 2.079.844 3.797 0 1.703-.187 3.125-1.047 4.313-.421.593-1.375 1.328-2.718 1.328Zm0 0"/></defs><path fill="none" stroke="#000" stroke-miterlimit="10" stroke-width=".399" d="M59.684 25.18V50.69h34.015V25.18M59.684 50.691v25.512h34.015V50.691"/><use xlink:href="#a" x="70.497" y="67.751"/><path fill="none" stroke="#000" stroke-miterlimit="10" stroke-width=".399" d="M59.684 76.203v25.512h34.015V76.203"/><use xlink:href="#b" x="73.645" y="93.263"/><path fill="none" stroke="#000" stroke-miterlimit="10" stroke-width=".399" d="M59.684 101.715v25.512h34.015v-25.512"/><use xlink:href="#c" x="72.389" y="118.476"/><use xlink:href="#d" x="116.378" y="33.92"/><use xlink:href="#e" x="123.591" y="33.92"/><use xlink:href="#f" x="134.351" y="33.92"/><use xlink:href="#g" x="145.111" y="33.92"/><use xlink:href="#h" x="155.87" y="33.92"/><use xlink:href="#i" x="163.402" y="33.92"/><use xlink:href="#j" x="175.601" y="33.92"/><use xlink:href="#c" x="186.122" y="33.92"/><use xlink:href="#b" x="197.361" y="33.92"/><use xlink:href="#k" x="206.091" y="33.92"/><use xlink:href="#a" x="216.62" y="33.92"/><use xlink:href="#l" x="235.02" y="33.92"/><path fill="none" stroke="#000" stroke-miterlimit="10" stroke-width=".398" d="M231.64 19.637h14.673M231.84 37.11V19.636M246.113 37.11V19.636M231.64 37.11h14.673"/><use xlink:href="#m" x="251.574" y="33.92"/><use xlink:href="#n" x="116.378" y="53.049"/><use xlink:href="#g" x="130.923" y="53.049"/><use xlink:href="#h" x="141.683" y="53.049"/><use xlink:href="#f" x="149.215" y="53.049"/><use xlink:href="#g" x="159.974" y="53.049"/><use xlink:href="#h" x="170.734" y="53.049"/><use xlink:href="#i" x="178.266" y="53.049"/><use xlink:href="#j" x="190.465" y="53.049"/><use xlink:href="#k" x="200.994" y="53.049"/><use xlink:href="#l" x="214.897" y="53.049"/><path fill="none" stroke="#000" stroke-miterlimit="10" stroke-width=".398" d="M211.512 38.762h14.672M211.71 56.238V38.766M225.984 56.238V38.766M211.512 56.238h14.672"/><path fill="none" stroke="#000" stroke-miterlimit="10" stroke-width=".399" d="M67.055 172.016c0-7.828-6.344-14.172-10.465-14.172"/><path stroke="#000" stroke-miterlimit="10" stroke-width=".399" d="m53.45 157.844 4.527 1.703-1.485-1.703 1.485-1.707Zm0 0"/><use xlink:href="#a" x="19.436" y="162.145"/><use xlink:href="#o" x="31.828" y="162.145"/><use xlink:href="#b" x="41.324" y="162.145"/><path fill="none" stroke="#000" stroke-miterlimit="10" stroke-width=".399" d="M59.684 178.254v25.512h34.015v-25.512M59.684 203.766v25.511h34.015v-25.511"/><use xlink:href="#c" x="72.389" y="220.524"/><use xlink:href="#d" x="116.378" y="186.028"/><use xlink:href="#e" x="123.591" y="186.028"/><use xlink:href="#f" x="134.351" y="186.028"/><use xlink:href="#g" x="145.111" y="186.028"/><use xlink:href="#h" x="155.87" y="186.028"/><use xlink:href="#i" x="163.402" y="186.028"/><use xlink:href="#j" x="175.601" y="186.028"/><use xlink:href="#c" x="186.122" y="186.028"/><use xlink:href="#b" x="197.361" y="186.028"/><use xlink:href="#k" x="206.091" y="186.028"/><use xlink:href="#a" x="216.62" y="186.028"/><use xlink:href="#l" x="231.645" y="186.028"/><use xlink:href="#m" x="245.549" y="186.028"/><path fill="none" stroke="#000" stroke-miterlimit="10" stroke-width=".398" d="M242.168 169.945h12.871M242.367 193.508v-23.563M254.84 193.508v-23.563M242.168 193.508h12.871"/><use xlink:href="#n" x="116.378" y="207.788"/><use xlink:href="#g" x="130.923" y="207.788"/><use xlink:href="#h" x="141.683" y="207.788"/><use xlink:href="#f" x="149.215" y="207.788"/><use xlink:href="#g" x="159.974" y="207.788"/><use xlink:href="#h" x="170.734" y="207.788"/><use xlink:href="#i" x="178.266" y="207.788"/><use xlink:href="#j" x="190.465" y="207.788"/><use xlink:href="#k" x="200.994" y="207.788"/><use xlink:href="#l" x="211.505" y="207.788"/><use xlink:href="#a" x="225.426" y="207.788"/><path fill="none" stroke="#000" stroke-miterlimit="10" stroke-width=".398" d="M222.04 194.902h19.167M222.238 212.07v-17.172M241.008 212.07v-17.172M222.04 212.07h19.167"/><path fill="none" stroke="#000" stroke-miterlimit="10" stroke-width=".399" d="M67.055 274.066c0-7.828-6.344-14.175-10.465-14.175"/><path stroke="#000" stroke-miterlimit="10" stroke-width=".399" d="m53.45 259.89 4.527 1.708-1.485-1.707 1.485-1.704Zm0 0"/><use xlink:href="#c" x="38.812" y="263.894"/><path fill="none" stroke="#000" stroke-miterlimit="10" stroke-width=".399" d="M59.684 280.3v25.512h34.015v-25.511"/><use xlink:href="#d" x="116.378" y="288.244"/><use xlink:href="#e" x="123.591" y="288.244"/><use xlink:href="#f" x="134.351" y="288.244"/><use xlink:href="#g" x="145.111" y="288.244"/><use xlink:href="#h" x="155.87" y="288.244"/><use xlink:href="#i" x="163.402" y="288.244"/><use xlink:href="#j" x="175.601" y="288.244"/><use xlink:href="#c" x="186.122" y="288.244"/><use xlink:href="#b" x="197.361" y="288.244"/><use xlink:href="#k" x="206.091" y="288.244"/><use xlink:href="#a" x="216.62" y="288.244"/><use xlink:href="#l" x="231.645" y="288.244"/><use xlink:href="#m" x="242.174" y="288.244"/><use xlink:href="#n" x="116.378" y="307.372"/><use xlink:href="#g" x="130.923" y="307.372"/><use xlink:href="#h" x="141.683" y="307.372"/><use xlink:href="#f" x="149.215" y="307.372"/><use xlink:href="#g" x="159.974" y="307.372"/><use xlink:href="#h" x="170.734" y="307.372"/><use xlink:href="#i" x="178.266" y="307.372"/><use xlink:href="#j" x="190.465" y="307.372"/><use xlink:href="#k" x="200.994" y="307.372"/><use xlink:href="#l" x="211.505" y="307.372"/><use xlink:href="#a" x="222.034" y="307.372"/><use xlink:href="#c" x="240.452" y="307.372"/><path fill="none" stroke="#000" stroke-miterlimit="10" stroke-width=".398" d="M237.063 296.176h15.382M237.266 310.563v-14.387M252.246 310.563v-14.387M237.063 310.563h15.382"/></svg>