<svg xmlns="http://www.w3.org/2000/svg" xmlns:xlink="http://www.w3.org/1999/xlink" width="257.96pt" height="145.88pt" viewBox="0 0 257.96 145.88"><defs><path id="x" d="M5.27-.971v-.611h-.273v.611c0 .633-.273.698-.393.698-.36 0-.404-.49-.404-.545V-3c0-.458 0-.884-.392-1.288a2.08 2.08 0 0 0-1.495-.6c-.895 0-1.647.513-1.647 1.233 0 .327.218.513.501.513a.48.48 0 0 0 .502-.502c0-.13-.054-.49-.556-.502.294-.382.829-.502 1.178-.502.535 0 1.157.426 1.157 1.397v.403c-.557.033-1.32.066-2.008.393-.818.371-1.09.939-1.09 1.419C.35-.153 1.406.12 2.094.12a1.51 1.51 0 0 0 1.429-.95c.044.437.338.895.85.895.23 0 .896-.152.896-1.036m-1.822-.556C3.448-.491 2.662-.12 2.17-.12c-.534 0-.982-.382-.982-.927 0-.6.458-1.506 2.259-1.571z"/><path id="B" d="M7.255-2.542c0-.11 0-.186-.142-.186-.12 0-.12.066-.13.175C6.894-.993 5.727-.098 4.538-.098c-.666 0-2.804-.371-2.804-3.622 0-3.262 2.127-3.633 2.793-3.633 1.189 0 2.16.992 2.378 2.585.022.153.022.186.175.186.174 0 .174-.033.174-.262V-7.43c0-.185 0-.262-.12-.262-.043 0-.087 0-.174.131l-.546.808c-.404-.393-.96-.939-2.007-.939-2.04 0-3.797 1.735-3.797 3.96C.611-1.471 2.378.24 4.408.24c1.778 0 2.847-1.516 2.847-2.782"/><path id="p" d="M4.528-1.298c0-.11-.11-.11-.142-.11-.098 0-.12.044-.142.11C3.928-.284 3.218-.153 2.814-.153c-.577 0-1.538-.469-1.538-2.225 0-1.779.895-2.237 1.473-2.237.099 0 .786.011 1.168.404-.448.032-.513.36-.513.502 0 .283.196.501.502.501.283 0 .502-.185.502-.512 0-.742-.83-1.168-1.67-1.168-1.363 0-2.367 1.179-2.367 2.531C.37-.96 1.45.12 2.717.12c1.462 0 1.81-1.31 1.81-1.418"/><path id="r" d="M5.75 0v-.338c-.764 0-.851-.077-.851-.611v-6.623l-1.571.12v.339c.763 0 .85.076.85.61v2.357c-.316-.393-.785-.676-1.374-.676C1.516-4.822.37-3.753.37-2.346.37-.96 1.44.12 2.684.12c.698 0 1.189-.37 1.462-.72v.72zM4.146-1.287c0 .196 0 .218-.12.403-.328.524-.818.764-1.288.764-.49 0-.883-.284-1.145-.698-.284-.448-.317-1.07-.317-1.517 0-.403.022-1.058.339-1.549.229-.338.643-.698 1.233-.698.381 0 .84.163 1.178.654.12.186.12.208.12.404z"/><path id="q" d="M4.528-1.298c0-.11-.088-.131-.142-.131-.098 0-.12.065-.142.153C3.862-.153 2.88-.153 2.771-.153c-.545 0-.982-.327-1.233-.73-.327-.524-.327-1.244-.327-1.637h3.044c.24 0 .273 0 .273-.23 0-1.08-.59-2.138-1.953-2.138-1.266 0-2.27 1.124-2.27 2.488 0 1.462 1.146 2.52 2.4 2.52 1.332 0 1.823-1.211 1.823-1.418m-.72-1.451H1.222c.065-1.626.982-1.899 1.353-1.899 1.123 0 1.233 1.473 1.233 1.899"/><path id="y" d="M5.837 0v-.338c-.567 0-.84 0-.851-.328v-2.083c0-.939 0-1.277-.338-1.67-.153-.185-.513-.403-1.146-.403-.916 0-1.396.654-1.57 1.047H1.92v-3.797l-1.57.12v.339c.763 0 .85.076.85.61v5.674c0 .49-.12.49-.85.49V0l1.232-.033L2.804 0v-.338c-.731 0-.851 0-.851-.491v-2.008c0-1.134.775-1.745 1.473-1.745.687 0 .807.589.807 1.21v2.543c0 .49-.12.49-.85.49V0l1.232-.033z"/><path id="F" d="M3.633 0v-.338h-.284c-.862 0-.894-.12-.894-.513v-5.75c0-.392.032-.512.894-.512h.284v-.339c-.382.033-1.244.033-1.658.033-.426 0-1.288 0-1.67-.033v.339H.59c.862 0 .895.12.895.512v5.75c0 .393-.033.513-.895.513H.305V0C.687-.033 1.55-.033 1.964-.033c.425 0 1.287 0 1.669.033"/><path id="z" d="M2.695 0v-.338c-.72 0-.764-.055-.764-.48v-4.004l-1.527.12v.338c.709 0 .807.065.807.6v2.935c0 .49-.12.49-.851.49V0l1.2-.033c.382 0 .764.022 1.135.033m-.6-6.59a.583.583 0 0 0-1.167 0 .583.583 0 0 0 1.167 0"/><path id="E" d="M2.782 0v-.338c-.73 0-.85 0-.85-.491v-6.743l-1.572.12v.339c.764 0 .851.076.851.61v5.674c0 .49-.12.49-.851.49V0l1.211-.033z"/><path id="w" d="M9.59 0v-.338h-.262c-.84 0-.862-.12-.862-.513v-5.75c0-.392.022-.512.862-.512h.262v-.339H7.746c-.284 0-.284.011-.36.208l-2.39 6.142-2.367-6.11c-.098-.24-.13-.24-.382-.24H.404v.339h.262c.84 0 .861.12.861.512v5.455c0 .295 0 .808-1.123.808V0L1.68-.033 2.957 0v-.338c-1.124 0-1.124-.513-1.124-.808v-5.88h.01L4.474-.24c.055.142.11.24.218.24.12 0 .153-.087.197-.207l2.684-6.906h.01v6.262c0 .393-.021.513-.861.513h-.262V0c.403-.033 1.145-.033 1.57-.033s1.157 0 1.56.033"/><path id="C" d="M8.87 0v-.338c-.567 0-.84 0-.851-.328v-2.083c0-.939 0-1.277-.338-1.67-.153-.185-.513-.403-1.146-.403-.916 0-1.396.654-1.582 1.069-.153-.95-.96-1.07-1.45-1.07-.797 0-1.31.47-1.616 1.146v-1.145l-1.538.12v.338c.764 0 .851.076.851.611v2.924c0 .49-.12.49-.85.49V0l1.232-.033L2.804 0v-.338c-.731 0-.851 0-.851-.491v-2.008c0-1.134.775-1.745 1.473-1.745.687 0 .807.589.807 1.21v2.543c0 .49-.12.49-.85.49V0l1.232-.033L5.837 0v-.338c-.731 0-.851 0-.851-.491v-2.008c0-1.134.774-1.745 1.473-1.745.687 0 .807.589.807 1.21v2.543c0 .49-.12.49-.85.49V0l1.232-.033z"/><path id="A" d="M5.837 0v-.338c-.567 0-.84 0-.851-.328v-2.083c0-.939 0-1.277-.338-1.67-.153-.185-.513-.403-1.146-.403-.796 0-1.31.469-1.615 1.145v-1.145l-1.538.12v.338c.764 0 .851.076.851.611v2.924c0 .49-.12.49-.85.49V0l1.232-.033L2.804 0v-.338c-.731 0-.851 0-.851-.491v-2.008c0-1.134.775-1.745 1.473-1.745.687 0 .807.589.807 1.21v2.543c0 .49-.12.49-.85.49V0l1.232-.033z"/><path id="m" d="M5.139-2.335c0-1.396-1.091-2.553-2.411-2.553-1.364 0-2.423 1.19-2.423 2.553A2.435 2.435 0 0 0 2.717.12a2.43 2.43 0 0 0 2.422-2.455m-.906-.087c0 .393 0 .982-.24 1.462-.24.49-.72.807-1.265.807-.47 0-.95-.229-1.244-.73-.273-.48-.273-1.146-.273-1.539 0-.426 0-1.015.262-1.495a1.46 1.46 0 0 1 1.244-.73c.48 0 .949.24 1.232.708s.284 1.102.284 1.517"/><path id="D" d="M5.684-2.357c0-1.385-1.058-2.465-2.28-2.465-.851 0-1.31.48-1.527.72v-.72l-1.572.12v.338c.775 0 .851.065.851.546v5.105c0 .491-.12.491-.85.491v.339l1.221-.033 1.233.033v-.339c-.73 0-.85 0-.85-.49V-.645c.054.175.512.764 1.341.764C4.55.12 5.684-.95 5.684-2.357m-.905 0c0 1.32-.764 2.237-1.571 2.237-.437 0-.851-.218-1.146-.666-.153-.229-.153-.24-.153-.458v-2.433c.317-.556.851-.872 1.408-.872.796 0 1.462.96 1.462 2.192"/><path id="k" d="M3.611 2.618c0-.032 0-.054-.185-.24-1.364-1.374-1.713-3.436-1.713-5.105 0-1.899.414-3.797 1.756-5.16.142-.132.142-.154.142-.186 0-.077-.043-.11-.109-.11-.109 0-1.09.742-1.735 2.128-.556 1.2-.687 2.411-.687 3.327 0 .851.12 2.172.72 3.404.655 1.342 1.593 2.052 1.702 2.052.066 0 .11-.033.11-.11"/><path id="s" d="M3.153-2.727c0-.851-.12-2.172-.72-3.404C1.778-7.473.84-8.182.73-8.182c-.065 0-.11.043-.11.109 0 .032 0 .054.208.25C1.9-6.742 2.52-5.007 2.52-2.726c0 1.865-.403 3.785-1.756 5.16-.142.13-.142.153-.142.185 0 .066.044.11.109.11.11 0 1.091-.742 1.735-2.128.556-1.2.687-2.411.687-3.327"/><path id="o" d="M3.971-4.157c0-.349-.338-.665-.807-.665-.797 0-1.19.73-1.342 1.2v-1.2l-1.517.12v.338c.764 0 .851.076.851.611v2.924c0 .49-.12.49-.85.49V0l1.243-.033c.437 0 .95 0 1.386.033v-.338h-.23c-.807 0-.828-.12-.828-.513v-1.68c0-1.08.458-2.051 1.287-2.051.076 0 .098 0 .12.01a.47.47 0 0 0-.251.426c0 .306.23.47.47.47.195 0 .468-.132.468-.48"/><path id="l" d="M5.444-2.03c0-1.09-.72-1.985-1.636-2.203L2.41-4.571A1.425 1.425 0 0 1 1.31-5.957c0-.764.59-1.43 1.44-1.43 1.822 0 2.062 1.79 2.128 2.281.01.066.01.131.13.131.143 0 .143-.055.143-.262V-7.43c0-.185 0-.262-.12-.262-.077 0-.088.011-.164.142l-.382.622c-.327-.316-.775-.764-1.746-.764a2.115 2.115 0 0 0-.698 4.113c.12.044.677.175 1.44.36.295.077.622.153.928.557.229.284.338.644.338 1.004 0 .774-.546 1.56-1.462 1.56-.316 0-1.146-.055-1.724-.59-.633-.588-.665-1.287-.676-1.68-.011-.109-.098-.109-.131-.109-.142 0-.142.077-.142.273v2.182c0 .186 0 .262.12.262C.807.24.818.218.895.098c0 0 .032-.043.392-.622.339.371 1.037.764 2.008.764 1.276 0 2.15-1.07 2.15-2.27"/><path id="G" d="M3.622-1.353v-.622H3.35v.6c0 .808-.327 1.222-.73 1.222-.732 0-.732-.993-.732-1.178v-3.033h1.56v-.338h-1.56V-6.71h-.272c-.011.895-.339 2.062-1.408 2.106v.24h.928v3.011C1.135-.01 2.149.12 2.542.12c.775 0 1.08-.775 1.08-1.473"/><path id="n" d="M5.837 0v-.338c-.764 0-.851-.077-.851-.611v-3.873l-1.604.12v.338c.764 0 .851.076.851.611v1.942c0 .95-.524 1.691-1.32 1.691-.916 0-.96-.513-.96-1.08v-3.622l-1.604.12v.338c.851 0 .851.033.851 1.004v1.636C1.2-.873 1.2.12 2.858.12c.611 0 1.091-.305 1.408-.982V.12z"/><path id="H" d="M5.63 0v-.338c-.59 0-.786-.022-1.037-.338L3.131-2.564c.327-.414.742-.949 1.004-1.233.338-.392.785-.556 1.298-.567v-.338c-.283.022-.61.033-.894.033-.328 0-.906-.022-1.048-.033v.338c.23.022.317.164.317.338s-.11.317-.164.382l-.676.851-.851-1.102c-.099-.109-.099-.13-.099-.196 0-.164.164-.262.382-.273v-.338l-1.178.033c-.23 0-.742-.011-1.037-.033v.338c.764 0 .775.01 1.288.666l1.08 1.407c-.513.654-.513.676-1.026 1.298a1.75 1.75 0 0 1-1.396.655V0c.284-.022.622-.033.905-.033L2.073 0v-.338c-.24-.033-.316-.175-.316-.338 0-.24.316-.6.981-1.386l.83 1.091c.087.12.229.295.229.36 0 .098-.099.262-.393.273V0l1.178-.033c.295 0 .72.011 1.048.033"/><path id="h" d="M5.062-1.19c0-.305-.316-.305-.382-.305-.196 0-.283.033-.36.24-.24.557-.829.655-1.134.655-.819 0-1.637-.546-1.811-1.484h3.25c.23 0 .437 0 .437-.403 0-1.244-.698-2.313-2.116-2.313C1.647-4.8.6-3.71.6-2.367.6-1.037 1.702.065 3.11.065c1.44 0 1.952-.981 1.952-1.254m-.774-1.548H1.386c.152-.797.796-1.397 1.56-1.397.567 0 1.243.273 1.342 1.397"/><path id="g" d="M5.477-.327c0-.339-.262-.339-.437-.339h-.272V-6h.272c.164 0 .437 0 .437-.328 0-.338-.262-.338-.437-.338H3.742c-.164 0-.436 0-.436.327 0 .339.262.339.436.339h.273v2.203H1.702V-6h.273c.163 0 .436 0 .436-.328 0-.338-.262-.338-.436-.338H.676c-.174 0-.436 0-.436.338C.24-6 .513-6 .676-6H.95v5.334H.676c-.174 0-.436 0-.436.339C.24 0 .513 0 .676 0h1.299c.163 0 .436 0 .436-.327 0-.339-.262-.339-.436-.339h-.273V-3.13h2.313v2.465h-.273c-.164 0-.436 0-.436.328 0 .338.262.338.436.338H5.04c.164 0 .437 0 .437-.327"/><path id="c" d="M4.964-.327c0-.339-.284-.339-.447-.339H3.37v-3.589c0-.338-.065-.447-.436-.447h-1.55c-.163 0-.447 0-.447.327 0 .338.284.338.448.338h1.232v3.371h-1.32c-.174 0-.447 0-.447.339 0 .327.284.327.447.327h3.219c.163 0 .447 0 .447-.327m-1.55-5.728c0-.306-.24-.546-.545-.546s-.545.24-.545.546.24.545.545.545.546-.24.546-.545"/><path id="i" d="M5.095-.327c0-.339-.262-.339-.436-.339H3.24v-5.553c0-.338-.065-.447-.436-.447H1.08c-.174 0-.447 0-.447.338C.633-6 .916-6 1.069-6h1.418v5.334H1.08c-.174 0-.447 0-.447.339C.633 0 .916 0 1.069 0h3.59c.163 0 .436 0 .436-.327"/><path id="d" d="M5.586-.327c0-.339-.273-.339-.447-.339h-.48v-2.53c0-1.103-.557-1.572-1.419-1.572-.73 0-1.222.371-1.429.579 0-.35 0-.513-.436-.513H.578c-.174 0-.447 0-.447.338 0 .327.284.327.436.327h.491v3.371h-.48c-.174 0-.447 0-.447.339C.13 0 .415 0 .567 0h1.735c.153 0 .436 0 .436-.327 0-.339-.272-.339-.447-.339h-.48v-1.93c0-1.092.807-1.506 1.364-1.506.578 0 .73.305.73.96v2.476H3.48c-.174 0-.447 0-.447.339 0 .327.295.327.447.327h1.67c.152 0 .436 0 .436-.327"/><path id="j" d="M5.095-2.357C5.095-3.72 4.08-4.8 2.858-4.8S.622-3.72.622-2.357C.622-.97 1.658.065 2.858.065S5.095-.982 5.095-2.357m-.753-.076C4.342-1.418 3.666-.6 2.858-.6s-1.483-.818-1.483-1.833c0-.993.709-1.702 1.483-1.702.786 0 1.484.71 1.484 1.702"/><path id="u" d="M4.822-.327c0-.339-.262-.339-.436-.339h-.993v-5.673c0-.174 0-.447-.327-.447-.208 0-.273.13-.328.262-.414.927-.981 1.047-1.189 1.069-.174.01-.403.033-.403.338 0 .273.196.328.36.328.207 0 .654-.066 1.134-.48v4.603h-.993c-.174 0-.436 0-.436.339 0 .327.273.327.436.327h2.739c.163 0 .436 0 .436-.327"/><path id="a" d="M5.324-2.357c0-1.341-.97-2.41-2.127-2.41-.524 0-1.015.196-1.386.534 0-.316-.022-.47-.436-.47H.578c-.174 0-.447 0-.447.339 0 .327.284.327.436.327h.491v5.794h-.48c-.174 0-.447 0-.447.338 0 .327.284.327.436.327h1.735c.153 0 .436 0 .436-.327 0-.338-.272-.338-.447-.338h-.48V-.491c.447.458.917.556 1.266.556 1.189 0 2.247-1.036 2.247-2.422m-.753 0C4.571-1.309 3.808-.6 3.044-.6c-.851 0-1.233-.96-1.233-1.484v-.796c0-.644.633-1.222 1.32-1.222.808 0 1.44.796 1.44 1.745"/><path id="v" d="M3.546-.676a.682.682 0 1 0-1.364-.011.682.682 0 0 0 1.364.01"/><path id="f" d="M4.31-6.186c.032-.513-.339-.6-.48-.6-.208 0-.524.12-.492.6l.142 2.215c.011.163.044.393.35.393.272 0 .327-.197.338-.382zm-1.932 0c.033-.513-.338-.6-.48-.6-.207 0-.523.12-.49.6l.141 2.215c.011.163.044.393.35.393.272 0 .327-.197.338-.382z"/><path id="b" d="M5.313-4.091c0-.218-.13-.677-1.036-.677-.557 0-1.255.197-1.855.884v-.37c0-.34-.065-.448-.436-.448h-1.2c-.164 0-.437 0-.437.327 0 .338.262.338.437.338h.883v3.371H.786c-.164 0-.437 0-.437.328C.35 0 .611 0 .786 0h2.847c.164 0 .447 0 .447-.327 0-.339-.283-.339-.447-.339H2.422v-1.363c0-1.026.644-2.073 1.964-2.073.01.262.196.48.469.48a.45.45 0 0 0 .458-.47"/><path id="e" d="M4.899-1.375c0-.196 0-.425-.382-.425-.36 0-.371.229-.371.414-.011.677-.633.786-.884.786-.84 0-.84-.567-.84-.84v-2.597h1.79c.163 0 .436 0 .436-.327 0-.338-.262-.338-.437-.338H2.422v-.895c0-.207 0-.447-.37-.447-.383 0-.383.229-.383.447v.895H.72c-.174 0-.447 0-.447.338 0 .327.272.327.436.327h.96v2.662c0 1.048.742 1.44 1.539 1.44.807 0 1.69-.469 1.69-1.44"/><path id="t" d="M5.171-3.328c0-2.029-1.112-3.458-2.313-3.458-1.221 0-2.312 1.462-2.312 3.448C.546-1.31 1.658.12 2.858.12c1.222 0 2.313-1.462 2.313-3.448m-.752-.12c0 1.615-.71 2.903-1.56 2.903s-1.56-1.288-1.56-2.903c0-1.592.752-2.673 1.56-2.673.796 0 1.56 1.07 1.56 2.673"/></defs><path fill="none" stroke="#000" stroke-miterlimit="10" stroke-width=".3985" d="M11.538 37.784h82.424V20.608H11.538Z"/><g transform="translate(34.772 74.184)scale(1.00008)"><use xlink:href="#a" x="-19.251588" y="-42.809531"/><use xlink:href="#b" x="-13.523838" y="-42.809531"/><use xlink:href="#c" x="-7.796088" y="-42.809531"/><use xlink:href="#d" x="-2.068337" y="-42.809531"/><use xlink:href="#e" x="3.659413" y="-42.809531"/><use xlink:href="#f" x="15.104003" y="-42.809531"/><use xlink:href="#g" x="20.831753" y="-42.809531"/><use xlink:href="#h" x="26.559503" y="-42.809531"/><use xlink:href="#i" x="32.287253" y="-42.809531"/><use xlink:href="#i" x="38.015006" y="-42.809531"/><use xlink:href="#j" x="43.742758" y="-42.809531"/><use xlink:href="#f" x="49.470511" y="-42.809531"/></g><g transform="translate(39.409 103.076)scale(1.00008)"><use xlink:href="#k" x="-19.251588" y="-42.809531"/><use xlink:href="#l" x="-15.007598" y="-42.809531"/><use xlink:href="#m" x="-8.941639" y="-42.809531"/><use xlink:href="#n" x="-3.486639" y="-42.809531"/><use xlink:href="#o" x="2.579322" y="-42.809531"/><use xlink:href="#p" x="6.856042" y="-42.809531"/><use xlink:href="#q" x="11.700082" y="-42.809531"/><use xlink:href="#p" x="20.166242" y="-42.809531"/><use xlink:href="#m" x="25.010282" y="-42.809531"/><use xlink:href="#r" x="30.770761" y="-42.809531"/><use xlink:href="#q" x="36.836723" y="-42.809531"/><use xlink:href="#s" x="41.680762" y="-42.809531"/></g><path fill="none" stroke="#000" stroke-miterlimit="10" stroke-width=".3985" d="M167.474 36.633h76.698V21.76h-76.698Z"/><g transform="translate(190.709 75.335)scale(1.00008)"><use xlink:href="#t" x="-19.251588" y="-42.809531"/><use xlink:href="#u" x="-13.523838" y="-42.809531"/><use xlink:href="#t" x="-7.796088" y="-42.809531"/><use xlink:href="#t" x="-2.068337" y="-42.809531"/><use xlink:href="#u" x="3.659413" y="-42.809531"/><use xlink:href="#t" x="9.387163" y="-42.809531"/><use xlink:href="#t" x="15.114914" y="-42.809531"/><use xlink:href="#t" x="20.842664" y="-42.809531"/><use xlink:href="#u" x="26.570414" y="-42.809531"/><use xlink:href="#v" x="32.298164" y="-42.809531"/><use xlink:href="#v" x="38.025917" y="-42.809531"/><use xlink:href="#v" x="43.753669" y="-42.809531"/></g><g transform="translate(188.254 103.076)scale(1.00008)"><use xlink:href="#k" x="-19.251588" y="-42.809531"/><use xlink:href="#w" x="-15.007598" y="-42.809531"/><use xlink:href="#x" x="-5.003128" y="-42.809531"/><use xlink:href="#p" x=".451872" y="-42.809531"/><use xlink:href="#y" x="4.990433" y="-42.809531"/><use xlink:href="#z" x="11.056393" y="-42.809531"/><use xlink:href="#A" x="14.089373" y="-42.809531"/><use xlink:href="#q" x="20.155335" y="-42.809531"/><use xlink:href="#p" x="28.621494" y="-42.809531"/><use xlink:href="#m" x="33.465535" y="-42.809531"/><use xlink:href="#r" x="39.226012" y="-42.809531"/><use xlink:href="#q" x="45.291972" y="-42.809531"/><use xlink:href="#s" x="50.136011" y="-42.809531"/></g><path fill="none" stroke="#000" stroke-miterlimit="10" stroke-width=".3985" d="M180.003 106.117h51.64V88.34h-51.64Z"/><g transform="translate(203.238 142.822)scale(1.00008)"><use xlink:href="#B" x="-19.251588" y="-42.809531"/><use xlink:href="#m" x="-11.374568" y="-42.809531"/><use xlink:href="#C" x="-5.919568" y="-42.809531"/><use xlink:href="#D" x="3.168462" y="-42.809531"/><use xlink:href="#z" x="9.234422" y="-42.809531"/><use xlink:href="#E" x="12.267402" y="-42.809531"/><use xlink:href="#q" x="15.300382" y="-42.809531"/><use xlink:href="#o" x="20.144424" y="-42.809531"/></g><path fill="none" stroke="#000" stroke-miterlimit="10" stroke-width=".3985" d="M176.032 134.344h59.581v-17.537h-59.58Z"/><g transform="translate(199.267 171.049)scale(1.00008)"><use xlink:href="#F" x="-19.251588" y="-42.809531"/><use xlink:href="#A" x="-15.313078" y="-42.809531"/><use xlink:href="#G" x="-9.552598" y="-42.809531"/><use xlink:href="#q" x="-5.308608" y="-42.809531"/><use xlink:href="#o" x="-.464568" y="-42.809531"/><use xlink:href="#D" x="3.812152" y="-42.809531"/><use xlink:href="#o" x="9.878112" y="-42.809531"/><use xlink:href="#q" x="14.154833" y="-42.809531"/><use xlink:href="#G" x="18.998872" y="-42.809531"/><use xlink:href="#q" x="23.242861" y="-42.809531"/><use xlink:href="#o" x="28.086903" y="-42.809531"/></g><path fill="none" stroke="#000" stroke-miterlimit="10" stroke-width=".3985" d="M94.162 29.196h69.444"/><path d="m166.707 29.196-4.468-1.682 1.466 1.682-1.466 1.682Z"/><path fill="none" stroke="#000" stroke-miterlimit="10" stroke-width=".3985" d="m166.707 29.196-4.468-1.682 1.466 1.682-1.466 1.682Z"/><g transform="translate(131.788 65.702)scale(1.00008)"><use xlink:href="#p" x="-19.251588" y="-42.809531"/><use xlink:href="#m" x="-14.407548" y="-42.809531"/><use xlink:href="#C" x="-8.952548" y="-42.809531"/><use xlink:href="#D" x=".135483" y="-42.809531"/><use xlink:href="#z" x="6.201443" y="-42.809531"/><use xlink:href="#E" x="9.234423" y="-42.809531"/><use xlink:href="#q" x="12.267403" y="-42.809531"/></g><path fill="none" stroke="#000" stroke-miterlimit="10" stroke-width=".3985" d="M179.804 97.228c-45.355 0-50.518-34.016-50.518-60.179"/><path d="m129.286 33.947-1.682 4.468 1.682-1.466 1.682 1.466Z"/><path fill="none" stroke="#000" stroke-miterlimit="10" stroke-width=".3985" d="m129.286 33.947-1.682 4.468 1.682-1.466 1.682 1.466ZM175.833 125.575c-73.702 0-123.083-11.339-123.083-54.724"/><path d="m52.75 67.749-1.682 4.468 1.682-1.466 1.682 1.466Z"/><path fill="none" stroke="#000" stroke-miterlimit="10" stroke-width=".3985" d="m52.75 67.749-1.682 4.468 1.682-1.466 1.682 1.466Z"/><g transform="translate(113.193 155.747)scale(1.00008)"><use xlink:href="#q" x="-19.251588" y="-42.809531"/><use xlink:href="#H" x="-14.407548" y="-42.809531"/><use xlink:href="#q" x="-8.647068" y="-42.809531"/><use xlink:href="#p" x="-3.803028" y="-42.809531"/><use xlink:href="#n" x="1.041013" y="-42.809531"/><use xlink:href="#G" x="7.106973" y="-42.809531"/><use xlink:href="#q" x="11.350963" y="-42.809531"/></g></svg>