<svg xmlns="http://www.w3.org/2000/svg" xmlns:xlink="http://www.w3.org/1999/xlink" width="215.831" height="117.97"><defs><path id="a" d="M6.656-4.375c0-2.672-1.422-4.563-2.968-4.563-1.563 0-2.97 1.922-2.97 4.547 0 2.672 1.423 4.563 2.97 4.563 1.562 0 2.968-1.922 2.968-4.547ZM3.688-.656c-1.141 0-2.032-1.735-2.032-3.875 0-2.14.985-3.578 2.032-3.578 1.046 0 2.03 1.437 2.03 3.578 0 2.125-.905 3.875-2.03 3.875Zm0 0"/><path id="b" d="m4.047-3.188 1.64-2.156h.516c.188 0 .563 0 .563-.422 0-.421-.375-.421-.563-.421H4.61c-.203 0-.578 0-.578.421 0 .422.344.422.688.422L3.64-3.875 2.53-5.344c.344 0 .688 0 .688-.422 0-.421-.375-.421-.578-.421H1.047c-.203 0-.578 0-.578.421 0 .422.375.422.578.422h.5L3.25-3.187 1.469-.829h-.5c-.188 0-.578 0-.578.406C.39 0 .78 0 .969 0h1.578c.203 0 .578 0 .578-.422 0-.406-.328-.406-.719-.406l1.235-1.813L4.937-.828c-.359 0-.703 0-.703.406 0 .422.375.422.579.422H6.39c.203 0 .578 0 .578-.422 0-.406-.375-.406-.578-.406h-.5Zm0 0"/><path id="c" d="M4.36-8.344c0-.219 0-.594-.423-.594-.234 0-.328.126-.406.313C3.25-8 2.781-7.25 2.016-7.187c-.204.015-.516.046-.516.421 0 .235.156.407.469.407.797 0 1.422-.594 1.453-.625v6.156h-1.25c-.203 0-.594 0-.594.406 0 .422.39.422.594.422h3.453c.203 0 .578 0 .578-.422 0-.406-.375-.406-.578-.406H4.359Zm0 0"/><path id="e" d="M.547-3.438c-.125.188-.125.204-.125.47 0 .5.187.562.562.562H4.5v1.578h-.86c-.203 0-.578 0-.578.406 0 .422.376.422.579.422h2.53c.204 0 .563 0 .563-.422 0-.406-.359-.406-.562-.406h-.86v-1.578h1.079c.187 0 .562 0 .562-.422 0-.406-.375-.406-.562-.406H5.312v-5.141c0-.469-.109-.594-.593-.594H4.39c-.344 0-.422.016-.594.297Zm.828.204L4.5-8.266v5.032Zm0 0"/><path id="g" d="M4.766-4.734c1.14-.344 1.796-1.11 1.796-1.907 0-1.171-1.203-2.296-2.875-2.296-1.671 0-2.874 1.124-2.874 2.296 0 .829.687 1.579 1.796 1.907-1.453.453-2 1.453-2 2.25C.61-1.078 1.938.172 3.688.172c1.75 0 3.062-1.234 3.062-2.656 0-.782-.531-1.797-1.984-2.25Zm-1.079-.422c-1.14 0-1.937-.703-1.937-1.469 0-.797.828-1.484 1.938-1.484 1.109 0 1.937.687 1.937 1.484 0 .766-.813 1.469-1.938 1.469Zm0 4.5c-1.234 0-2.14-.875-2.14-1.828 0-1.016.969-1.829 2.14-1.829 1.204 0 2.141.86 2.141 1.813 0 1.016-.937 1.844-2.14 1.844Zm0 0"/><path id="i" d="M5.938-4.078c0-1.078-.813-2.234-2.75-2.234-.61 0-2 0-2 .984 0 .39.28.61.593.61.078 0 .563-.032.578-.626 0-.078 0-.093.313-.125.172-.015.36-.015.531-.015.328 0 .813 0 1.281.359C5-4.719 5-4.312 5-3.906c-.844.031-1.672.094-2.563.375-.718.25-1.64.765-1.64 1.734 0 1.016.906 1.89 2.25 1.89C3.5.094 4.39.017 5.14-.5c.28.469 1 .5 1.546.5.344 0 .688 0 .688-.422 0-.406-.375-.406-.578-.406-.375 0-.656-.031-.86-.125ZM5-1.891c0 .329 0 .625-.578.907-.5.234-1.188.234-1.219.234-.844 0-1.469-.453-1.469-1.047 0-.844 1.532-1.328 3.266-1.328Zm0 0"/><path id="j" d="M3.094-2.719c0-1.703 1.203-2.719 2.422-2.719.078 0 .171 0 .234.016.047.516.453.563.547.563a.55.55 0 0 0 .562-.563c0-.61-.609-.844-1.328-.844-.953 0-1.765.422-2.437 1.235v-.563c0-.437-.078-.593-.563-.593H1.078c-.203 0-.578 0-.578.421 0 .422.375.422.578.422h1.094v4.516H1.078c-.203 0-.578 0-.578.406C.5 0 .875 0 1.078 0H4.61c.204 0 .563 0 .563-.422 0-.406-.36-.406-.563-.406H3.094Zm0 0"/><path id="d" d="M5.234-10.016c0-.265 0-.718-.5-.718-.296 0-.39.156-.5.39-.328.735-.89 1.64-1.812 1.719-.25.016-.61.047-.61.5 0 .297.172.5.547.5.97 0 1.704-.719 1.75-.766V-1H2.594c-.235 0-.703 0-.703.5s.468.5.703.5H6.75c.234 0 .703 0 .703-.5S6.984-1 6.75-1H5.234Zm0 0"/><path id="f" d="M5.984-3.781C6.234-4 7.97-5.47 7.97-7.391c0-1.953-1.61-3.343-3.766-3.343-2 0-3.328 1.5-3.328 2.953 0 .718.61.765.703.765a.685.685 0 0 0 .688-.703c0-.328-.11-.422-.204-.5.25-.906 1.032-1.515 2.032-1.515 1.468 0 2.765.843 2.765 2.343 0 1.344-1.015 2.375-1.953 3.188L1.125-.906C.937-.75.875-.703.875-.5c0 .5.469.5.703.5h6.016c.375-.11.375-.453.375-.703v-.36c0-.312 0-.718-.547-.718-.563 0-.563.375-.563.781H2.703Zm0 0"/><path id="h" d="M4.406-5.188c1.797 0 2.578 1.266 2.578 2.188 0 1.14-1 2.203-2.5 2.203-1.734 0-2.5-.922-2.5-1.172a.12.12 0 0 1 .032-.078.95.95 0 0 0 .125-.422.683.683 0 0 0-.688-.687c-.375 0-.719.234-.719.765 0 1.5 1.641 2.594 3.75 2.594 2.157 0 3.625-1.547 3.625-3.187 0-.875-.484-2.094-2-2.75 1.047-.657 1.516-1.688 1.516-2.579 0-1.296-1.281-2.421-3.14-2.421-1.923 0-3.266.828-3.266 2.109 0 .563.437.734.703.734.312 0 .703-.234.703-.703 0-.281-.14-.422-.14-.453.515-.64 1.703-.687 2-.687 1.156 0 2.03.625 2.03 1.437 0 .5-.327 1.922-2.14 2.047-.64.031-.906.063-.984.063-.344.046-.422.265-.422.5 0 .5.36.5.64.5Zm0 0"/></defs><path fill="none" stroke="#000" stroke-miterlimit="10" stroke-width=".399" d="M14.371 39.82h23.387v39.684H14.37M178.074 39.82h23.387M178.074 79.504h23.387M37.758 39.82H84.53v39.684H37.758"/><use xlink:href="#a" x="46.379" y="28.204"/><use xlink:href="#b" x="53.762" y="28.204"/><use xlink:href="#c" x="61.144" y="28.204"/><use xlink:href="#a" x="68.527" y="28.204"/><use xlink:href="#d" x="56.715" y="64.923"/><path fill="none" stroke="#000" stroke-miterlimit="10" stroke-width=".399" d="M84.531 39.82h46.77v39.684H84.53"/><use xlink:href="#a" x="93.151" y="28.204"/><use xlink:href="#b" x="100.534" y="28.204"/><use xlink:href="#c" x="107.916" y="28.204"/><use xlink:href="#e" x="115.299" y="28.204"/><use xlink:href="#f" x="103.486" y="64.923"/><path fill="none" stroke="#000" stroke-miterlimit="10" stroke-width=".399" d="M131.3 39.82h46.774v39.684h-46.773"/><use xlink:href="#a" x="139.923" y="28.204"/><use xlink:href="#b" x="147.306" y="28.204"/><use xlink:href="#c" x="154.688" y="28.204"/><use xlink:href="#g" x="162.071" y="28.204"/><use xlink:href="#h" x="150.258" y="64.923"/><use xlink:href="#i" x="50.071" y="98.534"/><use xlink:href="#j" x="57.454" y="98.534"/><use xlink:href="#j" x="64.836" y="98.534"/></svg>