<svg xmlns="http://www.w3.org/2000/svg" xmlns:xlink="http://www.w3.org/1999/xlink" width="439.13" height="207.741"><defs><path id="a" d="M6.547-3.094c0-1.797-1.313-3.219-2.86-3.219-1.546 0-2.859 1.422-2.859 3.22 0 1.796 1.328 3.187 2.86 3.187 1.53 0 2.859-1.39 2.859-3.188ZM3.687-.75c-1.03 0-1.921-1.094-1.921-2.453 0-1.328.921-2.281 1.921-2.281s1.922.953 1.922 2.28c0 1.376-.89 2.454-1.921 2.454Zm0 0"/><path id="b" d="M3.094-2.719c0-1.703 1.203-2.719 2.422-2.719.078 0 .171 0 .234.016.047.516.453.563.547.563a.55.55 0 0 0 .562-.563c0-.61-.609-.844-1.328-.844-.953 0-1.765.422-2.437 1.235v-.563c0-.437-.078-.593-.563-.593H1.078c-.203 0-.578 0-.578.421 0 .422.375.422.578.422h1.094v4.516H1.078c-.203 0-.578 0-.578.406C.5 0 .875 0 1.078 0H4.61c.204 0 .563 0 .563-.422 0-.406-.36-.406-.563-.406H3.094Zm0 0"/><path id="c" d="M4.328-8.14a.643.643 0 0 0-.64-.641c-.36 0-.641.297-.641.64 0 .36.281.657.64.657.36 0 .641-.297.641-.657ZM1.86-6.188c-.203 0-.562 0-.562.421 0 .422.36.422.562.422h1.547v4.516h-1.64c-.204 0-.594 0-.594.406 0 .422.39.422.594.422H5.75c.203 0 .578 0 .578-.422 0-.406-.375-.406-.578-.406H4.328v-4.766c0-.437-.078-.593-.562-.593Zm0 0"/><path id="d" d="M2.719-.875c-.172 0-.828 0-.828-.781 0-.266.046-.328.109-.438.281.203.75.39 1.266.39a2.29 2.29 0 0 0 2.312-2.28c0-.36-.078-.813-.39-1.282.375-.203.718-.25.937-.25.078.438.5.454.516.454.171 0 .53-.11.53-.547 0-.266-.218-.75-1.015-.75-.265 0-.906.062-1.515.53a2.358 2.358 0 0 0-1.36-.437C1.984-6.266.97-5.219.97-3.984c0 .312.078.859.484 1.375a1.794 1.794 0 0 0-.312 1c0 .5.234.906.343 1.03A2.047 2.047 0 0 0 .422 1.188c0 1.188 1.437 2.094 3.265 2.094 1.829 0 3.266-.89 3.266-2.094 0-2.062-2.531-2.062-3.016-2.062Zm.547-1.64c-.72 0-1.36-.626-1.36-1.47 0-.843.657-1.484 1.36-1.484.765 0 1.375.657 1.375 1.485 0 .812-.61 1.468-1.375 1.468Zm.421 5c-1.406 0-2.453-.641-2.453-1.297 0-.22.079-.72.61-1.047.328-.22.468-.22 1.453-.22 1.265 0 2.844 0 2.844 1.266 0 .657-1.047 1.297-2.454 1.297Zm0 0"/><path id="e" d="M6-4.203c0-1.406-.672-2.063-1.844-2.063-.968 0-1.61.547-1.843.813 0-.531 0-.734-.579-.734H.781c-.187 0-.562 0-.562.421 0 .422.375.422.562.422h.594v4.516H.781c-.187 0-.562 0-.562.406C.219 0 .594 0 .78 0h2.11c.203 0 .578 0 .578-.422 0-.406-.375-.406-.578-.406h-.579v-2.594c0-1.39.97-2.015 1.75-2.015.829 0 1 .468 1 1.296v3.313H4.47c-.188 0-.563 0-.563.406 0 .422.375.422.563.422h2.11c.202 0 .577 0 .577-.422 0-.406-.375-.406-.578-.406H6Zm0 0"/><path id="f" d="M5.938-4.078c0-1.078-.813-2.234-2.75-2.234-.61 0-2 0-2 .984 0 .39.28.61.593.61.078 0 .563-.032.578-.626 0-.078 0-.093.313-.125.172-.015.36-.015.531-.015.328 0 .813 0 1.281.359C5-4.719 5-4.312 5-3.906c-.844.031-1.672.094-2.563.375-.718.25-1.64.765-1.64 1.734 0 1.016.906 1.89 2.25 1.89C3.5.094 4.39.017 5.14-.5c.28.469 1 .5 1.546.5.344 0 .688 0 .688-.422 0-.406-.375-.406-.578-.406-.375 0-.656-.031-.86-.125ZM5-1.891c0 .329 0 .625-.578.907-.5.234-1.188.234-1.219.234-.844 0-1.469-.453-1.469-1.047 0-.844 1.532-1.328 3.266-1.328Zm0 0"/><path id="g" d="M4.156-8.172c0-.453-.078-.594-.578-.594H1.484c-.203 0-.578 0-.578.422 0 .406.375.406.578.406h1.75v7.11h-1.75c-.203 0-.578 0-.578.406 0 .422.375.422.578.422h4.422c.203 0 .578 0 .578-.422 0-.406-.375-.406-.578-.406h-1.75Zm0 0"/><path id="h" d="M4.5-5.36a.817.817 0 0 0-.797-.827c-.469 0-.812.359-.812.828 0 .421.359.796.796.796.47 0 .813-.39.813-.796Zm0 4.563a.817.817 0 0 0-.797-.828c-.469 0-.812.36-.812.828 0 .422.359.797.796.797.47 0 .813-.39.813-.797Zm0 0"/><path id="i" d="M6.656-4.375c0-2.672-1.422-4.563-2.968-4.563-1.563 0-2.97 1.922-2.97 4.547 0 2.672 1.423 4.563 2.97 4.563 1.562 0 2.968-1.922 2.968-4.547ZM3.688-.656c-1.141 0-2.032-1.735-2.032-3.875 0-2.14.985-3.578 2.032-3.578 1.046 0 2.03 1.437 2.03 3.578 0 2.125-.905 3.875-2.03 3.875Zm0 0"/><path id="j" d="m4.047-3.188 1.64-2.156h.516c.188 0 .563 0 .563-.422 0-.421-.375-.421-.563-.421H4.61c-.203 0-.578 0-.578.421 0 .422.344.422.688.422L3.64-3.875 2.53-5.344c.344 0 .688 0 .688-.422 0-.421-.375-.421-.578-.421H1.047c-.203 0-.578 0-.578.421 0 .422.375.422.578.422h.5L3.25-3.187 1.469-.829h-.5c-.188 0-.578 0-.578.406C.39 0 .78 0 .969 0h1.578c.203 0 .578 0 .578-.422 0-.406-.328-.406-.719-.406l1.235-1.813L4.937-.828c-.359 0-.703 0-.703.406 0 .422.375.422.579.422H6.39c.203 0 .578 0 .578-.422 0-.406-.375-.406-.578-.406h-.5Zm0 0"/><path id="k" d="M4.36-8.344c0-.219 0-.594-.423-.594-.234 0-.328.126-.406.313C3.25-8 2.781-7.25 2.016-7.187c-.204.015-.516.046-.516.421 0 .235.156.407.469.407.797 0 1.422-.594 1.453-.625v6.156h-1.25c-.203 0-.594 0-.594.406 0 .422.39.422.594.422h3.453c.203 0 .578 0 .578-.422 0-.406-.375-.406-.578-.406H4.359Zm0 0"/><path id="o" d="M.547-3.438c-.125.188-.125.204-.125.47 0 .5.187.562.562.562H4.5v1.578h-.86c-.203 0-.578 0-.578.406 0 .422.376.422.579.422h2.53c.204 0 .563 0 .563-.422 0-.406-.359-.406-.562-.406h-.86v-1.578h1.079c.187 0 .562 0 .562-.422 0-.406-.375-.406-.562-.406H5.312v-5.141c0-.469-.109-.594-.593-.594H4.39c-.344 0-.422.016-.594.297Zm.828.204L4.5-8.266v5.032Zm0 0"/><path id="q" d="M6.547-1.563c0-.375-.36-.375-.484-.375-.329 0-.375.11-.454.313-.312.797-1.015.875-1.359.875C3.031-.75 2-1.766 2-3.094c0-.734.406-2.39 2.281-2.39.39 0 .703.03.828.046.094.032.11.047.11.11.047.594.484.61.578.61a.578.578 0 0 0 .594-.61c0-.984-1.454-.984-2.094-.984-2.453 0-3.234 2.015-3.234 3.218 0 1.75 1.328 3.188 3.046 3.188 1.922 0 2.438-1.422 2.438-1.657Zm0 0"/><path id="r" d="M2.89 3.188c.204 0 .579 0 .579-.422 0-.407-.375-.407-.578-.407h-.579V-.719c.344.39.876.813 1.672.813 1.532 0 2.86-1.375 2.86-3.188 0-1.765-1.203-3.172-2.703-3.172a2.56 2.56 0 0 0-1.829.766c0-.469 0-.688-.578-.688H.781c-.187 0-.562 0-.562.422s.375.422.562.422h.594V2.36H.781c-.187 0-.562 0-.562.407 0 .421.375.421.562.421Zm-.578-7c0-.829.797-1.626 1.735-1.626 1.031 0 1.86 1.047 1.86 2.344 0 1.375-.97 2.344-1.985 2.344-1.078 0-1.61-1.219-1.61-1.938Zm0 0"/><path id="s" d="M6.078-5.344h.375c.203 0 .594 0 .594-.422 0-.421-.39-.421-.594-.421H4.875c-.203 0-.594 0-.594.421 0 .422.39.422.594.422h.36C4.827-4.172 4.014-1.78 3.811-.969h-.015c-.063-.312-.125-.469-.266-.86L2.187-5.343h.344c.188 0 .578 0 .578-.422 0-.421-.39-.421-.578-.421H.953c-.203 0-.594 0-.594.421 0 .422.391.422.594.422h.375L3.344-.187c.062.14.062.171.062.187 0 .031-.375 1.281-.594 1.672-.093.156-.453.828-1.14.75.016-.047.062-.125.062-.281a.542.542 0 0 0-.562-.563c-.36 0-.563.25-.563.578 0 .547.454 1.11 1.172 1.11 1.39 0 2-1.844 2.047-1.954Zm0 0"/><path id="t" d="M4.984-3.156c.204-.172 1.657-1.406 1.657-3 0-1.625-1.344-2.782-3.141-2.782-1.656 0-2.766 1.25-2.766 2.454 0 .609.5.64.579.64.265 0 .578-.187.578-.578 0-.281-.094-.36-.172-.422.203-.765.86-1.265 1.687-1.265 1.235 0 2.297.703 2.297 1.953 0 1.125-.844 1.984-1.61 2.656L.939-.766C.78-.625.734-.594.734-.422c0 .422.391.422.579.422h5.015c.313-.094.313-.375.313-.594V-.89c0-.25 0-.593-.454-.593-.484 0-.484.312-.484.656H2.25Zm0 0"/><path id="u" d="M3.672-4.313c1.484 0 2.156 1.047 2.156 1.813 0 .953-.844 1.844-2.094 1.844-1.437 0-2.078-.781-2.078-.985 0-.015 0-.046.016-.062a.687.687 0 0 0 .11-.344.567.567 0 0 0-.579-.578C.906-2.625.61-2.437.61-2 .61-.75 1.984.172 3.734.172c1.797 0 3.016-1.297 3.016-2.656 0-.735-.39-1.75-1.656-2.297.875-.547 1.265-1.407 1.265-2.14C6.36-8 5.281-8.938 3.734-8.938c-1.593 0-2.718.687-2.718 1.75a.587.587 0 1 0 1.171.03c0-.234-.124-.359-.124-.374.437-.547 1.421-.578 1.671-.578.97 0 1.688.515 1.688 1.203 0 .406-.266 1.593-1.781 1.703-.532.031-.75.047-.813.047-.297.031-.36.218-.36.422 0 .421.298.421.548.421Zm0 0"/><path id="l" d="M7.984-5.25c0-3.203-1.703-5.484-3.562-5.484-1.875 0-3.563 2.312-3.563 5.468 0 3.204 1.704 5.47 3.563 5.47 1.875 0 3.562-2.298 3.562-5.454ZM4.422-.797c-1.36 0-2.438-2.078-2.438-4.64 0-2.563 1.188-4.297 2.438-4.297 1.266 0 2.453 1.734 2.453 4.296 0 2.547-1.094 4.641-2.453 4.641Zm0 0"/><path id="m" d="m4.86-3.828 1.968-2.594h.61c.234 0 .687 0 .687-.5s-.453-.5-.688-.5H5.532c-.25 0-.687 0-.687.5s.406.5.828.5L4.375-4.656 3.047-6.422c.39 0 .812 0 .812-.5s-.453-.5-.687-.5H1.25c-.234 0-.688 0-.688.5s.454.5.688.5h.61l2.046 2.594L1.75-1h-.578c-.234 0-.703 0-.703.5s.469.5.703.5h1.89c.25 0 .688 0 .688-.5S3.36-1 2.89-1l1.485-2.172L5.922-1c-.422 0-.844 0-.844.5s.453.5.688.5h1.906c.25 0 .703 0 .703-.5S7.922-1 7.672-1h-.594Zm0 0"/><path id="n" d="M4.406-5.188c1.797 0 2.578 1.266 2.578 2.188 0 1.14-1 2.203-2.5 2.203-1.734 0-2.5-.922-2.5-1.172a.12.12 0 0 1 .032-.078.95.95 0 0 0 .125-.422.683.683 0 0 0-.688-.687c-.375 0-.719.234-.719.765 0 1.5 1.641 2.594 3.75 2.594 2.157 0 3.625-1.547 3.625-3.187 0-.875-.484-2.094-2-2.75 1.047-.657 1.516-1.688 1.516-2.579 0-1.296-1.281-2.421-3.14-2.421-1.923 0-3.266.828-3.266 2.109 0 .563.437.734.703.734.312 0 .703-.234.703-.703 0-.281-.14-.422-.14-.453.515-.64 1.703-.687 2-.687 1.156 0 2.03.625 2.03 1.437 0 .5-.327 1.922-2.14 2.047-.64.031-.906.063-.984.063-.344.046-.422.265-.422.5 0 .5.36.5.64.5Zm0 0"/><path id="p" d="M.656-4.125C.5-3.906.5-3.875.5-3.562c0 .593.219.671.688.671h4.218V-1H4.375c-.25 0-.688 0-.688.5s.438.5.688.5h3.031c.235 0 .688 0 .688-.5S7.64-1 7.406-1H6.375v-1.89h1.281c.25 0 .688 0 .688-.5s-.438-.5-.688-.5H6.375v-6.172c0-.563-.125-.704-.703-.704h-.406c-.407 0-.5.016-.704.344Zm1 .234 3.75-6.03v6.03Zm0 0"/><path id="v" d="M5.234-10.016c0-.265 0-.718-.5-.718-.296 0-.39.156-.5.39-.328.735-.89 1.64-1.812 1.719-.25.016-.61.047-.61.5 0 .297.172.5.547.5.97 0 1.704-.719 1.75-.766V-1H2.594c-.235 0-.703 0-.703.5s.468.5.703.5H6.75c.234 0 .703 0 .703-.5S6.984-1 6.75-1H5.234Zm0 0"/><path id="x" d="M6.688-9.516c.234 0 .687 0 .687-.5s-.453-.5-.688-.5H2.204c-.547 0-.687.125-.687.672v4.594c0 .234 0 .672.515.672.281 0 .344-.094.485-.266.515-.593 1.265-.875 2.171-.875 1.344 0 2.172 1.219 2.172 2.453 0 1.391-1.218 2.47-2.656 2.47-.89 0-1.812-.423-2.125-1.235.078-.063.188-.188.188-.5a.694.694 0 0 0-.688-.703c-.156 0-.703.078-.703.75C.875-1.031 2.313.203 4.203.203c2.078 0 3.766-1.547 3.766-3.469 0-1.75-1.282-3.453-3.282-3.453-.578 0-1.328.11-2.046.5v-3.297Zm0 0"/><path id="y" d="M5.984-3.781C6.234-4 7.97-5.47 7.97-7.391c0-1.953-1.61-3.343-3.766-3.343-2 0-3.328 1.5-3.328 2.953 0 .718.61.765.703.765a.685.685 0 0 0 .688-.703c0-.328-.11-.422-.204-.5.25-.906 1.032-1.515 2.032-1.515 1.468 0 2.765.843 2.765 2.343 0 1.344-1.015 2.375-1.953 3.188L1.125-.906C.937-.75.875-.703.875-.5c0 .5.469.5.703.5h6.016c.375-.11.375-.453.375-.703v-.36c0-.312 0-.718-.547-.718-.563 0-.563.375-.563.781H2.703Zm0 0"/><path id="w" d="M14.36-3.953c-.954.719-1.407 1.422-1.547 1.64-.782 1.188-.922 2.282-.922 2.297 0 .204.218.204.359.204.281 0 .297-.032.375-.344.39-1.688 1.406-3.125 3.36-3.922.203-.078.25-.11.25-.234 0-.11-.094-.172-.141-.188-.75-.281-2.828-1.14-3.485-4.047-.062-.203-.078-.25-.359-.25-.14 0-.36 0-.36.203 0 .031.157 1.125.891 2.281.344.516.844 1.11 1.578 1.657H1.563c-.313 0-.61 0-.61.343 0 .36.297.36.61.36Zm0 0"/></defs><use xlink:href="#a" x="22.734" y="76.772"/><use xlink:href="#b" x="30.117" y="76.772"/><use xlink:href="#c" x="37.499" y="76.772"/><use xlink:href="#d" x="44.882" y="76.772"/><use xlink:href="#c" x="52.264" y="76.772"/><use xlink:href="#e" x="59.647" y="76.772"/><use xlink:href="#f" x="67.029" y="76.772"/><use xlink:href="#g" x="74.412" y="76.772"/><use xlink:href="#h" x="81.794" y="76.772"/><path fill="none" stroke="#000" stroke-miterlimit="10" stroke-width=".399" d="M101.129 54.14h23.387v39.684h-23.387M218.063 54.14h23.382M218.063 93.824h23.382M124.516 54.14h46.773v39.684h-46.773"/><use xlink:href="#i" x="133.137" y="46.568"/><use xlink:href="#j" x="140.52" y="46.568"/><use xlink:href="#k" x="147.902" y="46.568"/><use xlink:href="#i" x="155.285" y="46.568"/><use xlink:href="#l" x="130.184" y="79.243"/><use xlink:href="#m" x="139.043" y="79.243"/><use xlink:href="#n" x="147.902" y="79.243"/><use xlink:href="#l" x="156.761" y="79.243"/><path fill="none" stroke="#000" stroke-miterlimit="10" stroke-width=".399" d="M171.29 54.14h46.773v39.684h-46.774"/><use xlink:href="#i" x="179.909" y="46.568"/><use xlink:href="#j" x="187.292" y="46.568"/><use xlink:href="#k" x="194.674" y="46.568"/><use xlink:href="#o" x="202.057" y="46.568"/><use xlink:href="#l" x="176.956" y="79.243"/><use xlink:href="#m" x="185.815" y="79.243"/><use xlink:href="#p" x="194.674" y="79.243"/><use xlink:href="#l" x="203.533" y="79.243"/><use xlink:href="#q" x="52.263" y="155.178"/><use xlink:href="#a" x="59.646" y="155.178"/><use xlink:href="#r" x="67.028" y="155.178"/><use xlink:href="#s" x="74.411" y="155.178"/><use xlink:href="#h" x="81.793" y="155.178"/><path fill="none" stroke="#000" stroke-miterlimit="10" stroke-width=".399" d="M101.129 133.844h23.387v39.683h-23.387M218.063 133.844h23.382M218.063 173.527h23.382M124.516 133.844h46.773v39.683h-46.773"/><use xlink:href="#i" x="133.137" y="126.269"/><use xlink:href="#j" x="140.52" y="126.269"/><use xlink:href="#t" x="147.902" y="126.269"/><use xlink:href="#i" x="155.285" y="126.269"/><use xlink:href="#l" x="130.184" y="158.944"/><use xlink:href="#m" x="139.043" y="158.944"/><use xlink:href="#n" x="147.902" y="158.944"/><use xlink:href="#l" x="156.761" y="158.944"/><path fill="none" stroke="#000" stroke-miterlimit="10" stroke-width=".399" d="M171.29 133.844h46.773v39.683h-46.774"/><use xlink:href="#i" x="179.909" y="126.269"/><use xlink:href="#j" x="187.292" y="126.269"/><use xlink:href="#t" x="194.674" y="126.269"/><use xlink:href="#o" x="202.057" y="126.269"/><use xlink:href="#l" x="176.956" y="158.944"/><use xlink:href="#m" x="185.815" y="158.944"/><use xlink:href="#p" x="194.674" y="158.944"/><use xlink:href="#l" x="203.533" y="158.944"/><path fill="none" stroke="#000" stroke-miterlimit="10" stroke-width=".399" d="M284.445 54.14h23.387v39.684h-23.387M401.375 54.14h23.387M401.375 93.824h23.387M307.832 54.14h46.77v39.684h-46.77"/><use xlink:href="#i" x="316.45" y="46.568"/><use xlink:href="#j" x="323.833" y="46.568"/><use xlink:href="#u" x="331.215" y="46.568"/><use xlink:href="#i" x="338.598" y="46.568"/><use xlink:href="#v" x="313.748" y="79.243"/><use xlink:href="#w" x="322.606" y="79.243"/><use xlink:href="#x" x="339.822" y="79.243"/><path fill="none" stroke="#000" stroke-miterlimit="10" stroke-width=".399" d="M354.602 54.14h46.773v39.684h-46.773"/><use xlink:href="#i" x="363.221" y="46.568"/><use xlink:href="#j" x="370.604" y="46.568"/><use xlink:href="#u" x="377.986" y="46.568"/><use xlink:href="#o" x="385.369" y="46.568"/><use xlink:href="#y" x="373.556" y="79.243"/><path fill="none" stroke="#000" stroke-miterlimit="10" stroke-width=".399" d="M284.445 133.844h23.387v39.683h-23.387M401.375 133.844h23.387M401.375 173.527h23.387M307.832 133.844h46.77v39.683h-46.77"/><use xlink:href="#i" x="316.45" y="126.269"/><use xlink:href="#j" x="323.833" y="126.269"/><use xlink:href="#o" x="331.215" y="126.269"/><use xlink:href="#i" x="338.598" y="126.269"/><use xlink:href="#n" x="326.785" y="158.944"/><path fill="none" stroke="#000" stroke-miterlimit="10" stroke-width=".399" d="M354.602 133.844h46.773v39.683h-46.773"/><use xlink:href="#i" x="363.221" y="126.269"/><use xlink:href="#j" x="370.604" y="126.269"/><use xlink:href="#o" x="377.986" y="126.269"/><use xlink:href="#o" x="385.369" y="126.269"/><use xlink:href="#p" x="373.556" y="158.944"/><path fill="none" stroke="#000" stroke-miterlimit="10" stroke-width=".399" d="M147.902 93.824c34.368 19.844 148.946-79.453 180.102-61.465"/><path stroke="#000" stroke-miterlimit="10" stroke-width=".39899202" d="m330.727 33.93-3.07-3.739.433 2.22-2.137.734Zm0 0"/><path fill="none" stroke="#000" stroke-miterlimit="10" stroke-width=".399" d="M147.902 173.527C182.27 193.371 296.848 14.371 331.22 34.215"/></svg>