<svg xmlns="http://www.w3.org/2000/svg" xmlns:xlink="http://www.w3.org/1999/xlink" width="313.291" height="81.911"><defs><path id="a" d="M5.547-9.984c-.047-.172-.078-.25-.281-.25-.204 0-.235.03-.297.265l-3 8.578c-.203.594-.61.954-1.532.97V0c.875-.031.907-.031 1.391-.031.39 0 1.078 0 1.453.031v-.422c-.594-.016-.953-.312-.953-.719 0-.078 0-.109.063-.296l.671-1.907h3.61l.781 2.25c.078.172.078.203.078.25 0 .422-.734.422-1.093.422V0c.328-.031 1.468-.031 1.875-.031.39 0 1.421 0 1.75.031v-.422c-.922 0-1.188 0-1.391-.578Zm-.688 1.453 1.672 4.765H3.203Zm0 0"/><path id="b" d="M.61-9.797v.422h.296c1.031 0 1.078.14 1.078.672v7.61c0 .53-.046.671-1.078.671H.61V0h5.407c1.843 0 3.14-1.25 3.14-2.625 0-1.156-1.047-2.313-2.765-2.5 1.375-.25 2.359-1.172 2.359-2.25 0-1.234-1.25-2.422-3.125-2.422Zm2.453 4.563v-3.579c0-.468.03-.562.671-.562h1.797c1.438 0 1.953 1.234 1.953 2 0 .953-.75 2.14-2.328 2.14Zm.671 4.812c-.64 0-.671-.094-.671-.562v-3.97H5.75c1.375 0 2.094 1.204 2.094 2.313 0 1.157-.875 2.22-2.282 2.22Zm0 0"/><path id="c" d="M9.36-9.766c0-.265 0-.328-.157-.328-.078 0-.094.031-.187.172l-.704 1.125c-.64-.797-1.609-1.297-2.64-1.297-2.625 0-4.89 2.266-4.89 5.188 0 2.968 2.28 5.203 4.89 5.203 2.344 0 3.687-2.047 3.687-3.625 0-.156 0-.25-.171-.25-.141 0-.157.078-.157.172C8.906-1.125 7.25-.11 5.86-.11c-1.015 0-3.75-.61-3.75-4.797 0-4.14 2.704-4.782 3.735-4.782 1.5 0 2.812 1.282 3.11 3.438.03.172.03.219.202.219.203 0 .203-.047.203-.344Zm0 0"/><path id="d" d="M9.688-4.64c.203 0 .453 0 .453-.266s-.25-.266-.454-.266H1.235c-.203 0-.453 0-.453.25 0 .281.235.281.453.281Zm0 2.656c.203 0 .453 0 .453-.25 0-.282-.25-.282-.454-.282H1.235c-.203 0-.453 0-.453.266s.235.266.453.266Zm0 0"/><path id="f" d="M4.125-9.188c0-.343 0-.343-.281-.343-.344.375-1.063.906-2.531.906v.422c.328 0 1.046 0 1.828-.375v7.469c0 .515-.047.687-1.297.687H1.39V0c.39-.031 1.78-.031 2.25-.031.468 0 1.859 0 2.234.031v-.422h-.438c-1.265 0-1.312-.172-1.312-.687Zm0 0"/><path id="g" d="M4.656 3.484c0-.046 0-.078-.234-.312-1.438-1.453-2.234-3.813-2.234-6.75 0-2.781.671-5.172 2.328-6.86.14-.14.14-.156.14-.203 0-.093-.062-.109-.125-.109-.187 0-1.36 1.031-2.062 2.438-.735 1.437-1.063 2.984-1.063 4.734 0 1.281.203 2.984.953 4.531.844 1.719 2.016 2.64 2.172 2.64.063 0 .125-.015.125-.109Zm0 0"/><path id="h" d="M2.5-8.828a.71.71 0 0 0-.703-.703.684.684 0 0 0-.688.687c0 .422.344.703.688.703a.706.706 0 0 0 .703-.687ZM.516-6.172v.422c.921 0 1.046.078 1.046.781v3.907c0 .64-.156.64-1.093.64V0c.406-.031 1.094-.031 1.515-.031.157 0 .985 0 1.47.031v-.422c-.923 0-.985-.062-.985-.625v-5.281Zm0 0"/><path id="i" d="M2.469-5.766h1.625v-.421H2.437V-7.86c0-1.297.657-1.954 1.25-1.954.11 0 .329.032.5.11-.062.015-.421.156-.421.562 0 .329.234.563.562.563.344 0 .578-.235.578-.578 0-.531-.515-.938-1.203-.938-1 0-2.14.766-2.14 2.235v1.671H.438v.422h1.125v4.704c0 .64-.157.64-1.094.64V0c.406-.031 1.187-.031 1.625-.031.39 0 1.406 0 1.734.031v-.422h-.281c-1.047 0-1.078-.156-1.078-.672Zm0 0"/><path id="j" d="M4.047-3.578c0-1.078-.14-2.86-.953-4.531C2.25-9.83 1.078-10.75.922-10.75c-.063 0-.14.016-.14.11 0 .046 0 .062.25.312 1.437 1.453 2.234 3.812 2.234 6.75 0 2.781-.672 5.172-2.329 6.86-.156.124-.156.155-.156.202 0 .094.078.11.14.11.188 0 1.36-1.031 2.063-2.438.735-1.453 1.063-3 1.063-4.734Zm0 0"/><path id="k" d="M6.422-4.594c0-1.187-.063-2.343-.578-3.437-.594-1.188-1.625-1.5-2.328-1.5-.829 0-1.86.406-2.375 1.594-.407.906-.547 1.796-.547 3.343 0 1.39.094 2.438.61 3.453C1.765-.047 2.75.297 3.5.297c1.25 0 1.969-.734 2.375-1.578.516-1.078.547-2.485.547-3.313ZM3.5.016c-.453 0-1.39-.266-1.656-1.829-.172-.859-.172-1.953-.172-2.953 0-1.171 0-2.234.234-3.078.25-.968.985-1.406 1.594-1.406.547 0 1.375.328 1.656 1.563.172.812.172 1.953.172 2.921 0 .97 0 2.047-.156 2.922C4.906-.266 4 .016 3.5.016Zm0 0"/><path id="l" d="M6.578-3.063c0-1.859-1.406-3.328-3.062-3.328-1.72 0-3.079 1.516-3.079 3.329C.438-1.234 1.86.14 3.5.14c1.688 0 3.078-1.407 3.078-3.204ZM3.516-.171c-.532 0-1.172-.234-1.594-.937-.39-.641-.406-1.485-.406-2.094 0-.547 0-1.422.453-2.063A1.836 1.836 0 0 1 3.5-6.109c.563 0 1.156.25 1.547.812.453.656.453 1.563.453 2.094 0 .5 0 1.39-.375 2.062-.406.704-1.063.97-1.61.97Zm0 0"/><path id="m" d="M2.406-5.766h2.031v-.421h-2.03v-2.641h-.313c-.016 1.36-.531 2.734-1.828 2.781v.281h1.218v3.985C1.484-.188 2.531.14 3.297.14c.906 0 1.375-.891 1.375-1.922v-.813h-.313v.781c0 1.032-.421 1.641-.968 1.641-.985 0-.985-1.328-.985-1.578Zm0 0"/><path id="n" d="M6.39-3.484c0-1.329 0-1.735-.343-2.204-.406-.546-1.078-.64-1.578-.64-1.235 0-1.797.937-2 1.375h-.016v-5l-2 .156v.422c.984 0 1.094.094 1.094.797v7.515c0 .641-.156.641-1.094.641V0C.828-.031 1.61-.031 2.016-.031c.406 0 1.187 0 1.562.031v-.422c-.922 0-1.094 0-1.094-.64v-2.672c0-1.5.985-2.297 1.875-2.297.891 0 1.094.718 1.094 1.593v3.375c0 .641-.156.641-1.094.641V0c.375-.031 1.157-.031 1.547-.031.422 0 1.188 0 1.563.031v-.422c-.719 0-1.078 0-1.078-.422Zm0 0"/><path id="o" d="M5.5-3.328c.313 0 .344 0 .344-.266 0-1.453-.782-2.797-2.516-2.797-1.64 0-2.89 1.47-2.89 3.25C.438-1.25 1.89.141 3.483.141c1.704 0 2.36-1.547 2.36-1.844 0-.094-.078-.14-.157-.14-.125 0-.156.062-.171.14C5.14-.5 4.172-.172 3.578-.172c-.61 0-2.062-.406-2.062-2.89v-.266Zm-3.969-.266c.125-2.265 1.375-2.515 1.782-2.515 1.53 0 1.624 2.015 1.64 2.515Zm0 0"/><path id="p" d="M2.39-3.344c0-1.39.579-2.687 1.688-2.687h.203c-.125.062-.343.156-.343.531 0 .422.328.578.546.578.297 0 .579-.187.579-.578 0-.422-.391-.828-1-.828-1.22 0-1.641 1.328-1.72 1.594h-.015v-1.594l-1.922.156v.422c.969 0 1.078.094 1.078.797v3.89c0 .641-.156.641-1.078.641V0c.39-.031 1.188-.031 1.61-.031.39 0 1.406 0 1.75.031v-.422h-.297c-1.047 0-1.078-.156-1.078-.672Zm0 0"/><path id="q" d="M8.672-4.813c.328-.906.953-.937 1.203-.953v-.421c-.36.03-.625.03-1.063.03-.421 0-.453 0-1.218-.03v.421c.64.032.812.422.812.688 0 .016 0 .11-.062.266L7.03-1.063 5.594-5.125c-.078-.172-.078-.203-.078-.234 0-.407.53-.407.843-.407v-.421c-.406.03-1 .03-1.406.03-.469 0-.5 0-1.297-.03v.421c.547 0 .735.032.89.22.079.077.25.562.345.843l-1.22 3.5L2.298-5.11c-.078-.188-.078-.22-.078-.266 0-.39.562-.39.844-.39v-.423c-.36.032-1.079.032-1.47.032-.405 0-.437 0-1.327-.032v.422c.718 0 .875.063 1.03.516L3.095-.11c.062.157.11.25.265.25.125 0 .204-.046.266-.265l1.438-4.094L6.5-.125c.063.219.14.266.266.266.156 0 .203-.094.265-.25Zm0 0"/><path id="r" d="M4.703-6.063c0-.265 0-.328-.14-.328-.11 0-.391.313-.485.438-.453-.36-.89-.438-1.36-.438-1.734 0-2.25.938-2.25 1.735 0 .156 0 .656.548 1.156.468.406.953.5 1.609.625.781.156.969.203 1.328.5.266.203.453.531.453.922 0 .625-.36 1.312-1.625 1.312-.937 0-1.64-.546-1.953-1.984-.047-.25-.047-.266-.062-.281C.734-2.47.672-2.47.625-2.47c-.156 0-.156.078-.156.328v1.954c0 .265 0 .328.14.328.079 0 .094-.016.344-.313.063-.094.063-.125.281-.36.547.673 1.313.673 1.563.673 1.5 0 2.25-.829 2.25-1.97 0-.765-.469-1.234-.594-1.359-.516-.437-.906-.53-1.86-.703-.421-.078-1.468-.28-1.468-1.14 0-.453.297-1.11 1.594-1.11 1.562 0 1.64 1.329 1.672 1.782.015.109.109.109.156.109.156 0 .156-.063.156-.328Zm0 0"/><path id="e" d="M6.469 26.203c0-1.578-1.094-4-3.578-5.265 1.546-.829 3.39-2.5 3.562-5.188l.016-.094V5.72c0-1.172 0-1.438.11-1.969.265-1.156.952-2.578 2.78-3.656.11-.063.125-.078.125-.344 0-.313-.015-.328-.328-.328-.265 0-.297 0-.672.234-3.218 1.828-3.406 4.485-3.406 4.985v10.203c0 1.031 0 2.203-.75 3.515-.656 1.172-1.437 1.766-2.047 2.188-.203.125-.219.14-.219.375 0 .265.016.281.126.344 1.218.812 2.53 2.093 2.843 4.422.047.312.047.343.047.515V37.22c0 1.172.719 3.578 3.484 5.031.329.188.36.188.594.188.313 0 .328-.016.328-.329 0-.25-.015-.265-.078-.297-.61-.39-2.5-1.515-2.875-4.015-.062-.375-.062-.406-.062-.594Zm0 0"/></defs><path fill="none" stroke="#000" stroke-miterlimit="10" stroke-width=".399" d="M89.484 23.945c9.395 0 17.012 7.617 17.012 17.008 0 9.395-7.617 17.012-17.012 17.012H63.973v-34.02Zm0 0"/><use xlink:href="#a" x="19.436" y="37.353"/><use xlink:href="#b" x="20.019" y="54.361"/><use xlink:href="#c" x="140.502" y="44.542"/><use xlink:href="#d" x="155.324" y="44.542"/><use xlink:href="#e" x="170.937" y="20.01"/><use xlink:href="#f" x="182.494" y="34.724"/><use xlink:href="#g" x="203.563" y="34.724"/><use xlink:href="#h" x="209.026" y="34.724"/><use xlink:href="#i" x="212.928" y="34.724"/><use xlink:href="#a" x="221.897" y="34.724"/><use xlink:href="#d" x="236.416" y="34.724"/><use xlink:href="#b" x="251.33" y="34.724"/><use xlink:href="#d" x="265.266" y="34.724"/><use xlink:href="#f" x="280.18" y="34.724"/><use xlink:href="#j" x="287.204" y="34.724"/><use xlink:href="#k" x="182.494" y="55.495"/><use xlink:href="#g" x="203.563" y="55.495"/><use xlink:href="#l" x="209.026" y="55.495"/><use xlink:href="#m" x="216.05" y="55.495"/><use xlink:href="#n" x="221.513" y="55.495"/><use xlink:href="#o" x="229.317" y="55.495"/><use xlink:href="#p" x="235.561" y="55.495"/><use xlink:href="#q" x="241.024" y="55.495"/><use xlink:href="#h" x="251.169" y="55.495"/><use xlink:href="#r" x="255.071" y="55.495"/><use xlink:href="#o" x="260.612" y="55.495"/><use xlink:href="#j" x="266.855" y="55.495"/><path fill="none" stroke="#000" stroke-miterlimit="10" stroke-width=".399" d="M35.43 32.45h28.343M35.43 49.46h28.343M106.695 40.953h28.344"/></svg>