<svg xmlns="http://www.w3.org/2000/svg" xmlns:xlink="http://www.w3.org/1999/xlink" width="155.5pt" height="75pt" viewBox="0 0 155.5 75"><defs><path id="a" d="M4.904 0v-.347h-.371C3.48-.347 3.444-.49 3.444-.92v-6.745c0-.275 0-.287-.239-.287-.287.323-.885.765-2.117.765v.347c.275 0 .873 0 1.531-.311v6.231c0 .43-.036.574-1.088.574h-.37V0c.322-.024 1.482-.024 1.877-.024s1.543 0 1.866.024"/><path id="b" d="M8.456-2.978c0-.227-.204-.227-.383-.227H4.772v-3.301c0-.168 0-.383-.215-.383-.227 0-.227.203-.227.383v3.3H1.029c-.168 0-.383 0-.383.216 0 .227.203.227.383.227h3.3V.538c0 .168 0 .383.216.383.227 0 .227-.203.227-.383v-3.3h3.301c.167 0 .383 0 .383-.216"/><path id="c" d="M5.262-2.01H5c-.036.204-.131.862-.25 1.053-.085.108-.766.108-1.125.108H1.41c.323-.275 1.053-1.04 1.364-1.328 1.818-1.674 2.487-2.296 2.487-3.48 0-1.375-1.088-2.296-2.475-2.296S.586-6.77.586-5.741c0 .61.526.61.562.61.251 0 .562-.18.562-.562 0-.335-.227-.562-.562-.562-.107 0-.131 0-.167.012.227-.813.873-1.364 1.65-1.364 1.017 0 1.639.85 1.639 1.95 0 1.017-.586 1.902-1.268 2.667L.586-.287V0h4.365z"/></defs><use xlink:href="#a" x="-32.728135" y="-36.516656" transform="translate(51.425 74.887)scale(1.0004)"/><g fill="none" stroke="#000" stroke-miterlimit="10" stroke-width=".3985"><path d="M15.323 25.085h12.633M15.522 45.907V25.085M27.756 45.907V25.085M15.323 45.907h12.633"/></g><use xlink:href="#b" x="-20.090063" y="-36.516656" transform="translate(51.425 74.887)scale(1.0004)"/><g fill="none" stroke="#000" stroke-miterlimit="10" stroke-width=".3985"><path d="M27.956 25.085H43.84M28.155 45.907V25.085M43.641 45.907V25.085M27.956 45.907H43.84"/></g><use xlink:href="#c" x="-4.199685" y="-36.516656" transform="translate(51.425 74.887)scale(1.0004)"/><g fill="none" stroke="#000" stroke-miterlimit="10" stroke-width=".3985"><path d="M43.84 25.085h12.633M44.039 45.907V25.085M56.273 45.907V25.085M43.84 45.907h12.633M130.839 21.014a9.48 9.48 0 0 0-9.48-9.479c-5.235 0-9.478 4.244-9.478 9.48s4.243 9.478 9.479 9.478a9.48 9.48 0 0 0 9.479-9.479Z"/></g><use xlink:href="#b" x="-36.116495" y="-36.516656" transform="translate(152.907 60.499)scale(1.0004)"/><path fill="none" stroke="#000" stroke-miterlimit="10" stroke-width=".3985" d="M115.618 55.03a8.432 8.432 0 1 0-16.863 0 8.432 8.432 0 0 0 16.863 0Z"/><use xlink:href="#a" x="-36.116495" y="-36.516656" transform="translate(140.359 95.508)scale(1.0004)"/><path fill="none" stroke="#000" stroke-miterlimit="10" stroke-width=".3985" d="m117.637 29.947-7.132 17.117M143.965 55.03a8.432 8.432 0 1 0-16.864 0 8.432 8.432 0 0 0 16.864 0Z"/><use xlink:href="#c" x="-36.116495" y="-36.516656" transform="translate(168.706 95.508)scale(1.0004)"/><path fill="none" stroke="#000" stroke-miterlimit="10" stroke-width=".3985" d="m125.082 29.947 7.132 17.117M71.996 35.496h11.678"/><path d="m86.776 35.496-4.468-1.682 1.466 1.682-1.466 1.682Z"/><path fill="none" stroke="#000" stroke-miterlimit="10" stroke-width=".3985" d="m86.776 35.496-4.468-1.682 1.466 1.682-1.466 1.682Z"/></svg>