<svg xmlns="http://www.w3.org/2000/svg" xmlns:xlink="http://www.w3.org/1999/xlink" width="184.82pt" height="115.62pt" viewBox="0 0 184.82 115.62"><defs><path id="b" d="M4.822-.327c0-.339-.262-.339-.436-.339h-.993v-5.673c0-.174 0-.447-.327-.447-.208 0-.273.13-.328.262-.414.927-.981 1.047-1.189 1.069-.174.01-.403.033-.403.338 0 .273.196.328.36.328.207 0 .654-.066 1.134-.48v4.603h-.993c-.174 0-.436 0-.436.339 0 .327.273.327.436.327h2.739c.163 0 .436 0 .436-.327"/><path id="c" d="M5.171-3.328c0-2.029-1.112-3.458-2.313-3.458-1.221 0-2.312 1.462-2.312 3.448C.546-1.31 1.658.12 2.858.12c1.222 0 2.313-1.462 2.313-3.448m-.752-.12c0 1.615-.71 2.903-1.56 2.903s-1.56-1.288-1.56-2.903c0-1.592.752-2.673 1.56-2.673.796 0 1.56 1.07 1.56 2.673"/><path id="d" d="M6.088-.347c0-.347-.311-.347-.479-.347-.31 0-.55-.024-.717-.095v-2.608c0-.909-.682-1.865-2.297-1.865-.502 0-1.662 0-1.662.825 0 .323.227.502.49.502.072 0 .467-.024.479-.526 0-.06.012-.072.263-.096.143-.012.299-.012.442-.012.275 0 .682 0 1.077.3.43.334.43.669.43 1.016-.705.024-1.4.072-2.14.31C1.374-2.738.61-2.307.61-1.494c0 .85.753 1.567 1.866 1.567.382 0 1.124-.06 1.746-.49.24.394.837.418 1.292.418.287 0 .574 0 .574-.347M4.114-1.579c0 .275 0 .527-.49.754-.419.203-.98.203-1.017.203-.705 0-1.22-.383-1.22-.873 0-.706 1.28-1.112 2.727-1.112z"/><path id="e" d="M5.705-2.583c0-1.471-1.005-2.644-2.249-2.644-.873 0-1.423.527-1.53.646v-2.236c0-.371-.072-.49-.479-.49h-.79c-.167 0-.478 0-.478.346s.311.347.479.347h.49V-.49c0 .215 0 .49.395.49.383 0 .383-.251.383-.598.287.323.73.67 1.399.67 1.268 0 2.38-1.136 2.38-2.655m-.777 0c0 1.148-.814 1.961-1.663 1.961-.897 0-1.34-1.017-1.34-1.615v-.944c0-.682.67-1.352 1.448-1.352.86 0 1.555.873 1.555 1.95"/><path id="a" d="M5.705-4.557c0-.394-.395-.394-.574-.394H1.017c-.18 0-.574 0-.574.394 0 .383.37.383.514.383H5.19c.155 0 .514 0 .514-.383m0 1.806c0-.383-.37-.383-.514-.383H.957c-.156 0-.514 0-.514.383 0 .395.394.395.574.395H5.13c.18 0 .574 0 .574-.395"/><path id="f" d="M5.179-.347c0-.347-.323-.347-.49-.347H3.635V-6.96c0-.18 0-.49-.347-.49-.203 0-.275.108-.347.263-.227.514-.622 1.148-1.256 1.196-.179.012-.43.036-.43.347 0 .203.12.347.383.347.67 0 1.184-.503 1.22-.527v5.131H1.805c-.167 0-.49 0-.49.347s.323.347.49.347h2.882c.168 0 .49 0 .49-.347"/><path id="g" d="M5.119.682c0-.156-.084-.204-.251-.323C3.218-.777 2.81-2.488 2.81-3.648c0-1.136.382-2.858 2.057-4.018.167-.12.25-.168.25-.323 0-.12-.059-.311-.346-.311-.299 0-1.184.693-1.734 1.47a5.43 5.43 0 0 0-1.005 3.182c0 1.328.479 2.44.98 3.146C3.565.263 4.438.993 4.773.993c.287 0 .347-.204.347-.311"/><path id="h" d="M4.114-3.648c0-.933-.227-2.14-1.088-3.3-.407-.55-1.292-1.352-1.65-1.352-.276 0-.347.203-.347.31 0 .144.083.204.299.348 1.459 1.028 2.009 2.63 2.009 3.982C3.337-2.583 2.99-.825 1.28.36c-.156.107-.251.167-.251.323 0 .107.071.31.346.31.3 0 1.184-.693 1.735-1.47a5.5 5.5 0 0 0 1.004-3.17"/></defs><use xlink:href="#a" x="-50.23116" y="-50.071095" transform="translate(99.55 74.892)scale(1.0004)"/><g fill="none" stroke="#000" stroke-miterlimit="10" stroke-width=".3985"><path d="M45.952 11.541h12.931M46.151 32.363V11.541M58.684 32.363V11.541M45.952 32.363h12.931"/></g><g transform="translate(87.337 91.336)scale(1.00008)"><use xlink:href="#b" x="-53.602422" y="-50.055129"/><use xlink:href="#b" x="-47.874669" y="-50.055129"/></g><g transform="translate(113.24 91.276)scale(1.00008)"><use xlink:href="#b" x="-53.602422" y="-50.055129"/><use xlink:href="#c" x="-47.874669" y="-50.055129"/></g><use xlink:href="#a" x="-50.23116" y="-50.071095" transform="translate(167.583 74.892)scale(1.0004)"/><g fill="none" stroke="#000" stroke-miterlimit="10" stroke-width=".3985"><path d="M113.985 11.541h12.931M114.184 32.363V11.541M126.717 32.363V11.541M113.985 32.363h12.931"/></g><g transform="translate(155.37 91.336)scale(1.00008)"><use xlink:href="#b" x="-53.602422" y="-50.055129"/><use xlink:href="#b" x="-47.874669" y="-50.055129"/></g><g transform="translate(181.273 91.276)scale(1.00008)"><use xlink:href="#b" x="-53.602422" y="-50.055129"/><use xlink:href="#c" x="-47.874669" y="-50.055129"/></g><use xlink:href="#d" x="-53.61952" y="-50.071095" transform="translate(68.922 119.952)scale(1.0004)"/><use xlink:href="#e" x="-53.61952" y="-50.071095" transform="translate(136.954 120.974)scale(1.0004)"/><use xlink:href="#f" x="-53.61952" y="-50.071095" transform="translate(204.986 121.082)scale(1.0004)"/><path fill="none" stroke="#000" stroke-miterlimit="10" stroke-width=".3985" d="m23.307 60.457 8.599-12.005"/><path d="m33.712 45.93-3.969 2.653 2.221-.212.514 2.17Z"/><path fill="none" stroke="#000" stroke-miterlimit="10" stroke-width=".398477" d="m33.712 45.93-3.969 2.653 2.221-.212.514 2.17Z"/><path fill="none" stroke="#000" stroke-miterlimit="10" stroke-width=".3985" d="m92.07 59.435 7.868-10.983"/><path d="m101.744 45.93-3.968 2.653 2.22-.212.514 2.17Z"/><path fill="none" stroke="#000" stroke-miterlimit="10" stroke-width=".398479" d="m101.744 45.93-3.968 2.653 2.22-.212.514 2.17Z"/><path fill="none" stroke="#000" stroke-miterlimit="10" stroke-width=".3985" d="m148.803 59.399-7.798-10.887"/><path d="m139.2 45.99 1.234 4.612.514-2.171 2.22.212Z"/><path fill="none" stroke="#000" stroke-miterlimit="10" stroke-width=".39848" d="m139.2 45.99 1.234 4.612.514-2.171 2.22.212Z"/><use xlink:href="#d" x="-53.61952" y="-50.071095" transform="translate(68.922 148.299)scale(1.0004)"/><use xlink:href="#a" x="-53.61952" y="-50.071095" transform="translate(102.938 148.179)scale(1.0004)"/><use xlink:href="#e" x="-53.61952" y="-50.071095" transform="translate(136.954 149.321)scale(1.0004)"/><use xlink:href="#a" x="-53.61952" y="-50.071095" transform="translate(170.97 148.179)scale(1.0004)"/><use xlink:href="#f" x="-53.61952" y="-50.071095" transform="translate(204.986 149.429)scale(1.0004)"/><use xlink:href="#g" x="-53.61952" y="-50.071095" transform="translate(124.999 149.357)scale(1.0004)"/><use xlink:href="#h" x="-53.61952" y="-50.071095" transform="translate(216.942 149.357)scale(1.0004)"/></svg>