<svg xmlns="http://www.w3.org/2000/svg" xmlns:xlink="http://www.w3.org/1999/xlink" width="449.38pt" height="128.64pt" viewBox="0 0 449.38 128.64"><defs><path id="f" d="M5.095-2.357C5.095-3.72 4.08-4.8 2.858-4.8S.622-3.72.622-2.357C.622-.97 1.658.065 2.858.065S5.095-.982 5.095-2.357m-.753-.076C4.342-1.418 3.666-.6 2.858-.6s-1.483-.818-1.483-1.833c0-.993.709-1.702 1.483-1.702.786 0 1.484.71 1.484 1.702"/><path id="g" d="M5.324-2.357c0-1.341-.97-2.41-2.127-2.41-.524 0-1.015.196-1.386.534 0-.316-.022-.47-.436-.47H.578c-.174 0-.447 0-.447.339 0 .327.284.327.436.327h.491v5.794h-.48c-.174 0-.447 0-.447.338 0 .327.284.327.436.327h1.735c.153 0 .436 0 .436-.327 0-.338-.272-.338-.447-.338h-.48V-.491c.447.458.917.556 1.266.556 1.189 0 2.247-1.036 2.247-2.422m-.753 0C4.571-1.309 3.808-.6 3.044-.6c-.851 0-1.233-.96-1.233-1.484v-.796c0-.644.633-1.222 1.32-1.222.808 0 1.44.796 1.44 1.745"/><path id="e" d="M4.899-1.375c0-.196 0-.425-.382-.425-.36 0-.371.229-.371.414-.011.677-.633.786-.884.786-.84 0-.84-.567-.84-.84v-2.597h1.79c.163 0 .436 0 .436-.327 0-.338-.262-.338-.437-.338H2.422v-.895c0-.207 0-.447-.37-.447-.383 0-.383.229-.383.447v.895H.72c-.174 0-.447 0-.447.338 0 .327.272.327.436.327h.96v2.662c0 1.048.742 1.44 1.539 1.44.807 0 1.69-.469 1.69-1.44"/><path id="a" d="M4.904 0v-.347h-.371C3.48-.347 3.444-.49 3.444-.92v-6.745c0-.275 0-.287-.239-.287-.287.323-.885.765-2.117.765v.347c.275 0 .873 0 1.531-.311v6.231c0 .43-.036.574-1.088.574h-.37V0c.322-.024 1.482-.024 1.877-.024s1.543 0 1.866.024"/><path id="b" d="M8.456-2.978c0-.227-.204-.227-.383-.227H4.772v-3.301c0-.168 0-.383-.215-.383-.227 0-.227.203-.227.383v3.3H1.029c-.168 0-.383 0-.383.216 0 .227.203.227.383.227h3.3V.538c0 .168 0 .383.216.383.227 0 .227-.203.227-.383v-3.3h3.301c.167 0 .383 0 .383-.216"/><path id="d" d="M5.358-2.045c0-1.1-.885-1.962-2.033-2.165 1.04-.299 1.71-1.172 1.71-2.105 0-.945-.98-1.638-2.14-1.638-1.197 0-2.082.73-2.082 1.602 0 .479.371.574.55.574.252 0 .539-.18.539-.538 0-.383-.287-.55-.55-.55-.072 0-.096 0-.132.012.454-.813 1.579-.813 1.638-.813.395 0 1.173.179 1.173 1.351 0 .227-.036.897-.383 1.411-.359.527-.766.563-1.089.574l-.358.036c-.204.012-.252.024-.252.132 0 .12.06.12.276.12h.55c1.016 0 1.47.837 1.47 1.985 0 1.567-.812 1.985-1.399 1.985-.574 0-1.554-.275-1.901-1.064.383.06.73-.156.73-.586a.565.565 0 0 0-.587-.586c-.287 0-.598.167-.598.622C.49-.622 1.555.25 2.882.25c1.424 0 2.476-1.088 2.476-2.296"/><path id="c" d="M5.262-2.01H5c-.036.204-.131.862-.25 1.053-.085.108-.766.108-1.125.108H1.41c.323-.275 1.053-1.04 1.364-1.328 1.818-1.674 2.487-2.296 2.487-3.48 0-1.375-1.088-2.296-2.475-2.296S.586-6.77.586-5.741c0 .61.526.61.562.61.251 0 .562-.18.562-.562 0-.335-.227-.562-.562-.562-.107 0-.131 0-.167.012.227-.813.873-1.364 1.65-1.364 1.017 0 1.639.85 1.639 1.95 0 1.017-.586 1.902-1.268 2.667L.586-.287V0h4.365z"/></defs><use xlink:href="#a" x="-18.46341" y="-2.398963" transform="translate(37.166 74.889)scale(1.0004)"/><g fill="none" stroke="#000" stroke-miterlimit="10" stroke-width=".3985"><path d="M15.323 59.191h12.632M15.522 80.013V59.191M27.756 80.013V59.191M15.323 80.013h12.632"/></g><use xlink:href="#b" x="-5.826338" y="-2.398963" transform="translate(37.166 74.889)scale(1.0004)"/><g fill="none" stroke="#000" stroke-miterlimit="10" stroke-width=".3985"><path d="M27.955 59.191H43.84M28.154 80.013V59.191M43.64 80.013V59.191M27.955 80.013H43.84"/></g><use xlink:href="#c" x="10.065039" y="-2.398963" transform="translate(37.166 74.889)scale(1.0004)"/><g fill="none" stroke="#000" stroke-miterlimit="10" stroke-width=".3985"><path d="M43.84 59.191h12.632M44.039 80.013V59.191M56.273 80.013V59.191M43.84 80.013h12.632"/></g><use xlink:href="#b" x="22.702111" y="-2.398963" transform="translate(37.166 74.889)scale(1.0004)"/><g fill="none" stroke="#000" stroke-miterlimit="10" stroke-width=".3985"><path d="M56.472 59.191h15.885M56.671 80.013V59.191M72.157 80.013V59.191M56.472 80.013h15.885"/></g><use xlink:href="#d" x="38.593489" y="-2.398963" transform="translate(37.166 74.889)scale(1.0004)"/><g fill="none" stroke="#000" stroke-miterlimit="10" stroke-width=".3985"><path d="M72.357 59.191h12.632M72.556 80.013V59.191M84.79 80.013V59.191M72.357 80.013h12.632M145.923 69.602a8.432 8.432 0 1 0-16.863 0 8.432 8.432 0 0 0 16.863 0Z"/></g><use xlink:href="#a" x="-21.85177" y="-2.398963" transform="translate(156.405 75.975)scale(1.0004)"/><g transform="translate(150.743 53.775)scale(1.00008)"><use xlink:href="#e" x="-21.844802" y="-2.398198"/><use xlink:href="#f" x="-16.117053" y="-2.398198"/><use xlink:href="#g" x="-10.389302" y="-2.398198"/></g><use xlink:href="#b" x="-18.46341" y="-2.398963" transform="translate(177.818 74.889)scale(1.0004)"/><g fill="none" stroke="#000" stroke-miterlimit="10" stroke-width=".3985"><path d="M155.975 59.191h15.884M156.174 80.013V59.191M171.66 80.013V59.191M155.975 80.013h15.884"/></g><use xlink:href="#c" x="-2.573033" y="-2.398963" transform="translate(177.818 74.889)scale(1.0004)"/><g fill="none" stroke="#000" stroke-miterlimit="10" stroke-width=".3985"><path d="M171.859 59.191h12.633M172.058 80.013V59.191M184.292 80.013V59.191M171.859 80.013h12.633"/></g><use xlink:href="#b" x="10.065039" y="-2.398963" transform="translate(177.818 74.889)scale(1.0004)"/><g fill="none" stroke="#000" stroke-miterlimit="10" stroke-width=".3985"><path d="M184.492 59.191h15.884M184.691 80.013V59.191M200.177 80.013V59.191M184.492 80.013h15.884"/></g><use xlink:href="#d" x="25.955417" y="-2.398963" transform="translate(177.818 74.889)scale(1.0004)"/><g fill="none" stroke="#000" stroke-miterlimit="10" stroke-width=".3985"><path d="M200.376 59.191h12.633M200.575 80.013V59.191M212.809 80.013V59.191M200.376 80.013h12.633M287.376 55.12a9.48 9.48 0 0 0-9.48-9.479c-5.235 0-9.478 4.244-9.478 9.48s4.243 9.478 9.479 9.478a9.48 9.48 0 0 0 9.479-9.479Z"/></g><use xlink:href="#b" x="-21.85177" y="-2.398963" transform="translate(295.185 60.501)scale(1.0004)"/><path fill="none" stroke="#000" stroke-miterlimit="10" stroke-width=".3985" d="M272.155 89.136a8.432 8.432 0 1 0-16.863 0 8.432 8.432 0 0 0 16.863 0Z"/><use xlink:href="#a" x="-21.85177" y="-2.398963" transform="translate(282.637 95.51)scale(1.0004)"/><path fill="none" stroke="#000" stroke-miterlimit="10" stroke-width=".3985" d="m274.174 64.053-7.132 17.117M300.502 89.136a8.432 8.432 0 1 0-16.864 0 8.432 8.432 0 0 0 16.864 0Z"/><use xlink:href="#c" x="-21.85177" y="-2.398963" transform="translate(310.984 95.51)scale(1.0004)"/><path fill="none" stroke="#000" stroke-miterlimit="10" stroke-width=".3985" d="m281.619 64.053 7.132 17.117"/><g transform="translate(291.149 38.245)scale(1.00008)"><use xlink:href="#e" x="-21.844802" y="-2.398198"/><use xlink:href="#f" x="-16.117053" y="-2.398198"/><use xlink:href="#g" x="-10.389302" y="-2.398198"/></g><use xlink:href="#b" x="-18.46341" y="-2.398963" transform="translate(332.27 74.889)scale(1.0004)"/><g fill="none" stroke="#000" stroke-miterlimit="10" stroke-width=".3985"><path d="M310.427 59.191h15.884M310.626 80.013V59.191M326.112 80.013V59.191M310.427 80.013h15.884"/></g><use xlink:href="#d" x="-2.573033" y="-2.398963" transform="translate(332.27 74.889)scale(1.0004)"/><g fill="none" stroke="#000" stroke-miterlimit="10" stroke-width=".3985"><path d="M326.311 59.191h12.633M326.51 80.013V59.191M338.744 80.013V59.191M326.311 80.013h12.633M424.649 40.639a9.48 9.48 0 0 0-9.48-9.48 9.48 9.48 0 0 0-9.478 9.48 9.48 9.48 0 0 0 9.479 9.479 9.48 9.48 0 0 0 9.479-9.48Z"/></g><use xlink:href="#b" x="-21.85177" y="-2.398963" transform="translate(432.458 46.019)scale(1.0004)"/><path fill="none" stroke="#000" stroke-miterlimit="10" stroke-width=".3985" d="M410.475 74.655a9.48 9.48 0 0 0-9.479-9.48 9.48 9.48 0 0 0-9.479 9.48 9.48 9.48 0 0 0 9.48 9.479 9.48 9.48 0 0 0 9.478-9.48Z"/><use xlink:href="#b" x="-21.85177" y="-2.398963" transform="translate(418.284 80.036)scale(1.0004)"/><path fill="none" stroke="#000" stroke-miterlimit="10" stroke-width=".3985" d="m411.448 49.572-6.73 16.15M395.255 108.67a8.432 8.432 0 1 0-16.863 0 8.432 8.432 0 0 0 16.863 0Z"/><use xlink:href="#a" x="-21.85177" y="-2.398963" transform="translate(405.737 115.044)scale(1.0004)"/><path fill="none" stroke="#000" stroke-miterlimit="10" stroke-width=".3985" d="m397.274 83.588-7.132 17.116M423.602 108.67a8.432 8.432 0 1 0-16.864 0 8.432 8.432 0 0 0 16.864 0Z"/><use xlink:href="#c" x="-21.85177" y="-2.398963" transform="translate(434.084 115.044)scale(1.0004)"/><path fill="none" stroke="#000" stroke-miterlimit="10" stroke-width=".3985" d="m404.719 83.588 7.132 17.116M437.852 74.655a8.509 8.509 0 1 0-17.017 0 8.509 8.509 0 0 0 17.017 0Z"/><use xlink:href="#d" x="-21.85177" y="-2.398963" transform="translate(448.257 80.902)scale(1.0004)"/><path fill="none" stroke="#000" stroke-miterlimit="10" stroke-width=".3985" d="m418.892 49.572 7.102 17.045"/><g transform="translate(428.422 23.764)scale(1.00008)"><use xlink:href="#e" x="-21.844802" y="-2.398198"/><use xlink:href="#f" x="-16.117053" y="-2.398198"/><use xlink:href="#g" x="-10.389302" y="-2.398198"/></g><path fill="none" stroke="#000" stroke-miterlimit="10" stroke-width=".3985" d="M100.513 69.602h13.34"/><path d="m116.954 69.602-4.468-1.682 1.466 1.682-1.466 1.682Z"/><path fill="none" stroke="#000" stroke-miterlimit="10" stroke-width=".3985" d="m116.954 69.602-4.468-1.682 1.466 1.682-1.466 1.682ZM228.533 69.602h11.678"/><path d="m243.313 69.602-4.468-1.682 1.466 1.682-1.466 1.682Z"/><path fill="none" stroke="#000" stroke-miterlimit="10" stroke-width=".3985" d="m243.313 69.602-4.468-1.682 1.466 1.682-1.466 1.682ZM354.467 69.602h11.679"/><path d="m369.247 69.602-4.467-1.682 1.465 1.682-1.465 1.682Z"/><path fill="none" stroke="#000" stroke-miterlimit="10" stroke-width=".3985" d="m369.247 69.602-4.467-1.682 1.465 1.682-1.465 1.682Z"/></svg>