<svg xmlns="http://www.w3.org/2000/svg" xmlns:xlink="http://www.w3.org/1999/xlink" width="263.49pt" height="152.6pt" viewBox="0 0 263.49 152.6"><defs><path id="s" d="M5.291-3.284c0-1.746-.938-3.382-2.389-3.382H.655c-.175 0-.448 0-.448.338C.207-6 .491-6 .655-6h.24v5.334h-.24c-.175 0-.448 0-.448.339C.207 0 .491 0 .655 0h2.247c1.43 0 2.39-1.527 2.39-3.284m-.752 0c0 1.277-.633 2.618-1.844 2.618H1.647V-6h1.048c1.233 0 1.844 1.45 1.844 2.716"/><path id="t" d="M5.237-1.898c0-.819-.71-1.462-1.517-1.691.873-.295 1.364-.83 1.364-1.451 0-.895-.927-1.746-2.226-1.746-1.309 0-2.225.862-2.225 1.746 0 .621.502 1.167 1.364 1.45C1.178-3.36.48-2.716.48-1.897.48-.84 1.495.12 2.858.12c1.375 0 2.379-.96 2.379-2.018M4.33-5.03c0 .622-.676 1.102-1.473 1.102s-1.472-.49-1.472-1.102c0-.567.61-1.09 1.472-1.09.851 0 1.473.523 1.473 1.09m.153 3.12c0 .754-.72 1.364-1.626 1.364s-1.625-.61-1.625-1.363c0-.666.633-1.353 1.625-1.353 1.004 0 1.626.687 1.626 1.353"/><path id="w" d="M5.346-5.422v-.797c0-.338-.066-.447-.436-.447H.753c-.175 0-.448 0-.448.338C.305-6 .59-6 .753-6h.36v5.334h-.36c-.175 0-.448 0-.448.339C.305 0 .59 0 .753 0h1.68c.164 0 .436 0 .436-.327 0-.339-.262-.339-.436-.339h-.567V-3h1.483c0 .447 0 .622.382.622.371 0 .371-.24.371-.448V-3.84c0-.208 0-.448-.37-.448-.383 0-.383.175-.383.622H1.866V-6h2.727v.578c0 .207 0 .447.371.447.382 0 .382-.23.382-.447"/><path id="r" d="M5.302-3.338c0-.382-.382-.382-.513-.382H3.24v-1.56c0-.131 0-.513-.382-.513s-.381.382-.381.513v1.56H.927c-.13 0-.512 0-.512.382s.381.381.512.381h1.55v1.56c0 .131 0 .513.381.513s.382-.382.382-.512v-1.56h1.55c.13 0 .512 0 .512-.382"/><path id="q" d="M5.673-6.339c0-.327-.283-.327-.447-.327H3.818c-.163 0-.447 0-.447.327 0 .339.284.339.447.339h.328v3.72c0 1.167-.72 1.734-1.288 1.734-.578 0-1.287-.567-1.287-1.734V-6h.327c.164 0 .448 0 .448-.339 0-.327-.284-.327-.448-.327H.491c-.164 0-.447 0-.447.327C.044-6 .327-6 .49-6h.327v3.774c0 1.342.95 2.346 2.04 2.346s2.04-1.004 2.04-2.346V-6h.328c.174 0 .447 0 .447-.339"/><path id="u" d="M5.171-3.328c0-2.029-1.112-3.458-2.313-3.458-1.221 0-2.312 1.462-2.312 3.448C.546-1.31 1.658.12 2.858.12c1.222 0 2.313-1.462 2.313-3.448m-.752-.12c0 1.615-.71 2.903-1.56 2.903s-1.56-1.288-1.56-2.903c0-1.592.752-2.673 1.56-2.673.796 0 1.56 1.07 1.56 2.673"/><path id="p" d="M3.611 2.618c0-.032 0-.054-.185-.24-1.364-1.374-1.713-3.436-1.713-5.105 0-1.899.414-3.797 1.756-5.16.142-.132.142-.154.142-.186 0-.077-.043-.11-.109-.11-.109 0-1.09.742-1.735 2.128-.556 1.2-.687 2.411-.687 3.327 0 .851.12 2.172.72 3.404.655 1.342 1.593 2.052 1.702 2.052.066 0 .11-.033.11-.11"/><path id="x" d="M3.153-2.727c0-.851-.12-2.172-.72-3.404C1.778-7.473.84-8.182.73-8.182c-.065 0-.11.043-.11.109 0 .032 0 .054.208.25C1.9-6.742 2.52-5.007 2.52-2.726c0 1.865-.403 3.785-1.756 5.16-.142.13-.142.153-.142.185 0 .066.044.11.109.11.11 0 1.091-.742 1.735-2.128.556-1.2.687-2.411.687-3.327"/><path id="v" d="M5.444-2.782v-.24H0v.24z"/><path id="i" d="M5.669-1.064v-.67h-.263v.67c0 .681-.287.777-.455.777-.454 0-.454-.634-.454-.813v-2.093c0-.646 0-1.125-.526-1.591-.419-.383-.957-.55-1.483-.55-.981 0-1.735.646-1.735 1.423 0 .347.228.514.503.514.287 0 .49-.203.49-.49 0-.49-.43-.49-.61-.49.275-.503.85-.718 1.328-.718.55 0 1.256.455 1.256 1.53v.48C1.316-3.05.407-2.046.407-1.126c0 .946 1.1 1.245 1.83 1.245A1.63 1.63 0 0 0 3.79-.933c.048.562.419.993.933.993.251 0 .945-.168.945-1.124m-1.95-.622C3.72-.514 2.847-.12 2.333-.12c-.586 0-1.076-.43-1.076-1.004 0-1.579 2.033-1.722 2.464-1.746z"/><path id="a" d="M7.63-2.189c0-.968-.873-1.925-2.296-2.08 1.136-.216 1.962-.981 1.962-1.878 0-1.029-1.04-2.022-2.608-2.022H.514v.347h.24c.86 0 .896.12.896.562v6.351c0 .443-.035.562-.897.562H.514V0h4.497c1.543 0 2.62-1.04 2.62-2.189M6.243-6.147c0 .789-.622 1.782-1.95 1.782H2.56v-2.978c0-.395.024-.479.55-.479h1.508c1.196 0 1.626 1.029 1.626 1.675m.3 3.946c0 .97-.73 1.854-1.903 1.854H3.11c-.527 0-.55-.084-.55-.478v-3.301h2.236c1.148 0 1.746 1.004 1.746 1.925"/><path id="n" d="M4.856-1.423c0-.108-.084-.108-.12-.108-.107 0-.12.036-.155.18-.263.849-.91 1.207-1.555 1.207-.73 0-1.698-.633-1.698-2.451 0-1.986 1.016-2.476 1.614-2.476.455 0 1.112.18 1.388.646-.144 0-.587 0-.587.49 0 .287.204.49.49.49.276 0 .503-.167.503-.514 0-.801-.837-1.375-1.806-1.375C1.53-5.334.42-4.09.42-2.584.419-1.051 1.567.12 2.919.12c1.578 0 1.937-1.436 1.937-1.543"/><path id="k" d="M4.868-1.423c0-.072-.06-.12-.132-.12-.096 0-.12.06-.143.12C4.282-.42 3.48-.143 2.978-.143s-1.71-.335-1.71-2.404v-.228H4.58c.263 0 .287 0 .287-.227 0-1.208-.646-2.332-2.093-2.332C1.41-5.334.359-4.102.359-2.62.359-1.041 1.579.12 2.906.12c1.424 0 1.962-1.292 1.962-1.543m-.742-1.579H1.28c.095-1.878 1.148-2.093 1.483-2.093 1.28 0 1.351 1.686 1.363 2.093"/><path id="h" d="M5.681-4.856a.56.56 0 0 0-.586-.55c-.622 0-1.088.383-1.256.562a2 2 0 0 0-1.232-.43C1.531-5.274.73-4.461.73-3.54c0 .682.418 1.124.538 1.232-.144.18-.359.526-.359.992 0 .694.419.993.514 1.053-.55.155-1.1.586-1.1 1.208 0 .825 1.124 1.507 2.595 1.507 1.423 0 2.608-.634 2.608-1.531 0-.3-.084-1.005-.802-1.375-.61-.311-1.208-.311-2.236-.311-.73 0-.814 0-1.029-.228a.88.88 0 0 1-.227-.598c0-.203.072-.406.191-.574.562.371 1.04.371 1.172.371 1.077 0 1.878-.813 1.878-1.734 0-.323-.096-.778-.478-1.16.466-.479 1.028-.479 1.088-.479.048 0 .108 0 .155.024-.12.048-.179.168-.179.3 0 .167.12.31.311.31.096 0 .311-.06.311-.323M3.648-3.54c0 .215 0 .705-.204 1.028a1.02 1.02 0 0 1-.837.467c-1.052 0-1.052-1.208-1.052-1.483 0-.215 0-.706.203-1.029a1.02 1.02 0 0 1 .837-.466c1.053 0 1.053 1.208 1.053 1.483M4.939.933c0 .706-.908 1.268-2.009 1.268C1.782 2.2.91 1.615.91.933c0-.096.024-.562.478-.873.263-.168.371-.168 1.208-.168.993 0 2.344 0 2.344 1.04"/><path id="o" d="M5.98 0v-.347c-.323 0-.694 0-1.029-.49L3.35-3.17l-.084-.12c0-.036.754-.682.85-.777.824-.718 1.35-.73 1.602-.742v-.347c-.24.024-.55.024-.91.024-.31 0-.92 0-1.195-.024v.347c.203.012.347.12.347.311 0 .24-.251.455-.251.455l-1.71 1.506V-8.3L.334-8.17v.347c.813 0 .909.084.909.67v6.267c0 .538-.132.538-.91.538V0c.336-.024.91-.024 1.269-.024s.933 0 1.267.024v-.347c-.765 0-.909 0-.909-.538v-1.268l.766-.67 1.148 1.65c.18.252.263.384.263.551 0 .215-.167.275-.418.275V0c.299-.024.885-.024 1.208-.024.514 0 .538 0 1.052.024"/><path id="m" d="M2.966 0v-.347c-.765 0-.909 0-.909-.538V-8.3L.395-8.17v.347c.813 0 .909.084.909.67v6.267c0 .538-.132.538-.91.538V0c.336-.024.922-.024 1.28-.024s.957 0 1.292.024"/><path id="b" d="M10.19 0v-.347h-.24c-.86 0-.896-.12-.896-.562v-6.35c0-.443.036-.563.897-.563h.239v-.347H8.336c-.263 0-.275.012-.37.24L5.357-1.124 2.751-7.941c-.084-.228-.096-.228-.371-.228H.526v.347h.24c.86 0 .896.12.896.562v6.028c0 .323 0 .885-1.136.885V0c.311-.024.945-.024 1.28-.024s.969 0 1.28.024v-.347c-1.137 0-1.137-.562-1.137-.885v-6.53h.012L4.844-.227c.048.131.084.227.203.227.108 0 .132-.06.203-.24l2.907-7.582h.012v6.913c0 .443-.036.562-.897.562h-.24V0c.276-.024 1.232-.024 1.58-.024s1.303 0 1.578.024"/><path id="g" d="M5.49-2.56c0-1.542-1.172-2.774-2.56-2.774C1.495-5.334.36-4.066.36-2.56.359-1.03 1.555.12 2.919.12c1.41 0 2.57-1.172 2.57-2.68m-.91-.107c0 .419 0 1.16-.31 1.722a1.56 1.56 0 0 1-1.34.801c-.442 0-.98-.19-1.327-.777-.323-.538-.335-1.244-.335-1.746 0-.455 0-1.184.37-1.722a1.53 1.53 0 0 1 1.28-.706c.467 0 .969.215 1.292.682.37.55.37 1.303.37 1.746"/><path id="c" d="M7.308-5.956c0-1.16-1.16-2.213-2.775-2.213H.503v.347h.239c.86 0 .897.12.897.562v6.351c0 .443-.036.562-.897.562h-.24V0C.79-.024 1.77-.024 2.117-.024c.359 0 1.34 0 1.626.024v-.347h-.239c-.86 0-.897-.12-.897-.562v-2.894H4.63c1.399 0 2.679-.945 2.679-2.153m-1.113 0c0 .502 0 1.866-1.95 1.866H2.584v-3.253c0-.395.024-.479.55-.479h1.125c1.937 0 1.937 1.352 1.937 1.866"/><path id="f" d="M4.222-4.58c0-.36-.323-.694-.837-.694-1.017 0-1.364 1.1-1.436 1.327h-.011v-1.327l-1.603.131v.347c.813 0 .909.084.909.67v3.241c0 .538-.132.538-.91.538V0c.336-.024.994-.024 1.352-.024.323 0 1.172 0 1.448.024v-.347h-.24c-.873 0-.897-.131-.897-.562v-1.878c0-1.16.479-2.248 1.4-2.248.095 0 .12 0 .167.012-.096.048-.287.12-.287.442a.46.46 0 0 0 .466.479c.24 0 .479-.156.479-.479"/><path id="d" d="M5.848-2.2c0-.73-.275-1.268-.598-1.663-.442-.538-.98-.67-1.447-.79l-1.315-.334c-.61-.156-1.148-.754-1.148-1.52 0-.836.67-1.59 1.602-1.59 1.962 0 2.225 1.938 2.296 2.452.024.143.024.191.144.191.132 0 .132-.06.132-.275v-2.416c0-.215 0-.275-.12-.275-.036 0-.084 0-.167.156l-.395.73c-.574-.742-1.364-.886-1.89-.886A2.28 2.28 0 0 0 .646-6.135c0 .574.203 1.1.646 1.578.418.467.837.574 1.686.79.419.095 1.076.263 1.244.334.562.276.933.921.933 1.591 0 .897-.634 1.746-1.627 1.746-.538 0-1.28-.131-1.866-.646C.97-1.363.921-2.225.91-2.619c-.012-.096-.132-.096-.132-.096-.131 0-.131.06-.131.275v2.416c0 .215 0 .275.12.275.071 0 .083-.024.167-.167l.395-.718c.43.479 1.184.885 2.212.885C4.88.251 5.848-.885 5.848-2.2"/><path id="l" d="M4.21-1.519c0-.646-.395-1.028-.502-1.136-.431-.37-.754-.443-1.543-.586-.359-.072-1.232-.24-1.232-.957 0-.37.251-.92 1.327-.92 1.304 0 1.376 1.111 1.4 1.482.012.096.095.096.131.096.132 0 .132-.06.132-.275V-5.06c0-.215 0-.275-.12-.275-.095 0-.323.263-.406.37-.371-.298-.742-.37-1.125-.37-1.447 0-1.877.79-1.877 1.447 0 .132 0 .55.454.969.383.335.79.418 1.34.526.657.132.813.167 1.112.407.215.179.37.442.37.777 0 .514-.298 1.088-1.35 1.088C1.53-.12.956-.574.693-1.77c-.048-.215-.06-.24-.06-.24-.024-.047-.072-.047-.108-.047-.131 0-.131.06-.131.275v1.627c0 .215 0 .275.12.275.06 0 .071-.012.274-.264.06-.083.06-.107.24-.299.454.563 1.1.563 1.303.563C3.588.12 4.21-.574 4.21-1.52"/><path id="j" d="M3.899-1.483v-.682h-.263v.658c0 .861-.347 1.363-.813 1.363-.814 0-.814-1.112-.814-1.315v-3.349h1.687v-.347H2.009v-2.2h-.263c-.012 1.124-.442 2.272-1.53 2.308v.24h1.016v3.324C1.232-.155 2.117.12 2.75.12c.753 0 1.148-.742 1.148-1.603"/><path id="e" d="M6.231 0v-.347c-.813 0-.909-.084-.909-.67v-4.257l-1.686.131v.347c.813 0 .909.084.909.67v2.14C4.545-.968 4.007-.12 3.11-.12c-.981 0-1.04-.562-1.04-1.196v-3.958l-1.687.131v.347c.909 0 .909.036.909 1.1v1.794c0 .742 0 1.172.358 1.567.288.311.778.455 1.388.455.203 0 .586 0 .993-.347.346-.275.538-.73.538-.73V.12z"/></defs><path fill="none" stroke="#000" stroke-miterlimit="10" stroke-width=".3985" d="M11.538 141.062h113.387V27.675H11.538Z"/><g transform="translate(76.184 -45.567)scale(1.0004)"><use xlink:href="#a" x="-60.486275" y="69.085727"/><use xlink:href="#b" x="-52.197998" y="69.085727"/><use xlink:href="#c" x="-41.469873" y="69.085727"/></g><path fill="none" stroke="#000" stroke-miterlimit="10" stroke-width=".3985" d="M124.925 119.802H68.232v-7.087h56.693M130.012 116.259c6.252 0 11.921-20.552 21.134-20.552"/><path d="m126.91 116.259 4.468 1.682-1.466-1.682 1.466-1.682Z"/><path fill="none" stroke="#000" stroke-miterlimit="10" stroke-width=".3985" d="m126.91 116.259 4.468 1.682-1.466-1.682 1.466-1.682Z"/><g transform="translate(217.918 29.357)scale(1.0004)"><use xlink:href="#d" x="-58.542495" y="69.085727"/><use xlink:href="#e" x="-52.036259" y="69.085727"/><use xlink:href="#f" x="-45.53002" y="69.085727"/><use xlink:href="#f" x="-40.973259" y="69.085727"/><use xlink:href="#g" x="-36.416499" y="69.085727"/><use xlink:href="#h" x="-30.556098" y="69.085727"/><use xlink:href="#i" x="-24.695699" y="69.085727"/><use xlink:href="#j" x="-18.835299" y="69.085727"/><use xlink:href="#k" x="-14.278539" y="69.085727"/><use xlink:href="#l" x="-9.075939" y="69.085727"/><use xlink:href="#a" x="-.476698" y="69.085727"/><use xlink:href="#m" x="7.811582" y="69.085727"/><use xlink:href="#g" x="11.064703" y="69.085727"/><use xlink:href="#n" x="17.248022" y="69.085727"/><use xlink:href="#o" x="22.139663" y="69.085727"/></g><g transform="translate(217.918 29.357)scale(1.00008)"><use xlink:href="#p" x="-56.446656" y="83.510889"/><use xlink:href="#q" x="-52.203306" y="83.510889"/><use xlink:href="#r" x="-46.475561" y="83.510889"/><use xlink:href="#s" x="-40.747808" y="83.510889"/><use xlink:href="#t" x="-35.020057" y="83.510889"/><use xlink:href="#u" x="-29.292305" y="83.510889"/><use xlink:href="#u" x="-23.564554" y="83.510889"/><use xlink:href="#v" x="-17.836474" y="83.510889"/><use xlink:href="#q" x="-12.382023" y="83.510889"/><use xlink:href="#r" x="-6.654274" y="83.510889"/><use xlink:href="#s" x="-.926523" y="83.510889"/><use xlink:href="#w" x="4.801227" y="83.510889"/><use xlink:href="#w" x="10.528978" y="83.510889"/><use xlink:href="#w" x="16.256728" y="83.510889"/><use xlink:href="#x" x="21.98481" y="83.510889"/></g></svg>