<svg xmlns="http://www.w3.org/2000/svg" xmlns:xlink="http://www.w3.org/1999/xlink" width="351.314" height="203.461" viewBox="-72 -72 263.486 152.596"><defs><path id="s" d="M5.29-3.284c0-1.745-.937-3.381-2.388-3.381H.655c-.175 0-.448 0-.448.338C.207-6 .491-6 .655-6h.24v5.335h-.24c-.175 0-.448 0-.448.338C.207 0 .491 0 .655 0h2.247C4.33 0 5.29-1.527 5.29-3.284m-.752 0c0 1.277-.633 2.619-1.843 2.619H1.647V-6h1.048c1.232 0 1.843 1.45 1.843 2.716"/><path id="t" d="M5.236-1.898c0-.818-.709-1.462-1.516-1.691.873-.295 1.364-.83 1.364-1.451 0-.895-.928-1.745-2.226-1.745-1.309 0-2.225.861-2.225 1.745 0 .622.502 1.167 1.363 1.45C1.178-3.36.48-2.715.48-1.897.48-.84 1.495.12 2.858.12c1.375 0 2.378-.96 2.378-2.018M4.331-5.03c0 .622-.676 1.102-1.473 1.102S1.385-4.418 1.385-5.03c0-.567.611-1.091 1.473-1.091.851 0 1.473.524 1.473 1.09m.153 3.12c0 .753-.72 1.364-1.626 1.364S1.233-1.156 1.233-1.91c0-.666.632-1.353 1.625-1.353 1.004 0 1.626.687 1.626 1.353"/><path id="w" d="M5.345-5.422v-.796c0-.338-.065-.447-.436-.447H.753c-.175 0-.448 0-.448.338C.305-6 .59-6 .753-6h.36v5.335h-.36c-.175 0-.448 0-.448.338C.305 0 .59 0 .753 0h1.68c.163 0 .436 0 .436-.327 0-.338-.262-.338-.436-.338h-.568V-3H3.35c0 .447 0 .622.382.622.37 0 .37-.24.37-.447V-3.84c0-.207 0-.447-.37-.447-.382 0-.382.174-.382.622H1.865V-6h2.728v.578c0 .207 0 .447.37.447.382 0 .382-.229.382-.447"/><path id="r" d="M5.302-3.338c0-.382-.382-.382-.513-.382H3.24v-1.56c0-.13 0-.513-.382-.513s-.382.382-.382.513v1.56H.927c-.13 0-.512 0-.512.382s.381.382.512.382h1.55v1.56c0 .13 0 .512.381.512s.382-.381.382-.512v-1.56h1.55c.13 0 .512 0 .512-.382"/><path id="q" d="M5.673-6.338c0-.327-.284-.327-.448-.327H3.818c-.163 0-.447 0-.447.327 0 .338.284.338.447.338h.327v3.72c0 1.167-.72 1.735-1.287 1.735-.578 0-1.287-.568-1.287-1.735V-6h.327c.164 0 .447 0 .447-.338 0-.327-.283-.327-.447-.327H.491c-.164 0-.447 0-.447.327C.044-6 .327-6 .49-6h.327v3.775c0 1.341.95 2.345 2.04 2.345s2.04-1.004 2.04-2.345V-6h.327c.175 0 .448 0 .448-.338"/><path id="u" d="M5.17-3.327c0-2.03-1.112-3.458-2.312-3.458-1.222 0-2.313 1.461-2.313 3.447C.545-1.31 1.658.12 2.858.12c1.222 0 2.313-1.462 2.313-3.447m-.752-.12c0 1.614-.709 2.902-1.56 2.902s-1.56-1.288-1.56-2.902c0-1.593.753-2.673 1.56-2.673.797 0 1.56 1.07 1.56 2.673"/><path id="p" d="M3.61 2.618c0-.033 0-.054-.185-.24-1.363-1.374-1.712-3.436-1.712-5.105 0-1.898.414-3.797 1.756-5.16.142-.131.142-.153.142-.186 0-.076-.044-.109-.11-.109-.108 0-1.09.742-1.734 2.127-.556 1.2-.687 2.411-.687 3.328 0 .85.12 2.17.72 3.403.655 1.342 1.593 2.051 1.702 2.051.065 0 .109-.032.109-.109"/><path id="x" d="M3.153-2.727c0-.851-.12-2.171-.72-3.404C1.778-7.473.84-8.18.73-8.18c-.066 0-.11.043-.11.108 0 .033 0 .055.208.251C1.9-6.742 2.52-5.007 2.52-2.727c0 1.865-.404 3.785-1.756 5.16-.142.13-.142.152-.142.185 0 .066.043.11.109.11.109 0 1.09-.743 1.734-2.128.557-1.2.688-2.41.688-3.327"/><path id="v" d="M5.444-2.782v-.24H0v.24z"/><path id="i" d="M5.667-1.064v-.67h-.263v.67c0 .681-.287.777-.455.777-.454 0-.454-.634-.454-.813v-2.092c0-.646 0-1.124-.526-1.59-.418-.383-.956-.55-1.482-.55-.98 0-1.734.646-1.734 1.423 0 .346.227.514.502.514a.47.47 0 0 0 .49-.49c0-.49-.43-.49-.61-.49.276-.503.85-.718 1.328-.718.55 0 1.255.454 1.255 1.53v.479C1.315-3.05.406-2.044.406-1.124c0 .945 1.1 1.244 1.83 1.244A1.63 1.63 0 0 0 3.79-.933c.048.562.418.993.932.993.251 0 .945-.168.945-1.124m-1.949-.622c0 1.172-.873 1.566-1.387 1.566-.586 0-1.076-.43-1.076-1.004 0-1.578 2.033-1.721 2.463-1.745z"/><path id="a" d="M7.627-2.188c0-.968-.872-1.925-2.295-2.08 1.136-.215 1.96-.98 1.96-1.877 0-1.028-1.04-2.02-2.606-2.02H.514v.346h.24c.86 0 .896.12.896.562v6.348c0 .443-.036.562-.897.562H.514V0H5.01c1.542 0 2.618-1.04 2.618-2.188M6.241-6.145c0 .79-.622 1.781-1.95 1.781H2.559V-7.34c0-.395.024-.479.55-.479h1.507c1.195 0 1.626 1.028 1.626 1.674M6.539-2.2c0 .969-.729 1.853-1.9 1.853h-1.53c-.527 0-.55-.083-.55-.478v-3.3h2.235c1.148 0 1.745 1.005 1.745 1.925"/><path id="n" d="M4.854-1.423c0-.107-.084-.107-.12-.107-.107 0-.12.036-.155.18-.263.848-.909 1.207-1.554 1.207-.73 0-1.698-.634-1.698-2.451 0-1.985 1.016-2.475 1.614-2.475.454 0 1.112.18 1.387.646-.144 0-.586 0-.586.49 0 .287.203.49.49.49.275 0 .502-.167.502-.514 0-.801-.837-1.375-1.805-1.375-1.399 0-2.51 1.243-2.51 2.75C.418-1.052 1.565.12 2.916.12c1.578 0 1.937-1.435 1.937-1.543"/><path id="k" d="M4.866-1.423c0-.071-.06-.12-.132-.12-.095 0-.12.06-.143.12C4.28-.418 3.479-.143 2.977-.143s-1.71-.335-1.71-2.403v-.228H4.58c.263 0 .287 0 .287-.227 0-1.207-.646-2.331-2.092-2.331C1.41-5.332.359-4.101.359-2.618.359-1.04 1.579.12 2.905.12c1.423 0 1.96-1.292 1.96-1.543M4.125-3H1.279c.096-1.877 1.148-2.092 1.483-2.092 1.279 0 1.35 1.686 1.363 2.092"/><path id="h" d="M5.679-4.854a.56.56 0 0 0-.586-.55c-.622 0-1.088.383-1.255.562a2 2 0 0 0-1.232-.43C1.53-5.272.73-4.46.73-3.54c0 .682.419 1.124.538 1.232-.143.179-.358.526-.358.992 0 .693.418.992.514 1.052-.55.155-1.1.586-1.1 1.207 0 .825 1.124 1.507 2.594 1.507 1.423 0 2.606-.634 2.606-1.53 0-.3-.083-1.005-.8-1.375-.61-.311-1.208-.311-2.236-.311-.73 0-.813 0-1.028-.227a.88.88 0 0 1-.228-.598c0-.203.072-.407.192-.574.562.37 1.04.37 1.171.37 1.076 0 1.877-.812 1.877-1.733 0-.323-.095-.777-.478-1.16.466-.478 1.028-.478 1.088-.478.048 0 .108 0 .155.024-.12.048-.179.168-.179.3 0 .167.12.31.31.31.097 0 .312-.06.312-.323M3.646-3.539c0 .215 0 .706-.203 1.028a1.02 1.02 0 0 1-.837.467c-1.052 0-1.052-1.208-1.052-1.483 0-.215 0-.705.203-1.028a1.02 1.02 0 0 1 .837-.466c1.052 0 1.052 1.207 1.052 1.482M4.937.933c0 .705-.908 1.267-2.008 1.267C1.781 2.2.909 1.614.909.933c0-.096.024-.562.478-.873.263-.168.37-.168 1.207-.168.993 0 2.343 0 2.343 1.04"/><path id="o" d="M5.978 0v-.347c-.323 0-.694 0-1.029-.49L3.347-3.168l-.083-.12c0-.036.753-.681.849-.777.824-.717 1.35-.729 1.602-.741v-.347c-.24.024-.55.024-.909.024-.31 0-.92 0-1.196-.024v.347c.204.012.347.12.347.31 0 .24-.25.455-.25.455l-1.71 1.507v-5.763l-1.662.132v.346c.813 0 .908.084.908.67v6.264c0 .538-.131.538-.908.538V0c.334-.024.908-.024 1.267-.024s.932 0 1.267.024v-.347c-.765 0-.908 0-.908-.538v-1.267l.765-.67 1.147 1.65c.18.251.263.383.263.55 0 .216-.167.275-.418.275V0c.299-.024.885-.024 1.208-.024.514 0 .538 0 1.052.024"/><path id="m" d="M2.965 0v-.347c-.765 0-.909 0-.909-.538v-7.412l-1.661.132v.346c.812 0 .908.084.908.67v6.264c0 .538-.131.538-.908.538V0c.334-.024.92-.024 1.279-.024s.956 0 1.29.024"/><path id="b" d="M10.186 0v-.347h-.24c-.86 0-.896-.12-.896-.562v-6.348c0-.442.036-.562.897-.562h.239v-.346H8.333c-.263 0-.275.012-.37.239L5.355-1.124 2.75-7.938c-.084-.227-.096-.227-.37-.227H.525v.346h.24c.86 0 .896.12.896.562v6.026c0 .322 0 .884-1.136.884V0c.31-.024.944-.024 1.28-.024s.968 0 1.278.024v-.347C1.95-.347 1.95-.909 1.95-1.23V-7.76h.012L4.84-.227c.049.131.085.227.204.227.108 0 .132-.06.203-.24l2.905-7.579h.012v6.91c0 .443-.035.562-.896.562h-.24V0c.276-.024 1.232-.024 1.579-.024s1.303 0 1.578.024"/><path id="g" d="M5.487-2.558c0-1.543-1.171-2.774-2.558-2.774-1.435 0-2.57 1.267-2.57 2.774C.359-1.028 1.554.12 2.917.12c1.41 0 2.57-1.172 2.57-2.678m-.908-.108c0 .418 0 1.16-.311 1.722a1.56 1.56 0 0 1-1.339.8c-.442 0-.98-.19-1.327-.777-.323-.538-.335-1.243-.335-1.745 0-.454 0-1.184.37-1.722.336-.514.862-.705 1.28-.705.466 0 .968.215 1.291.682.37.55.37 1.303.37 1.745"/><path id="c" d="M7.305-5.954c0-1.16-1.16-2.211-2.774-2.211H.502v.346h.24c.86 0 .896.12.896.562v6.348c0 .443-.036.562-.897.562H.502V0C.79-.024 1.77-.024 2.116-.024c.359 0 1.339 0 1.626.024v-.347h-.24c-.86 0-.896-.12-.896-.562v-2.893h2.02c1.4 0 2.679-.944 2.679-2.152m-1.112 0c0 .502 0 1.865-1.949 1.865H2.582V-7.34c0-.395.024-.479.55-.479h1.124c1.937 0 1.937 1.351 1.937 1.865"/><path id="f" d="M4.22-4.579c0-.358-.323-.693-.837-.693-1.016 0-1.363 1.1-1.434 1.327h-.012v-1.327l-1.602.131v.347c.813 0 .908.084.908.67v3.24c0 .537-.131.537-.908.537V0c.334-.024.992-.024 1.35-.024.323 0 1.172 0 1.447.024v-.347h-.239c-.873 0-.896-.131-.896-.562v-1.877c0-1.16.478-2.247 1.398-2.247.096 0 .12 0 .168.012-.096.048-.287.12-.287.442 0 .347.275.478.466.478.24 0 .478-.155.478-.478"/><path id="d" d="M5.846-2.2c0-.729-.275-1.267-.598-1.662-.442-.538-.98-.669-1.446-.789l-1.315-.334c-.61-.156-1.148-.753-1.148-1.519 0-.836.67-1.59 1.602-1.59 1.96 0 2.224 1.937 2.295 2.451.024.144.024.191.144.191.131 0 .131-.06.131-.275V-8.14c0-.216 0-.275-.12-.275-.035 0-.083 0-.167.155l-.394.73c-.574-.742-1.363-.885-1.889-.885A2.28 2.28 0 0 0 .646-6.133c0 .574.203 1.1.645 1.578.419.466.837.574 1.686.79.418.095 1.076.262 1.243.334.562.275.933.92.933 1.59 0 .897-.634 1.745-1.626 1.745-.538 0-1.28-.131-1.865-.645C.968-1.363.92-2.224.909-2.618c-.012-.096-.132-.096-.132-.096-.131 0-.131.06-.131.275v2.415c0 .215 0 .275.12.275.07 0 .083-.024.167-.167l.394-.718c.43.479 1.184.885 2.212.885 1.339 0 2.307-1.136 2.307-2.45"/><path id="l" d="M4.208-1.518c0-.646-.394-1.028-.502-1.136-.43-.37-.753-.442-1.542-.586-.359-.072-1.231-.239-1.231-.956 0-.37.25-.92 1.327-.92 1.303 0 1.374 1.111 1.398 1.482.012.095.096.095.132.095.131 0 .131-.06.131-.275v-1.243c0-.215 0-.275-.12-.275-.095 0-.322.263-.406.37-.37-.298-.741-.37-1.124-.37-1.446 0-1.876.789-1.876 1.447 0 .131 0 .55.454.968.382.335.789.418 1.339.526.657.131.813.167 1.112.406.215.18.37.443.37.778 0 .514-.299 1.087-1.35 1.087C1.53-.12.955-.574.692-1.77a2 2 0 0 0-.06-.238C.61-2.056.563-2.056.527-2.056c-.131 0-.131.06-.131.275v1.626c0 .215 0 .275.12.275.059 0 .07-.012.274-.263.06-.084.06-.108.24-.3C1.481.12 2.127.12 2.33.12c1.256 0 1.877-.694 1.877-1.638"/><path id="j" d="M3.897-1.482v-.682h-.263v.658c0 .86-.346 1.363-.813 1.363-.813 0-.813-1.112-.813-1.316v-3.347h1.686v-.347H2.008v-2.2h-.263C1.733-6.228 1.303-5.08.215-5.044v.239h1.016v3.324C1.231-.155 2.116.12 2.75.12c.753 0 1.147-.742 1.147-1.602"/><path id="e" d="M6.229 0v-.347c-.813 0-.909-.083-.909-.67v-4.255l-1.686.131v.347c.813 0 .909.084.909.67v2.14c0 1.016-.538 1.864-1.435 1.864-.98 0-1.04-.561-1.04-1.195v-3.957l-1.685.131v.347c.908 0 .908.036.908 1.1v1.793c0 .741 0 1.172.359 1.566.287.311.777.455 1.387.455.203 0 .585 0 .992-.347.347-.275.538-.73.538-.73V.12z"/></defs><g stroke="#000" stroke-miterlimit="10" stroke-width=".4"><path fill="none" stroke-width=".398504" d="M-60.462 69.058H52.924V-44.328H-60.462Z"/><g stroke="none" transform="matrix(1 0 0 1 4.184 -117.57)"><use xlink:href="#a" x="-60.462" y="69.058"/><use xlink:href="#b" x="-52.177" y="69.058"/><use xlink:href="#c" x="-41.453" y="69.058"/></g><path fill="none" stroke-width=".398504" d="M52.924 47.798H-3.77v-7.086h56.693M58.01 44.255c6.252 0 11.922-20.551 21.134-20.551"/><path stroke-width=".398504" d="m54.908 44.255 4.468 1.682-1.466-1.682 1.466-1.682Z"/><g stroke="none" transform="matrix(1 0 0 1 145.916 -42.646)"><use xlink:href="#d" x="-58.519" y="69.058"/><use xlink:href="#e" x="-52.015" y="69.058"/><use xlink:href="#f" x="-45.512" y="69.058"/><use xlink:href="#f" x="-40.957" y="69.058"/><use xlink:href="#g" x="-36.402" y="69.058"/><use xlink:href="#h" x="-30.544" y="69.058"/><use xlink:href="#i" x="-24.686" y="69.058"/><use xlink:href="#j" x="-18.828" y="69.058"/><use xlink:href="#k" x="-14.273" y="69.058"/><use xlink:href="#l" x="-9.072" y="69.058"/><use xlink:href="#a" x="-.473" y="69.058"/><use xlink:href="#m" x="7.812" y="69.058"/><use xlink:href="#g" x="11.064" y="69.058"/><use xlink:href="#n" x="17.245" y="69.058"/><use xlink:href="#o" x="22.122" y="69.058"/><use xlink:href="#p" x="-56.442" y="83.504"/><use xlink:href="#q" x="-52.199" y="83.504"/><use xlink:href="#r" x="-46.471" y="83.504"/><use xlink:href="#s" x="-40.744" y="83.504"/><use xlink:href="#t" x="-35.017" y="83.504"/><use xlink:href="#u" x="-29.29" y="83.504"/><use xlink:href="#u" x="-23.562" y="83.504"/><use xlink:href="#v" x="-17.835" y="83.504"/><use xlink:href="#q" x="-12.381" y="83.504"/><use xlink:href="#r" x="-6.653" y="83.504"/><use xlink:href="#s" x="-.926" y="83.504"/><use xlink:href="#w" x="4.801" y="83.504"/><use xlink:href="#w" x="10.529" y="83.504"/><use xlink:href="#w" x="16.256" y="83.504"/><use xlink:href="#x" x="21.983" y="83.504"/></g></g></svg>