<svg xmlns="http://www.w3.org/2000/svg" xmlns:xlink="http://www.w3.org/1999/xlink" width="558.657" height="201.085" viewBox="-72 -72 418.993 150.814"><defs><path id="J" d="M3.61 2.618c0-.033 0-.054-.185-.24-1.363-1.374-1.712-3.436-1.712-5.105 0-1.898.414-3.797 1.756-5.16.142-.131.142-.153.142-.186 0-.076-.044-.109-.11-.109-.108 0-1.09.742-1.734 2.127-.556 1.2-.687 2.411-.687 3.328 0 .85.12 2.17.72 3.403.655 1.342 1.593 2.051 1.702 2.051.065 0 .109-.032.109-.109"/><path id="N" d="M3.153-2.727c0-.851-.12-2.171-.72-3.404C1.778-7.473.84-8.18.73-8.18c-.066 0-.11.043-.11.108 0 .033 0 .055.208.251C1.9-6.742 2.52-5.007 2.52-2.727c0 1.865-.404 3.785-1.756 5.16-.142.13-.142.152-.142.185 0 .066.043.11.109.11.109 0 1.09-.743 1.734-2.128.557-1.2.688-2.41.688-3.327"/><path id="M" d="M3.207-6.982c0-.262 0-.283-.25-.283-.677.698-1.637.698-1.986.698v.338c.218 0 .862 0 1.429-.284v5.651c0 .393-.033.524-1.015.524h-.349V0c.382-.033 1.331-.033 1.768-.033s1.385 0 1.767.033v-.338h-.35c-.981 0-1.014-.12-1.014-.524z"/><path id="K" d="M7.495-3.567c.163 0 .37 0 .37-.218s-.207-.219-.36-.219H.971c-.153 0-.36 0-.36.219s.207.218.37.218zm.01 2.116c.153 0 .36 0 .36-.218s-.207-.218-.37-.218H.982c-.164 0-.371 0-.371.218s.207.218.36.218z"/><path id="e" d="M5.667-1.064v-.67h-.263v.67c0 .681-.287.777-.455.777-.454 0-.454-.634-.454-.813v-2.092c0-.646 0-1.124-.526-1.59-.418-.383-.956-.55-1.482-.55-.98 0-1.734.646-1.734 1.423 0 .346.227.514.502.514a.47.47 0 0 0 .49-.49c0-.49-.43-.49-.61-.49.276-.503.85-.718 1.328-.718.55 0 1.255.454 1.255 1.53v.479C1.315-3.05.406-2.044.406-1.124c0 .945 1.1 1.244 1.83 1.244A1.63 1.63 0 0 0 3.79-.933c.048.562.418.993.932.993.251 0 .945-.168.945-1.124m-1.949-.622c0 1.172-.873 1.566-1.387 1.566-.586 0-1.076-.43-1.076-1.004 0-1.578 2.033-1.721 2.463-1.745z"/><path id="b" d="M7.627-2.188c0-.968-.872-1.925-2.295-2.08 1.136-.215 1.96-.98 1.96-1.877 0-1.028-1.04-2.02-2.606-2.02H.514v.346h.24c.86 0 .896.12.896.562v6.348c0 .443-.036.562-.897.562H.514V0H5.01c1.542 0 2.618-1.04 2.618-2.188M6.241-6.145c0 .79-.622 1.781-1.95 1.781H2.559V-7.34c0-.395.024-.479.55-.479h1.507c1.195 0 1.626 1.028 1.626 1.674M6.539-2.2c0 .969-.729 1.853-1.9 1.853h-1.53c-.527 0-.55-.083-.55-.478v-3.3h2.235c1.148 0 1.745 1.005 1.745 1.925"/><path id="s" d="M4.854-1.423c0-.107-.084-.107-.12-.107-.107 0-.12.036-.155.18-.263.848-.909 1.207-1.554 1.207-.73 0-1.698-.634-1.698-2.451 0-1.985 1.016-2.475 1.614-2.475.454 0 1.112.18 1.387.646-.144 0-.586 0-.586.49 0 .287.203.49.49.49.275 0 .502-.167.502-.514 0-.801-.837-1.375-1.805-1.375-1.399 0-2.51 1.243-2.51 2.75C.418-1.052 1.565.12 2.916.12c1.578 0 1.937-1.435 1.937-1.543"/><path id="h" d="M4.866-1.423c0-.071-.06-.12-.132-.12-.095 0-.12.06-.143.12C4.28-.418 3.479-.143 2.977-.143s-1.71-.335-1.71-2.403v-.228H4.58c.263 0 .287 0 .287-.227 0-1.207-.646-2.331-2.092-2.331C1.41-5.332.359-4.101.359-2.618.359-1.04 1.579.12 2.905.12c1.423 0 1.96-1.292 1.96-1.543M4.125-3H1.279c.096-1.877 1.148-2.092 1.483-2.092 1.279 0 1.35 1.686 1.363 2.092"/><path id="c" d="M2.881 0v-.347c-.777 0-.825-.06-.825-.526v-4.4L.43-5.14v.347c.766 0 .873.072.873.658v3.251c0 .538-.131.538-.908.538V0c.334-.024.908-.024 1.255-.024.131 0 .825 0 1.231.024m-.67-7.22a.58.58 0 1 0-.586.574.576.576 0 0 0 .587-.575"/><path id="d" d="M6.229 0v-.347c-.598 0-.897 0-.909-.358v-2.2c0-1.112 0-1.447-.275-1.83-.347-.465-.909-.537-1.315-.537-1.16 0-1.614.992-1.71 1.231h-.012v-1.231l-1.625.131v.347c.813 0 .908.084.908.67v3.24c0 .537-.131.537-.908.537V0c.31-.024.956-.024 1.29-.024.347 0 .993 0 1.304.024v-.347c-.765 0-.909 0-.909-.538v-2.223c0-1.256.825-1.925 1.566-1.925s.909.61.909 1.339v2.81c0 .537-.132.537-.909.537V0c.311-.024.957-.024 1.292-.024.346 0 .992 0 1.303.024"/><path id="l" d="M5.487-2.558c0-1.543-1.171-2.774-2.558-2.774-1.435 0-2.57 1.267-2.57 2.774C.359-1.028 1.554.12 2.917.12c1.41 0 2.57-1.172 2.57-2.678m-.908-.108c0 .418 0 1.16-.311 1.722a1.56 1.56 0 0 1-1.339.8c-.442 0-.98-.19-1.327-.777-.323-.538-.335-1.243-.335-1.745 0-.454 0-1.184.37-1.722.336-.514.862-.705 1.28-.705.466 0 .968.215 1.291.682.37.55.37 1.303.37 1.745"/><path id="i" d="M6.073-2.582c0-1.519-1.124-2.69-2.427-2.69-1.052 0-1.614.753-1.65.8v-.8l-1.661.131v.347c.837 0 .908.084.908.61v5.619c0 .538-.131.538-.908.538v.346c.31-.024.956-.024 1.29-.024.348 0 .993 0 1.304.024v-.346c-.765 0-.909 0-.909-.538v-2.08c.216.298.706.765 1.47.765 1.376 0 2.583-1.16 2.583-2.702m-.908 0C5.165-1.16 4.352-.12 3.43-.12a1.4 1.4 0 0 1-.956-.382c-.275-.275-.455-.514-.455-.849v-2.463c0-.227 0-.239.132-.43A1.72 1.72 0 0 1 3.55-5.01c.896 0 1.614 1.088 1.614 2.427"/><path id="q" d="M6.157 2.32v-.347c-.765 0-.909 0-.909-.538v-6.707H5.01L4.567-4.16c-.215-.455-.682-1.112-1.59-1.112C1.662-5.272.418-4.148.418-2.57.418-1.052 1.566.12 2.87.12c.646 0 1.172-.3 1.602-.897v2.212c0 .538-.131.538-.908.538v.346c.31-.024.956-.024 1.29-.024.347 0 .993 0 1.304.024M4.495-1.603c0 .383-.215.73-.49 1.004-.43.443-.885.478-1.064.478-.909 0-1.614-1.123-1.614-2.45 0-1.435.837-2.44 1.722-2.44.944 0 1.446 1.029 1.446 1.65z"/><path id="f" d="M4.22-4.579c0-.358-.323-.693-.837-.693-1.016 0-1.363 1.1-1.434 1.327h-.012v-1.327l-1.602.131v.347c.813 0 .908.084.908.67v3.24c0 .537-.131.537-.908.537V0c.334-.024.992-.024 1.35-.024.323 0 1.172 0 1.447.024v-.347h-.239c-.873 0-.896-.131-.896-.562v-1.877c0-1.16.478-2.247 1.398-2.247.096 0 .12 0 .168.012-.096.048-.287.12-.287.442 0 .347.275.478.466.478.24 0 .478-.155.478-.478"/><path id="j" d="M4.208-1.518c0-.646-.394-1.028-.502-1.136-.43-.37-.753-.442-1.542-.586-.359-.072-1.231-.239-1.231-.956 0-.37.25-.92 1.327-.92 1.303 0 1.374 1.111 1.398 1.482.012.095.096.095.132.095.131 0 .131-.06.131-.275v-1.243c0-.215 0-.275-.12-.275-.095 0-.322.263-.406.37-.37-.298-.741-.37-1.124-.37-1.446 0-1.876.789-1.876 1.447 0 .131 0 .55.454.968.382.335.789.418 1.339.526.657.131.813.167 1.112.406.215.18.37.443.37.778 0 .514-.299 1.087-1.35 1.087C1.53-.12.955-.574.692-1.77a2 2 0 0 0-.06-.238C.61-2.056.563-2.056.527-2.056c-.131 0-.131.06-.131.275v1.626c0 .215 0 .275.12.275.059 0 .07-.012.274-.263.06-.084.06-.108.24-.3C1.481.12 2.127.12 2.33.12c1.256 0 1.877-.694 1.877-1.638"/><path id="k" d="M3.897-1.482v-.682h-.263v.658c0 .86-.346 1.363-.813 1.363-.813 0-.813-1.112-.813-1.316v-3.347h1.686v-.347H2.008v-2.2h-.263C1.733-6.228 1.303-5.08.215-5.044v.239h1.016v3.324C1.231-.155 2.116.12 2.75.12c.753 0 1.147-.742 1.147-1.602"/><path id="r" d="M6.229 0v-.347c-.813 0-.909-.083-.909-.67v-4.255l-1.686.131v.347c.813 0 .909.084.909.67v2.14c0 1.016-.538 1.864-1.435 1.864-.98 0-1.04-.561-1.04-1.195v-3.957l-1.685.131v.347c.908 0 .908.036.908 1.1v1.793c0 .741 0 1.172.359 1.566.287.311.777.455 1.387.455.203 0 .585 0 .992-.347.347-.275.538-.73.538-.73V.12z"/><path id="g" d="M5.954-4.806v-.347c-.347.024-.514.024-.897.024l-.968-.024v.347c.442.024.55.299.55.514a.7.7 0 0 1-.072.287L3.347-.992 2.02-4.244c-.071-.167-.071-.251-.071-.251 0-.311.418-.311.657-.311v-.347c-.31.024-.896.024-1.231.024l-1.16-.024v.347c.694 0 .79.06.945.43L2.94 0c-.526 1.267-.526 1.291-.574 1.387-.203.358-.526.813-1.064.813-.37 0-.598-.215-.598-.215s.419-.048.419-.467a.433.433 0 0 0-.443-.442c-.203 0-.454.12-.454.466 0 .455.442.897 1.076.897.67 0 1.16-.586 1.47-1.34l2.069-5.092c.323-.801.885-.813 1.112-.813"/><path id="C" d="M5.27-.97v-.612h-.274v.611c0 .633-.272.698-.392.698-.36 0-.404-.49-.404-.545V-3c0-.458 0-.884-.393-1.287-.425-.426-.97-.6-1.494-.6-.895 0-1.648.512-1.648 1.232 0 .328.219.513.502.513a.48.48 0 0 0 .502-.502c0-.13-.054-.49-.556-.501.294-.382.829-.502 1.178-.502.534 0 1.156.425 1.156 1.396v.404c-.556.032-1.32.065-2.007.392-.818.371-1.09.939-1.09 1.419C.35-.153 1.406.12 2.094.12c.72 0 1.221-.436 1.429-.95.043.437.338.895.85.895.23 0 .895-.152.895-1.036m-1.823-.557c0 1.036-.785 1.407-1.276 1.407-.535 0-.982-.382-.982-.927 0-.6.458-1.506 2.258-1.571z"/><path id="E" d="M4.527-1.298c0-.11-.087-.131-.142-.131-.098 0-.12.065-.141.153C3.862-.153 2.88-.153 2.77-.153c-.546 0-.982-.327-1.233-.73-.327-.524-.327-1.244-.327-1.637h3.044c.24 0 .272 0 .272-.23 0-1.08-.589-2.137-1.952-2.137-1.266 0-2.27 1.123-2.27 2.487 0 1.462 1.146 2.52 2.4 2.52 1.331 0 1.822-1.21 1.822-1.418m-.72-1.451H1.222c.065-1.626.982-1.898 1.353-1.898 1.123 0 1.232 1.472 1.232 1.898"/><path id="w" d="M5.29-4.407a.534.534 0 0 0-.555-.535c-.219 0-.699.066-1.157.513a1.82 1.82 0 0 0-1.156-.393c-1.015 0-1.767.753-1.767 1.593 0 .48.24.894.512 1.124A1.5 1.5 0 0 0 .83-1.2c0 .338.142.753.48.97C.655-.043.305.426.305.863c0 .785 1.08 1.385 2.411 1.385 1.288 0 2.422-.556 2.422-1.407 0-.382-.153-.938-.709-1.244-.578-.305-1.21-.305-1.876-.305-.273 0-.742 0-.818-.011-.35-.044-.579-.382-.579-.73 0-.045 0-.295.186-.514.425.306.873.339 1.08.339 1.014 0 1.767-.753 1.767-1.593 0-.404-.174-.807-.447-1.058.393-.371.785-.426.982-.426 0 0 .076 0 .109.011-.12.044-.175.164-.175.295a.31.31 0 0 0 .317.316c.109 0 .316-.076.316-.327M3.37-3.23c0 .294-.01.644-.174.916-.087.131-.338.437-.774.437-.95 0-.95-1.091-.95-1.342 0-.295.012-.644.175-.917.088-.13.338-.436.775-.436.949 0 .949 1.091.949 1.342M4.57.86c0 .59-.774 1.135-1.843 1.135C1.625 1.996.873 1.44.873.862c0-.502.414-.906.894-.938h.644c.938 0 2.16 0 2.16.938"/><path id="u" d="M7.81 0v-.338h-.26c-.84 0-.863-.12-.863-.513V-6.6c0-.393.022-.513.862-.513h.262v-.338c-.382.033-1.19.033-1.604.033s-1.232 0-1.614-.033v.338h.262c.84 0 .861.12.861.513v2.553H2.455V-6.6c0-.393.021-.513.861-.513h.262v-.338c-.382.033-1.189.033-1.603.033s-1.233 0-1.615-.033v.338h.262c.84 0 .862.12.862.513v5.75c0 .392-.022.512-.862.512H.36V0c.382-.033 1.19-.033 1.604-.033s1.232 0 1.614.033v-.338h-.262c-.84 0-.861-.12-.861-.513v-2.858h3.261v2.858c0 .393-.021.513-.861.513h-.262V0c.382-.033 1.189-.033 1.603-.033s1.233 0 1.615.033"/><path id="x" d="M5.836 0v-.338c-.567 0-.84 0-.85-.327V-2.75c0-.938 0-1.276-.339-1.67-.152-.185-.512-.403-1.145-.403-.917 0-1.397.655-1.571 1.047H1.92V-7.57l-1.57.12v.338c.763 0 .85.077.85.611v5.673c0 .49-.12.49-.85.49V0l1.232-.033L2.804 0v-.338c-.731 0-.851 0-.851-.491v-2.007c0-1.135.774-1.746 1.472-1.746.688 0 .808.59.808 1.211v2.542c0 .49-.12.49-.851.49V0l1.233-.033z"/><path id="v" d="M2.695 0v-.338c-.72 0-.764-.055-.764-.48v-4.004l-1.527.12v.338c.709 0 .807.066.807.6v2.935c0 .49-.12.49-.851.49V0l1.2-.033c.382 0 .764.022 1.135.033m-.6-6.59a.583.583 0 0 0-1.167 0c0 .295.25.58.577.58.371 0 .59-.306.59-.58"/><path id="O" d="M6.35-2.815h-.274c-.12 1.113-.272 2.477-2.192 2.477h-.895c-.513 0-.534-.077-.534-.437v-5.814c0-.371 0-.524 1.036-.524h.36v-.338c-.393.033-1.386.033-1.833.033-.425 0-1.276 0-1.658-.033v.338h.262c.84 0 .862.12.862.513v5.75c0 .392-.022.512-.862.512H.36V0h5.684z"/><path id="B" d="M5.138-2.335c0-1.396-1.09-2.552-2.41-2.552-1.364 0-2.423 1.189-2.423 2.552A2.435 2.435 0 0 0 2.716.12a2.43 2.43 0 0 0 2.422-2.455m-.905-.087c0 .393 0 .982-.24 1.462-.24.49-.72.807-1.266.807-.469 0-.949-.229-1.243-.73-.273-.48-.273-1.146-.273-1.539 0-.425 0-1.014.262-1.494.294-.502.807-.731 1.243-.731.48 0 .95.24 1.233.709s.284 1.102.284 1.516"/><path id="t" d="M3.61 2.618c0-.033 0-.054-.185-.24-1.363-1.374-1.712-3.436-1.712-5.105 0-1.898.414-3.797 1.756-5.16.142-.131.142-.153.142-.186 0-.076-.044-.109-.11-.109-.108 0-1.09.742-1.734 2.127-.556 1.2-.687 2.411-.687 3.328 0 .85.12 2.17.72 3.403.655 1.342 1.593 2.051 1.702 2.051.065 0 .109-.032.109-.109"/><path id="F" d="M3.153-2.727c0-.851-.12-2.171-.72-3.404C1.778-7.473.84-8.18.73-8.18c-.066 0-.11.043-.11.108 0 .033 0 .055.208.251C1.9-6.742 2.52-5.007 2.52-2.727c0 1.865-.404 3.785-1.756 5.16-.142.13-.142.152-.142.185 0 .066.043.11.109.11.109 0 1.09-.743 1.734-2.128.557-1.2.688-2.41.688-3.327"/><path id="A" d="M3.97-4.156c0-.35-.337-.666-.806-.666-.797 0-1.19.731-1.342 1.2v-1.2l-1.517.12v.338c.764 0 .851.077.851.611v2.924c0 .49-.12.49-.85.49V0l1.243-.033c.436 0 .95 0 1.386.033v-.338h-.23c-.807 0-.829-.12-.829-.513v-1.68c0-1.08.459-2.05 1.288-2.05.076 0 .098 0 .12.01a.47.47 0 0 0-.251.426c0 .305.229.469.469.469.196 0 .469-.131.469-.48"/><path id="y" d="M3.927-1.396c0-.579-.327-.906-.458-1.037-.36-.349-.785-.436-1.244-.523-.61-.12-1.341-.262-1.341-.895 0-.382.283-.829 1.221-.829 1.2 0 1.255.982 1.277 1.32.01.098.13.098.13.098.143 0 .143-.054.143-.262v-1.101c0-.186 0-.262-.12-.262-.055 0-.077 0-.219.13a1.4 1.4 0 0 1-.185.175c-.415-.305-.862-.305-1.026-.305-1.33 0-1.745.73-1.745 1.342 0 .381.175.687.47.927.348.283.654.349 1.44.502.24.043 1.134.218 1.134 1.003 0 .557-.382.993-1.233.993C1.255-.12.86-.742.655-1.67.622-1.81.61-1.854.502-1.854c-.142 0-.142.077-.142.273v1.44C.36.044.36.12.48.12.535.12.545.11.753-.098.775-.12.775-.142.97-.35c.48.458.97.469 1.2.469 1.254 0 1.756-.73 1.756-1.516"/><path id="D" d="M3.622-1.353v-.622h-.273v.6c0 .808-.327 1.222-.73 1.222-.732 0-.732-.992-.732-1.178v-3.033h1.56v-.338h-1.56v-2.007h-.272c-.011.894-.339 2.062-1.408 2.105v.24h.928v3.011C1.135-.01 2.149.12 2.542.12c.774 0 1.08-.775 1.08-1.473"/><path id="z" d="M5.836 0v-.338c-.763 0-.85-.077-.85-.611v-3.873l-1.604.12v.338c.763 0 .85.077.85.611v1.942c0 .95-.523 1.691-1.32 1.691-.916 0-.96-.513-.96-1.08v-3.622l-1.603.12v.338c.851 0 .851.033.851 1.004v1.636C1.2-.873 1.2.12 2.858.12c.611 0 1.091-.305 1.407-.982V.12z"/><path id="P" d="M7.67-4.364v-.338c-.24.022-.557.033-.797.033l-1.015-.033v.338c.393.011.633.208.633.524 0 .065 0 .087-.055.23L5.444-.819l-1.08-3.044c-.044-.13-.055-.153-.055-.207 0-.295.426-.295.644-.295v-.338l-1.135.033c-.327 0-.643-.011-.97-.033v.338c.403 0 .577.022.687.164.054.065.174.393.25.6L2.847-.96 1.811-3.873c-.055-.13-.055-.152-.055-.196 0-.295.426-.295.644-.295v-.338l-1.19.033-1.014-.033v.338c.546 0 .677.033.808.382L2.378-.12c.055.153.087.24.23.24s.163-.065.217-.218l1.102-3.087L5.04-.087c.044.12.076.207.218.207s.175-.098.218-.207l1.277-3.578c.196-.546.534-.688.916-.699"/><path id="L" d="M7.19-2.51c.185 0 .38 0 .38-.217s-.195-.218-.38-.218H1.286c-.185 0-.382 0-.382.218s.197.218.382.218z"/><path id="a" d="M9.098-2.51c-.6.46-.894.906-.982 1.048-.49.753-.578 1.44-.578 1.451 0 .131.131.131.218.131.186 0 .197-.022.24-.218.251-1.07.895-1.986 2.128-2.487.13-.044.163-.066.163-.142s-.065-.11-.087-.12c-.48-.186-1.8-.731-2.215-2.564-.032-.13-.043-.164-.229-.164-.087 0-.218 0-.218.131 0 .022.098.71.557 1.44.218.328.534.71 1.003 1.059H.993c-.197 0-.393 0-.393.218s.196.218.393.218z"/><path id="G" d="M4.822-.327c0-.338-.262-.338-.437-.338h-.992v-5.673c0-.175 0-.447-.328-.447-.207 0-.272.13-.327.261-.414.928-.982 1.048-1.189 1.07-.174.01-.404.032-.404.338 0 .272.197.327.36.327.208 0 .655-.066 1.135-.48v4.604h-.993c-.174 0-.436 0-.436.338 0 .327.273.327.436.327h2.738c.164 0 .437 0 .437-.327"/><path id="I" d="M5.542-4.375c0-.327-.262-.327-.458-.327H3.829c-.196 0-.458 0-.458.327 0 .339.25.339.458.339h.535l-.546 3.25h-.01c-.044-.283-.186-.785-.317-1.232-.196-.687-.23-.807-.611-.807-.11 0-.316 0-.436.24-.033.076-.47 1.581-.513 1.8H1.92l-.567-3.251h.534c.197 0 .458 0 .458-.328 0-.338-.25-.338-.458-.338H.633c-.197 0-.458 0-.458.327 0 .339.229.339.556.339l.654 3.665c.044.251.077.415.513.415s.47-.099.666-.764c.272-.96.283-1.113.316-1.353h.01c.055.568.46 1.844.503 1.931.13.186.327.186.458.186.404 0 .436-.175.48-.415l.654-3.665c.328 0 .557 0 .557-.339"/><path id="m" d="M5.41-.327c0-.338-.283-.338-.446-.338h-.437L3.131-2.422l1.244-1.614h.436c.153 0 .447 0 .447-.328 0-.338-.283-.338-.447-.338H3.535c-.164 0-.437 0-.437.327 0 .339.24.339.535.339l-.808 1.101-.829-1.101c.284 0 .524 0 .524-.339 0-.327-.273-.327-.436-.327H.807c-.163 0-.447 0-.447.338 0 .328.295.328.447.328h.437L2.53-2.422 1.178-.665H.742c-.164 0-.447 0-.447.338C.295 0 .589 0 .742 0h1.276c.164 0 .437 0 .437-.327 0-.338-.23-.338-.568-.338l.938-1.342.971 1.342c-.305 0-.545 0-.545.338 0 .327.273.327.436.327h1.277c.152 0 .447 0 .447-.327"/><path id="n" d="M5.455-4.364c0-.338-.262-.338-.437-.338H3.742c-.164 0-.437 0-.437.327 0 .339.262.339.437.339h.305l-.785 2.323c-.142.404-.207.6-.284.938h-.01c-.055-.207-.153-.436-.23-.643L1.724-4.036h.272c.164 0 .437 0 .437-.328 0-.338-.262-.338-.437-.338H.72c-.175 0-.436 0-.436.338 0 .328.272.328.436.328h.338l1.55 3.894c.043.11.043.142.043.142s-.273.916-.415 1.19c-.316.6-.709.62-.872.632 0 0 .054-.098.054-.24a.453.453 0 0 0-.469-.47c-.294 0-.48.197-.48.48a.9.9 0 0 0 .906.895c1.09 0 1.581-1.44 1.625-1.56l1.69-4.963h.328c.164 0 .437 0 .437-.328"/><path id="o" d="M5.182-.447v-.633c0-.207 0-.447-.371-.447-.382 0-.382.229-.382.447v.415H1.495l3.403-3.23c.23-.218.24-.25.24-.436 0-.37-.24-.37-.447-.37H.98c-.36 0-.446.086-.446.446v.502c0 .208 0 .448.37.448.382 0 .382-.23.382-.448v-.283h2.717L.6-.807c-.23.218-.24.25-.24.436C.36 0 .6 0 .807 0h4.135c.24-.065.24-.284.24-.447"/><path id="H" d="M5.17-3.327c0-2.03-1.112-3.458-2.312-3.458-1.222 0-2.313 1.461-2.313 3.447C.545-1.31 1.658.12 2.858.12c1.222 0 2.313-1.462 2.313-3.447m-.752-.12c0 1.614-.709 2.902-1.56 2.902s-1.56-1.288-1.56-2.902c0-1.593.753-2.673 1.56-2.673.797 0 1.56 1.07 1.56 2.673"/><use xlink:href="#a" id="p" transform="scale(1.0959)"/></defs><g stroke="none" stroke-miterlimit="10" stroke-width=".4"><g transform="matrix(1 0 0 1 -73.7 2.89)"><use xlink:href="#b" x="35.119" y="-49.454"/><use xlink:href="#c" x="43.404" y="-49.454"/><use xlink:href="#d" x="46.656" y="-49.454"/><use xlink:href="#e" x="53.16" y="-49.454"/><use xlink:href="#f" x="59.018" y="-49.454"/><use xlink:href="#g" x="63.573" y="-49.454"/><use xlink:href="#f" x="73.738" y="-49.454"/><use xlink:href="#h" x="78.293" y="-49.454"/><use xlink:href="#i" x="83.494" y="-49.454"/><use xlink:href="#f" x="89.997" y="-49.454"/><use xlink:href="#h" x="94.552" y="-49.454"/><use xlink:href="#j" x="99.753" y="-49.454"/><use xlink:href="#h" x="104.367" y="-49.454"/><use xlink:href="#d" x="109.568" y="-49.454"/><use xlink:href="#k" x="115.749" y="-49.454"/><use xlink:href="#e" x="120.304" y="-49.454"/><use xlink:href="#k" x="126.162" y="-49.454"/><use xlink:href="#c" x="130.717" y="-49.454"/><use xlink:href="#l" x="133.968" y="-49.454"/><use xlink:href="#d" x="139.826" y="-49.454"/></g><g transform="matrix(1 0 0 1 -73.7 31.056)"><use xlink:href="#m" x="60.835" y="-49.454"/><use xlink:href="#m" x="66.563" y="-49.454"/><use xlink:href="#m" x="72.29" y="-49.454"/><use xlink:href="#m" x="78.017" y="-49.454"/><use xlink:href="#m" x="87.729" y="-49.454"/><use xlink:href="#m" x="93.456" y="-49.454"/><use xlink:href="#m" x="99.184" y="-49.454"/><use xlink:href="#m" x="104.911" y="-49.454"/><use xlink:href="#m" x="114.623" y="-49.454"/><use xlink:href="#m" x="120.35" y="-49.454"/><use xlink:href="#m" x="126.077" y="-49.454"/><use xlink:href="#m" x="131.805" y="-49.454"/><use xlink:href="#m" x="141.516" y="-49.454"/><use xlink:href="#m" x="147.244" y="-49.454"/><use xlink:href="#m" x="152.971" y="-49.454"/><use xlink:href="#m" x="158.698" y="-49.454"/></g><g transform="matrix(1 0 0 1 -73.7 59.403)"><use xlink:href="#m" x="24.23" y="-49.454"/><use xlink:href="#m" x="33.942" y="-49.454"/><use xlink:href="#m" x="39.669" y="-49.454"/><use xlink:href="#m" x="45.396" y="-49.454"/><use xlink:href="#m" x="51.123" y="-49.454"/><use xlink:href="#n" x="60.835" y="-49.454"/><use xlink:href="#n" x="66.563" y="-49.454"/><use xlink:href="#n" x="72.29" y="-49.454"/><use xlink:href="#n" x="78.017" y="-49.454"/><use xlink:href="#n" x="87.729" y="-49.454"/><use xlink:href="#n" x="93.456" y="-49.454"/><use xlink:href="#o" x="99.184" y="-49.454"/><use xlink:href="#o" x="104.911" y="-49.454"/><use xlink:href="#o" x="114.623" y="-49.454"/><use xlink:href="#o" x="120.35" y="-49.454"/><use xlink:href="#o" x="126.077" y="-49.454"/><use xlink:href="#o" x="131.805" y="-49.454"/><use xlink:href="#o" x="141.516" y="-49.454"/><use xlink:href="#o" x="147.244" y="-49.454"/><use xlink:href="#o" x="152.971" y="-49.454"/><use xlink:href="#o" x="158.698" y="-49.454"/></g><use xlink:href="#p" x="17.024" y="-49.454" transform="matrix(1 0 0 1 84.731 31.236)"/><use xlink:href="#p" x="17.024" y="-49.454" transform="matrix(1 0 0 1 84.731 59.582)"/><g transform="matrix(1 0 0 1 104.882 2.863)"><use xlink:href="#b" x="85.501" y="-49.454"/><use xlink:href="#g" x="93.786" y="-49.454"/><use xlink:href="#k" x="99.966" y="-49.454"/><use xlink:href="#h" x="104.521" y="-49.454"/><use xlink:href="#j" x="113.706" y="-49.454"/><use xlink:href="#h" x="118.321" y="-49.454"/><use xlink:href="#q" x="123.522" y="-49.454"/><use xlink:href="#r" x="129.702" y="-49.454"/><use xlink:href="#h" x="136.206" y="-49.454"/><use xlink:href="#d" x="141.407" y="-49.454"/><use xlink:href="#s" x="147.91" y="-49.454"/><use xlink:href="#h" x="153.111" y="-49.454"/></g><g transform="matrix(1 0 0 1 104.882 31.056)"><use xlink:href="#m" x="17.024" y="-49.454"/><use xlink:href="#m" x="22.751" y="-49.454"/><use xlink:href="#m" x="28.479" y="-49.454"/><use xlink:href="#m" x="34.206" y="-49.454"/><use xlink:href="#m" x="43.918" y="-49.454"/><use xlink:href="#m" x="49.645" y="-49.454"/><use xlink:href="#m" x="55.372" y="-49.454"/><use xlink:href="#m" x="61.1" y="-49.454"/><use xlink:href="#m" x="70.811" y="-49.454"/><use xlink:href="#m" x="76.539" y="-49.454"/><use xlink:href="#m" x="82.266" y="-49.454"/><use xlink:href="#m" x="87.993" y="-49.454"/><use xlink:href="#m" x="97.705" y="-49.454"/><use xlink:href="#m" x="103.432" y="-49.454"/><use xlink:href="#m" x="109.16" y="-49.454"/><use xlink:href="#m" x="114.887" y="-49.454"/></g><g transform="matrix(1 0 0 1 104.882 60.784)"><use xlink:href="#t" x="17.024" y="-49.454"/><use xlink:href="#u" x="21.268" y="-49.454"/><use xlink:href="#v" x="29.449" y="-49.454"/><use xlink:href="#w" x="32.482" y="-49.454"/><use xlink:href="#x" x="37.937" y="-49.454"/><use xlink:href="#y" x="47.987" y="-49.454"/><use xlink:href="#z" x="52.285" y="-49.454"/><use xlink:href="#A" x="58.35" y="-49.454"/><use xlink:href="#A" x="62.627" y="-49.454"/><use xlink:href="#B" x="66.903" y="-49.454"/><use xlink:href="#w" x="72.358" y="-49.454"/><use xlink:href="#C" x="77.812" y="-49.454"/><use xlink:href="#D" x="83.267" y="-49.454"/><use xlink:href="#E" x="87.51" y="-49.454"/><use xlink:href="#F" x="92.354" y="-49.454"/><use xlink:href="#G" x="17.024" y="-35.905"/><use xlink:href="#G" x="22.751" y="-35.905"/><use xlink:href="#H" x="28.479" y="-35.905"/><use xlink:href="#G" x="34.206" y="-35.905"/><use xlink:href="#G" x="43.918" y="-35.905"/><use xlink:href="#H" x="49.645" y="-35.905"/><use xlink:href="#I" x="55.372" y="-35.905"/><use xlink:href="#I" x="61.1" y="-35.905"/><use xlink:href="#I" x="70.811" y="-35.905"/><use xlink:href="#I" x="76.539" y="-35.905"/><use xlink:href="#n" x="82.266" y="-35.905"/><use xlink:href="#n" x="87.993" y="-35.905"/><use xlink:href="#n" x="97.705" y="-35.905"/><use xlink:href="#n" x="103.432" y="-35.905"/><use xlink:href="#n" x="109.16" y="-35.905"/><use xlink:href="#n" x="114.887" y="-35.905"/><use xlink:href="#J" x="131.523" y="-35.905"/><use xlink:href="#I" x="135.766" y="-35.905"/><use xlink:href="#I" x="141.493" y="-35.905"/><use xlink:href="#I" x="147.22" y="-35.905"/><use xlink:href="#I" x="152.948" y="-35.905"/><use xlink:href="#K" x="161.705" y="-35.905"/><use xlink:href="#m" x="173.22" y="-35.905"/><use xlink:href="#m" x="178.947" y="-35.905"/><use xlink:href="#m" x="184.675" y="-35.905"/><use xlink:href="#m" x="190.402" y="-35.905"/><use xlink:href="#m" x="196.129" y="-35.905"/><use xlink:href="#L" x="204.281" y="-35.905"/><use xlink:href="#M" x="215.19" y="-35.905"/><use xlink:href="#N" x="220.644" y="-35.905"/><use xlink:href="#t" x="17.024" y="-18.37"/><use xlink:href="#O" x="21.268" y="-18.37"/><use xlink:href="#B" x="28.086" y="-18.37"/><use xlink:href="#P" x="33.235" y="-18.37"/><use xlink:href="#y" x="45.096" y="-18.37"/><use xlink:href="#z" x="49.394" y="-18.37"/><use xlink:href="#A" x="55.46" y="-18.37"/><use xlink:href="#A" x="59.736" y="-18.37"/><use xlink:href="#B" x="64.012" y="-18.37"/><use xlink:href="#w" x="69.467" y="-18.37"/><use xlink:href="#C" x="74.921" y="-18.37"/><use xlink:href="#D" x="80.376" y="-18.37"/><use xlink:href="#E" x="84.62" y="-18.37"/><use xlink:href="#F" x="89.463" y="-18.37"/><use xlink:href="#G" x="17.024" y="-3.925"/><use xlink:href="#G" x="22.751" y="-3.925"/><use xlink:href="#H" x="28.479" y="-3.925"/><use xlink:href="#G" x="34.206" y="-3.925"/><use xlink:href="#G" x="43.918" y="-3.925"/><use xlink:href="#G" x="49.645" y="-3.925"/><use xlink:href="#o" x="55.372" y="-3.925"/><use xlink:href="#o" x="61.1" y="-3.925"/><use xlink:href="#o" x="70.811" y="-3.925"/><use xlink:href="#o" x="76.539" y="-3.925"/><use xlink:href="#o" x="82.266" y="-3.925"/><use xlink:href="#o" x="87.993" y="-3.925"/><use xlink:href="#o" x="97.705" y="-3.925"/><use xlink:href="#o" x="103.432" y="-3.925"/><use xlink:href="#o" x="109.16" y="-3.925"/><use xlink:href="#o" x="114.887" y="-3.925"/></g></g></svg>