<svg xmlns="http://www.w3.org/2000/svg" xmlns:xlink="http://www.w3.org/1999/xlink" width="265.9pt" height="118.59pt" viewBox="0 0 265.9 118.59"><defs><path id="a" d="M2.99 2.99v-.443H1.83V-8.527h1.16v-.443H1.387V2.99z"/><path id="c" d="M1.854 2.99V-8.97H.25v.443h1.16V2.547H.251v.443z"/><path id="k" d="M5.358-1.985c0-1.22-.861-1.758-1.794-2.333.598-.322 1.471-.873 1.471-1.877 0-1.04-1.004-1.758-2.105-1.758-1.184 0-2.117.873-2.117 1.961 0 .407.12.813.455 1.22.131.155.143.167.98.753C1.088-3.48.49-2.679.49-1.806.49-.538 1.698.251 2.918.251c1.328 0 2.44-.98 2.44-2.236m-.813-4.198c0 .73-.526 1.315-1.22 1.698l-1.387-.909c-.156-.108-.634-.419-.634-1.005 0-.777.813-1.267 1.614-1.267.861 0 1.627.622 1.627 1.483m.263 4.58c0 .91-.921 1.531-1.878 1.531-1.016 0-1.89-.741-1.89-1.734 0-.933.682-1.686 1.46-2.045l1.447.945c.31.203.86.574.86 1.303"/><path id="h" d="M5.262-2.404c0-1.423-.956-2.607-2.212-2.607-.682 0-1.208.299-1.52.634v-2.476c.515.167.934.18 1.065.18 1.352 0 2.213-.993 2.213-1.16 0-.049-.024-.108-.096-.108 0 0-.048 0-.155.047a3.9 3.9 0 0 1-1.555.323c-.79 0-1.352-.239-1.579-.335-.083-.035-.12-.035-.12-.035-.095 0-.095.071-.095.263v3.552c0 .215 0 .287.143.287.06 0 .072-.012.192-.156.335-.49.897-.777 1.495-.777.634 0 .945.586 1.04.79.204.466.216 1.052.216 1.506s0 1.136-.335 1.675c-.263.43-.73.73-1.256.73-.79 0-1.567-.539-1.782-1.412.06.024.131.036.191.036.204 0 .527-.12.527-.526 0-.335-.228-.527-.527-.527-.215 0-.526.108-.526.574 0 1.017.813 2.177 2.14 2.177 1.352 0 2.536-1.136 2.536-2.655"/><path id="g" d="M5.526-1.997v-.347H4.318v-5.442c0-.227 0-.287-.168-.287-.096 0-.131 0-.227.144l-3.6 5.585v.347h3.145V-.91c0 .443-.024.562-.897.562h-.239V0c.275-.024 1.22-.024 1.555-.024s1.292 0 1.567.024v-.347h-.24c-.86 0-.896-.12-.896-.562v-1.088zm-1.998-.347H.622l2.906-4.51z"/><path id="m" d="M5.358-3.935c0-3.217-1.34-4.018-2.392-4.018C1.65-7.953.49-6.853.49-5.274S1.603-2.62 2.8-2.62c.885 0 1.34-.646 1.578-1.256v.395c0 2.822-1.255 3.408-1.973 3.408-.287 0-.921-.036-1.22-.454h.072c.084.024.514-.048.514-.49 0-.264-.18-.491-.49-.491s-.503.203-.503.514c0 .742.598 1.244 1.639 1.244 1.495 0 2.942-1.59 2.942-4.186M4.353-5.01c0 1.004-.454 2.153-1.507 2.153-.753 0-1.076-.61-1.184-.838-.19-.454-.19-1.028-.19-1.566 0-.67 0-1.244.31-1.735.215-.323.538-.67 1.184-.67.682 0 1.029.599 1.148.874.24.586.24 1.602.24 1.782"/><path id="d" d="M4.904 0v-.347h-.371C3.48-.347 3.444-.49 3.444-.92v-6.745c0-.275 0-.287-.239-.287-.287.323-.885.765-2.117.765v.347c.275 0 .873 0 1.531-.311v6.231c0 .43-.036.574-1.088.574h-.37V0c.322-.024 1.482-.024 1.877-.024s1.543 0 1.866.024"/><path id="l" d="M2.2-.586a.58.58 0 0 0-.573-.574.577.577 0 0 0-.586.574.58.58 0 1 0 1.16 0"/><path id="j" d="M5.681-7.427v-.275H2.799c-1.448 0-1.471-.156-1.52-.383h-.262L.646-5.693h.263c.036-.215.143-.957.299-1.088.096-.072.993-.072 1.16-.072h2.536L3.636-5.035C3.313-4.57 2.105-2.607 2.105-.36c0 .132 0 .61.49.61.503 0 .503-.466.503-.622v-.598c0-1.782.287-3.17.849-3.97z"/><path id="i" d="M5.358-2.44c0-1.59-1.112-2.655-2.308-2.655-1.065 0-1.46.921-1.579 1.256v-.323c0-3.026 1.471-3.504 2.117-3.504.43 0 .861.131 1.088.49-.143 0-.598 0-.598.49 0 .263.18.49.49.49.3 0 .503-.179.503-.526 0-.621-.454-1.231-1.495-1.231C2.069-7.953.49-6.411.49-3.78.49-.49 1.926.25 2.942.25c1.304 0 2.416-1.136 2.416-2.69m-.98-.012c0 .61 0 1.148-.228 1.603-.299.574-.73.777-1.208.777-.753 0-1.112-.67-1.22-.92-.107-.312-.227-.898-.227-1.735 0-.945.43-2.129 1.507-2.129.658 0 1.005.443 1.184.85.191.442.191 1.04.191 1.554"/><path id="f" d="M5.358-2.045c0-1.1-.885-1.962-2.033-2.165 1.04-.299 1.71-1.172 1.71-2.105 0-.945-.98-1.638-2.14-1.638-1.197 0-2.082.73-2.082 1.602 0 .479.371.574.55.574.252 0 .539-.18.539-.538 0-.383-.287-.55-.55-.55-.072 0-.096 0-.132.012.454-.813 1.579-.813 1.638-.813.395 0 1.173.179 1.173 1.351 0 .227-.036.897-.383 1.411-.359.527-.766.563-1.089.574l-.358.036c-.204.012-.252.024-.252.132 0 .12.06.12.276.12h.55c1.016 0 1.47.837 1.47 1.985 0 1.567-.812 1.985-1.399 1.985-.574 0-1.554-.275-1.901-1.064.383.06.73-.156.73-.586a.565.565 0 0 0-.587-.586c-.287 0-.598.167-.598.622C.49-.622 1.555.25 2.882.25c1.424 0 2.476-1.088 2.476-2.296"/><path id="e" d="M5.262-2.01H5c-.036.204-.131.862-.25 1.053-.085.108-.766.108-1.125.108H1.41c.323-.275 1.053-1.04 1.364-1.328 1.818-1.674 2.487-2.296 2.487-3.48 0-1.375-1.088-2.296-2.475-2.296S.586-6.77.586-5.741c0 .61.526.61.562.61.251 0 .562-.18.562-.562 0-.335-.227-.562-.562-.562-.107 0-.131 0-.167.012.227-.813.873-1.364 1.65-1.364 1.017 0 1.639.85 1.639 1.95 0 1.017-.586 1.902-1.268 2.667L.586-.287V0h4.365z"/><path id="b" d="M5.358-3.827c0-.993-.06-1.962-.49-2.87-.49-.993-1.352-1.256-1.938-1.256-.693 0-1.543.346-1.985 1.34C.61-5.86.49-5.12.49-3.828c0 1.16.084 2.033.515 2.882A2.13 2.13 0 0 0 2.918.251c1.04 0 1.639-.622 1.986-1.315.43-.897.454-2.07.454-2.763m-.909-.144c0 .802 0 1.71-.131 2.44C4.09-.215 3.337.012 2.918.012c-.382 0-1.16-.215-1.387-1.519-.132-.718-.132-1.627-.132-2.464 0-.98 0-1.865.192-2.571.203-.801.813-1.172 1.327-1.172.455 0 1.148.275 1.376 1.303.155.682.155 1.627.155 2.44"/></defs><g transform="translate(65.819 74.992)scale(1.0004)"><use xlink:href="#a" x="-49.444844" y="-50.719356"/><use xlink:href="#b" x="-46.191723" y="-50.719356"/><use xlink:href="#c" x="-40.331323" y="-50.719356"/></g><g transform="translate(97.355 74.992)scale(1.0004)"><use xlink:href="#a" x="-49.444844" y="-50.719356"/><use xlink:href="#d" x="-46.191723" y="-50.719356"/><use xlink:href="#c" x="-40.331323" y="-50.719356"/></g><g transform="translate(128.891 74.992)scale(1.0004)"><use xlink:href="#a" x="-49.444844" y="-50.719356"/><use xlink:href="#e" x="-46.191723" y="-50.719356"/><use xlink:href="#c" x="-40.331323" y="-50.719356"/></g><g transform="translate(160.427 74.992)scale(1.0004)"><use xlink:href="#a" x="-49.444844" y="-50.719356"/><use xlink:href="#f" x="-46.191723" y="-50.719356"/><use xlink:href="#c" x="-40.331323" y="-50.719356"/></g><g transform="translate(191.962 74.992)scale(1.0004)"><use xlink:href="#a" x="-49.444844" y="-50.719356"/><use xlink:href="#g" x="-46.191723" y="-50.719356"/><use xlink:href="#c" x="-40.331323" y="-50.719356"/></g><g transform="translate(223.498 74.992)scale(1.0004)"><use xlink:href="#a" x="-49.444844" y="-50.719356"/><use xlink:href="#h" x="-46.191723" y="-50.719356"/><use xlink:href="#c" x="-40.331323" y="-50.719356"/></g><g transform="translate(255.034 74.992)scale(1.0004)"><use xlink:href="#a" x="-49.444844" y="-50.719356"/><use xlink:href="#i" x="-46.191723" y="-50.719356"/><use xlink:href="#c" x="-40.331323" y="-50.719356"/></g><g transform="translate(286.57 74.992)scale(1.0004)"><use xlink:href="#a" x="-49.444844" y="-50.719356"/><use xlink:href="#j" x="-46.191723" y="-50.719356"/><use xlink:href="#c" x="-40.331323" y="-50.719356"/></g><path fill="none" stroke="#000" stroke-miterlimit="10" stroke-width=".3985" d="M11.537 34.06h22.075v72.993H11.537Z"/><use xlink:href="#b" x="-49.444844" y="-50.719356" transform="translate(69.071 98.53)scale(1.0004)"/><use xlink:href="#k" x="-49.444844" y="-50.719356" transform="translate(69.071 115.538)scale(1.0004)"/><g transform="translate(66.142 132.546)scale(1.0004)"><use xlink:href="#d" x="-49.444844" y="-50.719356"/><use xlink:href="#i" x="-43.584442" y="-50.719356"/></g><g transform="translate(70.374 150.424)scale(1.0004)"><use xlink:href="#l" x="-49.444844" y="-58.692556"/><use xlink:href="#l" x="-49.444844" y="-54.705956"/><use xlink:href="#l" x="-49.444844" y="-50.719355"/></g><path fill="none" stroke="#000" stroke-miterlimit="10" stroke-width=".3985" d="M43.073 34.06h22.075v72.993H43.073Z"/><use xlink:href="#d" x="-49.444844" y="-50.719356" transform="translate(100.607 98.656)scale(1.0004)"/><use xlink:href="#m" x="-49.444844" y="-50.719356" transform="translate(100.607 115.538)scale(1.0004)"/><g transform="translate(97.678 132.612)scale(1.0004)"><use xlink:href="#d" x="-49.444844" y="-50.719356"/><use xlink:href="#j" x="-43.584442" y="-50.719356"/></g><g transform="translate(101.91 150.424)scale(1.0004)"><use xlink:href="#l" x="-49.444844" y="-58.692556"/><use xlink:href="#l" x="-49.444844" y="-54.705956"/><use xlink:href="#l" x="-49.444844" y="-50.719355"/></g><path fill="none" stroke="#000" stroke-miterlimit="10" stroke-width=".3985" d="M74.609 34.06h22.075v72.993H74.609Z"/><use xlink:href="#e" x="-49.444844" y="-50.719356" transform="translate(132.143 98.656)scale(1.0004)"/><g transform="translate(129.214 115.538)scale(1.0004)"><use xlink:href="#d" x="-49.444844" y="-50.719356"/><use xlink:href="#b" x="-43.584442" y="-50.719356"/></g><g transform="translate(129.214 132.546)scale(1.0004)"><use xlink:href="#d" x="-49.444844" y="-50.719356"/><use xlink:href="#k" x="-43.584442" y="-50.719356"/></g><g transform="translate(133.446 150.424)scale(1.0004)"><use xlink:href="#l" x="-49.444844" y="-58.692556"/><use xlink:href="#l" x="-49.444844" y="-54.705956"/><use xlink:href="#l" x="-49.444844" y="-50.719355"/></g><path fill="none" stroke="#000" stroke-miterlimit="10" stroke-width=".3985" d="M106.145 34.06h22.075v72.993h-22.075Z"/><use xlink:href="#f" x="-49.444844" y="-50.719356" transform="translate(163.678 98.53)scale(1.0004)"/><g transform="translate(160.749 115.664)scale(1.0004)"><use xlink:href="#d" x="-49.444844" y="-50.719356"/><use xlink:href="#d" x="-43.584442" y="-50.719356"/></g><g transform="translate(160.749 132.546)scale(1.0004)"><use xlink:href="#d" x="-49.444844" y="-50.719356"/><use xlink:href="#m" x="-43.584442" y="-50.719356"/></g><g transform="translate(164.982 150.424)scale(1.0004)"><use xlink:href="#l" x="-49.444844" y="-58.692556"/><use xlink:href="#l" x="-49.444844" y="-54.705956"/><use xlink:href="#l" x="-49.444844" y="-50.719355"/></g><path fill="none" stroke="#000" stroke-miterlimit="10" stroke-width=".3985" d="M137.68 34.06h22.076v72.993H137.68Z"/><use xlink:href="#g" x="-49.444844" y="-50.719356" transform="translate(195.214 98.715)scale(1.0004)"/><g transform="translate(192.285 115.664)scale(1.0004)"><use xlink:href="#d" x="-49.444844" y="-50.719356"/><use xlink:href="#e" x="-43.584442" y="-50.719356"/></g><g transform="translate(192.285 132.546)scale(1.0004)"><use xlink:href="#e" x="-49.444844" y="-50.719356"/><use xlink:href="#b" x="-43.584442" y="-50.719356"/></g><g transform="translate(196.517 150.424)scale(1.0004)"><use xlink:href="#l" x="-49.444844" y="-58.692556"/><use xlink:href="#l" x="-49.444844" y="-54.705956"/><use xlink:href="#l" x="-49.444844" y="-50.719355"/></g><path fill="none" stroke="#000" stroke-miterlimit="10" stroke-width=".3985" d="M169.216 34.06h22.075v72.993h-22.075Z"/><use xlink:href="#h" x="-49.444844" y="-50.719356" transform="translate(226.75 98.524)scale(1.0004)"/><g transform="translate(223.821 115.538)scale(1.0004)"><use xlink:href="#d" x="-49.444844" y="-50.719356"/><use xlink:href="#f" x="-43.584442" y="-50.719356"/></g><g transform="translate(223.821 132.672)scale(1.0004)"><use xlink:href="#e" x="-49.444844" y="-50.719356"/><use xlink:href="#d" x="-43.584442" y="-50.719356"/></g><g transform="translate(228.053 150.424)scale(1.0004)"><use xlink:href="#l" x="-49.444844" y="-58.692556"/><use xlink:href="#l" x="-49.444844" y="-54.705956"/><use xlink:href="#l" x="-49.444844" y="-50.719355"/></g><path fill="none" stroke="#000" stroke-miterlimit="10" stroke-width=".3985" d="M200.752 34.06h22.075v72.993h-22.075Z"/><use xlink:href="#i" x="-49.444844" y="-50.719356" transform="translate(258.286 98.53)scale(1.0004)"/><g transform="translate(255.357 115.723)scale(1.0004)"><use xlink:href="#d" x="-49.444844" y="-50.719356"/><use xlink:href="#g" x="-43.584442" y="-50.719356"/></g><g transform="translate(255.357 132.672)scale(1.0004)"><use xlink:href="#e" x="-49.444844" y="-50.719356"/><use xlink:href="#e" x="-43.584442" y="-50.719356"/></g><g transform="translate(259.589 150.424)scale(1.0004)"><use xlink:href="#l" x="-49.444844" y="-58.692556"/><use xlink:href="#l" x="-49.444844" y="-54.705956"/><use xlink:href="#l" x="-49.444844" y="-50.719355"/></g><path fill="none" stroke="#000" stroke-miterlimit="10" stroke-width=".3985" d="M232.288 34.06h22.075v72.993h-22.075Z"/><use xlink:href="#j" x="-49.444844" y="-50.719356" transform="translate(289.822 98.596)scale(1.0004)"/><g transform="translate(286.893 115.538)scale(1.0004)"><use xlink:href="#d" x="-49.444844" y="-50.719356"/><use xlink:href="#h" x="-43.584442" y="-50.719356"/></g><g transform="translate(286.893 132.546)scale(1.0004)"><use xlink:href="#e" x="-49.444844" y="-50.719356"/><use xlink:href="#f" x="-43.584442" y="-50.719356"/></g><g transform="translate(291.125 150.424)scale(1.0004)"><use xlink:href="#l" x="-49.444844" y="-58.692556"/><use xlink:href="#l" x="-49.444844" y="-54.705956"/><use xlink:href="#l" x="-49.444844" y="-50.719355"/></g></svg>