<svg xmlns="http://www.w3.org/2000/svg" xmlns:xlink="http://www.w3.org/1999/xlink" width="131.74pt" height="231.78pt" viewBox="0 0 131.74 231.78"><defs><path id="b" d="M4.808 1.555c.203 0 .419 0 .419-.24 0-.035 0-.06-.048-.19a7 7 0 0 1-.287-1.962h.598C5.526.215 6.83.263 7.044.263c1.46 0 1.603-1.913 1.603-2.69 0-1.4-.813-2.357-2.165-3.553-.909-.813-1.315-1.83-1.614-2.56-.024-.095-.12-.155-.216-.155-.167 0-.215.132-.239.203-.215.55-.67 1.687-1.578 2.488C1.435-4.76.658-3.79.658-2.428.658-1.53.849.263 2.26.263c.371 0 1.52-.12 1.555-1.1h.598a7.3 7.3 0 0 1-.299 2.01c-.036.095-.036.119-.036.143 0 .239.216.239.419.239z"/><path id="c" d="M5.262-2.404c0-1.423-.956-2.607-2.212-2.607-.682 0-1.208.299-1.52.634v-2.476c.515.167.934.18 1.065.18 1.352 0 2.213-.993 2.213-1.16 0-.049-.024-.108-.096-.108 0 0-.048 0-.155.047a3.9 3.9 0 0 1-1.555.323c-.79 0-1.352-.239-1.579-.335-.083-.035-.12-.035-.12-.035-.095 0-.095.071-.095.263v3.552c0 .215 0 .287.143.287.06 0 .072-.012.192-.156.335-.49.897-.777 1.495-.777.634 0 .945.586 1.04.79.204.466.216 1.052.216 1.506s0 1.136-.335 1.675c-.263.43-.73.73-1.256.73-.79 0-1.567-.539-1.782-1.412.06.024.131.036.191.036.204 0 .527-.12.527-.526 0-.335-.228-.527-.527-.527-.215 0-.526.108-.526.574 0 1.017.813 2.177 2.14 2.177 1.352 0 2.536-1.136 2.536-2.655"/><path id="d" d="M5.526-1.997v-.347H4.318v-5.442c0-.227 0-.287-.168-.287-.096 0-.131 0-.227.144l-3.6 5.585v.347h3.145V-.91c0 .443-.024.562-.897.562h-.239V0c.275-.024 1.22-.024 1.555-.024s1.292 0 1.567.024v-.347h-.24c-.86 0-.896-.12-.896-.562v-1.088zm-1.998-.347H.622l2.906-4.51z"/><path id="a" d="M5.262-2.01H5c-.036.204-.131.862-.25 1.053-.085.108-.766.108-1.125.108H1.41c.323-.275 1.053-1.04 1.364-1.328 1.818-1.674 2.487-2.296 2.487-3.48 0-1.375-1.088-2.296-2.475-2.296S.586-6.77.586-5.741c0 .61.526.61.562.61.251 0 .562-.18.562-.562 0-.335-.227-.562-.562-.562-.107 0-.131 0-.167.012.227-.813.873-1.364 1.65-1.364 1.017 0 1.639.85 1.639 1.95 0 1.017-.586 1.902-1.268 2.667L.586-.287V0h4.365z"/></defs><path fill="#fff" d="M15.323 51.227H43.67V11.541H15.323Z"/><path fill="none" stroke="#000" stroke-miterlimit="10" stroke-width=".3985" d="M15.323 51.227H43.67V11.541H15.323Z"/><g transform="translate(72 44.666)scale(1.0004)"><use xlink:href="#a" x="-52.540086" y="-20.785342"/><use xlink:href="#b" x="-54.260781" y="-6.333542"/></g><path fill="#fff" d="M77.686 51.227h28.347V11.541H77.686Z"/><path fill="none" stroke="#000" stroke-miterlimit="10" stroke-width=".3985" d="M77.686 51.227h28.347V11.541H77.686Z"/><g transform="translate(134.363 44.66)scale(1.0004)"><use xlink:href="#c" x="-52.540086" y="-20.785342"/><use xlink:href="#b" x="-54.260781" y="-6.333542"/></g><path fill="#fff" d="M91.86 51.227h28.346V11.541H91.86Z"/><path fill="none" stroke="#000" stroke-miterlimit="10" stroke-width=".3985" d="M91.86 51.227h28.346V11.541H91.86Z"/><g transform="translate(148.536 44.726)scale(1.0004)"><use xlink:href="#d" x="-52.540086" y="-20.785342"/><use xlink:href="#b" x="-54.260781" y="-6.333542"/></g><path fill="#fff" d="M15.323 107.566H43.67V67.881H15.323Z"/><path fill="none" stroke="#000" stroke-miterlimit="10" stroke-width=".3985" d="M15.323 107.566H43.67V67.881H15.323Z"/><g transform="translate(72 101.006)scale(1.0004)"><use xlink:href="#a" x="-52.540086" y="-20.785342"/><use xlink:href="#b" x="-54.260781" y="-6.333542"/></g><path fill="#fff" d="M29.496 107.566h28.347V67.881H29.496Z"/><path fill="none" stroke="#000" stroke-miterlimit="10" stroke-width=".3985" d="M29.496 107.566h28.347V67.881H29.496Z"/><g transform="translate(86.173 101)scale(1.0004)"><use xlink:href="#c" x="-52.540086" y="-20.785342"/><use xlink:href="#b" x="-54.260781" y="-6.333542"/></g><path fill="#fff" d="M77.686 107.566h28.347V67.881H77.686Z"/><path fill="none" stroke="#9f9f9f" stroke-miterlimit="10" stroke-width=".3985" d="M77.686 107.566h28.347V67.881H77.686Z"/><g fill="#9f9f9f" transform="translate(134.363 101)scale(1.0004)"><use xlink:href="#c" x="-52.540086" y="-20.785342"/><use xlink:href="#b" x="-54.260781" y="-6.333542"/></g><path fill="#fff" d="M91.86 107.566h28.346V67.881H91.86Z"/><path fill="none" stroke="#000" stroke-miterlimit="10" stroke-width=".3985" d="M91.86 107.566h28.346V67.881H91.86Z"/><g transform="translate(148.536 101.065)scale(1.0004)"><use xlink:href="#d" x="-52.540086" y="-20.785342"/><use xlink:href="#b" x="-54.260781" y="-6.333542"/></g><path fill="none" stroke="#000" stroke-miterlimit="10" stroke-width=".3985" d="M53.351 63.869c5.423-5.423 21.278-5.423 29.296 2.594"/><path d="m51.158 66.062 4.348-1.97-2.225-.153-.153-2.225Z"/><path fill="none" stroke="#000" stroke-miterlimit="10" stroke-width=".398496" d="m51.158 66.062 4.348-1.97-2.225-.153-.153-2.225Z"/><path fill="#fff" d="M15.323 163.906H43.67V124.22H15.323Z"/><path fill="none" stroke="#000" stroke-miterlimit="10" stroke-width=".3985" d="M15.323 163.906H43.67V124.22H15.323Z"/><g transform="translate(72 157.345)scale(1.0004)"><use xlink:href="#a" x="-52.540086" y="-20.785342"/><use xlink:href="#b" x="-54.260781" y="-6.333542"/></g><path fill="#fff" d="M29.496 163.906h28.347V124.22H29.496Z"/><path fill="none" stroke="#000" stroke-miterlimit="10" stroke-width=".3985" d="M29.496 163.906h28.347V124.22H29.496Z"/><g transform="translate(86.173 157.339)scale(1.0004)"><use xlink:href="#c" x="-52.540086" y="-20.785342"/><use xlink:href="#b" x="-54.260781" y="-6.333542"/></g><path fill="#fff" d="M43.67 163.906h28.347V124.22H43.67Z"/><path fill="none" stroke="#000" stroke-miterlimit="10" stroke-width=".3985" d="M43.67 163.906h28.347V124.22H43.67Z"/><g transform="translate(100.347 157.405)scale(1.0004)"><use xlink:href="#d" x="-52.540086" y="-20.785342"/><use xlink:href="#b" x="-54.260781" y="-6.333542"/></g><path fill="#fff" d="M91.86 163.906h28.346V124.22H91.86Z"/><path fill="none" stroke="#9f9f9f" stroke-miterlimit="10" stroke-width=".3985" d="M91.86 163.906h28.346V124.22H91.86Z"/><g fill="#9f9f9f" transform="translate(148.536 157.405)scale(1.0004)"><use xlink:href="#d" x="-52.540086" y="-20.785342"/><use xlink:href="#b" x="-54.260781" y="-6.333542"/></g><path fill="none" stroke="#000" stroke-miterlimit="10" stroke-width=".3985" d="M67.524 120.208c5.424-5.423 21.278-5.423 29.296 2.595"/><path d="m65.331 122.401 4.349-1.97-2.226-.152-.153-2.226Z"/><path fill="none" stroke="#000" stroke-miterlimit="10" stroke-width=".398496" d="m65.331 122.401 4.349-1.97-2.226-.152-.153-2.226Z"/><path fill="#fff" d="M15.323 220.245H43.67v-39.686H15.323Z"/><path fill="none" stroke="#000" stroke-miterlimit="10" stroke-width=".3985" d="M15.323 220.245H43.67v-39.686H15.323Z"/><g transform="translate(72 213.684)scale(1.0004)"><use xlink:href="#a" x="-52.540086" y="-20.785342"/><use xlink:href="#b" x="-54.260781" y="-6.333542"/></g><path fill="#fff" d="M29.496 220.245h28.347v-39.686H29.496Z"/><path fill="none" stroke="#000" stroke-miterlimit="10" stroke-width=".3985" d="M29.496 220.245h28.347v-39.686H29.496Z"/><g transform="translate(86.173 213.744)scale(1.0004)"><use xlink:href="#d" x="-52.540086" y="-20.785342"/><use xlink:href="#b" x="-54.260781" y="-6.333542"/></g><path fill="#fff" d="M43.67 220.245h28.347v-39.686H43.67Z"/><path fill="none" stroke="#000" stroke-miterlimit="10" stroke-width=".3985" d="M43.67 220.245h28.347v-39.686H43.67Z"/><g transform="translate(100.347 213.678)scale(1.0004)"><use xlink:href="#c" x="-52.540086" y="-20.785342"/><use xlink:href="#b" x="-54.260781" y="-6.333542"/></g><path fill="none" stroke="#000" stroke-miterlimit="10" stroke-width=".3985" d="M37.533 175.598c1.618-6.04 8.53-6.04 11.097 3.544"/><path d="m36.73 178.594 2.78-3.88-2.003.98-1.245-1.851Z"/><path fill="none" stroke="#000" stroke-miterlimit="10" stroke-width=".398499" d="m36.73 178.594 2.78-3.88-2.003.98-1.245-1.851Z"/></svg>