<svg xmlns="http://www.w3.org/2000/svg" xmlns:xlink="http://www.w3.org/1999/xlink" width="281.98pt" height="69.85pt" viewBox="0 0 281.98 69.85"><defs><path id="d" d="M6.957 1.552q-1.118 0-2.034-.326T3.345.3q-.659-.594-1.017-1.418t-.359-1.82q0-.787.23-1.477-.422-1.263-.422-2.403 0-1.006.283-1.616t.803-.61q.31 0 .701.24.396.242.819.664.428.423.83.969.406-.118.845-.171.439-.06.899-.06t.9.06q.438.053.845.17.401-.545.824-.968.428-.422.824-.663t.701-.241q.52 0 .803.61t.283 1.616q0 1.14-.422 2.403.23.69.23 1.477 0 .995-.359 1.82T10.564.3q-.658.6-1.573.926t-2.034.326M1.67.235l-.332-.278q.246-.273.594-.481t.738-.327q.396-.123.766-.123v.428q-.316 0-.648.102-.326.101-.62.278T1.67.235m-.626-1.44-.15-.4q.348-.14.76-.215.412-.08.786-.08.198 0 .375.027.177.021.316.064l-.113.396q-.117-.032-.257-.048t-.294-.016q-.342 0-.728.075-.38.07-.695.198m1.82-1.08q-.376-.155-.884-.236T.856-2.606v-.428q.664.005 1.22.096t.969.268zm1.658-.043q-.273 0-.466-.235t-.192-.573.192-.573.466-.235.466.235.192.573-.192.573-.466.235M6.17-.578q-.278 0-.54-.107-.257-.112-.444-.294l.305-.3q.139.134.315.203.182.07.364.07.316 0 .46-.155.15-.155.15-.482h.354q0 .327.15.482t.46.155q.182 0 .364-.07t.315-.203l.305.3q-.187.182-.45.294-.256.107-.534.107-.487 0-.787-.342-.3.342-.787.342m.787-.883q-.187 0-.38-.107-.187-.112-.316-.268-.123-.16-.123-.305 0-.187.22-.294t.599-.107.6.107.219.294q0 .145-.129.305-.123.156-.31.268-.187.107-.38.107m-3.816-3.8q-.128-.331-.192-.78-.065-.456-.065-.846 0-.338.049-.562.048-.23.144-.23.091 0 .29.187.202.182.46.487.256.3.502.647-.3.166-.626.482t-.562.615m3.816 6.385q1.375 0 2.398-.514 1.027-.514 1.594-1.429t.568-2.119q0-.797-.252-1.477.155-.439.252-.84t.144-.787q.048-.39.048-.776 0-.813-.187-1.306-.182-.492-.471-.492-.24 0-.615.262-.37.257-.782.696-.406.439-.781.985-.439-.15-.92-.225-.477-.075-.996-.075t-1 .075q-.477.075-.916.225-.37-.546-.787-.985-.412-.439-.78-.696-.365-.262-.61-.262-.29 0-.477.492-.182.493-.182 1.306 0 .385.048.776.048.385.144.787.102.401.252.84-.252.68-.252 1.477 0 1.204.568 2.12T4.555.61q1.027.514 2.402.514m5.287-.889q-.203-.224-.497-.4t-.626-.28q-.327-.1-.643-.1v-.429q.375 0 .766.123.39.118.738.327.353.208.594.481zM6.245-5.389q-.192 0-.428-.31T5.33-6.845l1.376-.208q.01.128.01.251.006.123.006.236 0 .53-.129.856-.123.321-.348.321m3.147 3.061q-.273 0-.466-.235t-.192-.573.192-.573.466-.235.466.235.192.573-.192.573-.466.235m3.479 1.124q-.31-.129-.696-.198-.38-.075-.728-.075-.155 0-.294.016t-.257.048l-.113-.396q.14-.043.316-.064.177-.027.375-.027.374 0 .786.08.412.075.76.215zM7.669-5.39q-.225 0-.353-.321-.123-.327-.123-.856v-.236q.005-.123.016-.251l1.375.208q-.252.835-.487 1.146t-.428.31m3.382 3.104-.182-.385q.412-.177.969-.268t1.22-.096v.428q-.616.005-1.124.085-.503.08-.883.236m-.278-2.976q-.236-.3-.562-.615t-.626-.482q.246-.348.503-.647.257-.305.46-.487.203-.187.289-.187.096 0 .144.23.049.224.049.562 0 .39-.065.845-.064.45-.192.781"/><path id="b" d="M6.957 1.552q-1.081 0-1.964-.401Q4.11.755 3.473.01 2.842-.733 2.5-1.766q-.337-1.033-.337-2.301 0-1.595.557-2.703.556-1.113 1.626-1.69 1.07-.584 2.612-.584t2.612.583q1.07.578 1.626 1.691.557 1.108.557 2.703 0 1.268-.342 2.301-.338 1.033-.974 1.777-.632.744-1.515 1.14-.878.401-1.964.401m0-1.038q-.412 0-.589-.295-.17-.294-.17-.93l.759-.493.76.492q0 .637-.177.931-.17.295-.583.295m-.198-2.21h.396q0 .358.134.497.139.14.45.14.449 0 .738-.338l.305.3q-.177.209-.46.337-.279.129-.584.129-.246 0-.444-.097-.192-.096-.337-.262-.144.166-.342.262-.193.097-.44.097-.304 0-.588-.129-.278-.128-.455-.337l.305-.3q.29.337.739.337.31 0 .444-.139.139-.139.139-.497m-1.91-.98q-.263 0-.45-.235t-.187-.568.187-.567.45-.235.449.235.187.567-.187.568-.45.235m-2.682.027q-.861 0-1.22-1.156T.59-7.15q0-.326.23-.631.235-.31.631-.557.396-.251.9-.396.502-.15 1.038-.15.513 0 .797.129.289.123.412.412-.433.39-.642 1.814-.118.797-.3 1.504-.176.7-.412 1.236-.23.535-.503.84-.273.3-.573.3m4.79 1.108q-.316 0-.551-.188-.23-.187-.23-.412 0-.214.22-.347.224-.134.561-.134t.557.134q.224.133.224.347 0 .225-.235.412-.23.188-.546.188m0 2.665q1.322 0 2.301-.642.985-.643 1.525-1.804.54-1.166.54-2.745 0-2.216-1.118-3.382T6.957-8.616q-2.125 0-3.248 1.167Q2.59-6.283 2.59-4.067q0 1.579.54 2.745Q3.672-.16 4.65.482q.985.642 2.307.642m2.109-3.441q.38 0 .68-.316.304-.316.304-.846t-.305-.845q-.3-.316-.68-.316t-.684.316q-.3.316-.3.845t.3.846q.305.316.685.316m0-.359q-.263 0-.45-.235t-.187-.568.187-.567.45-.235.45.235.186.567-.187.568-.45.235m.048.846q-.664 0-1.081-.53-.412-.53-.412-1.488 0-.926.433-1.418t1.36-.492q.315 0 .588.214.278.208.482.546.208.337.326.727.118.386.118.744 0 .434-.177.755-.171.316-.45.524t-.593.316q-.31.102-.594.102m2.633-.819q-.3 0-.573-.3-.273-.305-.508-.84-.23-.535-.412-1.236-.177-.707-.295-1.504-.208-1.423-.642-1.814.123-.29.407-.412.289-.129.803-.129.54 0 1.038.15.503.145.899.396.396.246.626.557.235.305.235.631 0 2.19-.358 3.345t-1.22 1.156"/><path id="e" d="M8.396 0v-.347c-.777 0-.993 0-1.16-.49L4.629-8.324c-.048-.144-.072-.215-.24-.215s-.191.035-.25.227l-2.5 7.152C1.47-.67 1.136-.36.37-.347V0l1.148-.024c.335 0 .909 0 1.22.024v-.347c-.502-.012-.801-.263-.801-.598 0-.072 0-.096.06-.251l.55-1.59H5.56L6.22-.91c.06.144.06.167.06.203 0 .36-.61.36-.909.36V0c.275-.024 1.22-.024 1.555-.024s1.196 0 1.47.024M5.442-3.134H2.667l1.387-3.982z"/><path id="g" d="M7.63-2.189c0-.968-.873-1.925-2.296-2.08 1.136-.216 1.962-.981 1.962-1.878 0-1.029-1.04-2.022-2.608-2.022H.514v.347h.24c.86 0 .896.12.896.562v6.351c0 .443-.035.562-.897.562H.514V0h4.497c1.543 0 2.62-1.04 2.62-2.189M6.243-6.147c0 .789-.622 1.782-1.95 1.782H2.56v-2.978c0-.395.024-.479.55-.479h1.508c1.196 0 1.626 1.029 1.626 1.675m.3 3.946c0 .97-.73 1.854-1.903 1.854H3.11c-.527 0-.55-.084-.55-.478v-3.301h2.236c1.148 0 1.746 1.004 1.746 1.925"/><path id="c" d="M7.798-2.775c0-.131 0-.203-.132-.203-.12 0-.131.06-.131.143C7.427-.933 6.04-.095 4.88-.095c-.838 0-3.122-.503-3.122-3.995 0-3.457 2.249-3.983 3.11-3.983 1.256 0 2.356 1.064 2.595 2.858.024.144.024.18.167.18.168 0 .168-.036.168-.275v-2.835c0-.215 0-.275-.12-.275-.071 0-.083.024-.155.144l-.586.945c-.538-.67-1.352-1.089-2.213-1.089C2.536-8.42.646-6.53.646-4.09.646-1.615 2.559.25 4.724.25c1.962 0 3.074-1.71 3.074-3.026"/><path id="h" d="M4.904 0v-.347h-.371C3.48-.347 3.444-.49 3.444-.92v-6.745c0-.275 0-.287-.239-.287-.287.323-.885.765-2.117.765v.347c.275 0 .873 0 1.531-.311v6.231c0 .43-.036.574-1.088.574h-.37V0c.322-.024 1.482-.024 1.877-.024s1.543 0 1.866.024"/><path id="a" d="M5.358-2.045c0-1.1-.885-1.962-2.033-2.165 1.04-.299 1.71-1.172 1.71-2.105 0-.945-.98-1.638-2.14-1.638-1.197 0-2.082.73-2.082 1.602 0 .479.371.574.55.574.252 0 .539-.18.539-.538 0-.383-.287-.55-.55-.55-.072 0-.096 0-.132.012.454-.813 1.579-.813 1.638-.813.395 0 1.173.179 1.173 1.351 0 .227-.036.897-.383 1.411-.359.527-.766.563-1.089.574l-.358.036c-.204.012-.252.024-.252.132 0 .12.06.12.276.12h.55c1.016 0 1.47.837 1.47 1.985 0 1.567-.812 1.985-1.399 1.985-.574 0-1.554-.275-1.901-1.064.383.06.73-.156.73-.586a.565.565 0 0 0-.587-.586c-.287 0-.598.167-.598.622C.49-.622 1.555.25 2.882.25c1.424 0 2.476-1.088 2.476-2.296"/><path id="f" d="M5.262-2.01H5c-.036.204-.131.862-.25 1.053-.085.108-.766.108-1.125.108H1.41c.323-.275 1.053-1.04 1.364-1.328 1.818-1.674 2.487-2.296 2.487-3.48 0-1.375-1.088-2.296-2.475-2.296S.586-6.77.586-5.741c0 .61.526.61.562.61.251 0 .562-.18.562-.562 0-.335-.227-.562-.562-.562-.107 0-.131 0-.167.012.227-.813.873-1.364 1.65-1.364 1.017 0 1.639.85 1.639 1.95 0 1.017-.586 1.902-1.268 2.667L.586-.287V0h4.365z"/></defs><path fill="#fff" d="M15.323 51.226H43.67V11.541H15.323Z"/><path fill="none" stroke="#000" stroke-miterlimit="10" stroke-width=".3985" d="M15.323 51.226H43.67V11.541H15.323Z"/><use xlink:href="#a" x="-66.718777" y="-22.202911" transform="translate(86.173 46.082)scale(1.0004)"/><use xlink:href="#b" x="-70.727099" y="-7.749779" transform="translate(86.173 46.082)scale(1.0001)"/><path fill="#fff" d="M29.497 52.644h28.347V12.958H29.497Z"/><path fill="none" stroke="#000" stroke-miterlimit="10" stroke-width=".3985" d="M29.497 52.644h28.347V12.958H29.497Z"/><use xlink:href="#c" x="-68.017298" y="-22.202911" transform="translate(100.347 47.732)scale(1.0004)"/><use xlink:href="#d" x="-70.727099" y="-7.749779" transform="translate(100.347 47.732)scale(1.0001)"/><path fill="#fff" d="M43.67 54.061h28.347V14.375H43.67Z"/><path fill="none" stroke="#000" stroke-miterlimit="10" stroke-width=".3985" d="M43.67 54.061h28.347V14.375H43.67Z"/><use xlink:href="#e" x="-68.178363" y="-22.202911" transform="translate(114.52 49.209)scale(1.0004)"/><use xlink:href="#d" x="-70.727099" y="-7.749779" transform="translate(114.52 49.209)scale(1.0001)"/><path fill="#fff" d="M57.844 55.478H86.19V15.793H57.844Z"/><path fill="none" stroke="#000" stroke-miterlimit="10" stroke-width=".3985" d="M57.844 55.478H86.19V15.793H57.844Z"/><use xlink:href="#f" x="-66.718777" y="-22.202911" transform="translate(128.694 50.334)scale(1.0004)"/><use xlink:href="#b" x="-70.727099" y="-7.749779" transform="translate(128.694 50.334)scale(1.0001)"/><path fill="#fff" d="M72.017 56.896h28.347V17.21H72.017Z"/><path fill="none" stroke="#000" stroke-miterlimit="10" stroke-width=".3985" d="M72.017 56.896h28.347V17.21H72.017Z"/><use xlink:href="#g" x="-67.933264" y="-22.202911" transform="translate(142.867 51.858)scale(1.0004)"/><use xlink:href="#d" x="-70.727099" y="-7.749779" transform="translate(142.867 51.858)scale(1.0001)"/><path fill="#fff" d="M86.19 58.313h28.347V18.627H86.19Z"/><path fill="none" stroke="#000" stroke-miterlimit="10" stroke-width=".3985" d="M86.19 58.313h28.347V18.627H86.19Z"/><use xlink:href="#h" x="-66.718777" y="-22.202911" transform="translate(157.04 53.168)scale(1.0004)"/><use xlink:href="#b" x="-70.727099" y="-7.749779" transform="translate(157.04 53.168)scale(1.0001)"/><path fill="none" stroke="#000" stroke-miterlimit="10" stroke-width=".3985" d="M130.128 35.636h21.134"/><path d="m154.364 35.636-4.468-1.682 1.466 1.682-1.466 1.682Z"/><path fill="none" stroke="#000" stroke-miterlimit="10" stroke-width=".3985" d="m154.364 35.636-4.468-1.682 1.466 1.682-1.466 1.682Z"/><path fill="#fff" d="M171.23 51.226h28.348V11.541H171.23Z"/><path fill="none" stroke="#000" stroke-miterlimit="10" stroke-width=".3985" d="M171.23 51.226h28.348V11.541H171.23Z"/><use xlink:href="#a" x="-66.718777" y="-22.202911" transform="translate(242.081 46.082)scale(1.0004)"/><use xlink:href="#b" x="-70.727099" y="-7.749779" transform="translate(242.081 46.082)scale(1.0001)"/><path fill="#fff" d="M185.404 52.644h28.347V12.958h-28.347Z"/><path fill="none" stroke="#000" stroke-miterlimit="10" stroke-width=".3985" d="M185.404 52.644h28.347V12.958h-28.347Z"/><use xlink:href="#f" x="-66.718777" y="-22.202911" transform="translate(256.254 47.499)scale(1.0004)"/><use xlink:href="#b" x="-70.727099" y="-7.749779" transform="translate(256.254 47.499)scale(1.0001)"/><path fill="#fff" d="M199.578 54.061h28.347V14.375h-28.347Z"/><path fill="none" stroke="#000" stroke-miterlimit="10" stroke-width=".3985" d="M199.578 54.061h28.347V14.375h-28.347Z"/><use xlink:href="#h" x="-66.718777" y="-22.202911" transform="translate(270.428 48.916)scale(1.0004)"/><use xlink:href="#b" x="-70.727099" y="-7.749779" transform="translate(270.428 48.916)scale(1.0001)"/><path fill="#fff" d="M213.751 55.478h28.347V15.793H213.75Z"/><path fill="none" stroke="#000" stroke-miterlimit="10" stroke-width=".3985" d="M213.751 55.478h28.347V15.793H213.75Z"/><use xlink:href="#e" x="-68.178363" y="-22.202911" transform="translate(284.601 50.626)scale(1.0004)"/><use xlink:href="#d" x="-70.727099" y="-7.749779" transform="translate(284.601 50.626)scale(1.0001)"/><path fill="#fff" d="M227.924 56.896h28.347V17.21h-28.347Z"/><path fill="none" stroke="#000" stroke-miterlimit="10" stroke-width=".3985" d="M227.924 56.896h28.347V17.21h-28.347Z"/><use xlink:href="#g" x="-67.933264" y="-22.202911" transform="translate(298.774 51.858)scale(1.0004)"/><use xlink:href="#d" x="-70.727099" y="-7.749779" transform="translate(298.774 51.858)scale(1.0001)"/><path fill="#fff" d="M242.098 58.313h28.347V18.627h-28.347Z"/><path fill="none" stroke="#000" stroke-miterlimit="10" stroke-width=".3985" d="M242.098 58.313h28.347V18.627h-28.347Z"/><use xlink:href="#c" x="-68.017298" y="-22.202911" transform="translate(312.948 53.401)scale(1.0004)"/><use xlink:href="#d" x="-70.727099" y="-7.749779" transform="translate(312.948 53.401)scale(1.0001)"/></svg>