<svg xmlns="http://www.w3.org/2000/svg" xmlns:xlink="http://www.w3.org/1999/xlink" width="412.47pt" height="111.91pt" viewBox="0 0 412.47 111.91"><defs><path id="y" d="M7.822 0v-.338h-.196c-.655 0-.807-.077-.927-.437L4.342-7.593c-.054-.142-.076-.219-.25-.219s-.208.066-.263.219L1.571-1.07c-.196.556-.633.72-1.222.73V0l1.113-.033L2.717 0v-.338c-.546 0-.819-.273-.819-.557 0-.032.011-.141.022-.163l.502-1.43h2.695l.578 1.67c.01.043.033.109.033.152 0 .328-.611.328-.906.328V0c.393-.033 1.157-.033 1.571-.033zM4.997-2.826H2.542L3.764-6.37z"/><path id="m" d="M5.27-.971v-.611h-.273v.611c0 .633-.273.698-.393.698-.36 0-.404-.49-.404-.545V-3c0-.458 0-.884-.392-1.288a2.08 2.08 0 0 0-1.495-.6c-.895 0-1.647.513-1.647 1.233 0 .327.218.513.501.513a.48.48 0 0 0 .502-.502c0-.13-.054-.49-.556-.502.294-.382.829-.502 1.178-.502.535 0 1.157.426 1.157 1.397v.403c-.557.033-1.32.066-2.008.393-.818.371-1.09.939-1.09 1.419C.35-.153 1.406.12 2.094.12a1.51 1.51 0 0 0 1.429-.95c.044.437.338.895.85.895.23 0 .896-.152.896-1.036m-1.822-.556C3.448-.491 2.662-.12 2.17-.12c-.534 0-.982-.382-.982-.927 0-.6.458-1.506 2.259-1.571z"/><path id="z" d="M5.684-2.357c0-1.385-1.07-2.465-2.313-2.465-.85 0-1.32.513-1.494.709v-3.459l-1.572.12v.339c.764 0 .851.076.851.61V0h.273l.393-.676c.164.25.622.796 1.43.796 1.297 0 2.432-1.07 2.432-2.477m-.905-.01c0 .403-.022 1.058-.339 1.549-.229.338-.643.698-1.232.698-.491 0-.884-.262-1.146-.666-.153-.229-.153-.261-.153-.458V-3.49c0-.207 0-.218.12-.393a1.58 1.58 0 0 1 1.288-.698c.49 0 .883.283 1.145.698.284.447.317 1.07.317 1.517"/><path id="u" d="M4.528-1.298c0-.11-.11-.11-.142-.11-.098 0-.12.044-.142.11C3.928-.284 3.218-.153 2.814-.153c-.577 0-1.538-.469-1.538-2.225 0-1.779.895-2.237 1.473-2.237.099 0 .786.011 1.168.404-.448.032-.513.36-.513.502 0 .283.196.501.502.501.283 0 .502-.185.502-.512 0-.742-.83-1.168-1.67-1.168-1.363 0-2.367 1.179-2.367 2.531C.37-.96 1.45.12 2.717.12c1.462 0 1.81-1.31 1.81-1.418"/><path id="v" d="M5.75 0v-.338c-.764 0-.851-.077-.851-.611v-6.623l-1.571.12v.339c.763 0 .85.076.85.61v2.357c-.316-.393-.785-.676-1.374-.676C1.516-4.822.37-3.753.37-2.346.37-.96 1.44.12 2.684.12c.698 0 1.189-.37 1.462-.72v.72zM4.146-1.287c0 .196 0 .218-.12.403-.328.524-.818.764-1.288.764-.49 0-.883-.284-1.145-.698-.284-.448-.317-1.07-.317-1.517 0-.403.022-1.058.339-1.549.229-.338.643-.698 1.233-.698.381 0 .84.163 1.178.654.12.186.12.208.12.404z"/><path id="h" d="M4.528-1.298c0-.11-.088-.131-.142-.131-.098 0-.12.065-.142.153C3.862-.153 2.88-.153 2.771-.153c-.545 0-.982-.327-1.233-.73-.327-.524-.327-1.244-.327-1.637h3.044c.24 0 .273 0 .273-.23 0-1.08-.59-2.138-1.953-2.138-1.266 0-2.27 1.124-2.27 2.488 0 1.462 1.146 2.52 2.4 2.52 1.332 0 1.823-1.211 1.823-1.418m-.72-1.451H1.222c.065-1.626.982-1.899 1.353-1.899 1.123 0 1.233 1.473 1.233 1.899"/><path id="j" d="M2.695 0v-.338c-.72 0-.764-.055-.764-.48v-4.004l-1.527.12v.338c.709 0 .807.065.807.6v2.935c0 .49-.12.49-.851.49V0l1.2-.033c.382 0 .764.022 1.135.033m-.6-6.59a.583.583 0 0 0-1.167 0 .583.583 0 0 0 1.167 0"/><path id="g" d="M5.575 0v-.338c-.404 0-.644 0-1.058-.578L3.13-2.87c-.01-.022-.065-.088-.065-.12 0-.044.774-.699.883-.786.688-.556 1.146-.578 1.375-.589v-.338c-.316.033-.458.033-.764.033-.392 0-1.069-.022-1.222-.033v.338c.208.01.317.13.317.273 0 .218-.153.349-.24.425L1.877-2.335v-5.237l-1.572.12v.339c.764 0 .851.076.851.61v5.674c0 .49-.12.49-.85.49V0l1.189-.033 1.2.033v-.338c-.731 0-.851 0-.851-.491v-1.124l.698-.6C3.382-1.396 3.84-.786 3.84-.589c0 .207-.185.25-.392.25V0l1.178-.033q.475 0 .949.033"/><path id="q" d="M2.782 0v-.338c-.73 0-.85 0-.85-.491v-6.743l-1.572.12v.339c.764 0 .851.076.851.61v5.674c0 .49-.12.49-.851.49V0l1.211-.033z"/><path id="i" d="M5.837 0v-.338c-.567 0-.84 0-.851-.328v-2.083c0-.939 0-1.277-.338-1.67-.153-.185-.513-.403-1.146-.403-.796 0-1.31.469-1.615 1.145v-1.145l-1.538.12v.338c.764 0 .851.076.851.611v2.924c0 .49-.12.49-.85.49V0l1.232-.033L2.804 0v-.338c-.731 0-.851 0-.851-.491v-2.008c0-1.134.775-1.745 1.473-1.745.687 0 .807.589.807 1.21v2.543c0 .49-.12.49-.85.49V0l1.232-.033z"/><path id="f" d="M5.139-2.335c0-1.396-1.091-2.553-2.411-2.553-1.364 0-2.423 1.19-2.423 2.553A2.435 2.435 0 0 0 2.717.12a2.43 2.43 0 0 0 2.422-2.455m-.906-.087c0 .393 0 .982-.24 1.462-.24.49-.72.807-1.265.807-.47 0-.95-.229-1.244-.73-.273-.48-.273-1.146-.273-1.539 0-.426 0-1.015.262-1.495a1.46 1.46 0 0 1 1.244-.73c.48 0 .949.24 1.232.708s.284 1.102.284 1.517"/><path id="l" d="M5.684-2.357c0-1.385-1.058-2.465-2.28-2.465-.851 0-1.31.48-1.527.72v-.72l-1.572.12v.338c.775 0 .851.065.851.546v5.105c0 .491-.12.491-.85.491v.339l1.221-.033 1.233.033v-.339c-.73 0-.85 0-.85-.49V-.645c.054.175.512.764 1.341.764C4.55.12 5.684-.95 5.684-2.357m-.905 0c0 1.32-.764 2.237-1.571 2.237-.437 0-.851-.218-1.146-.666-.153-.229-.153-.24-.153-.458v-2.433c.317-.556.851-.872 1.408-.872.796 0 1.462.96 1.462 2.192"/><path id="s" d="M3.611 2.618c0-.032 0-.054-.185-.24-1.364-1.374-1.713-3.436-1.713-5.105 0-1.899.414-3.797 1.756-5.16.142-.132.142-.154.142-.186 0-.077-.043-.11-.109-.11-.109 0-1.09.742-1.735 2.128-.556 1.2-.687 2.411-.687 3.327 0 .851.12 2.172.72 3.404.655 1.342 1.593 2.052 1.702 2.052.066 0 .11-.033.11-.11"/><path id="w" d="M3.153-2.727c0-.851-.12-2.172-.72-3.404C1.778-7.473.84-8.182.73-8.182c-.065 0-.11.043-.11.109 0 .032 0 .054.208.25C1.9-6.742 2.52-5.007 2.52-2.726c0 1.865-.403 3.785-1.756 5.16-.142.13-.142.153-.142.185 0 .066.044.11.109.11.11 0 1.091-.742 1.735-2.128.556-1.2.687-2.411.687-3.327"/><path id="n" d="M3.971-4.157c0-.349-.338-.665-.807-.665-.797 0-1.19.73-1.342 1.2v-1.2l-1.517.12v.338c.764 0 .851.076.851.611v2.924c0 .49-.12.49-.85.49V0l1.243-.033c.437 0 .95 0 1.386.033v-.338h-.23c-.807 0-.828-.12-.828-.513v-1.68c0-1.08.458-2.051 1.287-2.051.076 0 .098 0 .12.01a.47.47 0 0 0-.251.426c0 .306.23.47.47.47.195 0 .468-.132.468-.48"/><path id="t" d="M5.444-2.03c0-1.09-.72-1.985-1.636-2.203L2.41-4.571A1.425 1.425 0 0 1 1.31-5.957c0-.764.59-1.43 1.44-1.43 1.822 0 2.062 1.79 2.128 2.281.01.066.01.131.13.131.143 0 .143-.055.143-.262V-7.43c0-.185 0-.262-.12-.262-.077 0-.088.011-.164.142l-.382.622c-.327-.316-.775-.764-1.746-.764a2.115 2.115 0 0 0-.698 4.113c.12.044.677.175 1.44.36.295.077.622.153.928.557.229.284.338.644.338 1.004 0 .774-.546 1.56-1.462 1.56-.316 0-1.146-.055-1.724-.59-.633-.588-.665-1.287-.676-1.68-.011-.109-.098-.109-.131-.109-.142 0-.142.077-.142.273v2.182c0 .186 0 .262.12.262C.807.24.818.218.895.098c0 0 .032-.043.392-.622.339.371 1.037.764 2.008.764 1.276 0 2.15-1.07 2.15-2.27"/><path id="o" d="M3.928-1.396c0-.579-.328-.906-.459-1.037-.36-.35-.785-.436-1.243-.524-.611-.12-1.342-.261-1.342-.894 0-.382.283-.83 1.222-.83 1.2 0 1.254.983 1.276 1.32.011.099.131.099.131.099.142 0 .142-.055.142-.262v-1.102c0-.185 0-.262-.12-.262-.055 0-.077 0-.218.131a1.4 1.4 0 0 1-.186.175c-.414-.306-.862-.306-1.025-.306C.775-4.888.36-4.157.36-3.546c0 .382.175.688.47.928.348.283.654.349 1.44.501.24.044 1.134.219 1.134 1.004 0 .557-.382.993-1.233.993-.916 0-1.31-.622-1.516-1.55C.622-1.81.61-1.854.502-1.854c-.142 0-.142.077-.142.273v1.44C.36.044.36.12.48.12.535.12.546.11.753-.098.775-.12.775-.142.97-.35c.48.458.971.469 1.2.469 1.255 0 1.757-.731 1.757-1.516"/><path id="x" d="m7.473-4.931-.207-2.455H.6L.393-4.931h.273c.152-1.757.316-2.117 1.963-2.117.197 0 .48 0 .59.022.229.044.229.164.229.415v5.75c0 .37 0 .523-1.146.523h-.436V0c.447-.033 1.56-.033 2.062-.033S5.553-.033 6 0v-.338h-.437C4.42-.338 4.42-.491 4.42-.862v-5.75c0-.218 0-.37.196-.414.12-.022.415-.022.622-.022 1.647 0 1.81.36 1.964 2.117z"/><path id="e" d="M3.622-1.353v-.622H3.35v.6c0 .808-.327 1.222-.73 1.222-.732 0-.732-.993-.732-1.178v-3.033h1.56v-.338h-1.56V-6.71h-.272c-.011.895-.339 2.062-1.408 2.106v.24h.928v3.011C1.135-.01 2.149.12 2.542.12c.775 0 1.08-.775 1.08-1.473"/><path id="r" d="M5.837 0v-.338c-.764 0-.851-.077-.851-.611v-3.873l-1.604.12v.338c.764 0 .851.076.851.611v1.942c0 .95-.524 1.691-1.32 1.691-.916 0-.96-.513-.96-1.08v-3.622l-1.604.12v.338c.851 0 .851.033.851 1.004v1.636C1.2-.873 1.2.12 2.858.12c.611 0 1.091-.305 1.408-.982V.12z"/><path id="C" d="M7.964-7.113v-.339c-.338.022-.774.033-1.058.033l-1.244-.033v.339c.568.01.797.294.797.545 0 .087-.033.153-.055.218L4.408-1.09l-2.084-5.51c-.066-.152-.066-.196-.066-.196 0-.316.622-.316.895-.316v-.339c-.393.033-1.146.033-1.56.033L.207-7.452v.339c.71 0 .917 0 1.07.414L3.806 0c.077.207.132.24.273.24.186 0 .208-.055.262-.207l2.433-6.415c.153-.404.447-.72 1.19-.731"/><path id="p" d="M5.542-4.364v-.338c-.25.022-.567.033-.818.033l-.95-.033v.338c.405.01.525.262.525.47 0 .097-.022.141-.066.261L3.12-.851 1.898-3.895c-.065-.142-.065-.185-.065-.185 0-.284.425-.284.622-.284v-.338l-1.19.033c-.294 0-.73-.011-1.058-.033v.338c.688 0 .731.065.873.404L2.651-.087c.066.152.087.207.23.207s.185-.098.228-.207l1.43-3.546c.098-.251.283-.72 1.003-.731"/><path id="B" d="M5.63 0v-.338c-.59 0-.786-.022-1.037-.338L3.131-2.564c.327-.414.742-.949 1.004-1.233.338-.392.785-.556 1.298-.567v-.338c-.283.022-.61.033-.894.033-.328 0-.906-.022-1.048-.033v.338c.23.022.317.164.317.338s-.11.317-.164.382l-.676.851-.851-1.102c-.099-.109-.099-.13-.099-.196 0-.164.164-.262.382-.273v-.338l-1.178.033c-.23 0-.742-.011-1.037-.033v.338c.764 0 .775.01 1.288.666l1.08 1.407c-.513.654-.513.676-1.026 1.298a1.75 1.75 0 0 1-1.396.655V0c.284-.022.622-.033.905-.033L2.073 0v-.338c-.24-.033-.316-.175-.316-.338 0-.24.316-.6.981-1.386l.83 1.091c.087.12.229.295.229.36 0 .098-.099.262-.393.273V0l1.178-.033c.295 0 .72.011 1.048.033"/><path id="A" d="M5.542-4.364v-.338c-.25.022-.567.033-.818.033l-.95-.033v.338c.34.01.514.196.514.47 0 .108-.011.13-.066.261L3.12-.949 1.91-3.884c-.044-.11-.066-.153-.066-.196 0-.284.403-.284.61-.284v-.338l-1.188.033C.97-4.67.535-4.68.207-4.702v.338c.524 0 .731 0 .884.382L2.728 0l-.273.644c-.24.6-.546 1.353-1.244 1.353-.055 0-.305 0-.513-.197.338-.043.426-.284.426-.458A.44.44 0 0 0 .666.884c-.219 0-.459.142-.459.469 0 .49.459.884 1.004.884.687 0 1.135-.622 1.396-1.244l1.92-4.659c.284-.687.84-.698 1.015-.698"/><path id="k" d="M4.375-2.04h-.273C4.004-.753 3.775-.273 2.51-.273H1.222l3.033-4.102c.098-.12.098-.142.098-.185 0-.142-.087-.142-.284-.142H.58l-.12 1.756H.73c.065-1.113.273-1.516 1.473-1.516h1.244L.404-.35c-.099.12-.099.142-.099.196C.305 0 .382 0 .59 0h3.6z"/><path id="d" d="M5.358-2.045c0-1.1-.885-1.962-2.033-2.165 1.04-.299 1.71-1.172 1.71-2.105 0-.945-.98-1.638-2.14-1.638-1.197 0-2.082.73-2.082 1.602 0 .479.371.574.55.574.252 0 .539-.18.539-.538 0-.383-.287-.55-.55-.55-.072 0-.096 0-.132.012.454-.813 1.579-.813 1.638-.813.395 0 1.173.179 1.173 1.351 0 .227-.036.897-.383 1.411-.359.527-.766.563-1.089.574l-.358.036c-.204.012-.252.024-.252.132 0 .12.06.12.276.12h.55c1.016 0 1.47.837 1.47 1.985 0 1.567-.812 1.985-1.399 1.985-.574 0-1.554-.275-1.901-1.064.383.06.73-.156.73-.586a.565.565 0 0 0-.587-.586c-.287 0-.598.167-.598.622C.49-.622 1.555.25 2.882.25c1.424 0 2.476-1.088 2.476-2.296"/><path id="a" d="M5.179-.347c0-.347-.323-.347-.49-.347H3.635V-6.96c0-.18 0-.49-.347-.49-.203 0-.275.108-.347.263-.227.514-.622 1.148-1.256 1.196-.179.012-.43.036-.43.347 0 .203.12.347.383.347.67 0 1.184-.503 1.22-.527v5.131H1.805c-.167 0-.49 0-.49.347s.323.347.49.347h2.882c.168 0 .49 0 .49-.347"/><path id="b" d="M5.705-3.648c0-.394-.37-.394-.538-.394H3.468v-1.71c0-.156 0-.539-.382-.539-.395 0-.395.37-.395.538v1.71H.981c-.156 0-.538 0-.538.383 0 .395.37.395.538.395h1.71v1.71c0 .156 0 .538.383.538.394 0 .394-.37.394-.538v-1.71h1.699c.155 0 .538 0 .538-.383"/><path id="c" d="M5.537-.49v-.252c0-.215 0-.49-.382-.49-.395 0-.395.251-.395.538H1.878L4.162-2.63c.168-.144 1.375-1.172 1.375-2.5 0-1.363-1.124-2.32-2.619-2.32C1.531-7.451.61-6.411.61-5.406a.49.49 0 0 0 .49.538.48.48 0 0 0 .479-.49c0-.227-.084-.3-.144-.347.168-.634.718-1.052 1.411-1.052 1.017 0 1.914.586 1.914 1.626 0 .933-.706 1.65-1.351 2.213L.777-.634C.646-.526.61-.49.61-.347.61 0 .933 0 1.1 0h4.174c.263-.072.263-.311.263-.49"/></defs><g transform="translate(62.765 75.726)scale(1.0004)"><use xlink:href="#a" x="-24.095671" y="-26.234529"/><use xlink:href="#b" x="-17.936271" y="-26.234529"/><use xlink:href="#c" x="-11.776869" y="-26.234529"/></g><use xlink:href="#a" x="-20.707311" y="-26.234529" transform="translate(150.754 74.891)scale(1.0004)"/><g fill="none" stroke="#000" stroke-miterlimit="10" stroke-width=".3985"><path d="M126.668 35.367H139.6M126.867 56.189V35.367M139.4 56.189V35.367M126.668 56.189H139.6"/></g><use xlink:href="#b" x="-3.871554" y="-26.234529" transform="translate(150.754 74.891)scale(1.0004)"/><g fill="none" stroke="#000" stroke-miterlimit="10" stroke-width=".3985"><path d="M143.497 35.367h12.931M143.696 56.189V35.367M156.229 56.189V35.367M143.497 56.189h12.931"/></g><use xlink:href="#c" x="12.964203" y="-26.234529" transform="translate(150.754 74.891)scale(1.0004)"/><g fill="none" stroke="#000" stroke-miterlimit="10" stroke-width=".3985"><path d="M160.326 35.367h12.931M160.525 56.189V35.367M173.058 56.189V35.367M160.326 56.189h12.931"/></g><use xlink:href="#b" x="-20.707311" y="-26.234529" transform="translate(295.143 55.048)scale(1.0004)"/><g fill="none" stroke="#000" stroke-miterlimit="10" stroke-width=".3985"><path d="M271.057 15.524h12.932M271.256 36.346V15.524M283.789 36.346V15.524M271.057 36.346h12.932"/></g><use xlink:href="#a" x="-20.707311" y="-26.234529" transform="translate(273.883 94.734)scale(1.0004)"/><g fill="none" stroke="#000" stroke-miterlimit="10" stroke-width=".3985"><path d="M249.797 55.21h12.932M249.996 76.032V55.21M262.529 76.032V55.21M249.797 76.032h12.932M269.597 40.73l-5.41 10.097"/></g><use xlink:href="#c" x="-20.707311" y="-26.234529" transform="translate(316.404 94.734)scale(1.0004)"/><g fill="none" stroke="#000" stroke-miterlimit="10" stroke-width=".3985"><path d="M292.318 55.21h12.932M292.517 76.032V55.21M305.05 76.032V55.21M292.318 76.032h12.932M285.449 40.73l5.41 10.097"/></g><use xlink:href="#d" x="-24.095671" y="-26.234529" transform="translate(400.729 75.852)scale(1.0004)"/><path fill="none" stroke="#000" stroke-miterlimit="10" stroke-width=".3985" d="M61.333 45.778h57.482"/><path d="m121.916 45.778-4.468-1.682 1.466 1.682-1.466 1.682Z"/><path fill="none" stroke="#000" stroke-miterlimit="10" stroke-width=".3985" d="m121.916 45.778-4.468-1.682 1.466 1.682-1.466 1.682Z"/><g transform="translate(96.603 65.171)scale(1.00008)"><use xlink:href="#e" x="-24.087987" y="-26.226163"/><use xlink:href="#f" x="-19.843999" y="-26.226163"/><use xlink:href="#g" x="-14.388999" y="-26.226163"/><use xlink:href="#h" x="-8.92309" y="-26.226163"/><use xlink:href="#i" x="-4.079049" y="-26.226163"/><use xlink:href="#j" x="1.986911" y="-26.226163"/><use xlink:href="#k" x="5.019891" y="-26.226163"/><use xlink:href="#h" x="9.863931" y="-26.226163"/></g><path fill="none" stroke="#000" stroke-miterlimit="10" stroke-width=".3985" d="M177.441 45.778h70.9"/><path d="m251.444 45.778-4.468-1.682 1.466 1.682-1.466 1.682Z"/><path fill="none" stroke="#000" stroke-miterlimit="10" stroke-width=".3985" d="m251.444 45.778-4.468-1.682 1.466 1.682-1.466 1.682Z"/><g transform="translate(226.343 65.171)scale(1.00008)"><use xlink:href="#l" x="-24.087987" y="-26.226163"/><use xlink:href="#m" x="-18.022027" y="-26.226163"/><use xlink:href="#n" x="-12.567027" y="-26.226163"/><use xlink:href="#o" x="-8.290307" y="-26.226163"/><use xlink:href="#h" x="-3.991767" y="-26.226163"/></g><path fill="none" stroke="#000" stroke-miterlimit="10" stroke-width=".3985" d="M303.035 45.778h65.755"/><path d="m371.891 45.778-4.468-1.682 1.466 1.682-1.466 1.682Z"/><path fill="none" stroke="#000" stroke-miterlimit="10" stroke-width=".3985" d="m371.891 45.778-4.468-1.682 1.466 1.682-1.466 1.682Z"/><g transform="translate(342.289 65.171)scale(1.00008)"><use xlink:href="#h" x="-24.087987" y="-26.226163"/><use xlink:href="#p" x="-19.243947" y="-26.226163"/><use xlink:href="#m" x="-14.083518" y="-26.226163"/><use xlink:href="#q" x="-8.628518" y="-26.226163"/><use xlink:href="#r" x="-5.595537" y="-26.226163"/><use xlink:href="#m" x=".470423" y="-26.226163"/><use xlink:href="#e" x="5.925423" y="-26.226163"/><use xlink:href="#h" x="10.169412" y="-26.226163"/></g><g transform="translate(39.409 97.407)scale(1.00008)"><use xlink:href="#s" x="-24.087987" y="-26.226163"/><use xlink:href="#t" x="-19.843999" y="-26.226163"/><use xlink:href="#f" x="-13.778038" y="-26.226163"/><use xlink:href="#r" x="-8.323038" y="-26.226163"/><use xlink:href="#n" x="-2.257078" y="-26.226163"/><use xlink:href="#u" x="2.019642" y="-26.226163"/><use xlink:href="#h" x="6.863683" y="-26.226163"/><use xlink:href="#u" x="15.340753" y="-26.226163"/><use xlink:href="#f" x="20.184794" y="-26.226163"/><use xlink:href="#v" x="25.945273" y="-26.226163"/><use xlink:href="#h" x="32.011231" y="-26.226163"/><use xlink:href="#w" x="36.85527" y="-26.226163"/></g><g transform="translate(153.261 103.076)scale(1.00008)"><use xlink:href="#s" x="-24.087987" y="-26.226163"/><use xlink:href="#x" x="-19.843999" y="-26.226163"/><use xlink:href="#f" x="-12.861599" y="-26.226163"/><use xlink:href="#g" x="-7.406599" y="-26.226163"/><use xlink:href="#h" x="-1.951599" y="-26.226163"/><use xlink:href="#i" x="2.892442" y="-26.226163"/><use xlink:href="#o" x="8.958402" y="-26.226163"/><use xlink:href="#w" x="13.256942" y="-26.226163"/></g><g transform="translate(248.187 120.084)scale(1.00008)"><use xlink:href="#s" x="-24.087987" y="-26.226163"/><use xlink:href="#y" x="-19.843999" y="-26.226163"/><use xlink:href="#z" x="-11.661498" y="-26.226163"/><use xlink:href="#o" x="-5.595538" y="-26.226163"/><use xlink:href="#e" x="-1.296998" y="-26.226163"/><use xlink:href="#n" x="2.946992" y="-26.226163"/><use xlink:href="#m" x="7.223713" y="-26.226163"/><use xlink:href="#u" x="12.678712" y="-26.226163"/><use xlink:href="#e" x="17.522753" y="-26.226163"/><use xlink:href="#o" x="25.399772" y="-26.226163"/><use xlink:href="#A" x="29.698312" y="-26.226163"/><use xlink:href="#i" x="35.458794" y="-26.226163"/><use xlink:href="#e" x="41.230186" y="-26.226163"/><use xlink:href="#m" x="45.474177" y="-26.226163"/><use xlink:href="#B" x="50.929175" y="-26.226163"/><use xlink:href="#e" x="60.311775" y="-26.226163"/><use xlink:href="#n" x="64.555765" y="-26.226163"/><use xlink:href="#h" x="68.832486" y="-26.226163"/><use xlink:href="#h" x="73.676528" y="-26.226163"/><use xlink:href="#w" x="78.520567" y="-26.226163"/></g><g transform="translate(386.078 97.407)scale(1.00008)"><use xlink:href="#s" x="-24.087987" y="-26.226163"/><use xlink:href="#C" x="-19.843999" y="-26.226163"/><use xlink:href="#m" x="-12.556118" y="-26.226163"/><use xlink:href="#q" x="-7.101118" y="-26.226163"/><use xlink:href="#r" x="-4.068138" y="-26.226163"/><use xlink:href="#h" x="1.997822" y="-26.226163"/><use xlink:href="#w" x="6.841862" y="-26.226163"/></g></svg>