<svg xmlns="http://www.w3.org/2000/svg" xmlns:xlink="http://www.w3.org/1999/xlink" width="184.82pt" height="115.62pt" viewBox="0 0 184.82 115.62"><defs><path id="f" d="M5.4-2.171c0-.338-.261-.338-.436-.338h-.85v-3.84c0-.36-.077-.448-.448-.448H3.36c-.262 0-.316.011-.458.23L.415-2.663c-.099.142-.099.164-.099.382 0 .36.099.436.437.436h2.75v1.178h-.677c-.175 0-.437 0-.437.339 0 .327.273.327.437.327h1.963c.164 0 .437 0 .437-.327 0-.339-.262-.339-.437-.339h-.676v-1.178h.851c.164 0 .436 0 .436-.327M3.502-2.51H1.08l2.422-3.808z"/><path id="d" d="M4.822-.327c0-.339-.262-.339-.436-.339h-.993v-5.673c0-.174 0-.447-.327-.447-.208 0-.273.13-.328.262-.414.927-.981 1.047-1.189 1.069-.174.01-.403.033-.403.338 0 .273.196.328.36.328.207 0 .654-.066 1.134-.48v4.603h-.993c-.174 0-.436 0-.436.339 0 .327.273.327.436.327h2.739c.163 0 .436 0 .436-.327"/><path id="b" d="M5.237-1.898c0-.775-.513-1.419-1.233-1.746.61-.393.916-1.015.916-1.604 0-.807-.796-1.538-2.05-1.538-1.31 0-2.074.524-2.074 1.276a.486.486 0 1 0 .971.022.45.45 0 0 0-.098-.294c.338-.339 1.113-.339 1.211-.339.742 0 1.288.393 1.288.884 0 .327-.164.71-.459.95-.349.283-.621.305-1.014.327-.622.043-.786.043-.786.36 0 .338.262.338.437.338h.502c1.08 0 1.636.73 1.636 1.364 0 .665-.61 1.353-1.604 1.353-.436 0-1.276-.12-1.56-.633.055-.055.131-.12.131-.338a.477.477 0 0 0-.48-.48c-.25 0-.491.163-.491.512C.48-.513 1.538.12 2.88.12c1.43 0 2.357-1.004 2.357-2.018"/><path id="c" d="M5.171-3.328c0-2.029-1.112-3.458-2.313-3.458-1.221 0-2.312 1.462-2.312 3.448C.546-1.31 1.658.12 2.858.12c1.222 0 2.313-1.462 2.313-3.448m-.752-.12c0 1.615-.71 2.903-1.56 2.903s-1.56-1.288-1.56-2.903c0-1.592.752-2.673 1.56-2.673.796 0 1.56 1.07 1.56 2.673"/><path id="e" d="M5.346-2.547c0-.144-.084-.252-.191-.323-.3-.18-.957-.527-1.447-.778L5.095-4.4c.143-.072.251-.18.251-.36 0-.226-.203-.37-.37-.37-.084 0-.18.06-.252.096l-1.327.825.036-1.662c0-.204-.168-.36-.36-.36s-.358.144-.358.36c0 .346.012.454.012.454L2.75-4.21l-1.328-.825c-.072-.036-.167-.096-.25-.096-.168 0-.372.144-.372.37 0 .18.108.288.251.36l1.388.741-1.388.754c-.143.071-.25.18-.25.359 0 .227.203.37.37.37.084 0 .18-.06.251-.095l1.328-.826-.012.766c-.024.203-.024.67-.024.897a.36.36 0 0 0 .718 0l-.036-1.663 1.184.73c.287.191.31.191.394.191.168 0 .371-.143.371-.37"/><path id="g" d="M5.179-.347c0-.347-.323-.347-.49-.347H3.635V-6.96c0-.18 0-.49-.347-.49-.203 0-.275.108-.347.263-.227.514-.622 1.148-1.256 1.196-.179.012-.43.036-.43.347 0 .203.12.347.383.347.67 0 1.184-.503 1.22-.527v5.131H1.805c-.167 0-.49 0-.49.347s.323.347.49.347h2.882c.168 0 .49 0 .49-.347"/><path id="j" d="M5.119.682c0-.156-.084-.204-.251-.323C3.218-.777 2.81-2.488 2.81-3.648c0-1.136.382-2.858 2.057-4.018.167-.12.25-.168.25-.323 0-.12-.059-.311-.346-.311-.299 0-1.184.693-1.734 1.47a5.43 5.43 0 0 0-1.005 3.182c0 1.328.479 2.44.98 3.146C3.565.263 4.438.993 4.773.993c.287 0 .347-.204.347-.311"/><path id="k" d="M4.114-3.648c0-.933-.227-2.14-1.088-3.3-.407-.55-1.292-1.352-1.65-1.352-.276 0-.347.203-.347.31 0 .144.083.204.299.348 1.459 1.028 2.009 2.63 2.009 3.982C3.337-2.583 2.99-.825 1.28.36c-.156.107-.251.167-.251.323 0 .107.071.31.346.31.3 0 1.184-.693 1.735-1.47a5.5 5.5 0 0 0 1.004-3.17"/><path id="a" d="M5.705-3.648c0-.394-.37-.394-.538-.394H3.468v-1.71c0-.156 0-.539-.382-.539-.395 0-.395.37-.395.538v1.71H.981c-.156 0-.538 0-.538.383 0 .395.37.395.538.395h1.71v1.71c0 .156 0 .538.383.538.394 0 .394-.37.394-.538v-1.71h1.699c.155 0 .538 0 .538-.383"/><path id="i" d="M5.633-2.07c0-.609-.335-1.458-1.387-1.913.73-.454 1.052-1.172 1.052-1.794 0-.897-.897-1.674-2.188-1.674-1.328 0-2.26.574-2.26 1.459 0 .395.298.514.49.514a.48.48 0 0 0 .478-.49c0-.191-.096-.311-.096-.311.359-.454 1.184-.478 1.388-.478.813 0 1.41.43 1.41.992 0 .347-.226 1.34-1.482 1.424-.443.023-.634.047-.682.047-.24.024-.299.18-.299.347 0 .347.251.347.455.347h.55c1.244 0 1.794.873 1.794 1.519 0 .79-.694 1.53-1.746 1.53-1.196 0-1.735-.645-1.735-.812l.024-.06a.6.6 0 0 0 .084-.287.47.47 0 0 0-.478-.479c-.252 0-.49.156-.49.527C.514-.622 1.65.144 3.11.144c1.507 0 2.523-1.077 2.523-2.213"/><path id="h" d="M5.537-.49v-.252c0-.215 0-.49-.382-.49-.395 0-.395.251-.395.538H1.878L4.162-2.63c.168-.144 1.375-1.172 1.375-2.5 0-1.363-1.124-2.32-2.619-2.32C1.531-7.451.61-6.411.61-5.406a.49.49 0 0 0 .49.538.48.48 0 0 0 .479-.49c0-.227-.084-.3-.144-.347.168-.634.718-1.052 1.411-1.052 1.017 0 1.914.586 1.914 1.626 0 .933-.706 1.65-1.351 2.213L.777-.634C.646-.526.61-.49.61-.347.61 0 .933 0 1.1 0h4.174c.263-.072.263-.311.263-.49"/></defs><use xlink:href="#a" x="-50.23116" y="-50.071095" transform="translate(99.55 74.892)scale(1.0004)"/><g fill="none" stroke="#000" stroke-miterlimit="10" stroke-width=".3985"><path d="M45.952 11.541h12.931M46.151 32.363V11.541M58.684 32.363V11.541M45.952 32.363h12.931"/></g><g transform="translate(87.337 91.276)scale(1.00008)"><use xlink:href="#b" x="-53.602422" y="-50.055129"/><use xlink:href="#c" x="-47.874669" y="-50.055129"/></g><g transform="translate(113.24 91.276)scale(1.00008)"><use xlink:href="#b" x="-53.602422" y="-50.055129"/><use xlink:href="#d" x="-47.874669" y="-50.055129"/></g><use xlink:href="#e" x="-50.23116" y="-50.071095" transform="translate(167.583 74.892)scale(1.0004)"/><g fill="none" stroke="#000" stroke-miterlimit="10" stroke-width=".3985"><path d="M113.985 11.541h12.931M114.184 32.363V11.541M126.717 32.363V11.541M113.985 32.363h12.931"/></g><g transform="translate(155.37 91.282)scale(1.00008)"><use xlink:href="#f" x="-53.602422" y="-50.055129"/><use xlink:href="#c" x="-47.874669" y="-50.055129"/></g><g transform="translate(181.273 91.342)scale(1.00008)"><use xlink:href="#f" x="-53.602422" y="-50.055129"/><use xlink:href="#d" x="-47.874669" y="-50.055129"/></g><use xlink:href="#g" x="-53.61952" y="-50.071095" transform="translate(68.922 121.082)scale(1.0004)"/><use xlink:href="#h" x="-53.61952" y="-50.071095" transform="translate(136.954 121.082)scale(1.0004)"/><use xlink:href="#i" x="-53.61952" y="-50.071095" transform="translate(204.986 121.01)scale(1.0004)"/><path fill="none" stroke="#000" stroke-miterlimit="10" stroke-width=".3985" d="m24.066 59.399 7.797-10.887"/><path d="m33.67 45.99-3.97 2.653 2.221-.212.514 2.17Z"/><path fill="none" stroke="#000" stroke-miterlimit="10" stroke-width=".39848" d="m33.67 45.99-3.97 2.653 2.221-.212.514 2.17Z"/><path fill="none" stroke="#000" stroke-miterlimit="10" stroke-width=".3985" d="m92.097 59.399 7.794-10.882"/><path d="m101.698 45.996-3.97 2.652 2.221-.212.514 2.171Z"/><path fill="none" stroke="#000" stroke-miterlimit="10" stroke-width=".398479" d="m101.698 45.996-3.97 2.652 2.221-.212.514 2.171Z"/><path fill="none" stroke="#000" stroke-miterlimit="10" stroke-width=".3985" d="m148.753 59.327-7.786-10.87"/><path d="m139.16 45.936 1.235 4.611.514-2.17 2.22.212Z"/><path fill="none" stroke="#000" stroke-miterlimit="10" stroke-width=".398483" d="m139.16 45.936 1.235 4.611.514-2.17 2.22.212Z"/><use xlink:href="#g" x="-53.61952" y="-50.071095" transform="translate(68.922 149.429)scale(1.0004)"/><use xlink:href="#a" x="-53.61952" y="-50.071095" transform="translate(102.938 148.849)scale(1.0004)"/><use xlink:href="#h" x="-53.61952" y="-50.071095" transform="translate(136.954 149.429)scale(1.0004)"/><use xlink:href="#e" x="-53.61952" y="-50.071095" transform="translate(170.97 148.819)scale(1.0004)"/><use xlink:href="#i" x="-53.61952" y="-50.071095" transform="translate(204.986 149.357)scale(1.0004)"/><use xlink:href="#j" x="-53.61952" y="-50.071095" transform="translate(124.999 149.357)scale(1.0004)"/><use xlink:href="#k" x="-53.61952" y="-50.071095" transform="translate(216.942 149.357)scale(1.0004)"/></svg>