<svg xmlns="http://www.w3.org/2000/svg" xmlns:xlink="http://www.w3.org/1999/xlink" width="222.57pt" height="427.61pt" viewBox="0 0 222.57 427.61"><defs><path id="i" d="M6.423-3.492c0-1.424-1.005-1.914-1.914-1.914-.538 0-.98.215-1.172.335l.705-2.823c.012-.06.036-.131.036-.191 0-.227-.215-.215-.382-.203l-1.471.071c-.132.012-.371.012-.371.36 0 .215.215.215.323.215.143 0 .359.012.502.023L1.447-2.655c-.107.43-.107.741-.107.861 0 1.447 1.004 1.89 1.865 1.89 2.045 0 3.218-2.01 3.218-3.588m-1.83 1.818c-.43 1.231-1.137 1.34-1.364 1.34-.741 0-.741-.778-.741-.946 0-.406.071-.717.263-1.447.095-.43.18-.73.263-1.1.084-.311.084-.335.203-.467.311-.382.79-.681 1.244-.681.275 0 .682.167.682.849 0 .646-.419 2.117-.55 2.452"/><path id="f" d="M3.301-.801c0-.562-.263-.957-.777-.957-.658 0-1.077.598-1.077 1.064 0 .287.168.694.73.694.31 0 .538-.144.574-.167C2.428.873 1.71 1.53 1.268 1.842c-.192.155-.204.167-.204.239 0 .108.096.24.216.24C1.555 2.32 3.3.764 3.3-.802"/><path id="j" d="M6.41-1.029c0-.095-.239-.382-.358-.382-.036 0-.084 0-.168.083-.885.993-2.093.993-2.26.993-.67 0-1.017-.395-1.017-1.1 0-.3.084-.766.192-1.172h.478c.718 0 3.086 0 3.086-1.65 0-.718-.67-1.149-1.555-1.149-2.07 0-3.492 1.567-3.492 3.409 0 1.291.8 2.093 2.296 2.093.37 0 1.076-.036 1.686-.263.646-.252 1.113-.718 1.113-.862m-.825-3.24c0 1.231-1.95 1.231-2.679 1.231.168-.598.287-.957.634-1.34a1.71 1.71 0 0 1 1.268-.597c.502 0 .777.323.777.705"/><path id="e" d="M3.959-1.77c0-.168-.156-.168-.335-.168-.287 0-.3.012-.383.311-.096.395-.31 1.292-.717 1.292-.144 0-.228-.096-.228-.37 0-.228.024-.324.072-.515l1.674-6.674c.012-.06.036-.131.036-.191 0-.227-.215-.215-.382-.203l-1.471.071c-.132.012-.371.012-.371.36 0 .215.215.215.323.215.143 0 .359.012.502.023L1.136-1.41c-.048.191-.048.275-.048.347 0 .765.718 1.16 1.388 1.16.562 0 .86-.407 1.016-.646a4 4 0 0 0 .467-1.22"/><path id="g" d="M11.697-1.77c0-.168-.156-.168-.335-.168-.227 0-.287 0-.335.156-.096.31-.418 1.447-1.1 1.447-.06 0-.168 0-.168-.215 0-.251.12-.562.275-.969.168-.442.706-1.854.706-2.535 0-.993-.706-1.352-1.65-1.352-.957 0-1.507.502-1.914.909-.263-.909-1.351-.909-1.603-.909s-1.04 0-1.83.825c-.239-.681-.956-.825-1.339-.825-.562 0-.861.407-1.017.646a4 4 0 0 0-.466 1.22c0 .167.155.167.335.167.287 0 .299-.012.383-.31.095-.395.31-1.292.717-1.292.144 0 .227.095.227.37 0 .228-.024.323-.071.515l-.85 3.408c-.047.18-.047.204-.047.263 0 .371.287.515.538.515.084 0 .598-.024.753-.646l.742-2.966c.084-.347.753-1.46 1.842-1.46.514 0 .514.455.514.682 0 .3-.048.503-.18 1.017l-.502 2.01c-.072.286-.191.765-.191.848 0 .371.287.515.538.515.144 0 .61-.06.765-.67l.73-2.942c.084-.347.765-1.46 1.842-1.46.514 0 .514.455.514.682 0 .718-.55 2.189-.765 2.727-.108.3-.144.419-.144.598 0 .67.61 1.065 1.256 1.065 1.244 0 1.83-1.615 1.83-1.866"/><path id="h" d="M7.834-1.77c0-.168-.156-.168-.335-.168-.287 0-.3.012-.383.311-.095.395-.31 1.292-.717 1.292-.144 0-.228-.096-.228-.37 0-.228.024-.324.072-.515l.825-3.313c.048-.18.048-.203.048-.263 0-.37-.287-.514-.538-.514-.155 0-.622.072-.765.67l-.826 3.36c-.048.216-.06.263-.394.598-.168.156-.467.347-.826.347-.598 0-.622-.562-.622-.825 0-.718.407-1.782.694-2.536.108-.299.168-.442.168-.645 0-.67-.61-1.065-1.256-1.065C1.507-5.406.92-3.79.92-3.54c0 .167.155.167.335.167.227 0 .287 0 .335-.155.095-.311.418-1.447 1.1-1.447.06 0 .167 0 .167.215 0 .251-.143.622-.215.79-.383 1.028-.717 1.889-.717 2.559 0 1.088.777 1.507 1.77 1.507.335 0 .837-.06 1.423-.61.227.418.765.61 1.232.61.562 0 .86-.407 1.016-.646a4 4 0 0 0 .467-1.22"/><path id="b" d="M4.808 1.555c.203 0 .419 0 .419-.24 0-.035 0-.06-.048-.19a7 7 0 0 1-.287-1.962h.598C5.526.215 6.83.263 7.044.263c1.46 0 1.603-1.913 1.603-2.69 0-1.4-.813-2.357-2.165-3.553-.909-.813-1.315-1.83-1.614-2.56-.024-.095-.12-.155-.216-.155-.167 0-.215.132-.239.203-.215.55-.67 1.687-1.578 2.488C1.435-4.76.658-3.79.658-2.428.658-1.53.849.263 2.26.263c.371 0 1.52-.12 1.555-1.1h.598a7.3 7.3 0 0 1-.299 2.01c-.036.095-.036.119-.036.143 0 .239.216.239.419.239z"/><path id="a" d="M5.526-1.997v-.347H4.318v-5.442c0-.227 0-.287-.168-.287-.096 0-.131 0-.227.144l-3.6 5.585v.347h3.145V-.91c0 .443-.024.562-.897.562h-.239V0c.275-.024 1.22-.024 1.555-.024s1.292 0 1.567.024v-.347h-.24c-.86 0-.896-.12-.896-.562v-1.088zm-1.998-.347H.622l2.906-4.51z"/><path id="d" d="M5.358-2.44c0-1.59-1.112-2.655-2.308-2.655-1.065 0-1.46.921-1.579 1.256v-.323c0-3.026 1.471-3.504 2.117-3.504.43 0 .861.131 1.088.49-.143 0-.598 0-.598.49 0 .263.18.49.49.49.3 0 .503-.179.503-.526 0-.621-.454-1.231-1.495-1.231C2.069-7.953.49-6.411.49-3.78.49-.49 1.926.25 2.942.25c1.304 0 2.416-1.136 2.416-2.69m-.98-.012c0 .61 0 1.148-.228 1.603-.299.574-.73.777-1.208.777-.753 0-1.112-.67-1.22-.92-.107-.312-.227-.898-.227-1.735 0-.945.43-2.129 1.507-2.129.658 0 1.005.443 1.184.85.191.442.191 1.04.191 1.554"/><path id="c" d="M5.358-2.045c0-1.1-.885-1.962-2.033-2.165 1.04-.299 1.71-1.172 1.71-2.105 0-.945-.98-1.638-2.14-1.638-1.197 0-2.082.73-2.082 1.602 0 .479.371.574.55.574.252 0 .539-.18.539-.538 0-.383-.287-.55-.55-.55-.072 0-.096 0-.132.012.454-.813 1.579-.813 1.638-.813.395 0 1.173.179 1.173 1.351 0 .227-.036.897-.383 1.411-.359.527-.766.563-1.089.574l-.358.036c-.204.012-.252.024-.252.132 0 .12.06.12.276.12h.55c1.016 0 1.47.837 1.47 1.985 0 1.567-.812 1.985-1.399 1.985-.574 0-1.554-.275-1.901-1.064.383.06.73-.156.73-.586a.565.565 0 0 0-.587-.586c-.287 0-.598.167-.598.622C.49-.622 1.555.25 2.882.25c1.424 0 2.476-1.088 2.476-2.296"/></defs><path fill="#fff" d="M15.323 78.749H43.67V39.063H15.323Z"/><path fill="none" stroke="#000" stroke-miterlimit="10" stroke-width=".3985" d="M15.323 78.749H43.67V39.063H15.323Z"/><g transform="translate(72 44.724)scale(1.0004)"><use xlink:href="#a" x="-52.540086" y="6.749709"/><use xlink:href="#b" x="-54.260781" y="21.201509"/></g><path fill="#fff" d="M54.3 78.749h28.347V39.063H54.3Z"/><path fill="none" stroke="#000" stroke-miterlimit="10" stroke-width=".3985" d="M54.3 78.749h28.347V39.063H54.3Z"/><g transform="translate(110.977 44.724)scale(1.0004)"><use xlink:href="#a" x="-52.540086" y="6.749709"/><use xlink:href="#b" x="-54.260781" y="21.201509"/></g><path fill="#fff" d="M93.277 78.749h28.347V39.063H93.277Z"/><path fill="none" stroke="#000" stroke-miterlimit="10" stroke-width=".3985" d="M93.277 78.749h28.347V39.063H93.277Z"/><g transform="translate(149.954 44.664)scale(1.0004)"><use xlink:href="#c" x="-52.540086" y="6.749709"/><use xlink:href="#b" x="-54.260781" y="21.201509"/></g><path fill="#fff" d="M132.254 78.749H160.6V39.063h-28.346Z"/><path fill="none" stroke="#000" stroke-miterlimit="10" stroke-width=".3985" d="M132.254 78.749H160.6V39.063h-28.346Z"/><g transform="translate(188.931 44.664)scale(1.0004)"><use xlink:href="#d" x="-52.540086" y="6.749709"/><use xlink:href="#b" x="-54.260781" y="21.201509"/></g><path fill="#fff" d="M171.23 78.749h28.347V39.063H171.23Z"/><path fill="none" stroke="#000" stroke-miterlimit="10" stroke-width=".3985" d="M171.23 78.749h28.347V39.063H171.23Z"/><g transform="translate(227.907 44.724)scale(1.0004)"><use xlink:href="#a" x="-52.540086" y="6.749709"/><use xlink:href="#b" x="-54.260781" y="21.201509"/></g><g fill="none" stroke="#999" stroke-miterlimit="10" stroke-width=".3985"><path d="M46.992 36.229v45.355h.997V36.229ZM49.981 36.229v45.355h.996V36.229ZM202.9 36.229v45.355h.996V36.229Z"/></g><path d="m68.473 32.827 1.682-4.468-1.682 1.466-1.682-1.466Z"/><path fill="none" stroke="#000" stroke-miterlimit="10" stroke-width=".3985" d="m68.473 32.827 1.682-4.468-1.682 1.466-1.682-1.466Z"/><g transform="translate(115.401 16.886)scale(1.0004)"><use xlink:href="#e" x="-56.699756" y="6.749709"/><use xlink:href="#f" x="-53.147636" y="6.749709"/><use xlink:href="#g" x="-48.889877" y="6.749709"/></g><path d="m203.333 32.827 1.682-4.468-1.682 1.466-1.681-1.466Z"/><path fill="none" stroke="#000" stroke-miterlimit="10" stroke-width=".3985" d="m203.333 32.827 1.682-4.468-1.682 1.466-1.681-1.466Z"/><use xlink:href="#h" x="-56.699756" y="6.749709" transform="translate(256.095 16.545)scale(1.0004)"/><path d="m68.473 84.986-1.682 4.468 1.682-1.466 1.682 1.466Z"/><path fill="none" stroke="#000" stroke-miterlimit="10" stroke-width=".3985" d="m68.473 84.986-1.682 4.468 1.682-1.466 1.682 1.466Z"/><use xlink:href="#i" x="-56.699756" y="6.749709" transform="translate(121.94 94.534)scale(1.0004)"/><path d="m203.333 84.986-1.681 4.468 1.681-1.466 1.682 1.466Z"/><path fill="none" stroke="#000" stroke-miterlimit="10" stroke-width=".3985" d="m203.333 84.986-1.681 4.468 1.681-1.466 1.682 1.466Z"/><use xlink:href="#j" x="-56.699756" y="6.749709" transform="translate(256.806 93.081)scale(1.0004)"/><path fill="#fff" d="M15.323 175.128H43.67v-39.685H15.323Z"/><path fill="none" stroke="#000" stroke-miterlimit="10" stroke-width=".3985" d="M15.323 175.128H43.67v-39.685H15.323Z"/><g transform="translate(72 141.103)scale(1.0004)"><use xlink:href="#a" x="-52.540086" y="6.749709"/><use xlink:href="#b" x="-54.260781" y="21.201509"/></g><path fill="#fff" d="M93.277 175.128h28.347v-39.685H93.277Z"/><path fill="none" stroke="#000" stroke-miterlimit="10" stroke-width=".3985" d="M93.277 175.128h28.347v-39.685H93.277Z"/><g transform="translate(149.954 141.043)scale(1.0004)"><use xlink:href="#c" x="-52.540086" y="6.749709"/><use xlink:href="#b" x="-54.260781" y="21.201509"/></g><path fill="#fff" d="M132.254 175.128H160.6v-39.685h-28.346Z"/><path fill="none" stroke="#000" stroke-miterlimit="10" stroke-width=".3985" d="M132.254 175.128H160.6v-39.685h-28.346Z"/><g transform="translate(188.931 141.043)scale(1.0004)"><use xlink:href="#d" x="-52.540086" y="6.749709"/><use xlink:href="#b" x="-54.260781" y="21.201509"/></g><path fill="#fff" d="M171.23 175.128h28.347v-39.685H171.23Z"/><path fill="none" stroke="#000" stroke-miterlimit="10" stroke-width=".3985" d="M171.23 175.128h28.347v-39.685H171.23Z"/><g transform="translate(227.907 141.103)scale(1.0004)"><use xlink:href="#a" x="-52.540086" y="6.749709"/><use xlink:href="#b" x="-54.260781" y="21.201509"/></g><path fill="#fff" d="M54.3 175.128h28.347v-39.685H54.3Z"/><path fill="none" stroke="#999" stroke-miterlimit="10" stroke-width=".3985" d="M54.3 175.128h28.347v-39.685H54.3Z"/><g fill="#999" transform="translate(110.977 141.103)scale(1.0004)"><use xlink:href="#a" x="-52.540086" y="6.749709"/><use xlink:href="#b" x="-54.260781" y="21.201509"/></g><g fill="none" stroke="#999" stroke-miterlimit="10" stroke-width=".3985"><path d="M46.992 132.608v45.355h.997v-45.355ZM49.981 132.608v45.355h37.98v-45.355ZM202.9 132.608v45.355h.996v-45.355Z"/></g><path d="m68.473 129.206 1.682-4.468-1.682 1.466-1.682-1.466Z"/><path fill="none" stroke="#000" stroke-miterlimit="10" stroke-width=".3985" d="m68.473 129.206 1.682-4.468-1.682 1.466-1.682-1.466Z"/><use xlink:href="#e" x="-56.699756" y="6.749709" transform="translate(123.112 114.377)scale(1.0004)"/><path d="m107.45 129.206 1.682-4.468-1.682 1.466-1.682-1.466Z"/><path fill="none" stroke="#000" stroke-miterlimit="10" stroke-width=".3985" d="m107.45 129.206 1.682-4.468-1.682 1.466-1.682-1.466Z"/><use xlink:href="#g" x="-56.699756" y="6.749709" transform="translate(158.281 112.924)scale(1.0004)"/><path d="m203.333 129.206 1.682-4.468-1.682 1.466-1.681-1.466Z"/><path fill="none" stroke="#000" stroke-miterlimit="10" stroke-width=".3985" d="m203.333 129.206 1.682-4.468-1.682 1.466-1.681-1.466Z"/><use xlink:href="#h" x="-56.699756" y="6.749709" transform="translate(256.095 112.924)scale(1.0004)"/><path fill="none" stroke="#000" stroke-miterlimit="10" stroke-width=".3985" d="M82.647 180.798c1.417 2.454 1.66 4.495 5.669 8.504s4.252 14.173 4.252 13.338"/><path d="m92.568 205.742 1.682-4.468-1.682 1.466-1.682-1.466Z"/><path fill="none" stroke="#000" stroke-miterlimit="10" stroke-width=".3985" d="m92.568 205.742 1.682-4.468-1.682 1.466-1.682-1.466ZM93.277 180.798c-1.418 2.454-1.66 4.495-5.67 8.504-4.008 4.008-4.252 14.173-4.252 13.338"/><path d="m83.355 205.742 1.682-4.468-1.682 1.466-1.682-1.466Z"/><path fill="none" stroke="#000" stroke-miterlimit="10" stroke-width=".3985" d="m83.355 205.742 1.682-4.468-1.682 1.466-1.682-1.466Z"/><path fill="#fff" d="M15.323 254.5H43.67v-39.686H15.323Z"/><path fill="none" stroke="#000" stroke-miterlimit="10" stroke-width=".3985" d="M15.323 254.5H43.67v-39.686H15.323Z"/><g transform="translate(72 220.474)scale(1.0004)"><use xlink:href="#a" x="-52.540086" y="6.749709"/><use xlink:href="#b" x="-54.260781" y="21.201509"/></g><path fill="#fff" d="M132.254 254.5H160.6v-39.686h-28.346Z"/><path fill="none" stroke="#000" stroke-miterlimit="10" stroke-width=".3985" d="M132.254 254.5H160.6v-39.686h-28.346Z"/><g transform="translate(188.931 220.415)scale(1.0004)"><use xlink:href="#d" x="-52.540086" y="6.749709"/><use xlink:href="#b" x="-54.260781" y="21.201509"/></g><path fill="#fff" d="M171.23 254.5h28.347v-39.686H171.23Z"/><path fill="none" stroke="#000" stroke-miterlimit="10" stroke-width=".3985" d="M171.23 254.5h28.347v-39.686H171.23Z"/><g transform="translate(227.907 220.474)scale(1.0004)"><use xlink:href="#a" x="-52.540086" y="6.749709"/><use xlink:href="#b" x="-54.260781" y="21.201509"/></g><path fill="#fff" d="M54.3 254.5h28.347v-39.686H54.3Z"/><path fill="none" stroke="#999" stroke-miterlimit="10" stroke-width=".3985" d="M54.3 254.5h28.347v-39.686H54.3Z"/><g fill="#999" transform="translate(110.977 220.415)scale(1.0004)"><use xlink:href="#c" x="-52.540086" y="6.749709"/><use xlink:href="#b" x="-54.260781" y="21.201509"/></g><path fill="#fff" d="M93.277 254.5h28.347v-39.686H93.277Z"/><path fill="none" stroke="#999" stroke-miterlimit="10" stroke-width=".3985" d="M93.277 254.5h28.347v-39.686H93.277Z"/><g fill="#999" transform="translate(149.954 220.474)scale(1.0004)"><use xlink:href="#a" x="-52.540086" y="6.749709"/><use xlink:href="#b" x="-54.260781" y="21.201509"/></g><g fill="none" stroke="#999" stroke-miterlimit="10" stroke-width=".3985"><path d="M49.981 211.979v45.355h37.98v-45.355ZM88.958 211.979v45.355h37.98v-45.355ZM202.9 211.979v45.355h.996v-45.355Z"/></g><path d="m107.45 208.577 1.682-4.468-1.682 1.466-1.682-1.466Z"/><path fill="none" stroke="#000" stroke-miterlimit="10" stroke-width=".3985" d="m107.45 208.577 1.682-4.468-1.682 1.466-1.682-1.466Z"/><use xlink:href="#e" x="-56.699756" y="6.749709" transform="translate(162.089 193.748)scale(1.0004)"/><path d="m146.427 208.577 1.682-4.468-1.682 1.466-1.682-1.466Z"/><path fill="none" stroke="#000" stroke-miterlimit="10" stroke-width=".3985" d="m146.427 208.577 1.682-4.468-1.682 1.466-1.682-1.466Z"/><use xlink:href="#g" x="-56.699756" y="6.749709" transform="translate(197.258 192.295)scale(1.0004)"/><path d="m203.333 208.577 1.682-4.468-1.682 1.466-1.681-1.466Z"/><path fill="none" stroke="#000" stroke-miterlimit="10" stroke-width=".3985" d="m203.333 208.577 1.682-4.468-1.682 1.466-1.681-1.466Z"/><use xlink:href="#h" x="-56.699756" y="6.749709" transform="translate(256.095 192.295)scale(1.0004)"/><path fill="none" stroke="#000" stroke-miterlimit="10" stroke-width=".3985" d="M160.6 260.169c1.418 2.454 1.66 4.495 5.67 8.504s4.252 14.173 4.252 13.339"/><path d="m170.522 285.113 1.682-4.468-1.682 1.466-1.682-1.466Z"/><path fill="none" stroke="#000" stroke-miterlimit="10" stroke-width=".3985" d="m170.522 285.113 1.682-4.468-1.682 1.466-1.682-1.466ZM171.23 260.169c-1.417 2.454-1.66 4.495-5.669 8.504s-4.252 14.173-4.252 13.339"/><path d="m161.31 285.113 1.681-4.468-1.682 1.466-1.682-1.466Z"/><path fill="none" stroke="#000" stroke-miterlimit="10" stroke-width=".3985" d="m161.31 285.113 1.681-4.468-1.682 1.466-1.682-1.466Z"/><path fill="#fff" d="M15.323 333.87H43.67v-39.685H15.323Z"/><path fill="none" stroke="#000" stroke-miterlimit="10" stroke-width=".3985" d="M15.323 333.87H43.67v-39.685H15.323Z"/><g transform="translate(72 299.845)scale(1.0004)"><use xlink:href="#a" x="-52.540086" y="6.749709"/><use xlink:href="#b" x="-54.260781" y="21.201509"/></g><path fill="#fff" d="M132.254 333.87H160.6v-39.685h-28.346Z"/><path fill="none" stroke="#000" stroke-miterlimit="10" stroke-width=".3985" d="M132.254 333.87H160.6v-39.685h-28.346Z"/><g transform="translate(188.931 299.845)scale(1.0004)"><use xlink:href="#a" x="-52.540086" y="6.749709"/><use xlink:href="#b" x="-54.260781" y="21.201509"/></g><path fill="#fff" d="M54.3 333.87h28.347v-39.685H54.3Z"/><path fill="none" stroke="#999" stroke-miterlimit="10" stroke-width=".3985" d="M54.3 333.87h28.347v-39.685H54.3Z"/><g fill="#999" transform="translate(110.977 299.786)scale(1.0004)"><use xlink:href="#c" x="-52.540086" y="6.749709"/><use xlink:href="#b" x="-54.260781" y="21.201509"/></g><path fill="#fff" d="M93.277 333.87h28.347v-39.685H93.277Z"/><path fill="none" stroke="#999" stroke-miterlimit="10" stroke-width=".3985" d="M93.277 333.87h28.347v-39.685H93.277Z"/><g fill="#999" transform="translate(149.954 299.845)scale(1.0004)"><use xlink:href="#a" x="-52.540086" y="6.749709"/><use xlink:href="#b" x="-54.260781" y="21.201509"/></g><path fill="#fff" d="M171.23 333.87h28.347v-39.685H171.23Z"/><path fill="none" stroke="#999" stroke-miterlimit="10" stroke-width=".3985" d="M171.23 333.87h28.347v-39.685H171.23Z"/><g fill="#999" transform="translate(227.907 299.786)scale(1.0004)"><use xlink:href="#d" x="-52.540086" y="6.749709"/><use xlink:href="#b" x="-54.260781" y="21.201509"/></g><g fill="none" stroke="#999" stroke-miterlimit="10" stroke-width=".3985"><path d="M49.981 291.35v45.355h37.98V291.35ZM88.958 291.35v45.355h37.98V291.35ZM166.912 291.35v45.355h37.98V291.35Z"/></g><path d="m107.45 287.948 1.682-4.468-1.682 1.466-1.682-1.466Z"/><path fill="none" stroke="#000" stroke-miterlimit="10" stroke-width=".3985" d="m107.45 287.948 1.682-4.468-1.682 1.466-1.682-1.466Z"/><use xlink:href="#e" x="-56.699756" y="6.749709" transform="translate(162.089 273.119)scale(1.0004)"/><path d="m146.427 287.948 1.682-4.468-1.682 1.466-1.682-1.466Z"/><path fill="none" stroke="#000" stroke-miterlimit="10" stroke-width=".3985" d="m146.427 287.948 1.682-4.468-1.682 1.466-1.682-1.466Z"/><use xlink:href="#g" x="-56.699756" y="6.749709" transform="translate(197.258 271.666)scale(1.0004)"/><path d="m185.404 287.948 1.682-4.468-1.682 1.466-1.682-1.466Z"/><path fill="none" stroke="#000" stroke-miterlimit="10" stroke-width=".3985" d="m185.404 287.948 1.682-4.468-1.682 1.466-1.682-1.466Z"/><use xlink:href="#h" x="-56.699756" y="6.749709" transform="translate(238.166 271.666)scale(1.0004)"/><path fill="#fff" d="M15.323 413.241H43.67v-39.685H15.323Z"/><path fill="none" stroke="#000" stroke-miterlimit="10" stroke-width=".3985" d="M15.323 413.241H43.67v-39.685H15.323Z"/><g transform="translate(72 379.216)scale(1.0004)"><use xlink:href="#a" x="-52.540086" y="6.749709"/><use xlink:href="#b" x="-54.260781" y="21.201509"/></g><path fill="#fff" d="M54.3 413.241h28.347v-39.685H54.3Z"/><path fill="none" stroke="#999" stroke-miterlimit="10" stroke-width=".3985" d="M54.3 413.241h28.347v-39.685H54.3Z"/><g fill="#999" transform="translate(110.977 379.157)scale(1.0004)"><use xlink:href="#c" x="-52.540086" y="6.749709"/><use xlink:href="#b" x="-54.260781" y="21.201509"/></g><path fill="#fff" d="M93.277 413.241h28.347v-39.685H93.277Z"/><path fill="none" stroke="#999" stroke-miterlimit="10" stroke-width=".3985" d="M93.277 413.241h28.347v-39.685H93.277Z"/><g fill="#999" transform="translate(149.954 379.216)scale(1.0004)"><use xlink:href="#a" x="-52.540086" y="6.749709"/><use xlink:href="#b" x="-54.260781" y="21.201509"/></g><path fill="#fff" d="M132.254 413.241H160.6v-39.685h-28.346Z"/><path fill="none" stroke="#999" stroke-miterlimit="10" stroke-width=".3985" d="M132.254 413.241H160.6v-39.685h-28.346Z"/><g fill="#999" transform="translate(188.931 379.216)scale(1.0004)"><use xlink:href="#a" x="-52.540086" y="6.749709"/><use xlink:href="#b" x="-54.260781" y="21.201509"/></g><path fill="#fff" d="M171.23 413.241h28.347v-39.685H171.23Z"/><path fill="none" stroke="#999" stroke-miterlimit="10" stroke-width=".3985" d="M171.23 413.241h28.347v-39.685H171.23Z"/><g fill="#999" transform="translate(227.907 379.157)scale(1.0004)"><use xlink:href="#d" x="-52.540086" y="6.749709"/><use xlink:href="#b" x="-54.260781" y="21.201509"/></g><g fill="none" stroke="#999" stroke-miterlimit="10" stroke-width=".3985"><path d="M49.981 370.721v45.355h37.98v-45.355ZM88.958 370.721v45.355h76.957v-45.355ZM166.912 370.721v45.355h37.98v-45.355Z"/></g><path d="m107.45 367.32 1.682-4.469-1.682 1.466-1.682-1.466Z"/><path fill="none" stroke="#000" stroke-miterlimit="10" stroke-width=".3985" d="m107.45 367.32 1.682-4.469-1.682 1.466-1.682-1.466Z"/><use xlink:href="#e" x="-56.699756" y="6.749709" transform="translate(162.089 352.49)scale(1.0004)"/><path d="m185.404 367.32 1.682-4.469-1.682 1.466-1.682-1.466Z"/><path fill="none" stroke="#000" stroke-miterlimit="10" stroke-width=".3985" d="m185.404 367.32 1.682-4.469-1.682 1.466-1.682-1.466Z"/><g transform="translate(230.395 349.926)scale(1.0004)"><use xlink:href="#g" x="-56.699756" y="6.749709"/><use xlink:href="#f" x="-45.409515" y="6.749709"/><use xlink:href="#h" x="-41.151756" y="6.749709"/></g></svg>