<svg xmlns="http://www.w3.org/2000/svg" xmlns:xlink="http://www.w3.org/1999/xlink" width="437.9pt" height="252.33pt" viewBox="0 0 437.9 252.33"><defs><path id="aw" d="M1.722-.263c.3.275.742.383 1.148.383.766 0 1.292-.515 1.567-.885.12.633.622.885 1.04.885q.54 0 .862-.646c.191-.407.359-1.136.359-1.184 0-.06-.048-.108-.12-.108-.108 0-.12.06-.167.24-.18.705-.407 1.458-.897 1.458-.347 0-.371-.31-.371-.55 0-.275.107-.705.191-1.064l.335-1.292c.048-.227.18-.765.24-.98.071-.288.203-.802.203-.85 0-.18-.144-.299-.323-.299-.108 0-.36.048-.455.407l-.837 3.325c-.06.239-.06.263-.215.454-.144.204-.61.85-1.364.85-.67 0-.885-.491-.885-1.053 0-.347.108-.766.156-.969l.538-2.153c.06-.227.155-.61.155-.681 0-.192-.155-.3-.31-.3-.108 0-.371.037-.467.42L.371 2.068c-.012.06-.036.132-.036.203 0 .18.143.3.323.3.347 0 .418-.276.502-.61z"/><path id="am" d="M2.2-.574a.584.584 0 0 0-.573-.586.584.584 0 0 0-.586.574c0 .347.287.586.574.586A.584.584 0 0 0 2.2-.574"/><path id="E" d="M2.464-3.504c.024-.072.323-.67.765-1.053a1.74 1.74 0 0 1 1.184-.478c.479 0 .646.359.646.837 0 .682-.49 2.045-.73 2.691-.107.287-.167.443-.167.658 0 .538.37.969.945.969 1.112 0 1.53-1.759 1.53-1.83 0-.06-.047-.108-.119-.108-.107 0-.12.036-.18.24C6.065-.599 5.61-.12 5.144-.12c-.12 0-.311-.012-.311-.394 0-.3.131-.658.203-.826.24-.657.742-1.997.742-2.679 0-.717-.419-1.255-1.328-1.255-1.064 0-1.626.753-1.842 1.052-.036-.682-.526-1.052-1.052-1.052-.383 0-.646.227-.85.634C.49-4.21.324-3.492.324-3.444s.048.107.131.107c.096 0 .108-.012.18-.287.191-.73.407-1.411.885-1.411.275 0 .37.191.37.55 0 .263-.119.73-.203 1.1l-.335 1.292c-.047.227-.179.765-.239.98C1.03-.8.897-.238.897-.178c0 .167.132.299.311.299a.46.46 0 0 0 .407-.252c.024-.06.131-.478.191-.717l.263-1.077z"/><path id="K" d="M2.404-4.808h1.1c.228 0 .347 0 .347-.215 0-.132-.072-.132-.31-.132H2.487L2.93-6.9c.048-.167.048-.191.048-.275 0-.191-.155-.299-.31-.299-.097 0-.372.036-.467.419l-.467 1.901H.61c-.24 0-.347 0-.347.227 0 .12.084.12.311.12H1.64L.849-1.65c-.096.418-.131.538-.131.693C.718-.395 1.112.12 1.782.12c1.208 0 1.854-1.747 1.854-1.83 0-.072-.048-.108-.12-.108-.024 0-.072 0-.095.048-.012.012-.024.024-.108.215C3.062-.957 2.512-.12 1.818-.12c-.359 0-.383-.299-.383-.562 0-.012 0-.239.036-.382z"/><path id="x" d="M5.669-1.064v-.67h-.263v.67c0 .681-.287.777-.455.777-.454 0-.454-.634-.454-.813v-2.093c0-.646 0-1.125-.526-1.591-.419-.383-.957-.55-1.483-.55-.981 0-1.735.646-1.735 1.423 0 .347.228.514.503.514.287 0 .49-.203.49-.49 0-.49-.43-.49-.61-.49.275-.503.85-.718 1.328-.718.55 0 1.256.455 1.256 1.53v.48C1.316-3.05.407-2.046.407-1.126c0 .946 1.1 1.245 1.83 1.245A1.63 1.63 0 0 0 3.79-.933c.048.562.419.993.933.993.251 0 .945-.168.945-1.124m-1.95-.622C3.72-.514 2.847-.12 2.333-.12c-.586 0-1.076-.43-1.076-1.004 0-1.579 2.033-1.722 2.464-1.746z"/><path id="Y" d="M4.856-1.423c0-.108-.084-.108-.12-.108-.107 0-.12.036-.155.18-.263.849-.91 1.207-1.555 1.207-.73 0-1.698-.633-1.698-2.451 0-1.986 1.016-2.476 1.614-2.476.455 0 1.112.18 1.388.646-.144 0-.587 0-.587.49 0 .287.204.49.49.49.276 0 .503-.167.503-.514 0-.801-.837-1.375-1.806-1.375C1.53-5.334.42-4.09.42-2.584.419-1.051 1.567.12 2.919.12c1.578 0 1.937-1.436 1.937-1.543"/><path id="ab" d="M8.288-4.007c0-2.308-1.614-4.162-3.6-4.162H.502v.347h.24c.86 0 .897.12.897.562v6.351c0 .443-.036.562-.897.562h-.24V0h4.186c1.998 0 3.6-1.794 3.6-4.007M7.2-4.019c0 .67-.012 1.794-.694 2.68-.394.502-1.112.992-2.117.992H3.134c-.527 0-.55-.084-.55-.478v-6.518c0-.395.023-.479.55-.479h1.255c.993 0 1.782.479 2.273 1.268.538.85.538 2.057.538 2.535"/><path id="H" d="M6.16 0v-.347c-.814 0-.91-.084-.91-.67V-8.3l-1.662.131v.347c.813 0 .909.084.909.67v2.643a1.86 1.86 0 0 0-1.495-.765C1.615-5.274.419-4.102.419-2.571c0 1.519 1.136 2.69 2.451 2.69.91 0 1.436-.597 1.603-.825V.12zM4.472-1.4c0 .216 0 .252-.167.515-.287.419-.778.765-1.376.765-.31 0-1.602-.12-1.602-2.44 0-.86.143-1.339.406-1.734.24-.37.718-.741 1.316-.741.741 0 1.16.538 1.28.73.143.203.143.227.143.442z"/><path id="D" d="M4.868-1.423c0-.072-.06-.12-.132-.12-.096 0-.12.06-.143.12C4.282-.42 3.48-.143 2.978-.143s-1.71-.335-1.71-2.404v-.228H4.58c.263 0 .287 0 .287-.227 0-1.208-.646-2.332-2.093-2.332C1.41-5.334.359-4.102.359-2.62.359-1.041 1.579.12 2.906.12c1.424 0 1.962-1.292 1.962-1.543m-.742-1.579H1.28c.095-1.878 1.148-2.093 1.483-2.093 1.28 0 1.351 1.686 1.363 2.093"/><path id="V" d="M6.231 0v-.347c-.598 0-.897 0-.909-.359v-2.2c0-1.113 0-1.447-.275-1.83-.347-.467-.909-.538-1.315-.538-1.029 0-1.507.777-1.675 1.148h-.012V-8.3L.383-8.17v.347c.813 0 .909.084.909.67v6.267c0 .538-.132.538-.91.538V0c.312-.024.958-.024 1.292-.024.347 0 .993 0 1.304.024v-.347c-.765 0-.909 0-.909-.538V-3.11c0-1.255.825-1.925 1.567-1.925s.909.61.909 1.34v2.81c0 .538-.132.538-.91.538V0c.312-.024.958-.024 1.293-.024.346 0 .992 0 1.303.024"/><path id="S" d="M3.241-2.26v-.646H.131v.646z"/><path id="B" d="M2.882 0v-.347c-.777 0-.825-.06-.825-.526v-4.401l-1.626.131v.347c.765 0 .873.072.873.658v3.253c0 .538-.132.538-.91.538V0c.336-.024.91-.024 1.256-.024.132 0 .826 0 1.232.024m-.67-7.224a.58.58 0 1 0-.586.574.576.576 0 0 0 .587-.574"/><path id="Z" d="M5.98 0v-.347c-.323 0-.694 0-1.029-.49L3.35-3.17l-.084-.12c0-.036.754-.682.85-.777.824-.718 1.35-.73 1.602-.742v-.347c-.24.024-.55.024-.91.024-.31 0-.92 0-1.195-.024v.347c.203.012.347.12.347.311 0 .24-.251.455-.251.455l-1.71 1.506V-8.3L.334-8.17v.347c.813 0 .909.084.909.67v6.267c0 .538-.132.538-.91.538V0c.336-.024.91-.024 1.269-.024s.933 0 1.267.024v-.347c-.765 0-.909 0-.909-.538v-1.268l.766-.67 1.148 1.65c.18.252.263.384.263.551 0 .215-.167.275-.418.275V0c.299-.024.885-.024 1.208-.024.514 0 .538 0 1.052.024"/><path id="F" d="M2.966 0v-.347c-.765 0-.909 0-.909-.538V-8.3L.395-8.17v.347c.813 0 .909.084.909.67v6.267c0 .538-.132.538-.91.538V0c.336-.024.922-.024 1.28-.024s.957 0 1.292.024"/><path id="J" d="M9.484 0v-.347c-.598 0-.897 0-.909-.359v-2.2c0-1.113 0-1.447-.275-1.83-.347-.467-.909-.538-1.315-.538-.993 0-1.495.717-1.687 1.184-.167-.921-.813-1.184-1.566-1.184-1.16 0-1.615.992-1.71 1.232h-.013v-1.232l-1.626.131v.347c.813 0 .909.084.909.67v3.241c0 .538-.132.538-.91.538V0c.312-.024.958-.024 1.292-.024.347 0 .993 0 1.304.024v-.347c-.765 0-.909 0-.909-.538V-3.11c0-1.255.825-1.925 1.567-1.925s.909.61.909 1.34v2.81c0 .538-.132.538-.91.538V0c.312-.024.958-.024 1.293-.024.346 0 .992 0 1.303.024v-.347c-.765 0-.909 0-.909-.538V-3.11c0-1.255.825-1.925 1.567-1.925s.909.61.909 1.34v2.81c0 .538-.132.538-.909.538V0c.31-.024.957-.024 1.292-.024.346 0 .992 0 1.303.024"/><path id="R" d="M5.49-2.56c0-1.542-1.172-2.774-2.56-2.774C1.495-5.334.36-4.066.36-2.56.359-1.03 1.555.12 2.919.12c1.41 0 2.57-1.172 2.57-2.68m-.91-.107c0 .419 0 1.16-.31 1.722a1.56 1.56 0 0 1-1.34.801c-.442 0-.98-.19-1.327-.777-.323-.538-.335-1.244-.335-1.746 0-.455 0-1.184.37-1.722a1.53 1.53 0 0 1 1.28-.706c.467 0 .969.215 1.292.682.37.55.37 1.303.37 1.746"/><path id="G" d="M6.076-2.583c0-1.52-1.125-2.691-2.428-2.691-1.053 0-1.615.753-1.65.801v-.801l-1.663.131v.347c.837 0 .909.084.909.61v5.621c0 .538-.132.538-.91.538v.347c.312-.024.958-.024 1.293-.024.346 0 .992 0 1.303.024v-.347c-.765 0-.909 0-.909-.538v-2.08c.216.298.706.765 1.471.765 1.376 0 2.584-1.16 2.584-2.703m-.91 0c0 1.423-.813 2.463-1.733 2.463a1.4 1.4 0 0 1-.957-.382c-.275-.275-.455-.515-.455-.85v-2.463c0-.227 0-.24.132-.43a1.72 1.72 0 0 1 1.4-.766c.896 0 1.614 1.088 1.614 2.428"/><path id="aa" d="M3.887 2.906c0-.036 0-.06-.203-.263C2.488 1.435 1.818-.538 1.818-2.978c0-2.32.562-4.318 1.95-5.729.119-.108.119-.131.119-.167 0-.072-.06-.096-.108-.096-.155 0-1.136.861-1.722 2.033-.61 1.208-.885 2.488-.885 3.959 0 1.064.168 2.488.79 3.767.705 1.436 1.686 2.213 1.817 2.213.048 0 .108-.024.108-.096"/><path id="ac" d="M3.373-2.978c0-.909-.12-2.392-.79-3.78C1.878-8.192.897-8.97.765-8.97c-.047 0-.107.024-.107.096 0 .036 0 .06.203.263C2.057-7.403 2.727-5.43 2.727-2.99c0 2.32-.562 4.318-1.95 5.729-.12.107-.12.131-.12.167 0 .072.06.096.108.096.156 0 1.137-.861 1.723-2.033.61-1.22.885-2.512.885-3.947"/><path id="U" d="M2.2-.586a.58.58 0 0 0-.573-.574.577.577 0 0 0-.586.574.58.58 0 1 0 1.16 0"/><path id="W" d="M8.516.12c0-.12 0-.228-.12-.228-.096 0-.096.084-.108.168-.083.86-.67 1.148-1.088 1.148-.61 0-.885-.443-1.172-1.28C7.32-.634 8.456-2.129 8.456-4.054c0-2.476-1.818-4.366-3.9-4.366-2.128 0-3.91 1.914-3.91 4.366C.646-1.65 2.416.25 4.556.25c.395 0 .802-.072 1.125-.18.191 1.22.347 2.25 1.423 2.25 1.4 0 1.412-2.094 1.412-2.201M7.367-4.066c0 1.71-.526 2.942-1.483 3.612-.203-.598-.538-1.304-1.315-1.304-.598 0-.945.514-.945 1.005 0 .322.167.574.191.61-.885-.311-2.08-1.34-2.08-3.923 0-2.978 1.614-4.09 2.81-4.09 1.256 0 2.822 1.147 2.822 4.09M5.621-.287a2.3 2.3 0 0 1-1.064.275c-.515 0-.694-.466-.694-.753 0-.347.251-.754.706-.754.681 0 .92.562 1.052 1.232"/><path id="ax" d="M8.575-1.04c0-.072 0-.18-.131-.18-.12 0-.12.072-.132.191-.06.718-.406 1.041-.79 1.041-.55 0-.669-.562-.765-1.196l-.12-.897c-.083-.598-.13-.98-.49-1.352-.131-.131-.442-.454-1.1-.633 1.184-.275 2.105-1.029 2.105-1.95 0-1.16-1.351-2.153-3.074-2.153H.502v.347h.24c.86 0 .897.12.897.562v6.351c0 .443-.036.562-.897.562h-.24V0c.275-.024 1.256-.024 1.603-.024s1.34 0 1.615.024v-.347h-.24c-.86 0-.897-.12-.897-.562v-3.062h1.388c.466 0 .909.132 1.232.467.406.454.406.705.406 1.53 0 .945 0 1.256.526 1.77.18.18.682.455 1.352.455.933 0 1.088-1.04 1.088-1.292M6.04-6.017c0 1.04-.562 1.806-2.117 1.806h-1.34v-3.133c0-.276 0-.419.252-.467.107-.012.466-.012.705-.012.969 0 2.5 0 2.5 1.806"/><path id="y" d="M4.222-4.58c0-.36-.323-.694-.837-.694-1.017 0-1.364 1.1-1.436 1.327h-.011v-1.327l-1.603.131v.347c.813 0 .909.084.909.67v3.241c0 .538-.132.538-.91.538V0c.336-.024.994-.024 1.352-.024.323 0 1.172 0 1.448.024v-.347h-.24c-.873 0-.897-.131-.897-.562v-1.878c0-1.16.479-2.248 1.4-2.248.095 0 .12 0 .167.012-.096.048-.287.12-.287.442a.46.46 0 0 0 .466.479c.24 0 .479-.156.479-.479"/><path id="A" d="M4.21-1.519c0-.646-.395-1.028-.502-1.136-.431-.37-.754-.443-1.543-.586-.359-.072-1.232-.24-1.232-.957 0-.37.251-.92 1.327-.92 1.304 0 1.376 1.111 1.4 1.482.012.096.095.096.131.096.132 0 .132-.06.132-.275V-5.06c0-.215 0-.275-.12-.275-.095 0-.323.263-.406.37-.371-.298-.742-.37-1.125-.37-1.447 0-1.877.79-1.877 1.447 0 .132 0 .55.454.969.383.335.79.418 1.34.526.657.132.813.167 1.112.407.215.179.37.442.37.777 0 .514-.298 1.088-1.35 1.088C1.53-.12.956-.574.693-1.77c-.048-.215-.06-.24-.06-.24-.024-.047-.072-.047-.108-.047-.131 0-.131.06-.131.275v1.627c0 .215 0 .275.12.275.06 0 .071-.012.274-.264.06-.083.06-.107.24-.299.454.563 1.1.563 1.303.563C3.588.12 4.21-.574 4.21-1.52"/><path id="P" d="M8.025-5.442 7.81-8.109H.634L.419-5.442h.263c.167-1.89.275-2.32 2.164-2.32.216 0 .55 0 .646.024.24.036.251.18.251.454V-.92c0 .407 0 .574-1.172.574h-.43V0c.383-.024 1.614-.024 2.08-.024s1.711 0 2.094.024v-.347h-.43c-1.173 0-1.173-.167-1.173-.574v-6.363c0-.299.024-.406.216-.454.095-.024.442-.024.67-.024 1.889 0 1.997.43 2.164 2.32z"/><path id="I" d="M3.899-1.483v-.682h-.263v.658c0 .861-.347 1.363-.813 1.363-.814 0-.814-1.112-.814-1.315v-3.349h1.687v-.347H2.009v-2.2h-.263c-.012 1.124-.442 2.272-1.53 2.308v.24h1.016v3.324C1.232-.155 2.117.12 2.75.12c.753 0 1.148-.742 1.148-1.603"/><path id="X" d="M6.231 0v-.347c-.813 0-.909-.084-.909-.67v-4.257l-1.686.131v.347c.813 0 .909.084.909.67v2.14C4.545-.968 4.007-.12 3.11-.12c-.981 0-1.04-.562-1.04-1.196v-3.958l-1.687.131v.347c.909 0 .909.036.909 1.1v1.794c0 .742 0 1.172.358 1.567.288.311.778.455 1.388.455.203 0 .586 0 .993-.347.346-.275.538-.73.538-.73V.12z"/><path id="T" d="M5.956-4.808v-.347c-.347.024-.514.024-.885.024l-.98-.024v.347c.502.024.561.383.561.514 0 .108-.023.168-.083.311L3.349-.897 2.009-4.27c-.06-.167-.071-.167-.071-.227 0-.31.454-.31.67-.31v-.348c-.3.024-.922.024-1.245.024L.215-5.155v.347c.67 0 .79.048.933.419l1.71 4.281c.06.168.084.228.228.228.083 0 .155-.024.239-.228l1.555-3.91c.107-.264.31-.778 1.076-.79"/><path id="Q" d="M8.228-4.808v-.347c-.299.024-.514.024-.885.024l-1.016-.024v.347c.538.024.682.347.682.574 0 0 0 .096-.048.215L5.86-.885 4.663-4.27c-.06-.143-.06-.167-.06-.203 0-.335.443-.335.694-.335v-.347c-.335.024-.825.024-1.172.024L3.05-5.155v.347c.454 0 .61.024.741.18.06.071.204.466.287.705L3.062-1.005 1.914-4.258c-.06-.155-.06-.18-.06-.227 0-.323.466-.323.693-.323v-.347c-.299.024-.897.024-1.22.024L.216-5.155v.347c.61 0 .73.048.861.43L2.583-.095c.048.132.084.216.216.216.107 0 .167-.036.227-.228l1.196-3.408L5.418-.108c.06.192.12.228.227.228.132 0 .168-.084.215-.216l1.376-3.923c.263-.753.79-.777.992-.789"/><path id="z" d="M5.956-4.808v-.347c-.347.024-.514.024-.897.024l-.969-.024v.347c.443.024.55.3.55.514 0 .108-.023.168-.071.287L3.349-.993 2.02-4.246c-.072-.167-.072-.251-.072-.251 0-.31.42-.31.658-.31v-.348c-.31.024-.897.024-1.232.024l-1.16-.024v.347c.694 0 .79.06.945.43L2.942 0c-.526 1.268-.526 1.292-.574 1.387-.203.36-.526.814-1.064.814-.371 0-.598-.216-.598-.216s.418-.047.418-.466a.433.433 0 0 0-.442-.443c-.204 0-.455.12-.455.467 0 .454.443.897 1.077.897.67 0 1.16-.586 1.47-1.34l2.07-5.095c.323-.801.885-.813 1.112-.813"/><path id="C" d="M4.7-2.2h-.263C4.33-.838 4.127-.264 2.703-.264H1.256l3.3-4.557c.108-.131.108-.155.108-.203 0-.132-.083-.132-.287-.132H.622L.49-3.253h.263c.072-1.22.3-1.663 1.603-1.663h1.387l-3.42 4.7C.323 0 .347 0 .61 0h3.899z"/><path id="aj" d="M5.27-.971v-.611h-.273v.611c0 .633-.273.698-.393.698-.36 0-.404-.49-.404-.545V-3c0-.458 0-.884-.392-1.288a2.08 2.08 0 0 0-1.495-.6c-.895 0-1.647.513-1.647 1.233 0 .327.218.513.501.513a.48.48 0 0 0 .502-.502c0-.13-.054-.49-.556-.502.294-.382.829-.502 1.178-.502.535 0 1.157.426 1.157 1.397v.403c-.557.033-1.32.066-2.008.393-.818.371-1.09.939-1.09 1.419C.35-.153 1.406.12 2.094.12a1.51 1.51 0 0 0 1.429-.95c.044.437.338.895.85.895.23 0 .896-.152.896-1.036m-1.822-.556C3.448-.491 2.662-.12 2.17-.12c-.534 0-.982-.382-.982-.927 0-.6.458-1.506 2.259-1.571z"/><path id="ag" d="M4.528-1.298c0-.11-.088-.131-.142-.131-.098 0-.12.065-.142.153C3.862-.153 2.88-.153 2.771-.153c-.545 0-.982-.327-1.233-.73-.327-.524-.327-1.244-.327-1.637h3.044c.24 0 .273 0 .273-.23 0-1.08-.59-2.138-1.953-2.138-1.266 0-2.27 1.124-2.27 2.488 0 1.462 1.146 2.52 2.4 2.52 1.332 0 1.823-1.211 1.823-1.418m-.72-1.451H1.222c.065-1.626.982-1.899 1.353-1.899 1.123 0 1.233 1.473 1.233 1.899"/><path id="ae" d="M5.837 0v-.338c-.567 0-.84 0-.851-.328v-2.083c0-.939 0-1.277-.338-1.67-.153-.185-.513-.403-1.146-.403-.916 0-1.396.654-1.57 1.047H1.92v-3.797l-1.57.12v.339c.763 0 .85.076.85.61v5.674c0 .49-.12.49-.85.49V0l1.232-.033L2.804 0v-.338c-.731 0-.851 0-.851-.491v-2.008c0-1.134.775-1.745 1.473-1.745.687 0 .807.589.807 1.21v2.543c0 .49-.12.49-.85.49V0l1.232-.033z"/><path id="ah" d="M3.011-2.04v-.633H.12v.633z"/><path id="al" d="M5.139-2.335c0-1.396-1.091-2.553-2.411-2.553-1.364 0-2.423 1.19-2.423 2.553A2.435 2.435 0 0 0 2.717.12a2.43 2.43 0 0 0 2.422-2.455m-.906-.087c0 .393 0 .982-.24 1.462-.24.49-.72.807-1.265.807-.47 0-.95-.229-1.244-.73-.273-.48-.273-1.146-.273-1.539 0-.426 0-1.015.262-1.495a1.46 1.46 0 0 1 1.244-.73c.48 0 .949.24 1.232.708s.284 1.102.284 1.517"/><path id="af" d="M3.971-4.157c0-.349-.338-.665-.807-.665-.797 0-1.19.73-1.342 1.2v-1.2l-1.517.12v.338c.764 0 .851.076.851.611v2.924c0 .49-.12.49-.85.49V0l1.243-.033c.437 0 .95 0 1.386.033v-.338h-.23c-.807 0-.828-.12-.828-.513v-1.68c0-1.08.458-2.051 1.287-2.051.076 0 .098 0 .12.01a.47.47 0 0 0-.251.426c0 .306.23.47.47.47.195 0 .468-.132.468-.48"/><path id="ad" d="m7.473-4.931-.207-2.455H.6L.393-4.931h.273c.152-1.757.316-2.117 1.963-2.117.197 0 .48 0 .59.022.229.044.229.164.229.415v5.75c0 .37 0 .523-1.146.523h-.436V0c.447-.033 1.56-.033 2.062-.033S5.553-.033 6 0v-.338h-.437C4.42-.338 4.42-.491 4.42-.862v-5.75c0-.218 0-.37.196-.414.12-.022.415-.022.622-.022 1.647 0 1.81.36 1.964 2.117z"/><path id="ai" d="M7.67-4.364v-.338c-.24.022-.557.033-.797.033L5.86-4.702v.338c.392.01.632.207.632.524 0 .065 0 .087-.054.229L5.444-.818l-1.08-3.044c-.044-.131-.055-.153-.055-.207 0-.295.426-.295.644-.295v-.338l-1.135.033c-.327 0-.643-.011-.97-.033v.338c.403 0 .578.022.687.164.054.065.174.392.25.6L2.849-.96 1.81-3.873c-.054-.131-.054-.153-.054-.196 0-.295.425-.295.643-.295v-.338l-1.189.033-1.015-.033v.338c.546 0 .677.033.808.382L2.378-.12c.055.153.088.24.23.24s.163-.065.218-.218l1.102-3.088L5.04-.087c.044.12.077.207.219.207s.174-.098.218-.207l1.276-3.579c.197-.545.535-.687.917-.698"/><path id="ak" d="M5.542-4.364v-.338c-.25.022-.567.033-.818.033l-.95-.033v.338c.34.01.514.196.514.47 0 .108-.011.13-.066.261L3.12-.949 1.91-3.884c-.044-.11-.066-.153-.066-.196 0-.284.403-.284.61-.284v-.338l-1.188.033C.97-4.67.535-4.68.207-4.702v.338c.524 0 .731 0 .884.382L2.728 0l-.273.644c-.24.6-.546 1.353-1.244 1.353-.055 0-.305 0-.513-.197.338-.043.426-.284.426-.458A.44.44 0 0 0 .666.884c-.219 0-.459.142-.459.469 0 .49.459.884 1.004.884.687 0 1.135-.622 1.396-1.244l1.92-4.659c.284-.687.84-.698 1.015-.698"/><path id="r" d="M5.019-3.491c0-.873-.055-1.746-.437-2.553-.502-1.048-1.396-1.222-1.854-1.222-.655 0-1.452.284-1.899 1.298C.48-5.215.425-4.364.425-3.49c0 .818.044 1.8.491 2.63A2 2 0 0 0 2.716.24c.59 0 1.419-.23 1.899-1.266.35-.752.404-1.603.404-2.465M2.717 0C2.29 0 1.647-.273 1.45-1.32c-.12-.655-.12-1.658-.12-2.302 0-.698 0-1.418.087-2.008.208-1.298 1.026-1.396 1.299-1.396.36 0 1.08.196 1.287 1.276.11.611.11 1.44.11 2.128 0 .818 0 1.56-.12 2.258C3.828-.327 3.207 0 2.716 0"/><path id="u" d="m1.386-.84 1.156-1.124C4.244-3.469 4.899-4.059 4.899-5.15c0-1.243-.982-2.116-2.313-2.116a2.016 2.016 0 0 0-2.04 1.975c0 .61.545.61.578.61.185 0 .567-.13.567-.578a.55.55 0 0 0-.578-.567c-.087 0-.11 0-.142.011.25-.71.84-1.113 1.473-1.113.993 0 1.462.884 1.462 1.778 0 .873-.546 1.735-1.146 2.412L.666-.404c-.12.12-.12.142-.12.404h4.047L4.9-1.898h-.273c-.055.327-.131.807-.24.97-.077.088-.797.088-1.037.088z"/><path id="ar" d="M3.208-1.8v.949c0 .393-.022.513-.83.513H2.15V0c.448-.033 1.015-.033 1.473-.033s1.037 0 1.484.033v-.338h-.23c-.807 0-.828-.12-.828-.513v-.95h1.09v-.337h-1.09v-4.964c0-.219 0-.284-.175-.284-.098 0-.13 0-.218.13L.305-2.137v.338zm.065-.338H.611l2.662-4.07z"/><path id="t" d="M4.899-2.193c0-1.298-.895-2.39-2.073-2.39-.524 0-.993.175-1.386.557v-2.127c.218.065.578.142.927.142 1.342 0 2.106-.993 2.106-1.135 0-.066-.033-.12-.109-.12-.01 0-.033 0-.087.033a3.6 3.6 0 0 1-1.484.316c-.436 0-.938-.076-1.451-.305-.087-.033-.11-.033-.131-.033-.11 0-.11.087-.11.262v3.23c0 .195 0 .283.154.283.076 0 .098-.033.141-.098.12-.175.524-.764 1.408-.764.567 0 .84.502.927.698.175.404.197.83.197 1.375 0 .382 0 1.036-.262 1.494-.262.426-.666.71-1.168.71-.796 0-1.418-.579-1.603-1.222.032.01.065.021.185.021.36 0 .546-.272.546-.534s-.186-.535-.546-.535c-.153 0-.535.077-.535.578C.546-.818 1.299.24 2.52.24 3.786.24 4.9-.807 4.9-2.193"/><path id="aq" d="M1.44-3.578v-.262c0-2.76 1.353-3.153 1.91-3.153.261 0 .72.065.96.436-.164 0-.6 0-.6.491 0 .338.261.502.501.502.175 0 .502-.098.502-.524 0-.654-.48-1.178-1.385-1.178-1.397 0-2.87 1.407-2.87 3.818C.458-.535 1.724.24 2.738.24 3.95.24 4.986-.786 4.986-2.226c0-1.385-.971-2.433-2.182-2.433-.742 0-1.146.557-1.364 1.08M2.738-.065c-.687 0-1.014-.655-1.08-.819-.196-.512-.196-1.385-.196-1.582 0-.85.35-1.942 1.331-1.942.175 0 .676 0 1.015.677.196.403.196.96.196 1.494 0 .524 0 1.07-.185 1.462-.328.655-.83.71-1.08.71"/><path id="v" d="M5.193-6.644c.098-.131.098-.153.098-.382h-2.65c-1.332 0-1.354-.142-1.397-.35H.97l-.36 2.248h.273c.032-.174.13-.862.272-.993.077-.065.928-.065 1.07-.065h2.258c-.12.175-.982 1.364-1.222 1.724C2.28-2.99 1.92-1.472 1.92-.36c0 .11 0 .6.502.6s.502-.49.502-.6v-.556c0-.6.033-1.2.12-1.79.044-.25.196-1.189.676-1.865z"/><path id="au" d="M2.422-1.877c-.95 0-.95-1.09-.95-1.341 0-.295.012-.644.175-.917.088-.13.339-.436.775-.436.95 0 .95 1.09.95 1.342 0 .294-.012.643-.175.916-.088.131-.339.436-.775.436m-1.266.426c0-.044 0-.295.186-.513.425.306.873.338 1.08.338 1.015 0 1.767-.752 1.767-1.592 0-.404-.174-.808-.447-1.059.393-.37.786-.425.982-.425a.4.4 0 0 1 .11.01c-.12.044-.175.164-.175.295a.31.31 0 0 0 .316.317c.11 0 .316-.077.316-.328a.534.534 0 0 0-.556-.534c-.218 0-.698.065-1.157.513a1.82 1.82 0 0 0-1.156-.393C1.407-4.822.655-4.07.655-3.23c0 .48.24.894.512 1.123A1.5 1.5 0 0 0 .83-1.2c0 .338.142.753.48.97C.655-.043.305.426.305.863c0 .785 1.08 1.385 2.412 1.385 1.287 0 2.422-.556 2.422-1.407 0-.382-.153-.938-.71-1.244-.578-.305-1.21-.305-1.876-.305-.273 0-.742 0-.818-.011-.35-.044-.579-.382-.579-.731m1.572 3.448C1.626 1.997.873 1.44.873.862c0-.502.414-.906.894-.938h.644c.938 0 2.16 0 2.16.938 0 .589-.774 1.135-1.843 1.135"/><path id="as" d="m1.931-7.572-1.571.12v.339c.764 0 .851.076.851.61v5.674c0 .49-.12.49-.851.49V0c.36-.01.938-.033 1.211-.033S2.378-.01 2.782 0v-.338c-.73 0-.85 0-.85-.491z"/><path id="at" d="M5.139-2.335c0-1.396-1.091-2.553-2.411-2.553-1.364 0-2.423 1.19-2.423 2.553A2.435 2.435 0 0 0 2.717.12a2.43 2.43 0 0 0 2.422-2.455M2.728-.153c-.47 0-.95-.229-1.244-.73-.273-.48-.273-1.146-.273-1.539 0-.426 0-1.015.262-1.495a1.46 1.46 0 0 1 1.244-.73c.48 0 .949.24 1.232.708s.284 1.102.284 1.517c0 .393 0 .982-.24 1.462-.24.49-.72.807-1.265.807"/><path id="e" d="M2.503-5.077c0-.215-.016-.223-.232-.223-.326.319-.749.51-1.506.51v.263c.215 0 .646 0 1.108-.215v4.088c0 .295-.024.391-.781.391h-.28V0c.328-.024 1.013-.024 1.372-.024s1.052 0 1.379.024v-.263h-.28c-.757 0-.78-.096-.78-.39z"/><path id="av" d="M2.248-1.626c.127-.12.462-.382.59-.494.493-.454.964-.893.964-1.618 0-.948-.797-1.562-1.794-1.562-.956 0-1.586.725-1.586 1.435 0 .39.311.446.423.446a.41.41 0 0 0 .414-.423c0-.414-.398-.414-.494-.414a1.23 1.23 0 0 1 1.156-.781c.741 0 1.124.63 1.124 1.3 0 .828-.582 1.434-1.523 2.398L.518-.303C.422-.215.422-.199.422 0h3.149l.23-1.427h-.246c-.024.16-.088.558-.184.71-.048.063-.653.063-.78.063H1.17z"/><path id="f" d="M2.016-2.662c.63 0 1.029.462 1.029 1.3 0 .995-.566 1.29-.989 1.29-.438 0-1.036-.16-1.315-.582.287 0 .486-.183.486-.446a.423.423 0 0 0-.438-.438c-.215 0-.438.135-.438.454 0 .757.813 1.251 1.721 1.251 1.06 0 1.801-.733 1.801-1.53 0-.661-.526-1.267-1.339-1.442.63-.224 1.1-.766 1.1-1.403S2.917-5.3 2.088-5.3C1.235-5.3.59-4.838.59-4.232c0 .295.199.422.406.422a.39.39 0 0 0 .407-.406c0-.295-.255-.407-.43-.415.334-.438.948-.462 1.091-.462.207 0 .813.064.813.885 0 .558-.231.892-.343 1.02-.239.247-.422.263-.908.295-.152.008-.215.016-.215.12 0 .111.071.111.207.111z"/><path id="ao" d="M3.14-5.157c0-.159 0-.223-.167-.223-.104 0-.112.008-.191.12L.239-1.57v.263h2.248v.661c0 .295-.024.383-.638.383h-.183V0c.677-.024.693-.024 1.147-.024s.47 0 1.148.024v-.263h-.183c-.614 0-.638-.088-.638-.383v-.661h.845v-.263H3.14zm-.598.646v2.94H.518z"/><path id="g" d="M1.116-4.48c.103.033.422.112.757.112.996 0 1.602-.7 1.602-.82 0-.088-.056-.112-.096-.112-.016 0-.032 0-.103.04-.311.12-.678.215-1.108.215-.47 0-.86-.12-1.108-.215C.98-5.3.964-5.3.956-5.3c-.103 0-.103.088-.103.231v2.335c0 .144 0 .24.127.24.064 0 .088-.032.128-.096.095-.12.398-.526 1.076-.526.446 0 .661.366.733.518.136.287.151.653.151.964 0 .295-.008.725-.23 1.076a1.07 1.07 0 0 1-.893.486A1.295 1.295 0 0 1 .733-.917c.024.008.072.008.08.008.223 0 .398-.143.398-.39 0-.295-.23-.399-.39-.399-.144 0-.399.08-.399.423 0 .717.622 1.442 1.539 1.442.996 0 1.84-.773 1.84-1.761 0-.925-.669-1.745-1.61-1.745-.398 0-.772.127-1.075.398z"/><path id="n" d="M1.1-2.638c0-.662.056-1.243.343-1.73.239-.398.645-.725 1.147-.725.16 0 .526.024.71.303-.36.016-.39.287-.39.375-.001.239.182.374.374.374.143 0 .374-.087.374-.39 0-.479-.358-.869-1.076-.869C1.474-5.3.351-4.248.351-2.526.35-.366 1.355.167 2.128.167c.383 0 .797-.103 1.156-.446.318-.31.59-.646.59-1.339 0-1.044-.79-1.777-1.674-1.777-.574 0-.917.366-1.1.757M2.128-.072c-.422 0-.685-.295-.805-.518-.183-.358-.2-.9-.2-1.203 0-.79.431-1.38 1.045-1.38.398 0 .637.208.789.487.167.295.167.654.167 1.06s0 .757-.16 1.044c-.206.367-.485.51-.836.51"/><path id="c" d="M4.033-4.854c.072-.087.072-.103.072-.279H2.08c-.2 0-.446-.008-.645-.024-.415-.031-.423-.103-.447-.23H.741l-.27 1.68h.246c.016-.119.104-.669.215-.732.088-.04.686-.04.805-.04h1.69l-.82 1.1c-.91 1.211-1.1 2.47-1.1 3.1 0 .08 0 .446.374.446s.375-.358.375-.454v-.382c0-1.148.19-2.089.581-2.607z"/><path id="d" d="M3.124-2.351c0 1.945-.924 2.28-1.387 2.28-.167 0-.581-.025-.797-.272.351-.032.375-.295.375-.374a.364.364 0 0 0-.375-.375c-.143 0-.374.088-.374.39 0 .543.446.87 1.18.87 1.091 0 2.127-1.085 2.127-2.79 0-2.072-.916-2.678-1.737-2.678-.94 0-1.785.733-1.785 1.777 0 1.028.773 1.778 1.673 1.778.566 0 .909-.36 1.1-.766zm-1.068.382c-.366 0-.597-.167-.773-.462C1.1-2.726 1.1-3.108 1.1-3.515c0-.47 0-.805.215-1.132.2-.286.454-.446.829-.446.534 0 .765.526.789.566.167.39.175 1.012.175 1.172 0 .63-.342 1.386-1.052 1.386"/><path id="s" d="M2.095-.578c0-.317-.262-.578-.579-.578s-.578.261-.578.578S1.2 0 1.516 0s.579-.262.579-.578"/><path id="w" d="M.96-.644c-.033.164-.098.415-.098.47 0 .196.153.294.316.294.131 0 .328-.087.404-.305.01-.022.142-.535.207-.808l.24-.982c.066-.24.131-.48.186-.73.043-.186.13-.503.142-.546.163-.338.741-1.331 1.778-1.331.49 0 .589.403.589.764 0 .676-.535 2.072-.71 2.542-.097.25-.108.381-.108.501 0 .513.382.895.894.895 1.026 0 1.43-1.593 1.43-1.68 0-.11-.099-.11-.131-.11-.11 0-.11.033-.164.197C5.717-.73 5.357-.12 4.822-.12c-.185 0-.262-.11-.262-.36 0-.273.099-.535.197-.775.207-.578.665-1.778.665-2.4 0-.73-.469-1.167-1.254-1.167-.982 0-1.517.698-1.702.949-.055-.611-.502-.95-1.004-.95s-.71.426-.818.623a5.5 5.5 0 0 0-.328 1.058c0 .109.11.109.131.109.11 0 .12-.01.186-.25.185-.776.403-1.3.796-1.3.218 0 .338.143.338.503 0 .229-.032.349-.174.916z"/><path id="p" d="M2.247-4.364h1.026c.218 0 .327 0 .327-.218 0-.12-.109-.12-.305-.12h-.96c.393-1.55.447-1.768.447-1.833 0-.186-.13-.295-.316-.295-.033 0-.339.011-.437.393l-.425 1.735H.578c-.218 0-.327 0-.327.207 0 .131.087.131.305.131h.96C.731-1.266.687-1.08.687-.884c0 .59.415 1.004 1.004 1.004 1.113 0 1.735-1.593 1.735-1.68 0-.11-.088-.11-.131-.11-.098 0-.11.033-.164.154C2.662-.382 2.084-.12 1.713-.12c-.23 0-.338-.142-.338-.502 0-.262.021-.338.065-.524z"/><path id="l" d="M2.296-2.99c0-.347-.287-.634-.634-.634s-.633.287-.633.634.287.634.633.634.634-.287.634-.634"/><path id="a" d="M8.635-3.995c0-.263-.072-.382-.167-.382-.06 0-.156.083-.168.31-.048 1.149-.837 1.807-1.674 1.807-.754 0-1.328-.515-1.914-1.029-.61-.55-1.232-1.1-2.045-1.1-1.304 0-2.01 1.315-2.01 2.404 0 .382.156.382.168.382.132 0 .168-.239.168-.275.048-1.315.945-1.842 1.674-1.842.754 0 1.328.515 1.914 1.029.61.55 1.232 1.1 2.045 1.1 1.303 0 2.01-1.315 2.01-2.404"/><path id="h" d="M5.358-3.827c0-.993-.06-1.962-.49-2.87-.49-.993-1.352-1.256-1.938-1.256-.693 0-1.543.346-1.985 1.34C.61-5.86.49-5.12.49-3.828c0 1.16.084 2.033.515 2.882A2.13 2.13 0 0 0 2.918.251c1.04 0 1.639-.622 1.986-1.315.43-.897.454-2.07.454-2.763M2.918.012c-.382 0-1.16-.215-1.387-1.519-.132-.718-.132-1.627-.132-2.464 0-.98 0-1.865.192-2.571.203-.801.813-1.172 1.327-1.172.455 0 1.148.275 1.376 1.303.155.682.155 1.627.155 2.44 0 .802 0 1.71-.131 2.44C4.09-.215 3.337.012 2.918.012"/><path id="m" d="M3.444-7.666c0-.275 0-.287-.239-.287-.287.323-.885.765-2.117.765v.347c.275 0 .873 0 1.531-.311v6.231c0 .43-.036.574-1.088.574h-.37V0c.322-.024 1.482-.024 1.877-.024s1.543 0 1.866.024v-.347h-.371C3.48-.347 3.444-.49 3.444-.92z"/><path id="b" d="M5.262-2.01H5c-.036.204-.131.862-.25 1.053-.085.108-.766.108-1.125.108H1.41c.323-.275 1.053-1.04 1.364-1.328 1.818-1.674 2.487-2.296 2.487-3.48 0-1.375-1.088-2.296-2.475-2.296S.586-6.77.586-5.741c0 .61.526.61.562.61.251 0 .562-.18.562-.562 0-.335-.227-.562-.562-.562-.107 0-.131 0-.167.012.227-.813.873-1.364 1.65-1.364 1.017 0 1.639.85 1.639 1.95 0 1.017-.586 1.902-1.268 2.667L.586-.287V0h4.365z"/><path id="i" d="M4.318-7.786c0-.227 0-.287-.168-.287-.096 0-.131 0-.227.144l-3.6 5.585v.347h3.145V-.91c0 .443-.024.562-.897.562h-.239V0c.275-.024 1.22-.024 1.555-.024s1.292 0 1.567.024v-.347h-.24c-.86 0-.896-.12-.896-.562v-1.088h1.208v-.347H4.318zm-.79.933v4.509H.622z"/><path id="an" d="M1.53-6.853c.515.167.934.18 1.065.18 1.352 0 2.213-.993 2.213-1.16 0-.049-.024-.108-.096-.108-.024 0-.048 0-.155.047a3.9 3.9 0 0 1-1.555.323c-.79 0-1.352-.239-1.579-.335-.083-.035-.107-.035-.12-.035-.095 0-.095.071-.095.263v3.552c0 .215 0 .287.143.287.06 0 .072-.012.192-.156.335-.49.897-.777 1.495-.777.634 0 .945.586 1.04.79.204.466.216 1.052.216 1.506s0 1.136-.335 1.675c-.263.43-.73.73-1.256.73-.79 0-1.567-.539-1.782-1.412.06.024.131.036.191.036.204 0 .527-.12.527-.526 0-.335-.228-.527-.527-.527-.215 0-.526.108-.526.574 0 1.017.813 2.177 2.14 2.177 1.352 0 2.536-1.136 2.536-2.655 0-1.423-.956-2.607-2.212-2.607-.682 0-1.208.299-1.52.634z"/><path id="j" d="M1.471-4.162c0-3.026 1.471-3.504 2.117-3.504.43 0 .861.131 1.088.49-.143 0-.598 0-.598.49 0 .263.18.49.49.49.3 0 .503-.179.503-.526 0-.621-.454-1.231-1.495-1.231C2.069-7.953.49-6.411.49-3.78.49-.49 1.926.25 2.942.25c1.304 0 2.416-1.136 2.416-2.69 0-1.592-1.112-2.656-2.308-2.656-1.065 0-1.46.921-1.579 1.256zm1.471 4.09c-.753 0-1.112-.67-1.22-.92-.107-.312-.227-.898-.227-1.735 0-.945.43-2.129 1.507-2.129.658 0 1.005.443 1.184.85.191.442.191 1.04.191 1.554 0 .61 0 1.148-.227 1.603-.299.574-.73.777-1.208.777"/><path id="k" d="M3.564-4.318c.598-.322 1.471-.873 1.471-1.877 0-1.04-1.004-1.758-2.105-1.758-1.184 0-2.117.873-2.117 1.961 0 .407.12.813.455 1.22.131.155.143.167.98.753C1.088-3.48.49-2.679.49-1.806.49-.538 1.698.251 2.918.251c1.328 0 2.44-.98 2.44-2.236 0-1.22-.861-1.758-1.794-2.333M1.938-5.394c-.156-.108-.634-.419-.634-1.005 0-.777.813-1.267 1.614-1.267.861 0 1.627.622 1.627 1.483 0 .73-.526 1.315-1.22 1.698zM2.5-3.851l1.447.945c.31.203.86.574.86 1.303 0 .91-.92 1.531-1.877 1.531-1.016 0-1.89-.741-1.89-1.734 0-.933.682-1.686 1.46-2.045"/><path id="L" d="M2.99 2.99v-.443H1.83V-8.527h1.16v-.443H1.387V2.99z"/><path id="O" d="M1.854-8.97H.25v.443h1.16V2.547H.251v.443h1.603z"/><path id="M" d="M5.322-2.906c0-1.113 0-1.447-.275-1.83-.347-.467-.909-.538-1.315-.538-1.16 0-1.615.992-1.71 1.232h-.013v-1.232l-1.626.131v.347c.813 0 .909.084.909.67v3.241c0 .538-.132.538-.91.538V0c.312-.024.958-.024 1.292-.024.347 0 .993 0 1.304.024v-.347c-.765 0-.909 0-.909-.538V-3.11c0-1.255.825-1.925 1.567-1.925s.909.61.909 1.34v2.81c0 .538-.132.538-.91.538V0c.312-.024.958-.024 1.293-.024.346 0 .992 0 1.303.024v-.347c-.598 0-.897 0-.909-.359z"/><path id="N" d="M3.923-5.06c0-.214 0-.274-.12-.274-.095 0-.323.263-.406.37-.371-.298-.742-.37-1.125-.37-1.447 0-1.877.79-1.877 1.447 0 .132 0 .55.454.969.383.335.79.418 1.34.526.657.132.813.167 1.112.407.215.179.37.442.37.777 0 .514-.298 1.088-1.35 1.088C1.53-.12.956-.574.693-1.77c-.048-.215-.048-.227-.06-.24-.024-.047-.072-.047-.108-.047-.131 0-.131.06-.131.275v1.627c0 .215 0 .275.12.275.06 0 .071-.012.274-.264.06-.083.06-.107.24-.299.454.563 1.1.563 1.303.563C3.588.12 4.21-.574 4.21-1.52c0-.646-.395-1.028-.502-1.136-.431-.37-.754-.443-1.543-.586-.359-.072-1.232-.24-1.232-.957 0-.37.251-.92 1.327-.92 1.304 0 1.376 1.111 1.4 1.482.012.096.095.096.131.096.132 0 .132-.06.132-.275z"/><clipPath id="o"><path d="M45.484 204.935h153.595V51.347H45.484Z"/></clipPath><clipPath id="ap"><path d="M258.086 204.935h153.595V51.342H258.086Z"/></clipPath><use xlink:href="#a" id="q" transform="scale(.9122)"/></defs><g fill="none" stroke-miterlimit="10"><path stroke="gray" stroke-width=".19925" d="M58.272 204.935v-4.252m25.599 4.252v-4.252m25.598 4.252v-4.252m25.6 4.252v-4.252m25.598 4.252v-4.252m25.6 4.252v-4.252M58.271 51.347v4.252m25.599-4.252v4.252m25.598-4.252v4.252m25.6-4.252v4.252m25.598-4.252v4.252m25.6-4.252v4.252M45.484 192.136h4.25m-4.25-30.285h4.25m-4.25-30.286h4.25m-4.25-30.285h4.25m-4.25-30.285h4.25m149.345 121.141h-4.249m4.25-30.285h-4.25m4.25-30.286h-4.25m4.25-30.285h-4.25m4.25-30.285h-4.25"/><path stroke="#000" stroke-width=".3985" d="M45.484 204.935V51.347h153.595v153.588z"/></g><use xlink:href="#b" x="-69.19377" y="84.115759" transform="translate(122.145 134.511)scale(1.0004)"/><use xlink:href="#c" x="-63.312206" y="79.742999" transform="matrix(.99999 0 0 .99999 122.145 134.511)"/><use xlink:href="#b" x="-69.19377" y="84.115759" transform="translate(147.744 134.511)scale(1.0004)"/><use xlink:href="#d" x="-63.312206" y="79.742999" transform="matrix(.99999 0 0 .99999 147.744 134.511)"/><use xlink:href="#b" x="-69.19377" y="84.115759" transform="translate(171.226 134.511)scale(1.0004)"/><g transform="matrix(.99999 0 0 .99999 171.226 134.511)"><use xlink:href="#e" x="-63.312206" y="79.742999"/><use xlink:href="#e" x="-59.080136" y="79.742999"/></g><use xlink:href="#b" x="-69.19377" y="84.115759" transform="translate(196.825 134.511)scale(1.0004)"/><g transform="matrix(.99999 0 0 .99999 196.825 134.511)"><use xlink:href="#e" x="-63.312206" y="79.742999"/><use xlink:href="#f" x="-59.080136" y="79.742999"/></g><use xlink:href="#b" x="-69.19377" y="84.115759" transform="translate(222.423 134.511)scale(1.0004)"/><g transform="matrix(.99999 0 0 .99999 222.423 134.511)"><use xlink:href="#e" x="-63.312206" y="79.742999"/><use xlink:href="#g" x="-59.080136" y="79.742999"/></g><use xlink:href="#b" x="-69.19377" y="84.115759" transform="translate(248.022 134.511)scale(1.0004)"/><g transform="matrix(.99999 0 0 .99999 248.022 134.511)"><use xlink:href="#e" x="-63.312206" y="79.742999"/><use xlink:href="#c" x="-59.080136" y="79.742999"/></g><use xlink:href="#h" x="-69.19377" y="84.115759" transform="translate(104.613 111.906)scale(1.0004)"/><use xlink:href="#b" x="-69.19377" y="84.115759" transform="translate(104.613 81.621)scale(1.0004)"/><use xlink:href="#i" x="-69.19377" y="84.115759" transform="translate(104.613 51.336)scale(1.0004)"/><use xlink:href="#j" x="-69.19377" y="84.115759" transform="translate(104.613 21.05)scale(1.0004)"/><use xlink:href="#k" x="-69.19377" y="84.115759" transform="translate(104.613 -9.235)scale(1.0004)"/><g transform="translate(118.436 -37.542)scale(1.0004)"><use xlink:href="#l" x="-69.19377" y="84.115759"/><use xlink:href="#m" x="-65.871437" y="84.115759"/><use xlink:href="#h" x="-60.022999" y="84.115759"/></g><use xlink:href="#n" x="-54.138321" y="79.742999" transform="matrix(.99999 0 0 .99999 118.436 -37.542)"/><g clip-path="url(#o)"><path fill="none" stroke="#000" stroke-miterlimit="10" stroke-width=".3985" d="M58.284 192.135H68.95l5.333-.002h5.333l5.333-.001 5.333-.002 5.333-.002 5.333-.002 5.333-.004 5.333-.004 5.333-.007 5.333-.008 5.333-.01 5.333-.015 5.334-.02 5.333-.026 5.333-.035 5.333-.046 5.333-.062 5.333-.083 5.333-.11 5.333-.147 5.333-.197 5.333-.262"/><g transform="translate(139.014 99.184)scale(1.00008)"><use xlink:href="#p" x="-69.171706" y="84.088937"/><use xlink:href="#q" x="-62.201131" y="84.088937"/><use xlink:href="#r" x="-50.685181" y="84.088937"/><use xlink:href="#s" x="-45.230731" y="84.088937"/><use xlink:href="#t" x="-42.199485" y="84.088937"/><use xlink:href="#u" x="-36.744487" y="84.088937"/><use xlink:href="#v" x="-31.289487" y="84.088937"/><use xlink:href="#w" x="-25.835134" y="84.088937"/></g></g><path d="M59.405 192.135a1.12 1.12 0 1 0-2.242 0 1.12 1.12 0 0 0 2.242 0"/><path fill="none" stroke="#000" stroke-miterlimit="10" stroke-width=".3985" d="M59.405 192.135a1.12 1.12 0 1 0-2.242 0 1.12 1.12 0 0 0 2.242 0Z"/><path d="M72.204 192.134a1.12 1.12 0 1 0-2.241 0 1.12 1.12 0 0 0 2.241 0"/><path fill="none" stroke="#000" stroke-miterlimit="10" stroke-width=".3985" d="M72.204 192.134a1.12 1.12 0 1 0-2.241 0 1.12 1.12 0 0 0 2.241 0Z"/><path d="M85.004 192.132a1.12 1.12 0 1 0-2.241 0 1.12 1.12 0 0 0 2.241 0"/><path fill="none" stroke="#000" stroke-miterlimit="10" stroke-width=".3985" d="M85.004 192.132a1.12 1.12 0 1 0-2.241 0 1.12 1.12 0 0 0 2.241 0Z"/><path d="M97.804 192.128a1.12 1.12 0 1 0-2.242 0 1.12 1.12 0 0 0 2.242 0"/><path fill="none" stroke="#000" stroke-miterlimit="10" stroke-width=".3985" d="M97.804 192.128a1.12 1.12 0 1 0-2.242 0 1.12 1.12 0 0 0 2.242 0Z"/><path d="M110.603 192.12a1.12 1.12 0 1 0-2.242 0 1.12 1.12 0 0 0 2.242 0"/><path fill="none" stroke="#000" stroke-miterlimit="10" stroke-width=".3985" d="M110.603 192.12a1.12 1.12 0 1 0-2.242 0 1.12 1.12 0 0 0 2.242 0Z"/><path d="M123.402 192.103a1.12 1.12 0 1 0-2.242 0 1.12 1.12 0 0 0 2.242 0"/><path fill="none" stroke="#000" stroke-miterlimit="10" stroke-width=".3985" d="M123.402 192.103a1.12 1.12 0 1 0-2.242 0 1.12 1.12 0 0 0 2.242 0Z"/><path d="M136.201 192.072a1.12 1.12 0 1 0-2.241 0 1.12 1.12 0 0 0 2.241 0"/><path fill="none" stroke="#000" stroke-miterlimit="10" stroke-width=".3985" d="M136.201 192.072a1.12 1.12 0 1 0-2.241 0 1.12 1.12 0 0 0 2.241 0Z"/><path d="M149.002 192.006a1.12 1.12 0 1 0-2.242 0 1.12 1.12 0 0 0 2.242 0"/><path fill="none" stroke="#000" stroke-miterlimit="10" stroke-width=".3985" d="M149.002 192.006a1.12 1.12 0 1 0-2.242 0 1.12 1.12 0 0 0 2.242 0Z"/><path d="M161.8 191.876a1.12 1.12 0 1 0-2.24 0 1.12 1.12 0 0 0 2.24 0"/><path fill="none" stroke="#000" stroke-miterlimit="10" stroke-width=".3985" d="M161.8 191.876a1.12 1.12 0 1 0-2.24 0 1.12 1.12 0 0 0 2.24 0Z"/><path d="M174.6 191.617a1.12 1.12 0 1 0-2.241 0 1.12 1.12 0 0 0 2.241 0"/><path fill="none" stroke="#000" stroke-miterlimit="10" stroke-width=".3985" d="M174.6 191.617a1.12 1.12 0 1 0-2.241 0 1.12 1.12 0 0 0 2.241 0Z"/><path d="M187.4 191.099a1.12 1.12 0 1 0-2.242 0 1.12 1.12 0 0 0 2.242 0"/><g fill="none" stroke="#000" stroke-miterlimit="10" stroke-width=".3985"><path d="M187.4 191.099a1.12 1.12 0 1 0-2.242 0 1.12 1.12 0 0 0 2.242 0ZM59.53 192.082a1.245 1.245 0 1 0-2.491 0 1.245 1.245 0 0 0 2.49 0ZM72.329 192.015a1.245 1.245 0 1 0-2.49 0 1.245 1.245 0 0 0 2.49 0ZM85.129 191.88a1.245 1.245 0 1 0-2.491 0 1.245 1.245 0 0 0 2.49 0ZM97.928 191.567a1.245 1.245 0 1 0-2.49 0 1.245 1.245 0 0 0 2.49 0ZM110.728 190.836a1.245 1.245 0 1 0-2.491 0 1.245 1.245 0 0 0 2.49 0ZM123.527 189.547a1.245 1.245 0 1 0-2.491 0 1.245 1.245 0 0 0 2.49 0ZM136.326 186.704a1.245 1.245 0 1 0-2.49 0 1.245 1.245 0 0 0 2.49 0ZM149.126 179.332a1.245 1.245 0 1 0-2.49 0 1.245 1.245 0 0 0 2.49 0ZM161.925 164.371a1.245 1.245 0 1 0-2.49 0 1.245 1.245 0 0 0 2.49 0ZM174.725 133.836a1.245 1.245 0 1 0-2.49 0 1.245 1.245 0 0 0 2.49 0ZM187.525 64.147a1.245 1.245 0 1 0-2.491 0 1.245 1.245 0 0 0 2.49 0Z"/></g><g transform="translate(161.58 150.487)scale(1.0004)"><use xlink:href="#x" x="-69.19377" y="84.115759"/><use xlink:href="#y" x="-63.333372" y="84.115759"/><use xlink:href="#y" x="-58.776609" y="84.115759"/><use xlink:href="#x" x="-54.21985" y="84.115759"/><use xlink:href="#z" x="-48.682374" y="84.115759"/><use xlink:href="#A" x="-38.612051" y="84.115759"/><use xlink:href="#B" x="-33.995491" y="84.115759"/><use xlink:href="#C" x="-30.74237" y="84.115759"/><use xlink:href="#D" x="-25.53977" y="84.115759"/><use xlink:href="#E" x="-16.426595" y="84.115759"/></g><g transform="rotate(-90 22.951 82.744)scale(1.0004)"><use xlink:href="#D" x="-69.19377" y="84.115759"/><use xlink:href="#F" x="-63.991172" y="84.115759"/><use xlink:href="#x" x="-60.73805" y="84.115759"/><use xlink:href="#G" x="-54.877651" y="84.115759"/><use xlink:href="#A" x="-48.371412" y="84.115759"/><use xlink:href="#D" x="-43.75485" y="84.115759"/><use xlink:href="#H" x="-38.552251" y="84.115759"/><use xlink:href="#I" x="-28.15901" y="84.115759"/><use xlink:href="#B" x="-23.60225" y="84.115759"/><use xlink:href="#J" x="-20.349131" y="84.115759"/><use xlink:href="#D" x="-10.58977" y="84.115759"/><use xlink:href="#K" x="-1.476591" y="84.115759"/><use xlink:href="#L" x="6.651672" y="84.115759"/><use xlink:href="#M" x="9.892832" y="84.115759"/><use xlink:href="#N" x="16.387113" y="84.115759"/><use xlink:href="#O" x="21.003674" y="84.115759"/></g><g transform="translate(103.745 -45.897)scale(1.0004)"><use xlink:href="#P" x="-69.19377" y="69.664959"/><use xlink:href="#Q" x="-61.71877" y="69.664959"/><use xlink:href="#R" x="-53.585972" y="69.664959"/><use xlink:href="#S" x="-47.725572" y="69.664959"/><use xlink:href="#Q" x="-43.826609" y="69.664959"/><use xlink:href="#x" x="-35.693812" y="69.664959"/><use xlink:href="#z" x="-30.156331" y="69.664959"/><use xlink:href="#T" x="-20.086011" y="69.664959"/><use xlink:href="#A" x="-13.902691" y="69.664959"/><use xlink:href="#U" x="-9.286131" y="69.664959"/><use xlink:href="#P" x="-.83041" y="69.664959"/><use xlink:href="#V" x="7.62531" y="69.664959"/><use xlink:href="#y" x="14.131551" y="69.664959"/><use xlink:href="#D" x="18.68831" y="69.664959"/><use xlink:href="#D" x="23.890911" y="69.664959"/><use xlink:href="#S" x="29.093511" y="69.664959"/><use xlink:href="#Q" x="32.992471" y="69.664959"/><use xlink:href="#x" x="41.13723" y="69.664959"/><use xlink:href="#z" x="46.674709" y="69.664959"/><use xlink:href="#W" x="56.745031" y="69.664959"/><use xlink:href="#X" x="65.858552" y="69.664959"/><use xlink:href="#B" x="72.364801" y="69.664959"/><use xlink:href="#Y" x="75.617918" y="69.664959"/><use xlink:href="#Z" x="80.509562" y="69.664959"/><use xlink:href="#A" x="86.692883" y="69.664959"/><use xlink:href="#R" x="91.309446" y="69.664959"/><use xlink:href="#y" x="97.169845" y="69.664959"/><use xlink:href="#I" x="101.726606" y="69.664959"/><use xlink:href="#aa" x="-12.966203" y="84.115759"/><use xlink:href="#ab" x="-8.409442" y="84.115759"/><use xlink:href="#X" x=".536638" y="84.115759"/><use xlink:href="#G" x="7.042879" y="84.115759"/><use xlink:href="#F" x="13.549119" y="84.115759"/><use xlink:href="#B" x="16.802239" y="84.115759"/><use xlink:href="#Y" x="20.055359" y="84.115759"/><use xlink:href="#x" x="25.257959" y="84.115759"/><use xlink:href="#I" x="31.118359" y="84.115759"/><use xlink:href="#D" x="35.675118" y="84.115759"/><use xlink:href="#A" x="40.87772" y="84.115759"/><use xlink:href="#ac" x="45.494279" y="84.115759"/></g><path fill="#fff" d="M50.29 73.488H161.1V56.154H50.29Z"/><path fill="none" stroke="#000" stroke-miterlimit="10" stroke-width=".3985" d="M50.29 73.488H161.1V56.154H50.29Z"/><path d="M55.522 64.821a1.12 1.12 0 1 0-2.242 0 1.12 1.12 0 0 0 2.242 0"/><path fill="none" stroke="#000" stroke-miterlimit="10" stroke-width=".3985" d="M55.522 64.821a1.12 1.12 0 1 0-2.242 0 1.12 1.12 0 0 0 2.242 0Z"/><g transform="translate(97.437 -16.372)scale(1.00008)"><use xlink:href="#ad" x="-39.926294" y="84.088937"/><use xlink:href="#ae" x="-32.049274" y="84.088937"/><use xlink:href="#af" x="-25.983313" y="84.088937"/><use xlink:href="#ag" x="-21.706595" y="84.088937"/><use xlink:href="#ag" x="-16.862554" y="84.088937"/><use xlink:href="#ah" x="-12.018512" y="84.088937"/><use xlink:href="#ai" x="-8.385482" y="84.088937"/><use xlink:href="#aj" x="-.803032" y="84.088937"/><use xlink:href="#ak" x="4.346488" y="84.088937"/></g><path fill="none" stroke="#000" stroke-miterlimit="10" stroke-width=".3985" d="M112.015 64.821a1.245 1.245 0 1 0-2.49 0 1.245 1.245 0 0 0 2.49 0Z"/><g transform="translate(101.391 -16.465)scale(1.00008)"><use xlink:href="#ad" x="12.617041" y="84.088937"/><use xlink:href="#ai" x="19.599442" y="84.088937"/><use xlink:href="#al" x="27.170981" y="84.088937"/><use xlink:href="#ah" x="32.625981" y="84.088937"/><use xlink:href="#ai" x="36.259011" y="84.088937"/><use xlink:href="#aj" x="43.830552" y="84.088937"/><use xlink:href="#ak" x="48.980075" y="84.088937"/></g><g fill="none" stroke-miterlimit="10"><path stroke="gray" stroke-width=".19925" d="M270.874 204.935v-4.252m25.599 4.252v-4.252m25.598 4.252v-4.252m25.6 4.252v-4.252m25.598 4.252v-4.252m25.6 4.252v-4.252M270.873 51.342v4.251m25.599-4.251v4.251m25.598-4.251v4.251m25.6-4.251v4.251m25.598-4.251v4.251m25.6-4.251v4.251M258.086 191.855h4.25m-4.25-46.869h4.25m-4.25-46.868h4.25m149.345 93.737h-4.249m4.25-46.869h-4.25m4.25-46.868h-4.25"/><path stroke="#000" stroke-width=".3985" d="M258.086 204.935V51.342h153.595v153.593z"/></g><use xlink:href="#b" x="-60.085114" y="84.115759" transform="translate(325.642 134.512)scale(1.0004)"/><use xlink:href="#c" x="-54.20732" y="79.742006" transform="matrix(.99999 0 0 .99999 325.642 134.512)"/><use xlink:href="#b" x="-60.085114" y="84.115759" transform="translate(351.241 134.512)scale(1.0004)"/><use xlink:href="#d" x="-54.20732" y="79.742006" transform="matrix(.99999 0 0 .99999 351.241 134.512)"/><use xlink:href="#b" x="-60.085114" y="84.115759" transform="translate(374.723 134.512)scale(1.0004)"/><g transform="matrix(.99999 0 0 .99999 374.723 134.512)"><use xlink:href="#e" x="-54.20732" y="79.742006"/><use xlink:href="#e" x="-49.97525" y="79.742006"/></g><use xlink:href="#b" x="-60.085114" y="84.115759" transform="translate(400.322 134.512)scale(1.0004)"/><g transform="matrix(.99999 0 0 .99999 400.322 134.512)"><use xlink:href="#e" x="-54.20732" y="79.742006"/><use xlink:href="#f" x="-49.97525" y="79.742006"/></g><use xlink:href="#b" x="-60.085114" y="84.115759" transform="translate(425.92 134.512)scale(1.0004)"/><g transform="matrix(.99999 0 0 .99999 425.92 134.512)"><use xlink:href="#e" x="-54.20732" y="79.742006"/><use xlink:href="#g" x="-49.97525" y="79.742006"/></g><use xlink:href="#b" x="-60.085114" y="84.115759" transform="translate(451.519 134.512)scale(1.0004)"/><g transform="matrix(.99999 0 0 .99999 451.519 134.512)"><use xlink:href="#e" x="-54.20732" y="79.742006"/><use xlink:href="#c" x="-49.97525" y="79.742006"/></g><use xlink:href="#h" x="-60.085114" y="84.115759" transform="translate(308.11 111.625)scale(1.0004)"/><g transform="translate(299.005 64.757)scale(1.0004)"><use xlink:href="#h" x="-60.085114" y="84.115759"/><use xlink:href="#am" x="-54.229764" y="84.115759"/><use xlink:href="#an" x="-50.977459" y="84.115759"/></g><use xlink:href="#m" x="-60.085114" y="84.115759" transform="translate(308.11 17.888)scale(1.0004)"/><g transform="translate(321.933 -37.547)scale(1.0004)"><use xlink:href="#l" x="-60.085114" y="84.115759"/><use xlink:href="#m" x="-56.763781" y="84.115759"/><use xlink:href="#h" x="-50.915344" y="84.115759"/></g><use xlink:href="#ao" x="-45.034435" y="79.742006" transform="matrix(.99999 0 0 .99999 321.933 -37.547)"/><g clip-path="url(#ap)"><path fill="none" stroke="#000" stroke-miterlimit="10" stroke-width=".3985" d="m270.886 192.135 5.333-.021 5.333-.03 5.333-.04 5.333-.058 5.333-.08 5.333-.11 5.333-.153 5.333-.212 5.333-.293 5.333-.406 5.333-.559 5.333-.77 5.333-1.06 5.333-1.46 5.334-2.005 5.332-2.754 5.334-3.778 5.333-5.18 5.333-7.099 5.333-9.719 5.333-13.3 5.333-18.187 5.333-24.86 5.333-33.959"/><g transform="translate(362.122 4.281)scale(1.00008)"><use xlink:href="#p" x="-60.065955" y="84.088937"/><use xlink:href="#q" x="-53.096384" y="84.088937"/><use xlink:href="#r" x="-41.580435" y="84.088937"/><use xlink:href="#s" x="-36.12498" y="84.088937"/><use xlink:href="#r" x="-33.094734" y="84.088937"/><use xlink:href="#r" x="-27.639734" y="84.088937"/><use xlink:href="#aq" x="-22.184734" y="84.088937"/><use xlink:href="#r" x="-16.729734" y="84.088937"/><use xlink:href="#ar" x="-11.274734" y="84.088937"/><use xlink:href="#w" x="-5.819482" y="84.088937"/><use xlink:href="#as" x="2.547208" y="84.088937"/><use xlink:href="#at" x="5.569278" y="84.088937"/><use xlink:href="#au" x="11.024278" y="84.088937"/></g><use xlink:href="#av" x="16.637788" y="86.699919" transform="matrix(.99999 0 0 .99999 362.122 4.281)"/><use xlink:href="#w" x="23.190911" y="84.088937" transform="translate(362.122 4.281)scale(1.00008)"/></g><path d="M272.007 191.795a1.12 1.12 0 1 0-2.242 0 1.12 1.12 0 0 0 2.242 0"/><path fill="none" stroke="#000" stroke-miterlimit="10" stroke-width=".3985" d="M272.007 191.795a1.12 1.12 0 1 0-2.242 0 1.12 1.12 0 0 0 2.242 0Z"/><path d="M284.806 191.728a1.12 1.12 0 1 0-2.241 0 1.12 1.12 0 0 0 2.241 0"/><path fill="none" stroke="#000" stroke-miterlimit="10" stroke-width=".3985" d="M284.806 191.728a1.12 1.12 0 1 0-2.241 0 1.12 1.12 0 0 0 2.241 0Z"/><path d="M297.606 191.563a1.12 1.12 0 1 0-2.241 0 1.12 1.12 0 0 0 2.241 0"/><path fill="none" stroke="#000" stroke-miterlimit="10" stroke-width=".3985" d="M297.606 191.563a1.12 1.12 0 1 0-2.241 0 1.12 1.12 0 0 0 2.241 0Z"/><path d="M310.406 191.26a1.12 1.12 0 1 0-2.242 0 1.12 1.12 0 0 0 2.242 0"/><path fill="none" stroke="#000" stroke-miterlimit="10" stroke-width=".3985" d="M310.406 191.26a1.12 1.12 0 1 0-2.242 0 1.12 1.12 0 0 0 2.242 0Z"/><path d="M323.205 190.686a1.12 1.12 0 1 0-2.242 0 1.12 1.12 0 0 0 2.242 0"/><path fill="none" stroke="#000" stroke-miterlimit="10" stroke-width=".3985" d="M323.205 190.686a1.12 1.12 0 1 0-2.242 0 1.12 1.12 0 0 0 2.242 0Z"/><path d="M336.004 188.95a1.12 1.12 0 1 0-2.242 0 1.12 1.12 0 0 0 2.242 0"/><path fill="none" stroke="#000" stroke-miterlimit="10" stroke-width=".3985" d="M336.004 188.95a1.12 1.12 0 1 0-2.242 0 1.12 1.12 0 0 0 2.242 0Z"/><path d="M348.803 185.885a1.12 1.12 0 1 0-2.241 0 1.12 1.12 0 0 0 2.241 0"/><path fill="none" stroke="#000" stroke-miterlimit="10" stroke-width=".3985" d="M348.803 185.885a1.12 1.12 0 1 0-2.241 0 1.12 1.12 0 0 0 2.241 0Z"/><path d="M361.604 179.305a1.12 1.12 0 1 0-2.242 0 1.12 1.12 0 0 0 2.241 0"/><path fill="none" stroke="#000" stroke-miterlimit="10" stroke-width=".3985" d="M361.604 179.305a1.12 1.12 0 1 0-2.242 0 1.12 1.12 0 0 0 2.241 0Z"/><path d="M374.403 164.653a1.12 1.12 0 1 0-2.242 0 1.12 1.12 0 0 0 2.242 0"/><path fill="none" stroke="#000" stroke-miterlimit="10" stroke-width=".3985" d="M374.403 164.653a1.12 1.12 0 1 0-2.242 0 1.12 1.12 0 0 0 2.242 0Z"/><path d="M387.202 136.46a1.12 1.12 0 1 0-2.241 0 1.12 1.12 0 0 0 2.241 0"/><path fill="none" stroke="#000" stroke-miterlimit="10" stroke-width=".3985" d="M387.202 136.46a1.12 1.12 0 1 0-2.241 0 1.12 1.12 0 0 0 2.241 0Z"/><path d="M400.002 64.142a1.12 1.12 0 1 0-2.242 0 1.12 1.12 0 0 0 2.242 0"/><g fill="none" stroke="#000" stroke-miterlimit="10" stroke-width=".3985"><path d="M400.002 64.142a1.12 1.12 0 1 0-2.242 0 1.12 1.12 0 0 0 2.242 0ZM272.132 191.807a1.245 1.245 0 1 0-2.491 0 1.245 1.245 0 0 0 2.49 0ZM284.931 191.754a1.245 1.245 0 1 0-2.49 0 1.245 1.245 0 0 0 2.49 0ZM297.73 191.64a1.245 1.245 0 1 0-2.49 0 1.245 1.245 0 0 0 2.49 0ZM310.53 191.442a1.245 1.245 0 1 0-2.49 0 1.245 1.245 0 0 0 2.49 0ZM323.33 190.876a1.245 1.245 0 1 0-2.491 0 1.245 1.245 0 0 0 2.49 0ZM336.129 190.093a1.245 1.245 0 1 0-2.491 0 1.245 1.245 0 0 0 2.49 0ZM348.928 188.678a1.245 1.245 0 1 0-2.49 0 1.245 1.245 0 0 0 2.49 0ZM361.728 184.276a1.245 1.245 0 1 0-2.49 0 1.245 1.245 0 0 0 2.49 0ZM374.527 178.115a1.245 1.245 0 1 0-2.49 0 1.245 1.245 0 0 0 2.49 0ZM387.327 160.2a1.245 1.245 0 1 0-2.49 0 1.245 1.245 0 0 0 2.49 0ZM400.127 135.314a1.245 1.245 0 1 0-2.491 0 1.245 1.245 0 0 0 2.49 0Z"/></g><g transform="translate(365.077 150.487)scale(1.0004)"><use xlink:href="#x" x="-60.085114" y="84.115759"/><use xlink:href="#y" x="-54.224717" y="84.115759"/><use xlink:href="#y" x="-49.667954" y="84.115759"/><use xlink:href="#x" x="-45.111195" y="84.115759"/><use xlink:href="#z" x="-39.573718" y="84.115759"/><use xlink:href="#A" x="-29.503396" y="84.115759"/><use xlink:href="#B" x="-24.886835" y="84.115759"/><use xlink:href="#C" x="-21.633715" y="84.115759"/><use xlink:href="#D" x="-16.431114" y="84.115759"/><use xlink:href="#E" x="-7.31794" y="84.115759"/></g><g transform="rotate(-90 129.385 -14.319)scale(1.0004)"><use xlink:href="#D" x="-60.085114" y="84.115759"/><use xlink:href="#F" x="-54.882516" y="84.115759"/><use xlink:href="#x" x="-51.629396" y="84.115759"/><use xlink:href="#G" x="-45.768996" y="84.115759"/><use xlink:href="#A" x="-39.262757" y="84.115759"/><use xlink:href="#D" x="-34.646195" y="84.115759"/><use xlink:href="#H" x="-29.443595" y="84.115759"/><use xlink:href="#I" x="-19.050354" y="84.115759"/><use xlink:href="#B" x="-14.493593" y="84.115759"/><use xlink:href="#J" x="-11.240472" y="84.115759"/><use xlink:href="#D" x="-1.481112" y="84.115759"/><use xlink:href="#K" x="7.632065" y="84.115759"/><use xlink:href="#L" x="15.759326" y="84.115759"/><use xlink:href="#aw" x="19.012632" y="84.115759"/><use xlink:href="#N" x="26.058458" y="84.115759"/><use xlink:href="#O" x="30.67502" y="84.115759"/></g><g transform="translate(307.242 -45.903)scale(1.0004)"><use xlink:href="#P" x="-60.085114" y="69.663959"/><use xlink:href="#Q" x="-52.610114" y="69.663959"/><use xlink:href="#R" x="-44.477316" y="69.663959"/><use xlink:href="#S" x="-38.616917" y="69.663959"/><use xlink:href="#Q" x="-34.717954" y="69.663959"/><use xlink:href="#x" x="-26.585154" y="69.663959"/><use xlink:href="#z" x="-21.047672" y="69.663959"/><use xlink:href="#T" x="-10.977352" y="69.663959"/><use xlink:href="#A" x="-4.794032" y="69.663959"/><use xlink:href="#U" x="-.177471" y="69.663959"/><use xlink:href="#P" x="8.278249" y="69.663959"/><use xlink:href="#V" x="16.733969" y="69.663959"/><use xlink:href="#y" x="23.24021" y="69.663959"/><use xlink:href="#D" x="27.796971" y="69.663959"/><use xlink:href="#D" x="32.999574" y="69.663959"/><use xlink:href="#S" x="38.202172" y="69.663959"/><use xlink:href="#Q" x="42.101135" y="69.663959"/><use xlink:href="#x" x="50.245894" y="69.663959"/><use xlink:href="#z" x="55.783372" y="69.663959"/><use xlink:href="#W" x="65.85369" y="69.663959"/><use xlink:href="#X" x="74.967216" y="69.663959"/><use xlink:href="#B" x="81.473458" y="69.663959"/><use xlink:href="#Y" x="84.726574" y="69.663959"/><use xlink:href="#Z" x="89.618217" y="69.663959"/><use xlink:href="#A" x="95.801539" y="69.663959"/><use xlink:href="#R" x="100.418102" y="69.663959"/><use xlink:href="#y" x="106.278504" y="69.663959"/><use xlink:href="#I" x="110.835262" y="69.663959"/><use xlink:href="#aa" x=".209084" y="84.115759"/><use xlink:href="#ax" x="4.765844" y="84.115759"/><use xlink:href="#D" x="13.389005" y="84.115759"/><use xlink:href="#T" x="18.591605" y="84.115759"/><use xlink:href="#D" x="24.452004" y="84.115759"/><use xlink:href="#y" x="29.654605" y="84.115759"/><use xlink:href="#A" x="34.21136" y="84.115759"/><use xlink:href="#D" x="38.827923" y="84.115759"/><use xlink:href="#H" x="44.030521" y="84.115759"/><use xlink:href="#ac" x="50.536762" y="84.115759"/></g><path fill="#fff" d="M262.893 73.483h110.809V56.149h-110.81Z"/><path fill="none" stroke="#000" stroke-miterlimit="10" stroke-width=".3985" d="M262.893 73.483h110.809V56.149h-110.81Z"/><path d="M268.123 64.816a1.12 1.12 0 1 0-2.242 0 1.12 1.12 0 0 0 2.242 0"/><path fill="none" stroke="#000" stroke-miterlimit="10" stroke-width=".3985" d="M268.123 64.816a1.12 1.12 0 1 0-2.242 0 1.12 1.12 0 0 0 2.242 0Z"/><g transform="translate(300.934 -16.377)scale(1.00008)"><use xlink:href="#ad" x="-30.820542" y="84.088937"/><use xlink:href="#ae" x="-22.943525" y="84.088937"/><use xlink:href="#af" x="-16.877564" y="84.088937"/><use xlink:href="#ag" x="-12.600843" y="84.088937"/><use xlink:href="#ag" x="-7.756803" y="84.088937"/><use xlink:href="#ah" x="-2.912763" y="84.088937"/><use xlink:href="#ai" x=".720267" y="84.088937"/><use xlink:href="#aj" x="8.291807" y="84.088937"/><use xlink:href="#ak" x="13.441327" y="84.088937"/></g><path fill="none" stroke="#000" stroke-miterlimit="10" stroke-width=".3985" d="M324.617 64.816a1.245 1.245 0 1 0-2.49 0 1.245 1.245 0 0 0 2.49 0Z"/><g transform="translate(304.888 -16.47)scale(1.00008)"><use xlink:href="#ad" x="21.722792" y="84.088937"/><use xlink:href="#ai" x="28.705192" y="84.088937"/><use xlink:href="#al" x="36.276733" y="84.088937"/><use xlink:href="#ah" x="41.731731" y="84.088937"/><use xlink:href="#ai" x="45.364759" y="84.088937"/><use xlink:href="#aj" x="52.936297" y="84.088937"/><use xlink:href="#ak" x="58.085821" y="84.088937"/></g></svg>