<svg xmlns="http://www.w3.org/2000/svg" xmlns:xlink="http://www.w3.org/1999/xlink" width="300.52pt" height="341.46pt" viewBox="0 0 300.52 341.46"><defs><path id="k" d="M6.423-3.492c0-1.424-1.005-1.914-1.914-1.914-.538 0-.98.215-1.172.335l.705-2.823c.012-.06.036-.131.036-.191 0-.227-.215-.215-.382-.203l-1.471.071c-.132.012-.371.012-.371.36 0 .215.215.215.323.215.143 0 .359.012.502.023L1.447-2.655c-.107.43-.107.741-.107.861 0 1.447 1.004 1.89 1.865 1.89 2.045 0 3.218-2.01 3.218-3.588m-1.83 1.818c-.43 1.231-1.137 1.34-1.364 1.34-.741 0-.741-.778-.741-.946 0-.406.071-.717.263-1.447.095-.43.18-.73.263-1.1.084-.311.084-.335.203-.467.311-.382.79-.681 1.244-.681.275 0 .682.167.682.849 0 .646-.419 2.117-.55 2.452"/><path id="m" d="M3.301-.801c0-.562-.263-.957-.777-.957-.658 0-1.077.598-1.077 1.064 0 .287.168.694.73.694.31 0 .538-.144.574-.167C2.428.873 1.71 1.53 1.268 1.842c-.192.155-.204.167-.204.239 0 .108.096.24.216.24C1.555 2.32 3.3.764 3.3-.802"/><path id="l" d="M6.41-1.029c0-.095-.239-.382-.358-.382-.036 0-.084 0-.168.083-.885.993-2.093.993-2.26.993-.67 0-1.017-.395-1.017-1.1 0-.3.084-.766.192-1.172h.478c.718 0 3.086 0 3.086-1.65 0-.718-.67-1.149-1.555-1.149-2.07 0-3.492 1.567-3.492 3.409 0 1.291.8 2.093 2.296 2.093.37 0 1.076-.036 1.686-.263.646-.252 1.113-.718 1.113-.862m-.825-3.24c0 1.231-1.95 1.231-2.679 1.231.168-.598.287-.957.634-1.34a1.71 1.71 0 0 1 1.268-.597c.502 0 .777.323.777.705"/><path id="i" d="M3.959-1.77c0-.168-.156-.168-.335-.168-.287 0-.3.012-.383.311-.096.395-.31 1.292-.717 1.292-.144 0-.228-.096-.228-.37 0-.228.024-.324.072-.515l1.674-6.674c.012-.06.036-.131.036-.191 0-.227-.215-.215-.382-.203l-1.471.071c-.132.012-.371.012-.371.36 0 .215.215.215.323.215.143 0 .359.012.502.023L1.136-1.41c-.048.191-.048.275-.048.347 0 .765.718 1.16 1.388 1.16.562 0 .86-.407 1.016-.646a4 4 0 0 0 .467-1.22"/><path id="j" d="M7.834-1.77c0-.168-.156-.168-.335-.168-.287 0-.3.012-.383.311-.095.395-.31 1.292-.717 1.292-.144 0-.228-.096-.228-.37 0-.228.024-.324.072-.515l.825-3.313c.048-.18.048-.203.048-.263 0-.37-.287-.514-.538-.514-.155 0-.622.072-.765.67l-.826 3.36c-.048.216-.06.263-.394.598-.168.156-.467.347-.826.347-.598 0-.622-.562-.622-.825 0-.718.407-1.782.694-2.536.108-.299.168-.442.168-.645 0-.67-.61-1.065-1.256-1.065C1.507-5.406.92-3.79.92-3.54c0 .167.155.167.335.167.227 0 .287 0 .335-.155.095-.311.418-1.447 1.1-1.447.06 0 .167 0 .167.215 0 .251-.143.622-.215.79-.383 1.028-.717 1.889-.717 2.559 0 1.088.777 1.507 1.77 1.507.335 0 .837-.06 1.423-.61.227.418.765.61 1.232.61.562 0 .86-.407 1.016-.646a4 4 0 0 0 .467-1.22"/><path id="b" d="M4.808 1.555c.203 0 .419 0 .419-.24 0-.035 0-.06-.048-.19a7 7 0 0 1-.287-1.962h.598C5.526.215 6.83.263 7.044.263c1.46 0 1.603-1.913 1.603-2.69 0-1.4-.813-2.357-2.165-3.553-.909-.813-1.315-1.83-1.614-2.56-.024-.095-.12-.155-.216-.155-.167 0-.215.132-.239.203-.215.55-.67 1.687-1.578 2.488C1.435-4.76.658-3.79.658-2.428.658-1.53.849.263 2.26.263c.371 0 1.52-.12 1.555-1.1h.598a7.3 7.3 0 0 1-.299 2.01c-.036.095-.036.119-.036.143 0 .239.216.239.419.239z"/><path id="g" d="M5.358-1.985c0-1.22-.861-1.758-1.794-2.333.598-.322 1.471-.873 1.471-1.877 0-1.04-1.004-1.758-2.105-1.758-1.184 0-2.117.873-2.117 1.961 0 .407.12.813.455 1.22.131.155.143.167.98.753C1.088-3.48.49-2.679.49-1.806.49-.538 1.698.251 2.918.251c1.328 0 2.44-.98 2.44-2.236m-.813-4.198c0 .73-.526 1.315-1.22 1.698l-1.387-.909c-.156-.108-.634-.419-.634-1.005 0-.777.813-1.267 1.614-1.267.861 0 1.627.622 1.627 1.483m.263 4.58c0 .91-.921 1.531-1.878 1.531-1.016 0-1.89-.741-1.89-1.734 0-.933.682-1.686 1.46-2.045l1.447.945c.31.203.86.574.86 1.303"/><path id="a" d="M5.262-2.404c0-1.423-.956-2.607-2.212-2.607-.682 0-1.208.299-1.52.634v-2.476c.515.167.934.18 1.065.18 1.352 0 2.213-.993 2.213-1.16 0-.049-.024-.108-.096-.108 0 0-.048 0-.155.047a3.9 3.9 0 0 1-1.555.323c-.79 0-1.352-.239-1.579-.335-.083-.035-.12-.035-.12-.035-.095 0-.095.071-.095.263v3.552c0 .215 0 .287.143.287.06 0 .072-.012.192-.156.335-.49.897-.777 1.495-.777.634 0 .945.586 1.04.79.204.466.216 1.052.216 1.506s0 1.136-.335 1.675c-.263.43-.73.73-1.256.73-.79 0-1.567-.539-1.782-1.412.06.024.131.036.191.036.204 0 .527-.12.527-.526 0-.335-.228-.527-.527-.527-.215 0-.526.108-.526.574 0 1.017.813 2.177 2.14 2.177 1.352 0 2.536-1.136 2.536-2.655"/><path id="d" d="M5.358-3.935c0-3.217-1.34-4.018-2.392-4.018C1.65-7.953.49-6.853.49-5.274S1.603-2.62 2.8-2.62c.885 0 1.34-.646 1.578-1.256v.395c0 2.822-1.255 3.408-1.973 3.408-.287 0-.921-.036-1.22-.454h.072c.084.024.514-.048.514-.49 0-.264-.18-.491-.49-.491s-.503.203-.503.514c0 .742.598 1.244 1.639 1.244 1.495 0 2.942-1.59 2.942-4.186M4.353-5.01c0 1.004-.454 2.153-1.507 2.153-.753 0-1.076-.61-1.184-.838-.19-.454-.19-1.028-.19-1.566 0-.67 0-1.244.31-1.735.215-.323.538-.67 1.184-.67.682 0 1.029.599 1.148.874.24.586.24 1.602.24 1.782"/><path id="h" d="M5.681-7.427v-.275H2.799c-1.448 0-1.471-.156-1.52-.383h-.262L.646-5.693h.263c.036-.215.143-.957.299-1.088.096-.072.993-.072 1.16-.072h2.536L3.636-5.035C3.313-4.57 2.105-2.607 2.105-.36c0 .132 0 .61.49.61.503 0 .503-.466.503-.622v-.598c0-1.782.287-3.17.849-3.97z"/><path id="e" d="M5.358-2.44c0-1.59-1.112-2.655-2.308-2.655-1.065 0-1.46.921-1.579 1.256v-.323c0-3.026 1.471-3.504 2.117-3.504.43 0 .861.131 1.088.49-.143 0-.598 0-.598.49 0 .263.18.49.49.49.3 0 .503-.179.503-.526 0-.621-.454-1.231-1.495-1.231C2.069-7.953.49-6.411.49-3.78.49-.49 1.926.25 2.942.25c1.304 0 2.416-1.136 2.416-2.69m-.98-.012c0 .61 0 1.148-.228 1.603-.299.574-.73.777-1.208.777-.753 0-1.112-.67-1.22-.92-.107-.312-.227-.898-.227-1.735 0-.945.43-2.129 1.507-2.129.658 0 1.005.443 1.184.85.191.442.191 1.04.191 1.554"/><path id="c" d="M5.358-2.045c0-1.1-.885-1.962-2.033-2.165 1.04-.299 1.71-1.172 1.71-2.105 0-.945-.98-1.638-2.14-1.638-1.197 0-2.082.73-2.082 1.602 0 .479.371.574.55.574.252 0 .539-.18.539-.538 0-.383-.287-.55-.55-.55-.072 0-.096 0-.132.012.454-.813 1.579-.813 1.638-.813.395 0 1.173.179 1.173 1.351 0 .227-.036.897-.383 1.411-.359.527-.766.563-1.089.574l-.358.036c-.204.012-.252.024-.252.132 0 .12.06.12.276.12h.55c1.016 0 1.47.837 1.47 1.985 0 1.567-.812 1.985-1.399 1.985-.574 0-1.554-.275-1.901-1.064.383.06.73-.156.73-.586a.565.565 0 0 0-.587-.586c-.287 0-.598.167-.598.622C.49-.622 1.555.25 2.882.25c1.424 0 2.476-1.088 2.476-2.296"/><path id="f" d="M5.262-2.01H5c-.036.204-.131.862-.25 1.053-.085.108-.766.108-1.125.108H1.41c.323-.275 1.053-1.04 1.364-1.328 1.818-1.674 2.487-2.296 2.487-3.48 0-1.375-1.088-2.296-2.475-2.296S.586-6.77.586-5.741c0 .61.526.61.562.61.251 0 .562-.18.562-.562 0-.335-.227-.562-.562-.562-.107 0-.131 0-.167.012.227-.813.873-1.364 1.65-1.364 1.017 0 1.639.85 1.639 1.95 0 1.017-.586 1.902-1.268 2.667L.586-.287V0h4.365z"/></defs><path fill="#fff" d="M15.323 77.639H43.67V37.953H15.323Z"/><path fill="none" stroke="#000" stroke-miterlimit="10" stroke-width=".3985" d="M15.323 77.639H43.67V37.953H15.323Z"/><g transform="translate(72 44.659)scale(1.0004)"><use xlink:href="#a" x="-52.540086" y="5.638263"/><use xlink:href="#b" x="-54.260781" y="20.089063"/></g><path fill="#fff" d="M54.3 77.639h28.347V37.953H54.3Z"/><path fill="none" stroke="#000" stroke-miterlimit="10" stroke-width=".3985" d="M54.3 77.639h28.347V37.953H54.3Z"/><g transform="translate(110.977 44.665)scale(1.0004)"><use xlink:href="#c" x="-52.540086" y="5.638263"/><use xlink:href="#b" x="-54.260781" y="20.089063"/></g><path fill="#fff" d="M93.277 77.639h28.347V37.953H93.277Z"/><path fill="none" stroke="#000" stroke-miterlimit="10" stroke-width=".3985" d="M93.277 77.639h28.347V37.953H93.277Z"/><g transform="translate(149.954 44.665)scale(1.0004)"><use xlink:href="#d" x="-52.540086" y="5.638263"/><use xlink:href="#b" x="-54.260781" y="20.089063"/></g><path fill="#fff" d="M132.254 77.639H160.6V37.953h-28.346Z"/><path fill="none" stroke="#000" stroke-miterlimit="10" stroke-width=".3985" d="M132.254 77.639H160.6V37.953h-28.346Z"/><g transform="translate(188.931 44.665)scale(1.0004)"><use xlink:href="#e" x="-52.540086" y="5.638263"/><use xlink:href="#b" x="-54.260781" y="20.089063"/></g><path fill="#fff" d="M171.23 77.639h28.347V37.953H171.23Z"/><path fill="none" stroke="#000" stroke-miterlimit="10" stroke-width=".3985" d="M171.23 77.639h28.347V37.953H171.23Z"/><g transform="translate(227.907 44.665)scale(1.0004)"><use xlink:href="#f" x="-52.540086" y="5.638263"/><use xlink:href="#b" x="-54.260781" y="20.089063"/></g><path fill="#fff" d="M210.207 77.639h28.347V37.953h-28.347Z"/><path fill="none" stroke="#000" stroke-miterlimit="10" stroke-width=".3985" d="M210.207 77.639h28.347V37.953h-28.347Z"/><g transform="translate(266.884 44.665)scale(1.0004)"><use xlink:href="#g" x="-52.540086" y="5.638263"/><use xlink:href="#b" x="-54.260781" y="20.089063"/></g><path fill="#fff" d="M249.184 77.639h28.347V37.953h-28.347Z"/><path fill="none" stroke="#000" stroke-miterlimit="10" stroke-width=".3985" d="M249.184 77.639h28.347V37.953h-28.347Z"/><g transform="translate(305.861 44.731)scale(1.0004)"><use xlink:href="#h" x="-52.540086" y="5.638263"/><use xlink:href="#b" x="-54.260781" y="20.089063"/></g><path fill="none" stroke="#999" stroke-miterlimit="10" stroke-width=".3985" d="M49.981 35.119v45.355h.996V35.119ZM280.854 35.119v45.355h.996V35.119Z"/><path d="m68.473 31.717 1.682-4.468-1.682 1.466-1.682-1.466Z"/><path fill="none" stroke="#000" stroke-miterlimit="10" stroke-width=".3985" d="m68.473 31.717 1.682-4.468-1.682 1.466-1.682-1.466Z"/><use xlink:href="#i" x="-56.699756" y="5.638263" transform="translate(123.112 17.999)scale(1.0004)"/><path d="m281.287 31.717 1.682-4.468-1.682 1.466-1.682-1.466Z"/><path fill="none" stroke="#000" stroke-miterlimit="10" stroke-width=".3985" d="m281.287 31.717 1.682-4.468-1.682 1.466-1.682-1.466Z"/><use xlink:href="#j" x="-56.699756" y="5.638263" transform="translate(334.049 16.546)scale(1.0004)"/><path d="m68.473 83.876-1.682 4.468 1.682-1.466 1.682 1.466Z"/><path fill="none" stroke="#000" stroke-miterlimit="10" stroke-width=".3985" d="m68.473 83.876-1.682 4.468 1.682-1.466 1.682 1.466Z"/><use xlink:href="#k" x="-56.699756" y="5.638263" transform="translate(121.94 94.535)scale(1.0004)"/><path d="m281.287 83.876-1.682 4.468 1.682-1.466 1.682 1.466Z"/><path fill="none" stroke="#000" stroke-miterlimit="10" stroke-width=".3985" d="m281.287 83.876-1.682 4.468 1.682-1.466 1.682 1.466Z"/><use xlink:href="#l" x="-56.699756" y="5.638263" transform="translate(334.76 93.082)scale(1.0004)"/><path fill="#fff" d="M15.323 168.349H43.67v-39.686H15.323Z"/><path fill="none" stroke="#000" stroke-miterlimit="10" stroke-width=".3985" d="M15.323 168.349H43.67v-39.686H15.323Z"/><g transform="translate(72 135.369)scale(1.0004)"><use xlink:href="#a" x="-52.540086" y="5.638263"/><use xlink:href="#b" x="-54.260781" y="20.089063"/></g><path fill="#fff" d="M93.277 168.349h28.347v-39.686H93.277Z"/><path fill="none" stroke="#000" stroke-miterlimit="10" stroke-width=".3985" d="M93.277 168.349h28.347v-39.686H93.277Z"/><g transform="translate(149.954 135.375)scale(1.0004)"><use xlink:href="#d" x="-52.540086" y="5.638263"/><use xlink:href="#b" x="-54.260781" y="20.089063"/></g><path fill="#fff" d="M132.254 168.349H160.6v-39.686h-28.346Z"/><path fill="none" stroke="#000" stroke-miterlimit="10" stroke-width=".3985" d="M132.254 168.349H160.6v-39.686h-28.346Z"/><g transform="translate(188.931 135.375)scale(1.0004)"><use xlink:href="#e" x="-52.540086" y="5.638263"/><use xlink:href="#b" x="-54.260781" y="20.089063"/></g><path fill="#fff" d="M171.23 168.349h28.347v-39.686H171.23Z"/><path fill="none" stroke="#000" stroke-miterlimit="10" stroke-width=".3985" d="M171.23 168.349h28.347v-39.686H171.23Z"/><g transform="translate(227.907 135.375)scale(1.0004)"><use xlink:href="#f" x="-52.540086" y="5.638263"/><use xlink:href="#b" x="-54.260781" y="20.089063"/></g><path fill="#fff" d="M54.3 168.349h28.347v-39.686H54.3Z"/><path fill="none" stroke="#999" stroke-miterlimit="10" stroke-width=".3985" d="M54.3 168.349h28.347v-39.686H54.3Z"/><g fill="#999" transform="translate(110.977 135.375)scale(1.0004)"><use xlink:href="#c" x="-52.540086" y="5.638263"/><use xlink:href="#b" x="-54.260781" y="20.089063"/></g><path fill="#fff" d="M210.207 168.349h28.347v-39.686h-28.347Z"/><path fill="none" stroke="#999" stroke-miterlimit="10" stroke-width=".3985" d="M210.207 168.349h28.347v-39.686h-28.347Z"/><g fill="#999" transform="translate(266.884 135.375)scale(1.0004)"><use xlink:href="#g" x="-52.540086" y="5.638263"/><use xlink:href="#b" x="-54.260781" y="20.089063"/></g><path fill="#fff" d="M249.184 168.349h28.347v-39.686h-28.347Z"/><path fill="none" stroke="#999" stroke-miterlimit="10" stroke-width=".3985" d="M249.184 168.349h28.347v-39.686h-28.347Z"/><g fill="#999" transform="translate(305.861 135.441)scale(1.0004)"><use xlink:href="#h" x="-52.540086" y="5.638263"/><use xlink:href="#b" x="-54.260781" y="20.089063"/></g><path fill="none" stroke="#000" stroke-miterlimit="10" stroke-width=".3985" d="M115.954 174.018c2.835 4.91 43.331 2.835 53.15 8.504 7.365 4.252 7.796 11.339 7.796 13.34"/><path d="m176.9 198.963 1.682-4.468-1.682 1.466-1.682-1.466Z"/><path fill="none" stroke="#000" stroke-miterlimit="10" stroke-width=".3985" d="m176.9 198.963 1.682-4.468-1.682 1.466-1.682-1.466ZM176.9 174.018c-2.835 4.91-43.33 2.835-53.15 8.504-7.365 4.252-7.796 11.339-7.796 13.34"/><path d="m115.954 198.963 1.682-4.468-1.682 1.466-1.682-1.466Z"/><g fill="none" stroke-miterlimit="10" stroke-width=".3985"><path stroke="#000" d="m115.954 198.963 1.682-4.468-1.682 1.466-1.682-1.466Z"/><path stroke="#999" d="M49.981 125.829v45.354h37.98V125.83ZM205.889 125.829v45.354h76.957V125.83Z"/></g><path d="m107.45 122.426 1.682-4.467-1.682 1.465-1.682-1.465Z"/><path fill="none" stroke="#000" stroke-miterlimit="10" stroke-width=".3985" d="m107.45 122.426 1.682-4.467-1.682 1.465-1.682-1.465Z"/><use xlink:href="#i" x="-56.699756" y="5.638263" transform="translate(162.089 108.709)scale(1.0004)"/><path d="m224.38 122.426 1.683-4.467-1.682 1.465-1.682-1.465Z"/><path fill="none" stroke="#000" stroke-miterlimit="10" stroke-width=".3985" d="m224.38 122.426 1.683-4.467-1.682 1.465-1.682-1.465Z"/><use xlink:href="#j" x="-56.699756" y="5.638263" transform="translate(277.142 107.256)scale(1.0004)"/><path fill="#fff" d="M15.323 247.72H43.67v-39.686H15.323Z"/><path fill="none" stroke="#000" stroke-miterlimit="10" stroke-width=".3985" d="M15.323 247.72H43.67v-39.686H15.323Z"/><g transform="translate(72 214.74)scale(1.0004)"><use xlink:href="#a" x="-52.540086" y="5.638263"/><use xlink:href="#b" x="-54.260781" y="20.089063"/></g><path fill="#fff" d="M132.254 247.72H160.6v-39.686h-28.346Z"/><path fill="none" stroke="#000" stroke-miterlimit="10" stroke-width=".3985" d="M132.254 247.72H160.6v-39.686h-28.346Z"/><g transform="translate(188.931 214.746)scale(1.0004)"><use xlink:href="#e" x="-52.540086" y="5.638263"/><use xlink:href="#b" x="-54.260781" y="20.089063"/></g><path fill="#fff" d="M54.3 247.72h28.347v-39.686H54.3Z"/><path fill="none" stroke="#999" stroke-miterlimit="10" stroke-width=".3985" d="M54.3 247.72h28.347v-39.686H54.3Z"/><g fill="#999" transform="translate(110.977 214.746)scale(1.0004)"><use xlink:href="#c" x="-52.540086" y="5.638263"/><use xlink:href="#b" x="-54.260781" y="20.089063"/></g><path fill="#fff" d="M93.277 247.72h28.347v-39.686H93.277Z"/><path fill="none" stroke="#999" stroke-miterlimit="10" stroke-width=".3985" d="M93.277 247.72h28.347v-39.686H93.277Z"/><g fill="#999" transform="translate(149.954 214.746)scale(1.0004)"><use xlink:href="#f" x="-52.540086" y="5.638263"/><use xlink:href="#b" x="-54.260781" y="20.089063"/></g><path fill="#fff" d="M171.23 247.72h28.347v-39.686H171.23Z"/><path fill="none" stroke="#999" stroke-miterlimit="10" stroke-width=".3985" d="M171.23 247.72h28.347v-39.686H171.23Z"/><g fill="#999" transform="translate(227.907 214.746)scale(1.0004)"><use xlink:href="#d" x="-52.540086" y="5.638263"/><use xlink:href="#b" x="-54.260781" y="20.089063"/></g><path fill="#fff" d="M210.207 247.72h28.347v-39.686h-28.347Z"/><path fill="none" stroke="#999" stroke-miterlimit="10" stroke-width=".3985" d="M210.207 247.72h28.347v-39.686h-28.347Z"/><g fill="#999" transform="translate(266.884 214.746)scale(1.0004)"><use xlink:href="#g" x="-52.540086" y="5.638263"/><use xlink:href="#b" x="-54.260781" y="20.089063"/></g><path fill="#fff" d="M249.184 247.72h28.347v-39.686h-28.347Z"/><path fill="none" stroke="#999" stroke-miterlimit="10" stroke-width=".3985" d="M249.184 247.72h28.347v-39.686h-28.347Z"/><g fill="#999" transform="translate(305.861 214.812)scale(1.0004)"><use xlink:href="#h" x="-52.540086" y="5.638263"/><use xlink:href="#b" x="-54.260781" y="20.089063"/></g><path fill="none" stroke="#999" stroke-miterlimit="10" stroke-width=".3985" d="M49.981 205.2v45.355h76.958V205.2ZM166.912 205.2v45.355h115.934V205.2Z"/><path d="m146.427 201.798 1.682-4.468-1.682 1.465-1.682-1.465Z"/><path fill="none" stroke="#000" stroke-miterlimit="10" stroke-width=".3985" d="m146.427 201.798 1.682-4.468-1.682 1.465-1.682-1.465Z"/><use xlink:href="#i" x="-56.699756" y="5.638263" transform="translate(201.066 188.08)scale(1.0004)"/><path d="m185.404 201.798 1.682-4.468-1.682 1.465-1.682-1.465Z"/><path fill="none" stroke="#000" stroke-miterlimit="10" stroke-width=".3985" d="m185.404 201.798 1.682-4.468-1.682 1.465-1.682-1.465Z"/><use xlink:href="#j" x="-56.699756" y="5.638263" transform="translate(238.166 186.627)scale(1.0004)"/><path fill="#fff" d="M15.323 327.091H43.67v-39.686H15.323Z"/><path fill="none" stroke="#000" stroke-miterlimit="10" stroke-width=".3985" d="M15.323 327.091H43.67v-39.686H15.323Z"/><g transform="translate(72 294.111)scale(1.0004)"><use xlink:href="#a" x="-52.540086" y="5.638263"/><use xlink:href="#b" x="-54.260781" y="20.089063"/></g><path fill="#fff" d="M54.3 327.091h28.347v-39.686H54.3Z"/><path fill="none" stroke="#999" stroke-miterlimit="10" stroke-width=".3985" d="M54.3 327.091h28.347v-39.686H54.3Z"/><g fill="#999" transform="translate(110.977 294.117)scale(1.0004)"><use xlink:href="#c" x="-52.540086" y="5.638263"/><use xlink:href="#b" x="-54.260781" y="20.089063"/></g><path fill="#fff" d="M93.277 327.091h28.347v-39.686H93.277Z"/><path fill="none" stroke="#999" stroke-miterlimit="10" stroke-width=".3985" d="M93.277 327.091h28.347v-39.686H93.277Z"/><g fill="#999" transform="translate(149.954 294.117)scale(1.0004)"><use xlink:href="#f" x="-52.540086" y="5.638263"/><use xlink:href="#b" x="-54.260781" y="20.089063"/></g><path fill="#fff" d="M132.254 327.091H160.6v-39.686h-28.346Z"/><path fill="none" stroke="#999" stroke-miterlimit="10" stroke-width=".3985" d="M132.254 327.091H160.6v-39.686h-28.346Z"/><g fill="#999" transform="translate(188.931 294.117)scale(1.0004)"><use xlink:href="#e" x="-52.540086" y="5.638263"/><use xlink:href="#b" x="-54.260781" y="20.089063"/></g><path fill="#fff" d="M171.23 327.091h28.347v-39.686H171.23Z"/><path fill="none" stroke="#999" stroke-miterlimit="10" stroke-width=".3985" d="M171.23 327.091h28.347v-39.686H171.23Z"/><g fill="#999" transform="translate(227.907 294.117)scale(1.0004)"><use xlink:href="#d" x="-52.540086" y="5.638263"/><use xlink:href="#b" x="-54.260781" y="20.089063"/></g><path fill="#fff" d="M210.207 327.091h28.347v-39.686h-28.347Z"/><path fill="none" stroke="#999" stroke-miterlimit="10" stroke-width=".3985" d="M210.207 327.091h28.347v-39.686h-28.347Z"/><g fill="#999" transform="translate(266.884 294.117)scale(1.0004)"><use xlink:href="#g" x="-52.540086" y="5.638263"/><use xlink:href="#b" x="-54.260781" y="20.089063"/></g><path fill="#fff" d="M249.184 327.091h28.347v-39.686h-28.347Z"/><path fill="none" stroke="#999" stroke-miterlimit="10" stroke-width=".3985" d="M249.184 327.091h28.347v-39.686h-28.347Z"/><g fill="#999" transform="translate(305.861 294.183)scale(1.0004)"><use xlink:href="#h" x="-52.540086" y="5.638263"/><use xlink:href="#b" x="-54.260781" y="20.089063"/></g><path fill="none" stroke="#999" stroke-miterlimit="10" stroke-width=".3985" d="M49.981 284.57v45.356h76.958V284.57ZM127.935 284.57v45.356h154.911V284.57Z"/><path d="m146.427 281.169 1.682-4.468-1.682 1.466-1.682-1.466Z"/><path fill="none" stroke="#000" stroke-miterlimit="10" stroke-width=".3985" d="m146.427 281.169 1.682-4.468-1.682 1.466-1.682-1.466Z"/><g transform="translate(195.285 266.339)scale(1.0004)"><use xlink:href="#i" x="-56.699756" y="5.638263"/><use xlink:href="#m" x="-53.147636" y="5.638263"/><use xlink:href="#j" x="-48.889877" y="5.638263"/></g></svg>