<svg xmlns="http://www.w3.org/2000/svg" xmlns:xlink="http://www.w3.org/1999/xlink" width="179.88pt" height="165.79pt" viewBox="0 0 179.88 165.79"><defs><path id="m" d="m1.386-.84 1.156-1.124C4.244-3.469 4.899-4.059 4.899-5.15c0-1.243-.982-2.116-2.313-2.116a2.016 2.016 0 0 0-2.04 1.975c0 .61.545.61.578.61.185 0 .567-.13.567-.578a.55.55 0 0 0-.578-.567c-.087 0-.11 0-.142.011.25-.71.84-1.113 1.473-1.113.993 0 1.462.884 1.462 1.778 0 .873-.546 1.735-1.146 2.412L.666-.404c-.12.12-.12.142-.12.404h4.047L4.9-1.898h-.273c-.055.327-.131.807-.24.97-.077.088-.797.088-1.037.088z"/><path id="o" d="M7.495-3.568c.164 0 .371 0 .371-.218s-.207-.218-.36-.218H.971c-.153 0-.36 0-.36.218s.207.218.37.218zm.011 2.117c.153 0 .36 0 .36-.218s-.207-.218-.37-.218H.981c-.164 0-.371 0-.371.218s.207.218.36.218z"/><path id="l" d="M7.364-5.433c.131-.066.208-.12.208-.24s-.099-.218-.219-.218c-.032 0-.054 0-.196.076L1.113-2.968c-.12.055-.207.11-.207.24s.087.186.207.24L7.157.36c.142.076.164.076.196.076.12 0 .219-.098.219-.218s-.077-.174-.208-.24L1.637-2.728z"/><path id="p" d="M7.364-2.487c.12-.055.208-.11.208-.24s-.088-.186-.208-.24L1.32-5.816c-.142-.076-.164-.076-.196-.076a.22.22 0 0 0-.218.218c0 .098.054.163.207.24L6.84-2.727 1.113-.022C.96.055.906.12.906.218c0 .12.098.218.218.218.032 0 .054 0 .196-.076z"/><path id="g" d="M2.695 0v-.338c-.72 0-.764-.055-.764-.48v-4.004l-1.527.12v.338c.709 0 .807.065.807.6v2.935c0 .49-.12.49-.851.49V0l1.2-.033c.382 0 .764.022 1.135.033m-.6-6.59a.583.583 0 0 0-1.167 0 .583.583 0 0 0 1.167 0"/><path id="i" d="M5.139-2.335c0-1.396-1.091-2.553-2.411-2.553-1.364 0-2.423 1.19-2.423 2.553A2.435 2.435 0 0 0 2.717.12a2.43 2.43 0 0 0 2.422-2.455m-.906-.087c0 .393 0 .982-.24 1.462-.24.49-.72.807-1.265.807-.47 0-.95-.229-1.244-.73-.273-.48-.273-1.146-.273-1.539 0-.426 0-1.015.262-1.495a1.46 1.46 0 0 1 1.244-.73c.48 0 .949.24 1.232.708s.284 1.102.284 1.517"/><path id="f" d="M5.684-2.357c0-1.385-1.058-2.465-2.28-2.465-.851 0-1.31.48-1.527.72v-.72l-1.572.12v.338c.775 0 .851.065.851.546v5.105c0 .491-.12.491-.85.491v.339l1.221-.033 1.233.033v-.339c-.73 0-.85 0-.85-.49V-.645c.054.175.512.764 1.341.764C4.55.12 5.684-.95 5.684-2.357m-.905 0c0 1.32-.764 2.237-1.571 2.237-.437 0-.851-.218-1.146-.666-.153-.229-.153-.24-.153-.458v-2.433c.317-.556.851-.872 1.408-.872.796 0 1.462.96 1.462 2.192"/><path id="k" d="M3.611 2.618c0-.032 0-.054-.185-.24-1.364-1.374-1.713-3.436-1.713-5.105 0-1.899.414-3.797 1.756-5.16.142-.132.142-.154.142-.186 0-.077-.043-.11-.109-.11-.109 0-1.09.742-1.735 2.128-.556 1.2-.687 2.411-.687 3.327 0 .851.12 2.172.72 3.404.655 1.342 1.593 2.052 1.702 2.052.066 0 .11-.033.11-.11"/><path id="n" d="M3.153-2.727c0-.851-.12-2.172-.72-3.404C1.778-7.473.84-8.182.73-8.182c-.065 0-.11.043-.11.109 0 .032 0 .054.208.25C1.9-6.742 2.52-5.007 2.52-2.726c0 1.865-.403 3.785-1.756 5.16-.142.13-.142.153-.142.185 0 .066.044.11.109.11.11 0 1.091-.742 1.735-2.128.556-1.2.687-2.411.687-3.327"/><path id="j" d="M3.622-1.353v-.622H3.35v.6c0 .808-.327 1.222-.73 1.222-.732 0-.732-.993-.732-1.178v-3.033h1.56v-.338h-1.56V-6.71h-.272c-.011.895-.339 2.062-1.408 2.106v.24h.928v3.011C1.135-.01 2.149.12 2.542.12c.775 0 1.08-.775 1.08-1.473"/><path id="h" d="M5.542-4.364v-.338c-.25.022-.567.033-.818.033l-.95-.033v.338c.405.01.525.262.525.47 0 .097-.022.141-.066.261L3.12-.851 1.898-3.895c-.065-.142-.065-.185-.065-.185 0-.284.425-.284.622-.284v-.338l-1.19.033c-.294 0-.73-.011-1.058-.033v.338c.688 0 .731.065.873.404L2.651-.087c.066.152.087.207.23.207s.185-.098.228-.207l1.43-3.546c.098-.251.283-.72 1.003-.731"/><path id="d" d="M5.526-1.997v-.347H4.318v-5.442c0-.227 0-.287-.168-.287-.096 0-.131 0-.227.144l-3.6 5.585v.347h3.145V-.91c0 .443-.024.562-.897.562h-.239V0c.275-.024 1.22-.024 1.555-.024s1.292 0 1.567.024v-.347h-.24c-.86 0-.896-.12-.896-.562v-1.088zm-1.998-.347H.622l2.906-4.51z"/><path id="b" d="M4.904 0v-.347h-.371C3.48-.347 3.444-.49 3.444-.92v-6.745c0-.275 0-.287-.239-.287-.287.323-.885.765-2.117.765v.347c.275 0 .873 0 1.531-.311v6.231c0 .43-.036.574-1.088.574h-.37V0c.322-.024 1.482-.024 1.877-.024s1.543 0 1.866.024"/><path id="c" d="M5.358-2.045c0-1.1-.885-1.962-2.033-2.165 1.04-.299 1.71-1.172 1.71-2.105 0-.945-.98-1.638-2.14-1.638-1.197 0-2.082.73-2.082 1.602 0 .479.371.574.55.574.252 0 .539-.18.539-.538 0-.383-.287-.55-.55-.55-.072 0-.096 0-.132.012.454-.813 1.579-.813 1.638-.813.395 0 1.173.179 1.173 1.351 0 .227-.036.897-.383 1.411-.359.527-.766.563-1.089.574l-.358.036c-.204.012-.252.024-.252.132 0 .12.06.12.276.12h.55c1.016 0 1.47.837 1.47 1.985 0 1.567-.812 1.985-1.399 1.985-.574 0-1.554-.275-1.901-1.064.383.06.73-.156.73-.586a.565.565 0 0 0-.587-.586c-.287 0-.598.167-.598.622C.49-.622 1.555.25 2.882.25c1.424 0 2.476-1.088 2.476-2.296"/><path id="a" d="M5.262-2.01H5c-.036.204-.131.862-.25 1.053-.085.108-.766.108-1.125.108H1.41c.323-.275 1.053-1.04 1.364-1.328 1.818-1.674 2.487-2.296 2.487-3.48 0-1.375-1.088-2.296-2.475-2.296S.586-6.77.586-5.741c0 .61.526.61.562.61.251 0 .562-.18.562-.562 0-.335-.227-.562-.562-.562-.107 0-.131 0-.167.012.227-.813.873-1.364 1.65-1.364 1.017 0 1.639.85 1.639 1.95 0 1.017-.586 1.902-1.268 2.667L.586-.287V0h4.365z"/><path id="e" d="M5.358-3.827c0-.993-.06-1.962-.49-2.87-.49-.993-1.352-1.256-1.938-1.256-.693 0-1.543.346-1.985 1.34C.61-5.86.49-5.12.49-3.828c0 1.16.084 2.033.515 2.882A2.13 2.13 0 0 0 2.918.251c1.04 0 1.639-.622 1.986-1.315.43-.897.454-2.07.454-2.763m-.909-.144c0 .802 0 1.71-.131 2.44C4.09-.215 3.337.012 2.918.012c-.382 0-1.16-.215-1.387-1.519-.132-.718-.132-1.627-.132-2.464 0-.98 0-1.865.192-2.571.203-.801.813-1.172 1.327-1.172.455 0 1.148.275 1.376 1.303.155.682.155 1.627.155 2.44"/></defs><path fill="none" stroke="#000" stroke-miterlimit="10" stroke-width=".3985" d="M88.854 50.052a8.894 8.894 0 1 0-17.788 0 8.894 8.894 0 0 0 17.788 0Z"/><use xlink:href="#a" x="-11.887771" y="-21.957813" transform="translate(88.914 75.976)scale(1.0004)"/><path fill="none" stroke="#000" stroke-miterlimit="10" stroke-width=".3985" d="M108.697 50.052a8.894 8.894 0 1 0-17.789 0 8.894 8.894 0 0 0 17.789 0Z"/><use xlink:href="#b" x="-11.887771" y="-21.957813" transform="translate(108.756 75.976)scale(1.0004)"/><path fill="none" stroke="#000" stroke-miterlimit="10" stroke-width=".3985" d="M128.658 50.052a9.012 9.012 0 1 0-18.025 0 9.012 9.012 0 1 0 18.024 0Z"/><use xlink:href="#c" x="-11.887771" y="-21.957813" transform="translate(128.599 75.851)scale(1.0004)"/><path fill="none" stroke="#000" stroke-miterlimit="10" stroke-width=".3985" d="M148.382 50.052a8.894 8.894 0 1 0-17.788 0 8.894 8.894 0 0 0 17.788 0Z"/><use xlink:href="#b" x="-11.887771" y="-21.957813" transform="translate(148.442 75.976)scale(1.0004)"/><path fill="none" stroke="#000" stroke-miterlimit="10" stroke-width=".3985" d="M168.303 50.052a8.972 8.972 0 1 0-17.945 0 8.972 8.972 0 1 0 17.945 0Z"/><use xlink:href="#d" x="-11.887771" y="-21.957813" transform="translate(168.285 76.036)scale(1.0004)"/><path fill="none" stroke="#000" stroke-miterlimit="10" stroke-width=".3985" d="M98.893 67.06a9.012 9.012 0 1 0-18.024 0 9.012 9.012 0 1 0 18.024 0Z"/><use xlink:href="#c" x="-11.887771" y="-21.957813" transform="translate(98.835 92.859)scale(1.0004)"/><path fill="none" stroke="#000" stroke-miterlimit="10" stroke-width=".3985" d="M118.736 67.06a9.012 9.012 0 1 0-18.024 0 9.012 9.012 0 1 0 18.024 0Z"/><use xlink:href="#e" x="-11.887771" y="-21.957813" transform="translate(118.678 92.859)scale(1.0004)"/><path fill="none" stroke="#000" stroke-miterlimit="10" stroke-width=".3985" d="M138.46 67.06a8.894 8.894 0 1 0-17.787 0 8.894 8.894 0 0 0 17.788 0Z"/><use xlink:href="#a" x="-11.887771" y="-21.957813" transform="translate(138.521 92.984)scale(1.0004)"/><path fill="none" stroke="#000" stroke-miterlimit="10" stroke-width=".3985" d="M158.304 67.06a8.894 8.894 0 1 0-17.789 0 8.894 8.894 0 1 0 17.789 0Z"/><use xlink:href="#a" x="-11.887771" y="-21.957813" transform="translate(158.363 92.984)scale(1.0004)"/><path fill="none" stroke="#000" stroke-miterlimit="10" stroke-width=".3985" d="M79.96 35.044v-7.67"/><path d="m79.96 38.146 1.682-4.468-1.682 1.466-1.682-1.466Z"/><path fill="none" stroke="#000" stroke-miterlimit="10" stroke-width=".3985" d="m79.96 38.146 1.682-4.468-1.682 1.466-1.682-1.466Z"/><g transform="translate(79.717 44.441)scale(1.00008)"><use xlink:href="#f" x="-11.88398" y="-21.950811"/><use xlink:href="#g" x="-5.818021" y="-21.950811"/><use xlink:href="#h" x="-2.785041" y="-21.950811"/><use xlink:href="#i" x="2.680869" y="-21.950811"/><use xlink:href="#j" x="8.135869" y="-21.950811"/></g><path fill="none" stroke="#000" stroke-miterlimit="10" stroke-width=".3985" d="M88.854 106.746a8.894 8.894 0 1 0-17.788 0 8.894 8.894 0 1 0 17.788 0Z"/><use xlink:href="#a" x="-11.887771" y="-21.957813" transform="translate(88.914 132.67)scale(1.0004)"/><path fill="none" stroke="#000" stroke-miterlimit="10" stroke-width=".3985" d="M108.697 106.746a8.894 8.894 0 1 0-17.789 0 8.894 8.894 0 0 0 17.789 0Z"/><use xlink:href="#a" x="-11.887771" y="-21.957813" transform="translate(108.756 132.67)scale(1.0004)"/><path fill="none" stroke="#000" stroke-miterlimit="10" stroke-width=".3985" d="M98.775 123.754a8.894 8.894 0 1 0-17.788 0 8.894 8.894 0 0 0 17.788 0Z"/><use xlink:href="#a" x="-11.887771" y="-21.957813" transform="translate(98.835 149.678)scale(1.0004)"/><g transform="translate(29.507 169.69)scale(1.00008)"><use xlink:href="#k" x="-11.88398" y="-21.950811"/><use xlink:href="#l" x="-7.639631" y="-21.950811"/><use xlink:href="#m" x="3.87632" y="-21.950811"/><use xlink:href="#n" x="9.33077" y="-21.950811"/></g><path fill="none" stroke="#000" stroke-miterlimit="10" stroke-width=".3985" d="M29.326 106.746a8.894 8.894 0 1 0-17.789 0 8.894 8.894 0 0 0 17.789 0Z"/><use xlink:href="#b" x="-11.887771" y="-21.957813" transform="translate(29.385 132.67)scale(1.0004)"/><path fill="none" stroke="#000" stroke-miterlimit="10" stroke-width=".3985" d="M49.286 106.746a9.012 9.012 0 1 0-18.024 0 9.012 9.012 0 1 0 18.024 0Z"/><use xlink:href="#e" x="-11.887771" y="-21.957813" transform="translate(49.228 132.544)scale(1.0004)"/><path fill="none" stroke="#000" stroke-miterlimit="10" stroke-width=".3985" d="M39.247 123.754a8.894 8.894 0 1 0-17.788 0 8.894 8.894 0 0 0 17.788 0Z"/><use xlink:href="#b" x="-11.887771" y="-21.957813" transform="translate(39.307 149.678)scale(1.0004)"/><g transform="translate(89.035 169.69)scale(1.00008)"><use xlink:href="#k" x="-11.88398" y="-21.950811"/><use xlink:href="#o" x="-7.639631" y="-21.950811"/><use xlink:href="#m" x="3.85951" y="-21.950811"/><use xlink:href="#n" x="9.33077" y="-21.950811"/></g><path fill="none" stroke="#000" stroke-miterlimit="10" stroke-width=".3985" d="M148.5 106.746a9.012 9.012 0 1 0-18.024 0 9.012 9.012 0 1 0 18.024 0Z"/><use xlink:href="#c" x="-11.887771" y="-21.957813" transform="translate(148.442 132.544)scale(1.0004)"/><path fill="none" stroke="#000" stroke-miterlimit="10" stroke-width=".3985" d="M168.343 106.746a9.012 9.012 0 1 0-18.024 0 9.012 9.012 0 1 0 18.024 0Z"/><use xlink:href="#c" x="-11.887771" y="-21.957813" transform="translate(168.285 132.544)scale(1.0004)"/><path fill="none" stroke="#000" stroke-miterlimit="10" stroke-width=".3985" d="M158.382 123.754a8.972 8.972 0 1 0-17.945 0 8.972 8.972 0 1 0 17.945 0Z"/><use xlink:href="#d" x="-11.887771" y="-21.957813" transform="translate(158.363 149.738)scale(1.0004)"/><g transform="translate(148.564 169.69)scale(1.00008)"><use xlink:href="#k" x="-11.88398" y="-21.950811"/><use xlink:href="#p" x="-7.639631" y="-21.950811"/><use xlink:href="#m" x="3.87632" y="-21.950811"/><use xlink:href="#n" x="9.33077" y="-21.950811"/></g></svg>