<svg xmlns="http://www.w3.org/2000/svg" xmlns:xlink="http://www.w3.org/1999/xlink" width="224.625" height="142.034"><defs><path id="a" d="M3.89 2.906c0-.031 0-.062-.203-.265C2.484 1.437 1.813-.531 1.813-2.97c0-2.328.562-4.328 1.953-5.734.125-.11.125-.125.125-.172 0-.063-.063-.094-.11-.094-.156 0-1.14.86-1.719 2.031-.609 1.22-.89 2.485-.89 3.97 0 1.062.172 2.484.781 3.75C2.672 2.218 3.641 3 3.781 3c.047 0 .11-.031.11-.094Zm0 0"/><path id="b" d="M8.453-4.047c0-2.484-1.812-4.375-3.906-4.375C2.422-8.422.64-6.5.64-4.047.64-1.625 2.453.25 4.547.25c2.14 0 3.906-1.906 3.906-4.297ZM4.547-.03c-1.219 0-2.797-1.14-2.797-4.203 0-2.922 1.672-3.922 2.797-3.922 1.172 0 2.797 1.031 2.797 3.922 0 3.109-1.625 4.203-2.797 4.203Zm0 0"/><path id="c" d="M3.375-2.969c0-.922-.125-2.39-.797-3.781C1.875-8.188.891-8.969.766-8.969c-.047 0-.11.031-.11.094 0 .047 0 .063.203.266 1.204 1.203 1.86 3.187 1.86 5.625 0 2.312-.563 4.312-1.938 5.718-.125.11-.125.141-.125.172 0 .063.063.094.11.094.156 0 1.14-.86 1.718-2.031.61-1.219.891-2.516.891-3.938Zm0 0"/><path id="d" d="M4.672-4.594 6.328-7c.203-.281.547-.813 1.688-.813v-.343c-.516.015-.657.015-1.266.015-.313 0-1.078 0-1.36-.015v.344c.485.03.641.312.641.515 0 .14-.047.203-.11.313L4.485-4.875l-1.609-2.39a.355.355 0 0 1-.094-.188c0-.172.25-.36.688-.36v-.343c-.297.015-1.235.015-1.578.015-.344 0-1.172 0-1.454-.015v.344c.891 0 1.016.062 1.266.437l2.234 3.313-2.015 2.921c-.203.297-.578.782-1.656.797V0c.515-.031.64-.031 1.25-.031.328 0 1.109 0 1.375.031v-.344c-.5-.031-.657-.328-.657-.531 0-.125.063-.219.125-.313l1.766-2.578L6.063-.875c.062.11.078.125.078.172 0 .14-.22.344-.672.36V0C5.75-.031 6.687-.031 7.03-.031c.328 0 1.188 0 1.469.031v-.344c-.703 0-1 0-1.266-.422Zm0 0"/></defs><path fill="none" stroke="#D2D2D2" stroke-miterlimit="10" stroke-width=".399" d="M15.934 95.305h79.37M15.935 75.46h79.37m-79.37-19.844h79.37m-79.37-19.84h79.37m-79.37-19.836h79.37m-79.37 79.364V15.934m19.843 79.37v-79.37m19.844 79.37v-79.37m19.84 79.37v-79.37m19.836 79.37v-79.37M15.934 95.305l79.37-79.371"/><path d="M17.695 95.305a1.762 1.762 0 1 0-3.524 0 1.762 1.762 0 0 0 3.524 0ZM97.066 15.934a1.762 1.762 0 1 0-3.524 0 1.762 1.762 0 0 0 3.524 0Zm0 0"/><path fill="none" stroke="#000" stroke-linecap="round" stroke-miterlimit="10" stroke-width=".747" d="M15.934 95.305H55.62V75.46h19.84V35.777h19.844V15.934"/><use xlink:href="#a" x="46.515" y="120.97"/><use xlink:href="#b" x="51.068" y="120.97"/><use xlink:href="#c" x="60.173" y="120.97"/><path fill="none" stroke="#D2D2D2" stroke-miterlimit="10" stroke-width=".399" d="M129.32 95.305h79.371m-79.37-19.844h79.37m-79.37-19.844h79.37m-79.37-19.84h79.37m-79.37-19.836h79.37m-79.37 79.364V15.934m19.843 79.37v-79.37m19.844 79.37v-79.37m19.84 79.37v-79.37m19.836 79.37v-79.37M129.32 95.305l79.371-79.371"/><path d="M131.082 95.305a1.762 1.762 0 1 0-3.524 0 1.762 1.762 0 0 0 3.524 0ZM210.453 15.934a1.762 1.762 0 1 0-3.524 0 1.762 1.762 0 0 0 3.524 0Zm0 0"/><path fill="none" stroke="#000" stroke-linecap="round" stroke-miterlimit="10" stroke-width=".747" d="M129.32 95.305h39.688V55.617"/><path fill="none" stroke="red" stroke-linecap="round" stroke-miterlimit="10" stroke-width=".747" d="M169.008 55.617v-19.84h19.84"/><path fill="none" stroke="#000" stroke-linecap="round" stroke-miterlimit="10" stroke-width=".747" d="M188.848 35.777h19.843V15.934"/><use xlink:href="#a" x="160.065" y="120.97"/><use xlink:href="#d" x="164.618" y="120.97"/><use xlink:href="#c" x="173.393" y="120.97"/></svg>