<svg xmlns="http://www.w3.org/2000/svg" xmlns:xlink="http://www.w3.org/1999/xlink" width="270.683" height="169.04"><defs><path id="a" d="M5.266 4.203c0-.016 0-.047-.047-.11-.797-.812-2.907-3.015-2.907-8.374 0-5.375 2.079-7.563 2.922-8.422 0-.016.032-.063.032-.11 0-.046-.047-.078-.125-.078-.188 0-1.641 1.266-2.485 3.157-.86 1.921-1.11 3.78-1.11 5.421 0 1.25.126 3.344 1.157 5.563.828 1.797 2.235 3.063 2.438 3.063.093 0 .125-.047.125-.11Zm0 0"/><path id="b" d="M11.594-5.86c0-3.53-2.531-6.171-5.39-6.171-2.938 0-5.407 2.687-5.407 6.172 0 3.5 2.515 6.14 5.39 6.14 2.938 0 5.407-2.687 5.407-6.14ZM6.204-.03c-1.97 0-4.11-1.969-4.11-6.047 0-4.063 2.344-5.64 4.094-5.64 1.812 0 4.093 1.624 4.093 5.64 0 4.156-2.187 6.047-4.078 6.047Zm0 0"/><path id="c" d="M4.531-4.281c0-1.25-.125-3.344-1.156-5.563C2.547-11.64 1.141-12.89.937-12.89c-.062 0-.125.016-.125.094 0 .031.016.063.032.094.828.86 2.922 3.047 2.922 8.39 0 5.375-2.079 7.563-2.922 8.422-.016.047-.031.063-.031.094 0 .078.062.11.125.11.187 0 1.64-1.282 2.484-3.172.86-1.922 1.11-3.782 1.11-5.422Zm0 0"/><path id="d" d="m6.281-6.531 2.547-3.657c.266-.374.781-1.109 2.188-1.124v-.454c-.391.047-1.047.047-1.454.047-.578 0-1.28 0-1.703-.047v.454c.547.046.688.39.688.671 0 .204-.094.344-.219.516L6.063-6.828l-2.547-3.734c-.125-.188-.141-.235-.141-.282 0-.156.188-.453.75-.469v-.453c-.547.047-1.39.047-1.953.047-.453 0-1.313 0-1.719-.047v.454c.938 0 1.25.03 1.625.562l3.328 4.86-3 4.359C1.672-.47.546-.453.22-.453V0C.625-.031 1.28-.031 1.687-.031c.47 0 1.282 0 1.704.031v-.453c-.532-.047-.688-.39-.688-.672 0-.219.094-.344.172-.453l2.75-4 3 4.375c.14.187.14.234.14.297 0 .125-.156.422-.765.453V0c.563-.031 1.406-.031 1.969-.031.453 0 1.312 0 1.719.031v-.453c-1.094 0-1.266-.078-1.61-.563Zm0 0"/></defs><path fill="none" stroke="#D2D2D2" stroke-miterlimit="10" stroke-width=".399" d="M16.285 118.336h102.05M16.286 92.82h102.05M16.286 67.31h102.05M16.286 41.797h102.05m-102.05-25.5h102.05M16.286 118.336V16.286m25.516 102.05V16.286m25.511 102.05V16.286m25.512 102.05V16.286m25.5 102.05V16.286M16.285 118.336l102.05-102.05"/><path d="M18.402 118.336c0-1.168-.949-2.117-2.117-2.117-1.164 0-2.113.949-2.113 2.117 0 1.164.95 2.113 2.113 2.113 1.168 0 2.117-.949 2.117-2.113ZM120.45 16.285a2.112 2.112 0 1 0-4.227 0 2.112 2.112 0 1 0 4.226 0Zm0 0"/><path fill="none" stroke="#000" stroke-linecap="round" stroke-miterlimit="10" stroke-width=".747" d="M16.285 118.336h51.028V92.82h25.511V41.797h25.512V16.285"/><use xlink:href="#a" x="55.018" y="145.314"/><use xlink:href="#b" x="61.114" y="145.314"/><use xlink:href="#c" x="73.506" y="145.314"/><path fill="none" stroke="#D2D2D2" stroke-miterlimit="10" stroke-width=".399" d="M152.352 118.336h102.046M152.352 92.82h102.046M152.352 67.31h102.046M152.352 41.797h102.046m-102.046-25.5h102.046M152.352 118.336V16.286m25.511 102.05V16.286m25.512 102.05V16.286m25.512 102.05V16.286m25.504 102.05V16.286M152.352 118.336l102.046-102.05"/><path d="M154.465 118.336a2.116 2.116 0 0 0-2.113-2.117 2.116 2.116 0 0 0 0 4.23c1.168 0 2.113-.949 2.113-2.113ZM256.516 16.285a2.116 2.116 0 0 0-4.23 0 2.115 2.115 0 0 0 4.23 0Zm0 0"/><path fill="none" stroke="#000" stroke-linecap="round" stroke-miterlimit="10" stroke-width=".747" d="M152.352 118.336h51.023V67.309"/><path fill="none" stroke="red" stroke-linecap="round" stroke-miterlimit="10" stroke-width=".747" d="M203.375 67.309V41.797h25.512"/><path fill="none" stroke="#000" stroke-linecap="round" stroke-miterlimit="10" stroke-width=".747" d="M228.887 41.797h25.511V16.285"/><use xlink:href="#a" x="191.309" y="145.314"/><use xlink:href="#d" x="197.405" y="145.314"/><use xlink:href="#c" x="209.34" y="145.314"/></svg>