<svg xmlns="http://www.w3.org/2000/svg" xmlns:xlink="http://www.w3.org/1999/xlink" width="466.778" height="140.06"><defs><path id="a" d="M4.625-8.313c-.047-.156-.078-.218-.234-.218-.172 0-.188.031-.25.219l-2.5 7.156c-.172.484-.5.797-1.266.812V0c.719-.031.75-.031 1.14-.031.344 0 .907 0 1.22.031v-.344c-.5-.015-.797-.265-.797-.594 0-.078 0-.109.062-.25l.547-1.593h3.015L6.22-.906c.062.14.062.172.062.203 0 .36-.61.36-.922.36V0c.282-.031 1.235-.031 1.563-.031.328 0 1.187 0 1.469.031v-.344c-.782 0-.985 0-1.157-.5Zm-.578 1.204 1.39 3.984H2.672Zm0 0"/><path id="b" d="M.516-8.156v.344H.75c.86 0 .906.109.906.562v6.344c0 .437-.047.562-.906.562H.516V0h4.5c1.53 0 2.609-1.047 2.609-2.188 0-.968-.875-1.921-2.297-2.078 1.14-.218 1.969-.984 1.969-1.875 0-1.03-1.047-2.015-2.61-2.015ZM2.562-4.36v-2.985c0-.39.016-.468.547-.468h1.5c1.204 0 1.625 1.015 1.625 1.671 0 .782-.609 1.782-1.937 1.782ZM3.11-.344c-.53 0-.546-.094-.546-.484v-3.297h2.234c1.14 0 1.734 1 1.734 1.922 0 .969-.718 1.86-1.89 1.86Zm0 0"/><path id="c" d="M7.797-8.14c0-.22 0-.282-.125-.282-.063 0-.078.031-.156.156l-.579.938C6.391-8 5.579-8.422 4.72-8.422 2.53-8.422.64-6.532.64-4.094.64-1.609 2.562.25 4.719.25c1.968 0 3.078-1.703 3.078-3.016 0-.14 0-.203-.14-.203-.11 0-.126.047-.126.14-.11 1.892-1.5 2.735-2.656 2.735-.828 0-3.125-.5-3.125-4 0-3.453 2.25-3.968 3.11-3.968C6.124-8.063 7.218-7 7.452-5.22c.031.157.031.188.172.188.172 0 .172-.032.172-.282Zm0 0"/></defs><path fill="#E9E9E9" d="M50.793 89.871h59.527V30.344Zm0 0"/><path fill="none" stroke="#D2D2D2" stroke-miterlimit="10" stroke-width=".399" d="M30.95 109.715h79.37M30.95 89.87h79.37m-79.37-19.84h79.37M30.95 50.187h79.37M30.95 30.355h79.37m-79.37 79.36V30.344m19.843 79.37v-79.37m19.844 79.37v-79.37m19.843 79.37v-79.37m19.832 79.37v-79.37M30.95 109.715l79.37-79.371"/><path d="M32.71 109.715a1.759 1.759 0 1 0-3.52 0 1.759 1.759 0 1 0 3.52 0ZM52.555 89.871a1.762 1.762 0 1 0-3.525 0 1.762 1.762 0 0 0 3.525 0ZM112.082 30.344a1.759 1.759 0 1 0-3.52 0 1.759 1.759 0 1 0 3.52 0Zm0 0"/><use xlink:href="#a" x="18.075" y="121.985"/><use xlink:href="#b" x="38.403" y="85.772"/><use xlink:href="#c" x="114.422" y="26.244"/><path fill="none" stroke="#000" stroke-linecap="round" stroke-miterlimit="10" stroke-width=".747" d="M30.95 109.715h19.843V89.87"/><path fill="none" stroke="#000" stroke-dasharray="2.98883 2.98883" stroke-linecap="round" stroke-miterlimit="10" stroke-width=".747" d="M53.285 89.871c31.524 0 57.035-25.512 57.035-53.516"/><path stroke="#000" stroke-linecap="round" stroke-miterlimit="10" stroke-width=".747" d="m110.32 33.898-1.285 3.399 1.285-1.129 1.29 1.129Zm0 0"/><path fill="#E9E9E9" d="M164.18 109.715h19.843V89.87ZM184.023 70.031h39.688V30.344Zm0 0"/><path fill="none" stroke="#D2D2D2" stroke-miterlimit="10" stroke-width=".399" d="M144.34 109.715h79.37M144.34 89.87h79.37m-79.37-19.84h79.37m-79.37-19.844h79.37m-79.37-19.832h79.37m-79.37 79.36V30.344m19.84 79.37v-79.37m19.843 79.37v-79.37m19.844 79.37v-79.37m19.832 79.37v-79.37M144.34 109.715l79.37-79.371"/><path d="M146.098 109.715a1.759 1.759 0 1 0-3.52 0 1.759 1.759 0 1 0 3.52 0ZM185.785 70.031a1.762 1.762 0 0 0-3.523 0c0 .973.789 1.758 1.761 1.758.973 0 1.762-.785 1.762-1.758ZM225.469 30.344a1.759 1.759 0 1 0-3.52 0 1.759 1.759 0 1 0 3.52 0Zm0 0"/><use xlink:href="#a" x="131.461" y="121.985"/><use xlink:href="#b" x="171.631" y="65.929"/><use xlink:href="#c" x="227.808" y="26.244"/><path fill="none" stroke="#000" stroke-linecap="round" stroke-miterlimit="10" stroke-width=".747" d="M144.34 109.715h19.84M184.023 89.871v-19.84"/><path fill="none" stroke="#000" stroke-dasharray="2.98883 2.98883" stroke-linecap="round" stroke-miterlimit="10" stroke-width=".747" d="M166.672 109.715c8.848 0 17.351-8.504 17.351-13.832"/><path stroke="#000" stroke-linecap="round" stroke-miterlimit="10" stroke-width=".747" d="m184.023 93.426-1.285 3.398 1.285-1.129 1.29 1.13Zm0 0"/><path fill="none" stroke="#000" stroke-dasharray="2.98883 2.98883" stroke-linecap="round" stroke-miterlimit="10" stroke-width=".747" d="M186.516 70.031c20.187 0 37.195-17.011 37.195-33.676"/><path stroke="#000" stroke-linecap="round" stroke-miterlimit="10" stroke-width=".747" d="m223.71 33.898-1.288 3.399 1.289-1.129 1.285 1.129Zm0 0"/><path fill="#E9E9E9" d="M277.566 109.715h39.688V70.03ZM317.254 50.188h19.844V30.343Zm0 0"/><path fill="none" stroke="#D2D2D2" stroke-miterlimit="10" stroke-width=".399" d="M257.727 109.715h79.37m-79.37-19.844h79.37m-79.37-19.84h79.37m-79.37-19.844h79.37m-79.37-19.832h79.37m-79.37 79.36V30.344m19.84 79.37v-79.37m19.843 79.37v-79.37m19.844 79.37v-79.37m19.832 79.37v-79.37M257.727 109.715l79.37-79.371"/><path d="M259.488 109.715a1.762 1.762 0 1 0-3.524 0 1.762 1.762 0 0 0 3.524 0ZM319.016 50.188a1.762 1.762 0 1 0-3.525 0 1.762 1.762 0 0 0 3.525 0ZM338.86 30.344a1.762 1.762 0 1 0-3.525 0 1.762 1.762 0 0 0 3.524 0Zm0 0"/><use xlink:href="#a" x="244.847" y="121.985"/><use xlink:href="#b" x="304.86" y="46.087"/><use xlink:href="#c" x="341.193" y="26.244"/><path fill="none" stroke="#000" stroke-linecap="round" stroke-miterlimit="10" stroke-width=".747" d="M257.727 109.715h19.84M317.254 70.031V50.187"/><path fill="none" stroke="#000" stroke-dasharray="2.98883 2.98883" stroke-linecap="round" stroke-miterlimit="10" stroke-width=".747" d="M280.059 109.715c20.187 0 37.195-17.008 37.195-33.676"/><path stroke="#000" stroke-linecap="round" stroke-miterlimit="10" stroke-width=".747" d="m317.254 73.586-1.285 3.398 1.285-1.132 1.285 1.132Zm0 0"/><path fill="none" stroke="#000" stroke-dasharray="2.98883 2.98883" stroke-linecap="round" stroke-miterlimit="10" stroke-width=".747" d="M319.746 50.188c8.848 0 17.352-8.504 17.352-13.833"/><path stroke="#000" stroke-linecap="round" stroke-miterlimit="10" stroke-width=".747" d="m337.098 33.898-1.29 3.399 1.29-1.129 1.285 1.129Zm0 0"/><path fill="#E9E9E9" d="M390.957 109.715h59.527V50.187Zm0 0"/><path fill="none" stroke="#D2D2D2" stroke-miterlimit="10" stroke-width=".399" d="M371.113 109.715h79.371m-79.37-19.844h79.37m-79.37-19.84h79.37m-79.37-19.844h79.37m-79.37-19.832h79.37m-79.37 79.36V30.344m19.843 79.37v-79.37m19.84 79.37v-79.37m19.844 79.37v-79.37m19.832 79.37v-79.37M371.113 109.715l79.371-79.371"/><path d="M372.875 109.715a1.762 1.762 0 1 0-3.524 0 1.762 1.762 0 0 0 3.524 0ZM452.246 30.344a1.762 1.762 0 1 0-3.524 0 1.762 1.762 0 0 0 3.524 0Zm0 0"/><use xlink:href="#a" x="358.232" y="121.985"/><use xlink:href="#b" x="438.088" y="26.244"/><path fill="none" stroke="#000" stroke-linecap="round" stroke-miterlimit="10" stroke-width=".747" d="M371.113 109.715h19.844M450.484 50.188V30.343"/><path fill="none" stroke="#000" stroke-dasharray="2.98883 2.98883" stroke-linecap="round" stroke-miterlimit="10" stroke-width=".747" d="M393.445 109.715c31.528 0 57.04-25.512 57.04-53.52"/><path stroke="#000" stroke-linecap="round" stroke-miterlimit="10" stroke-width=".747" d="m450.484 53.742-1.289 3.399 1.29-1.13 1.285 1.13Zm0 0"/></svg>