<svg xmlns="http://www.w3.org/2000/svg" xmlns:xlink="http://www.w3.org/1999/xlink" width="564.102" height="175.367"><defs><path id="a" d="M6.25-11.89c-.078-.235-.125-.282-.297-.282s-.203.047-.281.281L2.016-1.562C1.687-.641 1-.454.39-.454V0c.312-.031 1-.031 1.328-.031.437 0 1.125 0 1.531.031v-.453c-.813-.031-.922-.578-.922-.781 0-.157.031-.25.063-.344l.921-2.578h4.5L8.845-1.22c.094.203.094.235.094.313 0 .453-.735.453-1.063.453V0c.5-.031 1.39-.031 1.922-.031.453 0 1.312 0 1.719.031v-.453c-.907 0-1.22 0-1.438-.625Zm-.688 1.374 2.094 5.922H3.47Zm0 0"/><path id="b" d="M.89-11.766v.454c1.188 0 1.376 0 1.376.78v9.313c0 .766-.188.766-1.375.766V0h5.921c2.204 0 3.641-1.563 3.641-3.14 0-1.547-1.406-2.876-3.25-2.985C8.843-6.453 10-7.563 10-8.875c0-1.422-1.406-2.89-3.625-2.89ZM3.36-6.25v-4.39c0-.594.03-.672.718-.672h2.203c1.703 0 2.469 1.374 2.469 2.437 0 1.313-1.047 2.625-2.906 2.625Zm.718 5.797c-.687 0-.719-.078-.719-.672v-4.844h3.188c1.766 0 2.625 1.563 2.625 2.813 0 1.265-.969 2.703-2.86 2.703Zm0 0"/><path id="c" d="M10.688-11.688c0-.312-.016-.328-.11-.328-.078 0-.094.016-.219.22l-.75 1.452c-.843-1.078-1.875-1.687-3.203-1.687-2.937 0-5.61 2.594-5.61 6.14C.797-2.312 3.47.281 6.423.281c2.64 0 4.266-2.328 4.266-4.312 0-.172 0-.235-.157-.235-.125 0-.125.047-.14.204-.141 2.406-1.875 3.89-3.735 3.89-1.75 0-4.562-1.234-4.562-5.719 0-4.5 2.86-5.703 4.531-5.703 1.953 0 3.36 1.688 3.688 4.094.03.203.03.234.187.234.188 0 .188-.03.188-.343Zm0 0"/></defs><path fill="#E9E9E9" d="M62.348 113.195h76.535V36.66Zm0 0"/><path fill="none" stroke="#D2D2D2" stroke-miterlimit="10" stroke-width=".399" d="M36.836 138.707h102.047M36.836 113.195h102.047M36.836 87.684h102.047M36.836 62.172h102.047M36.836 36.668h102.047M36.836 138.707V36.66m25.512 102.047V36.66m25.511 102.047V36.66m25.512 102.047V36.66m25.5 102.047V36.66M36.836 138.707 138.883 36.66"/><path d="M38.95 138.707a2.115 2.115 0 0 0-4.231 0 2.116 2.116 0 0 0 4.23 0ZM64.46 113.195a2.112 2.112 0 1 0-2.113 2.113 2.115 2.115 0 0 0 2.114-2.113ZM140.996 36.66a2.112 2.112 0 1 0-4.226 0c0 1.164.945 2.113 2.113 2.113 1.168 0 2.113-.949 2.113-2.113Zm0 0"/><use xlink:href="#a" x="19.436" y="155.931"/><use xlink:href="#b" x="45.619" y="107.733"/><use xlink:href="#c" x="144.343" y="31.198"/><path fill="none" stroke="#000" stroke-linecap="round" stroke-miterlimit="10" stroke-width=".747" d="M36.836 138.707h25.512v-25.512"/><path fill="none" stroke="#000" stroke-dasharray="2.98883 2.98883" stroke-linecap="round" stroke-miterlimit="10" stroke-width=".747" d="M64.836 113.195c31.527 0 74.047-42.52 74.047-69.21"/><path stroke="#000" stroke-linecap="round" stroke-miterlimit="10" stroke-width=".747" d="m138.883 40.215-2.02 5.347 2.02-1.761 2.02 1.761Zm0 0"/><path fill="#E9E9E9" d="M198.41 138.707h25.512v-25.512ZM223.922 87.684h51.023V36.66Zm0 0"/><path fill="none" stroke="#D2D2D2" stroke-miterlimit="10" stroke-width=".399" d="M172.898 138.707h102.047m-102.047-25.512h102.047M172.898 87.684h102.047M172.898 62.172h102.047M172.898 36.668h102.047M172.898 138.707V36.66m25.512 102.047V36.66m25.512 102.047V36.66m25.512 102.047V36.66m25.504 102.047V36.66M172.898 138.707 274.945 36.66"/><path d="M175.012 138.707a2.112 2.112 0 1 0-4.227 0 2.112 2.112 0 1 0 4.227 0ZM226.035 87.684a2.112 2.112 0 1 0-4.226 0 2.112 2.112 0 1 0 4.226 0ZM277.063 36.66a2.116 2.116 0 0 0-4.231 0c0 1.164.95 2.113 2.113 2.113 1.168 0 2.118-.949 2.118-2.113Zm0 0"/><use xlink:href="#a" x="155.499" y="155.931"/><use xlink:href="#b" x="207.194" y="82.221"/><use xlink:href="#c" x="280.406" y="31.198"/><path fill="none" stroke="#000" stroke-linecap="round" stroke-miterlimit="10" stroke-width=".747" d="M172.898 138.707h25.512M223.922 113.195V87.684"/><path fill="none" stroke="#000" stroke-dasharray="2.98883 2.98883" stroke-linecap="round" stroke-miterlimit="10" stroke-width=".747" d="M200.902 138.707c8.848 0 23.02-14.172 23.02-18.184"/><path stroke="#000" stroke-linecap="round" stroke-miterlimit="10" stroke-width=".747" d="m223.922 116.75-2.02 5.352 2.02-1.766 2.02 1.766Zm0 0"/><path fill="none" stroke="#000" stroke-dasharray="2.98883 2.98883" stroke-linecap="round" stroke-miterlimit="10" stroke-width=".747" d="M226.414 87.684c20.188 0 48.531-28.348 48.531-43.7"/><path stroke="#000" stroke-linecap="round" stroke-miterlimit="10" stroke-width=".747" d="m274.945 40.215-2.015 5.347 2.015-1.761 2.02 1.761Zm0 0"/><path fill="#E9E9E9" d="M334.477 138.707H385.5V87.684ZM385.5 62.172h25.512V36.66Zm0 0"/><path fill="none" stroke="#D2D2D2" stroke-miterlimit="10" stroke-width=".399" d="M308.965 138.707h102.047m-102.047-25.512h102.047M308.965 87.684h102.047M308.965 62.172h102.047M308.965 36.668h102.047M308.965 138.707V36.66m25.512 102.047V36.66m25.511 102.047V36.66M385.5 138.707V36.66m25.504 102.047V36.66M308.965 138.707 411.012 36.66"/><path d="M311.078 138.707a2.112 2.112 0 1 0-2.113 2.113 2.115 2.115 0 0 0 2.113-2.113ZM387.613 62.172a2.112 2.112 0 1 0-4.226 0c0 1.164.945 2.113 2.113 2.113 1.168 0 2.113-.95 2.113-2.113ZM413.125 36.66a2.112 2.112 0 1 0-4.227 0 2.115 2.115 0 0 0 4.227 0Zm0 0"/><use xlink:href="#a" x="291.562" y="155.931"/><use xlink:href="#b" x="368.769" y="56.71"/><use xlink:href="#c" x="416.469" y="31.198"/><path fill="none" stroke="#000" stroke-linecap="round" stroke-miterlimit="10" stroke-width=".747" d="M308.965 138.707h25.512M385.5 87.684V62.172"/><path fill="none" stroke="#000" stroke-dasharray="2.98883 2.98883" stroke-linecap="round" stroke-miterlimit="10" stroke-width=".747" d="M336.965 138.707c20.187 0 48.535-28.348 48.535-43.695"/><path stroke="#000" stroke-linecap="round" stroke-miterlimit="10" stroke-width=".747" d="m385.5 91.238-2.02 5.352 2.02-1.766 2.02 1.766Zm0 0"/><path fill="none" stroke="#000" stroke-dasharray="2.98883 2.98883" stroke-linecap="round" stroke-miterlimit="10" stroke-width=".747" d="M387.992 62.172c8.848 0 23.02-14.176 23.02-18.188"/><path stroke="#000" stroke-linecap="round" stroke-miterlimit="10" stroke-width=".747" d="m411.012 40.215-2.02 5.347 2.02-1.761 2.02 1.761Zm0 0"/><path fill="#E9E9E9" d="M470.54 138.707h76.538V62.172Zm0 0"/><path fill="none" stroke="#D2D2D2" stroke-miterlimit="10" stroke-width=".399" d="M445.027 138.707h102.051m-102.05-25.512h102.05m-102.05-25.511h102.05m-102.05-25.512h102.05m-102.05-25.504h102.05m-102.05 102.039V36.66m25.511 102.047V36.66m25.512 102.047V36.66m25.515 102.047V36.66m25.5 102.047V36.66M445.027 138.707 547.078 36.66"/><path d="M447.14 138.707a2.112 2.112 0 1 0-4.226 0 2.112 2.112 0 1 0 4.227 0ZM549.191 36.66a2.112 2.112 0 1 0-4.229-.002 2.112 2.112 0 0 0 4.23.002Zm0 0"/><use xlink:href="#a" x="427.625" y="155.931"/><use xlink:href="#b" x="530.343" y="31.198"/><path fill="none" stroke="#000" stroke-linecap="round" stroke-miterlimit="10" stroke-width=".747" d="M445.027 138.707h25.512M547.078 62.172V36.66"/><path fill="none" stroke="#000" stroke-dasharray="2.98883 2.98883" stroke-linecap="round" stroke-miterlimit="10" stroke-width=".747" d="M473.031 138.707c31.524 0 74.047-42.52 74.047-69.207"/><path stroke="#000" stroke-linecap="round" stroke-miterlimit="10" stroke-width=".747" d="m547.078 65.727-2.02 5.351 2.02-1.766 2.016 1.766Zm0 0"/></svg>