<svg xmlns="http://www.w3.org/2000/svg" xmlns:xlink="http://www.w3.org/1999/xlink" width="278.758" height="105.28"><defs><path id="a" d="M.89-11.766v.454c1.188 0 1.376 0 1.376.78v9.313c0 .766-.188.766-1.375.766V0h5.921c2.204 0 3.641-1.563 3.641-3.14 0-1.547-1.406-2.876-3.25-2.985C8.843-6.453 10-7.563 10-8.875c0-1.422-1.406-2.89-3.625-2.89ZM3.36-6.25v-4.39c0-.594.03-.672.718-.672h2.203c1.703 0 2.469 1.374 2.469 2.437 0 1.313-1.047 2.625-2.906 2.625Zm.718 5.797c-.687 0-.719-.078-.719-.672v-4.844h3.188c1.766 0 2.625 1.563 2.625 2.813 0 1.265-.969 2.703-2.86 2.703Zm0 0"/><path id="b" d="M6.25-11.89c-.078-.235-.125-.282-.297-.282s-.203.047-.281.281L2.016-1.562C1.687-.641 1-.454.39-.454V0c.312-.031 1-.031 1.328-.031.437 0 1.125 0 1.531.031v-.453c-.813-.031-.922-.578-.922-.781 0-.157.031-.25.063-.344l.921-2.578h4.5L8.845-1.22c.094.203.094.235.094.313 0 .453-.735.453-1.063.453V0c.5-.031 1.39-.031 1.922-.031.453 0 1.312 0 1.719.031v-.453c-.907 0-1.22 0-1.438-.625Zm-.688 1.374 2.094 5.922H3.47Zm0 0"/><path id="c" d="M4.656 3.484c0-.046 0-.078-.234-.312-1.438-1.453-2.234-3.813-2.234-6.75 0-2.781.671-5.172 2.328-6.86.14-.14.14-.156.14-.203 0-.093-.062-.109-.125-.109-.187 0-1.36 1.031-2.062 2.438-.735 1.437-1.063 2.984-1.063 4.734 0 1.281.203 2.984.953 4.531.844 1.719 2.016 2.64 2.172 2.64.063 0 .125-.015.125-.109Zm0 0"/><path id="d" d="M10.14-4.86c0-2.968-2.187-5.234-4.671-5.234C2.906-10.094.78-7.797.78-4.859.781-1.953 2.937.297 5.453.297c2.563 0 4.688-2.281 4.688-5.156ZM5.47-.03c-1.469 0-3.36-1.375-3.36-5.047 0-3.516 2-4.703 3.344-4.703 1.422 0 3.36 1.234 3.36 4.703 0 3.734-1.954 5.047-3.344 5.047Zm0 0"/><path id="e" d="M4.047-3.578c0-1.078-.14-2.86-.953-4.531C2.25-9.83 1.078-10.75.922-10.75c-.063 0-.14.016-.14.11 0 .046 0 .062.25.312 1.437 1.453 2.234 3.812 2.234 6.75 0 2.781-.672 5.172-2.329 6.86-.156.124-.156.155-.156.202 0 .094.078.11.14.11.188 0 1.36-1.031 2.063-2.438.735-1.453 1.063-3 1.063-4.734Zm0 0"/><path id="f" d="M5.61-5.516 7.593-8.39c.234-.343.656-.968 2.015-.984v-.422c-.609.031-.78.031-1.5.031-.39 0-1.312 0-1.64-.03v.421c.593.031.781.375.781.625 0 .156-.063.25-.156.375L5.375-5.859 3.437-8.72c-.03-.062-.093-.156-.093-.234 0-.203.297-.422.812-.422v-.422c-.343.031-1.468.031-1.89.031-.407 0-1.407 0-1.75-.03v.421c1.078 0 1.218.063 1.515.531L4.72-4.875 2.312-1.359c-.25.359-.703.921-2 .937V0c.625-.031.782-.031 1.516-.031.375 0 1.313 0 1.64.031v-.422c-.593-.016-.78-.375-.78-.625 0-.156.062-.266.156-.39l2.11-3.079 2.312 3.47c.093.124.109.14.109.202 0 .172-.266.406-.813.422V0c.344-.031 1.454-.031 1.875-.031.391 0 1.422 0 1.766.031v-.422c-.844 0-1.187 0-1.531-.5Zm0 0"/></defs><path fill="none" stroke="#000" stroke-miterlimit="10" stroke-width=".399" d="M14.371 90.906h35.434V62.562H14.37ZM49.805 90.906 66.813 79.57V51.223"/><path fill="none" stroke="#000" stroke-miterlimit="10" stroke-width=".399" d="m49.805 62.563 17.008-11.34H31.379L14.37 62.563M30.105 56.89H47.82M40.594 45.555c0-11.34 25.511-22.68 46.992-22.68"/><path stroke="#000" stroke-miterlimit="10" stroke-width=".399" d="m91.05 22.875-5.007-1.883 1.64 1.883-1.64 1.883Zm0 0"/><path fill="none" stroke="#000" stroke-miterlimit="10" stroke-width=".399" d="M96.273 42.719h24.704V14.37H96.273Zm0 0"/><use xlink:href="#a" x="102.992" y="34.426"/><use xlink:href="#b" x="146.095" y="51.434"/><use xlink:href="#b" x="163.229" y="51.434"/><use xlink:href="#a" x="180.364" y="51.434"/><use xlink:href="#c" x="157.935" y="71.817"/><use xlink:href="#d" x="163.398" y="71.817"/><use xlink:href="#e" x="174.324" y="71.817"/><use xlink:href="#b" x="214.462" y="51.434"/><use xlink:href="#a" x="231.596" y="51.434"/><use xlink:href="#a" x="248.06" y="51.434" fill="red"/><use xlink:href="#c" x="226.164" y="71.817"/><use xlink:href="#f" x="231.627" y="71.817"/><use xlink:href="#e" x="242.157" y="71.817"/></svg>