<svg xmlns="http://www.w3.org/2000/svg" xmlns:xlink="http://www.w3.org/1999/xlink" width="243.2" height="105.28"><defs><path id="a" d="M.516-8.156v.344H.75c.86 0 .906.109.906.562v6.344c0 .437-.047.562-.906.562H.516V0h4.5c1.53 0 2.609-1.047 2.609-2.188 0-.968-.875-1.921-2.297-2.078 1.14-.218 1.969-.984 1.969-1.875 0-1.03-1.047-2.015-2.61-2.015ZM2.562-4.36v-2.985c0-.39.016-.468.547-.468h1.5c1.204 0 1.625 1.015 1.625 1.671 0 .782-.609 1.782-1.937 1.782ZM3.11-.344c-.53 0-.546-.094-.546-.484v-3.297h2.234c1.14 0 1.734 1 1.734 1.922 0 .969-.718 1.86-1.89 1.86Zm0 0"/><path id="b" d="M4.625-8.313c-.047-.156-.078-.218-.234-.218-.172 0-.188.031-.25.219l-2.5 7.156c-.172.484-.5.797-1.266.812V0c.719-.031.75-.031 1.14-.031.344 0 .907 0 1.22.031v-.344c-.5-.015-.797-.265-.797-.594 0-.078 0-.109.062-.25l.547-1.593h3.015L6.22-.906c.062.14.062.172.062.203 0 .36-.61.36-.922.36V0c.282-.031 1.235-.031 1.563-.031.328 0 1.187 0 1.469.031v-.344c-.782 0-.985 0-1.157-.5Zm-.578 1.204 1.39 3.984H2.672Zm0 0"/><path id="c" d="M3.89 2.906c0-.031 0-.062-.203-.265C2.484 1.437 1.813-.531 1.813-2.97c0-2.328.562-4.328 1.953-5.734.125-.11.125-.125.125-.172 0-.063-.063-.094-.11-.094-.156 0-1.14.86-1.719 2.031-.609 1.22-.89 2.485-.89 3.97 0 1.062.172 2.484.781 3.75C2.672 2.218 3.641 3 3.781 3c.047 0 .11-.031.11-.094Zm0 0"/><path id="d" d="M8.453-4.047c0-2.484-1.812-4.375-3.906-4.375C2.422-8.422.64-6.5.64-4.047.64-1.625 2.453.25 4.547.25c2.14 0 3.906-1.906 3.906-4.297ZM4.547-.03c-1.219 0-2.797-1.14-2.797-4.203 0-2.922 1.672-3.922 2.797-3.922 1.172 0 2.797 1.031 2.797 3.922 0 3.109-1.625 4.203-2.797 4.203Zm0 0"/><path id="e" d="M3.375-2.969c0-.922-.125-2.39-.797-3.781C1.875-8.188.891-8.969.766-8.969c-.047 0-.11.031-.11.094 0 .047 0 .063.203.266 1.204 1.203 1.86 3.187 1.86 5.625 0 2.312-.563 4.312-1.938 5.718-.125.11-.125.141-.125.172 0 .063.063.094.11.094.156 0 1.14-.86 1.718-2.031.61-1.219.891-2.516.891-3.938Zm0 0"/><path id="f" d="M4.672-4.594 6.328-7c.203-.281.547-.813 1.688-.813v-.343c-.516.015-.657.015-1.266.015-.313 0-1.078 0-1.36-.015v.344c.485.03.641.312.641.515 0 .14-.047.203-.11.313L4.485-4.875l-1.609-2.39a.355.355 0 0 1-.094-.188c0-.172.25-.36.688-.36v-.343c-.297.015-1.235.015-1.578.015-.344 0-1.172 0-1.454-.015v.344c.891 0 1.016.062 1.266.437l2.234 3.313-2.015 2.921c-.203.297-.578.782-1.656.797V0c.515-.031.64-.031 1.25-.031.328 0 1.109 0 1.375.031v-.344c-.5-.031-.657-.328-.657-.531 0-.125.063-.219.125-.313l1.766-2.578L6.063-.875c.062.11.078.125.078.172 0 .14-.22.344-.672.36V0C5.75-.031 6.687-.031 7.03-.031c.328 0 1.188 0 1.469.031v-.344c-.703 0-1 0-1.266-.422Zm0 0"/></defs><path fill="none" stroke="#000" stroke-miterlimit="10" stroke-width=".399" d="M14.371 90.906h35.434V62.562H14.37ZM49.805 90.906 66.813 79.57V51.223"/><path fill="none" stroke="#000" stroke-miterlimit="10" stroke-width=".399" d="m49.805 62.563 17.008-11.34H31.379L14.37 62.563M30.105 56.89H47.82M40.594 45.555c0-11.34 25.511-22.68 50.625-22.68"/><path fill="none" stroke="#000" stroke-linecap="round" stroke-linejoin="round" stroke-miterlimit="10" stroke-width=".399" d="M89.344 20.484c.379 1.434 1.222 2.114 2.074 2.391-.852.281-1.695.957-2.074 2.39"/><path fill="none" stroke="#000" stroke-miterlimit="10" stroke-width=".399" d="M97.637 42.719h21.976V14.37H97.637Zm0 0"/><use xlink:href="#a" x="104.48" y="32.63"/><use xlink:href="#b" x="140.7" y="49.638"/><use xlink:href="#b" x="153.373" y="49.638"/><use xlink:href="#a" x="166.057" y="49.638"/><use xlink:href="#c" x="148.417" y="65.55"/><use xlink:href="#d" x="152.97" y="65.55"/><use xlink:href="#e" x="162.075" y="65.55"/><use xlink:href="#b" x="191.966" y="49.638"/><use xlink:href="#a" x="204.639" y="49.638"/><use xlink:href="#a" x="216.838" y="49.638" fill="red"/><use xlink:href="#c" x="199.606" y="65.55"/><use xlink:href="#f" x="204.159" y="65.55"/><use xlink:href="#e" x="212.934" y="65.55"/></svg>