<svg xmlns="http://www.w3.org/2000/svg" xmlns:xlink="http://www.w3.org/1999/xlink" width="111.239" height="125.649"><defs><path id="a" d="M4.625-8.313c-.047-.156-.078-.218-.234-.218-.172 0-.188.031-.25.219l-2.5 7.156c-.172.484-.5.797-1.266.812V0c.719-.031.75-.031 1.14-.031.344 0 .907 0 1.22.031v-.344c-.5-.015-.797-.265-.797-.594 0-.078 0-.109.062-.25l.547-1.593h3.015L6.22-.906c.062.14.062.172.062.203 0 .36-.61.36-.922.36V0c.282-.031 1.235-.031 1.563-.031.328 0 1.187 0 1.469.031v-.344c-.782 0-.985 0-1.157-.5Zm-.578 1.204 1.39 3.984H2.672Zm0 0"/><path id="b" d="M.516-8.156v.344H.75c.86 0 .906.109.906.562v6.344c0 .437-.047.562-.906.562H.516V0h4.5c1.53 0 2.609-1.047 2.609-2.188 0-.968-.875-1.921-2.297-2.078 1.14-.218 1.969-.984 1.969-1.875 0-1.03-1.047-2.015-2.61-2.015ZM2.562-4.36v-2.985c0-.39.016-.468.547-.468h1.5c1.204 0 1.625 1.015 1.625 1.671 0 .782-.609 1.782-1.937 1.782ZM3.11-.344c-.53 0-.546-.094-.546-.484v-3.297h2.234c1.14 0 1.734 1 1.734 1.922 0 .969-.718 1.86-1.89 1.86Zm0 0"/></defs><path fill="none" stroke="#D2D2D2" stroke-miterlimit="10" stroke-width=".399" d="M15.934 95.305h79.37M15.935 75.46h79.37m-79.37-19.844h79.37m-79.37-19.84h79.37m-79.37-19.836h79.37m-79.37 79.364V15.934m19.843 79.37v-79.37m19.844 79.37v-79.37m19.84 79.37v-79.37m19.836 79.37v-79.37M15.934 95.305l77.96-77.961"/><path d="M17.695 95.305a1.762 1.762 0 1 0-3.524 0 1.762 1.762 0 0 0 3.524 0ZM97.066 15.934a1.762 1.762 0 1 0-3.524 0 1.762 1.762 0 0 0 3.524 0Zm0 0"/><path fill="none" stroke="#000" stroke-linecap="round" stroke-miterlimit="10" stroke-width=".747" d="M15.934 95.305h14.332"/><path stroke="#000" stroke-linecap="round" stroke-miterlimit="10" stroke-width=".747" d="m32.719 95.305-3.399-1.29 1.133 1.29-1.133 1.285Zm0 0"/><path fill="none" stroke="#000" stroke-linecap="round" stroke-miterlimit="10" stroke-width=".747" d="M35.777 95.305V80.973"/><path stroke="#000" stroke-linecap="round" stroke-miterlimit="10" stroke-width=".747" d="m35.777 78.52-1.289 3.398 1.29-1.133 1.285 1.133Zm0 0"/><path fill="none" stroke="red" stroke-linecap="round" stroke-miterlimit="10" stroke-width=".747" d="M35.777 75.46V61.13"/><path fill="red" stroke="red" stroke-linecap="round" stroke-miterlimit="10" stroke-width=".747" d="m35.777 58.676-1.289 3.398 1.29-1.129 1.285 1.13Zm0 0"/><use xlink:href="#a" x="21.468" y="107.574"/><use xlink:href="#b" x="39.878" y="89.467"/><use xlink:href="#b" x="39.878" y="69.625"/></svg>