<svg xmlns="http://www.w3.org/2000/svg" xmlns:xlink="http://www.w3.org/1999/xlink" width="134.62" height="154.994"><defs><path id="a" d="M6.25-11.89c-.078-.235-.125-.282-.297-.282s-.203.047-.281.281L2.016-1.562C1.687-.641 1-.454.39-.454V0c.312-.031 1-.031 1.328-.031.437 0 1.125 0 1.531.031v-.453c-.813-.031-.922-.578-.922-.781 0-.157.031-.25.063-.344l.921-2.578h4.5L8.845-1.22c.094.203.094.235.094.313 0 .453-.735.453-1.063.453V0c.5-.031 1.39-.031 1.922-.031.453 0 1.312 0 1.719.031v-.453c-.907 0-1.22 0-1.438-.625Zm-.688 1.374 2.094 5.922H3.47Zm0 0"/><path id="b" d="M.89-11.766v.454c1.188 0 1.376 0 1.376.78v9.313c0 .766-.188.766-1.375.766V0h5.921c2.204 0 3.641-1.563 3.641-3.14 0-1.547-1.406-2.876-3.25-2.985C8.843-6.453 10-7.563 10-8.875c0-1.422-1.406-2.89-3.625-2.89ZM3.36-6.25v-4.39c0-.594.03-.672.718-.672h2.203c1.703 0 2.469 1.374 2.469 2.437 0 1.313-1.047 2.625-2.906 2.625Zm.718 5.797c-.687 0-.719-.078-.719-.672v-4.844h3.188c1.766 0 2.625 1.563 2.625 2.813 0 1.265-.969 2.703-2.86 2.703Zm0 0"/></defs><path fill="none" stroke="#D2D2D2" stroke-miterlimit="10" stroke-width=".399" d="M16.285 118.336h102.05M16.286 92.82h102.05M16.286 67.31h102.05M16.286 41.797h102.05m-102.05-25.5h102.05M16.286 118.336V16.286m25.516 102.05V16.286m25.511 102.05V16.286m25.512 102.05V16.286m25.5 102.05V16.286M16.285 118.336l100.64-100.64"/><path d="M18.402 118.336c0-1.168-.949-2.117-2.117-2.117-1.164 0-2.113.949-2.113 2.117 0 1.164.95 2.113 2.113 2.113 1.168 0 2.117-.949 2.117-2.113ZM120.45 16.285a2.112 2.112 0 1 0-4.227 0 2.112 2.112 0 1 0 4.226 0Zm0 0"/><path fill="none" stroke="#000" stroke-linecap="round" stroke-miterlimit="10" stroke-width=".747" d="M16.285 118.336H34.97"/><path stroke="#000" stroke-linecap="round" stroke-miterlimit="10" stroke-width=".747" d="m38.742 118.336-5.351-2.02 1.765 2.02-1.765 2.016Zm0 0"/><path fill="none" stroke="#000" stroke-linecap="round" stroke-miterlimit="10" stroke-width=".747" d="M41.8 118.336V99.652"/><path stroke="#000" stroke-linecap="round" stroke-miterlimit="10" stroke-width=".747" d="m41.8 95.879-2.019 5.351 2.02-1.765 2.015 1.765Zm0 0"/><path fill="none" stroke="red" stroke-linecap="round" stroke-miterlimit="10" stroke-width=".747" d="M41.8 92.82V74.14"/><path fill="red" stroke="red" stroke-linecap="round" stroke-miterlimit="10" stroke-width=".747" d="m41.8 70.367-2.019 5.352 2.02-1.766 2.015 1.766Zm0 0"/><use xlink:href="#a" x="23.075" y="135.558"/><use xlink:href="#b" x="47.261" y="111.459"/><use xlink:href="#b" x="47.261" y="85.947"/></svg>