<svg xmlns="http://www.w3.org/2000/svg" xmlns:xlink="http://www.w3.org/1999/xlink" width="346.308" height="88.105"><defs><path id="a" d="M3.438-7.656c0-.282 0-.297-.235-.297-.281.328-.89.766-2.11.766v.343c.266 0 .86 0 1.532-.297v6.22c0 .437-.047.577-1.094.577h-.375V0c.328-.031 1.485-.031 1.875-.031.406 0 1.547 0 1.875.031v-.344h-.375c-1.047 0-1.093-.14-1.093-.578Zm0 0"/><path id="b" d="M2.203-4.297c-.203.016-.25.031-.25.14 0 .11.063.11.266.11h.547c1.03 0 1.484.844 1.484 1.984 0 1.579-.813 1.985-1.406 1.985-.578 0-1.547-.266-1.906-1.063.39.063.734-.156.734-.578a.571.571 0 0 0-.578-.593c-.297 0-.61.171-.61.624C.484-.625 1.547.25 2.875.25c1.422 0 2.484-1.094 2.484-2.297C5.36-3.14 4.47-4 3.33-4.203 4.358-4.5 5.03-5.375 5.03-6.313c0-.937-.984-1.64-2.14-1.64-1.188 0-2.079.734-2.079 1.61 0 .468.375.577.547.577.25 0 .547-.187.547-.546 0-.375-.297-.547-.562-.547-.063 0-.094 0-.125.015.453-.812 1.578-.812 1.64-.812.391 0 1.172.172 1.172 1.343 0 .235-.031.891-.39 1.407-.36.531-.766.562-1.079.578Zm0 0"/><path id="c" d="M5.266-2.016H5c-.047.204-.14.875-.25 1.063-.094.11-.766.11-1.125.11H1.406c.328-.282 1.063-1.048 1.36-1.329 1.828-1.672 2.5-2.297 2.5-3.484 0-1.375-1.094-2.297-2.485-2.297-1.375 0-2.203 1.187-2.203 2.219 0 .609.531.609.563.609.265 0 .562-.188.562-.563 0-.343-.219-.562-.562-.562-.094 0-.125 0-.157.016.22-.813.875-1.375 1.641-1.375 1.016 0 1.64.859 1.64 1.953 0 1.015-.577 1.906-1.265 2.672L.578-.281V0h4.375Zm0 0"/></defs><path fill="none" stroke="#000" stroke-miterlimit="10" stroke-width=".399" d="M14.371 33.883v39.851h19.926V33.883"/><use xlink:href="#a" x="46.253" y="25.779"/><use xlink:href="#b" x="52.106" y="25.779"/><use xlink:href="#c" x="57.96" y="25.779"/><path fill="none" stroke="#000" stroke-miterlimit="10" stroke-width=".399" d="M113.586 33.883v39.851h19.926V33.883"/><use xlink:href="#a" x="95.777" y="25.779"/><use xlink:href="#b" x="145.465" y="25.779"/><use xlink:href="#c" x="151.318" y="25.779"/><path fill="none" stroke="#000" stroke-miterlimit="10" stroke-width=".399" d="M108.32 21.926c3.274 0 9.25 1.992 9.25 9.965"/><path stroke="#000" stroke-miterlimit="10" stroke-width=".399" d="m106.184 21.926 3.039 1.148-1-1.148 1-1.145Zm0 0"/><path fill="none" stroke="#000" stroke-miterlimit="10" stroke-width=".399" d="M129.527 29.184c0-5.266 5.977-7.258 11.953-7.258"/><path stroke="#000" stroke-miterlimit="10" stroke-width=".399" d="m129.527 31.32 1.145-3.039-1.145 1-1.148-1Zm0 0"/><path fill="none" stroke="#000" stroke-miterlimit="10" stroke-width=".399" d="M212.8 33.883v39.851h19.927V33.883"/><use xlink:href="#b" x="219.834" y="67.622"/><use xlink:href="#c" x="219.834" y="55.667"/><use xlink:href="#a" x="194.989" y="25.779"/><path fill="none" stroke="#000" stroke-miterlimit="10" stroke-width=".399" d="M228.738 29.184c0-5.266 5.98-7.258 11.957-7.258"/><path stroke="#000" stroke-miterlimit="10" stroke-width=".399" d="m228.738 31.32 1.149-3.039-1.149 1-1.144-1Zm0 0"/><path fill="none" stroke="#000" stroke-miterlimit="10" stroke-width=".399" d="M312.012 33.883v39.851h19.925V33.883"/><use xlink:href="#a" x="282.496" y="25.779"/><use xlink:href="#c" x="288.349" y="25.779"/><use xlink:href="#b" x="294.203" y="25.779"/><path fill="none" stroke="#000" stroke-miterlimit="10" stroke-width=".399" d="M306.75 21.926c3.27 0 9.25 1.992 9.25 9.965"/><path stroke="#000" stroke-miterlimit="10" stroke-width=".399" d="m304.61 21.926 3.042 1.148-1.004-1.148 1.004-1.145Zm0 0"/></svg>