<svg xmlns="http://www.w3.org/2000/svg" xmlns:xlink="http://www.w3.org/1999/xlink" width="447.821" height="110.491"><defs><path id="a" d="M4.578-11c0-.36-.016-.375-.25-.375-.672.797-1.687 1.063-2.656 1.094-.047 0-.14 0-.156.031-.016.047-.016.078-.016.438.531 0 1.422-.11 2.11-.516v9.078c0 .594-.032.797-1.516.797h-.516V0a135.04 135.04 0 0 1 2.516-.031c.828 0 1.687.015 2.515.031v-.453h-.515c-1.485 0-1.516-.188-1.516-.797Zm0 0"/><path id="b" d="M3.813-5.86c1.53 0 2.203 1.329 2.203 2.86 0 2.063-1.11 2.86-2.11 2.86-.906 0-2.39-.438-2.86-1.766a.774.774 0 0 0 .266.031c.407 0 .72-.281.72-.719 0-.5-.376-.734-.72-.734-.296 0-.75.14-.75.781C.563-.969 2.125.281 3.938.281c1.922 0 3.376-1.5 3.376-3.265 0-1.672-1.375-2.875-3-3.063 1.296-.266 2.562-1.437 2.562-3.016 0-1.343-1.36-2.312-2.922-2.312s-2.937.953-2.937 2.328c0 .61.453.719.671.719.36 0 .672-.235.672-.672 0-.453-.312-.672-.671-.672-.063 0-.157 0-.22.031.5-1.14 1.86-1.343 2.454-1.343.61 0 1.75.296 1.75 1.937 0 .485-.078 1.344-.656 2.11-.516.671-1.11.703-1.672.75-.094 0-.485.046-.547.046-.125.016-.203.032-.203.157 0 .109.031.125.375.125Zm0 0"/><path id="c" d="M7.188-2.672h-.313c-.172 1.219-.313 1.438-.39 1.531C6.405-1 5.171-1 4.921-1H1.625c.61-.672 1.813-1.89 3.281-3.313 1.047-.984 2.282-2.156 2.282-3.859 0-2.031-1.625-3.203-3.438-3.203-1.89 0-3.047 1.656-3.047 3.219 0 .672.5.75.703.75.172 0 .688-.094.688-.703 0-.532-.438-.688-.688-.688a.673.673 0 0 0-.265.047c.328-1.453 1.328-2.188 2.375-2.188 1.5 0 2.468 1.188 2.468 2.766 0 1.485-.875 2.781-1.859 3.906L.703-.39V0h6.063Zm0 0"/></defs><path fill="none" stroke="#000" stroke-miterlimit="10" stroke-width=".399" d="M14.371 40.328v55.793H42.27V40.328"/><use xlink:href="#a" x="61.595" y="33.921"/><path fill="none" stroke="#000" stroke-miterlimit="10" stroke-width=".398" d="M58.207 19.637h14.672M58.406 37.11V19.636M72.68 37.11V19.636M58.207 37.11h14.672"/><use xlink:href="#b" x="75.51" y="33.921"/><use xlink:href="#c" x="83.405" y="33.921"/><path fill="none" stroke="#000" stroke-miterlimit="10" stroke-width=".399" d="M144.766 40.328v55.793h27.898V40.328"/><use xlink:href="#a" x="117.543" y="33.921"/><path fill="none" stroke="#000" stroke-miterlimit="10" stroke-width=".398" d="M114.156 19.637h14.668M114.355 37.11V19.636M128.629 37.11V19.636M114.156 37.11h14.668"/><use xlink:href="#b" x="191.989" y="33.921"/><use xlink:href="#c" x="199.884" y="33.921"/><path fill="none" stroke="#000" stroke-miterlimit="10" stroke-width=".398" d="M188.602 19.637h22.566M188.8 37.11V19.636M210.969 37.11V19.636M188.602 37.11h22.566"/><path fill="none" stroke="#000" stroke-miterlimit="10" stroke-width=".399" d="M142.5 26.379c2.266 0 8.246 5.98 8.246 13.95"/><path stroke="#000" stroke-miterlimit="10" stroke-width=".399" d="m139.355 26.379 4.532 1.707-1.489-1.707 1.489-1.703Zm0 0"/><path fill="none" stroke="#000" stroke-miterlimit="10" stroke-width=".399" d="M166.684 36.617c0-4.258 5.98-10.238 11.957-10.238"/><path stroke="#000" stroke-miterlimit="10" stroke-width=".399" d="m166.684 39.762 1.707-4.528-1.707 1.485-1.704-1.485Zm0 0"/><path fill="none" stroke="#000" stroke-miterlimit="10" stroke-width=".399" d="M275.164 40.328v55.793h27.895V40.328"/><use xlink:href="#b" x="285.16" y="89.712"/><use xlink:href="#c" x="285.16" y="69.787"/><use xlink:href="#a" x="251.324" y="33.921"/><path fill="none" stroke="#000" stroke-miterlimit="10" stroke-width=".399" d="M297.082 36.617c0-4.258 5.977-10.238 11.953-10.238"/><path stroke="#000" stroke-miterlimit="10" stroke-width=".399" d="m297.082 39.762 1.703-4.528-1.703 1.485-1.707-1.485Zm0 0"/><path fill="none" stroke="#000" stroke-miterlimit="10" stroke-width=".399" d="M405.559 40.328v55.793h27.894V40.328"/><use xlink:href="#a" x="357.733" y="33.921"/><use xlink:href="#c" x="371.653" y="33.921"/><use xlink:href="#b" x="379.548" y="33.921"/><path fill="none" stroke="#000" stroke-miterlimit="10" stroke-width=".398" d="M368.262 19.637h22.562M368.46 37.11V19.636M390.625 37.11V19.636M368.262 37.11h22.562"/><path fill="none" stroke="#000" stroke-miterlimit="10" stroke-width=".399" d="M403.29 26.379c2.269 0 8.245 5.98 8.245 13.95"/><path stroke="#000" stroke-miterlimit="10" stroke-width=".399" d="m400.148 26.379 4.528 1.707-1.485-1.707 1.485-1.703Zm0 0"/></svg>