<svg xmlns="http://www.w3.org/2000/svg" width="390.643" height="85.465" viewBox="-72 -72 292.982 64.099"><g fill="none" stroke="#000" stroke-miterlimit="10" stroke-width=".4"><path stroke-width=".398504" d="m-38.895-60.462 21.568 15.67-8.238 25.353h-26.659l-8.238-25.354ZM-38.895-60.462l13.33 41.023M-38.895-60.462-52.224-19.44M17.798-60.462l21.568 15.67-8.239 25.353H4.47L-3.77-44.793ZM39.366-44.793 4.469-19.439M39.366-44.793H-3.77M74.491-60.462l21.567 15.67L87.82-19.44H61.162l-8.238-25.354ZM87.82-19.439 52.924-44.793M87.82-19.439 74.491-60.462M131.184-60.462l21.567 15.67-8.238 25.353h-26.658l-8.238-25.354ZM117.855-19.439l13.329-41.023M117.855-19.439l34.896-25.354M187.877-60.462l21.567 15.67-8.238 25.353h-26.658l-8.239-25.354ZM166.31-44.793h43.134M166.31-44.793l34.896 25.354"/></g></svg>