<svg xmlns="http://www.w3.org/2000/svg" width="292.98pt" height="64.1pt" viewBox="0 0 292.98 64.1"><g fill="none" stroke="#000" stroke-miterlimit="10" stroke-width=".3985"><path d="m33.105 11.539 21.568 15.67-8.239 25.354H19.776l-8.239-25.355ZM33.105 11.539l13.33 41.024M33.105 11.539l-13.33 41.024M89.799 11.539l21.567 15.67-8.238 25.354H76.47l-8.238-25.355ZM111.366 27.208 76.47 52.563M111.366 27.208H68.231M146.492 11.539l21.568 15.67-8.238 25.354h-26.66l-8.237-25.355ZM159.822 52.563l-34.897-25.355M159.822 52.563l-13.33-41.024M203.186 11.539l21.568 15.67-8.239 25.354h-26.659l-8.238-25.355ZM189.856 52.563l13.33-41.024M189.856 52.563l34.898-25.355M259.88 11.539l21.567 15.67-8.238 25.354H246.55l-8.238-25.355ZM238.312 27.208h43.135M238.312 27.208l34.897 25.355"/></g></svg>