<svg xmlns="http://www.w3.org/2000/svg" xmlns:xlink="http://www.w3.org/1999/xlink" width="428.736" height="171.51" viewBox="-72 -72 321.552 128.633"><defs><path id="k" d="M5.138-1.8v-.338h-1.09v-4.964c0-.218 0-.283-.175-.283-.098 0-.131 0-.218.13L.305-2.138v.338h2.902v.95c0 .392-.022.512-.829.512H2.15V0c.447-.033 1.015-.033 1.473-.033s1.036 0 1.483.033v-.338h-.229c-.807 0-.829-.12-.829-.513V-1.8zm-1.865-.338H.61l2.662-4.07z"/><path id="h" d="M5.29-4.407a.534.534 0 0 0-.555-.535c-.219 0-.699.066-1.157.513a1.82 1.82 0 0 0-1.156-.393c-1.015 0-1.767.753-1.767 1.593 0 .48.24.894.512 1.124A1.5 1.5 0 0 0 .83-1.2c0 .338.142.753.48.97C.655-.043.305.426.305.863c0 .785 1.08 1.385 2.411 1.385 1.288 0 2.422-.556 2.422-1.407 0-.382-.153-.938-.709-1.244-.578-.305-1.21-.305-1.876-.305-.273 0-.742 0-.818-.011-.35-.044-.579-.382-.579-.73 0-.045 0-.295.186-.514.425.306.873.339 1.08.339 1.014 0 1.767-.753 1.767-1.593 0-.404-.174-.807-.447-1.058.393-.371.785-.426.982-.426 0 0 .076 0 .109.011-.12.044-.175.164-.175.295a.31.31 0 0 0 .317.316c.109 0 .316-.076.316-.327M3.37-3.23c0 .294-.01.644-.174.916-.087.131-.338.437-.774.437-.95 0-.95-1.091-.95-1.342 0-.295.012-.644.175-.917.088-.13.338-.436.775-.436.949 0 .949 1.091.949 1.342M4.57.86c0 .59-.774 1.135-1.843 1.135C1.625 1.996.873 1.44.873.862c0-.502.414-.906.894-.938h.644c.938 0 2.16 0 2.16.938"/><path id="g" d="M3.01-2.04v-.633H.12v.633z"/><path id="j" d="M5.836 0v-.338c-.567 0-.84 0-.85-.327V-2.75c0-.938 0-1.276-.339-1.67-.152-.185-.512-.403-1.145-.403-.797 0-1.31.47-1.615 1.146v-1.146l-1.538.12v.338c.764 0 .851.077.851.611v2.924c0 .49-.12.49-.85.49V0l1.232-.033L2.804 0v-.338c-.731 0-.851 0-.851-.491v-2.007c0-1.135.774-1.746 1.472-1.746.688 0 .808.59.808 1.211v2.542c0 .49-.12.49-.851.49V0l1.233-.033z"/><path id="i" d="M5.138-2.335c0-1.396-1.09-2.552-2.41-2.552-1.364 0-2.423 1.189-2.423 2.552A2.435 2.435 0 0 0 2.716.12a2.43 2.43 0 0 0 2.422-2.455m-.905-.087c0 .393 0 .982-.24 1.462-.24.49-.72.807-1.266.807-.469 0-.949-.229-1.243-.73-.273-.48-.273-1.146-.273-1.539 0-.425 0-1.014.262-1.494.294-.502.807-.731 1.243-.731.48 0 .95.24 1.233.709s.284 1.102.284 1.516"/><path id="l" d="M4.985-1.865c0-.895-.687-1.746-1.821-1.975.894-.295 1.527-1.058 1.527-1.92 0-.895-.96-1.505-2.007-1.505-1.102 0-1.931.654-1.931 1.483 0 .36.24.567.556.567.338 0 .556-.24.556-.556 0-.545-.512-.545-.676-.545.338-.535 1.058-.677 1.451-.677.447 0 1.047.24 1.047 1.222 0 .131-.022.764-.305 1.244-.327.523-.698.556-.971.567-.087.01-.35.033-.426.033-.087.01-.163.022-.163.13 0 .12.076.12.262.12h.48c.894 0 1.298.742 1.298 1.812 0 1.483-.753 1.8-1.233 1.8-.469 0-1.287-.186-1.669-.83.382.055.72-.185.72-.6 0-.392-.295-.61-.61-.61-.263 0-.612.152-.612.632C.458-.48 1.473.24 2.662.24c1.33 0 2.323-.993 2.323-2.105"/><path id="f" d="M4.898-1.898h-.273c-.054.327-.13.807-.24.97C4.31-.84 3.59-.84 3.35-.84H1.385l1.157-1.124c1.702-1.505 2.356-2.094 2.356-3.185 0-1.244-.982-2.116-2.313-2.116a2.016 2.016 0 0 0-2.04 1.974c0 .611.546.611.579.611.185 0 .567-.13.567-.578a.55.55 0 0 0-.578-.567c-.088 0-.11 0-.142.01.25-.709.84-1.112 1.473-1.112.992 0 1.461.883 1.461 1.778 0 .873-.545 1.734-1.145 2.41L.665-.403c-.12.12-.12.142-.12.404h4.048z"/><path id="e" d="M5.26-2.403c0-1.423-.956-2.606-2.211-2.606-.682 0-1.208.299-1.519.633V-6.85c.514.167.933.179 1.064.179 1.351 0 2.212-.992 2.212-1.16 0-.047-.024-.107-.096-.107 0 0-.047 0-.155.048A3.9 3.9 0 0 1 3-7.568c-.79 0-1.351-.239-1.578-.334-.084-.036-.12-.036-.12-.036-.096 0-.096.071-.096.263v3.55c0 .216 0 .287.144.287.06 0 .072-.012.191-.155.335-.49.897-.777 1.495-.777.633 0 .944.586 1.04.789.203.466.215 1.052.215 1.506s0 1.136-.335 1.674c-.263.43-.73.73-1.255.73A1.85 1.85 0 0 1 .92-1.483c.06.023.131.035.19.035.204 0 .527-.12.527-.526 0-.334-.227-.526-.526-.526-.215 0-.526.108-.526.574 0 1.016.813 2.176 2.14 2.176 1.35 0 2.534-1.136 2.534-2.654"/><path id="d" d="M5.523-1.997v-.346H4.316v-5.44c0-.227 0-.287-.168-.287-.095 0-.131 0-.227.144L.323-2.343v.346h3.144v1.088c0 .443-.024.562-.897.562h-.239V0c.275-.024 1.22-.024 1.554-.024s1.292 0 1.567.024v-.347h-.24c-.86 0-.896-.12-.896-.562v-1.088zm-1.996-.346H.622L3.527-6.85z"/><path id="a" d="M4.902 0v-.347H4.53c-1.052 0-1.088-.143-1.088-.574v-6.742c0-.275 0-.287-.239-.287-.287.323-.885.765-2.116.765v.347c.275 0 .873 0 1.53-.311v6.228c0 .43-.036.574-1.088.574h-.37V0c.322-.024 1.482-.024 1.877-.024s1.542 0 1.865.024"/><path id="c" d="M5.356-2.044c0-1.1-.885-1.961-2.032-2.164 1.04-.3 1.71-1.172 1.71-2.104 0-.945-.981-1.638-2.14-1.638-1.196 0-2.081.73-2.081 1.602 0 .478.37.574.55.574.25 0 .538-.18.538-.538 0-.383-.287-.55-.55-.55-.072 0-.096 0-.132.012.455-.813 1.579-.813 1.638-.813.395 0 1.172.18 1.172 1.35 0 .228-.036.897-.383 1.411-.358.526-.765.562-1.088.574l-.358.036c-.203.012-.251.024-.251.132 0 .12.06.12.275.12h.55c1.016 0 1.47.836 1.47 1.984 0 1.566-.813 1.984-1.399 1.984-.574 0-1.554-.275-1.9-1.064.382.06.729-.155.729-.586a.565.565 0 0 0-.586-.585c-.287 0-.598.167-.598.621C.49-.622 1.554.251 2.881.251c1.423 0 2.475-1.088 2.475-2.295"/><path id="b" d="M5.26-2.008h-.263c-.036.203-.131.86-.25 1.052-.084.107-.766.107-1.125.107H1.411c.322-.275 1.052-1.04 1.363-1.327C4.59-3.85 5.26-4.47 5.26-5.655c0-1.375-1.088-2.295-2.474-2.295s-2.2 1.183-2.2 2.212c0 .61.526.61.562.61.25 0 .562-.18.562-.563 0-.334-.228-.562-.562-.562a.5.5 0 0 0-.168.012c.227-.813.873-1.362 1.65-1.362 1.016 0 1.638.848 1.638 1.948 0 1.016-.586 1.901-1.267 2.666L.586-.287V0h4.363z"/></defs><g stroke="#000" stroke-miterlimit="10" stroke-width=".4"><path fill="#e0e0e0" stroke="none" d="m-20.384-44.543 26.96 19.587h-53.92ZM78.828-44.543 95.49 6.737 51.87-24.956ZM178.041-44.543l-16.662 51.28-10.297-31.693Z"/><path fill="none" stroke-width=".398504" d="m-20.384-44.543 26.96 19.587L-3.724 6.737h-33.323l-10.298-31.693Z"/><use xlink:href="#a" x="-20.384" y="-16.196" stroke="none" transform="matrix(1 0 0 1 -2.929 -32.53)"/><use xlink:href="#b" x="-20.384" y="-16.196" stroke="none" transform="matrix(1 0 0 1 30.435 -4.785)"/><use xlink:href="#c" x="-20.384" y="-16.196" stroke="none" transform="matrix(1 0 0 1 19.428 33.65)"/><use xlink:href="#d" x="-20.384" y="-16.196" stroke="none" transform="matrix(1 0 0 1 -25.286 33.77)"/><use xlink:href="#e" x="-20.384" y="-16.196" stroke="none" transform="matrix(1 0 0 1 -36.293 -4.916)"/><path fill="none" stroke-width=".398504" d="M-47.344-24.956h53.92M-4.361-39.154c1.708-2.96 5.96-9.769 9.504-9.769"/><path stroke-width=".398496" d="m-5.912-36.468 3.69-3.028-2.19.428-.723-2.11Z"/><g stroke="none" transform="matrix(1 0 0 1 31.837 -30.217)"><use xlink:href="#f" x="-20.384" y="-16.196"/><use xlink:href="#g" x="-14.93" y="-16.196"/><use xlink:href="#h" x="-11.297" y="-16.196"/><use xlink:href="#i" x="-5.842" y="-16.196"/><use xlink:href="#j" x="-.388" y="-16.196"/></g><path fill="none" stroke-width=".398504" d="M-21.936-5.513c4.42 4.42 10.09 16.732 3.575 23.246"/><path stroke-width=".3985" d="m-24.13-7.706 1.97 4.348.153-2.225 2.226-.153Z"/><g stroke="none" transform="matrix(1 0 0 1 -12.51 47.002)"><use xlink:href="#k" x="-20.384" y="-16.196"/><use xlink:href="#g" x="-14.93" y="-16.196"/><use xlink:href="#h" x="-11.297" y="-16.196"/><use xlink:href="#i" x="-5.842" y="-16.196"/><use xlink:href="#j" x="-.388" y="-16.196"/></g><path fill="none" stroke-width=".398504" d="m78.828-44.543 26.96 19.587L95.49 6.737H62.167L51.869-24.956Z"/><use xlink:href="#a" x="-20.384" y="-16.196" stroke="none" transform="matrix(1 0 0 1 96.284 -32.53)"/><use xlink:href="#b" x="-20.384" y="-16.196" stroke="none" transform="matrix(1 0 0 1 129.647 -4.785)"/><use xlink:href="#c" x="-20.384" y="-16.196" stroke="none" transform="matrix(1 0 0 1 118.64 33.65)"/><use xlink:href="#d" x="-20.384" y="-16.196" stroke="none" transform="matrix(1 0 0 1 73.926 33.77)"/><use xlink:href="#e" x="-20.384" y="-16.196" stroke="none" transform="matrix(1 0 0 1 62.92 -4.916)"/><path fill="none" stroke-width=".398504" d="M78.828-44.543 95.49 6.737M51.87-24.956 95.49 6.737M96.473-27.016c0-.583 2.835-17.59 6.378-17.59"/><path stroke-width=".398504" d="m96.473-23.914 1.682-4.468-1.682 1.466-1.682-1.466Z"/><g stroke="none" transform="matrix(1 0 0 1 129.545 -25.901)"><use xlink:href="#l" x="-20.384" y="-16.196"/><use xlink:href="#g" x="-14.93" y="-16.196"/><use xlink:href="#h" x="-11.297" y="-16.196"/><use xlink:href="#i" x="-5.842" y="-16.196"/><use xlink:href="#j" x="-.388" y="-16.196"/></g><path fill="none" stroke-width=".398504" d="M65.38 3.218c-.291.505-8.795 11.288-4.19 19.266"/><path stroke-width=".398496" d="M66.93.532 63.24 3.56l2.19-.428.724 2.11Z"/><g stroke="none" transform="matrix(1 0 0 1 86.822 43.03)"><use xlink:href="#l" x="-20.384" y="-16.196"/><use xlink:href="#g" x="-14.93" y="-16.196"/><use xlink:href="#h" x="-11.297" y="-16.196"/><use xlink:href="#i" x="-5.842" y="-16.196"/><use xlink:href="#j" x="-.388" y="-16.196"/></g><path fill="none" stroke-width=".398504" d="m178.041-44.543 26.96 19.587-10.298 31.693h-33.324l-10.297-31.693Z"/><use xlink:href="#a" x="-20.384" y="-16.196" stroke="none" transform="matrix(1 0 0 1 195.496 -32.53)"/><use xlink:href="#b" x="-20.384" y="-16.196" stroke="none" transform="matrix(1 0 0 1 228.86 -4.785)"/><use xlink:href="#c" x="-20.384" y="-16.196" stroke="none" transform="matrix(1 0 0 1 217.853 33.65)"/><use xlink:href="#d" x="-20.384" y="-16.196" stroke="none" transform="matrix(1 0 0 1 173.139 33.77)"/><use xlink:href="#e" x="-20.384" y="-16.196" stroke="none" transform="matrix(1 0 0 1 162.133 -4.916)"/><path fill="none" stroke-width=".398504" d="m178.041-44.543-16.662 51.28M200.09-19.386c.506.291 6.935 6.72 8.706 9.789"/><path stroke-width=".398496" d="m197.405-20.937 3.028 3.69-.428-2.19 2.11-.723Z"/><g stroke="none" transform="matrix(1 0 0 1 228.551 20.01)"><use xlink:href="#k" x="-20.384" y="-16.196"/><use xlink:href="#g" x="-14.93" y="-16.196"/><use xlink:href="#h" x="-11.297" y="-16.196"/><use xlink:href="#i" x="-5.842" y="-16.196"/><use xlink:href="#j" x="-.388" y="-16.196"/></g><path fill="none" stroke-width=".398504" d="M167.104-30.344c8.796 15.234 17.3 46.618 17.3 55.83"/><path stroke-width=".398496" d="m165.554-33.03.777 4.71.724-2.11 2.189.428Z"/><g stroke="none" transform="matrix(1 0 0 1 191.757 55.258)"><use xlink:href="#f" x="-20.384" y="-16.196"/><use xlink:href="#g" x="-14.93" y="-16.196"/><use xlink:href="#h" x="-11.297" y="-16.196"/><use xlink:href="#i" x="-5.842" y="-16.196"/><use xlink:href="#j" x="-.388" y="-16.196"/></g></g></svg>