<svg xmlns="http://www.w3.org/2000/svg" xmlns:xlink="http://www.w3.org/1999/xlink" width="237.33pt" height="140.7pt" viewBox="0 0 237.33 140.7"><defs><path id="k" d="M5.291-4.408a.534.534 0 0 0-.556-.534c-.218 0-.698.065-1.157.513a1.82 1.82 0 0 0-1.156-.393C1.407-4.822.655-4.07.655-3.23c0 .48.24.894.512 1.123A1.5 1.5 0 0 0 .83-1.2c0 .338.142.753.48.97C.655-.043.305.426.305.863c0 .785 1.08 1.385 2.412 1.385 1.287 0 2.422-.556 2.422-1.407 0-.382-.153-.938-.71-1.244-.578-.305-1.21-.305-1.876-.305-.273 0-.742 0-.818-.011-.35-.044-.579-.382-.579-.731 0-.044 0-.295.186-.513.425.306.873.338 1.08.338 1.015 0 1.767-.752 1.767-1.592 0-.404-.174-.808-.447-1.059.393-.37.786-.425.982-.425 0 0 .076 0 .11.01-.12.044-.175.164-.175.295a.31.31 0 0 0 .316.317c.11 0 .316-.077.316-.328m-1.92 1.179c0 .294-.01.643-.174.916-.088.131-.339.436-.775.436-.95 0-.95-1.09-.95-1.341 0-.295.012-.644.175-.917.088-.13.339-.436.775-.436.95 0 .95 1.09.95 1.342m1.2 4.09c0 .59-.774 1.136-1.843 1.136C1.626 1.997.873 1.44.873.862c0-.502.414-.906.894-.938h.644c.938 0 2.16 0 2.16.938"/><path id="j" d="M3.011-2.04v-.633H.12v.633z"/><path id="m" d="M5.837 0v-.338c-.567 0-.84 0-.851-.328v-2.083c0-.939 0-1.277-.338-1.67-.153-.185-.513-.403-1.146-.403-.796 0-1.31.469-1.615 1.145v-1.145l-1.538.12v.338c.764 0 .851.076.851.611v2.924c0 .49-.12.49-.85.49V0l1.232-.033L2.804 0v-.338c-.731 0-.851 0-.851-.491v-2.008c0-1.134.775-1.745 1.473-1.745.687 0 .807.589.807 1.21v2.543c0 .49-.12.49-.85.49V0l1.232-.033z"/><path id="l" d="M5.139-2.335c0-1.396-1.091-2.553-2.411-2.553-1.364 0-2.423 1.19-2.423 2.553A2.435 2.435 0 0 0 2.717.12a2.43 2.43 0 0 0 2.422-2.455m-.906-.087c0 .393 0 .982-.24 1.462-.24.49-.72.807-1.265.807-.47 0-.95-.229-1.244-.73-.273-.48-.273-1.146-.273-1.539 0-.426 0-1.015.262-1.495a1.46 1.46 0 0 1 1.244-.73c.48 0 .949.24 1.232.708s.284 1.102.284 1.517"/><path id="g" d="M4.772-2.763h3.301c.167 0 .383 0 .383-.215 0-.227-.204-.227-.383-.227H4.772v-3.301c0-.168 0-.383-.215-.383-.227 0-.227.203-.227.383v3.3H1.029c-.168 0-.383 0-.383.216 0 .227.203.227.383.227h3.3V.538c0 .168 0 .383.216.383.227 0 .227-.203.227-.383z"/><path id="f" d="M3.444-7.666c0-.275 0-.287-.239-.287-.287.323-.885.765-2.117.765v.347c.275 0 .873 0 1.531-.311v6.231c0 .43-.036.574-1.088.574h-.37V0c.322-.024 1.482-.024 1.877-.024s1.543 0 1.866.024v-.347h-.371C3.48-.347 3.444-.49 3.444-.92z"/><path id="n" d="M3.611 2.618c0-.032 0-.054-.185-.24-1.364-1.374-1.713-3.436-1.713-5.105 0-1.899.414-3.797 1.756-5.16.142-.132.142-.154.142-.186 0-.077-.043-.11-.109-.11-.109 0-1.09.742-1.735 2.128-.556 1.2-.687 2.411-.687 3.327 0 .851.12 2.172.72 3.404.655 1.342 1.593 2.052 1.702 2.052.066 0 .11-.033.11-.11"/><path id="s" d="M3.153-2.727c0-.851-.12-2.172-.72-3.404C1.778-7.473.84-8.182.73-8.182c-.065 0-.11.043-.11.109 0 .032 0 .054.208.25C1.9-6.742 2.52-5.007 2.52-2.726c0 1.865-.403 3.785-1.756 5.16-.142.13-.142.153-.142.185 0 .066.044.11.109.11.11 0 1.091-.742 1.735-2.128.556-1.2.687-2.411.687-3.327"/><path id="q" d="M4.462-2.51h3.044c.153 0 .36 0 .36-.218s-.207-.218-.36-.218H4.462V-6c0-.153 0-.36-.218-.36s-.218.207-.218.36v3.054H.97c-.153 0-.36 0-.36.219s.207.218.36.218h3.055V.546c0 .152 0 .36.218.36s.218-.208.218-.36z"/><path id="r" d="M3.208-6.982c0-.262 0-.284-.251-.284-.677.698-1.637.698-1.986.698v.338c.218 0 .862 0 1.43-.283v5.651c0 .393-.034.524-1.015.524h-.35V0c.382-.033 1.331-.033 1.768-.033s1.385 0 1.767.033v-.338h-.349c-.982 0-1.014-.12-1.014-.524z"/><path id="i" d="M3.131-7.452c0-.01 0-.12-.142-.12-.25 0-1.047.088-1.33.11-.088.01-.208.021-.208.218 0 .13.098.13.262.13.524 0 .545.077.545.186l-.032.218L.644-.425C.6-.273.6-.251.6-.185.6.065.818.12.916.12a.45.45 0 0 0 .371-.23c.055-.097.546-2.116.611-2.388.371.032 1.266.207 1.266.927 0 .076 0 .12-.033.23-.022.13-.043.26-.043.38C3.088-.315 3.524.12 4.09.12c.328 0 .622-.175.862-.578.273-.48.393-1.08.393-1.102 0-.11-.098-.11-.131-.11-.11 0-.12.044-.153.197-.218.797-.469 1.353-.949 1.353-.207 0-.35-.12-.35-.513.001-.185.045-.436.088-.61.044-.186.044-.23.044-.339 0-.71-.687-1.025-1.615-1.145.338-.197.688-.546.938-.808.524-.578 1.026-1.047 1.56-1.047.066 0 .077 0 .099.01.13.023.142.023.229.088.022.01.022.022.044.044a.617.617 0 0 0-.622.589c0 .174.12.382.414.382.284 0 .6-.24.6-.666 0-.327-.25-.687-.742-.687-.305 0-.807.087-1.592.96-.371.414-.797.85-1.211 1.014z"/><path id="o" d="M.96-.644c-.033.164-.098.415-.098.47 0 .196.153.294.316.294.131 0 .328-.087.404-.305.01-.022.142-.535.207-.808l.24-.982c.066-.24.131-.48.186-.73.043-.186.13-.503.142-.546.163-.338.741-1.331 1.778-1.331.49 0 .589.403.589.764 0 .676-.535 2.072-.71 2.542-.097.25-.108.381-.108.501 0 .513.382.895.894.895 1.026 0 1.43-1.593 1.43-1.68 0-.11-.099-.11-.131-.11-.11 0-.11.033-.164.197C5.717-.73 5.357-.12 4.822-.12c-.185 0-.262-.11-.262-.36 0-.273.099-.535.197-.775.207-.578.665-1.778.665-2.4 0-.73-.469-1.167-1.254-1.167-.982 0-1.517.698-1.702.949-.055-.611-.502-.95-1.004-.95s-.71.426-.818.623a5.5 5.5 0 0 0-.328 1.058c0 .109.11.109.131.109.11 0 .12-.01.186-.25.185-.776.403-1.3.796-1.3.218 0 .338.143.338.503 0 .229-.032.349-.174.916z"/><path id="a" d="M7.882-2.75c.203 0 .418 0 .418-.24s-.215-.24-.418-.24h-6.47c-.204 0-.42 0-.42.24s.216.24.42.24z"/><path id="e" d="M3.36-8.001c.013-.048.037-.12.037-.18 0-.12-.12-.12-.144-.12-.012 0-.442.037-.658.06-.203.013-.382.036-.598.048-.287.024-.37.036-.37.252 0 .12.12.12.239.12.61 0 .61.107.61.226 0 .048 0 .072-.06.287L.706-.466c-.048.179-.048.203-.048.275 0 .263.203.31.323.31.335 0 .406-.263.502-.633l.562-2.237c.861.096 1.376.455 1.376 1.029 0 .072 0 .12-.036.299-.048.18-.048.323-.048.382C3.337-.347 3.79.12 4.4.12c.55 0 .837-.502.933-.67.251-.442.407-1.111.407-1.16 0-.06-.048-.107-.12-.107-.107 0-.12.048-.167.24C5.286-.958 5.035-.12 4.425-.12c-.239 0-.394-.12-.394-.574 0-.227.047-.49.095-.67.048-.215.048-.227.048-.37 0-.706-.634-1.1-1.734-1.244.43-.263.861-.73 1.028-.909.682-.765 1.149-1.148 1.699-1.148.275 0 .347.072.43.143-.442.048-.61.36-.61.598 0 .287.228.383.395.383.323 0 .61-.275.61-.658 0-.347-.275-.705-.813-.705-.658 0-1.196.466-2.045 1.423-.12.143-.563.598-1.005.765z"/><path id="h" d="M2.464-3.504c.024-.072.323-.67.765-1.053a1.74 1.74 0 0 1 1.184-.478c.479 0 .646.359.646.837 0 .682-.49 2.045-.73 2.691-.107.287-.167.443-.167.658 0 .538.37.969.945.969 1.112 0 1.53-1.759 1.53-1.83 0-.06-.047-.108-.119-.108-.107 0-.12.036-.18.24C6.065-.599 5.61-.12 5.144-.12c-.12 0-.311-.012-.311-.394 0-.3.131-.658.203-.826.24-.657.742-1.997.742-2.679 0-.717-.419-1.255-1.328-1.255-1.064 0-1.626.753-1.842 1.052-.036-.682-.526-1.052-1.052-1.052-.383 0-.646.227-.85.634C.49-4.21.324-3.492.324-3.444s.048.107.131.107c.096 0 .108-.012.18-.287.191-.73.407-1.411.885-1.411.275 0 .37.191.37.55 0 .263-.119.73-.203 1.1l-.335 1.292c-.047.227-.179.765-.239.98C1.03-.8.897-.238.897-.178c0 .167.132.299.311.299a.46.46 0 0 0 .407-.252c.024-.06.131-.478.191-.717l.263-1.077z"/><path id="b" d="M4.904 0v-.347h-.371C3.48-.347 3.444-.49 3.444-.92v-6.745c0-.275 0-.287-.239-.287-.287.323-.885.765-2.117.765v.347c.275 0 .873 0 1.531-.311v6.231c0 .43-.036.574-1.088.574h-.37V0c.322-.024 1.482-.024 1.877-.024s1.543 0 1.866.024"/><path id="d" d="M2.2-.586a.58.58 0 0 0-.573-.574.577.577 0 0 0-.586.574.58.58 0 1 0 1.16 0"/><path id="c" d="M5.262-2.01H5c-.036.204-.131.862-.25 1.053-.085.108-.766.108-1.125.108H1.41c.323-.275 1.053-1.04 1.364-1.328 1.818-1.674 2.487-2.296 2.487-3.48 0-1.375-1.088-2.296-2.475-2.296S.586-6.77.586-5.741c0 .61.526.61.562.61.251 0 .562-.18.562-.562 0-.335-.227-.562-.562-.562-.107 0-.131 0-.167.012.227-.813.873-1.364 1.65-1.364 1.017 0 1.639.85 1.639 1.95 0 1.017-.586 1.902-1.268 2.667L.586-.287V0h4.365z"/><use xlink:href="#a" id="p" transform="scale(.9122)"/></defs><path fill="#dfdfdf" d="m139.234 27.459 14.174 80.382-40.81-70.687Z"/><path fill="none" stroke="#000" stroke-miterlimit="10" stroke-width=".3985" d="m98.424 61.703 14.173-24.549 26.637-9.695 26.637 9.695M175.123 89.62l-21.715 18.221H125.06"/><use xlink:href="#b" x="67.260994" y="-44.560884" transform="translate(69.071 67.818)scale(1.0004)"/><use xlink:href="#c" x="67.260994" y="-44.560884" transform="translate(101.404 78.931)scale(1.0004)"/><g transform="translate(111.185 113.8)scale(1.0004)"><use xlink:href="#d" x="67.260994" y="-52.534084"/><use xlink:href="#d" x="67.260994" y="-48.547484"/><use xlink:href="#d" x="67.260994" y="-44.560884"/></g><g transform="translate(110.655 137.816)scale(1.0004)"><use xlink:href="#e" x="67.260994" y="-44.560884"/><use xlink:href="#a" x="76.410674" y="-44.560884"/><use xlink:href="#f" x="88.370476" y="-44.560884"/></g><use xlink:href="#e" x="67.260994" y="-44.560884" transform="translate(88.94 163.453)scale(1.0004)"/><g transform="translate(44.447 163.453)scale(1.0004)"><use xlink:href="#e" x="67.260994" y="-44.560884"/><use xlink:href="#g" x="76.410674" y="-44.560884"/><use xlink:href="#f" x="88.167354" y="-44.560884"/></g><g transform="translate(29.242 141.717)scale(1.0004)"><use xlink:href="#d" x="67.925261" y="-51.537684"/><use xlink:href="#d" x="72.507108" y="-48.547484"/><use xlink:href="#d" x="77.088949" y="-45.557284"/></g><use xlink:href="#h" x="67.260994" y="-44.560884" transform="translate(35.609 78.931)scale(1.0004)"/><g transform="translate(-.447 109.601)scale(1.0004)"><use xlink:href="#h" x="67.260994" y="-44.560884"/><use xlink:href="#a" x="76.908866" y="-44.560884"/><use xlink:href="#f" x="88.868666" y="-44.560884"/></g><path fill="none" stroke="#000" stroke-miterlimit="10" stroke-width=".3985" d="m139.234 27.459 14.174 80.382-40.81-70.687M160.775 54.943c2.417-2.417 13.99-17.814 28.366-13.962"/><path d="m158.582 57.136 4.348-1.97-2.225-.153-.153-2.226Z"/><path fill="none" stroke="#000" stroke-miterlimit="10" stroke-width=".398496" d="m158.582 57.136 4.348-1.97-2.225-.153-.153-2.226Z"/><g transform="translate(128.144 88.739)scale(1.00008)"><use xlink:href="#i" x="67.239547" y="-44.546675"/><use xlink:href="#j" x="73.263044" y="-44.546675"/><use xlink:href="#k" x="76.896073" y="-44.546675"/><use xlink:href="#l" x="82.35108" y="-44.546675"/><use xlink:href="#m" x="87.806082" y="-44.546675"/></g><path fill="none" stroke="#000" stroke-miterlimit="10" stroke-width=".3985" d="M108.146 81.176c-20.457-20.457-21.916 12.1-21.916 26.982"/><path d="m110.34 83.369-1.97-4.349-.154 2.226-2.225.153Z"/><path fill="none" stroke="#000" stroke-miterlimit="10" stroke-width=".398496" d="m110.34 83.369-1.97-4.349-.154 2.226-2.225.153Z"/><g transform="translate(-51.912 167.193)scale(1.00008)"><use xlink:href="#n" x="67.239547" y="-44.546675"/><use xlink:href="#o" x="71.481897" y="-44.546675"/><use xlink:href="#p" x="80.454637" y="-44.546675"/><use xlink:href="#i" x="91.365537" y="-44.546675"/><use xlink:href="#q" x="99.812234" y="-44.546675"/><use xlink:href="#r" x="110.711331" y="-44.546675"/><use xlink:href="#s" x="116.166332" y="-44.546675"/><use xlink:href="#j" x="120.420934" y="-44.546675"/><use xlink:href="#k" x="124.053964" y="-44.546675"/><use xlink:href="#l" x="129.508964" y="-44.546675"/><use xlink:href="#m" x="134.963954" y="-44.546675"/></g></svg>