<svg xmlns="http://www.w3.org/2000/svg" xmlns:xlink="http://www.w3.org/1999/xlink" width="316.441" height="187.597" viewBox="-72 -72 237.331 140.698"><defs><path id="o" d="M3.61 2.618c0-.033 0-.054-.185-.24-1.363-1.374-1.712-3.436-1.712-5.105 0-1.898.414-3.797 1.756-5.16.142-.131.142-.153.142-.186 0-.076-.044-.109-.11-.109-.108 0-1.09.742-1.734 2.127-.556 1.2-.687 2.411-.687 3.328 0 .85.12 2.17.72 3.403.655 1.342 1.593 2.051 1.702 2.051.065 0 .109-.032.109-.109"/><path id="s" d="M3.153-2.727c0-.851-.12-2.171-.72-3.404C1.778-7.473.84-8.18.73-8.18c-.066 0-.11.043-.11.108 0 .033 0 .055.208.251C1.9-6.742 2.52-5.007 2.52-2.727c0 1.865-.404 3.785-1.756 5.16-.142.13-.142.152-.142.185 0 .066.043.11.109.11.109 0 1.09-.743 1.734-2.128.557-1.2.688-2.41.688-3.327"/><path id="q" d="M4.462-2.51h3.043c.153 0 .36 0 .36-.217s-.207-.218-.36-.218H4.462V-6c0-.153 0-.36-.218-.36s-.219.207-.219.36v3.055H.971c-.153 0-.36 0-.36.218s.207.218.36.218h3.054V.545c0 .153 0 .36.219.36s.218-.207.218-.36z"/><path id="r" d="m1.385-.84 1.157-1.124c1.702-1.505 2.356-2.094 2.356-3.185 0-1.244-.982-2.116-2.313-2.116a2.016 2.016 0 0 0-2.04 1.974c0 .611.546.611.579.611.185 0 .567-.13.567-.578a.55.55 0 0 0-.578-.567c-.088 0-.11 0-.142.01.25-.709.84-1.112 1.473-1.112.992 0 1.461.883 1.461 1.778 0 .873-.545 1.734-1.145 2.41L.665-.403c-.12.12-.12.142-.12.404h4.048l.305-1.898h-.273c-.054.327-.13.807-.24.97C4.31-.84 3.59-.84 3.35-.84z"/><path id="l" d="M5.29-4.407a.534.534 0 0 0-.555-.535c-.219 0-.699.066-1.157.513a1.82 1.82 0 0 0-1.156-.393c-1.015 0-1.767.753-1.767 1.593 0 .48.24.894.512 1.124A1.5 1.5 0 0 0 .83-1.2c0 .338.142.753.48.97C.655-.043.305.426.305.863c0 .785 1.08 1.385 2.411 1.385 1.288 0 2.422-.556 2.422-1.407 0-.382-.153-.938-.709-1.244-.578-.305-1.21-.305-1.876-.305-.273 0-.742 0-.818-.011-.35-.044-.579-.382-.579-.73 0-.045 0-.295.186-.514.425.306.873.339 1.08.339 1.014 0 1.767-.753 1.767-1.593 0-.404-.174-.807-.447-1.058.393-.371.785-.426.982-.426 0 0 .076 0 .109.011-.12.044-.175.164-.175.295a.31.31 0 0 0 .317.316c.109 0 .316-.076.316-.327M3.37-3.23c0 .294-.01.644-.174.916-.087.131-.338.437-.774.437-.95 0-.95-1.091-.95-1.342 0-.295.012-.644.175-.917.088-.13.338-.436.775-.436.949 0 .949 1.091.949 1.342M4.57.86c0 .59-.774 1.135-1.843 1.135C1.625 1.996.873 1.44.873.862c0-.502.414-.906.894-.938h.644c.938 0 2.16 0 2.16.938"/><path id="k" d="M3.01-2.04v-.633H.12v.633z"/><path id="n" d="M5.836 0v-.338c-.567 0-.84 0-.85-.327V-2.75c0-.938 0-1.276-.339-1.67-.152-.185-.512-.403-1.145-.403-.797 0-1.31.47-1.615 1.146v-1.146l-1.538.12v.338c.764 0 .851.077.851.611v2.924c0 .49-.12.49-.85.49V0l1.232-.033L2.804 0v-.338c-.731 0-.851 0-.851-.491v-2.007c0-1.135.774-1.746 1.472-1.746.688 0 .808.59.808 1.211v2.542c0 .49-.12.49-.851.49V0l1.233-.033z"/><path id="m" d="M5.138-2.335c0-1.396-1.09-2.552-2.41-2.552-1.364 0-2.423 1.189-2.423 2.552A2.435 2.435 0 0 0 2.716.12a2.43 2.43 0 0 0 2.422-2.455m-.905-.087c0 .393 0 .982-.24 1.462-.24.49-.72.807-1.266.807-.469 0-.949-.229-1.243-.73-.273-.48-.273-1.146-.273-1.539 0-.425 0-1.014.262-1.494.294-.502.807-.731 1.243-.731.48 0 .95.24 1.233.709s.284 1.102.284 1.516"/><path id="j" d="M3.13-7.45c0-.012 0-.12-.14-.12-.252 0-1.048.086-1.332.108-.087.011-.207.022-.207.218 0 .131.098.131.262.131.523 0 .545.077.545.186l-.033.218L.644-.425C.6-.273.6-.251.6-.185.6.065.818.12.916.12a.45.45 0 0 0 .371-.23c.055-.097.546-2.115.611-2.388.371.033 1.266.207 1.266.927 0 .076 0 .12-.033.23-.022.13-.044.261-.044.381 0 .644.437 1.08 1.004 1.08.327 0 .622-.175.862-.578.272-.48.392-1.08.392-1.102 0-.11-.098-.11-.13-.11-.11 0-.12.045-.153.197-.218.797-.47 1.353-.95 1.353-.207 0-.348-.12-.348-.513 0-.185.043-.436.087-.61.044-.186.044-.23.044-.339 0-.709-.688-1.025-1.615-1.145.338-.197.687-.546.938-.808.524-.578 1.026-1.047 1.56-1.047.066 0 .077 0 .098.011.131.022.142.022.23.087.021.011.021.022.043.044a.617.617 0 0 0-.622.59c0 .174.12.38.415.38.283 0 .6-.24.6-.665 0-.327-.251-.687-.742-.687-.305 0-.807.087-1.593.96-.37.415-.796.851-1.21 1.015z"/><path id="p" d="M.96-.644c-.033.164-.098.415-.098.47 0 .196.153.294.316.294.131 0 .327-.087.404-.305.01-.022.142-.535.207-.808l.24-.982c.066-.24.131-.48.186-.73.043-.186.13-.502.141-.546.164-.338.742-1.33 1.779-1.33.49 0 .589.403.589.763 0 .676-.535 2.073-.71 2.542-.098.25-.109.381-.109.501 0 .513.382.895.895.895 1.025 0 1.43-1.593 1.43-1.68 0-.11-.1-.11-.132-.11-.109 0-.109.034-.163.197C5.716-.73 5.356-.12 4.822-.12c-.186 0-.262-.11-.262-.36 0-.273.098-.535.196-.775.208-.578.666-1.778.666-2.4 0-.73-.47-1.167-1.255-1.167-.982 0-1.516.698-1.702.95-.054-.612-.501-.95-1.003-.95s-.71.426-.818.622a5.5 5.5 0 0 0-.328 1.058c0 .11.11.11.131.11.11 0 .12-.012.186-.252.185-.774.403-1.298.796-1.298.218 0 .338.142.338.502 0 .23-.032.35-.174.916z"/><path id="h" d="M4.77-2.762h3.3c.167 0 .382 0 .382-.215 0-.227-.203-.227-.382-.227h-3.3v-3.3c0-.167 0-.382-.215-.382-.227 0-.227.203-.227.382v3.3h-3.3c-.167 0-.382 0-.382.215 0 .227.203.227.382.227h3.3v3.3c0 .167 0 .383.215.383.227 0 .227-.204.227-.383z"/><path id="g" d="M3.443-7.663c0-.275 0-.287-.239-.287-.287.323-.885.765-2.116.765v.347c.275 0 .873 0 1.53-.311v6.228c0 .43-.036.574-1.088.574h-.37V0c.322-.024 1.482-.024 1.877-.024s1.542 0 1.865.024v-.347H4.53c-1.052 0-1.088-.143-1.088-.574z"/><path id="a" d="M7.19-2.51c.185 0 .38 0 .38-.217s-.195-.218-.38-.218H1.286c-.185 0-.382 0-.382.218s.197.218.382.218z"/><path id="e" d="M3.36-7.998c.011-.048.035-.12.035-.18 0-.119-.12-.119-.143-.119-.012 0-.443.036-.658.06-.203.012-.382.036-.597.048-.287.024-.371.036-.371.25 0 .12.12.12.239.12.61 0 .61.108.61.227 0 .048 0 .072-.06.287L.705-.466c-.047.18-.047.203-.047.275 0 .263.203.31.322.31.335 0 .407-.262.502-.633l.562-2.236c.861.096 1.375.455 1.375 1.028 0 .072 0 .12-.036.3-.048.179-.048.322-.048.382C3.335-.347 3.79.12 4.4.12c.55 0 .836-.503.932-.67.251-.442.406-1.112.406-1.16 0-.06-.047-.107-.12-.107-.107 0-.119.048-.166.239C5.284-.956 5.033-.12 4.423-.12c-.239 0-.394-.12-.394-.573 0-.228.048-.49.096-.67.047-.215.047-.227.047-.37 0-.706-.633-1.1-1.733-1.244.43-.263.86-.73 1.028-.908.681-.766 1.148-1.148 1.698-1.148.275 0 .346.072.43.143-.442.048-.61.359-.61.598 0 .287.227.383.395.383.323 0 .61-.275.61-.658 0-.347-.275-.705-.813-.705-.658 0-1.196.466-2.045 1.422-.12.144-.562.598-1.004.766z"/><path id="i" d="M2.463-3.503c.024-.072.323-.67.765-1.052.31-.287.717-.478 1.183-.478.479 0 .646.359.646.837 0 .681-.49 2.044-.73 2.69-.107.287-.167.442-.167.657 0 .538.371.969.945.969 1.112 0 1.53-1.758 1.53-1.83 0-.06-.048-.107-.12-.107-.107 0-.119.036-.179.239-.275.98-.729 1.458-1.195 1.458-.12 0-.311-.012-.311-.394 0-.299.131-.658.203-.825.24-.658.741-1.996.741-2.678 0-.717-.418-1.255-1.327-1.255-1.064 0-1.626.753-1.84 1.052-.037-.682-.527-1.052-1.053-1.052-.382 0-.645.227-.849.633C.49-4.209.323-3.49.323-3.443s.048.108.131.108c.096 0 .108-.012.18-.287.19-.73.406-1.411.884-1.411.275 0 .37.191.37.55 0 .263-.119.73-.202 1.1l-.335 1.29c-.048.228-.18.766-.24.981-.083.311-.214.873-.214.933 0 .167.131.299.31.299.144 0 .311-.072.407-.252.024-.06.131-.478.191-.717l.263-1.076z"/><path id="b" d="M4.902 0v-.347H4.53c-1.052 0-1.088-.143-1.088-.574v-6.742c0-.275 0-.287-.239-.287-.287.323-.885.765-2.116.765v.347c.275 0 .873 0 1.53-.311v6.228c0 .43-.036.574-1.088.574h-.37V0c.322-.024 1.482-.024 1.877-.024s1.542 0 1.865.024"/><path id="d" d="M2.2-.586a.58.58 0 0 0-.574-.574.577.577 0 0 0-.586.574.58.58 0 1 0 1.16 0"/><path id="c" d="M5.26-2.008h-.263c-.036.203-.131.86-.25 1.052-.084.107-.766.107-1.125.107H1.411c.322-.275 1.052-1.04 1.363-1.327C4.59-3.85 5.26-4.47 5.26-5.655c0-1.375-1.088-2.295-2.474-2.295s-2.2 1.183-2.2 2.212c0 .61.526.61.562.61.25 0 .562-.18.562-.563 0-.334-.228-.562-.562-.562a.5.5 0 0 0-.168.012c.227-.813.873-1.362 1.65-1.362 1.016 0 1.638.848 1.638 1.948 0 1.016-.586 1.901-1.267 2.666L.586-.287V0h4.363z"/><use xlink:href="#a" id="f" transform="scale(1.0959)"/></defs><g stroke="#000" stroke-miterlimit="10" stroke-width=".4"><path fill="none" stroke-width=".398504" d="m26.424-10.299 14.174-24.549 26.636-9.695 26.637 9.695M103.122 17.617 81.407 35.838H53.061"/><use xlink:href="#b" x="67.234" y="-44.543" stroke="none" transform="matrix(1 0 0 1 -2.929 -4.184)"/><use xlink:href="#c" x="67.234" y="-44.543" stroke="none" transform="matrix(1 0 0 1 29.404 6.929)"/><g stroke="none" transform="matrix(1 0 0 1 39.184 41.798)"><use xlink:href="#d" x="67.234" y="-52.513"/><use xlink:href="#d" x="67.234" y="-48.528"/><use xlink:href="#d" x="67.234" y="-44.543"/></g><g stroke="none" transform="matrix(1 0 0 1 38.655 65.813)"><use xlink:href="#e" x="67.234" y="-44.543"/><use xlink:href="#f" x="76.38" y="-44.543"/><use xlink:href="#g" x="88.335" y="-44.543"/></g><use xlink:href="#e" x="67.234" y="-44.543" stroke="none" transform="matrix(1 0 0 1 16.94 91.45)"/><g stroke="none" transform="matrix(1 0 0 1 -27.553 91.45)"><use xlink:href="#e" x="67.234" y="-44.543"/><use xlink:href="#h" x="76.38" y="-44.543"/><use xlink:href="#g" x="88.141" y="-44.543"/></g><g stroke="none" transform="matrix(1 0 0 1 -42.757 69.714)"><use xlink:href="#d" x="67.898" y="-51.517"/><use xlink:href="#d" x="72.478" y="-48.528"/><use xlink:href="#d" x="77.058" y="-45.539"/></g><use xlink:href="#i" x="67.234" y="-44.543" stroke="none" transform="matrix(1 0 0 1 -36.39 6.929)"/><g stroke="none" transform="matrix(1 0 0 1 -72.446 37.598)"><use xlink:href="#i" x="67.234" y="-44.543"/><use xlink:href="#f" x="76.878" y="-44.543"/><use xlink:href="#g" x="88.833" y="-44.543"/></g><path fill="none" stroke-width=".398504" d="m67.234-44.543 14.173 80.381M87.721-17.868c1.709-2.96 22.969-12.603 29.347-12.603"/><path stroke-width=".398496" d="m86.17-15.182 3.69-3.028-2.189.429-.724-2.11Z"/><g stroke="none" transform="matrix(1 0 0 1 56.144 16.736)"><use xlink:href="#j" x="67.234" y="-44.543"/><use xlink:href="#k" x="73.257" y="-44.543"/><use xlink:href="#l" x="76.889" y="-44.543"/><use xlink:href="#m" x="82.344" y="-44.543"/><use xlink:href="#n" x="87.798" y="-44.543"/></g><path fill="none" stroke-width=".398504" d="M36.146 9.173c-20.456-20.456-21.915 12.1-21.915 26.983"/><path stroke-width=".3985" d="m38.34 11.366-1.97-4.348-.153 2.226-2.226.152Z"/><g stroke="none" transform="matrix(1 0 0 1 -123.91 95.19)"><use xlink:href="#o" x="67.234" y="-44.543"/><use xlink:href="#p" x="71.476" y="-44.543"/><use xlink:href="#a" x="80.448" y="-44.543"/><use xlink:href="#j" x="91.358" y="-44.543"/><use xlink:href="#q" x="99.804" y="-44.543"/><use xlink:href="#r" x="110.714" y="-44.543"/><use xlink:href="#s" x="116.168" y="-44.543"/><use xlink:href="#k" x="120.411" y="-44.543"/><use xlink:href="#l" x="124.043" y="-44.543"/><use xlink:href="#m" x="129.498" y="-44.543"/><use xlink:href="#n" x="134.952" y="-44.543"/></g></g></svg>