<svg xmlns="http://www.w3.org/2000/svg" xmlns:xlink="http://www.w3.org/1999/xlink" width="299.934" height="340.373" viewBox="-72 -72 224.951 255.28"><defs><path id="c" d="M2.463-3.503c.024-.072.323-.67.765-1.052.31-.287.717-.478 1.183-.478.479 0 .646.359.646.837 0 .681-.49 2.044-.73 2.69-.107.287-.167.442-.167.657 0 .538.371.969.945.969 1.112 0 1.53-1.758 1.53-1.83 0-.06-.048-.107-.12-.107-.107 0-.119.036-.179.239-.275.98-.729 1.458-1.195 1.458-.12 0-.311-.012-.311-.394 0-.299.131-.658.203-.825.24-.658.741-1.996.741-2.678 0-.717-.418-1.255-1.327-1.255-1.064 0-1.626.753-1.84 1.052-.037-.682-.527-1.052-1.053-1.052-.382 0-.645.227-.849.633C.49-4.209.323-3.49.323-3.443s.048.108.131.108c.096 0 .108-.012.18-.287.19-.73.406-1.411.884-1.411.275 0 .37.191.37.55 0 .263-.119.73-.202 1.1l-.335 1.29c-.048.228-.18.766-.24.981-.083.311-.214.873-.214.933 0 .167.131.299.31.299.144 0 .311-.072.407-.252.024-.06.131-.478.191-.717l.263-1.076z"/><path id="b" d="M3.885 2.905c0-.036 0-.06-.203-.263-1.195-1.207-1.865-3.18-1.865-5.619 0-2.32.562-4.316 1.949-5.726.12-.108.12-.132.12-.168 0-.071-.06-.095-.108-.095-.156 0-1.136.86-1.722 2.032-.61 1.207-.884 2.487-.884 3.957 0 1.064.167 2.487.789 3.766.705 1.435 1.685 2.212 1.817 2.212.048 0 .107-.024.107-.096"/><path id="f" d="M3.371-2.977c0-.908-.12-2.39-.789-3.778C1.877-8.189.897-8.966.765-8.966c-.048 0-.107.024-.107.095 0 .036 0 .06.203.263 1.195 1.208 1.865 3.18 1.865 5.62 0 2.319-.562 4.315-1.949 5.726-.12.107-.12.131-.12.167 0 .072.06.096.108.096C.921 3 1.901 2.14 2.487.968c.61-1.22.884-2.51.884-3.945"/><path id="g" d="M5.26-2.008h-.263c-.036.203-.131.86-.25 1.052-.084.107-.766.107-1.125.107H1.411c.322-.275 1.052-1.04 1.363-1.327C4.59-3.85 5.26-4.47 5.26-5.655c0-1.375-1.088-2.295-2.474-2.295s-2.2 1.183-2.2 2.212c0 .61.526.61.562.61.25 0 .562-.18.562-.563 0-.334-.228-.562-.562-.562a.5.5 0 0 0-.168.012c.227-.813.873-1.362 1.65-1.362 1.016 0 1.638.848 1.638 1.948 0 1.016-.586 1.901-1.267 2.666L.586-.287V0h4.363z"/><path id="e" d="M2.2-4.292c-.203.012-.251.024-.251.132 0 .12.06.12.275.12h.55c1.016 0 1.47.836 1.47 1.984 0 1.566-.813 1.984-1.399 1.984-.574 0-1.554-.275-1.9-1.064.382.06.729-.155.729-.586a.565.565 0 0 0-.586-.585c-.287 0-.598.167-.598.621C.49-.622 1.554.251 2.881.251c1.423 0 2.475-1.088 2.475-2.295 0-1.1-.885-1.961-2.032-2.164 1.04-.3 1.71-1.172 1.71-2.104 0-.945-.981-1.638-2.14-1.638-1.196 0-2.081.73-2.081 1.602 0 .478.37.574.55.574.25 0 .538-.18.538-.538 0-.383-.287-.55-.55-.55-.072 0-.096 0-.132.012.455-.813 1.579-.813 1.638-.813.395 0 1.172.18 1.172 1.35 0 .228-.036.897-.383 1.411-.358.526-.765.562-1.088.574z"/><path id="d" d="M7.878-2.75c.204 0 .419 0 .419-.239s-.215-.239-.419-.239H1.411c-.204 0-.419 0-.419.24s.215.238.419.238z"/><path id="a" d="M4.65-3.324 2.26-5.703c-.144-.143-.168-.167-.263-.167-.12 0-.24.108-.24.24 0 .083.024.107.156.238l2.39 2.403-2.39 2.403c-.132.132-.156.156-.156.24 0 .13.12.238.24.238.095 0 .12-.024.263-.167l2.379-2.379L7.113-.179c.024.012.108.071.18.071.143 0 .239-.107.239-.239 0-.024 0-.071-.036-.131-.012-.024-1.913-1.901-2.51-2.51l2.187-2.189c.06-.071.24-.227.299-.298.012-.024.06-.072.06-.156a.23.23 0 0 0-.24-.239c-.095 0-.143.048-.274.18z"/></defs><g stroke="#000" stroke-miterlimit="10" stroke-width=".4"><path fill="none" stroke-width=".398504" d="m-38.895-39.36 21.568 15.67-8.238 25.353h-26.659l-8.238-25.354ZM-38.895-39.36l13.33 41.023M-38.895-39.36-52.224 1.663"/><g stroke="none" transform="matrix(1 0 0 1 16.757 -31.027)"><use xlink:href="#a" x="-38.895" y="-16.683"/><use xlink:href="#b" x="-29.596" y="-16.683"/><use xlink:href="#c" x="-25.044" y="-16.683"/><use xlink:href="#d" x="-15.4" y="-16.683"/><use xlink:href="#e" x="-3.444" y="-16.683"/><use xlink:href="#f" x="2.408" y="-16.683"/></g><g stroke-width=".711"><path stroke="none" d="M.711-22.511c-1.494.747-2.766 2.649-2.766 5.14 0 .467.709.467.709 0 0-2.491.721-4.076 2.216-4.823.209-.105.05-.422-.159-.317M-4.112 33.081c1.495-.747 2.766-2.649 2.766-5.14 0-.467-.709-.467-.709 0 0 2.491-.72 4.076-2.215 4.823-.21.105-.051.422.158.317"/><path fill="none" stroke-width=".70834086" d="M-1.7-17.371V27.94"/></g><g stroke-width=".711"><path stroke="none" d="M-4.27 33.081c1.494.747 2.215 2.332 2.215 4.823 0 .468.709.468.709 0 0-2.49-1.271-4.393-2.766-5.14-.209-.104-.367.213-.158.317M.87 88.04c-1.495-.747-2.216-2.332-2.216-4.823 0-.468-.709-.468-.709 0 0 2.49 1.272 4.393 2.766 5.14.21.104.368-.213.159-.317"/><path fill="none" stroke-width=".70834086" d="M-1.7 37.904v45.313"/></g><path fill="none" stroke-width=".398504" d="m40.475-39.36 21.568 15.67-8.238 25.353H27.146L18.908-23.69ZM40.475-39.36 27.146 1.663M119.845-39.36l21.568 15.67-8.238 25.353h-26.659L98.278-23.69ZM119.407-38.012l-11.1 34.164"/><path stroke-width=".3985" d="m107.348-.898 2.98-3.73-2.052.874-1.147-1.913Z"/><g stroke="none" transform="matrix(1 0 0 1 111.48 -30.662)"><use xlink:href="#a" x="-38.895" y="-16.683"/><use xlink:href="#g" x="-29.596" y="-16.683"/></g><g stroke-width=".711"><path stroke="none" d="M80.081-22.511c-1.494.747-2.766 2.649-2.766 5.14 0 .467.709.467.709 0 0-2.491.721-4.076 2.216-4.823.209-.105.05-.422-.159-.317M75.258 4.735c1.495-.747 2.766-2.65 2.766-5.14 0-.468-.709-.468-.709 0 0 2.49-.72 4.076-2.215 4.823-.21.104-.05.421.158.317"/><path fill="none" stroke-width=".70834086" d="M77.67-17.371V-.405"/></g><g stroke-width=".711"><path stroke="none" d="M75.1 4.735c1.494.747 2.215 2.332 2.215 4.823 0 .467.709.467.709 0 0-2.491-1.271-4.393-2.766-5.14-.209-.105-.367.212-.158.317M80.24 31.347c-1.495-.747-2.216-2.332-2.216-4.823 0-.468-.709-.468-.709 0 0 2.49 1.272 4.393 2.766 5.14.21.104.368-.213.159-.317"/><path fill="none" stroke-width=".70834086" d="M77.67 9.558v16.966"/></g><path fill="none" stroke-width=".398504" d="m119.845 17.333 21.568 15.67-8.238 25.353h-26.659l-8.238-25.354ZM106.954 57.008l11.1-34.164"/><path stroke-width=".3985" d="m119.013 19.894-2.98 3.73 2.052-.875 1.147 1.914Z"/><path fill="none" stroke-width=".398504" d="m40.475 74.026 21.568 15.669-8.238 25.354H27.146l-8.238-25.354ZM40.475 74.026l13.33 41.023"/><g stroke-width=".711"><path stroke="none" d="M80.081 90.875c-1.494.747-2.766 2.649-2.766 5.14 0 .467.709.467.709 0 0-2.491.721-4.076 2.216-4.824.209-.104.05-.421-.159-.316M75.258 118.12c1.495-.747 2.766-2.649 2.766-5.14 0-.467-.709-.467-.709 0 0 2.491-.72 4.076-2.215 4.824-.21.104-.05.421.158.317"/><path fill="none" stroke-width=".70834086" d="M77.67 96.014v16.967"/></g><g stroke-width=".711"><path stroke="none" d="M75.1 118.12c1.494.748 2.215 2.333 2.215 4.823 0 .468.709.468.709 0 0-2.49-1.271-4.392-2.766-5.14-.209-.104-.367.213-.158.318M80.24 144.733c-1.495-.748-2.216-2.333-2.216-4.823 0-.468-.709-.468-.709 0 0 2.49 1.272 4.392 2.766 5.14.21.104.368-.213.159-.317"/><path fill="none" stroke-width=".70834086" d="M77.67 122.943v16.967"/></g><path fill="none" stroke-width=".398504" d="m119.845 74.026 21.568 15.669-8.238 25.354h-26.659l-8.238-25.354ZM120.283 75.373l11.1 34.165"/><path stroke-width=".3985" d="m132.342 112.487.22-4.768-1.147 1.913-2.053-.874Z"/><path fill="none" stroke-width=".398504" d="m119.845 130.718 21.568 15.67-8.238 25.354h-26.659l-8.238-25.354ZM132.737 170.394l-11.1-34.164"/><path stroke-width=".3985" d="m120.678 133.28-.22 4.769 1.147-1.914 2.053.874Z"/></g></svg>