<svg xmlns="http://www.w3.org/2000/svg" xmlns:xlink="http://www.w3.org/1999/xlink" width="224.95pt" height="255.28pt" viewBox="0 0 224.95 255.28"><defs><path id="b" d="M3.887 2.906c0-.036 0-.06-.203-.263C2.488 1.435 1.818-.538 1.818-2.978c0-2.32.562-4.318 1.95-5.729.119-.108.119-.131.119-.167 0-.072-.06-.096-.108-.096-.155 0-1.136.861-1.722 2.033-.61 1.208-.885 2.488-.885 3.959 0 1.064.168 2.488.79 3.767.705 1.436 1.686 2.213 1.817 2.213.048 0 .108-.024.108-.096"/><path id="f" d="M3.373-2.978c0-.909-.12-2.392-.79-3.78C1.878-8.192.897-8.97.765-8.97c-.047 0-.107.024-.107.096 0 .036 0 .06.203.263C2.057-7.403 2.727-5.43 2.727-2.99c0 2.32-.562 4.318-1.95 5.729-.12.107-.12.131-.12.167 0 .072.06.096.108.096.156 0 1.137-.861 1.723-2.033.61-1.22.885-2.512.885-3.947"/><path id="g" d="M5.262-2.01H5c-.036.204-.131.862-.25 1.053-.085.108-.766.108-1.125.108H1.41c.323-.275 1.053-1.04 1.364-1.328 1.818-1.674 2.487-2.296 2.487-3.48 0-1.375-1.088-2.296-2.475-2.296S.586-6.77.586-5.741c0 .61.526.61.562.61.251 0 .562-.18.562-.562 0-.335-.227-.562-.562-.562-.107 0-.131 0-.167.012.227-.813.873-1.364 1.65-1.364 1.017 0 1.639.85 1.639 1.95 0 1.017-.586 1.902-1.268 2.667L.586-.287V0h4.365z"/><path id="e" d="M2.2-4.294c-.203.012-.25.024-.25.132 0 .12.06.12.275.12h.55c1.016 0 1.47.837 1.47 1.985 0 1.567-.812 1.985-1.399 1.985-.574 0-1.554-.275-1.901-1.064.383.06.73-.156.73-.586a.565.565 0 0 0-.587-.586c-.287 0-.598.167-.598.622C.49-.622 1.555.25 2.882.25c1.424 0 2.476-1.088 2.476-2.296 0-1.1-.885-1.962-2.033-2.165 1.04-.299 1.71-1.172 1.71-2.105 0-.945-.98-1.638-2.14-1.638-1.197 0-2.082.73-2.082 1.602 0 .479.371.574.55.574.252 0 .539-.18.539-.538 0-.383-.287-.55-.55-.55-.072 0-.096 0-.132.012.454-.813 1.579-.813 1.638-.813.395 0 1.173.179 1.173 1.351 0 .227-.036.897-.383 1.411-.359.527-.766.563-1.089.574z"/><path id="c" d="M2.464-3.504c.024-.072.323-.67.765-1.053a1.74 1.74 0 0 1 1.184-.478c.479 0 .646.359.646.837 0 .682-.49 2.045-.73 2.691-.107.287-.167.443-.167.658 0 .538.37.969.945.969 1.112 0 1.53-1.759 1.53-1.83 0-.06-.047-.108-.119-.108-.107 0-.12.036-.18.24C6.065-.599 5.61-.12 5.144-.12c-.12 0-.311-.012-.311-.394 0-.3.131-.658.203-.826.24-.657.742-1.997.742-2.679 0-.717-.419-1.255-1.328-1.255-1.064 0-1.626.753-1.842 1.052-.036-.682-.526-1.052-1.052-1.052-.383 0-.646.227-.85.634C.49-4.21.324-3.492.324-3.444s.048.107.131.107c.096 0 .108-.012.18-.287.191-.73.407-1.411.885-1.411.275 0 .37.191.37.55 0 .263-.119.73-.203 1.1l-.335 1.292c-.047.227-.179.765-.239.98C1.03-.8.897-.238.897-.178c0 .167.132.299.311.299a.46.46 0 0 0 .407-.252c.024-.06.131-.478.191-.717l.263-1.077z"/><path id="d" d="M7.882-2.75c.203 0 .418 0 .418-.24s-.215-.24-.418-.24h-6.47c-.204 0-.42 0-.42.24s.216.24.42.24z"/><path id="a" d="M4.652-3.325 2.26-5.705c-.143-.143-.167-.167-.263-.167-.12 0-.239.107-.239.239 0 .084.024.107.156.239L4.306-2.99 1.914-.586c-.132.132-.156.155-.156.24 0 .13.12.238.24.238.095 0 .119-.024.262-.167l2.38-2.38L7.116-.18c.024.012.108.071.18.071.143 0 .239-.107.239-.239 0-.024 0-.072-.036-.131C7.487-.502 5.585-2.38 4.987-2.99l2.189-2.189c.06-.071.24-.227.299-.299.012-.024.06-.071.06-.155a.233.233 0 0 0-.24-.24c-.095 0-.143.048-.274.18z"/></defs><g fill="none" stroke="#000" stroke-miterlimit="10" stroke-width=".3985"><path d="m33.105 32.64 21.568 15.67-8.239 25.354H19.776l-8.239-25.355ZM33.105 32.64l13.33 41.024M33.105 32.64l-13.33 41.024"/></g><g transform="translate(88.757 40.972)scale(1.0004)"><use xlink:href="#a" x="-38.910616" y="-16.689698"/><use xlink:href="#b" x="-29.607883" y="-16.689698"/><use xlink:href="#c" x="-25.054055" y="-16.689698"/><use xlink:href="#d" x="-15.406184" y="-16.689698"/><use xlink:href="#e" x="-3.445383" y="-16.689698"/><use xlink:href="#f" x="2.403057" y="-16.689698"/></g><path d="M72.711 49.489c-1.494.747-2.765 2.649-2.765 5.14 0 .467.708.467.708 0 0-2.491.721-4.076 2.216-4.823.209-.105.05-.422-.159-.317M67.888 105.082c1.495-.747 2.766-2.65 2.766-5.14 0-.468-.708-.468-.708 0 0 2.49-.722 4.076-2.216 4.823-.21.105-.05.422.158.317"/><path fill="none" stroke="#000" stroke-miterlimit="10" stroke-width=".70865" d="M70.3 54.629v45.313"/><path d="M67.73 105.082c1.494.747 2.216 2.332 2.216 4.823 0 .468.708.468.708 0 0-2.49-1.271-4.393-2.766-5.14-.209-.105-.367.212-.158.317M72.87 160.041c-1.495-.747-2.216-2.332-2.216-4.823 0-.467-.708-.467-.708 0 0 2.491 1.27 4.393 2.765 5.14.21.105.368-.212.159-.317"/><g fill="none" stroke="#000" stroke-miterlimit="10"><path stroke-width=".70865" d="M70.3 109.905v45.313"/><g stroke-width=".3985"><path d="m112.476 32.64 21.568 15.67-8.238 25.354h-26.66l-8.238-25.355ZM112.476 32.64l-13.33 41.024M191.847 32.64l21.568 15.67-8.238 25.354h-26.66l-8.238-25.355ZM191.41 33.988l-11.102 34.164"/></g></g><path d="m179.35 71.102 2.98-3.73-2.052.875-1.147-1.914Z"/><path fill="none" stroke="#000" stroke-miterlimit="10" stroke-width=".398495" d="m179.35 71.102 2.98-3.73-2.052.875-1.147-1.914Z"/><g transform="translate(183.481 41.338)scale(1.0004)"><use xlink:href="#a" x="-38.910616" y="-16.689698"/><use xlink:href="#g" x="-29.607883" y="-16.689698"/></g><path d="M152.082 49.489c-1.494.747-2.765 2.649-2.765 5.14 0 .467.708.467.708 0 0-2.491.721-4.076 2.216-4.823.209-.105.05-.422-.159-.317M147.26 76.735c1.494-.747 2.765-2.649 2.765-5.14 0-.467-.708-.467-.708 0 0 2.491-.722 4.076-2.216 4.823-.21.105-.05.422.158.317"/><path fill="none" stroke="#000" stroke-miterlimit="10" stroke-width=".70865" d="M149.67 54.629v16.966"/><path d="M147.101 76.735c1.494.747 2.216 2.332 2.216 4.823 0 .468.708.468.708 0 0-2.49-1.271-4.393-2.766-5.14-.209-.104-.367.213-.158.317M152.24 103.348c-1.494-.748-2.215-2.333-2.215-4.823 0-.468-.708-.468-.708 0 0 2.49 1.271 4.392 2.765 5.14.21.104.368-.213.159-.317"/><g fill="none" stroke="#000" stroke-miterlimit="10"><path stroke-width=".70865" d="M149.67 81.558v16.967"/><path stroke-width=".3985" d="m191.847 89.333 21.568 15.67-8.238 25.354h-26.66l-8.238-25.354ZM178.956 129.01l11.1-34.165"/></g><path d="m191.015 91.895-2.98 3.73 2.052-.875 1.147 1.914Z"/><g fill="none" stroke="#000" stroke-miterlimit="10"><path stroke-width=".398495" d="m191.015 91.895-2.98 3.73 2.052-.875 1.147 1.914Z"/><path stroke-width=".3985" d="m112.476 146.027 21.568 15.67-8.238 25.354h-26.66l-8.238-25.355ZM112.476 146.027l13.33 41.024"/></g><path d="M152.082 162.876c-1.494.747-2.765 2.65-2.765 5.14 0 .468.708.468.708 0 0-2.49.721-4.076 2.216-4.823.209-.105.05-.421-.159-.317M147.26 190.122c1.494-.747 2.765-2.649 2.765-5.14 0-.467-.708-.467-.708 0 0 2.491-.722 4.076-2.216 4.823-.21.105-.05.422.158.317"/><path fill="none" stroke="#000" stroke-miterlimit="10" stroke-width=".70865" d="M149.67 168.016v16.967"/><path d="M147.101 190.122c1.494.748 2.216 2.333 2.216 4.823 0 .468.708.468.708 0 0-2.49-1.271-4.392-2.766-5.14-.209-.104-.367.213-.158.317M152.24 216.735c-1.494-.747-2.215-2.332-2.215-4.823 0-.468-.708-.468-.708 0 0 2.49 1.271 4.393 2.765 5.14.21.104.368-.213.159-.317"/><g fill="none" stroke="#000" stroke-miterlimit="10"><path stroke-width=".70865" d="M149.67 194.945v16.967"/><path stroke-width=".3985" d="m191.847 146.027 21.568 15.67-8.238 25.354h-26.66l-8.238-25.355ZM192.285 147.375l11.1 34.164"/></g><path d="m204.344 184.49.22-4.77-1.147 1.914-2.053-.874Z"/><g fill="none" stroke="#000" stroke-miterlimit="10"><path stroke-width=".398495" d="m204.344 184.49.22-4.77-1.147 1.914-2.053-.874Z"/><path stroke-width=".3985" d="m191.847 202.72 21.568 15.67-8.238 25.354h-26.66l-8.238-25.354ZM204.739 242.396l-11.101-34.164"/></g><path d="m192.68 205.282-.22 4.769 1.147-1.914 2.053.874Z"/><path fill="none" stroke="#000" stroke-miterlimit="10" stroke-width=".398495" d="m192.68 205.282-.22 4.769 1.147-1.914 2.053.874Z"/></svg>