<svg xmlns="http://www.w3.org/2000/svg" xmlns:xlink="http://www.w3.org/1999/xlink" width="319.614" height="120.972"><defs><path id="a" d="M7.797-8.14c0-.22 0-.282-.125-.282-.063 0-.078.031-.156.156l-.579.938C6.391-8 5.579-8.422 4.72-8.422 2.53-8.422.64-6.532.64-4.094.64-1.609 2.562.25 4.719.25c1.968 0 3.078-1.703 3.078-3.016 0-.14 0-.203-.14-.203-.11 0-.126.047-.126.14-.11 1.892-1.5 2.735-2.656 2.735-.828 0-3.125-.5-3.125-4 0-3.453 2.25-3.968 3.11-3.968C6.124-8.063 7.218-7 7.452-5.22c.031.157.031.188.172.188.172 0 .172-.032.172-.282Zm0 0"/><path id="b" d="M5.313-2.906c0-1.11 0-1.438-.266-1.828-.344-.47-.906-.532-1.313-.532-1.03 0-1.515.766-1.671 1.141h-.016v-4.172l-1.672.14v.345c.813 0 .922.078.922.671v6.25c0 .547-.14.547-.922.547V0c.313-.031.969-.031 1.297-.031.344 0 1 0 1.297.031v-.344c-.75 0-.906 0-.906-.547v-2.218c0-1.25.828-1.922 1.578-1.922.734 0 .906.61.906 1.343V-.89c0 .547-.14.547-.906.547V0c.296-.031.953-.031 1.28-.031.345 0 1 0 1.313.031v-.344c-.609 0-.906 0-.921-.36Zm0 0"/><path id="c" d="M4.61-3.188c0-.656 0-1.124-.516-1.593a2.242 2.242 0 0 0-1.485-.547c-.984 0-1.734.64-1.734 1.422 0 .344.219.515.5.515s.484-.203.484-.5c0-.484-.421-.484-.609-.484.281-.5.86-.719 1.328-.719.547 0 1.266.453 1.266 1.532v.484C1.438-3.047.53-2.047.53-1.125c0 .953 1.094 1.25 1.828 1.25.782 0 1.329-.484 1.547-1.063.047.563.422 1 .938 1 .25 0 .937-.171.937-1.125v-.671h-.265v.671c0 .688-.282.782-.454.782-.453 0-.453-.64-.453-.813Zm-.766 1.5c0 1.172-.875 1.563-1.39 1.563-.595 0-1.079-.422-1.079-1 0-1.578 2.031-1.719 2.469-1.75Zm0 0"/><path id="d" d="M2-2.781c0-1.156.469-2.25 1.39-2.25.094 0 .126 0 .172.015-.093.047-.28.11-.28.438 0 .344.265.484.452.484.25 0 .485-.156.485-.484 0-.36-.328-.688-.844-.688-1.016 0-1.36 1.094-1.422 1.329h-.016v-1.329L.329-5.14v.344c.813 0 .922.094.922.672v3.234c0 .547-.14.547-.922.547V0c.344-.031 1-.031 1.36-.031.328 0 1.171 0 1.437.031v-.344h-.234C2.016-.344 2-.484 2-.906Zm0 0"/><path id="e" d="M4.328-4.422c-.14 0-.594 0-.594.484 0 .297.204.5.5.5.266 0 .5-.171.5-.515 0-.797-.843-1.375-1.812-1.375-1.39 0-2.5 1.234-2.5 2.75 0 1.531 1.14 2.703 2.5 2.703 1.578 0 1.937-1.438 1.937-1.547 0-.11-.093-.11-.125-.11-.109 0-.125.032-.156.188C4.312-.5 3.672-.14 3.031-.14c-.734 0-1.703-.64-1.703-2.453 0-1.984 1.016-2.469 1.61-2.469.453 0 1.109.172 1.39.641Zm0 0"/><path id="f" d="M2.016-4.813h1.671v-.343H2.016v-2.188H1.75c-.016 1.11-.453 2.266-1.531 2.297v.234h1.015v3.329C1.234-.156 2.11.125 2.75.125c.75 0 1.14-.75 1.14-1.61v-.671h-.25v.656c0 .86-.359 1.36-.812 1.36-.812 0-.812-1.11-.812-1.313Zm0 0"/><path id="g" d="M4.578-2.766c.266 0 .281 0 .281-.234 0-1.203-.64-2.328-2.093-2.328-1.36 0-2.407 1.234-2.407 2.703 0 1.578 1.22 2.75 2.547 2.75 1.422 0 1.953-1.297 1.953-1.547 0-.078-.046-.125-.125-.125-.093 0-.125.063-.14.125-.313 1-1.11 1.281-1.625 1.281-.5 0-1.703-.343-1.703-2.406v-.219ZM1.281-3c.094-1.875 1.14-2.094 1.485-2.094 1.28 0 1.343 1.688 1.359 2.094Zm0 0"/><path id="h" d="M3.922-5.063c0-.203 0-.265-.125-.265-.094 0-.313.266-.406.375-.36-.313-.735-.375-1.125-.375C.828-5.328.39-4.547.39-3.891c0 .141 0 .563.453.97.39.343.797.421 1.344.53.656.125.812.172 1.109.407a.97.97 0 0 1 .375.78c0 .516-.297 1.079-1.36 1.079-.78 0-1.359-.453-1.624-1.64C.64-1.986.64-2 .64-2.016c-.032-.047-.079-.047-.11-.047-.14 0-.14.062-.14.28v1.626c0 .218 0 .281.125.281.062 0 .062-.016.265-.266.063-.093.063-.109.25-.296.453.562 1.094.562 1.297.562 1.25 0 1.875-.703 1.875-1.64 0-.641-.39-1.032-.5-1.141-.422-.375-.75-.438-1.547-.578-.344-.079-1.219-.25-1.219-.97 0-.359.25-.905 1.329-.905C3.562-5.11 3.64-4 3.656-3.641c.016.11.094.11.14.11.126 0 .126-.063.126-.281Zm0 0"/><path id="k" d="M2.203-.578a.587.587 0 0 0-.578-.578.567.567 0 0 0-.578.578c0 .344.297.578.562.578a.58.58 0 0 0 .594-.578Zm0 0"/><path id="l" d="M5.484-2.563c0-1.53-1.171-2.765-2.562-2.765C1.5-5.328.359-4.062.359-2.562.36-1.032 1.547.124 2.922.124c1.406 0 2.562-1.172 2.562-2.688ZM2.922-.14c-.438 0-.969-.187-1.313-.78-.328-.532-.343-1.235-.343-1.75 0-.454 0-1.173.375-1.72.328-.515.859-.703 1.28-.703.454 0 .97.219 1.282.688.375.547.375 1.297.375 1.734 0 .422 0 1.172-.312 1.735-.329.562-.891.796-1.344.796Zm0 0"/><path id="m" d="M3.578-8.156v.344c.828 0 .922.078.922.671V-4.5A1.829 1.829 0 0 0 3-5.266C1.61-5.266.422-4.094.422-2.562.422-1.048 1.547.124 2.875.124c.906 0 1.422-.61 1.594-.828v.828L6.156 0v-.344c-.812 0-.906-.094-.906-.672v-7.28Zm.89 6.75c0 .218 0 .265-.171.515-.281.422-.766.766-1.375.766-.297 0-1.594-.11-1.594-2.438 0-.859.14-1.328.406-1.734.235-.36.72-.734 1.313-.734.75 0 1.156.531 1.281.734.14.203.14.219.14.438Zm0 0"/><path id="n" d="M2.922 1.969c-.766 0-.906 0-.906-.532V-.64c.218.297.703.766 1.468.766 1.375 0 2.594-1.172 2.594-2.703 0-1.516-1.125-2.688-2.437-2.688-1.047 0-1.61.75-1.641.797v-.797L.328-5.14v.344c.844 0 .922.094.922.61v5.625c0 .53-.14.53-.922.53v.345c.313-.016.969-.016 1.297-.016.344 0 1 0 1.297.015Zm-.906-5.782c0-.234 0-.234.14-.437.36-.531.938-.766 1.39-.766.907 0 1.61 1.094 1.61 2.438 0 1.422-.812 2.453-1.718 2.453a1.49 1.49 0 0 1-.97-.375c-.265-.281-.452-.516-.452-.844Zm0 0"/><path id="o" d="M2.078-7.36a.59.59 0 0 0-.578-.593.577.577 0 0 0-.578.578c0 .36.281.578.578.578.36 0 .578-.297.578-.562ZM.438-5.14v.343c.75 0 .859.078.859.656v3.25c0 .547-.125.547-.906.547V0c.343-.031.906-.031 1.265-.031.125 0 .813 0 1.219.031v-.344c-.766 0-.813-.062-.813-.531v-4.39Zm0 0"/><path id="p" d="M5.313-2.906c0-1.11 0-1.438-.266-1.828-.344-.47-.906-.532-1.313-.532-1.171 0-1.625.985-1.718 1.22v-1.22L.375-5.14v.344c.813 0 .922.094.922.672v3.234c0 .547-.14.547-.922.547V0c.313-.031.969-.031 1.297-.031.344 0 1 0 1.297.031v-.344c-.75 0-.906 0-.906-.547v-2.218c0-1.25.828-1.922 1.578-1.922.734 0 .906.61.906 1.343V-.89c0 .547-.14.547-.906.547V0c.296-.031.953-.031 1.28-.031.345 0 1 0 1.313.031v-.344c-.609 0-.906 0-.921-.36Zm0 0"/><path id="q" d="M6.813-2.75c0 1.672-1.141 2.656-2.266 2.656-.703 0-1.953-.484-1.953-2.578V-7.25c0-.453.031-.563.89-.563h.25v-.343c-.296.015-1.265.015-1.625.015-.359 0-1.328 0-1.625-.015v.344h.25c.86 0 .891.109.891.562v4.516C1.625-1 3.015.25 4.531.25c1.657 0 2.61-1.625 2.61-2.813v-4.53c0-.72.921-.72 1.125-.72v-.343c-.313.015-.954.015-1.282.015-.343 0-1 0-1.312-.015v.344c1.14 0 1.14.562 1.14.875Zm0 0"/><path id="r" d="M4.766-2.766h3.296c.172 0 .391 0 .391-.203 0-.234-.203-.234-.39-.234H4.765V-6.5c0-.172 0-.39-.22-.39-.218 0-.218.202-.218.39v3.297H1.031c-.172 0-.39 0-.39.219 0 .218.203.218.39.218h3.297V.531c0 .172 0 .39.219.39s.219-.202.219-.39Zm0 0"/><path id="s" d="M5.36-3.828c0-.985-.063-1.953-.5-2.86-.485-1-1.344-1.265-1.938-1.265-.688 0-1.531.344-1.985 1.344-.328.75-.453 1.5-.453 2.78 0 1.157.094 2.032.516 2.892A2.132 2.132 0 0 0 2.922.25c1.031 0 1.625-.625 1.984-1.313.422-.89.453-2.062.453-2.765ZM2.921.016c-.39 0-1.172-.22-1.39-1.516-.126-.719-.126-1.625-.126-2.469 0-.984 0-1.86.188-2.562.203-.813.812-1.172 1.328-1.172.453 0 1.14.266 1.375 1.297.156.687.156 1.625.156 2.437 0 .797 0 1.703-.14 2.438C4.093-.22 3.328.016 2.921.016Zm0 0"/><path id="t" d="M2.203-4.297c-.203.016-.25.031-.25.14 0 .11.063.11.266.11h.547c1.03 0 1.484.844 1.484 1.984 0 1.579-.813 1.985-1.406 1.985-.578 0-1.547-.266-1.906-1.063.39.063.734-.156.734-.578a.571.571 0 0 0-.578-.593c-.297 0-.61.171-.61.624C.484-.625 1.547.25 2.875.25c1.422 0 2.484-1.094 2.484-2.297C5.36-3.14 4.47-4 3.33-4.203 4.358-4.5 5.03-5.375 5.03-6.313c0-.937-.984-1.64-2.14-1.64-1.188 0-2.079.734-2.079 1.61 0 .468.375.577.547.577.25 0 .547-.187.547-.546 0-.375-.297-.547-.562-.547-.063 0-.094 0-.125.015.453-.812 1.578-.812 1.64-.812.391 0 1.172.172 1.172 1.343 0 .235-.031.891-.39 1.407-.36.531-.766.562-1.079.578Zm0 0"/><path id="u" d="M.516-8.156v.344H.75c.86 0 .906.109.906.562v6.344c0 .437-.047.562-.906.562H.516V0h4.5c1.53 0 2.609-1.047 2.609-2.188 0-.968-.875-1.921-2.297-2.078 1.14-.218 1.969-.984 1.969-1.875 0-1.03-1.047-2.015-2.61-2.015ZM2.562-4.36v-2.985c0-.39.016-.468.547-.468h1.5c1.204 0 1.625 1.015 1.625 1.671 0 .782-.609 1.782-1.937 1.782ZM3.11-.344c-.53 0-.546-.094-.546-.484v-3.297h2.234c1.14 0 1.734 1 1.734 1.922 0 .969-.718 1.86-1.89 1.86Zm0 0"/><path id="v" d="M3.438-7.656c0-.282 0-.297-.235-.297-.281.328-.89.766-2.11.766v.343c.266 0 .86 0 1.532-.297v6.22c0 .437-.047.577-1.094.577h-.375V0c.328-.031 1.485-.031 1.875-.031.406 0 1.547 0 1.875.031v-.344h-.375c-1.047 0-1.093-.14-1.093-.578Zm0 0"/><path id="w" d="M5.266-2.016H5c-.047.204-.14.875-.25 1.063-.094.11-.766.11-1.125.11H1.406c.328-.282 1.063-1.048 1.36-1.329 1.828-1.672 2.5-2.297 2.5-3.484 0-1.375-1.094-2.297-2.485-2.297-1.375 0-2.203 1.187-2.203 2.219 0 .609.531.609.563.609.265 0 .562-.188.562-.563 0-.343-.219-.562-.562-.562-.094 0-.125 0-.157.016.22-.813.875-1.375 1.641-1.375 1.016 0 1.64.859 1.64 1.953 0 1.015-.577 1.906-1.265 2.672L.578-.281V0h4.375Zm0 0"/><path id="x" d="M3.64-5.14v.343c.813 0 .907.094.907.672v2.14c0 1.016-.547 1.86-1.438 1.86-.984 0-1.046-.563-1.046-1.188v-3.953L.375-5.14v.344c.922 0 .922.047.922 1.11v1.78c0 .75 0 1.173.36 1.579.28.297.765.453 1.374.453.203 0 .594 0 1-.36.344-.265.532-.718.532-.718V.125L6.234 0v-.344c-.812 0-.921-.094-.921-.672v-4.25Zm0 0"/><path id="y" d="M5.25-5.266h-.234l-.454 1.11c-.218-.453-.671-1.11-1.593-1.11C1.656-5.266.422-4.14.422-2.562c0 1.515 1.14 2.687 2.453 2.687.64 0 1.172-.297 1.594-.906v2.219c0 .53-.125.53-.907.53v.345c.313-.016.954-.016 1.297-.016.344 0 .985 0 1.297.015V1.97c-.765 0-.906 0-.906-.532ZM4.5-1.609c0 .39-.219.734-.5 1.015a1.442 1.442 0 0 1-1.063.469c-.906 0-1.609-1.125-1.609-2.438 0-1.437.828-2.453 1.719-2.453C4-5.016 4.5-3.984 4.5-3.359Zm0 0"/><path id="E" d="M7.813-8.11H.64L.42-5.437h.267C.844-7.327.953-7.75 2.844-7.75c.219 0 .547 0 .64.016.25.03.25.187.25.453v6.36c0 .405 0 .577-1.171.577H2.14V0c.375-.031 1.609-.031 2.078-.031.468 0 1.703 0 2.093.031v-.344h-.437c-1.172 0-1.172-.172-1.172-.578v-6.36c0-.296.031-.405.219-.452.094-.016.437-.016.672-.016 1.89 0 2 .422 2.156 2.313h.266Zm0 0"/><path id="F" d="M6.828-8.14H.484v.343h.25c.86 0 .891.125.891.563v6.328c0 .437-.031.562-.89.562h-.25V0C.78-.031 1.843-.031 2.202-.031c.422 0 1.469 0 1.813.031v-.344h-.36c-1.031 0-1.062-.14-1.062-.578V-3.89H3.64c1.125 0 1.25.391 1.25 1.391h.265v-3.14h-.265c0 1-.125 1.39-1.25 1.39H2.594v-3.063c0-.39.031-.484.547-.484h1.5c1.718 0 2.062.64 2.234 2.328h.266Zm0 0"/><path id="G" d="M3.234-2.266v-.64H.125v.64Zm0 0"/><path id="H" d="M3.563-4.313c.593-.328 1.468-.875 1.468-1.875 0-1.046-1-1.765-2.11-1.765-1.171 0-2.108.875-2.108 1.969 0 .406.125.812.453 1.218.14.157.14.157.984.75C1.094-3.484.484-2.672.484-1.812.484-.532 1.704.25 2.922.25c1.328 0 2.437-.984 2.437-2.234 0-1.22-.859-1.75-1.796-2.329ZM1.937-5.39c-.156-.109-.64-.421-.64-1 0-.78.812-1.265 1.625-1.265.86 0 1.625.61 1.625 1.468 0 .735-.531 1.329-1.219 1.704ZM2.5-3.844l1.438.938c.312.203.874.578.874 1.297 0 .921-.921 1.53-1.89 1.53-1.016 0-1.875-.734-1.875-1.734 0-.921.672-1.671 1.453-2.03Zm0 0"/><path id="i" d="M5.531-3.031c0-1.156-.656-2.235-1.922-2.235-1.562 0-3.125 1.704-3.125 3.407 0 1.03.641 1.984 1.86 1.984.734 0 1.625-.297 2.469-1.016.171.672.546 1.016 1.062 1.016.64 0 .969-.672.969-.828 0-.11-.094-.11-.125-.11-.094 0-.11.032-.14.125-.11.313-.391.563-.673.563-.375 0-.375-.766-.375-1.484C6.75-3.08 7.047-4.58 7.047-4.594c0-.11-.11-.11-.14-.11-.11 0-.11.048-.173.25a6.82 6.82 0 0 1-1.203 2.438Zm-.75 1.86c-1.047.937-2 1.046-2.422 1.046-.843 0-1.078-.75-1.078-1.313 0-.515.266-1.734.625-2.39.5-.828 1.172-1.203 1.703-1.203 1.157 0 1.157 1.515 1.157 2.515 0 .297-.016.61-.016.907 0 .25.016.312.031.437Zm0 0"/><path id="j" d="M6.766-6.953c0-.719-.61-1.469-1.704-1.469-1.53 0-2.515 1.89-2.828 3.125l-1.89 7.5c-.016.094.047.11.11.11.077 0 .14 0 .155-.063l.844-3.344c.11.657.766 1.219 1.469 1.219C4.64.125 6.25-1.219 6.25-3c0-.453-.11-.906-.36-1.297a2.09 2.09 0 0 0-.515-.531c.86-.453 1.39-1.188 1.39-2.125Zm-2.079 2.11c-.187.077-.39.093-.609.093-.172 0-.328.016-.547-.063.125-.078.313-.093.563-.093.203 0 .422.015.593.062Zm1.454-2.22c0 .657-.313 1.61-1.094 2.047a2.755 2.755 0 0 0-.797-.14c-.25 0-.969-.016-.969.36 0 .327.656.296.86.296.312 0 .578-.078.875-.156.375.312.546.718.546 1.312 0 .688-.203 1.25-.421 1.766-.391.89-1.329 1.453-2.157 1.453-.875 0-1.328-.688-1.328-1.5 0-.11 0-.266.047-.438l.781-3.156c.391-1.562 1.407-2.968 2.563-2.968.86 0 1.094.593 1.094 1.124Zm0 0"/><path id="z" d="M5.672-7c0-.188 0-.453-.344-.453-.219 0-.266.14-.312.219-.047.093-.141.312-.172.39-.5-.422-1.047-.61-1.547-.61C1.75-7.453.484-5.796.484-3.655.484-1.47 1.797.14 3.297.14c1.406 0 2.375-1.11 2.375-2.157 0-.375-.25-.375-.406-.375-.157 0-.36.063-.375.266C4.797-.641 3.578-.547 3.375-.547c-1.11 0-2.125-1.312-2.125-3.11 0-1.812 1.031-3.093 2.125-3.093.64 0 1.344.516 1.516 1.61.03.265.14.327.375.327.406 0 .406-.203.406-.453Zm0 0"/><path id="A" d="M1.922-3.438H3.5c0 .407 0 .641.39.641.391 0 .391-.281.391-.484v-1.016c0-.203 0-.484-.39-.484-.391 0-.391.234-.391.64H1.922v-2.468h2.937v.578c0 .218 0 .5.375.5.391 0 .391-.266.391-.5v-.782c0-.375-.063-.484-.469-.484H.828c-.172 0-.5 0-.5.344s.328.344.5.344h.313v5.921H.828c-.172 0-.5 0-.5.344S.656 0 .828 0h4.594c.39 0 .469-.11.469-.484v-.97c0-.218 0-.5-.375-.5-.407 0-.407.266-.407.5v.766H1.922Zm0 0"/><path id="B" d="M.781-7.297c-.156 0-.469 0-.469.344s.329.344.485.344h.297v5.921H.797c-.156 0-.485 0-.485.344S.641 0 .782 0h2.843c1.328 0 2.031-1.047 2.031-2 0-.844-.593-1.625-1.531-1.828.594-.188 1.281-.766 1.281-1.625 0-.875-.703-1.844-2.031-1.844ZM1.86-4.14v-2.468h1.485c1 0 1.281.734 1.281 1.171 0 .563-.469 1.297-1.469 1.297Zm0 3.454v-2.766h1.579c1.203 0 1.437 1.031 1.437 1.437 0 .579-.453 1.329-1.516 1.329Zm0 0"/><path id="C" d="M3.64-6.953c0-.188 0-.5-.359-.5-.203 0-.265.11-.344.266-.218.515-.624 1.156-1.25 1.203-.187.015-.437.03-.437.343 0 .204.125.344.39.344.673 0 1.188-.5 1.22-.531v5.14H1.812c-.172 0-.5 0-.5.344s.328.344.5.344h2.875c.171 0 .484 0 .484-.344s-.313-.344-.484-.344H3.64Zm0 0"/><path id="D" d="M4.156-2.625c.172-.14 1.375-1.172 1.375-2.5 0-1.36-1.125-2.328-2.61-2.328C1.532-7.453.61-6.406.61-5.406c0 .5.422.547.485.547a.489.489 0 0 0 .484-.5c0-.22-.078-.297-.14-.344.171-.625.718-1.047 1.406-1.047 1.015 0 1.906.578 1.906 1.625 0 .922-.703 1.64-1.344 2.203L.781-.64C.641-.53.61-.484.61-.344.61 0 .938 0 1.094 0h4.172c.265-.078.265-.313.265-.484v-.25c0-.22 0-.5-.375-.5-.406 0-.406.25-.406.546H1.875Zm0 0"/></defs><use xlink:href="#a" x="18.75" y="28.186"/><use xlink:href="#b" x="27.205" y="28.186"/><use xlink:href="#c" x="33.708" y="28.186"/><use xlink:href="#d" x="39.562" y="28.186"/><use xlink:href="#c" x="44.114" y="28.186"/><use xlink:href="#e" x="49.967" y="28.186"/><use xlink:href="#f" x="55.17" y="28.186"/><use xlink:href="#g" x="59.723" y="28.186"/><use xlink:href="#d" x="64.926" y="28.186"/><use xlink:href="#h" x="69.478" y="28.186"/><use xlink:href="#i" x="42.66" y="46.866"/><use xlink:href="#j" x="42.786" y="61.312"/><use xlink:href="#k" x="44.795" y="71.772"/><use xlink:href="#k" x="44.795" y="75.757"/><use xlink:href="#k" x="44.795" y="79.742"/><use xlink:href="#a" x="114.873" y="28.186"/><use xlink:href="#l" x="123.328" y="28.186"/><use xlink:href="#m" x="129.504" y="28.186"/><use xlink:href="#g" x="136.007" y="28.186"/><use xlink:href="#n" x="145.108" y="28.186"/><use xlink:href="#l" x="151.946" y="28.186"/><use xlink:href="#o" x="157.799" y="28.186"/><use xlink:href="#p" x="161.051" y="28.186"/><use xlink:href="#f" x="167.22" y="28.186"/><use xlink:href="#h" x="171.773" y="28.186"/><use xlink:href="#q" x="123.77" y="49.082"/><use xlink:href="#r" x="132.545" y="49.082"/><use xlink:href="#s" x="141.65" y="49.082"/><use xlink:href="#t" x="147.503" y="49.082"/><use xlink:href="#u" x="153.357" y="49.082"/><use xlink:href="#v" x="161.646" y="49.082"/><use xlink:href="#q" x="123.77" y="63.528"/><use xlink:href="#r" x="132.545" y="63.528"/><use xlink:href="#s" x="141.65" y="63.528"/><use xlink:href="#t" x="147.503" y="63.528"/><use xlink:href="#u" x="153.357" y="63.528"/><use xlink:href="#w" x="161.646" y="63.528"/><use xlink:href="#k" x="144.008" y="72.578"/><use xlink:href="#k" x="144.008" y="76.563"/><use xlink:href="#k" x="144.008" y="80.548"/><use xlink:href="#a" x="192.755" y="28.186"/><use xlink:href="#l" x="201.21" y="28.186"/><use xlink:href="#m" x="207.386" y="28.186"/><use xlink:href="#g" x="213.889" y="28.186"/><use xlink:href="#x" x="222.99" y="28.186"/><use xlink:href="#p" x="229.493" y="28.186"/><use xlink:href="#o" x="235.997" y="28.186"/><use xlink:href="#f" x="239.249" y="28.186"/><use xlink:href="#h" x="247.711" y="28.186"/><use xlink:href="#g" x="252.328" y="28.186"/><use xlink:href="#y" x="257.531" y="28.186"/><use xlink:href="#x" x="263.709" y="28.186"/><use xlink:href="#g" x="270.213" y="28.186"/><use xlink:href="#p" x="275.416" y="28.186"/><use xlink:href="#e" x="281.919" y="28.186"/><use xlink:href="#g" x="287.122" y="28.186"/><use xlink:href="#h" x="292.325" y="28.186"/><use xlink:href="#z" x="230.592" y="49.107"/><use xlink:href="#A" x="236.744" y="49.107"/><use xlink:href="#B" x="246.794" y="49.107"/><use xlink:href="#C" x="252.946" y="49.107"/><use xlink:href="#z" x="230.592" y="63.553"/><use xlink:href="#A" x="236.744" y="63.553"/><use xlink:href="#B" x="246.794" y="63.553"/><use xlink:href="#D" x="252.946" y="63.553"/><use xlink:href="#k" x="243.221" y="71.689"/><use xlink:href="#k" x="243.221" y="75.674"/><use xlink:href="#k" x="243.221" y="79.659"/><path fill="none" stroke="#000" stroke-miterlimit="10" stroke-width=".399" d="M67.68 53.645h42.062"/><path fill="none" stroke="#000" stroke-linecap="round" stroke-linejoin="round" stroke-miterlimit="10" stroke-width=".319" d="M108.547 52.05c.101.598 1.195 1.493 1.496 1.595-.3.097-1.395.996-1.496 1.593"/><path fill="none" stroke="#000" stroke-miterlimit="10" stroke-width=".399" d="M181.07 53.645h34.973"/><path fill="none" stroke="#000" stroke-linecap="round" stroke-linejoin="round" stroke-miterlimit="10" stroke-width=".319" d="M214.848 52.05c.101.598 1.195 1.493 1.496 1.595-.301.097-1.395.996-1.496 1.593"/><path fill="none" stroke="#000" stroke-miterlimit="10" stroke-width=".399" d="M88.941 65.441v22.22"/><path fill="none" stroke="#000" stroke-linecap="round" stroke-linejoin="round" stroke-miterlimit="10" stroke-width=".319" d="M87.348 66.637c.597-.102 1.492-1.196 1.593-1.496.098.3.996 1.394 1.594 1.496"/><use xlink:href="#q" x="68.132" y="102.897"/><use xlink:href="#p" x="76.907" y="102.897"/><use xlink:href="#o" x="83.411" y="102.897"/><use xlink:href="#e" x="86.663" y="102.897"/><use xlink:href="#l" x="91.865" y="102.897"/><use xlink:href="#m" x="98.042" y="102.897"/><use xlink:href="#g" x="104.545" y="102.897"/><path fill="none" stroke="#000" stroke-miterlimit="10" stroke-width=".399" d="M198.785 65.441v22.22"/><path fill="none" stroke="#000" stroke-linecap="round" stroke-linejoin="round" stroke-miterlimit="10" stroke-width=".319" d="M197.191 66.637c.598-.102 1.493-1.196 1.594-1.496.098.3.996 1.394 1.594 1.496"/><use xlink:href="#q" x="181.471" y="102.764"/><use xlink:href="#E" x="190.246" y="102.764"/><use xlink:href="#F" x="198.701" y="102.764"/><use xlink:href="#G" x="206.34" y="102.764"/><use xlink:href="#H" x="210.242" y="102.764"/></svg>