<svg xmlns="http://www.w3.org/2000/svg" xmlns:xlink="http://www.w3.org/1999/xlink" width="430.053" height="159.397"><defs><path id="a" d="M10.688-11.688c0-.312-.016-.328-.11-.328-.078 0-.094.016-.219.22l-.75 1.452c-.843-1.078-1.875-1.687-3.203-1.687-2.937 0-5.61 2.594-5.61 6.14C.797-2.312 3.47.281 6.423.281c2.64 0 4.266-2.328 4.266-4.312 0-.172 0-.235-.157-.235-.125 0-.125.047-.14.204-.141 2.406-1.875 3.89-3.735 3.89-1.75 0-4.562-1.234-4.562-5.719 0-4.5 2.86-5.703 4.531-5.703 1.953 0 3.36 1.688 3.688 4.094.03.203.03.234.187.234.188 0 .188-.03.188-.343Zm0 0"/><path id="b" d="M7.14-5.234c0-.875-.171-2.313-2.202-2.313-1.407 0-2.094 1.14-2.297 1.703h-.016v-6.11l-2.063.188v.454c1.016 0 1.172.109 1.172.921v9.204c0 .656-.062.734-1.171.734V0c.421-.031 1.171-.031 1.625-.031.453 0 1.218 0 1.64.031v-.453c-1.11 0-1.172-.063-1.172-.734V-4.5c0-1.578.953-2.766 2.172-2.766 1.266 0 1.406 1.141 1.406 1.97v4.109c0 .656-.062.734-1.171.734V0c.406-.031 1.171-.031 1.625-.031.437 0 1.218 0 1.625.031v-.453c-1.094 0-1.172-.063-1.172-.734Zm0 0"/><path id="c" d="M6.203-4.453c0-1.14 0-1.75-.734-2.422a2.921 2.921 0 0 0-1.953-.734c-1.36 0-2.344 1.062-2.344 2.203 0 .64.516.672.625.672.219 0 .61-.141.61-.625 0-.422-.329-.61-.61-.61a.922.922 0 0 0-.219.032c.375-1.094 1.297-1.391 1.906-1.391.86 0 1.797.75 1.797 2.203v.75c-1.015.031-2.234.172-3.203.688C1-3.079.688-2.22.688-1.563.688-.234 2.234.141 3.155.141c.938 0 1.813-.532 2.203-1.516.032.75.516 1.438 1.266 1.438.36 0 1.281-.235 1.281-1.594V-2.5h-.312v.984c0 1.047-.469 1.188-.688 1.188-.703 0-.703-.89-.703-1.656Zm-.922 2.062c0 1.5-1.062 2.25-2.015 2.25-.86 0-1.532-.64-1.532-1.421 0-.516.235-1.438 1.235-1.985.812-.469 1.765-.531 2.312-.562Zm0 0"/><path id="d" d="M2.578-4.063c0-1.656.703-3.203 2-3.203.125 0 .25.016.36.063 0 0-.375.125-.375.578 0 .406.328.578.578.578.218 0 .593-.125.593-.594 0-.562-.546-.906-1.14-.906-1.313 0-1.875 1.281-2.047 1.875H2.53v-1.875l-2 .188v.453c1.016 0 1.172.11 1.172.937v4.782c0 .656-.062.734-1.172.734V0c.422-.031 1.203-.031 1.656-.031.5 0 1.376 0 1.844.031v-.453c-1.234 0-1.453 0-1.453-.766Zm0 0"/><path id="e" d="M6.016-6.031c-.329 0-.813 0-.813.61 0 .484.39.624.61.624.125 0 .625-.062.625-.656 0-1.234-1.172-2.156-2.5-2.156C2.125-7.61.562-5.922.562-3.72c0 2.297 1.625 3.86 3.375 3.86C6.079.14 6.61-1.844 6.61-2.031c0-.063-.015-.125-.14-.125-.11 0-.125.015-.203.25C5.812-.516 4.844-.172 4.094-.172 3-.172 1.672-1.188 1.672-3.734c0-2.625 1.266-3.563 2.281-3.563.672 0 1.672.328 2.063 1.266Zm0 0"/><path id="f" d="M2.594-6.953h2.422v-.453H2.594v-3.188h-.297c-.047 1.781-.64 3.328-2.11 3.36v.28h1.5v4.829c0 .328 0 2.266 2 2.266 1.016 0 1.594-1 1.594-2.282v-.968H4.97v.953c0 1.187-.453 1.984-1.188 1.984-.5 0-1.187-.344-1.187-1.906Zm0 0"/><path id="g" d="M6.563-4.047c.062-.062.062-.11.062-.281 0-1.75-.922-3.281-2.89-3.281C1.905-7.61.468-5.875.468-3.75.469-1.516 2.094.14 3.922.14c1.937 0 2.687-1.828 2.687-2.187 0-.125-.093-.125-.14-.125-.11 0-.125.031-.203.25C5.89-.75 4.937-.172 4.046-.172c-.734 0-1.484-.406-1.952-1.172-.531-.875-.531-1.89-.531-2.703Zm-4.985-.266c.125-2.468 1.453-3.015 2.14-3.015 1.173 0 1.97 1.094 1.985 3.016Zm0 0"/><path id="h" d="M5.328-7.266c0-.312-.031-.328-.125-.328-.078 0-.094.016-.297.282-.047.062-.203.234-.25.296-.562-.578-1.328-.593-1.625-.593-1.906 0-2.594 1-2.594 2 0 1.546 1.75 1.906 2.25 2.015 1.079.219 1.47.281 1.829.594.218.203.593.594.593 1.203 0 .734-.406 1.656-2 1.656-1.484 0-2.03-1.14-2.328-2.656-.062-.234-.062-.25-.203-.25-.125 0-.14.016-.14.36v2.484c0 .312.015.328.109.328s.11-.016.187-.156c.11-.157.375-.578.47-.75.343.469.952.922 1.905.922 1.72 0 2.625-.938 2.625-2.282a2.01 2.01 0 0 0-.687-1.546c-.516-.532-1.125-.657-1.844-.797-.953-.204-2.156-.438-2.156-1.485 0-.453.25-1.406 1.984-1.406 1.844 0 1.938 1.734 1.985 2.281.015.078.093.094.156.094.156 0 .156-.047.156-.344Zm0 0"/><path id="m" d="M7.422-3.688c0-2.203-1.61-3.921-3.484-3.921-1.876 0-3.47 1.718-3.47 3.921 0 2.172 1.595 3.829 3.47 3.829 1.874 0 3.484-1.657 3.484-3.829ZM3.938-.171c-.797 0-1.5-.484-1.891-1.156-.422-.766-.485-1.734-.485-2.5 0-.719.032-1.61.485-2.39.344-.563 1.015-1.11 1.89-1.11.782 0 1.438.422 1.844 1.031.532.797.532 1.938.532 2.469 0 .672-.032 1.703-.5 2.531-.47.797-1.22 1.125-1.875 1.125Zm0 0"/><path id="n" d="M5.031-11.766v.454c1.016 0 1.172.109 1.172.921v4.032c-.078-.079-.781-1.188-2.172-1.188-1.765 0-3.468 1.578-3.468 3.844C.563-1.453 2.171.14 3.858.14 5.33.14 6.08-1 6.172-1.125V.141L8.25 0v-.453c-1.016 0-1.172-.094-1.172-.922v-10.578Zm1.14 9.704c0 .515-.312.984-.718 1.328a2.231 2.231 0 0 1-1.5.593c-.484 0-2.281-.25-2.281-3.546 0-3.376 2-3.579 2.437-3.579.797 0 1.438.454 1.829 1.063.234.36.234.422.234.734Zm0 0"/><path id="o" d="M3.781 2.906c-1.094 0-1.156-.062-1.156-.734v-3.219C3.109-.328 3.844.141 4.75.141c1.719 0 3.469-1.516 3.469-3.86 0-2.172-1.5-3.828-3.281-3.828-1.032 0-1.875.578-2.36 1.266v-1.266l-2.047.188v.453c1.016 0 1.172.11 1.172.937v8.14c0 .657-.062.735-1.172.735v.453c.422-.03 1.172-.03 1.625-.03.438 0 1.219 0 1.625.03ZM2.625-5.406c0-.235 0-.61.656-1.235.094-.078.672-.593 1.547-.593 1.25 0 2.281 1.562 2.281 3.53 0 1.97-1.093 3.563-2.453 3.563-.625 0-1.297-.296-1.812-1.093-.219-.391-.219-.485-.219-.766Zm0 0"/><path id="p" d="M2.672-10.61a.71.71 0 0 0-1.422 0c0 .376.313.704.719.704a.7.7 0 0 0 .703-.703ZM.656-7.36v.454c.969 0 1.094.11 1.094.937v4.782c0 .656-.063.734-1.172.734V0C1-.031 1.734-.031 2.172-.031c.406 0 1.11 0 1.515.031v-.453c-1.015 0-1.046-.094-1.046-.719v-6.375Zm0 0"/><path id="q" d="M7.14-5.234c0-.875-.171-2.313-2.202-2.313-1.36 0-2.063 1.063-2.313 1.75h-.031v-1.75l-2.031.188v.453c1.015 0 1.171.11 1.171.937v4.782c0 .656-.062.734-1.171.734V0c.421-.031 1.171-.031 1.625-.031.453 0 1.218 0 1.64.031v-.453c-1.11 0-1.172-.063-1.172-.734V-4.5c0-1.578.953-2.766 2.172-2.766 1.266 0 1.406 1.141 1.406 1.97v4.109c0 .656-.062.734-1.171.734V0c.406-.031 1.171-.031 1.625-.031.437 0 1.218 0 1.625.031v-.453c-1.094 0-1.172-.063-1.172-.734Zm0 0"/><path id="y" d="M5.063-7.36v.454c1.015 0 1.171.11 1.171.937v3.125c0 1.453-.78 2.703-2.046 2.703-1.422 0-1.532-.843-1.532-1.734v-5.672l-2.094.188v.453c.688 0 1.157 0 1.172.687v3.313c0 1.156 0 1.89.454 2.375.218.219.656.672 1.89.672C5.547.14 6.11-1.11 6.25-1.47h.016v1.61L8.312 0v-.453c-1.015 0-1.171-.094-1.171-.922v-6.172Zm0 0"/><path id="z" d="M7.078-7.547h-.281L6.28-5.844c-.39-.906-1.11-1.703-2.265-1.703C2.25-7.547.562-5.969.562-3.703.563-1.453 2.157.14 3.876.14 5.203.14 5.938-.875 6.172-1.25v3.422c0 .656-.078.734-1.172.734v.453c.406-.03 1.172-.03 1.61-.03.452 0 1.218 0 1.64.03v-.453c-1.11 0-1.172-.062-1.172-.734Zm-.875 5.188c0 .734-.625 1.421-.672 1.484-.531.594-1.156.734-1.578.734-1.281 0-2.281-1.64-2.281-3.546 0-2.016 1.14-3.547 2.453-3.547 1.39 0 2.078 1.562 2.078 2.468Zm0 0"/><path id="G" d="M9.297-3.938c0 2.297-1.5 3.766-3.125 3.766-.89 0-1.672-.469-2.156-1.187-.547-.829-.625-1.891-.625-2.5v-6.672c0-.781.187-.781 1.375-.781v-.454c-.5.047-1.407.047-1.938.047-.531 0-1.453 0-1.953-.047v.454c1.188 0 1.375 0 1.375.78v6.595C2.25-1.47 4.125.28 6.125.28c2.25 0 3.531-2.297 3.531-3.984v-6.547c0-.953.875-1.063 1.375-1.063v-.453c-.39.047-1.11.047-1.547.047-.421 0-1.171 0-1.562-.047v.454c1.375 0 1.375.812 1.375 1.234Zm0 0"/><path id="H" d="M10.703-11.703H.781L.484-7.906h.313c.219-2.86.453-3.36 3.11-3.36.312 0 .812 0 .952.016.329.063.329.266.329.656v9.344c0 .61-.063.797-1.485.797H3.22V0c.828-.016 1.687-.031 2.531-.031.844 0 1.703.015 2.531.031v-.453h-.484c-1.422 0-1.484-.188-1.484-.797v-9.344c0-.375 0-.578.312-.656.14-.016.64-.016.953-.016 2.625 0 2.89.5 3.11 3.36H11Zm0 0"/><path id="I" d="M9.36-11.719H.874v.438c1.188 0 1.375 0 1.375.781v9.281c0 .766-.188.766-1.375.766V0c.5-.031 1.469-.031 2-.031.703 0 1.531 0 2.234.031v-.453h-.375c-1.312 0-1.343-.172-1.343-.781v-4.407h1.546c1.61 0 1.766.563 1.766 2h.313v-4.468h-.313c0 1.453-.156 2.015-1.766 2.015H3.391v-4.515c0-.579.03-.672.718-.672h2.235c2.593 0 2.89 1.078 3.125 3.36h.312Zm0 0"/><path id="J" d="M4.39-3.328v-.75H.064v.75Zm0 0"/><path id="K" d="M4.688-6.203c1.078-.547 2.187-1.375 2.187-2.703 0-1.563-1.516-2.469-2.922-2.469-1.562 0-2.937 1.125-2.937 2.703 0 .422.109 1.172.78 1.813.173.171.891.687 1.36 1.015C2.375-5.437.562-4.5.562-2.594.563-.828 2.25.281 3.922.281c1.844 0 3.39-1.328 3.39-3.094 0-1.562-1.046-2.28-1.734-2.75ZM2.421-7.72c-.125-.078-.828-.61-.828-1.422 0-1.046 1.093-1.843 2.328-1.843 1.36 0 2.36.968 2.36 2.078 0 1.61-1.782 2.515-1.876 2.515-.015 0-.031 0-.172-.093Zm3.172 3.532c.265.187 1.093.765 1.093 1.812 0 1.266-1.28 2.234-2.734 2.234-1.562 0-2.75-1.109-2.75-2.484 0-1.36 1.047-2.484 2.234-3.016Zm0 0"/><path id="i" d="M6.64-3.625c0-1.39-.78-2.703-2.312-2.703-1.875 0-3.75 2.047-3.75 4.094C.578-.984 1.344.14 2.813.14c.89 0 1.953-.344 2.968-1.204.203.797.64 1.204 1.266 1.204.766 0 1.156-.797 1.156-.985 0-.125-.094-.125-.14-.125-.11 0-.126.031-.172.156-.125.36-.454.672-.813.672-.437 0-.437-.921-.437-1.796C8.109-3.688 8.453-5.5 8.453-5.517c0-.125-.125-.125-.156-.125-.14 0-.156.047-.203.313A8.96 8.96 0 0 1 6.64-2.406Zm-.906 2.219C4.47-.266 3.344-.141 2.844-.141c-1.016 0-1.313-.906-1.313-1.578 0-.625.313-2.078.766-2.875.594-1 1.39-1.437 2.031-1.437 1.39 0 1.39 1.812 1.39 3.015 0 .36-.015.735-.015 1.094 0 .281.016.36.031.516Zm0 0"/><path id="j" d="M8.125-8.344c0-.86-.734-1.765-2.047-1.765-1.844 0-3.016 2.265-3.39 3.75l-2.266 9c-.031.109.047.14.125.14.094 0 .172-.015.187-.078l1-4.015C1.875-.516 2.672.14 3.516.14 5.562.14 7.5-1.47 7.5-3.594c0-.547-.125-1.094-.422-1.562a2.443 2.443 0 0 0-.625-.64c1.031-.548 1.672-1.423 1.672-2.548Zm-2.5 2.531a1.912 1.912 0 0 1-.734.125c-.204 0-.391 0-.641-.078.14-.093.36-.125.656-.125.25 0 .516.032.719.079Zm1.75-2.671c0 .796-.39 1.937-1.328 2.468a3.126 3.126 0 0 0-.953-.171c-.297 0-1.157-.016-1.157.437 0 .39.782.344 1.032.344.36 0 .703-.094 1.047-.188.453.375.656.86.656 1.578 0 .829-.234 1.5-.5 2.125C5.688-.828 4.578-.14 3.578-.14 2.531-.14 2-.969 2-1.953c0-.125 0-.313.047-.531l.937-3.766c.47-1.89 1.672-3.578 3.063-3.578 1.031 0 1.328.719 1.328 1.344Zm0 0"/><path id="k" d="M5.422-1.75c-.031-.703-.063-1.813-.61-3.094-.28-.718-.765-1.484-1.812-1.484-1.766 0-2.734 2.25-2.734 2.625 0 .125.109.125.156.125.125 0 .125-.016.187-.203.313-.89 1.235-1.594 2.22-1.594 1.983 0 2.28 2.219 2.28 3.64C5.11-.827 5-.53 4.922-.25c-.281.89-.75 2.672-.75 3.078 0 .11.047.235.156.235.219 0 .344-.47.5-1.047.344-1.25.438-1.891.5-2.454.047-.343.875-2.718 2-4.968.11-.235.297-.625.297-.657a.132.132 0 0 0-.14-.125c-.032 0-.094 0-.126.063-.03.031-.53 1-.968 1.984-.204.485-.5 1.125-.97 2.391Zm0 0"/><path id="l" d="M2.64-.703a.693.693 0 0 0-.687-.688.687.687 0 0 0-.703.688.696.696 0 1 0 1.39 0Zm0 0"/><path id="r" d="M8.172-3.297c0 2-1.36 3.188-2.703 3.188-.86 0-2.36-.579-2.36-3.094v-5.5c0-.531.047-.672 1.079-.672h.28v-.422c-.343.031-1.515.031-1.937.031-.422 0-1.594 0-1.937-.03v.421h.281c1.031 0 1.078.14 1.078.672v5.422C1.953-1.203 3.61.297 5.437.297c2 0 3.125-1.953 3.125-3.375V-8.5c0-.875 1.11-.875 1.36-.875v-.422c-.375.031-1.14.031-1.547.031-.422 0-1.188 0-1.563-.03v.421c1.36 0 1.36.672 1.36 1.063Zm0 0"/><path id="s" d="M5.719-3.313h3.968c.204 0 .454 0 .454-.265 0-.266-.25-.266-.454-.266H5.72v-3.953c0-.203 0-.469-.25-.469-.282 0-.282.25-.282.47v3.952H1.235c-.203 0-.453 0-.453.266 0 .265.235.265.453.265h3.954V.642c0 .203 0 .468.265.468.266 0 .266-.25.266-.468Zm0 0"/><path id="t" d="M6.422-4.594c0-1.187-.063-2.343-.578-3.437-.594-1.188-1.625-1.5-2.328-1.5-.829 0-1.86.406-2.375 1.594-.407.906-.547 1.796-.547 3.343 0 1.39.094 2.438.61 3.453C1.765-.047 2.75.297 3.5.297c1.25 0 1.969-.734 2.375-1.578.516-1.078.547-2.485.547-3.313ZM3.5.016c-.453 0-1.39-.266-1.656-1.829-.172-.859-.172-1.953-.172-2.953 0-1.171 0-2.234.234-3.078.25-.968.985-1.406 1.594-1.406.547 0 1.375.328 1.656 1.563.172.812.172 1.953.172 2.921 0 .97 0 2.047-.156 2.922C4.906-.266 4 .016 3.5.016Zm0 0"/><path id="u" d="M2.64-5.156c-.25.015-.296.031-.296.172 0 .14.062.14.328.14h.656c1.219 0 1.766 1 1.766 2.375 0 1.875-.985 2.375-1.688 2.375-.687 0-1.86-.328-2.265-1.265.453.062.875-.188.875-.704a.681.681 0 0 0-.704-.703c-.343 0-.718.204-.718.75C.594-.75 1.859.297 3.454.297 5.155.297 6.421-1 6.421-2.453c0-1.313-1.063-2.36-2.438-2.594 1.25-.36 2.047-1.406 2.047-2.531 0-1.125-1.172-1.953-2.562-1.953-1.438 0-2.5.875-2.5 1.922 0 .562.453.687.672.687.296 0 .64-.219.64-.656 0-.453-.344-.656-.656-.656-.094 0-.125 0-.156.015.547-.969 1.89-.969 1.953-.969.484 0 1.406.204 1.406 1.61 0 .281-.031 1.078-.453 1.703-.438.625-.922.672-1.313.688Zm0 0"/><path id="v" d="M.61-9.797v.422h.296c1.031 0 1.078.14 1.078.672v7.61c0 .53-.046.671-1.078.671H.61V0h5.407c1.843 0 3.14-1.25 3.14-2.625 0-1.156-1.047-2.313-2.765-2.5 1.375-.25 2.359-1.172 2.359-2.25 0-1.234-1.25-2.422-3.125-2.422Zm2.453 4.563v-3.579c0-.468.03-.562.671-.562h1.797c1.438 0 1.953 1.234 1.953 2 0 .953-.75 2.14-2.328 2.14Zm.671 4.812c-.64 0-.671-.094-.671-.562v-3.97H5.75c1.375 0 2.094 1.204 2.094 2.313 0 1.157-.875 2.22-2.282 2.22Zm0 0"/><path id="w" d="M4.125-9.188c0-.343 0-.343-.281-.343-.344.375-1.063.906-2.531.906v.422c.328 0 1.046 0 1.828-.375v7.469c0 .515-.047.687-1.297.687H1.39V0c.39-.031 1.78-.031 2.25-.031.468 0 1.859 0 2.234.031v-.422h-.438c-1.265 0-1.312-.172-1.312-.687Zm0 0"/><path id="x" d="M6.313-2.406H6c-.047.234-.156 1.031-.313 1.265-.093.125-.906.125-1.343.125H1.687c.391-.328 1.266-1.25 1.641-1.593 2.188-2.016 2.985-2.75 2.985-4.172 0-1.657-1.313-2.75-2.97-2.75-1.671 0-2.64 1.406-2.64 2.64 0 .735.625.735.672.735.297 0 .672-.219.672-.672 0-.406-.266-.672-.672-.672-.125 0-.156 0-.203.016.281-.985 1.047-1.641 1.984-1.641 1.219 0 1.969 1.016 1.969 2.344 0 1.218-.703 2.281-1.531 3.203L.704-.344V0h5.234Zm0 0"/><path id="A" d="M6.797-8.39c0-.235 0-.547-.406-.547-.25 0-.329.156-.375.265l-.204.469c-.593-.516-1.25-.735-1.859-.735C2.11-8.938.578-6.952.578-4.39.578-1.766 2.156.172 3.953.172c1.688 0 2.844-1.328 2.844-2.594 0-.453-.297-.453-.469-.453-.203 0-.437.078-.469.328C5.75-.766 4.297-.657 4.063-.657 2.718-.656 1.5-2.218 1.5-4.39c0-2.171 1.234-3.718 2.547-3.718.766 0 1.625.625 1.812 1.937.047.313.172.406.47.406.468 0 .468-.265.468-.546Zm0 0"/><path id="B" d="M2.313-4.125h1.89c0 .5 0 .766.469.766s.469-.329.469-.579v-1.218c0-.25 0-.578-.47-.578-.468 0-.468.265-.468.765h-1.89v-2.968h3.515v.703c0 .265 0 .593.453.593.469 0 .469-.312.469-.593v-.938c0-.453-.078-.594-.563-.594H.984c-.203 0-.578 0-.578.422 0 .406.375.406.578.406h.391v7.11h-.39c-.204 0-.579 0-.579.406C.406 0 .781 0 .984 0H6.5c.469 0 .578-.125.578-.594V-1.75c0-.266 0-.594-.469-.594-.468 0-.468.328-.468.594v.922H2.312Zm0 0"/><path id="C" d="M.953-8.766c-.203 0-.578 0-.578.422 0 .406.39.406.594.406h.344v7.11H.969c-.203 0-.594 0-.594.406C.375 0 .765 0 .953 0h3.39c1.595 0 2.438-1.266 2.438-2.39 0-1.016-.703-1.954-1.828-2.204.719-.218 1.531-.922 1.531-1.953 0-1.047-.843-2.219-2.421-2.219Zm1.281 3.782v-2.954h1.782c1.187 0 1.53.891 1.53 1.407 0 .672-.562 1.547-1.765 1.547Zm0 4.156v-3.313H4.11c1.454 0 1.75 1.235 1.75 1.72 0 .702-.546 1.593-1.828 1.593Zm0 0"/><path id="D" d="M4.36-8.344c0-.219 0-.594-.423-.594-.234 0-.328.126-.406.313C3.25-8 2.781-7.25 2.016-7.187c-.204.015-.516.046-.516.421 0 .235.156.407.469.407.797 0 1.422-.594 1.453-.625v6.156h-1.25c-.203 0-.594 0-.594.406 0 .422.39.422.594.422h3.453c.203 0 .578 0 .578-.422 0-.406-.375-.406-.578-.406H4.359Zm0 0"/><path id="E" d="M4.984-3.156c.204-.172 1.657-1.406 1.657-3 0-1.625-1.344-2.782-3.141-2.782-1.656 0-2.766 1.25-2.766 2.454 0 .609.5.64.579.64.265 0 .578-.187.578-.578 0-.281-.094-.36-.172-.422.203-.765.86-1.265 1.687-1.265 1.235 0 2.297.703 2.297 1.953 0 1.125-.844 1.984-1.61 2.656L.939-.766C.78-.625.734-.594.734-.422c0 .422.391.422.579.422h5.015c.313-.094.313-.375.313-.594V-.89c0-.25 0-.593-.454-.593-.484 0-.484.312-.484.656H2.25Zm0 0"/><path id="F" d="M3.672-4.313c1.484 0 2.156 1.047 2.156 1.813 0 .953-.844 1.844-2.094 1.844-1.437 0-2.078-.781-2.078-.985 0-.015 0-.046.016-.062a.687.687 0 0 0 .11-.344.567.567 0 0 0-.579-.578C.906-2.625.61-2.437.61-2 .61-.75 1.984.172 3.734.172c1.797 0 3.016-1.297 3.016-2.656 0-.735-.39-1.75-1.656-2.297.875-.547 1.265-1.407 1.265-2.14C6.36-8 5.281-8.938 3.734-8.938c-1.593 0-2.718.687-2.718 1.75a.587.587 0 1 0 1.171.03c0-.234-.124-.359-.124-.374.437-.547 1.421-.578 1.671-.578.97 0 1.688.515 1.688 1.203 0 .406-.266 1.593-1.781 1.703-.532.031-.75.047-.813.047-.297.031-.36.218-.36.422 0 .421.298.421.548.421Zm0 0"/></defs><use xlink:href="#a" x="19.436" y="32.826"/><use xlink:href="#b" x="30.929" y="32.826"/><use xlink:href="#c" x="39.724" y="32.826"/><use xlink:href="#d" x="47.619" y="32.826"/><use xlink:href="#c" x="53.715" y="32.826"/><use xlink:href="#e" x="61.61" y="32.826"/><use xlink:href="#f" x="68.607" y="32.826"/><use xlink:href="#g" x="74.703" y="32.826"/><use xlink:href="#d" x="81.699" y="32.826"/><use xlink:href="#h" x="87.795" y="32.826"/><use xlink:href="#i" x="51.774" y="56.239"/><use xlink:href="#j" x="51.924" y="73.548"/><use xlink:href="#k" x="52.253" y="90.857"/><use xlink:href="#l" x="54.336" y="102.015"/><use xlink:href="#l" x="54.336" y="106"/><use xlink:href="#l" x="54.336" y="109.985"/><use xlink:href="#a" x="142.367" y="32.826"/><use xlink:href="#m" x="153.86" y="32.826"/><use xlink:href="#n" x="162.203" y="32.826"/><use xlink:href="#g" x="170.998" y="32.826"/><use xlink:href="#o" x="183.262" y="32.826"/><use xlink:href="#m" x="192.505" y="32.826"/><use xlink:href="#p" x="200.4" y="32.826"/><use xlink:href="#q" x="204.697" y="32.826"/><use xlink:href="#f" x="213.045" y="32.826"/><use xlink:href="#h" x="219.141" y="32.826"/><use xlink:href="#r" x="157.608" y="58.052"/><use xlink:href="#s" x="168.138" y="58.052"/><use xlink:href="#t" x="179.064" y="58.052"/><use xlink:href="#u" x="186.088" y="58.052"/><use xlink:href="#v" x="193.112" y="58.052"/><use xlink:href="#w" x="203.06" y="58.052"/><use xlink:href="#r" x="157.608" y="75.361"/><use xlink:href="#s" x="168.138" y="75.361"/><use xlink:href="#t" x="179.064" y="75.361"/><use xlink:href="#u" x="186.088" y="75.361"/><use xlink:href="#v" x="193.112" y="75.361"/><use xlink:href="#x" x="203.06" y="75.361"/><use xlink:href="#r" x="157.608" y="92.67"/><use xlink:href="#s" x="168.138" y="92.67"/><use xlink:href="#t" x="179.064" y="92.67"/><use xlink:href="#u" x="186.088" y="92.67"/><use xlink:href="#v" x="193.112" y="92.67"/><use xlink:href="#u" x="203.06" y="92.67"/><use xlink:href="#l" x="181.895" y="103.829"/><use xlink:href="#l" x="181.895" y="107.814"/><use xlink:href="#l" x="181.895" y="111.799"/><use xlink:href="#a" x="269.537" y="32.826"/><use xlink:href="#m" x="281.03" y="32.826"/><use xlink:href="#n" x="289.373" y="32.826"/><use xlink:href="#g" x="298.168" y="32.826"/><use xlink:href="#y" x="310.432" y="32.826"/><use xlink:href="#q" x="319.228" y="32.826"/><use xlink:href="#p" x="328.023" y="32.826"/><use xlink:href="#f" x="332.32" y="32.826"/><use xlink:href="#h" x="343.667" y="32.826"/><use xlink:href="#g" x="349.854" y="32.826"/><use xlink:href="#z" x="356.85" y="32.826"/><use xlink:href="#y" x="365.194" y="32.826"/><use xlink:href="#g" x="373.99" y="32.826"/><use xlink:href="#q" x="380.986" y="32.826"/><use xlink:href="#e" x="389.781" y="32.826"/><use xlink:href="#g" x="396.778" y="32.826"/><use xlink:href="#h" x="403.774" y="32.826"/><use xlink:href="#A" x="322.355" y="57.534"/><use xlink:href="#B" x="329.738" y="57.534"/><use xlink:href="#C" x="342.385" y="57.534"/><use xlink:href="#D" x="349.768" y="57.534"/><use xlink:href="#A" x="322.355" y="74.843"/><use xlink:href="#B" x="329.738" y="74.843"/><use xlink:href="#C" x="342.385" y="74.843"/><use xlink:href="#E" x="349.768" y="74.843"/><use xlink:href="#A" x="322.355" y="92.152"/><use xlink:href="#B" x="329.738" y="92.152"/><use xlink:href="#C" x="342.385" y="92.152"/><use xlink:href="#F" x="349.768" y="92.152"/><use xlink:href="#l" x="337.8" y="103.311"/><use xlink:href="#l" x="337.8" y="107.296"/><use xlink:href="#l" x="337.8" y="111.281"/><path fill="none" stroke="#000" stroke-miterlimit="10" stroke-width=".399" d="M77.547 80.023h63.383"/><path fill="none" stroke="#000" stroke-linecap="round" stroke-linejoin="round" stroke-miterlimit="10" stroke-width=".399" d="M137.82 76.34c.606 2.21 1.95 3.254 3.309 3.683-1.36.43-2.703 1.477-3.309 3.688"/><path fill="none" stroke="#000" stroke-miterlimit="10" stroke-width=".399" d="M226.367 80.023h77.555"/><path fill="none" stroke="#000" stroke-linecap="round" stroke-linejoin="round" stroke-miterlimit="10" stroke-width=".399" d="M300.816 76.34c.602 2.21 1.95 3.254 3.305 3.683-1.355.43-2.703 1.477-3.305 3.688"/><path fill="none" stroke="#000" stroke-miterlimit="10" stroke-width=".399" d="M109.438 91.762v27.949"/><path fill="none" stroke="#000" stroke-linecap="round" stroke-linejoin="round" stroke-miterlimit="10" stroke-width=".399" d="M105.75 94.871c2.21-.605 3.258-1.953 3.688-3.308.43 1.355 1.472 2.703 3.687 3.308"/><use xlink:href="#G" x="81.356" y="139.961"/><use xlink:href="#q" x="93.291" y="139.961"/><use xlink:href="#p" x="102.087" y="139.961"/><use xlink:href="#e" x="106.384" y="139.961"/><use xlink:href="#m" x="113.38" y="139.961"/><use xlink:href="#n" x="121.723" y="139.961"/><use xlink:href="#g" x="130.518" y="139.961"/><path fill="none" stroke="#000" stroke-miterlimit="10" stroke-width=".399" d="M265.344 91.762v27.949"/><path fill="none" stroke="#000" stroke-linecap="round" stroke-linejoin="round" stroke-miterlimit="10" stroke-width=".399" d="M261.66 94.871c2.211-.605 3.254-1.953 3.684-3.308.43 1.355 1.476 2.703 3.687 3.308"/><use xlink:href="#G" x="241.899" y="139.767"/><use xlink:href="#H" x="253.834" y="139.767"/><use xlink:href="#I" x="265.327" y="139.767"/><use xlink:href="#J" x="275.693" y="139.767"/><use xlink:href="#K" x="280.89" y="139.767"/></svg>