<svg xmlns="http://www.w3.org/2000/svg" xmlns:xlink="http://www.w3.org/1999/xlink" width="549.109" height="171.386"><defs><path id="a" d="M.89-11.766v.454c1.188 0 1.376 0 1.376.78v9.313c0 .766-.188.766-1.375.766V0h5.921c2.204 0 3.641-1.563 3.641-3.14 0-1.547-1.406-2.876-3.25-2.985C8.843-6.453 10-7.563 10-8.875c0-1.422-1.406-2.89-3.625-2.89ZM3.36-6.25v-4.39c0-.594.03-.672.718-.672h2.203c1.703 0 2.469 1.374 2.469 2.437 0 1.313-1.047 2.625-2.906 2.625Zm.718 5.797c-.687 0-.719-.078-.719-.672v-4.844h3.188c1.766 0 2.625 1.563 2.625 2.813 0 1.265-.969 2.703-2.86 2.703Zm0 0"/><path id="b" d="M2.672-10.61a.71.71 0 0 0-1.422 0c0 .376.313.704.719.704a.7.7 0 0 0 .703-.703ZM.656-7.36v.454c.969 0 1.094.11 1.094.937v4.782c0 .656-.063.734-1.172.734V0C1-.031 1.734-.031 2.172-.031c.406 0 1.11 0 1.515.031v-.453c-1.015 0-1.046-.094-1.046-.719v-6.375Zm0 0"/><path id="c" d="M7.14-5.234c0-.875-.171-2.313-2.202-2.313-1.36 0-2.063 1.063-2.313 1.75h-.031v-1.75l-2.031.188v.453c1.015 0 1.171.11 1.171.937v4.782c0 .656-.062.734-1.171.734V0c.421-.031 1.171-.031 1.625-.031.453 0 1.218 0 1.64.031v-.453c-1.11 0-1.172-.063-1.172-.734V-4.5c0-1.578.953-2.766 2.172-2.766 1.266 0 1.406 1.141 1.406 1.97v4.109c0 .656-.062.734-1.171.734V0c.406-.031 1.171-.031 1.625-.031.437 0 1.218 0 1.625.031v-.453c-1.094 0-1.172-.063-1.172-.734Zm0 0"/><path id="d" d="M6.203-4.453c0-1.14 0-1.75-.734-2.422a2.921 2.921 0 0 0-1.953-.734c-1.36 0-2.344 1.062-2.344 2.203 0 .64.516.672.625.672.219 0 .61-.141.61-.625 0-.422-.329-.61-.61-.61a.922.922 0 0 0-.219.032c.375-1.094 1.297-1.391 1.906-1.391.86 0 1.797.75 1.797 2.203v.75c-1.015.031-2.234.172-3.203.688C1-3.079.688-2.22.688-1.563.688-.234 2.234.141 3.155.141c.938 0 1.813-.532 2.203-1.516.032.75.516 1.438 1.266 1.438.36 0 1.281-.235 1.281-1.594V-2.5h-.312v.984c0 1.047-.469 1.188-.688 1.188-.703 0-.703-.89-.703-1.656Zm-.922 2.062c0 1.5-1.062 2.25-2.015 2.25-.86 0-1.532-.64-1.532-1.421 0-.516.235-1.438 1.235-1.985.812-.469 1.765-.531 2.312-.562Zm0 0"/><path id="e" d="M2.578-4.063c0-1.656.703-3.203 2-3.203.125 0 .25.016.36.063 0 0-.375.125-.375.578 0 .406.328.578.578.578.218 0 .593-.125.593-.594 0-.562-.546-.906-1.14-.906-1.313 0-1.875 1.281-2.047 1.875H2.53v-1.875l-2 .188v.453c1.016 0 1.172.11 1.172.937v4.782c0 .656-.062.734-1.172.734V0c.422-.031 1.203-.031 1.656-.031.5 0 1.376 0 1.844.031v-.453c-1.234 0-1.453 0-1.453-.766Zm0 0"/><path id="f" d="M6.719-5.89c.422-1.048 1.203-1.063 1.437-1.063v-.453c-.328.015-.75.031-1.078.031-.36 0-.937 0-1.281-.031v.453c.656.047.672.531.672.672 0 .172-.032.25-.11.468L4.484-1.171 2.422-6.203c-.078-.203-.078-.328-.078-.344 0-.375.39-.406.812-.406v-.453c-.422.031-1.156.031-1.594.031-.453 0-1.015 0-1.39-.031v.453c.937 0 1.031.078 1.25.64L4 0c-.781 2.031-1.234 3.219-2.313 3.219-.187 0-.625-.047-.937-.36.406-.03.578-.28.578-.562 0-.297-.203-.563-.547-.563-.39 0-.578.266-.578.579C.203 3 .906 3.5 1.687 3.5c1 0 1.625-.969 1.97-1.828Zm0 0"/><path id="g" d="M6.563-4.047c.062-.062.062-.11.062-.281 0-1.75-.922-3.281-2.89-3.281C1.905-7.61.468-5.875.468-3.75.469-1.516 2.094.14 3.922.14c1.937 0 2.687-1.828 2.687-2.187 0-.125-.093-.125-.14-.125-.11 0-.125.031-.203.25C5.89-.75 4.937-.172 4.046-.172c-.734 0-1.484-.406-1.952-1.172-.531-.875-.531-1.89-.531-2.703Zm-4.985-.266c.125-2.468 1.453-3.015 2.14-3.015 1.173 0 1.97 1.094 1.985 3.016Zm0 0"/><path id="h" d="M3.781 2.906c-1.094 0-1.156-.062-1.156-.734v-3.219C3.109-.328 3.844.141 4.75.141c1.719 0 3.469-1.516 3.469-3.86 0-2.172-1.5-3.828-3.281-3.828-1.032 0-1.875.578-2.36 1.266v-1.266l-2.047.188v.453c1.016 0 1.172.11 1.172.937v8.14c0 .657-.062.735-1.172.735v.453c.422-.03 1.172-.03 1.625-.03.438 0 1.219 0 1.625.03ZM2.625-5.406c0-.235 0-.61.656-1.235.094-.078.672-.593 1.547-.593 1.25 0 2.281 1.562 2.281 3.53 0 1.97-1.093 3.563-2.453 3.563-.625 0-1.297-.296-1.812-1.093-.219-.391-.219-.485-.219-.766Zm0 0"/><path id="i" d="M5.328-7.266c0-.312-.031-.328-.125-.328-.078 0-.094.016-.297.282-.047.062-.203.234-.25.296-.562-.578-1.328-.593-1.625-.593-1.906 0-2.594 1-2.594 2 0 1.546 1.75 1.906 2.25 2.015 1.079.219 1.47.281 1.829.594.218.203.593.594.593 1.203 0 .734-.406 1.656-2 1.656-1.484 0-2.03-1.14-2.328-2.656-.062-.234-.062-.25-.203-.25-.125 0-.14.016-.14.36v2.484c0 .312.015.328.109.328s.11-.016.187-.156c.11-.157.375-.578.47-.75.343.469.952.922 1.905.922 1.72 0 2.625-.938 2.625-2.282a2.01 2.01 0 0 0-.687-1.546c-.516-.532-1.125-.657-1.844-.797-.953-.204-2.156-.438-2.156-1.485 0-.453.25-1.406 1.984-1.406 1.844 0 1.938 1.734 1.985 2.281.015.078.093.094.156.094.156 0 .156-.047.156-.344Zm0 0"/><path id="j" d="M2.594-6.953h2.422v-.453H2.594v-3.188h-.297c-.047 1.781-.64 3.328-2.11 3.36v.28h1.5v4.829c0 .328 0 2.266 2 2.266 1.016 0 1.594-1 1.594-2.282v-.968H4.97v.953c0 1.187-.453 1.984-1.188 1.984-.5 0-1.187-.344-1.187-1.906Zm0 0"/><path id="k" d="M7.422-3.688c0-2.203-1.61-3.921-3.484-3.921-1.876 0-3.47 1.718-3.47 3.921 0 2.172 1.595 3.829 3.47 3.829 1.874 0 3.484-1.657 3.484-3.829ZM3.938-.171c-.797 0-1.5-.484-1.891-1.156-.422-.766-.485-1.734-.485-2.5 0-.719.032-1.61.485-2.39.344-.563 1.015-1.11 1.89-1.11.782 0 1.438.422 1.844 1.031.532.797.532 1.938.532 2.469 0 .672-.032 1.703-.5 2.531-.47.797-1.22 1.125-1.875 1.125Zm0 0"/><path id="q" d="M7.078-7.547h-.281L6.28-5.844c-.39-.906-1.11-1.703-2.265-1.703C2.25-7.547.562-5.969.562-3.703.563-1.453 2.157.14 3.876.14 5.203.14 5.938-.875 6.172-1.25v3.422c0 .656-.078.734-1.172.734v.453c.406-.03 1.172-.03 1.61-.03.452 0 1.218 0 1.64.03v-.453c-1.11 0-1.172-.062-1.172-.734Zm-.875 5.188c0 .734-.625 1.421-.672 1.484-.531.594-1.156.734-1.578.734-1.281 0-2.281-1.64-2.281-3.546 0-2.016 1.14-3.547 2.453-3.547 1.39 0 2.078 1.562 2.078 2.468Zm0 0"/><path id="r" d="M5.063-7.36v.454c1.015 0 1.171.11 1.171.937v3.125c0 1.453-.78 2.703-2.046 2.703-1.422 0-1.532-.843-1.532-1.734v-5.672l-2.094.188v.453c.688 0 1.157 0 1.172.687v3.313c0 1.156 0 1.89.454 2.375.218.219.656.672 1.89.672C5.547.14 6.11-1.11 6.25-1.47h.016v1.61L8.312 0v-.453c-1.015 0-1.171-.094-1.171-.922v-6.172Zm0 0"/><path id="s" d="M6.016-6.031c-.329 0-.813 0-.813.61 0 .484.39.624.61.624.125 0 .625-.062.625-.656 0-1.234-1.172-2.156-2.5-2.156C2.125-7.61.562-5.922.562-3.72c0 2.297 1.625 3.86 3.375 3.86C6.079.14 6.61-1.844 6.61-2.031c0-.063-.015-.125-.14-.125-.11 0-.125.015-.203.25C5.812-.516 4.844-.172 4.094-.172 3-.172 1.672-1.188 1.672-3.734c0-2.625 1.266-3.563 2.281-3.563.672 0 1.672.328 2.063 1.266Zm0 0"/><path id="l" d="m4.047-3.188 1.64-2.156h.516c.188 0 .563 0 .563-.422 0-.421-.375-.421-.563-.421H4.61c-.203 0-.578 0-.578.421 0 .422.344.422.688.422L3.64-3.875 2.53-5.344c.344 0 .688 0 .688-.422 0-.421-.375-.421-.578-.421H1.047c-.203 0-.578 0-.578.421 0 .422.375.422.578.422h.5L3.25-3.187 1.469-.829h-.5c-.188 0-.578 0-.578.406C.39 0 .78 0 .969 0h1.578c.203 0 .578 0 .578-.422 0-.406-.328-.406-.719-.406l1.235-1.813L4.937-.828c-.359 0-.703 0-.703.406 0 .422.375.422.579.422H6.39c.203 0 .578 0 .578-.422 0-.406-.375-.406-.578-.406h-.5Zm0 0"/><path id="m" d="M6.078-5.344h.375c.203 0 .594 0 .594-.422 0-.421-.39-.421-.594-.421H4.875c-.203 0-.594 0-.594.421 0 .422.39.422.594.422h.36C4.827-4.172 4.014-1.78 3.811-.969h-.015c-.063-.312-.125-.469-.266-.86L2.187-5.343h.344c.188 0 .578 0 .578-.422 0-.421-.39-.421-.578-.421H.953c-.203 0-.594 0-.594.421 0 .422.391.422.594.422h.375L3.344-.187c.062.14.062.171.062.187 0 .031-.375 1.281-.594 1.672-.093.156-.453.828-1.14.75.016-.047.062-.125.062-.281a.542.542 0 0 0-.562-.563c-.36 0-.563.25-.563.578 0 .547.454 1.11 1.172 1.11 1.39 0 2-1.844 2.047-1.954Zm0 0"/><path id="n" d="M6.406-5.234c.172-.157.235-.22.235-.47 0-.484-.313-.484-.594-.484H1.28c-.484 0-.593.125-.593.594v.578c0 .25 0 .579.453.579.484 0 .484-.313.484-.579v-.328H5.25L.687-.954c-.171.173-.234.22-.234.485C.453 0 .781 0 1.047 0h5.062c.47 0 .579-.125.579-.594v-.719c0-.265 0-.593-.47-.593-.468 0-.468.312-.468.593v.485H1.844Zm0 0"/><path id="o" d="M6.453-5.344c.344 0 .703 0 .703-.422 0-.421-.39-.421-.593-.421H4.968c-.203 0-.594 0-.594.421 0 .422.39.422.594.422h.672L4.92-.969h-.015a13.627 13.627 0 0 0-.437-1.64c-.25-.938-.297-1.11-.766-1.11-.469 0-.515.172-.781 1.094-.281.969-.39 1.39-.422 1.656h-.016l-.75-4.375h.672c.203 0 .594 0 .594-.422 0-.421-.39-.421-.594-.421H.796c-.187 0-.577 0-.577.421 0 .422.36.422.703.422l.86 4.875c.077.5.312.547.64.547.562 0 .594-.125.875-1.11.125-.5.36-1.296.406-1.687h.016c.015.188.078.594.39 1.703.282.954.313 1.094.86 1.094.234 0 .531 0 .625-.531Zm0 0"/><path id="t" d="M6.656-4.375c0-2.672-1.422-4.563-2.968-4.563-1.563 0-2.97 1.922-2.97 4.547 0 2.672 1.423 4.563 2.97 4.563 1.562 0 2.968-1.922 2.968-4.547ZM3.688-.656c-1.141 0-2.032-1.735-2.032-3.875 0-2.14.985-3.578 2.032-3.578 1.046 0 2.03 1.437 2.03 3.578 0 2.125-.905 3.875-2.03 3.875Zm0 0"/><path id="u" d="M4.36-8.344c0-.219 0-.594-.423-.594-.234 0-.328.126-.406.313C3.25-8 2.781-7.25 2.016-7.187c-.204.015-.516.046-.516.421 0 .235.156.407.469.407.797 0 1.422-.594 1.453-.625v6.156h-1.25c-.203 0-.594 0-.594.406 0 .422.39.422.594.422h3.453c.203 0 .578 0 .578-.422 0-.406-.375-.406-.578-.406H4.359Zm0 0"/><path id="p" d="M14.36-3.953c-.954.719-1.407 1.422-1.547 1.64-.782 1.188-.922 2.282-.922 2.297 0 .204.218.204.359.204.281 0 .297-.032.375-.344.39-1.688 1.406-3.125 3.36-3.922.203-.078.25-.11.25-.234 0-.11-.094-.172-.141-.188-.75-.281-2.828-1.14-3.485-4.047-.062-.203-.078-.25-.359-.25-.14 0-.36 0-.36.203 0 .031.157 1.125.891 2.281.344.516.844 1.11 1.578 1.657H1.563c-.313 0-.61 0-.61.343 0 .36.297.36.61.36Zm0 0"/></defs><use xlink:href="#a" x="36.792" y="32.825"/><use xlink:href="#b" x="48.056" y="32.825"/><use xlink:href="#c" x="52.353" y="32.825"/><use xlink:href="#d" x="61.148" y="32.825"/><use xlink:href="#e" x="69.043" y="32.825"/><use xlink:href="#f" x="75.139" y="32.825"/><use xlink:href="#e" x="88.752" y="32.825"/><use xlink:href="#g" x="94.847" y="32.825"/><use xlink:href="#h" x="101.844" y="32.825"/><use xlink:href="#e" x="110.639" y="32.825"/><use xlink:href="#g" x="116.735" y="32.825"/><use xlink:href="#i" x="123.731" y="32.825"/><use xlink:href="#g" x="129.919" y="32.825"/><use xlink:href="#c" x="136.915" y="32.825"/><use xlink:href="#j" x="145.263" y="32.825"/><use xlink:href="#d" x="151.359" y="32.825"/><use xlink:href="#j" x="159.254" y="32.825"/><use xlink:href="#b" x="165.35" y="32.825"/><use xlink:href="#k" x="169.647" y="32.825"/><use xlink:href="#c" x="177.542" y="32.825"/><use xlink:href="#l" x="146.749" y="60.808"/><use xlink:href="#l" x="154.132" y="60.808"/><use xlink:href="#l" x="161.514" y="60.808"/><use xlink:href="#l" x="174.162" y="60.808"/><use xlink:href="#l" x="181.544" y="60.808"/><use xlink:href="#l" x="188.927" y="60.808"/><use xlink:href="#l" x="196.309" y="60.808"/><use xlink:href="#m" x="111.957" y="89.155"/><use xlink:href="#m" x="119.34" y="89.155"/><use xlink:href="#m" x="126.722" y="89.155"/><use xlink:href="#m" x="139.37" y="89.155"/><use xlink:href="#m" x="146.752" y="89.155"/><use xlink:href="#l" x="154.135" y="89.155"/><use xlink:href="#l" x="161.517" y="89.155"/><use xlink:href="#l" x="174.165" y="89.155"/><use xlink:href="#l" x="181.548" y="89.155"/><use xlink:href="#l" x="188.93" y="89.155"/><use xlink:href="#l" x="196.313" y="89.155"/><use xlink:href="#n" x="69.782" y="117.501"/><use xlink:href="#n" x="77.165" y="117.501"/><use xlink:href="#n" x="84.547" y="117.501"/><use xlink:href="#n" x="91.93" y="117.501"/><use xlink:href="#m" x="104.577" y="117.501"/><use xlink:href="#m" x="111.96" y="117.501"/><use xlink:href="#m" x="119.342" y="117.501"/><use xlink:href="#m" x="126.725" y="117.501"/><use xlink:href="#m" x="139.373" y="117.501"/><use xlink:href="#m" x="146.755" y="117.501"/><use xlink:href="#l" x="154.138" y="117.501"/><use xlink:href="#l" x="161.52" y="117.501"/><use xlink:href="#l" x="174.153" y="117.501"/><use xlink:href="#l" x="181.536" y="117.501"/><use xlink:href="#l" x="188.919" y="117.501"/><use xlink:href="#l" x="196.301" y="117.501"/><use xlink:href="#o" x="22.345" y="145.847"/><use xlink:href="#o" x="34.993" y="145.847"/><use xlink:href="#o" x="42.375" y="145.847"/><use xlink:href="#n" x="49.758" y="145.847"/><use xlink:href="#n" x="57.14" y="145.847"/><use xlink:href="#n" x="69.788" y="145.847"/><use xlink:href="#n" x="77.17" y="145.847"/><use xlink:href="#n" x="84.553" y="145.847"/><use xlink:href="#n" x="91.936" y="145.847"/><use xlink:href="#m" x="104.569" y="145.847"/><use xlink:href="#m" x="111.951" y="145.847"/><use xlink:href="#m" x="119.334" y="145.847"/><use xlink:href="#m" x="126.716" y="145.847"/><use xlink:href="#m" x="139.364" y="145.847"/><use xlink:href="#m" x="146.747" y="145.847"/><use xlink:href="#l" x="154.129" y="145.847"/><use xlink:href="#l" x="161.512" y="145.847"/><use xlink:href="#l" x="174.159" y="145.847"/><use xlink:href="#l" x="181.542" y="145.847"/><use xlink:href="#l" x="188.924" y="145.847"/><use xlink:href="#l" x="196.307" y="145.847"/><use xlink:href="#p" x="216.34" y="61.172"/><use xlink:href="#p" x="216.34" y="89.518"/><use xlink:href="#p" x="216.34" y="117.865"/><use xlink:href="#p" x="216.34" y="146.211"/><use xlink:href="#a" x="335.812" y="33.206"/><use xlink:href="#f" x="347.076" y="33.206"/><use xlink:href="#j" x="355.42" y="33.206"/><use xlink:href="#g" x="361.516" y="33.206"/><use xlink:href="#i" x="373.781" y="33.206"/><use xlink:href="#g" x="379.968" y="33.206"/><use xlink:href="#q" x="386.964" y="33.206"/><use xlink:href="#r" x="395.308" y="33.206"/><use xlink:href="#g" x="404.104" y="33.206"/><use xlink:href="#c" x="411.1" y="33.206"/><use xlink:href="#s" x="419.895" y="33.206"/><use xlink:href="#g" x="426.892" y="33.206"/><use xlink:href="#i" x="433.888" y="33.206"/><use xlink:href="#t" x="246.208" y="60.808"/><use xlink:href="#l" x="253.591" y="60.808"/><use xlink:href="#l" x="260.973" y="60.808"/><use xlink:href="#l" x="268.356" y="60.808"/><use xlink:href="#l" x="281.003" y="60.808"/><use xlink:href="#l" x="288.386" y="60.808"/><use xlink:href="#l" x="295.768" y="60.808"/><use xlink:href="#l" x="303.151" y="60.808"/><use xlink:href="#u" x="246.208" y="89.155"/><use xlink:href="#u" x="253.591" y="89.155"/><use xlink:href="#t" x="260.973" y="89.155"/><use xlink:href="#m" x="268.356" y="89.155"/><use xlink:href="#m" x="281.003" y="89.155"/><use xlink:href="#m" x="288.386" y="89.155"/><use xlink:href="#m" x="295.768" y="89.155"/><use xlink:href="#m" x="303.151" y="89.155"/><use xlink:href="#u" x="315.799" y="89.155"/><use xlink:href="#t" x="323.181" y="89.155"/><use xlink:href="#l" x="330.564" y="89.155"/><use xlink:href="#l" x="337.946" y="89.155"/><use xlink:href="#l" x="350.579" y="89.155"/><use xlink:href="#l" x="357.962" y="89.155"/><use xlink:href="#l" x="365.345" y="89.155"/><use xlink:href="#l" x="372.727" y="89.155"/><use xlink:href="#u" x="246.208" y="117.501"/><use xlink:href="#u" x="253.591" y="117.501"/><use xlink:href="#u" x="260.973" y="117.501"/><use xlink:href="#t" x="268.356" y="117.501"/><use xlink:href="#n" x="281.003" y="117.501"/><use xlink:href="#n" x="288.386" y="117.501"/><use xlink:href="#n" x="295.768" y="117.501"/><use xlink:href="#n" x="303.151" y="117.501"/><use xlink:href="#u" x="315.799" y="117.501"/><use xlink:href="#t" x="323.181" y="117.501"/><use xlink:href="#m" x="330.564" y="117.501"/><use xlink:href="#m" x="337.946" y="117.501"/><use xlink:href="#m" x="350.579" y="117.501"/><use xlink:href="#m" x="357.962" y="117.501"/><use xlink:href="#m" x="365.345" y="117.501"/><use xlink:href="#m" x="372.727" y="117.501"/><use xlink:href="#u" x="385.375" y="117.501"/><use xlink:href="#t" x="392.757" y="117.501"/><use xlink:href="#l" x="400.14" y="117.501"/><use xlink:href="#l" x="407.522" y="117.501"/><use xlink:href="#l" x="420.17" y="117.501"/><use xlink:href="#l" x="427.553" y="117.501"/><use xlink:href="#l" x="434.935" y="117.501"/><use xlink:href="#l" x="442.318" y="117.501"/><use xlink:href="#u" x="246.208" y="145.847"/><use xlink:href="#u" x="253.591" y="145.847"/><use xlink:href="#u" x="260.973" y="145.847"/><use xlink:href="#u" x="268.356" y="145.847"/><use xlink:href="#t" x="281.003" y="145.847"/><use xlink:href="#o" x="288.386" y="145.847"/><use xlink:href="#o" x="295.768" y="145.847"/><use xlink:href="#o" x="303.151" y="145.847"/><use xlink:href="#u" x="315.799" y="145.847"/><use xlink:href="#t" x="323.181" y="145.847"/><use xlink:href="#n" x="330.564" y="145.847"/><use xlink:href="#n" x="337.946" y="145.847"/><use xlink:href="#n" x="350.579" y="145.847"/><use xlink:href="#n" x="357.962" y="145.847"/><use xlink:href="#n" x="365.345" y="145.847"/><use xlink:href="#n" x="372.727" y="145.847"/><use xlink:href="#u" x="385.375" y="145.847"/><use xlink:href="#t" x="392.757" y="145.847"/><use xlink:href="#m" x="400.14" y="145.847"/><use xlink:href="#m" x="407.522" y="145.847"/><use xlink:href="#m" x="420.17" y="145.847"/><use xlink:href="#m" x="427.553" y="145.847"/><use xlink:href="#m" x="434.935" y="145.847"/><use xlink:href="#m" x="442.318" y="145.847"/><use xlink:href="#u" x="454.965" y="145.847"/><use xlink:href="#t" x="462.348" y="145.847"/><use xlink:href="#l" x="469.73" y="145.847"/><use xlink:href="#l" x="477.113" y="145.847"/><use xlink:href="#l" x="489.746" y="145.847"/><use xlink:href="#l" x="497.129" y="145.847"/><use xlink:href="#l" x="504.511" y="145.847"/><use xlink:href="#l" x="511.894" y="145.847"/></svg>