<svg xmlns="http://www.w3.org/2000/svg" xmlns:xlink="http://www.w3.org/1999/xlink" width="503.754" height="95.856"><defs><path id="a" d="M7.984-5.25c0-3.203-1.703-5.484-3.562-5.484-1.875 0-3.563 2.312-3.563 5.468 0 3.204 1.704 5.47 3.563 5.47 1.875 0 3.562-2.298 3.562-5.454ZM4.422-.797c-1.36 0-2.438-2.078-2.438-4.64 0-2.563 1.188-4.297 2.438-4.297 1.266 0 2.453 1.734 2.453 4.296 0 2.547-1.094 4.641-2.453 4.641Zm0 0"/><path id="b" d="m4.86-3.828 1.968-2.594h.61c.234 0 .687 0 .687-.5s-.453-.5-.688-.5H5.532c-.25 0-.687 0-.687.5s.406.5.828.5L4.375-4.656 3.047-6.422c.39 0 .812 0 .812-.5s-.453-.5-.687-.5H1.25c-.234 0-.688 0-.688.5s.454.5.688.5h.61l2.046 2.594L1.75-1h-.578c-.234 0-.703 0-.703.5s.469.5.703.5h1.89c.25 0 .688 0 .688-.5S3.36-1 2.89-1l1.485-2.172L5.922-1c-.422 0-.844 0-.844.5s.453.5.688.5h1.906c.25 0 .703 0 .703-.5S7.922-1 7.672-1h-.594Zm0 0"/><path id="c" d="M5.234-10.016c0-.265 0-.718-.5-.718-.296 0-.39.156-.5.39-.328.735-.89 1.64-1.812 1.719-.25.016-.61.047-.61.5 0 .297.172.5.547.5.97 0 1.704-.719 1.75-.766V-1H2.594c-.235 0-.703 0-.703.5s.468.5.703.5H6.75c.234 0 .703 0 .703-.5S6.984-1 6.75-1H5.234Zm0 0"/><path id="d" d="M6.578-3.063c0-1.859-1.406-3.328-3.062-3.328-1.72 0-3.079 1.516-3.079 3.329C.438-1.234 1.86.14 3.5.14c1.688 0 3.078-1.407 3.078-3.204ZM3.516-.171c-.532 0-1.172-.234-1.594-.937-.39-.641-.406-1.485-.406-2.094 0-.547 0-1.422.453-2.063A1.836 1.836 0 0 1 3.5-6.109c.563 0 1.156.25 1.547.812.453.656.453 1.563.453 2.094 0 .5 0 1.39-.375 2.062-.406.704-1.063.97-1.61.97Zm0 0"/><path id="e" d="M6.39-3.484c0-1.329 0-1.735-.343-2.204-.406-.546-1.078-.64-1.578-.64-1.39 0-1.938 1.187-2.047 1.484h-.016v-1.484l-1.953.156v.422c.984 0 1.094.094 1.094.797v3.89c0 .641-.156.641-1.094.641V0C.828-.031 1.61-.031 2.016-.031c.406 0 1.187 0 1.562.031v-.422c-.922 0-1.094 0-1.094-.64v-2.672c0-1.5.985-2.297 1.875-2.297.891 0 1.094.718 1.094 1.593v3.375c0 .641-.156.641-1.094.641V0c.375-.031 1.157-.031 1.547-.031.422 0 1.188 0 1.563.031v-.422c-.719 0-1.078 0-1.078-.422Zm0 0"/><path id="f" d="M5.5-3.328c.313 0 .344 0 .344-.266 0-1.453-.782-2.797-2.516-2.797-1.64 0-2.89 1.47-2.89 3.25C.438-1.25 1.89.141 3.483.141c1.704 0 2.36-1.547 2.36-1.844 0-.094-.078-.14-.157-.14-.125 0-.156.062-.171.14C5.14-.5 4.172-.172 3.578-.172c-.61 0-2.062-.406-2.062-2.89v-.266Zm-3.969-.266c.125-2.265 1.375-2.515 1.782-2.515 1.53 0 1.624 2.015 1.64 2.515Zm0 0"/><path id="g" d="M3.89-2.719v-.765H.157v.765Zm0 0"/><path id="h" d="m2.39-9.953-1.984.156v.422c.969 0 1.078.094 1.078.797V0h.329c.046-.11.453-.828.515-.938.328.532.938 1.079 1.86 1.079C5.843.14 7.28-1.25 7.28-3.094c0-1.828-1.343-3.234-2.937-3.234-.782 0-1.453.36-1.953.969Zm.032 5.36c0-.25 0-.282.156-.516.344-.516.985-.922 1.688-.922.421 0 1.937.172 1.937 2.922 0 .953-.156 1.562-.5 2.078-.281.437-.86.89-1.578.89-.766 0-1.266-.5-1.516-.89-.187-.297-.187-.36-.187-.61Zm0 0"/><path id="i" d="M5.813-4.797c.39-.953 1.062-.969 1.328-.969v-.421c-.407.03-.61.03-1.079.03-.328 0-.359 0-1.156-.03v.421c.532.032.657.36.657.61 0 .14-.032.203-.079.343L4.016-1.188 2.422-5.094c-.078-.203-.078-.281-.078-.297 0-.375.5-.375.781-.375v-.421c-.375.03-1.078.03-1.469.03-.547 0-.578 0-1.39-.03v.421c.828 0 .937.079 1.125.516L3.53 0c-.64 1.516-.64 1.547-.687 1.656-.25.438-.64.985-1.281.985-.438 0-.72-.266-.72-.266s.5-.047.5-.547a.517.517 0 0 0-.53-.531c-.235 0-.547.14-.547.547 0 .547.53 1.078 1.296 1.078.797 0 1.391-.703 1.766-1.61Zm0 0"/><path id="j" d="M2.406-5.766h2.031v-.421h-2.03v-2.641h-.313c-.016 1.36-.531 2.734-1.828 2.781v.281h1.218v3.985C1.484-.188 2.531.14 3.297.14c.906 0 1.375-.891 1.375-1.922v-.813h-.313v.781c0 1.032-.421 1.641-.968 1.641-.985 0-.985-1.328-.985-1.578Zm0 0"/><path id="k" d="M5.188-5.313c-.172 0-.704 0-.704.594 0 .344.25.594.594.594.328 0 .61-.203.61-.625 0-.953-1.016-1.64-2.172-1.64C1.844-6.39.5-4.907.5-3.095.5-1.266 1.875.141 3.5.141c1.89 0 2.328-1.72 2.328-1.844 0-.14-.11-.14-.14-.14-.141 0-.157.046-.188.218C5.172-.609 4.406-.172 3.625-.172c-.875 0-2.031-.766-2.031-2.937 0-2.391 1.218-2.97 1.937-2.97.547 0 1.328.22 1.656.766Zm0 0"/><path id="l" d="M4.297-9.797v.422c.984 0 1.094.094 1.094.797v3.172a2.22 2.22 0 0 0-1.797-.922C1.938-6.328.5-4.922.5-3.078.5-1.266 1.86.14 3.438.14c1.093 0 1.718-.72 1.921-.985v.985L7.391 0v-.422c-.985 0-1.094-.094-1.094-.797v-8.734Zm1.062 8.125c0 .25 0 .297-.203.61-.343.5-.922.921-1.64.921-.375 0-1.922-.14-1.922-2.921 0-1.047.172-1.61.484-2.094.281-.438.86-.875 1.578-.875.89 0 1.39.64 1.531.875.172.234.172.265.172.515Zm0 0"/><path id="m" d="M2.5-8.828a.71.71 0 0 0-.703-.703.684.684 0 0 0-.688.687c0 .422.344.703.688.703a.706.706 0 0 0 .703-.687ZM.516-6.172v.422c.921 0 1.046.078 1.046.781v3.907c0 .64-.156.64-1.093.64V0c.406-.031 1.094-.031 1.515-.031.157 0 .985 0 1.47.031v-.422c-.923 0-.985-.062-.985-.625v-5.281Zm0 0"/><path id="n" d="M1.703-2.594c.672.438 1.25.438 1.406.438 1.297 0 2.25-.969 2.25-2.078 0-.391-.109-.922-.562-1.391.547-.578 1.234-.578 1.297-.578.062 0 .125 0 .187.031a.381.381 0 0 0-.218.36c0 .203.14.375.375.375.125 0 .375-.079.375-.391a.677.677 0 0 0-.704-.656c-.75 0-1.296.453-1.5.671a2.445 2.445 0 0 0-1.484-.515c-1.281 0-2.25.984-2.25 2.078 0 .828.5 1.36.64 1.484a1.917 1.917 0 0 0-.421 1.188c0 .828.5 1.187.61 1.266C1.046-.126.39.39.39 1.14c0 .984 1.343 1.796 3.109 1.796 1.703 0 3.125-.75 3.125-1.828 0-.359-.094-1.203-.953-1.656-.734-.375-1.453-.375-2.688-.375-.875 0-.968 0-1.234-.265-.14-.141-.266-.422-.266-.72 0-.25.079-.484.22-.687Zm1.422.14c-1.266 0-1.266-1.452-1.266-1.78 0-.25 0-.844.25-1.235a1.244 1.244 0 0 1 1-.562c1.266 0 1.266 1.453 1.266 1.781 0 .266 0 .844-.25 1.234a1.204 1.204 0 0 1-1 .563Zm.39 5.095c-1.374 0-2.421-.704-2.421-1.516 0-.125.031-.688.562-1.047.328-.203.453-.203 1.453-.203 1.188 0 2.813 0 2.813 1.25 0 .844-1.094 1.516-2.406 1.516Zm0 0"/><path id="o" d="M2.531-6.89c0-.094-.015-.173-.015-.36 0-.188 0-1.36.984-2.344.125-.125.125-.156.125-.203a.14.14 0 0 0-.14-.14c-.126 0-1.266 1.062-1.266 2.687 0 .89.328 1.469.906 1.469.422 0 .688-.313.688-.688 0-.39-.266-.703-.704-.703-.39 0-.578.266-.578.281Zm2.735 0c-.016-.094-.032-.173-.032-.36 0-.188 0-1.36.985-2.344.14-.125.14-.156.14-.203 0-.078-.078-.14-.156-.14-.125 0-1.25 1.062-1.25 2.687 0 .89.328 1.469.906 1.469a.674.674 0 0 0 .688-.688.681.681 0 0 0-.703-.703c-.39 0-.578.266-.578.281Zm0 0"/><path id="p" d="M2.469-5.766h1.625v-.421H2.437V-7.86c0-1.297.657-1.954 1.25-1.954.11 0 .329.032.5.11-.062.015-.421.156-.421.562 0 .329.234.563.562.563.344 0 .578-.235.578-.578 0-.531-.515-.938-1.203-.938-1 0-2.14.766-2.14 2.235v1.671H.438v.422h1.125v4.704c0 .64-.157.64-1.094.64V0c.406-.031 1.187-.031 1.625-.031.39 0 1.406 0 1.734.031v-.422h-.281c-1.047 0-1.078-.156-1.078-.672Zm0 0"/><path id="q" d="m2.469-9.953-2 .156v.422c.984 0 1.094.094 1.094.797v7.515c0 .641-.157.641-1.094.641V0c.406-.031 1.11-.031 1.547-.031.421 0 1.14 0 1.546.031v-.422c-.921 0-1.093 0-1.093-.64Zm0 0"/><path id="r" d="M8.672-4.813c.328-.906.953-.937 1.203-.953v-.421c-.36.03-.625.03-1.063.03-.421 0-.453 0-1.218-.03v.421c.64.032.812.422.812.688 0 .016 0 .11-.062.266L7.03-1.063 5.594-5.125c-.078-.172-.078-.203-.078-.234 0-.407.53-.407.843-.407v-.421c-.406.03-1 .03-1.406.03-.469 0-.5 0-1.297-.03v.421c.547 0 .735.032.89.22.079.077.25.562.345.843l-1.22 3.5L2.298-5.11c-.078-.188-.078-.22-.078-.266 0-.39.562-.39.844-.39v-.423c-.36.032-1.079.032-1.47.032-.405 0-.437 0-1.327-.032v.422c.718 0 .875.063 1.03.516L3.095-.11c.062.157.11.25.265.25.125 0 .204-.046.266-.265l1.438-4.094L6.5-.125c.063.219.14.266.266.266.156 0 .203-.094.265-.25Zm0 0"/><path id="s" d="M1.75-8.844c.016.094.031.172.031.36 0 .187 0 1.359-1 2.343-.125.125-.125.157-.125.204 0 .078.078.14.14.14.141 0 1.266-1.062 1.266-2.687 0-.891-.328-1.47-.906-1.47a.674.674 0 0 0-.687.688c0 .391.281.704.703.704.39 0 .578-.266.578-.282Zm2.719 0c.015.094.031.172.031.36 0 .187 0 1.359-.984 2.343-.125.125-.125.157-.125.204 0 .078.062.14.14.14.125 0 1.266-1.062 1.266-2.687 0-.891-.344-1.47-.906-1.47-.422 0-.688.313-.688.688 0 .391.266.704.703.704.375 0 .563-.266.563-.282Zm0 0"/><path id="t" d="M6.39-3.484c0-1.329 0-1.735-.343-2.204-.406-.546-1.078-.64-1.578-.64-1.235 0-1.797.937-2 1.375h-.016v-5l-2 .156v.422c.984 0 1.094.094 1.094.797v7.515c0 .641-.156.641-1.094.641V0C.828-.031 1.61-.031 2.016-.031c.406 0 1.187 0 1.562.031v-.422c-.922 0-1.094 0-1.094-.64v-2.672c0-1.5.985-2.297 1.875-2.297.891 0 1.094.718 1.094 1.593v3.375c0 .641-.156.641-1.094.641V0c.375-.031 1.157-.031 1.547-.031.422 0 1.188 0 1.563.031v-.422c-.719 0-1.078 0-1.078-.422Zm0 0"/><path id="u" d="M2.39-3.344c0-1.39.579-2.687 1.688-2.687h.203c-.125.062-.343.156-.343.531 0 .422.328.578.546.578.297 0 .579-.187.579-.578 0-.422-.391-.828-1-.828-1.22 0-1.641 1.328-1.72 1.594h-.015v-1.594l-1.922.156v.422c.969 0 1.078.094 1.078.797v3.89c0 .641-.156.641-1.078.641V0c.39-.031 1.188-.031 1.61-.031.39 0 1.406 0 1.75.031v-.422h-.297c-1.047 0-1.078-.156-1.078-.672Zm0 0"/><path id="v" d="M4.36-6.172v.422c.968 0 1.093.094 1.093.797v2.578c0 1.219-.64 2.234-1.719 2.234-1.187 0-1.25-.671-1.25-1.437v-4.75l-2.03.156v.422c1.093 0 1.093.047 1.093 1.313v2.156c0 .89 0 1.406.437 1.875.344.375.922.547 1.657.547.25 0 .703 0 1.187-.407.422-.343.656-.875.656-.875V.141L7.47 0v-.422c-.969 0-1.078-.094-1.078-.797v-5.11Zm0 0"/></defs><use xlink:href="#a" x="21.055" y="29.957"/><use xlink:href="#b" x="29.914" y="29.957"/><use xlink:href="#b" x="38.773" y="29.957"/><use xlink:href="#b" x="47.632" y="29.957"/><use xlink:href="#b" x="61.759" y="29.957"/><use xlink:href="#b" x="70.618" y="29.957"/><use xlink:href="#b" x="79.477" y="29.957"/><use xlink:href="#b" x="88.336" y="29.957"/><use xlink:href="#c" x="117.433" y="29.957"/><use xlink:href="#a" x="126.292" y="29.957"/><use xlink:href="#b" x="135.151" y="29.957"/><use xlink:href="#b" x="144.01" y="29.957"/><use xlink:href="#b" x="158.137" y="29.957"/><use xlink:href="#b" x="166.996" y="29.957"/><use xlink:href="#b" x="175.855" y="29.957"/><use xlink:href="#b" x="184.714" y="29.957"/><use xlink:href="#c" x="213.81" y="29.957"/><use xlink:href="#c" x="222.669" y="29.957"/><use xlink:href="#a" x="231.528" y="29.957"/><use xlink:href="#b" x="240.387" y="29.957"/><use xlink:href="#b" x="254.514" y="29.957"/><use xlink:href="#b" x="263.373" y="29.957"/><use xlink:href="#b" x="272.232" y="29.957"/><use xlink:href="#b" x="281.091" y="29.957"/><use xlink:href="#c" x="310.188" y="29.957"/><use xlink:href="#c" x="319.047" y="29.957"/><use xlink:href="#c" x="327.906" y="29.957"/><use xlink:href="#a" x="336.765" y="29.957"/><use xlink:href="#b" x="350.892" y="29.957"/><use xlink:href="#b" x="359.751" y="29.957"/><use xlink:href="#b" x="368.61" y="29.957"/><use xlink:href="#b" x="377.469" y="29.957"/><use xlink:href="#c" x="406.566" y="29.957"/><use xlink:href="#c" x="415.425" y="29.957"/><use xlink:href="#c" x="424.284" y="29.957"/><use xlink:href="#c" x="433.143" y="29.957"/><use xlink:href="#a" x="447.27" y="29.957"/><use xlink:href="#b" x="456.129" y="29.957"/><use xlink:href="#b" x="464.988" y="29.957"/><use xlink:href="#b" x="473.847" y="29.957"/><use xlink:href="#d" x="32.978" y="54.502"/><use xlink:href="#e" x="40.002" y="54.502"/><use xlink:href="#f" x="47.806" y="54.502"/><use xlink:href="#g" x="54.05" y="54.502"/><use xlink:href="#h" x="58.732" y="54.502"/><use xlink:href="#i" x="66.149" y="54.502"/><use xlink:href="#j" x="73.563" y="54.502"/><use xlink:href="#f" x="79.026" y="54.502"/><use xlink:href="#f" x="32.002" y="73.63"/><use xlink:href="#e" x="38.245" y="73.63"/><use xlink:href="#k" x="46.05" y="73.63"/><use xlink:href="#d" x="52.293" y="73.63"/><use xlink:href="#l" x="59.705" y="73.63"/><use xlink:href="#m" x="67.509" y="73.63"/><use xlink:href="#e" x="71.411" y="73.63"/><use xlink:href="#n" x="79.215" y="73.63"/><use xlink:href="#o" x="121.162" y="54.502"/><use xlink:href="#p" x="128.186" y="54.502"/><use xlink:href="#d" x="132.478" y="54.502"/><use xlink:href="#q" x="139.502" y="54.502"/><use xlink:href="#q" x="143.404" y="54.502"/><use xlink:href="#d" x="147.307" y="54.502"/><use xlink:href="#r" x="153.943" y="54.502"/><use xlink:href="#m" x="164.089" y="54.502"/><use xlink:href="#e" x="167.991" y="54.502"/><use xlink:href="#n" x="175.795" y="54.502"/><use xlink:href="#s" x="182.819" y="54.502"/><use xlink:href="#h" x="142.232" y="73.63"/><use xlink:href="#i" x="149.649" y="73.63"/><use xlink:href="#j" x="157.063" y="73.63"/><use xlink:href="#f" x="162.526" y="73.63"/><use xlink:href="#j" x="225.344" y="54.502"/><use xlink:href="#r" x="230.42" y="54.502"/><use xlink:href="#d" x="240.178" y="54.502"/><use xlink:href="#g" x="247.202" y="54.502"/><use xlink:href="#h" x="251.87" y="54.502"/><use xlink:href="#i" x="259.287" y="54.502"/><use xlink:href="#j" x="266.701" y="54.502"/><use xlink:href="#f" x="272.164" y="54.502"/><use xlink:href="#f" x="224.758" y="73.63"/><use xlink:href="#e" x="231.001" y="73.63"/><use xlink:href="#k" x="238.806" y="73.63"/><use xlink:href="#d" x="245.049" y="73.63"/><use xlink:href="#l" x="252.461" y="73.63"/><use xlink:href="#m" x="260.265" y="73.63"/><use xlink:href="#e" x="264.167" y="73.63"/><use xlink:href="#n" x="271.971" y="73.63"/><use xlink:href="#j" x="317.039" y="54.502"/><use xlink:href="#t" x="322.502" y="54.502"/><use xlink:href="#u" x="330.306" y="54.502"/><use xlink:href="#f" x="335.769" y="54.502"/><use xlink:href="#f" x="342.013" y="54.502"/><use xlink:href="#g" x="348.256" y="54.502"/><use xlink:href="#h" x="352.939" y="54.502"/><use xlink:href="#i" x="360.356" y="54.502"/><use xlink:href="#j" x="367.77" y="54.502"/><use xlink:href="#f" x="373.233" y="54.502"/><use xlink:href="#f" x="321.136" y="73.63"/><use xlink:href="#e" x="327.379" y="73.63"/><use xlink:href="#k" x="335.184" y="73.63"/><use xlink:href="#d" x="341.427" y="73.63"/><use xlink:href="#l" x="348.839" y="73.63"/><use xlink:href="#m" x="356.643" y="73.63"/><use xlink:href="#e" x="360.545" y="73.63"/><use xlink:href="#n" x="368.349" y="73.63"/><use xlink:href="#p" x="416.734" y="54.502"/><use xlink:href="#d" x="421.026" y="54.502"/><use xlink:href="#v" x="428.05" y="54.502"/><use xlink:href="#u" x="435.855" y="54.502"/><use xlink:href="#g" x="441.318" y="54.502"/><use xlink:href="#h" x="446" y="54.502"/><use xlink:href="#i" x="453.417" y="54.502"/><use xlink:href="#j" x="460.831" y="54.502"/><use xlink:href="#f" x="466.294" y="54.502"/><use xlink:href="#f" x="417.514" y="73.63"/><use xlink:href="#e" x="423.757" y="73.63"/><use xlink:href="#k" x="431.562" y="73.63"/><use xlink:href="#d" x="437.805" y="73.63"/><use xlink:href="#l" x="445.217" y="73.63"/><use xlink:href="#m" x="453.021" y="73.63"/><use xlink:href="#e" x="456.923" y="73.63"/><use xlink:href="#n" x="464.727" y="73.63"/></svg>