<svg xmlns="http://www.w3.org/2000/svg" xmlns:xlink="http://www.w3.org/1999/xlink" width="381.976" height="77.471"><defs><path id="a" d="M5.547-3.64c0-2.235-1.188-3.813-2.469-3.813-1.312 0-2.484 1.61-2.484 3.797C.594-1.437 1.78.14 3.078.14s2.469-1.594 2.469-3.782ZM3.078-.548C2.125-.547 1.375-2 1.375-3.78S2.203-6.75 3.078-6.75c.86 0 1.688 1.188 1.688 2.969 0 1.765-.75 3.234-1.688 3.234Zm0 0"/><path id="b" d="M3.375-2.656 4.75-4.453h.406c.172 0 .485 0 .485-.36 0-.343-.313-.343-.485-.343H3.844c-.172 0-.485 0-.485.343 0 .36.282.36.579.36L3.03-3.234l-.922-1.22c.282 0 .563 0 .563-.359 0-.343-.313-.343-.469-.343H.875c-.172 0-.484 0-.484.343 0 .36.312.36.484.36h.422l1.422 1.797-1.5 1.969H.812c-.171 0-.484 0-.484.343C.328 0 .641 0 .812 0h1.313c.172 0 .484 0 .484-.344s-.28-.344-.593-.344L3.03-2.202 4.11-.688c-.296 0-.578 0-.578.344S3.844 0 4 0h1.328c.172 0 .484 0 .484-.344S5.5-.688 5.329-.688h-.422Zm0 0"/><path id="c" d="M3.64-6.953c0-.188 0-.5-.359-.5-.203 0-.265.11-.344.266-.218.515-.624 1.156-1.25 1.203-.187.015-.437.03-.437.343 0 .204.125.344.39.344.673 0 1.188-.5 1.22-.531v5.14H1.812c-.172 0-.5 0-.5.344s.328.344.5.344h2.875c.171 0 .484 0 .484-.344s-.313-.344-.484-.344H3.64Zm0 0"/><path id="d" d="M5.484-2.563c0-1.53-1.171-2.765-2.562-2.765C1.5-5.328.359-4.062.359-2.562.36-1.032 1.547.124 2.922.124c1.406 0 2.562-1.172 2.562-2.688ZM2.922-.14c-.438 0-.969-.187-1.313-.78-.328-.532-.343-1.235-.343-1.75 0-.454 0-1.173.375-1.72.328-.515.859-.703 1.28-.703.454 0 .97.219 1.282.688.375.547.375 1.297.375 1.734 0 .422 0 1.172-.312 1.735-.329.562-.891.796-1.344.796Zm0 0"/><path id="e" d="M5.313-2.906c0-1.11 0-1.438-.266-1.828-.344-.47-.906-.532-1.313-.532-1.171 0-1.625.985-1.718 1.22v-1.22L.375-5.14v.344c.813 0 .922.094.922.672v3.234c0 .547-.14.547-.922.547V0c.313-.031.969-.031 1.297-.031.344 0 1 0 1.297.031v-.344c-.75 0-.906 0-.906-.547v-2.218c0-1.25.828-1.922 1.578-1.922.734 0 .906.61.906 1.343V-.89c0 .547-.14.547-.906.547V0c.296-.031.953-.031 1.28-.031.345 0 1 0 1.313.031v-.344c-.609 0-.906 0-.921-.36Zm0 0"/><path id="f" d="M4.578-2.766c.266 0 .281 0 .281-.234 0-1.203-.64-2.328-2.093-2.328-1.36 0-2.407 1.234-2.407 2.703 0 1.578 1.22 2.75 2.547 2.75 1.422 0 1.953-1.297 1.953-1.547 0-.078-.046-.125-.125-.125-.093 0-.125.063-.14.125-.313 1-1.11 1.281-1.625 1.281-.5 0-1.703-.343-1.703-2.406v-.219ZM1.281-3c.094-1.875 1.14-2.094 1.485-2.094 1.28 0 1.343 1.688 1.359 2.094Zm0 0"/><path id="g" d="M3.234-2.266v-.64H.125v.64Zm0 0"/><path id="h" d="m2-8.297-1.672.14v.345c.813 0 .922.078.922.671V0h.25c.047-.094.39-.688.438-.781.28.453.78.906 1.546.906 1.375 0 2.594-1.172 2.594-2.703 0-1.516-1.125-2.688-2.453-2.688-.656 0-1.219.297-1.625.797Zm.016 4.469c0-.219 0-.235.14-.422.281-.438.813-.781 1.39-.781.36 0 1.61.14 1.61 2.437 0 .797-.11 1.297-.406 1.735a1.566 1.566 0 0 1-1.313.734c-.64 0-1.062-.406-1.265-.734-.156-.25-.156-.297-.156-.5Zm0 0"/><path id="i" d="M4.844-4c.312-.797.875-.813 1.11-.813v-.343c-.345.031-.516.031-.891.031-.282 0-.313 0-.97-.031v.343c.438.032.548.313.548.516 0 .11-.032.172-.079.297L3.345-.984 2.016-4.25c-.063-.156-.063-.234-.063-.25 0-.313.406-.313.656-.313v-.343c-.312.031-.906.031-1.234.031-.453 0-.484 0-1.156-.031v.343c.687 0 .781.063.937.438L2.938 0c-.516 1.266-.516 1.297-.579 1.39-.203.36-.515.813-1.062.813-.36 0-.594-.219-.594-.219s.422-.046.422-.468a.436.436 0 0 0-.438-.438c-.203 0-.453.11-.453.469 0 .453.438.89 1.063.89.672 0 1.172-.578 1.469-1.343Zm0 0"/><path id="j" d="M2.016-4.813h1.671v-.343H2.016v-2.188H1.75c-.016 1.11-.453 2.266-1.531 2.297v.234h1.015v3.329C1.234-.156 2.11.125 2.75.125c.75 0 1.14-.75 1.14-1.61v-.671h-.25v.656c0 .86-.359 1.36-.812 1.36-.812 0-.812-1.11-.812-1.313Zm0 0"/><path id="k" d="M4.328-4.422c-.14 0-.594 0-.594.484 0 .297.204.5.5.5.266 0 .5-.171.5-.515 0-.797-.843-1.375-1.812-1.375-1.39 0-2.5 1.234-2.5 2.75 0 1.531 1.14 2.703 2.5 2.703 1.578 0 1.937-1.438 1.937-1.547 0-.11-.093-.11-.125-.11-.109 0-.125.032-.156.188C4.312-.5 3.672-.14 3.031-.14c-.734 0-1.703-.64-1.703-2.453 0-1.984 1.016-2.469 1.61-2.469.453 0 1.109.172 1.39.641Zm0 0"/><path id="l" d="M3.578-8.156v.344c.828 0 .922.078.922.671V-4.5A1.829 1.829 0 0 0 3-5.266C1.61-5.266.422-4.094.422-2.562.422-1.048 1.547.124 2.875.124c.906 0 1.422-.61 1.594-.828v.828L6.156 0v-.344c-.812 0-.906-.094-.906-.672v-7.28Zm.89 6.75c0 .218 0 .265-.171.515-.281.422-.766.766-1.375.766-.297 0-1.594-.11-1.594-2.438 0-.859.14-1.328.406-1.734.235-.36.72-.734 1.313-.734.75 0 1.156.531 1.281.734.14.203.14.219.14.438Zm0 0"/><path id="m" d="M2.078-7.36a.59.59 0 0 0-.578-.593.577.577 0 0 0-.578.578c0 .36.281.578.578.578.36 0 .578-.297.578-.562ZM.438-5.14v.343c.75 0 .859.078.859.656v3.25c0 .547-.125.547-.906.547V0c.343-.031.906-.031 1.265-.031.125 0 .813 0 1.219.031v-.344c-.766 0-.813-.062-.813-.531v-4.39Zm0 0"/><path id="n" d="M1.422-2.156c.562.36 1.047.36 1.172.36 1.078 0 1.875-.813 1.875-1.735 0-.313-.094-.766-.469-1.156.453-.47 1.016-.47 1.078-.47.047 0 .11 0 .156.016-.125.047-.171.172-.171.297 0 .172.109.313.296.313.11 0 .313-.063.313-.328a.556.556 0 0 0-.578-.547c-.625 0-1.094.39-1.25.562a2.067 2.067 0 0 0-1.235-.422c-1.078 0-1.875.813-1.875 1.735 0 .672.407 1.11.532 1.219-.141.187-.36.53-.36 1 0 .687.422.984.516 1.046C.875-.109.328.328.328.938c0 .828 1.125 1.515 2.594 1.515 1.422 0 2.594-.64 2.594-1.531 0-.297-.079-1-.797-1.375-.61-.313-1.203-.313-2.235-.313-.734 0-.812 0-1.03-.218a.982.982 0 0 1-.22-.61c0-.203.063-.406.188-.562Zm1.187.11c-1.062 0-1.062-1.204-1.062-1.485 0-.203 0-.703.203-1.016.234-.36.594-.469.844-.469 1.047 0 1.047 1.204 1.047 1.485 0 .203 0 .703-.204 1.015a.97.97 0 0 1-.828.47Zm.313 4.25C1.782 2.203.906 1.608.906.936c0-.093.031-.562.485-.875.265-.171.359-.171 1.203-.171.984 0 2.344 0 2.344 1.046 0 .704-.907 1.266-2.016 1.266Zm0 0"/><path id="o" d="M2.11-5.734c0-.094-.016-.141-.016-.297 0-.172 0-1.14.828-1.969.11-.11.11-.125.11-.156a.134.134 0 0 0-.126-.125c-.11 0-1.047.875-1.047 2.25 0 .734.266 1.218.75 1.218.344 0 .563-.265.563-.578 0-.328-.219-.578-.578-.578-.328 0-.485.219-.485.235Zm2.28 0c-.015-.094-.03-.141-.03-.297 0-.172 0-1.14.827-1.969.11-.11.11-.125.11-.156a.134.134 0 0 0-.125-.125c-.11 0-1.047.875-1.047 2.25 0 .734.281 1.218.75 1.218a.567.567 0 0 0 .578-.578c0-.328-.234-.578-.594-.578-.312 0-.468.219-.468.235Zm0 0"/><path id="p" d="M2.063-4.813h1.343v-.343H2.031v-1.39c0-1.079.547-1.626 1.047-1.626.094 0 .266.016.406.094-.046.015-.343.125-.343.469 0 .265.187.468.468.468a.468.468 0 0 0 .485-.484c0-.438-.438-.797-1.016-.797-.828 0-1.781.656-1.781 1.875v1.39H.375v.345h.922v3.921c0 .547-.125.547-.906.547V0c.343-.031 1-.031 1.359-.031.313 0 1.172 0 1.438.031v-.344h-.235c-.875 0-.89-.14-.89-.562Zm0 0"/><path id="q" d="m2.063-8.297-1.672.14v.345c.812 0 .906.078.906.671v6.25c0 .547-.125.547-.906.547V0c.343-.031.921-.031 1.28-.031.36 0 .954 0 1.298.031v-.344c-.766 0-.906 0-.906-.547Zm0 0"/><path id="r" d="M7.234-4.016c.266-.75.782-.78.985-.796v-.344c-.297.031-.516.031-.875.031-.344 0-.375 0-1.016-.031v.343c.531.032.672.36.672.579 0 .015 0 .093-.047.218L5.86-.89 4.656-4.266c-.047-.14-.047-.171-.047-.203 0-.343.438-.343.688-.343v-.344c-.344.031-.828.031-1.172.031-.39 0-.406 0-1.078-.031v.343c.453 0 .61.032.75.188.047.078.203.469.281.703L3.062-1 1.907-4.25c-.047-.156-.047-.188-.047-.234 0-.329.454-.329.688-.329v-.343c-.297.031-.89.031-1.219.031-.344 0-.36 0-1.11-.031v.343c.61 0 .72.063.86.438l1.5 4.281c.047.125.094.219.219.219.11 0 .172-.047.234-.234L4.22-3.516 5.422-.109c.047.187.11.234.219.234.125 0 .171-.094.218-.219Zm0 0"/><path id="s" d="M1.453-7.375c.016.078.031.14.031.297 0 .172 0 1.14-.828 1.969-.11.093-.11.125-.11.156 0 .062.063.125.126.125.11 0 1.047-.89 1.047-2.25 0-.734-.266-1.219-.75-1.219a.567.567 0 0 0-.578.578.57.57 0 0 0 .593.578c.313 0 .47-.218.47-.234Zm2.281 0c0 .078.016.14.016.297 0 .172 0 1.14-.828 1.969-.094.093-.094.125-.094.156 0 .062.047.125.11.125.109 0 1.062-.89 1.062-2.25 0-.734-.281-1.219-.766-1.219-.343 0-.562.266-.562.578 0 .313.219.578.578.578.328 0 .484-.218.484-.234Zm0 0"/><path id="t" d="M5.313-2.906c0-1.11 0-1.438-.266-1.828-.344-.47-.906-.532-1.313-.532-1.03 0-1.515.766-1.671 1.141h-.016v-4.172l-1.672.14v.345c.813 0 .922.078.922.671v6.25c0 .547-.14.547-.922.547V0c.313-.031.969-.031 1.297-.031.344 0 1 0 1.297.031v-.344c-.75 0-.906 0-.906-.547v-2.218c0-1.25.828-1.922 1.578-1.922.734 0 .906.61.906 1.343V-.89c0 .547-.14.547-.906.547V0c.296-.031.953-.031 1.28-.031.345 0 1 0 1.313.031v-.344c-.609 0-.906 0-.921-.36Zm0 0"/><path id="u" d="M2-2.781c0-1.156.469-2.25 1.39-2.25.094 0 .126 0 .172.015-.093.047-.28.11-.28.438 0 .344.265.484.452.484.25 0 .485-.156.485-.484 0-.36-.328-.688-.844-.688-1.016 0-1.36 1.094-1.422 1.329h-.016v-1.329L.329-5.14v.344c.813 0 .922.094.922.672v3.234c0 .547-.14.547-.922.547V0c.344-.031 1-.031 1.36-.031.328 0 1.171 0 1.437.031v-.344h-.234C2.016-.344 2-.484 2-.906Zm0 0"/><path id="v" d="M3.64-5.14v.343c.813 0 .907.094.907.672v2.14c0 1.016-.547 1.86-1.438 1.86-.984 0-1.046-.563-1.046-1.188v-3.953L.375-5.14v.344c.922 0 .922.047.922 1.11v1.78c0 .75 0 1.173.36 1.579.28.297.765.453 1.374.453.203 0 .594 0 1-.36.344-.265.532-.718.532-.718V.125L6.234 0v-.344c-.812 0-.921-.094-.921-.672v-4.25Zm0 0"/></defs><use xlink:href="#a" x="22.697" y="25.381"/><use xlink:href="#b" x="28.849" y="25.381"/><use xlink:href="#b" x="35.001" y="25.381"/><use xlink:href="#b" x="41.153" y="25.381"/><use xlink:href="#b" x="51.203" y="25.381"/><use xlink:href="#b" x="57.355" y="25.381"/><use xlink:href="#b" x="63.507" y="25.381"/><use xlink:href="#b" x="69.659" y="25.381"/><use xlink:href="#c" x="93.563" y="25.381"/><use xlink:href="#a" x="99.715" y="25.381"/><use xlink:href="#b" x="105.867" y="25.381"/><use xlink:href="#b" x="112.019" y="25.381"/><use xlink:href="#b" x="122.069" y="25.381"/><use xlink:href="#b" x="128.221" y="25.381"/><use xlink:href="#b" x="134.373" y="25.381"/><use xlink:href="#b" x="140.525" y="25.381"/><use xlink:href="#c" x="164.43" y="25.381"/><use xlink:href="#c" x="170.582" y="25.381"/><use xlink:href="#a" x="176.734" y="25.381"/><use xlink:href="#b" x="182.886" y="25.381"/><use xlink:href="#b" x="192.936" y="25.381"/><use xlink:href="#b" x="199.088" y="25.381"/><use xlink:href="#b" x="205.24" y="25.381"/><use xlink:href="#b" x="211.392" y="25.381"/><use xlink:href="#c" x="235.296" y="25.381"/><use xlink:href="#c" x="241.448" y="25.381"/><use xlink:href="#c" x="247.6" y="25.381"/><use xlink:href="#a" x="253.752" y="25.381"/><use xlink:href="#b" x="263.802" y="25.381"/><use xlink:href="#b" x="269.954" y="25.381"/><use xlink:href="#b" x="276.106" y="25.381"/><use xlink:href="#b" x="282.258" y="25.381"/><use xlink:href="#c" x="306.162" y="25.381"/><use xlink:href="#c" x="312.314" y="25.381"/><use xlink:href="#c" x="318.466" y="25.381"/><use xlink:href="#c" x="324.618" y="25.381"/><use xlink:href="#a" x="334.668" y="25.381"/><use xlink:href="#b" x="340.82" y="25.381"/><use xlink:href="#b" x="346.972" y="25.381"/><use xlink:href="#b" x="353.124" y="25.381"/><use xlink:href="#d" x="27.47" y="42.626"/><use xlink:href="#e" x="33.323" y="42.626"/><use xlink:href="#f" x="39.827" y="42.626"/><use xlink:href="#g" x="45.03" y="42.626"/><use xlink:href="#h" x="48.932" y="42.626"/><use xlink:href="#i" x="55.113" y="42.626"/><use xlink:href="#j" x="61.291" y="42.626"/><use xlink:href="#f" x="65.844" y="42.626"/><use xlink:href="#f" x="26.657" y="57.072"/><use xlink:href="#e" x="31.86" y="57.072"/><use xlink:href="#k" x="38.364" y="57.072"/><use xlink:href="#d" x="43.566" y="57.072"/><use xlink:href="#l" x="49.742" y="57.072"/><use xlink:href="#m" x="56.246" y="57.072"/><use xlink:href="#e" x="59.498" y="57.072"/><use xlink:href="#n" x="66.002" y="57.072"/><use xlink:href="#o" x="91.507" y="42.626"/><use xlink:href="#p" x="97.36" y="42.626"/><use xlink:href="#d" x="100.937" y="42.626"/><use xlink:href="#q" x="106.791" y="42.626"/><use xlink:href="#q" x="110.042" y="42.626"/><use xlink:href="#d" x="113.294" y="42.626"/><use xlink:href="#r" x="118.825" y="42.626"/><use xlink:href="#m" x="127.279" y="42.626"/><use xlink:href="#e" x="130.531" y="42.626"/><use xlink:href="#n" x="137.035" y="42.626"/><use xlink:href="#s" x="142.888" y="42.626"/><use xlink:href="#h" x="109.066" y="57.072"/><use xlink:href="#i" x="115.247" y="57.072"/><use xlink:href="#j" x="121.425" y="57.072"/><use xlink:href="#f" x="125.978" y="57.072"/><use xlink:href="#j" x="168.877" y="42.626"/><use xlink:href="#r" x="173.107" y="42.626"/><use xlink:href="#d" x="181.239" y="42.626"/><use xlink:href="#g" x="187.092" y="42.626"/><use xlink:href="#h" x="190.982" y="42.626"/><use xlink:href="#i" x="197.163" y="42.626"/><use xlink:href="#j" x="203.341" y="42.626"/><use xlink:href="#f" x="207.894" y="42.626"/><use xlink:href="#f" x="168.389" y="57.072"/><use xlink:href="#e" x="173.592" y="57.072"/><use xlink:href="#k" x="180.096" y="57.072"/><use xlink:href="#d" x="185.298" y="57.072"/><use xlink:href="#l" x="191.474" y="57.072"/><use xlink:href="#m" x="197.978" y="57.072"/><use xlink:href="#e" x="201.23" y="57.072"/><use xlink:href="#n" x="207.734" y="57.072"/><use xlink:href="#j" x="235.841" y="42.626"/><use xlink:href="#t" x="240.394" y="42.626"/><use xlink:href="#u" x="246.897" y="42.626"/><use xlink:href="#f" x="251.45" y="42.626"/><use xlink:href="#f" x="256.653" y="42.626"/><use xlink:href="#g" x="261.856" y="42.626"/><use xlink:href="#h" x="265.758" y="42.626"/><use xlink:href="#i" x="271.939" y="42.626"/><use xlink:href="#j" x="278.117" y="42.626"/><use xlink:href="#f" x="282.67" y="42.626"/><use xlink:href="#f" x="239.255" y="57.072"/><use xlink:href="#e" x="244.458" y="57.072"/><use xlink:href="#k" x="250.962" y="57.072"/><use xlink:href="#d" x="256.164" y="57.072"/><use xlink:href="#l" x="262.34" y="57.072"/><use xlink:href="#m" x="268.844" y="57.072"/><use xlink:href="#e" x="272.096" y="57.072"/><use xlink:href="#n" x="278.6" y="57.072"/><use xlink:href="#p" x="309.471" y="42.626"/><use xlink:href="#d" x="313.048" y="42.626"/><use xlink:href="#v" x="318.901" y="42.626"/><use xlink:href="#u" x="325.405" y="42.626"/><use xlink:href="#g" x="329.957" y="42.626"/><use xlink:href="#h" x="333.86" y="42.626"/><use xlink:href="#i" x="340.04" y="42.626"/><use xlink:href="#j" x="346.219" y="42.626"/><use xlink:href="#f" x="350.771" y="42.626"/><use xlink:href="#f" x="310.121" y="57.072"/><use xlink:href="#e" x="315.324" y="57.072"/><use xlink:href="#k" x="321.828" y="57.072"/><use xlink:href="#d" x="327.03" y="57.072"/><use xlink:href="#l" x="333.206" y="57.072"/><use xlink:href="#m" x="339.71" y="57.072"/><use xlink:href="#e" x="342.962" y="57.072"/><use xlink:href="#n" x="349.466" y="57.072"/></svg>