<svg xmlns="http://www.w3.org/2000/svg" xmlns:xlink="http://www.w3.org/1999/xlink" width="313.619" height="213.315"><defs><path id="a" d="M10.688-11.688c0-.312-.016-.328-.11-.328-.078 0-.094.016-.219.22l-.75 1.452c-.843-1.078-1.875-1.687-3.203-1.687-2.937 0-5.61 2.594-5.61 6.14C.797-2.312 3.47.281 6.423.281c2.64 0 4.266-2.328 4.266-4.312 0-.172 0-.235-.157-.235-.125 0-.125.047-.14.204-.141 2.406-1.875 3.89-3.735 3.89-1.75 0-4.562-1.234-4.562-5.719 0-4.5 2.86-5.703 4.531-5.703 1.953 0 3.36 1.688 3.688 4.094.03.203.03.234.187.234.188 0 .188-.03.188-.343Zm0 0"/><path id="b" d="M7.422-3.688c0-2.203-1.61-3.921-3.484-3.921-1.876 0-3.47 1.718-3.47 3.921 0 2.172 1.595 3.829 3.47 3.829 1.874 0 3.484-1.657 3.484-3.829ZM3.938-.171c-.797 0-1.5-.484-1.891-1.156-.422-.766-.485-1.734-.485-2.5 0-.719.032-1.61.485-2.39.344-.563 1.015-1.11 1.89-1.11.782 0 1.438.422 1.844 1.031.532.797.532 1.938.532 2.469 0 .672-.032 1.703-.5 2.531-.47.797-1.22 1.125-1.875 1.125Zm0 0"/><path id="c" d="M5.031-11.766v.454c1.016 0 1.172.109 1.172.921v4.032c-.078-.079-.781-1.188-2.172-1.188-1.765 0-3.468 1.578-3.468 3.844C.563-1.453 2.171.14 3.858.14 5.33.14 6.08-1 6.172-1.125V.141L8.25 0v-.453c-1.016 0-1.172-.094-1.172-.922v-10.578Zm1.14 9.704c0 .515-.312.984-.718 1.328a2.231 2.231 0 0 1-1.5.593c-.484 0-2.281-.25-2.281-3.546 0-3.376 2-3.579 2.437-3.579.797 0 1.438.454 1.829 1.063.234.36.234.422.234.734Zm0 0"/><path id="d" d="M6.563-4.047c.062-.062.062-.11.062-.281 0-1.75-.922-3.281-2.89-3.281C1.905-7.61.468-5.875.468-3.75.469-1.516 2.094.14 3.922.14c1.937 0 2.687-1.828 2.687-2.187 0-.125-.093-.125-.14-.125-.11 0-.125.031-.203.25C5.89-.75 4.937-.172 4.046-.172c-.734 0-1.484-.406-1.952-1.172-.531-.875-.531-1.89-.531-2.703Zm-4.985-.266c.125-2.468 1.453-3.015 2.14-3.015 1.173 0 1.97 1.094 1.985 3.016Zm0 0"/><path id="e" d="M5.328-7.266c0-.312-.031-.328-.125-.328-.078 0-.094.016-.297.282-.047.062-.203.234-.25.296-.562-.578-1.328-.593-1.625-.593-1.906 0-2.594 1-2.594 2 0 1.546 1.75 1.906 2.25 2.015 1.079.219 1.47.281 1.829.594.218.203.593.594.593 1.203 0 .734-.406 1.656-2 1.656-1.484 0-2.03-1.14-2.328-2.656-.062-.234-.062-.25-.203-.25-.125 0-.14.016-.14.36v2.484c0 .312.015.328.109.328s.11-.016.187-.156c.11-.157.375-.578.47-.75.343.469.952.922 1.905.922 1.72 0 2.625-.938 2.625-2.282a2.01 2.01 0 0 0-.687-1.546c-.516-.532-1.125-.657-1.844-.797-.953-.204-2.156-.438-2.156-1.485 0-.453.25-1.406 1.984-1.406 1.844 0 1.938 1.734 1.985 2.281.015.078.093.094.156.094.156 0 .156-.047.156-.344Zm0 0"/><path id="f" d="M3.781 2.906c-1.094 0-1.156-.062-1.156-.734v-3.219C3.109-.328 3.844.141 4.75.141c1.719 0 3.469-1.516 3.469-3.86 0-2.172-1.5-3.828-3.281-3.828-1.032 0-1.875.578-2.36 1.266v-1.266l-2.047.188v.453c1.016 0 1.172.11 1.172.937v8.14c0 .657-.062.735-1.172.735v.453c.422-.03 1.172-.03 1.625-.03.438 0 1.219 0 1.625.03ZM2.625-5.406c0-.235 0-.61.656-1.235.094-.078.672-.593 1.547-.593 1.25 0 2.281 1.562 2.281 3.53 0 1.97-1.093 3.563-2.453 3.563-.625 0-1.297-.296-1.812-1.093-.219-.391-.219-.485-.219-.766Zm0 0"/><path id="g" d="M6.203-4.453c0-1.14 0-1.75-.734-2.422a2.921 2.921 0 0 0-1.953-.734c-1.36 0-2.344 1.062-2.344 2.203 0 .64.516.672.625.672.219 0 .61-.141.61-.625 0-.422-.329-.61-.61-.61a.922.922 0 0 0-.219.032c.375-1.094 1.297-1.391 1.906-1.391.86 0 1.797.75 1.797 2.203v.75c-1.015.031-2.234.172-3.203.688C1-3.079.688-2.22.688-1.563.688-.234 2.234.141 3.155.141c.938 0 1.813-.532 2.203-1.516.032.75.516 1.438 1.266 1.438.36 0 1.281-.235 1.281-1.594V-2.5h-.312v.984c0 1.047-.469 1.188-.688 1.188-.703 0-.703-.89-.703-1.656Zm-.922 2.062c0 1.5-1.062 2.25-2.015 2.25-.86 0-1.532-.64-1.532-1.421 0-.516.235-1.438 1.235-1.985.812-.469 1.765-.531 2.312-.562Zm0 0"/><path id="h" d="M6.016-6.031c-.329 0-.813 0-.813.61 0 .484.39.624.61.624.125 0 .625-.062.625-.656 0-1.234-1.172-2.156-2.5-2.156C2.125-7.61.562-5.922.562-3.72c0 2.297 1.625 3.86 3.375 3.86C6.079.14 6.61-1.844 6.61-2.031c0-.063-.015-.125-.14-.125-.11 0-.125.015-.203.25C5.812-.516 4.844-.172 4.094-.172 3-.172 1.672-1.188 1.672-3.734c0-2.625 1.266-3.563 2.281-3.563.672 0 1.672.328 2.063 1.266Zm0 0"/><path id="q" d="M3.406-5.531h2.766C8.39-5.531 10-6.97 10-8.61c0-1.641-1.578-3.157-3.828-3.157H.89v.454c1.187 0 1.375 0 1.375.78v9.313c0 .766-.188.766-1.375.766V0c.5-.031 1.421-.031 1.953-.031.531 0 1.437 0 1.937.031v-.453c-1.187 0-1.375 0-1.375-.766Zm-.031-.36v-4.75c0-.593.031-.671.719-.671h1.75c2.218 0 2.86 1.28 2.86 2.703 0 1.562-.767 2.718-2.86 2.718Zm0 0"/><path id="r" d="m2.64-11.953-2.062.187v.454c1.016 0 1.172.109 1.172.921v9.204c0 .656-.063.734-1.172.734V0C1-.031 1.75-.031 2.188-.031c.453 0 1.203 0 1.624.031v-.453c-1.109 0-1.171-.063-1.171-.734Zm0 0"/><path id="s" d="M7.14-5.234c0-.875-.171-2.313-2.202-2.313-1.36 0-2.063 1.063-2.313 1.75h-.031v-1.75l-2.031.188v.453c1.015 0 1.171.11 1.171.937v4.782c0 .656-.062.734-1.171.734V0c.421-.031 1.171-.031 1.625-.031.453 0 1.218 0 1.64.031v-.453c-1.11 0-1.172-.063-1.172-.734V-4.5c0-1.578.953-2.766 2.172-2.766 1.266 0 1.406 1.141 1.406 1.97v4.109c0 .656-.062.734-1.171.734V0c.406-.031 1.171-.031 1.625-.031.437 0 1.218 0 1.625.031v-.453c-1.094 0-1.172-.063-1.172-.734Zm0 0"/><path id="t" d="M.89-11.766v.454c1.188 0 1.376 0 1.376.78v9.313c0 .766-.188.766-1.375.766V0h5.921c2.204 0 3.641-1.563 3.641-3.14 0-1.547-1.406-2.876-3.25-2.985C8.843-6.453 10-7.563 10-8.875c0-1.422-1.406-2.89-3.625-2.89ZM3.36-6.25v-4.39c0-.594.03-.672.718-.672h2.203c1.703 0 2.469 1.374 2.469 2.437 0 1.313-1.047 2.625-2.906 2.625Zm.718 5.797c-.687 0-.719-.078-.719-.672v-4.844h3.188c1.766 0 2.625 1.563 2.625 2.813 0 1.265-.969 2.703-2.86 2.703Zm0 0"/><path id="u" d="M4.5-4.547c-.016-.031-.11-.14-.11-.187 0-.032 1.22-1.157 1.376-1.297.984-.828 1.609-.907 2.046-.922v-.453c-.093 0-.14 0-.156.015l-.843.016c-.47 0-1.22 0-1.688-.031v.453c.25.016.422.156.422.39 0 .344-.344.672-.36.672L2.579-3.516v-8.437l-2.047.187v.454c1.016 0 1.172.109 1.172.921v9.204c0 .656-.062.734-1.172.734V0c.422-.031 1.172-.031 1.61-.031.421 0 1.187 0 1.593.031v-.453c-1.093 0-1.171-.063-1.171-.734v-1.891L3.75-4.172 5.5-1.578c.203.297.375.547.375.766 0 .312-.313.359-.516.359V0c.407-.031 1.157-.031 1.579-.031.312 0 .953.015 1.234.031v-.453c-.797 0-.985-.156-1.516-.906Zm0 0"/><path id="i" d="M.61-9.797v.422h.296c1.031 0 1.078.14 1.078.672v7.61c0 .53-.046.671-1.078.671H.61V0h5.407c1.843 0 3.14-1.25 3.14-2.625 0-1.156-1.047-2.313-2.765-2.5 1.375-.25 2.359-1.172 2.359-2.25 0-1.234-1.25-2.422-3.125-2.422Zm2.453 4.563v-3.579c0-.468.03-.562.671-.562h1.797c1.438 0 1.953 1.234 1.953 2 0 .953-.75 2.14-2.328 2.14Zm.671 4.812c-.64 0-.671-.094-.671-.562v-3.97H5.75c1.375 0 2.094 1.204 2.094 2.313 0 1.157-.875 2.22-2.282 2.22Zm0 0"/><path id="j" d="M3.297-9.531c-.094-.266-.11-.266-.438-.266H.625v.422h.297c1.031 0 1.078.14 1.078.672v7.219C2-1.094 2-.422.625-.422V0C1-.031 1.765-.031 2.172-.031c.39 0 1.156 0 1.531.031v-.422c-1.36 0-1.36-.672-1.36-1.062v-7.829h.016L5.813-.265c.046.157.093.266.234.266.14 0 .156-.078.25-.281L9.78-9.375h.016v8.281c0 .532-.047.672-1.078.672h-.281V0c.328-.031 1.468-.031 1.89-.031.422 0 1.563 0 1.89.031v-.422h-.28c-1.032 0-1.079-.14-1.079-.672v-7.61c0-.53.047-.671 1.079-.671h.28v-.422H10c-.313 0-.328.016-.453.281L6.422-1.344Zm0 0"/><path id="k" d="M3.125-4.563h2.422c1.687 0 3.219-1.125 3.219-2.578 0-1.39-1.391-2.656-3.329-2.656H.61v.422h.282c1.03 0 1.078.14 1.078.672v7.61c0 .53-.047.671-1.078.671H.609V0c.344-.031 1.516-.031 1.922-.031.438 0 1.61 0 1.953.031v-.422h-.28c-1.032 0-1.079-.14-1.079-.672Zm-.031-.343v-3.907c0-.468.031-.562.672-.562h1.343c2.329 0 2.329 1.61 2.329 2.234 0 .594 0 2.235-2.344 2.235Zm0 0"/><path id="l" d="M2.984-5.984C2.25-6.172 1.61-6.891 1.61-7.797c0-1.016.797-1.906 1.922-1.906 2.344 0 2.672 2.312 2.75 2.937.032.172.032.22.172.22.156 0 .156-.063.156-.329v-2.89c0-.266 0-.329-.14-.329-.047 0-.094 0-.203.188l-.47.875c-.687-.89-1.64-1.063-2.265-1.063a2.72 2.72 0 0 0-2.75 2.735c0 .687.235 1.328.766 1.89.5.563 1 .688 2.031.953.5.11 1.281.313 1.485.407.671.328 1.125 1.093 1.125 1.906 0 1.062-.766 2.094-1.954 2.094-.656 0-1.53-.157-2.234-.782-.844-.75-.89-1.78-.906-2.25C1.078-3.25.969-3.25.937-3.25c-.156 0-.156.063-.156.328v2.89c0 .266 0 .329.14.329.079 0 .095-.031.204-.203.047-.11.36-.64.469-.86C2.109-.187 3.016.297 4.25.297c1.61 0 2.766-1.36 2.766-2.938 0-.875-.329-1.515-.72-2-.53-.64-1.171-.796-1.734-.937Zm0 0"/><path id="m" d="M3.11-8.703c0-.531.046-.672 1.124-.672h.313v-.422c-.344.031-1.578.031-2.016.031-.422 0-1.672 0-2.015-.03v.421h.312c1.078 0 1.125.14 1.125.672v7.61c0 .53-.047.671-1.125.671H.516V0C.859-.031 2.094-.031 2.53-.031c.422 0 1.672 0 2.016.031v-.422h-.313c-1.078 0-1.125-.14-1.125-.672Zm0 0"/><path id="n" d="M9.36-9.719H.765L.5-6.53h.313c.203-2.266.328-2.782 2.593-2.782.266 0 .672 0 .781.032.282.047.297.219.297.547v7.625c0 .5 0 .687-1.406.687h-.515V0c.468-.031 1.937-.031 2.5-.031.562 0 2.046 0 2.515.031v-.422h-.516c-1.406 0-1.406-.187-1.406-.687v-7.625c0-.36.032-.485.25-.547.125-.031.532-.031.813-.031 2.265 0 2.39.515 2.593 2.78h.313Zm0 0"/><path id="o" d="M8.172-3.297c0 2-1.36 3.188-2.703 3.188-.86 0-2.36-.579-2.36-3.094v-5.5c0-.531.047-.672 1.079-.672h.28v-.422c-.343.031-1.515.031-1.937.031-.422 0-1.594 0-1.937-.03v.421h.281c1.031 0 1.078.14 1.078.672v5.422C1.953-1.203 3.61.297 5.437.297c2 0 3.125-1.953 3.125-3.375V-8.5c0-.875 1.11-.875 1.36-.875v-.422c-.375.031-1.14.031-1.547.031-.422 0-1.188 0-1.563-.03v.421c1.36 0 1.36.672 1.36 1.063Zm0 0"/><path id="p" d="M5.547-9.984c-.047-.172-.078-.25-.281-.25-.204 0-.235.03-.297.265l-3 8.578c-.203.594-.61.954-1.532.97V0c.875-.031.907-.031 1.391-.031.39 0 1.078 0 1.453.031v-.422c-.594-.016-.953-.312-.953-.719 0-.078 0-.109.063-.296l.671-1.907h3.61l.781 2.25c.078.172.078.203.078.25 0 .422-.734.422-1.093.422V0c.328-.031 1.468-.031 1.875-.031.39 0 1.421 0 1.75.031v-.422c-.922 0-1.188 0-1.391-.578Zm-.688 1.453 1.672 4.765H3.203Zm0 0"/></defs><path fill="#DFDFDF" d="M55.469 198.941h39.683v-39.683h119.059V40.199h-39.688v39.688H55.47Zm0 0"/><path fill="none" stroke="#000" stroke-miterlimit="10" stroke-width=".399" d="M55.469 198.941H214.21M55.469 159.258H214.21M55.469 119.57H214.21M55.469 79.887H214.21M55.469 40.21H214.21M55.469 198.94V40.2m39.683 158.742V40.2m39.688 158.742V40.2m39.683 158.742V40.2M214.2 198.941V40.2M55.469 40.2H15.78v39.687H55.47"/><use xlink:href="#a" x="95.99" y="31.392"/><use xlink:href="#b" x="107.483" y="31.392"/><use xlink:href="#c" x="115.826" y="31.392"/><use xlink:href="#d" x="124.621" y="31.392"/><use xlink:href="#e" x="136.816" y="31.392"/><use xlink:href="#f" x="143.004" y="31.392"/><use xlink:href="#g" x="151.799" y="31.392"/><use xlink:href="#h" x="159.694" y="31.392"/><use xlink:href="#d" x="166.69" y="31.392"/><use xlink:href="#i" x="19.436" y="64.947"/><use xlink:href="#j" x="29.384" y="64.947"/><use xlink:href="#k" x="42.255" y="64.947"/><use xlink:href="#l" x="60.193" y="64.947"/><use xlink:href="#j" x="67.997" y="64.947"/><use xlink:href="#k" x="80.869" y="64.947"/><use xlink:href="#l" x="103.78" y="64.947"/><use xlink:href="#m" x="111.584" y="64.947"/><use xlink:href="#k" x="116.651" y="64.947"/><use xlink:href="#n" x="142.294" y="64.947"/><use xlink:href="#m" x="152.44" y="64.947"/><use xlink:href="#k" x="157.507" y="64.947"/><use xlink:href="#l" x="102.412" y="184.002"/><use xlink:href="#l" x="110.216" y="184.002"/><use xlink:href="#k" x="118.021" y="184.002"/><use xlink:href="#k" x="139.37" y="184.002"/><use xlink:href="#o" x="148.927" y="184.002"/><use xlink:href="#p" x="159.458" y="184.002"/><use xlink:href="#k" x="179.055" y="184.002"/><use xlink:href="#o" x="188.612" y="184.002"/><use xlink:href="#p" x="199.143" y="184.002"/><path fill="none" stroke="#000" stroke-miterlimit="10" stroke-width=".399" d="M166.457 46.91c9.484-16.426 93.106-16.426 104.445 3.211"/><path stroke="#000" stroke-miterlimit="10" stroke-width=".39899202" d="m164.887 49.629 3.738-3.066-2.219.433-.734-2.137Zm0 0"/><use xlink:href="#q" x="251.501" y="67.541"/><use xlink:href="#r" x="262.316" y="67.541"/><use xlink:href="#g" x="266.613" y="67.541"/><use xlink:href="#s" x="274.508" y="67.541"/><use xlink:href="#d" x="283.303" y="67.541"/><path fill="none" stroke="#000" stroke-miterlimit="10" stroke-width=".399" d="M242.555 74.219h56.695v56.691h-56.695ZM270.902 74.219v56.691M299.25 102.563h-56.695"/><path fill="none" stroke="#000" stroke-miterlimit="10" stroke-width=".399" d="M254.875 127.035c-2.398 4.153-6.648 14.555-3.816 19.465"/><path stroke="#000" stroke-miterlimit="10" stroke-width=".39899202" d="m256.445 124.316-3.738 3.067 2.219-.434.73 2.14Zm0 0"/><use xlink:href="#t" x="231.658" y="163.919"/><use xlink:href="#r" x="242.922" y="163.919"/><use xlink:href="#b" x="247.219" y="163.919"/><use xlink:href="#h" x="255.562" y="163.919"/><use xlink:href="#u" x="262.11" y="163.919"/></svg>