<svg xmlns="http://www.w3.org/2000/svg" xmlns:xlink="http://www.w3.org/1999/xlink" width="258.536" height="163.395"><defs><path id="a" d="M7.797-8.14c0-.22 0-.282-.125-.282-.063 0-.078.031-.156.156l-.579.938C6.391-8 5.579-8.422 4.72-8.422 2.53-8.422.64-6.532.64-4.094.64-1.609 2.562.25 4.719.25c1.968 0 3.078-1.703 3.078-3.016 0-.14 0-.203-.14-.203-.11 0-.126.047-.126.14-.11 1.892-1.5 2.735-2.656 2.735-.828 0-3.125-.5-3.125-4 0-3.453 2.25-3.968 3.11-3.968C6.124-8.063 7.218-7 7.452-5.22c.031.157.031.188.172.188.172 0 .172-.032.172-.282Zm0 0"/><path id="b" d="M5.484-2.563c0-1.53-1.171-2.765-2.562-2.765C1.5-5.328.359-4.062.359-2.562.36-1.032 1.547.124 2.922.124c1.406 0 2.562-1.172 2.562-2.688ZM2.922-.14c-.438 0-.969-.187-1.313-.78-.328-.532-.343-1.235-.343-1.75 0-.454 0-1.173.375-1.72.328-.515.859-.703 1.28-.703.454 0 .97.219 1.282.688.375.547.375 1.297.375 1.734 0 .422 0 1.172-.312 1.735-.329.562-.891.796-1.344.796Zm0 0"/><path id="c" d="M3.578-8.156v.344c.828 0 .922.078.922.671V-4.5A1.829 1.829 0 0 0 3-5.266C1.61-5.266.422-4.094.422-2.562.422-1.048 1.547.124 2.875.124c.906 0 1.422-.61 1.594-.828v.828L6.156 0v-.344c-.812 0-.906-.094-.906-.672v-7.28Zm.89 6.75c0 .218 0 .265-.171.515-.281.422-.766.766-1.375.766-.297 0-1.594-.11-1.594-2.438 0-.859.14-1.328.406-1.734.235-.36.72-.734 1.313-.734.75 0 1.156.531 1.281.734.14.203.14.219.14.438Zm0 0"/><path id="d" d="M4.578-2.766c.266 0 .281 0 .281-.234 0-1.203-.64-2.328-2.093-2.328-1.36 0-2.407 1.234-2.407 2.703 0 1.578 1.22 2.75 2.547 2.75 1.422 0 1.953-1.297 1.953-1.547 0-.078-.046-.125-.125-.125-.093 0-.125.063-.14.125-.313 1-1.11 1.281-1.625 1.281-.5 0-1.703-.343-1.703-2.406v-.219ZM1.281-3c.094-1.875 1.14-2.094 1.485-2.094 1.28 0 1.343 1.688 1.359 2.094Zm0 0"/><path id="e" d="M3.922-5.063c0-.203 0-.265-.125-.265-.094 0-.313.266-.406.375-.36-.313-.735-.375-1.125-.375C.828-5.328.39-4.547.39-3.891c0 .141 0 .563.453.97.39.343.797.421 1.344.53.656.125.812.172 1.109.407a.97.97 0 0 1 .375.78c0 .516-.297 1.079-1.36 1.079-.78 0-1.359-.453-1.624-1.64C.64-1.986.64-2 .64-2.016c-.032-.047-.079-.047-.11-.047-.14 0-.14.062-.14.28v1.626c0 .218 0 .281.125.281.062 0 .062-.016.265-.266.063-.093.063-.109.25-.296.453.562 1.094.562 1.297.562 1.25 0 1.875-.703 1.875-1.64 0-.641-.39-1.032-.5-1.141-.422-.375-.75-.438-1.547-.578-.344-.079-1.219-.25-1.219-.97 0-.359.25-.905 1.329-.905C3.562-5.11 3.64-4 3.656-3.641c.016.11.094.11.14.11.126 0 .126-.063.126-.281Zm0 0"/><path id="f" d="M2.922 1.969c-.766 0-.906 0-.906-.532V-.64c.218.297.703.766 1.468.766 1.375 0 2.594-1.172 2.594-2.703 0-1.516-1.125-2.688-2.437-2.688-1.047 0-1.61.75-1.641.797v-.797L.328-5.14v.344c.844 0 .922.094.922.61v5.625c0 .53-.14.53-.922.53v.345c.313-.016.969-.016 1.297-.016.344 0 1 0 1.297.015Zm-.906-5.782c0-.234 0-.234.14-.437.36-.531.938-.766 1.39-.766.907 0 1.61 1.094 1.61 2.438 0 1.422-.812 2.453-1.718 2.453a1.49 1.49 0 0 1-.97-.375c-.265-.281-.452-.516-.452-.844Zm0 0"/><path id="g" d="M4.61-3.188c0-.656 0-1.124-.516-1.593a2.242 2.242 0 0 0-1.485-.547c-.984 0-1.734.64-1.734 1.422 0 .344.219.515.5.515s.484-.203.484-.5c0-.484-.421-.484-.609-.484.281-.5.86-.719 1.328-.719.547 0 1.266.453 1.266 1.532v.484C1.438-3.047.53-2.047.53-1.125c0 .953 1.094 1.25 1.828 1.25.782 0 1.329-.484 1.547-1.063.047.563.422 1 .938 1 .25 0 .937-.171.937-1.125v-.671h-.265v.671c0 .688-.282.782-.454.782-.453 0-.453-.64-.453-.813Zm-.766 1.5c0 1.172-.875 1.563-1.39 1.563-.595 0-1.079-.422-1.079-1 0-1.578 2.031-1.719 2.469-1.75Zm0 0"/><path id="h" d="M4.328-4.422c-.14 0-.594 0-.594.484 0 .297.204.5.5.5.266 0 .5-.171.5-.515 0-.797-.843-1.375-1.812-1.375-1.39 0-2.5 1.234-2.5 2.75 0 1.531 1.14 2.703 2.5 2.703 1.578 0 1.937-1.438 1.937-1.547 0-.11-.093-.11-.125-.11-.109 0-.125.032-.156.188C4.312-.5 3.672-.14 3.031-.14c-.734 0-1.703-.64-1.703-2.453 0-1.984 1.016-2.469 1.61-2.469.453 0 1.109.172 1.39.641Zm0 0"/><path id="i" d="M.516-8.156v.344H.75c.86 0 .906.109.906.562v6.344c0 .437-.047.562-.906.562H.516V0h4.5c1.53 0 2.609-1.047 2.609-2.188 0-.968-.875-1.921-2.297-2.078 1.14-.218 1.969-.984 1.969-1.875 0-1.03-1.047-2.015-2.61-2.015ZM2.562-4.36v-2.985c0-.39.016-.468.547-.468h1.5c1.204 0 1.625 1.015 1.625 1.671 0 .782-.609 1.782-1.937 1.782ZM3.11-.344c-.53 0-.546-.094-.546-.484v-3.297h2.234c1.14 0 1.734 1 1.734 1.922 0 .969-.718 1.86-1.89 1.86Zm0 0"/><path id="j" d="M2.75-7.938c-.078-.218-.094-.218-.375-.218H.531v.344h.235c.859 0 .89.109.89.562v6.016c0 .328 0 .89-1.125.89V0c.313-.031.938-.031 1.281-.031.329 0 .954 0 1.266.031v-.344c-1.125 0-1.125-.562-1.125-.89V-7.75l2.89 7.516c.048.14.079.234.204.234.11 0 .125-.063.203-.234l2.906-7.579v6.907c0 .437-.031.562-.89.562H7.03V0c.266-.031 1.235-.031 1.578-.031.344 0 1.297 0 1.579.031v-.344h-.25c-.86 0-.891-.125-.891-.562V-7.25c0-.453.031-.563.89-.563h.25v-.343H8.329c-.265 0-.265 0-.375.234L5.36-1.125Zm0 0"/><path id="k" d="M2.61-3.797h2.015c1.406 0 2.672-.953 2.672-2.156 0-1.156-1.156-2.203-2.766-2.203H.5v.344h.234c.875 0 .907.109.907.562v6.344c0 .437-.032.562-.907.562H.5V0c.281-.031 1.266-.031 1.61-.031.359 0 1.343 0 1.624.031v-.344H3.5c-.86 0-.89-.125-.89-.562Zm-.032-.297v-3.25c0-.39.031-.468.547-.468H4.25c1.938 0 1.938 1.343 1.938 1.859 0 .5 0 1.86-1.938 1.86Zm0 0"/><path id="l" d="M2.484-4.984c-.609-.157-1.14-.75-1.14-1.516a1.59 1.59 0 0 1 1.593-1.594c1.97 0 2.22 1.938 2.297 2.453.032.141.032.188.141.188.14 0 .14-.063.14-.266V-8.14c0-.218 0-.28-.124-.28-.032 0-.079 0-.172.155l-.39.735c-.579-.735-1.36-.89-1.891-.89A2.29 2.29 0 0 0 .64-6.126c0 .563.203 1.094.656 1.578.406.453.828.563 1.672.781.422.094 1.078.266 1.25.329.562.28.937.921.937 1.593 0 .907-.64 1.75-1.625 1.75-.547 0-1.281-.14-1.875-.64C.97-1.36.922-2.22.906-2.625c-.015-.094-.11-.094-.125-.094-.14 0-.14.063-.14.281V-.03C.64.187.64.25.766.25.844.25.844.234.937.078c.047-.094.297-.531.391-.719.422.485 1.188.891 2.203.891 1.344 0 2.313-1.14 2.313-2.453 0-.719-.282-1.266-.594-1.656-.438-.547-.984-.672-1.453-.797Zm0 0"/><path id="m" d="M2.594-7.25c0-.453.031-.563.937-.563h.266v-.343c-.297.015-1.328.015-1.688.015-.359 0-1.39 0-1.671-.015v.344h.25c.906 0 .937.109.937.562v6.344c0 .437-.031.562-.938.562h-.25V0C.72-.031 1.75-.031 2.11-.031c.36 0 1.391 0 1.688.031v-.344H3.53c-.906 0-.937-.125-.937-.562Zm0 0"/><path id="n" d="M7.813-8.11H.64L.42-5.437h.267C.844-7.327.953-7.75 2.844-7.75c.219 0 .547 0 .64.016.25.03.25.187.25.453v6.36c0 .405 0 .577-1.171.577H2.14V0c.375-.031 1.609-.031 2.078-.031.468 0 1.703 0 2.093.031v-.344h-.437c-1.172 0-1.172-.172-1.172-.578v-6.36c0-.296.031-.405.219-.452.094-.016.437-.016.672-.016 1.89 0 2 .422 2.156 2.313h.266Zm0 0"/><path id="o" d="M6.813-2.75c0 1.672-1.141 2.656-2.266 2.656-.703 0-1.953-.484-1.953-2.578V-7.25c0-.453.031-.563.89-.563h.25v-.343c-.296.015-1.265.015-1.625.015-.359 0-1.328 0-1.625-.015v.344h.25c.86 0 .891.109.891.562v4.516C1.625-1 3.015.25 4.531.25c1.657 0 2.61-1.625 2.61-2.813v-4.53c0-.72.921-.72 1.125-.72v-.343c-.313.015-.954.015-1.282.015-.343 0-1 0-1.312-.015v.344c1.14 0 1.14.562 1.14.875Zm0 0"/><path id="p" d="M4.625-8.313c-.047-.156-.078-.218-.234-.218-.172 0-.188.031-.25.219l-2.5 7.156c-.172.484-.5.797-1.266.812V0c.719-.031.75-.031 1.14-.031.344 0 .907 0 1.22.031v-.344c-.5-.015-.797-.265-.797-.594 0-.078 0-.109.062-.25l.547-1.593h3.015L6.22-.906c.062.14.062.172.062.203 0 .36-.61.36-.922.36V0c.282-.031 1.235-.031 1.563-.031.328 0 1.187 0 1.469.031v-.344c-.782 0-.985 0-1.157-.5Zm-.578 1.204 1.39 3.984H2.672Zm0 0"/><path id="q" d="m2.063-8.297-1.672.14v.345c.812 0 .906.078.906.671v6.25c0 .547-.125.547-.906.547V0c.343-.031.921-.031 1.28-.031.36 0 .954 0 1.298.031v-.344c-.766 0-.906 0-.906-.547Zm0 0"/><path id="r" d="M5.313-2.906c0-1.11 0-1.438-.266-1.828-.344-.47-.906-.532-1.313-.532-1.171 0-1.625.985-1.718 1.22v-1.22L.375-5.14v.344c.813 0 .922.094.922.672v3.234c0 .547-.14.547-.922.547V0c.313-.031.969-.031 1.297-.031.344 0 1 0 1.297.031v-.344c-.75 0-.906 0-.906-.547v-2.218c0-1.25.828-1.922 1.578-1.922.734 0 .906.61.906 1.343V-.89c0 .547-.14.547-.906.547V0c.296-.031.953-.031 1.28-.031.345 0 1 0 1.313.031v-.344c-.609 0-.906 0-.921-.36Zm0 0"/><path id="s" d="m3.344-3.172-.078-.11c0-.046.75-.687.843-.78.829-.72 1.36-.735 1.61-.75v-.344c-.25.031-.563.031-.907.031-.312 0-.921 0-1.203-.031v.343c.204.016.344.125.344.313 0 .25-.234.453-.25.453L2-2.53v-5.766l-1.672.14v.345c.813 0 .922.078.922.671v6.25c0 .547-.14.547-.922.547V0c.344-.031.922-.031 1.281-.031.344 0 .922 0 1.266.031v-.344c-.766 0-.922 0-.922-.547v-1.265l.766-.672 1.156 1.656c.172.25.266.39.266.547 0 .219-.172.281-.422.281V0c.297-.031.89-.031 1.203-.031.516 0 .547 0 1.047.031v-.344c-.313 0-.688 0-1.016-.5Zm0 0"/></defs><path fill="#DFDFDF" d="M45.738 149.023h28.348v-28.347h85.039v-85.04h-28.348v28.348H45.738Zm0 0"/><path fill="none" stroke="#000" stroke-miterlimit="10" stroke-width=".399" d="M45.738 149.023h113.387M45.738 120.676h113.387M45.738 92.328h113.387M45.738 63.984h113.387M45.738 35.637h113.387M45.738 149.023V35.637m28.348 113.386V35.637m28.344 113.386V35.637m28.347 113.386V35.637m28.348 113.386V35.637M45.738 35.637H17.391v28.347h28.347"/><use xlink:href="#a" x="42.44" y="26.377"/><use xlink:href="#b" x="50.895" y="26.377"/><use xlink:href="#c" x="57.071" y="26.377"/><use xlink:href="#d" x="63.574" y="26.377"/><use xlink:href="#e" x="72.687" y="26.377"/><use xlink:href="#f" x="77.304" y="26.377"/><use xlink:href="#g" x="83.807" y="26.377"/><use xlink:href="#h" x="89.649" y="26.377"/><use xlink:href="#d" x="94.852" y="26.377"/><use xlink:href="#i" x="18.075" y="53.895"/><use xlink:href="#j" x="26.365" y="53.895"/><use xlink:href="#k" x="37.091" y="53.895"/><use xlink:href="#l" x="47.314" y="53.895"/><use xlink:href="#j" x="53.818" y="53.895"/><use xlink:href="#k" x="64.544" y="53.895"/><use xlink:href="#l" x="78.912" y="53.895"/><use xlink:href="#m" x="85.416" y="53.895"/><use xlink:href="#k" x="89.638" y="53.895"/><use xlink:href="#n" x="106.283" y="53.895"/><use xlink:href="#m" x="114.738" y="53.895"/><use xlink:href="#k" x="118.96" y="53.895"/><use xlink:href="#l" x="77.772" y="138.934"/><use xlink:href="#l" x="84.276" y="138.934"/><use xlink:href="#k" x="90.779" y="138.934"/><use xlink:href="#k" x="103.847" y="138.934"/><use xlink:href="#o" x="111.812" y="138.934"/><use xlink:href="#p" x="120.587" y="138.934"/><use xlink:href="#k" x="132.193" y="138.934"/><use xlink:href="#o" x="140.158" y="138.934"/><use xlink:href="#p" x="148.933" y="138.934"/><path fill="none" stroke="#000" stroke-miterlimit="10" stroke-width=".399" d="M125.34 40.91c11.11-19.246 73.472-19.246 84.808.395"/><path fill="none" stroke="#000" stroke-linecap="round" stroke-linejoin="round" stroke-miterlimit="10" stroke-width=".31899362" d="M127.316 40.668c-.566-.211-1.89.289-2.129.5.067-.309-.164-1.707-.632-2.094"/><use xlink:href="#k" x="195.76" y="53.709"/><use xlink:href="#q" x="203.725" y="53.709"/><use xlink:href="#g" x="206.976" y="53.709"/><use xlink:href="#r" x="212.83" y="53.709"/><use xlink:href="#d" x="219.333" y="53.709"/><path fill="none" stroke="#000" stroke-miterlimit="10" stroke-width=".399" d="M198.813 56.895h45.351v45.355h-45.351ZM221.488 56.895v45.355M244.164 79.574h-45.351"/><path fill="none" stroke="#000" stroke-miterlimit="10" stroke-width=".399" d="M204.25 98.395c-4.023 6.968-8.273 17.37-5.438 22.28"/><path fill="none" stroke="#000" stroke-linecap="round" stroke-linejoin="round" stroke-miterlimit="10" stroke-width=".31899362" d="M202.273 98.633c.567.215 1.891-.285 2.13-.496-.067.308.163 1.707.632 2.09"/><use xlink:href="#i" x="184.421" y="133.079"/><use xlink:href="#q" x="192.711" y="133.079"/><use xlink:href="#b" x="195.963" y="133.079"/><use xlink:href="#h" x="202.139" y="133.079"/><use xlink:href="#s" x="207.019" y="133.079"/></svg>