<svg xmlns="http://www.w3.org/2000/svg" xmlns:xlink="http://www.w3.org/1999/xlink" width="316.763" height="137.816"><defs><path id="a" d="M6.313-4.172H3.25c-.297 0-.797-.61-1.016-.61-.093 0-.093.157-.093.235V1.72c0 .187.046.437.28.437.579 0 .548-.781.548-1.172h7.984c-.015.235-.14 1.172.281 1.172.391 0 .532-.36.532-.703V-3.25c0-.281.437-.313.437-.547 0-.156-.875-.86-1.031-.86-.25 0-.375.485-.656.485H7.109v-3.766h5.235c.11 0 .344 0 .344-.156 0-.219-.813-.86-1-.86-.282 0-.422.688-.813.688H7.109v-1.812c0-.313.422-.36.422-.531 0-.25-.828-.422-1.031-.422-.172 0-.188.094-.188.234Zm4.64.328V.672H2.97v-4.516Zm0 0"/><path id="b" d="M7.422-7.797c-.11-.594-1.297-.812-1.781-.969.187-.187.875-.968.875-1.203 0-.39-1.532-.937-1.875-.937-.079 0-.282.015-.282.125 0 .234.782.453.782.89 0 .922-2.672 2.688-3.454 3.204-.015.015-.093.078-.093.109 0 .094.031.11.125.11.765 0 3.234-1.47 3.656-2.048.313.266 1.266 1.032 1.594 1.125-.266.235-2.266 1.657-2.266 1.75 0 .079.047.094.14.094.485 0 2.095-.89 2.548-1.203.484-.313.921-.688 1.343-1.063.172-.156.454-.343.594-.546.469.312 2.64 1.937 3.094 1.937.234 0 .406-.078.406-.344 0-.859-1.687-1.14-2.281-1.406-.297-.14-.625-.437-.906-.515.171-.204.937-1.11.937-1.313 0-.438-1.61-.984-2-.984-.062 0-.25.015-.25.125 0 .25.781.53.781.937 0 .578-1.265 1.703-1.687 2.125Zm0 0"/><path id="c" d="M6.953-4.656c-.516 0-1.047.031-1.578.031h-2.64c-.594 0-1.204-.188-1.797-.188-.079 0-.204.016-.204.11 0 .422 1.422.89 1.782.89.406 0 .796-.109 1.187-.187.906-.172 1.922-.172 2.828-.172h3.344c1.063 0 2.125.11 3.203.11.25 0 .735 0 .735-.36 0-.516-1-.531-1.376-.531-.765 0-1.468.172-2.218.219-.766.062-1.547.046-2.313.078v-1.266c0-.14.032-.297.032-.422 0-.468-.985-.453-1.297-.453-.11 0-.547-.016-.547.156 0 .344.86.11.86.907Zm0 0"/><path id="d" d="M10.031-2.016c0 .672-.078 3.954.219 4.188.031.031.047.031.078.031.547 0 .64-2.187.656-2.515C11-.734 11-1.156 11-1.563c0-.282.188-.547.188-.829 0-.218-.454-.25-.61-.25-.422 0-.828.063-1.25.11-.156.015-.328.015-.484.015-.688.016-1.36.063-2.047.063-1.063-.016-2.094-.031-3.156-.11-.079 0-.344-.015-.344.11 0 .312 1.344.797 1.64.797.266 0 .5-.14.75-.203.297-.079.61-.079.907-.094C7.734-2 8.89-1.97 10.03-2.016Zm0 0"/><path id="e" d="M5.266-8.984c.078-.11.187-.266.187-.391 0-.219-.61-.406-.781-.406a.294.294 0 0 0-.125.031l-.031.063c.015.14.25.265.25.453 0 .093-.079.187-.172.234C3.297-8.812 2-8.219 2-6.703 2-5.297 3.344-4.36 4.672-4.36s2.89-.797 2.89-2.297c0-1.016-.406-1.657-1.343-2.063-.282-.125-.64-.25-.953-.265ZM2.937-6.797c0-.984.922-1.64 1.844-1.64.985 0 1.844.703 1.844 1.703 0 1.062-.828 1.687-1.844 1.687-.953 0-1.843-.75-1.843-1.75Zm0 0"/><path id="g" d="m11.203-1.797-3.953.031v-.671c0-.079.016-.172.016-.235.046-.469-1.079-.531-1.391-.531-.125 0-.656-.016-.656.187 0 .235 1.078.344 1.078.891v2.64c0 .25-.063 1.688.344 1.688.421 0 .546-.906.609-.953.125-.094 2.547-.063 2.89-.063h.922c.11 0 .157.016.157.141 0 .172-.016.781.265.781.844 0 .641-2.656.657-4.78 0-.157.046-.329.062-.47.047-.375-1.437-.64-1.734-.64-.094 0-.344 0-.344.156 0 .14.875.531 1 .781.078.14.078.516.078.672Zm0 .531V.672L7.25.703v-1.937Zm0 0"/><path id="f" d="M10.188-11.328c-.094 0-.297.047-.297.14 0 .47 1.421.547 1.421 1.5v4.704c0 .25.047 1.078.188 1.265l.078.031c.547 0 .688-1.703.688-2.109l.015-3.594c0-.39.047-.734.078-1.109.063-.484-1.812-.828-2.171-.828ZM8.983-8.297a3.565 3.565 0 0 1-.421.031H7.28c-.125 0-.25-.03-.39-.03-.032 0-.094.03-.094.093 0 .25.719.562.937.562.172 0 .375-.109.547-.14.219-.047.485-.016.703-.032v2.36c-.359 0-.703.016-1.078.016-.312 0-.64-.063-.968-.063-.063 0-.125.031-.125.094 0 .234.687.578.921.578.25 0 .532-.156.86-.156h.39c0 .234-.015 1.062.188 1.25l.062.03c.032 0 .063 0 .094-.015.485-.187.64-1.344.64-1.812v-3.61c0-.203.048-.421.048-.625.062-.609-1.454-.843-1.891-.843-.14 0-.328.015-.328.187 0 .125.875.594 1.016.75.171.203.187.672.171.922Zm0 0"/><path id="h" d="M9.156-3.672h-.328c-.344 2.235-.687 3.25-3.11 3.25H3.767c-.625 0-.657-.094-.657-.562V-4.86h1.313c1.375 0 1.531.437 1.531 1.671h.313v-3.765h-.313c0 1.234-.156 1.672-1.531 1.672H3.109v-3.5c0-.469.032-.578.657-.578h1.921c2.094 0 2.547.718 2.766 2.796h.313L8.39-9.765H.594v.407h.281c1.031 0 1.078.156 1.078.687v7.578c0 .532-.047.672-1.078.672H.594V0h7.984Zm0 0"/><path id="i" d="M8.172-3.297c0 2-1.36 3.188-2.703 3.188-.86 0-2.36-.579-2.36-3.094v-5.5c0-.531.047-.672 1.079-.672h.28v-.422c-.343.031-1.515.031-1.937.031-.422 0-1.594 0-1.937-.03v.421h.281c1.031 0 1.078.14 1.078.672v5.422C1.953-1.203 3.61.297 5.437.297c2 0 3.125-1.953 3.125-3.375V-8.5c0-.875 1.11-.875 1.36-.875v-.422c-.375.031-1.14.031-1.547.031-.422 0-1.188 0-1.563-.03v.421c1.36 0 1.36.672 1.36 1.063Zm0 0"/><path id="j" d="M9.36-9.766c0-.265 0-.328-.157-.328-.078 0-.094.031-.187.172l-.704 1.125c-.64-.797-1.609-1.297-2.64-1.297-2.625 0-4.89 2.266-4.89 5.188 0 2.968 2.28 5.203 4.89 5.203 2.344 0 3.687-2.047 3.687-3.625 0-.156 0-.25-.171-.25-.141 0-.157.078-.157.172C8.906-1.125 7.25-.11 5.86-.11c-1.015 0-3.75-.61-3.75-4.797 0-4.14 2.704-4.782 3.735-4.782 1.5 0 2.812 1.282 3.11 3.438.03.172.03.219.202.219.203 0 .203-.047.203-.344Zm0 0"/><path id="k" d="M3.89-2.719v-.765H.157v.765Zm0 0"/><path id="l" d="M5.61-6.016c.218-.218.78-.75 1-.968C8.593-8.954 9-9.36 10.124-9.375v-.422c-.422.031-.594.031-1.234.031-.375 0-1.22 0-1.547-.03v.421c.297.016.562.14.562.453 0 .219-.11.344-.422.64L3.11-4.046v-4.625c0-.703.157-.703 1.36-.703v-.422c-.344.031-1.516.031-1.938.031-.422 0-1.594 0-1.937-.03v.421c1.203 0 1.36 0 1.36.703v7.547c0 .703-.157.703-1.36.703V0C.938-.031 2.109-.031 2.53-.031c.422 0 1.594 0 1.938.031v-.422c-1.203 0-1.36 0-1.36-.703v-2.484l1.704-1.657 2.656 3.97c.062.093.125.187.14.265a.454.454 0 0 1 .047.218c0 .391-.515.391-.75.391V0c.36-.031 1.407-.031 1.813-.031.375 0 1.094 0 1.594.031v-.422c-.782 0-1.016-.062-1.485-.75Zm0 0"/><path id="m" d="M6.047-4.875c1.422-.328 2.531-1.234 2.531-2.344 0-1.39-1.625-2.578-3.687-2.578H.609v.422h.282c1.03 0 1.078.14 1.078.672v7.61c0 .53-.047.671-1.078.671H.609V0c.329-.031 1.5-.031 1.922-.031.406 0 1.594 0 1.922.031v-.422h-.281c-1.031 0-1.078-.14-1.078-.672v-3.672h1.672c.562 0 1.093.157 1.468.563.5.547.5.844.5 1.844 0 1.125 0 1.5.625 2.109.22.219.813.547 1.625.547 1.11 0 1.297-1.25 1.297-1.547 0-.078 0-.219-.156-.219-.14 0-.14.094-.156.235-.078.859-.485 1.25-.953 1.25-.657 0-.797-.672-.907-1.438C8.094-1.516 8-2.14 7.953-2.5c-.094-.719-.156-1.172-.578-1.61-.156-.171-.531-.546-1.328-.765Zm-1.344-.172h-1.61v-3.766c0-.328 0-.5.313-.546.125-.016.547-.016.844-.016 1.156 0 3 0 3 2.156 0 1.25-.688 2.172-2.547 2.172Zm0 0"/><path id="r" d="M9.36-9.719H.765L.5-6.53h.313c.203-2.266.328-2.782 2.593-2.782.266 0 .672 0 .781.032.282.047.297.219.297.547v7.625c0 .5 0 .687-1.406.687h-.515V0c.468-.031 1.937-.031 2.5-.031.562 0 2.046 0 2.515.031v-.422h-.516c-1.406 0-1.406-.187-1.406-.687v-7.625c0-.36.032-.485.25-.547.125-.031.532-.031.813-.031 2.265 0 2.39.515 2.593 2.78h.313Zm0 0"/><path id="s" d="M8.188-9.766H.593v.407h.281c1.031 0 1.078.156 1.078.687v7.578c0 .532-.047.672-1.078.672H.594V0c.344-.031 1.61-.031 2.047-.031.5 0 1.765 0 2.171.031v-.422h-.421c-1.25 0-1.282-.172-1.282-.687v-3.563h1.266c1.344 0 1.484.469 1.484 1.672h.329v-3.766h-.329c0 1.204-.14 1.672-1.484 1.672H3.109V-8.78c0-.469.032-.578.657-.578h1.796c2.063 0 2.485.765 2.688 2.796h.313Zm0 0"/><path id="t" d="M4.281-5.172c.703-.39 1.75-1.047 1.75-2.266 0-1.234-1.203-2.093-2.515-2.093-1.422 0-2.547 1.047-2.547 2.344 0 .484.156.984.547 1.468.156.188.171.203 1.187.907-1.39.64-2.11 1.593-2.11 2.64C.594-.64 2.032.297 3.5.297c1.594 0 2.922-1.172 2.922-2.672 0-1.469-1.031-2.11-2.14-2.797ZM2.328-6.469c-.187-.125-.765-.5-.765-1.203 0-.937.968-1.516 1.937-1.516 1.031 0 1.953.735 1.953 1.766 0 .875-.64 1.578-1.469 2.047ZM3-4.625l1.734 1.14c.375.25 1.032.688 1.032 1.563 0 1.094-1.11 1.828-2.25 1.828-1.22 0-2.266-.875-2.266-2.078 0-1.11.813-2.015 1.75-2.453Zm0 0"/><path id="u" d="M4.656 3.484c0-.046 0-.078-.234-.312-1.438-1.453-2.234-3.813-2.234-6.75 0-2.781.671-5.172 2.328-6.86.14-.14.14-.156.14-.203 0-.093-.062-.109-.125-.109-.187 0-1.36 1.031-2.062 2.438-.735 1.437-1.063 2.984-1.063 4.734 0 1.281.203 2.984.953 4.531.844 1.719 2.016 2.64 2.172 2.64.063 0 .125-.015.125-.109Zm0 0"/><path id="v" d="M5.5-3.328c.313 0 .344 0 .344-.266 0-1.453-.782-2.797-2.516-2.797-1.64 0-2.89 1.47-2.89 3.25C.438-1.25 1.89.141 3.483.141c1.704 0 2.36-1.547 2.36-1.844 0-.094-.078-.14-.157-.14-.125 0-.156.062-.171.14C5.14-.5 4.172-.172 3.578-.172c-.61 0-2.062-.406-2.062-2.89v-.266Zm-3.969-.266c.125-2.265 1.375-2.515 1.782-2.515 1.53 0 1.624 2.015 1.64 2.515Zm0 0"/><path id="w" d="M3.516 2.36c-.922 0-1.094 0-1.094-.641v-2.5c.265.36.844.922 1.765.922 1.657 0 3.094-1.391 3.094-3.235 0-1.828-1.343-3.234-2.906-3.234-1.266 0-1.938.906-1.984.969v-.97l-1.985.157v.422c1 0 1.078.094 1.078.734V1.72c0 .64-.156.64-1.078.64v.422c.375-.031 1.14-.031 1.547-.031.406 0 1.188 0 1.563.031ZM2.422-4.579c0-.266 0-.281.156-.516.438-.64 1.14-.922 1.688-.922 1.062 0 1.937 1.313 1.937 2.922C6.203-1.39 5.22-.14 4.11-.14c-.437 0-.859-.187-1.14-.468-.328-.329-.547-.61-.547-1.016Zm0 0"/><path id="x" d="m2.469-9.953-2 .156v.422c.984 0 1.094.094 1.094.797v7.515c0 .641-.157.641-1.094.641V0c.406-.031 1.11-.031 1.547-.031.421 0 1.14 0 1.546.031v-.422c-.921 0-1.093 0-1.093-.64Zm0 0"/><path id="y" d="M5.531-3.828c0-.781 0-1.344-.625-1.906-.5-.47-1.14-.657-1.781-.657-1.172 0-2.078.766-2.078 1.704 0 .406.266.609.61.609.343 0 .577-.234.577-.578 0-.594-.515-.594-.734-.594.344-.61 1.031-.86 1.594-.86.672 0 1.515.548 1.515 1.829v.578C1.72-3.656.625-2.453.625-1.343.625-.22 1.953.14 2.828.14c.938 0 1.594-.579 1.86-1.266.062.688.5 1.203 1.125 1.203.296 0 1.125-.203 1.125-1.36v-.796h-.313v.797c0 .828-.344.937-.547.937-.547 0-.547-.765-.547-.969ZM4.61-2.016C4.61-.609 3.563-.14 2.938-.14c-.704 0-1.282-.515-1.282-1.203 0-1.89 2.438-2.062 2.953-2.093Zm0 0"/><path id="z" d="M5.188-5.313c-.172 0-.704 0-.704.594 0 .344.25.594.594.594.328 0 .61-.203.61-.625 0-.953-1.016-1.64-2.172-1.64C1.844-6.39.5-4.907.5-3.095.5-1.266 1.875.141 3.5.141c1.89 0 2.328-1.72 2.328-1.844 0-.14-.11-.14-.14-.14-.141 0-.157.046-.188.218C5.172-.609 4.406-.172 3.625-.172c-.875 0-2.031-.766-2.031-2.937 0-2.391 1.218-2.97 1.937-2.97.547 0 1.328.22 1.656.766Zm0 0"/><path id="A" d="M10.281-3.484c0-1.329 0-1.735-.328-2.204-.422-.546-1.094-.64-1.578-.64-1.188 0-1.797.86-2.016 1.422-.203-1.11-.984-1.422-1.89-1.422-1.39 0-1.938 1.187-2.047 1.484h-.016v-1.484l-1.953.156v.422c.984 0 1.094.094 1.094.797v3.89c0 .641-.156.641-1.094.641V0C.828-.031 1.61-.031 2.016-.031c.406 0 1.187 0 1.562.031v-.422c-.922 0-1.094 0-1.094-.64v-2.672c0-1.5.985-2.297 1.875-2.297.891 0 1.094.718 1.094 1.593v3.375c0 .641-.156.641-1.094.641V0c.375-.031 1.157-.031 1.547-.031.422 0 1.188 0 1.563.031v-.422c-.907 0-1.078 0-1.078-.64v-2.672c0-1.5.984-2.297 1.875-2.297.89 0 1.093.718 1.093 1.593v3.375c0 .641-.171.641-1.093.641V0c.375-.031 1.14-.031 1.546-.031.422 0 1.188 0 1.563.031v-.422c-.719 0-1.078 0-1.094-.422Zm0 0"/><path id="B" d="M6.39-3.484c0-1.329 0-1.735-.343-2.204-.406-.546-1.078-.64-1.578-.64-1.39 0-1.938 1.187-2.047 1.484h-.016v-1.484l-1.953.156v.422c.984 0 1.094.094 1.094.797v3.89c0 .641-.156.641-1.094.641V0C.828-.031 1.61-.031 2.016-.031c.406 0 1.187 0 1.562.031v-.422c-.922 0-1.094 0-1.094-.64v-2.672c0-1.5.985-2.297 1.875-2.297.891 0 1.094.718 1.094 1.593v3.375c0 .641-.156.641-1.094.641V0c.375-.031 1.157-.031 1.547-.031.422 0 1.188 0 1.563.031v-.422c-.719 0-1.078 0-1.078-.422Zm0 0"/><path id="C" d="M2.406-5.766h2.031v-.421h-2.03v-2.641h-.313c-.016 1.36-.531 2.734-1.828 2.781v.281h1.218v3.985C1.484-.188 2.531.14 3.297.14c.906 0 1.375-.891 1.375-1.922v-.813h-.313v.781c0 1.032-.421 1.641-.968 1.641-.985 0-.985-1.328-.985-1.578Zm0 0"/><path id="D" d="M4.047-3.578c0-1.078-.14-2.86-.953-4.531C2.25-9.83 1.078-10.75.922-10.75c-.063 0-.14.016-.14.11 0 .046 0 .062.25.312 1.437 1.453 2.234 3.812 2.234 6.75 0 2.781-.672 5.172-2.329 6.86-.156.124-.156.155-.156.202 0 .094.078.11.14.11.188 0 1.36-1.031 2.063-2.438.735-1.453 1.063-3 1.063-4.734Zm0 0"/><path id="n" d="M2.766-4.953h2.28c0 .594 0 .922.563.922s.563-.39.563-.703v-1.454c0-.296 0-.703-.563-.703-.562 0-.562.329-.562.938H2.766v-3.563h4.218v.844c0 .297 0 .703.563.703.562 0 .562-.375.562-.703v-1.14c0-.532-.109-.704-.687-.704H1.188c-.235 0-.704 0-.704.5s.47.5.704.5h.468V-1h-.468c-.235 0-.704 0-.704.5s.47.5.704.5h6.609c.578 0 .687-.156.687-.703v-1.39c0-.313 0-.72-.546-.72-.563 0-.563.391-.563.72V-1h-4.61Zm0 0"/><path id="o" d="M2.875-4.766h2.344c0 .594 0 .922.562.922.563 0 .563-.39.563-.703v-1.437c0-.313 0-.72-.563-.72-.562 0-.562.329-.562.938H2.875v-3.75h4.266v.844c0 .297 0 .703.562.703.563 0 .563-.375.563-.703v-1.14c0-.532-.11-.704-.688-.704H1.234c-.234 0-.703 0-.703.5s.469.5.703.5h.516V-1h-.516C1-1 .531-1 .531-.5S1 0 1.234 0h2.47c.233 0 .687 0 .687-.5S3.937-1 3.703-1h-.828Zm0 0"/><path id="p" d="M1.14-10.516c-.25 0-.687 0-.687.5s.453.5.703.5h.407V-1h-.407c-.25 0-.703 0-.703.5s.453.5.688.5h4.078C7.125 0 8.14-1.516 8.14-2.875c0-1.219-.844-2.344-2.204-2.64.86-.266 1.844-1.094 1.844-2.344 0-1.25-1.015-2.657-2.906-2.657Zm1.548 4.547v-3.547h2.14c1.422 0 1.828 1.063 1.828 1.688 0 .797-.672 1.86-2.11 1.86Zm0 4.969v-3.969h2.25c1.75 0 2.093 1.469 2.093 2.063C7.031-2.062 6.375-1 4.844-1Zm0 0"/><path id="q" d="M1.063-10.516c-.235 0-.688 0-.688.5s.453.5.688.5h.343V-1h-.343c-.235 0-.688 0-.688.5s.453.5.688.5H4.5c2.219 0 3.703-2.438 3.703-5.172 0-2.75-1.437-5.344-3.719-5.344ZM2.53-1v-8.516h1.64c2 0 2.907 2.375 2.907 4.329C7.078-3.095 6.062-1 4.188-1Zm0 0"/></defs><use xlink:href="#a" x="115.368" y="30.607"/><use xlink:href="#b" x="189.069" y="30.491"/><use xlink:href="#c" x="189.069" y="30.491"/><use xlink:href="#d" x="189.069" y="30.491"/><use xlink:href="#e" x="262.77" y="30.724"/><use xlink:href="#f" x="262.77" y="30.724"/><use xlink:href="#g" x="262.77" y="30.724"/><use xlink:href="#h" x="19.436" y="55.163"/><use xlink:href="#i" x="28.993" y="55.163"/><use xlink:href="#j" x="39.524" y="55.163"/><use xlink:href="#k" x="49.669" y="55.163"/><use xlink:href="#l" x="54.352" y="55.163"/><use xlink:href="#m" x="65.272" y="55.163"/><use xlink:href="#n" x="95.357" y="55.522"/><use xlink:href="#o" x="104.216" y="55.522"/><use xlink:href="#p" x="132.208" y="55.522"/><use xlink:href="#o" x="141.067" y="55.522"/><use xlink:href="#p" x="169.058" y="55.522"/><use xlink:href="#q" x="177.917" y="55.522"/><use xlink:href="#n" x="205.908" y="55.522"/><use xlink:href="#o" x="214.767" y="55.522"/><use xlink:href="#p" x="242.759" y="55.522"/><use xlink:href="#o" x="251.618" y="55.522"/><use xlink:href="#p" x="279.609" y="55.522"/><use xlink:href="#q" x="288.468" y="55.522"/><path fill="none" stroke="#000" stroke-miterlimit="10" stroke-width=".399" d="M90.89 59.988h63.5V40.535h-63.5ZM164.594 59.988h63.5V40.535h-63.5ZM238.293 59.988h63.504V40.535h-63.504Zm0 0"/><use xlink:href="#i" x="26.749" y="92.014"/><use xlink:href="#r" x="37.279" y="92.014"/><use xlink:href="#s" x="47.425" y="92.014"/><use xlink:href="#k" x="56.592" y="92.014"/><use xlink:href="#t" x="61.275" y="92.014"/><use xlink:href="#n" x="95.357" y="92.373"/><use xlink:href="#o" x="104.216" y="92.373"/><use xlink:href="#p" x="132.208" y="92.373"/><use xlink:href="#o" x="141.067" y="92.373"/><use xlink:href="#p" x="169.058" y="92.373"/><use xlink:href="#q" x="177.917" y="92.373"/><use xlink:href="#n" x="205.908" y="92.373"/><use xlink:href="#o" x="214.767" y="92.373"/><use xlink:href="#p" x="242.759" y="92.373"/><use xlink:href="#o" x="251.618" y="92.373"/><use xlink:href="#p" x="279.609" y="92.373"/><use xlink:href="#q" x="288.468" y="92.373"/><path fill="none" stroke="#000" stroke-miterlimit="10" stroke-width=".399" d="M90.89 96.84h100.352V77.387H90.891ZM201.445 96.84h100.352V77.387H201.445Zm0 0"/><use xlink:href="#u" x="96.292" y="114.793"/><use xlink:href="#m" x="101.755" y="114.793"/><use xlink:href="#v" x="112.093" y="114.793"/><use xlink:href="#w" x="118.336" y="114.793"/><use xlink:href="#x" x="126.141" y="114.793"/><use xlink:href="#y" x="130.043" y="114.793"/><use xlink:href="#z" x="137.067" y="114.793"/><use xlink:href="#v" x="143.31" y="114.793"/><use xlink:href="#A" x="149.554" y="114.793"/><use xlink:href="#v" x="161.26" y="114.793"/><use xlink:href="#B" x="167.504" y="114.793"/><use xlink:href="#C" x="174.921" y="114.793"/><use xlink:href="#D" x="180.384" y="114.793"/><use xlink:href="#u" x="206.843" y="114.793"/><use xlink:href="#m" x="212.306" y="114.793"/><use xlink:href="#v" x="222.644" y="114.793"/><use xlink:href="#w" x="228.887" y="114.793"/><use xlink:href="#x" x="236.692" y="114.793"/><use xlink:href="#y" x="240.594" y="114.793"/><use xlink:href="#z" x="247.618" y="114.793"/><use xlink:href="#v" x="253.861" y="114.793"/><use xlink:href="#A" x="260.105" y="114.793"/><use xlink:href="#v" x="271.811" y="114.793"/><use xlink:href="#B" x="278.055" y="114.793"/><use xlink:href="#C" x="285.472" y="114.793"/><use xlink:href="#D" x="290.935" y="114.793"/></svg>