<svg xmlns="http://www.w3.org/2000/svg" xmlns:xlink="http://www.w3.org/1999/xlink" width="336.909" height="192.765"><defs><path id="a" d="M.89-11.766v.454c1.188 0 1.376 0 1.376.78v9.313c0 .766-.188.766-1.375.766V0h5.921c2.204 0 3.641-1.563 3.641-3.14 0-1.547-1.406-2.876-3.25-2.985C8.843-6.453 10-7.563 10-8.875c0-1.422-1.406-2.89-3.625-2.89ZM3.36-6.25v-4.39c0-.594.03-.672.718-.672h2.203c1.703 0 2.469 1.374 2.469 2.437 0 1.313-1.047 2.625-2.906 2.625Zm.718 5.797c-.687 0-.719-.078-.719-.672v-4.844h3.188c1.766 0 2.625 1.563 2.625 2.813 0 1.265-.969 2.703-2.86 2.703Zm0 0"/><path id="b" d="M3.594-11.484c-.094-.266-.11-.282-.485-.282H.906v.454c1.188 0 1.39 0 1.39.78v8.845c0 .437 0 1.234-1.39 1.234V0c.406-.031 1.125-.031 1.563-.031.422 0 1.14 0 1.547.031v-.453C2.64-.453 2.64-1.25 2.64-1.687v-9.563h.015L6.703-.281c.063.172.094.281.234.281.141 0 .172-.11.25-.281l4.079-11.047h.015v10.11c0 .765-.187.765-1.375.765V0c.453-.031 1.39-.031 1.89-.031s1.438 0 1.907.031v-.453c-1.187 0-1.375 0-1.375-.766v-9.312c0-.781.188-.781 1.375-.781v-.454h-2.187c-.36 0-.375.016-.485.282L7.312-1.391Zm0 0"/><path id="c" d="M3.406-5.531h2.766C8.39-5.531 10-6.97 10-8.61c0-1.641-1.578-3.157-3.828-3.157H.89v.454c1.187 0 1.375 0 1.375.78v9.313c0 .766-.188.766-1.375.766V0c.5-.031 1.421-.031 1.953-.031.531 0 1.437 0 1.937.031v-.453c-1.187 0-1.375 0-1.375-.766Zm-.031-.36v-4.75c0-.593.031-.671.719-.671h1.75c2.218 0 2.86 1.28 2.86 2.703 0 1.562-.767 2.718-2.86 2.718Zm0 0"/><path id="d" d="M7.547-11.688c0-.312-.016-.328-.125-.328-.11 0-.14.063-.203.22l-.516 1.14c-.656-.953-1.656-1.375-2.75-1.375a3.134 3.134 0 0 0-3.156 3.14c0 .547.11 1.297.703 2.016.64.797 1.234.938 2.61 1.297.515.14 1.39.36 1.562.437.969.407 1.484 1.438 1.484 2.407 0 1.234-.875 2.562-2.375 2.562-1.843 0-3.562-1.031-3.672-3.437-.03-.282-.046-.297-.156-.297-.14 0-.156.015-.156.36v3.483c0 .297.015.329.11.329.124 0 .155-.094.405-.625.016-.047.016-.094.344-.75C2.516.03 3.953.28 4.781.28c1.875 0 3.203-1.578 3.203-3.39 0-.907-.328-1.594-.515-1.907-.719-1.093-1.5-1.296-2.328-1.515-.11-.047-.141-.047-1.11-.282-.937-.25-1.328-.375-1.765-.828-.47-.53-.641-1.093-.641-1.64 0-1.125.89-2.344 2.36-2.344 1.812 0 2.953 1.297 3.218 3.453.047.297.063.313.188.313.156 0 .156-.047.156-.344Zm0 0"/><path id="e" d="M5.063-7.36v.454c1.015 0 1.171.11 1.171.937v3.125c0 1.453-.78 2.703-2.046 2.703-1.422 0-1.532-.843-1.532-1.734v-5.672l-2.094.188v.453c.688 0 1.157 0 1.172.687v3.313c0 1.156 0 1.89.454 2.375.218.219.656.672 1.89.672C5.547.14 6.11-1.11 6.25-1.47h.016v1.61L8.312 0v-.453c-1.015 0-1.171-.094-1.171-.922v-6.172Zm0 0"/><path id="f" d="M2.578-4.063c0-1.656.703-3.203 2-3.203.125 0 .25.016.36.063 0 0-.375.125-.375.578 0 .406.328.578.578.578.218 0 .593-.125.593-.594 0-.562-.546-.906-1.14-.906-1.313 0-1.875 1.281-2.047 1.875H2.53v-1.875l-2 .188v.453c1.016 0 1.172.11 1.172.937v4.782c0 .656-.062.734-1.172.734V0c.422-.031 1.203-.031 1.656-.031.5 0 1.376 0 1.844.031v-.453c-1.234 0-1.453 0-1.453-.766Zm0 0"/><path id="g" d="M7.422-3.688c0-2.203-1.61-3.921-3.484-3.921-1.876 0-3.47 1.718-3.47 3.921 0 2.172 1.595 3.829 3.47 3.829 1.874 0 3.484-1.657 3.484-3.829ZM3.938-.171c-.797 0-1.5-.484-1.891-1.156-.422-.766-.485-1.734-.485-2.5 0-.719.032-1.61.485-2.39.344-.563 1.015-1.11 1.89-1.11.782 0 1.438.422 1.844 1.031.532.797.532 1.938.532 2.469 0 .672-.032 1.703-.5 2.531-.47.797-1.22 1.125-1.875 1.125Zm0 0"/><path id="h" d="M1.906-3.094c.328.25.907.547 1.594.547 1.36 0 2.531-1.062 2.531-2.5 0-.453-.14-1.14-.656-1.672.484-.515 1.188-.687 1.578-.687.078 0 .172 0 .266.047-.078.03-.235.093-.235.375 0 .218.157.375.391.375.25 0 .39-.172.39-.407 0-.312-.265-.656-.812-.656-.687 0-1.281.313-1.766.766a2.494 2.494 0 0 0-1.687-.64c-1.36 0-2.531 1.077-2.531 2.5 0 .984.562 1.609.734 1.78-.516.594-.516 1.297-.516 1.391 0 .453.172 1.094.766 1.469C1.047-.187.343.5.343 1.359c0 1.235 1.641 2.157 3.595 2.157 1.906 0 3.609-.875 3.609-2.172C7.547-1 5-1 3.672-1c-.406 0-1.11 0-1.188-.016-.53-.093-.906-.562-.906-1.171 0-.157 0-.532.328-.907Zm1.594.25c-1.516 0-1.516-1.86-1.516-2.203 0-.344 0-2.203 1.516-2.203s1.516 1.86 1.516 2.203c0 .344 0 2.203-1.516 2.203Zm.438 6.063c-1.72 0-2.907-.906-2.907-1.86 0-.53.297-1.03.672-1.312.438-.281.61-.281 1.781-.281 1.407 0 3.375 0 3.375 1.593 0 .954-1.187 1.86-2.921 1.86Zm0 0"/><path id="i" d="M6.203-4.453c0-1.14 0-1.75-.734-2.422a2.921 2.921 0 0 0-1.953-.734c-1.36 0-2.344 1.062-2.344 2.203 0 .64.516.672.625.672.219 0 .61-.141.61-.625 0-.422-.329-.61-.61-.61a.922.922 0 0 0-.219.032c.375-1.094 1.297-1.391 1.906-1.391.86 0 1.797.75 1.797 2.203v.75c-1.015.031-2.234.172-3.203.688C1-3.079.688-2.22.688-1.563.688-.234 2.234.141 3.155.141c.938 0 1.813-.532 2.203-1.516.032.75.516 1.438 1.266 1.438.36 0 1.281-.235 1.281-1.594V-2.5h-.312v.984c0 1.047-.469 1.188-.688 1.188-.703 0-.703-.89-.703-1.656Zm-.922 2.062c0 1.5-1.062 2.25-2.015 2.25-.86 0-1.532-.64-1.532-1.421 0-.516.235-1.438 1.235-1.985.812-.469 1.765-.531 2.312-.562Zm0 0"/><path id="j" d="M2.594-6.953h2.422v-.453H2.594v-3.188h-.297c-.047 1.781-.64 3.328-2.11 3.36v.28h1.5v4.829c0 .328 0 2.266 2 2.266 1.016 0 1.594-1 1.594-2.282v-.968H4.97v.953c0 1.187-.453 1.984-1.188 1.984-.5 0-1.187-.344-1.187-1.906Zm0 0"/><path id="k" d="M6.563-4.047c.062-.062.062-.11.062-.281 0-1.75-.922-3.281-2.89-3.281C1.905-7.61.468-5.875.468-3.75.469-1.516 2.094.14 3.922.14c1.937 0 2.687-1.828 2.687-2.187 0-.125-.093-.125-.14-.125-.11 0-.125.031-.203.25C5.89-.75 4.937-.172 4.046-.172c-.734 0-1.484-.406-1.952-1.172-.531-.875-.531-1.89-.531-2.703Zm-4.985-.266c.125-2.468 1.453-3.015 2.14-3.015 1.173 0 1.97 1.094 1.985 3.016Zm0 0"/><path id="l" d="M5.328-7.266c0-.312-.031-.328-.125-.328-.078 0-.094.016-.297.282-.047.062-.203.234-.25.296-.562-.578-1.328-.593-1.625-.593-1.906 0-2.594 1-2.594 2 0 1.546 1.75 1.906 2.25 2.015 1.079.219 1.47.281 1.829.594.218.203.593.594.593 1.203 0 .734-.406 1.656-2 1.656-1.484 0-2.03-1.14-2.328-2.656-.062-.234-.062-.25-.203-.25-.125 0-.14.016-.14.36v2.484c0 .312.015.328.109.328s.11-.016.187-.156c.11-.157.375-.578.47-.75.343.469.952.922 1.905.922 1.72 0 2.625-.938 2.625-2.282a2.01 2.01 0 0 0-.687-1.546c-.516-.532-1.125-.657-1.844-.797-.953-.204-2.156-.438-2.156-1.485 0-.453.25-1.406 1.984-1.406 1.844 0 1.938 1.734 1.985 2.281.015.078.093.094.156.094.156 0 .156-.047.156-.344Zm0 0"/><path id="m" d="m2.64-11.953-2.062.187v.454c1.016 0 1.172.109 1.172.921v9.204c0 .656-.063.734-1.172.734V0C1-.031 1.75-.031 2.188-.031c.453 0 1.203 0 1.624.031v-.453c-1.109 0-1.171-.063-1.171-.734Zm0 0"/><path id="n" d="M6.016-6.031c-.329 0-.813 0-.813.61 0 .484.39.624.61.624.125 0 .625-.062.625-.656 0-1.234-1.172-2.156-2.5-2.156C2.125-7.61.562-5.922.562-3.72c0 2.297 1.625 3.86 3.375 3.86C6.079.14 6.61-1.844 6.61-2.031c0-.063-.015-.125-.14-.125-.11 0-.125.015-.203.25C5.812-.516 4.844-.172 4.094-.172 3-.172 1.672-1.188 1.672-3.734c0-2.625 1.266-3.563 2.281-3.563.672 0 1.672.328 2.063 1.266Zm0 0"/><path id="o" d="M4.5-4.547c-.016-.031-.11-.14-.11-.187 0-.032 1.22-1.157 1.376-1.297.984-.828 1.609-.907 2.046-.922v-.453c-.093 0-.14 0-.156.015l-.843.016c-.47 0-1.22 0-1.688-.031v.453c.25.016.422.156.422.39 0 .344-.344.672-.36.672L2.579-3.516v-8.437l-2.047.187v.454c1.016 0 1.172.109 1.172.921v9.204c0 .656-.062.734-1.172.734V0c.422-.031 1.172-.031 1.61-.031.421 0 1.187 0 1.593.031v-.453c-1.093 0-1.171-.063-1.171-.734v-1.891L3.75-4.172 5.5-1.578c.203.297.375.547.375.766 0 .312-.313.359-.516.359V0c.407-.031 1.157-.031 1.579-.031.312 0 .953.015 1.234.031v-.453c-.797 0-.985-.156-1.516-.906Zm0 0"/><path id="p" d="M4.656 3.484c0-.046 0-.078-.234-.312-1.438-1.453-2.234-3.813-2.234-6.75 0-2.781.671-5.172 2.328-6.86.14-.14.14-.156.14-.203 0-.093-.062-.109-.125-.109-.187 0-1.36 1.031-2.062 2.438-.735 1.437-1.063 2.984-1.063 4.734 0 1.281.203 2.984.953 4.531.844 1.719 2.016 2.64 2.172 2.64.063 0 .125-.015.125-.109Zm0 0"/><path id="v" d="M7.016-3.672v-.281H0v.281Zm0 0"/><path id="x" d="M4.047-3.578c0-1.078-.14-2.86-.953-4.531C2.25-9.83 1.078-10.75.922-10.75c-.063 0-.14.016-.14.11 0 .046 0 .062.25.312 1.437 1.453 2.234 3.812 2.234 6.75 0 2.781-.672 5.172-2.329 6.86-.156.124-.156.155-.156.202 0 .094.078.11.14.11.188 0 1.36-1.031 2.063-2.438.735-1.453 1.063-3 1.063-4.734Zm0 0"/><path id="q" d="M6.297-7.938h.39c.204 0 .579 0 .579-.406 0-.422-.375-.422-.579-.422H4.984c-.203 0-.593 0-.593.422 0 .406.39.406.593.406h.375V-3c0 1.563-.921 2.344-1.671 2.344-.766 0-1.672-.797-1.672-2.344v-4.938h.375c.203 0 .593 0 .593-.406 0-.422-.39-.422-.593-.422H.687c-.203 0-.593 0-.593.422 0 .406.39.406.594.406h.39v5.032c0 1.734 1.188 3.078 2.61 3.078 1.421 0 2.609-1.344 2.609-3.078Zm0 0"/><path id="r" d="M4.156-3.922h2.047c.188 0 .64 0 .64-.453 0-.469-.452-.469-.64-.469H4.156v-2.062c0-.172 0-.64-.453-.64-.469 0-.469.452-.469.64v2.062H1.172c-.188 0-.64 0-.64.453 0 .47.437.47.64.47h2.062v2.062c0 .187 0 .64.454.64.468 0 .468-.437.468-.64Zm0 0"/><path id="s" d="M.89-8.766c-.203 0-.578 0-.578.422 0 .406.376.406.579.406h.28v7.11h-.28c-.204 0-.579 0-.579.406C.313 0 .689 0 .891 0H3.75c1.844 0 3.078-2.031 3.078-4.297 0-2.297-1.187-4.469-3.094-4.469ZM2.11-.828v-7.11h1.359c1.672 0 2.422 1.985 2.422 3.625 0 1.735-.844 3.485-2.407 3.485Zm0 0"/><path id="t" d="M4.766-4.734c1.14-.344 1.796-1.11 1.796-1.907 0-1.171-1.203-2.296-2.875-2.296-1.671 0-2.874 1.124-2.874 2.296 0 .829.687 1.579 1.796 1.907-1.453.453-2 1.453-2 2.25C.61-1.078 1.938.172 3.688.172c1.75 0 3.062-1.234 3.062-2.656 0-.782-.531-1.797-1.984-2.25Zm-1.079-.422c-1.14 0-1.937-.703-1.937-1.469 0-.797.828-1.484 1.938-1.484 1.109 0 1.937.687 1.937 1.484 0 .766-.813 1.469-1.938 1.469Zm0 4.5c-1.234 0-2.14-.875-2.14-1.828 0-1.016.969-1.829 2.14-1.829 1.204 0 2.141.86 2.141 1.813 0 1.016-.937 1.844-2.14 1.844Zm0 0"/><path id="u" d="M6.656-4.375c0-2.672-1.422-4.563-2.968-4.563-1.563 0-2.97 1.922-2.97 4.547 0 2.672 1.423 4.563 2.97 4.563 1.562 0 2.968-1.922 2.968-4.547ZM3.688-.656c-1.141 0-2.032-1.735-2.032-3.875 0-2.14.985-3.578 2.032-3.578 1.046 0 2.03 1.437 2.03 3.578 0 2.125-.905 3.875-2.03 3.875Zm0 0"/><path id="w" d="M2.39-3.969h1.954c0 .5 0 .766.468.766.47 0 .47-.328.47-.578v-1.203c0-.266 0-.594-.47-.594-.468 0-.468.266-.468.766H2.39v-3.125h3.562v.703c0 .265 0 .593.453.593.485 0 .485-.312.485-.593v-.938c0-.453-.094-.594-.579-.594h-5.28c-.204 0-.595 0-.595.422 0 .406.391.406.594.406h.438v7.11H1.03c-.203 0-.593 0-.593.406C.438 0 .828 0 1.03 0h2.047c.203 0 .578 0 .578-.422 0-.406-.375-.406-.578-.406h-.687Zm0 0"/></defs><path fill="none" stroke="#000" stroke-miterlimit="10" stroke-width=".399" d="M14.371 178.395h141.734V36.66H14.371Zm0 0"/><use xlink:href="#a" x="19.835" y="31.198"/><use xlink:href="#b" x="31.099" y="31.198"/><use xlink:href="#c" x="45.732" y="31.198"/><path fill="none" stroke="#000" stroke-miterlimit="10" stroke-width=".399" d="M156.105 151.816H85.238v-8.855h70.867M159.816 147.39c7.63 0 13.297-21.437 24.637-21.437"/><path stroke="#000" stroke-miterlimit="10" stroke-width=".399" d="m156.672 147.39 4.531 1.704-1.488-1.703 1.488-1.707Zm0 0"/><use xlink:href="#d" x="195.289" y="127.658"/><use xlink:href="#e" x="204.084" y="127.658"/><use xlink:href="#f" x="212.88" y="127.658"/><use xlink:href="#f" x="218.976" y="127.658"/><use xlink:href="#g" x="225.072" y="127.658"/><use xlink:href="#h" x="232.967" y="127.658"/><use xlink:href="#i" x="240.862" y="127.658"/><use xlink:href="#j" x="248.757" y="127.658"/><use xlink:href="#k" x="254.853" y="127.658"/><use xlink:href="#l" x="261.849" y="127.658"/><use xlink:href="#a" x="273.304" y="127.658"/><use xlink:href="#m" x="284.568" y="127.658"/><use xlink:href="#g" x="288.865" y="127.658"/><use xlink:href="#n" x="297.208" y="127.658"/><use xlink:href="#o" x="303.756" y="127.658"/><use xlink:href="#p" x="200.425" y="146.787"/><use xlink:href="#q" x="205.887" y="146.787"/><use xlink:href="#r" x="213.27" y="146.787"/><use xlink:href="#s" x="220.652" y="146.787"/><use xlink:href="#t" x="228.035" y="146.787"/><use xlink:href="#u" x="235.417" y="146.787"/><use xlink:href="#u" x="242.8" y="146.787"/><use xlink:href="#v" x="250.181" y="146.787"/><use xlink:href="#q" x="257.205" y="146.787"/><use xlink:href="#r" x="264.588" y="146.787"/><use xlink:href="#s" x="271.97" y="146.787"/><use xlink:href="#w" x="279.353" y="146.787"/><use xlink:href="#w" x="286.735" y="146.787"/><use xlink:href="#w" x="294.118" y="146.787"/><use xlink:href="#x" x="301.499" y="146.787"/></svg>