<svg xmlns="http://www.w3.org/2000/svg" xmlns:xlink="http://www.w3.org/1999/xlink" width="257.65" height="143.93"><defs><path id="a" d="M.516-8.156v.344H.75c.86 0 .906.109.906.562v6.344c0 .437-.047.562-.906.562H.516V0h4.5c1.53 0 2.609-1.047 2.609-2.188 0-.968-.875-1.921-2.297-2.078 1.14-.218 1.969-.984 1.969-1.875 0-1.03-1.047-2.015-2.61-2.015ZM2.562-4.36v-2.985c0-.39.016-.468.547-.468h1.5c1.204 0 1.625 1.015 1.625 1.671 0 .782-.609 1.782-1.937 1.782ZM3.11-.344c-.53 0-.546-.094-.546-.484v-3.297h2.234c1.14 0 1.734 1 1.734 1.922 0 .969-.718 1.86-1.89 1.86Zm0 0"/><path id="b" d="M2.75-7.938c-.078-.218-.094-.218-.375-.218H.531v.344h.235c.859 0 .89.109.89.562v6.016c0 .328 0 .89-1.125.89V0c.313-.031.938-.031 1.281-.031.329 0 .954 0 1.266.031v-.344c-1.125 0-1.125-.562-1.125-.89V-7.75l2.89 7.516c.048.14.079.234.204.234.11 0 .125-.063.203-.234l2.906-7.579v6.907c0 .437-.031.562-.89.562H7.03V0c.266-.031 1.235-.031 1.578-.031.344 0 1.297 0 1.579.031v-.344h-.25c-.86 0-.891-.125-.891-.562V-7.25c0-.453.031-.563.89-.563h.25v-.343H8.329c-.265 0-.265 0-.375.234L5.36-1.125Zm0 0"/><path id="c" d="M2.61-3.797h2.015c1.406 0 2.672-.953 2.672-2.156 0-1.156-1.156-2.203-2.766-2.203H.5v.344h.234c.875 0 .907.109.907.562v6.344c0 .437-.032.562-.907.562H.5V0c.281-.031 1.266-.031 1.61-.031.359 0 1.343 0 1.624.031v-.344H3.5c-.86 0-.89-.125-.89-.562Zm-.032-.297v-3.25c0-.39.031-.468.547-.468H4.25c1.938 0 1.938 1.343 1.938 1.859 0 .5 0 1.86-1.938 1.86Zm0 0"/><path id="d" d="M2.484-4.984c-.609-.157-1.14-.75-1.14-1.516a1.59 1.59 0 0 1 1.593-1.594c1.97 0 2.22 1.938 2.297 2.453.032.141.032.188.141.188.14 0 .14-.063.14-.266V-8.14c0-.218 0-.28-.124-.28-.032 0-.079 0-.172.155l-.39.735c-.579-.735-1.36-.89-1.891-.89A2.29 2.29 0 0 0 .64-6.126c0 .563.203 1.094.656 1.578.406.453.828.563 1.672.781.422.094 1.078.266 1.25.329.562.28.937.921.937 1.593 0 .907-.64 1.75-1.625 1.75-.547 0-1.281-.14-1.875-.64C.97-1.36.922-2.22.906-2.625c-.015-.094-.11-.094-.125-.094-.14 0-.14.063-.14.281V-.03C.64.187.64.25.766.25.844.25.844.234.937.078c.047-.094.297-.531.391-.719.422.485 1.188.891 2.203.891 1.344 0 2.313-1.14 2.313-2.453 0-.719-.282-1.266-.594-1.656-.438-.547-.984-.672-1.453-.797Zm0 0"/><path id="e" d="M3.64-5.14v.343c.813 0 .907.094.907.672v2.14c0 1.016-.547 1.86-1.438 1.86-.984 0-1.046-.563-1.046-1.188v-3.953L.375-5.14v.344c.922 0 .922.047.922 1.11v1.78c0 .75 0 1.173.36 1.579.28.297.765.453 1.374.453.203 0 .594 0 1-.36.344-.265.532-.718.532-.718V.125L6.234 0v-.344c-.812 0-.921-.094-.921-.672v-4.25Zm0 0"/><path id="f" d="M2-2.781c0-1.156.469-2.25 1.39-2.25.094 0 .126 0 .172.015-.093.047-.28.11-.28.438 0 .344.265.484.452.484.25 0 .485-.156.485-.484 0-.36-.328-.688-.844-.688-1.016 0-1.36 1.094-1.422 1.329h-.016v-1.329L.329-5.14v.344c.813 0 .922.094.922.672v3.234c0 .547-.14.547-.922.547V0c.344-.031 1-.031 1.36-.031.328 0 1.171 0 1.437.031v-.344h-.234C2.016-.344 2-.484 2-.906Zm0 0"/><path id="g" d="M5.484-2.563c0-1.53-1.171-2.765-2.562-2.765C1.5-5.328.359-4.062.359-2.562.36-1.032 1.547.124 2.922.124c1.406 0 2.562-1.172 2.562-2.688ZM2.922-.14c-.438 0-.969-.187-1.313-.78-.328-.532-.343-1.235-.343-1.75 0-.454 0-1.173.375-1.72.328-.515.859-.703 1.28-.703.454 0 .97.219 1.282.688.375.547.375 1.297.375 1.734 0 .422 0 1.172-.312 1.735-.329.562-.891.796-1.344.796Zm0 0"/><path id="h" d="M1.422-2.156c.562.36 1.047.36 1.172.36 1.078 0 1.875-.813 1.875-1.735 0-.313-.094-.766-.469-1.156.453-.47 1.016-.47 1.078-.47.047 0 .11 0 .156.016-.125.047-.171.172-.171.297 0 .172.109.313.296.313.11 0 .313-.063.313-.328a.556.556 0 0 0-.578-.547c-.625 0-1.094.39-1.25.562a2.067 2.067 0 0 0-1.235-.422c-1.078 0-1.875.813-1.875 1.735 0 .672.407 1.11.532 1.219-.141.187-.36.53-.36 1 0 .687.422.984.516 1.046C.875-.109.328.328.328.938c0 .828 1.125 1.515 2.594 1.515 1.422 0 2.594-.64 2.594-1.531 0-.297-.079-1-.797-1.375-.61-.313-1.203-.313-2.235-.313-.734 0-.812 0-1.03-.218a.982.982 0 0 1-.22-.61c0-.203.063-.406.188-.562Zm1.187.11c-1.062 0-1.062-1.204-1.062-1.485 0-.203 0-.703.203-1.016.234-.36.594-.469.844-.469 1.047 0 1.047 1.204 1.047 1.485 0 .203 0 .703-.204 1.015a.97.97 0 0 1-.828.47Zm.313 4.25C1.782 2.203.906 1.608.906.936c0-.093.031-.562.485-.875.265-.171.359-.171 1.203-.171.984 0 2.344 0 2.344 1.046 0 .704-.907 1.266-2.016 1.266Zm0 0"/><path id="i" d="M4.61-3.188c0-.656 0-1.124-.516-1.593a2.242 2.242 0 0 0-1.485-.547c-.984 0-1.734.64-1.734 1.422 0 .344.219.515.5.515s.484-.203.484-.5c0-.484-.421-.484-.609-.484.281-.5.86-.719 1.328-.719.547 0 1.266.453 1.266 1.532v.484C1.438-3.047.53-2.047.53-1.125c0 .953 1.094 1.25 1.828 1.25.782 0 1.329-.484 1.547-1.063.047.563.422 1 .938 1 .25 0 .937-.171.937-1.125v-.671h-.265v.671c0 .688-.282.782-.454.782-.453 0-.453-.64-.453-.813Zm-.766 1.5c0 1.172-.875 1.563-1.39 1.563-.595 0-1.079-.422-1.079-1 0-1.578 2.031-1.719 2.469-1.75Zm0 0"/><path id="j" d="M2.016-4.813h1.671v-.343H2.016v-2.188H1.75c-.016 1.11-.453 2.266-1.531 2.297v.234h1.015v3.329C1.234-.156 2.11.125 2.75.125c.75 0 1.14-.75 1.14-1.61v-.671h-.25v.656c0 .86-.359 1.36-.812 1.36-.812 0-.812-1.11-.812-1.313Zm0 0"/><path id="k" d="M4.578-2.766c.266 0 .281 0 .281-.234 0-1.203-.64-2.328-2.093-2.328-1.36 0-2.407 1.234-2.407 2.703 0 1.578 1.22 2.75 2.547 2.75 1.422 0 1.953-1.297 1.953-1.547 0-.078-.046-.125-.125-.125-.093 0-.125.063-.14.125-.313 1-1.11 1.281-1.625 1.281-.5 0-1.703-.343-1.703-2.406v-.219ZM1.281-3c.094-1.875 1.14-2.094 1.485-2.094 1.28 0 1.343 1.688 1.359 2.094Zm0 0"/><path id="l" d="M3.922-5.063c0-.203 0-.265-.125-.265-.094 0-.313.266-.406.375-.36-.313-.735-.375-1.125-.375C.828-5.328.39-4.547.39-3.891c0 .141 0 .563.453.97.39.343.797.421 1.344.53.656.125.812.172 1.109.407a.97.97 0 0 1 .375.78c0 .516-.297 1.079-1.36 1.079-.78 0-1.359-.453-1.624-1.64C.64-1.986.64-2 .64-2.016c-.032-.047-.079-.047-.11-.047-.14 0-.14.062-.14.28v1.626c0 .218 0 .281.125.281.062 0 .062-.016.265-.266.063-.093.063-.109.25-.296.453.562 1.094.562 1.297.562 1.25 0 1.875-.703 1.875-1.64 0-.641-.39-1.032-.5-1.141-.422-.375-.75-.438-1.547-.578-.344-.079-1.219-.25-1.219-.97 0-.359.25-.905 1.329-.905C3.562-5.11 3.64-4 3.656-3.641c.016.11.094.11.14.11.126 0 .126-.063.126-.281Zm0 0"/><path id="m" d="m2.063-8.297-1.672.14v.345c.812 0 .906.078.906.671v6.25c0 .547-.125.547-.906.547V0c.343-.031.921-.031 1.28-.031.36 0 .954 0 1.298.031v-.344c-.766 0-.906 0-.906-.547Zm0 0"/><path id="n" d="M4.328-4.422c-.14 0-.594 0-.594.484 0 .297.204.5.5.5.266 0 .5-.171.5-.515 0-.797-.843-1.375-1.812-1.375-1.39 0-2.5 1.234-2.5 2.75 0 1.531 1.14 2.703 2.5 2.703 1.578 0 1.937-1.438 1.937-1.547 0-.11-.093-.11-.125-.11-.109 0-.125.032-.156.188C4.312-.5 3.672-.14 3.031-.14c-.734 0-1.703-.64-1.703-2.453 0-1.984 1.016-2.469 1.61-2.469.453 0 1.109.172 1.39.641Zm0 0"/><path id="o" d="m3.344-3.172-.078-.11c0-.046.75-.687.843-.78.829-.72 1.36-.735 1.61-.75v-.344c-.25.031-.563.031-.907.031-.312 0-.921 0-1.203-.031v.343c.204.016.344.125.344.313 0 .25-.234.453-.25.453L2-2.53v-5.766l-1.672.14v.345c.813 0 .922.078.922.671v6.25c0 .547-.14.547-.922.547V0c.344-.031.922-.031 1.281-.031.344 0 .922 0 1.266.031v-.344c-.766 0-.922 0-.922-.547v-1.265l.766-.672 1.156 1.656c.172.25.266.39.266.547 0 .219-.172.281-.422.281V0c.297-.031.89-.031 1.203-.031.516 0 .547 0 1.047.031v-.344c-.313 0-.688 0-1.016-.5Zm0 0"/><path id="p" d="M3.89 2.906c0-.031 0-.062-.203-.265C2.484 1.437 1.813-.531 1.813-2.97c0-2.328.562-4.328 1.953-5.734.125-.11.125-.125.125-.172 0-.063-.063-.094-.11-.094-.156 0-1.14.86-1.719 2.031-.609 1.22-.89 2.485-.89 3.97 0 1.062.172 2.484.781 3.75C2.672 2.218 3.641 3 3.781 3c.047 0 .11-.031.11-.094Zm0 0"/><path id="v" d="M5.844-3.063v-.234H0v.235Zm0 0"/><path id="x" d="M3.375-2.969c0-.922-.125-2.39-.797-3.781C1.875-8.188.891-8.969.766-8.969c-.047 0-.11.031-.11.094 0 .047 0 .063.203.266 1.204 1.203 1.86 3.187 1.86 5.625 0 2.312-.563 4.312-1.938 5.718-.125.11-.125.141-.125.172 0 .063.063.094.11.094.156 0 1.14-.86 1.718-2.031.61-1.219.891-2.516.891-3.938Zm0 0"/><path id="q" d="M5.25-6.61h.313c.171 0 .5 0 .5-.343 0-.344-.329-.344-.5-.344H4.14c-.157 0-.485 0-.485.344s.328.344.485.344h.328V-2.5c0 1.313-.782 1.953-1.39 1.953-.642 0-1.407-.656-1.407-1.953v-4.11H2c.156 0 .484 0 .484-.343 0-.344-.328-.344-.484-.344H.578c-.172 0-.5 0-.5.344s.328.344.5.344h.313v4.187c0 1.438 1 2.563 2.187 2.563C4.25.14 5.25-.984 5.25-2.422Zm0 0"/><path id="r" d="M3.469-3.266h1.687c.157 0 .547 0 .547-.375 0-.406-.375-.406-.547-.406H3.47V-5.75c0-.156 0-.531-.39-.531-.392 0-.392.36-.392.531v1.703H.984c-.156 0-.546 0-.546.39 0 .391.374.391.546.391h1.704v1.72c0 .14 0 .53.39.53s.39-.375.39-.53Zm0 0"/><path id="s" d="M.734-7.297c-.156 0-.468 0-.468.344s.312.344.468.344h.25v5.921h-.25c-.156 0-.468 0-.468.344S.578 0 .734 0h2.391c1.531 0 2.563-1.703 2.563-3.578 0-1.922-.985-3.719-2.579-3.719ZM1.75-.687V-6.61h1.14c1.391 0 2.016 1.656 2.016 3.015 0 1.438-.703 2.906-2 2.906Zm0 0"/><path id="t" d="M3.969-3.938c.953-.296 1.5-.921 1.5-1.593 0-.985-1-1.922-2.39-1.922-1.407 0-2.392.937-2.392 1.922 0 .687.563 1.312 1.485 1.593C.969-3.562.516-2.734.516-2.062.516-.891 1.609.14 3.078.14c1.453 0 2.547-1.032 2.547-2.204 0-.656-.438-1.5-1.656-1.874Zm-.89-.359c-.954 0-1.626-.578-1.626-1.219 0-.671.703-1.234 1.625-1.234s1.61.563 1.61 1.234c0 .641-.688 1.22-1.61 1.22Zm0 3.75c-1.032 0-1.782-.734-1.782-1.515 0-.86.797-1.532 1.781-1.532 1 0 1.781.719 1.781 1.516 0 .828-.78 1.531-1.78 1.531Zm0 0"/><path id="u" d="M5.547-3.64c0-2.235-1.188-3.813-2.469-3.813-1.312 0-2.484 1.61-2.484 3.797C.594-1.437 1.78.14 3.078.14s2.469-1.594 2.469-3.782ZM3.078-.548C2.125-.547 1.375-2 1.375-3.78S2.203-6.75 3.078-6.75c.86 0 1.688 1.188 1.688 2.969 0 1.765-.75 3.234-1.688 3.234Zm0 0"/><path id="w" d="M2-3.313h1.625c0 .422 0 .641.39.641.391 0 .391-.265.391-.484v-1c0-.219 0-.5-.39-.5-.391 0-.391.234-.391.656H2v-2.61h2.953v.579c0 .218 0 .5.39.5.391 0 .391-.266.391-.5v-.782c0-.375-.062-.484-.468-.484H.859c-.171 0-.484 0-.484.344s.313.344.484.344h.36v5.921h-.36c-.171 0-.484 0-.484.344S.688 0 .859 0h1.704c.171 0 .484 0 .484-.344s-.313-.344-.485-.344H2Zm0 0"/></defs><path fill="none" stroke="#000" stroke-miterlimit="10" stroke-width=".399" d="M14.371 129.559h99.215V30.344H14.37Zm0 0"/><use xlink:href="#a" x="18.473" y="26.244"/><use xlink:href="#b" x="26.763" y="26.244"/><use xlink:href="#c" x="37.489" y="26.244"/><path fill="none" stroke="#000" stroke-miterlimit="10" stroke-width=".399" d="M113.586 110.957H63.98v-6.203h49.606"/><path fill="none" stroke="#000" stroke-miterlimit="10" stroke-width=".399" d="M110.043 108.621c15.988-4.285 9.793.535 26.219-3.867"/><path fill="none" stroke="#000" stroke-linecap="round" stroke-linejoin="round" stroke-miterlimit="10" stroke-width=".319" d="M111.61 109.852c-.25-.551-1.54-1.133-1.856-1.153.266-.176 1.09-1.324 1.031-1.926"/><use xlink:href="#d" x="146.61" y="107.275"/><use xlink:href="#e" x="153.114" y="107.275"/><use xlink:href="#f" x="159.617" y="107.275"/><use xlink:href="#f" x="164.17" y="107.275"/><use xlink:href="#g" x="168.722" y="107.275"/><use xlink:href="#h" x="174.576" y="107.275"/><use xlink:href="#i" x="180.429" y="107.275"/><use xlink:href="#j" x="186.282" y="107.275"/><use xlink:href="#k" x="190.835" y="107.275"/><use xlink:href="#l" x="196.038" y="107.275"/><use xlink:href="#a" x="204.552" y="107.275"/><use xlink:href="#m" x="212.842" y="107.275"/><use xlink:href="#g" x="216.094" y="107.275"/><use xlink:href="#n" x="222.27" y="107.275"/><use xlink:href="#o" x="227.15" y="107.275"/><use xlink:href="#p" x="145.579" y="121.721"/><use xlink:href="#q" x="150.131" y="121.721"/><use xlink:href="#r" x="156.283" y="121.721"/><use xlink:href="#s" x="162.435" y="121.721"/><use xlink:href="#t" x="168.587" y="121.721"/><use xlink:href="#u" x="174.74" y="121.721"/><use xlink:href="#u" x="180.892" y="121.721"/><use xlink:href="#v" x="187.043" y="121.721"/><use xlink:href="#q" x="192.896" y="121.721"/><use xlink:href="#r" x="199.048" y="121.721"/><use xlink:href="#s" x="205.2" y="121.721"/><use xlink:href="#w" x="211.352" y="121.721"/><use xlink:href="#w" x="217.505" y="121.721"/><use xlink:href="#w" x="223.657" y="121.721"/><use xlink:href="#x" x="229.807" y="121.721"/></svg>