<svg xmlns="http://www.w3.org/2000/svg" xmlns:xlink="http://www.w3.org/1999/xlink" width="577.455" height="160.103"><defs><path id="a" d="M.89-11.766v.454c1.188 0 1.376 0 1.376.78v9.313c0 .766-.188.766-1.375.766V0h5.921c2.204 0 3.641-1.563 3.641-3.14 0-1.547-1.406-2.876-3.25-2.985C8.843-6.453 10-7.563 10-8.875c0-1.422-1.406-2.89-3.625-2.89ZM3.36-6.25v-4.39c0-.594.03-.672.718-.672h2.203c1.703 0 2.469 1.374 2.469 2.437 0 1.313-1.047 2.625-2.906 2.625Zm.718 5.797c-.687 0-.719-.078-.719-.672v-4.844h3.188c1.766 0 2.625 1.563 2.625 2.813 0 1.265-.969 2.703-2.86 2.703Zm0 0"/><path id="b" d="M2.672-10.61a.71.71 0 0 0-1.422 0c0 .376.313.704.719.704a.7.7 0 0 0 .703-.703ZM.656-7.36v.454c.969 0 1.094.11 1.094.937v4.782c0 .656-.063.734-1.172.734V0C1-.031 1.734-.031 2.172-.031c.406 0 1.11 0 1.515.031v-.453c-1.015 0-1.046-.094-1.046-.719v-6.375Zm0 0"/><path id="c" d="M7.14-5.234c0-.875-.171-2.313-2.202-2.313-1.36 0-2.063 1.063-2.313 1.75h-.031v-1.75l-2.031.188v.453c1.015 0 1.171.11 1.171.937v4.782c0 .656-.062.734-1.171.734V0c.421-.031 1.171-.031 1.625-.031.453 0 1.218 0 1.64.031v-.453c-1.11 0-1.172-.063-1.172-.734V-4.5c0-1.578.953-2.766 2.172-2.766 1.266 0 1.406 1.141 1.406 1.97v4.109c0 .656-.062.734-1.171.734V0c.406-.031 1.171-.031 1.625-.031.437 0 1.218 0 1.625.031v-.453c-1.094 0-1.172-.063-1.172-.734Zm0 0"/><path id="d" d="M6.203-4.453c0-1.14 0-1.75-.734-2.422a2.921 2.921 0 0 0-1.953-.734c-1.36 0-2.344 1.062-2.344 2.203 0 .64.516.672.625.672.219 0 .61-.141.61-.625 0-.422-.329-.61-.61-.61a.922.922 0 0 0-.219.032c.375-1.094 1.297-1.391 1.906-1.391.86 0 1.797.75 1.797 2.203v.75c-1.015.031-2.234.172-3.203.688C1-3.079.688-2.22.688-1.563.688-.234 2.234.141 3.155.141c.938 0 1.813-.532 2.203-1.516.032.75.516 1.438 1.266 1.438.36 0 1.281-.235 1.281-1.594V-2.5h-.312v.984c0 1.047-.469 1.188-.688 1.188-.703 0-.703-.89-.703-1.656Zm-.922 2.062c0 1.5-1.062 2.25-2.015 2.25-.86 0-1.532-.64-1.532-1.421 0-.516.235-1.438 1.235-1.985.812-.469 1.765-.531 2.312-.562Zm0 0"/><path id="e" d="M2.578-4.063c0-1.656.703-3.203 2-3.203.125 0 .25.016.36.063 0 0-.375.125-.375.578 0 .406.328.578.578.578.218 0 .593-.125.593-.594 0-.562-.546-.906-1.14-.906-1.313 0-1.875 1.281-2.047 1.875H2.53v-1.875l-2 .188v.453c1.016 0 1.172.11 1.172.937v4.782c0 .656-.062.734-1.172.734V0c.422-.031 1.203-.031 1.656-.031.5 0 1.376 0 1.844.031v-.453c-1.234 0-1.453 0-1.453-.766Zm0 0"/><path id="f" d="M6.719-5.89c.422-1.048 1.203-1.063 1.437-1.063v-.453c-.328.015-.75.031-1.078.031-.36 0-.937 0-1.281-.031v.453c.656.047.672.531.672.672 0 .172-.032.25-.11.468L4.484-1.171 2.422-6.203c-.078-.203-.078-.328-.078-.344 0-.375.39-.406.812-.406v-.453c-.422.031-1.156.031-1.594.031-.453 0-1.015 0-1.39-.031v.453c.937 0 1.031.078 1.25.64L4 0c-.781 2.031-1.234 3.219-2.313 3.219-.187 0-.625-.047-.937-.36.406-.03.578-.28.578-.562 0-.297-.203-.563-.547-.563-.39 0-.578.266-.578.579C.203 3 .906 3.5 1.687 3.5c1 0 1.625-.969 1.97-1.828Zm0 0"/><path id="g" d="M6.563-4.047c.062-.062.062-.11.062-.281 0-1.75-.922-3.281-2.89-3.281C1.905-7.61.468-5.875.468-3.75.469-1.516 2.094.14 3.922.14c1.937 0 2.687-1.828 2.687-2.187 0-.125-.093-.125-.14-.125-.11 0-.125.031-.203.25C5.89-.75 4.937-.172 4.046-.172c-.734 0-1.484-.406-1.952-1.172-.531-.875-.531-1.89-.531-2.703Zm-4.985-.266c.125-2.468 1.453-3.015 2.14-3.015 1.173 0 1.97 1.094 1.985 3.016Zm0 0"/><path id="h" d="M3.781 2.906c-1.094 0-1.156-.062-1.156-.734v-3.219C3.109-.328 3.844.141 4.75.141c1.719 0 3.469-1.516 3.469-3.86 0-2.172-1.5-3.828-3.281-3.828-1.032 0-1.875.578-2.36 1.266v-1.266l-2.047.188v.453c1.016 0 1.172.11 1.172.937v8.14c0 .657-.062.735-1.172.735v.453c.422-.03 1.172-.03 1.625-.03.438 0 1.219 0 1.625.03ZM2.625-5.406c0-.235 0-.61.656-1.235.094-.078.672-.593 1.547-.593 1.25 0 2.281 1.562 2.281 3.53 0 1.97-1.093 3.563-2.453 3.563-.625 0-1.297-.296-1.812-1.093-.219-.391-.219-.485-.219-.766Zm0 0"/><path id="i" d="M5.328-7.266c0-.312-.031-.328-.125-.328-.078 0-.094.016-.297.282-.047.062-.203.234-.25.296-.562-.578-1.328-.593-1.625-.593-1.906 0-2.594 1-2.594 2 0 1.546 1.75 1.906 2.25 2.015 1.079.219 1.47.281 1.829.594.218.203.593.594.593 1.203 0 .734-.406 1.656-2 1.656-1.484 0-2.03-1.14-2.328-2.656-.062-.234-.062-.25-.203-.25-.125 0-.14.016-.14.36v2.484c0 .312.015.328.109.328s.11-.016.187-.156c.11-.157.375-.578.47-.75.343.469.952.922 1.905.922 1.72 0 2.625-.938 2.625-2.282a2.01 2.01 0 0 0-.687-1.546c-.516-.532-1.125-.657-1.844-.797-.953-.204-2.156-.438-2.156-1.485 0-.453.25-1.406 1.984-1.406 1.844 0 1.938 1.734 1.985 2.281.015.078.093.094.156.094.156 0 .156-.047.156-.344Zm0 0"/><path id="j" d="M2.594-6.953h2.422v-.453H2.594v-3.188h-.297c-.047 1.781-.64 3.328-2.11 3.36v.28h1.5v4.829c0 .328 0 2.266 2 2.266 1.016 0 1.594-1 1.594-2.282v-.968H4.97v.953c0 1.187-.453 1.984-1.188 1.984-.5 0-1.187-.344-1.187-1.906Zm0 0"/><path id="k" d="M7.422-3.688c0-2.203-1.61-3.921-3.484-3.921-1.876 0-3.47 1.718-3.47 3.921 0 2.172 1.595 3.829 3.47 3.829 1.874 0 3.484-1.657 3.484-3.829ZM3.938-.171c-.797 0-1.5-.484-1.891-1.156-.422-.766-.485-1.734-.485-2.5 0-.719.032-1.61.485-2.39.344-.563 1.015-1.11 1.89-1.11.782 0 1.438.422 1.844 1.031.532.797.532 1.938.532 2.469 0 .672-.032 1.703-.5 2.531-.47.797-1.22 1.125-1.875 1.125Zm0 0"/><path id="p" d="M7.078-7.547h-.281L6.28-5.844c-.39-.906-1.11-1.703-2.265-1.703C2.25-7.547.562-5.969.562-3.703.563-1.453 2.157.14 3.876.14 5.203.14 5.938-.875 6.172-1.25v3.422c0 .656-.078.734-1.172.734v.453c.406-.03 1.172-.03 1.61-.03.452 0 1.218 0 1.64.03v-.453c-1.11 0-1.172-.062-1.172-.734Zm-.875 5.188c0 .734-.625 1.421-.672 1.484-.531.594-1.156.734-1.578.734-1.281 0-2.281-1.64-2.281-3.546 0-2.016 1.14-3.547 2.453-3.547 1.39 0 2.078 1.562 2.078 2.468Zm0 0"/><path id="q" d="M5.063-7.36v.454c1.015 0 1.171.11 1.171.937v3.125c0 1.453-.78 2.703-2.046 2.703-1.422 0-1.532-.843-1.532-1.734v-5.672l-2.094.188v.453c.688 0 1.157 0 1.172.687v3.313c0 1.156 0 1.89.454 2.375.218.219.656.672 1.89.672C5.547.14 6.11-1.11 6.25-1.47h.016v1.61L8.312 0v-.453c-1.015 0-1.171-.094-1.171-.922v-6.172Zm0 0"/><path id="r" d="M6.016-6.031c-.329 0-.813 0-.813.61 0 .484.39.624.61.624.125 0 .625-.062.625-.656 0-1.234-1.172-2.156-2.5-2.156C2.125-7.61.562-5.922.562-3.72c0 2.297 1.625 3.86 3.375 3.86C6.079.14 6.61-1.844 6.61-2.031c0-.063-.015-.125-.14-.125-.11 0-.125.015-.203.25C5.812-.516 4.844-.172 4.094-.172 3-.172 1.672-1.188 1.672-3.734c0-2.625 1.266-3.563 2.281-3.563.672 0 1.672.328 2.063 1.266Zm0 0"/><path id="l" d="m4.047-3.188 1.64-2.156h.516c.188 0 .563 0 .563-.422 0-.421-.375-.421-.563-.421H4.61c-.203 0-.578 0-.578.421 0 .422.344.422.688.422L3.64-3.875 2.53-5.344c.344 0 .688 0 .688-.422 0-.421-.375-.421-.578-.421H1.047c-.203 0-.578 0-.578.421 0 .422.375.422.578.422h.5L3.25-3.187 1.469-.829h-.5c-.188 0-.578 0-.578.406C.39 0 .78 0 .969 0h1.578c.203 0 .578 0 .578-.422 0-.406-.328-.406-.719-.406l1.235-1.813L4.937-.828c-.359 0-.703 0-.703.406 0 .422.375.422.579.422H6.39c.203 0 .578 0 .578-.422 0-.406-.375-.406-.578-.406h-.5Zm0 0"/><path id="m" d="M6.078-5.344h.375c.203 0 .594 0 .594-.422 0-.421-.39-.421-.594-.421H4.875c-.203 0-.594 0-.594.421 0 .422.39.422.594.422h.36C4.827-4.172 4.014-1.78 3.811-.969h-.015c-.063-.312-.125-.469-.266-.86L2.187-5.343h.344c.188 0 .578 0 .578-.422 0-.421-.39-.421-.578-.421H.953c-.203 0-.594 0-.594.421 0 .422.391.422.594.422h.375L3.344-.187c.062.14.062.171.062.187 0 .031-.375 1.281-.594 1.672-.093.156-.453.828-1.14.75.016-.047.062-.125.062-.281a.542.542 0 0 0-.562-.563c-.36 0-.563.25-.563.578 0 .547.454 1.11 1.172 1.11 1.39 0 2-1.844 2.047-1.954Zm0 0"/><path id="n" d="M6.406-5.234c.172-.157.235-.22.235-.47 0-.484-.313-.484-.594-.484H1.28c-.484 0-.593.125-.593.594v.578c0 .25 0 .579.453.579.484 0 .484-.313.484-.579v-.328H5.25L.687-.954c-.171.173-.234.22-.234.485C.453 0 .781 0 1.047 0h5.062c.47 0 .579-.125.579-.594v-.719c0-.265 0-.593-.47-.593-.468 0-.468.312-.468.593v.485H1.844Zm0 0"/><path id="F" d="M4.36-8.344c0-.219 0-.594-.423-.594-.234 0-.328.126-.406.313C3.25-8 2.781-7.25 2.016-7.187c-.204.015-.516.046-.516.421 0 .235.156.407.469.407.797 0 1.422-.594 1.453-.625v6.156h-1.25c-.203 0-.594 0-.594.406 0 .422.39.422.594.422h3.453c.203 0 .578 0 .578-.422 0-.406-.375-.406-.578-.406H4.359Zm0 0"/><path id="G" d="M6.656-4.375c0-2.672-1.422-4.563-2.968-4.563-1.563 0-2.97 1.922-2.97 4.547 0 2.672 1.423 4.563 2.97 4.563 1.562 0 2.968-1.922 2.968-4.547ZM3.688-.656c-1.141 0-2.032-1.735-2.032-3.875 0-2.14.985-3.578 2.032-3.578 1.046 0 2.03 1.437 2.03 3.578 0 2.125-.905 3.875-2.03 3.875Zm0 0"/><path id="H" d="M6.453-5.344c.344 0 .703 0 .703-.422 0-.421-.39-.421-.593-.421H4.968c-.203 0-.594 0-.594.421 0 .422.39.422.594.422h.672L4.92-.969h-.015a13.627 13.627 0 0 0-.437-1.64c-.25-.938-.297-1.11-.766-1.11-.469 0-.515.172-.781 1.094-.281.969-.39 1.39-.422 1.656h-.016l-.75-4.375h.672c.203 0 .594 0 .594-.422 0-.421-.39-.421-.594-.421H.796c-.187 0-.577 0-.577.421 0 .422.36.422.703.422l.86 4.875c.077.5.312.547.64.547.562 0 .594-.125.875-1.11.125-.5.36-1.296.406-1.687h.016c.015.188.078.594.39 1.703.282.954.313 1.094.86 1.094.234 0 .531 0 .625-.531Zm0 0"/><path id="o" d="M14.36-3.953c-.954.719-1.407 1.422-1.547 1.64-.782 1.188-.922 2.282-.922 2.297 0 .204.218.204.359.204.281 0 .297-.032.375-.344.39-1.688 1.406-3.125 3.36-3.922.203-.078.25-.11.25-.234 0-.11-.094-.172-.141-.188-.75-.281-2.828-1.14-3.485-4.047-.062-.203-.078-.25-.359-.25-.14 0-.36 0-.36.203 0 .031.157 1.125.891 2.281.344.516.844 1.11 1.578 1.657H1.563c-.313 0-.61 0-.61.343 0 .36.297.36.61.36Zm0 0"/><path id="s" d="M4.656 3.484c0-.046 0-.078-.234-.312-1.438-1.453-2.234-3.813-2.234-6.75 0-2.781.671-5.172 2.328-6.86.14-.14.14-.156.14-.203 0-.093-.062-.109-.125-.109-.187 0-1.36 1.031-2.062 2.438-.735 1.437-1.063 2.984-1.063 4.734 0 1.281.203 2.984.953 4.531.844 1.719 2.016 2.64 2.172 2.64.063 0 .125-.015.125-.109Zm0 0"/><path id="t" d="M8.563-8.703c0-.531.046-.672 1.078-.672h.28v-.422c-.343.031-1.515.031-1.937.031-.421 0-1.593 0-1.953-.03v.421h.297c1.031 0 1.078.14 1.078.672v3.39H3.11v-3.39c0-.531.047-.672 1.079-.672h.28v-.422c-.343.031-1.515.031-1.937.031-.422 0-1.594 0-1.937-.03v.421h.281c1.031 0 1.078.14 1.078.672v7.61c0 .53-.047.671-1.078.671H.594V0C.938-.031 2.109-.031 2.53-.031c.422 0 1.594 0 1.938.031v-.422h-.282c-1.03 0-1.078-.14-1.078-.672V-4.89h4.297v3.797c0 .532-.047.672-1.078.672h-.297V0c.36-.031 1.532-.031 1.938-.031.437 0 1.61 0 1.953.031v-.422H9.64c-1.032 0-1.079-.14-1.079-.672Zm0 0"/><path id="u" d="M2.5-8.828a.71.71 0 0 0-.703-.703.684.684 0 0 0-.688.687c0 .422.344.703.688.703a.706.706 0 0 0 .703-.687ZM.516-6.172v.422c.921 0 1.046.078 1.046.781v3.907c0 .64-.156.64-1.093.64V0c.406-.031 1.094-.031 1.515-.031.157 0 .985 0 1.47.031v-.422c-.923 0-.985-.062-.985-.625v-5.281Zm0 0"/><path id="v" d="M1.703-2.594c.672.438 1.25.438 1.406.438 1.297 0 2.25-.969 2.25-2.078 0-.391-.109-.922-.562-1.391.547-.578 1.234-.578 1.297-.578.062 0 .125 0 .187.031a.381.381 0 0 0-.218.36c0 .203.14.375.375.375.125 0 .375-.079.375-.391a.677.677 0 0 0-.704-.656c-.75 0-1.296.453-1.5.671a2.445 2.445 0 0 0-1.484-.515c-1.281 0-2.25.984-2.25 2.078 0 .828.5 1.36.64 1.484a1.917 1.917 0 0 0-.421 1.188c0 .828.5 1.187.61 1.266C1.046-.126.39.39.39 1.14c0 .984 1.343 1.796 3.109 1.796 1.703 0 3.125-.75 3.125-1.828 0-.359-.094-1.203-.953-1.656-.734-.375-1.453-.375-2.688-.375-.875 0-.968 0-1.234-.265-.14-.141-.266-.422-.266-.72 0-.25.079-.484.22-.687Zm1.422.14c-1.266 0-1.266-1.452-1.266-1.78 0-.25 0-.844.25-1.235a1.244 1.244 0 0 1 1-.562c1.266 0 1.266 1.453 1.266 1.781 0 .266 0 .844-.25 1.234a1.204 1.204 0 0 1-1 .563Zm.39 5.095c-1.374 0-2.421-.704-2.421-1.516 0-.125.031-.688.562-1.047.328-.203.453-.203 1.453-.203 1.188 0 2.813 0 2.813 1.25 0 .844-1.094 1.516-2.406 1.516Zm0 0"/><path id="w" d="M6.39-3.484c0-1.329 0-1.735-.343-2.204-.406-.546-1.078-.64-1.578-.64-1.235 0-1.797.937-2 1.375h-.016v-5l-2 .156v.422c.984 0 1.094.094 1.094.797v7.515c0 .641-.156.641-1.094.641V0C.828-.031 1.61-.031 2.016-.031c.406 0 1.187 0 1.562.031v-.422c-.922 0-1.094 0-1.094-.64v-2.672c0-1.5.985-2.297 1.875-2.297.891 0 1.094.718 1.094 1.593v3.375c0 .641-.156.641-1.094.641V0c.375-.031 1.157-.031 1.547-.031.422 0 1.188 0 1.563.031v-.422c-.719 0-1.078 0-1.078-.422Zm0 0"/><path id="x" d="M4.703-6.063c0-.265 0-.328-.14-.328-.11 0-.391.313-.485.438-.453-.36-.89-.438-1.36-.438-1.734 0-2.25.938-2.25 1.735 0 .156 0 .656.548 1.156.468.406.953.5 1.609.625.781.156.969.203 1.328.5.266.203.453.531.453.922 0 .625-.36 1.312-1.625 1.312-.937 0-1.64-.546-1.953-1.984-.047-.25-.047-.266-.062-.281C.734-2.47.672-2.47.625-2.47c-.156 0-.156.078-.156.328v1.954c0 .265 0 .328.14.328.079 0 .094-.016.344-.313.063-.094.063-.125.281-.36.547.673 1.313.673 1.563.673 1.5 0 2.25-.829 2.25-1.97 0-.765-.469-1.234-.594-1.359-.516-.437-.906-.53-1.86-.703-.421-.078-1.468-.28-1.468-1.14 0-.453.297-1.11 1.594-1.11 1.562 0 1.64 1.329 1.672 1.782.015.109.109.109.156.109.156 0 .156-.063.156-.328Zm0 0"/><path id="y" d="M4.36-6.172v.422c.968 0 1.093.094 1.093.797v2.578c0 1.219-.64 2.234-1.719 2.234-1.187 0-1.25-.671-1.25-1.437v-4.75l-2.03.156v.422c1.093 0 1.093.047 1.093 1.313v2.156c0 .89 0 1.406.437 1.875.344.375.922.547 1.657.547.25 0 .703 0 1.187-.407.422-.343.656-.875.656-.875V.141L7.47 0v-.422c-.969 0-1.078-.094-1.078-.797v-5.11Zm0 0"/><path id="z" d="M2.39-3.344c0-1.39.579-2.687 1.688-2.687h.203c-.125.062-.343.156-.343.531 0 .422.328.578.546.578.297 0 .579-.187.579-.578 0-.422-.391-.828-1-.828-1.22 0-1.641 1.328-1.72 1.594h-.015v-1.594l-1.922.156v.422c.969 0 1.078.094 1.078.797v3.89c0 .641-.156.641-1.078.641V0c.39-.031 1.188-.031 1.61-.031.39 0 1.406 0 1.75.031v-.422h-.297c-1.047 0-1.078-.156-1.078-.672Zm0 0"/><path id="A" d="M6.578-3.063c0-1.859-1.406-3.328-3.062-3.328-1.72 0-3.079 1.516-3.079 3.329C.438-1.234 1.86.14 3.5.14c1.688 0 3.078-1.407 3.078-3.204ZM3.516-.171c-.532 0-1.172-.234-1.594-.937-.39-.641-.406-1.485-.406-2.094 0-.547 0-1.422.453-2.063A1.836 1.836 0 0 1 3.5-6.109c.563 0 1.156.25 1.547.812.453.656.453 1.563.453 2.094 0 .5 0 1.39-.375 2.062-.406.704-1.063.97-1.61.97Zm0 0"/><path id="B" d="M5.531-3.828c0-.781 0-1.344-.625-1.906-.5-.47-1.14-.657-1.781-.657-1.172 0-2.078.766-2.078 1.704 0 .406.266.609.61.609.343 0 .577-.234.577-.578 0-.594-.515-.594-.734-.594.344-.61 1.031-.86 1.594-.86.672 0 1.515.548 1.515 1.829v.578C1.72-3.656.625-2.453.625-1.343.625-.22 1.953.14 2.828.14c.938 0 1.594-.579 1.86-1.266.062.688.5 1.203 1.125 1.203.296 0 1.125-.203 1.125-1.36v-.796h-.313v.797c0 .828-.344.937-.547.937-.547 0-.547-.765-.547-.969ZM4.61-2.016C4.61-.609 3.563-.14 2.938-.14c-.704 0-1.282-.515-1.282-1.203 0-1.89 2.438-2.062 2.953-2.093Zm0 0"/><path id="C" d="M2.406-5.766h2.031v-.421h-2.03v-2.641h-.313c-.016 1.36-.531 2.734-1.828 2.781v.281h1.218v3.985C1.484-.188 2.531.14 3.297.14c.906 0 1.375-.891 1.375-1.922v-.813h-.313v.781c0 1.032-.421 1.641-.968 1.641-.985 0-.985-1.328-.985-1.578Zm0 0"/><path id="D" d="M5.5-3.328c.313 0 .344 0 .344-.266 0-1.453-.782-2.797-2.516-2.797-1.64 0-2.89 1.47-2.89 3.25C.438-1.25 1.89.141 3.483.141c1.704 0 2.36-1.547 2.36-1.844 0-.094-.078-.14-.157-.14-.125 0-.156.062-.171.14C5.14-.5 4.172-.172 3.578-.172c-.61 0-2.062-.406-2.062-2.89v-.266Zm-3.969-.266c.125-2.265 1.375-2.515 1.782-2.515 1.53 0 1.624 2.015 1.64 2.515Zm0 0"/><path id="E" d="M4.047-3.578c0-1.078-.14-2.86-.953-4.531C2.25-9.83 1.078-10.75.922-10.75c-.063 0-.14.016-.14.11 0 .046 0 .062.25.312 1.437 1.453 2.234 3.812 2.234 6.75 0 2.781-.672 5.172-2.329 6.86-.156.124-.156.155-.156.202 0 .094.078.11.14.11.188 0 1.36-1.031 2.063-2.438.735-1.453 1.063-3 1.063-4.734Zm0 0"/><path id="I" d="M9.688-4.64c.203 0 .453 0 .453-.266s-.25-.266-.454-.266H1.235c-.203 0-.453 0-.453.25 0 .281.235.281.453.281Zm0 2.656c.203 0 .453 0 .453-.25 0-.282-.25-.282-.454-.282H1.235c-.203 0-.453 0-.453.266s.235.266.453.266Zm0 0"/><path id="K" d="M4.125-9.188c0-.343 0-.343-.281-.343-.344.375-1.063.906-2.531.906v.422c.328 0 1.046 0 1.828-.375v7.469c0 .515-.047.687-1.297.687H1.39V0c.39-.031 1.78-.031 2.25-.031.468 0 1.859 0 2.234.031v-.422h-.438c-1.265 0-1.312-.172-1.312-.687Zm0 0"/><path id="L" d="M8.172-3.672h-.313c-.14 1.438-.328 3.25-2.843 3.25h-1.25c-.625 0-.657-.094-.657-.562v-7.704c0-.515.032-.687 1.282-.687h.421v-.422c-.406.031-1.671.031-2.171.031-.438 0-1.704 0-2.047-.03v.421h.281c1.031 0 1.078.14 1.078.672v7.61c0 .53-.047.671-1.078.671H.594V0h7.203Zm0 0"/><path id="M" d="M8.672-4.813c.328-.906.953-.937 1.203-.953v-.421c-.36.03-.625.03-1.063.03-.421 0-.453 0-1.218-.03v.421c.64.032.812.422.812.688 0 .016 0 .11-.062.266L7.03-1.063 5.594-5.125c-.078-.172-.078-.203-.078-.234 0-.407.53-.407.843-.407v-.421c-.406.03-1 .03-1.406.03-.469 0-.5 0-1.297-.03v.421c.547 0 .735.032.89.22.079.077.25.562.345.843l-1.22 3.5L2.298-5.11c-.078-.188-.078-.22-.078-.266 0-.39.562-.39.844-.39v-.423c-.36.032-1.079.032-1.47.032-.405 0-.437 0-1.327-.032v.422c.718 0 .875.063 1.03.516L3.095-.11c.062.157.11.25.265.25.125 0 .204-.046.266-.265l1.438-4.094L6.5-.125c.063.219.14.266.266.266.156 0 .203-.094.265-.25Zm0 0"/><path id="J" d="M9.453-3.297c.25 0 .5 0 .5-.281 0-.297-.25-.297-.5-.297H1.688c-.235 0-.5 0-.5.297 0 .281.265.281.5.281Zm0 0"/></defs><use xlink:href="#a" x="36.792" y="32.826"/><use xlink:href="#b" x="48.056" y="32.826"/><use xlink:href="#c" x="52.353" y="32.826"/><use xlink:href="#d" x="61.148" y="32.826"/><use xlink:href="#e" x="69.043" y="32.826"/><use xlink:href="#f" x="75.139" y="32.826"/><use xlink:href="#e" x="88.752" y="32.826"/><use xlink:href="#g" x="94.847" y="32.826"/><use xlink:href="#h" x="101.844" y="32.826"/><use xlink:href="#e" x="110.639" y="32.826"/><use xlink:href="#g" x="116.735" y="32.826"/><use xlink:href="#i" x="123.731" y="32.826"/><use xlink:href="#g" x="129.919" y="32.826"/><use xlink:href="#c" x="136.915" y="32.826"/><use xlink:href="#j" x="145.263" y="32.826"/><use xlink:href="#d" x="151.359" y="32.826"/><use xlink:href="#j" x="159.254" y="32.826"/><use xlink:href="#b" x="165.35" y="32.826"/><use xlink:href="#k" x="169.647" y="32.826"/><use xlink:href="#c" x="177.542" y="32.826"/><use xlink:href="#l" x="69.782" y="60.809"/><use xlink:href="#l" x="77.165" y="60.809"/><use xlink:href="#l" x="84.547" y="60.809"/><use xlink:href="#l" x="91.93" y="60.809"/><use xlink:href="#l" x="104.577" y="60.809"/><use xlink:href="#l" x="111.96" y="60.809"/><use xlink:href="#l" x="119.342" y="60.809"/><use xlink:href="#l" x="126.725" y="60.809"/><use xlink:href="#l" x="139.373" y="60.809"/><use xlink:href="#l" x="146.755" y="60.809"/><use xlink:href="#l" x="154.138" y="60.809"/><use xlink:href="#l" x="161.52" y="60.809"/><use xlink:href="#l" x="174.153" y="60.809"/><use xlink:href="#l" x="181.536" y="60.809"/><use xlink:href="#l" x="188.919" y="60.809"/><use xlink:href="#l" x="196.301" y="60.809"/><use xlink:href="#l" x="22.345" y="89.155"/><use xlink:href="#l" x="34.993" y="89.155"/><use xlink:href="#l" x="42.375" y="89.155"/><use xlink:href="#l" x="49.758" y="89.155"/><use xlink:href="#l" x="57.14" y="89.155"/><use xlink:href="#m" x="69.788" y="89.155"/><use xlink:href="#m" x="77.17" y="89.155"/><use xlink:href="#m" x="84.553" y="89.155"/><use xlink:href="#m" x="91.936" y="89.155"/><use xlink:href="#m" x="104.569" y="89.155"/><use xlink:href="#m" x="111.951" y="89.155"/><use xlink:href="#n" x="119.334" y="89.155"/><use xlink:href="#n" x="126.716" y="89.155"/><use xlink:href="#n" x="139.364" y="89.155"/><use xlink:href="#n" x="146.747" y="89.155"/><use xlink:href="#n" x="154.129" y="89.155"/><use xlink:href="#n" x="161.512" y="89.155"/><use xlink:href="#n" x="174.159" y="89.155"/><use xlink:href="#n" x="181.542" y="89.155"/><use xlink:href="#n" x="188.924" y="89.155"/><use xlink:href="#n" x="196.307" y="89.155"/><use xlink:href="#o" x="216.34" y="61.173"/><use xlink:href="#o" x="216.34" y="89.519"/><use xlink:href="#a" x="353.078" y="33.207"/><use xlink:href="#f" x="364.342" y="33.207"/><use xlink:href="#j" x="372.686" y="33.207"/><use xlink:href="#g" x="378.782" y="33.207"/><use xlink:href="#i" x="391.047" y="33.207"/><use xlink:href="#g" x="397.234" y="33.207"/><use xlink:href="#p" x="404.23" y="33.207"/><use xlink:href="#q" x="412.574" y="33.207"/><use xlink:href="#g" x="421.37" y="33.207"/><use xlink:href="#c" x="428.366" y="33.207"/><use xlink:href="#r" x="437.161" y="33.207"/><use xlink:href="#g" x="444.158" y="33.207"/><use xlink:href="#l" x="246.208" y="60.809"/><use xlink:href="#l" x="253.591" y="60.809"/><use xlink:href="#l" x="260.973" y="60.809"/><use xlink:href="#l" x="268.356" y="60.809"/><use xlink:href="#l" x="281.003" y="60.809"/><use xlink:href="#l" x="288.386" y="60.809"/><use xlink:href="#l" x="295.768" y="60.809"/><use xlink:href="#l" x="303.151" y="60.809"/><use xlink:href="#l" x="315.799" y="60.809"/><use xlink:href="#l" x="323.181" y="60.809"/><use xlink:href="#l" x="330.564" y="60.809"/><use xlink:href="#l" x="337.946" y="60.809"/><use xlink:href="#l" x="350.579" y="60.809"/><use xlink:href="#l" x="357.962" y="60.809"/><use xlink:href="#l" x="365.345" y="60.809"/><use xlink:href="#l" x="372.727" y="60.809"/><use xlink:href="#s" x="246.208" y="91.073"/><use xlink:href="#t" x="251.671" y="91.073"/><use xlink:href="#u" x="262.201" y="91.073"/><use xlink:href="#v" x="266.103" y="91.073"/><use xlink:href="#w" x="273.127" y="91.073"/><use xlink:href="#x" x="286.197" y="91.073"/><use xlink:href="#y" x="291.737" y="91.073"/><use xlink:href="#z" x="299.541" y="91.073"/><use xlink:href="#z" x="305.004" y="91.073"/><use xlink:href="#A" x="310.467" y="91.073"/><use xlink:href="#v" x="317.491" y="91.073"/><use xlink:href="#B" x="324.515" y="91.073"/><use xlink:href="#C" x="331.539" y="91.073"/><use xlink:href="#D" x="337.002" y="91.073"/><use xlink:href="#E" x="343.246" y="91.073"/><use xlink:href="#F" x="246.208" y="108.383"/><use xlink:href="#F" x="253.591" y="108.383"/><use xlink:href="#G" x="260.973" y="108.383"/><use xlink:href="#F" x="268.356" y="108.383"/><use xlink:href="#F" x="281.003" y="108.383"/><use xlink:href="#G" x="288.386" y="108.383"/><use xlink:href="#H" x="295.768" y="108.383"/><use xlink:href="#H" x="303.151" y="108.383"/><use xlink:href="#H" x="315.799" y="108.383"/><use xlink:href="#H" x="323.181" y="108.383"/><use xlink:href="#m" x="330.564" y="108.383"/><use xlink:href="#m" x="337.946" y="108.383"/><use xlink:href="#m" x="350.579" y="108.383"/><use xlink:href="#m" x="357.962" y="108.383"/><use xlink:href="#m" x="365.345" y="108.383"/><use xlink:href="#m" x="372.727" y="108.383"/><use xlink:href="#s" x="394.161" y="108.383"/><use xlink:href="#H" x="399.624" y="108.383"/><use xlink:href="#H" x="407.007" y="108.383"/><use xlink:href="#H" x="414.389" y="108.383"/><use xlink:href="#H" x="421.772" y="108.383"/><use xlink:href="#I" x="433.138" y="108.383"/><use xlink:href="#l" x="448.048" y="108.383"/><use xlink:href="#l" x="455.431" y="108.383"/><use xlink:href="#l" x="462.813" y="108.383"/><use xlink:href="#l" x="470.196" y="108.383"/><use xlink:href="#l" x="477.578" y="108.383"/><use xlink:href="#J" x="488.148" y="108.383"/><use xlink:href="#K" x="502.494" y="108.383"/><use xlink:href="#E" x="509.518" y="108.383"/><use xlink:href="#s" x="246.208" y="129.677"/><use xlink:href="#L" x="251.671" y="129.677"/><use xlink:href="#A" x="260.448" y="129.677"/><use xlink:href="#M" x="267.085" y="129.677"/><use xlink:href="#x" x="282.495" y="129.677"/><use xlink:href="#y" x="288.036" y="129.677"/><use xlink:href="#z" x="295.84" y="129.677"/><use xlink:href="#z" x="301.303" y="129.677"/><use xlink:href="#A" x="306.766" y="129.677"/><use xlink:href="#v" x="313.79" y="129.677"/><use xlink:href="#B" x="320.8" y="129.677"/><use xlink:href="#C" x="327.824" y="129.677"/><use xlink:href="#D" x="333.287" y="129.677"/><use xlink:href="#E" x="339.53" y="129.677"/><use xlink:href="#F" x="246.208" y="148.805"/><use xlink:href="#F" x="253.591" y="148.805"/><use xlink:href="#G" x="260.973" y="148.805"/><use xlink:href="#F" x="268.356" y="148.805"/><use xlink:href="#F" x="281.003" y="148.805"/><use xlink:href="#F" x="288.386" y="148.805"/><use xlink:href="#n" x="295.768" y="148.805"/><use xlink:href="#n" x="303.151" y="148.805"/><use xlink:href="#n" x="315.799" y="148.805"/><use xlink:href="#n" x="323.181" y="148.805"/><use xlink:href="#n" x="330.564" y="148.805"/><use xlink:href="#n" x="337.946" y="148.805"/><use xlink:href="#n" x="350.579" y="148.805"/><use xlink:href="#n" x="357.962" y="148.805"/><use xlink:href="#n" x="365.345" y="148.805"/><use xlink:href="#n" x="372.727" y="148.805"/></svg>