<svg xmlns="http://www.w3.org/2000/svg" xmlns:xlink="http://www.w3.org/1999/xlink" width="567.646" height="145.77"><defs><path id="a" d="M7.797-8.14c0-.22 0-.282-.125-.282-.063 0-.078.031-.156.156l-.579.938C6.391-8 5.579-8.422 4.72-8.422 2.53-8.422.64-6.532.64-4.094.64-1.609 2.562.25 4.719.25c1.968 0 3.078-1.703 3.078-3.016 0-.14 0-.203-.14-.203-.11 0-.126.047-.126.14-.11 1.892-1.5 2.735-2.656 2.735-.828 0-3.125-.5-3.125-4 0-3.453 2.25-3.968 3.11-3.968C6.124-8.063 7.218-7 7.452-5.22c.031.157.031.188.172.188.172 0 .172-.032.172-.282Zm0 0"/><path id="b" d="M5.484-2.563c0-1.53-1.171-2.765-2.562-2.765C1.5-5.328.359-4.062.359-2.562.36-1.032 1.547.124 2.922.124c1.406 0 2.562-1.172 2.562-2.688ZM2.922-.14c-.438 0-.969-.187-1.313-.78-.328-.532-.343-1.235-.343-1.75 0-.454 0-1.173.375-1.72.328-.515.859-.703 1.28-.703.454 0 .97.219 1.282.688.375.547.375 1.297.375 1.734 0 .422 0 1.172-.312 1.735-.329.562-.891.796-1.344.796Zm0 0"/><path id="c" d="M3.578-8.156v.344c.828 0 .922.078.922.671V-4.5A1.829 1.829 0 0 0 3-5.266C1.61-5.266.422-4.094.422-2.562.422-1.048 1.547.124 2.875.124c.906 0 1.422-.61 1.594-.828v.828L6.156 0v-.344c-.812 0-.906-.094-.906-.672v-7.28Zm.89 6.75c0 .218 0 .265-.171.515-.281.422-.766.766-1.375.766-.297 0-1.594-.11-1.594-2.438 0-.859.14-1.328.406-1.734.235-.36.72-.734 1.313-.734.75 0 1.156.531 1.281.734.14.203.14.219.14.438Zm0 0"/><path id="d" d="M4.578-2.766c.266 0 .281 0 .281-.234 0-1.203-.64-2.328-2.093-2.328-1.36 0-2.407 1.234-2.407 2.703 0 1.578 1.22 2.75 2.547 2.75 1.422 0 1.953-1.297 1.953-1.547 0-.078-.046-.125-.125-.125-.093 0-.125.063-.14.125-.313 1-1.11 1.281-1.625 1.281-.5 0-1.703-.343-1.703-2.406v-.219ZM1.281-3c.094-1.875 1.14-2.094 1.485-2.094 1.28 0 1.343 1.688 1.359 2.094Zm0 0"/><path id="e" d="M2.922 1.969c-.766 0-.906 0-.906-.532V-.64c.218.297.703.766 1.468.766 1.375 0 2.594-1.172 2.594-2.703 0-1.516-1.125-2.688-2.437-2.688-1.047 0-1.61.75-1.641.797v-.797L.328-5.14v.344c.844 0 .922.094.922.61v5.625c0 .53-.14.53-.922.53v.345c.313-.016.969-.016 1.297-.016.344 0 1 0 1.297.015Zm-.906-5.782c0-.234 0-.234.14-.437.36-.531.938-.766 1.39-.766.907 0 1.61 1.094 1.61 2.438 0 1.422-.812 2.453-1.718 2.453a1.49 1.49 0 0 1-.97-.375c-.265-.281-.452-.516-.452-.844Zm0 0"/><path id="f" d="M2.078-7.36a.59.59 0 0 0-.578-.593.577.577 0 0 0-.578.578c0 .36.281.578.578.578.36 0 .578-.297.578-.562ZM.438-5.14v.343c.75 0 .859.078.859.656v3.25c0 .547-.125.547-.906.547V0c.343-.031.906-.031 1.265-.031.125 0 .813 0 1.219.031v-.344c-.766 0-.813-.062-.813-.531v-4.39Zm0 0"/><path id="g" d="M5.313-2.906c0-1.11 0-1.438-.266-1.828-.344-.47-.906-.532-1.313-.532-1.171 0-1.625.985-1.718 1.22v-1.22L.375-5.14v.344c.813 0 .922.094.922.672v3.234c0 .547-.14.547-.922.547V0c.313-.031.969-.031 1.297-.031.344 0 1 0 1.297.031v-.344c-.75 0-.906 0-.906-.547v-2.218c0-1.25.828-1.922 1.578-1.922.734 0 .906.61.906 1.343V-.89c0 .547-.14.547-.906.547V0c.296-.031.953-.031 1.28-.031.345 0 1 0 1.313.031v-.344c-.609 0-.906 0-.921-.36Zm0 0"/><path id="h" d="M2.016-4.813h1.671v-.343H2.016v-2.188H1.75c-.016 1.11-.453 2.266-1.531 2.297v.234h1.015v3.329C1.234-.156 2.11.125 2.75.125c.75 0 1.14-.75 1.14-1.61v-.671h-.25v.656c0 .86-.359 1.36-.812 1.36-.812 0-.812-1.11-.812-1.313Zm0 0"/><path id="j" d="M3.438-7.656c0-.282 0-.297-.235-.297-.281.328-.89.766-2.11.766v.343c.266 0 .86 0 1.532-.297v6.22c0 .437-.047.577-1.094.577h-.375V0c.328-.031 1.485-.031 1.875-.031.406 0 1.547 0 1.875.031v-.344h-.375c-1.047 0-1.093-.14-1.093-.578Zm0 0"/><path id="k" d="M1.469-4.156c0-3.032 1.468-3.5 2.11-3.5.437 0 .874.125 1.093.484-.14 0-.594 0-.594.484 0 .266.172.5.484.5.297 0 .5-.187.5-.53 0-.626-.453-1.235-1.484-1.235-1.515 0-3.094 1.547-3.094 4.172C.484-.484 1.922.25 2.938.25 4.25.25 5.358-.89 5.358-2.438c0-1.593-1.109-2.656-2.312-2.656-1.063 0-1.453.922-1.578 1.25ZM2.937-.078c-.75 0-1.109-.656-1.218-.906-.11-.313-.219-.907-.219-1.735 0-.953.422-2.14 1.5-2.14.656 0 1 .453 1.188.859.187.438.187 1.031.187 1.547 0 .61 0 1.156-.234 1.61-.297.562-.72.765-1.204.765Zm0 0"/><path id="l" d="m2-8.297-1.672.14v.345c.813 0 .922.078.922.671V0h.25c.047-.094.39-.688.438-.781.28.453.78.906 1.546.906 1.375 0 2.594-1.172 2.594-2.703 0-1.516-1.125-2.688-2.453-2.688-.656 0-1.219.297-1.625.797Zm.016 4.469c0-.219 0-.235.14-.422.281-.438.813-.781 1.39-.781.36 0 1.61.14 1.61 2.437 0 .797-.11 1.297-.406 1.735a1.566 1.566 0 0 1-1.313.734c-.64 0-1.062-.406-1.265-.734-.156-.25-.156-.297-.156-.5Zm0 0"/><path id="m" d="M3.89 2.906c0-.031 0-.062-.203-.265C2.484 1.437 1.813-.531 1.813-2.97c0-2.328.562-4.328 1.953-5.734.125-.11.125-.125.125-.172 0-.063-.063-.094-.11-.094-.156 0-1.14.86-1.719 2.031-.609 1.22-.89 2.485-.89 3.97 0 1.062.172 2.484.781 3.75C2.672 2.218 3.641 3 3.781 3c.047 0 .11-.031.11-.094Zm0 0"/><path id="q" d="M5.844-3.063v-.234H0v.235Zm0 0"/><path id="s" d="M3.375-2.969c0-.922-.125-2.39-.797-3.781C1.875-8.188.891-8.969.766-8.969c-.047 0-.11.031-.11.094 0 .047 0 .063.203.266 1.204 1.203 1.86 3.187 1.86 5.625 0 2.312-.563 4.312-1.938 5.718-.125.11-.125.141-.125.172 0 .063.063.094.11.094.156 0 1.14-.86 1.718-2.031.61-1.219.891-2.516.891-3.938Zm0 0"/><path id="t" d="M5.266-2.016H5c-.047.204-.14.875-.25 1.063-.094.11-.766.11-1.125.11H1.406c.328-.282 1.063-1.048 1.36-1.329 1.828-1.672 2.5-2.297 2.5-3.484 0-1.375-1.094-2.297-2.485-2.297-1.375 0-2.203 1.187-2.203 2.219 0 .609.531.609.563.609.265 0 .562-.188.562-.563 0-.343-.219-.562-.562-.562-.094 0-.125 0-.157.016.22-.813.875-1.375 1.641-1.375 1.016 0 1.64.859 1.64 1.953 0 1.015-.577 1.906-1.265 2.672L.578-.281V0h4.375Zm0 0"/><path id="v" d="M2.203-4.578a.587.587 0 0 0-.578-.578.576.576 0 0 0-.578.578c0 .36.297.578.562.578a.58.58 0 0 0 .594-.578Zm0 4a.587.587 0 0 0-.578-.578.567.567 0 0 0-.578.578c0 .344.297.578.562.578a.58.58 0 0 0 .594-.578Zm0 0"/><path id="w" d="M.516-8.156v.344H.75c.86 0 .906.109.906.562v6.344c0 .437-.047.562-.906.562H.516V0h4.5c1.53 0 2.609-1.047 2.609-2.188 0-.968-.875-1.921-2.297-2.078 1.14-.218 1.969-.984 1.969-1.875 0-1.03-1.047-2.015-2.61-2.015ZM2.562-4.36v-2.985c0-.39.016-.468.547-.468h1.5c1.204 0 1.625 1.015 1.625 1.671 0 .782-.609 1.782-1.937 1.782ZM3.11-.344c-.53 0-.546-.094-.546-.484v-3.297h2.234c1.14 0 1.734 1 1.734 1.922 0 .969-.718 1.86-1.89 1.86Zm0 0"/><path id="x" d="M4.61-3.188c0-.656 0-1.124-.516-1.593a2.242 2.242 0 0 0-1.485-.547c-.984 0-1.734.64-1.734 1.422 0 .344.219.515.5.515s.484-.203.484-.5c0-.484-.421-.484-.609-.484.281-.5.86-.719 1.328-.719.547 0 1.266.453 1.266 1.532v.484C1.438-3.047.53-2.047.53-1.125c0 .953 1.094 1.25 1.828 1.25.782 0 1.329-.484 1.547-1.063.047.563.422 1 .938 1 .25 0 .937-.171.937-1.125v-.671h-.265v.671c0 .688-.282.782-.454.782-.453 0-.453-.64-.453-.813Zm-.766 1.5c0 1.172-.875 1.563-1.39 1.563-.595 0-1.079-.422-1.079-1 0-1.578 2.031-1.719 2.469-1.75Zm0 0"/><path id="y" d="M2-2.781c0-1.156.469-2.25 1.39-2.25.094 0 .126 0 .172.015-.093.047-.28.11-.28.438 0 .344.265.484.452.484.25 0 .485-.156.485-.484 0-.36-.328-.688-.844-.688-1.016 0-1.36 1.094-1.422 1.329h-.016v-1.329L.329-5.14v.344c.813 0 .922.094.922.672v3.234c0 .547-.14.547-.922.547V0c.344-.031 1-.031 1.36-.031.328 0 1.171 0 1.437.031v-.344h-.234C2.016-.344 2-.484 2-.906Zm0 0"/><path id="z" d="M4.844-4c.312-.797.875-.813 1.11-.813v-.343c-.345.031-.516.031-.891.031-.282 0-.313 0-.97-.031v.343c.438.032.548.313.548.516 0 .11-.032.172-.079.297L3.345-.984 2.016-4.25c-.063-.156-.063-.234-.063-.25 0-.313.406-.313.656-.313v-.343c-.312.031-.906.031-1.234.031-.453 0-.484 0-1.156-.031v.343c.687 0 .781.063.937.438L2.938 0c-.516 1.266-.516 1.297-.579 1.39-.203.36-.515.813-1.062.813-.36 0-.594-.219-.594-.219s.422-.046.422-.468a.436.436 0 0 0-.438-.438c-.203 0-.453.11-.453.469 0 .453.438.89 1.063.89.672 0 1.172-.578 1.469-1.343Zm0 0"/><path id="A" d="M3.922-5.063c0-.203 0-.265-.125-.265-.094 0-.313.266-.406.375-.36-.313-.735-.375-1.125-.375C.828-5.328.39-4.547.39-3.891c0 .141 0 .563.453.97.39.343.797.421 1.344.53.656.125.812.172 1.109.407a.97.97 0 0 1 .375.78c0 .516-.297 1.079-1.36 1.079-.78 0-1.359-.453-1.624-1.64C.64-1.986.64-2 .64-2.016c-.032-.047-.079-.047-.11-.047-.14 0-.14.062-.14.28v1.626c0 .218 0 .281.125.281.062 0 .062-.016.265-.266.063-.093.063-.109.25-.296.453.562 1.094.562 1.297.562 1.25 0 1.875-.703 1.875-1.64 0-.641-.39-1.032-.5-1.141-.422-.375-.75-.438-1.547-.578-.344-.079-1.219-.25-1.219-.97 0-.359.25-.905 1.329-.905C3.562-5.11 3.64-4 3.656-3.641c.016.11.094.11.14.11.126 0 .126-.063.126-.281Zm0 0"/><path id="F" d="M5.25-5.266h-.234l-.454 1.11c-.218-.453-.671-1.11-1.593-1.11C1.656-5.266.422-4.14.422-2.562c0 1.515 1.14 2.687 2.453 2.687.64 0 1.172-.297 1.594-.906v2.219c0 .53-.125.53-.907.53v.345c.313-.016.954-.016 1.297-.016.344 0 .985 0 1.297.015V1.97c-.765 0-.906 0-.906-.532ZM4.5-1.609c0 .39-.219.734-.5 1.015a1.442 1.442 0 0 1-1.063.469c-.906 0-1.609-1.125-1.609-2.438 0-1.437.828-2.453 1.719-2.453C4-5.016 4.5-3.984 4.5-3.359Zm0 0"/><path id="G" d="M3.64-5.14v.343c.813 0 .907.094.907.672v2.14c0 1.016-.547 1.86-1.438 1.86-.984 0-1.046-.563-1.046-1.188v-3.953L.375-5.14v.344c.922 0 .922.047.922 1.11v1.78c0 .75 0 1.173.36 1.579.28.297.765.453 1.374.453.203 0 .594 0 1-.36.344-.265.532-.718.532-.718V.125L6.234 0v-.344c-.812 0-.921-.094-.921-.672v-4.25Zm0 0"/><path id="H" d="M4.328-4.422c-.14 0-.594 0-.594.484 0 .297.204.5.5.5.266 0 .5-.171.5-.515 0-.797-.843-1.375-1.812-1.375-1.39 0-2.5 1.234-2.5 2.75 0 1.531 1.14 2.703 2.5 2.703 1.578 0 1.937-1.438 1.937-1.547 0-.11-.093-.11-.125-.11-.109 0-.125.032-.156.188C4.312-.5 3.672-.14 3.031-.14c-.734 0-1.703-.64-1.703-2.453 0-1.984 1.016-2.469 1.61-2.469.453 0 1.109.172 1.39.641Zm0 0"/><path id="I" d="M7.14-7.25c0-.453.032-.563.891-.563h.235v-.343c-.282.015-1.266.015-1.61.015-.36 0-1.343 0-1.625-.015v.344h.235c.859 0 .906.109.906.562v2.828H2.594V-7.25c0-.453.031-.563.89-.563h.25v-.343c-.296.015-1.265.015-1.625.015-.359 0-1.328 0-1.625-.015v.344h.25c.86 0 .891.109.891.562v6.344c0 .437-.031.562-.89.562h-.25V0C.78-.031 1.75-.031 2.108-.031c.36 0 1.329 0 1.625.031v-.344h-.25c-.859 0-.89-.125-.89-.562v-3.172h3.578v3.172c0 .437-.047.562-.906.562H5.03V0c.282-.031 1.266-.031 1.61-.031.359 0 1.343 0 1.625.031v-.344H8.03c-.86 0-.89-.125-.89-.562Zm0 0"/><path id="J" d="M1.422-2.156c.562.36 1.047.36 1.172.36 1.078 0 1.875-.813 1.875-1.735 0-.313-.094-.766-.469-1.156.453-.47 1.016-.47 1.078-.47.047 0 .11 0 .156.016-.125.047-.171.172-.171.297 0 .172.109.313.296.313.11 0 .313-.063.313-.328a.556.556 0 0 0-.578-.547c-.625 0-1.094.39-1.25.562a2.067 2.067 0 0 0-1.235-.422c-1.078 0-1.875.813-1.875 1.735 0 .672.407 1.11.532 1.219-.141.187-.36.53-.36 1 0 .687.422.984.516 1.046C.875-.109.328.328.328.938c0 .828 1.125 1.515 2.594 1.515 1.422 0 2.594-.64 2.594-1.531 0-.297-.079-1-.797-1.375-.61-.313-1.203-.313-2.235-.313-.734 0-.812 0-1.03-.218a.982.982 0 0 1-.22-.61c0-.203.063-.406.188-.562Zm1.187.11c-1.062 0-1.062-1.204-1.062-1.485 0-.203 0-.703.203-1.016.234-.36.594-.469.844-.469 1.047 0 1.047 1.204 1.047 1.485 0 .203 0 .703-.204 1.015a.97.97 0 0 1-.828.47Zm.313 4.25C1.782 2.203.906 1.608.906.936c0-.093.031-.562.485-.875.265-.171.359-.171 1.203-.171.984 0 2.344 0 2.344 1.046 0 .704-.907 1.266-2.016 1.266Zm0 0"/><path id="K" d="M5.313-2.906c0-1.11 0-1.438-.266-1.828-.344-.47-.906-.532-1.313-.532-1.03 0-1.515.766-1.671 1.141h-.016v-4.172l-1.672.14v.345c.813 0 .922.078.922.671v6.25c0 .547-.14.547-.922.547V0c.313-.031.969-.031 1.297-.031.344 0 1 0 1.297.031v-.344c-.75 0-.906 0-.906-.547v-2.218c0-1.25.828-1.922 1.578-1.922.734 0 .906.61.906 1.343V-.89c0 .547-.14.547-.906.547V0c.296-.031.953-.031 1.28-.031.345 0 1 0 1.313.031v-.344c-.609 0-.906 0-.921-.36Zm0 0"/><path id="M" d="M8.063-3.875c.171 0 .39 0 .39-.219 0-.218-.203-.218-.39-.218H1.03c-.172 0-.39 0-.39.218 0 .219.203.219.39.219Zm0 2.219c.171 0 .39 0 .39-.203 0-.235-.203-.235-.39-.235H1.03c-.172 0-.39 0-.39.219s.203.219.39.219Zm0 0"/><path id="O" d="M6.813-3.063h-.266c-.11 1.204-.266 2.72-2.36 2.72H3.141c-.516 0-.547-.094-.547-.485V-7.25c0-.422.031-.563 1.062-.563h.36v-.343c-.344.015-1.391.015-1.813.015-.36 0-1.422 0-1.719-.015v.344h.25c.86 0 .891.109.891.562v6.344c0 .437-.031.562-.89.562h-.25V0H6.5Zm0 0"/><path id="P" d="M7.234-4.016c.266-.75.782-.78.985-.796v-.344c-.297.031-.516.031-.875.031-.344 0-.375 0-1.016-.031v.343c.531.032.672.36.672.579 0 .015 0 .093-.047.218L5.86-.89 4.656-4.266c-.047-.14-.047-.171-.047-.203 0-.343.438-.343.688-.343v-.344c-.344.031-.828.031-1.172.031-.39 0-.406 0-1.078-.031v.343c.453 0 .61.032.75.188.047.078.203.469.281.703L3.062-1 1.907-4.25c-.047-.156-.047-.188-.047-.234 0-.329.454-.329.688-.329v-.343c-.297.031-.89.031-1.219.031-.344 0-.36 0-1.11-.031v.343c.61 0 .72.063.86.438l1.5 4.281c.047.125.094.219.219.219.11 0 .172-.047.234-.234L4.22-3.516 5.422-.109c.047.187.11.234.219.234.125 0 .171-.094.218-.219Zm0 0"/><path id="i" d="M8.625-4c0-.25-.063-.375-.156-.375-.063 0-.156.078-.172.313-.047 1.14-.844 1.796-1.672 1.796-.75 0-1.328-.5-1.922-1.015-.61-.563-1.219-1.11-2.031-1.11C1.359-4.39.656-3.078.656-1.984c0 .375.156.375.172.375.125 0 .156-.235.156-.266.063-1.313.954-1.844 1.688-1.844.75 0 1.328.516 1.906 1.031.61.547 1.234 1.094 2.047 1.094 1.297 0 2-1.312 2-2.406Zm0 0"/><path id="E" d="M9.969-2.75c-.656.5-.985 1-1.078 1.14-.532.829-.625 1.579-.625 1.594 0 .141.14.141.234.141.203 0 .219-.016.266-.234.265-1.172.968-2.172 2.328-2.72.14-.046.172-.077.172-.155 0-.094-.063-.125-.094-.141-.516-.203-1.969-.797-2.422-2.797-.031-.156-.047-.187-.25-.187-.094 0-.234 0-.234.14 0 .032.093.782.609 1.578.234.36.578.782 1.094 1.157H1.094c-.219 0-.438 0-.438.25 0 .234.219.234.438.234Zm0 0"/><path id="N" d="M7.875-2.75c.203 0 .422 0 .422-.234 0-.25-.219-.25-.422-.25H1.406c-.203 0-.422 0-.422.25 0 .234.22.234.422.234Zm0 0"/><path id="n" d="M5.25-6.61h.313c.171 0 .5 0 .5-.343 0-.344-.329-.344-.5-.344H4.14c-.157 0-.485 0-.485.344s.328.344.485.344h.328V-2.5c0 1.313-.782 1.953-1.39 1.953-.642 0-1.407-.656-1.407-1.953v-4.11H2c.156 0 .484 0 .484-.343 0-.344-.328-.344-.484-.344H.578c-.172 0-.5 0-.5.344s.328.344.5.344h.313v4.187c0 1.438 1 2.563 2.187 2.563C4.25.14 5.25-.984 5.25-2.422Zm0 0"/><path id="o" d="M3.469-3.266h1.687c.157 0 .547 0 .547-.375 0-.406-.375-.406-.547-.406H3.47V-5.75c0-.156 0-.531-.39-.531-.392 0-.392.36-.392.531v1.703H.984c-.156 0-.546 0-.546.39 0 .391.374.391.546.391h1.704v1.72c0 .14 0 .53.39.53s.39-.375.39-.53Zm0 0"/><path id="p" d="M5.547-3.64c0-2.235-1.188-3.813-2.469-3.813-1.312 0-2.484 1.61-2.484 3.797C.594-1.437 1.78.14 3.078.14s2.469-1.594 2.469-3.782ZM3.078-.548C2.125-.547 1.375-2 1.375-3.78S2.203-6.75 3.078-6.75c.86 0 1.688 1.188 1.688 2.969 0 1.765-.75 3.234-1.688 3.234Zm0 0"/><path id="r" d="M2-3.313h1.625c0 .422 0 .641.39.641.391 0 .391-.265.391-.484v-1c0-.219 0-.5-.39-.5-.391 0-.391.234-.391.656H2v-2.61h2.953v.579c0 .218 0 .5.39.5.391 0 .391-.266.391-.5v-.782c0-.375-.062-.484-.468-.484H.859c-.171 0-.484 0-.484.344s.313.344.484.344h.36v5.921h-.36c-.171 0-.484 0-.484.344S.688 0 .859 0h1.704c.171 0 .484 0 .484-.344s-.313-.344-.485-.344H2Zm0 0"/><path id="u" d="M3.64-6.953c0-.188 0-.5-.359-.5-.203 0-.265.11-.344.266-.218.515-.624 1.156-1.25 1.203-.187.015-.437.03-.437.343 0 .204.125.344.39.344.673 0 1.188-.5 1.22-.531v5.14H1.812c-.172 0-.5 0-.5.344s.328.344.5.344h2.875c.171 0 .484 0 .484-.344s-.313-.344-.484-.344H3.64Zm0 0"/><path id="B" d="M3.375-2.656 4.75-4.453h.406c.172 0 .485 0 .485-.36 0-.343-.313-.343-.485-.343H3.844c-.172 0-.485 0-.485.343 0 .36.282.36.579.36L3.03-3.234l-.922-1.22c.282 0 .563 0 .563-.359 0-.343-.313-.343-.469-.343H.875c-.172 0-.484 0-.484.343 0 .36.312.36.484.36h.422l1.422 1.797-1.5 1.969H.812c-.171 0-.484 0-.484.343C.328 0 .641 0 .812 0h1.313c.172 0 .484 0 .484-.344s-.28-.344-.593-.344L3.03-2.202 4.11-.688c-.296 0-.578 0-.578.344S3.844 0 4 0h1.328c.172 0 .484 0 .484-.344S5.5-.688 5.329-.688h-.422Zm0 0"/><path id="C" d="M5.063-4.453h.312c.172 0 .5 0 .5-.36 0-.343-.328-.343-.5-.343H4.062c-.171 0-.484 0-.484.343 0 .36.313.36.485.36h.296c-.328.969-1.015 2.969-1.187 3.656a4.736 4.736 0 0 0-.235-.719L1.829-4.453h.281c.157 0 .485 0 .485-.36 0-.343-.328-.343-.485-.343H.781c-.156 0-.484 0-.484.343 0 .36.328.36.484.36h.328L2.781-.156c.047.125.047.14.047.156 0 .031-.312 1.063-.484 1.406-.078.11-.375.672-.938.61 0-.032.047-.11.047-.235a.451.451 0 0 0-.469-.468c-.296 0-.484.203-.484.484 0 .453.39.922.984.922 1.157 0 1.672-1.531 1.704-1.625Zm0 0"/><path id="D" d="M5.344-4.36c.14-.14.187-.187.187-.39 0-.406-.265-.406-.484-.406H1.063c-.391 0-.485.093-.485.5v.468c0 .22 0 .5.375.5.39 0 .39-.265.39-.5v-.265h3.032L.578-.781c-.14.125-.203.172-.203.39 0 .391.266.391.5.391h4.219c.39 0 .468-.11.468-.484v-.61c0-.218 0-.5-.375-.5-.39 0-.39.266-.39.5v.407h-3.25Zm0 0"/><path id="L" d="M5.375-4.453c.297 0 .594 0 .594-.36 0-.343-.328-.343-.5-.343H4.14c-.172 0-.5 0-.5.343 0 .36.328.36.5.36h.562l-.61 3.64c-.046-.312-.25-.984-.359-1.359-.218-.781-.25-.922-.656-.922-.375 0-.422.14-.64.906-.235.813-.329 1.157-.36 1.376h-.015l-.61-3.641h.563c.156 0 .484 0 .484-.36 0-.343-.328-.343-.484-.343H.672c-.172 0-.5 0-.5.343 0 .36.312.36.594.36l.718 4.062c.063.422.266.454.532.454.468 0 .5-.094.734-.922.11-.422.297-1.079.328-1.407h.016c.015.157.078.5.328 1.422.234.797.265.906.719.906.203 0 .437 0 .515-.437Zm0 0"/></defs><use xlink:href="#a" x="46.316" y="28.187"/><use xlink:href="#b" x="54.771" y="28.187"/><use xlink:href="#c" x="60.947" y="28.187"/><use xlink:href="#d" x="67.45" y="28.187"/><use xlink:href="#e" x="76.551" y="28.187"/><use xlink:href="#b" x="83.389" y="28.187"/><use xlink:href="#f" x="89.242" y="28.187"/><use xlink:href="#g" x="92.494" y="28.187"/><use xlink:href="#h" x="98.663" y="28.187"/><use xlink:href="#i" x="57.112" y="49.078"/><use xlink:href="#j" x="66.41" y="49.078"/><use xlink:href="#k" x="72.263" y="49.078"/><use xlink:href="#l" x="78.117" y="49.078"/><use xlink:href="#f" x="84.62" y="49.078"/><use xlink:href="#h" x="87.872" y="49.078"/><use xlink:href="#m" x="30.377" y="63.524"/><use xlink:href="#n" x="34.93" y="63.524"/><use xlink:href="#o" x="41.082" y="63.524"/><use xlink:href="#p" x="47.234" y="63.524"/><use xlink:href="#p" x="53.386" y="63.524"/><use xlink:href="#p" x="59.539" y="63.524"/><use xlink:href="#p" x="65.691" y="63.524"/><use xlink:href="#q" x="71.841" y="63.524"/><use xlink:href="#n" x="77.694" y="63.524"/><use xlink:href="#o" x="83.846" y="63.524"/><use xlink:href="#r" x="89.998" y="63.524"/><use xlink:href="#r" x="96.15" y="63.524"/><use xlink:href="#r" x="102.303" y="63.524"/><use xlink:href="#r" x="108.455" y="63.524"/><use xlink:href="#s" x="114.606" y="63.524"/><use xlink:href="#i" x="57.112" y="77.424"/><use xlink:href="#t" x="66.41" y="77.424"/><use xlink:href="#j" x="72.263" y="77.424"/><use xlink:href="#l" x="78.117" y="77.424"/><use xlink:href="#f" x="84.62" y="77.424"/><use xlink:href="#h" x="87.872" y="77.424"/><use xlink:href="#m" x="21.149" y="91.87"/><use xlink:href="#n" x="25.702" y="91.87"/><use xlink:href="#o" x="31.854" y="91.87"/><use xlink:href="#u" x="38.006" y="91.87"/><use xlink:href="#p" x="44.158" y="91.87"/><use xlink:href="#p" x="50.311" y="91.87"/><use xlink:href="#p" x="56.463" y="91.87"/><use xlink:href="#p" x="62.615" y="91.87"/><use xlink:href="#q" x="68.765" y="91.87"/><use xlink:href="#n" x="74.618" y="91.87"/><use xlink:href="#o" x="80.77" y="91.87"/><use xlink:href="#u" x="86.922" y="91.87"/><use xlink:href="#p" x="93.074" y="91.87"/><use xlink:href="#r" x="99.227" y="91.87"/><use xlink:href="#r" x="105.379" y="91.87"/><use xlink:href="#r" x="111.531" y="91.87"/><use xlink:href="#r" x="117.683" y="91.87"/><use xlink:href="#s" x="123.834" y="91.87"/><use xlink:href="#v" x="129.835" y="56.218"/><use xlink:href="#v" x="129.835" y="84.564"/><use xlink:href="#w" x="160.947" y="28.187"/><use xlink:href="#f" x="169.237" y="28.187"/><use xlink:href="#g" x="172.489" y="28.187"/><use xlink:href="#x" x="178.992" y="28.187"/><use xlink:href="#y" x="184.845" y="28.187"/><use xlink:href="#z" x="189.398" y="28.187"/><use xlink:href="#y" x="199.474" y="28.187"/><use xlink:href="#d" x="204.026" y="28.187"/><use xlink:href="#e" x="209.229" y="28.187"/><use xlink:href="#y" x="215.733" y="28.187"/><use xlink:href="#d" x="220.285" y="28.187"/><use xlink:href="#A" x="225.488" y="28.187"/><use xlink:href="#d" x="230.105" y="28.187"/><use xlink:href="#g" x="235.308" y="28.187"/><use xlink:href="#h" x="241.489" y="28.187"/><use xlink:href="#x" x="246.042" y="28.187"/><use xlink:href="#h" x="251.895" y="28.187"/><use xlink:href="#f" x="256.448" y="28.187"/><use xlink:href="#b" x="259.699" y="28.187"/><use xlink:href="#g" x="265.553" y="28.187"/><use xlink:href="#B" x="184.317" y="56.533"/><use xlink:href="#B" x="190.469" y="56.533"/><use xlink:href="#B" x="196.621" y="56.533"/><use xlink:href="#B" x="202.773" y="56.533"/><use xlink:href="#B" x="212.823" y="56.533"/><use xlink:href="#B" x="218.975" y="56.533"/><use xlink:href="#B" x="225.127" y="56.533"/><use xlink:href="#B" x="231.279" y="56.533"/><use xlink:href="#B" x="241.341" y="56.533"/><use xlink:href="#B" x="247.493" y="56.533"/><use xlink:href="#B" x="253.645" y="56.533"/><use xlink:href="#B" x="259.797" y="56.533"/><use xlink:href="#B" x="269.847" y="56.533"/><use xlink:href="#B" x="275.999" y="56.533"/><use xlink:href="#B" x="282.151" y="56.533"/><use xlink:href="#B" x="288.303" y="56.533"/><use xlink:href="#B" x="145.754" y="84.88"/><use xlink:href="#B" x="155.804" y="84.88"/><use xlink:href="#B" x="161.956" y="84.88"/><use xlink:href="#B" x="168.108" y="84.88"/><use xlink:href="#B" x="174.26" y="84.88"/><use xlink:href="#C" x="184.321" y="84.88"/><use xlink:href="#C" x="190.474" y="84.88"/><use xlink:href="#C" x="196.626" y="84.88"/><use xlink:href="#C" x="202.778" y="84.88"/><use xlink:href="#C" x="212.827" y="84.88"/><use xlink:href="#C" x="218.98" y="84.88"/><use xlink:href="#D" x="225.132" y="84.88"/><use xlink:href="#D" x="231.284" y="84.88"/><use xlink:href="#D" x="241.333" y="84.88"/><use xlink:href="#D" x="247.486" y="84.88"/><use xlink:href="#D" x="253.638" y="84.88"/><use xlink:href="#D" x="259.79" y="84.88"/><use xlink:href="#D" x="269.839" y="84.88"/><use xlink:href="#D" x="275.992" y="84.88"/><use xlink:href="#D" x="282.144" y="84.88"/><use xlink:href="#D" x="288.296" y="84.88"/><use xlink:href="#E" x="302.648" y="56.533"/><use xlink:href="#E" x="302.648" y="84.88"/><use xlink:href="#w" x="399.816" y="28.22"/><use xlink:href="#z" x="408.106" y="28.22"/><use xlink:href="#h" x="414.284" y="28.22"/><use xlink:href="#d" x="418.837" y="28.22"/><use xlink:href="#A" x="427.937" y="28.22"/><use xlink:href="#d" x="432.554" y="28.22"/><use xlink:href="#F" x="437.757" y="28.22"/><use xlink:href="#G" x="443.935" y="28.22"/><use xlink:href="#d" x="450.439" y="28.22"/><use xlink:href="#g" x="455.642" y="28.22"/><use xlink:href="#H" x="462.146" y="28.22"/><use xlink:href="#d" x="467.349" y="28.22"/><use xlink:href="#B" x="322.799" y="56.533"/><use xlink:href="#B" x="328.951" y="56.533"/><use xlink:href="#B" x="335.103" y="56.533"/><use xlink:href="#B" x="341.255" y="56.533"/><use xlink:href="#B" x="351.305" y="56.533"/><use xlink:href="#B" x="357.457" y="56.533"/><use xlink:href="#B" x="363.609" y="56.533"/><use xlink:href="#B" x="369.761" y="56.533"/><use xlink:href="#B" x="379.823" y="56.533"/><use xlink:href="#B" x="385.975" y="56.533"/><use xlink:href="#B" x="392.127" y="56.533"/><use xlink:href="#B" x="398.279" y="56.533"/><use xlink:href="#B" x="408.329" y="56.533"/><use xlink:href="#B" x="414.481" y="56.533"/><use xlink:href="#B" x="420.633" y="56.533"/><use xlink:href="#B" x="426.785" y="56.533"/><use xlink:href="#m" x="322.799" y="86.474"/><use xlink:href="#I" x="327.352" y="86.474"/><use xlink:href="#f" x="336.127" y="86.474"/><use xlink:href="#J" x="339.378" y="86.474"/><use xlink:href="#K" x="345.232" y="86.474"/><use xlink:href="#A" x="355.633" y="86.474"/><use xlink:href="#G" x="360.25" y="86.474"/><use xlink:href="#y" x="366.753" y="86.474"/><use xlink:href="#y" x="371.306" y="86.474"/><use xlink:href="#b" x="375.859" y="86.474"/><use xlink:href="#J" x="381.712" y="86.474"/><use xlink:href="#x" x="387.565" y="86.474"/><use xlink:href="#h" x="393.418" y="86.474"/><use xlink:href="#d" x="397.971" y="86.474"/><use xlink:href="#s" x="403.174" y="86.474"/><use xlink:href="#u" x="322.799" y="100.92"/><use xlink:href="#u" x="328.951" y="100.92"/><use xlink:href="#p" x="335.103" y="100.92"/><use xlink:href="#u" x="341.255" y="100.92"/><use xlink:href="#u" x="351.305" y="100.92"/><use xlink:href="#p" x="357.457" y="100.92"/><use xlink:href="#L" x="363.609" y="100.92"/><use xlink:href="#L" x="369.761" y="100.92"/><use xlink:href="#L" x="379.823" y="100.92"/><use xlink:href="#L" x="385.975" y="100.92"/><use xlink:href="#C" x="392.127" y="100.92"/><use xlink:href="#C" x="398.279" y="100.92"/><use xlink:href="#C" x="408.329" y="100.92"/><use xlink:href="#C" x="414.481" y="100.92"/><use xlink:href="#C" x="420.633" y="100.92"/><use xlink:href="#C" x="426.785" y="100.92"/><use xlink:href="#m" x="444.641" y="100.92"/><use xlink:href="#L" x="449.193" y="100.92"/><use xlink:href="#L" x="455.345" y="100.92"/><use xlink:href="#L" x="461.497" y="100.92"/><use xlink:href="#L" x="467.649" y="100.92"/><use xlink:href="#M" x="477.122" y="100.92"/><use xlink:href="#B" x="489.547" y="100.92"/><use xlink:href="#B" x="495.699" y="100.92"/><use xlink:href="#B" x="501.851" y="100.92"/><use xlink:href="#B" x="508.003" y="100.92"/><use xlink:href="#B" x="514.156" y="100.92"/><use xlink:href="#N" x="522.963" y="100.92"/><use xlink:href="#j" x="534.919" y="100.92"/><use xlink:href="#s" x="540.772" y="100.92"/><use xlink:href="#m" x="322.799" y="119.35"/><use xlink:href="#O" x="327.352" y="119.35"/><use xlink:href="#b" x="334.666" y="119.35"/><use xlink:href="#P" x="340.196" y="119.35"/><use xlink:href="#A" x="352.548" y="119.35"/><use xlink:href="#G" x="357.165" y="119.35"/><use xlink:href="#y" x="363.669" y="119.35"/><use xlink:href="#y" x="368.222" y="119.35"/><use xlink:href="#b" x="372.774" y="119.35"/><use xlink:href="#J" x="378.627" y="119.35"/><use xlink:href="#x" x="384.481" y="119.35"/><use xlink:href="#h" x="390.334" y="119.35"/><use xlink:href="#d" x="394.886" y="119.35"/><use xlink:href="#s" x="400.089" y="119.35"/><use xlink:href="#u" x="322.799" y="133.796"/><use xlink:href="#u" x="328.951" y="133.796"/><use xlink:href="#p" x="335.103" y="133.796"/><use xlink:href="#u" x="341.255" y="133.796"/><use xlink:href="#u" x="351.305" y="133.796"/><use xlink:href="#u" x="357.457" y="133.796"/><use xlink:href="#D" x="363.609" y="133.796"/><use xlink:href="#D" x="369.761" y="133.796"/><use xlink:href="#D" x="379.823" y="133.796"/><use xlink:href="#D" x="385.975" y="133.796"/><use xlink:href="#D" x="392.127" y="133.796"/><use xlink:href="#D" x="398.279" y="133.796"/><use xlink:href="#D" x="408.329" y="133.796"/><use xlink:href="#D" x="414.481" y="133.796"/><use xlink:href="#D" x="420.633" y="133.796"/><use xlink:href="#D" x="426.785" y="133.796"/></svg>