<svg xmlns="http://www.w3.org/2000/svg" xmlns:xlink="http://www.w3.org/1999/xlink" width="389.61pt" height="176.3pt" viewBox="0 0 389.61 176.3"><defs><path id="q" d="M2.464-3.504c.024-.072.323-.67.765-1.053a1.74 1.74 0 0 1 1.184-.478c.479 0 .646.359.646.837 0 .682-.49 2.045-.73 2.691-.107.287-.167.443-.167.658 0 .538.37.969.945.969 1.112 0 1.53-1.759 1.53-1.83 0-.06-.047-.108-.119-.108-.107 0-.12.036-.18.24C6.065-.599 5.61-.12 5.144-.12c-.12 0-.311-.012-.311-.394 0-.3.131-.658.203-.826.24-.657.742-1.997.742-2.679 0-.717-.419-1.255-1.328-1.255-1.064 0-1.626.753-1.842 1.052-.036-.682-.526-1.052-1.052-1.052-.383 0-.646.227-.85.634C.49-4.21.324-3.492.324-3.444s.048.107.131.107c.096 0 .108-.012.18-.287.191-.73.407-1.411.885-1.411.275 0 .37.191.37.55 0 .263-.119.73-.203 1.1l-.335 1.292c-.047.227-.179.765-.239.98C1.03-.8.897-.238.897-.178c0 .167.132.299.311.299a.46.46 0 0 0 .407-.252c.024-.06.131-.478.191-.717l.263-1.077z"/><path id="f" d="M5.358-3.827c0-.993-.06-1.962-.49-2.87-.49-.993-1.352-1.256-1.938-1.256-.693 0-1.543.346-1.985 1.34C.61-5.86.49-5.12.49-3.828c0 1.16.084 2.033.515 2.882A2.13 2.13 0 0 0 2.918.251c1.04 0 1.639-.622 1.986-1.315.43-.897.454-2.07.454-2.763M2.918.012c-.382 0-1.16-.215-1.387-1.519-.132-.718-.132-1.627-.132-2.464 0-.98 0-1.865.192-2.571.203-.801.813-1.172 1.327-1.172.455 0 1.148.275 1.376 1.303.155.682.155 1.627.155 2.44 0 .802 0 1.71-.131 2.44C4.09-.215 3.337.012 2.918.012"/><path id="c" d="M3.444-7.666c0-.275 0-.287-.239-.287-.287.323-.885.765-2.117.765v.347c.275 0 .873 0 1.531-.311v6.231c0 .43-.036.574-1.088.574h-.37V0c.322-.024 1.482-.024 1.877-.024s1.543 0 1.866.024v-.347h-.371C3.48-.347 3.444-.49 3.444-.92z"/><path id="l" d="M5.262-2.01H5c-.036.204-.131.862-.25 1.053-.085.108-.766.108-1.125.108H1.41c.323-.275 1.053-1.04 1.364-1.328 1.818-1.674 2.487-2.296 2.487-3.48 0-1.375-1.088-2.296-2.475-2.296S.586-6.77.586-5.741c0 .61.526.61.562.61.251 0 .562-.18.562-.562 0-.335-.227-.562-.562-.562-.107 0-.131 0-.167.012.227-.813.873-1.364 1.65-1.364 1.017 0 1.639.85 1.639 1.95 0 1.017-.586 1.902-1.268 2.667L.586-.287V0h4.365z"/><path id="k" d="M4.318-7.786c0-.227 0-.287-.168-.287-.096 0-.131 0-.227.144l-3.6 5.585v.347h3.145V-.91c0 .443-.024.562-.897.562h-.239V0c.275-.024 1.22-.024 1.555-.024s1.292 0 1.567.024v-.347h-.24c-.86 0-.896-.12-.896-.562v-1.088h1.208v-.347H4.318zm-.79.933v4.509H.622z"/><path id="i" d="M1.53-6.853c.515.167.934.18 1.065.18 1.352 0 2.213-.993 2.213-1.16 0-.049-.024-.108-.096-.108-.024 0-.048 0-.155.047a3.9 3.9 0 0 1-1.555.323c-.79 0-1.352-.239-1.579-.335-.083-.035-.107-.035-.12-.035-.095 0-.095.071-.095.263v3.552c0 .215 0 .287.143.287.06 0 .072-.012.192-.156.335-.49.897-.777 1.495-.777.634 0 .945.586 1.04.79.204.466.216 1.052.216 1.506s0 1.136-.335 1.675c-.263.43-.73.73-1.256.73-.79 0-1.567-.539-1.782-1.412.06.024.131.036.191.036.204 0 .527-.12.527-.526 0-.335-.228-.527-.527-.527-.215 0-.526.108-.526.574 0 1.017.813 2.177 2.14 2.177 1.352 0 2.536-1.136 2.536-2.655 0-1.423-.956-2.607-2.212-2.607-.682 0-1.208.299-1.52.634z"/><path id="d" d="M1.471-4.162c0-3.026 1.471-3.504 2.117-3.504.43 0 .861.131 1.088.49-.143 0-.598 0-.598.49 0 .263.18.49.49.49.3 0 .503-.179.503-.526 0-.621-.454-1.231-1.495-1.231C2.069-7.953.49-6.411.49-3.78.49-.49 1.926.25 2.942.25c1.304 0 2.416-1.136 2.416-2.69 0-1.592-1.112-2.656-2.308-2.656-1.065 0-1.46.921-1.579 1.256zm1.471 4.09c-.753 0-1.112-.67-1.22-.92-.107-.312-.227-.898-.227-1.735 0-.945.43-2.129 1.507-2.129.658 0 1.005.443 1.184.85.191.442.191 1.04.191 1.554 0 .61 0 1.148-.227 1.603-.299.574-.73.777-1.208.777"/><path id="j" d="M5.681-7.427v-.275H2.799c-1.448 0-1.471-.156-1.52-.383h-.262L.646-5.693h.263c.036-.215.143-.957.299-1.088.096-.072.993-.072 1.16-.072h2.536L3.636-5.035C3.313-4.57 2.105-2.607 2.105-.36c0 .132 0 .61.49.61.503 0 .503-.466.503-.622v-.598c0-1.782.287-3.17.849-3.97z"/><path id="m" d="M3.564-4.318c.598-.322 1.471-.873 1.471-1.877 0-1.04-1.004-1.758-2.105-1.758-1.184 0-2.117.873-2.117 1.961 0 .407.12.813.455 1.22.131.155.143.167.98.753C1.088-3.48.49-2.679.49-1.806.49-.538 1.698.251 2.918.251c1.328 0 2.44-.98 2.44-2.236 0-1.22-.861-1.758-1.794-2.333M1.938-5.394c-.156-.108-.634-.419-.634-1.005 0-.777.813-1.267 1.614-1.267.861 0 1.627.622 1.627 1.483 0 .73-.526 1.315-1.22 1.698zM2.5-3.851l1.447.945c.31.203.86.574.86 1.303 0 .91-.92 1.531-1.877 1.531-1.016 0-1.89-.741-1.89-1.734 0-.933.682-1.686 1.46-2.045"/><path id="n" d="M4.377-3.48c0 2.822-1.255 3.408-1.973 3.408-.287 0-.921-.036-1.22-.454h.072c.084.024.514-.048.514-.49 0-.264-.18-.491-.49-.491s-.503.203-.503.514c0 .742.598 1.244 1.639 1.244 1.495 0 2.942-1.59 2.942-4.186 0-3.217-1.34-4.018-2.392-4.018C1.65-7.953.49-6.853.49-5.274S1.603-2.62 2.8-2.62c.885 0 1.34-.646 1.578-1.256zm-1.53.622c-.754 0-1.077-.61-1.185-.838-.19-.454-.19-1.028-.19-1.566 0-.67 0-1.244.31-1.735.215-.323.538-.67 1.184-.67.682 0 1.029.599 1.148.874.24.586.24 1.602.24 1.782 0 1.004-.455 2.153-1.508 2.153"/><path id="r" d="M8.073-3.875c.167 0 .383 0 .383-.215 0-.228-.204-.228-.383-.228H1.029c-.168 0-.383 0-.383.216 0 .227.203.227.383.227zm0 2.225c.167 0 .383 0 .383-.216 0-.227-.204-.227-.383-.227H1.029c-.168 0-.383 0-.383.215 0 .228.203.228.383.228z"/><path id="p" d="M3.887 2.906c0-.036 0-.06-.203-.263C2.488 1.435 1.818-.538 1.818-2.978c0-2.32.562-4.318 1.95-5.729.119-.108.119-.131.119-.167 0-.072-.06-.096-.108-.096-.155 0-1.136.861-1.722 2.033-.61 1.208-.885 2.488-.885 3.959 0 1.064.168 2.488.79 3.767.705 1.436 1.686 2.213 1.817 2.213.048 0 .108-.024.108-.096"/><path id="s" d="M3.373-2.978c0-.909-.12-2.392-.79-3.78C1.878-8.192.897-8.97.765-8.97c-.047 0-.107.024-.107.096 0 .036 0 .06.203.263C2.057-7.403 2.727-5.43 2.727-2.99c0 2.32-.562 4.318-1.95 5.729-.12.107-.12.131-.12.167 0 .072.06.096.108.096.156 0 1.137-.861 1.723-2.033.61-1.22.885-2.512.885-3.947"/><path id="g" d="M2.2-.586a.58.58 0 0 0-.573-.574.577.577 0 0 0-.586.574.58.58 0 1 0 1.16 0"/><path id="b" d="M7.882-2.75c.203 0 .418 0 .418-.24s-.215-.24-.418-.24h-6.47c-.204 0-.42 0-.42.24s.216.24.42.24z"/><path id="o" d="M2.296-2.99c0-.347-.287-.634-.634-.634s-.633.287-.633.634.287.634.633.634.634-.287.634-.634"/><path id="e" d="M8.205-5.071c.203 0 .43 0 .43-.24s-.215-.238-.418-.238h-7.14c-.204 0-.42 0-.42.239s.24.239.431.239zm.012 4.64c.203 0 .418 0 .418-.239s-.227-.239-.43-.239H1.088c-.191 0-.43 0-.43.24s.215.238.418.238zm0-2.32c.203 0 .418 0 .418-.239s-.215-.24-.418-.24h-7.14c-.204 0-.42 0-.42.24s.216.24.42.24z"/><path id="h" d="M5.179-.347c0-.347-.323-.347-.49-.347H3.635V-6.96c0-.18 0-.49-.347-.49-.203 0-.275.108-.347.263-.227.514-.622 1.148-1.256 1.196-.179.012-.43.036-.43.347 0 .203.12.347.383.347.67 0 1.184-.503 1.22-.527v5.131H1.805c-.167 0-.49 0-.49.347s.323.347.49.347h2.882c.168 0 .49 0 .49-.347"/><path id="a" d="M5.55-3.648c0-2.224-1.185-3.803-2.476-3.803C1.77-7.451.598-5.848.598-3.66.598-1.435 1.782.144 3.074.144c1.303 0 2.475-1.603 2.475-3.792m-.778-.131c0 1.77-.753 3.229-1.698 3.229S1.375-1.997 1.375-3.78s.826-2.977 1.699-2.977S4.772-5.561 4.772-3.78"/></defs><g transform="translate(59.686 75.656)scale(1.0004)"><use xlink:href="#a" x="17.851164" y="-52.902232"/><use xlink:href="#a" x="24.010565" y="-52.902232"/><use xlink:href="#a" x="30.169966" y="-52.902232"/><use xlink:href="#a" x="36.329366" y="-52.902232"/></g><path fill="none" stroke="#000" stroke-miterlimit="10" stroke-width=".3985" d="M89.844 32.075v9.086"/><path d="m89.844 44.263 1.682-4.468-1.682 1.466-1.682-1.466Z"/><path fill="none" stroke="#000" stroke-miterlimit="10" stroke-width=".3985" d="m89.844 44.263 1.682-4.468-1.682 1.466-1.682-1.466Z"/><g fill="#9f9f9f" transform="translate(61.498 114.017)scale(1.0004)"><use xlink:href="#b" x="17.851164" y="-52.902232"/><use xlink:href="#c" x="27.153898" y="-52.902232"/><use xlink:href="#d" x="33.00234" y="-52.902232"/></g><use xlink:href="#e" x="23.398391" y="-52.902232" fill="#9f9f9f" transform="rotate(-90 123.63 -21.869)scale(1.0004)"/><use xlink:href="#f" x="17.851164" y="-52.902232" transform="translate(69.073 146.396)scale(1.0004)"/><g fill="#9f9f9f"><use xlink:href="#e" x="23.398391" y="-52.902232" transform="rotate(-90 139.57 -5.928)scale(1.0004)"/><g transform="translate(66.147 178.277)scale(1.0004)"><use xlink:href="#c" x="17.851164" y="-52.902232"/><use xlink:href="#d" x="23.699606" y="-52.902232"/></g><use xlink:href="#e" x="23.398391" y="-52.902232" transform="rotate(-90 155.51 10.012)scale(1.0004)"/><g transform="translate(70.374 213.86)scale(1.0004)"><use xlink:href="#g" x="17.851164" y="-60.875432"/><use xlink:href="#g" x="17.851164" y="-56.888832"/><use xlink:href="#g" x="17.851164" y="-52.902232"/></g></g><g transform="translate(93.702 75.656)scale(1.0004)"><use xlink:href="#a" x="17.851164" y="-52.902232"/><use xlink:href="#a" x="24.010565" y="-52.902232"/><use xlink:href="#a" x="30.169966" y="-52.902232"/><use xlink:href="#h" x="36.329366" y="-52.902232"/></g><path fill="none" stroke="#000" stroke-miterlimit="10" stroke-width=".3985" d="M123.86 32.075v9.086"/><path d="m123.86 44.263 1.682-4.468-1.682 1.466-1.682-1.466Z"/><path fill="none" stroke="#000" stroke-miterlimit="10" stroke-width=".3985" d="m123.86 44.263 1.682-4.468-1.682 1.466-1.682-1.466Z"/><g fill="#9f9f9f" transform="translate(95.514 114.017)scale(1.0004)"><use xlink:href="#b" x="17.851164" y="-52.902232"/><use xlink:href="#c" x="27.153898" y="-52.902232"/><use xlink:href="#i" x="33.00234" y="-52.902232"/></g><use xlink:href="#e" x="23.398391" y="-52.902232" fill="#9f9f9f" transform="rotate(-90 140.637 -38.877)scale(1.0004)"/><use xlink:href="#c" x="17.851164" y="-52.902232" transform="translate(103.09 146.396)scale(1.0004)"/><g fill="#9f9f9f"><use xlink:href="#e" x="23.398391" y="-52.902232" transform="rotate(-90 156.578 -22.936)scale(1.0004)"/><g transform="translate(100.163 178.277)scale(1.0004)"><use xlink:href="#c" x="17.851164" y="-52.902232"/><use xlink:href="#j" x="23.699606" y="-52.902232"/></g><use xlink:href="#e" x="23.398391" y="-52.902232" transform="rotate(-90 172.518 -6.996)scale(1.0004)"/><g transform="translate(104.39 213.86)scale(1.0004)"><use xlink:href="#g" x="17.851164" y="-60.875432"/><use xlink:href="#g" x="17.851164" y="-56.888832"/><use xlink:href="#g" x="17.851164" y="-52.902232"/></g></g><g transform="translate(127.718 75.656)scale(1.0004)"><use xlink:href="#a" x="17.851164" y="-52.902232"/><use xlink:href="#a" x="24.010565" y="-52.902232"/><use xlink:href="#h" x="30.169966" y="-52.902232"/><use xlink:href="#a" x="36.329366" y="-52.902232"/></g><path fill="none" stroke="#000" stroke-miterlimit="10" stroke-width=".3985" d="M157.876 32.075v9.086"/><path d="m157.876 44.263 1.682-4.468-1.682 1.466-1.682-1.466Z"/><path fill="none" stroke="#000" stroke-miterlimit="10" stroke-width=".3985" d="m157.876 44.263 1.682-4.468-1.682 1.466-1.682-1.466Z"/><g fill="#9f9f9f" transform="translate(129.53 114.017)scale(1.0004)"><use xlink:href="#b" x="17.851164" y="-52.902232"/><use xlink:href="#c" x="27.153898" y="-52.902232"/><use xlink:href="#k" x="33.00234" y="-52.902232"/></g><use xlink:href="#e" x="23.398391" y="-52.902232" fill="#9f9f9f" transform="rotate(-90 157.645 -55.885)scale(1.0004)"/><use xlink:href="#l" x="17.851164" y="-52.902232" transform="translate(137.106 146.396)scale(1.0004)"/><g fill="#9f9f9f"><use xlink:href="#e" x="23.398391" y="-52.902232" transform="rotate(-90 173.586 -39.944)scale(1.0004)"/><g transform="translate(134.179 178.277)scale(1.0004)"><use xlink:href="#c" x="17.851164" y="-52.902232"/><use xlink:href="#m" x="23.699606" y="-52.902232"/></g><use xlink:href="#e" x="23.398391" y="-52.902232" transform="rotate(-90 189.526 -24.004)scale(1.0004)"/><g transform="translate(138.406 213.86)scale(1.0004)"><use xlink:href="#g" x="17.851164" y="-60.875432"/><use xlink:href="#g" x="17.851164" y="-56.888832"/><use xlink:href="#g" x="17.851164" y="-52.902232"/></g></g><g transform="translate(195.751 75.656)scale(1.0004)"><use xlink:href="#a" x="17.851164" y="-52.902232"/><use xlink:href="#h" x="24.010565" y="-52.902232"/><use xlink:href="#h" x="30.169966" y="-52.902232"/><use xlink:href="#h" x="36.329366" y="-52.902232"/></g><path fill="none" stroke="#000" stroke-miterlimit="10" stroke-width=".3985" d="M225.909 32.075v9.086"/><path d="m225.909 44.263 1.682-4.468-1.682 1.466-1.682-1.466Z"/><path fill="none" stroke="#000" stroke-miterlimit="10" stroke-width=".3985" d="m225.909 44.263 1.682-4.468-1.682 1.466-1.682-1.466Z"/><g fill="#9f9f9f" transform="translate(200.489 114.017)scale(1.0004)"><use xlink:href="#b" x="17.851164" y="-52.902232"/><use xlink:href="#n" x="27.153898" y="-52.902232"/></g><use xlink:href="#e" x="23.398391" y="-52.902232" fill="#9f9f9f" transform="rotate(-90 191.662 -89.901)scale(1.0004)"/><use xlink:href="#j" x="17.851164" y="-52.902232" transform="translate(205.138 146.396)scale(1.0004)"/><g fill="#9f9f9f"><use xlink:href="#e" x="23.398391" y="-52.902232" transform="rotate(-90 207.602 -73.96)scale(1.0004)"/><g transform="translate(202.212 178.277)scale(1.0004)"><use xlink:href="#c" x="17.851164" y="-52.902232"/><use xlink:href="#n" x="23.699606" y="-52.902232"/></g><use xlink:href="#e" x="23.398391" y="-52.902232" transform="rotate(-90 223.543 -58.02)scale(1.0004)"/><g transform="translate(206.439 213.86)scale(1.0004)"><use xlink:href="#g" x="17.851164" y="-60.875432"/><use xlink:href="#g" x="17.851164" y="-56.888832"/><use xlink:href="#g" x="17.851164" y="-52.902232"/></g></g><g transform="translate(229.767 75.656)scale(1.0004)"><use xlink:href="#h" x="17.851164" y="-52.902232"/><use xlink:href="#a" x="24.010565" y="-52.902232"/><use xlink:href="#a" x="30.169966" y="-52.902232"/><use xlink:href="#a" x="36.329366" y="-52.902232"/></g><path fill="none" stroke="#000" stroke-miterlimit="10" stroke-width=".3985" d="M259.925 32.075v9.086"/><path d="m259.925 44.263 1.682-4.468-1.682 1.466-1.682-1.466Z"/><path fill="none" stroke="#000" stroke-miterlimit="10" stroke-width=".3985" d="m259.925 44.263 1.682-4.468-1.682 1.466-1.682-1.466Z"/><g fill="#9f9f9f" transform="translate(234.505 114.017)scale(1.0004)"><use xlink:href="#b" x="17.851164" y="-52.902232"/><use xlink:href="#m" x="27.153898" y="-52.902232"/></g><use xlink:href="#e" x="23.398391" y="-52.902232" fill="#9f9f9f" transform="rotate(-90 208.67 -106.91)scale(1.0004)"/><use xlink:href="#m" x="17.851164" y="-52.902232" transform="translate(239.154 146.396)scale(1.0004)"/><g fill="#9f9f9f"><use xlink:href="#e" x="23.398391" y="-52.902232" transform="rotate(-90 224.61 -90.969)scale(1.0004)"/><g transform="translate(236.228 178.277)scale(1.0004)"><use xlink:href="#l" x="17.851164" y="-52.902232"/><use xlink:href="#f" x="23.699606" y="-52.902232"/></g><use xlink:href="#e" x="23.398391" y="-52.902232" transform="rotate(-90 240.55 -75.028)scale(1.0004)"/><g transform="translate(240.455 213.86)scale(1.0004)"><use xlink:href="#g" x="17.851164" y="-60.875432"/><use xlink:href="#g" x="17.851164" y="-56.888832"/><use xlink:href="#g" x="17.851164" y="-52.902232"/></g></g><g transform="translate(263.783 75.656)scale(1.0004)"><use xlink:href="#h" x="17.851164" y="-52.902232"/><use xlink:href="#a" x="24.010565" y="-52.902232"/><use xlink:href="#a" x="30.169966" y="-52.902232"/><use xlink:href="#h" x="36.329366" y="-52.902232"/></g><path fill="none" stroke="#000" stroke-miterlimit="10" stroke-width=".3985" d="M293.941 32.075v9.086"/><path d="m293.941 44.263 1.682-4.468-1.682 1.466-1.682-1.466Z"/><path fill="none" stroke="#000" stroke-miterlimit="10" stroke-width=".3985" d="m293.941 44.263 1.682-4.468-1.682 1.466-1.682-1.466Z"/><g fill="#9f9f9f" transform="translate(268.521 114.017)scale(1.0004)"><use xlink:href="#b" x="17.851164" y="-52.902232"/><use xlink:href="#j" x="27.153898" y="-52.902232"/></g><use xlink:href="#e" x="23.398391" y="-52.902232" fill="#9f9f9f" transform="rotate(-90 225.678 -123.917)scale(1.0004)"/><use xlink:href="#n" x="17.851164" y="-52.902232" transform="translate(273.171 146.396)scale(1.0004)"/><g fill="#9f9f9f"><use xlink:href="#e" x="23.398391" y="-52.902232" transform="rotate(-90 241.618 -107.977)scale(1.0004)"/><g transform="translate(270.244 178.277)scale(1.0004)"><use xlink:href="#l" x="17.851164" y="-52.902232"/><use xlink:href="#c" x="23.699606" y="-52.902232"/></g><use xlink:href="#e" x="23.398391" y="-52.902232" transform="rotate(-90 257.559 -92.036)scale(1.0004)"/><g transform="translate(274.471 213.86)scale(1.0004)"><use xlink:href="#g" x="17.851164" y="-60.875432"/><use xlink:href="#g" x="17.851164" y="-56.888832"/><use xlink:href="#g" x="17.851164" y="-52.902232"/></g></g><g transform="translate(331.815 75.728)scale(1.0004)"><use xlink:href="#h" x="17.851164" y="-52.902232"/><use xlink:href="#h" x="24.010565" y="-52.902232"/><use xlink:href="#h" x="30.169966" y="-52.902232"/><use xlink:href="#h" x="36.329366" y="-52.902232"/></g><path fill="none" stroke="#000" stroke-miterlimit="10" stroke-width=".3985" d="M361.973 32.075v9.086"/><path d="m361.973 44.263 1.682-4.468-1.682 1.466-1.682-1.466Z"/><path fill="none" stroke="#000" stroke-miterlimit="10" stroke-width=".3985" d="m361.973 44.263 1.682-4.468-1.682 1.466-1.682-1.466Z"/><g fill="#9f9f9f" transform="translate(336.554 114.017)scale(1.0004)"><use xlink:href="#b" x="17.851164" y="-52.902232"/><use xlink:href="#c" x="27.153898" y="-52.902232"/></g><use xlink:href="#e" x="23.398391" y="-52.902232" fill="#9f9f9f" transform="rotate(-90 259.694 -157.933)scale(1.0004)"/><g transform="translate(338.276 146.396)scale(1.0004)"><use xlink:href="#c" x="17.851164" y="-52.902232"/><use xlink:href="#i" x="23.699606" y="-52.902232"/></g><g fill="#9f9f9f"><use xlink:href="#e" x="23.398391" y="-52.902232" transform="rotate(-90 275.634 -141.993)scale(1.0004)"/><g transform="translate(338.276 178.277)scale(1.0004)"><use xlink:href="#l" x="17.851164" y="-52.902232"/><use xlink:href="#l" x="23.699606" y="-52.902232"/></g><use xlink:href="#e" x="23.398391" y="-52.902232" transform="rotate(-90 291.575 -126.052)scale(1.0004)"/><g transform="translate(342.503 213.86)scale(1.0004)"><use xlink:href="#g" x="17.851164" y="-60.875432"/><use xlink:href="#g" x="17.851164" y="-56.888832"/><use xlink:href="#g" x="17.851164" y="-52.902232"/></g></g><g transform="translate(167.075 74.661)scale(1.0004)"><use xlink:href="#o" x="17.851164" y="-52.902232"/><use xlink:href="#o" x="23.149445" y="-52.902232"/><use xlink:href="#o" x="28.459686" y="-52.902232"/></g><g fill="#9f9f9f"><g transform="translate(167.075 113.32)scale(1.0004)"><use xlink:href="#o" x="17.851164" y="-52.902232"/><use xlink:href="#o" x="23.149445" y="-52.902232"/><use xlink:href="#o" x="28.459686" y="-52.902232"/></g><g transform="translate(167.075 145.201)scale(1.0004)"><use xlink:href="#o" x="17.851164" y="-52.902232"/><use xlink:href="#o" x="23.149445" y="-52.902232"/><use xlink:href="#o" x="28.459686" y="-52.902232"/></g><g transform="translate(167.075 177.082)scale(1.0004)"><use xlink:href="#o" x="17.851164" y="-52.902232"/><use xlink:href="#o" x="23.149445" y="-52.902232"/><use xlink:href="#o" x="28.459686" y="-52.902232"/></g></g><g transform="translate(303.139 74.661)scale(1.0004)"><use xlink:href="#o" x="17.851164" y="-52.902232"/><use xlink:href="#o" x="23.149445" y="-52.902232"/><use xlink:href="#o" x="28.459686" y="-52.902232"/></g><g fill="#9f9f9f"><g transform="translate(303.139 113.32)scale(1.0004)"><use xlink:href="#o" x="17.851164" y="-52.902232"/><use xlink:href="#o" x="23.149445" y="-52.902232"/><use xlink:href="#o" x="28.459686" y="-52.902232"/></g><g transform="translate(303.139 145.201)scale(1.0004)"><use xlink:href="#o" x="17.851164" y="-52.902232"/><use xlink:href="#o" x="23.149445" y="-52.902232"/><use xlink:href="#o" x="28.459686" y="-52.902232"/></g><g transform="translate(303.139 177.082)scale(1.0004)"><use xlink:href="#o" x="17.851164" y="-52.902232"/><use xlink:href="#o" x="23.149445" y="-52.902232"/><use xlink:href="#o" x="28.459686" y="-52.902232"/></g></g><g transform="translate(-2.522 113.646)scale(1.0004)"><use xlink:href="#p" x="17.851164" y="-52.902232"/><use xlink:href="#q" x="22.407993" y="-52.902232"/><use xlink:href="#r" x="32.721132" y="-52.902232"/><use xlink:href="#b" x="45.151121" y="-52.902232"/><use xlink:href="#c" x="54.453854" y="-52.902232"/><use xlink:href="#s" x="60.309204" y="-52.902232"/></g><g transform="translate(2.127 145.527)scale(1.0004)"><use xlink:href="#p" x="17.851164" y="-52.902232"/><use xlink:href="#q" x="22.407993" y="-52.902232"/><use xlink:href="#r" x="32.721132" y="-52.902232"/><use xlink:href="#f" x="45.135615" y="-52.902232"/><use xlink:href="#s" x="51.006471" y="-52.902232"/></g><g transform="translate(2.127 177.408)scale(1.0004)"><use xlink:href="#p" x="17.851164" y="-52.902232"/><use xlink:href="#q" x="22.407993" y="-52.902232"/><use xlink:href="#r" x="32.721132" y="-52.902232"/><use xlink:href="#c" x="45.135615" y="-52.902232"/><use xlink:href="#s" x="51.006471" y="-52.902232"/></g></svg>