<svg xmlns="http://www.w3.org/2000/svg" xmlns:xlink="http://www.w3.org/1999/xlink" width="315.5pt" height="90.11pt" viewBox="0 0 315.5 90.11"><defs><path id="d" d="M4.964-.327c0-.339-.284-.339-.447-.339H3.37v-3.589c0-.338-.065-.447-.436-.447h-1.55c-.163 0-.447 0-.447.327 0 .338.284.338.448.338h1.232v3.371h-1.32c-.174 0-.447 0-.447.339 0 .327.284.327.447.327h3.219c.163 0 .447 0 .447-.327m-1.55-5.728c0-.306-.24-.546-.545-.546s-.545.24-.545.546.24.545.545.545.546-.24.546-.545"/><path id="e" d="M5.586-.327c0-.339-.273-.339-.447-.339h-.48v-2.53c0-1.103-.557-1.572-1.419-1.572-.73 0-1.222.371-1.429.579 0-.35 0-.513-.436-.513H.578c-.174 0-.447 0-.447.338 0 .327.284.327.436.327h.491v3.371h-.48c-.174 0-.447 0-.447.339C.13 0 .415 0 .567 0h1.735c.153 0 .436 0 .436-.327 0-.339-.272-.339-.447-.339h-.48v-1.93c0-1.092.807-1.506 1.364-1.506.578 0 .73.305.73.96v2.476H3.48c-.174 0-.447 0-.447.339 0 .327.295.327.447.327h1.67c.152 0 .436 0 .436-.327"/><path id="f" d="M4.899-1.375c0-.196 0-.425-.382-.425-.36 0-.371.229-.371.414-.011.677-.633.786-.884.786-.84 0-.84-.567-.84-.84v-2.597h1.79c.163 0 .436 0 .436-.327 0-.338-.262-.338-.437-.338H2.422v-.895c0-.207 0-.447-.37-.447-.383 0-.383.229-.383.447v.895H.72c-.174 0-.447 0-.447.338 0 .327.272.327.436.327h.96v2.662c0 1.048.742 1.44 1.539 1.44.807 0 1.69-.469 1.69-1.44"/><path id="h" d="M5.968-.347c0-.347-.31-.347-.478-.347H5v-6.123c0-.371-.072-.49-.48-.49h-.788c-.168 0-.479 0-.479.346s.311.347.479.347h.49v1.985c-.191-.19-.682-.598-1.411-.598C1.543-5.227.443-4.078.443-2.57c0 1.47 1.028 2.643 2.26 2.643.777 0 1.292-.467 1.519-.73 0 .503 0 .658.478.658h.79c.167 0 .478 0 .478-.347M4.222-2.272c0 .67-.55 1.65-1.447 1.65-.861 0-1.555-.873-1.555-1.95 0-1.148.813-1.96 1.662-1.96.778 0 1.34.705 1.34 1.327z"/><path id="g" d="M5.274-.347c0-.347-.31-.347-.478-.347H3.612v-3.97c0-.371-.072-.49-.478-.49h-1.58c-.167 0-.478 0-.478.346s.311.347.479.347h1.28v3.767H1.47c-.167 0-.49 0-.49.347S1.304 0 1.47 0h3.325c.167 0 .478 0 .478-.347M3.612-6.65c0-.299-.24-.538-.538-.538s-.538.24-.538.538.239.538.538.538.538-.239.538-.538"/><path id="c" d="M5.179-.347c0-.347-.323-.347-.49-.347H3.635V-6.96c0-.18 0-.49-.347-.49-.203 0-.275.108-.347.263-.227.514-.622 1.148-1.256 1.196-.179.012-.43.036-.43.347 0 .203.12.347.383.347.67 0 1.184-.503 1.22-.527v5.131H1.805c-.167 0-.49 0-.49.347s.323.347.49.347h2.882c.168 0 .49 0 .49-.347"/><path id="b" d="M5.55-3.648c0-2.224-1.185-3.803-2.476-3.803C1.77-7.451.598-5.848.598-3.66.598-1.435 1.782.144 3.074.144c1.303 0 2.475-1.603 2.475-3.792m-.778-.131c0 1.77-.753 3.229-1.698 3.229S1.375-1.997 1.375-3.78s.826-2.977 1.699-2.977S4.772-5.561 4.772-3.78"/><path id="a" d="M2.095-2.727c0-.317-.262-.579-.579-.579s-.578.262-.578.579.262.578.578.578.579-.262.579-.578"/></defs><path fill="none" stroke="#000" stroke-miterlimit="10" stroke-width=".3985" d="M44.363 55.508h226.775V27.161H44.363Z"/><g transform="translate(-47.751 60.253)scale(1.00008)"><use xlink:href="#a" x="63.078204" y="-16.495361"/><use xlink:href="#a" x="67.911342" y="-16.495361"/><use xlink:href="#a" x="72.755382" y="-16.495361"/></g><g transform="translate(224.378 60.253)scale(1.00008)"><use xlink:href="#a" x="63.078204" y="-16.495361"/><use xlink:href="#a" x="67.911342" y="-16.495361"/><use xlink:href="#a" x="72.755382" y="-16.495361"/></g><g transform="translate(-10.809 61.481)scale(1.0004)"><use xlink:href="#b" x="63.098324" y="-16.500622"/><use xlink:href="#b" x="69.257726" y="-16.500622"/><use xlink:href="#b" x="75.417127" y="-16.500622"/><use xlink:href="#b" x="81.576528" y="-16.500622"/><use xlink:href="#b" x="89.721289" y="-16.500622"/><use xlink:href="#b" x="95.880691" y="-16.500622"/><use xlink:href="#b" x="102.040093" y="-16.500622"/><use xlink:href="#b" x="108.199495" y="-16.500622"/><use xlink:href="#b" x="116.356218" y="-16.500622"/><use xlink:href="#b" x="122.515619" y="-16.500622"/><use xlink:href="#b" x="128.675012" y="-16.500622"/><use xlink:href="#b" x="134.834404" y="-16.500622"/><use xlink:href="#b" x="142.979153" y="-16.500622"/><use xlink:href="#b" x="149.138545" y="-16.500622"/><use xlink:href="#b" x="155.297937" y="-16.500622"/><use xlink:href="#b" x="161.457329" y="-16.500622"/><use xlink:href="#b" x="169.614053" y="-16.500622"/><use xlink:href="#b" x="175.773445" y="-16.500622"/><use xlink:href="#b" x="181.932837" y="-16.500622"/><use xlink:href="#b" x="188.092229" y="-16.500622"/><use xlink:href="#b" x="196.248942" y="-16.500622"/><use xlink:href="#b" x="202.408334" y="-16.500622"/><use xlink:href="#b" x="208.567736" y="-16.500622"/><use xlink:href="#b" x="214.727128" y="-16.500622"/><use xlink:href="#b" x="222.883842" y="-16.500622"/><use xlink:href="#b" x="229.043234" y="-16.500622"/><use xlink:href="#b" x="235.202626" y="-16.500622"/><use xlink:href="#b" x="241.362018" y="-16.500622"/><use xlink:href="#b" x="249.506766" y="-16.500622"/><use xlink:href="#b" x="255.666168" y="-16.500622"/><use xlink:href="#b" x="261.825581" y="-16.500622"/><use xlink:href="#c" x="267.984952" y="-16.500622"/></g><g transform="translate(-17.379 38.418)scale(1.00008)"><use xlink:href="#d" x="63.078204" y="-16.495361"/><use xlink:href="#e" x="68.805956" y="-16.495361"/><use xlink:href="#f" x="74.533709" y="-16.495361"/></g><g transform="translate(88.52 91.209)scale(1.0004)"><use xlink:href="#g" x="63.098324" y="-16.500622"/><use xlink:href="#h" x="69.257726" y="-16.500622"/></g></svg>