<svg xmlns="http://www.w3.org/2000/svg" xmlns:xlink="http://www.w3.org/1999/xlink" width="258.81pt" height="89.99pt" viewBox="0 0 258.81 89.99"><defs><path id="l" d="M5.662-.338c0-.328-.272-.328-.436-.328-.458 0-.567-.054-.655-.087v-2.356c0-.775-.589-1.691-2.16-1.691-.469 0-1.582 0-1.582.796 0 .327.23.502.491.502.164 0 .47-.098.48-.502 0-.087.011-.098.23-.12.152-.01.294-.01.392-.01.83 0 1.396.337 1.396 1.112-1.93.033-3.272.578-3.272 1.626 0 .752.687 1.461 1.8 1.461.403 0 1.08-.076 1.593-.414.24.338.763.349 1.178.349.305 0 .545 0 .545-.338M3.818-1.462c0 .251 0 .48-.425.676C3-.6 2.509-.6 2.422-.6c-.676 0-1.124-.371-1.124-.796 0-.535.939-.939 2.52-.982z"/><path id="n" d="M5.27.578C5.27.24 5.008.24 4.833.24H3.175v-7.146h1.658c.164 0 .437 0 .437-.327 0-.339-.262-.339-.437-.339H2.858c-.36 0-.436.099-.436.448V.458c0 .338.065.448.436.448h1.975c.164 0 .437 0 .437-.328"/><path id="o" d="M3.295.458v-7.582c0-.338-.066-.448-.437-.448H.884c-.164 0-.437 0-.437.328 0 .338.262.338.437.338h1.658V.24H.884C.72.24.447.24.447.567c0 .339.262.339.437.339h1.974c.36 0 .437-.099.437-.448"/><path id="j" d="M5.084-1.19c0-.305-.316-.305-.382-.305-.174 0-.283.022-.36.24-.065.142-.273.655-1.08.655-.927 0-1.713-.764-1.713-1.757 0-.523.306-1.778 1.779-1.778.229 0 .654 0 .654.098.011.382.218.535.48.535s.491-.186.491-.502c0-.796-1.135-.796-1.625-.796C1.45-4.8.796-3.317.796-2.357c0 1.31 1.026 2.422 2.4 2.422 1.517 0 1.888-1.069 1.888-1.254"/><path id="k" d="M5.586-.327c0-.339-.273-.339-.447-.339h-.48v-2.53c0-1.103-.557-1.572-1.419-1.572-.73 0-1.222.371-1.429.579v-2.03c0-.338-.065-.447-.436-.447H.578c-.174 0-.447 0-.447.338C.13-6 .415-6 .567-6h.491v5.334h-.48c-.174 0-.447 0-.447.339C.13 0 .415 0 .567 0h1.735c.153 0 .436 0 .436-.327 0-.339-.272-.339-.447-.339h-.48v-1.93c0-1.092.807-1.506 1.364-1.506.578 0 .73.305.73.96v2.476H3.48c-.174 0-.447 0-.447.339 0 .327.295.327.447.327h1.67c.152 0 .436 0 .436-.327"/><path id="m" d="M5.313-4.091c0-.218-.13-.677-1.036-.677-.557 0-1.255.197-1.855.884v-.37c0-.34-.065-.448-.436-.448h-1.2c-.164 0-.437 0-.437.327 0 .338.262.338.437.338h.883v3.371H.786c-.164 0-.437 0-.437.328C.35 0 .611 0 .786 0h2.847c.164 0 .447 0 .447-.327 0-.339-.283-.339-.447-.339H2.422v-1.363c0-1.026.644-2.073 1.964-2.073.01.262.196.48.469.48a.45.45 0 0 0 .458-.47"/><path id="d" d="M6.088-.347c0-.347-.311-.347-.479-.347-.31 0-.55-.024-.717-.095v-2.608c0-.909-.682-1.865-2.297-1.865-.502 0-1.662 0-1.662.825 0 .323.227.502.49.502.072 0 .467-.024.479-.526 0-.06.012-.072.263-.096.143-.012.299-.012.442-.012.275 0 .682 0 1.077.3.43.334.43.669.43 1.016-.705.024-1.4.072-2.14.31C1.374-2.738.61-2.307.61-1.494c0 .85.753 1.567 1.866 1.567.382 0 1.124-.06 1.746-.49.24.394.837.418 1.292.418.287 0 .574 0 .574-.347M4.114-1.579c0 .275 0 .527-.49.754-.419.203-.98.203-1.017.203-.705 0-1.22-.383-1.22-.873 0-.706 1.28-1.112 2.727-1.112z"/><path id="h" d="M5.466.598c0-.096-.024-.144-.06-.215L1.47-7.953c-.096-.216-.167-.347-.407-.347a.387.387 0 0 0-.382.394c0 .096.024.144.06.216L4.676.67c.06.12.156.323.407.323.18 0 .383-.144.383-.395"/><path id="g" d="M5.669-2.021c0-.371-.251-.371-.395-.371-.167 0-.358.06-.382.263C4.796-.634 3.588-.55 3.385-.55c-1.113 0-2.13-1.304-2.13-3.11s1.03-3.097 2.118-3.097c.646 0 1.351.514 1.519 1.614.036.263.143.335.382.335.395 0 .395-.215.395-.454v-1.735c0-.191 0-.454-.335-.454-.215 0-.275.131-.323.215-.036.096-.131.311-.167.395-.49-.43-1.04-.61-1.543-.61-1.543 0-2.823 1.65-2.823 3.791C.478-1.47 1.794.144 3.301.144c1.4 0 2.368-1.113 2.368-2.165"/><path id="c" d="M5.454-1.304c0-.071-.024-.335-.395-.335-.227 0-.299.084-.37.264-.3.693-1.077.753-1.304.753-.993 0-1.782-.753-1.914-1.674h3.504c.252 0 .479 0 .479-.443 0-1.4-.79-2.523-2.285-2.523-1.387 0-2.5 1.196-2.5 2.655A2.667 2.667 0 0 0 3.35.072c1.543 0 2.105-1.065 2.105-1.376m-.79-1.65H1.483c.156-1.017.933-1.615 1.686-1.615 1.196 0 1.448 1.017 1.495 1.615"/><path id="b" d="M5.729-.49v-.981c0-.203 0-.478-.383-.478-.395 0-.395.263-.395.478v.777H2.07v-5.92h.622c.167 0 .478 0 .478-.347s-.31-.347-.478-.347H.897c-.167 0-.49 0-.49.347s.323.347.49.347h.395v5.92H.897c-.167 0-.49 0-.49.347S.73 0 .897 0H5.25c.395 0 .479-.108.479-.49"/><path id="p" d="M6.064-.347c0-.347-.275-.347-.646-.347v-2.93c0-.263 0-1.603-1.053-1.603-.418 0-.825.192-1.148.634-.072-.179-.335-.634-.909-.634-.538 0-.909.347-1.004.455-.012-.383-.263-.383-.479-.383H.466c-.167 0-.478 0-.478.347s.275.347.646.347v3.767c-.383 0-.646 0-.646.347S.299 0 .466 0h1.005c.168 0 .478 0 .478-.347s-.275-.347-.645-.347v-2.2c0-1.005.43-1.639.956-1.639.335 0 .431.419.431.98v2.86c-.203 0-.526 0-.526.346s.323.347.49.347h.873c.168 0 .479 0 .479-.347s-.275-.347-.646-.347v-2.2c0-1.005.43-1.639.957-1.639.334 0 .43.419.43.98v2.86c-.203 0-.526 0-.526.346s.323.347.49.347h.873c.168 0 .479 0 .479-.347"/><path id="f" d="M5.968-.347c0-.347-.31-.347-.478-.347H5v-2.81c0-1.172-.55-1.723-1.532-1.723a2.1 2.1 0 0 0-1.542.682c0-.442 0-.61-.479-.61h-.79c-.167 0-.478 0-.478.347s.311.347.479.347h.49v3.767h-.49c-.168 0-.479 0-.479.347S.49 0 .658 0h1.758c.167 0 .478 0 .478-.347s-.31-.347-.478-.347h-.49v-2.164c0-1.16.813-1.675 1.459-1.675.693 0 .837.395.837 1.077v2.762h-.49c-.168 0-.479 0-.479.347S3.564 0 3.732 0H5.49c.167 0 .478 0 .478-.347"/><path id="e" d="M5.717-4.52c0-.515-.502-.707-1.1-.707-.802 0-1.483.36-2.034 1.029v-.466c0-.371-.071-.49-.478-.49H.897c-.167 0-.478 0-.478.346s.31.347.478.347h.909v3.767H.897c-.167 0-.478 0-.478.347S.729 0 .897 0h2.942c.168 0 .479 0 .479-.347s-.311-.347-.479-.347H2.583V-2.26c0-1.424 1.005-2.273 2.022-2.273.06 0 .131 0 .191.012.036.43.37.467.454.467a.45.45 0 0 0 .467-.467"/><path id="i" d="M5.55-3.648c0-2.224-1.185-3.803-2.476-3.803C1.77-7.451.598-5.848.598-3.66.598-1.435 1.782.144 3.074.144c1.303 0 2.475-1.603 2.475-3.792m-.778-.131c0 1.77-.753 3.229-1.698 3.229S1.375-1.997 1.375-3.78s.826-2.977 1.699-2.977S4.772-5.561 4.772-3.78"/><path id="a" d="M2.095-2.727c0-.317-.262-.579-.579-.579s-.578.262-.578.579.262.578.578.578.579-.262.579-.578"/></defs><g fill="none" stroke="#000" stroke-miterlimit="10" stroke-width=".3985"><path d="M38.694 56.411h181.42V28.064H38.693ZM61.371 56.411V28.064M84.049 56.411V28.064M106.726 56.411V28.064M129.403 56.411V28.064M152.08 56.411V28.064M174.758 56.411V28.064M197.436 56.411V28.064"/></g><g transform="translate(-19.404 60.25)scale(1.00008)"><use xlink:href="#a" x="34.728865" y="-15.589286"/><use xlink:href="#a" x="39.561994" y="-15.589286"/><use xlink:href="#a" x="44.406033" y="-15.589286"/></g><g transform="translate(196.032 60.25)scale(1.00008)"><use xlink:href="#a" x="34.728865" y="-15.589286"/><use xlink:href="#a" x="39.561994" y="-15.589286"/><use xlink:href="#a" x="44.406033" y="-15.589286"/></g><use xlink:href="#b" x="34.739942" y="-15.594259" transform="translate(12.228 61.478)scale(1.0004)"/><use xlink:href="#c" x="34.739942" y="-15.594259" transform="translate(34.905 60.42)scale(1.0004)"/><use xlink:href="#d" x="34.739942" y="-15.594259" transform="translate(57.583 60.42)scale(1.0004)"/><use xlink:href="#e" x="34.739942" y="-15.594259" transform="translate(80.26 60.438)scale(1.0004)"/><use xlink:href="#f" x="34.739942" y="-15.594259" transform="translate(102.938 60.438)scale(1.0004)"/><use xlink:href="#g" x="34.739942" y="-15.594259" transform="translate(148.293 61.478)scale(1.0004)"/><g transform="translate(167.892 61.478)scale(1.0004)"><use xlink:href="#h" x="34.739942" y="-15.594259"/><use xlink:href="#i" x="40.899344" y="-15.594259"/></g><g transform="translate(3.794 38.481)scale(1.00008)"><use xlink:href="#j" x="34.728865" y="-15.589286"/><use xlink:href="#k" x="40.456616" y="-15.589286"/><use xlink:href="#l" x="46.184369" y="-15.589286"/><use xlink:href="#m" x="51.91212" y="-15.589286"/><use xlink:href="#n" x="57.639873" y="-15.589286"/><use xlink:href="#o" x="63.367625" y="-15.589286"/></g><g transform="translate(82.363 90.184)scale(1.0004)"><use xlink:href="#f" x="34.739942" y="-15.594259"/><use xlink:href="#d" x="40.899344" y="-15.594259"/><use xlink:href="#p" x="47.058746" y="-15.594259"/><use xlink:href="#c" x="53.218148" y="-15.594259"/></g></svg>