<svg xmlns="http://www.w3.org/2000/svg" xmlns:xlink="http://www.w3.org/1999/xlink" width="224.79pt" height="97.54pt" viewBox="0 0 224.79 97.54"><defs><path id="d" d="M4.964-.327c0-.339-.284-.339-.447-.339H3.37v-3.589c0-.338-.065-.447-.436-.447h-1.55c-.163 0-.447 0-.447.327 0 .338.284.338.448.338h1.232v3.371h-1.32c-.174 0-.447 0-.447.339 0 .327.284.327.447.327h3.219c.163 0 .447 0 .447-.327m-1.55-5.728c0-.306-.24-.546-.545-.546s-.545.24-.545.546.24.545.545.545.546-.24.546-.545"/><path id="e" d="M5.586-.327c0-.339-.273-.339-.447-.339h-.48v-2.53c0-1.103-.557-1.572-1.419-1.572-.73 0-1.222.371-1.429.579 0-.35 0-.513-.436-.513H.578c-.174 0-.447 0-.447.338 0 .327.284.327.436.327h.491v3.371h-.48c-.174 0-.447 0-.447.339C.13 0 .415 0 .567 0h1.735c.153 0 .436 0 .436-.327 0-.339-.272-.339-.447-.339h-.48v-1.93c0-1.092.807-1.506 1.364-1.506.578 0 .73.305.73.96v2.476H3.48c-.174 0-.447 0-.447.339 0 .327.295.327.447.327h1.67c.152 0 .436 0 .436-.327"/><path id="g" d="M5.04-5.379c0-.403-.272-1.352-2.29-1.352-1.539 0-2.074.72-2.074 1.33a.486.486 0 1 0 .862-.283c.273-.306.786-.382 1.211-.382 1.113 0 1.539.35 1.539.687 0 .284-.24.415-.448.524-1.582.873-1.582 1.844-1.582 2.28 0 .426 0 .568.437.568.327 0 .436-.066.436-.437v-.185c0-.513.175-1.135 1.19-1.691.316-.175.72-.491.72-1.059M3.24-.545c0-.306-.24-.546-.545-.546s-.546.24-.546.546.24.545.546.545.545-.24.545-.545"/><path id="f" d="M4.899-1.375c0-.196 0-.425-.382-.425-.36 0-.371.229-.371.414-.011.677-.633.786-.884.786-.84 0-.84-.567-.84-.84v-2.597h1.79c.163 0 .436 0 .436-.327 0-.338-.262-.338-.437-.338H2.422v-.895c0-.207 0-.447-.37-.447-.383 0-.383.229-.383.447v.895H.72c-.174 0-.447 0-.447.338 0 .327.272.327.436.327h.96v2.662c0 1.048.742 1.44 1.539 1.44.807 0 1.69-.469 1.69-1.44"/><path id="b" d="M5.8-2.356c0-.347-.31-.347-.478-.347h-.897v-4.282c0-.394-.084-.49-.49-.49H3.66c-.287 0-.347.012-.49.24L.453-2.87c-.107.155-.107.179-.107.394 0 .419.155.467.478.467h2.93v1.315h-.717c-.168 0-.479 0-.479.347S2.87 0 3.038 0h2.105c.167 0 .478 0 .478-.347s-.31-.347-.478-.347h-.718v-1.315h.897c.168 0 .479 0 .479-.347m-2.045-.347H1.148l2.607-4.186z"/><path id="h" d="M5.968-.347c0-.347-.31-.347-.478-.347H5v-2.81c0-1.172-.55-1.723-1.532-1.723a2.1 2.1 0 0 0-1.542.682c0-.442 0-.61-.479-.61h-.79c-.167 0-.478 0-.478.347s.311.347.479.347h.49v3.767h-.49c-.168 0-.479 0-.479.347S.49 0 .658 0h1.758c.167 0 .478 0 .478-.347s-.31-.347-.478-.347h-.49v-2.164c0-1.16.813-1.675 1.459-1.675.693 0 .837.395.837 1.077v2.762h-.49c-.168 0-.479 0-.479.347S3.564 0 3.732 0H5.49c.167 0 .478 0 .478-.347"/><path id="c" d="M5.537-.49v-.252c0-.215 0-.49-.382-.49-.395 0-.395.251-.395.538H1.878L4.162-2.63c.168-.144 1.375-1.172 1.375-2.5 0-1.363-1.124-2.32-2.619-2.32C1.531-7.451.61-6.411.61-5.406a.49.49 0 0 0 .49.538.48.48 0 0 0 .479-.49c0-.227-.084-.3-.144-.347.168-.634.718-1.052 1.411-1.052 1.017 0 1.914.586 1.914 1.626 0 .933-.706 1.65-1.351 2.213L.777-.634C.646-.526.61-.49.61-.347.61 0 .933 0 1.1 0h4.174c.263-.072.263-.311.263-.49"/><path id="i" d="M5.813-.347c0-.347-.311-.347-.479-.347h-.418L3.373-2.655l1.375-1.806h.419c.167 0 .478 0 .478-.347s-.31-.347-.478-.347H3.839c-.167 0-.478 0-.478.347s.287.347.574.347L3.038-3.23l-.921-1.232c.275 0 .562 0 .562-.347s-.31-.347-.478-.347H.873c-.167 0-.478 0-.478.347s.31.347.478.347h.419l1.423 1.806L1.22-.694H.813c-.167 0-.49 0-.49.347S.646 0 .813 0H2.13c.167 0 .478 0 .478-.347s-.275-.347-.598-.347L3.038-2.2 4.114-.694c-.299 0-.586 0-.586.347S3.84 0 4.007 0h1.327c.168 0 .479 0 .479-.347"/><path id="a" d="M2.095-2.727c0-.317-.262-.579-.579-.579s-.578.262-.578.579.262.578.578.578.579-.262.579-.578"/></defs><path fill="none" stroke="#000" stroke-miterlimit="10" stroke-width=".3985" d="M44.363 55.51h45.355V27.163H44.363ZM135.073 55.51h45.355V27.163h-45.355Z"/><g transform="translate(-2.396 60.255)scale(1.00008)"><use xlink:href="#a" x="17.719462" y="-16.495361"/><use xlink:href="#a" x="22.552592" y="-16.495361"/><use xlink:href="#a" x="27.396631" y="-16.495361"/></g><g transform="translate(88.314 60.255)scale(1.00008)"><use xlink:href="#a" x="17.719462" y="-16.495361"/><use xlink:href="#a" x="22.552592" y="-16.495361"/><use xlink:href="#a" x="27.396631" y="-16.495361"/></g><g transform="translate(179.024 60.255)scale(1.00008)"><use xlink:href="#a" x="17.719462" y="-16.495361"/><use xlink:href="#a" x="22.552592" y="-16.495361"/><use xlink:href="#a" x="27.396631" y="-16.495361"/></g><g transform="translate(43.166 61.567)scale(1.0004)"><use xlink:href="#b" x="17.725114" y="-16.500622"/><use xlink:href="#c" x="23.884516" y="-16.500622"/></g><g transform="translate(27.975 38.42)scale(1.00008)"><use xlink:href="#d" x="17.719462" y="-16.495361"/><use xlink:href="#e" x="23.447213" y="-16.495361"/><use xlink:href="#f" x="29.174963" y="-16.495361"/></g><use xlink:href="#g" x="17.719462" y="-16.495361" transform="translate(28.033 83.874)scale(1.00008)"/><use xlink:href="#h" x="17.725114" y="-16.500622" transform="translate(46.244 98.711)scale(1.0004)"/><g transform="translate(133.875 61.567)scale(1.0004)"><use xlink:href="#b" x="17.725114" y="-16.500622"/><use xlink:href="#c" x="23.884516" y="-16.500622"/></g><g transform="translate(118.685 38.42)scale(1.00008)"><use xlink:href="#d" x="17.719462" y="-16.495361"/><use xlink:href="#e" x="23.447213" y="-16.495361"/><use xlink:href="#f" x="29.174963" y="-16.495361"/></g><use xlink:href="#g" x="17.719462" y="-16.495361" transform="translate(124.413 83.874)scale(1.00008)"/><use xlink:href="#i" x="17.725114" y="-16.500622" transform="translate(136.954 98.675)scale(1.0004)"/></svg>