<svg xmlns="http://www.w3.org/2000/svg" xmlns:xlink="http://www.w3.org/1999/xlink" width="332.888" height="191.141"><defs><path id="a" d="M2.89 3.188c.204 0 .579 0 .579-.422 0-.407-.375-.407-.578-.407h-.579V-.719c.344.39.876.813 1.672.813 1.532 0 2.86-1.375 2.86-3.188 0-1.765-1.203-3.172-2.703-3.172a2.56 2.56 0 0 0-1.829.766c0-.469 0-.688-.578-.688H.781c-.187 0-.562 0-.562.422s.375.422.562.422h.594V2.36H.781c-.187 0-.562 0-.562.407 0 .421.375.421.562.421Zm-.578-7c0-.829.797-1.626 1.735-1.626 1.031 0 1.86 1.047 1.86 2.344 0 1.375-.97 2.344-1.985 2.344-1.078 0-1.61-1.219-1.61-1.938Zm0 0"/><path id="b" d="M3.094-2.719c0-1.703 1.203-2.719 2.422-2.719.078 0 .171 0 .234.016.047.516.453.563.547.563a.55.55 0 0 0 .562-.563c0-.61-.609-.844-1.328-.844-.953 0-1.765.422-2.437 1.235v-.563c0-.437-.078-.593-.563-.593H1.078c-.203 0-.578 0-.578.421 0 .422.375.422.578.422h1.094v4.516H1.078c-.203 0-.578 0-.578.406C.5 0 .875 0 1.078 0H4.61c.204 0 .563 0 .563-.422 0-.406-.36-.406-.563-.406H3.094Zm0 0"/><path id="c" d="M4.328-8.14a.643.643 0 0 0-.64-.641c-.36 0-.641.297-.641.64 0 .36.281.657.64.657.36 0 .641-.297.641-.657ZM1.86-6.188c-.203 0-.562 0-.562.421 0 .422.36.422.562.422h1.547v4.516h-1.64c-.204 0-.594 0-.594.406 0 .422.39.422.594.422H5.75c.203 0 .578 0 .578-.422 0-.406-.375-.406-.578-.406H4.328v-4.766c0-.437-.078-.593-.562-.593Zm0 0"/><path id="d" d="M6-4.203c0-1.406-.672-2.063-1.844-2.063-.968 0-1.61.547-1.843.813 0-.531 0-.734-.579-.734H.781c-.187 0-.562 0-.562.421 0 .422.375.422.562.422h.594v4.516H.781c-.187 0-.562 0-.562.406C.219 0 .594 0 .78 0h2.11c.203 0 .578 0 .578-.422 0-.406-.375-.406-.578-.406h-.579v-2.594c0-1.39.97-2.015 1.75-2.015.829 0 1 .468 1 1.296v3.313H4.47c-.188 0-.563 0-.563.406 0 .422.375.422.563.422h2.11c.202 0 .577 0 .577-.422 0-.406-.375-.406-.578-.406H6Zm0 0"/><path id="e" d="M3.094-5.344h2.328c.203 0 .578 0 .578-.422 0-.421-.375-.421-.578-.421H3.094V-7.36c0-.25 0-.594-.453-.594-.47 0-.47.344-.47.594v1.171H.954c-.203 0-.594 0-.594.422s.375.422.579.422h1.234v3.61c0 1.328.906 1.828 1.937 1.828.782 0 2.204-.39 2.204-1.86 0-.28 0-.593-.47-.593-.468 0-.468.312-.468.609-.016.86-.828 1-1.156 1-1.125 0-1.125-.719-1.125-1.063Zm0 0"/><path id="f" d="M3.016-8.14c.015-.344-.094-.75-.579-.75-.046 0-.609.015-.578.718l.157 2.969c.015.156.03.531.421.531.407 0 .422-.375.438-.562Zm2.5-.016c.03-.688-.47-.735-.579-.735-.5 0-.625.532-.593.579L4.5-5.25c.016.203.031.578.438.578.39 0 .39-.375.406-.531Zm0 0"/><path id="g" d="M6.14-7.938h.313c.203 0 .578 0 .578-.406 0-.422-.36-.422-.578-.422H4.891c-.204 0-.594 0-.594.422 0 .406.39.406.594.406h.312v2.954H2.172v-2.954h.312c.204 0 .579 0 .579-.406 0-.422-.376-.422-.579-.422H.922c-.219 0-.578 0-.578.422 0 .406.375.406.578.406h.312v7.11H.922c-.203 0-.578 0-.578.406C.344 0 .704 0 .922 0h1.562c.204 0 .579 0 .579-.422 0-.406-.376-.406-.579-.406h-.312v-3.313h3.031v3.313h-.312c-.204 0-.594 0-.594.406 0 .422.39.422.594.422h1.562c.219 0 .578 0 .578-.422 0-.406-.375-.406-.578-.406h-.312Zm0 0"/><path id="h" d="M5.969-2.75c.297 0 .578 0 .578-.531 0-1.688-.953-3.031-2.75-3.031-1.656 0-3 1.437-3 3.187A3.204 3.204 0 0 0 4.016.094c1.843 0 2.53-1.282 2.53-1.657 0-.093-.03-.406-.484-.406-.265 0-.359.11-.437.313-.36.843-1.297.906-1.563.906-1.187 0-2.14-.906-2.296-2ZM1.78-3.547c.188-1.219 1.11-1.937 2.016-1.937 1.437 0 1.734 1.218 1.797 1.937Zm0 0"/><path id="i" d="M4.156-8.172c0-.453-.078-.594-.578-.594H1.484c-.203 0-.578 0-.578.422 0 .406.375.406.578.406h1.75v7.11h-1.75c-.203 0-.578 0-.578.406 0 .422.375.422.578.422h4.422c.203 0 .578 0 .578-.422 0-.406-.375-.406-.578-.406h-1.75Zm0 0"/><path id="j" d="M6.547-3.094c0-1.797-1.313-3.219-2.86-3.219-1.546 0-2.859 1.422-2.859 3.22 0 1.796 1.328 3.187 2.86 3.187 1.53 0 2.859-1.39 2.859-3.188ZM3.687-.75c-1.03 0-1.921-1.094-1.921-2.453 0-1.328.921-2.281 1.921-2.281s1.922.953 1.922 2.28c0 1.376-.89 2.454-1.921 2.454Zm0 0"/><path id="t" d="M6.656-4.375c0-2.672-1.422-4.563-2.968-4.563-1.563 0-2.97 1.922-2.97 4.547 0 2.672 1.423 4.563 2.97 4.563 1.562 0 2.968-1.922 2.968-4.547ZM3.688-.656c-1.141 0-2.032-1.735-2.032-3.875 0-2.14.985-3.578 2.032-3.578 1.046 0 2.03 1.437 2.03 3.578 0 2.125-.905 3.875-2.03 3.875Zm0 0"/><path id="u" d="M4.36-8.344c0-.219 0-.594-.423-.594-.234 0-.328.126-.406.313C3.25-8 2.781-7.25 2.016-7.187c-.204.015-.516.046-.516.421 0 .235.156.407.469.407.797 0 1.422-.594 1.453-.625v6.156h-1.25c-.203 0-.594 0-.594.406 0 .422.39.422.594.422h3.453c.203 0 .578 0 .578-.422 0-.406-.375-.406-.578-.406H4.359Zm0 0"/><path id="v" d="M4.5-.797a.817.817 0 0 0-.797-.828c-.469 0-.812.36-.812.828 0 .422.359.797.796.797.47 0 .813-.39.813-.797Zm0 0"/><path id="k" d="M4.656 3.484c0-.046 0-.078-.234-.312-1.438-1.453-2.234-3.813-2.234-6.75 0-2.781.671-5.172 2.328-6.86.14-.14.14-.156.14-.203 0-.093-.062-.109-.125-.109-.187 0-1.36 1.031-2.062 2.438-.735 1.437-1.063 2.984-1.063 4.734 0 1.281.203 2.984.953 4.531.844 1.719 2.016 2.64 2.172 2.64.063 0 .125-.015.125-.109Zm0 0"/><path id="l" d="M2.984-5.984C2.25-6.172 1.61-6.891 1.61-7.797c0-1.016.797-1.906 1.922-1.906 2.344 0 2.672 2.312 2.75 2.937.032.172.032.22.172.22.156 0 .156-.063.156-.329v-2.89c0-.266 0-.329-.14-.329-.047 0-.094 0-.203.188l-.47.875c-.687-.89-1.64-1.063-2.265-1.063a2.72 2.72 0 0 0-2.75 2.735c0 .687.235 1.328.766 1.89.5.563 1 .688 2.031.953.5.11 1.281.313 1.485.407.671.328 1.125 1.093 1.125 1.906 0 1.062-.766 2.094-1.954 2.094-.656 0-1.53-.157-2.234-.782-.844-.75-.89-1.78-.906-2.25C1.078-3.25.969-3.25.937-3.25c-.156 0-.156.063-.156.328v2.89c0 .266 0 .329.14.329.079 0 .095-.031.204-.203.047-.11.36-.64.469-.86C2.109-.187 3.016.297 4.25.297c1.61 0 2.766-1.36 2.766-2.938 0-.875-.329-1.515-.72-2-.53-.64-1.171-.796-1.734-.937Zm0 0"/><path id="m" d="M6.578-3.063c0-1.859-1.406-3.328-3.062-3.328-1.72 0-3.079 1.516-3.079 3.329C.438-1.234 1.86.14 3.5.14c1.688 0 3.078-1.407 3.078-3.204ZM3.516-.171c-.532 0-1.172-.234-1.594-.937-.39-.641-.406-1.485-.406-2.094 0-.547 0-1.422.453-2.063A1.836 1.836 0 0 1 3.5-6.109c.563 0 1.156.25 1.547.812.453.656.453 1.563.453 2.094 0 .5 0 1.39-.375 2.062-.406.704-1.063.97-1.61.97Zm0 0"/><path id="n" d="M4.36-6.172v.422c.968 0 1.093.094 1.093.797v2.578c0 1.219-.64 2.234-1.719 2.234-1.187 0-1.25-.671-1.25-1.437v-4.75l-2.03.156v.422c1.093 0 1.093.047 1.093 1.313v2.156c0 .89 0 1.406.437 1.875.344.375.922.547 1.657.547.25 0 .703 0 1.187-.407.422-.343.656-.875.656-.875V.141L7.47 0v-.422c-.969 0-1.078-.094-1.078-.797v-5.11Zm0 0"/><path id="o" d="M2.39-3.344c0-1.39.579-2.687 1.688-2.687h.203c-.125.062-.343.156-.343.531 0 .422.328.578.546.578.297 0 .579-.187.579-.578 0-.422-.391-.828-1-.828-1.22 0-1.641 1.328-1.72 1.594h-.015v-1.594l-1.922.156v.422c.969 0 1.078.094 1.078.797v3.89c0 .641-.156.641-1.078.641V0c.39-.031 1.188-.031 1.61-.031.39 0 1.406 0 1.75.031v-.422h-.297c-1.047 0-1.078-.156-1.078-.672Zm0 0"/><path id="p" d="M5.188-5.313c-.172 0-.704 0-.704.594 0 .344.25.594.594.594.328 0 .61-.203.61-.625 0-.953-1.016-1.64-2.172-1.64C1.844-6.39.5-4.907.5-3.095.5-1.266 1.875.141 3.5.141c1.89 0 2.328-1.72 2.328-1.844 0-.14-.11-.14-.14-.14-.141 0-.157.046-.188.218C5.172-.609 4.406-.172 3.625-.172c-.875 0-2.031-.766-2.031-2.937 0-2.391 1.218-2.97 1.937-2.97.547 0 1.328.22 1.656.766Zm0 0"/><path id="q" d="M5.5-3.328c.313 0 .344 0 .344-.266 0-1.453-.782-2.797-2.516-2.797-1.64 0-2.89 1.47-2.89 3.25C.438-1.25 1.89.141 3.483.141c1.704 0 2.36-1.547 2.36-1.844 0-.094-.078-.14-.157-.14-.125 0-.156.062-.171.14C5.14-.5 4.172-.172 3.578-.172c-.61 0-2.062-.406-2.062-2.89v-.266Zm-3.969-.266c.125-2.265 1.375-2.515 1.782-2.515 1.53 0 1.624 2.015 1.64 2.515Zm0 0"/><path id="r" d="M4.297-9.797v.422c.984 0 1.094.094 1.094.797v3.172a2.22 2.22 0 0 0-1.797-.922C1.938-6.328.5-4.922.5-3.078.5-1.266 1.86.14 3.438.14c1.093 0 1.718-.72 1.921-.985v.985L7.391 0v-.422c-.985 0-1.094-.094-1.094-.797v-8.734Zm1.062 8.125c0 .25 0 .297-.203.61-.343.5-.922.921-1.64.921-.375 0-1.922-.14-1.922-2.921 0-1.047.172-1.61.484-2.094.281-.438.86-.875 1.578-.875.89 0 1.39.64 1.531.875.172.234.172.265.172.515Zm0 0"/><path id="s" d="M4.047-3.578c0-1.078-.14-2.86-.953-4.531C2.25-9.83 1.078-10.75.922-10.75c-.063 0-.14.016-.14.11 0 .046 0 .062.25.312 1.437 1.453 2.234 3.812 2.234 6.75 0 2.781-.672 5.172-2.329 6.86-.156.124-.156.155-.156.202 0 .094.078.11.14.11.188 0 1.36-1.031 2.063-2.438.735-1.453 1.063-3 1.063-4.734Zm0 0"/><path id="w" d="M3.297-9.531c-.094-.266-.11-.266-.438-.266H.625v.422h.297c1.031 0 1.078.14 1.078.672v7.219C2-1.094 2-.422.625-.422V0C1-.031 1.765-.031 2.172-.031c.39 0 1.156 0 1.531.031v-.422c-1.36 0-1.36-.672-1.36-1.062v-7.829h.016L5.813-.265c.046.157.093.266.234.266.14 0 .156-.078.25-.281L9.78-9.375h.016v8.281c0 .532-.047.672-1.078.672h-.281V0c.328-.031 1.468-.031 1.89-.031.422 0 1.563 0 1.89.031v-.422h-.28c-1.032 0-1.079-.14-1.079-.672v-7.61c0-.53.047-.671 1.079-.671h.28v-.422H10c-.313 0-.328.016-.453.281L6.422-1.344Zm0 0"/><path id="x" d="M5.531-3.828c0-.781 0-1.344-.625-1.906-.5-.47-1.14-.657-1.781-.657-1.172 0-2.078.766-2.078 1.704 0 .406.266.609.61.609.343 0 .577-.234.577-.578 0-.594-.515-.594-.734-.594.344-.61 1.031-.86 1.594-.86.672 0 1.515.548 1.515 1.829v.578C1.72-3.656.625-2.453.625-1.343.625-.22 1.953.14 2.828.14c.938 0 1.594-.579 1.86-1.266.062.688.5 1.203 1.125 1.203.296 0 1.125-.203 1.125-1.36v-.796h-.313v.797c0 .828-.344.937-.547.937-.547 0-.547-.765-.547-.969ZM4.61-2.016C4.61-.609 3.563-.14 2.938-.14c-.704 0-1.282-.515-1.282-1.203 0-1.89 2.438-2.062 2.953-2.093Zm0 0"/><path id="y" d="M6.39-3.484c0-1.329 0-1.735-.343-2.204-.406-.546-1.078-.64-1.578-.64-1.235 0-1.797.937-2 1.375h-.016v-5l-2 .156v.422c.984 0 1.094.094 1.094.797v7.515c0 .641-.156.641-1.094.641V0C.828-.031 1.61-.031 2.016-.031c.406 0 1.187 0 1.562.031v-.422c-.922 0-1.094 0-1.094-.64v-2.672c0-1.5.985-2.297 1.875-2.297.891 0 1.094.718 1.094 1.593v3.375c0 .641-.156.641-1.094.641V0c.375-.031 1.157-.031 1.547-.031.422 0 1.188 0 1.563.031v-.422c-.719 0-1.078 0-1.078-.422Zm0 0"/><path id="z" d="M2.5-8.828a.71.71 0 0 0-.703-.703.684.684 0 0 0-.688.687c0 .422.344.703.688.703a.706.706 0 0 0 .703-.687ZM.516-6.172v.422c.921 0 1.046.078 1.046.781v3.907c0 .64-.156.64-1.093.64V0c.406-.031 1.094-.031 1.515-.031.157 0 .985 0 1.47.031v-.422c-.923 0-.985-.062-.985-.625v-5.281Zm0 0"/><path id="A" d="M6.39-3.484c0-1.329 0-1.735-.343-2.204-.406-.546-1.078-.64-1.578-.64-1.39 0-1.938 1.187-2.047 1.484h-.016v-1.484l-1.953.156v.422c.984 0 1.094.094 1.094.797v3.89c0 .641-.156.641-1.094.641V0C.828-.031 1.61-.031 2.016-.031c.406 0 1.187 0 1.562.031v-.422c-.922 0-1.094 0-1.094-.64v-2.672c0-1.5.985-2.297 1.875-2.297.891 0 1.094.718 1.094 1.593v3.375c0 .641-.156.641-1.094.641V0c.375-.031 1.157-.031 1.547-.031.422 0 1.188 0 1.563.031v-.422c-.719 0-1.078 0-1.078-.422Zm0 0"/><path id="B" d="M9.36-9.766c0-.265 0-.328-.157-.328-.078 0-.094.031-.187.172l-.704 1.125c-.64-.797-1.609-1.297-2.64-1.297-2.625 0-4.89 2.266-4.89 5.188 0 2.968 2.28 5.203 4.89 5.203 2.344 0 3.687-2.047 3.687-3.625 0-.156 0-.25-.171-.25-.141 0-.157.078-.157.172C8.906-1.125 7.25-.11 5.86-.11c-1.015 0-3.75-.61-3.75-4.797 0-4.14 2.704-4.782 3.735-4.782 1.5 0 2.812 1.282 3.11 3.438.03.172.03.219.202.219.203 0 .203-.047.203-.344Zm0 0"/><path id="C" d="M10.281-3.484c0-1.329 0-1.735-.328-2.204-.422-.546-1.094-.64-1.578-.64-1.188 0-1.797.86-2.016 1.422-.203-1.11-.984-1.422-1.89-1.422-1.39 0-1.938 1.187-2.047 1.484h-.016v-1.484l-1.953.156v.422c.984 0 1.094.094 1.094.797v3.89c0 .641-.156.641-1.094.641V0C.828-.031 1.61-.031 2.016-.031c.406 0 1.187 0 1.562.031v-.422c-.922 0-1.094 0-1.094-.64v-2.672c0-1.5.985-2.297 1.875-2.297.891 0 1.094.718 1.094 1.593v3.375c0 .641-.156.641-1.094.641V0c.375-.031 1.157-.031 1.547-.031.422 0 1.188 0 1.563.031v-.422c-.907 0-1.078 0-1.078-.64v-2.672c0-1.5.984-2.297 1.875-2.297.89 0 1.093.718 1.093 1.593v3.375c0 .641-.171.641-1.093.641V0c.375-.031 1.14-.031 1.546-.031.422 0 1.188 0 1.563.031v-.422c-.719 0-1.078 0-1.094-.422Zm0 0"/><path id="D" d="M3.516 2.36c-.922 0-1.094 0-1.094-.641v-2.5c.265.36.844.922 1.765.922 1.657 0 3.094-1.391 3.094-3.235 0-1.828-1.343-3.234-2.906-3.234-1.266 0-1.938.906-1.984.969v-.97l-1.985.157v.422c1 0 1.078.094 1.078.734V1.72c0 .64-.156.64-1.078.64v.422c.375-.031 1.14-.031 1.547-.031.406 0 1.188 0 1.563.031ZM2.422-4.579c0-.266 0-.281.156-.516.438-.64 1.14-.922 1.688-.922 1.062 0 1.937 1.313 1.937 2.922C6.203-1.39 5.22-.14 4.11-.14c-.437 0-.859-.187-1.14-.468-.328-.329-.547-.61-.547-1.016Zm0 0"/><path id="E" d="m2.469-9.953-2 .156v.422c.984 0 1.094.094 1.094.797v7.515c0 .641-.157.641-1.094.641V0c.406-.031 1.11-.031 1.547-.031.421 0 1.14 0 1.546.031v-.422c-.921 0-1.093 0-1.093-.64Zm0 0"/><path id="F" d="M3.11-8.703c0-.531.046-.672 1.124-.672h.313v-.422c-.344.031-1.578.031-2.016.031-.422 0-1.672 0-2.015-.03v.421h.312c1.078 0 1.125.14 1.125.672v7.61c0 .53-.047.671-1.125.671H.516V0C.859-.031 2.094-.031 2.53-.031c.422 0 1.672 0 2.016.031v-.422h-.313c-1.078 0-1.125-.14-1.125-.672Zm0 0"/><path id="G" d="M2.406-5.766h2.031v-.421h-2.03v-2.641h-.313c-.016 1.36-.531 2.734-1.828 2.781v.281h1.218v3.985C1.484-.188 2.531.14 3.297.14c.906 0 1.375-.891 1.375-1.922v-.813h-.313v.781c0 1.032-.421 1.641-.968 1.641-.985 0-.985-1.328-.985-1.578Zm0 0"/><path id="H" d="M4.016-3.39C4.437-3.938 5.03-4.704 5.312-5c.579-.672 1.25-.766 1.72-.766v-.421c-.626.03-.641.03-1.204.03-.547 0-.578 0-1.297-.03v.421c.188.032.422.11.422.438 0 .25-.14.406-.219.516l-.921 1.171-1.11-1.484c-.047-.047-.14-.188-.14-.281 0-.094.078-.344.5-.36v-.421c-.344.03-1.079.03-1.47.03-.468 0-.5 0-1.374-.03v.421c.734 0 1 .032 1.297.422l1.687 2.188c.031.031.078.11.078.156 0 .047-1.11 1.453-1.265 1.64C1.39-.593.766-.436.14-.421V0c.546-.031.578-.031 1.187-.031.547 0 .578 0 1.297.031v-.422c-.344-.031-.406-.25-.406-.453 0-.234.11-.344.25-.531.219-.297.687-.89 1.031-1.328l1.172 1.53c.25.313.25.345.25.423 0 .125-.11.344-.5.36V0C4.797-.031 5.5-.031 5.89-.031c.484 0 .5 0 1.375.031v-.422c-.766 0-1.032-.016-1.375-.484Zm0 0"/></defs><path fill="none" stroke="#000" stroke-miterlimit="10" stroke-width=".399" d="M14.371 48.89h106.496V26.41H14.371Zm0 0"/><use xlink:href="#a" x="19.635" y="40.44"/><use xlink:href="#b" x="27.018" y="40.44"/><use xlink:href="#c" x="34.4" y="40.44"/><use xlink:href="#d" x="41.783" y="40.44"/><use xlink:href="#e" x="49.165" y="40.44"/><use xlink:href="#f" x="63.936" y="40.44"/><use xlink:href="#g" x="71.319" y="40.44"/><use xlink:href="#h" x="78.687" y="40.44"/><use xlink:href="#i" x="86.069" y="40.44"/><use xlink:href="#i" x="93.452" y="40.44"/><use xlink:href="#j" x="100.834" y="40.44"/><use xlink:href="#f" x="108.217" y="40.44"/><use xlink:href="#k" x="25.674" y="69.583"/><use xlink:href="#l" x="31.137" y="69.583"/><use xlink:href="#m" x="38.941" y="69.583"/><use xlink:href="#n" x="45.965" y="69.583"/><use xlink:href="#o" x="53.77" y="69.583"/><use xlink:href="#p" x="59.233" y="69.583"/><use xlink:href="#q" x="65.476" y="69.583"/><use xlink:href="#p" x="76.396" y="69.583"/><use xlink:href="#m" x="82.64" y="69.583"/><use xlink:href="#r" x="90.051" y="69.583"/><use xlink:href="#q" x="97.855" y="69.583"/><use xlink:href="#s" x="104.099" y="69.583"/><path fill="none" stroke="#000" stroke-miterlimit="10" stroke-width=".399" d="M216.492 47.297h99.113V28.004h-99.113Zm0 0"/><use xlink:href="#t" x="221.752" y="42.034"/><use xlink:href="#u" x="229.135" y="42.034"/><use xlink:href="#t" x="236.517" y="42.034"/><use xlink:href="#t" x="243.9" y="42.034"/><use xlink:href="#u" x="251.282" y="42.034"/><use xlink:href="#t" x="258.665" y="42.034"/><use xlink:href="#t" x="266.047" y="42.034"/><use xlink:href="#t" x="273.43" y="42.034"/><use xlink:href="#u" x="280.812" y="42.034"/><use xlink:href="#v" x="288.195" y="42.034"/><use xlink:href="#v" x="295.578" y="42.034"/><use xlink:href="#v" x="302.96" y="42.034"/><use xlink:href="#k" x="218.639" y="69.583"/><use xlink:href="#w" x="224.102" y="69.583"/><use xlink:href="#x" x="236.973" y="69.583"/><use xlink:href="#p" x="243.997" y="69.583"/><use xlink:href="#y" x="249.853" y="69.583"/><use xlink:href="#z" x="257.658" y="69.583"/><use xlink:href="#A" x="261.56" y="69.583"/><use xlink:href="#q" x="269.364" y="69.583"/><use xlink:href="#p" x="280.285" y="69.583"/><use xlink:href="#m" x="286.528" y="69.583"/><use xlink:href="#r" x="293.939" y="69.583"/><use xlink:href="#q" x="301.744" y="69.583"/><use xlink:href="#s" x="307.987" y="69.583"/><path fill="none" stroke="#000" stroke-miterlimit="10" stroke-width=".399" d="M232.691 120.156h66.715V96.88h-66.715Zm0 0"/><use xlink:href="#B" x="237.951" y="112.103"/><use xlink:href="#m" x="248.097" y="112.103"/><use xlink:href="#C" x="255.121" y="112.103"/><use xlink:href="#D" x="266.827" y="112.103"/><use xlink:href="#z" x="274.631" y="112.103"/><use xlink:href="#E" x="278.534" y="112.103"/><use xlink:href="#q" x="282.436" y="112.103"/><use xlink:href="#o" x="288.679" y="112.103"/><path fill="none" stroke="#000" stroke-miterlimit="10" stroke-width=".399" d="M227.621 176.77h76.856v-23.118H227.62Zm0 0"/><use xlink:href="#F" x="232.881" y="168.716"/><use xlink:href="#A" x="237.948" y="168.716"/><use xlink:href="#G" x="245.365" y="168.716"/><use xlink:href="#q" x="250.828" y="168.716"/><use xlink:href="#o" x="257.072" y="168.716"/><use xlink:href="#D" x="262.535" y="168.716"/><use xlink:href="#o" x="270.339" y="168.716"/><use xlink:href="#q" x="275.802" y="168.716"/><use xlink:href="#G" x="282.045" y="168.716"/><use xlink:href="#q" x="287.508" y="168.716"/><use xlink:href="#o" x="293.752" y="168.716"/><path fill="none" stroke="#000" stroke-miterlimit="10" stroke-width=".399" d="M121.066 37.648h91.516"/><path stroke="#000" stroke-miterlimit="10" stroke-width=".399" d="m215.723 37.648-4.528-1.703 1.485 1.703-1.485 1.707Zm0 0"/><use xlink:href="#p" x="145.267" y="29.398"/><use xlink:href="#m" x="151.51" y="29.398"/><use xlink:href="#C" x="158.534" y="29.398"/><use xlink:href="#D" x="170.241" y="29.398"/><use xlink:href="#z" x="178.045" y="29.398"/><use xlink:href="#E" x="181.947" y="29.398"/><use xlink:href="#q" x="185.85" y="29.398"/><path fill="none" stroke="#000" stroke-miterlimit="10" stroke-width=".399" d="M232.492 108.516c-56.695 0-65.66-25.512-65.66-61.696"/><path stroke="#000" stroke-miterlimit="10" stroke-width=".399" d="m166.832 43.68-1.703 4.527 1.703-1.484 1.707 1.484Zm0 0"/><path fill="none" stroke="#000" stroke-miterlimit="10" stroke-width=".399" d="M227.422 165.21c-102.05 0-159.8-8.503-159.8-82.87"/><path stroke="#000" stroke-miterlimit="10" stroke-width=".399" d="m67.621 79.2-1.707 4.527 1.707-1.485 1.703 1.485Zm0 0"/><use xlink:href="#q" x="117.859" y="147.545"/><use xlink:href="#H" x="124.102" y="147.545"/><use xlink:href="#q" x="131.517" y="147.545"/><use xlink:href="#p" x="137.76" y="147.545"/><use xlink:href="#n" x="144.004" y="147.545"/><use xlink:href="#G" x="151.808" y="147.545"/><use xlink:href="#q" x="157.271" y="147.545"/></svg>