<svg xmlns="http://www.w3.org/2000/svg" xmlns:xlink="http://www.w3.org/1999/xlink" width="159.14pt" height="87.56pt" viewBox="0 0 159.14 87.56"><defs><path id="d" d="M5.179-.347c0-.347-.323-.347-.49-.347H3.635V-6.96c0-.18 0-.49-.347-.49-.203 0-.275.108-.347.263-.227.514-.622 1.148-1.256 1.196-.179.012-.43.036-.43.347 0 .203.12.347.383.347.67 0 1.184-.503 1.22-.527v5.131H1.805c-.167 0-.49 0-.49.347s.323.347.49.347h2.882c.168 0 .49 0 .49-.347"/><path id="h" d="M5.633-2.07c0-.609-.335-1.458-1.387-1.913.73-.454 1.052-1.172 1.052-1.794 0-.897-.897-1.674-2.188-1.674-1.328 0-2.26.574-2.26 1.459 0 .395.298.514.49.514a.48.48 0 0 0 .478-.49c0-.191-.096-.311-.096-.311.359-.454 1.184-.478 1.388-.478.813 0 1.41.43 1.41.992 0 .347-.226 1.34-1.482 1.424-.443.023-.634.047-.682.047-.24.024-.299.18-.299.347 0 .347.251.347.455.347h.55c1.244 0 1.794.873 1.794 1.519 0 .79-.694 1.53-1.746 1.53-1.196 0-1.735-.645-1.735-.812l.024-.06a.6.6 0 0 0 .084-.287.47.47 0 0 0-.478-.479c-.252 0-.49.156-.49.527C.514-.622 1.65.144 3.11.144c1.507 0 2.523-1.077 2.523-2.213"/><path id="f" d="M5.537-.49v-.252c0-.215 0-.49-.382-.49-.395 0-.395.251-.395.538H1.878L4.162-2.63c.168-.144 1.375-1.172 1.375-2.5 0-1.363-1.124-2.32-2.619-2.32C1.531-7.451.61-6.411.61-5.406a.49.49 0 0 0 .49.538.48.48 0 0 0 .479-.49c0-.227-.084-.3-.144-.347.168-.634.718-1.052 1.411-1.052 1.017 0 1.914.586 1.914 1.626 0 .933-.706 1.65-1.351 2.213L.777-.634C.646-.526.61-.49.61-.347.61 0 .933 0 1.1 0h4.174c.263-.072.263-.311.263-.49"/><path id="i" d="M5.662-.338c0-.328-.272-.328-.436-.328-.458 0-.567-.054-.655-.087v-2.356c0-.775-.589-1.691-2.16-1.691-.469 0-1.582 0-1.582.796 0 .327.23.502.491.502.164 0 .47-.098.48-.502 0-.087.011-.098.23-.12.152-.01.294-.01.392-.01.83 0 1.396.337 1.396 1.112-1.93.033-3.272.578-3.272 1.626 0 .752.687 1.461 1.8 1.461.403 0 1.08-.076 1.593-.414.24.338.763.349 1.178.349.305 0 .545 0 .545-.338M3.818-1.462c0 .251 0 .48-.425.676C3-.6 2.509-.6 2.422-.6c-.676 0-1.124-.371-1.124-.796 0-.535.939-.939 2.52-.982z"/><path id="g" d="M5.237-1.898c0-.819-.71-1.462-1.517-1.691.873-.295 1.364-.83 1.364-1.451 0-.895-.927-1.746-2.226-1.746-1.309 0-2.225.862-2.225 1.746 0 .621.502 1.167 1.364 1.45C1.178-3.36.48-2.716.48-1.897.48-.84 1.495.12 2.858.12c1.375 0 2.379-.96 2.379-2.018M4.33-5.03c0 .622-.676 1.102-1.473 1.102s-1.472-.49-1.472-1.102c0-.567.61-1.09 1.472-1.09.851 0 1.473.523 1.473 1.09m.153 3.12c0 .754-.72 1.364-1.626 1.364s-1.625-.61-1.625-1.363c0-.666.633-1.353 1.625-1.353 1.004 0 1.626.687 1.626 1.353"/><path id="e" d="M5.4-2.171c0-.338-.261-.338-.436-.338h-.85v-3.84c0-.36-.077-.448-.448-.448H3.36c-.262 0-.316.011-.458.23L.415-2.663c-.099.142-.099.164-.099.382 0 .36.099.436.437.436h2.75v1.178h-.677c-.175 0-.437 0-.437.339 0 .327.273.327.437.327h1.963c.164 0 .437 0 .437-.327 0-.339-.262-.339-.437-.339h-.676v-1.178h.851c.164 0 .436 0 .436-.327M3.502-2.51H1.08l2.422-3.808z"/><path id="c" d="M4.822-.327c0-.339-.262-.339-.436-.339h-.993v-5.673c0-.174 0-.447-.327-.447-.208 0-.273.13-.328.262-.414.927-.981 1.047-1.189 1.069-.174.01-.403.033-.403.338 0 .273.196.328.36.328.207 0 .654-.066 1.134-.48v4.603h-.993c-.174 0-.436 0-.436.339 0 .327.273.327.436.327h2.739c.163 0 .436 0 .436-.327"/><path id="j" d="M5.313-4.091c0-.218-.13-.677-1.036-.677-.557 0-1.255.197-1.855.884v-.37c0-.34-.065-.448-.436-.448h-1.2c-.164 0-.437 0-.437.327 0 .338.262.338.437.338h.883v3.371H.786c-.164 0-.437 0-.437.328C.35 0 .611 0 .786 0h2.847c.164 0 .447 0 .447-.327 0-.339-.283-.339-.447-.339H2.422v-1.363c0-1.026.644-2.073 1.964-2.073.01.262.196.48.469.48a.45.45 0 0 0 .458-.47"/><path id="b" d="M5.411-.327c0-.339-.283-.339-.447-.339h-.436L3.13-2.422l1.244-1.615h.436c.153 0 .448 0 .448-.327 0-.338-.284-.338-.448-.338H3.535c-.164 0-.437 0-.437.327 0 .338.24.338.535.338l-.807 1.102-.83-1.102c.284 0 .524 0 .524-.338 0-.327-.273-.327-.436-.327H.807c-.163 0-.447 0-.447.338 0 .327.295.327.447.327h.437L2.53-2.422 1.178-.666H.742c-.164 0-.447 0-.447.339C.295 0 .589 0 .742 0h1.276c.164 0 .437 0 .437-.327 0-.339-.23-.339-.568-.339l.939-1.341.97 1.341c-.305 0-.545 0-.545.339 0 .327.273.327.437.327h1.276c.153 0 .447 0 .447-.327"/><path id="a" d="M5.171-3.328c0-2.029-1.112-3.458-2.313-3.458-1.221 0-2.312 1.462-2.312 3.448C.546-1.31 1.658.12 2.858.12c1.222 0 2.313-1.462 2.313-3.448m-.752-.12c0 1.615-.71 2.903-1.56 2.903s-1.56-1.288-1.56-2.903c0-1.592.752-2.673 1.56-2.673.796 0 1.56 1.07 1.56 2.673"/></defs><g fill="none" stroke="#000" stroke-miterlimit="10" stroke-width=".3985"><path d="M11.538 30.119h17.008v28.347H11.538M130.595 30.119h17.008M130.595 58.466h17.008M28.546 30.119h34.016v28.347H28.546"/></g><g transform="translate(94.561 63.993)scale(1.00008)"><use xlink:href="#a" x="-60.466988" y="-41.883455"/><use xlink:href="#b" x="-54.739243" y="-41.883455"/><use xlink:href="#c" x="-49.011491" y="-41.883455"/><use xlink:href="#a" x="-43.283739" y="-41.883455"/></g><use xlink:href="#d" x="-60.486275" y="-41.896815" transform="translate(102.938 89.896)scale(1.0004)"/><path fill="none" stroke="#000" stroke-miterlimit="10" stroke-width=".3985" d="M62.562 30.119h34.016v28.347H62.562"/><g transform="translate(128.578 63.999)scale(1.00008)"><use xlink:href="#a" x="-60.466988" y="-41.883455"/><use xlink:href="#b" x="-54.739243" y="-41.883455"/><use xlink:href="#c" x="-49.011491" y="-41.883455"/><use xlink:href="#e" x="-43.283739" y="-41.883455"/></g><use xlink:href="#f" x="-60.486275" y="-41.896815" transform="translate(136.954 89.896)scale(1.0004)"/><path fill="none" stroke="#000" stroke-miterlimit="10" stroke-width=".3985" d="M96.578 30.119h34.017v28.347H96.578"/><g transform="translate(162.594 63.993)scale(1.00008)"><use xlink:href="#a" x="-60.466988" y="-41.883455"/><use xlink:href="#b" x="-54.739243" y="-41.883455"/><use xlink:href="#c" x="-49.011491" y="-41.883455"/><use xlink:href="#g" x="-43.283739" y="-41.883455"/></g><use xlink:href="#h" x="-60.486275" y="-41.896815" transform="translate(170.97 89.825)scale(1.0004)"/><g transform="translate(97.425 114.052)scale(1.00008)"><use xlink:href="#i" x="-60.466988" y="-41.883455"/><use xlink:href="#j" x="-54.739243" y="-41.883455"/><use xlink:href="#j" x="-49.011491" y="-41.883455"/></g></svg>