<svg xmlns="http://www.w3.org/2000/svg" xmlns:xlink="http://www.w3.org/1999/xlink" width="224.08pt" height="129.78pt" viewBox="0 0 224.08 129.78"><defs><path id="l" d="M5.179-.347c0-.347-.323-.347-.49-.347H3.635V-6.96c0-.18 0-.49-.347-.49-.203 0-.275.108-.347.263-.227.514-.622 1.148-1.256 1.196-.179.012-.43.036-.43.347 0 .203.12.347.383.347.67 0 1.184-.503 1.22-.527v5.131H1.805c-.167 0-.49 0-.49.347s.323.347.49.347h2.882c.168 0 .49 0 .49-.347"/><path id="p" d="M5.633-2.07c0-.609-.335-1.458-1.387-1.913.73-.454 1.052-1.172 1.052-1.794 0-.897-.897-1.674-2.188-1.674-1.328 0-2.26.574-2.26 1.459 0 .395.298.514.49.514a.48.48 0 0 0 .478-.49c0-.191-.096-.311-.096-.311.359-.454 1.184-.478 1.388-.478.813 0 1.41.43 1.41.992 0 .347-.226 1.34-1.482 1.424-.443.023-.634.047-.682.047-.24.024-.299.18-.299.347 0 .347.251.347.455.347h.55c1.244 0 1.794.873 1.794 1.519 0 .79-.694 1.53-1.746 1.53-1.196 0-1.735-.645-1.735-.812l.024-.06a.6.6 0 0 0 .084-.287.47.47 0 0 0-.478-.479c-.252 0-.49.156-.49.527C.514-.622 1.65.144 3.11.144c1.507 0 2.523-1.077 2.523-2.213"/><path id="n" d="M5.537-.49v-.252c0-.215 0-.49-.382-.49-.395 0-.395.251-.395.538H1.878L4.162-2.63c.168-.144 1.375-1.172 1.375-2.5 0-1.363-1.124-2.32-2.619-2.32C1.531-7.451.61-6.411.61-5.406a.49.49 0 0 0 .49.538.48.48 0 0 0 .479-.49c0-.227-.084-.3-.144-.347.168-.634.718-1.052 1.411-1.052 1.017 0 1.914.586 1.914 1.626 0 .933-.706 1.65-1.351 2.213L.777-.634C.646-.526.61-.49.61-.347.61 0 .933 0 1.1 0h4.174c.263-.072.263-.311.263-.49"/><path id="f" d="M5.662-.338c0-.328-.272-.328-.436-.328-.458 0-.567-.054-.655-.087v-2.356c0-.775-.589-1.691-2.16-1.691-.469 0-1.582 0-1.582.796 0 .327.23.502.491.502.164 0 .47-.098.48-.502 0-.087.011-.098.23-.12.152-.01.294-.01.392-.01.83 0 1.396.337 1.396 1.112-1.93.033-3.272.578-3.272 1.626 0 .752.687 1.461 1.8 1.461.403 0 1.08-.076 1.593-.414.24.338.763.349 1.178.349.305 0 .545 0 .545-.338M3.818-1.462c0 .251 0 .48-.425.676C3-.6 2.509-.6 2.422-.6c-.676 0-1.124-.371-1.124-.796 0-.535.939-.939 2.52-.982z"/><path id="q" d="M5.084-1.19c0-.305-.316-.305-.382-.305-.174 0-.283.022-.36.24-.065.142-.273.655-1.08.655-.927 0-1.713-.764-1.713-1.757 0-.523.306-1.778 1.779-1.778.229 0 .654 0 .654.098.011.382.218.535.48.535s.491-.186.491-.502c0-.796-1.135-.796-1.625-.796C1.45-4.8.796-3.317.796-2.357c0 1.31 1.026 2.422 2.4 2.422 1.517 0 1.888-1.069 1.888-1.254"/><path id="h" d="M3.546-4.015a.682.682 0 1 0-1.364-.01.682.682 0 0 0 1.364.01m0 3.339a.682.682 0 1 0-1.364-.011.682.682 0 0 0 1.364.01"/><path id="o" d="M5.237-1.898c0-.819-.71-1.462-1.517-1.691.873-.295 1.364-.83 1.364-1.451 0-.895-.927-1.746-2.226-1.746-1.309 0-2.225.862-2.225 1.746 0 .621.502 1.167 1.364 1.45C1.178-3.36.48-2.716.48-1.897.48-.84 1.495.12 2.858.12c1.375 0 2.379-.96 2.379-2.018M4.33-5.03c0 .622-.676 1.102-1.473 1.102s-1.472-.49-1.472-1.102c0-.567.61-1.09 1.472-1.09.851 0 1.473.523 1.473 1.09m.153 3.12c0 .754-.72 1.364-1.626 1.364s-1.625-.61-1.625-1.363c0-.666.633-1.353 1.625-1.353 1.004 0 1.626.687 1.626 1.353"/><path id="m" d="M5.4-2.171c0-.338-.261-.338-.436-.338h-.85v-3.84c0-.36-.077-.448-.448-.448H3.36c-.262 0-.316.011-.458.23L.415-2.663c-.099.142-.099.164-.099.382 0 .36.099.436.437.436h2.75v1.178h-.677c-.175 0-.437 0-.437.339 0 .327.273.327.437.327h1.963c.164 0 .437 0 .437-.327 0-.339-.262-.339-.437-.339h-.676v-1.178h.851c.164 0 .436 0 .436-.327M3.502-2.51H1.08l2.422-3.808z"/><path id="d" d="M5.553-4.233c0-.251-.207-.59-.796-.59-.12 0-.655.012-1.157.383a1.9 1.9 0 0 0-1.058-.328c-1.026 0-1.8.819-1.8 1.746 0 .47.185.83.349 1.036-.12.175-.218.415-.218.742 0 .382.153.655.25.786C.317.032.317.775.317.895c0 .938 1.146 1.603 2.542 1.603S5.4 1.822 5.4.895c0-.404-.196-.95-.752-1.244-.142-.076-.6-.317-1.582-.317h-.764c-.087 0-.23 0-.316-.021-.164 0-.23 0-.36-.153-.12-.153-.131-.393-.131-.393 0-.043.021-.196.065-.305.033.022.447.272.982.272 1.004 0 1.8-.785 1.8-1.756 0-.327-.098-.644-.283-.95.229-.13.49-.174.632-.185.066.295.317.371.426.371a.43.43 0 0 0 .436-.447M3.59-3.023c0 .623-.48 1.103-1.047 1.103-.59 0-1.047-.513-1.047-1.091 0-.622.48-1.102 1.047-1.102.59 0 1.047.513 1.047 1.09M4.768.896c0 .48-.819.949-1.91.949S.95 1.374.95.894c0-.196.098-.545.447-.763.273-.175.371-.175 1.168-.175.97 0 2.204 0 2.204.939"/><path id="c" d="M4.964-.327c0-.339-.284-.339-.447-.339H3.37v-3.589c0-.338-.065-.447-.436-.447h-1.55c-.163 0-.447 0-.447.327 0 .338.284.338.448.338h1.232v3.371h-1.32c-.174 0-.447 0-.447.339 0 .327.284.327.447.327h3.219c.163 0 .447 0 .447-.327m-1.55-5.728c0-.306-.24-.546-.545-.546s-.545.24-.545.546.24.545.545.545.546-.24.546-.545"/><path id="g" d="M5.095-.327c0-.339-.262-.339-.436-.339H3.24v-5.553c0-.338-.065-.447-.436-.447H1.08c-.174 0-.447 0-.447.338C.633-6 .916-6 1.069-6h1.418v5.334H1.08c-.174 0-.447 0-.447.339C.633 0 .916 0 1.069 0h3.59c.163 0 .436 0 .436-.327"/><path id="e" d="M5.586-.327c0-.339-.273-.339-.447-.339h-.48v-2.53c0-1.103-.557-1.572-1.419-1.572-.73 0-1.222.371-1.429.579 0-.35 0-.513-.436-.513H.578c-.174 0-.447 0-.447.338 0 .327.284.327.436.327h.491v3.371h-.48c-.174 0-.447 0-.447.339C.13 0 .415 0 .567 0h1.735c.153 0 .436 0 .436-.327 0-.339-.272-.339-.447-.339h-.48v-1.93c0-1.092.807-1.506 1.364-1.506.578 0 .73.305.73.96v2.476H3.48c-.174 0-.447 0-.447.339 0 .327.295.327.447.327h1.67c.152 0 .436 0 .436-.327"/><path id="a" d="M5.095-2.357C5.095-3.72 4.08-4.8 2.858-4.8S.622-3.72.622-2.357C.622-.97 1.658.065 2.858.065S5.095-.982 5.095-2.357m-.753-.076C4.342-1.418 3.666-.6 2.858-.6s-1.483-.818-1.483-1.833c0-.993.709-1.702 1.483-1.702.786 0 1.484.71 1.484 1.702"/><path id="k" d="M4.822-.327c0-.339-.262-.339-.436-.339h-.993v-5.673c0-.174 0-.447-.327-.447-.208 0-.273.13-.328.262-.414.927-.981 1.047-1.189 1.069-.174.01-.403.033-.403.338 0 .273.196.328.36.328.207 0 .654-.066 1.134-.48v4.603h-.993c-.174 0-.436 0-.436.339 0 .327.273.327.436.327h2.739c.163 0 .436 0 .436-.327"/><path id="r" d="M5.324-2.357c0-1.341-.97-2.41-2.127-2.41-.524 0-1.015.196-1.386.534 0-.316-.022-.47-.436-.47H.578c-.174 0-.447 0-.447.339 0 .327.284.327.436.327h.491v5.794h-.48c-.174 0-.447 0-.447.338 0 .327.284.327.436.327h1.735c.153 0 .436 0 .436-.327 0-.338-.272-.338-.447-.338h-.48V-.491c.447.458.917.556 1.266.556 1.189 0 2.247-1.036 2.247-2.422m-.753 0C4.571-1.309 3.808-.6 3.044-.6c-.851 0-1.233-.96-1.233-1.484v-.796c0-.644.633-1.222 1.32-1.222.808 0 1.44.796 1.44 1.745"/><path id="b" d="M5.313-4.091c0-.218-.13-.677-1.036-.677-.557 0-1.255.197-1.855.884v-.37c0-.34-.065-.448-.436-.448h-1.2c-.164 0-.437 0-.437.327 0 .338.262.338.437.338h.883v3.371H.786c-.164 0-.437 0-.437.328C.35 0 .611 0 .786 0h2.847c.164 0 .447 0 .447-.327 0-.339-.283-.339-.447-.339H2.422v-1.363c0-1.026.644-2.073 1.964-2.073.01.262.196.48.469.48a.45.45 0 0 0 .458-.47"/><path id="t" d="M5.15-.447v-.284c0-.207 0-.447-.371-.447-.382 0-.382.207-.382.512H1.8c.644-.556 1.691-1.374 2.16-1.81.688-.612 1.19-1.31 1.19-2.183 0-1.309-1.102-2.127-2.433-2.127-1.288 0-2.15.895-2.15 1.822a.486.486 0 1 0 .971.033.45.45 0 0 0-.152-.35c.163-.501.676-.84 1.276-.84.895 0 1.735.502 1.735 1.462 0 .764-.535 1.397-1.255 1.997L.731-.632c-.098.087-.164.141-.164.294C.567 0 .84 0 1.015 0h3.698c.36 0 .437-.098.437-.447"/><path id="j" d="M5.411-.327c0-.339-.283-.339-.447-.339h-.436L3.13-2.422l1.244-1.615h.436c.153 0 .448 0 .448-.327 0-.338-.284-.338-.448-.338H3.535c-.164 0-.437 0-.437.327 0 .338.24.338.535.338l-.807 1.102-.83-1.102c.284 0 .524 0 .524-.338 0-.327-.273-.327-.436-.327H.807c-.163 0-.447 0-.447.338 0 .327.295.327.447.327h.437L2.53-2.422 1.178-.666H.742c-.164 0-.447 0-.447.339C.295 0 .589 0 .742 0h1.276c.164 0 .437 0 .437-.327 0-.339-.23-.339-.568-.339l.939-1.341.97 1.341c-.305 0-.545 0-.545.339 0 .327.273.327.437.327h1.276c.153 0 .447 0 .447-.327"/><path id="s" d="M5.455-4.364c0-.338-.262-.338-.436-.338H3.742c-.164 0-.436 0-.436.327 0 .338.262.338.436.338h.306l-.786 2.324c-.142.404-.207.6-.284.938h-.01c-.055-.207-.153-.436-.23-.643L1.724-4.037h.273c.163 0 .436 0 .436-.327 0-.338-.262-.338-.436-.338H.72c-.174 0-.436 0-.436.338 0 .327.272.327.436.327h.338l1.55 3.895c.043.11.043.142.043.142s-.273.916-.414 1.19c-.317.6-.71.621-.873.632 0 0 .054-.098.054-.24a.453.453 0 0 0-.469-.47c-.294 0-.48.197-.48.48a.9.9 0 0 0 .906.895c1.09 0 1.582-1.44 1.625-1.56l1.691-4.964h.328c.163 0 .436 0 .436-.327"/><path id="i" d="M5.171-3.328c0-2.029-1.112-3.458-2.313-3.458-1.221 0-2.312 1.462-2.312 3.448C.546-1.31 1.658.12 2.858.12c1.222 0 2.313-1.462 2.313-3.448m-.752-.12c0 1.615-.71 2.903-1.56 2.903s-1.56-1.288-1.56-2.903c0-1.592.752-2.673 1.56-2.673.796 0 1.56 1.07 1.56 2.673"/></defs><g transform="translate(10.847 88.257)scale(1.00008)"><use xlink:href="#a" x="4.475369" y="-41.883455"/><use xlink:href="#b" x="10.20312" y="-41.883455"/><use xlink:href="#c" x="15.93087" y="-41.883455"/><use xlink:href="#d" x="21.658621" y="-41.883455"/><use xlink:href="#c" x="27.386371" y="-41.883455"/><use xlink:href="#e" x="33.114122" y="-41.883455"/><use xlink:href="#f" x="38.841874" y="-41.883455"/><use xlink:href="#g" x="44.569627" y="-41.883455"/><use xlink:href="#h" x="50.297379" y="-41.883455"/></g><g fill="none" stroke="#000" stroke-miterlimit="10" stroke-width=".3985"><path d="M76.475 30.12h17.008v28.347H76.475M195.532 30.12h17.008M195.532 58.467h17.008M93.483 30.12H127.5v28.347H93.483"/></g><g transform="translate(94.561 63.994)scale(1.00008)"><use xlink:href="#i" x="4.475369" y="-41.883455"/><use xlink:href="#j" x="10.20312" y="-41.883455"/><use xlink:href="#k" x="15.93087" y="-41.883455"/><use xlink:href="#i" x="21.658621" y="-41.883455"/></g><use xlink:href="#l" x="4.476797" y="-41.896815" transform="translate(102.938 89.897)scale(1.0004)"/><path fill="none" stroke="#000" stroke-miterlimit="10" stroke-width=".3985" d="M127.5 30.12h34.015v28.347H127.5"/><g transform="translate(128.578 64)scale(1.00008)"><use xlink:href="#i" x="4.475369" y="-41.883455"/><use xlink:href="#j" x="10.20312" y="-41.883455"/><use xlink:href="#k" x="15.93087" y="-41.883455"/><use xlink:href="#m" x="21.658621" y="-41.883455"/></g><use xlink:href="#n" x="4.476797" y="-41.896815" transform="translate(136.954 89.897)scale(1.0004)"/><path fill="none" stroke="#000" stroke-miterlimit="10" stroke-width=".3985" d="M161.515 30.12h34.017v28.347h-34.017"/><g transform="translate(162.594 63.994)scale(1.00008)"><use xlink:href="#i" x="4.475369" y="-41.883455"/><use xlink:href="#j" x="10.20312" y="-41.883455"/><use xlink:href="#k" x="15.93087" y="-41.883455"/><use xlink:href="#o" x="21.658621" y="-41.883455"/></g><use xlink:href="#p" x="4.476797" y="-41.896815" transform="translate(170.97 89.826)scale(1.0004)"/><g transform="translate(10.847 147.106)scale(1.00008)"><use xlink:href="#q" x="25.654116" y="-41.883455"/><use xlink:href="#a" x="31.381868" y="-41.883455"/><use xlink:href="#r" x="37.109618" y="-41.883455"/><use xlink:href="#s" x="42.837364" y="-41.883455"/><use xlink:href="#h" x="48.565116" y="-41.883455"/></g><g fill="none" stroke="#000" stroke-miterlimit="10" stroke-width=".3985"><path d="M76.475 89.897h17.008v28.346H76.475M195.532 89.897h17.008M195.532 118.243h17.008M93.483 89.897H127.5v28.346H93.483"/></g><g transform="translate(94.561 123.771)scale(1.00008)"><use xlink:href="#i" x="4.475369" y="-41.883455"/><use xlink:href="#j" x="10.20312" y="-41.883455"/><use xlink:href="#t" x="15.93087" y="-41.883455"/><use xlink:href="#i" x="21.658621" y="-41.883455"/></g><use xlink:href="#l" x="4.476797" y="-41.896815" transform="translate(102.938 149.674)scale(1.0004)"/><path fill="none" stroke="#000" stroke-miterlimit="10" stroke-width=".3985" d="M127.5 89.897h34.015v28.346H127.5"/><g transform="translate(128.578 123.776)scale(1.00008)"><use xlink:href="#i" x="4.475369" y="-41.883455"/><use xlink:href="#j" x="10.20312" y="-41.883455"/><use xlink:href="#t" x="15.93087" y="-41.883455"/><use xlink:href="#m" x="21.658621" y="-41.883455"/></g><use xlink:href="#n" x="4.476797" y="-41.896815" transform="translate(136.954 149.674)scale(1.0004)"/><path fill="none" stroke="#000" stroke-miterlimit="10" stroke-width=".3985" d="M161.515 89.897h34.017v28.346h-34.017"/><g transform="translate(162.594 123.771)scale(1.00008)"><use xlink:href="#i" x="4.475369" y="-41.883455"/><use xlink:href="#j" x="10.20312" y="-41.883455"/><use xlink:href="#t" x="15.93087" y="-41.883455"/><use xlink:href="#o" x="21.658621" y="-41.883455"/></g><use xlink:href="#p" x="4.476797" y="-41.896815" transform="translate(170.97 149.602)scale(1.0004)"/></svg>