<svg xmlns="http://www.w3.org/2000/svg" xmlns:xlink="http://www.w3.org/1999/xlink" width="204.944" height="97.523"><defs><path id="a" d="M4.578-11c0-.36-.016-.375-.25-.375-.672.797-1.687 1.063-2.656 1.094-.047 0-.14 0-.156.031-.016.047-.016.078-.016.438.531 0 1.422-.11 2.11-.516v9.078c0 .594-.032.797-1.516.797h-.516V0a135.04 135.04 0 0 1 2.516-.031c.828 0 1.687.015 2.515.031v-.453h-.515c-1.485 0-1.516-.188-1.516-.797Zm0 0"/><path id="b" d="M6.484-4h4.563c.25 0 .547 0 .547-.281 0-.313-.281-.313-.547-.313H6.484v-4.562c0-.25 0-.531-.28-.531-.313 0-.313.265-.313.53v4.563H1.328c-.25 0-.531 0-.531.282 0 .312.265.312.531.312h4.563V.563c0 .25 0 .546.296.546.297 0 .297-.28.297-.546Zm0 0"/><path id="c" d="M7.188-2.672h-.313c-.172 1.219-.313 1.438-.39 1.531C6.405-1 5.171-1 4.921-1H1.625c.61-.672 1.813-1.89 3.281-3.313 1.047-.984 2.282-2.156 2.282-3.859 0-2.031-1.625-3.203-3.438-3.203-1.89 0-3.047 1.656-3.047 3.219 0 .672.5.75.703.75.172 0 .688-.094.688-.703 0-.532-.438-.688-.688-.688a.673.673 0 0 0-.265.047c.328-1.453 1.328-2.188 2.375-2.188 1.5 0 2.468 1.188 2.468 2.766 0 1.485-.875 2.781-1.859 3.906L.703-.39V0h6.063Zm0 0"/></defs><use xlink:href="#a" x="22.823" y="53.624"/><path fill="none" stroke="#000" stroke-miterlimit="10" stroke-width=".398" d="M19.438 37.047h14.667M19.637 62.55V37.048M33.906 62.55V37.048M19.438 62.55h14.667"/><use xlink:href="#b" x="37.493" y="53.624"/><path fill="none" stroke="#000" stroke-miterlimit="10" stroke-width=".398" d="M34.105 37.047h19.168M34.305 62.55V37.048M53.074 62.55V37.048M34.105 62.55h19.168"/><use xlink:href="#c" x="56.66" y="53.624"/><path fill="none" stroke="#000" stroke-miterlimit="10" stroke-width=".398" d="M53.273 37.047h14.668M53.473 62.55V37.048M67.742 62.55V37.048M53.273 62.55h14.668"/><path fill="none" stroke="#000" stroke-miterlimit="10" stroke-width=".399" d="M175.023 26.813c0-6.872-5.57-12.442-12.441-12.442s-12.441 5.57-12.441 12.441c0 6.872 5.57 12.442 12.441 12.442s12.441-5.57 12.441-12.441Zm0 0"/><use xlink:href="#b" x="156.384" y="31.117"/><path fill="none" stroke="#000" stroke-miterlimit="10" stroke-width=".399" d="M156.559 72.168c0-6.066-4.918-10.984-10.985-10.984-6.066 0-10.984 4.918-10.984 10.984s4.918 10.984 10.984 10.984c6.067 0 10.985-4.918 10.985-10.984Zm0 0"/><use xlink:href="#a" x="141.625" y="77.716"/><path fill="none" stroke="#000" stroke-miterlimit="10" stroke-width=".399" d="M158.145 38.648 149.5 61.7M190.574 72.168c0-6.066-4.918-10.984-10.984-10.984-6.067 0-10.98 4.918-10.98 10.984s4.913 10.984 10.98 10.984c6.066 0 10.984-4.918 10.984-10.984Zm0 0"/><use xlink:href="#c" x="175.641" y="77.716"/><path fill="none" stroke="#000" stroke-miterlimit="10" stroke-width=".399" d="m167.02 38.648 8.644 23.051M90.414 49.8h17.434"/><path stroke="#000" stroke-miterlimit="10" stroke-width=".399" d="m110.992 49.8-4.527-1.706 1.484 1.707-1.484 1.703Zm0 0"/></svg>