<svg xmlns="http://www.w3.org/2000/svg" xmlns:xlink="http://www.w3.org/1999/xlink" width="229.765" height="155.303"><defs><path id="a" d="M5-4.703h2.438c.218 0 .78 0 .78-.547 0-.563-.546-.563-.78-.563H5V-8.28c0-.219 0-.781-.563-.781-.562 0-.562.546-.562.78v2.47H1.406c-.218 0-.765 0-.765.546 0 .563.53.563.765.563h2.469v2.469c0 .218 0 .765.547.765C5-1.469 5-2 5-2.234Zm0 0"/><path id="e" d="M7.328-6.344c.219-.093.375-.25.375-.515 0-.329-.297-.532-.547-.532-.11 0-.25.094-.36.141L4.892-6.062c0-.485.046-2.016.046-2.391a.51.51 0 0 0-.515-.516.51.51 0 0 0-.516.516c0 .5 0 .64.016.656.015.344.031 1.344.031 1.734L2.047-7.25c-.094-.047-.235-.14-.36-.14-.234 0-.53.202-.53.53 0 .266.155.423.359.516l2 1.078-2 1.079c-.204.109-.36.265-.36.515 0 .328.297.531.532.531.125 0 .265-.078.359-.125l1.906-1.187-.015 1.094c-.032.296-.032.968-.032 1.296a.52.52 0 0 0 .516.516.52.52 0 0 0 .516-.516c0-.406-.047-1.921-.047-2.39l1.703 1.047c.422.265.453.265.562.265.25 0 .547-.203.547-.53 0-.204-.125-.36-.281-.454-.438-.266-1.375-.766-2.078-1.125Zm0 0"/><path id="g" d="M5.234-10.016c0-.265 0-.718-.5-.718-.296 0-.39.156-.5.39-.328.735-.89 1.64-1.812 1.719-.25.016-.61.047-.61.5 0 .297.172.5.547.5.97 0 1.704-.719 1.75-.766V-1H2.594c-.235 0-.703 0-.703.5s.468.5.703.5H6.75c.234 0 .703 0 .703-.5S6.984-1 6.75-1H5.234Zm0 0"/><path id="h" d="M5.984-3.781C6.234-4 7.97-5.47 7.97-7.391c0-1.953-1.61-3.343-3.766-3.343-2 0-3.328 1.5-3.328 2.953 0 .718.61.765.703.765a.685.685 0 0 0 .688-.703c0-.328-.11-.422-.204-.5.25-.906 1.032-1.515 2.032-1.515 1.468 0 2.765.843 2.765 2.343 0 1.344-1.015 2.375-1.953 3.188L1.125-.906C.937-.75.875-.703.875-.5c0 .5.469.5.703.5h6.016c.375-.11.375-.453.375-.703v-.36c0-.312 0-.718-.547-.718-.563 0-.563.375-.563.781H2.703Zm0 0"/><path id="i" d="M4.406-5.188c1.797 0 2.578 1.266 2.578 2.188 0 1.14-1 2.203-2.5 2.203-1.734 0-2.5-.922-2.5-1.172a.12.12 0 0 1 .032-.078.95.95 0 0 0 .125-.422.683.683 0 0 0-.688-.687c-.375 0-.719.234-.719.765 0 1.5 1.641 2.594 3.75 2.594 2.157 0 3.625-1.547 3.625-3.187 0-.875-.484-2.094-2-2.75 1.047-.657 1.516-1.688 1.516-2.579 0-1.296-1.281-2.421-3.14-2.421-1.923 0-3.266.828-3.266 2.109 0 .563.437.734.703.734.312 0 .703-.234.703-.703 0-.281-.14-.422-.14-.453.515-.64 1.703-.687 2-.687 1.156 0 2.03.625 2.03 1.437 0 .5-.327 1.922-2.14 2.047-.64.031-.906.063-.984.063-.344.046-.422.265-.422.5 0 .5.36.5.64.5Zm0 0"/><path id="j" d="M7.375.984c0-.234-.125-.296-.36-.468-2.39-1.641-2.968-4.094-2.968-5.766 0-1.64.547-4.11 2.969-5.781.234-.172.359-.25.359-.469 0-.172-.094-.453-.5-.453-.438 0-1.703 1-2.5 2.125-.969 1.344-1.453 2.937-1.453 4.578 0 1.906.687 3.516 1.422 4.531.781 1.094 2.047 2.14 2.531 2.14.406 0 .5-.28.5-.437Zm0 0"/><path id="k" d="M5.922-5.25A7.909 7.909 0 0 0 4.359-10c-.593-.797-1.859-1.953-2.375-1.953-.406 0-.5.297-.5.453 0 .203.11.297.422.5 2.11 1.484 2.89 3.781 2.89 5.734 0 1.547-.484 4.079-2.952 5.782-.219.156-.36.234-.36.468 0 .157.094.438.5.438.422 0 1.704-.984 2.5-2.11A7.989 7.989 0 0 0 5.922-5.25Zm0 0"/><path id="b" d="M3.672-4.313c1.484 0 2.156 1.047 2.156 1.813 0 .953-.844 1.844-2.094 1.844-1.437 0-2.078-.781-2.078-.985 0-.015 0-.046.016-.062a.687.687 0 0 0 .11-.344.567.567 0 0 0-.579-.578C.906-2.625.61-2.437.61-2 .61-.75 1.984.172 3.734.172c1.797 0 3.016-1.297 3.016-2.656 0-.735-.39-1.75-1.656-2.297.875-.547 1.265-1.407 1.265-2.14C6.36-8 5.281-8.938 3.734-8.938c-1.593 0-2.718.687-2.718 1.75a.587.587 0 1 0 1.171.03c0-.234-.124-.359-.124-.374.437-.547 1.421-.578 1.671-.578.97 0 1.688.515 1.688 1.203 0 .406-.266 1.593-1.781 1.703-.532.031-.75.047-.813.047-.297.031-.36.218-.36.422 0 .421.298.421.548.421Zm0 0"/><path id="c" d="M6.656-4.375c0-2.672-1.422-4.563-2.968-4.563-1.563 0-2.97 1.922-2.97 4.547 0 2.672 1.423 4.563 2.97 4.563 1.562 0 2.968-1.922 2.968-4.547ZM3.688-.656c-1.141 0-2.032-1.735-2.032-3.875 0-2.14.985-3.578 2.032-3.578 1.046 0 2.03 1.437 2.03 3.578 0 2.125-.905 3.875-2.03 3.875Zm0 0"/><path id="d" d="M4.36-8.344c0-.219 0-.594-.423-.594-.234 0-.328.126-.406.313C3.25-8 2.781-7.25 2.016-7.187c-.204.015-.516.046-.516.421 0 .235.156.407.469.407.797 0 1.422-.594 1.453-.625v6.156h-1.25c-.203 0-.594 0-.594.406 0 .422.39.422.594.422h3.453c.203 0 .578 0 .578-.422 0-.406-.375-.406-.578-.406H4.359Zm0 0"/><path id="f" d="M.547-3.438c-.125.188-.125.204-.125.47 0 .5.187.562.562.562H4.5v1.578h-.86c-.203 0-.578 0-.578.406 0 .422.376.422.579.422h2.53c.204 0 .563 0 .563-.422 0-.406-.359-.406-.562-.406h-.86v-1.578h1.079c.187 0 .562 0 .562-.422 0-.406-.375-.406-.562-.406H5.312v-5.141c0-.469-.109-.594-.593-.594H4.39c-.344 0-.422.016-.594.297Zm.828.204L4.5-8.266v5.032Zm0 0"/></defs><use xlink:href="#a" x="61.956" y="30.95"/><path fill="none" stroke="#000" stroke-miterlimit="10" stroke-width=".398" d="M58.57 14.371h15.633M58.77 39.879V14.37M74.004 39.879V14.37M58.57 39.879h15.633"/><use xlink:href="#b" x="43.063" y="51.434"/><use xlink:href="#c" x="50.446" y="51.434"/><use xlink:href="#b" x="74.943" y="51.434"/><use xlink:href="#d" x="82.326" y="51.434"/><use xlink:href="#e" x="146.995" y="30.95"/><path fill="none" stroke="#000" stroke-miterlimit="10" stroke-width=".398" d="M143.61 14.371h15.632M143.809 39.879V14.37M159.043 39.879V14.37M143.61 39.879h15.632"/><use xlink:href="#f" x="128.102" y="51.434"/><use xlink:href="#c" x="135.485" y="51.434"/><use xlink:href="#f" x="159.983" y="51.434"/><use xlink:href="#d" x="167.366" y="51.434"/><use xlink:href="#g" x="19.436" y="94.747"/><use xlink:href="#h" x="104.476" y="94.747"/><use xlink:href="#i" x="189.515" y="94.747"/><path fill="none" stroke="#000" stroke-miterlimit="10" stroke-width=".399" d="m30.582 78.766 11.73-18.727"/><path stroke="#000" stroke-miterlimit="10" stroke-width=".39899202" d="m43.98 57.379-3.847 2.93 2.23-.352.657 2.16Zm0 0"/><path fill="none" stroke="#000" stroke-miterlimit="10" stroke-width=".399" d="m115.621 78.766 11.73-18.727"/><path stroke="#000" stroke-miterlimit="10" stroke-width=".39899202" d="m129.02 57.379-3.848 2.93 2.234-.352.656 2.16Zm0 0"/><path fill="none" stroke="#000" stroke-miterlimit="10" stroke-width=".399" d="M187.23 78.766 175.5 60.039"/><path stroke="#000" stroke-miterlimit="10" stroke-width=".39899202" d="m173.832 57.379.961 4.738.656-2.16 2.23.352Zm0 0"/><use xlink:href="#g" x="19.436" y="134.432"/><use xlink:href="#a" x="61.956" y="133.7"/><use xlink:href="#h" x="104.476" y="134.432"/><use xlink:href="#e" x="146.995" y="133.655"/><use xlink:href="#i" x="189.515" y="134.432"/><use xlink:href="#j" x="92.52" y="134.432"/><use xlink:href="#k" x="201.47" y="134.432"/></svg>