<svg xmlns="http://www.w3.org/2000/svg" xmlns:xlink="http://www.w3.org/1999/xlink" width="229.765" height="155.303"><defs><path id="a" d="M7.469-6.016c.234 0 .75 0 .75-.546 0-.563-.578-.563-.828-.563H1.469c-.266 0-.828 0-.828.563 0 .546.53.546.734.546ZM7.39-3.39c.25 0 .828 0 .828-.562 0-.563-.547-.563-.75-.563H1.375c-.219 0-.734 0-.734.563 0 .562.562.562.828.562Zm0 0"/><path id="d" d="M7.125-4.89c0-1.313-.984-2.688-3.297-2.688-.734 0-2.406 0-2.406 1.187 0 .47.328.72.719.72.093 0 .671-.032.687-.75 0-.095.016-.11.375-.141.203-.016.438-.016.64-.016.391 0 .985 0 1.548.437.625.47.625.954.625 1.454C5-4.657 4-4.579 2.922-4.234c-.86.296-1.953.906-1.953 2.078C.969-.937 2.047.109 3.656.109c.547 0 1.61-.093 2.516-.718.344.578 1.203.609 1.86.609.405 0 .812 0 .812-.5S8.406-1 8.156-1c-.437 0-.781-.031-1.031-.14Zm-1.11 2.624c0 .391 0 .75-.718 1.079-.594.296-1.406.296-1.453.296-1.016 0-1.766-.562-1.766-1.265 0-1.016 1.844-1.594 3.938-1.594Zm0 0"/><path id="e" d="M2.766-9.813c0-.53-.094-.703-.688-.703H.953c-.25 0-.687 0-.687.5s.437.5.687.5h.703v8.813c0 .312 0 .703.563.703.547 0 .547-.36.547-.86.421.47 1.062.97 2.015.97C6.61.11 8.22-1.532 8.22-3.72c0-2.125-1.453-3.812-3.25-3.812-1.25 0-2.047.765-2.203.937Zm0 5.235c0-.984.968-1.953 2.093-1.953 1.235 0 2.235 1.265 2.235 2.812 0 1.656-1.172 2.828-2.39 2.828-1.298 0-1.938-1.468-1.938-2.328Zm0 0"/><path id="f" d="M5.234-10.016c0-.265 0-.718-.5-.718-.296 0-.39.156-.5.39-.328.735-.89 1.64-1.812 1.719-.25.016-.61.047-.61.5 0 .297.172.5.547.5.97 0 1.704-.719 1.75-.766V-1H2.594c-.235 0-.703 0-.703.5s.468.5.703.5H6.75c.234 0 .703 0 .703-.5S6.984-1 6.75-1H5.234Zm0 0"/><path id="g" d="M7.375.984c0-.234-.125-.296-.36-.468-2.39-1.641-2.968-4.094-2.968-5.766 0-1.64.547-4.11 2.969-5.781.234-.172.359-.25.359-.469 0-.172-.094-.453-.5-.453-.438 0-1.703 1-2.5 2.125-.969 1.344-1.453 2.937-1.453 4.578 0 1.906.687 3.516 1.422 4.531.781 1.094 2.047 2.14 2.531 2.14.406 0 .5-.28.5-.437Zm0 0"/><path id="h" d="M5.922-5.25A7.909 7.909 0 0 0 4.359-10c-.593-.797-1.859-1.953-2.375-1.953-.406 0-.5.297-.5.453 0 .203.11.297.422.5 2.11 1.484 2.89 3.781 2.89 5.734 0 1.547-.484 4.079-2.952 5.782-.219.156-.36.234-.36.468 0 .157.094.438.5.438.422 0 1.704-.984 2.5-2.11A7.989 7.989 0 0 0 5.922-5.25Zm0 0"/><path id="b" d="M4.36-8.344c0-.219 0-.594-.423-.594-.234 0-.328.126-.406.313C3.25-8 2.781-7.25 2.016-7.187c-.204.015-.516.046-.516.421 0 .235.156.407.469.407.797 0 1.422-.594 1.453-.625v6.156h-1.25c-.203 0-.594 0-.594.406 0 .422.39.422.594.422h3.453c.203 0 .578 0 .578-.422 0-.406-.375-.406-.578-.406H4.359Zm0 0"/><path id="c" d="M6.656-4.375c0-2.672-1.422-4.563-2.968-4.563-1.563 0-2.97 1.922-2.97 4.547 0 2.672 1.423 4.563 2.97 4.563 1.562 0 2.968-1.922 2.968-4.547ZM3.688-.656c-1.141 0-2.032-1.735-2.032-3.875 0-2.14.985-3.578 2.032-3.578 1.046 0 2.03 1.437 2.03 3.578 0 2.125-.905 3.875-2.03 3.875Zm0 0"/></defs><use xlink:href="#a" x="61.956" y="30.95"/><path fill="none" stroke="#000" stroke-miterlimit="10" stroke-width=".398" d="M58.57 14.371h15.633M58.77 39.879V14.37M74.004 39.879V14.37M58.57 39.879h15.633"/><use xlink:href="#b" x="43.063" y="51.434"/><use xlink:href="#b" x="50.446" y="51.434"/><use xlink:href="#b" x="74.943" y="51.434"/><use xlink:href="#c" x="82.326" y="51.434"/><use xlink:href="#a" x="146.995" y="30.95"/><path fill="none" stroke="#000" stroke-miterlimit="10" stroke-width=".398" d="M143.61 14.371h15.632M143.809 39.879V14.37M159.043 39.879V14.37M143.61 39.879h15.632"/><use xlink:href="#b" x="128.102" y="51.434"/><use xlink:href="#b" x="135.485" y="51.434"/><use xlink:href="#b" x="159.983" y="51.434"/><use xlink:href="#c" x="167.366" y="51.434"/><use xlink:href="#d" x="19.436" y="93.193"/><use xlink:href="#e" x="104.476" y="94.747"/><use xlink:href="#f" x="189.515" y="94.747"/><path fill="none" stroke="#000" stroke-miterlimit="10" stroke-width=".399" d="m29.61 80.32 12.703-20.28"/><path stroke="#000" stroke-miterlimit="10" stroke-width=".39899202" d="m43.98 57.379-3.847 2.93 2.23-.352.657 2.16Zm0 0"/><path fill="none" stroke="#000" stroke-miterlimit="10" stroke-width=".399" d="m115.621 78.766 11.73-18.727"/><path stroke="#000" stroke-miterlimit="10" stroke-width=".39899202" d="m129.02 57.379-3.848 2.93 2.234-.352.656 2.16Zm0 0"/><path fill="none" stroke="#000" stroke-miterlimit="10" stroke-width=".399" d="M187.23 78.766 175.5 60.039"/><path stroke="#000" stroke-miterlimit="10" stroke-width=".39899202" d="m173.832 57.379.961 4.738.656-2.16 2.23.352Zm0 0"/><use xlink:href="#d" x="19.436" y="132.878"/><use xlink:href="#a" x="61.956" y="132.73"/><use xlink:href="#e" x="104.476" y="134.432"/><use xlink:href="#a" x="146.995" y="132.73"/><use xlink:href="#f" x="189.515" y="134.432"/><use xlink:href="#g" x="92.52" y="134.432"/><use xlink:href="#h" x="201.47" y="134.432"/></svg>