<svg xmlns="http://www.w3.org/2000/svg" xmlns:xlink="http://www.w3.org/1999/xlink" width="550.215" height="167.721"><defs><path id="a" d="M4.578-11c0-.36-.016-.375-.25-.375-.672.797-1.687 1.063-2.656 1.094-.047 0-.14 0-.156.031-.016.047-.016.078-.016.438.531 0 1.422-.11 2.11-.516v9.078c0 .594-.032.797-1.516.797h-.516V0a135.04 135.04 0 0 1 2.516-.031c.828 0 1.687.015 2.515.031v-.453h-.515c-1.485 0-1.516-.188-1.516-.797Zm0 0"/><path id="b" d="M6.484-4h4.563c.25 0 .547 0 .547-.281 0-.313-.281-.313-.547-.313H6.484v-4.562c0-.25 0-.531-.28-.531-.313 0-.313.265-.313.53v4.563H1.328c-.25 0-.531 0-.531.282 0 .312.265.312.531.312h4.563V.563c0 .25 0 .546.296.546.297 0 .297-.28.297-.546Zm0 0"/><path id="c" d="M7.188-2.672h-.313c-.172 1.219-.313 1.438-.39 1.531C6.405-1 5.171-1 4.921-1H1.625c.61-.672 1.813-1.89 3.281-3.313 1.047-.984 2.282-2.156 2.282-3.859 0-2.031-1.625-3.203-3.438-3.203-1.89 0-3.047 1.656-3.047 3.219 0 .672.5.75.703.75.172 0 .688-.094.688-.703 0-.532-.438-.688-.688-.688a.673.673 0 0 0-.265.047c.328-1.453 1.328-2.188 2.375-2.188 1.5 0 2.468 1.188 2.468 2.766 0 1.485-.875 2.781-1.859 3.906L.703-.39V0h6.063Zm0 0"/><path id="d" d="M3.813-5.86c1.53 0 2.203 1.329 2.203 2.86 0 2.063-1.11 2.86-2.11 2.86-.906 0-2.39-.438-2.86-1.766a.774.774 0 0 0 .266.031c.407 0 .72-.281.72-.719 0-.5-.376-.734-.72-.734-.296 0-.75.14-.75.781C.563-.969 2.125.281 3.938.281c1.922 0 3.376-1.5 3.376-3.265 0-1.672-1.375-2.875-3-3.063 1.296-.266 2.562-1.437 2.562-3.016 0-1.343-1.36-2.312-2.922-2.312s-2.937.953-2.937 2.328c0 .61.453.719.671.719.36 0 .672-.235.672-.672 0-.453-.312-.672-.671-.672-.063 0-.157 0-.22.031.5-1.14 1.86-1.343 2.454-1.343.61 0 1.75.296 1.75 1.937 0 .485-.078 1.344-.656 2.11-.516.671-1.11.703-1.672.75-.094 0-.485.046-.547.046-.125.016-.203.032-.203.157 0 .109.031.125.375.125Zm0 0"/><path id="e" d="M3.094-5.344h2.328c.203 0 .578 0 .578-.422 0-.421-.375-.421-.578-.421H3.094V-7.36c0-.25 0-.594-.453-.594-.47 0-.47.344-.47.594v1.171H.954c-.203 0-.594 0-.594.422s.375.422.579.422h1.234v3.61c0 1.328.906 1.828 1.937 1.828.782 0 2.204-.39 2.204-1.86 0-.28 0-.593-.47-.593-.468 0-.468.312-.468.609-.016.86-.828 1-1.156 1-1.125 0-1.125-.719-1.125-1.063Zm0 0"/><path id="f" d="M6.547-3.094c0-1.797-1.313-3.219-2.86-3.219-1.546 0-2.859 1.422-2.859 3.22 0 1.796 1.328 3.187 2.86 3.187 1.53 0 2.859-1.39 2.859-3.188ZM3.687-.75c-1.03 0-1.921-1.094-1.921-2.453 0-1.328.921-2.281 1.921-2.281s1.922.953 1.922 2.28c0 1.376-.89 2.454-1.921 2.454Zm0 0"/><path id="g" d="M2.89 3.188c.204 0 .579 0 .579-.422 0-.407-.375-.407-.578-.407h-.579V-.719c.344.39.876.813 1.672.813 1.532 0 2.86-1.375 2.86-3.188 0-1.765-1.203-3.172-2.703-3.172a2.56 2.56 0 0 0-1.829.766c0-.469 0-.688-.578-.688H.781c-.187 0-.562 0-.562.422s.375.422.562.422h.594V2.36H.781c-.187 0-.562 0-.562.407 0 .421.375.421.562.421Zm-.578-7c0-.829.797-1.626 1.735-1.626 1.031 0 1.86 1.047 1.86 2.344 0 1.375-.97 2.344-1.985 2.344-1.078 0-1.61-1.219-1.61-1.938Zm0 0"/></defs><use xlink:href="#a" x="22.823" y="101.454"/><path fill="none" stroke="#000" stroke-miterlimit="10" stroke-width=".398" d="M19.438 84.875h14.667M19.637 110.379V84.875M33.906 110.379V84.875M19.438 110.379h14.667"/><use xlink:href="#b" x="37.493" y="101.454"/><path fill="none" stroke="#000" stroke-miterlimit="10" stroke-width=".398" d="M34.105 84.875h19.168M34.305 110.379V84.875M53.074 110.379V84.875M34.105 110.379h19.168"/><use xlink:href="#c" x="56.66" y="101.454"/><path fill="none" stroke="#000" stroke-miterlimit="10" stroke-width=".398" d="M53.273 84.875h14.668M53.473 110.379V84.875M67.742 110.379V84.875M53.273 110.379h14.668"/><use xlink:href="#b" x="71.33" y="101.454"/><path fill="none" stroke="#000" stroke-miterlimit="10" stroke-width=".398" d="M67.941 84.875H87.11M68.14 110.379V84.875M86.91 110.379V84.875M67.941 110.379H87.11"/><use xlink:href="#d" x="90.497" y="101.454"/><path fill="none" stroke="#000" stroke-miterlimit="10" stroke-width=".398" d="M87.11 84.875h14.671M87.309 110.379V84.875M101.578 110.379V84.875M87.11 110.379h14.671"/><path fill="none" stroke="#000" stroke-miterlimit="10" stroke-width=".399" d="M180.434 97.629c0-6.067-4.918-10.984-10.985-10.984-6.066 0-10.984 4.918-10.984 10.984s4.918 10.98 10.984 10.98c6.067 0 10.985-4.914 10.985-10.98Zm0 0"/><use xlink:href="#a" x="165.5" y="103.177"/><use xlink:href="#e" x="158.374" y="74.807"/><use xlink:href="#f" x="165.757" y="74.807"/><use xlink:href="#g" x="173.139" y="74.807"/><use xlink:href="#b" x="197.983" y="101.454"/><path fill="none" stroke="#000" stroke-miterlimit="10" stroke-width=".398" d="M194.598 84.875h19.164M194.797 110.379V84.875M213.563 110.379V84.875M194.598 110.379h19.164"/><use xlink:href="#c" x="217.15" y="101.454"/><path fill="none" stroke="#000" stroke-miterlimit="10" stroke-width=".398" d="M213.762 84.875h14.672M213.96 110.379V84.875M228.234 110.379V84.875M213.762 110.379h14.672"/><use xlink:href="#b" x="231.82" y="101.454"/><path fill="none" stroke="#000" stroke-miterlimit="10" stroke-width=".398" d="M228.434 84.875h19.164M228.633 110.379V84.875M247.398 110.379V84.875M228.434 110.379h19.164"/><use xlink:href="#d" x="250.987" y="101.454"/><path fill="none" stroke="#000" stroke-miterlimit="10" stroke-width=".398" d="M247.598 84.875h14.672M247.8 110.379V84.875M262.07 110.379V84.875M247.598 110.379h14.672"/><path fill="none" stroke="#000" stroke-miterlimit="10" stroke-width=".399" d="M352.344 74.64c0-6.87-5.57-12.437-12.442-12.437-6.87 0-12.441 5.567-12.441 12.438 0 6.87 5.57 12.441 12.441 12.441s12.442-5.57 12.442-12.441Zm0 0"/><use xlink:href="#b" x="333.703" y="78.946"/><path fill="none" stroke="#000" stroke-miterlimit="10" stroke-width=".399" d="M333.879 119.996c0-6.066-4.918-10.98-10.984-10.98-6.067 0-10.985 4.914-10.985 10.98 0 6.067 4.918 10.984 10.985 10.984 6.066 0 10.984-4.917 10.984-10.984Zm0 0"/><use xlink:href="#a" x="318.944" y="125.546"/><path fill="none" stroke="#000" stroke-miterlimit="10" stroke-width=".399" d="m335.465 86.477-8.645 23.05M367.895 119.996c0-6.066-4.918-10.98-10.985-10.98-6.066 0-10.98 4.914-10.98 10.98 0 6.067 4.914 10.984 10.98 10.984 6.067 0 10.985-4.917 10.985-10.984Zm0 0"/><use xlink:href="#c" x="352.959" y="125.546"/><path fill="none" stroke="#000" stroke-miterlimit="10" stroke-width=".399" d="m344.34 86.477 8.644 23.05"/><use xlink:href="#e" x="328.826" y="50.363"/><use xlink:href="#f" x="336.209" y="50.363"/><use xlink:href="#g" x="343.591" y="50.363"/><use xlink:href="#b" x="382.764" y="101.454"/><path fill="none" stroke="#000" stroke-miterlimit="10" stroke-width=".398" d="M379.379 84.875h19.164M379.574 110.379V84.875M398.344 110.379V84.875M379.379 110.379h19.164"/><use xlink:href="#d" x="401.931" y="101.454"/><path fill="none" stroke="#000" stroke-miterlimit="10" stroke-width=".398" d="M398.543 84.875h14.672M398.742 110.379V84.875M413.016 110.379V84.875M398.543 110.379h14.672"/><path fill="none" stroke="#000" stroke-miterlimit="10" stroke-width=".399" d="M520.297 51.656c0-6.87-5.567-12.441-12.438-12.441-6.87 0-12.441 5.57-12.441 12.441s5.57 12.442 12.441 12.442 12.438-5.57 12.438-12.442Zm0 0"/><use xlink:href="#b" x="501.655" y="55.96"/><path fill="none" stroke="#000" stroke-miterlimit="10" stroke-width=".399" d="M503.29 97.012c0-6.871-5.571-12.442-12.442-12.442s-12.438 5.57-12.438 12.442c0 6.87 5.567 12.441 12.438 12.441 6.87 0 12.441-5.57 12.441-12.441Zm0 0"/><use xlink:href="#b" x="484.648" y="101.315"/><path fill="none" stroke="#000" stroke-miterlimit="10" stroke-width=".399" d="m503.418 63.492-8.129 21.684M484.824 142.367c0-6.066-4.918-10.984-10.984-10.984-6.063 0-10.98 4.918-10.98 10.984 0 6.067 4.917 10.98 10.98 10.98 6.066 0 10.984-4.913 10.984-10.98Zm0 0"/><use xlink:href="#a" x="469.888" y="147.914"/><path fill="none" stroke="#000" stroke-miterlimit="10" stroke-width=".399" d="m486.41 108.848-8.644 23.05M518.84 142.367c0-6.066-4.918-10.984-10.98-10.984-6.067 0-10.985 4.918-10.985 10.984 0 6.067 4.918 10.98 10.984 10.98 6.063 0 10.98-4.913 10.98-10.98Zm0 0"/><use xlink:href="#c" x="503.904" y="147.914"/><path fill="none" stroke="#000" stroke-miterlimit="10" stroke-width=".399" d="m495.29 108.848 8.64 23.05M535.848 97.012c0-6.067-4.918-10.985-10.98-10.985-6.067 0-10.985 4.918-10.985 10.985 0 6.066 4.918 10.984 10.984 10.984 6.063 0 10.98-4.918 10.98-10.984Zm0 0"/><use xlink:href="#d" x="520.912" y="102.56"/><path fill="none" stroke="#000" stroke-miterlimit="10" stroke-width=".399" d="m512.297 63.492 8.644 23.051"/><use xlink:href="#e" x="496.778" y="27.378"/><use xlink:href="#f" x="504.161" y="27.378"/><use xlink:href="#g" x="511.543" y="27.378"/><path fill="none" stroke="#000" stroke-miterlimit="10" stroke-width=".399" d="M124.25 97.629h13.3"/><path stroke="#000" stroke-miterlimit="10" stroke-width=".399" d="m140.691 97.629-4.527-1.707 1.484 1.707-1.484 1.703Zm0 0"/><path fill="none" stroke="#000" stroke-miterlimit="10" stroke-width=".399" d="M284.742 97.629h17.434"/><path stroke="#000" stroke-miterlimit="10" stroke-width=".399" d="m305.32 97.629-4.527-1.707 1.484 1.707-1.484 1.703Zm0 0"/><path fill="none" stroke="#000" stroke-miterlimit="10" stroke-width=".399" d="M435.688 97.629h17.437"/><path stroke="#000" stroke-miterlimit="10" stroke-width=".399" d="m456.266 97.629-4.528-1.707 1.485 1.707-1.485 1.703Zm0 0"/></svg>