<svg xmlns="http://www.w3.org/2000/svg" width="367.248" height="81.09"><path fill="none" stroke="#000" stroke-miterlimit="10" stroke-width=".399" d="m41.89 14.371 27.52 19.996L58.898 66.72H24.883L14.37 34.367ZM41.89 14.371 58.899 66.72M41.89 14.371 24.884 66.72M112.758 14.371l27.52 19.996-10.512 32.352H95.75L85.238 34.367ZM140.277 34.367 95.75 66.72M140.277 34.367H85.238M183.625 14.371l27.52 19.996-10.512 32.352h-34.016l-10.512-32.352ZM200.633 66.719l-44.528-32.352M200.633 66.719 183.625 14.37M254.492 14.371l27.52 19.996L271.5 66.72h-34.016l-10.511-32.352ZM237.484 66.719l17.008-52.348M237.484 66.719l44.528-32.352M325.36 14.371l27.519 19.996-10.512 32.352h-34.015L297.84 34.367ZM297.84 34.367h55.039M297.84 34.367l44.527 32.352"/></svg>