<svg xmlns="http://www.w3.org/2000/svg" width="410.437" height="89.814"><path fill="none" stroke="#000" stroke-miterlimit="10" stroke-width=".399" d="M46.477 14.371 78.586 37.7 66.32 75.441H26.637L14.37 37.7ZM46.477 14.371l19.843 61.07M46.477 14.371l-19.84 61.07M125.848 14.371 157.957 37.7l-12.266 37.742h-39.683L93.742 37.7ZM157.957 37.7l-51.95 37.741M157.957 37.7H93.742M205.219 14.371l32.11 23.328-12.267 37.742H185.38L173.113 37.7ZM225.063 75.441 173.113 37.7M225.063 75.441l-19.844-61.07M284.59 14.371 316.7 37.7l-12.266 37.742H264.75L252.484 37.7ZM264.75 75.441l19.84-61.07M264.75 75.441 316.7 37.7M363.96 14.371 396.07 37.7l-12.265 37.742H344.12L331.855 37.7ZM331.855 37.7h64.215M331.855 37.7l51.95 37.741"/></svg>