<svg xmlns="http://www.w3.org/2000/svg" xmlns:xlink="http://www.w3.org/1999/xlink" width="361.744" height="126.601"><defs><path id="a" d="M3.438-7.656c0-.282 0-.297-.235-.297-.281.328-.89.766-2.11.766v.343c.266 0 .86 0 1.532-.297v6.22c0 .437-.047.577-1.094.577h-.375V0c.328-.031 1.485-.031 1.875-.031.406 0 1.547 0 1.875.031v-.344h-.375c-1.047 0-1.093-.14-1.093-.578Zm0 0"/><path id="b" d="M5.266-2.016H5c-.047.204-.14.875-.25 1.063-.094.11-.766.11-1.125.11H1.406c.328-.282 1.063-1.048 1.36-1.329 1.828-1.672 2.5-2.297 2.5-3.484 0-1.375-1.094-2.297-2.485-2.297-1.375 0-2.203 1.187-2.203 2.219 0 .609.531.609.563.609.265 0 .562-.188.562-.563 0-.343-.219-.562-.562-.562-.094 0-.125 0-.157.016.22-.813.875-1.375 1.641-1.375 1.016 0 1.64.859 1.64 1.953 0 1.015-.577 1.906-1.265 2.672L.578-.281V0h4.375Zm0 0"/><path id="c" d="M2.203-4.297c-.203.016-.25.031-.25.14 0 .11.063.11.266.11h.547c1.03 0 1.484.844 1.484 1.984 0 1.579-.813 1.985-1.406 1.985-.578 0-1.547-.266-1.906-1.063.39.063.734-.156.734-.578a.571.571 0 0 0-.578-.593c-.297 0-.61.171-.61.624C.484-.625 1.547.25 2.875.25c1.422 0 2.484-1.094 2.484-2.297C5.36-3.14 4.47-4 3.33-4.203 4.358-4.5 5.03-5.375 5.03-6.313c0-.937-.984-1.64-2.14-1.64-1.188 0-2.079.734-2.079 1.61 0 .468.375.577.547.577.25 0 .547-.187.547-.546 0-.375-.297-.547-.562-.547-.063 0-.094 0-.125.015.453-.812 1.578-.812 1.64-.812.391 0 1.172.172 1.172 1.343 0 .235-.031.891-.39 1.407-.36.531-.766.562-1.079.578Zm0 0"/><path id="d" d="M4.313-7.781c0-.235 0-.282-.172-.282-.094 0-.125 0-.22.141L.329-2.344V-2h3.14v1.094c0 .437-.03.562-.905.562h-.235V0c.281-.031 1.219-.031 1.563-.031.328 0 1.28 0 1.562.031v-.344H5.22c-.875 0-.907-.125-.907-.562V-2h1.204v-.344H4.312Zm-.782.937v4.5H.625Zm0 0"/><path id="e" d="M1.531-6.844a3.88 3.88 0 0 0 1.063.172c1.344 0 2.219-.984 2.219-1.156 0-.047-.032-.11-.11-.11-.016 0-.047 0-.156.047A3.987 3.987 0 0 1 3-7.562c-.781 0-1.344-.25-1.578-.344-.078-.032-.11-.032-.125-.032-.094 0-.094.079-.094.266v3.547c0 .219 0 .281.14.281.063 0 .079 0 .204-.156.328-.484.89-.766 1.484-.766.64 0 .953.579 1.047.782.203.468.219 1.062.219 1.515 0 .453 0 1.125-.344 1.672-.265.422-.719.719-1.25.719A1.838 1.838 0 0 1 .922-1.484a.396.396 0 0 0 .187.03c.204 0 .532-.109.532-.515 0-.343-.235-.531-.532-.531-.218 0-.53.11-.53.578C.578-.906 1.405.25 2.718.25c1.36 0 2.547-1.14 2.547-2.656 0-1.422-.97-2.61-2.22-2.61a2.08 2.08 0 0 0-1.515.641Zm0 0"/><path id="f" d="M3.89 2.906c0-.031 0-.062-.203-.265C2.484 1.437 1.813-.531 1.813-2.97c0-2.328.562-4.328 1.953-5.734.125-.11.125-.125.125-.172 0-.063-.063-.094-.11-.094-.156 0-1.14.86-1.719 2.031-.609 1.22-.89 2.485-.89 3.97 0 1.062.172 2.484.781 3.75C2.672 2.218 3.641 3 3.781 3c.047 0 .11-.031.11-.094Zm0 0"/><path id="g" d="M3.234-2.266v-.64H.125v.64Zm0 0"/><path id="h" d="M1.422-2.156c.562.36 1.047.36 1.172.36 1.078 0 1.875-.813 1.875-1.735 0-.313-.094-.766-.469-1.156.453-.47 1.016-.47 1.078-.47.047 0 .11 0 .156.016-.125.047-.171.172-.171.297 0 .172.109.313.296.313.11 0 .313-.063.313-.328a.556.556 0 0 0-.578-.547c-.625 0-1.094.39-1.25.562a2.067 2.067 0 0 0-1.235-.422c-1.078 0-1.875.813-1.875 1.735 0 .672.407 1.11.532 1.219-.141.187-.36.53-.36 1 0 .687.422.984.516 1.046C.875-.109.328.328.328.938c0 .828 1.125 1.515 2.594 1.515 1.422 0 2.594-.64 2.594-1.531 0-.297-.079-1-.797-1.375-.61-.313-1.203-.313-2.235-.313-.734 0-.812 0-1.03-.218a.982.982 0 0 1-.22-.61c0-.203.063-.406.188-.562Zm1.187.11c-1.062 0-1.062-1.204-1.062-1.485 0-.203 0-.703.203-1.016.234-.36.594-.469.844-.469 1.047 0 1.047 1.204 1.047 1.485 0 .203 0 .703-.204 1.015a.97.97 0 0 1-.828.47Zm.313 4.25C1.782 2.203.906 1.608.906.936c0-.093.031-.562.485-.875.265-.171.359-.171 1.203-.171.984 0 2.344 0 2.344 1.046 0 .704-.907 1.266-2.016 1.266Zm0 0"/><path id="i" d="M5.484-2.563c0-1.53-1.171-2.765-2.562-2.765C1.5-5.328.359-4.062.359-2.562.36-1.032 1.547.124 2.922.124c1.406 0 2.562-1.172 2.562-2.688ZM2.922-.14c-.438 0-.969-.187-1.313-.78-.328-.532-.343-1.235-.343-1.75 0-.454 0-1.173.375-1.72.328-.515.859-.703 1.28-.703.454 0 .97.219 1.282.688.375.547.375 1.297.375 1.734 0 .422 0 1.172-.312 1.735-.329.562-.891.796-1.344.796Zm0 0"/><path id="j" d="M5.313-2.906c0-1.11 0-1.438-.266-1.828-.344-.47-.906-.532-1.313-.532-1.171 0-1.625.985-1.718 1.22v-1.22L.375-5.14v.344c.813 0 .922.094.922.672v3.234c0 .547-.14.547-.922.547V0c.313-.031.969-.031 1.297-.031.344 0 1 0 1.297.031v-.344c-.75 0-.906 0-.906-.547v-2.218c0-1.25.828-1.922 1.578-1.922.734 0 .906.61.906 1.343V-.89c0 .547-.14.547-.906.547V0c.296-.031.953-.031 1.28-.031.345 0 1 0 1.313.031v-.344c-.609 0-.906 0-.921-.36Zm0 0"/><path id="k" d="M3.375-2.969c0-.922-.125-2.39-.797-3.781C1.875-8.188.891-8.969.766-8.969c-.047 0-.11.031-.11.094 0 .047 0 .063.203.266 1.204 1.203 1.86 3.187 1.86 5.625 0 2.312-.563 4.312-1.938 5.718-.125.11-.125.141-.125.172 0 .063.063.094.11.094.156 0 1.14-.86 1.718-2.031.61-1.219.891-2.516.891-3.938Zm0 0"/></defs><path fill="#DFDFDF" d="m54.84 29.879 27.52 19.996H27.32ZM168.227 29.879l17.007 52.348-44.527-32.352ZM281.613 29.879l-17.008 52.348-10.511-32.352Zm0 0"/><path fill="none" stroke="#000" stroke-miterlimit="10" stroke-width=".399" d="m54.84 29.879 27.52 19.996-10.512 32.352H37.832L27.32 49.875Zm0 0"/><use xlink:href="#a" x="51.913" y="25.78"/><use xlink:href="#b" x="85.751" y="53.727"/><use xlink:href="#c" x="74.531" y="92.613"/><use xlink:href="#d" x="29.295" y="92.613"/><use xlink:href="#e" x="18.075" y="53.727"/><path fill="none" stroke="#000" stroke-miterlimit="10" stroke-width=".399" d="M27.32 49.875h55.04M69.324 38.617c3.528-6.105 7.778-12.914 13.45-12.914"/><path fill="none" stroke="#000" stroke-linecap="round" stroke-linejoin="round" stroke-miterlimit="10" stroke-width=".31899362" d="M71.305 38.379c-.567-.211-1.89.289-2.13.496.063-.309-.163-1.703-.632-2.09"/><use xlink:href="#f" x="86.873" y="28.693"/><use xlink:href="#b" x="91.426" y="28.693"/><use xlink:href="#g" x="97.279" y="28.693"/><use xlink:href="#h" x="101.181" y="28.693"/><use xlink:href="#i" x="107.034" y="28.693"/><use xlink:href="#j" x="112.888" y="28.693"/><use xlink:href="#k" x="119.391" y="28.693"/><path fill="none" stroke="#000" stroke-miterlimit="10" stroke-width=".399" d="M49.906 66.375c7.696 7.691 7.696 20.004-.324 28.023"/><path fill="none" stroke="#000" stroke-linecap="round" stroke-linejoin="round" stroke-miterlimit="10" stroke-width=".31899681" d="M49.625 68.348c.352-.496.21-1.903.07-2.184.282.14 1.692.281 2.184-.07"/><use xlink:href="#d" x="35.601" y="106.202"/><use xlink:href="#g" x="41.454" y="106.202"/><use xlink:href="#h" x="45.356" y="106.202"/><use xlink:href="#i" x="51.21" y="106.202"/><use xlink:href="#j" x="57.063" y="106.202"/><path fill="none" stroke="#000" stroke-miterlimit="10" stroke-width=".399" d="m168.227 29.879 27.52 19.996-10.513 32.352H151.22l-10.512-32.352Zm0 0"/><use xlink:href="#a" x="165.299" y="25.78"/><use xlink:href="#b" x="199.137" y="53.727"/><use xlink:href="#c" x="187.917" y="92.613"/><use xlink:href="#d" x="142.681" y="92.613"/><use xlink:href="#e" x="131.461" y="53.727"/><path fill="none" stroke="#000" stroke-miterlimit="10" stroke-width=".399" d="m168.227 29.879 17.007 52.348M140.707 49.875l44.527 32.352M186.238 51.508c0-4.215 2.836-21.223 8.504-21.223"/><path fill="none" stroke="#000" stroke-linecap="round" stroke-linejoin="round" stroke-miterlimit="10" stroke-width=".319" d="M187.832 50.313c-.598.101-1.496 1.195-1.594 1.496-.101-.301-.996-1.395-1.593-1.496"/><use xlink:href="#f" x="198.842" y="33.275"/><use xlink:href="#c" x="203.395" y="33.275"/><use xlink:href="#g" x="209.248" y="33.275"/><use xlink:href="#h" x="213.15" y="33.275"/><use xlink:href="#i" x="219.003" y="33.275"/><use xlink:href="#j" x="224.857" y="33.275"/><use xlink:href="#k" x="231.36" y="33.275"/><path fill="none" stroke="#000" stroke-miterlimit="10" stroke-width=".399" d="M157.094 75.594c0 4.215 2.836 24.054 8.504 24.054"/><path fill="none" stroke="#000" stroke-linecap="round" stroke-linejoin="round" stroke-miterlimit="10" stroke-width=".319" d="M155.5 76.79c.598-.103 1.496-1.196 1.594-1.497.101.3.996 1.394 1.594 1.496"/><use xlink:href="#c" x="169.698" y="102.339"/><use xlink:href="#g" x="175.551" y="102.339"/><use xlink:href="#h" x="179.453" y="102.339"/><use xlink:href="#i" x="185.307" y="102.339"/><use xlink:href="#j" x="191.16" y="102.339"/><path fill="none" stroke="#000" stroke-miterlimit="10" stroke-width=".399" d="m281.613 29.879 27.52 19.996-10.512 32.352h-34.016l-10.511-32.352Zm0 0"/><use xlink:href="#a" x="278.685" y="25.78"/><use xlink:href="#b" x="312.523" y="53.727"/><use xlink:href="#c" x="301.302" y="92.613"/><use xlink:href="#d" x="256.067" y="92.613"/><use xlink:href="#e" x="244.846" y="53.727"/><path fill="none" stroke="#000" stroke-miterlimit="10" stroke-width=".399" d="m281.613 29.879-17.008 52.348M300.023 53.191c9.422 5.442 8.106 4.125 13.778 13.946"/><path fill="none" stroke="#000" stroke-linecap="round" stroke-linejoin="round" stroke-miterlimit="10" stroke-width=".31899362" d="M300.262 55.172c.21-.57-.29-1.895-.5-2.129.308.062 1.707-.164 2.093-.633"/><use xlink:href="#f" x="306.6" y="80.204"/><use xlink:href="#d" x="311.153" y="80.204"/><use xlink:href="#g" x="317.006" y="80.204"/><use xlink:href="#h" x="320.908" y="80.204"/><use xlink:href="#i" x="326.761" y="80.204"/><use xlink:href="#j" x="332.615" y="80.204"/><use xlink:href="#k" x="339.118" y="80.204"/><path fill="none" stroke="#000" stroke-miterlimit="10" stroke-width=".399" d="M269.113 40.605c8.559 4.942 12.914 44.625 12.914 50.297"/><path fill="none" stroke="#000" stroke-linecap="round" stroke-linejoin="round" stroke-miterlimit="10" stroke-width=".31899362" d="M269.352 42.582c.21-.566-.29-1.89-.497-2.129.31.067 1.704-.164 2.09-.633"/><use xlink:href="#b" x="268.042" y="102.706"/><use xlink:href="#g" x="273.895" y="102.706"/><use xlink:href="#h" x="277.797" y="102.706"/><use xlink:href="#i" x="283.651" y="102.706"/><use xlink:href="#j" x="289.504" y="102.706"/></svg>