<svg xmlns="http://www.w3.org/2000/svg" xmlns:xlink="http://www.w3.org/1999/xlink" width="426.646" height="149.501"><defs><path id="a" d="M4.578-11c0-.36-.016-.375-.25-.375-.672.797-1.687 1.063-2.656 1.094-.047 0-.14 0-.156.031-.016.047-.016.078-.016.438.531 0 1.422-.11 2.11-.516v9.078c0 .594-.032.797-1.516.797h-.516V0a135.04 135.04 0 0 1 2.516-.031c.828 0 1.687.015 2.515.031v-.453h-.515c-1.485 0-1.516-.188-1.516-.797Zm0 0"/><path id="b" d="M7.188-2.672h-.313c-.172 1.219-.313 1.438-.39 1.531C6.405-1 5.171-1 4.921-1H1.625c.61-.672 1.813-1.89 3.281-3.313 1.047-.984 2.282-2.156 2.282-3.859 0-2.031-1.625-3.203-3.438-3.203-1.89 0-3.047 1.656-3.047 3.219 0 .672.5.75.703.75.172 0 .688-.094.688-.703 0-.532-.438-.688-.688-.688a.673.673 0 0 0-.265.047c.328-1.453 1.328-2.188 2.375-2.188 1.5 0 2.468 1.188 2.468 2.766 0 1.485-.875 2.781-1.859 3.906L.703-.39V0h6.063Zm0 0"/><path id="c" d="M3.813-5.86c1.53 0 2.203 1.329 2.203 2.86 0 2.063-1.11 2.86-2.11 2.86-.906 0-2.39-.438-2.86-1.766a.774.774 0 0 0 .266.031c.407 0 .72-.281.72-.719 0-.5-.376-.734-.72-.734-.296 0-.75.14-.75.781C.563-.969 2.125.281 3.938.281c1.922 0 3.376-1.5 3.376-3.265 0-1.672-1.375-2.875-3-3.063 1.296-.266 2.562-1.437 2.562-3.016 0-1.343-1.36-2.312-2.922-2.312s-2.937.953-2.937 2.328c0 .61.453.719.671.719.36 0 .672-.235.672-.672 0-.453-.312-.672-.671-.672-.063 0-.157 0-.22.031.5-1.14 1.86-1.343 2.454-1.343.61 0 1.75.296 1.75 1.937 0 .485-.078 1.344-.656 2.11-.516.671-1.11.703-1.672.75-.094 0-.485.046-.547.046-.125.016-.203.032-.203.157 0 .109.031.125.375.125Zm0 0"/><path id="d" d="M5.781-11.14c0-.36-.015-.376-.328-.376L.343-3.375v.453h4.438v1.688c0 .609-.031.78-1.234.78h-.328V0c.547-.031 1.484-.031 2.062-.031.594 0 1.516 0 2.078.031v-.453h-.328c-1.218 0-1.25-.172-1.25-.781v-1.688h1.766v-.453H5.78ZM4.844-10v6.625H.687Zm0 0"/><path id="e" d="M1.969-10.078c.172.078.875.297 1.593.297 1.61 0 2.485-.86 2.985-1.36 0-.14 0-.218-.11-.218-.015 0-.046 0-.187.062a5.233 5.233 0 0 1-4.297.016c-.203-.078-.234-.078-.25-.078-.078 0-.11.015-.11.359v4.984c0 .313 0 .407.188.407.078 0 .11-.032.203-.157.547-.78 1.297-1.109 2.172-1.109.594 0 1.89.39 1.89 3.328 0 .547 0 1.547-.515 2.344C5.094-.5 4.421-.141 3.688-.141c-1.141 0-2.297-.796-2.61-2.109.078.016.219.047.281.047.22 0 .657-.125.657-.656 0-.47-.329-.657-.657-.657-.39 0-.656.25-.656.72C.703-1.297 1.891.28 3.72.28 5.5.281 7.188-1.25 7.188-3.484c0-2.063-1.344-3.657-3.016-3.657-.89 0-1.625.329-2.203.938Zm0 0"/><path id="f" d="M6.313-2.406H6c-.047.234-.156 1.031-.313 1.265-.093.125-.906.125-1.343.125H1.687c.391-.328 1.266-1.25 1.641-1.593 2.188-2.016 2.985-2.75 2.985-4.172 0-1.657-1.313-2.75-2.97-2.75-1.671 0-2.64 1.406-2.64 2.64 0 .735.625.735.672.735.297 0 .672-.219.672-.672 0-.406-.266-.672-.672-.672-.125 0-.156 0-.203.016.281-.985 1.047-1.641 1.984-1.641 1.219 0 1.969 1.016 1.969 2.344 0 1.218-.703 2.281-1.531 3.203L.704-.344V0h5.234Zm0 0"/><path id="g" d="M3.89-2.719v-.765H.157v.765Zm0 0"/><path id="h" d="M1.703-2.594c.672.438 1.25.438 1.406.438 1.297 0 2.25-.969 2.25-2.078 0-.391-.109-.922-.562-1.391.547-.578 1.234-.578 1.297-.578.062 0 .125 0 .187.031a.381.381 0 0 0-.218.36c0 .203.14.375.375.375.125 0 .375-.079.375-.391a.677.677 0 0 0-.704-.656c-.75 0-1.296.453-1.5.671a2.445 2.445 0 0 0-1.484-.515c-1.281 0-2.25.984-2.25 2.078 0 .828.5 1.36.64 1.484a1.917 1.917 0 0 0-.421 1.188c0 .828.5 1.187.61 1.266C1.046-.126.39.39.39 1.14c0 .984 1.343 1.796 3.109 1.796 1.703 0 3.125-.75 3.125-1.828 0-.359-.094-1.203-.953-1.656-.734-.375-1.453-.375-2.688-.375-.875 0-.968 0-1.234-.265-.14-.141-.266-.422-.266-.72 0-.25.079-.484.22-.687Zm1.422.14c-1.266 0-1.266-1.452-1.266-1.78 0-.25 0-.844.25-1.235a1.244 1.244 0 0 1 1-.562c1.266 0 1.266 1.453 1.266 1.781 0 .266 0 .844-.25 1.234a1.204 1.204 0 0 1-1 .563Zm.39 5.095c-1.374 0-2.421-.704-2.421-1.516 0-.125.031-.688.562-1.047.328-.203.453-.203 1.453-.203 1.188 0 2.813 0 2.813 1.25 0 .844-1.094 1.516-2.406 1.516Zm0 0"/><path id="i" d="M6.578-3.063c0-1.859-1.406-3.328-3.062-3.328-1.72 0-3.079 1.516-3.079 3.329C.438-1.234 1.86.14 3.5.14c1.688 0 3.078-1.407 3.078-3.204ZM3.516-.171c-.532 0-1.172-.234-1.594-.937-.39-.641-.406-1.485-.406-2.094 0-.547 0-1.422.453-2.063A1.836 1.836 0 0 1 3.5-6.109c.563 0 1.156.25 1.547.812.453.656.453 1.563.453 2.094 0 .5 0 1.39-.375 2.062-.406.704-1.063.97-1.61.97Zm0 0"/><path id="j" d="M6.39-3.484c0-1.329 0-1.735-.343-2.204-.406-.546-1.078-.64-1.578-.64-1.39 0-1.938 1.187-2.047 1.484h-.016v-1.484l-1.953.156v.422c.984 0 1.094.094 1.094.797v3.89c0 .641-.156.641-1.094.641V0C.828-.031 1.61-.031 2.016-.031c.406 0 1.187 0 1.562.031v-.422c-.922 0-1.094 0-1.094-.64v-2.672c0-1.5.985-2.297 1.875-2.297.891 0 1.094.718 1.094 1.593v3.375c0 .641-.156.641-1.094.641V0c.375-.031 1.157-.031 1.547-.031.422 0 1.188 0 1.563.031v-.422c-.719 0-1.078 0-1.078-.422Zm0 0"/><path id="k" d="M5.172-9.344c0-.265 0-.344-.188-.344-.125 0-.171 0-.28.172L.39-2.812v.421h3.765v1.297c0 .532-.031.672-1.078.672h-.281V0c.328-.031 1.469-.031 1.86-.031.405 0 1.546 0 1.89.031v-.422H6.25c-1.031 0-1.078-.14-1.078-.672V-2.39h1.453v-.421H5.172Zm-.938 1.125v5.406H.75Zm0 0"/><path id="l" d="M2.64-5.156c-.25.015-.296.031-.296.172 0 .14.062.14.328.14h.656c1.219 0 1.766 1 1.766 2.375 0 1.875-.985 2.375-1.688 2.375-.687 0-1.86-.328-2.265-1.265.453.062.875-.188.875-.704a.681.681 0 0 0-.704-.703c-.343 0-.718.204-.718.75C.594-.75 1.859.297 3.454.297 5.155.297 6.421-1 6.421-2.453c0-1.313-1.063-2.36-2.438-2.594 1.25-.36 2.047-1.406 2.047-2.531 0-1.125-1.172-1.953-2.562-1.953-1.438 0-2.5.875-2.5 1.922 0 .562.453.687.672.687.296 0 .64-.219.64-.656 0-.453-.344-.656-.656-.656-.094 0-.125 0-.156.015.547-.969 1.89-.969 1.953-.969.484 0 1.406.204 1.406 1.61 0 .281-.031 1.078-.453 1.703-.438.625-.922.672-1.313.688Zm0 0"/></defs><path fill="#DFDFDF" d="m68.777 35.996 36.696 26.656H32.086ZM204.844 35.996l22.676 69.793-59.372-43.137ZM340.906 35.996 318.23 105.79l-14.015-43.137Zm0 0"/><path fill="none" stroke="#000" stroke-miterlimit="10" stroke-width=".399" d="m68.777 35.996 36.696 26.656-14.016 43.137H46.102L32.086 62.652Zm0 0"/><use xlink:href="#a" x="64.83" y="30.533"/><use xlink:href="#b" x="110.224" y="68.202"/><use xlink:href="#c" x="95.5" y="120.931"/><use xlink:href="#d" x="34.16" y="120.931"/><use xlink:href="#e" x="19.436" y="68.202"/><path fill="none" stroke="#000" stroke-miterlimit="10" stroke-width=".399" d="M32.086 62.652h73.387M89.477 45.25c1.898-3.29 6.152-10.098 11.82-10.098"/><path stroke="#000" stroke-miterlimit="10" stroke-width=".39899202" d="m87.906 47.969 3.739-3.067-2.22.434-.73-2.14Zm0 0"/><use xlink:href="#f" x="106.759" y="38.379"/><use xlink:href="#g" x="113.783" y="38.379"/><use xlink:href="#h" x="118.465" y="38.379"/><use xlink:href="#i" x="125.489" y="38.379"/><use xlink:href="#j" x="132.513" y="38.379"/><path fill="none" stroke="#000" stroke-miterlimit="10" stroke-width=".399" d="M64.395 86.844c5.394 5.394 11.062 17.707 3.046 25.726"/><path stroke="#000" stroke-miterlimit="10" stroke-width=".39899601" d="m62.172 84.621 1.996 4.41.156-2.258 2.254-.152Zm0 0"/><use xlink:href="#k" x="50.661" y="127.275"/><use xlink:href="#g" x="57.685" y="127.275"/><use xlink:href="#h" x="62.367" y="127.275"/><use xlink:href="#i" x="69.391" y="127.275"/><use xlink:href="#j" x="76.415" y="127.275"/><path fill="none" stroke="#000" stroke-miterlimit="10" stroke-width=".399" d="m204.844 35.996 36.691 26.656-14.015 43.137h-45.356l-14.016-43.137Zm0 0"/><use xlink:href="#a" x="200.893" y="30.533"/><use xlink:href="#b" x="246.287" y="68.202"/><use xlink:href="#c" x="231.563" y="120.931"/><use xlink:href="#d" x="170.223" y="120.931"/><use xlink:href="#e" x="155.499" y="68.202"/><path fill="none" stroke="#000" stroke-miterlimit="10" stroke-width=".399" d="m204.844 35.996 22.676 69.793M168.148 62.652l59.372 43.137M228.86 63.063c0-1.958 2.831-18.97 8.503-18.97"/><path stroke="#000" stroke-miterlimit="10" stroke-width=".399" d="m228.86 66.207 1.702-4.527-1.703 1.484-1.707-1.484Zm0 0"/><use xlink:href="#l" x="242.822" y="47.324"/><use xlink:href="#g" x="249.846" y="47.324"/><use xlink:href="#h" x="254.528" y="47.324"/><use xlink:href="#i" x="261.552" y="47.324"/><use xlink:href="#j" x="268.576" y="47.324"/><path fill="none" stroke="#000" stroke-miterlimit="10" stroke-width=".399" d="M188.145 98.219c-.98 1.695-9.485 12.48-3.813 22.3"/><path stroke="#000" stroke-miterlimit="10" stroke-width=".39899202" d="m189.715 95.496-3.738 3.07 2.218-.433.735 2.137Zm0 0"/><use xlink:href="#l" x="189.791" y="123.745"/><use xlink:href="#g" x="196.815" y="123.745"/><use xlink:href="#h" x="201.497" y="123.745"/><use xlink:href="#i" x="208.521" y="123.745"/><use xlink:href="#j" x="215.545" y="123.745"/><path fill="none" stroke="#000" stroke-miterlimit="10" stroke-width=".399" d="m340.906 35.996 36.696 26.656-14.016 43.137H318.23l-14.015-43.137Zm0 0"/><use xlink:href="#a" x="336.956" y="30.533"/><use xlink:href="#b" x="382.35" y="68.202"/><use xlink:href="#c" x="367.626" y="120.931"/><use xlink:href="#d" x="306.286" y="120.931"/><use xlink:href="#e" x="291.562" y="68.202"/><path fill="none" stroke="#000" stroke-miterlimit="10" stroke-width=".399" d="M340.906 35.996 318.23 105.79M368.137 68.629c1.695.98 8.125 7.406 10.96 12.316"/><path stroke="#000" stroke-miterlimit="10" stroke-width=".39899202" d="m365.414 67.059 3.07 3.738-.433-2.219 2.136-.734Zm0 0"/><use xlink:href="#k" x="373.652" y="95.654"/><use xlink:href="#g" x="380.676" y="95.654"/><use xlink:href="#h" x="385.358" y="95.654"/><use xlink:href="#i" x="392.382" y="95.654"/><use xlink:href="#j" x="399.406" y="95.654"/><path fill="none" stroke="#000" stroke-miterlimit="10" stroke-width=".399" d="M324.914 53.398c8.984 15.567 17.488 46.95 17.488 58.29"/><path stroke="#000" stroke-miterlimit="10" stroke-width=".39899202" d="m323.344 50.68.785 4.773.734-2.14 2.219.433Zm0 0"/><use xlink:href="#f" x="325.621" y="126.394"/><use xlink:href="#g" x="332.645" y="126.394"/><use xlink:href="#h" x="337.327" y="126.394"/><use xlink:href="#i" x="344.351" y="126.394"/><use xlink:href="#j" x="351.375" y="126.394"/></svg>