<svg xmlns="http://www.w3.org/2000/svg" xmlns:xlink="http://www.w3.org/1999/xlink" width="283.553" height="185.058"><defs><path id="a" d="M4.578-11c0-.36-.016-.375-.25-.375-.672.797-1.687 1.063-2.656 1.094-.047 0-.14 0-.156.031-.016.047-.016.078-.016.438.531 0 1.422-.11 2.11-.516v9.078c0 .594-.032.797-1.516.797h-.516V0a135.04 135.04 0 0 1 2.516-.031c.828 0 1.687.015 2.515.031v-.453h-.515c-1.485 0-1.516-.188-1.516-.797Zm0 0"/><path id="b" d="M7.188-2.672h-.313c-.172 1.219-.313 1.438-.39 1.531C6.405-1 5.171-1 4.921-1H1.625c.61-.672 1.813-1.89 3.281-3.313 1.047-.984 2.282-2.156 2.282-3.859 0-2.031-1.625-3.203-3.438-3.203-1.89 0-3.047 1.656-3.047 3.219 0 .672.5.75.703.75.172 0 .688-.094.688-.703 0-.532-.438-.688-.688-.688a.673.673 0 0 0-.265.047c.328-1.453 1.328-2.188 2.375-2.188 1.5 0 2.468 1.188 2.468 2.766 0 1.485-.875 2.781-1.859 3.906L.703-.39V0h6.063Zm0 0"/><path id="c" d="M2.86-.703a.69.69 0 0 0-.704-.703.7.7 0 0 0-.703.703.7.7 0 0 0 .703.703.71.71 0 0 0 .703-.703Zm0 0"/><path id="f" d="M6.484-4h4.563c.25 0 .547 0 .547-.281 0-.313-.281-.313-.547-.313H6.484v-4.562c0-.25 0-.531-.28-.531-.313 0-.313.265-.313.53v4.563H1.328c-.25 0-.531 0-.531.282 0 .312.265.312.531.312h4.563V.563c0 .25 0 .546.296.546.297 0 .297-.28.297-.546Zm0 0"/><path id="d" d="M4.844-11.516c.015-.078.047-.171.047-.265 0-.172-.172-.172-.204-.172-.015 0-.64.062-.953.094-.296.015-.546.046-.859.062-.406.031-.531.047-.531.36 0 .171.172.171.344.171.874 0 .874.157.874.329 0 .078 0 .109-.078.421L1.016-.672c-.063.266-.063.297-.063.39 0 .391.281.454.453.454.485 0 .594-.375.735-.906l.796-3.22c1.25.126 1.985.642 1.985 1.47 0 .109 0 .171-.047.437-.078.25-.078.469-.078.547 0 1 .656 1.672 1.547 1.672.781 0 1.203-.719 1.328-.969.375-.625.594-1.594.594-1.672 0-.078-.063-.156-.172-.156-.156 0-.172.078-.235.36-.25.89-.609 2.093-1.484 2.093-.344 0-.578-.172-.578-.828 0-.328.078-.703.14-.969.079-.297.079-.328.079-.531 0-1.016-.922-1.578-2.5-1.781C4.125-4.671 4.75-5.344 5-5.594c.969-1.11 1.64-1.656 2.438-1.656.39 0 .5.11.625.203-.641.078-.876.516-.876.86 0 .421.313.562.563.562.469 0 .875-.406.875-.953 0-.5-.39-1.016-1.172-1.016-.937 0-1.719.672-2.937 2.047-.172.203-.813.86-1.454 1.11Zm0 0"/><path id="g" d="M3.547-5.047c.031-.094.469-.969 1.11-1.516a2.506 2.506 0 0 1 1.702-.687c.688 0 .922.516.922 1.203 0 .984-.703 2.953-1.047 3.875-.156.422-.25.64-.25.953 0 .766.547 1.39 1.375 1.39 1.594 0 2.204-2.53 2.204-2.64 0-.078-.079-.156-.172-.156-.157 0-.172.063-.266.36C8.735-.86 8.078-.173 7.406-.173c-.172 0-.453-.016-.453-.562 0-.438.188-.954.297-1.188.344-.953 1.063-2.875 1.063-3.86 0-1.03-.594-1.812-1.907-1.812-1.531 0-2.343 1.078-2.656 1.516-.047-.984-.75-1.516-1.516-1.516-.546 0-.921.328-1.218.907-.313.625-.547 1.656-.547 1.734 0 .062.062.156.187.156.14 0 .156-.031.25-.422.281-1.047.594-2.031 1.281-2.031.391 0 .532.281.532.797 0 .375-.172 1.047-.297 1.578l-.469 1.86c-.078.328-.266 1.109-.36 1.421-.109.438-.296 1.25-.296 1.328 0 .25.187.438.437.438.22 0 .454-.11.594-.36.031-.093.188-.687.266-1.03l.39-1.548Zm0 0"/><path id="e" d="M11.344-3.953c.297 0 .61 0 .61-.36 0-.343-.313-.343-.61-.343H2.03c-.297 0-.61 0-.61.343 0 .36.313.36.61.36Zm0 0"/><path id="h" d="M4.031-9.594c.016-.062.047-.14.047-.219 0-.14-.14-.14-.172-.14-.015 0-.531.047-.797.062-.234.016-.453.047-.718.063-.344.031-.438.047-.438.297 0 .156.14.156.281.156.735 0 .735.125.735.266 0 .062 0 .093-.078.343L.844-.562C.78-.345.78-.313.78-.234c0 .328.25.375.39.375.407 0 .485-.313.61-.75l.672-2.688c1.031.11 1.656.547 1.656 1.235 0 .078 0 .14-.046.359C4-1.484 4-1.313 4-1.25 4-.422 4.547.14 5.281.14c.657 0 1-.593 1.11-.796.312-.531.5-1.344.5-1.39 0-.079-.063-.142-.157-.142-.125 0-.14.063-.187.297-.203.75-.516 1.75-1.234 1.75-.297 0-.485-.14-.485-.687 0-.281.063-.594.125-.813C5-1.89 5-1.906 5-2.078c0-.844-.75-1.328-2.078-1.5.515-.313 1.031-.875 1.234-1.078.828-.922 1.375-1.375 2.047-1.375.328 0 .406.078.516.172-.532.046-.735.421-.735.703 0 .343.266.468.47.468.39 0 .734-.328.734-.796 0-.407-.329-.844-.985-.844-.781 0-1.422.562-2.437 1.703-.157.172-.688.719-1.22.922Zm0 0"/><path id="n" d="M2.953-4.203c.031-.078.39-.797.922-1.266.375-.343.86-.562 1.422-.562.562 0 .766.422.766 1 0 .812-.579 2.453-.875 3.218-.125.344-.204.532-.204.797 0 .641.454 1.157 1.141 1.157 1.328 0 1.828-2.11 1.828-2.188 0-.078-.047-.14-.14-.14-.125 0-.141.046-.204.296C7.266-.719 6.734-.14 6.172-.14c-.14 0-.375-.015-.375-.468 0-.36.156-.797.234-1 .297-.782.89-2.391.89-3.204 0-.875-.5-1.515-1.593-1.515-1.266 0-1.937.906-2.203 1.266-.047-.813-.625-1.266-1.266-1.266-.453 0-.765.281-1.015.766C.594-5.048.39-4.188.39-4.125c0 .047.046.125.156.125s.125-.016.219-.344c.218-.875.484-1.687 1.062-1.687.328 0 .438.218.438.656 0 .313-.141.875-.25 1.313l-.391 1.546a26.36 26.36 0 0 1-.297 1.188c-.094.36-.25 1.047-.25 1.11 0 .202.156.359.375.359a.53.53 0 0 0 .484-.297c.032-.078.157-.578.235-.86l.312-1.296Zm0 0"/><path id="i" d="M3.89-2.719v-.765H.157v.765Zm0 0"/><path id="j" d="M1.703-2.594c.672.438 1.25.438 1.406.438 1.297 0 2.25-.969 2.25-2.078 0-.391-.109-.922-.562-1.391.547-.578 1.234-.578 1.297-.578.062 0 .125 0 .187.031a.381.381 0 0 0-.218.36c0 .203.14.375.375.375.125 0 .375-.079.375-.391a.677.677 0 0 0-.704-.656c-.75 0-1.296.453-1.5.671a2.445 2.445 0 0 0-1.484-.515c-1.281 0-2.25.984-2.25 2.078 0 .828.5 1.36.64 1.484a1.917 1.917 0 0 0-.421 1.188c0 .828.5 1.187.61 1.266C1.046-.126.39.39.39 1.14c0 .984 1.343 1.796 3.109 1.796 1.703 0 3.125-.75 3.125-1.828 0-.359-.094-1.203-.953-1.656-.734-.375-1.453-.375-2.688-.375-.875 0-.968 0-1.234-.265-.14-.141-.266-.422-.266-.72 0-.25.079-.484.22-.687Zm1.422.14c-1.266 0-1.266-1.452-1.266-1.78 0-.25 0-.844.25-1.235a1.244 1.244 0 0 1 1-.562c1.266 0 1.266 1.453 1.266 1.781 0 .266 0 .844-.25 1.234a1.204 1.204 0 0 1-1 .563Zm.39 5.095c-1.374 0-2.421-.704-2.421-1.516 0-.125.031-.688.562-1.047.328-.203.453-.203 1.453-.203 1.188 0 2.813 0 2.813 1.25 0 .844-1.094 1.516-2.406 1.516Zm0 0"/><path id="k" d="M6.578-3.063c0-1.859-1.406-3.328-3.062-3.328-1.72 0-3.079 1.516-3.079 3.329C.438-1.234 1.86.14 3.5.14c1.688 0 3.078-1.407 3.078-3.204ZM3.516-.171c-.532 0-1.172-.234-1.594-.937-.39-.641-.406-1.485-.406-2.094 0-.547 0-1.422.453-2.063A1.836 1.836 0 0 1 3.5-6.109c.563 0 1.156.25 1.547.812.453.656.453 1.563.453 2.094 0 .5 0 1.39-.375 2.062-.406.704-1.063.97-1.61.97Zm0 0"/><path id="l" d="M6.39-3.484c0-1.329 0-1.735-.343-2.204-.406-.546-1.078-.64-1.578-.64-1.39 0-1.938 1.187-2.047 1.484h-.016v-1.484l-1.953.156v.422c.984 0 1.094.094 1.094.797v3.89c0 .641-.156.641-1.094.641V0C.828-.031 1.61-.031 2.016-.031c.406 0 1.187 0 1.562.031v-.422c-.922 0-1.094 0-1.094-.64v-2.672c0-1.5.985-2.297 1.875-2.297.891 0 1.094.718 1.094 1.593v3.375c0 .641-.156.641-1.094.641V0c.375-.031 1.157-.031 1.547-.031.422 0 1.188 0 1.563.031v-.422c-.719 0-1.078 0-1.078-.422Zm0 0"/><path id="m" d="M4.656 3.484c0-.046 0-.078-.234-.312-1.438-1.453-2.234-3.813-2.234-6.75 0-2.781.671-5.172 2.328-6.86.14-.14.14-.156.14-.203 0-.093-.062-.109-.125-.109-.187 0-1.36 1.031-2.062 2.438-.735 1.437-1.063 2.984-1.063 4.734 0 1.281.203 2.984.953 4.531.844 1.719 2.016 2.64 2.172 2.64.063 0 .125-.015.125-.109Zm0 0"/><path id="p" d="M5.719-3.313h3.968c.204 0 .454 0 .454-.265 0-.266-.25-.266-.454-.266H5.72v-3.953c0-.203 0-.469-.25-.469-.282 0-.282.25-.282.47v3.952H1.235c-.203 0-.453 0-.453.266 0 .265.235.265.453.265h3.954V.642c0 .203 0 .468.265.468.266 0 .266-.25.266-.468Zm0 0"/><path id="q" d="M4.125-9.188c0-.343 0-.343-.281-.343-.344.375-1.063.906-2.531.906v.422c.328 0 1.046 0 1.828-.375v7.469c0 .515-.047.687-1.297.687H1.39V0c.39-.031 1.78-.031 2.25-.031.468 0 1.859 0 2.234.031v-.422h-.438c-1.265 0-1.312-.172-1.312-.687Zm0 0"/><path id="r" d="M4.047-3.578c0-1.078-.14-2.86-.953-4.531C2.25-9.83 1.078-10.75.922-10.75c-.063 0-.14.016-.14.11 0 .046 0 .062.25.312 1.437 1.453 2.234 3.812 2.234 6.75 0 2.781-.672 5.172-2.329 6.86-.156.124-.156.155-.156.202 0 .094.078.11.14.11.188 0 1.36-1.031 2.063-2.438.735-1.453 1.063-3 1.063-4.734Zm0 0"/><path id="o" d="M9.453-3.297c.25 0 .5 0 .5-.281 0-.297-.25-.297-.5-.297H1.688c-.235 0-.5 0-.5.297 0 .281.265.281.5.281Zm0 0"/></defs><path fill="#DFDFDF" d="m165.195 35.996 19.844 112.535-57.133-98.96Zm0 0"/><path fill="none" stroke="#000" stroke-miterlimit="10" stroke-width=".399" d="m108.063 83.938 19.843-34.368 37.29-13.574 37.292 13.574M215.441 123.02 185.04 148.53h-39.684"/><use xlink:href="#a" x="161.249" y="30.533"/><use xlink:href="#b" x="206.534" y="45.524"/><use xlink:href="#c" x="220.182" y="83.646"/><use xlink:href="#c" x="220.182" y="87.631"/><use xlink:href="#c" x="220.182" y="91.616"/><use xlink:href="#d" x="219.485" y="128.28"/><use xlink:href="#e" x="232.655" y="128.28"/><use xlink:href="#a" x="249.871" y="128.28"/><use xlink:href="#d" x="189.085" y="164.529"/><use xlink:href="#d" x="126.713" y="164.529"/><use xlink:href="#f" x="139.883" y="164.529"/><use xlink:href="#a" x="156.096" y="164.529"/><use xlink:href="#c" x="106.595" y="123.725"/><use xlink:href="#c" x="112.806" y="126.714"/><use xlink:href="#c" x="119.016" y="129.703"/><use xlink:href="#g" x="113.799" y="45.524"/><use xlink:href="#g" x="63.603" y="88.768"/><use xlink:href="#e" x="77.491" y="88.768"/><use xlink:href="#a" x="94.706" y="88.768"/><path fill="none" stroke="#000" stroke-miterlimit="10" stroke-width=".399" d="m165.195 35.996 19.844 112.535-57.133-98.96M192.172 76.297c2.398-4.152 23.66-13.797 32.164-13.797"/><path stroke="#000" stroke-miterlimit="10" stroke-width=".39899202" d="m190.602 79.016 3.742-3.067-2.219.434-.734-2.14Zm0 0"/><use xlink:href="#h" x="229.796" y="66.086"/><use xlink:href="#i" x="237.584" y="66.086"/><use xlink:href="#j" x="242.267" y="66.086"/><use xlink:href="#k" x="249.29" y="66.086"/><use xlink:href="#l" x="256.314" y="66.086"/><path fill="none" stroke="#000" stroke-miterlimit="10" stroke-width=".399" d="M124.086 113.61c-21.43-21.43-22.89 11.128-22.89 28.136"/><path stroke="#000" stroke-miterlimit="10" stroke-width=".39899601" d="m126.309 115.832-1.997-4.406-.156 2.254-2.254.156Zm0 0"/><use xlink:href="#m" x="19.436" y="157.966"/><use xlink:href="#n" x="24.899" y="157.966"/><use xlink:href="#o" x="36.472" y="157.966"/><use xlink:href="#h" x="50.818" y="157.966"/><use xlink:href="#p" x="61.794" y="157.966"/><use xlink:href="#q" x="75.905" y="157.966"/><use xlink:href="#r" x="82.929" y="157.966"/><use xlink:href="#i" x="88.392" y="157.966"/><use xlink:href="#j" x="93.074" y="157.966"/><use xlink:href="#k" x="100.098" y="157.966"/><use xlink:href="#l" x="107.122" y="157.966"/></svg>