<svg xmlns="http://www.w3.org/2000/svg" xmlns:xlink="http://www.w3.org/1999/xlink" width="245.366" height="158.298"><defs><path id="a" d="M3.438-7.656c0-.282 0-.297-.235-.297-.281.328-.89.766-2.11.766v.343c.266 0 .86 0 1.532-.297v6.22c0 .437-.047.577-1.094.577h-.375V0c.328-.031 1.485-.031 1.875-.031.406 0 1.547 0 1.875.031v-.344h-.375c-1.047 0-1.093-.14-1.093-.578Zm0 0"/><path id="b" d="M5.266-2.016H5c-.047.204-.14.875-.25 1.063-.094.11-.766.11-1.125.11H1.406c.328-.282 1.063-1.048 1.36-1.329 1.828-1.672 2.5-2.297 2.5-3.484 0-1.375-1.094-2.297-2.485-2.297-1.375 0-2.203 1.187-2.203 2.219 0 .609.531.609.563.609.265 0 .562-.188.562-.563 0-.343-.219-.562-.562-.562-.094 0-.125 0-.157.016.22-.813.875-1.375 1.641-1.375 1.016 0 1.64.859 1.64 1.953 0 1.015-.577 1.906-1.265 2.672L.578-.281V0h4.375Zm0 0"/><path id="c" d="M2.203-.578a.587.587 0 0 0-.578-.578.567.567 0 0 0-.578.578c0 .344.297.578.562.578a.58.58 0 0 0 .594-.578Zm0 0"/><path id="f" d="M4.766-2.766h3.296c.172 0 .391 0 .391-.203 0-.234-.203-.234-.39-.234H4.765V-6.5c0-.172 0-.39-.22-.39-.218 0-.218.202-.218.39v3.297H1.031c-.172 0-.39 0-.39.219 0 .218.203.218.39.218h3.297V.531c0 .172 0 .39.219.39s.219-.202.219-.39Zm0 0"/><path id="h" d="M3.234-2.266v-.64H.125v.64Zm0 0"/><path id="i" d="M1.422-2.156c.562.36 1.047.36 1.172.36 1.078 0 1.875-.813 1.875-1.735 0-.313-.094-.766-.469-1.156.453-.47 1.016-.47 1.078-.47.047 0 .11 0 .156.016-.125.047-.171.172-.171.297 0 .172.109.313.296.313.11 0 .313-.063.313-.328a.556.556 0 0 0-.578-.547c-.625 0-1.094.39-1.25.562a2.067 2.067 0 0 0-1.235-.422c-1.078 0-1.875.813-1.875 1.735 0 .672.407 1.11.532 1.219-.141.187-.36.53-.36 1 0 .687.422.984.516 1.046C.875-.109.328.328.328.938c0 .828 1.125 1.515 2.594 1.515 1.422 0 2.594-.64 2.594-1.531 0-.297-.079-1-.797-1.375-.61-.313-1.203-.313-2.235-.313-.734 0-.812 0-1.03-.218a.982.982 0 0 1-.22-.61c0-.203.063-.406.188-.562Zm1.187.11c-1.062 0-1.062-1.204-1.062-1.485 0-.203 0-.703.203-1.016.234-.36.594-.469.844-.469 1.047 0 1.047 1.204 1.047 1.485 0 .203 0 .703-.204 1.015a.97.97 0 0 1-.828.47Zm.313 4.25C1.782 2.203.906 1.608.906.936c0-.093.031-.562.485-.875.265-.171.359-.171 1.203-.171.984 0 2.344 0 2.344 1.046 0 .704-.907 1.266-2.016 1.266Zm0 0"/><path id="j" d="M5.484-2.563c0-1.53-1.171-2.765-2.562-2.765C1.5-5.328.359-4.062.359-2.562.36-1.032 1.547.124 2.922.124c1.406 0 2.562-1.172 2.562-2.688ZM2.922-.14c-.438 0-.969-.187-1.313-.78-.328-.532-.343-1.235-.343-1.75 0-.454 0-1.173.375-1.72.328-.515.859-.703 1.28-.703.454 0 .97.219 1.282.688.375.547.375 1.297.375 1.734 0 .422 0 1.172-.312 1.735-.329.562-.891.796-1.344.796Zm0 0"/><path id="k" d="M5.313-2.906c0-1.11 0-1.438-.266-1.828-.344-.47-.906-.532-1.313-.532-1.171 0-1.625.985-1.718 1.22v-1.22L.375-5.14v.344c.813 0 .922.094.922.672v3.234c0 .547-.14.547-.922.547V0c.313-.031.969-.031 1.297-.031.344 0 1 0 1.297.031v-.344c-.75 0-.906 0-.906-.547v-2.218c0-1.25.828-1.922 1.578-1.922.734 0 .906.61.906 1.343V-.89c0 .547-.14.547-.906.547V0c.296-.031.953-.031 1.28-.031.345 0 1 0 1.313.031v-.344c-.609 0-.906 0-.921-.36Zm0 0"/><path id="l" d="M3.89 2.906c0-.031 0-.062-.203-.265C2.484 1.437 1.813-.531 1.813-2.97c0-2.328.562-4.328 1.953-5.734.125-.11.125-.125.125-.172 0-.063-.063-.094-.11-.094-.156 0-1.14.86-1.719 2.031-.609 1.22-.89 2.485-.89 3.97 0 1.062.172 2.484.781 3.75C2.672 2.218 3.641 3 3.781 3c.047 0 .11-.031.11-.094Zm0 0"/><path id="m" d="M3.375-2.969c0-.922-.125-2.39-.797-3.781C1.875-8.188.891-8.969.766-8.969c-.047 0-.11.031-.11.094 0 .047 0 .063.203.266 1.204 1.203 1.86 3.187 1.86 5.625 0 2.312-.563 4.312-1.938 5.718-.125.11-.125.141-.125.172 0 .063.063.094.11.094.156 0 1.14-.86 1.718-2.031.61-1.219.891-2.516.891-3.938Zm0 0"/><path id="d" d="M3.36-8a.562.562 0 0 0 .03-.172c0-.125-.109-.125-.14-.125-.016 0-.438.031-.656.063L2-8.188c-.297.032-.375.032-.375.25 0 .125.125.125.234.125.61 0 .61.11.61.22 0 .046 0 .077-.047.296L.703-.469C.656-.28.656-.266.656-.188c0 .266.203.313.328.313.329 0 .407-.266.5-.64l.563-2.235c.86.094 1.375.453 1.375 1.031 0 .063 0 .11-.047.297-.047.172-.047.328-.047.375 0 .703.469 1.172 1.078 1.172.547 0 .828-.5.922-.672.25-.437.406-1.11.406-1.156a.107.107 0 0 0-.109-.11c-.11 0-.125.047-.172.235-.172.625-.422 1.453-1.031 1.453-.234 0-.39-.11-.39-.563 0-.234.046-.5.093-.671.047-.22.047-.235.047-.375 0-.704-.64-1.094-1.734-1.235.437-.265.859-.734 1.03-.922.673-.765 1.141-1.14 1.688-1.14.282 0 .36.078.438.14-.438.047-.61.36-.61.594 0 .297.235.39.391.39.328 0 .61-.28.61-.655 0-.344-.266-.704-.813-.704-.656 0-1.188.454-2.047 1.422-.11.14-.563.594-1 .766Zm0 0"/><path id="g" d="M2.469-3.5c.015-.078.312-.672.765-1.047a1.639 1.639 0 0 1 1.172-.484c.485 0 .657.36.657.828 0 .687-.5 2.047-.735 2.703-.11.281-.172.438-.172.656 0 .531.375.969.953.969 1.11 0 1.532-1.766 1.532-1.828 0-.063-.047-.11-.125-.11-.11 0-.125.032-.188.235-.266.984-.719 1.453-1.187 1.453-.125 0-.313 0-.313-.39 0-.297.125-.657.203-.829.235-.656.735-1.984.735-2.672 0-.718-.407-1.25-1.313-1.25-1.078 0-1.625.75-1.844 1.047-.046-.687-.53-1.047-1.062-1.047-.375 0-.64.22-.844.625-.219.438-.375 1.157-.375 1.204 0 .046.047.109.125.109.094 0 .11-.016.188-.297.187-.719.406-1.406.875-1.406.28 0 .375.187.375.547 0 .265-.125.734-.204 1.109l-.343 1.281c-.047.235-.172.766-.235.985-.078.312-.218.875-.218.937 0 .156.14.297.312.297.14 0 .313-.078.406-.25.032-.063.141-.484.204-.719l.25-1.078Zm0 0"/><path id="e" d="M7.875-2.75c.203 0 .422 0 .422-.234 0-.25-.219-.25-.422-.25H1.406c-.203 0-.422 0-.422.25 0 .234.22.234.422.234Zm0 0"/></defs><path fill="#DFDFDF" d="m139.04 29.879 17.01 96.46-48.972-84.823Zm0 0"/><path fill="none" stroke="#000" stroke-miterlimit="10" stroke-width=".399" d="m90.07 70.973 17.008-29.457 31.961-11.637 31.969 11.637M182.105 104.473l-26.054 21.867h-34.016"/><use xlink:href="#a" x="136.114" y="25.78"/><use xlink:href="#b" x="173.689" y="38.831"/><use xlink:href="#c" x="186.387" y="70.558"/><use xlink:href="#c" x="186.387" y="74.543"/><use xlink:href="#c" x="186.387" y="78.528"/><use xlink:href="#d" x="184.79" y="108.125"/><use xlink:href="#e" x="193.936" y="108.125"/><use xlink:href="#a" x="205.891" y="108.125"/><use xlink:href="#d" x="158.733" y="137.323"/><use xlink:href="#d" x="108.653" y="137.323"/><use xlink:href="#f" x="117.8" y="137.323"/><use xlink:href="#a" x="129.559" y="137.323"/><use xlink:href="#c" x="89.77" y="105.054"/><use xlink:href="#c" x="94.35" y="108.042"/><use xlink:href="#c" x="98.93" y="111.031"/><use xlink:href="#g" x="97.406" y="38.831"/><use xlink:href="#g" x="58.516" y="74.327"/><use xlink:href="#e" x="68.161" y="74.327"/><use xlink:href="#a" x="80.116" y="74.327"/><path fill="none" stroke="#000" stroke-miterlimit="10" stroke-width=".399" d="m139.04 29.879 17.01 96.46-48.972-84.823M160.805 66.781c4.02-6.969 25.28-16.613 33.785-16.613"/><path fill="none" stroke="#000" stroke-linecap="round" stroke-linejoin="round" stroke-miterlimit="10" stroke-width=".31899362" d="M162.781 66.543c-.566-.215-1.89.285-2.129.496.067-.309-.164-1.707-.632-2.09"/><use xlink:href="#d" x="198.69" y="53.157"/><use xlink:href="#h" x="205.18" y="53.157"/><use xlink:href="#i" x="209.082" y="53.157"/><use xlink:href="#j" x="214.935" y="53.157"/><use xlink:href="#k" x="220.789" y="53.157"/><path fill="none" stroke="#000" stroke-miterlimit="10" stroke-width=".399" d="M105.727 98.332C82 74.602 80.539 107.16 80.539 124.168"/><path fill="none" stroke="#000" stroke-linecap="round" stroke-linejoin="round" stroke-miterlimit="10" stroke-width=".31899681" d="M106.008 96.36c-.352.492-.211 1.902-.07 2.183-.282-.14-1.692-.281-2.184.07"/><use xlink:href="#l" x="18.075" y="137.234"/><use xlink:href="#g" x="22.627" y="137.234"/><use xlink:href="#e" x="32.271" y="137.234"/><use xlink:href="#d" x="44.227" y="137.234"/><use xlink:href="#f" x="53.373" y="137.234"/><use xlink:href="#a" x="65.132" y="137.234"/><use xlink:href="#m" x="70.985" y="137.234"/><use xlink:href="#h" x="75.538" y="137.234"/><use xlink:href="#i" x="79.44" y="137.234"/><use xlink:href="#j" x="85.293" y="137.234"/><use xlink:href="#k" x="91.147" y="137.234"/></svg>