<svg xmlns="http://www.w3.org/2000/svg" xmlns:xlink="http://www.w3.org/1999/xlink" width="235.644" height="269.62"><defs><path id="a" d="M6.703-4.781 3.25-8.22c-.203-.203-.234-.234-.375-.234a.358.358 0 0 0-.344.344c0 .125.031.156.219.343l3.453 3.454L2.75-.845c-.188.188-.219.219-.219.344 0 .188.172.344.344.344.14 0 .172-.032.375-.235l3.438-3.437L10.25-.266c.031.032.156.11.25.11a.337.337 0 0 0 .344-.344c0-.031 0-.11-.047-.188-.016-.03-2.75-2.734-3.61-3.625l3.141-3.14c.094-.11.344-.328.438-.438.015-.03.078-.093.078-.218a.337.337 0 0 0-.344-.344c-.14 0-.203.062-.39.25Zm0 0"/><path id="d" d="M11.344-3.953c.297 0 .61 0 .61-.36 0-.343-.313-.343-.61-.343H2.03c-.297 0-.61 0-.61.343 0 .36.313.36.61.36Zm0 0"/><path id="b" d="M5.266 4.203c0-.016 0-.047-.047-.11-.797-.812-2.907-3.015-2.907-8.374 0-5.375 2.079-7.563 2.922-8.422 0-.016.032-.063.032-.11 0-.046-.047-.078-.125-.078-.188 0-1.641 1.266-2.485 3.157-.86 1.921-1.11 3.78-1.11 5.421 0 1.25.126 3.344 1.157 5.563.828 1.797 2.235 3.063 2.438 3.063.093 0 .125-.047.125-.11Zm0 0"/><path id="e" d="M3.813-5.86c1.53 0 2.203 1.329 2.203 2.86 0 2.063-1.11 2.86-2.11 2.86-.906 0-2.39-.438-2.86-1.766a.774.774 0 0 0 .266.031c.407 0 .72-.281.72-.719 0-.5-.376-.734-.72-.734-.296 0-.75.14-.75.781C.563-.969 2.125.281 3.938.281c1.922 0 3.376-1.5 3.376-3.265 0-1.672-1.375-2.875-3-3.063 1.296-.266 2.562-1.437 2.562-3.016 0-1.343-1.36-2.312-2.922-2.312s-2.937.953-2.937 2.328c0 .61.453.719.671.719.36 0 .672-.235.672-.672 0-.453-.312-.672-.671-.672-.063 0-.157 0-.22.031.5-1.14 1.86-1.343 2.454-1.343.61 0 1.75.296 1.75 1.937 0 .485-.078 1.344-.656 2.11-.516.671-1.11.703-1.672.75-.094 0-.485.046-.547.046-.125.016-.203.032-.203.157 0 .109.031.125.375.125Zm0 0"/><path id="f" d="M4.531-4.281c0-1.25-.125-3.344-1.156-5.563C2.547-11.64 1.141-12.89.937-12.89c-.062 0-.125.016-.125.094 0 .031.016.063.032.094.828.86 2.922 3.047 2.922 8.39 0 5.375-2.079 7.563-2.922 8.422-.016.047-.031.063-.031.094 0 .078.062.11.125.11.187 0 1.64-1.282 2.484-3.172.86-1.922 1.11-3.782 1.11-5.422Zm0 0"/><path id="g" d="M7.188-2.672h-.313c-.172 1.219-.313 1.438-.39 1.531C6.405-1 5.171-1 4.921-1H1.625c.61-.672 1.813-1.89 3.281-3.313 1.047-.984 2.282-2.156 2.282-3.859 0-2.031-1.625-3.203-3.438-3.203-1.89 0-3.047 1.656-3.047 3.219 0 .672.5.75.703.75.172 0 .688-.094.688-.703 0-.532-.438-.688-.688-.688a.673.673 0 0 0-.265.047c.328-1.453 1.328-2.188 2.375-2.188 1.5 0 2.468 1.188 2.468 2.766 0 1.485-.875 2.781-1.859 3.906L.703-.39V0h6.063Zm0 0"/><path id="c" d="M3.547-5.047c.031-.094.469-.969 1.11-1.516a2.506 2.506 0 0 1 1.702-.687c.688 0 .922.516.922 1.203 0 .984-.703 2.953-1.047 3.875-.156.422-.25.64-.25.953 0 .766.547 1.39 1.375 1.39 1.594 0 2.204-2.53 2.204-2.64 0-.078-.079-.156-.172-.156-.157 0-.172.063-.266.36C8.735-.86 8.078-.173 7.406-.173c-.172 0-.453-.016-.453-.562 0-.438.188-.954.297-1.188.344-.953 1.063-2.875 1.063-3.86 0-1.03-.594-1.812-1.907-1.812-1.531 0-2.343 1.078-2.656 1.516-.047-.984-.75-1.516-1.516-1.516-.546 0-.921.328-1.218.907-.313.625-.547 1.656-.547 1.734 0 .062.062.156.187.156.14 0 .156-.031.25-.422.281-1.047.594-2.031 1.281-2.031.391 0 .532.281.532.797 0 .375-.172 1.047-.297 1.578l-.469 1.86c-.078.328-.266 1.109-.36 1.421-.109.438-.296 1.25-.296 1.328 0 .25.187.438.437.438.22 0 .454-.11.594-.36.031-.093.188-.687.266-1.03l.39-1.548Zm0 0"/></defs><path fill="none" stroke="#000" stroke-miterlimit="10" stroke-width=".399" d="m38.453 39.367 24.078 17.496-9.195 28.305H23.57l-9.199-28.305ZM38.453 39.367l14.883 45.801M38.453 39.367 23.57 85.168"/><use xlink:href="#a" x="45.846" y="32.332"/><use xlink:href="#b" x="59.236" y="32.332"/><use xlink:href="#c" x="65.333" y="32.332"/><use xlink:href="#d" x="79.22" y="32.332"/><use xlink:href="#e" x="96.436" y="32.332"/><use xlink:href="#f" x="104.331" y="32.332"/><path d="M78.094 44.95c-1.496.745-2.645 2.577-2.645 5.07 0 .261.399.261.399 0 0-2.493.84-4.149 2.336-4.895.117-.059.027-.234-.09-.176M73.2 118.828c1.495-.746 2.648-2.582 2.648-5.07 0-.262-.399-.262-.399 0 0 2.488-.844 4.144-2.336 4.89-.12.059-.031.239.086.18"/><path fill="none" stroke="#000" stroke-miterlimit="10" stroke-width=".399" d="M75.648 50.02v63.738"/><path d="M73.113 118.828c1.492.746 2.336 2.402 2.336 4.89 0 .266.399.266.399 0 0-2.488-1.153-4.32-2.649-5.07-.117-.058-.207.122-.086.18M78.184 192.352c-1.496-.747-2.336-2.403-2.336-4.891 0-.266-.399-.266-.399 0 0 2.488 1.149 4.32 2.645 5.07.117.059.207-.12.09-.18"/><path fill="none" stroke="#000" stroke-miterlimit="10" stroke-width=".399" d="M75.648 123.719v63.742M117.824 39.367l24.078 17.496-9.195 28.305h-29.766l-9.199-28.305ZM117.824 39.367l-14.883 45.801"/><path d="M157.441 44.902c-1.492.746-2.722 2.625-2.722 5.118 0 .394.597.394.597 0 0-2.493.766-4.102 2.258-4.848.176-.09.043-.356-.133-.27M152.594 90.527c1.496-.75 2.722-2.625 2.722-5.117 0-.394-.597-.394-.597 0 0 2.492-.766 4.102-2.258 4.848-.176.09-.043.355.133.27"/><path fill="none" stroke="#000" stroke-miterlimit="10" stroke-width=".598" d="M155.02 50.02v35.39"/><path d="M152.46 90.527c1.493.746 2.259 2.356 2.259 4.848 0 .395.597.395.597 0 0-2.492-1.226-4.371-2.722-5.117-.176-.09-.309.18-.133.27M157.574 135.613c-1.492-.746-2.258-2.355-2.258-4.847 0-.395-.597-.395-.597 0 0 2.492 1.23 4.367 2.722 5.113.176.09.309-.176.133-.266"/><path fill="none" stroke="#000" stroke-miterlimit="10" stroke-width=".598" d="M155.02 95.375v35.39"/><path fill="none" stroke="#000" stroke-miterlimit="10" stroke-width=".399" d="m197.195 39.367 24.078 17.496-9.195 28.305h-29.766l-9.199-28.305ZM197.195 39.367l-13.43 41.328"/><path stroke="#000" stroke-miterlimit="10" stroke-width=".39899601" d="m182.797 83.684 3.02-3.782-2.083.887-1.16-1.937Zm0 0"/><path fill="none" stroke="#000" stroke-miterlimit="10" stroke-width=".399" d="m197.195 96.063 24.078 17.492-9.195 28.308h-29.766l-9.199-28.308ZM182.313 141.863l13.425-41.328"/><path stroke="#000" stroke-miterlimit="10" stroke-width=".39899601" d="m196.71 97.547-3.019 3.781 2.079-.887 1.164 1.938Zm0 0"/><path fill="none" stroke="#000" stroke-miterlimit="10" stroke-width=".399" d="m117.824 152.754 24.078 17.496-9.195 28.309h-29.766l-9.199-28.309ZM117.824 152.754l14.883 45.805"/><use xlink:href="#a" x="146.865" y="32.86"/><use xlink:href="#g" x="160.254" y="32.86"/><path d="M157.441 158.29c-1.492.75-2.722 2.624-2.722 5.116 0 .395.597.395.597 0 0-2.492.766-4.101 2.258-4.847.176-.09.043-.356-.133-.27M152.594 203.914c1.496-.75 2.722-2.625 2.722-5.117 0-.395-.597-.395-.597 0 0 2.492-.766 4.101-2.258 4.848-.176.09-.043.355.133.27"/><path fill="none" stroke="#000" stroke-miterlimit="10" stroke-width=".598" d="M155.02 163.406v35.39"/><path d="M152.46 203.914c1.493.746 2.259 2.356 2.259 4.848 0 .394.597.394.597 0 0-2.492-1.226-4.371-2.722-5.117-.176-.086-.309.18-.133.27M157.574 249c-1.492-.746-2.258-2.355-2.258-4.848 0-.394-.597-.394-.597 0 0 2.493 1.23 4.368 2.722 5.118.176.085.309-.18.133-.27"/><path fill="none" stroke="#000" stroke-miterlimit="10" stroke-width=".598" d="M155.02 208.762v35.39"/><path fill="none" stroke="#000" stroke-miterlimit="10" stroke-width=".399" d="m197.195 152.754 24.078 17.496-9.195 28.309h-29.766l-9.199-28.309ZM197.195 152.754l13.426 41.328"/><path stroke="#000" stroke-miterlimit="10" stroke-width=".39899601" d="m211.594 197.07.222-4.832-1.164 1.938-2.078-.887Zm0 0"/><path fill="none" stroke="#000" stroke-miterlimit="10" stroke-width=".399" d="m197.195 209.45 24.078 17.491-9.195 28.309h-29.766l-9.199-28.309ZM212.078 255.25l-13.43-41.328"/><path stroke="#000" stroke-miterlimit="10" stroke-width=".39899601" d="m197.676 210.934-.219 4.836 1.16-1.942 2.082.887Zm0 0"/></svg>