<svg xmlns="http://www.w3.org/2000/svg" xmlns:xlink="http://www.w3.org/1999/xlink" width="206.087" height="240.959"><defs><path id="a" d="m4.656-3.328-2.39-2.375c-.157-.14-.172-.172-.266-.172-.125 0-.25.11-.25.25 0 .078.031.11.156.234l2.39 2.407-2.39 2.406c-.125.125-.156.14-.156.234 0 .125.125.235.25.235.094 0 .11-.016.266-.172L4.64-2.656 7.109-.172c.032 0 .11.063.188.063a.23.23 0 0 0 .234-.235c0-.031 0-.078-.031-.14-.016-.016-1.922-1.891-2.516-2.5l2.188-2.188c.062-.078.234-.234.297-.297.015-.031.062-.078.062-.156 0-.14-.093-.25-.234-.25-.094 0-.156.047-.281.188Zm0 0"/><path id="d" d="M7.875-2.75c.203 0 .422 0 .422-.234 0-.25-.219-.25-.422-.25H1.406c-.203 0-.422 0-.422.25 0 .234.22.234.422.234Zm0 0"/><path id="b" d="M3.89 2.906c0-.031 0-.062-.203-.265C2.484 1.437 1.813-.531 1.813-2.97c0-2.328.562-4.328 1.953-5.734.125-.11.125-.125.125-.172 0-.063-.063-.094-.11-.094-.156 0-1.14.86-1.719 2.031-.609 1.22-.89 2.485-.89 3.97 0 1.062.172 2.484.781 3.75C2.672 2.218 3.641 3 3.781 3c.047 0 .11-.031.11-.094Zm0 0"/><path id="e" d="M2.203-4.297c-.203.016-.25.031-.25.14 0 .11.063.11.266.11h.547c1.03 0 1.484.844 1.484 1.984 0 1.579-.813 1.985-1.406 1.985-.578 0-1.547-.266-1.906-1.063.39.063.734-.156.734-.578a.571.571 0 0 0-.578-.593c-.297 0-.61.171-.61.624C.484-.625 1.547.25 2.875.25c1.422 0 2.484-1.094 2.484-2.297C5.36-3.14 4.47-4 3.33-4.203 4.358-4.5 5.03-5.375 5.03-6.313c0-.937-.984-1.64-2.14-1.64-1.188 0-2.079.734-2.079 1.61 0 .468.375.577.547.577.25 0 .547-.187.547-.546 0-.375-.297-.547-.562-.547-.063 0-.094 0-.125.015.453-.812 1.578-.812 1.64-.812.391 0 1.172.172 1.172 1.343 0 .235-.031.891-.39 1.407-.36.531-.766.562-1.079.578Zm0 0"/><path id="f" d="M3.375-2.969c0-.922-.125-2.39-.797-3.781C1.875-8.188.891-8.969.766-8.969c-.047 0-.11.031-.11.094 0 .047 0 .063.203.266 1.204 1.203 1.86 3.187 1.86 5.625 0 2.312-.563 4.312-1.938 5.718-.125.11-.125.141-.125.172 0 .063.063.094.11.094.156 0 1.14-.86 1.718-2.031.61-1.219.891-2.516.891-3.938Zm0 0"/><path id="g" d="M5.266-2.016H5c-.047.204-.14.875-.25 1.063-.094.11-.766.11-1.125.11H1.406c.328-.282 1.063-1.048 1.36-1.329 1.828-1.672 2.5-2.297 2.5-3.484 0-1.375-1.094-2.297-2.485-2.297-1.375 0-2.203 1.187-2.203 2.219 0 .609.531.609.563.609.265 0 .562-.188.562-.563 0-.343-.219-.562-.562-.562-.094 0-.125 0-.157.016.22-.813.875-1.375 1.641-1.375 1.016 0 1.64.859 1.64 1.953 0 1.015-.577 1.906-1.265 2.672L.578-.281V0h4.375Zm0 0"/><path id="c" d="M2.469-3.5c.015-.078.312-.672.765-1.047a1.639 1.639 0 0 1 1.172-.484c.485 0 .657.36.657.828 0 .687-.5 2.047-.735 2.703-.11.281-.172.438-.172.656 0 .531.375.969.953.969 1.11 0 1.532-1.766 1.532-1.828 0-.063-.047-.11-.125-.11-.11 0-.125.032-.188.235-.266.984-.719 1.453-1.187 1.453-.125 0-.313 0-.313-.39 0-.297.125-.657.203-.829.235-.656.735-1.984.735-2.672 0-.718-.407-1.25-1.313-1.25-1.078 0-1.625.75-1.844 1.047-.046-.687-.53-1.047-1.062-1.047-.375 0-.64.22-.844.625-.219.438-.375 1.157-.375 1.204 0 .046.047.109.125.109.094 0 .11-.016.188-.297.187-.719.406-1.406.875-1.406.28 0 .375.187.375.547 0 .265-.125.734-.204 1.109l-.343 1.281c-.047.235-.172.766-.235.985-.078.312-.218.875-.218.937 0 .156.14.297.312.297.14 0 .313-.078.406-.25.032-.063.141-.484.204-.719l.25-1.078Zm0 0"/></defs><path fill="none" stroke="#000" stroke-miterlimit="10" stroke-width=".399" d="m35.012 34.258 20.64 14.996-7.882 24.262H22.258L14.37 49.254ZM35.012 34.258 47.77 73.516M35.012 34.258 22.258 73.516"/><use xlink:href="#a" x="46.1" y="27.041"/><use xlink:href="#b" x="55.398" y="27.041"/><use xlink:href="#c" x="59.951" y="27.041"/><use xlink:href="#d" x="69.595" y="27.041"/><use xlink:href="#e" x="81.55" y="27.041"/><use xlink:href="#f" x="87.403" y="27.041"/><path d="M68.984 39.27c-1.496.75-2.644 2.582-2.644 5.07 0 .265.398.265.398 0 0-2.488.84-4.145 2.336-4.89.117-.06.028-.24-.09-.18M64.09 105.781c1.496-.746 2.648-2.582 2.648-5.07 0-.266-.398-.266-.398 0 0 2.488-.844 4.144-2.336 4.89-.121.06-.031.239.086.18"/><path fill="none" stroke="#000" stroke-miterlimit="10" stroke-width=".399" d="M66.54 44.34v56.37"/><path d="M64.004 105.781c1.492.746 2.336 2.403 2.336 4.89 0 .266.398.266.398 0 0-2.487-1.152-4.323-2.648-5.07-.117-.058-.207.122-.086.18M69.074 171.934c-1.496-.746-2.336-2.403-2.336-4.891 0-.266-.398-.266-.398 0 0 2.488 1.148 4.32 2.644 5.07.118.059.207-.12.09-.18"/><path fill="none" stroke="#000" stroke-miterlimit="10" stroke-width=".399" d="M66.54 110.672v56.371M103.043 34.258l20.64 14.996-7.882 24.262H90.289l-7.883-24.262ZM103.043 34.258 90.289 73.516"/><path d="M136.992 39.227c-1.492.746-2.722 2.625-2.722 5.113 0 .394.597.394.597 0 0-2.488.766-4.098 2.262-4.848.176-.086.043-.355-.137-.265M132.145 80.313c1.496-.747 2.722-2.626 2.722-5.114 0-.394-.597-.394-.597 0 0 2.489-.762 4.098-2.258 4.848-.176.086-.043.355.133.266"/><path fill="none" stroke="#000" stroke-miterlimit="10" stroke-width=".598" d="M134.57 44.34V75.2"/><path d="M132.012 80.313c1.496.746 2.258 2.359 2.258 4.847 0 .395.597.395.597 0 0-2.488-1.226-4.367-2.722-5.113-.176-.09-.31.18-.133.266M137.129 120.863c-1.496-.746-2.262-2.355-2.262-4.847 0-.395-.597-.395-.597 0 0 2.492 1.23 4.37 2.722 5.117.18.09.313-.18.137-.27"/><path fill="none" stroke="#000" stroke-miterlimit="10" stroke-width=".598" d="M134.57 85.16v30.856"/><path fill="none" stroke="#000" stroke-miterlimit="10" stroke-width=".399" d="m171.078 34.258 20.637 14.996-7.883 24.262H158.32l-7.882-24.262ZM171.078 34.258l-11.316 34.828"/><path stroke="#000" stroke-miterlimit="10" stroke-width=".39899601" d="m158.805 72.027 2.972-3.718-2.047.87-1.144-1.91Zm0 0"/><path fill="none" stroke="#000" stroke-miterlimit="10" stroke-width=".399" d="m171.078 85.281 20.637 14.996-7.883 24.262H158.32l-7.882-24.262ZM158.32 124.54l11.317-34.83"/><path stroke="#000" stroke-miterlimit="10" stroke-width=".39899601" d="m170.594 86.77-2.973 3.718 2.047-.87 1.145 1.91Zm0 0"/><path fill="none" stroke="#000" stroke-miterlimit="10" stroke-width=".399" d="m103.043 136.305 20.64 14.996-7.882 24.265H90.289l-7.883-24.265ZM103.043 136.305l12.758 39.261"/><use xlink:href="#a" x="129.484" y="27.406"/><use xlink:href="#g" x="138.782" y="27.406"/><path d="M136.992 141.273c-1.492.75-2.722 2.625-2.722 5.118 0 .394.597.394.597 0 0-2.493.766-4.102 2.262-4.848.176-.09.043-.356-.137-.27M132.145 182.363c1.496-.75 2.722-2.625 2.722-5.117 0-.394-.597-.394-.597 0 0 2.492-.762 4.102-2.258 4.848-.176.09-.043.355.133.27"/><path fill="none" stroke="#000" stroke-miterlimit="10" stroke-width=".598" d="M134.57 146.39v30.856"/><path d="M132.012 182.363c1.496.746 2.258 2.356 2.258 4.848 0 .394.597.394.597 0 0-2.492-1.226-4.371-2.722-5.117-.176-.086-.31.18-.133.27M137.129 222.914c-1.496-.746-2.262-2.355-2.262-4.848 0-.394-.597-.394-.597 0 0 2.493 1.23 4.368 2.722 5.114.18.09.313-.18.137-.266"/><path fill="none" stroke="#000" stroke-miterlimit="10" stroke-width=".598" d="M134.57 187.21v30.856"/><path fill="none" stroke="#000" stroke-miterlimit="10" stroke-width=".399" d="m171.078 136.305 20.637 14.996-7.883 24.265H158.32l-7.882-24.265ZM171.078 136.305l11.317 34.828"/><path stroke="#000" stroke-miterlimit="10" stroke-width=".39899601" d="m183.348 174.078.218-4.758-1.14 1.91-2.051-.875Zm0 0"/><path fill="none" stroke="#000" stroke-miterlimit="10" stroke-width=".399" d="m171.078 187.328 20.637 14.996-7.883 24.266H158.32l-7.882-24.266ZM183.832 226.59l-11.316-34.828"/><path stroke="#000" stroke-miterlimit="10" stroke-width=".39899601" d="m171.559 188.816-.22 4.758 1.145-1.906 2.051.871Zm0 0"/></svg>