<svg xmlns="http://www.w3.org/2000/svg" xmlns:xlink="http://www.w3.org/1999/xlink" width="423.21pt" height="252.22pt" viewBox="0 0 423.21 252.22"><defs><path id="Y" d="M5.27-.971v-.611h-.273v.611c0 .633-.273.698-.393.698-.36 0-.404-.49-.404-.545V-3c0-.458 0-.884-.392-1.288a2.08 2.08 0 0 0-1.495-.6c-.895 0-1.647.513-1.647 1.233 0 .327.218.513.501.513a.48.48 0 0 0 .502-.502c0-.13-.054-.49-.556-.502.294-.382.829-.502 1.178-.502.535 0 1.157.426 1.157 1.397v.403c-.557.033-1.32.066-2.008.393-.818.371-1.09.939-1.09 1.419C.35-.153 1.406.12 2.094.12a1.51 1.51 0 0 0 1.429-.95c.044.437.338.895.85.895.23 0 .896-.152.896-1.036m-1.822-.556C3.448-.491 2.662-.12 2.17-.12c-.534 0-.982-.382-.982-.927 0-.6.458-1.506 2.259-1.571z"/><path id="ad" d="M7.102-1.997c0-.949-.894-1.767-2.105-1.898 1.058-.207 1.81-.905 1.81-1.713 0-.949-1.003-1.844-2.421-1.844H.393v.339h.262c.84 0 .861.12.861.512v5.75c0 .393-.021.513-.861.513H.393V0h4.276c1.452 0 2.433-.971 2.433-1.997M5.75-5.607c0 .697-.535 1.614-1.746 1.614H2.422v-2.684c0-.36.022-.436.535-.436h1.352c1.059 0 1.44.927 1.44 1.505m.261 3.6c0 .774-.567 1.669-1.69 1.669H2.956c-.513 0-.535-.077-.535-.437v-2.978h2.051c1.08 0 1.538 1.015 1.538 1.746"/><path id="ag" d="M3.011-2.04v-.633H.12v.633z"/><path id="ac" d="M2.782 0v-.338c-.73 0-.85 0-.85-.491v-6.743l-1.572.12v.339c.764 0 .851.076.851.61v5.674c0 .49-.12.49-.851.49V0l1.211-.033z"/><path id="af" d="M8.87 0v-.338c-.567 0-.84 0-.851-.328v-2.083c0-.939 0-1.277-.338-1.67-.153-.185-.513-.403-1.146-.403-.916 0-1.396.654-1.582 1.069-.153-.95-.96-1.07-1.45-1.07-.797 0-1.31.47-1.616 1.146v-1.145l-1.538.12v.338c.764 0 .851.076.851.611v2.924c0 .49-.12.49-.85.49V0l1.232-.033L2.804 0v-.338c-.731 0-.851 0-.851-.491v-2.008c0-1.134.775-1.745 1.473-1.745.687 0 .807.589.807 1.21v2.543c0 .49-.12.49-.85.49V0l1.232-.033L5.837 0v-.338c-.731 0-.851 0-.851-.491v-2.008c0-1.134.774-1.745 1.473-1.745.687 0 .807.589.807 1.21v2.543c0 .49-.12.49-.85.49V0l1.232-.033z"/><path id="X" d="M7.812-7.113v-.339l-1.277.033-1.276-.033v.339c1.123 0 1.123.512 1.123.807v4.659L2.532-7.31c-.1-.13-.11-.142-.317-.142H.36v.339h.316c.164 0 .382.01.546.022.25.032.262.043.262.25v5.695c0 .295 0 .808-1.124.808V0l1.277-.033L2.913 0v-.338c-1.124 0-1.124-.513-1.124-.808v-5.673a.6.6 0 0 1 .11.131l4.45 6.546c.099.131.11.142.186.142.153 0 .153-.076.153-.284v-6.022c0-.295 0-.807 1.124-.807"/><path id="ae" d="M5.139-2.335c0-1.396-1.091-2.553-2.411-2.553-1.364 0-2.423 1.19-2.423 2.553A2.435 2.435 0 0 0 2.717.12a2.43 2.43 0 0 0 2.422-2.455m-.906-.087c0 .393 0 .982-.24 1.462-.24.49-.72.807-1.265.807-.47 0-.95-.229-1.244-.73-.273-.48-.273-1.146-.273-1.539 0-.426 0-1.015.262-1.495a1.46 1.46 0 0 1 1.244-.73c.48 0 .949.24 1.232.708s.284 1.102.284 1.517"/><path id="ah" d="M5.684-2.357c0-1.385-1.058-2.465-2.28-2.465-.851 0-1.31.48-1.527.72v-.72l-1.572.12v.338c.775 0 .851.065.851.546v5.105c0 .491-.12.491-.85.491v.339l1.221-.033 1.233.033v-.339c-.73 0-.85 0-.85-.49V-.645c.054.175.512.764 1.341.764C4.55.12 5.684-.95 5.684-2.357m-.905 0c0 1.32-.764 2.237-1.571 2.237-.437 0-.851-.218-1.146-.666-.153-.229-.153-.24-.153-.458v-2.433c.317-.556.851-.872 1.408-.872.796 0 1.462.96 1.462 2.192"/><path id="ab" d="M3.971-4.157c0-.349-.338-.665-.807-.665-.797 0-1.19.73-1.342 1.2v-1.2l-1.517.12v.338c.764 0 .851.076.851.611v2.924c0 .49-.12.49-.85.49V0l1.243-.033c.437 0 .95 0 1.386.033v-.338h-.23c-.807 0-.828-.12-.828-.513v-1.68c0-1.08.458-2.051 1.287-2.051.076 0 .098 0 .12.01a.47.47 0 0 0-.251.426c0 .306.23.47.47.47.195 0 .468-.132.468-.48"/><path id="Z" d="M3.622-1.353v-.622H3.35v.6c0 .808-.327 1.222-.73 1.222-.732 0-.732-.993-.732-1.178v-3.033h1.56v-.338h-1.56V-6.71h-.272c-.011.895-.339 2.062-1.408 2.106v.24h.928v3.011C1.135-.01 2.149.12 2.542.12c.775 0 1.08-.775 1.08-1.473"/><path id="aa" d="M5.837 0v-.338c-.764 0-.851-.077-.851-.611v-3.873l-1.604.12v.338c.764 0 .851.076.851.611v1.942c0 .95-.524 1.691-1.32 1.691-.916 0-.96-.513-.96-1.08v-3.622l-1.604.12v.338c.851 0 .851.033.851 1.004v1.636C1.2-.873 1.2.12 2.858.12c.611 0 1.091-.305 1.408-.982V.12z"/><path id="v" d="M5.669-1.064v-.67h-.263v.67c0 .681-.287.777-.455.777-.454 0-.454-.634-.454-.813v-2.093c0-.646 0-1.125-.526-1.591-.419-.383-.957-.55-1.483-.55-.981 0-1.735.646-1.735 1.423 0 .347.228.514.503.514.287 0 .49-.203.49-.49 0-.49-.43-.49-.61-.49.275-.503.85-.718 1.328-.718.55 0 1.256.455 1.256 1.53v.48C1.316-3.05.407-2.046.407-1.126c0 .946 1.1 1.245 1.83 1.245A1.63 1.63 0 0 0 3.79-.933c.048.562.419.993.933.993.251 0 .945-.168.945-1.124m-1.95-.622C3.72-.514 2.847-.12 2.333-.12c-.586 0-1.076-.43-1.076-1.004 0-1.579 2.033-1.722 2.464-1.746z"/><path id="R" d="M7.63-2.189c0-.968-.873-1.925-2.296-2.08 1.136-.216 1.962-.981 1.962-1.878 0-1.029-1.04-2.022-2.608-2.022H.514v.347h.24c.86 0 .896.12.896.562v6.351c0 .443-.035.562-.897.562H.514V0h4.497c1.543 0 2.62-1.04 2.62-2.189M6.243-6.147c0 .789-.622 1.782-1.95 1.782H2.56v-2.978c0-.395.024-.479.55-.479h1.508c1.196 0 1.626 1.029 1.626 1.675m.3 3.946c0 .97-.73 1.854-1.903 1.854H3.11c-.527 0-.55-.084-.55-.478v-3.301h2.236c1.148 0 1.746 1.004 1.746 1.925"/><path id="F" d="M6.16 0v-.347c-.814 0-.91-.084-.91-.67V-8.3l-1.662.131v.347c.813 0 .909.084.909.67v2.643a1.86 1.86 0 0 0-1.495-.765C1.615-5.274.419-4.102.419-2.571c0 1.519 1.136 2.69 2.451 2.69.91 0 1.436-.597 1.603-.825V.12zM4.472-1.4c0 .216 0 .252-.167.515-.287.419-.778.765-1.376.765-.31 0-1.602-.12-1.602-2.44 0-.86.143-1.339.406-1.734.24-.37.718-.741 1.316-.741.741 0 1.16.538 1.28.73.143.203.143.227.143.442z"/><path id="B" d="M4.868-1.423c0-.072-.06-.12-.132-.12-.096 0-.12.06-.143.12C4.282-.42 3.48-.143 2.978-.143s-1.71-.335-1.71-2.404v-.228H4.58c.263 0 .287 0 .287-.227 0-1.208-.646-2.332-2.093-2.332C1.41-5.334.359-4.102.359-2.62.359-1.041 1.579.12 2.906.12c1.424 0 1.962-1.292 1.962-1.543m-.742-1.579H1.28c.095-1.878 1.148-2.093 1.483-2.093 1.28 0 1.351 1.686 1.363 2.093"/><path id="T" d="M3.241-2.26v-.646H.131v.646z"/><path id="z" d="M2.882 0v-.347c-.777 0-.825-.06-.825-.526v-4.401l-1.626.131v.347c.765 0 .873.072.873.658v3.253c0 .538-.132.538-.91.538V0c.336-.024.91-.024 1.256-.024.132 0 .826 0 1.232.024m-.67-7.224a.58.58 0 1 0-.586.574.576.576 0 0 0 .587-.574"/><path id="D" d="M2.966 0v-.347c-.765 0-.909 0-.909-.538V-8.3L.395-8.17v.347c.813 0 .909.084.909.67v6.267c0 .538-.132.538-.91.538V0c.336-.024.922-.024 1.28-.024s.957 0 1.292.024"/><path id="H" d="M9.484 0v-.347c-.598 0-.897 0-.909-.359v-2.2c0-1.113 0-1.447-.275-1.83-.347-.467-.909-.538-1.315-.538-.993 0-1.495.717-1.687 1.184-.167-.921-.813-1.184-1.566-1.184-1.16 0-1.615.992-1.71 1.232h-.013v-1.232l-1.626.131v.347c.813 0 .909.084.909.67v3.241c0 .538-.132.538-.91.538V0c.312-.024.958-.024 1.292-.024.347 0 .993 0 1.304.024v-.347c-.765 0-.909 0-.909-.538V-3.11c0-1.255.825-1.925 1.567-1.925s.909.61.909 1.34v2.81c0 .538-.132.538-.91.538V0c.312-.024.958-.024 1.293-.024.346 0 .992 0 1.303.024v-.347c-.765 0-.909 0-.909-.538V-3.11c0-1.255.825-1.925 1.567-1.925s.909.61.909 1.34v2.81c0 .538-.132.538-.909.538V0c.31-.024.957-.024 1.292-.024.346 0 .992 0 1.303.024"/><path id="N" d="M8.276-7.822v-.347c-.31.024-.945.024-1.28.024s-.968 0-1.28-.024v.347c1.137 0 1.137.562 1.137.91v5.226l-4.15-6.315c-.108-.156-.12-.168-.383-.168H.49v.347c.515 0 .814 0 1.137.084v6.482c0 .347 0 .91-1.137.91V0c.311-.024.945-.024 1.28-.024s.969 0 1.28.024v-.347c-1.136 0-1.136-.562-1.136-.909v-6.29c.095.095.095.119.203.262L6.78-.179c.12.167.132.179.216.179.107 0 .131-.048.143-.072v-6.84c0-.348 0-.91 1.136-.91"/><path id="S" d="M5.49-2.56c0-1.542-1.172-2.774-2.56-2.774C1.495-5.334.36-4.066.36-2.56.359-1.03 1.555.12 2.919.12c1.41 0 2.57-1.172 2.57-2.68m-.91-.107c0 .419 0 1.16-.31 1.722a1.56 1.56 0 0 1-1.34.801c-.442 0-.98-.19-1.327-.777-.323-.538-.335-1.244-.335-1.746 0-.455 0-1.184.37-1.722a1.53 1.53 0 0 1 1.28-.706c.467 0 .969.215 1.292.682.37.55.37 1.303.37 1.746"/><path id="E" d="M6.076-2.583c0-1.52-1.125-2.691-2.428-2.691-1.053 0-1.615.753-1.65.801v-.801l-1.663.131v.347c.837 0 .909.084.909.61v5.621c0 .538-.132.538-.91.538v.347c.312-.024.958-.024 1.293-.024.346 0 .992 0 1.303.024v-.347c-.765 0-.909 0-.909-.538v-2.08c.216.298.706.765 1.471.765 1.376 0 2.584-1.16 2.584-2.703m-.91 0c0 1.423-.813 2.463-1.733 2.463a1.4 1.4 0 0 1-.957-.382c-.275-.275-.455-.515-.455-.85v-2.463c0-.227 0-.24.132-.43a1.72 1.72 0 0 1 1.4-.766c.896 0 1.614 1.088 1.614 2.428"/><path id="U" d="M3.887 2.906c0-.036 0-.06-.203-.263C2.488 1.435 1.818-.538 1.818-2.978c0-2.32.562-4.318 1.95-5.729.119-.108.119-.131.119-.167 0-.072-.06-.096-.108-.096-.155 0-1.136.861-1.722 2.033-.61 1.208-.885 2.488-.885 3.959 0 1.064.168 2.488.79 3.767.705 1.436 1.686 2.213 1.817 2.213.048 0 .108-.024.108-.096"/><path id="W" d="M3.373-2.978c0-.909-.12-2.392-.79-3.78C1.878-8.192.897-8.97.765-8.97c-.047 0-.107.024-.107.096 0 .036 0 .06.203.263C2.057-7.403 2.727-5.43 2.727-2.99c0 2.32-.562 4.318-1.95 5.729-.12.107-.12.131-.12.167 0 .072.06.096.108.096.156 0 1.137-.861 1.723-2.033.61-1.22.885-2.512.885-3.947"/><path id="Q" d="M2.2-.586a.58.58 0 0 0-.573-.574.577.577 0 0 0-.586.574.58.58 0 1 0 1.16 0"/><path id="ap" d="M8.575-1.04c0-.072 0-.18-.131-.18-.12 0-.12.072-.132.191-.06.718-.406 1.041-.79 1.041-.55 0-.669-.562-.765-1.196l-.12-.897c-.083-.598-.13-.98-.49-1.352-.131-.131-.442-.454-1.1-.633 1.184-.275 2.105-1.029 2.105-1.95 0-1.16-1.351-2.153-3.074-2.153H.502v.347h.24c.86 0 .897.12.897.562v6.351c0 .443-.036.562-.897.562h-.24V0c.275-.024 1.256-.024 1.603-.024s1.34 0 1.615.024v-.347h-.24c-.86 0-.897-.12-.897-.562v-3.062h1.388c.466 0 .909.132 1.232.467.406.454.406.705.406 1.53 0 .945 0 1.256.526 1.77.18.18.682.455 1.352.455.933 0 1.088-1.04 1.088-1.292M6.04-6.017c0 1.04-.562 1.806-2.117 1.806h-1.34v-3.133c0-.276 0-.419.252-.467.107-.012.466-.012.705-.012.969 0 2.5 0 2.5 1.806"/><path id="w" d="M4.222-4.58c0-.36-.323-.694-.837-.694-1.017 0-1.364 1.1-1.436 1.327h-.011v-1.327l-1.603.131v.347c.813 0 .909.084.909.67v3.241c0 .538-.132.538-.91.538V0c.336-.024.994-.024 1.352-.024.323 0 1.172 0 1.448.024v-.347h-.24c-.873 0-.897-.131-.897-.562v-1.878c0-1.16.479-2.248 1.4-2.248.095 0 .12 0 .167.012-.096.048-.287.12-.287.442a.46.46 0 0 0 .466.479c.24 0 .479-.156.479-.479"/><path id="V" d="M5.848-2.2c0-.73-.275-1.268-.598-1.663-.442-.538-.98-.67-1.447-.79l-1.315-.334c-.61-.156-1.148-.754-1.148-1.52 0-.836.67-1.59 1.602-1.59 1.962 0 2.225 1.938 2.296 2.452.024.143.024.191.144.191.132 0 .132-.06.132-.275v-2.416c0-.215 0-.275-.12-.275-.036 0-.084 0-.167.156l-.395.73c-.574-.742-1.364-.886-1.89-.886A2.28 2.28 0 0 0 .646-6.135c0 .574.203 1.1.646 1.578.418.467.837.574 1.686.79.419.095 1.076.263 1.244.334.562.276.933.921.933 1.591 0 .897-.634 1.746-1.627 1.746-.538 0-1.28-.131-1.866-.646C.97-1.363.921-2.225.91-2.619c-.012-.096-.132-.096-.132-.096-.131 0-.131.06-.131.275v2.416c0 .215 0 .275.12.275.071 0 .083-.024.167-.167l.395-.718c.43.479 1.184.885 2.212.885C4.88.251 5.848-.885 5.848-2.2"/><path id="y" d="M4.21-1.519c0-.646-.395-1.028-.502-1.136-.431-.37-.754-.443-1.543-.586-.359-.072-1.232-.24-1.232-.957 0-.37.251-.92 1.327-.92 1.304 0 1.376 1.111 1.4 1.482.012.096.095.096.131.096.132 0 .132-.06.132-.275V-5.06c0-.215 0-.275-.12-.275-.095 0-.323.263-.406.37-.371-.298-.742-.37-1.125-.37-1.447 0-1.877.79-1.877 1.447 0 .132 0 .55.454.969.383.335.79.418 1.34.526.657.132.813.167 1.112.407.215.179.37.442.37.777 0 .514-.298 1.088-1.35 1.088C1.53-.12.956-.574.693-1.77c-.048-.215-.06-.24-.06-.24-.024-.047-.072-.047-.108-.047-.131 0-.131.06-.131.275v1.627c0 .215 0 .275.12.275.06 0 .071-.012.274-.264.06-.083.06-.107.24-.299.454.563 1.1.563 1.303.563C3.588.12 4.21-.574 4.21-1.52"/><path id="G" d="M3.899-1.483v-.682h-.263v.658c0 .861-.347 1.363-.813 1.363-.814 0-.814-1.112-.814-1.315v-3.349h1.687v-.347H2.009v-2.2h-.263c-.012 1.124-.442 2.272-1.53 2.308v.24h1.016v3.324C1.232-.155 2.117.12 2.75.12c.753 0 1.148-.742 1.148-1.603"/><path id="O" d="M6.231 0v-.347c-.813 0-.909-.084-.909-.67v-4.257l-1.686.131v.347c.813 0 .909.084.909.67v2.14C4.545-.968 4.007-.12 3.11-.12c-.981 0-1.04-.562-1.04-1.196v-3.958l-1.687.131v.347c.909 0 .909.036.909 1.1v1.794c0 .742 0 1.172.358 1.567.288.311.778.455 1.388.455.203 0 .586 0 .993-.347.346-.275.538-.73.538-.73V.12z"/><path id="P" d="M5.956-4.808v-.347c-.347.024-.514.024-.885.024l-.98-.024v.347c.502.024.561.383.561.514 0 .108-.023.168-.083.311L3.349-.897 2.009-4.27c-.06-.167-.071-.167-.071-.227 0-.31.454-.31.67-.31v-.348c-.3.024-.922.024-1.245.024L.215-5.155v.347c.67 0 .79.048.933.419l1.71 4.281c.06.168.084.228.228.228.083 0 .155-.024.239-.228l1.555-3.91c.107-.264.31-.778 1.076-.79"/><path id="x" d="M5.956-4.808v-.347c-.347.024-.514.024-.897.024l-.969-.024v.347c.443.024.55.3.55.514 0 .108-.023.168-.071.287L3.349-.993 2.02-4.246c-.072-.167-.072-.251-.072-.251 0-.31.42-.31.658-.31v-.348c-.31.024-.897.024-1.232.024l-1.16-.024v.347c.694 0 .79.06.945.43L2.942 0c-.526 1.268-.526 1.292-.574 1.387-.203.36-.526.814-1.064.814-.371 0-.598-.216-.598-.216s.418-.047.418-.466a.433.433 0 0 0-.442-.443c-.204 0-.455.12-.455.467 0 .454.443.897 1.077.897.67 0 1.16-.586 1.47-1.34l2.07-5.095c.323-.801.885-.813 1.112-.813"/><path id="A" d="M4.7-2.2h-.263C4.33-.838 4.127-.264 2.703-.264H1.256l3.3-4.557c.108-.131.108-.155.108-.203 0-.132-.083-.132-.287-.132H.622L.49-3.253h.263c.072-1.22.3-1.663 1.603-1.663h1.387l-3.42 4.7C.323 0 .347 0 .61 0h3.899z"/><path id="K" d="M1.722-.263c.3.275.742.383 1.148.383.766 0 1.292-.515 1.567-.885.12.633.622.885 1.04.885q.54 0 .862-.646c.191-.407.359-1.136.359-1.184 0-.06-.048-.108-.12-.108-.108 0-.12.06-.167.24-.18.705-.407 1.458-.897 1.458-.347 0-.371-.31-.371-.55 0-.275.107-.705.191-1.064l.335-1.292c.048-.227.18-.765.24-.98.071-.288.203-.802.203-.85 0-.18-.144-.299-.323-.299-.108 0-.36.048-.455.407l-.837 3.325c-.06.239-.06.263-.215.454-.144.204-.61.85-1.364.85-.67 0-.885-.491-.885-1.053 0-.347.108-.766.156-.969l.538-2.153c.06-.227.155-.61.155-.681 0-.192-.155-.3-.31-.3-.108 0-.371.037-.467.42L.371 2.068c-.012.06-.036.132-.036.203 0 .18.143.3.323.3.347 0 .418-.276.502-.61z"/><path id="C" d="M2.464-3.504c.024-.072.323-.67.765-1.053a1.74 1.74 0 0 1 1.184-.478c.479 0 .646.359.646.837 0 .682-.49 2.045-.73 2.691-.107.287-.167.443-.167.658 0 .538.37.969.945.969 1.112 0 1.53-1.759 1.53-1.83 0-.06-.047-.108-.119-.108-.107 0-.12.036-.18.24C6.065-.599 5.61-.12 5.144-.12c-.12 0-.311-.012-.311-.394 0-.3.131-.658.203-.826.24-.657.742-1.997.742-2.679 0-.717-.419-1.255-1.328-1.255-1.064 0-1.626.753-1.842 1.052-.036-.682-.526-1.052-1.052-1.052-.383 0-.646.227-.85.634C.49-4.21.324-3.492.324-3.444s.048.107.131.107c.096 0 .108-.012.18-.287.191-.73.407-1.411.885-1.411.275 0 .37.191.37.55 0 .263-.119.73-.203 1.1l-.335 1.292c-.047.227-.179.765-.239.98C1.03-.8.897-.238.897-.178c0 .167.132.299.311.299a.46.46 0 0 0 .407-.252c.024-.06.131-.478.191-.717l.263-1.077z"/><path id="I" d="M2.404-4.808h1.1c.228 0 .347 0 .347-.215 0-.132-.072-.132-.31-.132H2.487L2.93-6.9c.048-.167.048-.191.048-.275 0-.191-.155-.299-.31-.299-.097 0-.372.036-.467.419l-.467 1.901H.61c-.24 0-.347 0-.347.227 0 .12.084.12.311.12H1.64L.849-1.65c-.096.418-.131.538-.131.693C.718-.395 1.112.12 1.782.12c1.208 0 1.854-1.747 1.854-1.83 0-.072-.048-.108-.12-.108-.024 0-.072 0-.095.048-.012.012-.024.024-.108.215C3.062-.957 2.512-.12 1.818-.12c-.359 0-.383-.299-.383-.562 0-.012 0-.239.036-.382z"/><path id="l" d="M2.296-2.99c0-.347-.287-.634-.634-.634s-.633.287-.633.634.287.634.633.634.634-.287.634-.634"/><path id="a" d="M8.635-3.995c0-.263-.072-.382-.167-.382-.06 0-.156.083-.168.31-.048 1.149-.837 1.807-1.674 1.807-.754 0-1.328-.515-1.914-1.029-.61-.55-1.232-1.1-2.045-1.1-1.304 0-2.01 1.315-2.01 2.404 0 .382.156.382.168.382.132 0 .168-.239.168-.275.048-1.315.945-1.842 1.674-1.842.754 0 1.328.515 1.914 1.029.61.55 1.232 1.1 2.045 1.1 1.303 0 2.01-1.315 2.01-2.404"/><path id="r" d="M2.095-.578c0-.317-.262-.578-.579-.578s-.578.261-.578.578S1.2 0 1.516 0s.579-.262.579-.578"/><path id="u" d="M.96-.644c-.033.164-.098.415-.098.47 0 .196.153.294.316.294.131 0 .328-.087.404-.305.01-.022.142-.535.207-.808l.24-.982c.066-.24.131-.48.186-.73.043-.186.13-.503.142-.546.163-.338.741-1.331 1.778-1.331.49 0 .589.403.589.764 0 .676-.535 2.072-.71 2.542-.097.25-.108.381-.108.501 0 .513.382.895.894.895 1.026 0 1.43-1.593 1.43-1.68 0-.11-.099-.11-.131-.11-.11 0-.11.033-.164.197C5.717-.73 5.357-.12 4.822-.12c-.185 0-.262-.11-.262-.36 0-.273.099-.535.197-.775.207-.578.665-1.778.665-2.4 0-.73-.469-1.167-1.254-1.167-.982 0-1.517.698-1.702.949-.055-.611-.502-.95-1.004-.95s-.71.426-.818.623a5.5 5.5 0 0 0-.328 1.058c0 .109.11.109.131.109.11 0 .12-.01.186-.25.185-.776.403-1.3.796-1.3.218 0 .338.143.338.503 0 .229-.032.349-.174.916z"/><path id="o" d="M2.247-4.364h1.026c.218 0 .327 0 .327-.218 0-.12-.109-.12-.305-.12h-.96c.393-1.55.447-1.768.447-1.833 0-.186-.13-.295-.316-.295-.033 0-.339.011-.437.393l-.425 1.735H.578c-.218 0-.327 0-.327.207 0 .131.087.131.305.131h.96C.731-1.266.687-1.08.687-.884c0 .59.415 1.004 1.004 1.004 1.113 0 1.735-1.593 1.735-1.68 0-.11-.088-.11-.131-.11-.098 0-.11.033-.164.154C2.662-.382 2.084-.12 1.713-.12c-.23 0-.338-.142-.338-.502 0-.262.021-.338.065-.524z"/><path id="e" d="M2.503-5.077c0-.215-.016-.223-.232-.223-.326.319-.749.51-1.506.51v.263c.215 0 .646 0 1.108-.215v4.088c0 .295-.024.391-.781.391h-.28V0c.328-.024 1.013-.024 1.372-.024s1.052 0 1.379.024v-.263h-.28c-.757 0-.78-.096-.78-.39z"/><path id="f" d="M2.016-2.662c.63 0 1.029.462 1.029 1.3 0 .995-.566 1.29-.989 1.29-.438 0-1.036-.16-1.315-.582.287 0 .486-.183.486-.446a.423.423 0 0 0-.438-.438c-.215 0-.438.135-.438.454 0 .757.813 1.251 1.721 1.251 1.06 0 1.801-.733 1.801-1.53 0-.661-.526-1.267-1.339-1.442.63-.224 1.1-.766 1.1-1.403S2.917-5.3 2.088-5.3C1.235-5.3.59-4.838.59-4.232c0 .295.199.422.406.422a.39.39 0 0 0 .407-.406c0-.295-.255-.407-.43-.415.334-.438.948-.462 1.091-.462.207 0 .813.064.813.885 0 .558-.231.892-.343 1.02-.239.247-.422.263-.908.295-.152.008-.215.016-.215.12 0 .111.071.111.207.111z"/><path id="g" d="M1.116-4.48c.103.033.422.112.757.112.996 0 1.602-.7 1.602-.82 0-.088-.056-.112-.096-.112-.016 0-.032 0-.103.04-.311.12-.678.215-1.108.215-.47 0-.86-.12-1.108-.215C.98-5.3.964-5.3.956-5.3c-.103 0-.103.088-.103.231v2.335c0 .144 0 .24.127.24.064 0 .088-.032.128-.096.095-.12.398-.526 1.076-.526.446 0 .661.366.733.518.136.287.151.653.151.964 0 .295-.008.725-.23 1.076a1.07 1.07 0 0 1-.893.486A1.295 1.295 0 0 1 .733-.917c.024.008.072.008.08.008.223 0 .398-.143.398-.39 0-.295-.23-.399-.39-.399-.144 0-.399.08-.399.423 0 .717.622 1.442 1.539 1.442.996 0 1.84-.773 1.84-1.761 0-.925-.669-1.745-1.61-1.745-.398 0-.772.127-1.075.398z"/><path id="c" d="M4.033-4.854c.072-.087.072-.103.072-.279H2.08c-.2 0-.446-.008-.645-.024-.415-.031-.423-.103-.447-.23H.741l-.27 1.68h.246c.016-.119.104-.669.215-.732.088-.04.686-.04.805-.04h1.69l-.82 1.1c-.91 1.211-1.1 2.47-1.1 3.1 0 .08 0 .446.374.446s.375-.358.375-.454v-.382c0-1.148.19-2.089.581-2.607z"/><path id="d" d="M3.124-2.351c0 1.945-.924 2.28-1.387 2.28-.167 0-.581-.025-.797-.272.351-.032.375-.295.375-.374a.364.364 0 0 0-.375-.375c-.143 0-.374.088-.374.39 0 .543.446.87 1.18.87 1.091 0 2.127-1.085 2.127-2.79 0-2.072-.916-2.678-1.737-2.678-.94 0-1.785.733-1.785 1.777 0 1.028.773 1.778 1.673 1.778.566 0 .909-.36 1.1-.766zm-1.068.382c-.366 0-.597-.167-.773-.462C1.1-2.726 1.1-3.108 1.1-3.515c0-.47 0-.805.215-1.132.2-.286.454-.446.829-.446.534 0 .765.526.789.566.167.39.175 1.012.175 1.172 0 .63-.342 1.386-1.052 1.386"/><path id="q" d="M5.019-3.491c0-.873-.055-1.746-.437-2.553-.502-1.048-1.396-1.222-1.854-1.222-.655 0-1.452.284-1.899 1.298C.48-5.215.425-4.364.425-3.49c0 .818.044 1.8.491 2.63A2 2 0 0 0 2.716.24c.59 0 1.419-.23 1.899-1.266.35-.752.404-1.603.404-2.465M2.717 0C2.29 0 1.647-.273 1.45-1.32c-.12-.655-.12-1.658-.12-2.302 0-.698 0-1.418.087-2.008.208-1.298 1.026-1.396 1.299-1.396.36 0 1.08.196 1.287 1.276.11.611.11 1.44.11 2.128 0 .818 0 1.56-.12 2.258C3.828-.327 3.207 0 2.716 0"/><path id="s" d="M3.208-6.982c0-.262 0-.284-.251-.284-.677.698-1.637.698-1.986.698v.338c.218 0 .862 0 1.43-.283v5.651c0 .393-.034.524-1.015.524h-.35V0c.382-.033 1.331-.033 1.768-.033s1.385 0 1.767.033v-.338h-.349c-.982 0-1.014-.12-1.014-.524z"/><path id="t" d="M3.164-3.84C4.059-4.135 4.69-4.9 4.69-5.76c0-.895-.96-1.506-2.007-1.506-1.102 0-1.931.655-1.931 1.484 0 .36.24.567.556.567.338 0 .557-.24.557-.556 0-.546-.513-.546-.677-.546.338-.534 1.058-.676 1.451-.676.448 0 1.048.24 1.048 1.222 0 .13-.022.763-.306 1.243-.327.524-.698.557-.97.568-.088.01-.35.032-.426.032-.088.011-.164.022-.164.131 0 .12.076.12.262.12h.48c.894 0 1.298.742 1.298 1.811 0 1.484-.753 1.8-1.233 1.8C2.16-.065 1.342-.25.96-.894c.382.055.72-.185.72-.6 0-.392-.294-.61-.61-.61-.263 0-.612.152-.612.632C.458-.48 1.473.24 2.662.24c1.331 0 2.324-.993 2.324-2.106 0-.894-.687-1.745-1.822-1.974"/><path id="ak" d="M3.208-1.8v.949c0 .393-.022.513-.83.513H2.15V0c.448-.033 1.015-.033 1.473-.033s1.037 0 1.484.033v-.338h-.23c-.807 0-.828-.12-.828-.513v-.95h1.09v-.337h-1.09v-4.964c0-.219 0-.284-.175-.284-.098 0-.13 0-.218.13L.305-2.137v.338zm.065-.338H.611l2.662-4.07z"/><path id="am" d="M4.899-2.193c0-1.298-.895-2.39-2.073-2.39-.524 0-.993.175-1.386.557v-2.127c.218.065.578.142.927.142 1.342 0 2.106-.993 2.106-1.135 0-.066-.033-.12-.109-.12-.01 0-.033 0-.087.033a3.6 3.6 0 0 1-1.484.316c-.436 0-.938-.076-1.451-.305-.087-.033-.11-.033-.131-.033-.11 0-.11.087-.11.262v3.23c0 .195 0 .283.154.283.076 0 .098-.033.141-.098.12-.175.524-.764 1.408-.764.567 0 .84.502.927.698.175.404.197.83.197 1.375 0 .382 0 1.036-.262 1.494-.262.426-.666.71-1.168.71-.796 0-1.418-.579-1.603-1.222.032.01.065.021.185.021.36 0 .546-.272.546-.534s-.186-.535-.546-.535c-.153 0-.535.077-.535.578C.546-.818 1.299.24 2.52.24 3.786.24 4.9-.807 4.9-2.193"/><path id="al" d="M1.44-3.578v-.262c0-2.76 1.353-3.153 1.91-3.153.261 0 .72.065.96.436-.164 0-.6 0-.6.491 0 .338.261.502.501.502.175 0 .502-.098.502-.524 0-.654-.48-1.178-1.385-1.178-1.397 0-2.87 1.407-2.87 3.818C.458-.535 1.724.24 2.738.24 3.95.24 4.986-.786 4.986-2.226c0-1.385-.971-2.433-2.182-2.433-.742 0-1.146.557-1.364 1.08M2.738-.065c-.687 0-1.014-.655-1.08-.819-.196-.512-.196-1.385-.196-1.582 0-.85.35-1.942 1.331-1.942.175 0 .676 0 1.015.677.196.403.196.96.196 1.494 0 .524 0 1.07-.185 1.462-.328.655-.83.71-1.08.71"/><path id="ao" d="M2.422-1.877c-.95 0-.95-1.09-.95-1.341 0-.295.012-.644.175-.917.088-.13.339-.436.775-.436.95 0 .95 1.09.95 1.342 0 .294-.012.643-.175.916-.088.131-.339.436-.775.436m-1.266.426c0-.044 0-.295.186-.513.425.306.873.338 1.08.338 1.015 0 1.767-.752 1.767-1.592 0-.404-.174-.808-.447-1.059.393-.37.786-.425.982-.425a.4.4 0 0 1 .11.01c-.12.044-.175.164-.175.295a.31.31 0 0 0 .316.317c.11 0 .316-.077.316-.328a.534.534 0 0 0-.556-.534c-.218 0-.698.065-1.157.513a1.82 1.82 0 0 0-1.156-.393C1.407-4.822.655-4.07.655-3.23c0 .48.24.894.512 1.123A1.5 1.5 0 0 0 .83-1.2c0 .338.142.753.48.97C.655-.043.305.426.305.863c0 .785 1.08 1.385 2.412 1.385 1.287 0 2.422-.556 2.422-1.407 0-.382-.153-.938-.71-1.244-.578-.305-1.21-.305-1.876-.305-.273 0-.742 0-.818-.011-.35-.044-.579-.382-.579-.731m1.572 3.448C1.626 1.997.873 1.44.873.862c0-.502.414-.906.894-.938h.644c.938 0 2.16 0 2.16.938 0 .589-.774 1.135-1.843 1.135"/><path id="an" d="m1.931-7.572-1.571.12v.339c.764 0 .851.076.851.61v5.674c0 .49-.12.49-.851.49V0c.36-.01.938-.033 1.211-.033S2.378-.01 2.782 0v-.338c-.73 0-.85 0-.85-.491z"/><path id="h" d="M5.358-3.827c0-.993-.06-1.962-.49-2.87-.49-.993-1.352-1.256-1.938-1.256-.693 0-1.543.346-1.985 1.34C.61-5.86.49-5.12.49-3.828c0 1.16.084 2.033.515 2.882A2.13 2.13 0 0 0 2.918.251c1.04 0 1.639-.622 1.986-1.315.43-.897.454-2.07.454-2.763M2.918.012c-.382 0-1.16-.215-1.387-1.519-.132-.718-.132-1.627-.132-2.464 0-.98 0-1.865.192-2.571.203-.801.813-1.172 1.327-1.172.455 0 1.148.275 1.376 1.303.155.682.155 1.627.155 2.44 0 .802 0 1.71-.131 2.44C4.09-.215 3.337.012 2.918.012"/><path id="m" d="M3.444-7.666c0-.275 0-.287-.239-.287-.287.323-.885.765-2.117.765v.347c.275 0 .873 0 1.531-.311v6.231c0 .43-.036.574-1.088.574h-.37V0c.322-.024 1.482-.024 1.877-.024s1.543 0 1.866.024v-.347h-.371C3.48-.347 3.444-.49 3.444-.92z"/><path id="b" d="M5.262-2.01H5c-.036.204-.131.862-.25 1.053-.085.108-.766.108-1.125.108H1.41c.323-.275 1.053-1.04 1.364-1.328 1.818-1.674 2.487-2.296 2.487-3.48 0-1.375-1.088-2.296-2.475-2.296S.586-6.77.586-5.741c0 .61.526.61.562.61.251 0 .562-.18.562-.562 0-.335-.227-.562-.562-.562-.107 0-.131 0-.167.012.227-.813.873-1.364 1.65-1.364 1.017 0 1.639.85 1.639 1.95 0 1.017-.586 1.902-1.268 2.667L.586-.287V0h4.365z"/><path id="i" d="M4.318-7.786c0-.227 0-.287-.168-.287-.096 0-.131 0-.227.144l-3.6 5.585v.347h3.145V-.91c0 .443-.024.562-.897.562h-.239V0c.275-.024 1.22-.024 1.555-.024s1.292 0 1.567.024v-.347h-.24c-.86 0-.896-.12-.896-.562v-1.088h1.208v-.347H4.318zm-.79.933v4.509H.622z"/><path id="ai" d="M1.53-6.853c.515.167.934.18 1.065.18 1.352 0 2.213-.993 2.213-1.16 0-.049-.024-.108-.096-.108-.024 0-.048 0-.155.047a3.9 3.9 0 0 1-1.555.323c-.79 0-1.352-.239-1.579-.335-.083-.035-.107-.035-.12-.035-.095 0-.095.071-.095.263v3.552c0 .215 0 .287.143.287.06 0 .072-.012.192-.156.335-.49.897-.777 1.495-.777.634 0 .945.586 1.04.79.204.466.216 1.052.216 1.506s0 1.136-.335 1.675c-.263.43-.73.73-1.256.73-.79 0-1.567-.539-1.782-1.412.06.024.131.036.191.036.204 0 .527-.12.527-.526 0-.335-.228-.527-.527-.527-.215 0-.526.108-.526.574 0 1.017.813 2.177 2.14 2.177 1.352 0 2.536-1.136 2.536-2.655 0-1.423-.956-2.607-2.212-2.607-.682 0-1.208.299-1.52.634z"/><path id="j" d="M1.471-4.162c0-3.026 1.471-3.504 2.117-3.504.43 0 .861.131 1.088.49-.143 0-.598 0-.598.49 0 .263.18.49.49.49.3 0 .503-.179.503-.526 0-.621-.454-1.231-1.495-1.231C2.069-7.953.49-6.411.49-3.78.49-.49 1.926.25 2.942.25c1.304 0 2.416-1.136 2.416-2.69 0-1.592-1.112-2.656-2.308-2.656-1.065 0-1.46.921-1.579 1.256zm1.471 4.09c-.753 0-1.112-.67-1.22-.92-.107-.312-.227-.898-.227-1.735 0-.945.43-2.129 1.507-2.129.658 0 1.005.443 1.184.85.191.442.191 1.04.191 1.554 0 .61 0 1.148-.227 1.603-.299.574-.73.777-1.208.777"/><path id="k" d="M3.564-4.318c.598-.322 1.471-.873 1.471-1.877 0-1.04-1.004-1.758-2.105-1.758-1.184 0-2.117.873-2.117 1.961 0 .407.12.813.455 1.22.131.155.143.167.98.753C1.088-3.48.49-2.679.49-1.806.49-.538 1.698.251 2.918.251c1.328 0 2.44-.98 2.44-2.236 0-1.22-.861-1.758-1.794-2.333M1.938-5.394c-.156-.108-.634-.419-.634-1.005 0-.777.813-1.267 1.614-1.267.861 0 1.627.622 1.627 1.483 0 .73-.526 1.315-1.22 1.698zM2.5-3.851l1.447.945c.31.203.86.574.86 1.303 0 .91-.92 1.531-1.877 1.531-1.016 0-1.89-.741-1.89-1.734 0-.933.682-1.686 1.46-2.045"/><path id="J" d="M2.99 2.99v-.443H1.83V-8.527h1.16v-.443H1.387V2.99z"/><path id="M" d="M1.854-8.97H.25v.443h1.16V2.547H.251v.443h1.603z"/><path id="L" d="M3.923-5.06c0-.214 0-.274-.12-.274-.095 0-.323.263-.406.37-.371-.298-.742-.37-1.125-.37-1.447 0-1.877.79-1.877 1.447 0 .132 0 .55.454.969.383.335.79.418 1.34.526.657.132.813.167 1.112.407.215.179.37.442.37.777 0 .514-.298 1.088-1.35 1.088C1.53-.12.956-.574.693-1.77c-.048-.215-.048-.227-.06-.24-.024-.047-.072-.047-.108-.047-.131 0-.131.06-.131.275v1.627c0 .215 0 .275.12.275.06 0 .071-.012.274-.264.06-.083.06-.107.24-.299.454.563 1.1.563 1.303.563C3.588.12 4.21-.574 4.21-1.52c0-.646-.395-1.028-.502-1.136-.431-.37-.754-.443-1.543-.586-.359-.072-1.232-.24-1.232-.957 0-.37.251-.92 1.327-.92 1.304 0 1.376 1.111 1.4 1.482.012.096.095.096.131.096.132 0 .132-.06.132-.275z"/><clipPath id="n"><path d="M45.483 204.825H199.08V51.23H45.483Z"/></clipPath><clipPath id="aj"><path d="M258.084 204.825H411.68V51.228H258.084Z"/></clipPath><use xlink:href="#a" id="p" transform="scale(.9122)"/></defs><g fill="none" stroke-miterlimit="10"><path stroke="gray" stroke-width=".19925" d="M58.272 204.825v-4.252m25.599 4.252v-4.252m25.598 4.252v-4.252m25.6 4.252v-4.252m25.598 4.252v-4.252m25.6 4.252v-4.252M58.271 51.23v4.252M83.87 51.23v4.252m25.598-4.252v4.252m25.6-4.252v4.252m25.598-4.252v4.252m25.6-4.252v4.252M45.483 191.91h4.25m-4.25-30.32h4.25m-4.25-30.318h4.25m-4.25-30.319h4.25m-4.25-30.319h4.25M199.079 191.91h-4.25m4.25-30.318h-4.25m4.25-30.32h-4.25m4.25-30.318h-4.25m4.25-30.319h-4.25"/><path stroke="#000" stroke-width=".3985" d="M45.483 204.825V51.23H199.08v153.596z"/></g><use xlink:href="#b" x="-69.19377" y="83.999712" transform="translate(122.145 134.518)scale(1.0004)"/><use xlink:href="#c" x="-63.312206" y="79.62701" transform="matrix(.99999 0 0 .99999 122.145 134.518)"/><use xlink:href="#b" x="-69.19377" y="83.999712" transform="translate(147.744 134.518)scale(1.0004)"/><use xlink:href="#d" x="-63.312206" y="79.62701" transform="matrix(.99999 0 0 .99999 147.744 134.518)"/><use xlink:href="#b" x="-69.19377" y="83.999712" transform="translate(171.226 134.518)scale(1.0004)"/><g transform="matrix(.99999 0 0 .99999 171.226 134.518)"><use xlink:href="#e" x="-63.312206" y="79.62701"/><use xlink:href="#e" x="-59.080136" y="79.62701"/></g><use xlink:href="#b" x="-69.19377" y="83.999712" transform="translate(196.825 134.518)scale(1.0004)"/><g transform="matrix(.99999 0 0 .99999 196.825 134.518)"><use xlink:href="#e" x="-63.312206" y="79.62701"/><use xlink:href="#f" x="-59.080136" y="79.62701"/></g><use xlink:href="#b" x="-69.19377" y="83.999712" transform="translate(222.423 134.518)scale(1.0004)"/><g transform="matrix(.99999 0 0 .99999 222.423 134.518)"><use xlink:href="#e" x="-63.312206" y="79.62701"/><use xlink:href="#g" x="-59.080136" y="79.62701"/></g><use xlink:href="#b" x="-69.19377" y="83.999712" transform="translate(248.022 134.518)scale(1.0004)"/><g transform="matrix(.99999 0 0 .99999 248.022 134.518)"><use xlink:href="#e" x="-63.312206" y="79.62701"/><use xlink:href="#c" x="-59.080136" y="79.62701"/></g><use xlink:href="#h" x="-69.19377" y="83.999712" transform="translate(104.612 111.796)scale(1.0004)"/><use xlink:href="#b" x="-69.19377" y="83.999712" transform="translate(104.612 81.477)scale(1.0004)"/><use xlink:href="#i" x="-69.19377" y="83.999712" transform="translate(104.612 51.158)scale(1.0004)"/><use xlink:href="#j" x="-69.19377" y="83.999712" transform="translate(104.612 20.839)scale(1.0004)"/><use xlink:href="#k" x="-69.19377" y="83.999712" transform="translate(104.612 -9.48)scale(1.0004)"/><g transform="translate(118.435 -37.544)scale(1.0004)"><use xlink:href="#l" x="-69.19377" y="83.999712"/><use xlink:href="#m" x="-65.871437" y="83.999712"/><use xlink:href="#h" x="-60.022999" y="83.999712"/></g><use xlink:href="#f" x="-54.138321" y="79.62701" transform="matrix(.99999 0 0 .99999 118.435 -37.544)"/><g clip-path="url(#n)"><path fill="none" stroke="#000" stroke-miterlimit="10" stroke-width=".3985" d="M45.483 192.025h6.4l6.4-.001 6.4-.001 6.399-.002 6.4-.002 6.4-.003 6.399-.004 6.4-.006 6.399-.009 6.4-.012 6.4-.017 6.399-.024 6.4-.034 6.4-.049 6.399-.068 6.4-.097 6.399-.137 6.4-.193 6.4-.274 6.399-.387 6.4-.547 6.4-.774 6.399-1.094 6.4-1.548"/><g transform="translate(122.654 99.254)scale(1.00008)"><use xlink:href="#o" x="-69.171706" y="83.972927"/><use xlink:href="#p" x="-62.201131" y="83.972927"/><use xlink:href="#q" x="-50.685181" y="83.972927"/><use xlink:href="#r" x="-45.22973" y="83.972927"/><use xlink:href="#q" x="-42.199481" y="83.972927"/><use xlink:href="#q" x="-36.74448" y="83.972927"/><use xlink:href="#s" x="-31.289479" y="83.972927"/><use xlink:href="#t" x="-25.834479" y="83.972927"/><use xlink:href="#t" x="-20.37948" y="83.972927"/><use xlink:href="#u" x="-14.924229" y="83.972927"/></g></g><path d="M59.405 191.909a1.12 1.12 0 1 0-2.242 0 1.12 1.12 0 0 0 2.242 0"/><path fill="none" stroke="#000" stroke-miterlimit="10" stroke-width=".3985" d="M59.405 191.909a1.12 1.12 0 1 0-2.242 0 1.12 1.12 0 0 0 2.242 0Z"/><path d="M72.204 191.908a1.12 1.12 0 1 0-2.241 0 1.12 1.12 0 0 0 2.241 0"/><path fill="none" stroke="#000" stroke-miterlimit="10" stroke-width=".3985" d="M72.204 191.908a1.12 1.12 0 1 0-2.241 0 1.12 1.12 0 0 0 2.241 0Z"/><path d="M85.004 191.906a1.12 1.12 0 1 0-2.241 0 1.12 1.12 0 0 0 2.241 0"/><path fill="none" stroke="#000" stroke-miterlimit="10" stroke-width=".3985" d="M85.004 191.906a1.12 1.12 0 1 0-2.241 0 1.12 1.12 0 0 0 2.241 0Z"/><path d="M97.804 191.903a1.12 1.12 0 1 0-2.242 0 1.12 1.12 0 0 0 2.242 0"/><path fill="none" stroke="#000" stroke-miterlimit="10" stroke-width=".3985" d="M97.804 191.903a1.12 1.12 0 1 0-2.242 0 1.12 1.12 0 0 0 2.242 0Z"/><path d="M110.603 191.893a1.12 1.12 0 1 0-2.242 0 1.12 1.12 0 0 0 2.242 0"/><path fill="none" stroke="#000" stroke-miterlimit="10" stroke-width=".3985" d="M110.603 191.893a1.12 1.12 0 1 0-2.242 0 1.12 1.12 0 0 0 2.242 0Z"/><path d="M123.402 191.877a1.12 1.12 0 1 0-2.242 0 1.12 1.12 0 0 0 2.242 0"/><path fill="none" stroke="#000" stroke-miterlimit="10" stroke-width=".3985" d="M123.402 191.877a1.12 1.12 0 1 0-2.242 0 1.12 1.12 0 0 0 2.242 0Z"/><path d="M136.201 191.842a1.12 1.12 0 1 0-2.241 0 1.12 1.12 0 0 0 2.241 0"/><path fill="none" stroke="#000" stroke-miterlimit="10" stroke-width=".3985" d="M136.201 191.842a1.12 1.12 0 1 0-2.241 0 1.12 1.12 0 0 0 2.241 0Z"/><path d="M149.002 191.774a1.12 1.12 0 1 0-2.242 0 1.12 1.12 0 0 0 2.242 0"/><path fill="none" stroke="#000" stroke-miterlimit="10" stroke-width=".3985" d="M149.002 191.774a1.12 1.12 0 1 0-2.242 0 1.12 1.12 0 0 0 2.242 0Z"/><path d="M161.8 191.652a1.12 1.12 0 1 0-2.24 0 1.12 1.12 0 0 0 2.24 0"/><path fill="none" stroke="#000" stroke-miterlimit="10" stroke-width=".3985" d="M161.8 191.652a1.12 1.12 0 1 0-2.24 0 1.12 1.12 0 0 0 2.24 0Z"/><path d="M174.6 191.374a1.12 1.12 0 1 0-2.241 0 1.12 1.12 0 0 0 2.241 0"/><path fill="none" stroke="#000" stroke-miterlimit="10" stroke-width=".3985" d="M174.6 191.374a1.12 1.12 0 1 0-2.241 0 1.12 1.12 0 0 0 2.241 0Z"/><path d="M187.4 188.983a1.12 1.12 0 1 0-2.242 0 1.12 1.12 0 0 0 2.242 0"/><g fill="none" stroke="#000" stroke-miterlimit="10" stroke-width=".3985"><path d="M187.4 188.983a1.12 1.12 0 1 0-2.242 0 1.12 1.12 0 0 0 2.242 0ZM59.53 191.855a1.245 1.245 0 1 0-2.491 0 1.245 1.245 0 0 0 2.49 0ZM72.329 191.791a1.245 1.245 0 1 0-2.49 0 1.245 1.245 0 0 0 2.49 0ZM85.129 191.656a1.245 1.245 0 1 0-2.491 0 1.245 1.245 0 0 0 2.49 0ZM97.928 191.35a1.245 1.245 0 1 0-2.49 0 1.245 1.245 0 0 0 2.49 0ZM110.728 190.689a1.245 1.245 0 1 0-2.491 0 1.245 1.245 0 0 0 2.49 0ZM123.527 189.33a1.245 1.245 0 1 0-2.491 0 1.245 1.245 0 0 0 2.49 0ZM136.326 186.3a1.245 1.245 0 1 0-2.49 0 1.245 1.245 0 0 0 2.49 0ZM149.126 180.062a1.245 1.245 0 1 0-2.49 0 1.245 1.245 0 0 0 2.49 0ZM161.925 166.56a1.245 1.245 0 1 0-2.49 0 1.245 1.245 0 0 0 2.49 0ZM174.725 138.534a1.245 1.245 0 1 0-2.49 0 1.245 1.245 0 0 0 2.49 0ZM187.525 64.03a1.245 1.245 0 1 0-2.491 0 1.245 1.245 0 0 0 2.49 0Z"/></g><g transform="translate(161.58 150.494)scale(1.0004)"><use xlink:href="#v" x="-69.19377" y="83.999712"/><use xlink:href="#w" x="-63.333372" y="83.999712"/><use xlink:href="#w" x="-58.776609" y="83.999712"/><use xlink:href="#v" x="-54.21985" y="83.999712"/><use xlink:href="#x" x="-48.670413" y="83.999712"/><use xlink:href="#y" x="-38.600092" y="83.999712"/><use xlink:href="#z" x="-33.983529" y="83.999712"/><use xlink:href="#A" x="-30.73041" y="83.999712"/><use xlink:href="#B" x="-25.52781" y="83.999712"/><use xlink:href="#C" x="-16.425591" y="83.999712"/></g><g transform="rotate(-90 23.088 82.764)scale(1.0004)"><use xlink:href="#B" x="-69.19377" y="83.999712"/><use xlink:href="#D" x="-63.991172" y="83.999712"/><use xlink:href="#v" x="-60.73805" y="83.999712"/><use xlink:href="#E" x="-54.877651" y="83.999712"/><use xlink:href="#y" x="-48.371412" y="83.999712"/><use xlink:href="#B" x="-43.75485" y="83.999712"/><use xlink:href="#F" x="-38.552251" y="83.999712"/><use xlink:href="#G" x="-28.14705" y="83.999712"/><use xlink:href="#z" x="-23.59029" y="83.999712"/><use xlink:href="#H" x="-20.337171" y="83.999712"/><use xlink:href="#B" x="-10.57781" y="83.999712"/><use xlink:href="#I" x="-1.475591" y="83.999712"/><use xlink:href="#J" x="6.651671" y="83.999712"/><use xlink:href="#K" x="9.904976" y="83.999712"/><use xlink:href="#L" x="16.950803" y="83.999712"/><use xlink:href="#M" x="21.567365" y="83.999712"/></g><g transform="translate(132.312 -45.899)scale(1.0004)"><use xlink:href="#N" x="-69.19377" y="69.547912"/><use xlink:href="#v" x="-60.415133" y="69.547912"/><use xlink:href="#G" x="-54.554733" y="69.547912"/><use xlink:href="#O" x="-49.997973" y="69.547912"/><use xlink:href="#w" x="-43.491734" y="69.547912"/><use xlink:href="#v" x="-38.934973" y="69.547912"/><use xlink:href="#D" x="-33.074574" y="69.547912"/><use xlink:href="#P" x="-25.922493" y="69.547912"/><use xlink:href="#y" x="-19.739172" y="69.547912"/><use xlink:href="#Q" x="-15.122612" y="69.547912"/><use xlink:href="#R" x="-6.678852" y="69.547912"/><use xlink:href="#S" x="1.609429" y="69.547912"/><use xlink:href="#G" x="7.469829" y="69.547912"/><use xlink:href="#G" x="12.02659" y="69.547912"/><use xlink:href="#S" x="16.583351" y="69.547912"/><use xlink:href="#H" x="22.44375" y="69.547912"/><use xlink:href="#T" x="32.203111" y="69.547912"/><use xlink:href="#O" x="36.102069" y="69.547912"/><use xlink:href="#E" x="42.60831" y="69.547912"/><use xlink:href="#U" x="-31.186516" y="83.999711"/><use xlink:href="#V" x="-26.629757" y="83.999711"/><use xlink:href="#S" x="-20.123515" y="83.999711"/><use xlink:href="#w" x="-14.263114" y="83.999711"/><use xlink:href="#G" x="-9.706354" y="83.999711"/><use xlink:href="#B" x="-5.149594" y="83.999711"/><use xlink:href="#F" x=".053007" y="83.999711"/><use xlink:href="#W" x="6.559247" y="83.999711"/></g><path fill="#fff" d="M50.29 86.6h64.425V56.036H50.29Z"/><path fill="none" stroke="#000" stroke-miterlimit="10" stroke-width=".3985" d="M50.29 86.6h64.425V56.036H50.29Z"/><path d="M55.646 64.704a1.12 1.12 0 1 0-2.242 0 1.12 1.12 0 0 0 2.242 0"/><path fill="none" stroke="#000" stroke-miterlimit="10" stroke-width=".3985" d="M55.646 64.704a1.12 1.12 0 1 0-2.242 0 1.12 1.12 0 0 0 2.242 0Z"/><g transform="translate(124.637 -3.084)scale(1.00008)"><use xlink:href="#X" x="-66.879517" y="70.682831"/><use xlink:href="#Y" x="-58.69702" y="70.682831"/><use xlink:href="#Z" x="-53.242019" y="70.682831"/><use xlink:href="#aa" x="-48.998028" y="70.682831"/><use xlink:href="#ab" x="-42.932067" y="70.682831"/><use xlink:href="#Y" x="-38.655347" y="70.682831"/><use xlink:href="#ac" x="-33.200349" y="70.682831"/></g><path fill="none" stroke="#000" stroke-miterlimit="10" stroke-width=".3985" d="M55.77 77.993a1.245 1.245 0 1 0-2.49 0 1.245 1.245 0 0 0 2.49 0Z"/><g transform="translate(124.637 -3.144)scale(1.00008)"><use xlink:href="#ad" x="-66.879517" y="83.972927"/><use xlink:href="#ae" x="-59.15524" y="83.972927"/><use xlink:href="#Z" x="-53.70024" y="83.972927"/><use xlink:href="#Z" x="-49.456249" y="83.972927"/><use xlink:href="#ae" x="-45.212258" y="83.972927"/><use xlink:href="#af" x="-39.757256" y="83.972927"/><use xlink:href="#ag" x="-30.669225" y="83.972927"/><use xlink:href="#aa" x="-27.036195" y="83.972927"/><use xlink:href="#ah" x="-20.970234" y="83.972927"/></g><g fill="none" stroke-miterlimit="10"><path stroke="gray" stroke-width=".19925" d="M270.873 204.825v-4.252m25.599 4.252v-4.252m25.598 4.252v-4.252m25.6 4.252v-4.252m25.598 4.252v-4.252m25.6 4.252v-4.252M270.872 51.228v4.252m25.599-4.252v4.252m25.598-4.252v4.252m25.6-4.252v4.252m25.598-4.252v4.252m25.6-4.252v4.252M258.084 191.6h4.25m-4.25-29.177h4.25m-4.25-29.176h4.25m-4.25-29.177h4.25m-4.25-29.176h4.25M411.68 191.6h-4.25m4.25-29.177h-4.25m4.25-29.176h-4.25m4.25-29.177h-4.25m4.25-29.176h-4.25"/><path stroke="#000" stroke-width=".3985" d="M258.084 204.825V51.228H411.68v153.597z"/></g><use xlink:href="#b" x="-63.33842" y="83.999712" transform="translate(328.893 134.518)scale(1.0004)"/><use xlink:href="#c" x="-57.459279" y="79.62701" transform="matrix(.99999 0 0 .99999 328.893 134.518)"/><use xlink:href="#b" x="-63.33842" y="83.999712" transform="translate(354.492 134.518)scale(1.0004)"/><use xlink:href="#d" x="-57.459279" y="79.62701" transform="matrix(.99999 0 0 .99999 354.492 134.518)"/><use xlink:href="#b" x="-63.33842" y="83.999712" transform="translate(377.974 134.518)scale(1.0004)"/><g transform="matrix(.99999 0 0 .99999 377.974 134.518)"><use xlink:href="#e" x="-57.459279" y="79.62701"/><use xlink:href="#e" x="-53.227208" y="79.62701"/></g><use xlink:href="#b" x="-63.33842" y="83.999712" transform="translate(403.573 134.518)scale(1.0004)"/><g transform="matrix(.99999 0 0 .99999 403.573 134.518)"><use xlink:href="#e" x="-57.459279" y="79.62701"/><use xlink:href="#f" x="-53.227208" y="79.62701"/></g><use xlink:href="#b" x="-63.33842" y="83.999712" transform="translate(429.171 134.518)scale(1.0004)"/><g transform="matrix(.99999 0 0 .99999 429.171 134.518)"><use xlink:href="#e" x="-57.459279" y="79.62701"/><use xlink:href="#g" x="-53.227208" y="79.62701"/></g><use xlink:href="#b" x="-63.33842" y="83.999712" transform="translate(454.77 134.518)scale(1.0004)"/><g transform="matrix(.99999 0 0 .99999 454.77 134.518)"><use xlink:href="#e" x="-57.459279" y="79.62701"/><use xlink:href="#c" x="-53.227208" y="79.62701"/></g><use xlink:href="#h" x="-63.33842" y="83.999712" transform="translate(311.36 111.486)scale(1.0004)"/><use xlink:href="#ai" x="-63.33842" y="83.999712" transform="translate(311.36 82.309)scale(1.0004)"/><g transform="translate(305.507 53.133)scale(1.0004)"><use xlink:href="#m" x="-63.33842" y="83.999712"/><use xlink:href="#h" x="-57.489982" y="83.999712"/></g><g transform="translate(305.507 23.957)scale(1.0004)"><use xlink:href="#m" x="-63.33842" y="83.999712"/><use xlink:href="#ai" x="-57.489982" y="83.999712"/></g><g transform="translate(305.507 -5.22)scale(1.0004)"><use xlink:href="#b" x="-63.33842" y="83.999712"/><use xlink:href="#h" x="-57.489982" y="83.999712"/></g><g transform="translate(325.183 -37.545)scale(1.0004)"><use xlink:href="#l" x="-63.33842" y="83.999712"/><use xlink:href="#m" x="-60.016087" y="83.999712"/><use xlink:href="#h" x="-54.16765" y="83.999712"/></g><use xlink:href="#f" x="-48.285394" y="79.62701" transform="matrix(.99999 0 0 .99999 325.183 -37.545)"/><g clip-path="url(#aj)"><path fill="none" stroke="#000" stroke-miterlimit="10" stroke-width=".3985" d="m258.084 192.025 6.4-.006 6.4-.008 6.4-.012 6.399-.02 6.4-.027 6.4-.042 6.399-.061 6.4-.091 6.399-.135 6.4-.199 6.4-.292 6.399-.43 6.4-.63 6.4-.926 6.399-1.354 6.4-1.98 6.399-2.891 6.4-4.22 6.4-6.152 6.399-8.96 6.4-13.04 6.4-18.963 6.399-27.552 6.4-40.006"/><g transform="translate(328.495 98.392)scale(1.00008)"><use xlink:href="#o" x="-63.318223" y="83.972927"/><use xlink:href="#p" x="-56.347648" y="83.972927"/><use xlink:href="#q" x="-44.831698" y="83.972927"/><use xlink:href="#r" x="-39.376248" y="83.972927"/><use xlink:href="#q" x="-36.346002" y="83.972927"/><use xlink:href="#q" x="-30.891001" y="83.972927"/><use xlink:href="#ak" x="-25.436001" y="83.972927"/><use xlink:href="#al" x="-19.981001" y="83.972927"/><use xlink:href="#am" x="-14.526001" y="83.972927"/><use xlink:href="#u" x="-9.07075" y="83.972927"/><use xlink:href="#an" x="-.704059" y="83.972927"/><use xlink:href="#ao" x="2.318011" y="83.972927"/><use xlink:href="#u" x="9.751803" y="83.972927"/></g></g><path d="M272.006 191.575a1.12 1.12 0 1 0-2.242 0 1.12 1.12 0 0 0 2.242 0"/><path fill="none" stroke="#000" stroke-miterlimit="10" stroke-width=".3985" d="M272.006 191.575a1.12 1.12 0 1 0-2.242 0 1.12 1.12 0 0 0 2.242 0Z"/><path d="M284.805 191.546a1.12 1.12 0 1 0-2.241 0 1.12 1.12 0 0 0 2.241 0"/><path fill="none" stroke="#000" stroke-miterlimit="10" stroke-width=".3985" d="M284.805 191.546a1.12 1.12 0 1 0-2.241 0 1.12 1.12 0 0 0 2.241 0Z"/><path d="M297.605 191.482a1.12 1.12 0 1 0-2.241 0 1.12 1.12 0 0 0 2.241 0"/><path fill="none" stroke="#000" stroke-miterlimit="10" stroke-width=".3985" d="M297.605 191.482a1.12 1.12 0 1 0-2.241 0 1.12 1.12 0 0 0 2.241 0Z"/><path d="M310.405 191.34a1.12 1.12 0 1 0-2.242 0 1.12 1.12 0 0 0 2.242 0"/><path fill="none" stroke="#000" stroke-miterlimit="10" stroke-width=".3985" d="M310.405 191.34a1.12 1.12 0 1 0-2.242 0 1.12 1.12 0 0 0 2.242 0Z"/><path d="M323.204 191.026a1.12 1.12 0 1 0-2.242 0 1.12 1.12 0 0 0 2.242 0"/><path fill="none" stroke="#000" stroke-miterlimit="10" stroke-width=".3985" d="M323.204 191.026a1.12 1.12 0 1 0-2.242 0 1.12 1.12 0 0 0 2.242 0Z"/><path d="M336.003 190.4a1.12 1.12 0 1 0-2.242 0 1.12 1.12 0 0 0 2.242 0"/><path fill="none" stroke="#000" stroke-miterlimit="10" stroke-width=".3985" d="M336.003 190.4a1.12 1.12 0 1 0-2.242 0 1.12 1.12 0 0 0 2.242 0Z"/><path d="M348.802 189.047a1.12 1.12 0 1 0-2.241 0 1.12 1.12 0 0 0 2.241 0"/><path fill="none" stroke="#000" stroke-miterlimit="10" stroke-width=".3985" d="M348.802 189.047a1.12 1.12 0 1 0-2.241 0 1.12 1.12 0 0 0 2.241 0Z"/><path d="M361.603 186.257a1.12 1.12 0 1 0-2.242 0 1.12 1.12 0 0 0 2.242 0"/><path fill="none" stroke="#000" stroke-miterlimit="10" stroke-width=".3985" d="M361.603 186.257a1.12 1.12 0 1 0-2.242 0 1.12 1.12 0 0 0 2.242 0Z"/><path d="M374.402 180.177a1.12 1.12 0 1 0-2.242 0 1.12 1.12 0 0 0 2.242 0"/><path fill="none" stroke="#000" stroke-miterlimit="10" stroke-width=".3985" d="M374.402 180.177a1.12 1.12 0 1 0-2.242 0 1.12 1.12 0 0 0 2.242 0Z"/><path d="M387.201 165.268a1.12 1.12 0 1 0-2.241 0 1.12 1.12 0 0 0 2.241 0"/><path fill="none" stroke="#000" stroke-miterlimit="10" stroke-width=".3985" d="M387.201 165.268a1.12 1.12 0 1 0-2.241 0 1.12 1.12 0 0 0 2.241 0Z"/><path d="M400.001 130.323a1.12 1.12 0 1 0-2.242 0 1.12 1.12 0 0 0 2.242 0"/><g fill="none" stroke="#000" stroke-miterlimit="10" stroke-width=".3985"><path d="M400.001 130.323a1.12 1.12 0 1 0-2.242 0 1.12 1.12 0 0 0 2.242 0ZM272.13 191.578a1.245 1.245 0 1 0-2.49 0 1.245 1.245 0 0 0 2.49 0ZM284.93 191.554a1.245 1.245 0 1 0-2.49 0 1.245 1.245 0 0 0 2.49 0ZM297.73 191.498a1.245 1.245 0 1 0-2.491 0 1.245 1.245 0 0 0 2.49 0ZM310.53 191.377a1.245 1.245 0 1 0-2.492 0 1.245 1.245 0 0 0 2.491 0ZM323.329 191.113a1.245 1.245 0 1 0-2.491 0 1.245 1.245 0 0 0 2.49 0ZM336.128 190.588a1.245 1.245 0 1 0-2.491 0 1.245 1.245 0 0 0 2.49 0ZM348.927 189.454a1.245 1.245 0 1 0-2.49 0 1.245 1.245 0 0 0 2.49 0ZM361.727 187.059a1.245 1.245 0 1 0-2.49 0 1.245 1.245 0 0 0 2.49 0ZM374.526 182a1.245 1.245 0 1 0-2.49-.001 1.245 1.245 0 0 0 2.49 0ZM387.326 170.583a1.245 1.245 0 1 0-2.49 0 1.245 1.245 0 0 0 2.49 0ZM400.126 140.853a1.245 1.245 0 1 0-2.491 0 1.245 1.245 0 0 0 2.49 0Z"/></g><g transform="translate(368.328 150.494)scale(1.0004)"><use xlink:href="#v" x="-63.33842" y="83.999712"/><use xlink:href="#w" x="-57.478022" y="83.999712"/><use xlink:href="#w" x="-52.921259" y="83.999712"/><use xlink:href="#v" x="-48.364501" y="83.999712"/><use xlink:href="#x" x="-42.815063" y="83.999712"/><use xlink:href="#y" x="-32.744741" y="83.999712"/><use xlink:href="#z" x="-28.128179" y="83.999712"/><use xlink:href="#A" x="-24.87506" y="83.999712"/><use xlink:href="#B" x="-19.67246" y="83.999712"/><use xlink:href="#C" x="-10.57024" y="83.999712"/></g><g transform="rotate(-90 129.387 -17.684)scale(1.0004)"><use xlink:href="#B" x="-63.33842" y="83.999712"/><use xlink:href="#D" x="-58.135821" y="83.999712"/><use xlink:href="#v" x="-54.8827" y="83.999712"/><use xlink:href="#E" x="-49.022301" y="83.999712"/><use xlink:href="#y" x="-42.516061" y="83.999712"/><use xlink:href="#B" x="-37.899501" y="83.999712"/><use xlink:href="#F" x="-32.696901" y="83.999712"/><use xlink:href="#G" x="-22.291699" y="83.999712"/><use xlink:href="#z" x="-17.734938" y="83.999712"/><use xlink:href="#H" x="-14.481817" y="83.999712"/><use xlink:href="#B" x="-4.722456" y="83.999712"/><use xlink:href="#I" x="4.37976" y="83.999712"/><use xlink:href="#J" x="12.507022" y="83.999712"/><use xlink:href="#K" x="15.760327" y="83.999712"/><use xlink:href="#L" x="22.806153" y="83.999712"/><use xlink:href="#M" x="27.422715" y="83.999712"/></g><g transform="translate(339.06 -45.9)scale(1.0004)"><use xlink:href="#N" x="-63.33842" y="69.547912"/><use xlink:href="#v" x="-54.559782" y="69.547912"/><use xlink:href="#G" x="-48.699383" y="69.547912"/><use xlink:href="#O" x="-44.142622" y="69.547912"/><use xlink:href="#w" x="-37.636383" y="69.547912"/><use xlink:href="#v" x="-33.079623" y="69.547912"/><use xlink:href="#D" x="-27.219222" y="69.547912"/><use xlink:href="#P" x="-20.067142" y="69.547912"/><use xlink:href="#y" x="-13.883821" y="69.547912"/><use xlink:href="#Q" x="-9.267261" y="69.547912"/><use xlink:href="#R" x="-.823501" y="69.547912"/><use xlink:href="#S" x="7.464779" y="69.547912"/><use xlink:href="#G" x="13.32518" y="69.547912"/><use xlink:href="#G" x="17.881941" y="69.547912"/><use xlink:href="#S" x="22.438701" y="69.547912"/><use xlink:href="#H" x="28.2991" y="69.547912"/><use xlink:href="#T" x="38.058462" y="69.547912"/><use xlink:href="#O" x="41.957423" y="69.547912"/><use xlink:href="#E" x="48.46366" y="69.547912"/><use xlink:href="#U" x="-31.621691" y="83.999711"/><use xlink:href="#ap" x="-27.06493" y="83.999711"/><use xlink:href="#B" x="-18.44177" y="83.999711"/><use xlink:href="#P" x="-13.239169" y="83.999711"/><use xlink:href="#B" x="-7.37877" y="83.999711"/><use xlink:href="#w" x="-2.176169" y="83.999711"/><use xlink:href="#y" x="2.380591" y="83.999711"/><use xlink:href="#B" x="6.997152" y="83.999711"/><use xlink:href="#F" x="12.199752" y="83.999711"/><use xlink:href="#W" x="18.705992" y="83.999711"/></g><path fill="#fff" d="M262.891 86.599h64.425V56.035h-64.425Z"/><path fill="none" stroke="#000" stroke-miterlimit="10" stroke-width=".3985" d="M262.891 86.599h64.425V56.035h-64.425Z"/><path d="M268.247 64.703a1.12 1.12 0 1 0-2.242 0 1.12 1.12 0 0 0 2.242 0"/><path fill="none" stroke="#000" stroke-miterlimit="10" stroke-width=".3985" d="M268.247 64.703a1.12 1.12 0 1 0-2.242 0 1.12 1.12 0 0 0 2.242 0Z"/><g transform="translate(331.385 -3.085)scale(1.00008)"><use xlink:href="#X" x="-61.026034" y="70.682831"/><use xlink:href="#Y" x="-52.843533" y="70.682831"/><use xlink:href="#Z" x="-47.388529" y="70.682831"/><use xlink:href="#aa" x="-43.144539" y="70.682831"/><use xlink:href="#ab" x="-37.078579" y="70.682831"/><use xlink:href="#Y" x="-32.80186" y="70.682831"/><use xlink:href="#ac" x="-27.346859" y="70.682831"/></g><path fill="none" stroke="#000" stroke-miterlimit="10" stroke-width=".3985" d="M268.371 77.992a1.245 1.245 0 1 0-2.49 0 1.245 1.245 0 0 0 2.49 0Z"/><g transform="translate(331.385 -3.145)scale(1.00008)"><use xlink:href="#ad" x="-61.026034" y="83.972927"/><use xlink:href="#ae" x="-53.301754" y="83.972927"/><use xlink:href="#Z" x="-47.846752" y="83.972927"/><use xlink:href="#Z" x="-43.602761" y="83.972927"/><use xlink:href="#ae" x="-39.358771" y="83.972927"/><use xlink:href="#af" x="-33.903767" y="83.972927"/><use xlink:href="#ag" x="-24.815737" y="83.972927"/><use xlink:href="#aa" x="-21.182707" y="83.972927"/><use xlink:href="#ah" x="-15.116747" y="83.972927"/></g></svg>