<svg xmlns="http://www.w3.org/2000/svg" xmlns:xlink="http://www.w3.org/1999/xlink" width="339.72pt" height="272.49pt" viewBox="0 0 339.72 272.49"><defs><path id="r" d="M6.423-3.492c0-1.424-1.005-1.914-1.914-1.914-.538 0-.98.215-1.172.335l.705-2.823c.012-.06.036-.131.036-.191 0-.227-.215-.215-.382-.203l-1.471.071c-.132.012-.371.012-.371.36 0 .215.215.215.323.215.143 0 .359.012.502.023L1.447-2.655c-.107.43-.107.741-.107.861 0 1.447 1.004 1.89 1.865 1.89 2.045 0 3.218-2.01 3.218-3.588m-1.83 1.818c-.43 1.231-1.137 1.34-1.364 1.34-.741 0-.741-.778-.741-.946 0-.406.071-.717.263-1.447.095-.43.18-.73.263-1.1.084-.311.084-.335.203-.467.311-.382.79-.681 1.244-.681.275 0 .682.167.682.849 0 .646-.419 2.117-.55 2.452"/><path id="u" d="M7.475-1.77c0-.168-.155-.168-.335-.168-.287 0-.299.012-.383.311-.095.395-.31 1.292-.717 1.292-.144 0-.227-.096-.227-.37 0-.228.023-.324.071-.515L7.56-7.894c.012-.06.036-.131.036-.191 0-.227-.216-.215-.383-.203l-1.471.071c-.132.012-.371.012-.371.36 0 .215.215.215.323.215.143 0 .359.012.502.023l-.634 2.596c-.382-.335-.813-.383-1.088-.383-2.01 0-3.205 1.985-3.205 3.588C1.268-.395 2.272.096 3.18.096c.73 0 1.292-.383 1.58-.61.226.418.765.61 1.231.61.562 0 .861-.407 1.017-.646a4 4 0 0 0 .466-1.22m-2.858.574c-.515.682-1.017.861-1.388.861-.275 0-.682-.167-.682-.849 0-.646.42-2.117.55-2.452.407-1.16 1.065-1.34 1.376-1.34.419 0 .754.264.885.742L4.652-1.41c-.023.083-.023.12-.035.215"/><path id="o" d="M6.41-1.029c0-.095-.239-.382-.358-.382-.036 0-.084 0-.168.083-.885.993-2.093.993-2.26.993-.67 0-1.017-.395-1.017-1.1 0-.3.084-.766.192-1.172h.478c.718 0 3.086 0 3.086-1.65 0-.718-.67-1.149-1.555-1.149-2.07 0-3.492 1.567-3.492 3.409 0 1.291.8 2.093 2.296 2.093.37 0 1.076-.036 1.686-.263.646-.252 1.113-.718 1.113-.862m-.825-3.24c0 1.231-1.95 1.231-2.679 1.231.168-.598.287-.957.634-1.34a1.71 1.71 0 0 1 1.268-.597c.502 0 .777.323.777.705"/><path id="s" d="m5.394.765 1.292-5.178c.047-.192.047-.287.047-.287 0-.275-.203-.503-.538-.503-.323 0-.454.132-.562.24-.347-.323-.73-.443-1.16-.443-2.033 0-3.193 1.973-3.193 3.516C1.28-.622 2.14 0 3.217 0c.383 0 .754-.096 1.16-.323l-.203.85c-.287 1.112-.969 1.458-1.615 1.458-.322 0-.598-.036-.741-.071a.94.94 0 0 0 .335-.67c0-.3-.227-.55-.598-.55a.87.87 0 0 0-.85.885c0 .741.945.837 1.83.837 1.448 0 2.596-.61 2.859-1.65m-.742-2.164c-.107.418-.813.968-1.387.968-.634 0-.694-.586-.694-.849 0-.658.419-2.105.586-2.523.395-.993 1.005-1.172 1.316-1.172.359 0 .742.191.885.717z"/><path id="m" d="M4.664-1.77c0-.168-.155-.168-.334-.168-.228 0-.288 0-.335.156-.096.31-.419 1.447-1.1 1.447-.06 0-.168 0-.168-.215 0-.156.084-.455.096-.479l1.076-2.846c.072-.191.108-.287.108-.466 0-.67-.61-1.065-1.256-1.065C1.507-5.406.92-3.79.92-3.54c0 .167.155.167.335.167.227 0 .287 0 .335-.155.095-.311.418-1.447 1.1-1.447.06 0 .167 0 .167.215 0 .155-.083.454-.095.478L1.686-1.435c-.071.191-.107.287-.107.466 0 .67.61 1.065 1.256 1.065 1.243 0 1.83-1.615 1.83-1.866m.168-5.573a.716.716 0 0 0-.742-.718c-.55 0-1.064.514-1.064 1.04 0 .383.287.718.741.718.563 0 1.065-.526 1.065-1.04"/><path id="a" d="M11.697-1.77c0-.168-.156-.168-.335-.168-.227 0-.287 0-.335.156-.096.31-.418 1.447-1.1 1.447-.06 0-.168 0-.168-.215 0-.251.12-.562.275-.969.168-.442.706-1.854.706-2.535 0-.993-.706-1.352-1.65-1.352-.957 0-1.507.502-1.914.909-.263-.909-1.351-.909-1.603-.909s-1.04 0-1.83.825c-.239-.681-.956-.825-1.339-.825-.562 0-.861.407-1.017.646a4 4 0 0 0-.466 1.22c0 .167.155.167.335.167.287 0 .299-.012.383-.31.095-.395.31-1.292.717-1.292.144 0 .227.095.227.37 0 .228-.024.323-.071.515l-.85 3.408c-.047.18-.047.204-.047.263 0 .371.287.515.538.515.084 0 .598-.024.753-.646l.742-2.966c.084-.347.753-1.46 1.842-1.46.514 0 .514.455.514.682 0 .3-.048.503-.18 1.017l-.502 2.01c-.072.286-.191.765-.191.848 0 .371.287.515.538.515.144 0 .61-.06.765-.67l.73-2.942c.084-.347.765-1.46 1.842-1.46.514 0 .514.455.514.682 0 .718-.55 2.189-.765 2.727-.108.3-.144.419-.144.598 0 .67.61 1.065 1.256 1.065 1.244 0 1.83-1.615 1.83-1.866"/><path id="t" d="M8.18-1.77c0-.168-.155-.168-.334-.168-.227 0-.287 0-.335.156-.096.31-.419 1.447-1.1 1.447-.06 0-.168 0-.168-.215 0-.251.12-.562.275-.969.168-.442.706-1.854.706-2.535 0-.993-.706-1.352-1.65-1.352-.252 0-1.041 0-1.83.825-.24-.681-.957-.825-1.34-.825-.562 0-.861.407-1.017.646a4 4 0 0 0-.466 1.22c0 .167.155.167.335.167.287 0 .299-.012.383-.31.095-.395.31-1.292.717-1.292.144 0 .227.095.227.37 0 .228-.024.323-.071.515l-.85 3.408c-.047.18-.047.204-.047.263 0 .371.287.515.538.515.084 0 .598-.024.753-.646l.742-2.966c.084-.347.753-1.46 1.842-1.46.514 0 .514.455.514.682 0 .718-.55 2.189-.766 2.727-.107.3-.143.419-.143.598 0 .67.61 1.065 1.256 1.065 1.244 0 1.83-1.615 1.83-1.866"/><path id="l" d="M5.561-1.961c0-.264-.083-.67-.526-1.017-.347-.275-.646-.335-1.28-.455-.358-.071-.849-.167-.849-.61 0 0 0-.932 1.268-.932.12 0 .55 0 .825.287-.454.203-.454.634-.454.67 0 .298.227.49.526.49s.742-.24.742-.825c0-.658-.67-1.053-1.615-1.053-.933 0-1.352.323-1.567.502-.394.335-.634.97-.634 1.34 0 1.017 1.029 1.22 1.4 1.292.622.12 1.255.239 1.255.789 0 0 0 1.148-1.662 1.148-.155 0-.718 0-1.112-.323.083-.036.586-.263.586-.813 0-.455-.383-.55-.586-.55-.443 0-.861.347-.861.933 0 .753.777 1.184 1.937 1.184.335 0 1.1-.012 1.746-.467.622-.442.861-1.196.861-1.59"/><path id="n" d="M6.291-1.806c0-.18-.167-.18-.335-.18-.203 0-.275 0-.335.132-.263.658-.873.67-1.89.682l-.813.024h-.574c.263-.275.562-.574 1.4-1.268.478-.383 1.076-.873 1.399-1.184.682-.67 1.315-1.447 1.315-1.638 0-.168-.143-.168-.334-.168-.24 0-.252.012-.335.132-.144.215-.43.681-.61.681-.3 0-.55-.215-.802-.418-.358-.275-.622-.395-.944-.395-1.041 0-1.699 1.076-1.699 1.435 0 .168.18.168.335.168.24 0 .263 0 .335-.144.06-.107.155-.167.55-.191h.85c.179 0 .645-.024.825-.024h.25c-.262.275-.561.574-1.399 1.268-.478.382-1.076.873-1.399 1.184C1.519-1.148.765-.3.765-.072c0 .168.144.168.335.168.24 0 .251-.012.323-.12.227-.335.562-.694.933-.694.3 0 .514.18.754.36.334.262.586.454 1.016.454 1.34 0 2.165-1.495 2.165-1.902"/><path id="i" d="M5.358-3.827c0-.993-.06-1.962-.49-2.87-.49-.993-1.352-1.256-1.938-1.256-.693 0-1.543.346-1.985 1.34C.61-5.86.49-5.12.49-3.828c0 1.16.084 2.033.515 2.882A2.13 2.13 0 0 0 2.918.251c1.04 0 1.639-.622 1.986-1.315.43-.897.454-2.07.454-2.763M2.918.012c-.382 0-1.16-.215-1.387-1.519-.132-.718-.132-1.627-.132-2.464 0-.98 0-1.865.192-2.571.203-.801.813-1.172 1.327-1.172.455 0 1.148.275 1.376 1.303.155.682.155 1.627.155 2.44 0 .802 0 1.71-.131 2.44C4.09-.215 3.337.012 2.918.012"/><path id="b" d="M3.444-7.666c0-.275 0-.287-.239-.287-.287.323-.885.765-2.117.765v.347c.275 0 .873 0 1.531-.311v6.231c0 .43-.036.574-1.088.574h-.37V0c.322-.024 1.482-.024 1.877-.024s1.543 0 1.866.024v-.347h-.371C3.48-.347 3.444-.49 3.444-.92z"/><path id="j" d="M5.262-2.01H5c-.036.204-.131.862-.25 1.053-.085.108-.766.108-1.125.108H1.41c.323-.275 1.053-1.04 1.364-1.328 1.818-1.674 2.487-2.296 2.487-3.48 0-1.375-1.088-2.296-2.475-2.296S.586-6.77.586-5.741c0 .61.526.61.562.61.251 0 .562-.18.562-.562 0-.335-.227-.562-.562-.562-.107 0-.131 0-.167.012.227-.813.873-1.364 1.65-1.364 1.017 0 1.639.85 1.639 1.95 0 1.017-.586 1.902-1.268 2.667L.586-.287V0h4.365z"/><path id="f" d="M2.2-4.294c-.203.012-.25.024-.25.132 0 .12.06.12.275.12h.55c1.016 0 1.47.837 1.47 1.985 0 1.567-.812 1.985-1.399 1.985-.574 0-1.554-.275-1.901-1.064.383.06.73-.156.73-.586a.565.565 0 0 0-.587-.586c-.287 0-.598.167-.598.622C.49-.622 1.555.25 2.882.25c1.424 0 2.476-1.088 2.476-2.296 0-1.1-.885-1.962-2.033-2.165 1.04-.299 1.71-1.172 1.71-2.105 0-.945-.98-1.638-2.14-1.638-1.197 0-2.082.73-2.082 1.602 0 .479.371.574.55.574.252 0 .539-.18.539-.538 0-.383-.287-.55-.55-.55-.072 0-.096 0-.132.012.454-.813 1.579-.813 1.638-.813.395 0 1.173.179 1.173 1.351 0 .227-.036.897-.383 1.411-.359.527-.766.563-1.089.574z"/><path id="g" d="M4.318-7.786c0-.227 0-.287-.168-.287-.096 0-.131 0-.227.144l-3.6 5.585v.347h3.145V-.91c0 .443-.024.562-.897.562h-.239V0c.275-.024 1.22-.024 1.555-.024s1.292 0 1.567.024v-.347h-.24c-.86 0-.896-.12-.896-.562v-1.088h1.208v-.347H4.318zm-.79.933v4.509H.622z"/><path id="h" d="M1.53-6.853c.515.167.934.18 1.065.18 1.352 0 2.213-.993 2.213-1.16 0-.049-.024-.108-.096-.108-.024 0-.048 0-.155.047a3.9 3.9 0 0 1-1.555.323c-.79 0-1.352-.239-1.579-.335-.083-.035-.107-.035-.12-.035-.095 0-.095.071-.095.263v3.552c0 .215 0 .287.143.287.06 0 .072-.012.192-.156.335-.49.897-.777 1.495-.777.634 0 .945.586 1.04.79.204.466.216 1.052.216 1.506s0 1.136-.335 1.675c-.263.43-.73.73-1.256.73-.79 0-1.567-.539-1.782-1.412.06.024.131.036.191.036.204 0 .527-.12.527-.526 0-.335-.228-.527-.527-.527-.215 0-.526.108-.526.574 0 1.017.813 2.177 2.14 2.177 1.352 0 2.536-1.136 2.536-2.655 0-1.423-.956-2.607-2.212-2.607-.682 0-1.208.299-1.52.634z"/><path id="c" d="M1.471-4.162c0-3.026 1.471-3.504 2.117-3.504.43 0 .861.131 1.088.49-.143 0-.598 0-.598.49 0 .263.18.49.49.49.3 0 .503-.179.503-.526 0-.621-.454-1.231-1.495-1.231C2.069-7.953.49-6.411.49-3.78.49-.49 1.926.25 2.942.25c1.304 0 2.416-1.136 2.416-2.69 0-1.592-1.112-2.656-2.308-2.656-1.065 0-1.46.921-1.579 1.256zm1.471 4.09c-.753 0-1.112-.67-1.22-.92-.107-.312-.227-.898-.227-1.735 0-.945.43-2.129 1.507-2.129.658 0 1.005.443 1.184.85.191.442.191 1.04.191 1.554 0 .61 0 1.148-.227 1.603-.299.574-.73.777-1.208.777"/><path id="d" d="M5.681-7.427v-.275H2.799c-1.448 0-1.471-.156-1.52-.383h-.262L.646-5.693h.263c.036-.215.143-.957.299-1.088.096-.072.993-.072 1.16-.072h2.536L3.636-5.035C3.313-4.57 2.105-2.607 2.105-.36c0 .132 0 .61.49.61.503 0 .503-.466.503-.622v-.598c0-1.782.287-3.17.849-3.97z"/><path id="e" d="M3.564-4.318c.598-.322 1.471-.873 1.471-1.877 0-1.04-1.004-1.758-2.105-1.758-1.184 0-2.117.873-2.117 1.961 0 .407.12.813.455 1.22.131.155.143.167.98.753C1.088-3.48.49-2.679.49-1.806.49-.538 1.698.251 2.918.251c1.328 0 2.44-.98 2.44-2.236 0-1.22-.861-1.758-1.794-2.333M1.938-5.394c-.156-.108-.634-.419-.634-1.005 0-.777.813-1.267 1.614-1.267.861 0 1.627.622 1.627 1.483 0 .73-.526 1.315-1.22 1.698zM2.5-3.851l1.447.945c.31.203.86.574.86 1.303 0 .91-.92 1.531-1.877 1.531-1.016 0-1.89-.741-1.89-1.734 0-.933.682-1.686 1.46-2.045"/><path id="k" d="M4.377-3.48c0 2.822-1.255 3.408-1.973 3.408-.287 0-.921-.036-1.22-.454h.072c.084.024.514-.048.514-.49 0-.264-.18-.491-.49-.491s-.503.203-.503.514c0 .742.598 1.244 1.639 1.244 1.495 0 2.942-1.59 2.942-4.186 0-3.217-1.34-4.018-2.392-4.018C1.65-7.953.49-6.853.49-5.274S1.603-2.62 2.8-2.62c.885 0 1.34-.646 1.578-1.256zm-1.53.622c-.754 0-1.077-.61-1.185-.838-.19-.454-.19-1.028-.19-1.566 0-.67 0-1.244.31-1.735.215-.323.538-.67 1.184-.67.682 0 1.029.599 1.148.874.24.586.24 1.602.24 1.782 0 1.004-.455 2.153-1.508 2.153"/><path id="q" d="M8.073-3.875c.167 0 .383 0 .383-.215 0-.228-.204-.228-.383-.228H1.029c-.168 0-.383 0-.383.216 0 .227.203.227.383.227zm0 2.225c.167 0 .383 0 .383-.216 0-.227-.204-.227-.383-.227H1.029c-.168 0-.383 0-.383.215 0 .228.203.228.383.228z"/><use xlink:href="#a" id="p" transform="scale(.9122)"/></defs><g fill="none" stroke="#000" stroke-miterlimit="10" stroke-width=".3985"><path d="M24.231 62.527h249.452V44.102H24.23ZM46.908 62.527V44.102M69.586 62.527V44.102M92.263 62.527V44.102M114.94 62.527V44.102M137.618 62.527V44.102M160.296 62.527V44.102M182.973 62.527V44.102M205.65 62.527V44.102M228.328 62.527V44.102M251.005 62.527V44.102"/></g><use xlink:href="#b" x="-47.788179" y="-9.479805" transform="translate(80.412 66.643)scale(1.0004)"/><use xlink:href="#c" x="-47.788179" y="-9.479805" transform="translate(103.09 66.643)scale(1.0004)"/><use xlink:href="#d" x="-47.788179" y="-9.479805" transform="translate(125.767 66.643)scale(1.0004)"/><use xlink:href="#e" x="-47.788179" y="-9.479805" transform="translate(148.445 66.643)scale(1.0004)"/><use xlink:href="#f" x="-47.788179" y="-9.479805" transform="translate(171.122 66.643)scale(1.0004)"/><use xlink:href="#g" x="-47.788179" y="-9.479805" transform="translate(193.799 66.643)scale(1.0004)"/><use xlink:href="#h" x="-47.788179" y="-9.479805" transform="translate(216.477 66.643)scale(1.0004)"/><g transform="translate(236.228 66.643)scale(1.0004)"><use xlink:href="#b" x="-47.788179" y="-9.479805"/><use xlink:href="#i" x="-41.939742" y="-9.479805"/></g><use xlink:href="#j" x="-47.788179" y="-9.479805" transform="translate(261.832 66.643)scale(1.0004)"/><use xlink:href="#h" x="-47.788179" y="-9.479805" transform="translate(284.509 66.643)scale(1.0004)"/><use xlink:href="#k" x="-47.788179" y="-9.479805" transform="translate(307.187 66.643)scale(1.0004)"/><path fill="none" stroke="#000" stroke-dasharray=".49814 1.99255" stroke-miterlimit="10" stroke-width=".49814" d="M273.683 62.527h22.677V44.102h-22.677"/><g transform="translate(90.003 34.914)scale(1.0004)"><use xlink:href="#l" x="-47.788179" y="-9.479805"/><use xlink:href="#m" x="-41.963662" y="-9.479805"/><use xlink:href="#n" x="-37.705903" y="-9.479805"/><use xlink:href="#o" x="-31.833543" y="-9.479805"/></g><use xlink:href="#p" x="-25.463101" y="-4.644383" transform="translate(90.003 34.914)scale(1.00008)"/><g transform="translate(90.003 34.914)scale(1.0004)"><use xlink:href="#q" x="-11.347554" y="-9.479805"/><use xlink:href="#g" x="1.066926" y="-9.479805"/></g><path d="M24.51 39.989c.747-1.495 2.212-2.007 4.702-2.007.822 0 .822-1.246 0-1.246-2.49 0-4.512 1.48-5.26 2.974-.183.368.374.646.557.279M69.307 34.729c-.747 1.494-2.212 2.007-4.703 2.007-.821 0-.821 1.246 0 1.246 2.491 0 4.513-1.48 5.26-2.975.184-.367-.373-.646-.557-.278"/><path fill="none" stroke="#000" stroke-miterlimit="10" stroke-width="1.24535" d="M29.212 37.359h35.392"/><path d="M69.307 35.007c.748 1.495 2.77 2.975 5.26 2.975.822 0 .822-1.246 0-1.246-2.49 0-3.955-.513-4.703-2.007-.183-.368-.74-.09-.557.278M115.22 39.71c-.748-1.494-2.77-2.974-5.26-2.974-.823 0-.823 1.246 0 1.246 2.49 0 3.955.512 4.702 2.007.184.367.741.089.557-.279"/><path fill="none" stroke="#000" stroke-miterlimit="10" stroke-width="1.24535" d="M74.567 37.359h35.392"/><g transform="translate(63.092 91.608)scale(1.0004)"><use xlink:href="#r" x="-47.788179" y="-9.479805"/><use xlink:href="#o" x="-42.119143" y="-9.479805"/><use xlink:href="#s" x="-36.462064" y="-9.479805"/><use xlink:href="#m" x="-30.099344" y="-9.479805"/><use xlink:href="#t" x="-25.841583" y="-9.479805"/></g><use xlink:href="#p" x="-18.073491" y="-4.644383" transform="translate(63.092 91.608)scale(1.00008)"/><path d="m35.57 65.93-1.682 4.467 1.682-1.466 1.682 1.466Z"/><path fill="none" stroke="#000" stroke-miterlimit="10" stroke-width=".3985" d="m35.57 65.93-1.682 4.467 1.682-1.466 1.682 1.466Z"/><g transform="translate(157.347 91.608)scale(1.0004)"><use xlink:href="#a" x="-47.788179" y="-9.479805"/><use xlink:href="#m" x="-36.497938" y="-9.479805"/><use xlink:href="#u" x="-32.240179" y="-9.479805"/></g><use xlink:href="#p" x="-25.164076" y="-4.644383" transform="translate(157.347 91.608)scale(1.00008)"/><path d="m126.28 65.93-1.682 4.467 1.681-1.466 1.682 1.466Z"/><path fill="none" stroke="#000" stroke-miterlimit="10" stroke-width=".3985" d="m126.28 65.93-1.682 4.467 1.681-1.466 1.682 1.466Z"/><g transform="translate(248.762 91.608)scale(1.0004)"><use xlink:href="#o" x="-47.788179" y="-9.479805"/><use xlink:href="#t" x="-41.425464" y="-9.479805"/><use xlink:href="#u" x="-33.651462" y="-9.479805"/></g><use xlink:href="#p" x="-26.574192" y="-4.644383" transform="translate(248.762 91.608)scale(1.00008)"/><path d="m216.99 65.93-1.683 4.467 1.682-1.466 1.682 1.466Z"/><g fill="none" stroke="#000" stroke-miterlimit="10" stroke-width=".3985"><path d="m216.99 65.93-1.683 4.467 1.682-1.466 1.682 1.466ZM24.231 124.89h249.452v-18.425H24.23ZM46.908 124.89v-18.425M69.586 124.89v-18.425M92.263 124.89v-18.425M114.94 124.89v-18.425M137.618 124.89v-18.425M160.296 124.89v-18.425M182.973 124.89v-18.425M205.65 124.89v-18.425M228.328 124.89v-18.425M251.005 124.89v-18.425"/><path stroke-dasharray=".3985 1.99255" d="M296.36 124.89v-18.425"/></g><use xlink:href="#b" x="-47.788179" y="-9.479805" transform="translate(80.412 129.006)scale(1.0004)"/><use xlink:href="#f" x="-47.788179" y="-9.479805" transform="translate(103.09 129.006)scale(1.0004)"/><use xlink:href="#g" x="-47.788179" y="-9.479805" transform="translate(125.767 129.006)scale(1.0004)"/><use xlink:href="#h" x="-47.788179" y="-9.479805" transform="translate(148.445 129.006)scale(1.0004)"/><use xlink:href="#c" x="-47.788179" y="-9.479805" transform="translate(171.122 129.006)scale(1.0004)"/><use xlink:href="#d" x="-47.788179" y="-9.479805" transform="translate(193.799 129.006)scale(1.0004)"/><use xlink:href="#e" x="-47.788179" y="-9.479805" transform="translate(216.477 129.006)scale(1.0004)"/><g transform="translate(236.228 129.006)scale(1.0004)"><use xlink:href="#b" x="-47.788179" y="-9.479805"/><use xlink:href="#i" x="-41.939742" y="-9.479805"/></g><use xlink:href="#j" x="-47.788179" y="-9.479805" transform="translate(261.832 129.006)scale(1.0004)"/><use xlink:href="#h" x="-47.788179" y="-9.479805" transform="translate(284.509 129.006)scale(1.0004)"/><use xlink:href="#k" x="-47.788179" y="-9.479805" transform="translate(307.187 129.006)scale(1.0004)"/><path fill="none" stroke="#000" stroke-dasharray=".49814 1.99255" stroke-miterlimit="10" stroke-width=".49814" d="M273.683 124.89h22.677v-18.425h-22.677M296.36 124.89h22.678v-18.425H296.36"/><g transform="translate(244.512 153.971)scale(1.0004)"><use xlink:href="#r" x="-47.788179" y="-9.479805"/><use xlink:href="#o" x="-42.119143" y="-9.479805"/><use xlink:href="#s" x="-36.462064" y="-9.479805"/><use xlink:href="#m" x="-30.099344" y="-9.479805"/><use xlink:href="#t" x="-25.841583" y="-9.479805"/></g><use xlink:href="#p" x="-18.073491" y="-4.644383" transform="translate(244.512 153.971)scale(1.00008)"/><path d="m216.99 128.292-1.683 4.468 1.682-1.466 1.682 1.466Z"/><path fill="none" stroke="#000" stroke-miterlimit="10" stroke-width=".3985" d="m216.99 128.292-1.683 4.468 1.682-1.466 1.682 1.466Z"/><g transform="translate(338.766 153.971)scale(1.0004)"><use xlink:href="#a" x="-47.788179" y="-9.479805"/><use xlink:href="#m" x="-36.497938" y="-9.479805"/><use xlink:href="#u" x="-32.240179" y="-9.479805"/></g><use xlink:href="#p" x="-25.164076" y="-4.644383" transform="translate(338.766 153.971)scale(1.00008)"/><path d="m307.7 128.292-1.683 4.468 1.682-1.466 1.682 1.466Z"/><g fill="none" stroke="#000" stroke-miterlimit="10" stroke-width=".3985"><path d="m307.7 128.292-1.683 4.468 1.682-1.466 1.682 1.466ZM24.231 198.592h249.452v-18.426H24.23ZM46.908 198.592v-18.426M69.586 198.592v-18.426M92.263 198.592v-18.426M114.94 198.592v-18.426M137.618 198.592v-18.426M160.296 198.592v-18.426M182.973 198.592v-18.426M205.65 198.592v-18.426M228.328 198.592v-18.426M251.005 198.592v-18.426"/><path stroke-dasharray=".3985 1.99255" d="M296.36 198.592v-18.426"/></g><use xlink:href="#b" x="-47.788179" y="-9.479805" transform="translate(80.412 202.707)scale(1.0004)"/><use xlink:href="#f" x="-47.788179" y="-9.479805" transform="translate(103.09 202.707)scale(1.0004)"/><use xlink:href="#g" x="-47.788179" y="-9.479805" transform="translate(125.767 202.707)scale(1.0004)"/><use xlink:href="#h" x="-47.788179" y="-9.479805" transform="translate(148.445 202.707)scale(1.0004)"/><use xlink:href="#c" x="-47.788179" y="-9.479805" transform="translate(171.122 202.707)scale(1.0004)"/><use xlink:href="#d" x="-47.788179" y="-9.479805" transform="translate(193.799 202.707)scale(1.0004)"/><use xlink:href="#e" x="-47.788179" y="-9.479805" transform="translate(216.477 202.707)scale(1.0004)"/><g transform="translate(236.228 202.707)scale(1.0004)"><use xlink:href="#b" x="-47.788179" y="-9.479805"/><use xlink:href="#i" x="-41.939742" y="-9.479805"/></g><use xlink:href="#j" x="-47.788179" y="-9.479805" transform="translate(261.832 202.707)scale(1.0004)"/><use xlink:href="#h" x="-47.788179" y="-9.479805" transform="translate(284.509 202.707)scale(1.0004)"/><use xlink:href="#k" x="-47.788179" y="-9.479805" transform="translate(307.187 202.707)scale(1.0004)"/><path fill="none" stroke="#000" stroke-dasharray=".49814 1.99255" stroke-miterlimit="10" stroke-width=".49814" d="M273.683 198.592h22.677v-18.426h-22.677"/><g transform="translate(135.357 170.979)scale(1.0004)"><use xlink:href="#l" x="-47.788179" y="-9.479805"/><use xlink:href="#m" x="-41.963662" y="-9.479805"/><use xlink:href="#n" x="-37.705903" y="-9.479805"/><use xlink:href="#o" x="-31.833543" y="-9.479805"/></g><use xlink:href="#p" x="-25.463101" y="-4.644383" transform="translate(135.357 170.979)scale(1.00008)"/><g transform="translate(135.357 170.979)scale(1.0004)"><use xlink:href="#q" x="-11.347554" y="-9.479805"/><use xlink:href="#e" x="1.066926" y="-9.479805"/></g><path d="M24.51 176.054c.747-1.495 2.212-2.008 4.702-2.008.822 0 .822-1.245 0-1.245-2.49 0-4.512 1.48-5.26 2.974-.183.368.374.646.557.279M114.662 170.794c-.747 1.494-2.212 2.007-4.703 2.007-.822 0-.822 1.245 0 1.245 2.491 0 4.513-1.48 5.26-2.974.184-.367-.373-.646-.557-.278"/><path fill="none" stroke="#000" stroke-miterlimit="10" stroke-width="1.24535" d="M29.212 173.424h80.747"/><path d="M114.662 171.072c.747 1.495 2.77 2.974 5.26 2.974.822 0 .822-1.245 0-1.245-2.49 0-3.956-.513-4.703-2.007-.184-.368-.74-.09-.557.278M205.929 175.775c-.747-1.494-2.77-2.974-5.26-2.974-.822 0-.822 1.245 0 1.245 2.49 0 3.956.513 4.703 2.008.184.367.74.089.557-.279"/><path fill="none" stroke="#000" stroke-miterlimit="10" stroke-width="1.24535" d="M119.922 173.424h80.747"/><g transform="translate(63.092 227.672)scale(1.0004)"><use xlink:href="#r" x="-47.788179" y="-9.479805"/><use xlink:href="#o" x="-42.119143" y="-9.479805"/><use xlink:href="#s" x="-36.462064" y="-9.479805"/><use xlink:href="#m" x="-30.099344" y="-9.479805"/><use xlink:href="#t" x="-25.841583" y="-9.479805"/></g><use xlink:href="#p" x="-18.073491" y="-4.644383" transform="translate(63.092 227.672)scale(1.00008)"/><path d="m35.57 201.994-1.682 4.468 1.682-1.466 1.682 1.466Z"/><path fill="none" stroke="#000" stroke-miterlimit="10" stroke-width=".3985" d="m35.57 201.994-1.682 4.468 1.682-1.466 1.682 1.466Z"/><g transform="translate(248.056 227.672)scale(1.0004)"><use xlink:href="#a" x="-47.788179" y="-9.479805"/><use xlink:href="#m" x="-36.497938" y="-9.479805"/><use xlink:href="#u" x="-32.240179" y="-9.479805"/></g><use xlink:href="#p" x="-25.164076" y="-4.644383" transform="translate(248.056 227.672)scale(1.00008)"/><path d="m216.99 201.994-1.683 4.468 1.682-1.466 1.682 1.466Z"/><path fill="none" stroke="#000" stroke-miterlimit="10" stroke-width=".3985" d="m216.99 201.994-1.683 4.468 1.682-1.466 1.682 1.466Z"/><g transform="translate(316.794 227.672)scale(1.0004)"><use xlink:href="#o" x="-47.788179" y="-9.479805"/><use xlink:href="#t" x="-41.425464" y="-9.479805"/><use xlink:href="#u" x="-33.651462" y="-9.479805"/></g><use xlink:href="#p" x="-26.574192" y="-4.644383" transform="translate(316.794 227.672)scale(1.00008)"/><path d="m285.022 201.994-1.682 4.468 1.682-1.466 1.682 1.466Z"/><g fill="none" stroke="#000" stroke-miterlimit="10" stroke-width=".3985"><path d="m285.022 201.994-1.682 4.468 1.682-1.466 1.682 1.466ZM24.231 260.955h249.452v-18.426H24.23ZM46.908 260.955v-18.426M69.586 260.955v-18.426M92.263 260.955v-18.426M114.94 260.955v-18.426M137.618 260.955v-18.426M160.296 260.955v-18.426M182.973 260.955v-18.426M205.65 260.955v-18.426M228.328 260.955v-18.426M251.005 260.955v-18.426"/><path stroke-dasharray=".3985 1.99255" d="M296.36 260.955v-18.426"/></g><use xlink:href="#b" x="-47.788179" y="-9.479805" transform="translate(80.412 265.07)scale(1.0004)"/><use xlink:href="#j" x="-47.788179" y="-9.479805" transform="translate(103.09 265.07)scale(1.0004)"/><use xlink:href="#f" x="-47.788179" y="-9.479805" transform="translate(125.767 265.07)scale(1.0004)"/><use xlink:href="#g" x="-47.788179" y="-9.479805" transform="translate(148.445 265.07)scale(1.0004)"/><use xlink:href="#h" x="-47.788179" y="-9.479805" transform="translate(171.122 265.07)scale(1.0004)"/><use xlink:href="#h" x="-47.788179" y="-9.479805" transform="translate(193.799 265.07)scale(1.0004)"/><use xlink:href="#c" x="-47.788179" y="-9.479805" transform="translate(216.477 265.07)scale(1.0004)"/><use xlink:href="#d" x="-47.788179" y="-9.479805" transform="translate(239.154 265.07)scale(1.0004)"/><use xlink:href="#e" x="-47.788179" y="-9.479805" transform="translate(261.832 265.07)scale(1.0004)"/><use xlink:href="#k" x="-47.788179" y="-9.479805" transform="translate(284.509 265.07)scale(1.0004)"/><g transform="translate(304.26 265.07)scale(1.0004)"><use xlink:href="#b" x="-47.788179" y="-9.479805"/><use xlink:href="#i" x="-41.939742" y="-9.479805"/></g></svg>