<svg xmlns="http://www.w3.org/2000/svg" xmlns:xlink="http://www.w3.org/1999/xlink" width="304.62pt" height="167.52pt" viewBox="0 0 304.62 167.52"><defs><path id="b" d="M2.503-5.077c0-.215-.016-.223-.232-.223-.326.319-.749.51-1.506.51v.263c.215 0 .646 0 1.108-.215v4.088c0 .295-.024.391-.781.391h-.28V0c.328-.024 1.013-.024 1.372-.024s1.052 0 1.379.024v-.263h-.28c-.757 0-.78-.096-.78-.39z"/><path id="d" d="M2.248-1.626c.127-.12.462-.382.59-.494.493-.454.964-.893.964-1.618 0-.948-.797-1.562-1.794-1.562-.956 0-1.586.725-1.586 1.435 0 .39.311.446.423.446a.41.41 0 0 0 .414-.423c0-.414-.398-.414-.494-.414a1.23 1.23 0 0 1 1.156-.781c.741 0 1.124.63 1.124 1.3 0 .828-.582 1.434-1.523 2.398L.518-.303C.422-.215.422-.199.422 0h3.149l.23-1.427h-.246c-.024.16-.088.558-.184.71-.048.063-.653.063-.78.063H1.17z"/><path id="e" d="M2.016-2.662c.63 0 1.029.462 1.029 1.3 0 .995-.566 1.29-.989 1.29-.438 0-1.036-.16-1.315-.582.287 0 .486-.183.486-.446a.423.423 0 0 0-.438-.438c-.215 0-.438.135-.438.454 0 .757.813 1.251 1.721 1.251 1.06 0 1.801-.733 1.801-1.53 0-.661-.526-1.267-1.339-1.442.63-.224 1.1-.766 1.1-1.403S2.917-5.3 2.088-5.3C1.235-5.3.59-4.838.59-4.232c0 .295.199.422.406.422a.39.39 0 0 0 .407-.406c0-.295-.255-.407-.43-.415.334-.438.948-.462 1.091-.462.207 0 .813.064.813.885 0 .558-.231.892-.343 1.02-.239.247-.422.263-.908.295-.152.008-.215.016-.215.12 0 .111.071.111.207.111z"/><path id="h" d="M4.528-1.298c0-.11-.088-.131-.142-.131-.098 0-.12.065-.142.153C3.862-.153 2.88-.153 2.771-.153c-.545 0-.982-.327-1.233-.73-.327-.524-.327-1.244-.327-1.637h3.044c.24 0 .273 0 .273-.23 0-1.08-.59-2.138-1.953-2.138-1.266 0-2.27 1.124-2.27 2.488 0 1.462 1.146 2.52 2.4 2.52 1.332 0 1.823-1.211 1.823-1.418m-.72-1.451H1.222c.065-1.626.982-1.899 1.353-1.899 1.123 0 1.233 1.473 1.233 1.899"/><path id="j" d="M5.837 0v-.338c-.567 0-.84 0-.851-.328v-2.083c0-.939 0-1.277-.338-1.67-.153-.185-.513-.403-1.146-.403-.796 0-1.31.469-1.615 1.145v-1.145l-1.538.12v.338c.764 0 .851.076.851.611v2.924c0 .49-.12.49-.85.49V0l1.232-.033L2.804 0v-.338c-.731 0-.851 0-.851-.491v-2.008c0-1.134.775-1.745 1.473-1.745.687 0 .807.589.807 1.21v2.543c0 .49-.12.49-.85.49V0l1.232-.033z"/><path id="k" d="M5.139-2.335c0-1.396-1.091-2.553-2.411-2.553-1.364 0-2.423 1.19-2.423 2.553A2.435 2.435 0 0 0 2.717.12a2.43 2.43 0 0 0 2.422-2.455m-.906-.087c0 .393 0 .982-.24 1.462-.24.49-.72.807-1.265.807-.47 0-.95-.229-1.244-.73-.273-.48-.273-1.146-.273-1.539 0-.426 0-1.015.262-1.495a1.46 1.46 0 0 1 1.244-.73c.48 0 .949.24 1.232.708s.284 1.102.284 1.517"/><path id="i" d="M3.928-1.396c0-.579-.328-.906-.459-1.037-.36-.35-.785-.436-1.243-.524-.611-.12-1.342-.261-1.342-.894 0-.382.283-.83 1.222-.83 1.2 0 1.254.983 1.276 1.32.011.099.131.099.131.099.142 0 .142-.055.142-.262v-1.102c0-.185 0-.262-.12-.262-.055 0-.077 0-.218.131a1.4 1.4 0 0 1-.186.175c-.414-.306-.862-.306-1.025-.306C.775-4.888.36-4.157.36-3.546c0 .382.175.688.47.928.348.283.654.349 1.44.501.24.044 1.134.219 1.134 1.004 0 .557-.382.993-1.233.993-.916 0-1.31-.622-1.516-1.55C.622-1.81.61-1.854.502-1.854c-.142 0-.142.077-.142.273v1.44C.36.044.36.12.48.12.535.12.546.11.753-.098.775-.12.775-.142.97-.35c.48.458.971.469 1.2.469 1.255 0 1.757-.731 1.757-1.516"/><path id="g" d="M5.542-4.364v-.338c-.25.022-.567.033-.818.033l-.95-.033v.338c.34.01.514.196.514.47 0 .108-.011.13-.066.261L3.12-.949 1.91-3.884c-.044-.11-.066-.153-.066-.196 0-.284.403-.284.61-.284v-.338l-1.188.033C.97-4.67.535-4.68.207-4.702v.338c.524 0 .731 0 .884.382L2.728 0l-.273.644c-.24.6-.546 1.353-1.244 1.353-.055 0-.305 0-.513-.197.338-.043.426-.284.426-.458A.44.44 0 0 0 .666.884c-.219 0-.459.142-.459.469 0 .49.459.884 1.004.884.687 0 1.135-.622 1.396-1.244l1.92-4.659c.284-.687.84-.698 1.015-.698"/><path id="f" d="M2.332.048c0-.694-.227-1.208-.717-1.208-.383 0-.574.31-.574.574S1.22 0 1.627 0a.53.53 0 0 0 .394-.155c.024-.024.036-.024.048-.024.024 0 .024.167.024.227 0 .395-.072 1.172-.765 1.95-.132.143-.132.167-.132.19 0 .06.06.12.12.12.095 0 1.016-.885 1.016-2.26"/><path id="c" d="M7.882-5.825c.215-.095.239-.179.239-.25a.22.22 0 0 0-.227-.228c-.024 0-.036.012-.204.084L1.22-3.241c-.215.096-.24.18-.24.251 0 .084.013.155.24.263L7.69.251c.156.072.18.084.204.084A.22.22 0 0 0 8.12.108c0-.072-.024-.156-.24-.252L1.723-2.978z"/><path id="a" d="M4.114-.73c.263.718 1.005.85 1.46.85.908 0 1.447-.79 1.781-1.615.275-.694.718-2.272.718-2.978 0-.73-.37-.801-.478-.801-.287 0-.55.287-.55.526 0 .143.083.227.143.275.108.108.419.43.419 1.052 0 .407-.335 1.531-.586 2.093-.335.73-.778 1.208-1.4 1.208-.67 0-.885-.502-.885-1.052 0-.347.108-.766.156-.969l.502-2.01c.06-.238.167-.657.167-.705 0-.18-.143-.299-.323-.299-.346 0-.43.3-.502.586-.12.467-.622 2.488-.67 2.751-.047.203-.047.335-.047.598 0 .287-.383.742-.395.766-.132.131-.323.334-.694.334-.945 0-.945-.897-.945-1.1 0-.383.084-.909.622-2.332.144-.37.204-.526.204-.766 0-.502-.36-.956-.945-.956-1.1 0-1.543 1.734-1.543 1.83 0 .047.048.107.131.107.108 0 .12-.048.168-.215.299-1.053.765-1.483 1.208-1.483.12 0 .31.012.31.395 0 .06 0 .31-.202.837-.563 1.495-.682 1.985-.682 2.44C1.256-.108 2.284.12 2.894.12c.204 0 .742 0 1.22-.85"/></defs><path fill="none" stroke="#000" stroke-miterlimit="10" stroke-width=".3985" d="M161.096 22.541c0-6.077-10.914-11.004-24.378-11.004s-24.378 4.927-24.378 11.004 10.914 11.004 24.378 11.004 24.378-4.927 24.378-11.004Z"/><use xlink:href="#a" x="64.743984" y="-49.477857" transform="translate(51.026 74.251)scale(1.0004)"/><use xlink:href="#b" x="73.085083" y="-47.664402" transform="matrix(.99999 0 0 .99999 51.026 74.251)"/><g transform="translate(51.026 74.251)scale(1.0004)"><use xlink:href="#c" x="81.171577" y="-49.477857"/><use xlink:href="#a" x="93.58606" y="-49.477857"/></g><use xlink:href="#d" x="101.930721" y="-47.664402" transform="matrix(.99999 0 0 .99999 51.026 74.251)"/><path fill="none" stroke="#000" stroke-miterlimit="10" stroke-width=".3985" d="M95.898 56.557c0-6.077-10.914-11.004-24.378-11.004-13.463 0-24.377 4.927-24.377 11.004 0 6.078 10.914 11.004 24.377 11.004 13.464 0 24.378-4.926 24.378-11.004Z"/><use xlink:href="#a" x="64.743984" y="-49.477857" transform="translate(-14.171 108.267)scale(1.0004)"/><use xlink:href="#d" x="73.085083" y="-47.664402" transform="matrix(.99999 0 0 .99999 -14.171 108.267)"/><g transform="translate(-14.171 108.267)scale(1.0004)"><use xlink:href="#c" x="81.171577" y="-49.477857"/><use xlink:href="#a" x="93.58606" y="-49.477857"/></g><use xlink:href="#e" x="101.930721" y="-47.664402" transform="matrix(.99999 0 0 .99999 -14.171 108.267)"/><path fill="none" stroke="#000" stroke-miterlimit="10" stroke-width=".3985" d="M120.548 30.977 87.69 48.121M11.536 110.63h54.77V93.194h-54.77Z"/><use xlink:href="#a" x="64.743984" y="-49.477857" transform="translate(-50.691 152.781)scale(1.0004)"/><use xlink:href="#b" x="73.085083" y="-47.664402" transform="matrix(.99999 0 0 .99999 -50.691 152.781)"/><g transform="translate(-50.691 152.781)scale(1.0004)"><use xlink:href="#f" x="77.849244" y="-49.477857"/><use xlink:href="#a" x="83.075771" y="-49.477857"/></g><use xlink:href="#d" x="91.428853" y="-47.664402" transform="matrix(.99999 0 0 .99999 -50.691 152.781)"/><g transform="translate(-50.691 152.781)scale(1.0004)"><use xlink:href="#f" x="96.201609" y="-49.477857"/><use xlink:href="#a" x="101.428137" y="-49.477857"/></g><use xlink:href="#e" x="109.773623" y="-47.664402" transform="matrix(.99999 0 0 .99999 -50.691 152.781)"/><path fill="none" stroke="#000" stroke-miterlimit="10" stroke-width=".3985" d="m63.868 67.203-18.54 25.792"/><g transform="translate(-28.901 130.883)scale(1.00008)"><use xlink:href="#g" x="64.723339" y="-49.46208"/><use xlink:href="#h" x="70.18925" y="-49.46208"/><use xlink:href="#i" x="75.03329" y="-49.46208"/></g><path fill="none" stroke="#000" stroke-miterlimit="10" stroke-width=".3985" d="M128.497 101.912c0-6.077-10.914-11.004-24.378-11.004-13.463 0-24.377 4.927-24.377 11.004s10.914 11.004 24.377 11.004c13.464 0 24.378-4.927 24.378-11.004Z"/><use xlink:href="#a" x="64.743984" y="-49.477857" transform="translate(18.428 153.622)scale(1.0004)"/><use xlink:href="#b" x="73.085083" y="-47.664402" transform="matrix(.99999 0 0 .99999 18.428 153.622)"/><g transform="translate(18.428 153.622)scale(1.0004)"><use xlink:href="#c" x="81.171577" y="-49.477857"/><use xlink:href="#a" x="93.58606" y="-49.477857"/></g><use xlink:href="#e" x="101.930721" y="-47.664402" transform="matrix(.99999 0 0 .99999 18.428 153.622)"/><path fill="none" stroke="#000" stroke-miterlimit="10" stroke-width=".3985" d="m79.172 67.203 17.295 24.063M45.552 155.984h54.771V138.55h-54.77Z"/><use xlink:href="#a" x="64.743984" y="-49.477857" transform="translate(-16.675 198.136)scale(1.0004)"/><use xlink:href="#b" x="73.085083" y="-47.664402" transform="matrix(.99999 0 0 .99999 -16.675 198.136)"/><g transform="translate(-16.675 198.136)scale(1.0004)"><use xlink:href="#f" x="77.849244" y="-49.477857"/><use xlink:href="#a" x="83.075771" y="-49.477857"/></g><use xlink:href="#e" x="91.428853" y="-47.664402" transform="matrix(.99999 0 0 .99999 -16.675 198.136)"/><g transform="translate(-16.675 198.136)scale(1.0004)"><use xlink:href="#f" x="96.201609" y="-49.477857"/><use xlink:href="#a" x="101.428137" y="-49.477857"/></g><use xlink:href="#d" x="109.773623" y="-47.664402" transform="matrix(.99999 0 0 .99999 -16.675 198.136)"/><path fill="none" stroke="#000" stroke-miterlimit="10" stroke-width=".3985" d="M96.77 112.602 79.064 138.35"/><g transform="translate(4.419 176.26)scale(1.00008)"><use xlink:href="#g" x="64.723339" y="-49.46208"/><use xlink:href="#h" x="70.18925" y="-49.46208"/><use xlink:href="#i" x="75.03329" y="-49.46208"/></g><path fill="none" stroke="#000" stroke-miterlimit="10" stroke-width=".3985" d="M107.915 155.984h54.771V138.55h-54.77Z"/><use xlink:href="#a" x="64.743984" y="-49.477857" transform="translate(45.688 198.136)scale(1.0004)"/><use xlink:href="#e" x="73.085083" y="-47.664402" transform="matrix(.99999 0 0 .99999 45.688 198.136)"/><g transform="translate(45.688 198.136)scale(1.0004)"><use xlink:href="#f" x="77.849244" y="-49.477857"/><use xlink:href="#a" x="83.075771" y="-49.477857"/></g><use xlink:href="#b" x="91.428853" y="-47.664402" transform="matrix(.99999 0 0 .99999 45.688 198.136)"/><g transform="translate(45.688 198.136)scale(1.0004)"><use xlink:href="#f" x="96.201609" y="-49.477857"/><use xlink:href="#a" x="101.428137" y="-49.477857"/></g><use xlink:href="#d" x="109.773623" y="-47.664402" transform="matrix(.99999 0 0 .99999 45.688 198.136)"/><path fill="none" stroke="#000" stroke-miterlimit="10" stroke-width=".3985" d="m111.47 112.602 17.703 25.748"/><g transform="translate(59.787 177.318)scale(1.00008)"><use xlink:href="#j" x="64.723339" y="-49.46208"/><use xlink:href="#k" x="70.7893" y="-49.46208"/></g><g transform="translate(27.286 131.076)scale(1.00008)"><use xlink:href="#j" x="64.723339" y="-49.46208"/><use xlink:href="#k" x="70.7893" y="-49.46208"/></g><g transform="translate(26.434 85.421)scale(1.00008)"><use xlink:href="#g" x="64.723339" y="-49.46208"/><use xlink:href="#h" x="70.18925" y="-49.46208"/><use xlink:href="#i" x="75.03329" y="-49.46208"/></g><path fill="none" stroke="#000" stroke-miterlimit="10" stroke-width=".3985" d="M226.293 56.557c0-6.077-10.914-11.004-24.377-11.004-13.464 0-24.378 4.927-24.378 11.004 0 6.078 10.914 11.004 24.378 11.004 13.463 0 24.377-4.926 24.377-11.004Z"/><use xlink:href="#a" x="64.743984" y="-49.477857" transform="translate(116.224 108.267)scale(1.0004)"/><use xlink:href="#e" x="73.085083" y="-47.664402" transform="matrix(.99999 0 0 .99999 116.224 108.267)"/><g transform="translate(116.224 108.267)scale(1.0004)"><use xlink:href="#c" x="81.171577" y="-49.477857"/><use xlink:href="#a" x="93.58606" y="-49.477857"/></g><use xlink:href="#d" x="101.930721" y="-47.664402" transform="matrix(.99999 0 0 .99999 116.224 108.267)"/><path fill="none" stroke="#000" stroke-miterlimit="10" stroke-width=".3985" d="m152.888 30.977 32.858 17.144M141.932 110.63h54.77V93.194h-54.77Z"/><use xlink:href="#a" x="64.743984" y="-49.477857" transform="translate(79.704 152.781)scale(1.0004)"/><use xlink:href="#e" x="73.085083" y="-47.664402" transform="matrix(.99999 0 0 .99999 79.704 152.781)"/><g transform="translate(79.704 152.781)scale(1.0004)"><use xlink:href="#f" x="77.849244" y="-49.477857"/><use xlink:href="#a" x="83.075771" y="-49.477857"/></g><use xlink:href="#d" x="91.428853" y="-47.664402" transform="matrix(.99999 0 0 .99999 79.704 152.781)"/><g transform="translate(79.704 152.781)scale(1.0004)"><use xlink:href="#f" x="96.201609" y="-49.477857"/><use xlink:href="#a" x="101.428137" y="-49.477857"/></g><use xlink:href="#b" x="109.773623" y="-47.664402" transform="matrix(.99999 0 0 .99999 79.704 152.781)"/><path fill="none" stroke="#000" stroke-miterlimit="10" stroke-width=".3985" d="m194.263 67.203-18.54 25.792"/><g transform="translate(101.495 130.883)scale(1.00008)"><use xlink:href="#g" x="64.723339" y="-49.46208"/><use xlink:href="#h" x="70.18925" y="-49.46208"/><use xlink:href="#i" x="75.03329" y="-49.46208"/></g><path fill="none" stroke="#000" stroke-miterlimit="10" stroke-width=".3985" d="M258.892 101.912c0-6.077-10.914-11.004-24.377-11.004s-24.378 4.927-24.378 11.004 10.914 11.004 24.378 11.004 24.377-4.927 24.377-11.004Z"/><use xlink:href="#a" x="64.743984" y="-49.477857" transform="translate(148.823 153.622)scale(1.0004)"/><use xlink:href="#b" x="73.085083" y="-47.664402" transform="matrix(.99999 0 0 .99999 148.823 153.622)"/><g transform="translate(148.823 153.622)scale(1.0004)"><use xlink:href="#c" x="81.171577" y="-49.477857"/><use xlink:href="#a" x="93.58606" y="-49.477857"/></g><use xlink:href="#e" x="101.930721" y="-47.664402" transform="matrix(.99999 0 0 .99999 148.823 153.622)"/><path fill="none" stroke="#000" stroke-miterlimit="10" stroke-width=".3985" d="m209.567 67.203 17.296 24.063M175.948 155.984h54.77V138.55h-54.77Z"/><use xlink:href="#a" x="64.743984" y="-49.477857" transform="translate(113.72 198.136)scale(1.0004)"/><use xlink:href="#d" x="73.085083" y="-47.664402" transform="matrix(.99999 0 0 .99999 113.72 198.136)"/><g transform="translate(113.72 198.136)scale(1.0004)"><use xlink:href="#f" x="77.849244" y="-49.477857"/><use xlink:href="#a" x="83.075771" y="-49.477857"/></g><use xlink:href="#b" x="91.428853" y="-47.664402" transform="matrix(.99999 0 0 .99999 113.72 198.136)"/><g transform="translate(113.72 198.136)scale(1.0004)"><use xlink:href="#f" x="96.201609" y="-49.477857"/><use xlink:href="#a" x="101.428137" y="-49.477857"/></g><use xlink:href="#e" x="109.773623" y="-47.664402" transform="matrix(.99999 0 0 .99999 113.72 198.136)"/><path fill="none" stroke="#000" stroke-miterlimit="10" stroke-width=".3985" d="M227.165 112.602 209.46 138.35"/><g transform="translate(134.814 176.26)scale(1.00008)"><use xlink:href="#g" x="64.723339" y="-49.46208"/><use xlink:href="#h" x="70.18925" y="-49.46208"/><use xlink:href="#i" x="75.03329" y="-49.46208"/></g><path fill="none" stroke="#000" stroke-miterlimit="10" stroke-width=".3985" d="M238.31 155.984h54.771V138.55h-54.77Z"/><use xlink:href="#a" x="64.743984" y="-49.477857" transform="translate(176.083 198.136)scale(1.0004)"/><use xlink:href="#d" x="73.085083" y="-47.664402" transform="matrix(.99999 0 0 .99999 176.083 198.136)"/><g transform="translate(176.083 198.136)scale(1.0004)"><use xlink:href="#f" x="77.849244" y="-49.477857"/><use xlink:href="#a" x="83.075771" y="-49.477857"/></g><use xlink:href="#e" x="91.428853" y="-47.664402" transform="matrix(.99999 0 0 .99999 176.083 198.136)"/><g transform="translate(176.083 198.136)scale(1.0004)"><use xlink:href="#f" x="96.201609" y="-49.477857"/><use xlink:href="#a" x="101.428137" y="-49.477857"/></g><use xlink:href="#b" x="109.773623" y="-47.664402" transform="matrix(.99999 0 0 .99999 176.083 198.136)"/><path fill="none" stroke="#000" stroke-miterlimit="10" stroke-width=".3985" d="m241.864 112.602 17.704 25.748"/><g transform="translate(190.182 177.318)scale(1.00008)"><use xlink:href="#j" x="64.723339" y="-49.46208"/><use xlink:href="#k" x="70.7893" y="-49.46208"/></g><g transform="translate(157.681 131.076)scale(1.00008)"><use xlink:href="#j" x="64.723339" y="-49.46208"/><use xlink:href="#k" x="70.7893" y="-49.46208"/></g><g transform="translate(104.508 87.538)scale(1.00008)"><use xlink:href="#j" x="64.723339" y="-49.46208"/><use xlink:href="#k" x="70.7893" y="-49.46208"/></g></svg>