<svg xmlns="http://www.w3.org/2000/svg" xmlns:xlink="http://www.w3.org/1999/xlink" width="413.05pt" height="159.92pt" viewBox="0 0 413.05 159.92"><defs><path id="r" d="M2.503-5.077c0-.215-.016-.223-.232-.223-.326.319-.749.51-1.506.51v.263c.215 0 .646 0 1.108-.215v4.088c0 .295-.024.391-.781.391h-.28V0c.328-.024 1.013-.024 1.372-.024s1.052 0 1.379.024v-.263h-.28c-.757 0-.78-.096-.78-.39z"/><path id="q" d="M5.571-1.81c.128 0 .303 0 .303-.182s-.175-.184-.303-.184H1.004c-.127 0-.303 0-.303.184s.176.183.303.183z"/><path id="p" d="M1.594-1.307c.024-.12.104-.422.128-.542.111-.43.111-.438.294-.701.263-.39.638-.742 1.172-.742.287 0 .454.168.454.542 0 .439-.334 1.347-.486 1.738-.103.263-.103.31-.103.414 0 .455.374.678.717.678.78 0 1.108-1.116 1.108-1.22 0-.08-.064-.103-.12-.103-.096 0-.111.055-.135.135-.192.654-.526.965-.83.965-.127 0-.19-.08-.19-.263s.063-.36.143-.558c.12-.303.47-1.22.47-1.666 0-.598-.414-.885-.988-.885-.646 0-1.06.39-1.291.694-.056-.439-.407-.694-.813-.694-.287 0-.486.184-.614.43a3.2 3.2 0 0 0-.27.79c0 .071.055.103.119.103.103 0 .111-.032.167-.239.096-.39.24-.86.574-.86.207 0 .255.199.255.374 0 .143-.04.295-.104.558a43 43 0 0 1-.167.645L.789-.518c-.032.12-.08.319-.08.35C.71.017.861.08.964.08a.39.39 0 0 0 .32-.192c.023-.047.087-.318.127-.486z"/><path id="d" d="M5.669-1.064v-.67h-.263v.67c0 .681-.287.777-.455.777-.454 0-.454-.634-.454-.813v-2.093c0-.646 0-1.125-.526-1.591-.419-.383-.957-.55-1.483-.55-.981 0-1.735.646-1.735 1.423 0 .347.228.514.503.514.287 0 .49-.203.49-.49 0-.49-.43-.49-.61-.49.275-.503.85-.718 1.328-.718.55 0 1.256.455 1.256 1.53v.48C1.316-3.05.407-2.046.407-1.126c0 .946 1.1 1.245 1.83 1.245A1.63 1.63 0 0 0 3.79-.933c.048.562.419.993.933.993.251 0 .945-.168.945-1.124m-1.95-.622C3.72-.514 2.847-.12 2.333-.12c-.586 0-1.076-.43-1.076-1.004 0-1.579 2.033-1.722 2.464-1.746z"/><path id="h" d="M6.16 0v-.347c-.814 0-.91-.084-.91-.67V-8.3l-1.662.131v.347c.813 0 .909.084.909.67v2.643a1.86 1.86 0 0 0-1.495-.765C1.615-5.274.419-4.102.419-2.571c0 1.519 1.136 2.69 2.451 2.69.91 0 1.436-.597 1.603-.825V.12zM4.472-1.4c0 .216 0 .252-.167.515-.287.419-.778.765-1.376.765-.31 0-1.602-.12-1.602-2.44 0-.86.143-1.339.406-1.734.24-.37.718-.741 1.316-.741.741 0 1.16.538 1.28.73.143.203.143.227.143.442z"/><path id="c" d="M4.868-1.423c0-.072-.06-.12-.132-.12-.096 0-.12.06-.143.12C4.282-.42 3.48-.143 2.978-.143s-1.71-.335-1.71-2.404v-.228H4.58c.263 0 .287 0 .287-.227 0-1.208-.646-2.332-2.093-2.332C1.41-5.334.359-4.102.359-2.62.359-1.041 1.579.12 2.906.12c1.424 0 1.962-1.292 1.962-1.543m-.742-1.579H1.28c.095-1.878 1.148-2.093 1.483-2.093 1.28 0 1.351 1.686 1.363 2.093"/><path id="e" d="M4.09-7.63c0-.443-.43-.79-1.004-.79-.838 0-1.782.646-1.782 1.866v1.4H.37v.346h.933v3.923c0 .538-.132.538-.91.538V0c.336-.024.993-.024 1.352-.024.323 0 1.172 0 1.447.024v-.347h-.239c-.873 0-.897-.131-.897-.562v-3.899H3.41v-.347H2.033v-1.4c0-1.075.55-1.626 1.04-1.626.096 0 .276.024.42.096a.48.48 0 0 0-.348.466c0 .276.192.467.467.467.287 0 .478-.191.478-.478"/><path id="b" d="M2.966 0v-.347c-.765 0-.909 0-.909-.538V-8.3L.395-8.17v.347c.813 0 .909.084.909.67v6.267c0 .538-.132.538-.91.538V0c.336-.024.922-.024 1.28-.024s.957 0 1.292.024"/><path id="f" d="M6.231 0v-.347c-.598 0-.897 0-.909-.359v-2.2c0-1.113 0-1.447-.275-1.83-.347-.467-.909-.538-1.315-.538-1.16 0-1.615.992-1.71 1.232h-.013v-1.232l-1.626.131v.347c.813 0 .909.084.909.67v3.241c0 .538-.132.538-.91.538V0c.312-.024.958-.024 1.292-.024.347 0 .993 0 1.304.024v-.347c-.765 0-.909 0-.909-.538V-3.11c0-1.255.825-1.925 1.567-1.925s.909.61.909 1.34v2.81c0 .538-.132.538-.91.538V0c.312-.024.958-.024 1.293-.024.346 0 .992 0 1.303.024"/><path id="g" d="M5.49-2.56c0-1.542-1.172-2.774-2.56-2.774C1.495-5.334.36-4.066.36-2.56.359-1.03 1.555.12 2.919.12c1.41 0 2.57-1.172 2.57-2.68m-.91-.107c0 .419 0 1.16-.31 1.722a1.56 1.56 0 0 1-1.34.801c-.442 0-.98-.19-1.327-.777-.323-.538-.335-1.244-.335-1.746 0-.455 0-1.184.37-1.722a1.53 1.53 0 0 1 1.28-.706c.467 0 .969.215 1.292.682.37.55.37 1.303.37 1.746"/><path id="j" d="M3.887 2.906c0-.036 0-.06-.203-.263C2.488 1.435 1.818-.538 1.818-2.978c0-2.32.562-4.318 1.95-5.729.119-.108.119-.131.119-.167 0-.072-.06-.096-.108-.096-.155 0-1.136.861-1.722 2.033-.61 1.208-.885 2.488-.885 3.959 0 1.064.168 2.488.79 3.767.705 1.436 1.686 2.213 1.817 2.213.048 0 .108-.024.108-.096"/><path id="k" d="M3.373-2.978c0-.909-.12-2.392-.79-3.78C1.878-8.192.897-8.97.765-8.97c-.047 0-.107.024-.107.096 0 .036 0 .06.203.263C2.057-7.403 2.727-5.43 2.727-2.99c0 2.32-.562 4.318-1.95 5.729-.12.107-.12.131-.12.167 0 .072.06.096.108.096.156 0 1.137-.861 1.723-2.033.61-1.22.885-2.512.885-3.947"/><path id="i" d="M4.21-1.519c0-.646-.395-1.028-.502-1.136-.431-.37-.754-.443-1.543-.586-.359-.072-1.232-.24-1.232-.957 0-.37.251-.92 1.327-.92 1.304 0 1.376 1.111 1.4 1.482.012.096.095.096.131.096.132 0 .132-.06.132-.275V-5.06c0-.215 0-.275-.12-.275-.095 0-.323.263-.406.37-.371-.298-.742-.37-1.125-.37-1.447 0-1.877.79-1.877 1.447 0 .132 0 .55.454.969.383.335.79.418 1.34.526.657.132.813.167 1.112.407.215.179.37.442.37.777 0 .514-.298 1.088-1.35 1.088C1.53-.12.956-.574.693-1.77c-.048-.215-.06-.24-.06-.24-.024-.047-.072-.047-.108-.047-.131 0-.131.06-.131.275v1.627c0 .215 0 .275.12.275.06 0 .071-.012.274-.264.06-.083.06-.107.24-.299.454.563 1.1.563 1.303.563C3.588.12 4.21-.574 4.21-1.52"/><path id="t" d="M3.444-7.666c0-.275 0-.287-.239-.287-.287.323-.885.765-2.117.765v.347c.275 0 .873 0 1.531-.311v6.231c0 .43-.036.574-1.088.574h-.37V0c.322-.024 1.482-.024 1.877-.024s1.543 0 1.866.024v-.347h-.371C3.48-.347 3.444-.49 3.444-.92z"/><path id="o" d="M5.262-2.01H5c-.036.204-.131.862-.25 1.053-.085.108-.766.108-1.125.108H1.41c.323-.275 1.053-1.04 1.364-1.328 1.818-1.674 2.487-2.296 2.487-3.48 0-1.375-1.088-2.296-2.475-2.296S.586-6.77.586-5.741c0 .61.526.61.562.61.251 0 .562-.18.562-.562 0-.335-.227-.562-.562-.562-.107 0-.131 0-.167.012.227-.813.873-1.364 1.65-1.364 1.017 0 1.639.85 1.639 1.95 0 1.017-.586 1.902-1.268 2.667L.586-.287V0h4.365z"/><path id="n" d="M1.423-2.165c.562.371 1.04.371 1.172.371 1.077 0 1.878-.813 1.878-1.734 0-.323-.096-.778-.478-1.16.466-.479 1.028-.479 1.088-.479.048 0 .108 0 .155.024-.12.048-.179.168-.179.3 0 .167.12.31.311.31.096 0 .311-.06.311-.323a.56.56 0 0 0-.586-.55c-.622 0-1.088.383-1.256.562a2 2 0 0 0-1.232-.43C1.531-5.274.73-4.461.73-3.54c0 .682.418 1.124.538 1.232-.144.18-.359.526-.359.992 0 .694.419.993.514 1.053-.55.155-1.1.586-1.1 1.208 0 .825 1.124 1.507 2.595 1.507 1.423 0 2.608-.634 2.608-1.531 0-.3-.084-1.005-.802-1.375-.61-.311-1.208-.311-2.236-.311-.73 0-.814 0-1.029-.228a.88.88 0 0 1-.227-.598c0-.203.072-.406.191-.574m1.184.12c-1.052 0-1.052-1.208-1.052-1.483 0-.215 0-.706.203-1.029a1.02 1.02 0 0 1 .837-.466c1.053 0 1.053 1.208 1.053 1.483 0 .215 0 .705-.204 1.028a1.02 1.02 0 0 1-.837.467M2.93 2.2C1.782 2.2.91 1.615.91.933c0-.096.024-.562.478-.873.263-.168.371-.168 1.208-.168.993 0 2.344 0 2.344 1.04 0 .707-.908 1.269-2.009 1.269"/><path id="m" d="M2.057-8.3.395-8.17v.347c.813 0 .909.084.909.67v6.267c0 .538-.132.538-.91.538V0c.336-.024.922-.024 1.28-.024s.957 0 1.292.024v-.347c-.765 0-.909 0-.909-.538z"/><path id="s" d="M7.882-2.75c.203 0 .418 0 .418-.24s-.215-.24-.418-.24h-6.47c-.204 0-.42 0-.42.24s.216.24.42.24z"/><path id="l" d="M8.061-3.875c.167-.072.24-.156.24-.263 0-.12-.049-.192-.24-.275l-6.59-3.11c-.167-.084-.215-.084-.24-.084a.233.233 0 0 0-.238.24c0 .143.095.203.227.263L7.499-4.15 1.244-1.196c-.24.108-.251.203-.251.275 0 .132.107.24.239.24.036 0 .06 0 .215-.084zm-.18 5.514c.204 0 .42 0 .42-.24s-.252-.239-.431-.239H1.423c-.18 0-.43 0-.43.24s.215.239.418.239z"/><path id="a" d="M2.464-3.504c.024-.072.323-.67.765-1.053a1.74 1.74 0 0 1 1.184-.478c.479 0 .646.359.646.837 0 .682-.49 2.045-.73 2.691-.107.287-.167.443-.167.658 0 .538.37.969.945.969 1.112 0 1.53-1.759 1.53-1.83 0-.06-.047-.108-.119-.108-.107 0-.12.036-.18.24C6.065-.599 5.61-.12 5.144-.12c-.12 0-.311-.012-.311-.394 0-.3.131-.658.203-.826.24-.657.742-1.997.742-2.679 0-.717-.419-1.255-1.328-1.255-1.064 0-1.626.753-1.842 1.052-.036-.682-.526-1.052-1.052-1.052-.383 0-.646.227-.85.634C.49-4.21.324-3.492.324-3.444s.048.107.131.107c.096 0 .108-.012.18-.287.191-.73.407-1.411.885-1.411.275 0 .37.191.37.55 0 .263-.119.73-.203 1.1l-.335 1.292c-.047.227-.179.765-.239.98C1.03-.8.897-.238.897-.178c0 .167.132.299.311.299a.46.46 0 0 0 .407-.252c.024-.06.131-.478.191-.717l.263-1.077z"/></defs><g fill="none" stroke="#000" stroke-miterlimit="10"><g stroke-width=".3985"><path d="M85.728 15.06a3.523 3.523 0 1 0-7.046 0 3.523 3.523 0 0 0 7.046 0ZM51.712 32.068a3.523 3.523 0 1 0-7.046 0 3.523 3.523 0 0 0 7.046 0ZM78.876 16.724l-27.358 13.68"/></g><path stroke-dasharray=".70865 1.99255" stroke-width=".70865" d="M45.557 34.7 31.181 49.076"/><path stroke-width=".3985" d="M26.2 91.596a3.523 3.523 0 1 0-7.046 0 3.523 3.523 0 0 0 7.046 0Z"/><path stroke-dasharray=".70865 1.99255" stroke-width=".70865" d="m29.322 76.093-5.18 12.082"/></g><path fill="#bfbfbf" d="M19.113 111.44a3.523 3.523 0 1 0-7.046 0 3.523 3.523 0 0 0 7.046 0"/><path fill="none" stroke="#000" stroke-miterlimit="10" stroke-width=".3985" d="M19.113 111.44a3.523 3.523 0 1 0-7.046 0 3.523 3.523 0 0 0 7.046 0ZM21.425 95.101l-4.583 12.833"/><path fill="#bfbfbf" d="M33.286 111.44a3.523 3.523 0 1 0-7.045 0 3.523 3.523 0 0 0 7.045 0"/><path fill="none" stroke="#000" stroke-miterlimit="10" stroke-width=".3985" d="M33.286 111.44a3.523 3.523 0 1 0-7.045 0 3.523 3.523 0 0 0 7.045 0ZM23.929 95.101l4.583 12.833"/><path fill="#bfbfbf" d="M43.208 91.596a3.523 3.523 0 1 0-7.046 0 3.523 3.523 0 0 0 7.046 0"/><g fill="none" stroke="#000" stroke-miterlimit="10"><path stroke-width=".3985" d="M43.208 91.596a3.523 3.523 0 1 0-7.046 0 3.523 3.523 0 0 0 7.046 0Z"/><path stroke-dasharray=".70865 1.99255" stroke-width=".70865" d="m33.04 76.093 5.179 12.082M50.82 34.7l14.377 14.376"/><path stroke-width=".3985" d="M77.224 91.596a3.523 3.523 0 1 0-7.046 0 3.523 3.523 0 0 0 7.046 0Z"/><path stroke-dasharray=".70865 1.99255" stroke-width=".70865" d="m67.056 76.093 5.179 12.082"/></g><path fill="#bfbfbf" d="M70.137 111.44a3.523 3.523 0 1 0-7.045 0 3.523 3.523 0 0 0 7.045 0"/><path fill="none" stroke="#000" stroke-miterlimit="10" stroke-width=".3985" d="M70.137 111.44a3.523 3.523 0 1 0-7.045 0 3.523 3.523 0 0 0 7.045 0ZM72.45 95.101l-4.584 12.833"/><path fill="#bfbfbf" d="M84.31 111.44a3.523 3.523 0 1 0-7.045 0 3.523 3.523 0 0 0 7.045 0"/><g fill="none" stroke="#000" stroke-miterlimit="10"><g stroke-width=".3985"><path d="M84.31 111.44a3.523 3.523 0 1 0-7.045 0 3.523 3.523 0 0 0 7.045 0ZM74.953 95.101l4.583 12.833M119.744 32.068a3.523 3.523 0 1 0-7.046 0 3.523 3.523 0 0 0 7.046 0ZM85.534 16.724l27.358 13.68"/></g><path stroke-dasharray=".70865 1.99255" stroke-width=".70865" d="M113.59 34.7 99.212 49.076"/></g><path fill="#bfbfbf" d="M94.232 91.596a3.523 3.523 0 1 0-7.046 0 3.523 3.523 0 0 0 7.046 0"/><g fill="none" stroke="#000" stroke-miterlimit="10"><path stroke-width=".3985" d="M94.232 91.596a3.523 3.523 0 1 0-7.046 0 3.523 3.523 0 0 0 7.046 0Z"/><path stroke-dasharray=".70865 1.99255" stroke-width=".70865" d="m97.354 76.093-5.179 12.082"/><path stroke-width=".3985" d="M111.24 91.596a3.523 3.523 0 1 0-7.045 0 3.523 3.523 0 0 0 7.045 0Z"/><path stroke-dasharray=".70865 1.99255" stroke-width=".70865" d="m101.072 76.093 5.18 12.082"/></g><path fill="#bfbfbf" d="M104.153 111.44a3.523 3.523 0 1 0-7.045 0 3.523 3.523 0 0 0 7.045 0"/><path fill="none" stroke="#000" stroke-miterlimit="10" stroke-width=".3985" d="M104.153 111.44a3.523 3.523 0 1 0-7.045 0 3.523 3.523 0 0 0 7.045 0ZM106.466 95.101l-4.584 12.833"/><path fill="#bfbfbf" d="M118.327 111.44a3.523 3.523 0 1 0-7.046 0 3.523 3.523 0 0 0 7.046 0"/><g fill="none" stroke="#000" stroke-miterlimit="10"><path stroke-width=".3985" d="M118.327 111.44a3.523 3.523 0 1 0-7.046 0 3.523 3.523 0 0 0 7.046 0ZM108.969 95.101l4.583 12.833"/><path stroke-dasharray=".70865 1.99255" stroke-width=".70865" d="m118.853 34.7 14.376 14.376"/></g><path fill="#bfbfbf" d="M128.248 91.596a3.523 3.523 0 1 0-7.045 0 3.523 3.523 0 0 0 7.045 0"/><path fill="none" stroke="#000" stroke-miterlimit="10" stroke-width=".3985" d="M128.248 91.596a3.523 3.523 0 1 0-7.045 0 3.523 3.523 0 0 0 7.045 0Z"/><path fill="none" stroke="#000" stroke-dasharray=".70865 1.99255" stroke-miterlimit="10" stroke-width=".70865" d="m131.37 76.093-5.179 12.082"/><path d="M11.06 122.917c.747 1.495 2.769 2.974 5.26 2.974.821 0 .821-1.245 0-1.245-2.491 0-3.956-.513-4.704-2.007-.183-.368-.74-.09-.557.278M71.145 127.62c-.747-1.494-2.77-2.974-5.26-2.974-.822 0-.822 1.245 0 1.245 2.49 0 3.956.513 4.703 2.008.184.367.74.089.557-.279"/><path fill="none" stroke="#000" stroke-miterlimit="10" stroke-width="1.24535" d="M16.32 125.269h49.565"/><path d="M71.145 127.899c.747-1.495 2.212-2.008 4.703-2.008.822 0 .822-1.245 0-1.245-2.491 0-4.513 1.48-5.26 2.974-.184.368.373.646.557.279M130.116 122.639c-.747 1.494-2.212 2.007-4.703 2.007-.822 0-.822 1.245 0 1.245 2.49 0 4.513-1.48 5.26-2.974.184-.367-.373-.646-.557-.278"/><path fill="none" stroke="#000" stroke-miterlimit="10" stroke-width="1.24535" d="M75.848 125.269h49.565"/><g transform="translate(19.934 198.538)scale(1.0004)"><use xlink:href="#a" x="10.209097" y="-56.962861"/><use xlink:href="#b" x="21.098468" y="-56.962861"/><use xlink:href="#c" x="24.351587" y="-56.962861"/><use xlink:href="#d" x="29.554187" y="-56.962861"/><use xlink:href="#e" x="35.41459" y="-56.962861"/><use xlink:href="#f" x="42.877628" y="-56.962861"/><use xlink:href="#g" x="49.383869" y="-56.962861"/><use xlink:href="#h" x="55.56719" y="-56.962861"/><use xlink:href="#c" x="62.073429" y="-56.962861"/><use xlink:href="#i" x="67.27603" y="-56.962861"/><use xlink:href="#j" x="75.791548" y="-56.962861"/></g><path fill="#bfbfbf" d="M106.839 138.21a3.189 3.189 0 1 0-6.378 0 3.189 3.189 0 0 0 6.378 0"/><path fill="none" stroke="#000" stroke-miterlimit="10" stroke-width=".3985" d="M106.839 138.21a3.189 3.189 0 1 0-6.378 0 3.189 3.189 0 0 0 6.378 0Z"/><use xlink:href="#k" x="87.138972" y="-56.962861" transform="translate(19.934 198.538)scale(1.0004)"/><path d="M150.098 13.921c1.495.747 2.007 2.212 2.007 4.703 0 .822 1.246.822 1.246 0 0-2.49-1.48-4.513-2.974-5.26-.368-.184-.646.373-.279.557M155.358 64.388c-1.494-.747-2.007-2.212-2.007-4.702 0-.822-1.246-.822-1.246 0 0 2.49 1.48 4.512 2.975 5.26.367.183.646-.374.278-.558"/><path fill="none" stroke="#000" stroke-miterlimit="10" stroke-width="1.24535" d="M152.728 18.624v41.062"/><path d="M155.08 64.388c-1.495.748-2.975 2.77-2.975 5.26 0 .822 1.246.822 1.246 0 0-2.49.513-3.955 2.007-4.703.368-.183.09-.74-.279-.557M150.377 115.97c1.494-.747 2.974-2.77 2.974-5.26 0-.822-1.246-.822-1.246 0 0 2.49-.512 3.956-2.007 4.703-.367.184-.089.74.279.557"/><path fill="none" stroke="#000" stroke-miterlimit="10" stroke-width="1.24535" d="M152.728 69.648v41.062"/><g transform="translate(150.309 124.596)scale(1.0004)"><use xlink:href="#l" x="10.209097" y="-56.962861"/><use xlink:href="#m" x="22.833166" y="-56.962861"/><use xlink:href="#n" x="26.074327" y="-56.962861"/><use xlink:href="#a" x="34.097685" y="-56.962861"/></g><g fill="none" stroke="#000" stroke-miterlimit="10"><g stroke-width=".3985"><path d="M284.155 29.233a3.523 3.523 0 1 0-7.045 0 3.523 3.523 0 0 0 7.045 0ZM250.14 46.241a3.523 3.523 0 1 0-7.046 0 3.523 3.523 0 0 0 7.045 0ZM277.304 30.898l-27.359 13.68"/></g><path stroke-dasharray=".70865 1.99255" stroke-width=".70865" d="M243.985 48.873 229.609 63.25"/></g><path fill="#bfbfbf" d="M224.627 105.77a3.523 3.523 0 1 0-7.045 0 3.523 3.523 0 0 0 7.045 0"/><path fill="none" stroke="#000" stroke-miterlimit="10" stroke-width=".3985" d="M224.627 105.77a3.523 3.523 0 1 0-7.045 0 3.523 3.523 0 0 0 7.045 0Z"/><path fill="none" stroke="#000" stroke-dasharray=".70865 1.99255" stroke-miterlimit="10" stroke-width=".70865" d="m227.75 90.266-5.18 12.083"/><path fill="#bfbfbf" d="M241.635 105.77a3.523 3.523 0 1 0-7.045 0 3.523 3.523 0 0 0 7.045 0"/><g fill="none" stroke="#000" stroke-miterlimit="10"><path stroke-width=".3985" d="M241.635 105.77a3.523 3.523 0 1 0-7.045 0 3.523 3.523 0 0 0 7.045 0Z"/><path stroke-dasharray=".70865 1.99255" stroke-width=".70865" d="m231.468 90.266 5.179 12.083M249.248 48.873l14.377 14.377"/></g><path fill="#bfbfbf" d="M258.643 105.77a3.523 3.523 0 1 0-7.045 0 3.523 3.523 0 0 0 7.045 0"/><path fill="none" stroke="#000" stroke-miterlimit="10" stroke-width=".3985" d="M258.643 105.77a3.523 3.523 0 1 0-7.045 0 3.523 3.523 0 0 0 7.045 0Z"/><path fill="none" stroke="#000" stroke-dasharray=".70865 1.99255" stroke-miterlimit="10" stroke-width=".70865" d="m261.766 90.266-5.18 12.083"/><path fill="#bfbfbf" d="M275.651 105.77a3.523 3.523 0 1 0-7.045 0 3.523 3.523 0 0 0 7.045 0"/><g fill="none" stroke="#000" stroke-miterlimit="10"><path stroke-width=".3985" d="M275.651 105.77a3.523 3.523 0 1 0-7.045 0 3.523 3.523 0 0 0 7.045 0Z"/><path stroke-dasharray=".70865 1.99255" stroke-width=".70865" d="m265.484 90.266 5.179 12.083"/><path stroke-width=".3985" d="M318.172 46.241a3.523 3.523 0 1 0-7.046 0 3.523 3.523 0 0 0 7.046 0ZM283.962 30.898l27.358 13.68"/><path stroke-dasharray=".70865 1.99255" stroke-width=".70865" d="M312.017 48.873 297.641 63.25"/></g><path fill="#bfbfbf" d="M292.66 105.77a3.523 3.523 0 1 0-7.046 0 3.523 3.523 0 0 0 7.046 0"/><path fill="none" stroke="#000" stroke-miterlimit="10" stroke-width=".3985" d="M292.66 105.77a3.523 3.523 0 1 0-7.046 0 3.523 3.523 0 0 0 7.046 0Z"/><path fill="none" stroke="#000" stroke-dasharray=".70865 1.99255" stroke-miterlimit="10" stroke-width=".70865" d="m295.782 90.266-5.18 12.083"/><path fill="#bfbfbf" d="M309.668 105.77a3.523 3.523 0 1 0-7.046 0 3.523 3.523 0 0 0 7.046 0"/><g fill="none" stroke="#000" stroke-miterlimit="10"><path stroke-width=".3985" d="M309.668 105.77a3.523 3.523 0 1 0-7.046 0 3.523 3.523 0 0 0 7.046 0Z"/><path stroke-dasharray=".70865 1.99255" stroke-width=".70865" d="m299.5 90.266 5.179 12.083M317.28 48.873l14.377 14.377"/></g><path fill="#bfbfbf" d="M326.676 105.77a3.523 3.523 0 1 0-7.046 0 3.523 3.523 0 0 0 7.046 0"/><path fill="none" stroke="#000" stroke-miterlimit="10" stroke-width=".3985" d="M326.676 105.77a3.523 3.523 0 1 0-7.046 0 3.523 3.523 0 0 0 7.046 0Z"/><path fill="none" stroke="#000" stroke-dasharray=".70865 1.99255" stroke-miterlimit="10" stroke-width=".70865" d="m329.798 90.266-5.179 12.083"/><path fill="#bfbfbf" d="M343.684 105.77a3.523 3.523 0 1 0-7.046 0 3.523 3.523 0 0 0 7.046 0"/><path fill="none" stroke="#000" stroke-miterlimit="10" stroke-width=".3985" d="M343.684 105.77a3.523 3.523 0 1 0-7.046 0 3.523 3.523 0 0 0 7.046 0Z"/><path fill="none" stroke="#000" stroke-dasharray=".70865 1.99255" stroke-miterlimit="10" stroke-width=".70865" d="m333.516 90.266 5.18 12.083"/><path d="M215.157 117.248c.747 1.494 2.769 2.974 5.26 2.974.821 0 .821-1.245 0-1.245-2.491 0-3.956-.513-4.703-2.008-.184-.367-.741-.089-.557.279M280.911 121.95c-.747-1.494-2.769-2.973-5.26-2.973-.822 0-.822 1.245 0 1.245 2.491 0 3.956.513 4.703 2.007.184.368.741.09.557-.278"/><path fill="none" stroke="#000" stroke-miterlimit="10" stroke-width="1.24535" d="M220.416 119.6h55.235"/><path d="M280.911 122.23c.747-1.495 2.212-2.008 4.703-2.008.822 0 .822-1.245 0-1.245-2.49 0-4.513 1.48-5.26 2.974-.184.367.373.646.557.278M345.552 116.97c-.747 1.494-2.212 2.007-4.703 2.007-.822 0-.822 1.245 0 1.245 2.49 0 4.513-1.48 5.26-2.974.184-.368-.373-.646-.557-.279"/><path fill="none" stroke="#000" stroke-miterlimit="10" stroke-width="1.24535" d="M285.614 119.6h55.235"/><use xlink:href="#o" x="10.209097" y="-56.962861" transform="translate(231.931 193.8)scale(1.0004)"/><g transform="matrix(.99999 0 0 .99999 231.931 193.8)"><use xlink:href="#p" x="16.057799" y="-61.277231"/><use xlink:href="#q" x="21.195736" y="-61.277231"/><use xlink:href="#r" x="27.781653" y="-61.277231"/></g><g transform="translate(231.931 193.8)scale(1.0004)"><use xlink:href="#b" x="36.426623" y="-56.962861"/><use xlink:href="#c" x="39.679745" y="-56.962861"/><use xlink:href="#d" x="44.882343" y="-56.962861"/><use xlink:href="#e" x="50.742744" y="-56.962861"/><use xlink:href="#f" x="58.217744" y="-56.962861"/><use xlink:href="#g" x="64.723985" y="-56.962861"/><use xlink:href="#h" x="70.907307" y="-56.962861"/><use xlink:href="#c" x="77.413549" y="-56.962861"/><use xlink:href="#i" x="82.616147" y="-56.962861"/></g><path d="M359.865 28.095c1.494.747 2.007 2.212 2.007 4.702 0 .822 1.245.822 1.245 0 0-2.49-1.48-4.512-2.974-5.26-.368-.183-.646.374-.278.558M365.124 68.64c-1.494-.747-2.007-2.212-2.007-4.702 0-.822-1.245-.822-1.245 0 0 2.49 1.48 4.512 2.974 5.26.368.183.646-.374.278-.558"/><path fill="none" stroke="#000" stroke-miterlimit="10" stroke-width="1.24535" d="M362.495 32.797v31.14"/><path d="M364.846 68.64c-1.495.748-2.974 2.77-2.974 5.26 0 .822 1.245.822 1.245 0 0-2.49.513-3.955 2.007-4.703.368-.183.09-.74-.278-.557M360.143 110.3c1.495-.747 2.974-2.769 2.974-5.26 0-.821-1.245-.821-1.245 0 0 2.491-.513 3.956-2.007 4.703-.368.184-.09.741.278.557"/><path fill="none" stroke="#000" stroke-miterlimit="10" stroke-width="1.24535" d="M362.495 73.9v31.14"/><g transform="translate(360.076 129.213)scale(1.0004)"><use xlink:href="#a" x="10.209097" y="-56.962861"/><use xlink:href="#s" x="19.856968" y="-56.962861"/><use xlink:href="#t" x="31.816768" y="-56.962861"/></g></svg>