<svg xmlns="http://www.w3.org/2000/svg" xmlns:xlink="http://www.w3.org/1999/xlink" width="147.8pt" height="113.45pt" viewBox="0 0 147.8 113.45"><defs><path id="g" d="M2.503-5.077c0-.215-.016-.223-.232-.223-.326.319-.749.51-1.506.51v.263c.215 0 .646 0 1.108-.215v4.088c0 .295-.024.391-.781.391h-.28V0c.328-.024 1.013-.024 1.372-.024s1.052 0 1.379.024v-.263h-.28c-.757 0-.78-.096-.78-.39z"/><path id="k" d="M2.248-1.626c.127-.12.462-.382.59-.494.493-.454.964-.893.964-1.618 0-.948-.797-1.562-1.794-1.562-.956 0-1.586.725-1.586 1.435 0 .39.311.446.423.446a.41.41 0 0 0 .414-.423c0-.414-.398-.414-.494-.414a1.23 1.23 0 0 1 1.156-.781c.741 0 1.124.63 1.124 1.3 0 .828-.582 1.434-1.523 2.398L.518-.303C.422-.215.422-.199.422 0h3.149l.23-1.427h-.246c-.024.16-.088.558-.184.71-.048.063-.653.063-.78.063H1.17z"/><path id="f" d="M2.2-4.294c-.203.012-.25.024-.25.132 0 .12.06.12.275.12h.55c1.016 0 1.47.837 1.47 1.985 0 1.567-.812 1.985-1.399 1.985-.574 0-1.554-.275-1.901-1.064.383.06.73-.156.73-.586a.565.565 0 0 0-.587-.586c-.287 0-.598.167-.598.622C.49-.622 1.555.25 2.882.25c1.424 0 2.476-1.088 2.476-2.296 0-1.1-.885-1.962-2.033-2.165 1.04-.299 1.71-1.172 1.71-2.105 0-.945-.98-1.638-2.14-1.638-1.197 0-2.082.73-2.082 1.602 0 .479.371.574.55.574.252 0 .539-.18.539-.538 0-.383-.287-.55-.55-.55-.072 0-.096 0-.132.012.454-.813 1.579-.813 1.638-.813.395 0 1.173.179 1.173 1.351 0 .227-.036.897-.383 1.411-.359.527-.766.563-1.089.574z"/><path id="h" d="M4.318-7.786c0-.227 0-.287-.168-.287-.096 0-.131 0-.227.144l-3.6 5.585v.347h3.145V-.91c0 .443-.024.562-.897.562h-.239V0c.275-.024 1.22-.024 1.555-.024s1.292 0 1.567.024v-.347h-.24c-.86 0-.896-.12-.896-.562v-1.088h1.208v-.347H4.318zm-.79.933v4.509H.622z"/><path id="l" d="M1.53-6.853c.515.167.934.18 1.065.18 1.352 0 2.213-.993 2.213-1.16 0-.049-.024-.108-.096-.108-.024 0-.048 0-.155.047a3.9 3.9 0 0 1-1.555.323c-.79 0-1.352-.239-1.579-.335-.083-.035-.107-.035-.12-.035-.095 0-.095.071-.095.263v3.552c0 .215 0 .287.143.287.06 0 .072-.012.192-.156.335-.49.897-.777 1.495-.777.634 0 .945.586 1.04.79.204.466.216 1.052.216 1.506s0 1.136-.335 1.675c-.263.43-.73.73-1.256.73-.79 0-1.567-.539-1.782-1.412.06.024.131.036.191.036.204 0 .527-.12.527-.526 0-.335-.228-.527-.527-.527-.215 0-.526.108-.526.574 0 1.017.813 2.177 2.14 2.177 1.352 0 2.536-1.136 2.536-2.655 0-1.423-.956-2.607-2.212-2.607-.682 0-1.208.299-1.52.634z"/><path id="d" d="M6.41-1.029c0-.095-.239-.382-.358-.382-.036 0-.084 0-.168.083-.885.993-2.093.993-2.26.993-.67 0-1.017-.395-1.017-1.1 0-.3.084-.766.192-1.172h.478c.718 0 3.086 0 3.086-1.65 0-.718-.67-1.149-1.555-1.149-2.07 0-3.492 1.567-3.492 3.409 0 1.291.8 2.093 2.296 2.093.37 0 1.076-.036 1.686-.263.646-.252 1.113-.718 1.113-.862m-.825-3.24c0 1.231-1.95 1.231-2.679 1.231.168-.598.287-.957.634-1.34a1.71 1.71 0 0 1 1.268-.597c.502 0 .777.323.777.705"/><path id="a" d="M3.959-1.77c0-.168-.156-.168-.335-.168-.287 0-.3.012-.383.311-.096.395-.31 1.292-.717 1.292-.144 0-.228-.096-.228-.37 0-.228.024-.324.072-.515l1.674-6.674c.012-.06.036-.131.036-.191 0-.227-.215-.215-.382-.203l-1.471.071c-.132.012-.371.012-.371.36 0 .215.215.215.323.215.143 0 .359.012.502.023L1.136-1.41c-.048.191-.048.275-.048.347 0 .765.718 1.16 1.388 1.16.562 0 .86-.407 1.016-.646a4 4 0 0 0 .467-1.22"/><path id="b" d="M7.116-3.397c0-1.232-.849-2.009-2.272-2.009-2.368 0-3.564 1.997-3.564 3.492 0 1.232.849 2.01 2.272 2.01 2.356 0 3.564-1.986 3.564-3.493M5.203-1.483C4.856-.73 4.186-.335 3.576-.335c-.419 0-.993-.203-.993-1.052 0-.467.311-1.806.61-2.44.347-.754 1.017-1.148 1.627-1.148.418 0 .993.203.993 1.052 0 .467-.311 1.806-.61 2.44"/><path id="j" d="M7.128-3.492c0-1.424-1.004-1.914-1.913-1.914-.73 0-1.292.383-1.58.61-.226-.419-.765-.61-1.231-.61-.562 0-.861.407-1.017.646a4 4 0 0 0-.466 1.22c0 .167.155.167.335.167.287 0 .299-.012.383-.31.095-.395.31-1.292.717-1.292.144 0 .227.095.227.37 0 .228-.024.323-.071.515L1.1 1.567c-.048.18-.06.191-.418.191-.18 0-.383 0-.383.347 0 .143.12.215.227.215.335 0 .718-.036 1.065-.036.418 0 .849.036 1.255.036.084 0 .323 0 .323-.347 0-.203-.203-.215-.323-.215-.167 0-.358 0-.514-.012l.503-2.033c.382.335.813.383 1.088.383 2.01 0 3.205-1.986 3.205-3.588m-1.83 1.818c-.406 1.16-1.064 1.34-1.375 1.34-.419 0-.754-.264-.885-.742L3.743-3.9c.024-.084.024-.12.036-.215.515-.682 1.017-.861 1.388-.861.275 0 .681.167.681.849 0 .646-.418 2.117-.55 2.452"/><path id="e" d="M6.722-4.341c0-.634-.646-1.065-1.52-1.065-.454 0-1.016.132-1.53.646-.204-.37-.682-.646-1.268-.646-.562 0-.861.407-1.017.646a4 4 0 0 0-.466 1.22c0 .167.155.167.335.167.287 0 .299-.012.383-.31.095-.395.31-1.292.717-1.292.144 0 .227.095.227.37 0 .228-.024.323-.071.515l-.85 3.408c-.047.18-.047.204-.047.263 0 .371.287.515.538.515.084 0 .598-.024.753-.646l.814-3.253c.071-.275.61-1.172 1.447-1.172.131 0 .418.012.658.203a.91.91 0 0 0-.563.801c0 .3.228.55.598.55.455 0 .862-.382.862-.92"/><path id="i" d="M7.834-1.77c0-.168-.156-.168-.335-.168-.287 0-.3.012-.383.311-.095.395-.31 1.292-.717 1.292-.144 0-.228-.096-.228-.37 0-.228.024-.324.072-.515l.825-3.313c.048-.18.048-.203.048-.263 0-.37-.287-.514-.538-.514-.155 0-.622.072-.765.67l-.826 3.36c-.048.216-.06.263-.394.598-.168.156-.467.347-.826.347-.598 0-.622-.562-.622-.825 0-.718.407-1.782.694-2.536.108-.299.168-.442.168-.645 0-.67-.61-1.065-1.256-1.065C1.507-5.406.92-3.79.92-3.54c0 .167.155.167.335.167.227 0 .287 0 .335-.155.095-.311.418-1.447 1.1-1.447.06 0 .167 0 .167.215 0 .251-.143.622-.215.79-.383 1.028-.717 1.889-.717 2.559 0 1.088.777 1.507 1.77 1.507.335 0 .837-.06 1.423-.61.227.418.765.61 1.232.61.562 0 .86-.407 1.016-.646a4 4 0 0 0 .467-1.22"/><path id="c" d="M9.46-4.365c0-.885-.538-1.053-.765-1.053-.419 0-.861.43-.861.861 0 .287.167.407.287.503.239.167.466.418.466.777 0 .18-.287 1.316-.562 1.95-.251.585-.598.992-1.112.992-.67 0-.766-.526-.766-.897 0-.418.287-1.519.61-2.763.108-.394.18-.681.18-.801 0-.37-.287-.514-.538-.514-.586 0-.73.538-.778.765l-.406 1.627c-.12.478-.287 1.124-.287 1.459 0 .12 0 .18.023.287-.227.514-.538.837-.932.837-.85 0-.85-.73-.85-.933 0-.67.323-1.507.694-2.511.084-.204.144-.36.144-.562 0-.67-.61-1.065-1.256-1.065C1.507-5.406.92-3.79.92-3.54c0 .167.155.167.335.167.227 0 .287 0 .335-.155.095-.311.418-1.447 1.1-1.447.06 0 .167 0 .167.215 0 .251-.143.622-.215.79-.442 1.16-.705 1.877-.705 2.487C1.938-.155 3.11.096 3.947.096c.586 0 1.004-.275 1.268-.61.406.514 1.124.61 1.626.61.873 0 1.46-.598 1.878-1.555.359-.825.741-2.308.741-2.906"/></defs><g transform="translate(84.267 40.869)scale(1.0004)"><use xlink:href="#a" x="-60.486275" y="-15.444198"/><use xlink:href="#b" x="-56.93416" y="-15.444198"/><use xlink:href="#c" x="-49.865798" y="-15.444198"/><use xlink:href="#d" x="-40.680517" y="-15.444198"/><use xlink:href="#e" x="-34.317798" y="-15.444198"/></g><path fill="none" stroke="#000" stroke-miterlimit="10" stroke-width=".3985" d="M11.538 56.558h56.694V33.881H11.538ZM39.885 56.558V33.881"/><use xlink:href="#f" x="-60.486275" y="-15.444198" transform="translate(80.881 63.613)scale(1.0004)"/><use xlink:href="#g" x="-54.608315" y="-13.644829" transform="matrix(.99999 0 0 .99999 80.881 63.613)"/><use xlink:href="#h" x="-60.486275" y="-15.444198" transform="translate(111.594 64.51)scale(1.0004)"/><path fill="none" stroke="#000" stroke-miterlimit="10" stroke-width=".3985" d="m39.885 62.227 4.028 8.058"/><path d="m45.3 73.059-.493-4.748-.85 2.063-2.159-.56Z"/><path fill="none" stroke="#000" stroke-miterlimit="10" stroke-width=".398468" d="m45.3 73.059-.493-4.748-.85 2.063-2.159-.56Z"/><g transform="translate(151.773 40.869)scale(1.0004)"><use xlink:href="#i" x="-60.486275" y="-15.444198"/><use xlink:href="#j" x="-53.059119" y="-15.444198"/><use xlink:href="#j" x="-45.990757" y="-15.444198"/><use xlink:href="#d" x="-39.628034" y="-15.444198"/><use xlink:href="#e" x="-33.265311" y="-15.444198"/></g><path fill="none" stroke="#000" stroke-miterlimit="10" stroke-width=".3985" d="M79.57 56.558h56.694V33.881H79.57ZM107.917 56.558V33.881"/><use xlink:href="#f" x="-60.486275" y="-15.444198" transform="translate(148.913 63.613)scale(1.0004)"/><use xlink:href="#k" x="-54.608315" y="-13.644829" transform="matrix(.99999 0 0 .99999 148.913 63.613)"/><use xlink:href="#l" x="-60.486275" y="-15.444198" transform="translate(179.626 64.51)scale(1.0004)"/><path fill="none" stroke="#000" stroke-miterlimit="10" stroke-width=".3985" d="m107.917 62.227-4.028 8.058"/><path d="m102.502 73.059 3.502-3.244-2.16.559-.849-2.063Z"/><g fill="none" stroke="#000" stroke-miterlimit="10"><path stroke-width=".398468" d="m102.502 73.059 3.502-3.244-2.16.559-.849-2.063Z"/><g stroke-width=".3985"><path d="M17.207 101.913h113.388V79.235H17.207ZM45.554 101.913V79.235M73.901 101.913V79.235M102.248 101.913V79.235"/></g></g><use xlink:href="#f" x="-60.486275" y="-15.444198" transform="translate(86.55 108.968)scale(1.0004)"/><use xlink:href="#g" x="-54.608315" y="-13.644829" transform="matrix(.99999 0 0 .99999 86.55 108.968)"/><use xlink:href="#f" x="-60.486275" y="-15.444198" transform="translate(114.897 108.968)scale(1.0004)"/><use xlink:href="#k" x="-54.608315" y="-13.644829" transform="matrix(.99999 0 0 .99999 114.897 108.968)"/><use xlink:href="#h" x="-60.486275" y="-15.444198" transform="translate(145.61 109.864)scale(1.0004)"/><use xlink:href="#l" x="-60.486275" y="-15.444198" transform="translate(173.957 109.864)scale(1.0004)"/></svg>