<svg xmlns="http://www.w3.org/2000/svg" xmlns:xlink="http://www.w3.org/1999/xlink" width="432.31pt" height="252.09pt" viewBox="0 0 432.31 252.09"><defs><path id="P" d="M4.528-1.298c0-.11-.088-.131-.142-.131-.098 0-.12.065-.142.153C3.862-.153 2.88-.153 2.771-.153c-.545 0-.982-.327-1.233-.73-.327-.524-.327-1.244-.327-1.637h3.044c.24 0 .273 0 .273-.23 0-1.08-.59-2.138-1.953-2.138-1.266 0-2.27 1.124-2.27 2.488 0 1.462 1.146 2.52 2.4 2.52 1.332 0 1.823-1.211 1.823-1.418m-.72-1.451H1.222c.065-1.626.982-1.899 1.353-1.899 1.123 0 1.233 1.473 1.233 1.899"/><path id="R" d="M5.291-4.408a.534.534 0 0 0-.556-.534c-.218 0-.698.065-1.157.513a1.82 1.82 0 0 0-1.156-.393C1.407-4.822.655-4.07.655-3.23c0 .48.24.894.512 1.123A1.5 1.5 0 0 0 .83-1.2c0 .338.142.753.48.97C.655-.043.305.426.305.863c0 .785 1.08 1.385 2.412 1.385 1.287 0 2.422-.556 2.422-1.407 0-.382-.153-.938-.71-1.244-.578-.305-1.21-.305-1.876-.305-.273 0-.742 0-.818-.011-.35-.044-.579-.382-.579-.731 0-.044 0-.295.186-.513.425.306.873.338 1.08.338 1.015 0 1.767-.752 1.767-1.592 0-.404-.174-.808-.447-1.059.393-.37.786-.425.982-.425 0 0 .076 0 .11.01-.12.044-.175.164-.175.295a.31.31 0 0 0 .316.317c.11 0 .316-.077.316-.328m-1.92 1.179c0 .294-.01.643-.174.916-.088.131-.339.436-.775.436-.95 0-.95-1.09-.95-1.341 0-.295.012-.644.175-.917.088-.13.339-.436.775-.436.95 0 .95 1.09.95 1.342m1.2 4.09c0 .59-.774 1.136-1.843 1.136C1.626 1.997.873 1.44.873.862c0-.502.414-.906.894-.938h.644c.938 0 2.16 0 2.16.938"/><path id="S" d="M3.633 0v-.338h-.284c-.862 0-.894-.12-.894-.513v-5.75c0-.392.032-.512.894-.512h.284v-.339c-.382.033-1.244.033-1.658.033-.426 0-1.288 0-1.67-.033v.339H.59c.862 0 .895.12.895.512v5.75c0 .393-.033.513-.895.513H.305V0C.687-.033 1.55-.033 1.964-.033c.425 0 1.287 0 1.669.033"/><path id="O" d="M9.59 0v-.338h-.262c-.84 0-.862-.12-.862-.513v-5.75c0-.392.022-.512.862-.512h.262v-.339H7.746c-.284 0-.284.011-.36.208l-2.39 6.142-2.367-6.11c-.098-.24-.13-.24-.382-.24H.404v.339h.262c.84 0 .861.12.861.512v5.455c0 .295 0 .808-1.123.808V0L1.68-.033 2.957 0v-.338c-1.124 0-1.124-.513-1.124-.808v-5.88h.01L4.474-.24c.055.142.11.24.218.24.12 0 .153-.087.197-.207l2.684-6.906h.01v6.262c0 .393-.021.513-.861.513h-.262V0c.403-.033 1.145-.033 1.57-.033s1.157 0 1.56.033"/><path id="T" d="M5.837 0v-.338c-.567 0-.84 0-.851-.328v-2.083c0-.939 0-1.277-.338-1.67-.153-.185-.513-.403-1.146-.403-.796 0-1.31.469-1.615 1.145v-1.145l-1.538.12v.338c.764 0 .851.076.851.611v2.924c0 .49-.12.49-.85.49V0l1.232-.033L2.804 0v-.338c-.731 0-.851 0-.851-.491v-2.008c0-1.134.775-1.745 1.473-1.745.687 0 .807.589.807 1.21v2.543c0 .49-.12.49-.85.49V0l1.232-.033z"/><path id="V" d="M2.095-.578c0-.317-.262-.578-.579-.578s-.578.261-.578.578S1.2 0 1.516 0s.579-.262.579-.578"/><path id="Q" d="M3.971-4.157c0-.349-.338-.665-.807-.665-.797 0-1.19.73-1.342 1.2v-1.2l-1.517.12v.338c.764 0 .851.076.851.611v2.924c0 .49-.12.49-.85.49V0l1.243-.033c.437 0 .95 0 1.386.033v-.338h-.23c-.807 0-.828-.12-.828-.513v-1.68c0-1.08.458-2.051 1.287-2.051.076 0 .098 0 .12.01a.47.47 0 0 0-.251.426c0 .306.23.47.47.47.195 0 .468-.132.468-.48"/><path id="U" d="M3.928-1.396c0-.579-.328-.906-.459-1.037-.36-.35-.785-.436-1.243-.524-.611-.12-1.342-.261-1.342-.894 0-.382.283-.83 1.222-.83 1.2 0 1.254.983 1.276 1.32.011.099.131.099.131.099.142 0 .142-.055.142-.262v-1.102c0-.185 0-.262-.12-.262-.055 0-.077 0-.218.131a1.4 1.4 0 0 1-.186.175c-.414-.306-.862-.306-1.025-.306C.775-4.888.36-4.157.36-3.546c0 .382.175.688.47.928.348.283.654.349 1.44.501.24.044 1.134.219 1.134 1.004 0 .557-.382.993-1.233.993-.916 0-1.31-.622-1.516-1.55C.622-1.81.61-1.854.502-1.854c-.142 0-.142.077-.142.273v1.44C.36.044.36.12.48.12.535.12.546.11.753-.098.775-.12.775-.142.97-.35c.48.458.971.469 1.2.469 1.255 0 1.757-.731 1.757-1.516"/><path id="m" d="M5.669-1.064v-.67h-.263v.67c0 .681-.287.777-.455.777-.454 0-.454-.634-.454-.813v-2.093c0-.646 0-1.125-.526-1.591-.419-.383-.957-.55-1.483-.55-.981 0-1.735.646-1.735 1.423 0 .347.228.514.503.514.287 0 .49-.203.49-.49 0-.49-.43-.49-.61-.49.275-.503.85-.718 1.328-.718.55 0 1.256.455 1.256 1.53v.48C1.316-3.05.407-2.046.407-1.126c0 .946 1.1 1.245 1.83 1.245A1.63 1.63 0 0 0 3.79-.933c.048.562.419.993.933.993.251 0 .945-.168.945-1.124m-1.95-.622C3.72-.514 2.847-.12 2.333-.12c-.586 0-1.076-.43-1.076-1.004 0-1.579 2.033-1.722 2.464-1.746z"/><path id="w" d="M6.16 0v-.347c-.814 0-.91-.084-.91-.67V-8.3l-1.662.131v.347c.813 0 .909.084.909.67v2.643a1.86 1.86 0 0 0-1.495-.765C1.615-5.274.419-4.102.419-2.571c0 1.519 1.136 2.69 2.451 2.69.91 0 1.436-.597 1.603-.825V.12zM4.472-1.4c0 .216 0 .252-.167.515-.287.419-.778.765-1.376.765-.31 0-1.602-.12-1.602-2.44 0-.86.143-1.339.406-1.734.24-.37.718-.741 1.316-.741.741 0 1.16.538 1.28.73.143.203.143.227.143.442z"/><path id="s" d="M4.868-1.423c0-.072-.06-.12-.132-.12-.096 0-.12.06-.143.12C4.282-.42 3.48-.143 2.978-.143s-1.71-.335-1.71-2.404v-.228H4.58c.263 0 .287 0 .287-.227 0-1.208-.646-2.332-2.093-2.332C1.41-5.334.359-4.102.359-2.62.359-1.041 1.579.12 2.906.12c1.424 0 1.962-1.292 1.962-1.543m-.742-1.579H1.28c.095-1.878 1.148-2.093 1.483-2.093 1.28 0 1.351 1.686 1.363 2.093"/><path id="F" d="M5.681-4.856a.56.56 0 0 0-.586-.55c-.622 0-1.088.383-1.256.562a2 2 0 0 0-1.232-.43C1.531-5.274.73-4.461.73-3.54c0 .682.418 1.124.538 1.232-.144.18-.359.526-.359.992 0 .694.419.993.514 1.053-.55.155-1.1.586-1.1 1.208 0 .825 1.124 1.507 2.595 1.507 1.423 0 2.608-.634 2.608-1.531 0-.3-.084-1.005-.802-1.375-.61-.311-1.208-.311-2.236-.311-.73 0-.814 0-1.029-.228a.88.88 0 0 1-.227-.598c0-.203.072-.406.191-.574.562.371 1.04.371 1.172.371 1.077 0 1.878-.813 1.878-1.734 0-.323-.096-.778-.478-1.16.466-.479 1.028-.479 1.088-.479.048 0 .108 0 .155.024-.12.048-.179.168-.179.3 0 .167.12.31.311.31.096 0 .311-.06.311-.323M3.648-3.54c0 .215 0 .705-.204 1.028a1.02 1.02 0 0 1-.837.467c-1.052 0-1.052-1.208-1.052-1.483 0-.215 0-.706.203-1.029a1.02 1.02 0 0 1 .837-.466c1.053 0 1.053 1.208 1.053 1.483M4.939.933c0 .706-.908 1.268-2.009 1.268C1.782 2.2.91 1.615.91.933c0-.096.024-.562.478-.873.263-.168.371-.168 1.208-.168.993 0 2.344 0 2.344 1.04"/><path id="I" d="M3.791 0v-.347h-.263c-.897 0-.933-.12-.933-.562v-6.35c0-.443.036-.563.933-.563h.263v-.347c-.287.024-1.315.024-1.674.024s-1.4 0-1.686-.024v.347h.263c.897 0 .933.12.933.562v6.351c0 .443-.036.562-.933.562H.43V0c.287-.024 1.315-.024 1.674-.024s1.4 0 1.686.024"/><path id="q" d="M2.882 0v-.347c-.777 0-.825-.06-.825-.526v-4.401l-1.626.131v.347c.765 0 .873.072.873.658v3.253c0 .538-.132.538-.91.538V0c.336-.024.91-.024 1.256-.024.132 0 .826 0 1.232.024m-.67-7.224a.58.58 0 1 0-.586.574.576.576 0 0 0 .587-.574"/><path id="u" d="M2.966 0v-.347c-.765 0-.909 0-.909-.538V-8.3L.395-8.17v.347c.813 0 .909.084.909.67v6.267c0 .538-.132.538-.91.538V0c.336-.024.922-.024 1.28-.024s.957 0 1.292.024"/><path id="E" d="M10.19 0v-.347h-.24c-.86 0-.896-.12-.896-.562v-6.35c0-.443.036-.563.897-.563h.239v-.347H8.336c-.263 0-.275.012-.37.24L5.357-1.124 2.751-7.941c-.084-.228-.096-.228-.371-.228H.526v.347h.24c.86 0 .896.12.896.562v6.028c0 .323 0 .885-1.136.885V0c.311-.024.945-.024 1.28-.024s.969 0 1.28.024v-.347c-1.137 0-1.137-.562-1.137-.885v-6.53h.012L4.844-.227c.048.131.084.227.203.227.108 0 .132-.06.203-.24l2.907-7.582h.012v6.913c0 .443-.036.562-.897.562h-.24V0c.276-.024 1.232-.024 1.58-.024s1.303 0 1.578.024"/><path id="y" d="M9.484 0v-.347c-.598 0-.897 0-.909-.359v-2.2c0-1.113 0-1.447-.275-1.83-.347-.467-.909-.538-1.315-.538-.993 0-1.495.717-1.687 1.184-.167-.921-.813-1.184-1.566-1.184-1.16 0-1.615.992-1.71 1.232h-.013v-1.232l-1.626.131v.347c.813 0 .909.084.909.67v3.241c0 .538-.132.538-.91.538V0c.312-.024.958-.024 1.292-.024.347 0 .993 0 1.304.024v-.347c-.765 0-.909 0-.909-.538V-3.11c0-1.255.825-1.925 1.567-1.925s.909.61.909 1.34v2.81c0 .538-.132.538-.91.538V0c.312-.024.958-.024 1.293-.024.346 0 .992 0 1.303.024v-.347c-.765 0-.909 0-.909-.538V-3.11c0-1.255.825-1.925 1.567-1.925s.909.61.909 1.34v2.81c0 .538-.132.538-.909.538V0c.31-.024.957-.024 1.292-.024.346 0 .992 0 1.303.024"/><path id="J" d="M6.231 0v-.347c-.598 0-.897 0-.909-.359v-2.2c0-1.113 0-1.447-.275-1.83-.347-.467-.909-.538-1.315-.538-1.16 0-1.615.992-1.71 1.232h-.013v-1.232l-1.626.131v.347c.813 0 .909.084.909.67v3.241c0 .538-.132.538-.91.538V0c.312-.024.958-.024 1.292-.024.347 0 .993 0 1.304.024v-.347c-.765 0-.909 0-.909-.538V-3.11c0-1.255.825-1.925 1.567-1.925s.909.61.909 1.34v2.81c0 .538-.132.538-.91.538V0c.312-.024.958-.024 1.293-.024.346 0 .992 0 1.303.024"/><path id="M" d="M5.49-2.56c0-1.542-1.172-2.774-2.56-2.774C1.495-5.334.36-4.066.36-2.56.359-1.03 1.555.12 2.919.12c1.41 0 2.57-1.172 2.57-2.68m-.91-.107c0 .419 0 1.16-.31 1.722a1.56 1.56 0 0 1-1.34.801c-.442 0-.98-.19-1.327-.777-.323-.538-.335-1.244-.335-1.746 0-.455 0-1.184.37-1.722a1.53 1.53 0 0 1 1.28-.706c.467 0 .969.215 1.292.682.37.55.37 1.303.37 1.746"/><path id="v" d="M6.076-2.583c0-1.52-1.125-2.691-2.428-2.691-1.053 0-1.615.753-1.65.801v-.801l-1.663.131v.347c.837 0 .909.084.909.61v5.621c0 .538-.132.538-.91.538v.347c.312-.024.958-.024 1.293-.024.346 0 .992 0 1.303.024v-.347c-.765 0-.909 0-.909-.538v-2.08c.216.298.706.765 1.471.765 1.376 0 2.584-1.16 2.584-2.703m-.91 0c0 1.423-.813 2.463-1.733 2.463a1.4 1.4 0 0 1-.957-.382c-.275-.275-.455-.515-.455-.85v-2.463c0-.227 0-.24.132-.43a1.72 1.72 0 0 1 1.4-.766c.896 0 1.614 1.088 1.614 2.428"/><path id="K" d="M3.887 2.906c0-.036 0-.06-.203-.263C2.488 1.435 1.818-.538 1.818-2.978c0-2.32.562-4.318 1.95-5.729.119-.108.119-.131.119-.167 0-.072-.06-.096-.108-.096-.155 0-1.136.861-1.722 2.033-.61 1.208-.885 2.488-.885 3.959 0 1.064.168 2.488.79 3.767.705 1.436 1.686 2.213 1.817 2.213.048 0 .108-.024.108-.096"/><path id="N" d="M3.373-2.978c0-.909-.12-2.392-.79-3.78C1.878-8.192.897-8.97.765-8.97c-.047 0-.107.024-.107.096 0 .036 0 .06.203.263C2.057-7.403 2.727-5.43 2.727-2.99c0 2.32-.562 4.318-1.95 5.729-.12.107-.12.131-.12.167 0 .072.06.096.108.096.156 0 1.137-.861 1.723-2.033.61-1.22.885-2.512.885-3.947"/><path id="H" d="M2.2-.586a.58.58 0 0 0-.573-.574.577.577 0 0 0-.586.574.58.58 0 1 0 1.16 0"/><path id="X" d="M8.575-1.04c0-.072 0-.18-.131-.18-.12 0-.12.072-.132.191-.06.718-.406 1.041-.79 1.041-.55 0-.669-.562-.765-1.196l-.12-.897c-.083-.598-.13-.98-.49-1.352-.131-.131-.442-.454-1.1-.633 1.184-.275 2.105-1.029 2.105-1.95 0-1.16-1.351-2.153-3.074-2.153H.502v.347h.24c.86 0 .897.12.897.562v6.351c0 .443-.036.562-.897.562h-.24V0c.275-.024 1.256-.024 1.603-.024s1.34 0 1.615.024v-.347h-.24c-.86 0-.897-.12-.897-.562v-3.062h1.388c.466 0 .909.132 1.232.467.406.454.406.705.406 1.53 0 .945 0 1.256.526 1.77.18.18.682.455 1.352.455.933 0 1.088-1.04 1.088-1.292M6.04-6.017c0 1.04-.562 1.806-2.117 1.806h-1.34v-3.133c0-.276 0-.419.252-.467.107-.012.466-.012.705-.012.969 0 2.5 0 2.5 1.806"/><path id="n" d="M4.222-4.58c0-.36-.323-.694-.837-.694-1.017 0-1.364 1.1-1.436 1.327h-.011v-1.327l-1.603.131v.347c.813 0 .909.084.909.67v3.241c0 .538-.132.538-.91.538V0c.336-.024.994-.024 1.352-.024.323 0 1.172 0 1.448.024v-.347h-.24c-.873 0-.897-.131-.897-.562v-1.878c0-1.16.479-2.248 1.4-2.248.095 0 .12 0 .167.012-.096.048-.287.12-.287.442a.46.46 0 0 0 .466.479c.24 0 .479-.156.479-.479"/><path id="L" d="M5.848-2.2c0-.73-.275-1.268-.598-1.663-.442-.538-.98-.67-1.447-.79l-1.315-.334c-.61-.156-1.148-.754-1.148-1.52 0-.836.67-1.59 1.602-1.59 1.962 0 2.225 1.938 2.296 2.452.024.143.024.191.144.191.132 0 .132-.06.132-.275v-2.416c0-.215 0-.275-.12-.275-.036 0-.084 0-.167.156l-.395.73c-.574-.742-1.364-.886-1.89-.886A2.28 2.28 0 0 0 .646-6.135c0 .574.203 1.1.646 1.578.418.467.837.574 1.686.79.419.095 1.076.263 1.244.334.562.276.933.921.933 1.591 0 .897-.634 1.746-1.627 1.746-.538 0-1.28-.131-1.866-.646C.97-1.363.921-2.225.91-2.619c-.012-.096-.132-.096-.132-.096-.131 0-.131.06-.131.275v2.416c0 .215 0 .275.12.275.071 0 .083-.024.167-.167l.395-.718c.43.479 1.184.885 2.212.885C4.88.251 5.848-.885 5.848-2.2"/><path id="p" d="M4.21-1.519c0-.646-.395-1.028-.502-1.136-.431-.37-.754-.443-1.543-.586-.359-.072-1.232-.24-1.232-.957 0-.37.251-.92 1.327-.92 1.304 0 1.376 1.111 1.4 1.482.012.096.095.096.131.096.132 0 .132-.06.132-.275V-5.06c0-.215 0-.275-.12-.275-.095 0-.323.263-.406.37-.371-.298-.742-.37-1.125-.37-1.447 0-1.877.79-1.877 1.447 0 .132 0 .55.454.969.383.335.79.418 1.34.526.657.132.813.167 1.112.407.215.179.37.442.37.777 0 .514-.298 1.088-1.35 1.088C1.53-.12.956-.574.693-1.77c-.048-.215-.06-.24-.06-.24-.024-.047-.072-.047-.108-.047-.131 0-.131.06-.131.275v1.627c0 .215 0 .275.12.275.06 0 .071-.012.274-.264.06-.083.06-.107.24-.299.454.563 1.1.563 1.303.563C3.588.12 4.21-.574 4.21-1.52"/><path id="x" d="M3.899-1.483v-.682h-.263v.658c0 .861-.347 1.363-.813 1.363-.814 0-.814-1.112-.814-1.315v-3.349h1.687v-.347H2.009v-2.2h-.263c-.012 1.124-.442 2.272-1.53 2.308v.24h1.016v3.324C1.232-.155 2.117.12 2.75.12c.753 0 1.148-.742 1.148-1.603"/><path id="G" d="M5.956-4.808v-.347c-.347.024-.514.024-.885.024l-.98-.024v.347c.502.024.561.383.561.514 0 .108-.023.168-.083.311L3.349-.897 2.009-4.27c-.06-.167-.071-.167-.071-.227 0-.31.454-.31.67-.31v-.348c-.3.024-.922.024-1.245.024L.215-5.155v.347c.67 0 .79.048.933.419l1.71 4.281c.06.168.084.228.228.228.083 0 .155-.024.239-.228l1.555-3.91c.107-.264.31-.778 1.076-.79"/><path id="o" d="M5.956-4.808v-.347c-.347.024-.514.024-.897.024l-.969-.024v.347c.443.024.55.3.55.514 0 .108-.023.168-.071.287L3.349-.993 2.02-4.246c-.072-.167-.072-.251-.072-.251 0-.31.42-.31.658-.31v-.348c-.31.024-.897.024-1.232.024l-1.16-.024v.347c.694 0 .79.06.945.43L2.942 0c-.526 1.268-.526 1.292-.574 1.387-.203.36-.526.814-1.064.814-.371 0-.598-.216-.598-.216s.418-.047.418-.466a.433.433 0 0 0-.442-.443c-.204 0-.455.12-.455.467 0 .454.443.897 1.077.897.67 0 1.16-.586 1.47-1.34l2.07-5.095c.323-.801.885-.813 1.112-.813"/><path id="r" d="M4.7-2.2h-.263C4.33-.838 4.127-.264 2.703-.264H1.256l3.3-4.557c.108-.131.108-.155.108-.203 0-.132-.083-.132-.287-.132H.622L.49-3.253h.263c.072-1.22.3-1.663 1.603-1.663h1.387l-3.42 4.7C.323 0 .347 0 .61 0h3.899z"/><path id="h" d="M5.358-3.827c0-.993-.06-1.962-.49-2.87-.49-.993-1.352-1.256-1.938-1.256-.693 0-1.543.346-1.985 1.34C.61-5.86.49-5.12.49-3.828c0 1.16.084 2.033.515 2.882A2.13 2.13 0 0 0 2.918.251c1.04 0 1.639-.622 1.986-1.315.43-.897.454-2.07.454-2.763M2.918.012c-.382 0-1.16-.215-1.387-1.519-.132-.718-.132-1.627-.132-2.464 0-.98 0-1.865.192-2.571.203-.801.813-1.172 1.327-1.172.455 0 1.148.275 1.376 1.303.155.682.155 1.627.155 2.44 0 .802 0 1.71-.131 2.44C4.09-.215 3.337.012 2.918.012"/><path id="k" d="M3.444-7.666c0-.275 0-.287-.239-.287-.287.323-.885.765-2.117.765v.347c.275 0 .873 0 1.531-.311v6.231c0 .43-.036.574-1.088.574h-.37V0c.322-.024 1.482-.024 1.877-.024s1.543 0 1.866.024v-.347h-.371C3.48-.347 3.444-.49 3.444-.92z"/><path id="a" d="M5.262-2.01H5c-.036.204-.131.862-.25 1.053-.085.108-.766.108-1.125.108H1.41c.323-.275 1.053-1.04 1.364-1.328 1.818-1.674 2.487-2.296 2.487-3.48 0-1.375-1.088-2.296-2.475-2.296S.586-6.77.586-5.741c0 .61.526.61.562.61.251 0 .562-.18.562-.562 0-.335-.227-.562-.562-.562-.107 0-.131 0-.167.012.227-.813.873-1.364 1.65-1.364 1.017 0 1.639.85 1.639 1.95 0 1.017-.586 1.902-1.268 2.667L.586-.287V0h4.365z"/><path id="W" d="M2.2-4.294c-.203.012-.25.024-.25.132 0 .12.06.12.275.12h.55c1.016 0 1.47.837 1.47 1.985 0 1.567-.812 1.985-1.399 1.985-.574 0-1.554-.275-1.901-1.064.383.06.73-.156.73-.586a.565.565 0 0 0-.587-.586c-.287 0-.598.167-.598.622C.49-.622 1.555.25 2.882.25c1.424 0 2.476-1.088 2.476-2.296 0-1.1-.885-1.962-2.033-2.165 1.04-.299 1.71-1.172 1.71-2.105 0-.945-.98-1.638-2.14-1.638-1.197 0-2.082.73-2.082 1.602 0 .479.371.574.55.574.252 0 .539-.18.539-.538 0-.383-.287-.55-.55-.55-.072 0-.096 0-.132.012.454-.813 1.579-.813 1.638-.813.395 0 1.173.179 1.173 1.351 0 .227-.036.897-.383 1.411-.359.527-.766.563-1.089.574z"/><path id="j" d="M1.53-6.853c.515.167.934.18 1.065.18 1.352 0 2.213-.993 2.213-1.16 0-.049-.024-.108-.096-.108-.024 0-.048 0-.155.047a3.9 3.9 0 0 1-1.555.323c-.79 0-1.352-.239-1.579-.335-.083-.035-.107-.035-.12-.035-.095 0-.095.071-.095.263v3.552c0 .215 0 .287.143.287.06 0 .072-.012.192-.156.335-.49.897-.777 1.495-.777.634 0 .945.586 1.04.79.204.466.216 1.052.216 1.506s0 1.136-.335 1.675c-.263.43-.73.73-1.256.73-.79 0-1.567-.539-1.782-1.412.06.024.131.036.191.036.204 0 .527-.12.527-.526 0-.335-.228-.527-.527-.527-.215 0-.526.108-.526.574 0 1.017.813 2.177 2.14 2.177 1.352 0 2.536-1.136 2.536-2.655 0-1.423-.956-2.607-2.212-2.607-.682 0-1.208.299-1.52.634z"/><path id="A" d="M2.99 2.99v-.443H1.83V-8.527h1.16v-.443H1.387V2.99z"/><path id="D" d="M1.854-8.97H.25v.443h1.16V2.547H.251v.443h1.603z"/><path id="B" d="M5.322-2.906c0-1.113 0-1.447-.275-1.83-.347-.467-.909-.538-1.315-.538-1.16 0-1.615.992-1.71 1.232h-.013v-1.232l-1.626.131v.347c.813 0 .909.084.909.67v3.241c0 .538-.132.538-.91.538V0c.312-.024.958-.024 1.292-.024.347 0 .993 0 1.304.024v-.347c-.765 0-.909 0-.909-.538V-3.11c0-1.255.825-1.925 1.567-1.925s.909.61.909 1.34v2.81c0 .538-.132.538-.91.538V0c.312-.024.958-.024 1.293-.024.346 0 .992 0 1.303.024v-.347c-.598 0-.897 0-.909-.359z"/><path id="C" d="M3.923-5.06c0-.214 0-.274-.12-.274-.095 0-.323.263-.406.37-.371-.298-.742-.37-1.125-.37-1.447 0-1.877.79-1.877 1.447 0 .132 0 .55.454.969.383.335.79.418 1.34.526.657.132.813.167 1.112.407.215.179.37.442.37.777 0 .514-.298 1.088-1.35 1.088C1.53-.12.956-.574.693-1.77c-.048-.215-.048-.227-.06-.24-.024-.047-.072-.047-.108-.047-.131 0-.131.06-.131.275v1.627c0 .215 0 .275.12.275.06 0 .071-.012.274-.264.06-.083.06-.107.24-.299.454.563 1.1.563 1.303.563C3.588.12 4.21-.574 4.21-1.52c0-.646-.395-1.028-.502-1.136-.431-.37-.754-.443-1.543-.586-.359-.072-1.232-.24-1.232-.957 0-.37.251-.92 1.327-.92 1.304 0 1.376 1.111 1.4 1.482.012.096.095.096.131.096.132 0 .132-.06.132-.275z"/><path id="b" d="M2.503-5.077c0-.215-.016-.223-.232-.223-.326.319-.749.51-1.506.51v.263c.215 0 .646 0 1.108-.215v4.088c0 .295-.024.391-.781.391h-.28V0c.328-.024 1.013-.024 1.372-.024s1.052 0 1.379.024v-.263h-.28c-.757 0-.78-.096-.78-.39z"/><path id="c" d="M2.248-1.626c.127-.12.462-.382.59-.494.493-.454.964-.893.964-1.618 0-.948-.797-1.562-1.794-1.562-.956 0-1.586.725-1.586 1.435 0 .39.311.446.423.446a.41.41 0 0 0 .414-.423c0-.414-.398-.414-.494-.414a1.23 1.23 0 0 1 1.156-.781c.741 0 1.124.63 1.124 1.3 0 .828-.582 1.434-1.523 2.398L.518-.303C.422-.215.422-.199.422 0h3.149l.23-1.427h-.246c-.024.16-.088.558-.184.71-.048.063-.653.063-.78.063H1.17z"/><path id="d" d="M2.016-2.662c.63 0 1.029.462 1.029 1.3 0 .995-.566 1.29-.989 1.29-.438 0-1.036-.16-1.315-.582.287 0 .486-.183.486-.446a.423.423 0 0 0-.438-.438c-.215 0-.438.135-.438.454 0 .757.813 1.251 1.721 1.251 1.06 0 1.801-.733 1.801-1.53 0-.661-.526-1.267-1.339-1.442.63-.224 1.1-.766 1.1-1.403S2.917-5.3 2.088-5.3C1.235-5.3.59-4.838.59-4.232c0 .295.199.422.406.422a.39.39 0 0 0 .407-.406c0-.295-.255-.407-.43-.415.334-.438.948-.462 1.091-.462.207 0 .813.064.813.885 0 .558-.231.892-.343 1.02-.239.247-.422.263-.908.295-.152.008-.215.016-.215.12 0 .111.071.111.207.111z"/><path id="e" d="M3.14-5.157c0-.159 0-.223-.167-.223-.104 0-.112.008-.191.12L.239-1.57v.263h2.248v.661c0 .295-.024.383-.638.383h-.183V0c.677-.024.693-.024 1.147-.024s.47 0 1.148.024v-.263h-.183c-.614 0-.638-.088-.638-.383v-.661h.845v-.263H3.14zm-.598.646v2.94H.518z"/><path id="f" d="M1.116-4.48c.103.033.422.112.757.112.996 0 1.602-.7 1.602-.82 0-.088-.056-.112-.096-.112-.016 0-.032 0-.103.04-.311.12-.678.215-1.108.215-.47 0-.86-.12-1.108-.215C.98-5.3.964-5.3.956-5.3c-.103 0-.103.088-.103.231v2.335c0 .144 0 .24.127.24.064 0 .088-.032.128-.096.095-.12.398-.526 1.076-.526.446 0 .661.366.733.518.136.287.151.653.151.964 0 .295-.008.725-.23 1.076a1.07 1.07 0 0 1-.893.486A1.295 1.295 0 0 1 .733-.917c.024.008.072.008.08.008.223 0 .398-.143.398-.39 0-.295-.23-.399-.39-.399-.144 0-.399.08-.399.423 0 .717.622 1.442 1.539 1.442.996 0 1.84-.773 1.84-1.761 0-.925-.669-1.745-1.61-1.745-.398 0-.772.127-1.075.398z"/><path id="g" d="M1.1-2.638c0-.662.056-1.243.343-1.73.239-.398.645-.725 1.147-.725.16 0 .526.024.71.303-.36.016-.39.287-.39.375-.001.239.182.374.374.374.143 0 .374-.087.374-.39 0-.479-.358-.869-1.076-.869C1.474-5.3.351-4.248.351-2.526.35-.366 1.355.167 2.128.167c.383 0 .797-.103 1.156-.446.318-.31.59-.646.59-1.339 0-1.044-.79-1.777-1.674-1.777-.574 0-.917.366-1.1.757M2.128-.072c-.422 0-.685-.295-.805-.518-.183-.358-.2-.9-.2-1.203 0-.79.431-1.38 1.045-1.38.398 0 .637.208.789.487.167.295.167.654.167 1.06s0 .757-.16 1.044c-.206.367-.485.51-.836.51"/><path id="l" d="M2.296-2.99c0-.347-.287-.634-.634-.634s-.633.287-.633.634.287.634.633.634.634-.287.634-.634"/><path id="i" d="M2.2-.574a.584.584 0 0 0-.573-.586.584.584 0 0 0-.586.574c0 .347.287.586.574.586A.584.584 0 0 0 2.2-.574"/><path id="t" d="M2.464-3.504c.024-.072.323-.67.765-1.053a1.74 1.74 0 0 1 1.184-.478c.479 0 .646.359.646.837 0 .682-.49 2.045-.73 2.691-.107.287-.167.443-.167.658 0 .538.37.969.945.969 1.112 0 1.53-1.759 1.53-1.83 0-.06-.047-.108-.119-.108-.107 0-.12.036-.18.24C6.065-.599 5.61-.12 5.144-.12c-.12 0-.311-.012-.311-.394 0-.3.131-.658.203-.826.24-.657.742-1.997.742-2.679 0-.717-.419-1.255-1.328-1.255-1.064 0-1.626.753-1.842 1.052-.036-.682-.526-1.052-1.052-1.052-.383 0-.646.227-.85.634C.49-4.21.324-3.492.324-3.444s.048.107.131.107c.096 0 .108-.012.18-.287.191-.73.407-1.411.885-1.411.275 0 .37.191.37.55 0 .263-.119.73-.203 1.1l-.335 1.292c-.047.227-.179.765-.239.98C1.03-.8.897-.238.897-.178c0 .167.132.299.311.299a.46.46 0 0 0 .407-.252c.024-.06.131-.478.191-.717l.263-1.077z"/><path id="z" d="M2.404-4.808h1.1c.228 0 .347 0 .347-.215 0-.132-.072-.132-.31-.132H2.487L2.93-6.9c.048-.167.048-.191.048-.275 0-.191-.155-.299-.31-.299-.097 0-.372.036-.467.419l-.467 1.901H.61c-.24 0-.347 0-.347.227 0 .12.084.12.311.12H1.64L.849-1.65c-.096.418-.131.538-.131.693C.718-.395 1.112.12 1.782.12c1.208 0 1.854-1.747 1.854-1.83 0-.072-.048-.108-.12-.108-.024 0-.072 0-.095.048-.012.012-.024.024-.108.215C3.062-.957 2.512-.12 1.818-.12c-.359 0-.383-.299-.383-.562 0-.012 0-.239.036-.382z"/></defs><g fill="none" stroke-miterlimit="10"><path stroke="gray" stroke-width=".19925" d="M67.39 204.694v-4.252m25.599 4.252v-4.252m25.598 4.252v-4.252m25.598 4.252v-4.252m25.599 4.252v-4.252m25.598 4.252v-4.252M67.39 51.1v4.252m25.599-4.252v4.252m25.598-4.252v4.252m25.598-4.252v4.252m25.599-4.252v4.252m25.598-4.252v4.252M54.588 194.454h4.25m-4.25-40.958h4.25m-4.25-40.959h4.25m-4.25-40.959h4.25m149.341 122.876h-4.249m4.25-40.958h-4.25m4.25-40.959h-4.25m4.25-40.959h-4.25"/><path stroke="#000" stroke-width=".3985" d="M54.588 204.694V51.099H208.18v153.595z"/></g><use xlink:href="#a" x="13.047236" y="96.670798" transform="translate(49.056 121.721)scale(1.0004)"/><use xlink:href="#b" x="18.894763" y="92.292852" transform="matrix(.99999 0 0 .99999 49.056 121.721)"/><use xlink:href="#a" x="13.047236" y="96.670798" transform="translate(74.654 121.721)scale(1.0004)"/><use xlink:href="#c" x="18.894763" y="92.292852" transform="matrix(.99999 0 0 .99999 74.654 121.721)"/><use xlink:href="#a" x="13.047236" y="96.670798" transform="translate(100.252 121.721)scale(1.0004)"/><use xlink:href="#d" x="18.894763" y="92.292852" transform="matrix(.99999 0 0 .99999 100.252 121.721)"/><use xlink:href="#a" x="13.047236" y="96.670798" transform="translate(125.851 121.721)scale(1.0004)"/><use xlink:href="#e" x="18.894763" y="92.292852" transform="matrix(.99999 0 0 .99999 125.851 121.721)"/><use xlink:href="#a" x="13.047236" y="96.670798" transform="translate(151.449 121.721)scale(1.0004)"/><use xlink:href="#f" x="18.894763" y="92.292852" transform="matrix(.99999 0 0 .99999 151.449 121.721)"/><use xlink:href="#a" x="13.047236" y="96.670798" transform="translate(177.047 121.721)scale(1.0004)"/><use xlink:href="#g" x="18.894763" y="92.292852" transform="matrix(.99999 0 0 .99999 177.047 121.721)"/><use xlink:href="#h" x="13.047236" y="96.670798" transform="translate(31.509 101.675)scale(1.0004)"/><g transform="translate(22.405 60.716)scale(1.0004)"><use xlink:href="#h" x="13.047236" y="96.670798"/><use xlink:href="#i" x="18.902586" y="96.670798"/><use xlink:href="#j" x="22.155894" y="96.670798"/></g><use xlink:href="#k" x="13.047236" y="96.670798" transform="translate(31.509 19.757)scale(1.0004)"/><g transform="translate(22.405 -21.201)scale(1.0004)"><use xlink:href="#k" x="13.047236" y="96.670798"/><use xlink:href="#i" x="18.902586" y="96.670798"/><use xlink:href="#j" x="22.155894" y="96.670798"/></g><g transform="translate(45.332 -50.34)scale(1.0004)"><use xlink:href="#l" x="13.047236" y="96.670798"/><use xlink:href="#k" x="16.369569" y="96.670798"/><use xlink:href="#h" x="22.218009" y="96.670798"/></g><use xlink:href="#d" x="28.068648" y="92.292852" transform="matrix(.99999 0 0 .99999 45.332 -50.34)"/><path d="M68.511 192.88a1.12 1.12 0 1 0-2.241 0 1.12 1.12 0 0 0 2.241 0"/><path fill="none" stroke="#000" stroke-miterlimit="10" stroke-width=".3985" d="M68.511 192.88a1.12 1.12 0 1 0-2.241 0 1.12 1.12 0 0 0 2.241 0Z"/><path d="M94.117 190.04a1.12 1.12 0 1 0-2.242 0 1.12 1.12 0 0 0 2.242 0"/><path fill="none" stroke="#000" stroke-miterlimit="10" stroke-width=".3985" d="M94.117 190.04a1.12 1.12 0 1 0-2.242 0 1.12 1.12 0 0 0 2.242 0Z"/><path d="M119.718 183.507a1.12 1.12 0 1 0-2.241 0 1.12 1.12 0 0 0 2.241 0"/><path fill="none" stroke="#000" stroke-miterlimit="10" stroke-width=".3985" d="M119.718 183.507a1.12 1.12 0 1 0-2.241 0 1.12 1.12 0 0 0 2.241 0Z"/><path d="M145.318 169.823a1.12 1.12 0 1 0-2.241 0 1.12 1.12 0 0 0 2.241 0"/><path fill="none" stroke="#000" stroke-miterlimit="10" stroke-width=".3985" d="M145.318 169.823a1.12 1.12 0 1 0-2.241 0 1.12 1.12 0 0 0 2.241 0Z"/><path d="M170.92 138.034a1.12 1.12 0 1 0-2.242 0 1.12 1.12 0 0 0 2.242 0"/><path fill="none" stroke="#000" stroke-miterlimit="10" stroke-width=".3985" d="M170.92 138.034a1.12 1.12 0 1 0-2.242 0 1.12 1.12 0 0 0 2.242 0Z"/><path d="M196.522 70.248a1.12 1.12 0 1 0-2.242 0 1.12 1.12 0 0 0 2.242 0"/><g fill="none" stroke="#000" stroke-miterlimit="10" stroke-width=".3985"><path d="M196.522 70.248a1.12 1.12 0 1 0-2.242 0 1.12 1.12 0 0 0 2.242 0ZM68.636 194.317a1.245 1.245 0 1 0-2.491 0 1.245 1.245 0 0 0 2.49 0ZM94.241 194.261a1.245 1.245 0 1 0-2.49 0 1.245 1.245 0 0 0 2.49 0ZM119.843 194.157a1.245 1.245 0 1 0-2.49 0 1.245 1.245 0 0 0 2.49 0ZM145.443 193.947a1.245 1.245 0 1 0-2.49 0 1.245 1.245 0 0 0 2.49 0ZM171.044 193.537a1.245 1.245 0 1 0-2.49 0 1.245 1.245 0 0 0 2.49 0ZM196.646 192.716a1.245 1.245 0 1 0-2.49 0 1.245 1.245 0 0 0 2.49 0Z"/></g><g transform="translate(88.475 137.696)scale(1.0004)"><use xlink:href="#m" x="13.047236" y="96.670798"/><use xlink:href="#n" x="18.907636" y="96.670798"/><use xlink:href="#n" x="23.464396" y="96.670798"/><use xlink:href="#m" x="28.021156" y="96.670798"/><use xlink:href="#o" x="33.558635" y="96.670798"/><use xlink:href="#p" x="43.628958" y="96.670798"/><use xlink:href="#q" x="48.257478" y="96.670798"/><use xlink:href="#r" x="51.5106" y="96.670798"/><use xlink:href="#s" x="56.7132" y="96.670798"/><use xlink:href="#t" x="65.814412" y="96.670798"/></g><g transform="rotate(-90 57.658 130)scale(1.0004)"><use xlink:href="#s" x="13.047236" y="96.670798"/><use xlink:href="#u" x="18.249836" y="96.670798"/><use xlink:href="#m" x="21.502956" y="96.670798"/><use xlink:href="#v" x="27.363357" y="96.670798"/><use xlink:href="#p" x="33.869597" y="96.670798"/><use xlink:href="#s" x="38.486156" y="96.670798"/><use xlink:href="#w" x="43.688758" y="96.670798"/><use xlink:href="#x" x="54.093958" y="96.670798"/><use xlink:href="#q" x="58.650719" y="96.670798"/><use xlink:href="#y" x="61.903839" y="96.670798"/><use xlink:href="#s" x="71.663201" y="96.670798"/><use xlink:href="#z" x="80.764414" y="96.670798"/><use xlink:href="#A" x="88.892676" y="96.670798"/><use xlink:href="#B" x="92.133837" y="96.670798"/><use xlink:href="#C" x="98.628123" y="96.670798"/><use xlink:href="#D" x="103.244686" y="96.670798"/></g><g transform="translate(81.707 -58.695)scale(1.0004)"><use xlink:href="#E" x="13.047236" y="82.219998"/><use xlink:href="#s" x="23.775358" y="82.219998"/><use xlink:href="#n" x="28.977958" y="82.219998"/><use xlink:href="#F" x="33.534719" y="82.219998"/><use xlink:href="#s" x="39.395119" y="82.219998"/><use xlink:href="#G" x="48.49668" y="82.219998"/><use xlink:href="#p" x="54.680001" y="82.219998"/><use xlink:href="#H" x="59.296562" y="82.219998"/><use xlink:href="#I" x="67.740325" y="82.219998"/><use xlink:href="#J" x="71.962201" y="82.219998"/><use xlink:href="#p" x="78.468442" y="82.219998"/><use xlink:href="#H" x="83.085005" y="82.219998"/><use xlink:href="#K" x="28.545456" y="96.670797"/><use xlink:href="#L" x="33.102218" y="96.670797"/><use xlink:href="#M" x="39.608456" y="96.670797"/><use xlink:href="#n" x="45.468857" y="96.670797"/><use xlink:href="#x" x="50.025617" y="96.670797"/><use xlink:href="#s" x="54.582376" y="96.670797"/><use xlink:href="#w" x="59.784978" y="96.670797"/><use xlink:href="#N" x="66.291215" y="96.670797"/></g><path fill="#fff" d="M59.395 73.12h65.437V55.906H59.395Z"/><path fill="none" stroke="#000" stroke-miterlimit="10" stroke-width=".3985" d="M59.395 73.12h65.437V55.906H59.395Z"/><path d="M64.626 64.513a1.12 1.12 0 1 0-2.242 0 1.12 1.12 0 0 0 2.242 0"/><path fill="none" stroke="#000" stroke-miterlimit="10" stroke-width=".3985" d="M64.626 64.513a1.12 1.12 0 1 0-2.242 0 1.12 1.12 0 0 0 2.242 0Z"/><g transform="translate(34.631 -29.29)scale(1.00008)"><use xlink:href="#O" x="31.989639" y="96.639972"/><use xlink:href="#P" x="41.994112" y="96.639972"/><use xlink:href="#Q" x="46.838151" y="96.639972"/><use xlink:href="#R" x="51.114871" y="96.639972"/><use xlink:href="#P" x="56.569867" y="96.639972"/></g><path fill="none" stroke="#000" stroke-miterlimit="10" stroke-width=".3985" d="M100.523 64.513a1.245 1.245 0 1 0-2.49 0 1.245 1.245 0 0 0 2.49 0Z"/><g transform="translate(40.675 -29.29)scale(1.00008)"><use xlink:href="#S" x="61.846102" y="96.639972"/><use xlink:href="#T" x="65.784607" y="96.639972"/><use xlink:href="#U" x="71.850567" y="96.639972"/><use xlink:href="#V" x="76.149112" y="96.639972"/></g><g fill="none" stroke-miterlimit="10"><path stroke="gray" stroke-width=".19925" d="M279.991 204.694v-4.252m25.599 4.252v-4.252m25.598 4.252v-4.252m25.598 4.252v-4.252m25.599 4.252v-4.252m25.598 4.252v-4.252M279.991 51.1v4.252M305.59 51.1v4.252m25.598-4.252v4.252m25.598-4.252v4.252m25.599-4.252v4.252m25.598-4.252v4.252M267.19 195.094h4.248m-4.249-38.398h4.25m-4.25-38.399h4.25m-4.25-38.399h4.25M420.78 195.094h-4.249m4.25-38.398h-4.25m4.25-38.399h-4.25m4.25-38.399h-4.25"/><path stroke="#000" stroke-width=".3985" d="M267.19 204.694V51.099h153.59v153.595z"/></g><use xlink:href="#a" x="3.938581" y="96.670798" transform="translate(270.762 121.721)scale(1.0004)"/><use xlink:href="#b" x="9.789877" y="92.292852" transform="matrix(.99999 0 0 .99999 270.762 121.721)"/><use xlink:href="#a" x="3.938581" y="96.670798" transform="translate(296.36 121.721)scale(1.0004)"/><use xlink:href="#c" x="9.789877" y="92.292852" transform="matrix(.99999 0 0 .99999 296.36 121.721)"/><use xlink:href="#a" x="3.938581" y="96.670798" transform="translate(321.958 121.721)scale(1.0004)"/><use xlink:href="#d" x="9.789877" y="92.292852" transform="matrix(.99999 0 0 .99999 321.958 121.721)"/><use xlink:href="#a" x="3.938581" y="96.670798" transform="translate(347.557 121.721)scale(1.0004)"/><use xlink:href="#e" x="9.789877" y="92.292852" transform="matrix(.99999 0 0 .99999 347.557 121.721)"/><use xlink:href="#a" x="3.938581" y="96.670798" transform="translate(373.155 121.721)scale(1.0004)"/><use xlink:href="#f" x="9.789877" y="92.292852" transform="matrix(.99999 0 0 .99999 373.155 121.721)"/><use xlink:href="#a" x="3.938581" y="96.670798" transform="translate(398.753 121.721)scale(1.0004)"/><use xlink:href="#g" x="9.789877" y="92.292852" transform="matrix(.99999 0 0 .99999 398.753 121.721)"/><use xlink:href="#h" x="3.938581" y="96.670798" transform="translate(253.215 102.315)scale(1.0004)"/><use xlink:href="#k" x="3.938581" y="96.670798" transform="translate(253.215 63.916)scale(1.0004)"/><use xlink:href="#a" x="3.938581" y="96.670798" transform="translate(253.215 25.517)scale(1.0004)"/><use xlink:href="#W" x="3.938581" y="96.670798" transform="translate(253.215 -12.881)scale(1.0004)"/><g transform="translate(267.038 -50.34)scale(1.0004)"><use xlink:href="#l" x="3.938581" y="96.670798"/><use xlink:href="#k" x="7.260915" y="96.670798"/><use xlink:href="#h" x="13.109355" y="96.670798"/></g><use xlink:href="#d" x="18.963762" y="92.292852" transform="matrix(.99999 0 0 .99999 267.038 -50.34)"/><path d="M281.112 194.185a1.12 1.12 0 1 0-2.241 0 1.12 1.12 0 0 0 2.241 0"/><path fill="none" stroke="#000" stroke-miterlimit="10" stroke-width=".3985" d="M281.112 194.185a1.12 1.12 0 1 0-2.241 0 1.12 1.12 0 0 0 2.241 0Z"/><path d="M306.718 190.218a1.12 1.12 0 1 0-2.242 0 1.12 1.12 0 0 0 2.241 0"/><path fill="none" stroke="#000" stroke-miterlimit="10" stroke-width=".3985" d="M306.718 190.218a1.12 1.12 0 1 0-2.242 0 1.12 1.12 0 0 0 2.241 0Z"/><path d="M332.32 187.365a1.12 1.12 0 1 0-2.242 0 1.12 1.12 0 0 0 2.241 0"/><path fill="none" stroke="#000" stroke-miterlimit="10" stroke-width=".3985" d="M332.32 187.365a1.12 1.12 0 1 0-2.242 0 1.12 1.12 0 0 0 2.241 0Z"/><path d="M357.92 183.561a1.12 1.12 0 1 0-2.242 0 1.12 1.12 0 0 0 2.241 0"/><path fill="none" stroke="#000" stroke-miterlimit="10" stroke-width=".3985" d="M357.92 183.561a1.12 1.12 0 1 0-2.242 0 1.12 1.12 0 0 0 2.241 0Z"/><path d="M383.52 169.292a1.12 1.12 0 1 0-2.24 0 1.12 1.12 0 0 0 2.24 0"/><path fill="none" stroke="#000" stroke-miterlimit="10" stroke-width=".3985" d="M383.52 169.292a1.12 1.12 0 1 0-2.24 0 1.12 1.12 0 0 0 2.24 0Z"/><path d="M409.123 135.592a1.12 1.12 0 1 0-2.242 0 1.12 1.12 0 0 0 2.242 0"/><g fill="none" stroke="#000" stroke-miterlimit="10" stroke-width=".3985"><path d="M409.123 135.592a1.12 1.12 0 1 0-2.242 0 1.12 1.12 0 0 0 2.242 0ZM281.237 194.86a1.245 1.245 0 1 0-2.491 0 1.245 1.245 0 0 0 2.49 0ZM306.842 194.418a1.245 1.245 0 1 0-2.49 0 1.245 1.245 0 0 0 2.49 0ZM332.444 192.616a1.245 1.245 0 1 0-2.49 0 1.245 1.245 0 0 0 2.49 0ZM358.044 186.716a1.245 1.245 0 1 0-2.49 0 1.245 1.245 0 0 0 2.49 0ZM383.645 161.577a1.245 1.245 0 1 0-2.49 0 1.245 1.245 0 0 0 2.49 0ZM409.247 61.164a1.245 1.245 0 1 0-2.49 0 1.245 1.245 0 0 0 2.49 0Z"/></g><g transform="translate(310.181 137.696)scale(1.0004)"><use xlink:href="#m" x="3.938581" y="96.670798"/><use xlink:href="#n" x="9.798982" y="96.670798"/><use xlink:href="#n" x="14.355742" y="96.670798"/><use xlink:href="#m" x="18.912501" y="96.670798"/><use xlink:href="#o" x="24.461942" y="96.670798"/><use xlink:href="#p" x="34.532263" y="96.670798"/><use xlink:href="#q" x="39.148822" y="96.670798"/><use xlink:href="#r" x="42.401945" y="96.670798"/><use xlink:href="#s" x="47.604545" y="96.670798"/><use xlink:href="#t" x="56.706762" y="96.670798"/></g><g transform="rotate(-90 163.958 14.595)scale(1.0004)"><use xlink:href="#s" x="3.938581" y="96.670798"/><use xlink:href="#u" x="9.141181" y="96.670798"/><use xlink:href="#m" x="12.394301" y="96.670798"/><use xlink:href="#v" x="18.254702" y="96.670798"/><use xlink:href="#p" x="24.760944" y="96.670798"/><use xlink:href="#s" x="29.377504" y="96.670798"/><use xlink:href="#w" x="34.580106" y="96.670798"/><use xlink:href="#x" x="44.985304" y="96.670798"/><use xlink:href="#q" x="49.542067" y="96.670798"/><use xlink:href="#y" x="52.795189" y="96.670798"/><use xlink:href="#s" x="62.554546" y="96.670798"/><use xlink:href="#z" x="71.655758" y="96.670798"/><use xlink:href="#A" x="79.78402" y="96.670798"/><use xlink:href="#B" x="83.025181" y="96.670798"/><use xlink:href="#C" x="89.519467" y="96.670798"/><use xlink:href="#D" x="94.13602" y="96.670798"/></g><g transform="translate(303.413 -58.695)scale(1.0004)"><use xlink:href="#E" x="3.938581" y="82.219998"/><use xlink:href="#s" x="14.666701" y="82.219998"/><use xlink:href="#n" x="19.869303" y="82.219998"/><use xlink:href="#F" x="24.426063" y="82.219998"/><use xlink:href="#s" x="30.286463" y="82.219998"/><use xlink:href="#G" x="39.388025" y="82.219998"/><use xlink:href="#p" x="45.571346" y="82.219998"/><use xlink:href="#H" x="50.187906" y="82.219998"/><use xlink:href="#I" x="58.631668" y="82.219998"/><use xlink:href="#J" x="62.853546" y="82.219998"/><use xlink:href="#p" x="69.359787" y="82.219998"/><use xlink:href="#H" x="73.976349" y="82.219998"/><use xlink:href="#K" x="13.146277" y="96.670797"/><use xlink:href="#X" x="17.703038" y="96.670797"/><use xlink:href="#s" x="26.326198" y="96.670797"/><use xlink:href="#G" x="31.528798" y="96.670797"/><use xlink:href="#s" x="37.389196" y="96.670797"/><use xlink:href="#n" x="42.591799" y="96.670797"/><use xlink:href="#p" x="47.148558" y="96.670797"/><use xlink:href="#s" x="51.765119" y="96.670797"/><use xlink:href="#w" x="56.967719" y="96.670797"/><use xlink:href="#N" x="63.473958" y="96.670797"/></g><path fill="#fff" d="M271.996 73.12h65.437V55.907h-65.437Z"/><path fill="none" stroke="#000" stroke-miterlimit="10" stroke-width=".3985" d="M271.996 73.12h65.437V55.907h-65.437Z"/><path d="M277.227 64.513a1.12 1.12 0 1 0-2.242 0 1.12 1.12 0 0 0 2.242 0"/><path fill="none" stroke="#000" stroke-miterlimit="10" stroke-width=".3985" d="M277.227 64.513a1.12 1.12 0 1 0-2.242 0 1.12 1.12 0 0 0 2.242 0Z"/><g transform="translate(256.337 -29.29)scale(1.00008)"><use xlink:href="#O" x="22.883888" y="96.639972"/><use xlink:href="#P" x="32.888357" y="96.639972"/><use xlink:href="#Q" x="37.732397" y="96.639972"/><use xlink:href="#R" x="42.009115" y="96.639972"/><use xlink:href="#P" x="47.464114" y="96.639972"/></g><path fill="none" stroke="#000" stroke-miterlimit="10" stroke-width=".3985" d="M313.124 64.513a1.245 1.245 0 1 0-2.49 0 1.245 1.245 0 0 0 2.49 0Z"/><g transform="translate(262.381 -29.29)scale(1.00008)"><use xlink:href="#S" x="52.740351" y="96.639972"/><use xlink:href="#T" x="56.678864" y="96.639972"/><use xlink:href="#U" x="62.744824" y="96.639972"/><use xlink:href="#V" x="67.043368" y="96.639972"/></g></svg>