<svg xmlns="http://www.w3.org/2000/svg" xmlns:xlink="http://www.w3.org/1999/xlink" width="516.12pt" height="252.89pt" viewBox="0 0 516.12 252.89"><defs><path id="W" d="M4.528-1.298c0-.11-.088-.131-.142-.131-.098 0-.12.065-.142.153C3.862-.153 2.88-.153 2.771-.153c-.545 0-.982-.327-1.233-.73-.327-.524-.327-1.244-.327-1.637h3.044c.24 0 .273 0 .273-.23 0-1.08-.59-2.138-1.953-2.138-1.266 0-2.27 1.124-2.27 2.488 0 1.462 1.146 2.52 2.4 2.52 1.332 0 1.823-1.211 1.823-1.418m-.72-1.451H1.222c.065-1.626.982-1.899 1.353-1.899 1.123 0 1.233 1.473 1.233 1.899"/><path id="Y" d="M5.291-4.408a.534.534 0 0 0-.556-.534c-.218 0-.698.065-1.157.513a1.82 1.82 0 0 0-1.156-.393C1.407-4.822.655-4.07.655-3.23c0 .48.24.894.512 1.123A1.5 1.5 0 0 0 .83-1.2c0 .338.142.753.48.97C.655-.043.305.426.305.863c0 .785 1.08 1.385 2.412 1.385 1.287 0 2.422-.556 2.422-1.407 0-.382-.153-.938-.71-1.244-.578-.305-1.21-.305-1.876-.305-.273 0-.742 0-.818-.011-.35-.044-.579-.382-.579-.731 0-.044 0-.295.186-.513.425.306.873.338 1.08.338 1.015 0 1.767-.752 1.767-1.592 0-.404-.174-.808-.447-1.059.393-.37.786-.425.982-.425 0 0 .076 0 .11.01-.12.044-.175.164-.175.295a.31.31 0 0 0 .316.317c.11 0 .316-.077.316-.328m-1.92 1.179c0 .294-.01.643-.174.916-.088.131-.339.436-.775.436-.95 0-.95-1.09-.95-1.341 0-.295.012-.644.175-.917.088-.13.339-.436.775-.436.95 0 .95 1.09.95 1.342m1.2 4.09c0 .59-.774 1.136-1.843 1.136C1.626 1.997.873 1.44.873.862c0-.502.414-.906.894-.938h.644c.938 0 2.16 0 2.16.938"/><path id="R" d="M3.633 0v-.338h-.284c-.862 0-.894-.12-.894-.513v-5.75c0-.392.032-.512.894-.512h.284v-.339c-.382.033-1.244.033-1.658.033-.426 0-1.288 0-1.67-.033v.339H.59c.862 0 .895.12.895.512v5.75c0 .393-.033.513-.895.513H.305V0C.687-.033 1.55-.033 1.964-.033c.425 0 1.287 0 1.669.033"/><path id="V" d="M9.59 0v-.338h-.262c-.84 0-.862-.12-.862-.513v-5.75c0-.392.022-.512.862-.512h.262v-.339H7.746c-.284 0-.284.011-.36.208l-2.39 6.142-2.367-6.11c-.098-.24-.13-.24-.382-.24H.404v.339h.262c.84 0 .861.12.861.512v5.455c0 .295 0 .808-1.123.808V0L1.68-.033 2.957 0v-.338c-1.124 0-1.124-.513-1.124-.808v-5.88h.01L4.474-.24c.055.142.11.24.218.24.12 0 .153-.087.197-.207l2.684-6.906h.01v6.262c0 .393-.021.513-.861.513h-.262V0c.403-.033 1.145-.033 1.57-.033s1.157 0 1.56.033"/><path id="S" d="M5.837 0v-.338c-.567 0-.84 0-.851-.328v-2.083c0-.939 0-1.277-.338-1.67-.153-.185-.513-.403-1.146-.403-.796 0-1.31.469-1.615 1.145v-1.145l-1.538.12v.338c.764 0 .851.076.851.611v2.924c0 .49-.12.49-.85.49V0l1.232-.033L2.804 0v-.338c-.731 0-.851 0-.851-.491v-2.008c0-1.134.775-1.745 1.473-1.745.687 0 .807.589.807 1.21v2.543c0 .49-.12.49-.85.49V0l1.232-.033z"/><path id="U" d="M2.095-.578c0-.317-.262-.578-.579-.578s-.578.261-.578.578S1.2 0 1.516 0s.579-.262.579-.578"/><path id="X" d="M3.971-4.157c0-.349-.338-.665-.807-.665-.797 0-1.19.73-1.342 1.2v-1.2l-1.517.12v.338c.764 0 .851.076.851.611v2.924c0 .49-.12.49-.85.49V0l1.243-.033c.437 0 .95 0 1.386.033v-.338h-.23c-.807 0-.828-.12-.828-.513v-1.68c0-1.08.458-2.051 1.287-2.051.076 0 .098 0 .12.01a.47.47 0 0 0-.251.426c0 .306.23.47.47.47.195 0 .468-.132.468-.48"/><path id="T" d="M3.928-1.396c0-.579-.328-.906-.459-1.037-.36-.35-.785-.436-1.243-.524-.611-.12-1.342-.261-1.342-.894 0-.382.283-.83 1.222-.83 1.2 0 1.254.983 1.276 1.32.011.099.131.099.131.099.142 0 .142-.055.142-.262v-1.102c0-.185 0-.262-.12-.262-.055 0-.077 0-.218.131a1.4 1.4 0 0 1-.186.175c-.414-.306-.862-.306-1.025-.306C.775-4.888.36-4.157.36-3.546c0 .382.175.688.47.928.348.283.654.349 1.44.501.24.044 1.134.219 1.134 1.004 0 .557-.382.993-1.233.993-.916 0-1.31-.622-1.516-1.55C.622-1.81.61-1.854.502-1.854c-.142 0-.142.077-.142.273v1.44C.36.044.36.12.48.12.535.12.546.11.753-.098.775-.12.775-.142.97-.35c.48.458.971.469 1.2.469 1.255 0 1.757-.731 1.757-1.516"/><path id="Q" d="M4.833-7.964a.22.22 0 0 0-.218-.218c-.153 0-.196.109-.23.218L.666 2.313c-.054.142-.054.196-.054.196 0 .12.098.219.218.219.153 0 .197-.11.23-.219l3.72-10.277c.054-.142.054-.196.054-.196"/><path id="P" d="M7.67-4.364v-.338c-.24.022-.557.033-.797.033L5.86-4.702v.338c.392.01.632.207.632.524 0 .065 0 .087-.054.229L5.444-.818l-1.08-3.044c-.044-.131-.055-.153-.055-.207 0-.295.426-.295.644-.295v-.338l-1.135.033c-.327 0-.643-.011-.97-.033v.338c.403 0 .578.022.687.164.054.065.174.392.25.6L2.849-.96 1.81-3.873c-.054-.131-.054-.153-.054-.196 0-.295.425-.295.643-.295v-.338l-1.189.033-1.015-.033v.338c.546 0 .677.033.808.382L2.378-.12c.055.153.088.24.23.24s.163-.065.218-.218l1.102-3.088L5.04-.087c.044.12.077.207.219.207s.174-.098.218-.207l1.276-3.579c.197-.545.535-.687.917-.698"/><path id="ae" d="M5.13-8.527c0-.012.073-.192.073-.216a.225.225 0 0 0-.216-.227c-.06 0-.167 0-.263.263L.718 2.547c0 .012-.072.192-.072.216 0 .143.12.227.215.227.072 0 .18-.012.263-.263z"/><path id="s" d="M2.464-3.504c.024-.072.323-.67.765-1.053a1.74 1.74 0 0 1 1.184-.478c.479 0 .646.359.646.837 0 .682-.49 2.045-.73 2.691-.107.287-.167.443-.167.658 0 .538.37.969.945.969 1.112 0 1.53-1.759 1.53-1.83 0-.06-.047-.108-.119-.108-.107 0-.12.036-.18.24C6.065-.599 5.61-.12 5.144-.12c-.12 0-.311-.012-.311-.394 0-.3.131-.658.203-.826.24-.657.742-1.997.742-2.679 0-.717-.419-1.255-1.328-1.255-1.064 0-1.626.753-1.842 1.052-.036-.682-.526-1.052-1.052-1.052-.383 0-.646.227-.85.634C.49-4.21.324-3.492.324-3.444s.048.107.131.107c.096 0 .108-.012.18-.287.191-.73.407-1.411.885-1.411.275 0 .37.191.37.55 0 .263-.119.73-.203 1.1l-.335 1.292c-.047.227-.179.765-.239.98C1.03-.8.897-.238.897-.178c0 .167.132.299.311.299a.46.46 0 0 0 .407-.252c.024-.06.131-.478.191-.717l.263-1.077z"/><path id="y" d="M2.404-4.808h1.1c.228 0 .347 0 .347-.215 0-.132-.072-.132-.31-.132H2.487L2.93-6.9c.048-.167.048-.191.048-.275 0-.191-.155-.299-.31-.299-.097 0-.372.036-.467.419l-.467 1.901H.61c-.24 0-.347 0-.347.227 0 .12.084.12.311.12H1.64L.849-1.65c-.096.418-.131.538-.131.693C.718-.395 1.112.12 1.782.12c1.208 0 1.854-1.747 1.854-1.83 0-.072-.048-.108-.12-.108-.024 0-.072 0-.095.048-.012.012-.024.024-.108.215C3.062-.957 2.512-.12 1.818-.12c-.359 0-.383-.299-.383-.562 0-.012 0-.239.036-.382z"/><path id="l" d="M5.669-1.064v-.67h-.263v.67c0 .681-.287.777-.455.777-.454 0-.454-.634-.454-.813v-2.093c0-.646 0-1.125-.526-1.591-.419-.383-.957-.55-1.483-.55-.981 0-1.735.646-1.735 1.423 0 .347.228.514.503.514.287 0 .49-.203.49-.49 0-.49-.43-.49-.61-.49.275-.503.85-.718 1.328-.718.55 0 1.256.455 1.256 1.53v.48C1.316-3.05.407-2.046.407-1.126c0 .946 1.1 1.245 1.83 1.245A1.63 1.63 0 0 0 3.79-.933c.048.562.419.993.933.993.251 0 .945-.168.945-1.124m-1.95-.622C3.72-.514 2.847-.12 2.333-.12c-.586 0-1.076-.43-1.076-1.004 0-1.579 2.033-1.722 2.464-1.746z"/><path id="ad" d="M4.856-1.423c0-.108-.084-.108-.12-.108-.107 0-.12.036-.155.18-.263.849-.91 1.207-1.555 1.207-.73 0-1.698-.633-1.698-2.451 0-1.986 1.016-2.476 1.614-2.476.455 0 1.112.18 1.388.646-.144 0-.587 0-.587.49 0 .287.204.49.49.49.276 0 .503-.167.503-.514 0-.801-.837-1.375-1.806-1.375C1.53-5.334.42-4.09.42-2.584.419-1.051 1.567.12 2.919.12c1.578 0 1.937-1.436 1.937-1.543"/><path id="v" d="M6.16 0v-.347c-.814 0-.91-.084-.91-.67V-8.3l-1.662.131v.347c.813 0 .909.084.909.67v2.643a1.86 1.86 0 0 0-1.495-.765C1.615-5.274.419-4.102.419-2.571c0 1.519 1.136 2.69 2.451 2.69.91 0 1.436-.597 1.603-.825V.12zM4.472-1.4c0 .216 0 .252-.167.515-.287.419-.778.765-1.376.765-.31 0-1.602-.12-1.602-2.44 0-.86.143-1.339.406-1.734.24-.37.718-.741 1.316-.741.741 0 1.16.538 1.28.73.143.203.143.227.143.442z"/><path id="r" d="M4.868-1.423c0-.072-.06-.12-.132-.12-.096 0-.12.06-.143.12C4.282-.42 3.48-.143 2.978-.143s-1.71-.335-1.71-2.404v-.228H4.58c.263 0 .287 0 .287-.227 0-1.208-.646-2.332-2.093-2.332C1.41-5.334.359-4.102.359-2.62.359-1.041 1.579.12 2.906.12c1.424 0 1.962-1.292 1.962-1.543m-.742-1.579H1.28c.095-1.878 1.148-2.093 1.483-2.093 1.28 0 1.351 1.686 1.363 2.093"/><path id="E" d="M5.681-4.856a.56.56 0 0 0-.586-.55c-.622 0-1.088.383-1.256.562a2 2 0 0 0-1.232-.43C1.531-5.274.73-4.461.73-3.54c0 .682.418 1.124.538 1.232-.144.18-.359.526-.359.992 0 .694.419.993.514 1.053-.55.155-1.1.586-1.1 1.208 0 .825 1.124 1.507 2.595 1.507 1.423 0 2.608-.634 2.608-1.531 0-.3-.084-1.005-.802-1.375-.61-.311-1.208-.311-2.236-.311-.73 0-.814 0-1.029-.228a.88.88 0 0 1-.227-.598c0-.203.072-.406.191-.574.562.371 1.04.371 1.172.371 1.077 0 1.878-.813 1.878-1.734 0-.323-.096-.778-.478-1.16.466-.479 1.028-.479 1.088-.479.048 0 .108 0 .155.024-.12.048-.179.168-.179.3 0 .167.12.31.311.31.096 0 .311-.06.311-.323M3.648-3.54c0 .215 0 .705-.204 1.028a1.02 1.02 0 0 1-.837.467c-1.052 0-1.052-1.208-1.052-1.483 0-.215 0-.706.203-1.029a1.02 1.02 0 0 1 .837-.466c1.053 0 1.053 1.208 1.053 1.483M4.939.933c0 .706-.908 1.268-2.009 1.268C1.782 2.2.91 1.615.91.933c0-.096.024-.562.478-.873.263-.168.371-.168 1.208-.168.993 0 2.344 0 2.344 1.04"/><path id="H" d="M3.791 0v-.347h-.263c-.897 0-.933-.12-.933-.562v-6.35c0-.443.036-.563.933-.563h.263v-.347c-.287.024-1.315.024-1.674.024s-1.4 0-1.686-.024v.347h.263c.897 0 .933.12.933.562v6.351c0 .443-.036.562-.933.562H.43V0c.287-.024 1.315-.024 1.674-.024s1.4 0 1.686.024"/><path id="p" d="M2.882 0v-.347c-.777 0-.825-.06-.825-.526v-4.401l-1.626.131v.347c.765 0 .873.072.873.658v3.253c0 .538-.132.538-.91.538V0c.336-.024.91-.024 1.256-.024.132 0 .826 0 1.232.024m-.67-7.224a.58.58 0 1 0-.586.574.576.576 0 0 0 .587-.574"/><path id="t" d="M2.966 0v-.347c-.765 0-.909 0-.909-.538V-8.3L.395-8.17v.347c.813 0 .909.084.909.67v6.267c0 .538-.132.538-.91.538V0c.336-.024.922-.024 1.28-.024s.957 0 1.292.024"/><path id="D" d="M10.19 0v-.347h-.24c-.86 0-.896-.12-.896-.562v-6.35c0-.443.036-.563.897-.563h.239v-.347H8.336c-.263 0-.275.012-.37.24L5.357-1.124 2.751-7.941c-.084-.228-.096-.228-.371-.228H.526v.347h.24c.86 0 .896.12.896.562v6.028c0 .323 0 .885-1.136.885V0c.311-.024.945-.024 1.28-.024s.969 0 1.28.024v-.347c-1.137 0-1.137-.562-1.137-.885v-6.53h.012L4.844-.227c.048.131.084.227.203.227.108 0 .132-.06.203-.24l2.907-7.582h.012v6.913c0 .443-.036.562-.897.562h-.24V0c.276-.024 1.232-.024 1.58-.024s1.303 0 1.578.024"/><path id="x" d="M9.484 0v-.347c-.598 0-.897 0-.909-.359v-2.2c0-1.113 0-1.447-.275-1.83-.347-.467-.909-.538-1.315-.538-.993 0-1.495.717-1.687 1.184-.167-.921-.813-1.184-1.566-1.184-1.16 0-1.615.992-1.71 1.232h-.013v-1.232l-1.626.131v.347c.813 0 .909.084.909.67v3.241c0 .538-.132.538-.91.538V0c.312-.024.958-.024 1.292-.024.347 0 .993 0 1.304.024v-.347c-.765 0-.909 0-.909-.538V-3.11c0-1.255.825-1.925 1.567-1.925s.909.61.909 1.34v2.81c0 .538-.132.538-.91.538V0c.312-.024.958-.024 1.293-.024.346 0 .992 0 1.303.024v-.347c-.765 0-.909 0-.909-.538V-3.11c0-1.255.825-1.925 1.567-1.925s.909.61.909 1.34v2.81c0 .538-.132.538-.909.538V0c.31-.024.957-.024 1.292-.024.346 0 .992 0 1.303.024"/><path id="I" d="M6.231 0v-.347c-.598 0-.897 0-.909-.359v-2.2c0-1.113 0-1.447-.275-1.83-.347-.467-.909-.538-1.315-.538-1.16 0-1.615.992-1.71 1.232h-.013v-1.232l-1.626.131v.347c.813 0 .909.084.909.67v3.241c0 .538-.132.538-.91.538V0c.312-.024.958-.024 1.292-.024.347 0 .993 0 1.304.024v-.347c-.765 0-.909 0-.909-.538V-3.11c0-1.255.825-1.925 1.567-1.925s.909.61.909 1.34v2.81c0 .538-.132.538-.91.538V0c.312-.024.958-.024 1.293-.024.346 0 .992 0 1.303.024"/><path id="N" d="M5.49-2.56c0-1.542-1.172-2.774-2.56-2.774C1.495-5.334.36-4.066.36-2.56.359-1.03 1.555.12 2.919.12c1.41 0 2.57-1.172 2.57-2.68m-.91-.107c0 .419 0 1.16-.31 1.722a1.56 1.56 0 0 1-1.34.801c-.442 0-.98-.19-1.327-.777-.323-.538-.335-1.244-.335-1.746 0-.455 0-1.184.37-1.722a1.53 1.53 0 0 1 1.28-.706c.467 0 .969.215 1.292.682.37.55.37 1.303.37 1.746"/><path id="u" d="M6.076-2.583c0-1.52-1.125-2.691-2.428-2.691-1.053 0-1.615.753-1.65.801v-.801l-1.663.131v.347c.837 0 .909.084.909.61v5.621c0 .538-.132.538-.91.538v.347c.312-.024.958-.024 1.293-.024.346 0 .992 0 1.303.024v-.347c-.765 0-.909 0-.909-.538v-2.08c.216.298.706.765 1.471.765 1.376 0 2.584-1.16 2.584-2.703m-.91 0c0 1.423-.813 2.463-1.733 2.463a1.4 1.4 0 0 1-.957-.382c-.275-.275-.455-.515-.455-.85v-2.463c0-.227 0-.24.132-.43a1.72 1.72 0 0 1 1.4-.766c.896 0 1.614 1.088 1.614 2.428"/><path id="L" d="M3.887 2.906c0-.036 0-.06-.203-.263C2.488 1.435 1.818-.538 1.818-2.978c0-2.32.562-4.318 1.95-5.729.119-.108.119-.131.119-.167 0-.072-.06-.096-.108-.096-.155 0-1.136.861-1.722 2.033-.61 1.208-.885 2.488-.885 3.959 0 1.064.168 2.488.79 3.767.705 1.436 1.686 2.213 1.817 2.213.048 0 .108-.024.108-.096"/><path id="O" d="M3.373-2.978c0-.909-.12-2.392-.79-3.78C1.878-8.192.897-8.97.765-8.97c-.047 0-.107.024-.107.096 0 .036 0 .06.203.263C2.057-7.403 2.727-5.43 2.727-2.99c0 2.32-.562 4.318-1.95 5.729-.12.107-.12.131-.12.167 0 .072.06.096.108.096.156 0 1.137-.861 1.723-2.033.61-1.22.885-2.512.885-3.947"/><path id="J" d="M2.2-.586a.58.58 0 0 0-.573-.574.577.577 0 0 0-.586.574.58.58 0 1 0 1.16 0"/><path id="ag" d="M8.575-1.04c0-.072 0-.18-.131-.18-.12 0-.12.072-.132.191-.06.718-.406 1.041-.79 1.041-.55 0-.669-.562-.765-1.196l-.12-.897c-.083-.598-.13-.98-.49-1.352-.131-.131-.442-.454-1.1-.633 1.184-.275 2.105-1.029 2.105-1.95 0-1.16-1.351-2.153-3.074-2.153H.502v.347h.24c.86 0 .897.12.897.562v6.351c0 .443-.036.562-.897.562h-.24V0c.275-.024 1.256-.024 1.603-.024s1.34 0 1.615.024v-.347h-.24c-.86 0-.897-.12-.897-.562v-3.062h1.388c.466 0 .909.132 1.232.467.406.454.406.705.406 1.53 0 .945 0 1.256.526 1.77.18.18.682.455 1.352.455.933 0 1.088-1.04 1.088-1.292M6.04-6.017c0 1.04-.562 1.806-2.117 1.806h-1.34v-3.133c0-.276 0-.419.252-.467.107-.012.466-.012.705-.012.969 0 2.5 0 2.5 1.806"/><path id="m" d="M4.222-4.58c0-.36-.323-.694-.837-.694-1.017 0-1.364 1.1-1.436 1.327h-.011v-1.327l-1.603.131v.347c.813 0 .909.084.909.67v3.241c0 .538-.132.538-.91.538V0c.336-.024.994-.024 1.352-.024.323 0 1.172 0 1.448.024v-.347h-.24c-.873 0-.897-.131-.897-.562v-1.878c0-1.16.479-2.248 1.4-2.248.095 0 .12 0 .167.012-.096.048-.287.12-.287.442a.46.46 0 0 0 .466.479c.24 0 .479-.156.479-.479"/><path id="M" d="M5.848-2.2c0-.73-.275-1.268-.598-1.663-.442-.538-.98-.67-1.447-.79l-1.315-.334c-.61-.156-1.148-.754-1.148-1.52 0-.836.67-1.59 1.602-1.59 1.962 0 2.225 1.938 2.296 2.452.024.143.024.191.144.191.132 0 .132-.06.132-.275v-2.416c0-.215 0-.275-.12-.275-.036 0-.084 0-.167.156l-.395.73c-.574-.742-1.364-.886-1.89-.886A2.28 2.28 0 0 0 .646-6.135c0 .574.203 1.1.646 1.578.418.467.837.574 1.686.79.419.095 1.076.263 1.244.334.562.276.933.921.933 1.591 0 .897-.634 1.746-1.627 1.746-.538 0-1.28-.131-1.866-.646C.97-1.363.921-2.225.91-2.619c-.012-.096-.132-.096-.132-.096-.131 0-.131.06-.131.275v2.416c0 .215 0 .275.12.275.071 0 .083-.024.167-.167l.395-.718c.43.479 1.184.885 2.212.885C4.88.251 5.848-.885 5.848-2.2"/><path id="o" d="M4.21-1.519c0-.646-.395-1.028-.502-1.136-.431-.37-.754-.443-1.543-.586-.359-.072-1.232-.24-1.232-.957 0-.37.251-.92 1.327-.92 1.304 0 1.376 1.111 1.4 1.482.012.096.095.096.131.096.132 0 .132-.06.132-.275V-5.06c0-.215 0-.275-.12-.275-.095 0-.323.263-.406.37-.371-.298-.742-.37-1.125-.37-1.447 0-1.877.79-1.877 1.447 0 .132 0 .55.454.969.383.335.79.418 1.34.526.657.132.813.167 1.112.407.215.179.37.442.37.777 0 .514-.298 1.088-1.35 1.088C1.53-.12.956-.574.693-1.77c-.048-.215-.06-.24-.06-.24-.024-.047-.072-.047-.108-.047-.131 0-.131.06-.131.275v1.627c0 .215 0 .275.12.275.06 0 .071-.012.274-.264.06-.083.06-.107.24-.299.454.563 1.1.563 1.303.563C3.588.12 4.21-.574 4.21-1.52"/><path id="G" d="M5.203-8.743a.217.217 0 0 0-.216-.227c-.155 0-.191.108-.25.263L.705 2.56c-.06.156-.06.204-.06.204a.22.22 0 0 0 .227.227c.156 0 .191-.12.24-.251L5.142-8.54c.06-.156.06-.204.06-.204"/><path id="w" d="M3.899-1.483v-.682h-.263v.658c0 .861-.347 1.363-.813 1.363-.814 0-.814-1.112-.814-1.315v-3.349h1.687v-.347H2.009v-2.2h-.263c-.012 1.124-.442 2.272-1.53 2.308v.24h1.016v3.324C1.232-.155 2.117.12 2.75.12c.753 0 1.148-.742 1.148-1.603"/><path id="ac" d="M6.231 0v-.347c-.813 0-.909-.084-.909-.67v-4.257l-1.686.131v.347c.813 0 .909.084.909.67v2.14C4.545-.968 4.007-.12 3.11-.12c-.981 0-1.04-.562-1.04-1.196v-3.958l-1.687.131v.347c.909 0 .909.036.909 1.1v1.794c0 .742 0 1.172.358 1.567.288.311.778.455 1.388.455.203 0 .586 0 .993-.347.346-.275.538-.73.538-.73V.12z"/><path id="K" d="M5.956-4.808v-.347c-.347.024-.514.024-.885.024l-.98-.024v.347c.502.024.561.383.561.514 0 .108-.023.168-.083.311L3.349-.897 2.009-4.27c-.06-.167-.071-.167-.071-.227 0-.31.454-.31.67-.31v-.348c-.3.024-.922.024-1.245.024L.215-5.155v.347c.67 0 .79.048.933.419l1.71 4.281c.06.168.084.228.228.228.083 0 .155-.024.239-.228l1.555-3.91c.107-.264.31-.778 1.076-.79"/><path id="F" d="M8.228-4.808v-.347c-.299.024-.514.024-.885.024l-1.016-.024v.347c.538.024.682.347.682.574 0 0 0 .096-.048.215L5.86-.885 4.663-4.27c-.06-.143-.06-.167-.06-.203 0-.335.443-.335.694-.335v-.347c-.335.024-.825.024-1.172.024L3.05-5.155v.347c.454 0 .61.024.741.18.06.071.204.466.287.705L3.062-1.005 1.914-4.258c-.06-.155-.06-.18-.06-.227 0-.323.466-.323.693-.323v-.347c-.299.024-.897.024-1.22.024L.216-5.155v.347c.61 0 .73.048.861.43L2.583-.095c.048.132.084.216.216.216.107 0 .167-.036.227-.228l1.196-3.408L5.418-.108c.06.192.12.228.227.228.132 0 .168-.084.215-.216l1.376-3.923c.263-.753.79-.777.992-.789"/><path id="n" d="M5.956-4.808v-.347c-.347.024-.514.024-.897.024l-.969-.024v.347c.443.024.55.3.55.514 0 .108-.023.168-.071.287L3.349-.993 2.02-4.246c-.072-.167-.072-.251-.072-.251 0-.31.42-.31.658-.31v-.348c-.31.024-.897.024-1.232.024l-1.16-.024v.347c.694 0 .79.06.945.43L2.942 0c-.526 1.268-.526 1.292-.574 1.387-.203.36-.526.814-1.064.814-.371 0-.598-.216-.598-.216s.418-.047.418-.466a.433.433 0 0 0-.442-.443c-.204 0-.455.12-.455.467 0 .454.443.897 1.077.897.67 0 1.16-.586 1.47-1.34l2.07-5.095c.323-.801.885-.813 1.112-.813"/><path id="q" d="M4.7-2.2h-.263C4.33-.838 4.127-.264 2.703-.264H1.256l3.3-4.557c.108-.131.108-.155.108-.203 0-.132-.083-.132-.287-.132H.622L.49-3.253h.263c.072-1.22.3-1.663 1.603-1.663h1.387l-3.42 4.7C.323 0 .347 0 .61 0h3.899z"/><path id="i" d="M3.897-2.542c0-.853-.087-1.371-.35-1.881-.351-.702-.997-.877-1.435-.877-1.004 0-1.37.75-1.482.972-.287.582-.303 1.371-.303 1.786 0 .526.024 1.33.406 1.968.367.59.957.741 1.38.741.382 0 1.067-.12 1.466-.908.294-.574.318-1.283.318-1.801M2.112-.056c-.27 0-.82-.127-.988-.964-.088-.454-.088-1.204-.088-1.618 0-.55 0-1.108.088-1.546.167-.813.789-.893.988-.893.271 0 .821.136.98.86.096.44.096 1.037.096 1.579 0 .47 0 1.187-.096 1.634-.167.837-.717.948-.98.948"/><path id="d" d="M2.503-5.077c0-.215-.016-.223-.232-.223-.326.319-.749.51-1.506.51v.263c.215 0 .646 0 1.108-.215v4.088c0 .295-.024.391-.781.391h-.28V0c.328-.024 1.013-.024 1.372-.024s1.052 0 1.379.024v-.263h-.28c-.757 0-.78-.096-.78-.39z"/><path id="j" d="M2.248-1.626c.127-.12.462-.382.59-.494.493-.454.964-.893.964-1.618 0-.948-.797-1.562-1.794-1.562-.956 0-1.586.725-1.586 1.435 0 .39.311.446.423.446a.41.41 0 0 0 .414-.423c0-.414-.398-.414-.494-.414a1.23 1.23 0 0 1 1.156-.781c.741 0 1.124.63 1.124 1.3 0 .828-.582 1.434-1.523 2.398L.518-.303C.422-.215.422-.199.422 0h3.149l.23-1.427h-.246c-.024.16-.088.558-.184.71-.048.063-.653.063-.78.063H1.17z"/><path id="e" d="M2.016-2.662c.63 0 1.029.462 1.029 1.3 0 .995-.566 1.29-.989 1.29-.438 0-1.036-.16-1.315-.582.287 0 .486-.183.486-.446a.423.423 0 0 0-.438-.438c-.215 0-.438.135-.438.454 0 .757.813 1.251 1.721 1.251 1.06 0 1.801-.733 1.801-1.53 0-.661-.526-1.267-1.339-1.442.63-.224 1.1-.766 1.1-1.403S2.917-5.3 2.088-5.3C1.235-5.3.59-4.838.59-4.232c0 .295.199.422.406.422a.39.39 0 0 0 .407-.406c0-.295-.255-.407-.43-.415.334-.438.948-.462 1.091-.462.207 0 .813.064.813.885 0 .558-.231.892-.343 1.02-.239.247-.422.263-.908.295-.152.008-.215.016-.215.12 0 .111.071.111.207.111z"/><path id="k" d="M3.14-5.157c0-.159 0-.223-.167-.223-.104 0-.112.008-.191.12L.239-1.57v.263h2.248v.661c0 .295-.024.383-.638.383h-.183V0c.677-.024.693-.024 1.147-.024s.47 0 1.148.024v-.263h-.183c-.614 0-.638-.088-.638-.383v-.661h.845v-.263H3.14zm-.598.646v2.94H.518z"/><path id="f" d="M1.116-4.48c.103.033.422.112.757.112.996 0 1.602-.7 1.602-.82 0-.088-.056-.112-.096-.112-.016 0-.032 0-.103.04-.311.12-.678.215-1.108.215-.47 0-.86-.12-1.108-.215C.98-5.3.964-5.3.956-5.3c-.103 0-.103.088-.103.231v2.335c0 .144 0 .24.127.24.064 0 .088-.032.128-.096.095-.12.398-.526 1.076-.526.446 0 .661.366.733.518.136.287.151.653.151.964 0 .295-.008.725-.23 1.076a1.07 1.07 0 0 1-.893.486A1.295 1.295 0 0 1 .733-.917c.024.008.072.008.08.008.223 0 .398-.143.398-.39 0-.295-.23-.399-.39-.399-.144 0-.399.08-.399.423 0 .717.622 1.442 1.539 1.442.996 0 1.84-.773 1.84-1.761 0-.925-.669-1.745-1.61-1.745-.398 0-.772.127-1.075.398z"/><path id="b" d="M4.033-4.854c.072-.087.072-.103.072-.279H2.08c-.2 0-.446-.008-.645-.024-.415-.031-.423-.103-.447-.23H.741l-.27 1.68h.246c.016-.119.104-.669.215-.732.088-.04.686-.04.805-.04h1.69l-.82 1.1c-.91 1.211-1.1 2.47-1.1 3.1 0 .08 0 .446.374.446s.375-.358.375-.454v-.382c0-1.148.19-2.089.581-2.607z"/><path id="c" d="M3.124-2.351c0 1.945-.924 2.28-1.387 2.28-.167 0-.581-.025-.797-.272.351-.032.375-.295.375-.374a.364.364 0 0 0-.375-.375c-.143 0-.374.088-.374.39 0 .543.446.87 1.18.87 1.091 0 2.127-1.085 2.127-2.79 0-2.072-.916-2.678-1.737-2.678-.94 0-1.785.733-1.785 1.777 0 1.028.773 1.778 1.673 1.778.566 0 .909-.36 1.1-.766zm-1.068.382c-.366 0-.597-.167-.773-.462C1.1-2.726 1.1-3.108 1.1-3.515c0-.47 0-.805.215-1.132.2-.286.454-.446.829-.446.534 0 .765.526.789.566.167.39.175 1.012.175 1.172 0 .63-.342 1.386-1.052 1.386"/><path id="af" d="M9.102-1.734c0-1.376-.682-2.416-1.531-2.416-.873 0-1.723.993-1.723 2.404C5.848-.287 6.71.67 7.571.67S9.1-.407 9.1-1.734M7.582.43c-.167 0-1.04-.084-1.04-2.165 0-2.105.861-2.177 1.04-2.177.658 0 1.256.933 1.256 2.165C8.838-.478 8.228.43 7.583.43m.443-8.97c.072-.108.096-.144.096-.204a.217.217 0 0 0-.215-.227c-.12 0-.156.06-.252.18a2.71 2.71 0 0 1-2.236 1.124c-.227 0-1.256 0-2.225-.933-.25-.251-.514-.371-.825-.371-.873 0-1.722.993-1.722 2.404 0 1.46.861 2.416 1.722 2.416S3.9-5.227 3.9-6.554c0-.347-.024-.79-.263-1.387.777.454 1.447.514 1.794.514.323 0 .98-.06 1.614-.455l.012.012L1.722.24c-.072.107-.095.143-.095.203 0 .131.107.227.227.227.107 0 .167-.084.227-.168zM2.38-4.39c-.167 0-1.04-.084-1.04-2.165 0-2.105.86-2.177 1.04-2.177.658 0 1.256.933 1.256 2.165 0 1.268-.61 2.177-1.256 2.177"/><path id="h" d="M5.358-3.827c0-.993-.06-1.962-.49-2.87-.49-.993-1.352-1.256-1.938-1.256-.693 0-1.543.346-1.985 1.34C.61-5.86.49-5.12.49-3.828c0 1.16.084 2.033.515 2.882A2.13 2.13 0 0 0 2.918.251c1.04 0 1.639-.622 1.986-1.315.43-.897.454-2.07.454-2.763M2.918.012c-.382 0-1.16-.215-1.387-1.519-.132-.718-.132-1.627-.132-2.464 0-.98 0-1.865.192-2.571.203-.801.813-1.172 1.327-1.172.455 0 1.148.275 1.376 1.303.155.682.155 1.627.155 2.44 0 .802 0 1.71-.131 2.44C4.09-.215 3.337.012 2.918.012"/><path id="g" d="M3.444-7.666c0-.275 0-.287-.239-.287-.287.323-.885.765-2.117.765v.347c.275 0 .873 0 1.531-.311v6.231c0 .43-.036.574-1.088.574h-.37V0c.322-.024 1.482-.024 1.877-.024s1.543 0 1.866.024v-.347h-.371C3.48-.347 3.444-.49 3.444-.92z"/><path id="a" d="M5.262-2.01H5c-.036.204-.131.862-.25 1.053-.085.108-.766.108-1.125.108H1.41c.323-.275 1.053-1.04 1.364-1.328 1.818-1.674 2.487-2.296 2.487-3.48 0-1.375-1.088-2.296-2.475-2.296S.586-6.77.586-5.741c0 .61.526.61.562.61.251 0 .562-.18.562-.562 0-.335-.227-.562-.562-.562-.107 0-.131 0-.167.012.227-.813.873-1.364 1.65-1.364 1.017 0 1.639.85 1.639 1.95 0 1.017-.586 1.902-1.268 2.667L.586-.287V0h4.365z"/><path id="Z" d="M2.2-4.294c-.203.012-.25.024-.25.132 0 .12.06.12.275.12h.55c1.016 0 1.47.837 1.47 1.985 0 1.567-.812 1.985-1.399 1.985-.574 0-1.554-.275-1.901-1.064.383.06.73-.156.73-.586a.565.565 0 0 0-.587-.586c-.287 0-.598.167-.598.622C.49-.622 1.555.25 2.882.25c1.424 0 2.476-1.088 2.476-2.296 0-1.1-.885-1.962-2.033-2.165 1.04-.299 1.71-1.172 1.71-2.105 0-.945-.98-1.638-2.14-1.638-1.197 0-2.082.73-2.082 1.602 0 .479.371.574.55.574.252 0 .539-.18.539-.538 0-.383-.287-.55-.55-.55-.072 0-.096 0-.132.012.454-.813 1.579-.813 1.638-.813.395 0 1.173.179 1.173 1.351 0 .227-.036.897-.383 1.411-.359.527-.766.563-1.089.574z"/><path id="aa" d="M4.318-7.786c0-.227 0-.287-.168-.287-.096 0-.131 0-.227.144l-3.6 5.585v.347h3.145V-.91c0 .443-.024.562-.897.562h-.239V0c.275-.024 1.22-.024 1.555-.024s1.292 0 1.567.024v-.347h-.24c-.86 0-.896-.12-.896-.562v-1.088h1.208v-.347H4.318zm-.79.933v4.509H.622z"/><path id="ab" d="M1.53-6.853c.515.167.934.18 1.065.18 1.352 0 2.213-.993 2.213-1.16 0-.049-.024-.108-.096-.108-.024 0-.048 0-.155.047a3.9 3.9 0 0 1-1.555.323c-.79 0-1.352-.239-1.579-.335-.083-.035-.107-.035-.12-.035-.095 0-.095.071-.095.263v3.552c0 .215 0 .287.143.287.06 0 .072-.012.192-.156.335-.49.897-.777 1.495-.777.634 0 .945.586 1.04.79.204.466.216 1.052.216 1.506s0 1.136-.335 1.675c-.263.43-.73.73-1.256.73-.79 0-1.567-.539-1.782-1.412.06.024.131.036.191.036.204 0 .527-.12.527-.526 0-.335-.228-.527-.527-.527-.215 0-.526.108-.526.574 0 1.017.813 2.177 2.14 2.177 1.352 0 2.536-1.136 2.536-2.655 0-1.423-.956-2.607-2.212-2.607-.682 0-1.208.299-1.52.634z"/><path id="z" d="M2.99 2.99v-.443H1.83V-8.527h1.16v-.443H1.387V2.99z"/><path id="C" d="M1.854-8.97H.25v.443h1.16V2.547H.251v.443h1.603z"/><path id="A" d="M5.322-2.906c0-1.113 0-1.447-.275-1.83-.347-.467-.909-.538-1.315-.538-1.16 0-1.615.992-1.71 1.232h-.013v-1.232l-1.626.131v.347c.813 0 .909.084.909.67v3.241c0 .538-.132.538-.91.538V0c.312-.024.958-.024 1.292-.024.347 0 .993 0 1.304.024v-.347c-.765 0-.909 0-.909-.538V-3.11c0-1.255.825-1.925 1.567-1.925s.909.61.909 1.34v2.81c0 .538-.132.538-.91.538V0c.312-.024.958-.024 1.293-.024.346 0 .992 0 1.303.024v-.347c-.598 0-.897 0-.909-.359z"/><path id="B" d="M3.923-5.06c0-.214 0-.274-.12-.274-.095 0-.323.263-.406.37-.371-.298-.742-.37-1.125-.37-1.447 0-1.877.79-1.877 1.447 0 .132 0 .55.454.969.383.335.79.418 1.34.526.657.132.813.167 1.112.407.215.179.37.442.37.777 0 .514-.298 1.088-1.35 1.088C1.53-.12.956-.574.693-1.77c-.048-.215-.048-.227-.06-.24-.024-.047-.072-.047-.108-.047-.131 0-.131.06-.131.275v1.627c0 .215 0 .275.12.275.06 0 .071-.012.274-.264.06-.083.06-.107.24-.299.454.563 1.1.563 1.303.563C3.588.12 4.21-.574 4.21-1.52c0-.646-.395-1.028-.502-1.136-.431-.37-.754-.443-1.543-.586-.359-.072-1.232-.24-1.232-.957 0-.37.251-.92 1.327-.92 1.304 0 1.376 1.111 1.4 1.482.012.096.095.096.131.096.132 0 .132-.06.132-.275z"/></defs><g fill="none" stroke="gray" stroke-miterlimit="10" stroke-width=".19925"><path d="M68.858 205.494v-4.25m25.599 4.25v-4.25m25.598 4.25v-4.25m25.6 4.25v-4.25m25.598 4.25v-4.25m25.6 4.25v-4.25M68.857 51.898v4.251m25.599-4.25v4.25m25.598-4.25v4.25m25.6-4.25v4.25m25.598-4.25v4.25m25.6-4.25v4.25M56.07 205.494h2.833m-2.834-1.807h2.834m-2.834-1.617h2.834m-2.834-10.637h2.834m-2.834-6.222h2.834m-2.834-4.415h2.834m-2.834-3.424h2.834m-2.834-2.798h2.834m-2.834-2.365h2.834m-2.834-2.05h2.834m-2.834-1.807h2.834m-2.834-1.617h2.834m-2.834-10.637h2.834m-2.834-6.222h2.834m-2.834-4.415h2.834m-2.834-3.424h2.834m-2.834-2.798h2.834m-2.834-2.365h2.834m-2.834-2.05h2.834m-2.834-1.807h2.834m-2.834-1.617h2.834m-2.834-10.637h2.834m-2.834-6.222h2.834m-2.834-4.414h2.834m-2.834-3.425h2.834m-2.834-2.798h2.834m-2.834-2.365h2.834m-2.834-2.05h2.834m-2.834-1.807h2.834m-2.834-1.617h2.834M56.069 85.43h2.834m-2.834-6.223h2.834m-2.834-4.414h2.834m-2.834-3.425h2.834m-2.834-2.798h2.834m-2.834-2.365h2.834m-2.834-2.05h2.834m-2.834-1.807h2.834M56.07 202.07h4.249m-4.25-35.335h4.25m-4.25-35.335h4.25m-4.25-35.335h4.25m-4.25-35.334h4.25"/></g><g fill="none" stroke="#000" stroke-miterlimit="10" stroke-width=".3985"><path d="M56.07 205.494h153.595M56.07 51.9h153.595M56.07 205.494V51.9"/></g><use xlink:href="#a" x="-48.01427" y="94.046745" transform="translate(111.56 125.144)scale(1.0004)"/><use xlink:href="#b" x="-42.141471" y="89.669884" transform="matrix(.99999 0 0 .99999 111.56 125.144)"/><use xlink:href="#a" x="-48.01427" y="94.046745" transform="translate(137.159 125.144)scale(1.0004)"/><use xlink:href="#c" x="-42.141471" y="89.669884" transform="matrix(.99999 0 0 .99999 137.159 125.144)"/><use xlink:href="#a" x="-48.01427" y="94.046745" transform="translate(160.641 125.144)scale(1.0004)"/><g transform="matrix(.99999 0 0 .99999 160.641 125.144)"><use xlink:href="#d" x="-42.141471" y="89.669884"/><use xlink:href="#d" x="-37.909399" y="89.669884"/></g><use xlink:href="#a" x="-48.01427" y="94.046745" transform="translate(186.24 125.144)scale(1.0004)"/><g transform="matrix(.99999 0 0 .99999 186.24 125.144)"><use xlink:href="#d" x="-42.141471" y="89.669884"/><use xlink:href="#e" x="-37.909399" y="89.669884"/></g><use xlink:href="#a" x="-48.01427" y="94.046745" transform="translate(211.838 125.144)scale(1.0004)"/><g transform="matrix(.99999 0 0 .99999 211.838 125.144)"><use xlink:href="#d" x="-42.141471" y="89.669884"/><use xlink:href="#f" x="-37.909399" y="89.669884"/></g><use xlink:href="#a" x="-48.01427" y="94.046745" transform="translate(237.437 125.144)scale(1.0004)"/><g transform="matrix(.99999 0 0 .99999 237.437 125.144)"><use xlink:href="#d" x="-42.141471" y="89.669884"/><use xlink:href="#b" x="-37.909399" y="89.669884"/></g><g transform="translate(83.442 112.798)scale(1.0004)"><use xlink:href="#g" x="-48.01427" y="94.046745"/><use xlink:href="#h" x="-42.165831" y="94.046745"/></g><use xlink:href="#i" x="-36.288544" y="89.669884" transform="matrix(.99999 0 0 .99999 83.442 112.798)"/><g transform="translate(83.442 77.464)scale(1.0004)"><use xlink:href="#g" x="-48.01427" y="94.046745"/><use xlink:href="#h" x="-42.165831" y="94.046745"/></g><use xlink:href="#d" x="-36.288544" y="89.669884" transform="matrix(.99999 0 0 .99999 83.442 77.464)"/><g transform="translate(83.442 42.129)scale(1.0004)"><use xlink:href="#g" x="-48.01427" y="94.046745"/><use xlink:href="#h" x="-42.165831" y="94.046745"/></g><use xlink:href="#j" x="-36.288544" y="89.669884" transform="matrix(.99999 0 0 .99999 83.442 42.129)"/><g transform="translate(83.442 6.794)scale(1.0004)"><use xlink:href="#g" x="-48.01427" y="94.046745"/><use xlink:href="#h" x="-42.165831" y="94.046745"/></g><use xlink:href="#e" x="-36.288544" y="89.669884" transform="matrix(.99999 0 0 .99999 83.442 6.794)"/><g transform="translate(83.442 -28.541)scale(1.0004)"><use xlink:href="#g" x="-48.01427" y="94.046745"/><use xlink:href="#h" x="-42.165831" y="94.046745"/></g><use xlink:href="#k" x="-36.288544" y="89.669884" transform="matrix(.99999 0 0 .99999 83.442 -28.541)"/><path d="M69.991 191.598a1.12 1.12 0 1 0-2.242 0 1.12 1.12 0 0 0 2.242 0"/><path fill="none" stroke="#000" stroke-miterlimit="10" stroke-width=".3985" d="M69.991 191.598a1.12 1.12 0 1 0-2.242 0 1.12 1.12 0 0 0 2.242 0Z"/><path d="M82.79 178.227a1.12 1.12 0 1 0-2.241 0 1.12 1.12 0 0 0 2.241 0"/><path fill="none" stroke="#000" stroke-miterlimit="10" stroke-width=".3985" d="M82.79 178.227a1.12 1.12 0 1 0-2.241 0 1.12 1.12 0 0 0 2.241 0Z"/><path d="M95.59 166.185a1.12 1.12 0 1 0-2.241 0 1.12 1.12 0 0 0 2.241 0"/><path fill="none" stroke="#000" stroke-miterlimit="10" stroke-width=".3985" d="M95.59 166.185a1.12 1.12 0 1 0-2.241 0 1.12 1.12 0 0 0 2.241 0Z"/><path d="M108.39 153.483a1.12 1.12 0 1 0-2.242 0 1.12 1.12 0 0 0 2.242 0"/><path fill="none" stroke="#000" stroke-miterlimit="10" stroke-width=".3985" d="M108.39 153.483a1.12 1.12 0 1 0-2.242 0 1.12 1.12 0 0 0 2.242 0Z"/><path d="M121.189 141.531a1.12 1.12 0 1 0-2.242 0 1.12 1.12 0 0 0 2.242 0"/><path fill="none" stroke="#000" stroke-miterlimit="10" stroke-width=".3985" d="M121.189 141.531a1.12 1.12 0 1 0-2.242 0 1.12 1.12 0 0 0 2.242 0Z"/><path d="M133.988 129.411a1.12 1.12 0 1 0-2.242 0 1.12 1.12 0 0 0 2.242 0"/><path fill="none" stroke="#000" stroke-miterlimit="10" stroke-width=".3985" d="M133.988 129.411a1.12 1.12 0 1 0-2.242 0 1.12 1.12 0 0 0 2.242 0Z"/><path d="M146.787 117.46a1.12 1.12 0 1 0-2.241 0 1.12 1.12 0 0 0 2.241 0"/><path fill="none" stroke="#000" stroke-miterlimit="10" stroke-width=".3985" d="M146.787 117.46a1.12 1.12 0 1 0-2.241 0 1.12 1.12 0 0 0 2.241 0Z"/><path d="M159.588 105.443a1.12 1.12 0 1 0-2.242 0 1.12 1.12 0 0 0 2.242 0"/><path fill="none" stroke="#000" stroke-miterlimit="10" stroke-width=".3985" d="M159.588 105.443a1.12 1.12 0 1 0-2.242 0 1.12 1.12 0 0 0 2.242 0Z"/><path d="M172.387 94.121a1.12 1.12 0 1 0-2.242 0 1.12 1.12 0 0 0 2.242 0"/><path fill="none" stroke="#000" stroke-miterlimit="10" stroke-width=".3985" d="M172.387 94.121a1.12 1.12 0 1 0-2.242 0 1.12 1.12 0 0 0 2.242 0Z"/><path d="M185.186 82.301a1.12 1.12 0 1 0-2.241 0 1.12 1.12 0 0 0 2.241 0"/><path fill="none" stroke="#000" stroke-miterlimit="10" stroke-width=".3985" d="M185.186 82.301a1.12 1.12 0 1 0-2.241 0 1.12 1.12 0 0 0 2.241 0Z"/><path d="M197.986 68.487a1.12 1.12 0 1 0-2.242 0 1.12 1.12 0 0 0 2.242 0"/><g fill="none" stroke="#000" stroke-miterlimit="10" stroke-width=".3985"><path d="M197.986 68.487a1.12 1.12 0 1 0-2.242 0 1.12 1.12 0 0 0 2.242 0ZM70.116 183.363a1.245 1.245 0 1 0-2.491 0 1.245 1.245 0 0 0 2.49 0ZM82.915 171.223a1.245 1.245 0 1 0-2.49 0 1.245 1.245 0 0 0 2.49 0ZM95.715 159.847a1.245 1.245 0 1 0-2.491 0 1.245 1.245 0 0 0 2.49 0ZM108.514 147.465a1.245 1.245 0 1 0-2.49 0 1.245 1.245 0 0 0 2.49 0ZM121.314 135.708a1.245 1.245 0 1 0-2.491 0 1.245 1.245 0 0 0 2.49 0ZM134.113 124.231a1.245 1.245 0 1 0-2.491 0 1.245 1.245 0 0 0 2.49 0ZM146.912 112.638a1.245 1.245 0 1 0-2.49 0 1.245 1.245 0 0 0 2.49 0ZM159.712 100.928a1.245 1.245 0 1 0-2.49 0 1.245 1.245 0 0 0 2.49 0ZM172.511 89.747a1.245 1.245 0 1 0-2.49 0 1.245 1.245 0 0 0 2.49 0ZM185.31 77.894a1.245 1.245 0 1 0-2.49 0 1.245 1.245 0 0 0 2.49 0ZM198.11 65.055a1.245 1.245 0 1 0-2.49 0 1.245 1.245 0 0 0 2.49 0Z"/></g><g transform="translate(150.995 141.12)scale(1.0004)"><use xlink:href="#l" x="-48.01427" y="94.046745"/><use xlink:href="#m" x="-42.153868" y="94.046745"/><use xlink:href="#m" x="-37.597109" y="94.046745"/><use xlink:href="#l" x="-33.04035" y="94.046745"/><use xlink:href="#n" x="-27.490909" y="94.046745"/><use xlink:href="#o" x="-17.42059" y="94.046745"/><use xlink:href="#p" x="-12.804028" y="94.046745"/><use xlink:href="#q" x="-9.550907" y="94.046745"/><use xlink:href="#r" x="-4.348307" y="94.046745"/><use xlink:href="#s" x="4.752907" y="94.046745"/></g><g transform="rotate(-90 28.851 98.57)scale(1.0004)"><use xlink:href="#r" x="-48.01427" y="94.046745"/><use xlink:href="#t" x="-42.81167" y="94.046745"/><use xlink:href="#l" x="-39.558546" y="94.046745"/><use xlink:href="#u" x="-33.698149" y="94.046745"/><use xlink:href="#o" x="-27.191907" y="94.046745"/><use xlink:href="#r" x="-22.575347" y="94.046745"/><use xlink:href="#v" x="-17.372747" y="94.046745"/><use xlink:href="#w" x="-6.967546" y="94.046745"/><use xlink:href="#p" x="-2.410785" y="94.046745"/><use xlink:href="#x" x=".842335" y="94.046745"/><use xlink:href="#r" x="10.601696" y="94.046745"/><use xlink:href="#y" x="19.702912" y="94.046745"/><use xlink:href="#z" x="27.831174" y="94.046745"/><use xlink:href="#A" x="31.072335" y="94.046745"/><use xlink:href="#B" x="37.566615" y="94.046745"/><use xlink:href="#C" x="42.183176" y="94.046745"/></g><g transform="translate(117.752 -55.272)scale(1.0004)"><use xlink:href="#D" x="-48.01427" y="79.594944"/><use xlink:href="#r" x="-37.286148" y="79.594944"/><use xlink:href="#m" x="-32.083546" y="79.594944"/><use xlink:href="#E" x="-27.526788" y="79.594944"/><use xlink:href="#r" x="-21.666388" y="79.594944"/><use xlink:href="#F" x="-12.564828" y="79.594944"/><use xlink:href="#G" x="-6.094468" y="79.594944"/><use xlink:href="#H" x="3.652933" y="79.594944"/><use xlink:href="#I" x="7.874813" y="79.594944"/><use xlink:href="#o" x="14.381054" y="79.594944"/><use xlink:href="#J" x="18.997614" y="79.594944"/><use xlink:href="#K" x="27.453335" y="79.594944"/><use xlink:href="#o" x="33.636655" y="79.594944"/><use xlink:href="#J" x="38.253212" y="79.594944"/><use xlink:href="#D" x="46.696977" y="79.594944"/><use xlink:href="#r" x="57.425097" y="79.594944"/><use xlink:href="#m" x="62.627698" y="79.594944"/><use xlink:href="#E" x="67.184454" y="79.594944"/><use xlink:href="#r" x="73.044856" y="79.594944"/><use xlink:href="#L" x="-6.03042" y="94.046745"/><use xlink:href="#M" x="-1.47366" y="94.046745"/><use xlink:href="#N" x="5.032581" y="94.046745"/><use xlink:href="#m" x="10.892981" y="94.046745"/><use xlink:href="#w" x="15.449742" y="94.046745"/><use xlink:href="#r" x="20.006502" y="94.046745"/><use xlink:href="#v" x="25.209102" y="94.046745"/><use xlink:href="#O" x="31.715343" y="94.046745"/></g><path fill="#fff" d="M60.876 74.651h80.583V56.706H60.876Z"/><path fill="none" stroke="#000" stroke-miterlimit="10" stroke-width=".3985" d="M60.876 74.651h80.583V56.706H60.876Z"/><path d="M66.107 65.679a1.12 1.12 0 1 0-2.242 0 1.12 1.12 0 0 0 2.242 0"/><path fill="none" stroke="#000" stroke-miterlimit="10" stroke-width=".3985" d="M66.107 65.679a1.12 1.12 0 1 0-2.242 0 1.12 1.12 0 0 0 2.242 0Z"/><g transform="translate(95.62 -25.136)scale(1.00008)"><use xlink:href="#P" x="-27.52327" y="94.016756"/><use xlink:href="#Q" x="-21.457312" y="94.016756"/><use xlink:href="#R" x="-12.380191" y="94.016756"/><use xlink:href="#S" x="-8.441681" y="94.016756"/><use xlink:href="#T" x="-2.375721" y="94.016756"/><use xlink:href="#U" x="1.922819" y="94.016756"/></g><path fill="none" stroke="#000" stroke-miterlimit="10" stroke-width=".3985" d="M105.062 65.679a1.245 1.245 0 1 0-2.49 0 1.245 1.245 0 0 0 2.49 0Z"/><g transform="translate(97.149 -25.501)scale(1.00008)"><use xlink:href="#V" x="9.906817" y="94.016756"/><use xlink:href="#W" x="19.911289" y="94.016756"/><use xlink:href="#X" x="24.755329" y="94.016756"/><use xlink:href="#Y" x="29.032049" y="94.016756"/><use xlink:href="#W" x="34.48705" y="94.016756"/></g><path fill="none" stroke="gray" stroke-miterlimit="10" stroke-width=".19925" d="M209.666 198.512h-4.25m4.25-27.927h-4.25m4.25-27.926h-4.25m4.25-27.926h-4.25m4.25-27.926h-4.25m4.25-27.926h-4.25"/><path fill="none" stroke="#000" stroke-miterlimit="10" stroke-width=".3985" d="M209.666 205.493V51.9"/><use xlink:href="#h" x="-103.806662" y="132.688253" transform="translate(317.615 69.729)scale(1.0004)"/><g transform="translate(317.615 41.803)scale(1.0004)"><use xlink:href="#g" x="-103.806662" y="132.688253"/><use xlink:href="#h" x="-97.958224" y="132.688253"/></g><g transform="translate(317.615 13.877)scale(1.0004)"><use xlink:href="#a" x="-103.806662" y="132.688253"/><use xlink:href="#h" x="-97.958224" y="132.688253"/></g><g transform="translate(317.615 -14.049)scale(1.0004)"><use xlink:href="#Z" x="-103.806662" y="132.688253"/><use xlink:href="#h" x="-97.958224" y="132.688253"/></g><g transform="translate(317.615 -41.975)scale(1.0004)"><use xlink:href="#aa" x="-103.806662" y="132.688253"/><use xlink:href="#h" x="-97.958224" y="132.688253"/></g><g transform="translate(317.615 -69.901)scale(1.0004)"><use xlink:href="#ab" x="-103.806662" y="132.688253"/><use xlink:href="#h" x="-97.958224" y="132.688253"/></g><g fill="none" stroke="#000" stroke-miterlimit="10" stroke-width=".3985"><path d="m67.11 84.38 3.522-3.523m-3.522 0 3.522 3.523M79.91 97.784l3.522-3.522m-3.523 0 3.523 3.522M92.71 105.883l3.521-3.523m-3.522 0 3.522 3.523M105.509 109.792l3.522-3.522m-3.522 0 3.522 3.522M118.308 112.026l3.522-3.522m-3.522 0 3.522 3.522M131.107 120.125l3.522-3.522m-3.522 0 3.522 3.522M143.906 124.872l3.523-3.522m-3.523 0 3.523 3.522M156.707 129.061l3.522-3.522m-3.522 0 3.522 3.522M169.506 131.016l3.522-3.522m-3.522 0 3.522 3.522M182.305 130.458l3.523-3.523m-3.523 0 3.523 3.523M195.105 144.42l3.522-3.522m-3.522 0 3.522 3.523"/></g><g transform="rotate(-90 98.462 -11.593)scale(1.0004)"><use xlink:href="#m" x="-103.806662" y="132.688253"/><use xlink:href="#r" x="-99.249903" y="132.688253"/><use xlink:href="#v" x="-94.047295" y="132.688253"/><use xlink:href="#ac" x="-87.541054" y="132.688253"/><use xlink:href="#ad" x="-81.034812" y="132.688253"/><use xlink:href="#r" x="-75.832204" y="132.688253"/><use xlink:href="#v" x="-70.629606" y="132.688253"/><use xlink:href="#w" x="-60.2244" y="132.688253"/><use xlink:href="#p" x="-55.667641" y="132.688253"/><use xlink:href="#x" x="-52.41452" y="132.688253"/><use xlink:href="#r" x="-42.655159" y="132.688253"/><use xlink:href="#ae" x="-37.453028" y="132.688253"/><use xlink:href="#D" x="-31.597677" y="132.688253"/><use xlink:href="#r" x="-20.869556" y="132.688253"/><use xlink:href="#m" x="-15.666955" y="132.688253"/><use xlink:href="#E" x="-11.110195" y="132.688253"/><use xlink:href="#r" x="-5.249794" y="132.688253"/><use xlink:href="#z" x="3.852552" y="132.688253"/><use xlink:href="#af" x="7.093712" y="132.688253"/><use xlink:href="#C" x="16.841114" y="132.688253"/></g><g fill="none" stroke="gray" stroke-miterlimit="10" stroke-width=".19925"><path d="M323.979 205.494v-4.25m25.599 4.25v-4.25m25.599 4.25v-4.25m25.598 4.25v-4.25m25.6 4.25v-4.25m25.598 4.25v-4.25M323.98 51.898v4.251m25.599-4.25v4.25m25.599-4.25v4.25m25.598-4.25v4.25m25.6-4.25v4.25m25.598-4.25v4.25M311.19 205.494h2.834m-2.834-1.807h2.834m-2.834-1.617h2.834m-2.834-10.637h2.834m-2.834-6.222h2.834m-2.834-4.415h2.834m-2.834-3.424h2.834m-2.834-2.798h2.834m-2.834-2.365h2.834m-2.834-2.05h2.834m-2.834-1.807h2.834m-2.834-1.617h2.834m-2.834-10.637h2.834m-2.834-6.222h2.834m-2.834-4.415h2.834m-2.834-3.424h2.834m-2.834-2.798h2.834m-2.834-2.365h2.834m-2.834-2.05h2.834m-2.834-1.807h2.834m-2.834-1.617h2.834m-2.834-10.637h2.834m-2.834-6.222h2.834m-2.834-4.414h2.834m-2.834-3.425h2.834m-2.834-2.798h2.834m-2.834-2.365h2.834m-2.834-2.05h2.834m-2.834-1.807h2.834m-2.834-1.617h2.834M311.19 85.43h2.834m-2.834-6.223h2.834m-2.834-4.414h2.834m-2.834-3.425h2.834m-2.834-2.798h2.834m-2.834-2.365h2.834m-2.834-2.05h2.834m-2.834-1.807h2.834M311.19 202.07h4.25m-4.25-35.335h4.25m-4.25-35.335h4.25m-4.25-35.335h4.25m-4.25-35.334h4.25"/></g><g fill="none" stroke="#000" stroke-miterlimit="10" stroke-width=".3985"><path d="M311.19 205.494h153.596M311.19 51.9h153.596M311.19 205.494V51.9"/></g><use xlink:href="#a" x="-48.01427" y="94.046745" transform="translate(366.681 125.144)scale(1.0004)"/><use xlink:href="#b" x="-42.141471" y="89.669884" transform="matrix(.99999 0 0 .99999 366.681 125.144)"/><use xlink:href="#a" x="-48.01427" y="94.046745" transform="translate(392.28 125.144)scale(1.0004)"/><use xlink:href="#c" x="-42.141471" y="89.669884" transform="matrix(.99999 0 0 .99999 392.28 125.144)"/><use xlink:href="#a" x="-48.01427" y="94.046745" transform="translate(415.762 125.144)scale(1.0004)"/><g transform="matrix(.99999 0 0 .99999 415.762 125.144)"><use xlink:href="#d" x="-42.141471" y="89.669884"/><use xlink:href="#d" x="-37.909399" y="89.669884"/></g><use xlink:href="#a" x="-48.01427" y="94.046745" transform="translate(441.361 125.144)scale(1.0004)"/><g transform="matrix(.99999 0 0 .99999 441.361 125.144)"><use xlink:href="#d" x="-42.141471" y="89.669884"/><use xlink:href="#e" x="-37.909399" y="89.669884"/></g><use xlink:href="#a" x="-48.01427" y="94.046745" transform="translate(466.959 125.144)scale(1.0004)"/><g transform="matrix(.99999 0 0 .99999 466.959 125.144)"><use xlink:href="#d" x="-42.141471" y="89.669884"/><use xlink:href="#f" x="-37.909399" y="89.669884"/></g><use xlink:href="#a" x="-48.01427" y="94.046745" transform="translate(492.558 125.144)scale(1.0004)"/><g transform="matrix(.99999 0 0 .99999 492.558 125.144)"><use xlink:href="#d" x="-42.141471" y="89.669884"/><use xlink:href="#b" x="-37.909399" y="89.669884"/></g><g transform="translate(338.563 112.798)scale(1.0004)"><use xlink:href="#g" x="-48.01427" y="94.046745"/><use xlink:href="#h" x="-42.165831" y="94.046745"/></g><use xlink:href="#i" x="-36.288544" y="89.669884" transform="matrix(.99999 0 0 .99999 338.563 112.798)"/><g transform="translate(338.563 77.464)scale(1.0004)"><use xlink:href="#g" x="-48.01427" y="94.046745"/><use xlink:href="#h" x="-42.165831" y="94.046745"/></g><use xlink:href="#d" x="-36.288544" y="89.669884" transform="matrix(.99999 0 0 .99999 338.563 77.464)"/><g transform="translate(338.563 42.129)scale(1.0004)"><use xlink:href="#g" x="-48.01427" y="94.046745"/><use xlink:href="#h" x="-42.165831" y="94.046745"/></g><use xlink:href="#j" x="-36.288544" y="89.669884" transform="matrix(.99999 0 0 .99999 338.563 42.129)"/><g transform="translate(338.563 6.794)scale(1.0004)"><use xlink:href="#g" x="-48.01427" y="94.046745"/><use xlink:href="#h" x="-42.165831" y="94.046745"/></g><use xlink:href="#e" x="-36.288544" y="89.669884" transform="matrix(.99999 0 0 .99999 338.563 6.794)"/><g transform="translate(338.563 -28.541)scale(1.0004)"><use xlink:href="#g" x="-48.01427" y="94.046745"/><use xlink:href="#h" x="-42.165831" y="94.046745"/></g><use xlink:href="#k" x="-36.288544" y="89.669884" transform="matrix(.99999 0 0 .99999 338.563 -28.541)"/><path d="M325.112 187.43a1.12 1.12 0 1 0-2.242 0 1.12 1.12 0 0 0 2.242 0"/><path fill="none" stroke="#000" stroke-miterlimit="10" stroke-width=".3985" d="M325.112 187.43a1.12 1.12 0 1 0-2.242 0 1.12 1.12 0 0 0 2.242 0Z"/><path d="M337.912 174.789a1.12 1.12 0 1 0-2.242 0 1.12 1.12 0 0 0 2.241 0"/><path fill="none" stroke="#000" stroke-miterlimit="10" stroke-width=".3985" d="M337.912 174.789a1.12 1.12 0 1 0-2.242 0 1.12 1.12 0 0 0 2.241 0Z"/><path d="M350.711 162.525a1.12 1.12 0 1 0-2.241 0 1.12 1.12 0 0 0 2.241 0"/><path fill="none" stroke="#000" stroke-miterlimit="10" stroke-width=".3985" d="M350.711 162.525a1.12 1.12 0 1 0-2.241 0 1.12 1.12 0 0 0 2.241 0Z"/><path d="M363.51 150.857a1.12 1.12 0 1 0-2.241 0 1.12 1.12 0 0 0 2.242 0"/><path fill="none" stroke="#000" stroke-miterlimit="10" stroke-width=".3985" d="M363.51 150.857a1.12 1.12 0 1 0-2.241 0 1.12 1.12 0 0 0 2.242 0Z"/><path d="M376.31 138.243a1.12 1.12 0 1 0-2.242 0 1.12 1.12 0 0 0 2.242 0"/><path fill="none" stroke="#000" stroke-miterlimit="10" stroke-width=".3985" d="M376.31 138.243a1.12 1.12 0 1 0-2.242 0 1.12 1.12 0 0 0 2.242 0Z"/><path d="M389.11 126.039a1.12 1.12 0 1 0-2.243 0 1.12 1.12 0 0 0 2.242 0"/><path fill="none" stroke="#000" stroke-miterlimit="10" stroke-width=".3985" d="M389.11 126.039a1.12 1.12 0 1 0-2.243 0 1.12 1.12 0 0 0 2.242 0Z"/><path d="M401.908 114.85a1.12 1.12 0 1 0-2.241 0 1.12 1.12 0 0 0 2.241 0"/><path fill="none" stroke="#000" stroke-miterlimit="10" stroke-width=".3985" d="M401.908 114.85a1.12 1.12 0 1 0-2.241 0 1.12 1.12 0 0 0 2.241 0Z"/><path d="M414.709 103.24a1.12 1.12 0 1 0-2.242 0 1.12 1.12 0 0 0 2.242 0"/><path fill="none" stroke="#000" stroke-miterlimit="10" stroke-width=".3985" d="M414.709 103.24a1.12 1.12 0 1 0-2.242 0 1.12 1.12 0 0 0 2.242 0Z"/><path d="M427.508 91.6a1.12 1.12 0 1 0-2.242 0 1.12 1.12 0 0 0 2.242 0"/><path fill="none" stroke="#000" stroke-miterlimit="10" stroke-width=".3985" d="M427.508 91.6a1.12 1.12 0 1 0-2.242 0 1.12 1.12 0 0 0 2.242 0Z"/><path d="M440.307 80.316a1.12 1.12 0 1 0-2.241 0 1.12 1.12 0 0 0 2.241 0"/><path fill="none" stroke="#000" stroke-miterlimit="10" stroke-width=".3985" d="M440.307 80.316a1.12 1.12 0 1 0-2.241 0 1.12 1.12 0 0 0 2.241 0Z"/><path d="M453.107 65.295a1.12 1.12 0 1 0-2.242 0 1.12 1.12 0 0 0 2.242 0"/><g fill="none" stroke="#000" stroke-miterlimit="10" stroke-width=".3985"><path d="M453.107 65.295a1.12 1.12 0 1 0-2.242 0 1.12 1.12 0 0 0 2.242 0ZM325.237 183.57a1.245 1.245 0 1 0-2.491 0 1.245 1.245 0 0 0 2.49 0ZM338.036 170.854a1.245 1.245 0 1 0-2.49 0 1.245 1.245 0 0 0 2.49 0ZM350.836 159.125a1.245 1.245 0 1 0-2.491 0 1.245 1.245 0 0 0 2.49 0ZM363.635 146.818a1.245 1.245 0 1 0-2.49 0 1.245 1.245 0 0 0 2.49 0ZM376.435 135.544a1.245 1.245 0 1 0-2.491 0 1.245 1.245 0 0 0 2.49 0ZM389.234 123.494a1.245 1.245 0 1 0-2.491 0 1.245 1.245 0 0 0 2.49 0ZM402.033 112.626a1.245 1.245 0 1 0-2.49 0 1.245 1.245 0 0 0 2.49 0ZM414.833 100.584a1.245 1.245 0 1 0-2.49 0 1.245 1.245 0 0 0 2.49 0ZM427.632 89.16a1.245 1.245 0 1 0-2.49 0 1.245 1.245 0 0 0 2.49 0ZM440.432 77.559a1.245 1.245 0 1 0-2.49 0 1.245 1.245 0 0 0 2.49 0Z"/><path d="M453.232 63.597a1.245 1.245 0 1 0-2.491 0 1.245 1.245 0 0 0 2.49 0Z"/></g><g transform="translate(406.116 141.12)scale(1.0004)"><use xlink:href="#l" x="-48.01427" y="94.046745"/><use xlink:href="#m" x="-42.153868" y="94.046745"/><use xlink:href="#m" x="-37.597109" y="94.046745"/><use xlink:href="#l" x="-33.04035" y="94.046745"/><use xlink:href="#n" x="-27.490909" y="94.046745"/><use xlink:href="#o" x="-17.42059" y="94.046745"/><use xlink:href="#p" x="-12.804028" y="94.046745"/><use xlink:href="#q" x="-9.550907" y="94.046745"/><use xlink:href="#r" x="-4.348307" y="94.046745"/><use xlink:href="#s" x="4.752907" y="94.046745"/></g><g transform="rotate(-90 156.411 -28.99)scale(1.0004)"><use xlink:href="#r" x="-48.01427" y="94.046745"/><use xlink:href="#t" x="-42.81167" y="94.046745"/><use xlink:href="#l" x="-39.558546" y="94.046745"/><use xlink:href="#u" x="-33.698149" y="94.046745"/><use xlink:href="#o" x="-27.191907" y="94.046745"/><use xlink:href="#r" x="-22.575347" y="94.046745"/><use xlink:href="#v" x="-17.372747" y="94.046745"/><use xlink:href="#w" x="-6.967546" y="94.046745"/><use xlink:href="#p" x="-2.410785" y="94.046745"/><use xlink:href="#x" x=".842335" y="94.046745"/><use xlink:href="#r" x="10.601696" y="94.046745"/><use xlink:href="#y" x="19.702912" y="94.046745"/><use xlink:href="#z" x="27.831174" y="94.046745"/><use xlink:href="#A" x="31.072335" y="94.046745"/><use xlink:href="#B" x="37.566615" y="94.046745"/><use xlink:href="#C" x="42.183176" y="94.046745"/></g><g transform="translate(372.873 -55.272)scale(1.0004)"><use xlink:href="#D" x="-48.01427" y="79.594944"/><use xlink:href="#r" x="-37.286148" y="79.594944"/><use xlink:href="#m" x="-32.083546" y="79.594944"/><use xlink:href="#E" x="-27.526788" y="79.594944"/><use xlink:href="#r" x="-21.666388" y="79.594944"/><use xlink:href="#F" x="-12.564828" y="79.594944"/><use xlink:href="#G" x="-6.094468" y="79.594944"/><use xlink:href="#H" x="3.652933" y="79.594944"/><use xlink:href="#I" x="7.874813" y="79.594944"/><use xlink:href="#o" x="14.381054" y="79.594944"/><use xlink:href="#J" x="18.997614" y="79.594944"/><use xlink:href="#K" x="27.453335" y="79.594944"/><use xlink:href="#o" x="33.636655" y="79.594944"/><use xlink:href="#J" x="38.253212" y="79.594944"/><use xlink:href="#D" x="46.696977" y="79.594944"/><use xlink:href="#r" x="57.425097" y="79.594944"/><use xlink:href="#m" x="62.627698" y="79.594944"/><use xlink:href="#E" x="67.184454" y="79.594944"/><use xlink:href="#r" x="73.044856" y="79.594944"/><use xlink:href="#L" x="-12.321943" y="94.046745"/><use xlink:href="#ag" x="-7.765182" y="94.046745"/><use xlink:href="#r" x=".857978" y="94.046745"/><use xlink:href="#K" x="6.060578" y="94.046745"/><use xlink:href="#r" x="11.932939" y="94.046745"/><use xlink:href="#m" x="17.13554" y="94.046745"/><use xlink:href="#o" x="21.6923" y="94.046745"/><use xlink:href="#r" x="26.308861" y="94.046745"/><use xlink:href="#v" x="31.511461" y="94.046745"/><use xlink:href="#O" x="38.017698" y="94.046745"/></g><path fill="#fff" d="M315.997 74.651h80.583V56.706h-80.583Z"/><path fill="none" stroke="#000" stroke-miterlimit="10" stroke-width=".3985" d="M315.997 74.651h80.583V56.706h-80.583Z"/><path d="M321.228 65.679a1.12 1.12 0 1 0-2.242 0 1.12 1.12 0 0 0 2.242 0"/><path fill="none" stroke="#000" stroke-miterlimit="10" stroke-width=".3985" d="M321.228 65.679a1.12 1.12 0 1 0-2.242 0 1.12 1.12 0 0 0 2.242 0Z"/><g transform="translate(350.741 -25.136)scale(1.00008)"><use xlink:href="#P" x="-27.52327" y="94.016756"/><use xlink:href="#Q" x="-21.457312" y="94.016756"/><use xlink:href="#R" x="-12.380191" y="94.016756"/><use xlink:href="#S" x="-8.441681" y="94.016756"/><use xlink:href="#T" x="-2.375721" y="94.016756"/><use xlink:href="#U" x="1.922819" y="94.016756"/></g><path fill="none" stroke="#000" stroke-miterlimit="10" stroke-width=".3985" d="M360.184 65.679a1.245 1.245 0 1 0-2.491 0 1.245 1.245 0 0 0 2.49 0Z"/><g transform="translate(352.27 -25.501)scale(1.00008)"><use xlink:href="#V" x="9.906817" y="94.016756"/><use xlink:href="#W" x="19.911289" y="94.016756"/><use xlink:href="#X" x="24.755329" y="94.016756"/><use xlink:href="#Y" x="29.032049" y="94.016756"/><use xlink:href="#W" x="34.48705" y="94.016756"/></g><path fill="none" stroke="gray" stroke-miterlimit="10" stroke-width=".19925" d="M464.787 195.254h-4.25m4.25-40.958h-4.25m4.25-40.959h-4.25m4.25-40.959h-4.25"/><path fill="none" stroke="#000" stroke-miterlimit="10" stroke-width=".3985" d="M464.787 205.494V51.899"/><use xlink:href="#h" x="-103.806662" y="133.345517" transform="translate(572.736 65.815)scale(1.0004)"/><g transform="translate(572.736 24.856)scale(1.0004)"><use xlink:href="#g" x="-103.806662" y="133.345517"/><use xlink:href="#h" x="-97.958224" y="133.345517"/></g><g transform="translate(572.736 -16.103)scale(1.0004)"><use xlink:href="#a" x="-103.806662" y="133.345517"/><use xlink:href="#h" x="-97.958224" y="133.345517"/></g><g transform="translate(572.736 -57.061)scale(1.0004)"><use xlink:href="#Z" x="-103.806662" y="133.345517"/><use xlink:href="#h" x="-97.958224" y="133.345517"/></g><g fill="none" stroke="#000" stroke-miterlimit="10" stroke-width=".3985"><path d="m322.231 105.678 3.522-3.523m-3.522 0 3.522 3.523M335.03 104.449l3.523-3.522m-3.522 0 3.522 3.522M347.83 115.508l3.522-3.523m-3.522 0 3.522 3.523M360.63 102.401l3.522-3.522m-3.522 0 3.522 3.522M373.429 131.072l3.522-3.522m-3.522 0 3.522 3.522M386.228 134.349l3.522-3.523m-3.522 0 3.522 3.523M399.027 141.721l3.523-3.522m-3.523 0 3.523 3.522M411.828 131.891l3.522-3.522m-3.522 0 3.522 3.522M424.627 136.806l3.522-3.522m-3.522 0 3.522 3.522M437.426 129.434l3.523-3.523m-3.523 0 3.523 3.523M450.226 154.009l3.522-3.522m-3.522 0 3.522 3.522"/></g><g transform="matrix(0 -1.0004 1.0004 0 364.52 86.869)"><use xlink:href="#m" x="-103.806662" y="133.345517"/><use xlink:href="#r" x="-99.249903" y="133.345517"/><use xlink:href="#v" x="-94.047295" y="133.345517"/><use xlink:href="#ac" x="-87.541054" y="133.345517"/><use xlink:href="#ad" x="-81.034812" y="133.345517"/><use xlink:href="#r" x="-75.832204" y="133.345517"/><use xlink:href="#v" x="-70.629606" y="133.345517"/><use xlink:href="#w" x="-60.2244" y="133.345517"/><use xlink:href="#p" x="-55.667641" y="133.345517"/><use xlink:href="#x" x="-52.41452" y="133.345517"/><use xlink:href="#r" x="-42.655159" y="133.345517"/><use xlink:href="#ae" x="-37.453028" y="133.345517"/><use xlink:href="#D" x="-31.597677" y="133.345517"/><use xlink:href="#r" x="-20.869556" y="133.345517"/><use xlink:href="#m" x="-15.666955" y="133.345517"/><use xlink:href="#E" x="-11.110195" y="133.345517"/><use xlink:href="#r" x="-5.249794" y="133.345517"/><use xlink:href="#z" x="3.852552" y="133.345517"/><use xlink:href="#af" x="7.093712" y="133.345517"/><use xlink:href="#C" x="16.841114" y="133.345517"/></g></svg>