<svg xmlns="http://www.w3.org/2000/svg" xmlns:xlink="http://www.w3.org/1999/xlink" width="152.905" height="141.083"><defs><path id="a" d="M5-4.703h2.438c.218 0 .78 0 .78-.547 0-.563-.546-.563-.78-.563H5V-8.28c0-.219 0-.781-.563-.781-.562 0-.562.546-.562.78v2.47H1.406c-.218 0-.765 0-.765.546 0 .563.53.563.765.563h2.469v2.469c0 .218 0 .765.547.765C5-1.469 5-2 5-2.234Zm0 0"/><path id="b" d="M5.234-10.016c0-.265 0-.718-.5-.718-.296 0-.39.156-.5.39-.328.735-.89 1.64-1.812 1.719-.25.016-.61.047-.61.5 0 .297.172.5.547.5.97 0 1.704-.719 1.75-.766V-1H2.594c-.235 0-.703 0-.703.5s.468.5.703.5H6.75c.234 0 .703 0 .703-.5S6.984-1 6.75-1H5.234Zm0 0"/><path id="c" d="M7.328-6.344c.219-.093.375-.25.375-.515 0-.329-.297-.532-.547-.532-.11 0-.25.094-.36.141L4.892-6.062c0-.485.046-2.016.046-2.391a.51.51 0 0 0-.515-.516.51.51 0 0 0-.516.516c0 .5 0 .64.016.656.015.344.031 1.344.031 1.734L2.047-7.25c-.094-.047-.235-.14-.36-.14-.234 0-.53.202-.53.53 0 .266.155.423.359.516l2 1.078-2 1.079c-.204.109-.36.265-.36.515 0 .328.297.531.532.531.125 0 .265-.078.359-.125l1.906-1.187-.015 1.094c-.032.296-.032.968-.032 1.296a.52.52 0 0 0 .516.516.52.52 0 0 0 .516-.516c0-.406-.047-1.921-.047-2.39l1.703 1.047c.422.265.453.265.562.265.25 0 .547-.203.547-.53 0-.204-.125-.36-.281-.454-.438-.266-1.375-.766-2.078-1.125Zm0 0"/><path id="d" d="M5.984-3.781C6.234-4 7.97-5.47 7.97-7.391c0-1.953-1.61-3.343-3.766-3.343-2 0-3.328 1.5-3.328 2.953 0 .718.61.765.703.765a.685.685 0 0 0 .688-.703c0-.328-.11-.422-.204-.5.25-.906 1.032-1.515 2.032-1.515 1.468 0 2.765.843 2.765 2.343 0 1.344-1.015 2.375-1.953 3.188L1.125-.906C.937-.75.875-.703.875-.5c0 .5.469.5.703.5h6.016c.375-.11.375-.453.375-.703v-.36c0-.312 0-.718-.547-.718-.563 0-.563.375-.563.781H2.703Zm0 0"/><path id="e" d="M4.406-5.188c1.797 0 2.578 1.266 2.578 2.188 0 1.14-1 2.203-2.5 2.203-1.734 0-2.5-.922-2.5-1.172a.12.12 0 0 1 .032-.078.95.95 0 0 0 .125-.422.683.683 0 0 0-.688-.687c-.375 0-.719.234-.719.765 0 1.5 1.641 2.594 3.75 2.594 2.157 0 3.625-1.547 3.625-3.187 0-.875-.484-2.094-2-2.75 1.047-.657 1.516-1.688 1.516-2.579 0-1.296-1.281-2.421-3.14-2.421-1.923 0-3.266.828-3.266 2.109 0 .563.437.734.703.734.312 0 .703-.234.703-.703 0-.281-.14-.422-.14-.453.515-.64 1.703-.687 2-.687 1.156 0 2.03.625 2.03 1.437 0 .5-.327 1.922-2.14 2.047-.64.031-.906.063-.984.063-.344.046-.422.265-.422.5 0 .5.36.5.64.5Zm0 0"/><path id="f" d="M4.36-8.344c0-.219 0-.594-.423-.594-.234 0-.328.126-.406.313C3.25-8 2.781-7.25 2.016-7.187c-.204.015-.516.046-.516.421 0 .235.156.407.469.407.797 0 1.422-.594 1.453-.625v6.156h-1.25c-.203 0-.594 0-.594.406 0 .422.39.422.594.422h3.453c.203 0 .578 0 .578-.422 0-.406-.375-.406-.578-.406H4.359Zm0 0"/><path id="g" d="M1.703-4.781c.14-1.89 1.39-3.328 2.797-3.328.297 0 .625.046.828.28-.047.063-.11.141-.11.36 0 .266.204.563.579.563s.594-.266.594-.594c0-.766-.594-1.438-1.875-1.438-1.875 0-3.75 1.75-3.75 4.657C.766-.828 2.359.172 3.719.172a2.894 2.894 0 0 0 2.89-2.938c0-1.687-1.25-2.937-2.734-2.937-.734 0-1.547.266-2.172.922ZM3.72-.656c-1.531 0-1.86-1.953-1.86-1.969 0-.016.016-.094.016-.125 0-.094-.047-.281-.047-.453 0-.828.766-1.656 1.938-1.656 1.125 0 1.921.953 1.921 2.093 0 1.25-.937 2.11-1.968 2.11Zm0 0"/><path id="h" d="M4.984-3.156c.204-.172 1.657-1.406 1.657-3 0-1.625-1.344-2.782-3.141-2.782-1.656 0-2.766 1.25-2.766 2.454 0 .609.5.64.579.64.265 0 .578-.187.578-.578 0-.281-.094-.36-.172-.422.203-.765.86-1.265 1.687-1.265 1.235 0 2.297.703 2.297 1.953 0 1.125-.844 1.984-1.61 2.656L.939-.766C.78-.625.734-.594.734-.422c0 .422.391.422.579.422h5.015c.313-.094.313-.375.313-.594V-.89c0-.25 0-.593-.454-.593-.484 0-.484.312-.484.656H2.25Zm0 0"/><path id="i" d="M3.672-4.313c1.484 0 2.156 1.047 2.156 1.813 0 .953-.844 1.844-2.094 1.844-1.437 0-2.078-.781-2.078-.985 0-.015 0-.046.016-.062a.687.687 0 0 0 .11-.344.567.567 0 0 0-.579-.578C.906-2.625.61-2.437.61-2 .61-.75 1.984.172 3.734.172c1.797 0 3.016-1.297 3.016-2.656 0-.735-.39-1.75-1.656-2.297.875-.547 1.265-1.407 1.265-2.14C6.36-8 5.281-8.938 3.734-8.938c-1.593 0-2.718.687-2.718 1.75a.587.587 0 1 0 1.171.03c0-.234-.124-.359-.124-.374.437-.547 1.421-.578 1.671-.578.97 0 1.688.515 1.688 1.203 0 .406-.266 1.593-1.781 1.703-.532.031-.75.047-.813.047-.297.031-.36.218-.36.422 0 .421.298.421.548.421Zm0 0"/></defs><path fill="none" stroke="#000" stroke-miterlimit="10" stroke-width=".399" d="M70.02 24.945c0-5.84-4.735-10.574-10.575-10.574-5.84 0-10.574 4.734-10.574 10.574S53.605 35.52 59.445 35.52 70.02 30.785 70.02 24.945Zm0 0"/><use xlink:href="#a" x="55.015" y="29.474"/><path fill="none" stroke="#000" stroke-miterlimit="10" stroke-width=".399" d="M36.484 70.3c0-6.105-4.949-11.054-11.054-11.054-6.11 0-11.059 4.95-11.059 11.055 0 6.105 4.95 11.054 11.059 11.054 6.105 0 11.054-4.949 11.054-11.054Zm0 0"/><use xlink:href="#b" x="20.999" y="75.56"/><path fill="none" stroke="#000" stroke-miterlimit="10" stroke-width=".399" d="m52.98 33.563-20.8 27.734M103.969 70.3c0-5.804-4.703-10.51-10.508-10.51-5.805 0-10.512 4.706-10.512 10.51 0 5.805 4.707 10.513 10.512 10.513 5.805 0 10.508-4.708 10.508-10.512Zm0 0"/><use xlink:href="#c" x="89.031" y="74.783"/><path fill="none" stroke="#000" stroke-miterlimit="10" stroke-width=".399" d="m65.914 33.559 21.121 28.175M70.5 115.656c0-6.105-4.95-11.058-11.055-11.058-6.11 0-11.058 4.953-11.058 11.058 0 6.106 4.949 11.055 11.058 11.055 6.106 0 11.055-4.95 11.055-11.055Zm0 0"/><use xlink:href="#d" x="55.015" y="120.915"/><path fill="none" stroke="#000" stroke-miterlimit="10" stroke-width=".399" d="M87.035 78.867 66.2 106.652M138.531 115.656c0-6.105-4.949-11.058-11.054-11.058-6.106 0-11.055 4.953-11.055 11.058 0 6.106 4.95 11.055 11.055 11.055 6.105 0 11.054-4.95 11.054-11.055Zm0 0"/><use xlink:href="#e" x="123.046" y="120.915"/><path fill="none" stroke="#000" stroke-miterlimit="10" stroke-width=".399" d="m99.887 78.867 20.836 27.785M25.43 59.047c0-11.422 11.336-34.102 19.53-34.102"/><path stroke="#000" stroke-miterlimit="10" stroke-width=".399" d="m48.105 24.945-4.53-1.703 1.487 1.703-1.488 1.703Zm0 0"/><use xlink:href="#f" x="19.815" y="32.046"/><path fill="none" stroke="#000" stroke-miterlimit="10" stroke-width=".399" d="M93.46 59.59c0-11.965-11.339-34.645-19.534-34.645"/><path stroke="#000" stroke-miterlimit="10" stroke-width=".399" d="m70.785 24.945 4.528 1.703-1.485-1.703 1.484-1.703Zm0 0"/><use xlink:href="#g" x="91.855" y="32.265"/><path fill="none" stroke="#000" stroke-miterlimit="10" stroke-width=".399" d="M59.445 104.398c0-11.421 11.336-34.097 19.598-34.097"/><path stroke="#000" stroke-miterlimit="10" stroke-width=".399" d="m82.184 70.3-4.528-1.702 1.485 1.703-1.485 1.703Zm0 0"/><use xlink:href="#h" x="53.85" y="77.375"/><path fill="none" stroke="#000" stroke-miterlimit="10" stroke-width=".399" d="M127.477 104.398c0-11.421-11.34-34.097-19.598-34.097"/><path stroke="#000" stroke-miterlimit="10" stroke-width=".399" d="m104.738 70.3 4.528 1.704-1.485-1.703 1.485-1.703Zm0 0"/><use xlink:href="#i" x="125.685" y="77.377"/></svg>