<svg xmlns="http://www.w3.org/2000/svg" xmlns:xlink="http://www.w3.org/1999/xlink" width="293.859" height="200.781"><defs><path id="a" d="M7.125-4.89c0-1.313-.984-2.688-3.297-2.688-.734 0-2.406 0-2.406 1.187 0 .47.328.72.719.72.093 0 .671-.032.687-.75 0-.095.016-.11.375-.141.203-.016.438-.016.64-.016.391 0 .985 0 1.548.437.625.47.625.954.625 1.454C5-4.657 4-4.579 2.922-4.234c-.86.296-1.953.906-1.953 2.078C.969-.937 2.047.109 3.656.109c.547 0 1.61-.093 2.516-.718.344.578 1.203.609 1.86.609.405 0 .812 0 .812-.5S8.406-1 8.156-1c-.437 0-.781-.031-1.031-.14Zm-1.11 2.624c0 .391 0 .75-.718 1.079-.594.296-1.406.296-1.453.296-1.016 0-1.766-.562-1.766-1.265 0-1.016 1.844-1.594 3.938-1.594Zm0 0"/><path id="b" d="M7.469-6.016c.234 0 .75 0 .75-.546 0-.563-.578-.563-.828-.563H1.469c-.266 0-.828 0-.828.563 0 .546.53.546.734.546ZM7.39-3.39c.25 0 .828 0 .828-.562 0-.563-.547-.563-.75-.563H1.375c-.219 0-.734 0-.734.563 0 .562.562.562.828.562Zm0 0"/><path id="c" d="M5.234-10.016c0-.265 0-.718-.5-.718-.296 0-.39.156-.5.39-.328.735-.89 1.64-1.812 1.719-.25.016-.61.047-.61.5 0 .297.172.5.547.5.97 0 1.704-.719 1.75-.766V-1H2.594c-.235 0-.703 0-.703.5s.468.5.703.5H6.75c.234 0 .703 0 .703-.5S6.984-1 6.75-1H5.234Zm0 0"/><path id="d" d="M4.25-6.422h2.094c.234 0 .687 0 .687-.5s-.453-.5-.687-.5H4.25v-.86c0-1.343 1.203-1.343 1.766-1.343 0 .031.125.672.703.672a.675.675 0 0 0 .672-.688c0-.984-1.313-.984-1.579-.984-1.296 0-2.671.734-2.671 2.281v.922H1.42c-.234 0-.702 0-.702.5s.453.5.687.5h1.735V-1H1.5c-.25 0-.688 0-.688.5s.438.5.688.5h4.39c.235 0 .688 0 .688-.5S6.125-1 5.891-1H4.25Zm0 0"/><path id="e" d="M2.766-9.813c0-.53-.094-.703-.688-.703H.953c-.25 0-.687 0-.687.5s.437.5.687.5h.703v8.813c0 .312 0 .703.563.703.547 0 .547-.36.547-.86.421.47 1.062.97 2.015.97C6.61.11 8.22-1.532 8.22-3.72c0-2.125-1.453-3.812-3.25-3.812-1.25 0-2.047.765-2.203.937Zm0 5.235c0-.984.968-1.953 2.093-1.953 1.235 0 2.235 1.265 2.235 2.812 0 1.656-1.172 2.828-2.39 2.828-1.298 0-1.938-1.468-1.938-2.328Zm0 0"/><path id="f" d="M7.125-4.703c.234 0 .781 0 .781-.547 0-.563-.531-.563-.781-.563H1.719c-.219 0-.766 0-.766.547 0 .563.531.563.766.563Zm0 0"/><path id="g" d="M7.578-4.734c.203-.125.328-.313.328-.516 0-.313-.187-.438-.328-.516L1.922-9.359c-.11-.079-.25-.188-.406-.188a.573.573 0 0 0-.563.578c0 .313.188.406.36.531l4.984 3.172-4.984 3.188c-.172.11-.36.219-.36.531 0 .36.297.563.563.563L1.546-1c.141-.016.173-.016.36-.156Zm0 0"/><path id="h" d="M5-4.703h2.438c.218 0 .78 0 .78-.547 0-.563-.546-.563-.78-.563H5V-8.28c0-.219 0-.781-.563-.781-.562 0-.562.546-.562.78v2.47H1.406c-.218 0-.765 0-.765.546 0 .563.53.563.765.563h2.469v2.469c0 .218 0 .765.547.765C5-1.469 5-2 5-2.234Zm0 0"/><path id="i" d="M7.375.984c0-.234-.125-.296-.36-.468-2.39-1.641-2.968-4.094-2.968-5.766 0-1.64.547-4.11 2.969-5.781.234-.172.359-.25.359-.469 0-.172-.094-.453-.5-.453-.438 0-1.703 1-2.5 2.125-.969 1.344-1.453 2.937-1.453 4.578 0 1.906.687 3.516 1.422 4.531.781 1.094 2.047 2.14 2.531 2.14.406 0 .5-.28.5-.437Zm0 0"/><path id="j" d="M5.984-3.781C6.234-4 7.97-5.47 7.97-7.391c0-1.953-1.61-3.343-3.766-3.343-2 0-3.328 1.5-3.328 2.953 0 .718.61.765.703.765a.685.685 0 0 0 .688-.703c0-.328-.11-.422-.204-.5.25-.906 1.032-1.515 2.032-1.515 1.468 0 2.765.843 2.765 2.343 0 1.344-1.015 2.375-1.953 3.188L1.125-.906C.937-.75.875-.703.875-.5c0 .5.469.5.703.5h6.016c.375-.11.375-.453.375-.703v-.36c0-.312 0-.718-.547-.718-.563 0-.563.375-.563.781H2.703Zm0 0"/><path id="k" d="M5.922-5.25A7.909 7.909 0 0 0 4.359-10c-.593-.797-1.859-1.953-2.375-1.953-.406 0-.5.297-.5.453 0 .203.11.297.422.5 2.11 1.484 2.89 3.781 2.89 5.734 0 1.547-.484 4.079-2.952 5.782-.219.156-.36.234-.36.468 0 .157.094.438.5.438.422 0 1.704-.984 2.5-2.11A7.989 7.989 0 0 0 5.922-5.25Zm0 0"/><path id="t" d="M5.406-6.438a.977.977 0 0 0-.968-.984.967.967 0 0 0-.97.984c0 .516.438.97.954.97a.977.977 0 0 0 .984-.97Zm0 5.47a.987.987 0 0 0-.968-.985.967.967 0 0 0-.97.984c0 .516.438.969.954.969a.977.977 0 0 0 .984-.969Zm0 0"/><path id="l" d="M5.969-2.75c.297 0 .578 0 .578-.531 0-1.688-.953-3.031-2.75-3.031-1.656 0-3 1.437-3 3.187A3.204 3.204 0 0 0 4.016.094c1.843 0 2.53-1.282 2.53-1.657 0-.093-.03-.406-.484-.406-.265 0-.359.11-.437.313-.36.843-1.297.906-1.563.906-1.187 0-2.14-.906-2.296-2ZM1.78-3.547c.188-1.219 1.11-1.937 2.016-1.937 1.437 0 1.734 1.218 1.797 1.937Zm0 0"/><path id="m" d="M6-4.203c0-1.406-.672-2.063-1.844-2.063-.968 0-1.61.547-1.843.813 0-.531 0-.734-.579-.734H.781c-.187 0-.562 0-.562.421 0 .422.375.422.562.422h.594v4.516H.781c-.187 0-.562 0-.562.406C.219 0 .594 0 .78 0h2.11c.203 0 .578 0 .578-.422 0-.406-.375-.406-.578-.406h-.579v-2.594c0-1.39.97-2.015 1.75-2.015.829 0 1 .468 1 1.296v3.313H4.47c-.188 0-.563 0-.563.406 0 .422.375.422.563.422h2.11c.202 0 .577 0 .577-.422 0-.406-.375-.406-.578-.406H6Zm0 0"/><path id="n" d="M6.078-5.344h.375c.203 0 .594 0 .594-.422 0-.421-.39-.421-.594-.421H4.875c-.203 0-.594 0-.594.421 0 .422.39.422.594.422h.36L3.686-.734l-1.546-4.61H2.5c.203 0 .578 0 .578-.422 0-.421-.375-.421-.578-.421H.922c-.203 0-.594 0-.594.421 0 .422.39.422.594.422h.375l1.64 4.922c.157.5.47.5.75.5.266 0 .594 0 .75-.5Zm0 0"/><path id="o" d="M4.328-8.14a.643.643 0 0 0-.64-.641c-.36 0-.641.297-.641.64 0 .36.281.657.64.657.36 0 .641-.297.641-.657ZM1.86-6.188c-.203 0-.562 0-.562.421 0 .422.36.422.562.422h1.547v4.516h-1.64c-.204 0-.594 0-.594.406 0 .422.39.422.594.422H5.75c.203 0 .578 0 .578-.422 0-.406-.375-.406-.578-.406H4.328v-4.766c0-.437-.078-.593-.562-.593Zm0 0"/><path id="p" d="M3.094-2.719c0-1.703 1.203-2.719 2.422-2.719.078 0 .171 0 .234.016.047.516.453.563.547.563a.55.55 0 0 0 .562-.563c0-.61-.609-.844-1.328-.844-.953 0-1.765.422-2.437 1.235v-.563c0-.437-.078-.593-.563-.593H1.078c-.203 0-.578 0-.578.421 0 .422.375.422.578.422h1.094v4.516H1.078c-.203 0-.578 0-.578.406C.5 0 .875 0 1.078 0H4.61c.204 0 .563 0 .563-.422 0-.406-.36-.406-.563-.406H3.094Zm0 0"/><path id="q" d="M6.547-3.094c0-1.797-1.313-3.219-2.86-3.219-1.546 0-2.859 1.422-2.859 3.22 0 1.796 1.328 3.187 2.86 3.187 1.53 0 2.859-1.39 2.859-3.188ZM3.687-.75c-1.03 0-1.921-1.094-1.921-2.453 0-1.328.921-2.281 1.921-2.281s1.922.953 1.922 2.28c0 1.376-.89 2.454-1.921 2.454Zm0 0"/><path id="r" d="M6.5-4.344c0-.312 0-1.922-1.266-1.922-.5 0-.984.235-1.375.75-.093-.203-.406-.75-1.093-.75a1.65 1.65 0 0 0-1.204.547c-.015-.468-.312-.468-.578-.468H.563c-.204 0-.579 0-.579.421 0 .422.329.422.782.422v4.516c-.47 0-.782 0-.782.406C-.016 0 .36 0 .563 0h1.203c.203 0 .578 0 .578-.422 0-.406-.328-.406-.781-.406v-2.64c0-1.204.515-1.97 1.156-1.97.39 0 .515.5.515 1.172v3.438c-.25 0-.64 0-.64.406 0 .422.39.422.594.422h1.046c.204 0 .579 0 .579-.422 0-.406-.344-.406-.782-.406v-2.64c0-1.204.516-1.97 1.14-1.97.407 0 .516.5.516 1.172v3.438c-.234 0-.625 0-.625.406 0 .422.391.422.594.422h1.047c.203 0 .563 0 .563-.422 0-.406-.329-.406-.766-.406Zm0 0"/><path id="s" d="M3.094-5.344h2.328c.203 0 .578 0 .578-.422 0-.421-.375-.421-.578-.421H3.094V-7.36c0-.25 0-.594-.453-.594-.47 0-.47.344-.47.594v1.171H.954c-.203 0-.594 0-.594.422s.375.422.579.422h1.234v3.61c0 1.328.906 1.828 1.937 1.828.782 0 2.204-.39 2.204-1.86 0-.28 0-.593-.47-.593-.468 0-.468.312-.468.609-.016.86-.828 1-1.156 1-1.125 0-1.125-.719-1.125-1.063Zm0 0"/><path id="u" d="M2.313-8.172c0-.453-.094-.594-.579-.594H.781c-.187 0-.562 0-.562.422 0 .406.375.406.562.406h.594v7.344c0 .266 0 .594.469.594.468 0 .468-.297.468-.719.344.39.876.813 1.672.813 1.532 0 2.86-1.375 2.86-3.188 0-1.765-1.203-3.172-2.703-3.172a2.56 2.56 0 0 0-1.829.766Zm0 4.36c0-.829.796-1.626 1.734-1.626 1.031 0 1.86 1.047 1.86 2.344 0 1.375-.97 2.344-1.985 2.344-1.078 0-1.61-1.219-1.61-1.938Zm0 0"/><path id="v" d="M6-8.172c0-.453-.094-.594-.578-.594h-.953c-.188 0-.563 0-.563.422 0 .406.375.406.563.406h.593v2.391c-.234-.234-.812-.719-1.687-.719C1.844-6.266.531-4.89.531-3.078.531-1.313 1.766.094 3.234.094c.938 0 1.563-.563 1.829-.875 0 .594 0 .781.578.781h.937c.203 0 .578 0 .578-.422 0-.406-.375-.406-.578-.406H6Zm-.938 5.453c0 .797-.656 1.969-1.734 1.969-1.031 0-1.86-1.047-1.86-2.328 0-1.375.97-2.36 1.985-2.36.938 0 1.61.844 1.61 1.594Zm0 0"/><path id="w" d="M6.078-5.344h.375c.203 0 .594 0 .594-.422 0-.421-.39-.421-.594-.421H4.875c-.203 0-.594 0-.594.421 0 .422.39.422.594.422h.36C4.827-4.172 4.014-1.78 3.811-.969h-.015c-.063-.312-.125-.469-.266-.86L2.187-5.343h.344c.188 0 .578 0 .578-.422 0-.421-.39-.421-.578-.421H.953c-.203 0-.594 0-.594.421 0 .422.391.422.594.422h.375L3.344-.187c.062.14.062.171.062.187 0 .031-.375 1.281-.594 1.672-.093.156-.453.828-1.14.75.016-.047.062-.125.062-.281a.542.542 0 0 0-.562-.563c-.36 0-.563.25-.563.578 0 .547.454 1.11 1.172 1.11 1.39 0 2-1.844 2.047-1.954Zm0 0"/><path id="x" d="M5.5-3.328c.313 0 .344 0 .344-.266 0-1.453-.782-2.797-2.516-2.797-1.64 0-2.89 1.47-2.89 3.25C.438-1.25 1.89.141 3.483.141c1.704 0 2.36-1.547 2.36-1.844 0-.094-.078-.14-.157-.14-.125 0-.156.062-.171.14C5.14-.5 4.172-.172 3.578-.172c-.61 0-2.062-.406-2.062-2.89v-.266Zm-3.969-.266c.125-2.265 1.375-2.515 1.782-2.515 1.53 0 1.624 2.015 1.64 2.515Zm0 0"/><path id="y" d="M4.016-3.39C4.437-3.938 5.03-4.704 5.312-5c.579-.672 1.25-.766 1.72-.766v-.421c-.626.03-.641.03-1.204.03-.547 0-.578 0-1.297-.03v.421c.188.032.422.11.422.438 0 .25-.14.406-.219.516l-.921 1.171-1.11-1.484c-.047-.047-.14-.188-.14-.281 0-.094.078-.344.5-.36v-.421c-.344.03-1.079.03-1.47.03-.468 0-.5 0-1.374-.03v.421c.734 0 1 .032 1.297.422l1.687 2.188c.031.031.078.11.078.156 0 .047-1.11 1.453-1.265 1.64C1.39-.593.766-.436.14-.421V0c.546-.031.578-.031 1.187-.031.547 0 .578 0 1.297.031v-.422c-.344-.031-.406-.25-.406-.453 0-.234.11-.344.25-.531.219-.297.687-.89 1.031-1.328l1.172 1.53c.25.313.25.345.25.423 0 .125-.11.344-.5.36V0C4.797-.031 5.5-.031 5.89-.031c.484 0 .5 0 1.375.031v-.422c-.766 0-1.032-.016-1.375-.484Zm0 0"/><path id="z" d="M2.406-5.766h2.031v-.421h-2.03v-2.641h-.313c-.016 1.36-.531 2.734-1.828 2.781v.281h1.218v3.985C1.484-.188 2.531.14 3.297.14c.906 0 1.375-.891 1.375-1.922v-.813h-.313v.781c0 1.032-.421 1.641-.968 1.641-.985 0-.985-1.328-.985-1.578Zm0 0"/><path id="A" d="M6.39-3.484c0-1.329 0-1.735-.343-2.204-.406-.546-1.078-.64-1.578-.64-1.39 0-1.938 1.187-2.047 1.484h-.016v-1.484l-1.953.156v.422c.984 0 1.094.094 1.094.797v3.89c0 .641-.156.641-1.094.641V0C.828-.031 1.61-.031 2.016-.031c.406 0 1.187 0 1.562.031v-.422c-.922 0-1.094 0-1.094-.64v-2.672c0-1.5.985-2.297 1.875-2.297.891 0 1.094.718 1.094 1.593v3.375c0 .641-.156.641-1.094.641V0c.375-.031 1.157-.031 1.547-.031.422 0 1.188 0 1.563.031v-.422c-.719 0-1.078 0-1.078-.422Zm0 0"/><path id="B" d="M4.297-9.797v.422c.984 0 1.094.094 1.094.797v3.172a2.22 2.22 0 0 0-1.797-.922C1.938-6.328.5-4.922.5-3.078.5-1.266 1.86.14 3.438.14c1.093 0 1.718-.72 1.921-.985v.985L7.391 0v-.422c-.985 0-1.094-.094-1.094-.797v-8.734Zm1.062 8.125c0 .25 0 .297-.203.61-.343.5-.922.921-1.64.921-.375 0-1.922-.14-1.922-2.921 0-1.047.172-1.61.484-2.094.281-.438.86-.875 1.578-.875.89 0 1.39.64 1.531.875.172.234.172.265.172.515Zm0 0"/><path id="C" d="M4.703-6.063c0-.265 0-.328-.14-.328-.11 0-.391.313-.485.438-.453-.36-.89-.438-1.36-.438-1.734 0-2.25.938-2.25 1.735 0 .156 0 .656.548 1.156.468.406.953.5 1.609.625.781.156.969.203 1.328.5.266.203.453.531.453.922 0 .625-.36 1.312-1.625 1.312-.937 0-1.64-.546-1.953-1.984-.047-.25-.047-.266-.062-.281C.734-2.47.672-2.47.625-2.47c-.156 0-.156.078-.156.328v1.954c0 .265 0 .328.14.328.079 0 .094-.016.344-.313.063-.094.063-.125.281-.36.547.673 1.313.673 1.563.673 1.5 0 2.25-.829 2.25-1.97 0-.765-.469-1.234-.594-1.359-.516-.437-.906-.53-1.86-.703-.421-.078-1.468-.28-1.468-1.14 0-.453.297-1.11 1.594-1.11 1.562 0 1.64 1.329 1.672 1.782.015.109.109.109.156.109.156 0 .156-.063.156-.328Zm0 0"/><path id="D" d="M5.531-3.828c0-.781 0-1.344-.625-1.906-.5-.47-1.14-.657-1.781-.657-1.172 0-2.078.766-2.078 1.704 0 .406.266.609.61.609.343 0 .577-.234.577-.578 0-.594-.515-.594-.734-.594.344-.61 1.031-.86 1.594-.86.672 0 1.515.548 1.515 1.829v.578C1.72-3.656.625-2.453.625-1.343.625-.22 1.953.14 2.828.14c.938 0 1.594-.579 1.86-1.266.062.688.5 1.203 1.125 1.203.296 0 1.125-.203 1.125-1.36v-.796h-.313v.797c0 .828-.344.937-.547.937-.547 0-.547-.765-.547-.969ZM4.61-2.016C4.61-.609 3.563-.14 2.938-.14c-.704 0-1.282-.515-1.282-1.203 0-1.89 2.438-2.062 2.953-2.093Zm0 0"/><path id="E" d="M2.39-3.344c0-1.39.579-2.687 1.688-2.687h.203c-.125.062-.343.156-.343.531 0 .422.328.578.546.578.297 0 .579-.187.579-.578 0-.422-.391-.828-1-.828-1.22 0-1.641 1.328-1.72 1.594h-.015v-1.594l-1.922.156v.422c.969 0 1.078.094 1.078.797v3.89c0 .641-.156.641-1.078.641V0c.39-.031 1.188-.031 1.61-.031.39 0 1.406 0 1.75.031v-.422h-.297c-1.047 0-1.078-.156-1.078-.672Zm0 0"/><path id="F" d="M5.188-5.313c-.172 0-.704 0-.704.594 0 .344.25.594.594.594.328 0 .61-.203.61-.625 0-.953-1.016-1.64-2.172-1.64C1.844-6.39.5-4.907.5-3.095.5-1.266 1.875.141 3.5.141c1.89 0 2.328-1.72 2.328-1.844 0-.14-.11-.14-.14-.14-.141 0-.157.046-.188.218C5.172-.609 4.406-.172 3.625-.172c-.875 0-2.031-.766-2.031-2.937 0-2.391 1.218-2.97 1.937-2.97.547 0 1.328.22 1.656.766Zm0 0"/><path id="G" d="M6.39-3.484c0-1.329 0-1.735-.343-2.204-.406-.546-1.078-.64-1.578-.64-1.235 0-1.797.937-2 1.375h-.016v-5l-2 .156v.422c.984 0 1.094.094 1.094.797v7.515c0 .641-.156.641-1.094.641V0C.828-.031 1.61-.031 2.016-.031c.406 0 1.187 0 1.562.031v-.422c-.922 0-1.094 0-1.094-.64v-2.672c0-1.5.985-2.297 1.875-2.297.891 0 1.094.718 1.094 1.593v3.375c0 .641-.156.641-1.094.641V0c.375-.031 1.157-.031 1.547-.031.422 0 1.188 0 1.563.031v-.422c-.719 0-1.078 0-1.078-.422Zm0 0"/></defs><use xlink:href="#a" x="19.436" y="60.961"/><use xlink:href="#b" x="37.161" y="60.961"/><use xlink:href="#c" x="54.869" y="60.961"/><use xlink:href="#d" x="19.436" y="100.646"/><use xlink:href="#b" x="37.161" y="100.646"/><use xlink:href="#e" x="54.869" y="100.646"/><use xlink:href="#f" x="72.594" y="100.646"/><use xlink:href="#g" x="81.453" y="100.646"/><use xlink:href="#a" x="99.161" y="100.646"/><use xlink:href="#h" x="108.02" y="100.646"/><use xlink:href="#e" x="116.879" y="100.646"/><use xlink:href="#d" x="19.436" y="140.331"/><use xlink:href="#i" x="28.295" y="140.331"/><use xlink:href="#j" x="37.154" y="140.331"/><use xlink:href="#k" x="46.013" y="140.331"/><use xlink:href="#a" x="71.465" y="168.88"/><use xlink:href="#h" x="80.324" y="168.88"/><use xlink:href="#e" x="89.183" y="168.88"/><use xlink:href="#l" x="183.135" y="28.204"/><use xlink:href="#m" x="190.518" y="28.204"/><use xlink:href="#n" x="197.9" y="28.204"/><use xlink:href="#o" x="205.283" y="28.204"/><use xlink:href="#p" x="212.665" y="28.204"/><use xlink:href="#q" x="220.048" y="28.204"/><use xlink:href="#m" x="227.43" y="28.204"/><use xlink:href="#r" x="234.813" y="28.204"/><use xlink:href="#l" x="242.195" y="28.204"/><use xlink:href="#m" x="249.578" y="28.204"/><use xlink:href="#s" x="256.961" y="28.204"/><use xlink:href="#a" x="206.02" y="59.526"/><use xlink:href="#t" x="214.879" y="59.526"/><use xlink:href="#c" x="232.604" y="59.526"/><path fill="none" stroke="#000" stroke-miterlimit="10" stroke-width=".398" d="M202.633 42.95h42.21M202.832 68.453V42.95M244.645 68.453V42.95M202.633 68.453h42.21"/><use xlink:href="#e" x="206.02" y="138.896"/><use xlink:href="#t" x="214.879" y="138.896"/><use xlink:href="#j" x="232.604" y="138.896"/><path fill="none" stroke="#000" stroke-miterlimit="10" stroke-width=".398" d="M202.633 122.316h42.21M202.832 147.824V122.32M244.645 147.824V122.32M202.633 147.824h42.21"/><path fill="none" stroke="#000" stroke-miterlimit="10" stroke-width=".399" d="M37.152 147.227c0 11.34 17.512 16.394 25.141 16.394"/><path stroke="#000" stroke-miterlimit="10" stroke-width=".399" d="m65.438 163.621-4.528-1.707 1.485 1.707-1.485 1.703Zm0 0"/><use xlink:href="#u" x="31.144" y="178.157"/><use xlink:href="#q" x="38.527" y="178.157"/><use xlink:href="#v" x="45.909" y="178.157"/><use xlink:href="#w" x="53.292" y="178.157"/><path fill="none" stroke="#000" stroke-miterlimit="10" stroke-width=".399" d="M223.742 116.656V77.824"/><path stroke="#000" stroke-miterlimit="10" stroke-width=".399" d="m223.742 74.68-1.707 4.527 1.707-1.484 1.703 1.484Zm0 0"/><use xlink:href="#x" x="233.452" y="100.367"/><use xlink:href="#y" x="239.695" y="100.367"/><use xlink:href="#z" x="247.11" y="100.367"/><use xlink:href="#x" x="252.573" y="100.367"/><use xlink:href="#A" x="258.816" y="100.367"/><use xlink:href="#B" x="266.62" y="100.367"/><path fill="none" stroke="#000" stroke-miterlimit="10" stroke-width=".399" d="M131.207 95.387c45.352 0 47.18-39.688 62.258-39.688"/><path stroke="#000" stroke-miterlimit="10" stroke-width=".399" d="m196.605 55.7-4.527-1.704 1.484 1.703-1.484 1.707Zm0 0"/><use xlink:href="#l" x="153.114" y="104.213"/><use xlink:href="#m" x="160.497" y="104.213"/><use xlink:href="#n" x="167.879" y="104.213"/><path fill="none" stroke="#000" stroke-miterlimit="10" stroke-width=".399" d="M103.504 163.621c45.355 0 74.883-28.55 89.96-28.55"/><path stroke="#000" stroke-miterlimit="10" stroke-width=".399" d="m196.605 135.07-4.527-1.703 1.484 1.703-1.484 1.707Zm0 0"/><use xlink:href="#C" x="131.374" y="170.758"/><use xlink:href="#x" x="136.915" y="170.758"/><use xlink:href="#D" x="143.158" y="170.758"/><use xlink:href="#E" x="150.182" y="170.758"/><use xlink:href="#F" x="155.645" y="170.758"/><use xlink:href="#G" x="161.501" y="170.758"/></svg>