<svg xmlns="http://www.w3.org/2000/svg" xmlns:xlink="http://www.w3.org/1999/xlink" width="237.39pt" height="90.02pt" viewBox="0 0 237.39 90.02"><defs><path id="s" d="M5.358-3.827c0-.993-.06-1.962-.49-2.87-.49-.993-1.352-1.256-1.938-1.256-.693 0-1.543.346-1.985 1.34C.61-5.86.49-5.12.49-3.828c0 1.16.084 2.033.515 2.882A2.13 2.13 0 0 0 2.918.251c1.04 0 1.639-.622 1.986-1.315.43-.897.454-2.07.454-2.763M2.918.012c-.382 0-1.16-.215-1.387-1.519-.132-.718-.132-1.627-.132-2.464 0-.98 0-1.865.192-2.571.203-.801.813-1.172 1.327-1.172.455 0 1.148.275 1.376 1.303.155.682.155 1.627.155 2.44 0 .802 0 1.71-.131 2.44C4.09-.215 3.337.012 2.918.012"/><path id="m" d="M3.444-7.666c0-.275 0-.287-.239-.287-.287.323-.885.765-2.117.765v.347c.275 0 .873 0 1.531-.311v6.231c0 .43-.036.574-1.088.574h-.37V0c.322-.024 1.482-.024 1.877-.024s1.543 0 1.866.024v-.347h-.371C3.48-.347 3.444-.49 3.444-.92z"/><path id="n" d="M5.262-2.01H5c-.036.204-.131.862-.25 1.053-.085.108-.766.108-1.125.108H1.41c.323-.275 1.053-1.04 1.364-1.328 1.818-1.674 2.487-2.296 2.487-3.48 0-1.375-1.088-2.296-2.475-2.296S.586-6.77.586-5.741c0 .61.526.61.562.61.251 0 .562-.18.562-.562 0-.335-.227-.562-.562-.562-.107 0-.131 0-.167.012.227-.813.873-1.364 1.65-1.364 1.017 0 1.639.85 1.639 1.95 0 1.017-.586 1.902-1.268 2.667L.586-.287V0h4.365z"/><path id="o" d="M3.564-4.318c.598-.322 1.471-.873 1.471-1.877 0-1.04-1.004-1.758-2.105-1.758-1.184 0-2.117.873-2.117 1.961 0 .407.12.813.455 1.22.131.155.143.167.98.753C1.088-3.48.49-2.679.49-1.806.49-.538 1.698.251 2.918.251c1.328 0 2.44-.98 2.44-2.236 0-1.22-.861-1.758-1.794-2.333M1.938-5.394c-.156-.108-.634-.419-.634-1.005 0-.777.813-1.267 1.614-1.267.861 0 1.627.622 1.627 1.483 0 .73-.526 1.315-1.22 1.698zM2.5-3.851l1.447.945c.31.203.86.574.86 1.303 0 .91-.92 1.531-1.877 1.531-1.016 0-1.89-.741-1.89-1.734 0-.933.682-1.686 1.46-2.045"/><path id="l" d="M8.073-3.875c.167 0 .383 0 .383-.215 0-.228-.204-.228-.383-.228H1.029c-.168 0-.383 0-.383.216 0 .227.203.227.383.227zm0 2.225c.167 0 .383 0 .383-.216 0-.227-.204-.227-.383-.227H1.029c-.168 0-.383 0-.383.215 0 .228.203.228.383.228z"/><path id="f" d="M5.684-2.357c0-1.385-1.07-2.465-2.313-2.465-.85 0-1.32.513-1.494.709v-3.459l-1.572.12v.339c.764 0 .851.076.851.61V0h.273l.393-.676c.164.25.622.796 1.43.796 1.297 0 2.432-1.07 2.432-2.477m-.905-.01c0 .403-.022 1.058-.339 1.549-.229.338-.643.698-1.232.698-.491 0-.884-.262-1.146-.666-.153-.229-.153-.261-.153-.458V-3.49c0-.207 0-.218.12-.393a1.58 1.58 0 0 1 1.288-.698c.49 0 .883.283 1.145.698.284.447.317 1.07.317 1.517"/><path id="e" d="M4.986-1.833c0-.393-.12-.884-.535-1.342-.207-.229-.382-.338-1.08-.774.786-.404 1.32-.971 1.32-1.691 0-1.004-.97-1.626-1.963-1.626-1.092 0-1.975.807-1.975 1.822 0 .196.022.687.48 1.2.12.13.524.404.796.59-.633.316-1.57.926-1.57 2.007C.458-.491 1.57.24 2.716.24c1.232 0 2.269-.906 2.269-2.073M4.21-5.64c0 .621-.425 1.145-1.08 1.527l-1.353-.873c-.502-.327-.545-.698-.545-.884 0-.665.709-1.123 1.484-1.123.796 0 1.494.567 1.494 1.353m.23 4.2c0 .807-.819 1.375-1.713 1.375-.939 0-1.724-.677-1.724-1.582 0-.633.349-1.331 1.276-1.844l1.342.85c.306.208.818.535.818 1.2"/><path id="g" d="M2.695 0v-.338c-.72 0-.764-.055-.764-.48v-4.004l-1.527.12v.338c.709 0 .807.065.807.6v2.935c0 .49-.12.49-.851.49V0l1.2-.033c.382 0 .764.022 1.135.033m-.6-6.59a.583.583 0 0 0-1.167 0 .583.583 0 0 0 1.167 0"/><path id="d" d="M3.611 2.618c0-.032 0-.054-.185-.24-1.364-1.374-1.713-3.436-1.713-5.105 0-1.899.414-3.797 1.756-5.16.142-.132.142-.154.142-.186 0-.077-.043-.11-.109-.11-.109 0-1.09.742-1.735 2.128-.556 1.2-.687 2.411-.687 3.327 0 .851.12 2.172.72 3.404.655 1.342 1.593 2.052 1.702 2.052.066 0 .11-.033.11-.11"/><path id="j" d="M3.153-2.727c0-.851-.12-2.172-.72-3.404C1.778-7.473.84-8.182.73-8.182c-.065 0-.11.043-.11.109 0 .032 0 .054.208.25C1.9-6.742 2.52-5.007 2.52-2.726c0 1.865-.403 3.785-1.756 5.16-.142.13-.142.153-.142.185 0 .066.044.11.109.11.11 0 1.091-.742 1.735-2.128.556-1.2.687-2.411.687-3.327"/><path id="i" d="M3.928-1.396c0-.579-.328-.906-.459-1.037-.36-.35-.785-.436-1.243-.524-.611-.12-1.342-.261-1.342-.894 0-.382.283-.83 1.222-.83 1.2 0 1.254.983 1.276 1.32.011.099.131.099.131.099.142 0 .142-.055.142-.262v-1.102c0-.185 0-.262-.12-.262-.055 0-.077 0-.218.131a1.4 1.4 0 0 1-.186.175c-.414-.306-.862-.306-1.025-.306C.775-4.888.36-4.157.36-3.546c0 .382.175.688.47.928.348.283.654.349 1.44.501.24.044 1.134.219 1.134 1.004 0 .557-.382.993-1.233.993-.916 0-1.31-.622-1.516-1.55C.622-1.81.61-1.854.502-1.854c-.142 0-.142.077-.142.273v1.44C.36.044.36.12.48.12.535.12.546.11.753-.098.775-.12.775-.142.97-.35c.48.458.971.469 1.2.469 1.255 0 1.757-.731 1.757-1.516"/><path id="h" d="M3.622-1.353v-.622H3.35v.6c0 .808-.327 1.222-.73 1.222-.732 0-.732-.993-.732-1.178v-3.033h1.56v-.338h-1.56V-6.71h-.272c-.011.895-.339 2.062-1.408 2.106v.24h.928v3.011C1.135-.01 2.149.12 2.542.12c.775 0 1.08-.775 1.08-1.473"/><path id="q" d="M4.986-1.866c0-.894-.687-1.745-1.822-1.974C4.059-4.135 4.69-4.9 4.69-5.76c0-.895-.96-1.506-2.007-1.506-1.102 0-1.931.655-1.931 1.484 0 .36.24.567.556.567.338 0 .557-.24.557-.556 0-.546-.513-.546-.677-.546.338-.534 1.058-.676 1.451-.676.448 0 1.048.24 1.048 1.222 0 .13-.022.763-.306 1.243-.327.524-.698.557-.97.568-.088.01-.35.032-.426.032-.088.011-.164.022-.164.131 0 .12.076.12.262.12h.48c.894 0 1.298.742 1.298 1.811 0 1.484-.753 1.8-1.233 1.8C2.16-.065 1.342-.25.96-.894c.382.055.72-.185.72-.6 0-.392-.294-.61-.61-.61-.263 0-.612.152-.612.632C.458-.48 1.473.24 2.662.24c1.331 0 2.324-.993 2.324-2.106"/><path id="p" d="M4.899-1.898h-.273c-.055.327-.131.807-.24.97-.077.088-.797.088-1.037.088H1.386l1.156-1.124C4.244-3.469 4.899-4.059 4.899-5.15c0-1.243-.982-2.116-2.313-2.116a2.016 2.016 0 0 0-2.04 1.975c0 .61.545.61.578.61.185 0 .567-.13.567-.578a.55.55 0 0 0-.578-.567c-.087 0-.11 0-.142.011.25-.71.84-1.113 1.473-1.113.993 0 1.462.884 1.462 1.778 0 .873-.546 1.735-1.146 2.412L.666-.404c-.12.12-.12.142-.12.404h4.047z"/><path id="c" d="M2.2-.574a.584.584 0 0 0-.573-.586.584.584 0 0 0-.586.574c0 .347.287.586.574.586A.584.584 0 0 0 2.2-.574"/><path id="k" d="M8.312-2.775c.012-.036.048-.12.048-.167a.12.12 0 0 0-.12-.12c-.047 0-.071.012-.107.048-.024.012-.024.036-.132.275-.705 1.675-1.22 2.392-3.133 2.392H3.122c-.168 0-.192 0-.264-.012-.131-.012-.143-.036-.143-.131 0-.084.024-.156.048-.263l.825-3.301h1.184c.933 0 1.005.203 1.005.562 0 .12 0 .227-.084.586a.3.3 0 0 0-.036.131c0 .084.06.12.132.12.107 0 .12-.084.167-.251l.682-2.775a.12.12 0 0 0-.12-.12c-.107 0-.12.048-.167.216-.24.92-.479 1.184-1.543 1.184H3.672l.741-2.942c.108-.419.132-.455.622-.455h1.71c1.472 0 1.77.395 1.77 1.304 0 .012 0 .347-.047.741a1 1 0 0 0-.024.144c0 .095.06.131.131.131.084 0 .132-.048.156-.263l.251-2.093c0-.036.024-.155.024-.18 0-.13-.108-.13-.323-.13H2.846c-.227 0-.346 0-.346.215 0 .131.083.131.287.131.741 0 .741.084.741.215a1 1 0 0 1-.048.24L1.866-.885c-.108.419-.132.538-.969.538-.227 0-.347 0-.347.215C.55 0 .622 0 .861 0h6.004c.263 0 .275-.012.359-.203z"/><path id="r" d="M3.552-3.899H4.7c.91 0 .981.203.981.55 0 .156-.024.323-.084.586a.4.4 0 0 0-.036.132c0 .084.048.131.132.131.096 0 .108-.047.155-.239l.694-2.787c0-.047-.036-.12-.12-.12-.107 0-.12.049-.167.252-.251.897-.49 1.148-1.53 1.148h-1.09l.778-3.097c.108-.419.132-.455.622-.455h1.603c1.495 0 1.71.443 1.71 1.292 0 .072 0 .335-.036.646a2 2 0 0 0-.036.25c0 .096.06.132.132.132.084 0 .131-.048.155-.263l.252-2.093c0-.036.023-.155.023-.18 0-.13-.107-.13-.322-.13h-5.67c-.227 0-.346 0-.346.215 0 .131.083.131.287.131.741 0 .741.084.741.215a1 1 0 0 1-.048.24L1.866-.885c-.108.419-.132.538-.969.538-.227 0-.347 0-.347.215C.55 0 .658 0 .73 0c.227 0 .466-.024.693-.024h1.555c.263 0 .55.024.813.024.108 0 .251 0 .251-.215 0-.132-.071-.132-.334-.132-.945 0-.97-.084-.97-.263 0-.06.025-.155.049-.24z"/><path id="a" d="M4.904 0v-.347h-.371C3.48-.347 3.444-.49 3.444-.92v-6.745c0-.275 0-.287-.239-.287-.287.323-.885.765-2.117.765v.347c.275 0 .873 0 1.531-.311v6.231c0 .43-.036.574-1.088.574h-.37V0c.322-.024 1.482-.024 1.877-.024s1.543 0 1.866.024"/><path id="b" d="M5.358-3.827c0-.993-.06-1.962-.49-2.87-.49-.993-1.352-1.256-1.938-1.256-.693 0-1.543.346-1.985 1.34C.61-5.86.49-5.12.49-3.828c0 1.16.084 2.033.515 2.882A2.13 2.13 0 0 0 2.918.251c1.04 0 1.639-.622 1.986-1.315.43-.897.454-2.07.454-2.763m-.909-.144c0 .802 0 1.71-.131 2.44C4.09-.215 3.337.012 2.918.012c-.382 0-1.16-.215-1.387-1.519-.132-.718-.132-1.627-.132-2.464 0-.98 0-1.865.192-2.571.203-.801.813-1.172 1.327-1.172.455 0 1.148.275 1.376 1.303.155.682.155 1.627.155 2.44"/></defs><path fill="none" stroke="#000" stroke-miterlimit="10" stroke-width=".3985" d="M11.537 27.705h214.318v-16.17H11.537Zm14.026-16.17v16.17m14.226-16.17v16.17m14.226-16.17v16.17m14.226-16.17v16.17m50.455-16.17v16.17m14.226-16.17v16.17m14.226-16.17v16.17m14.226-16.17v16.17m14.226-16.17v16.17"/><use xlink:href="#a" x="46.714748" y="-52.398029" transform="translate(-31.175 75.972)scale(1.0004)"/><use xlink:href="#a" x="46.714748" y="-52.398029" transform="translate(-16.949 75.972)scale(1.0004)"/><use xlink:href="#b" x="46.714748" y="-52.398029" transform="translate(-2.723 75.847)scale(1.0004)"/><use xlink:href="#b" x="46.714748" y="-52.398029" transform="translate(11.503 75.847)scale(1.0004)"/><g transform="translate(25.729 72.578)scale(1.0004)"><use xlink:href="#c" x="60.893439" y="-52.398029"/><use xlink:href="#c" x="66.119956" y="-52.398029"/><use xlink:href="#c" x="71.358439" y="-52.398029"/></g><use xlink:href="#b" x="46.714748" y="-52.398029" transform="translate(76.184 75.847)scale(1.0004)"/><use xlink:href="#a" x="46.714748" y="-52.398029" transform="translate(90.41 75.972)scale(1.0004)"/><use xlink:href="#a" x="46.714748" y="-52.398029" transform="translate(104.636 75.972)scale(1.0004)"/><use xlink:href="#b" x="46.714748" y="-52.398029" transform="translate(118.862 75.847)scale(1.0004)"/><g transform="translate(133.088 72.578)scale(1.0004)"><use xlink:href="#c" x="60.893439" y="-52.398029"/><use xlink:href="#c" x="66.119956" y="-52.398029"/><use xlink:href="#c" x="71.358439" y="-52.398029"/></g><path d="M25.285 30.878c.747 1.495 2.769 2.975 5.26 2.975.822 0 .822-1.246 0-1.246-2.491 0-3.956-.513-4.703-2.007-.184-.368-.741-.09-.557.278M72.408 35.581c-.747-1.494-2.77-2.974-5.26-2.974-.822 0-.822 1.246 0 1.246 2.49 0 3.956.512 4.703 2.007.184.367.74.089.557-.279"/><path fill="none" stroke="#000" stroke-miterlimit="10" stroke-width="1.24535" d="M30.545 33.23h36.603"/><path d="M72.408 35.86c.747-1.495 2.212-2.007 4.703-2.007.822 0 .822-1.246 0-1.246-2.49 0-4.513 1.48-5.26 2.974-.184.368.373.646.557.279M118.418 30.6c-.748 1.494-2.213 2.007-4.703 2.007-.822 0-.822 1.246 0 1.246 2.49 0 4.512-1.48 5.26-2.975.183-.367-.374-.646-.557-.278"/><path fill="none" stroke="#000" stroke-miterlimit="10" stroke-width="1.24535" d="M77.111 33.23h36.604"/><g transform="translate(7.826 101.575)scale(1.00008)"><use xlink:href="#d" x="46.699852" y="-52.381321"/><use xlink:href="#e" x="50.943843" y="-52.381321"/><use xlink:href="#f" x="60.020961" y="-52.381321"/><use xlink:href="#g" x="66.086922" y="-52.381321"/><use xlink:href="#h" x="69.119902" y="-52.381321"/><use xlink:href="#i" x="73.363889" y="-52.381321"/><use xlink:href="#j" x="77.662427" y="-52.381321"/></g><g transform="translate(4.098 127.075)scale(1.0004)"><use xlink:href="#k" x="46.714748" y="-52.398029"/><use xlink:href="#l" x="59.406842" y="-52.398029"/><use xlink:href="#m" x="71.821325" y="-52.398029"/><use xlink:href="#n" x="77.669771" y="-52.398029"/><use xlink:href="#o" x="83.518209" y="-52.398029"/></g><path d="M118.418 30.878c.747 1.495 2.769 2.975 5.26 2.975.821 0 .821-1.246 0-1.246-2.491 0-3.956-.513-4.704-2.007-.183-.368-.74-.09-.556.278M172.654 35.581c-.747-1.494-2.77-2.974-5.26-2.974-.822 0-.822 1.246 0 1.246 2.49 0 3.956.512 4.703 2.007.184.367.74.089.557-.279"/><path fill="none" stroke="#000" stroke-miterlimit="10" stroke-width="1.24535" d="M123.677 33.23h43.717"/><path d="M172.654 35.86c.747-1.495 2.212-2.007 4.703-2.007.822 0 .822-1.246 0-1.246-2.49 0-4.513 1.48-5.26 2.974-.184.368.373.646.557.279M225.776 30.6c-.747 1.494-2.212 2.007-4.703 2.007-.822 0-.822 1.246 0 1.246 2.491 0 4.513-1.48 5.26-2.975.184-.367-.373-.646-.557-.278"/><path fill="none" stroke="#000" stroke-miterlimit="10" stroke-width="1.24535" d="M177.357 33.23h43.716"/><g transform="translate(105.345 101.575)scale(1.00008)"><use xlink:href="#d" x="46.699852" y="-52.381321"/><use xlink:href="#p" x="50.943843" y="-52.381321"/><use xlink:href="#q" x="56.398842" y="-52.381321"/><use xlink:href="#f" x="65.475961" y="-52.381321"/><use xlink:href="#g" x="71.541922" y="-52.381321"/><use xlink:href="#h" x="74.574902" y="-52.381321"/><use xlink:href="#i" x="78.818891" y="-52.381321"/><use xlink:href="#j" x="83.117427" y="-52.381321"/></g><g transform="translate(102.799 127.075)scale(1.0004)"><use xlink:href="#r" x="46.714748" y="-52.398029"/><use xlink:href="#l" x="59.243777" y="-52.398029"/><use xlink:href="#c" x="71.674766" y="-52.398029"/><use xlink:href="#s" x="74.928071" y="-52.398029"/><use xlink:href="#m" x="80.776517" y="-52.398029"/><use xlink:href="#m" x="86.624956" y="-52.398029"/></g></svg>