<svg xmlns="http://www.w3.org/2000/svg" xmlns:xlink="http://www.w3.org/1999/xlink" width="243.05pt" height="63.37pt" viewBox="0 0 243.05 63.37"><defs><path id="k" d="M3.208-6.982c0-.262 0-.284-.251-.284-.677.698-1.637.698-1.986.698v.338c.218 0 .862 0 1.43-.283v5.651c0 .393-.034.524-1.015.524h-.35V0c.382-.033 1.331-.033 1.768-.033s1.385 0 1.767.033v-.338h-.349c-.982 0-1.014-.12-1.014-.524z"/><path id="j" d="M7.495-3.568c.164 0 .371 0 .371-.218s-.207-.218-.36-.218H.971c-.153 0-.36 0-.36.218s.207.218.37.218zm.011 2.117c.153 0 .36 0 .36-.218s-.207-.218-.37-.218H.981c-.164 0-.371 0-.371.218s.207.218.36.218z"/><path id="e" d="M4.92 19.933c0-1.2-.829-3.044-2.727-4.004 1.178-.633 2.586-1.91 2.717-3.95l.01-.065v-7.56c0-.896 0-1.092.088-1.506.196-.873.72-1.953 2.105-2.772.088-.054.099-.065.099-.261 0-.24-.011-.251-.251-.251-.197 0-.219 0-.513.174-2.444 1.386-2.586 3.415-2.586 3.797v7.757c0 .785 0 1.67-.567 2.673-.502.894-1.091 1.342-1.56 1.658-.153.098-.164.11-.164.295 0 .196.011.207.098.262.928.61 1.92 1.581 2.16 3.36.033.24.033.262.033.393v8.378c0 .884.546 2.717 2.651 3.83.251.142.273.142.448.142.24 0 .25-.011.25-.251 0-.197-.01-.208-.054-.23-.47-.294-1.898-1.156-2.193-3.054-.044-.284-.044-.306-.044-.447z"/><path id="a" d="M7.822 0v-.338h-.196c-.655 0-.807-.077-.927-.437L4.342-7.593c-.054-.142-.076-.219-.25-.219s-.208.066-.263.219L1.571-1.07c-.196.556-.633.72-1.222.73V0l1.113-.033L2.717 0v-.338c-.546 0-.819-.273-.819-.557 0-.032.011-.141.022-.163l.502-1.43h2.695l.578 1.67c.01.043.033.109.033.152 0 .328-.611.328-.906.328V0c.393-.033 1.157-.033 1.571-.033zM4.997-2.826H2.542L3.764-6.37z"/><path id="b" d="M7.102-1.997c0-.949-.894-1.767-2.105-1.898 1.058-.207 1.81-.905 1.81-1.713 0-.949-1.003-1.844-2.421-1.844H.393v.339h.262c.84 0 .861.12.861.512v5.75c0 .393-.021.513-.861.513H.393V0h4.276c1.452 0 2.433-.971 2.433-1.997M5.75-5.607c0 .697-.535 1.614-1.746 1.614H2.422v-2.684c0-.36.022-.436.535-.436h1.352c1.059 0 1.44.927 1.44 1.505m.261 3.6c0 .774-.567 1.669-1.69 1.669H2.956c-.513 0-.535-.077-.535-.437v-2.978h2.051c1.08 0 1.538 1.015 1.538 1.746"/><path id="c" d="M7.255-2.542c0-.11 0-.186-.142-.186-.12 0-.12.066-.13.175C6.894-.993 5.727-.098 4.538-.098c-.666 0-2.804-.371-2.804-3.622 0-3.262 2.127-3.633 2.793-3.633 1.189 0 2.16.992 2.378 2.585.022.153.022.186.175.186.174 0 .174-.033.174-.262V-7.43c0-.185 0-.262-.12-.262-.043 0-.087 0-.174.131l-.546.808c-.404-.393-.96-.939-2.007-.939-2.04 0-3.797 1.735-3.797 3.96C.611-1.471 2.378.24 4.408.24c1.778 0 2.847-1.516 2.847-2.782"/><path id="q" d="M4.528-1.298c0-.11-.088-.131-.142-.131-.098 0-.12.065-.142.153C3.862-.153 2.88-.153 2.771-.153c-.545 0-.982-.327-1.233-.73-.327-.524-.327-1.244-.327-1.637h3.044c.24 0 .273 0 .273-.23 0-1.08-.59-2.138-1.953-2.138-1.266 0-2.27 1.124-2.27 2.488 0 1.462 1.146 2.52 2.4 2.52 1.332 0 1.823-1.211 1.823-1.418m-.72-1.451H1.222c.065-1.626.982-1.899 1.353-1.899 1.123 0 1.233 1.473 1.233 1.899"/><path id="d" d="M7.866-3.786c0-.218-.207-.218-.36-.218H.971c-.153 0-.36 0-.36.218s.207.218.37.218h6.514c.164 0 .371 0 .371-.218m0 2.117c0-.218-.207-.218-.37-.218H.981c-.164 0-.371 0-.371.218s.207.218.36.218h6.535c.153 0 .36 0 .36-.218"/><path id="i" d="M3.895-6.928c0-.404-.404-.764-.982-.764-.764 0-1.691.579-1.691 1.735v1.255H.36v.338h.862v3.535c0 .49-.12.49-.851.49V0l1.244-.033c.436 0 .949 0 1.385.033v-.338h-.229c-.807 0-.829-.12-.829-.513v-3.513h1.244v-.338H1.909v-1.266c0-.96.524-1.484 1.004-1.484.033 0 .196 0 .36.077a.48.48 0 0 0-.327.458c0 .251.174.47.469.47.316 0 .48-.219.48-.48"/><path id="p" d="M5.837 0v-.338c-.567 0-.84 0-.851-.328v-2.083c0-.939 0-1.277-.338-1.67-.153-.185-.513-.403-1.146-.403-.916 0-1.396.654-1.57 1.047H1.92v-3.797l-1.57.12v.339c.763 0 .85.076.85.61v5.674c0 .49-.12.49-.85.49V0l1.232-.033L2.804 0v-.338c-.731 0-.851 0-.851-.491v-2.008c0-1.134.775-1.745 1.473-1.745.687 0 .807.589.807 1.21v2.543c0 .49-.12.49-.85.49V0l1.232-.033z"/><path id="h" d="M2.695 0v-.338c-.72 0-.764-.055-.764-.48v-4.004l-1.527.12v.338c.709 0 .807.065.807.6v2.935c0 .49-.12.49-.851.49V0l1.2-.033c.382 0 .764.022 1.135.033m-.6-6.59a.583.583 0 0 0-1.167 0 .583.583 0 0 0 1.167 0"/><path id="n" d="M5.139-2.335c0-1.396-1.091-2.553-2.411-2.553-1.364 0-2.423 1.19-2.423 2.553A2.435 2.435 0 0 0 2.717.12a2.43 2.43 0 0 0 2.422-2.455m-.906-.087c0 .393 0 .982-.24 1.462-.24.49-.72.807-1.265.807-.47 0-.95-.229-1.244-.73-.273-.48-.273-1.146-.273-1.539 0-.426 0-1.015.262-1.495a1.46 1.46 0 0 1 1.244-.73c.48 0 .949.24 1.232.708s.284 1.102.284 1.517"/><path id="f" d="M4.571 0v-.338h-.349c-.982 0-1.014-.12-1.014-.524v-6.12c0-.262 0-.284-.251-.284-.677.698-1.637.698-1.986.698v.338c.218 0 .862 0 1.43-.283v5.651c0 .393-.034.524-1.015.524h-.35V0c.382-.033 1.331-.033 1.768-.033s1.385 0 1.767.033"/><path id="g" d="M3.611 2.618c0-.032 0-.054-.185-.24-1.364-1.374-1.713-3.436-1.713-5.105 0-1.899.414-3.797 1.756-5.16.142-.132.142-.154.142-.186 0-.077-.043-.11-.109-.11-.109 0-1.09.742-1.735 2.128-.556 1.2-.687 2.411-.687 3.327 0 .851.12 2.172.72 3.404.655 1.342 1.593 2.052 1.702 2.052.066 0 .11-.033.11-.11"/><path id="l" d="M3.153-2.727c0-.851-.12-2.172-.72-3.404C1.778-7.473.84-8.182.73-8.182c-.065 0-.11.043-.11.109 0 .032 0 .054.208.25C1.9-6.742 2.52-5.007 2.52-2.726c0 1.865-.403 3.785-1.756 5.16-.142.13-.142.153-.142.185 0 .066.044.11.109.11.11 0 1.091-.742 1.735-2.128.556-1.2.687-2.411.687-3.327"/><path id="r" d="M3.971-4.157c0-.349-.338-.665-.807-.665-.797 0-1.19.73-1.342 1.2v-1.2l-1.517.12v.338c.764 0 .851.076.851.611v2.924c0 .49-.12.49-.85.49V0l1.243-.033c.437 0 .95 0 1.386.033v-.338h-.23c-.807 0-.828-.12-.828-.513v-1.68c0-1.08.458-2.051 1.287-2.051.076 0 .098 0 .12.01a.47.47 0 0 0-.251.426c0 .306.23.47.47.47.195 0 .468-.132.468-.48"/><path id="t" d="M3.928-1.396c0-.579-.328-.906-.459-1.037-.36-.35-.785-.436-1.243-.524-.611-.12-1.342-.261-1.342-.894 0-.382.283-.83 1.222-.83 1.2 0 1.254.983 1.276 1.32.011.099.131.099.131.099.142 0 .142-.055.142-.262v-1.102c0-.185 0-.262-.12-.262-.055 0-.077 0-.218.131a1.4 1.4 0 0 1-.186.175c-.414-.306-.862-.306-1.025-.306C.775-4.888.36-4.157.36-3.546c0 .382.175.688.47.928.348.283.654.349 1.44.501.24.044 1.134.219 1.134 1.004 0 .557-.382.993-1.233.993-.916 0-1.31-.622-1.516-1.55C.622-1.81.61-1.854.502-1.854c-.142 0-.142.077-.142.273v1.44C.36.044.36.12.48.12.535.12.546.11.753-.098.775-.12.775-.142.97-.35c.48.458.971.469 1.2.469 1.255 0 1.757-.731 1.757-1.516"/><path id="o" d="M3.622-1.353v-.622H3.35v.6c0 .808-.327 1.222-.73 1.222-.732 0-.732-.993-.732-1.178v-3.033h1.56v-.338h-1.56V-6.71h-.272c-.011.895-.339 2.062-1.408 2.106v.24h.928v3.011C1.135-.01 2.149.12 2.542.12c.775 0 1.08-.775 1.08-1.473"/><path id="s" d="M7.67-4.364v-.338c-.24.022-.557.033-.797.033L5.86-4.702v.338c.392.01.632.207.632.524 0 .065 0 .087-.054.229L5.444-.818l-1.08-3.044c-.044-.131-.055-.153-.055-.207 0-.295.426-.295.644-.295v-.338l-1.135.033c-.327 0-.643-.011-.97-.033v.338c.403 0 .578.022.687.164.054.065.174.392.25.6L2.849-.96 1.81-3.873c-.054-.131-.054-.153-.054-.196 0-.295.425-.295.643-.295v-.338l-1.189.033-1.015-.033v.338c.546 0 .677.033.808.382L2.378-.12c.055.153.088.24.23.24s.163-.065.218-.218l1.102-3.088L5.04-.087c.044.12.077.207.219.207s.174-.098.218-.207l1.276-3.579c.197-.545.535-.687.917-.698"/><path id="m" d="M5.019-3.491c0-.873-.055-1.746-.437-2.553-.502-1.048-1.396-1.222-1.854-1.222-.655 0-1.452.284-1.899 1.298C.48-5.215.425-4.364.425-3.49c0 .818.044 1.8.491 2.63A2 2 0 0 0 2.716.24c.59 0 1.419-.23 1.899-1.266.35-.752.404-1.603.404-2.465m-.906-.131c0 .818 0 1.56-.12 2.258C3.83-.327 3.208 0 2.717 0 2.29 0 1.647-.273 1.45-1.32c-.12-.655-.12-1.658-.12-2.302 0-.698 0-1.418.087-2.008.208-1.298 1.026-1.396 1.299-1.396.36 0 1.08.196 1.287 1.276.11.611.11 1.44.11 2.128"/></defs><path fill="none" stroke="#000" stroke-miterlimit="10" stroke-width=".3985" d="M70.408 14.675c9.394 0 17.008 7.615 17.008 17.008s-7.614 17.008-17.008 17.008H44.896V14.675Z"/><use xlink:href="#a" x="-7.261599" y="-40.316326" transform="translate(22.584 67.397)scale(1.00008)"/><use xlink:href="#b" x="-7.261599" y="-40.316326" transform="translate(23.042 84.225)scale(1.00008)"/><g transform="translate(116.069 74.723)scale(1.00008)"><use xlink:href="#c" x="-7.261599" y="-40.316326"/><use xlink:href="#d" x="4.237541" y="-40.316326"/><use xlink:href="#e" x="16.36935" y="-58.972869"/><use xlink:href="#f" x="25.158075" y="-47.921957"/><use xlink:href="#g" x="41.512164" y="-47.921957"/><use xlink:href="#h" x="45.756155" y="-47.921957"/><use xlink:href="#i" x="48.789135" y="-47.921957"/><use xlink:href="#a" x="55.760629" y="-47.921957"/><use xlink:href="#j" x="66.984533" y="-47.921957"/><use xlink:href="#b" x="78.500476" y="-47.921957"/><use xlink:href="#j" x="89.254363" y="-47.921957"/><use xlink:href="#k" x="100.753501" y="-47.921957"/><use xlink:href="#l" x="106.225763" y="-47.921957"/><use xlink:href="#m" x="25.158081" y="-31.661615"/><use xlink:href="#g" x="41.512173" y="-31.661615"/><use xlink:href="#n" x="45.756164" y="-31.661615"/><use xlink:href="#o" x="51.211165" y="-31.661615"/><use xlink:href="#p" x="55.455155" y="-31.661615"/><use xlink:href="#q" x="61.521115" y="-31.661615"/><use xlink:href="#r" x="66.365155" y="-31.661615"/><use xlink:href="#s" x="70.641877" y="-31.661615"/><use xlink:href="#h" x="78.518897" y="-31.661615"/><use xlink:href="#t" x="81.551877" y="-31.661615"/><use xlink:href="#q" x="85.850422" y="-31.661615"/><use xlink:href="#l" x="90.694462" y="-31.661615"/></g><g fill="none" stroke="#000" stroke-miterlimit="10" stroke-width=".3985"><path d="M27.689 23.179h17.008M27.689 40.187h17.008M87.616 31.683h17.008"/></g></svg>