<svg xmlns="http://www.w3.org/2000/svg" xmlns:xlink="http://www.w3.org/1999/xlink" width="159.14pt" height="71.93pt" viewBox="0 0 159.14 71.93"><defs><path id="h" d="M4.868-1.423c0-.072-.06-.12-.132-.12-.096 0-.12.06-.143.12C4.282-.42 3.48-.143 2.978-.143s-1.71-.335-1.71-2.404v-.228H4.58c.263 0 .287 0 .287-.227 0-1.208-.646-2.332-2.093-2.332C1.41-5.334.359-4.102.359-2.62.359-1.041 1.579.12 2.906.12c1.424 0 1.962-1.292 1.962-1.543m-.742-1.579H1.28c.095-1.878 1.148-2.093 1.483-2.093 1.28 0 1.351 1.686 1.363 2.093"/><path id="d" d="M5.526-1.997v-.347H4.318v-5.442c0-.227 0-.287-.168-.287-.096 0-.131 0-.227.144l-3.6 5.585v.347h3.145V-.91c0 .443-.024.562-.897.562h-.239V0c.275-.024 1.22-.024 1.555-.024s1.292 0 1.567.024v-.347h-.24c-.86 0-.896-.12-.896-.562v-1.088zm-1.998-.347H.622l2.906-4.51z"/><path id="e" d="M2.882 0v-.347c-.777 0-.825-.06-.825-.526v-4.401l-1.626.131v.347c.765 0 .873.072.873.658v3.253c0 .538-.132.538-.91.538V0c.336-.024.91-.024 1.256-.024.132 0 .826 0 1.232.024m-.67-7.224a.58.58 0 1 0-.586.574.576.576 0 0 0 .587-.574"/><path id="f" d="M6.231 0v-.347c-.598 0-.897 0-.909-.359v-2.2c0-1.113 0-1.447-.275-1.83-.347-.467-.909-.538-1.315-.538-1.16 0-1.615.992-1.71 1.232h-.013v-1.232l-1.626.131v.347c.813 0 .909.084.909.67v3.241c0 .538-.132.538-.91.538V0c.312-.024.958-.024 1.292-.024.347 0 .993 0 1.304.024v-.347c-.765 0-.909 0-.909-.538V-3.11c0-1.255.825-1.925 1.567-1.925s.909.61.909 1.34v2.81c0 .538-.132.538-.91.538V0c.312-.024.958-.024 1.293-.024.346 0 .992 0 1.303.024"/><path id="k" d="M5.49-2.56c0-1.542-1.172-2.774-2.56-2.774C1.495-5.334.36-4.066.36-2.56.359-1.03 1.555.12 2.919.12c1.41 0 2.57-1.172 2.57-2.68m-.91-.107c0 .419 0 1.16-.31 1.722a1.56 1.56 0 0 1-1.34.801c-.442 0-.98-.19-1.327-.777-.323-.538-.335-1.244-.335-1.746 0-.455 0-1.184.37-1.722a1.53 1.53 0 0 1 1.28-.706c.467 0 .969.215 1.292.682.37.55.37 1.303.37 1.746"/><path id="a" d="M4.904 0v-.347h-.371C3.48-.347 3.444-.49 3.444-.92v-6.745c0-.275 0-.287-.239-.287-.287.323-.885.765-2.117.765v.347c.275 0 .873 0 1.531-.311v6.231c0 .43-.036.574-1.088.574h-.37V0c.322-.024 1.482-.024 1.877-.024s1.543 0 1.866.024"/><path id="i" d="M4.222-4.58c0-.36-.323-.694-.837-.694-1.017 0-1.364 1.1-1.436 1.327h-.011v-1.327l-1.603.131v.347c.813 0 .909.084.909.67v3.241c0 .538-.132.538-.91.538V0c.336-.024.994-.024 1.352-.024.323 0 1.172 0 1.448.024v-.347h-.24c-.873 0-.897-.131-.897-.562v-1.878c0-1.16.479-2.248 1.4-2.248.095 0 .12 0 .167.012-.096.048-.287.12-.287.442a.46.46 0 0 0 .466.479c.24 0 .479-.156.479-.479"/><path id="j" d="M4.21-1.519c0-.646-.395-1.028-.502-1.136-.431-.37-.754-.443-1.543-.586-.359-.072-1.232-.24-1.232-.957 0-.37.251-.92 1.327-.92 1.304 0 1.376 1.111 1.4 1.482.012.096.095.096.131.096.132 0 .132-.06.132-.275V-5.06c0-.215 0-.275-.12-.275-.095 0-.323.263-.406.37-.371-.298-.742-.37-1.125-.37-1.447 0-1.877.79-1.877 1.447 0 .132 0 .55.454.969.383.335.79.418 1.34.526.657.132.813.167 1.112.407.215.179.37.442.37.777 0 .514-.298 1.088-1.35 1.088C1.53-.12.956-.574.693-1.77c-.048-.215-.06-.24-.06-.24-.024-.047-.072-.047-.108-.047-.131 0-.131.06-.131.275v1.627c0 .215 0 .275.12.275.06 0 .071-.012.274-.264.06-.083.06-.107.24-.299.454.563 1.1.563 1.303.563C3.588.12 4.21-.574 4.21-1.52"/><path id="b" d="M5.358-2.045c0-1.1-.885-1.962-2.033-2.165 1.04-.299 1.71-1.172 1.71-2.105 0-.945-.98-1.638-2.14-1.638-1.197 0-2.082.73-2.082 1.602 0 .479.371.574.55.574.252 0 .539-.18.539-.538 0-.383-.287-.55-.55-.55-.072 0-.096 0-.132.012.454-.813 1.579-.813 1.638-.813.395 0 1.173.179 1.173 1.351 0 .227-.036.897-.383 1.411-.359.527-.766.563-1.089.574l-.358.036c-.204.012-.252.024-.252.132 0 .12.06.12.276.12h.55c1.016 0 1.47.837 1.47 1.985 0 1.567-.812 1.985-1.399 1.985-.574 0-1.554-.275-1.901-1.064.383.06.73-.156.73-.586a.565.565 0 0 0-.587-.586c-.287 0-.598.167-.598.622C.49-.622 1.555.25 2.882.25c1.424 0 2.476-1.088 2.476-2.296"/><path id="c" d="M5.262-2.01H5c-.036.204-.131.862-.25 1.053-.085.108-.766.108-1.125.108H1.41c.323-.275 1.053-1.04 1.364-1.328 1.818-1.674 2.487-2.296 2.487-3.48 0-1.375-1.088-2.296-2.475-2.296S.586-6.77.586-5.741c0 .61.526.61.562.61.251 0 .562-.18.562-.562 0-.335-.227-.562-.562-.562-.107 0-.131 0-.167.012.227-.813.873-1.364 1.65-1.364 1.017 0 1.639.85 1.639 1.95 0 1.017-.586 1.902-1.268 2.667L.586-.287V0h4.365z"/><path id="g" d="M5.956-4.808v-.347c-.347.024-.514.024-.885.024l-.98-.024v.347c.502.024.561.383.561.514 0 .108-.023.168-.083.311L3.349-.897 2.009-4.27c-.06-.167-.071-.167-.071-.227 0-.31.454-.31.67-.31v-.348c-.3.024-.922.024-1.245.024L.215-5.155v.347c.67 0 .79.048.933.419l1.71 4.281c.06.168.084.228.228.228.083 0 .155-.024.239-.228l1.555-3.91c.107-.264.31-.778 1.076-.79"/></defs><g fill="none" stroke="#000" stroke-miterlimit="10" stroke-width=".3985"><path d="M11.538 37.054h136.065V11.542H11.538ZM45.554 37.054V11.542M79.57 37.054V11.542M113.587 37.054V11.542"/></g><use xlink:href="#a" x="-60.486275" y="-34.964032" transform="translate(86.079 63.223)scale(1.0004)"/><use xlink:href="#b" x="-60.486275" y="-34.964032" transform="translate(120.095 63.098)scale(1.0004)"/><use xlink:href="#c" x="-60.486275" y="-34.964032" transform="translate(154.111 63.223)scale(1.0004)"/><use xlink:href="#d" x="-60.486275" y="-34.964032" transform="translate(188.128 63.283)scale(1.0004)"/><path fill="none" stroke="#000" stroke-miterlimit="10" stroke-width=".3985" d="M62.562 37.054c4.252 7.365 29.764 7.365 34.016 0"/><g transform="translate(117.395 91.438)scale(1.0004)"><use xlink:href="#e" x="-60.486275" y="-34.964032"/><use xlink:href="#f" x="-57.233157" y="-34.964032"/><use xlink:href="#g" x="-51.049838" y="-34.964032"/><use xlink:href="#h" x="-45.18944" y="-34.964032"/><use xlink:href="#i" x="-39.986838" y="-34.964032"/><use xlink:href="#j" x="-35.430079" y="-34.964032"/><use xlink:href="#e" x="-30.813519" y="-34.964032"/><use xlink:href="#k" x="-27.560399" y="-34.964032"/><use xlink:href="#f" x="-21.699997" y="-34.964032"/></g></svg>