<svg xmlns="http://www.w3.org/2000/svg" xmlns:xlink="http://www.w3.org/1999/xlink" width="362.7pt" height="295.33pt" viewBox="0 0 362.7 295.33"><defs><path id="c" d="M6.423-3.492c0-1.424-1.005-1.914-1.914-1.914-.538 0-.98.215-1.172.335l.705-2.823c.012-.06.036-.131.036-.191 0-.227-.215-.215-.382-.203l-1.471.071c-.132.012-.371.012-.371.36 0 .215.215.215.323.215.143 0 .359.012.502.023L1.447-2.655c-.107.43-.107.741-.107.861 0 1.447 1.004 1.89 1.865 1.89 2.045 0 3.218-2.01 3.218-3.588m-1.83 1.818c-.43 1.231-1.137 1.34-1.364 1.34-.741 0-.741-.778-.741-.946 0-.406.071-.717.263-1.447.095-.43.18-.73.263-1.1.084-.311.084-.335.203-.467.311-.382.79-.681 1.244-.681.275 0 .682.167.682.849 0 .646-.419 2.117-.55 2.452"/><path id="i" d="M7.475-1.77c0-.168-.155-.168-.335-.168-.287 0-.299.012-.383.311-.095.395-.31 1.292-.717 1.292-.144 0-.227-.096-.227-.37 0-.228.023-.324.071-.515L7.56-7.894c.012-.06.036-.131.036-.191 0-.227-.216-.215-.383-.203l-1.471.071c-.132.012-.371.012-.371.36 0 .215.215.215.323.215.143 0 .359.012.502.023l-.634 2.596c-.382-.335-.813-.383-1.088-.383-2.01 0-3.205 1.985-3.205 3.588C1.268-.395 2.272.096 3.18.096c.73 0 1.292-.383 1.58-.61.226.418.765.61 1.231.61.562 0 .861-.407 1.017-.646a4 4 0 0 0 .466-1.22m-2.858.574c-.515.682-1.017.861-1.388.861-.275 0-.682-.167-.682-.849 0-.646.42-2.117.55-2.452.407-1.16 1.065-1.34 1.376-1.34.419 0 .754.264.885.742L4.652-1.41c-.023.083-.023.12-.035.215"/><path id="d" d="M6.41-1.029c0-.095-.239-.382-.358-.382-.036 0-.084 0-.168.083-.885.993-2.093.993-2.26.993-.67 0-1.017-.395-1.017-1.1 0-.3.084-.766.192-1.172h.478c.718 0 3.086 0 3.086-1.65 0-.718-.67-1.149-1.555-1.149-2.07 0-3.492 1.567-3.492 3.409 0 1.291.8 2.093 2.296 2.093.37 0 1.076-.036 1.686-.263.646-.252 1.113-.718 1.113-.862m-.825-3.24c0 1.231-1.95 1.231-2.679 1.231.168-.598.287-.957.634-1.34a1.71 1.71 0 0 1 1.268-.597c.502 0 .777.323.777.705"/><path id="e" d="m5.394.765 1.292-5.178c.047-.192.047-.287.047-.287 0-.275-.203-.503-.538-.503-.323 0-.454.132-.562.24-.347-.323-.73-.443-1.16-.443-2.033 0-3.193 1.973-3.193 3.516C1.28-.622 2.14 0 3.217 0c.383 0 .754-.096 1.16-.323l-.203.85c-.287 1.112-.969 1.458-1.615 1.458-.322 0-.598-.036-.741-.071a.94.94 0 0 0 .335-.67c0-.3-.227-.55-.598-.55a.87.87 0 0 0-.85.885c0 .741.945.837 1.83.837 1.448 0 2.596-.61 2.859-1.65m-.742-2.164c-.107.418-.813.968-1.387.968-.634 0-.694-.586-.694-.849 0-.658.419-2.105.586-2.523.395-.993 1.005-1.172 1.316-1.172.359 0 .742.191.885.717z"/><path id="f" d="M4.664-1.77c0-.168-.155-.168-.334-.168-.228 0-.288 0-.335.156-.096.31-.419 1.447-1.1 1.447-.06 0-.168 0-.168-.215 0-.156.084-.455.096-.479l1.076-2.846c.072-.191.108-.287.108-.466 0-.67-.61-1.065-1.256-1.065C1.507-5.406.92-3.79.92-3.54c0 .167.155.167.335.167.227 0 .287 0 .335-.155.095-.311.418-1.447 1.1-1.447.06 0 .167 0 .167.215 0 .155-.083.454-.095.478L1.686-1.435c-.071.191-.107.287-.107.466 0 .67.61 1.065 1.256 1.065 1.243 0 1.83-1.615 1.83-1.866m.168-5.573a.716.716 0 0 0-.742-.718c-.55 0-1.064.514-1.064 1.04 0 .383.287.718.741.718.563 0 1.065-.526 1.065-1.04"/><path id="h" d="M11.697-1.77c0-.168-.156-.168-.335-.168-.227 0-.287 0-.335.156-.096.31-.418 1.447-1.1 1.447-.06 0-.168 0-.168-.215 0-.251.12-.562.275-.969.168-.442.706-1.854.706-2.535 0-.993-.706-1.352-1.65-1.352-.957 0-1.507.502-1.914.909-.263-.909-1.351-.909-1.603-.909s-1.04 0-1.83.825c-.239-.681-.956-.825-1.339-.825-.562 0-.861.407-1.017.646a4 4 0 0 0-.466 1.22c0 .167.155.167.335.167.287 0 .299-.012.383-.31.095-.395.31-1.292.717-1.292.144 0 .227.095.227.37 0 .228-.024.323-.071.515l-.85 3.408c-.047.18-.047.204-.047.263 0 .371.287.515.538.515.084 0 .598-.024.753-.646l.742-2.966c.084-.347.753-1.46 1.842-1.46.514 0 .514.455.514.682 0 .3-.048.503-.18 1.017l-.502 2.01c-.072.286-.191.765-.191.848 0 .371.287.515.538.515.144 0 .61-.06.765-.67l.73-2.942c.084-.347.765-1.46 1.842-1.46.514 0 .514.455.514.682 0 .718-.55 2.189-.765 2.727-.108.3-.144.419-.144.598 0 .67.61 1.065 1.256 1.065 1.244 0 1.83-1.615 1.83-1.866"/><path id="g" d="M8.18-1.77c0-.168-.155-.168-.334-.168-.227 0-.287 0-.335.156-.096.31-.419 1.447-1.1 1.447-.06 0-.168 0-.168-.215 0-.251.12-.562.275-.969.168-.442.706-1.854.706-2.535 0-.993-.706-1.352-1.65-1.352-.252 0-1.041 0-1.83.825-.24-.681-.957-.825-1.34-.825-.562 0-.861.407-1.017.646a4 4 0 0 0-.466 1.22c0 .167.155.167.335.167.287 0 .299-.012.383-.31.095-.395.31-1.292.717-1.292.144 0 .227.095.227.37 0 .228-.024.323-.071.515l-.85 3.408c-.047.18-.047.204-.047.263 0 .371.287.515.538.515.084 0 .598-.024.753-.646l.742-2.966c.084-.347.753-1.46 1.842-1.46.514 0 .514.455.514.682 0 .718-.55 2.189-.766 2.727-.107.3-.143.419-.143.598 0 .67.61 1.065 1.256 1.065 1.244 0 1.83-1.615 1.83-1.866"/><path id="b" d="M4.808 1.555c.203 0 .419 0 .419-.24 0-.035 0-.06-.048-.19a7 7 0 0 1-.287-1.962h.598C5.526.215 6.83.263 7.044.263c1.46 0 1.603-1.913 1.603-2.69 0-1.4-.813-2.357-2.165-3.553-.909-.813-1.315-1.83-1.614-2.56-.024-.095-.12-.155-.216-.155-.167 0-.215.132-.239.203-.215.55-.67 1.687-1.578 2.488C1.435-4.76.658-3.79.658-2.428.658-1.53.849.263 2.26.263c.371 0 1.52-.12 1.555-1.1h.598a7.3 7.3 0 0 1-.299 2.01c-.036.095-.036.119-.036.143 0 .239.216.239.419.239z"/><path id="k" d="M5.358-1.985c0-1.22-.861-1.758-1.794-2.333.598-.322 1.471-.873 1.471-1.877 0-1.04-1.004-1.758-2.105-1.758-1.184 0-2.117.873-2.117 1.961 0 .407.12.813.455 1.22.131.155.143.167.98.753C1.088-3.48.49-2.679.49-1.806.49-.538 1.698.251 2.918.251c1.328 0 2.44-.98 2.44-2.236m-.813-4.198c0 .73-.526 1.315-1.22 1.698l-1.387-.909c-.156-.108-.634-.419-.634-1.005 0-.777.813-1.267 1.614-1.267.861 0 1.627.622 1.627 1.483m.263 4.58c0 .91-.921 1.531-1.878 1.531-1.016 0-1.89-.741-1.89-1.734 0-.933.682-1.686 1.46-2.045l1.447.945c.31.203.86.574.86 1.303"/><path id="j" d="M5.358-3.935c0-3.217-1.34-4.018-2.392-4.018C1.65-7.953.49-6.853.49-5.274S1.603-2.62 2.8-2.62c.885 0 1.34-.646 1.578-1.256v.395c0 2.822-1.255 3.408-1.973 3.408-.287 0-.921-.036-1.22-.454h.072c.084.024.514-.048.514-.49 0-.264-.18-.491-.49-.491s-.503.203-.503.514c0 .742.598 1.244 1.639 1.244 1.495 0 2.942-1.59 2.942-4.186M4.353-5.01c0 1.004-.454 2.153-1.507 2.153-.753 0-1.076-.61-1.184-.838-.19-.454-.19-1.028-.19-1.566 0-.67 0-1.244.31-1.735.215-.323.538-.67 1.184-.67.682 0 1.029.599 1.148.874.24.586.24 1.602.24 1.782"/><path id="a" d="M5.358-2.44c0-1.59-1.112-2.655-2.308-2.655-1.065 0-1.46.921-1.579 1.256v-.323c0-3.026 1.471-3.504 2.117-3.504.43 0 .861.131 1.088.49-.143 0-.598 0-.598.49 0 .263.18.49.49.49.3 0 .503-.179.503-.526 0-.621-.454-1.231-1.495-1.231C2.069-7.953.49-6.411.49-3.78.49-.49 1.926.25 2.942.25c1.304 0 2.416-1.136 2.416-2.69m-.98-.012c0 .61 0 1.148-.228 1.603-.299.574-.73.777-1.208.777-.753 0-1.112-.67-1.22-.92-.107-.312-.227-.898-.227-1.735 0-.945.43-2.129 1.507-2.129.658 0 1.005.443 1.184.85.191.442.191 1.04.191 1.554"/></defs><path fill="#efefef" d="M16.202 77.379h28.347V37.693H16.202Z"/><path fill="none" stroke="#000" stroke-miterlimit="10" stroke-width=".3985" d="M16.202 77.379h28.347V37.693H16.202Z"/><path fill="#efefef" d="M50.218 77.379h28.347V37.693H50.218Z"/><path fill="none" stroke="#000" stroke-miterlimit="10" stroke-width=".3985" d="M50.218 77.379h28.347V37.693H50.218Z"/><path fill="#efefef" d="M84.234 77.379h28.347V37.693H84.234Z"/><path fill="none" stroke="#000" stroke-miterlimit="10" stroke-width=".3985" d="M84.234 77.379h28.347V37.693H84.234Z"/><path fill="#efefef" d="M118.25 77.379h28.347V37.693h-28.346Z"/><path fill="none" stroke="#000" stroke-miterlimit="10" stroke-width=".3985" d="M118.25 77.379h28.347V37.693h-28.346Z"/><path fill="#efefef" d="M186.283 77.379h28.347V37.693h-28.347Z"/><path fill="none" stroke="#000" stroke-miterlimit="10" stroke-width=".3985" d="M186.283 77.379h28.347V37.693h-28.347Z"/><path fill="#efefef" d="M220.299 77.379h28.347V37.693h-28.347Z"/><path fill="none" stroke="#000" stroke-miterlimit="10" stroke-width=".3985" d="M220.299 77.379h28.347V37.693h-28.347Z"/><path fill="#efefef" d="M254.315 77.379h28.347V37.693h-28.347Z"/><path fill="none" stroke="#000" stroke-miterlimit="10" stroke-width=".3985" d="M254.315 77.379h28.347V37.693h-28.347Z"/><path fill="#efefef" d="M288.331 77.379h28.347V37.693h-28.347Z"/><path fill="none" stroke="#000" stroke-miterlimit="10" stroke-width=".3985" d="M288.331 77.379h28.347V37.693h-28.347Z"/><path fill="#fff" d="M152.267 77.379h28.346V37.693h-28.346Z"/><path fill="none" stroke="#000" stroke-miterlimit="10" stroke-width=".3985" d="M152.267 77.379h28.346V37.693h-28.346Z"/><g transform="translate(208.065 44.663)scale(1.0004)"><use xlink:href="#a" x="-51.661734" y="5.380159"/><use xlink:href="#b" x="-53.382424" y="19.831959"/></g><path d="m30.375 34.291 1.682-4.468-1.682 1.466-1.682-1.466Z"/><path fill="none" stroke="#000" stroke-miterlimit="10" stroke-width=".3985" d="m30.375 34.291 1.682-4.468-1.682 1.466-1.682-1.466Z"/><g transform="translate(71.122 18.254)scale(1.0004)"><use xlink:href="#c" x="-55.820403" y="5.380159"/><use xlink:href="#d" x="-50.163326" y="5.380159"/><use xlink:href="#e" x="-44.506248" y="5.380159"/><use xlink:href="#f" x="-38.143528" y="5.380159"/><use xlink:href="#g" x="-33.88577" y="5.380159"/></g><path d="m166.44 80.781-1.682 4.468 1.682-1.466 1.682 1.466Z"/><path fill="none" stroke="#000" stroke-miterlimit="10" stroke-width=".3985" d="m166.44 80.781-1.682 4.468 1.682-1.466 1.682 1.466Z"/><g transform="translate(210.671 90.281)scale(1.0004)"><use xlink:href="#h" x="-55.820403" y="5.380159"/><use xlink:href="#f" x="-44.530162" y="5.380159"/><use xlink:href="#i" x="-40.272403" y="5.380159"/></g><path d="m336.521 34.291 1.682-4.468-1.682 1.466-1.682-1.466Z"/><path fill="none" stroke="#000" stroke-miterlimit="10" stroke-width=".3985" d="m336.521 34.291 1.682-4.468-1.682 1.466-1.682-1.466Z"/><g transform="translate(381.458 19.414)scale(1.0004)"><use xlink:href="#d" x="-55.820403" y="5.380159"/><use xlink:href="#g" x="-49.457686" y="5.380159"/><use xlink:href="#i" x="-41.683684" y="5.380159"/></g><path fill="#efefef" d="M186.283 169.506h28.347v-39.685h-28.347Z"/><path fill="none" stroke="#000" stroke-miterlimit="10" stroke-width=".3985" d="M186.283 169.506h28.347v-39.685h-28.347Z"/><path fill="#efefef" d="M220.299 169.506h28.347v-39.685h-28.347Z"/><path fill="none" stroke="#000" stroke-miterlimit="10" stroke-width=".3985" d="M220.299 169.506h28.347v-39.685h-28.347Z"/><path fill="#efefef" d="M288.331 169.506h28.347v-39.685h-28.347Z"/><path fill="none" stroke="#000" stroke-miterlimit="10" stroke-width=".3985" d="M288.331 169.506h28.347v-39.685h-28.347Z"/><path fill="#fff" d="M254.315 169.506h28.347v-39.685h-28.347Z"/><path fill="none" stroke="#000" stroke-miterlimit="10" stroke-width=".3985" d="M254.315 169.506h28.347v-39.685h-28.347Z"/><g transform="translate(310.113 136.79)scale(1.0004)"><use xlink:href="#j" x="-51.661734" y="5.380159"/><use xlink:href="#b" x="-53.382424" y="19.831959"/></g><path d="m200.456 126.418 1.682-4.467-1.682 1.465-1.682-1.465Z"/><path fill="none" stroke="#000" stroke-miterlimit="10" stroke-width=".3985" d="m200.456 126.418 1.682-4.467-1.682 1.465-1.682-1.465Z"/><g transform="translate(241.203 110.382)scale(1.0004)"><use xlink:href="#c" x="-55.820403" y="5.380159"/><use xlink:href="#d" x="-50.163326" y="5.380159"/><use xlink:href="#e" x="-44.506248" y="5.380159"/><use xlink:href="#f" x="-38.143528" y="5.380159"/><use xlink:href="#g" x="-33.88577" y="5.380159"/></g><path d="m268.489 172.908-1.682 4.468 1.682-1.466 1.682 1.466Z"/><path fill="none" stroke="#000" stroke-miterlimit="10" stroke-width=".3985" d="m268.489 172.908-1.682 4.468 1.682-1.466 1.682 1.466Z"/><g transform="translate(312.72 182.408)scale(1.0004)"><use xlink:href="#h" x="-55.820403" y="5.380159"/><use xlink:href="#f" x="-44.530162" y="5.380159"/><use xlink:href="#i" x="-40.272403" y="5.380159"/></g><path d="m336.521 126.418 1.682-4.467-1.682 1.465-1.682-1.465Z"/><path fill="none" stroke="#000" stroke-miterlimit="10" stroke-width=".3985" d="m336.521 126.418 1.682-4.467-1.682 1.465-1.682-1.465Z"/><g transform="translate(381.458 111.541)scale(1.0004)"><use xlink:href="#d" x="-55.820403" y="5.380159"/><use xlink:href="#g" x="-49.457686" y="5.380159"/><use xlink:href="#i" x="-41.683684" y="5.380159"/></g><path fill="#efefef" d="M186.283 261.633h28.347v-39.685h-28.347Z"/><path fill="none" stroke="#000" stroke-miterlimit="10" stroke-width=".3985" d="M186.283 261.633h28.347v-39.685h-28.347Z"/><path fill="#fff" d="M220.299 261.633h28.347v-39.685h-28.347Z"/><path fill="none" stroke="#000" stroke-miterlimit="10" stroke-width=".3985" d="M220.299 261.633h28.347v-39.685h-28.347Z"/><g transform="translate(276.097 228.918)scale(1.0004)"><use xlink:href="#k" x="-51.661734" y="5.380159"/><use xlink:href="#b" x="-53.382424" y="19.831959"/></g><path d="m200.456 218.546 1.682-4.468-1.682 1.466-1.682-1.466Z"/><path fill="none" stroke="#000" stroke-miterlimit="10" stroke-width=".3985" d="m200.456 218.546 1.682-4.468-1.682 1.466-1.682-1.466Z"/><g transform="translate(241.203 202.509)scale(1.0004)"><use xlink:href="#c" x="-55.820403" y="5.380159"/><use xlink:href="#d" x="-50.163326" y="5.380159"/><use xlink:href="#e" x="-44.506248" y="5.380159"/><use xlink:href="#f" x="-38.143528" y="5.380159"/><use xlink:href="#g" x="-33.88577" y="5.380159"/></g><path d="m234.472 265.035-1.682 4.468 1.682-1.465 1.682 1.465Z"/><path fill="none" stroke="#000" stroke-miterlimit="10" stroke-width=".3985" d="m234.472 265.035-1.682 4.468 1.682-1.465 1.682 1.465Z"/><g transform="translate(278.704 274.535)scale(1.0004)"><use xlink:href="#h" x="-55.820403" y="5.380159"/><use xlink:href="#f" x="-44.530162" y="5.380159"/><use xlink:href="#i" x="-40.272403" y="5.380159"/></g><path d="m268.489 218.546 1.682-4.468-1.682 1.466-1.682-1.466Z"/><path fill="none" stroke="#000" stroke-miterlimit="10" stroke-width=".3985" d="m268.489 218.546 1.682-4.468-1.682 1.466-1.682-1.466Z"/><g transform="translate(313.425 203.668)scale(1.0004)"><use xlink:href="#d" x="-55.820403" y="5.380159"/><use xlink:href="#g" x="-49.457686" y="5.380159"/><use xlink:href="#i" x="-41.683684" y="5.380159"/></g></svg>