<svg xmlns="http://www.w3.org/2000/svg" xmlns:xlink="http://www.w3.org/1999/xlink" width="244.81pt" height="238.44pt" viewBox="0 0 244.81 238.44"><defs><path id="B" d="M5.669-1.064v-.67h-.263v.67c0 .681-.287.777-.455.777-.454 0-.454-.634-.454-.813v-2.093c0-.646 0-1.125-.526-1.591-.419-.383-.957-.55-1.483-.55-.981 0-1.735.646-1.735 1.423 0 .347.228.514.503.514.287 0 .49-.203.49-.49 0-.49-.43-.49-.61-.49.275-.503.85-.718 1.328-.718.55 0 1.256.455 1.256 1.53v.48C1.316-3.05.407-2.046.407-1.126c0 .946 1.1 1.245 1.83 1.245A1.63 1.63 0 0 0 3.79-.933c.048.562.419.993.933.993.251 0 .945-.168.945-1.124m-1.95-.622C3.72-.514 2.847-.12 2.333-.12c-.586 0-1.076-.43-1.076-1.004 0-1.579 2.033-1.722 2.464-1.746z"/><path id="T" d="M7.63-2.189c0-.968-.873-1.925-2.296-2.08 1.136-.216 1.962-.981 1.962-1.878 0-1.029-1.04-2.022-2.608-2.022H.514v.347h.24c.86 0 .896.12.896.562v6.351c0 .443-.035.562-.897.562H.514V0h4.497c1.543 0 2.62-1.04 2.62-2.189M6.243-6.147c0 .789-.622 1.782-1.95 1.782H2.56v-2.978c0-.395.024-.479.55-.479h1.508c1.196 0 1.626 1.029 1.626 1.675m.3 3.946c0 .97-.73 1.854-1.903 1.854H3.11c-.527 0-.55-.084-.55-.478v-3.301h2.236c1.148 0 1.746 1.004 1.746 1.925"/><path id="W" d="M4.856-1.423c0-.108-.084-.108-.12-.108-.107 0-.12.036-.155.18-.263.849-.91 1.207-1.555 1.207-.73 0-1.698-.633-1.698-2.451 0-1.986 1.016-2.476 1.614-2.476.455 0 1.112.18 1.388.646-.144 0-.587 0-.587.49 0 .287.204.49.49.49.276 0 .503-.167.503-.514 0-.801-.837-1.375-1.806-1.375C1.53-5.334.42-4.09.42-2.584.419-1.051 1.567.12 2.919.12c1.578 0 1.937-1.436 1.937-1.543"/><path id="L" d="M6.16 0v-.347c-.814 0-.91-.084-.91-.67V-8.3l-1.662.131v.347c.813 0 .909.084.909.67v2.643a1.86 1.86 0 0 0-1.495-.765C1.615-5.274.419-4.102.419-2.571c0 1.519 1.136 2.69 2.451 2.69.91 0 1.436-.597 1.603-.825V.12zM4.472-1.4c0 .216 0 .252-.167.515-.287.419-.778.765-1.376.765-.31 0-1.602-.12-1.602-2.44 0-.86.143-1.339.406-1.734.24-.37.718-.741 1.316-.741.741 0 1.16.538 1.28.73.143.203.143.227.143.442z"/><path id="H" d="M4.868-1.423c0-.072-.06-.12-.132-.12-.096 0-.12.06-.143.12C4.282-.42 3.48-.143 2.978-.143s-1.71-.335-1.71-2.404v-.228H4.58c.263 0 .287 0 .287-.227 0-1.208-.646-2.332-2.093-2.332C1.41-5.334.359-4.102.359-2.62.359-1.041 1.579.12 2.906.12c1.424 0 1.962-1.292 1.962-1.543m-.742-1.579H1.28c.095-1.878 1.148-2.093 1.483-2.093 1.28 0 1.351 1.686 1.363 2.093"/><path id="X" d="M6.231 0v-.347c-.598 0-.897 0-.909-.359v-2.2c0-1.113 0-1.447-.275-1.83-.347-.467-.909-.538-1.315-.538-1.029 0-1.507.777-1.675 1.148h-.012V-8.3L.383-8.17v.347c.813 0 .909.084.909.67v6.267c0 .538-.132.538-.91.538V0c.312-.024.958-.024 1.292-.024.347 0 .993 0 1.304.024v-.347c-.765 0-.909 0-.909-.538V-3.11c0-1.255.825-1.925 1.567-1.925s.909.61.909 1.34v2.81c0 .538-.132.538-.91.538V0c.312-.024.958-.024 1.293-.024.346 0 .992 0 1.303.024"/><path id="ab" d="M3.241-2.26v-.646H.131v.646z"/><path id="F" d="M2.882 0v-.347c-.777 0-.825-.06-.825-.526v-4.401l-1.626.131v.347c.765 0 .873.072.873.658v3.253c0 .538-.132.538-.91.538V0c.336-.024.91-.024 1.256-.024.132 0 .826 0 1.232.024m-.67-7.224a.58.58 0 1 0-.586.574.576.576 0 0 0 .587-.574"/><path id="J" d="M2.966 0v-.347c-.765 0-.909 0-.909-.538V-8.3L.395-8.17v.347c.813 0 .909.084.909.67v6.267c0 .538-.132.538-.91.538V0c.336-.024.922-.024 1.28-.024s.957 0 1.292.024"/><path id="N" d="M9.484 0v-.347c-.598 0-.897 0-.909-.359v-2.2c0-1.113 0-1.447-.275-1.83-.347-.467-.909-.538-1.315-.538-.993 0-1.495.717-1.687 1.184-.167-.921-.813-1.184-1.566-1.184-1.16 0-1.615.992-1.71 1.232h-.013v-1.232l-1.626.131v.347c.813 0 .909.084.909.67v3.241c0 .538-.132.538-.91.538V0c.312-.024.958-.024 1.292-.024.347 0 .993 0 1.304.024v-.347c-.765 0-.909 0-.909-.538V-3.11c0-1.255.825-1.925 1.567-1.925s.909.61.909 1.34v2.81c0 .538-.132.538-.91.538V0c.312-.024.958-.024 1.293-.024.346 0 .992 0 1.303.024v-.347c-.765 0-.909 0-.909-.538V-3.11c0-1.255.825-1.925 1.567-1.925s.909.61.909 1.34v2.81c0 .538-.132.538-.909.538V0c.31-.024.957-.024 1.292-.024.346 0 .992 0 1.303.024"/><path id="U" d="M6.231 0v-.347c-.598 0-.897 0-.909-.359v-2.2c0-1.113 0-1.447-.275-1.83-.347-.467-.909-.538-1.315-.538-1.16 0-1.615.992-1.71 1.232h-.013v-1.232l-1.626.131v.347c.813 0 .909.084.909.67v3.241c0 .538-.132.538-.91.538V0c.312-.024.958-.024 1.292-.024.347 0 .993 0 1.304.024v-.347c-.765 0-.909 0-.909-.538V-3.11c0-1.255.825-1.925 1.567-1.925s.909.61.909 1.34v2.81c0 .538-.132.538-.91.538V0c.312-.024.958-.024 1.293-.024.346 0 .992 0 1.303.024"/><path id="aa" d="M5.49-2.56c0-1.542-1.172-2.774-2.56-2.774C1.495-5.334.36-4.066.36-2.56.359-1.03 1.555.12 2.919.12c1.41 0 2.57-1.172 2.57-2.68m-.91-.107c0 .419 0 1.16-.31 1.722a1.56 1.56 0 0 1-1.34.801c-.442 0-.98-.19-1.327-.777-.323-.538-.335-1.244-.335-1.746 0-.455 0-1.184.37-1.722a1.53 1.53 0 0 1 1.28-.706c.467 0 .969.215 1.292.682.37.55.37 1.303.37 1.746"/><path id="K" d="M6.076-2.583c0-1.52-1.125-2.691-2.428-2.691-1.053 0-1.615.753-1.65.801v-.801l-1.663.131v.347c.837 0 .909.084.909.61v5.621c0 .538-.132.538-.91.538v.347c.312-.024.958-.024 1.293-.024.346 0 .992 0 1.303.024v-.347c-.765 0-.909 0-.909-.538v-2.08c.216.298.706.765 1.471.765 1.376 0 2.584-1.16 2.584-2.703m-.91 0c0 1.423-.813 2.463-1.733 2.463a1.4 1.4 0 0 1-.957-.382c-.275-.275-.455-.515-.455-.85v-2.463c0-.227 0-.24.132-.43a1.72 1.72 0 0 1 1.4-.766c.896 0 1.614 1.088 1.614 2.428"/><path id="Y" d="M3.887 2.906c0-.036 0-.06-.203-.263C2.488 1.435 1.818-.538 1.818-2.978c0-2.32.562-4.318 1.95-5.729.119-.108.119-.131.119-.167 0-.072-.06-.096-.108-.096-.155 0-1.136.861-1.722 2.033-.61 1.208-.885 2.488-.885 3.959 0 1.064.168 2.488.79 3.767.705 1.436 1.686 2.213 1.817 2.213.048 0 .108-.024.108-.096"/><path id="ac" d="M3.373-2.978c0-.909-.12-2.392-.79-3.78C1.878-8.192.897-8.97.765-8.97c-.047 0-.107.024-.107.096 0 .036 0 .06.203.263C2.057-7.403 2.727-5.43 2.727-2.99c0 2.32-.562 4.318-1.95 5.729-.12.107-.12.131-.12.167 0 .072.06.096.108.096.156 0 1.137-.861 1.723-2.033.61-1.22.885-2.512.885-3.947"/><path id="C" d="M4.222-4.58c0-.36-.323-.694-.837-.694-1.017 0-1.364 1.1-1.436 1.327h-.011v-1.327l-1.603.131v.347c.813 0 .909.084.909.67v3.241c0 .538-.132.538-.91.538V0c.336-.024.994-.024 1.352-.024.323 0 1.172 0 1.448.024v-.347h-.24c-.873 0-.897-.131-.897-.562v-1.878c0-1.16.479-2.248 1.4-2.248.095 0 .12 0 .167.012-.096.048-.287.12-.287.442a.46.46 0 0 0 .466.479c.24 0 .479-.156.479-.479"/><path id="V" d="M5.848-2.2c0-.73-.275-1.268-.598-1.663-.442-.538-.98-.67-1.447-.79l-1.315-.334c-.61-.156-1.148-.754-1.148-1.52 0-.836.67-1.59 1.602-1.59 1.962 0 2.225 1.938 2.296 2.452.024.143.024.191.144.191.132 0 .132-.06.132-.275v-2.416c0-.215 0-.275-.12-.275-.036 0-.084 0-.167.156l-.395.73c-.574-.742-1.364-.886-1.89-.886A2.28 2.28 0 0 0 .646-6.135c0 .574.203 1.1.646 1.578.418.467.837.574 1.686.79.419.095 1.076.263 1.244.334.562.276.933.921.933 1.591 0 .897-.634 1.746-1.627 1.746-.538 0-1.28-.131-1.866-.646C.97-1.363.921-2.225.91-2.619c-.012-.096-.132-.096-.132-.096-.131 0-.131.06-.131.275v2.416c0 .215 0 .275.12.275.071 0 .083-.024.167-.167l.395-.718c.43.479 1.184.885 2.212.885C4.88.251 5.848-.885 5.848-2.2"/><path id="E" d="M4.21-1.519c0-.646-.395-1.028-.502-1.136-.431-.37-.754-.443-1.543-.586-.359-.072-1.232-.24-1.232-.957 0-.37.251-.92 1.327-.92 1.304 0 1.376 1.111 1.4 1.482.012.096.095.096.131.096.132 0 .132-.06.132-.275V-5.06c0-.215 0-.275-.12-.275-.095 0-.323.263-.406.37-.371-.298-.742-.37-1.125-.37-1.447 0-1.877.79-1.877 1.447 0 .132 0 .55.454.969.383.335.79.418 1.34.526.657.132.813.167 1.112.407.215.179.37.442.37.777 0 .514-.298 1.088-1.35 1.088C1.53-.12.956-.574.693-1.77c-.048-.215-.06-.24-.06-.24-.024-.047-.072-.047-.108-.047-.131 0-.131.06-.131.275v1.627c0 .215 0 .275.12.275.06 0 .071-.012.274-.264.06-.083.06-.107.24-.299.454.563 1.1.563 1.303.563C3.588.12 4.21-.574 4.21-1.52"/><path id="M" d="M3.899-1.483v-.682h-.263v.658c0 .861-.347 1.363-.813 1.363-.814 0-.814-1.112-.814-1.315v-3.349h1.687v-.347H2.009v-2.2h-.263c-.012 1.124-.442 2.272-1.53 2.308v.24h1.016v3.324C1.232-.155 2.117.12 2.75.12c.753 0 1.148-.742 1.148-1.603"/><path id="Z" d="M11.816-7.822v-.347c-.514.024-.538.024-1.064.024-.31 0-.957 0-1.244-.024v.347c.73.012.945.395.945.634 0 .06-.036.156-.06.24L8.575-1.28 6.638-7.296a1 1 0 0 1-.036-.167c0-.359.634-.359.92-.359v-.347c-.286.024-1.171.024-1.518.024s-1.076 0-1.387-.024v.347c.633 0 .8.036.932.251.084.156.168.527.323.957L4.162-1.28 2.248-7.236c-.06-.167-.06-.191-.06-.227 0-.359.61-.359.922-.359v-.347c-.275.024-1.184.024-1.52.024-.346 0-1.076 0-1.387-.024v.347c.646 0 .873 0 1.017.455L3.588.023c.06.18.108.228.215.228.096 0 .156-.036.216-.215l1.985-6.207L8 .036c.06.18.12.215.216.215.107 0 .155-.048.215-.227l2.248-7.02c.192-.575.538-.814 1.136-.826"/><path id="D" d="M5.956-4.808v-.347c-.347.024-.514.024-.897.024l-.969-.024v.347c.443.024.55.3.55.514 0 .108-.023.168-.071.287L3.349-.993 2.02-4.246c-.072-.167-.072-.251-.072-.251 0-.31.42-.31.658-.31v-.348c-.31.024-.897.024-1.232.024l-1.16-.024v.347c.694 0 .79.06.945.43L2.942 0c-.526 1.268-.526 1.292-.574 1.387-.203.36-.526.814-1.064.814-.371 0-.598-.216-.598-.216s.418-.047.418-.466a.433.433 0 0 0-.442-.443c-.204 0-.455.12-.455.467 0 .454.443.897 1.077.897.67 0 1.16-.586 1.47-1.34l2.07-5.095c.323-.801.885-.813 1.112-.813"/><path id="G" d="M4.7-2.2h-.263C4.33-.838 4.127-.264 2.703-.264H1.256l3.3-4.557c.108-.131.108-.155.108-.203 0-.132-.083-.132-.287-.132H.622L.49-3.253h.263c.072-1.22.3-1.663 1.603-1.663h1.387l-3.42 4.7C.323 0 .347 0 .61 0h3.899z"/><path id="r" d="M5.019-3.491c0-.873-.055-1.746-.437-2.553-.502-1.048-1.396-1.222-1.854-1.222-.655 0-1.452.284-1.899 1.298C.48-5.215.425-4.364.425-3.49c0 .818.044 1.8.491 2.63A2 2 0 0 0 2.716.24c.59 0 1.419-.23 1.899-1.266.35-.752.404-1.603.404-2.465M2.717 0C2.29 0 1.647-.273 1.45-1.32c-.12-.655-.12-1.658-.12-2.302 0-.698 0-1.418.087-2.008.208-1.298 1.026-1.396 1.299-1.396.36 0 1.08.196 1.287 1.276.11.611.11 1.44.11 2.128 0 .818 0 1.56-.12 2.258C3.828-.327 3.207 0 2.716 0"/><path id="t" d="M4.899-2.193c0-1.298-.895-2.39-2.073-2.39-.524 0-.993.175-1.386.557v-2.127c.218.065.578.142.927.142 1.342 0 2.106-.993 2.106-1.135 0-.066-.033-.12-.109-.12-.01 0-.033 0-.087.033a3.6 3.6 0 0 1-1.484.316c-.436 0-.938-.076-1.451-.305-.087-.033-.11-.033-.131-.033-.11 0-.11.087-.11.262v3.23c0 .195 0 .283.154.283.076 0 .098-.033.141-.098.12-.175.524-.764 1.408-.764.567 0 .84.502.927.698.175.404.197.83.197 1.375 0 .382 0 1.036-.262 1.494-.262.426-.666.71-1.168.71-.796 0-1.418-.579-1.603-1.222.032.01.065.021.185.021.36 0 .546-.272.546-.534s-.186-.535-.546-.535c-.153 0-.535.077-.535.578C.546-.818 1.299.24 2.52.24 3.786.24 4.9-.807 4.9-2.193"/><path id="v" d="M1.778-4.986c-.502-.327-.545-.698-.545-.884 0-.665.709-1.123 1.484-1.123.796 0 1.494.567 1.494 1.353 0 .621-.425 1.145-1.08 1.527zm1.593 1.037c.786-.404 1.32-.971 1.32-1.691 0-1.004-.97-1.626-1.963-1.626-1.092 0-1.975.807-1.975 1.822 0 .196.022.687.48 1.2.12.13.524.404.796.59-.633.316-1.57.926-1.57 2.007C.458-.491 1.57.24 2.716.24c1.232 0 2.269-.906 2.269-2.073 0-.393-.12-.884-.535-1.342-.207-.229-.382-.338-1.08-.774m-1.09.458 1.341.85c.306.208.818.535.818 1.2 0 .808-.818 1.376-1.713 1.376-.938 0-1.723-.677-1.723-1.582 0-.633.349-1.331 1.276-1.844"/><path id="u" d="M4.004-3.47v.35c0 2.553-1.135 3.055-1.767 3.055-.186 0-.775-.022-1.07-.393.48 0 .568-.317.568-.502 0-.338-.262-.502-.502-.502-.175 0-.502.098-.502.524 0 .73.59 1.178 1.516 1.178 1.408 0 2.739-1.484 2.739-3.83 0-2.934-1.255-3.676-2.226-3.676-.6 0-1.134.196-1.604.687-.447.491-.698.95-.698 1.768 0 1.363.96 2.433 2.182 2.433.666 0 1.113-.459 1.364-1.091m-1.353.84c-.174 0-.676 0-1.014-.687C1.44-3.72 1.44-4.266 1.44-4.8c0-.59 0-1.102.23-1.506.294-.545.708-.687 1.09-.687.502 0 .862.37 1.048.862.13.349.174 1.036.174 1.538 0 .905-.37 1.964-1.33 1.964"/><path id="y" d="M2.422-1.877c-.95 0-.95-1.09-.95-1.341 0-.295.012-.644.175-.917.088-.13.339-.436.775-.436.95 0 .95 1.09.95 1.342 0 .294-.012.643-.175.916-.088.131-.339.436-.775.436m-1.266.426c0-.044 0-.295.186-.513.425.306.873.338 1.08.338 1.015 0 1.767-.752 1.767-1.592 0-.404-.174-.808-.447-1.059.393-.37.786-.425.982-.425a.4.4 0 0 1 .11.01c-.12.044-.175.164-.175.295a.31.31 0 0 0 .316.317c.11 0 .316-.077.316-.328a.534.534 0 0 0-.556-.534c-.218 0-.698.065-1.157.513a1.82 1.82 0 0 0-1.156-.393C1.407-4.822.655-4.07.655-3.23c0 .48.24.894.512 1.123A1.5 1.5 0 0 0 .83-1.2c0 .338.142.753.48.97C.655-.043.305.426.305.863c0 .785 1.08 1.385 2.412 1.385 1.287 0 2.422-.556 2.422-1.407 0-.382-.153-.938-.71-1.244-.578-.305-1.21-.305-1.876-.305-.273 0-.742 0-.818-.011-.35-.044-.579-.382-.579-.731m1.572 3.448C1.626 1.997.873 1.44.873.862c0-.502.414-.906.894-.938h.644c.938 0 2.16 0 2.16.938 0 .589-.774 1.135-1.843 1.135"/><path id="w" d="m1.931-7.572-1.571.12v.339c.764 0 .851.076.851.61v5.674c0 .49-.12.49-.851.49V0c.36-.01.938-.033 1.211-.033S2.378-.01 2.782 0v-.338c-.73 0-.85 0-.85-.491z"/><path id="x" d="M5.139-2.335c0-1.396-1.091-2.553-2.411-2.553-1.364 0-2.423 1.19-2.423 2.553A2.435 2.435 0 0 0 2.717.12a2.43 2.43 0 0 0 2.422-2.455M2.728-.153c-.47 0-.95-.229-1.244-.73-.273-.48-.273-1.146-.273-1.539 0-.426 0-1.015.262-1.495a1.46 1.46 0 0 1 1.244-.73c.48 0 .949.24 1.232.708s.284 1.102.284 1.517c0 .393 0 .982-.24 1.462-.24.49-.72.807-1.265.807"/><path id="I" d="M2.464-3.504c.024-.072.323-.67.765-1.053a1.74 1.74 0 0 1 1.184-.478c.479 0 .646.359.646.837 0 .682-.49 2.045-.73 2.691-.107.287-.167.443-.167.658 0 .538.37.969.945.969 1.112 0 1.53-1.759 1.53-1.83 0-.06-.047-.108-.119-.108-.107 0-.12.036-.18.24C6.065-.599 5.61-.12 5.144-.12c-.12 0-.311-.012-.311-.394 0-.3.131-.658.203-.826.24-.657.742-1.997.742-2.679 0-.717-.419-1.255-1.328-1.255-1.064 0-1.626.753-1.842 1.052-.036-.682-.526-1.052-1.052-1.052-.383 0-.646.227-.85.634C.49-4.21.324-3.492.324-3.444s.048.107.131.107c.096 0 .108-.012.18-.287.191-.73.407-1.411.885-1.411.275 0 .37.191.37.55 0 .263-.119.73-.203 1.1l-.335 1.292c-.047.227-.179.765-.239.98C1.03-.8.897-.238.897-.178c0 .167.132.299.311.299a.46.46 0 0 0 .407-.252c.024-.06.131-.478.191-.717l.263-1.077z"/><path id="O" d="M2.404-4.808h1.1c.228 0 .347 0 .347-.215 0-.132-.072-.132-.31-.132H2.487L2.93-6.9c.048-.167.048-.191.048-.275 0-.191-.155-.299-.31-.299-.097 0-.372.036-.467.419l-.467 1.901H.61c-.24 0-.347 0-.347.227 0 .12.084.12.311.12H1.64L.849-1.65c-.096.418-.131.538-.131.693C.718-.395 1.112.12 1.782.12c1.208 0 1.854-1.747 1.854-1.83 0-.072-.048-.108-.12-.108-.024 0-.072 0-.095.048-.012.012-.024.024-.108.215C3.062-.957 2.512-.12 1.818-.12c-.359 0-.383-.299-.383-.562 0-.012 0-.239.036-.382z"/><path id="n" d="M5.358-3.827c0-.993-.06-1.962-.49-2.87-.49-.993-1.352-1.256-1.938-1.256-.693 0-1.543.346-1.985 1.34C.61-5.86.49-5.12.49-3.828c0 1.16.084 2.033.515 2.882A2.13 2.13 0 0 0 2.918.251c1.04 0 1.639-.622 1.986-1.315.43-.897.454-2.07.454-2.763M2.918.012c-.382 0-1.16-.215-1.387-1.519-.132-.718-.132-1.627-.132-2.464 0-.98 0-1.865.192-2.571.203-.801.813-1.172 1.327-1.172.455 0 1.148.275 1.376 1.303.155.682.155 1.627.155 2.44 0 .802 0 1.71-.131 2.44C4.09-.215 3.337.012 2.918.012"/><path id="m" d="M3.444-7.666c0-.275 0-.287-.239-.287-.287.323-.885.765-2.117.765v.347c.275 0 .873 0 1.531-.311v6.231c0 .43-.036.574-1.088.574h-.37V0c.322-.024 1.482-.024 1.877-.024s1.543 0 1.866.024v-.347h-.371C3.48-.347 3.444-.49 3.444-.92z"/><path id="a" d="M5.262-2.01H5c-.036.204-.131.862-.25 1.053-.085.108-.766.108-1.125.108H1.41c.323-.275 1.053-1.04 1.364-1.328 1.818-1.674 2.487-2.296 2.487-3.48 0-1.375-1.088-2.296-2.475-2.296S.586-6.77.586-5.741c0 .61.526.61.562.61.251 0 .562-.18.562-.562 0-.335-.227-.562-.562-.562-.107 0-.131 0-.167.012.227-.813.873-1.364 1.65-1.364 1.017 0 1.639.85 1.639 1.95 0 1.017-.586 1.902-1.268 2.667L.586-.287V0h4.365z"/><path id="g" d="M4.318-7.786c0-.227 0-.287-.168-.287-.096 0-.131 0-.227.144l-3.6 5.585v.347h3.145V-.91c0 .443-.024.562-.897.562h-.239V0c.275-.024 1.22-.024 1.555-.024s1.292 0 1.567.024v-.347h-.24c-.86 0-.896-.12-.896-.562v-1.088h1.208v-.347H4.318zm-.79.933v4.509H.622z"/><path id="h" d="M1.53-6.853c.515.167.934.18 1.065.18 1.352 0 2.213-.993 2.213-1.16 0-.049-.024-.108-.096-.108-.024 0-.048 0-.155.047a3.9 3.9 0 0 1-1.555.323c-.79 0-1.352-.239-1.579-.335-.083-.035-.107-.035-.12-.035-.095 0-.095.071-.095.263v3.552c0 .215 0 .287.143.287.06 0 .072-.012.192-.156.335-.49.897-.777 1.495-.777.634 0 .945.586 1.04.79.204.466.216 1.052.216 1.506s0 1.136-.335 1.675c-.263.43-.73.73-1.256.73-.79 0-1.567-.539-1.782-1.412.06.024.131.036.191.036.204 0 .527-.12.527-.526 0-.335-.228-.527-.527-.527-.215 0-.526.108-.526.574 0 1.017.813 2.177 2.14 2.177 1.352 0 2.536-1.136 2.536-2.655 0-1.423-.956-2.607-2.212-2.607-.682 0-1.208.299-1.52.634z"/><path id="i" d="M1.471-4.162c0-3.026 1.471-3.504 2.117-3.504.43 0 .861.131 1.088.49-.143 0-.598 0-.598.49 0 .263.18.49.49.49.3 0 .503-.179.503-.526 0-.621-.454-1.231-1.495-1.231C2.069-7.953.49-6.411.49-3.78.49-.49 1.926.25 2.942.25c1.304 0 2.416-1.136 2.416-2.69 0-1.592-1.112-2.656-2.308-2.656-1.065 0-1.46.921-1.579 1.256zm1.471 4.09c-.753 0-1.112-.67-1.22-.92-.107-.312-.227-.898-.227-1.735 0-.945.43-2.129 1.507-2.129.658 0 1.005.443 1.184.85.191.442.191 1.04.191 1.554 0 .61 0 1.148-.227 1.603-.299.574-.73.777-1.208.777"/><path id="j" d="M5.681-7.427v-.275H2.799c-1.448 0-1.471-.156-1.52-.383h-.262L.646-5.693h.263c.036-.215.143-.957.299-1.088.096-.072.993-.072 1.16-.072h2.536L3.636-5.035C3.313-4.57 2.105-2.607 2.105-.36c0 .132 0 .61.49.61.503 0 .503-.466.503-.622v-.598c0-1.782.287-3.17.849-3.97z"/><path id="k" d="M3.564-4.318c.598-.322 1.471-.873 1.471-1.877 0-1.04-1.004-1.758-2.105-1.758-1.184 0-2.117.873-2.117 1.961 0 .407.12.813.455 1.22.131.155.143.167.98.753C1.088-3.48.49-2.679.49-1.806.49-.538 1.698.251 2.918.251c1.328 0 2.44-.98 2.44-2.236 0-1.22-.861-1.758-1.794-2.333M1.938-5.394c-.156-.108-.634-.419-.634-1.005 0-.777.813-1.267 1.614-1.267.861 0 1.627.622 1.627 1.483 0 .73-.526 1.315-1.22 1.698zM2.5-3.851l1.447.945c.31.203.86.574.86 1.303 0 .91-.92 1.531-1.877 1.531-1.016 0-1.89-.741-1.89-1.734 0-.933.682-1.686 1.46-2.045"/><path id="l" d="M4.377-3.48c0 2.822-1.255 3.408-1.973 3.408-.287 0-.921-.036-1.22-.454h.072c.084.024.514-.048.514-.49 0-.264-.18-.491-.49-.491s-.503.203-.503.514c0 .742.598 1.244 1.639 1.244 1.495 0 2.942-1.59 2.942-4.186 0-3.217-1.34-4.018-2.392-4.018C1.65-7.953.49-6.853.49-5.274S1.603-2.62 2.8-2.62c.885 0 1.34-.646 1.578-1.256zm-1.53.622c-.754 0-1.077-.61-1.185-.838-.19-.454-.19-1.028-.19-1.566 0-.67 0-1.244.31-1.735.215-.323.538-.67 1.184-.67.682 0 1.029.599 1.148.874.24.586.24 1.602.24 1.782 0 1.004-.455 2.153-1.508 2.153"/><path id="P" d="M2.99 2.99v-.443H1.83V-8.527h1.16v-.443H1.387V2.99z"/><path id="S" d="M1.854-8.97H.25v.443h1.16V2.547H.251v.443h1.603z"/><path id="Q" d="M5.322-2.906c0-1.113 0-1.447-.275-1.83-.347-.467-.909-.538-1.315-.538-1.16 0-1.615.992-1.71 1.232h-.013v-1.232l-1.626.131v.347c.813 0 .909.084.909.67v3.241c0 .538-.132.538-.91.538V0c.312-.024.958-.024 1.292-.024.347 0 .993 0 1.304.024v-.347c-.765 0-.909 0-.909-.538V-3.11c0-1.255.825-1.925 1.567-1.925s.909.61.909 1.34v2.81c0 .538-.132.538-.91.538V0c.312-.024.958-.024 1.293-.024.346 0 .992 0 1.303.024v-.347c-.598 0-.897 0-.909-.359z"/><path id="R" d="M3.923-5.06c0-.214 0-.274-.12-.274-.095 0-.323.263-.406.37-.371-.298-.742-.37-1.125-.37-1.447 0-1.877.79-1.877 1.447 0 .132 0 .55.454.969.383.335.79.418 1.34.526.657.132.813.167 1.112.407.215.179.37.442.37.777 0 .514-.298 1.088-1.35 1.088C1.53-.12.956-.574.693-1.77c-.048-.215-.048-.227-.06-.24-.024-.047-.072-.047-.108-.047-.131 0-.131.06-.131.275v1.627c0 .215 0 .275.12.275.06 0 .071-.012.274-.264.06-.083.06-.107.24-.299.454.563 1.1.563 1.303.563C3.588.12 4.21-.574 4.21-1.52c0-.646-.395-1.028-.502-1.136-.431-.37-.754-.443-1.543-.586-.359-.072-1.232-.24-1.232-.957 0-.37.251-.92 1.327-.92 1.304 0 1.376 1.111 1.4 1.482.012.096.095.096.131.096.132 0 .132-.06.132-.275z"/><path id="s" d="M2.095-.578c0-.317-.262-.578-.579-.578s-.578.261-.578.578S1.2 0 1.516 0s.579-.262.579-.578"/><path id="A" d="M.96-.644c-.033.164-.098.415-.098.47 0 .196.153.294.316.294.131 0 .328-.087.404-.305.01-.022.142-.535.207-.808l.24-.982c.066-.24.131-.48.186-.73.043-.186.13-.503.142-.546.163-.338.741-1.331 1.778-1.331.49 0 .589.403.589.764 0 .676-.535 2.072-.71 2.542-.097.25-.108.381-.108.501 0 .513.382.895.894.895 1.026 0 1.43-1.593 1.43-1.68 0-.11-.099-.11-.131-.11-.11 0-.11.033-.164.197C5.717-.73 5.357-.12 4.822-.12c-.185 0-.262-.11-.262-.36 0-.273.099-.535.197-.775.207-.578.665-1.778.665-2.4 0-.73-.469-1.167-1.254-1.167-.982 0-1.517.698-1.702.949-.055-.611-.502-.95-1.004-.95s-.71.426-.818.623a5.5 5.5 0 0 0-.328 1.058c0 .109.11.109.131.109.11 0 .12-.01.186-.25.185-.776.403-1.3.796-1.3.218 0 .338.143.338.503 0 .229-.032.349-.174.916z"/><path id="p" d="M2.247-4.364h1.026c.218 0 .327 0 .327-.218 0-.12-.109-.12-.305-.12h-.96c.393-1.55.447-1.768.447-1.833 0-.186-.13-.295-.316-.295-.033 0-.339.011-.437.393l-.425 1.735H.578c-.218 0-.327 0-.327.207 0 .131.087.131.305.131h.96C.731-1.266.687-1.08.687-.884c0 .59.415 1.004 1.004 1.004 1.113 0 1.735-1.593 1.735-1.68 0-.11-.088-.11-.131-.11-.098 0-.11.033-.164.154C2.662-.382 2.084-.12 1.713-.12c-.23 0-.338-.142-.338-.502 0-.262.021-.338.065-.524z"/><path id="q" d="M7.877-3.644c0-.24-.065-.35-.153-.35-.054 0-.142.077-.152.285-.044 1.047-.764 1.647-1.528 1.647-.687 0-1.21-.47-1.745-.938-.557-.502-1.124-1.004-1.866-1.004C1.243-4.004.6-2.804.6-1.811c0 .35.142.35.153.35.12 0 .153-.22.153-.252.043-1.2.861-1.68 1.527-1.68.687 0 1.21.47 1.746.938.556.502 1.123 1.004 1.865 1.004 1.19 0 1.833-1.2 1.833-2.193"/><path id="d" d="M2.503-5.077c0-.215-.016-.223-.232-.223-.326.319-.749.51-1.506.51v.263c.215 0 .646 0 1.108-.215v4.088c0 .295-.024.391-.781.391h-.28V0c.328-.024 1.013-.024 1.372-.024s1.052 0 1.379.024v-.263h-.28c-.757 0-.78-.096-.78-.39z"/><path id="z" d="M2.248-1.626c.127-.12.462-.382.59-.494.493-.454.964-.893.964-1.618 0-.948-.797-1.562-1.794-1.562-.956 0-1.586.725-1.586 1.435 0 .39.311.446.423.446a.41.41 0 0 0 .414-.423c0-.414-.398-.414-.494-.414a1.23 1.23 0 0 1 1.156-.781c.741 0 1.124.63 1.124 1.3 0 .828-.582 1.434-1.523 2.398L.518-.303C.422-.215.422-.199.422 0h3.149l.23-1.427h-.246c-.024.16-.088.558-.184.71-.048.063-.653.063-.78.063H1.17z"/><path id="e" d="M2.016-2.662c.63 0 1.029.462 1.029 1.3 0 .995-.566 1.29-.989 1.29-.438 0-1.036-.16-1.315-.582.287 0 .486-.183.486-.446a.423.423 0 0 0-.438-.438c-.215 0-.438.135-.438.454 0 .757.813 1.251 1.721 1.251 1.06 0 1.801-.733 1.801-1.53 0-.661-.526-1.267-1.339-1.442.63-.224 1.1-.766 1.1-1.403S2.917-5.3 2.088-5.3C1.235-5.3.59-4.838.59-4.232c0 .295.199.422.406.422a.39.39 0 0 0 .407-.406c0-.295-.255-.407-.43-.415.334-.438.948-.462 1.091-.462.207 0 .813.064.813.885 0 .558-.231.892-.343 1.02-.239.247-.422.263-.908.295-.152.008-.215.016-.215.12 0 .111.071.111.207.111z"/><path id="f" d="M1.116-4.48c.103.033.422.112.757.112.996 0 1.602-.7 1.602-.82 0-.088-.056-.112-.096-.112-.016 0-.032 0-.103.04-.311.12-.678.215-1.108.215-.47 0-.86-.12-1.108-.215C.98-5.3.964-5.3.956-5.3c-.103 0-.103.088-.103.231v2.335c0 .144 0 .24.127.24.064 0 .088-.032.128-.096.095-.12.398-.526 1.076-.526.446 0 .661.366.733.518.136.287.151.653.151.964 0 .295-.008.725-.23 1.076a1.07 1.07 0 0 1-.893.486A1.295 1.295 0 0 1 .733-.917c.024.008.072.008.08.008.223 0 .398-.143.398-.39 0-.295-.23-.399-.39-.399-.144 0-.399.08-.399.423 0 .717.622 1.442 1.539 1.442.996 0 1.84-.773 1.84-1.761 0-.925-.669-1.745-1.61-1.745-.398 0-.772.127-1.075.398z"/><path id="b" d="M4.033-4.854c.072-.087.072-.103.072-.279H2.08c-.2 0-.446-.008-.645-.024-.415-.031-.423-.103-.447-.23H.741l-.27 1.68h.246c.016-.119.104-.669.215-.732.088-.04.686-.04.805-.04h1.69l-.82 1.1c-.91 1.211-1.1 2.47-1.1 3.1 0 .08 0 .446.374.446s.375-.358.375-.454v-.382c0-1.148.19-2.089.581-2.607z"/><path id="c" d="M3.124-2.351c0 1.945-.924 2.28-1.387 2.28-.167 0-.581-.025-.797-.272.351-.032.375-.295.375-.374a.364.364 0 0 0-.375-.375c-.143 0-.374.088-.374.39 0 .543.446.87 1.18.87 1.091 0 2.127-1.085 2.127-2.79 0-2.072-.916-2.678-1.737-2.678-.94 0-1.785.733-1.785 1.777 0 1.028.773 1.778 1.673 1.778.566 0 .909-.36 1.1-.766zm-1.068.382c-.366 0-.597-.167-.773-.462C1.1-2.726 1.1-3.108 1.1-3.515c0-.47 0-.805.215-1.132.2-.286.454-.446.829-.446.534 0 .765.526.789.566.167.39.175 1.012.175 1.172 0 .63-.342 1.386-1.052 1.386"/><clipPath id="o"><path d="M51.337 191.045H233.28V37.452H51.337Z"/></clipPath></defs><g fill="none" stroke-miterlimit="10"><path stroke="gray" stroke-width=".19925" d="M66.486 191.045v-4.252m30.323 4.252v-4.252m30.323 4.252v-4.252m30.324 4.252v-4.252m30.323 4.252v-4.252m30.323 4.252v-4.252M66.486 37.452v4.252m30.323-4.252v4.252m30.323-4.252v4.252m30.324-4.252v4.252m30.323-4.252v4.252m30.323-4.252v4.252M51.337 186.162h4.251m-4.25-17.837h4.25m-4.25-17.836h4.25m-4.25-17.837h4.25m-4.25-17.836h4.25m-4.25-17.837h4.25m-4.25-17.836h4.25m-4.25-17.837h4.25m-4.25-17.836h4.25M233.28 186.162h-4.25m4.25-17.837h-4.25m4.25-17.836h-4.25m4.25-17.837h-4.25m4.25-17.836h-4.25m4.25-17.837h-4.25m4.25-17.836h-4.25m4.25-17.837h-4.25m4.25-17.836h-4.25"/><path stroke="#000" stroke-width=".3985" d="M51.337 191.045V37.452H233.28v153.593z"/></g><use xlink:href="#a" x="-71.66076" y="70.21418" transform="translate(132.825 134.518)scale(1.0004)"/><use xlink:href="#b" x="-65.778185" y="65.847174" transform="matrix(.99999 0 0 .99999 132.825 134.518)"/><use xlink:href="#a" x="-71.66076" y="70.21418" transform="translate(163.148 134.518)scale(1.0004)"/><use xlink:href="#c" x="-65.778185" y="65.847174" transform="matrix(.99999 0 0 .99999 163.148 134.518)"/><use xlink:href="#a" x="-71.66076" y="70.21418" transform="translate(191.355 134.518)scale(1.0004)"/><g transform="matrix(.99999 0 0 .99999 191.355 134.518)"><use xlink:href="#d" x="-65.778185" y="65.847174"/><use xlink:href="#d" x="-61.546112" y="65.847174"/></g><use xlink:href="#a" x="-71.66076" y="70.21418" transform="translate(221.678 134.518)scale(1.0004)"/><g transform="matrix(.99999 0 0 .99999 221.678 134.518)"><use xlink:href="#d" x="-65.778185" y="65.847174"/><use xlink:href="#e" x="-61.546112" y="65.847174"/></g><use xlink:href="#a" x="-71.66076" y="70.21418" transform="translate(252.001 134.518)scale(1.0004)"/><g transform="matrix(.99999 0 0 .99999 252.001 134.518)"><use xlink:href="#d" x="-65.778185" y="65.847174"/><use xlink:href="#f" x="-61.546112" y="65.847174"/></g><use xlink:href="#a" x="-71.66076" y="70.21418" transform="translate(282.324 134.518)scale(1.0004)"/><g transform="matrix(.99999 0 0 .99999 282.324 134.518)"><use xlink:href="#d" x="-65.778185" y="65.847174"/><use xlink:href="#b" x="-61.546112" y="65.847174"/></g><use xlink:href="#g" x="-71.66076" y="70.21418" transform="translate(112.932 119.828)scale(1.0004)"/><use xlink:href="#h" x="-71.66076" y="70.21418" transform="translate(112.932 101.991)scale(1.0004)"/><use xlink:href="#i" x="-71.66076" y="70.21418" transform="translate(112.932 84.155)scale(1.0004)"/><use xlink:href="#j" x="-71.66076" y="70.21418" transform="translate(112.932 66.318)scale(1.0004)"/><use xlink:href="#k" x="-71.66076" y="70.21418" transform="translate(112.932 48.482)scale(1.0004)"/><use xlink:href="#l" x="-71.66076" y="70.21418" transform="translate(112.932 30.645)scale(1.0004)"/><g transform="translate(107.079 12.809)scale(1.0004)"><use xlink:href="#m" x="-71.66076" y="70.21418"/><use xlink:href="#n" x="-65.812323" y="70.21418"/></g><g transform="translate(107.079 -5.027)scale(1.0004)"><use xlink:href="#m" x="-71.66076" y="70.21418"/><use xlink:href="#m" x="-65.812323" y="70.21418"/></g><g transform="translate(107.079 -22.864)scale(1.0004)"><use xlink:href="#m" x="-71.66076" y="70.21418"/><use xlink:href="#a" x="-65.812323" y="70.21418"/></g><g clip-path="url(#o)"><path fill="none" stroke="#000" stroke-miterlimit="10" stroke-width=".3985" d="m51.337 178.245 7.581-5.334 7.58-5.334 7.581-5.331 7.581-5.334 7.58-5.332 7.582-5.334 7.58-5.332 7.581-5.335 7.58-5.333 7.581-5.333 7.581-5.332 7.58-5.333 7.581-5.333 7.581-5.334 7.58-5.333 7.582-5.332 7.58-5.334 7.581-5.332 7.58-5.334 7.581-5.332 7.581-5.334 7.58-5.333 7.581-5.332 7.581-5.333"/><g transform="translate(219.876 -14.621)scale(1.00008)"><use xlink:href="#p" x="-71.63791" y="70.19179"/><use xlink:href="#q" x="-64.668335" y="70.19179"/><use xlink:href="#r" x="-53.152389" y="70.19179"/><use xlink:href="#s" x="-47.696935" y="70.19179"/><use xlink:href="#t" x="-44.666688" y="70.19179"/><use xlink:href="#u" x="-39.211685" y="70.19179"/><use xlink:href="#v" x="-33.756685" y="70.19179"/><use xlink:href="#w" x="-26.490623" y="70.19179"/><use xlink:href="#x" x="-23.468554" y="70.19179"/><use xlink:href="#y" x="-18.013554" y="70.19179"/></g><use xlink:href="#z" x="-12.389848" y="72.804087" transform="matrix(.99999 0 0 .99999 219.876 -14.621)"/><use xlink:href="#A" x="-5.839485" y="70.19179" transform="translate(219.876 -14.621)scale(1.00008)"/></g><path d="M67.621 167.487a1.12 1.12 0 1 0-2.241 0 1.12 1.12 0 0 0 2.241 0"/><path fill="none" stroke="#000" stroke-miterlimit="10" stroke-width=".3985" d="M67.621 167.487a1.12 1.12 0 1 0-2.241 0 1.12 1.12 0 0 0 2.241 0Z"/><path d="M82.783 156.874a1.12 1.12 0 1 0-2.242 0 1.12 1.12 0 0 0 2.242 0"/><path fill="none" stroke="#000" stroke-miterlimit="10" stroke-width=".3985" d="M82.783 156.874a1.12 1.12 0 1 0-2.242 0 1.12 1.12 0 0 0 2.242 0Z"/><path d="M97.945 146.226a1.12 1.12 0 1 0-2.242 0 1.12 1.12 0 0 0 2.242 0"/><path fill="none" stroke="#000" stroke-miterlimit="10" stroke-width=".3985" d="M97.945 146.226a1.12 1.12 0 1 0-2.242 0 1.12 1.12 0 0 0 2.242 0Z"/><path d="M113.107 135.649a1.12 1.12 0 1 0-2.242 0 1.12 1.12 0 0 0 2.242 0"/><path fill="none" stroke="#000" stroke-miterlimit="10" stroke-width=".3985" d="M113.107 135.649a1.12 1.12 0 1 0-2.242 0 1.12 1.12 0 0 0 2.242 0Z"/><path d="M128.268 125.036a1.12 1.12 0 1 0-2.241 0 1.12 1.12 0 0 0 2.241 0"/><path fill="none" stroke="#000" stroke-miterlimit="10" stroke-width=".3985" d="M128.268 125.036a1.12 1.12 0 1 0-2.241 0 1.12 1.12 0 0 0 2.241 0Z"/><path d="M143.43 114.334a1.12 1.12 0 1 0-2.242 0 1.12 1.12 0 0 0 2.241 0"/><path fill="none" stroke="#000" stroke-miterlimit="10" stroke-width=".3985" d="M143.43 114.334a1.12 1.12 0 1 0-2.242 0 1.12 1.12 0 0 0 2.241 0Z"/><path d="M158.591 103.56a1.12 1.12 0 1 0-2.242 0 1.12 1.12 0 0 0 2.242 0"/><path fill="none" stroke="#000" stroke-miterlimit="10" stroke-width=".3985" d="M158.591 103.56a1.12 1.12 0 1 0-2.242 0 1.12 1.12 0 0 0 2.242 0Z"/><path d="M173.753 92.966a1.12 1.12 0 1 0-2.241 0 1.12 1.12 0 0 0 2.241 0"/><path fill="none" stroke="#000" stroke-miterlimit="10" stroke-width=".3985" d="M173.753 92.966a1.12 1.12 0 1 0-2.241 0 1.12 1.12 0 0 0 2.241 0Z"/><path d="M188.915 82.353a1.12 1.12 0 1 0-2.242 0 1.12 1.12 0 0 0 2.242 0"/><path fill="none" stroke="#000" stroke-miterlimit="10" stroke-width=".3985" d="M188.915 82.353a1.12 1.12 0 1 0-2.242 0 1.12 1.12 0 0 0 2.242 0Z"/><path d="M204.077 71.616a1.12 1.12 0 1 0-2.242 0 1.12 1.12 0 0 0 2.242 0"/><path fill="none" stroke="#000" stroke-miterlimit="10" stroke-width=".3985" d="M204.077 71.616a1.12 1.12 0 1 0-2.242 0 1.12 1.12 0 0 0 2.242 0Z"/><path d="M219.238 60.753a1.12 1.12 0 1 0-2.241 0 1.12 1.12 0 0 0 2.241 0"/><path fill="none" stroke="#000" stroke-miterlimit="10" stroke-width=".3985" d="M219.238 60.753a1.12 1.12 0 1 0-2.241 0 1.12 1.12 0 0 0 2.241 0Z"/><g transform="translate(184.073 150.493)scale(1.0004)"><use xlink:href="#B" x="-71.66076" y="70.21418"/><use xlink:href="#C" x="-65.800368" y="70.21418"/><use xlink:href="#C" x="-61.243605" y="70.21418"/><use xlink:href="#B" x="-56.686845" y="70.21418"/><use xlink:href="#D" x="-51.149367" y="70.21418"/><use xlink:href="#E" x="-41.079046" y="70.21418"/><use xlink:href="#F" x="-36.462484" y="70.21418"/><use xlink:href="#G" x="-33.209363" y="70.21418"/><use xlink:href="#H" x="-28.006762" y="70.21418"/><use xlink:href="#I" x="-18.893589" y="70.21418"/></g><g transform="rotate(-90 21.72 67.616)scale(1.0004)"><use xlink:href="#H" x="-71.66076" y="70.21418"/><use xlink:href="#J" x="-66.458162" y="70.21418"/><use xlink:href="#B" x="-63.205041" y="70.21418"/><use xlink:href="#K" x="-57.344641" y="70.21418"/><use xlink:href="#E" x="-50.838401" y="70.21418"/><use xlink:href="#H" x="-46.221841" y="70.21418"/><use xlink:href="#L" x="-41.019242" y="70.21418"/><use xlink:href="#M" x="-30.626" y="70.21418"/><use xlink:href="#F" x="-26.06924" y="70.21418"/><use xlink:href="#N" x="-22.81612" y="70.21418"/><use xlink:href="#H" x="-13.056759" y="70.21418"/><use xlink:href="#O" x="-3.943584" y="70.21418"/><use xlink:href="#P" x="4.183677" y="70.21418"/><use xlink:href="#Q" x="7.424838" y="70.21418"/><use xlink:href="#R" x="13.919118" y="70.21418"/><use xlink:href="#S" x="18.535679" y="70.21418"/></g><g transform="translate(143.721 -45.897)scale(1.0004)"><use xlink:href="#T" x="-71.66076" y="70.21418"/><use xlink:href="#F" x="-63.372484" y="70.21418"/><use xlink:href="#U" x="-60.119363" y="70.21418"/><use xlink:href="#B" x="-53.613125" y="70.21418"/><use xlink:href="#C" x="-47.752725" y="70.21418"/><use xlink:href="#D" x="-43.195964" y="70.21418"/><use xlink:href="#V" x="-33.125643" y="70.21418"/><use xlink:href="#H" x="-26.6194" y="70.21418"/><use xlink:href="#B" x="-21.4168" y="70.21418"/><use xlink:href="#C" x="-15.5564" y="70.21418"/><use xlink:href="#W" x="-10.99964" y="70.21418"/><use xlink:href="#X" x="-6.107999" y="70.21418"/><use xlink:href="#Y" x="4.285242" y="70.21418"/><use xlink:href="#Z" x="8.842002" y="70.21418"/><use xlink:href="#aa" x="19.905004" y="70.21418"/><use xlink:href="#C" x="25.765404" y="70.21418"/><use xlink:href="#E" x="30.322163" y="70.21418"/><use xlink:href="#M" x="34.938722" y="70.21418"/><use xlink:href="#ab" x="39.495486" y="70.21418"/><use xlink:href="#W" x="43.394446" y="70.21418"/><use xlink:href="#B" x="48.597044" y="70.21418"/><use xlink:href="#E" x="54.457446" y="70.21418"/><use xlink:href="#H" x="59.074007" y="70.21418"/><use xlink:href="#ac" x="64.276607" y="70.21418"/></g></svg>