<svg xmlns="http://www.w3.org/2000/svg" xmlns:xlink="http://www.w3.org/1999/xlink" width="242.66pt" height="249.24pt" viewBox="0 0 242.66 249.24"><defs><path id="r" d="M2.296-2.99c0-.347-.287-.634-.634-.634s-.633.287-.633.634.287.634.633.634.634-.287.634-.634"/><path id="n" d="M2.503-5.077c0-.215-.016-.223-.232-.223-.326.319-.749.51-1.506.51v.263c.215 0 .646 0 1.108-.215v4.088c0 .295-.024.391-.781.391h-.28V0c.328-.024 1.013-.024 1.372-.024s1.052 0 1.379.024v-.263h-.28c-.757 0-.78-.096-.78-.39z"/><path id="q" d="M2.248-1.626c.127-.12.462-.382.59-.494.493-.454.964-.893.964-1.618 0-.948-.797-1.562-1.794-1.562-.956 0-1.586.725-1.586 1.435 0 .39.311.446.423.446a.41.41 0 0 0 .414-.423c0-.414-.398-.414-.494-.414a1.23 1.23 0 0 1 1.156-.781c.741 0 1.124.63 1.124 1.3 0 .828-.582 1.434-1.523 2.398L.518-.303C.422-.215.422-.199.422 0h3.149l.23-1.427h-.246c-.024.16-.088.558-.184.71-.048.063-.653.063-.78.063H1.17z"/><path id="A" d="M5.15-2.073c0-1.102-.84-2.171-2.128-2.171-.382 0-.862.076-1.31.316V-6h2.62c.163 0 .436 0 .436-.328 0-.338-.262-.338-.437-.338H1.396c-.36 0-.436.098-.436.447v2.902c0 .197 0 .448.35.448.196 0 .24-.055.327-.164.294-.35.741-.545 1.374-.545.895 0 1.386.796 1.386 1.505 0 .873-.775 1.527-1.691 1.527-.306 0-1.004-.087-1.31-.687.055-.054.142-.13.142-.349a.48.48 0 0 0-.48-.49.483.483 0 0 0-.49.523C.567-.644 1.483.12 2.705.12 4.069.12 5.15-.862 5.15-2.073"/><path id="v" d="M5.4-2.171c0-.338-.261-.338-.436-.338h-.85v-3.84c0-.36-.077-.448-.448-.448H3.36c-.262 0-.316.011-.458.23L.415-2.663c-.099.142-.099.164-.099.382 0 .36.099.436.437.436h2.75v1.178h-.677c-.175 0-.437 0-.437.339 0 .327.273.327.437.327h1.963c.164 0 .437 0 .437-.327 0-.339-.262-.339-.437-.339h-.676v-1.178h.851c.164 0 .436 0 .436-.327M3.502-2.51H1.08l2.422-3.808z"/><path id="x" d="M5.139-2.106c0-1.243-.96-2.214-2.16-2.214-.568 0-1.135.185-1.626.632C1.506-5.226 2.53-6.12 3.49-6.12c.371 0 .546.12.6.175-.054.055-.109.12-.109.316 0 .262.197.48.48.48.273 0 .491-.185.491-.512 0-.535-.393-1.124-1.45-1.124-1.463 0-2.925 1.32-2.925 3.524C.578-.676 1.8.12 2.88.12 4.07.12 5.14-.796 5.14-2.106m-.753 0c0 .939-.72 1.56-1.506 1.56-.709 0-1.134-.534-1.353-1.2-.109-.261-.087-.523-.087-.676 0-.676.655-1.222 1.484-1.222.884 0 1.462.731 1.462 1.538"/><path id="w" d="M5.15-.447v-.284c0-.207 0-.447-.371-.447-.382 0-.382.207-.382.512H1.8c.644-.556 1.691-1.374 2.16-1.81.688-.612 1.19-1.31 1.19-2.183 0-1.309-1.102-2.127-2.433-2.127-1.288 0-2.15.895-2.15 1.822a.486.486 0 1 0 .971.033.45.45 0 0 0-.152-.35c.163-.501.676-.84 1.276-.84.895 0 1.735.502 1.735 1.462 0 .764-.535 1.397-1.255 1.997L.731-.632c-.098.087-.164.141-.164.294C.567 0 .84 0 1.015 0h3.698c.36 0 .437-.098.437-.447"/><path id="s" d="M8.396 0v-.347c-.777 0-.993 0-1.16-.49L4.629-8.324c-.048-.144-.072-.215-.24-.215s-.191.035-.25.227l-2.5 7.152C1.47-.67 1.136-.36.37-.347V0l1.148-.024c.335 0 .909 0 1.22.024v-.347c-.502-.012-.801-.263-.801-.598 0-.072 0-.096.06-.251l.55-1.59H5.56L6.22-.91c.06.144.06.167.06.203 0 .36-.61.36-.909.36V0c.275-.024 1.22-.024 1.555-.024s1.196 0 1.47.024M5.442-3.134H2.667l1.387-3.982z"/><path id="l" d="M5.669-1.064v-.67h-.263v.67c0 .681-.287.777-.455.777-.454 0-.454-.634-.454-.813v-2.093c0-.646 0-1.125-.526-1.591-.419-.383-.957-.55-1.483-.55-.981 0-1.735.646-1.735 1.423 0 .347.228.514.503.514.287 0 .49-.203.49-.49 0-.49-.43-.49-.61-.49.275-.503.85-.718 1.328-.718.55 0 1.256.455 1.256 1.53v.48C1.316-3.05.407-2.046.407-1.126c0 .946 1.1 1.245 1.83 1.245A1.63 1.63 0 0 0 3.79-.933c.048.562.419.993.933.993.251 0 .945-.168.945-1.124m-1.95-.622C3.72-.514 2.847-.12 2.333-.12c-.586 0-1.076-.43-1.076-1.004 0-1.579 2.033-1.722 2.464-1.746z"/><path id="t" d="M7.63-2.189c0-.968-.873-1.925-2.296-2.08 1.136-.216 1.962-.981 1.962-1.878 0-1.029-1.04-2.022-2.608-2.022H.514v.347h.24c.86 0 .896.12.896.562v6.351c0 .443-.035.562-.897.562H.514V0h4.497c1.543 0 2.62-1.04 2.62-2.189M6.243-6.147c0 .789-.622 1.782-1.95 1.782H2.56v-2.978c0-.395.024-.479.55-.479h1.508c1.196 0 1.626 1.029 1.626 1.675m.3 3.946c0 .97-.73 1.854-1.903 1.854H3.11c-.527 0-.55-.084-.55-.478v-3.301h2.236c1.148 0 1.746 1.004 1.746 1.925"/><path id="u" d="M7.798-2.775c0-.131 0-.203-.132-.203-.12 0-.131.06-.131.143C7.427-.933 6.04-.095 4.88-.095c-.838 0-3.122-.503-3.122-3.995 0-3.457 2.249-3.983 3.11-3.983 1.256 0 2.356 1.064 2.595 2.858.024.144.024.18.167.18.168 0 .168-.036.168-.275v-2.835c0-.215 0-.275-.12-.275-.071 0-.083.024-.155.144l-.586.945c-.538-.67-1.352-1.089-2.213-1.089C2.536-8.42.646-6.53.646-4.09.646-1.615 2.559.25 4.724.25c1.962 0 3.074-1.71 3.074-3.026"/><path id="e" d="M8.288-4.007c0-2.308-1.614-4.162-3.6-4.162H.502v.347h.24c.86 0 .897.12.897.562v6.351c0 .443-.036.562-.897.562h-.24V0h4.186c1.998 0 3.6-1.794 3.6-4.007M7.2-4.019c0 .67-.012 1.794-.694 2.68-.394.502-1.112.992-2.117.992H3.134c-.527 0-.55-.084-.55-.478v-6.518c0-.395.023-.479.55-.479h1.255c.993 0 1.782.479 2.273 1.268.538.85.538 2.057.538 2.535"/><path id="y" d="M7.63-3.062h-.263C7.08-1.196 6.793-.347 4.772-.347H3.145c-.526 0-.55-.084-.55-.478v-3.23h1.089c1.148 0 1.28.371 1.28 1.4h.263v-3.146h-.264c0 1.029-.131 1.4-1.28 1.4H2.596V-7.32c0-.394.024-.478.55-.478h1.591c1.758 0 2.129.598 2.308 2.32h.264l-.311-2.667H.49v.347h.24c.86 0 .897.12.897.562v6.327c0 .443-.036.562-.897.562H.49V0h6.662z"/><path id="h" d="M4.868-1.423c0-.072-.06-.12-.132-.12-.096 0-.12.06-.143.12C4.282-.42 3.48-.143 2.978-.143s-1.71-.335-1.71-2.404v-.228H4.58c.263 0 .287 0 .287-.227 0-1.208-.646-2.332-2.093-2.332C1.41-5.334.359-4.102.359-2.62.359-1.041 1.579.12 2.906.12c1.424 0 1.962-1.292 1.962-1.543m-.742-1.579H1.28c.095-1.878 1.148-2.093 1.483-2.093 1.28 0 1.351 1.686 1.363 2.093"/><path id="j" d="M8.456-4.09c0-.228-.204-.228-.383-.228H1.029c-.168 0-.383 0-.383.216 0 .227.203.227.383.227h7.044c.167 0 .383 0 .383-.215m0 2.224c0-.227-.204-.227-.383-.227H1.029c-.168 0-.383 0-.383.215 0 .228.203.228.383.228h7.044c.167 0 .383 0 .383-.216"/><path id="k" d="M6.231 0v-.347c-.598 0-.897 0-.909-.359v-2.2c0-1.113 0-1.447-.275-1.83-.347-.467-.909-.538-1.315-.538-1.029 0-1.507.777-1.675 1.148h-.012V-8.3L.383-8.17v.347c.813 0 .909.084.909.67v6.267c0 .538-.132.538-.91.538V0c.312-.024.958-.024 1.292-.024.347 0 .993 0 1.304.024v-.347c-.765 0-.909 0-.909-.538V-3.11c0-1.255.825-1.925 1.567-1.925s.909.61.909 1.34v2.81c0 .538-.132.538-.91.538V0c.312-.024.958-.024 1.293-.024.346 0 .992 0 1.303.024"/><path id="g" d="M5.98 0v-.347c-.323 0-.694 0-1.029-.49L3.35-3.17l-.084-.12c0-.036.754-.682.85-.777.824-.718 1.35-.73 1.602-.742v-.347c-.24.024-.55.024-.91.024-.31 0-.92 0-1.195-.024v.347c.203.012.347.12.347.311 0 .24-.251.455-.251.455l-1.71 1.506V-8.3L.334-8.17v.347c.813 0 .909.084.909.67v6.267c0 .538-.132.538-.91.538V0c.336-.024.91-.024 1.269-.024s.933 0 1.267.024v-.347c-.765 0-.909 0-.909-.538v-1.268l.766-.67 1.148 1.65c.18.252.263.384.263.551 0 .215-.167.275-.418.275V0c.299-.024.885-.024 1.208-.024.514 0 .538 0 1.052.024"/><path id="m" d="M4.21-1.519c0-.646-.395-1.028-.502-1.136-.431-.37-.754-.443-1.543-.586-.359-.072-1.232-.24-1.232-.957 0-.37.251-.92 1.327-.92 1.304 0 1.376 1.111 1.4 1.482.012.096.095.096.131.096.132 0 .132-.06.132-.275V-5.06c0-.215 0-.275-.12-.275-.095 0-.323.263-.406.37-.371-.298-.742-.37-1.125-.37-1.447 0-1.877.79-1.877 1.447 0 .132 0 .55.454.969.383.335.79.418 1.34.526.657.132.813.167 1.112.407.215.179.37.442.37.777 0 .514-.298 1.088-1.35 1.088C1.53-.12.956-.574.693-1.77c-.048-.215-.06-.24-.06-.24-.024-.047-.072-.047-.108-.047-.131 0-.131.06-.131.275v1.627c0 .215 0 .275.12.275.06 0 .071-.012.274-.264.06-.083.06-.107.24-.299.454.563 1.1.563 1.303.563C3.588.12 4.21-.574 4.21-1.52"/><path id="i" d="M5.956-4.808v-.347c-.347.024-.514.024-.897.024l-.969-.024v.347c.443.024.55.3.55.514 0 .108-.023.168-.071.287L3.349-.993 2.02-4.246c-.072-.167-.072-.251-.072-.251 0-.31.42-.31.658-.31v-.348c-.31.024-.897.024-1.232.024l-1.16-.024v.347c.694 0 .79.06.945.43L2.942 0c-.526 1.268-.526 1.292-.574 1.387-.203.36-.526.814-1.064.814-.371 0-.598-.216-.598-.216s.418-.047.418-.466a.433.433 0 0 0-.442-.443c-.204 0-.455.12-.455.467 0 .454.443.897 1.077.897.67 0 1.16-.586 1.47-1.34l2.07-5.095c.323-.801.885-.813 1.112-.813"/><path id="b" d="M5.454-1.304c0-.071-.024-.335-.395-.335-.227 0-.299.084-.37.264-.3.693-1.077.753-1.304.753-.993 0-1.782-.753-1.914-1.674h3.504c.252 0 .479 0 .479-.443 0-1.4-.79-2.523-2.285-2.523-1.387 0-2.5 1.196-2.5 2.655A2.667 2.667 0 0 0 3.35.072c1.543 0 2.105-1.065 2.105-1.376m-.79-1.65H1.483c.156-1.017.933-1.615 1.686-1.615 1.196 0 1.448 1.017 1.495 1.615"/><path id="o" d="M5.8-2.356c0-.347-.31-.347-.478-.347h-.897v-4.282c0-.394-.084-.49-.49-.49H3.66c-.287 0-.347.012-.49.24L.453-2.87c-.107.155-.107.179-.107.394 0 .419.155.467.478.467h2.93v1.315h-.717c-.168 0-.479 0-.479.347S2.87 0 3.038 0h2.105c.167 0 .478 0 .478-.347s-.31-.347-.478-.347h-.718v-1.315h.897c.168 0 .479 0 .479-.347m-2.045-.347H1.148l2.607-4.186z"/><path id="d" d="M5.119.682c0-.156-.084-.204-.251-.323C3.218-.777 2.81-2.488 2.81-3.648c0-1.136.382-2.858 2.057-4.018.167-.12.25-.168.25-.323 0-.12-.059-.311-.346-.311-.299 0-1.184.693-1.734 1.47a5.43 5.43 0 0 0-1.005 3.182c0 1.328.479 2.44.98 3.146C3.565.263 4.438.993 4.773.993c.287 0 .347-.204.347-.311"/><path id="f" d="M4.114-3.648c0-.933-.227-2.14-1.088-3.3-.407-.55-1.292-1.352-1.65-1.352-.276 0-.347.203-.347.31 0 .144.083.204.299.348 1.459 1.028 2.009 2.63 2.009 3.982C3.337-2.583 2.99-.825 1.28.36c-.156.107-.251.167-.251.323 0 .107.071.31.346.31.3 0 1.184-.693 1.735-1.47a5.5 5.5 0 0 0 1.004-3.17"/><path id="a" d="M5.37-1.483c0-1.244-1.483-1.495-2.057-1.579-1.053-.18-1.77-.299-1.77-.801 0-.323.37-.706 1.495-.706 1.136 0 1.184.538 1.208.85.024.239.239.275.383.275.394 0 .394-.216.394-.455v-.909c0-.191 0-.454-.335-.454-.287 0-.358.287-.358.287-.479-.287-1.029-.287-1.268-.287-1.95 0-2.213.992-2.213 1.399 0 .49.287.825.694 1.052.383.216.73.275 1.71.431.467.084 1.423.24 1.423.897 0 .442-.406.861-1.519.861-.765 0-1.267-.299-1.518-1.16-.06-.167-.096-.299-.395-.299-.395 0-.395.227-.395.466v1.232c0 .192 0 .455.335.455.144 0 .251 0 .43-.49.55.454 1.173.49 1.543.49C5.37.072 5.37-1.363 5.37-1.483"/><path id="c" d="M5.262-1.471c0-.24 0-.502-.394-.502-.383 0-.383.263-.383.514-.012.717-.694.837-.969.837-.933 0-.933-.598-.933-.885v-2.954h1.938c.167 0 .478 0 .478-.347s-.31-.347-.478-.347H2.583v-.98c0-.216 0-.49-.382-.49-.395 0-.395.274-.395.49v.98H.789c-.167 0-.49 0-.49.347s.311.347.478.347h1.029v3.014c0 1.112.765 1.519 1.627 1.519.645 0 1.83-.323 1.83-1.543"/><path id="z" d="M5.633-2.07c0-.609-.335-1.458-1.387-1.913.73-.454 1.052-1.172 1.052-1.794 0-.897-.897-1.674-2.188-1.674-1.328 0-2.26.574-2.26 1.459 0 .395.298.514.49.514a.48.48 0 0 0 .478-.49c0-.191-.096-.311-.096-.311.359-.454 1.184-.478 1.388-.478.813 0 1.41.43 1.41.992 0 .347-.226 1.34-1.482 1.424-.443.023-.634.047-.682.047-.24.024-.299.18-.299.347 0 .347.251.347.455.347h.55c1.244 0 1.794.873 1.794 1.519 0 .79-.694 1.53-1.746 1.53-1.196 0-1.735-.645-1.735-.812l.024-.06a.6.6 0 0 0 .084-.287.47.47 0 0 0-.478-.479c-.252 0-.49.156-.49.527C.514-.622 1.65.144 3.11.144c1.507 0 2.523-1.077 2.523-2.213"/><path id="p" d="M5.537-.49v-.252c0-.215 0-.49-.382-.49-.395 0-.395.251-.395.538H1.878L4.162-2.63c.168-.144 1.375-1.172 1.375-2.5 0-1.363-1.124-2.32-2.619-2.32C1.531-7.451.61-6.411.61-5.406a.49.49 0 0 0 .49.538.48.48 0 0 0 .479-.49c0-.227-.084-.3-.144-.347.168-.634.718-1.052 1.411-1.052 1.017 0 1.914.586 1.914 1.626 0 .933-.706 1.65-1.351 2.213L.777-.634C.646-.526.61-.49.61-.347.61 0 .933 0 1.1 0h4.174c.263-.072.263-.311.263-.49"/></defs><g transform="translate(192.453 52.979)scale(1.0004)"><use xlink:href="#a" x="-27.972226" y="5.386162"/><use xlink:href="#b" x="-21.812826" y="5.386162"/><use xlink:href="#c" x="-15.653424" y="5.386162"/><use xlink:href="#d" x="-9.494023" y="5.386162"/><use xlink:href="#e" x="-3.335338" y="5.386162"/><use xlink:href="#f" x="5.611252" y="5.386162"/></g><g transform="translate(50.457 18.239)scale(1.0004)"><use xlink:href="#g" x="-27.972226" y="5.386162"/><use xlink:href="#h" x="-22.111827" y="5.386162"/><use xlink:href="#i" x="-16.909227" y="5.386162"/><use xlink:href="#j" x="-6.838908" y="5.386162"/><use xlink:href="#e" x="6.173574" y="5.386162"/></g><g transform="translate(43.284 35.57)scale(1.0004)"><use xlink:href="#k" x="-27.972226" y="5.386162"/><use xlink:href="#l" x="-21.465985" y="5.386162"/><use xlink:href="#m" x="-15.605585" y="5.386162"/><use xlink:href="#k" x="-10.989025" y="5.386162"/></g><use xlink:href="#n" x="-4.480945" y="7.17691" transform="matrix(.99999 0 0 .99999 43.284 35.57)"/><g transform="translate(43.284 35.57)scale(1.0004)"><use xlink:href="#j" x="4.149664" y="5.386162"/><use xlink:href="#o" x="17.161887" y="5.386162"/><use xlink:href="#p" x="23.321288" y="5.386162"/></g><g transform="translate(46.363 52.578)scale(1.0004)"><use xlink:href="#k" x="-27.972226" y="5.386162"/><use xlink:href="#l" x="-21.465985" y="5.386162"/><use xlink:href="#m" x="-15.605585" y="5.386162"/><use xlink:href="#k" x="-10.989025" y="5.386162"/></g><use xlink:href="#q" x="-4.480945" y="7.17691" transform="matrix(.99999 0 0 .99999 46.363 52.578)"/><g transform="translate(46.363 52.578)scale(1.0004)"><use xlink:href="#j" x="4.149664" y="5.386162"/><use xlink:href="#p" x="17.161887" y="5.386162"/></g><g fill="none" stroke="#000" stroke-miterlimit="10" stroke-width=".3985"><path d="M12.858 77.388h31.181M12.858 100.065h31.181M75.22 77.388H44.04v22.677H75.22M106.402 77.388H75.22v22.677h31.182M137.583 77.388h-31.181v22.677h31.181M168.765 77.388h-31.182v22.677h31.182M199.946 77.388h-31.181v22.677h31.181M231.128 77.388h-31.182v22.677h31.182M62.748 77.388c8.504-14.73 47.623-14.73 54.292-3.178"/></g><path d="m118.591 76.897-.777-4.71-.724 2.11-2.19-.429Z"/><path fill="none" stroke="#000" stroke-miterlimit="10" stroke-width=".398491" d="m118.591 76.897-.777-4.71-.724 2.11-2.19-.429Z"/><path fill="none" stroke="#000" stroke-miterlimit="10" stroke-width=".3985" d="M125.111 77.388c8.504-14.73 47.623-14.73 54.292-3.178"/><path d="m180.954 76.897-.777-4.71-.724 2.11-2.19-.429Z"/><path fill="none" stroke="#000" stroke-miterlimit="10" stroke-width=".398491" d="m180.954 76.897-.777-4.71-.724 2.11-2.19-.429Z"/><g transform="translate(49.435 85.999)scale(1.0004)"><use xlink:href="#r" x="-27.972226" y="5.386162"/><use xlink:href="#r" x="-22.673947" y="5.386162"/><use xlink:href="#r" x="-17.363707" y="5.386162"/></g><use xlink:href="#s" x="-27.972226" y="5.386162" transform="translate(83.203 87.611)scale(1.0004)"/><use xlink:href="#t" x="-27.972226" y="5.386162" transform="translate(114.63 87.425)scale(1.0004)"/><use xlink:href="#u" x="-27.972226" y="5.386162" transform="translate(145.728 87.425)scale(1.0004)"/><use xlink:href="#e" x="-27.972226" y="5.386162" transform="translate(207.845 87.425)scale(1.0004)"/><g transform="translate(236.524 85.999)scale(1.0004)"><use xlink:href="#r" x="-27.972226" y="5.386162"/><use xlink:href="#r" x="-22.673947" y="5.386162"/><use xlink:href="#r" x="-17.363707" y="5.386162"/></g><g transform="translate(81.863 109.418)scale(1.00008)"><use xlink:href="#v" x="-27.963307" y="5.384444"/><use xlink:href="#w" x="-22.235557" y="5.384444"/></g><g transform="translate(144.226 109.418)scale(1.00008)"><use xlink:href="#v" x="-27.963307" y="5.384444"/><use xlink:href="#v" x="-22.235557" y="5.384444"/></g><g transform="translate(206.589 109.358)scale(1.00008)"><use xlink:href="#v" x="-27.963307" y="5.384444"/><use xlink:href="#x" x="-22.235557" y="5.384444"/></g><g transform="translate(192.943 172.036)scale(1.0004)"><use xlink:href="#a" x="-27.972226" y="5.386162"/><use xlink:href="#b" x="-21.812826" y="5.386162"/><use xlink:href="#c" x="-15.653424" y="5.386162"/><use xlink:href="#d" x="-9.494023" y="5.386162"/><use xlink:href="#y" x="-3.335338" y="5.386162"/><use xlink:href="#f" x="4.629859" y="5.386162"/></g><g transform="translate(50.947 137.296)scale(1.0004)"><use xlink:href="#g" x="-27.972226" y="5.386162"/><use xlink:href="#h" x="-22.111827" y="5.386162"/><use xlink:href="#i" x="-16.909227" y="5.386162"/><use xlink:href="#j" x="-6.838908" y="5.386162"/><use xlink:href="#y" x="6.173574" y="5.386162"/></g><g transform="translate(43.284 154.627)scale(1.0004)"><use xlink:href="#k" x="-27.972226" y="5.386162"/><use xlink:href="#l" x="-21.465985" y="5.386162"/><use xlink:href="#m" x="-15.605585" y="5.386162"/><use xlink:href="#k" x="-10.989025" y="5.386162"/></g><use xlink:href="#n" x="-4.480945" y="7.17691" transform="matrix(.99999 0 0 .99999 43.284 154.627)"/><g transform="translate(43.284 154.627)scale(1.0004)"><use xlink:href="#j" x="4.149664" y="5.386162"/><use xlink:href="#o" x="17.161887" y="5.386162"/><use xlink:href="#p" x="23.321288" y="5.386162"/></g><g transform="translate(46.363 171.635)scale(1.0004)"><use xlink:href="#k" x="-27.972226" y="5.386162"/><use xlink:href="#l" x="-21.465985" y="5.386162"/><use xlink:href="#m" x="-15.605585" y="5.386162"/><use xlink:href="#k" x="-10.989025" y="5.386162"/></g><use xlink:href="#q" x="-4.480945" y="7.17691" transform="matrix(.99999 0 0 .99999 46.363 171.635)"/><g transform="translate(46.363 171.635)scale(1.0004)"><use xlink:href="#j" x="4.149664" y="5.386162"/><use xlink:href="#z" x="17.161887" y="5.386162"/></g><g fill="none" stroke="#000" stroke-miterlimit="10" stroke-width=".3985"><path d="M12.858 196.445h31.181M12.858 219.122h31.181M75.22 196.445H44.04v22.677H75.22M106.402 196.445H75.22v22.677h31.182M137.583 196.445h-31.181v22.677h31.181M168.765 196.445h-31.182v22.677h31.182M199.946 196.445h-31.181v22.677h31.181M231.128 196.445h-31.182v22.677h31.182M62.748 196.445c9.921-17.185 77.387-17.185 85.474-3.178"/></g><path d="m149.773 195.953-.778-4.71-.723 2.11-2.19-.428Z"/><path fill="none" stroke="#000" stroke-miterlimit="10" stroke-width=".398491" d="m149.773 195.953-.778-4.71-.723 2.11-2.19-.428Z"/><g transform="translate(49.435 205.056)scale(1.0004)"><use xlink:href="#r" x="-27.972226" y="5.386162"/><use xlink:href="#r" x="-22.673947" y="5.386162"/><use xlink:href="#r" x="-17.363707" y="5.386162"/></g><use xlink:href="#s" x="-27.972226" y="5.386162" transform="translate(83.203 206.667)scale(1.0004)"/><use xlink:href="#t" x="-27.972226" y="5.386162" transform="translate(114.63 206.482)scale(1.0004)"/><use xlink:href="#u" x="-27.972226" y="5.386162" transform="translate(145.728 206.482)scale(1.0004)"/><use xlink:href="#y" x="-27.972226" y="5.386162" transform="translate(177.154 206.47)scale(1.0004)"/><use xlink:href="#e" x="-27.972226" y="5.386162" transform="translate(207.845 206.482)scale(1.0004)"/><g transform="translate(236.524 205.056)scale(1.0004)"><use xlink:href="#r" x="-27.972226" y="5.386162"/><use xlink:href="#r" x="-22.673947" y="5.386162"/><use xlink:href="#r" x="-17.363707" y="5.386162"/></g><g transform="translate(81.863 228.475)scale(1.00008)"><use xlink:href="#v" x="-27.963307" y="5.384444"/><use xlink:href="#w" x="-22.235557" y="5.384444"/></g><g transform="translate(175.408 228.415)scale(1.00008)"><use xlink:href="#v" x="-27.963307" y="5.384444"/><use xlink:href="#A" x="-22.235557" y="5.384444"/></g></svg>