<svg xmlns="http://www.w3.org/2000/svg" xmlns:xlink="http://www.w3.org/1999/xlink" width="277.44pt" height="210.03pt" viewBox="0 0 277.44 210.03"><defs><path id="q" d="M5.019-3.491c0-.873-.055-1.746-.437-2.553-.502-1.048-1.396-1.222-1.854-1.222-.655 0-1.452.284-1.899 1.298C.48-5.215.425-4.364.425-3.49c0 .818.044 1.8.491 2.63A2 2 0 0 0 2.716.24c.59 0 1.419-.23 1.899-1.266.35-.752.404-1.603.404-2.465M2.717 0C2.29 0 1.647-.273 1.45-1.32c-.12-.655-.12-1.658-.12-2.302 0-.698 0-1.418.087-2.008.208-1.298 1.026-1.396 1.299-1.396.36 0 1.08.196 1.287 1.276.11.611.11 1.44.11 2.128 0 .818 0 1.56-.12 2.258C3.828-.327 3.207 0 2.716 0"/><path id="r" d="M3.208-6.982c0-.262 0-.284-.251-.284-.677.698-1.637.698-1.986.698v.338c.218 0 .862 0 1.43-.283v5.651c0 .393-.034.524-1.015.524h-.35V0c.382-.033 1.331-.033 1.768-.033s1.385 0 1.767.033v-.338h-.349c-.982 0-1.014-.12-1.014-.524z"/><path id="s" d="m1.386-.84 1.156-1.124C4.244-3.469 4.899-4.059 4.899-5.15c0-1.243-.982-2.116-2.313-2.116a2.016 2.016 0 0 0-2.04 1.975c0 .61.545.61.578.61.185 0 .567-.13.567-.578a.55.55 0 0 0-.578-.567c-.087 0-.11 0-.142.011.25-.71.84-1.113 1.473-1.113.993 0 1.462.884 1.462 1.778 0 .873-.546 1.735-1.146 2.412L.666-.404c-.12.12-.12.142-.12.404h4.047L4.9-1.898h-.273c-.055.327-.131.807-.24.97-.077.088-.797.088-1.037.088z"/><path id="t" d="M3.164-3.84C4.059-4.135 4.69-4.9 4.69-5.76c0-.895-.96-1.506-2.007-1.506-1.102 0-1.931.655-1.931 1.484 0 .36.24.567.556.567.338 0 .557-.24.557-.556 0-.546-.513-.546-.677-.546.338-.534 1.058-.676 1.451-.676.448 0 1.048.24 1.048 1.222 0 .13-.022.763-.306 1.243-.327.524-.698.557-.97.568-.088.01-.35.032-.426.032-.088.011-.164.022-.164.131 0 .12.076.12.262.12h.48c.894 0 1.298.742 1.298 1.811 0 1.484-.753 1.8-1.233 1.8C2.16-.065 1.342-.25.96-.894c.382.055.72-.185.72-.6 0-.392-.294-.61-.61-.61-.263 0-.612.152-.612.632C.458-.48 1.473.24 2.662.24c1.331 0 2.324-.993 2.324-2.106 0-.894-.687-1.745-1.822-1.974"/><path id="f" d="M5.27-.971v-.611h-.273v.611c0 .633-.273.698-.393.698-.36 0-.404-.49-.404-.545V-3c0-.458 0-.884-.392-1.288a2.08 2.08 0 0 0-1.495-.6c-.895 0-1.647.513-1.647 1.233 0 .327.218.513.501.513a.48.48 0 0 0 .502-.502c0-.13-.054-.49-.556-.502.294-.382.829-.502 1.178-.502.535 0 1.157.426 1.157 1.397v.403c-.557.033-1.32.066-2.008.393-.818.371-1.09.939-1.09 1.419C.35-.153 1.406.12 2.094.12a1.51 1.51 0 0 0 1.429-.95c.044.437.338.895.85.895.23 0 .896-.152.896-1.036m-1.822-.556C3.448-.491 2.662-.12 2.17-.12c-.534 0-.982-.382-.982-.927 0-.6.458-1.506 2.259-1.571z"/><path id="x" d="M7.102-1.997c0-.949-.894-1.767-2.105-1.898 1.058-.207 1.81-.905 1.81-1.713 0-.949-1.003-1.844-2.421-1.844H.393v.339h.262c.84 0 .861.12.861.512v5.75c0 .393-.021.513-.861.513H.393V0h4.276c1.452 0 2.433-.971 2.433-1.997M5.75-5.607c0 .697-.535 1.614-1.746 1.614H2.422v-2.684c0-.36.022-.436.535-.436h1.352c1.059 0 1.44.927 1.44 1.505m.261 3.6c0 .774-.567 1.669-1.69 1.669H2.956c-.513 0-.535-.077-.535-.437v-2.978h2.051c1.08 0 1.538 1.015 1.538 1.746"/><path id="v" d="M7.255-2.542c0-.11 0-.186-.142-.186-.12 0-.12.066-.13.175C6.894-.993 5.727-.098 4.538-.098c-.666 0-2.804-.371-2.804-3.622 0-3.262 2.127-3.633 2.793-3.633 1.189 0 2.16.992 2.378 2.585.022.153.022.186.175.186.174 0 .174-.033.174-.262V-7.43c0-.185 0-.262-.12-.262-.043 0-.087 0-.174.131l-.546.808c-.404-.393-.96-.939-2.007-.939-2.04 0-3.797 1.735-3.797 3.96C.611-1.471 2.378.24 4.408.24c1.778 0 2.847-1.516 2.847-2.782"/><path id="i" d="M5.75 0v-.338c-.764 0-.851-.077-.851-.611v-6.623l-1.571.12v.339c.763 0 .85.076.85.61v2.357c-.316-.393-.785-.676-1.374-.676C1.516-4.822.37-3.753.37-2.346.37-.96 1.44.12 2.684.12c.698 0 1.189-.37 1.462-.72v.72zM4.146-1.287c0 .196 0 .218-.12.403-.328.524-.818.764-1.288.764-.49 0-.883-.284-1.145-.698-.284-.448-.317-1.07-.317-1.517 0-.403.022-1.058.339-1.549.229-.338.643-.698 1.233-.698.381 0 .84.163 1.178.654.12.186.12.208.12.404z"/><path id="d" d="M4.528-1.298c0-.11-.088-.131-.142-.131-.098 0-.12.065-.142.153C3.862-.153 2.88-.153 2.771-.153c-.545 0-.982-.327-1.233-.73-.327-.524-.327-1.244-.327-1.637h3.044c.24 0 .273 0 .273-.23 0-1.08-.59-2.138-1.953-2.138-1.266 0-2.27 1.124-2.27 2.488 0 1.462 1.146 2.52 2.4 2.52 1.332 0 1.823-1.211 1.823-1.418m-.72-1.451H1.222c.065-1.626.982-1.899 1.353-1.899 1.123 0 1.233 1.473 1.233 1.899"/><path id="k" d="M3.895-6.928c0-.404-.404-.764-.982-.764-.764 0-1.691.579-1.691 1.735v1.255H.36v.338h.862v3.535c0 .49-.12.49-.851.49V0l1.244-.033c.436 0 .949 0 1.385.033v-.338h-.229c-.807 0-.829-.12-.829-.513v-3.513h1.244v-.338H1.909v-1.266c0-.96.524-1.484 1.004-1.484.033 0 .196 0 .36.077a.48.48 0 0 0-.327.458c0 .251.174.47.469.47.316 0 .48-.219.48-.48"/><path id="n" d="M5.291-4.408a.534.534 0 0 0-.556-.534c-.218 0-.698.065-1.157.513a1.82 1.82 0 0 0-1.156-.393C1.407-4.822.655-4.07.655-3.23c0 .48.24.894.512 1.123A1.5 1.5 0 0 0 .83-1.2c0 .338.142.753.48.97C.655-.043.305.426.305.863c0 .785 1.08 1.385 2.412 1.385 1.287 0 2.422-.556 2.422-1.407 0-.382-.153-.938-.71-1.244-.578-.305-1.21-.305-1.876-.305-.273 0-.742 0-.818-.011-.35-.044-.579-.382-.579-.731 0-.044 0-.295.186-.513.425.306.873.338 1.08.338 1.015 0 1.767-.752 1.767-1.592 0-.404-.174-.808-.447-1.059.393-.37.786-.425.982-.425 0 0 .076 0 .11.01-.12.044-.175.164-.175.295a.31.31 0 0 0 .316.317c.11 0 .316-.077.316-.328m-1.92 1.179c0 .294-.01.643-.174.916-.088.131-.339.436-.775.436-.95 0-.95-1.09-.95-1.341 0-.295.012-.644.175-.917.088-.13.339-.436.775-.436.95 0 .95 1.09.95 1.342m1.2 4.09c0 .59-.774 1.136-1.843 1.136C1.626 1.997.873 1.44.873.862c0-.502.414-.906.894-.938h.644c.938 0 2.16 0 2.16.938"/><path id="m" d="M5.837 0v-.338c-.567 0-.84 0-.851-.328v-2.083c0-.939 0-1.277-.338-1.67-.153-.185-.513-.403-1.146-.403-.916 0-1.396.654-1.57 1.047H1.92v-3.797l-1.57.12v.339c.763 0 .85.076.85.61v5.674c0 .49-.12.49-.85.49V0l1.232-.033L2.804 0v-.338c-.731 0-.851 0-.851-.491v-2.008c0-1.134.775-1.745 1.473-1.745.687 0 .807.589.807 1.21v2.543c0 .49-.12.49-.85.49V0l1.232-.033z"/><path id="a" d="M2.695 0v-.338c-.72 0-.764-.055-.764-.48v-4.004l-1.527.12v.338c.709 0 .807.065.807.6v2.935c0 .49-.12.49-.851.49V0l1.2-.033c.382 0 .764.022 1.135.033m-.6-6.59a.583.583 0 0 0-1.167 0 .583.583 0 0 0 1.167 0"/><path id="o" d="M6.35-2.815h-.273c-.12 1.113-.273 2.477-2.193 2.477h-.895c-.512 0-.534-.077-.534-.437V-6.59c0-.37 0-.523 1.036-.523h.36v-.339c-.393.033-1.385.033-1.833.033-.425 0-1.276 0-1.658-.033v.339h.262c.84 0 .862.12.862.512v5.75c0 .393-.022.513-.862.513H.36V0h5.684z"/><path id="g" d="M2.782 0v-.338c-.73 0-.85 0-.85-.491v-6.743l-1.572.12v.339c.764 0 .851.076.851.61v5.674c0 .49-.12.49-.851.49V0l1.211-.033z"/><path id="w" d="M8.87 0v-.338c-.567 0-.84 0-.851-.328v-2.083c0-.939 0-1.277-.338-1.67-.153-.185-.513-.403-1.146-.403-.916 0-1.396.654-1.582 1.069-.153-.95-.96-1.07-1.45-1.07-.797 0-1.31.47-1.616 1.146v-1.145l-1.538.12v.338c.764 0 .851.076.851.611v2.924c0 .49-.12.49-.85.49V0l1.232-.033L2.804 0v-.338c-.731 0-.851 0-.851-.491v-2.008c0-1.134.775-1.745 1.473-1.745.687 0 .807.589.807 1.21v2.543c0 .49-.12.49-.85.49V0l1.232-.033L5.837 0v-.338c-.731 0-.851 0-.851-.491v-2.008c0-1.134.774-1.745 1.473-1.745.687 0 .807.589.807 1.21v2.543c0 .49-.12.49-.85.49V0l1.232-.033z"/><path id="b" d="M5.837 0v-.338c-.567 0-.84 0-.851-.328v-2.083c0-.939 0-1.277-.338-1.67-.153-.185-.513-.403-1.146-.403-.796 0-1.31.469-1.615 1.145v-1.145l-1.538.12v.338c.764 0 .851.076.851.611v2.924c0 .49-.12.49-.85.49V0l1.232-.033L2.804 0v-.338c-.731 0-.851 0-.851-.491v-2.008c0-1.134.775-1.745 1.473-1.745.687 0 .807.589.807 1.21v2.543c0 .49-.12.49-.85.49V0l1.232-.033z"/><path id="h" d="M5.139-2.335c0-1.396-1.091-2.553-2.411-2.553-1.364 0-2.423 1.19-2.423 2.553A2.435 2.435 0 0 0 2.717.12a2.43 2.43 0 0 0 2.422-2.455m-.906-.087c0 .393 0 .982-.24 1.462-.24.49-.72.807-1.265.807-.47 0-.95-.229-1.244-.73-.273-.48-.273-1.146-.273-1.539 0-.426 0-1.015.262-1.495a1.46 1.46 0 0 1 1.244-.73c.48 0 .949.24 1.232.708s.284 1.102.284 1.517"/><path id="l" d="M5.684-2.357c0-1.385-1.058-2.465-2.28-2.465-.851 0-1.31.48-1.527.72v-.72l-1.572.12v.338c.775 0 .851.065.851.546v5.105c0 .491-.12.491-.85.491v.339l1.221-.033 1.233.033v-.339c-.73 0-.85 0-.85-.49V-.645c.054.175.512.764 1.341.764C4.55.12 5.684-.95 5.684-2.357m-.905 0c0 1.32-.764 2.237-1.571 2.237-.437 0-.851-.218-1.146-.666-.153-.229-.153-.24-.153-.458v-2.433c.317-.556.851-.872 1.408-.872.796 0 1.462.96 1.462 2.192"/><path id="u" d="M3.611 2.618c0-.032 0-.054-.185-.24-1.364-1.374-1.713-3.436-1.713-5.105 0-1.899.414-3.797 1.756-5.16.142-.132.142-.154.142-.186 0-.077-.043-.11-.109-.11-.109 0-1.09.742-1.735 2.128-.556 1.2-.687 2.411-.687 3.327 0 .851.12 2.172.72 3.404.655 1.342 1.593 2.052 1.702 2.052.066 0 .11-.033.11-.11"/><path id="A" d="M3.153-2.727c0-.851-.12-2.172-.72-3.404C1.778-7.473.84-8.182.73-8.182c-.065 0-.11.043-.11.109 0 .032 0 .054.208.25C1.9-6.742 2.52-5.007 2.52-2.726c0 1.865-.403 3.785-1.756 5.16-.142.13-.142.153-.142.185 0 .066.044.11.109.11.11 0 1.091-.742 1.735-2.128.556-1.2.687-2.411.687-3.327"/><path id="e" d="M3.971-4.157c0-.349-.338-.665-.807-.665-.797 0-1.19.73-1.342 1.2v-1.2l-1.517.12v.338c.764 0 .851.076.851.611v2.924c0 .49-.12.49-.85.49V0l1.243-.033c.437 0 .95 0 1.386.033v-.338h-.23c-.807 0-.828-.12-.828-.513v-1.68c0-1.08.458-2.051 1.287-2.051.076 0 .098 0 .12.01a.47.47 0 0 0-.251.426c0 .306.23.47.47.47.195 0 .468-.132.468-.48"/><path id="j" d="M3.928-1.396c0-.579-.328-.906-.459-1.037-.36-.35-.785-.436-1.243-.524-.611-.12-1.342-.261-1.342-.894 0-.382.283-.83 1.222-.83 1.2 0 1.254.983 1.276 1.32.011.099.131.099.131.099.142 0 .142-.055.142-.262v-1.102c0-.185 0-.262-.12-.262-.055 0-.077 0-.218.131a1.4 1.4 0 0 1-.186.175c-.414-.306-.862-.306-1.025-.306C.775-4.888.36-4.157.36-3.546c0 .382.175.688.47.928.348.283.654.349 1.44.501.24.044 1.134.219 1.134 1.004 0 .557-.382.993-1.233.993-.916 0-1.31-.622-1.516-1.55C.622-1.81.61-1.854.502-1.854c-.142 0-.142.077-.142.273v1.44C.36.044.36.12.48.12.535.12.546.11.753-.098.775-.12.775-.142.97-.35c.48.458.971.469 1.2.469 1.255 0 1.757-.731 1.757-1.516"/><path id="z" d="m7.473-4.931-.207-2.455H.6L.393-4.931h.273c.152-1.757.316-2.117 1.963-2.117.197 0 .48 0 .59.022.229.044.229.164.229.415v5.75c0 .37 0 .523-1.146.523h-.436V0c.447-.033 1.56-.033 2.062-.033S5.553-.033 6 0v-.338h-.437C4.42-.338 4.42-.491 4.42-.862v-5.75c0-.218 0-.37.196-.414.12-.022.415-.022.622-.022 1.647 0 1.81.36 1.964 2.117z"/><path id="c" d="M3.622-1.353v-.622H3.35v.6c0 .808-.327 1.222-.73 1.222-.732 0-.732-.993-.732-1.178v-3.033h1.56v-.338h-1.56V-6.71h-.272c-.011.895-.339 2.062-1.408 2.106v.24h.928v3.011C1.135-.01 2.149.12 2.542.12c.775 0 1.08-.775 1.08-1.473"/><path id="p" d="M5.542-4.364v-.338c-.25.022-.567.033-.818.033l-.95-.033v.338c.405.01.525.262.525.47 0 .097-.022.141-.066.261L3.12-.851 1.898-3.895c-.065-.142-.065-.185-.065-.185 0-.284.425-.284.622-.284v-.338l-1.19.033c-.294 0-.73-.011-1.058-.033v.338c.688 0 .731.065.873.404L2.651-.087c.066.152.087.207.23.207s.185-.098.228-.207l1.43-3.546c.098-.251.283-.72 1.003-.731"/><path id="y" d="M5.542-4.364v-.338c-.25.022-.567.033-.818.033l-.95-.033v.338c.34.01.514.196.514.47 0 .108-.011.13-.066.261L3.12-.949 1.91-3.884c-.044-.11-.066-.153-.066-.196 0-.284.403-.284.61-.284v-.338l-1.188.033C.97-4.67.535-4.68.207-4.702v.338c.524 0 .731 0 .884.382L2.728 0l-.273.644c-.24.6-.546 1.353-1.244 1.353-.055 0-.305 0-.513-.197.338-.043.426-.284.426-.458A.44.44 0 0 0 .666.884c-.219 0-.459.142-.459.469 0 .49.459.884 1.004.884.687 0 1.135-.622 1.396-1.244l1.92-4.659c.284-.687.84-.698 1.015-.698"/></defs><path fill="#dfdfdf" d="M129.867 41.851 98.669 73.049c-1.557 1.557-3.616 4.414-4.6 6.382L80.625 106.32c-.984 1.969.002 3.564 2.203 3.564h60.062c2.2 0 4.783-1.595 5.767-3.564l13.444-26.888c.984-1.968.52-4.825-1.036-6.382z"/><path fill="none" stroke="#dfdfdf" stroke-linecap="round" stroke-miterlimit="10" stroke-width="21.2601" d="M129.867 41.851 98.669 73.049c-1.557 1.557-3.616 4.414-4.6 6.382L80.625 106.32c-.984 1.969.002 3.564 2.203 3.564h60.062c2.2 0 4.783-1.595 5.767-3.564l13.444-26.888c.984-1.968.52-4.825-1.036-6.382l-31.198-31.198M70.339 143.9h98.063c2.201 0 4.418-1.731 4.952-3.867l7.537-30.15"/><path fill="#fff" d="M136.895 41.851a7.028 7.028 0 1 0-14.056 0 7.028 7.028 0 0 0 14.056 0"/><path fill="none" stroke="#000" stroke-miterlimit="10" stroke-width=".3985" d="M136.895 41.851a7.028 7.028 0 1 0-14.056 0 7.028 7.028 0 0 0 14.056 0Z"/><path fill="#fff" d="M102.879 75.867a7.028 7.028 0 1 0-14.056 0 7.028 7.028 0 0 0 14.056 0"/><path fill="none" stroke="#000" stroke-miterlimit="10" stroke-width=".3985" d="M102.879 75.867a7.028 7.028 0 1 0-14.056 0 7.028 7.028 0 0 0 14.056 0ZM124.757 46.961 100.96 70.757"/><path fill="#fff" d="M85.87 109.883a7.028 7.028 0 1 0-14.055 0 7.028 7.028 0 0 0 14.055 0"/><path fill="none" stroke="#000" stroke-miterlimit="10" stroke-width=".3985" d="M85.87 109.883a7.028 7.028 0 1 0-14.055 0 7.028 7.028 0 0 0 14.055 0ZM92.62 82.33l-10.546 21.09"/><path fill="#fff" d="M77.366 143.9a7.028 7.028 0 1 0-14.055 0 7.028 7.028 0 0 0 14.055 0"/><path fill="none" stroke="#000" stroke-miterlimit="10" stroke-width=".3985" d="M77.366 143.9a7.028 7.028 0 1 0-14.055 0 7.028 7.028 0 0 0 14.055 0ZM77.09 116.894l-4.999 19.994"/><path fill="#fff" d="M94.375 143.9a7.028 7.028 0 1 0-14.056 0 7.028 7.028 0 0 0 14.056 0"/><path fill="none" stroke="#000" stroke-miterlimit="10" stroke-width=".3985" d="M94.375 143.9a7.028 7.028 0 1 0-14.056 0 7.028 7.028 0 0 0 14.056 0ZM80.595 116.894l5 19.994"/><path fill="#fff" d="M119.887 109.883a7.028 7.028 0 1 0-14.056 0 7.028 7.028 0 0 0 14.056 0"/><path fill="none" stroke="#000" stroke-miterlimit="10" stroke-width=".3985" d="M119.887 109.883a7.028 7.028 0 1 0-14.056 0 7.028 7.028 0 0 0 14.056 0ZM99.083 82.33l10.544 21.09"/><path fill="#fff" d="M111.383 143.9a7.028 7.028 0 1 0-14.056 0 7.028 7.028 0 0 0 14.056 0"/><path fill="none" stroke="#000" stroke-miterlimit="10" stroke-width=".3985" d="M111.383 143.9a7.028 7.028 0 1 0-14.056 0 7.028 7.028 0 0 0 14.056 0ZM111.106 116.894l-4.998 19.994"/><path fill="#fff" d="M128.39 143.9a7.028 7.028 0 1 0-14.055 0 7.028 7.028 0 0 0 14.056 0"/><path fill="none" stroke="#000" stroke-miterlimit="10" stroke-width=".3985" d="M128.39 143.9a7.028 7.028 0 1 0-14.055 0 7.028 7.028 0 0 0 14.056 0ZM114.612 116.894l4.998 19.994"/><path fill="#fff" d="M170.91 75.867a7.028 7.028 0 1 0-14.054 0 7.028 7.028 0 0 0 14.055 0"/><path fill="none" stroke="#000" stroke-miterlimit="10" stroke-width=".3985" d="M170.91 75.867a7.028 7.028 0 1 0-14.054 0 7.028 7.028 0 0 0 14.055 0ZM134.977 46.961l23.796 23.796"/><path fill="#fff" d="M153.903 109.883a7.028 7.028 0 1 0-14.055 0 7.028 7.028 0 0 0 14.055 0"/><path fill="none" stroke="#000" stroke-miterlimit="10" stroke-width=".3985" d="M153.903 109.883a7.028 7.028 0 1 0-14.055 0 7.028 7.028 0 0 0 14.055 0ZM160.652 82.33l-10.545 21.09"/><path fill="#fff" d="M145.399 143.9a7.028 7.028 0 1 0-14.055 0 7.028 7.028 0 0 0 14.055 0"/><path fill="none" stroke="#000" stroke-miterlimit="10" stroke-width=".3985" d="M145.399 143.9a7.028 7.028 0 1 0-14.055 0 7.028 7.028 0 0 0 14.055 0ZM145.123 116.894l-5 19.994"/><path fill="#fff" d="M162.407 143.9a7.028 7.028 0 1 0-14.055 0 7.028 7.028 0 0 0 14.055 0"/><path fill="none" stroke="#000" stroke-miterlimit="10" stroke-width=".3985" d="M162.407 143.9a7.028 7.028 0 1 0-14.055 0 7.028 7.028 0 0 0 14.055 0ZM148.628 116.894l4.999 19.994"/><path fill="#bfbfbf" d="M187.919 109.883a7.028 7.028 0 1 0-14.055 0 7.028 7.028 0 0 0 14.055 0"/><path fill="none" stroke="#000" stroke-miterlimit="10" stroke-width=".3985" d="M187.919 109.883a7.028 7.028 0 1 0-14.055 0 7.028 7.028 0 0 0 14.055 0ZM167.115 82.33l10.545 21.09"/><path fill="#fff" d="M179.415 143.9a7.028 7.028 0 1 0-14.055 0 7.028 7.028 0 0 0 14.055 0"/><path fill="none" stroke="#000" stroke-miterlimit="10" stroke-width=".3985" d="M179.415 143.9a7.028 7.028 0 1 0-14.055 0 7.028 7.028 0 0 0 14.055 0ZM179.139 116.894l-5 19.994"/><g transform="translate(6.802 68.508)scale(1.00008)"><use xlink:href="#a" x="59.359897" y="-30.156488"/><use xlink:href="#b" x="62.392877" y="-30.156488"/><use xlink:href="#c" x="68.153352" y="-30.156488"/><use xlink:href="#d" x="72.39734" y="-30.156488"/><use xlink:href="#e" x="77.241382" y="-30.156488"/><use xlink:href="#b" x="81.518104" y="-30.156488"/><use xlink:href="#f" x="87.584064" y="-30.156488"/><use xlink:href="#g" x="93.039065" y="-30.156488"/><use xlink:href="#b" x="64.198296" y="-15.709295"/><use xlink:href="#h" x="70.264256" y="-15.709295"/><use xlink:href="#i" x="76.013831" y="-15.709295"/><use xlink:href="#d" x="82.079791" y="-15.709295"/><use xlink:href="#j" x="86.923838" y="-15.709295"/></g><g transform="translate(93.687 199.099)scale(1.00008)"><use xlink:href="#g" x="57.871774" y="-30.156488"/><use xlink:href="#d" x="60.904754" y="-30.156488"/><use xlink:href="#f" x="65.748794" y="-30.156488"/><use xlink:href="#k" x="71.203794" y="-30.156488"/><use xlink:href="#b" x="78.164378" y="-30.156488"/><use xlink:href="#h" x="84.230338" y="-30.156488"/><use xlink:href="#i" x="89.990824" y="-30.156488"/><use xlink:href="#d" x="96.056784" y="-30.156488"/><use xlink:href="#j" x="100.900824" y="-30.156488"/></g><path fill="none" stroke="#000" stroke-miterlimit="10" stroke-width=".3985" d="M200.734 46.937v57.86"/><path d="m200.734 43.836-1.682 4.468 1.682-1.466 1.682 1.466Z"/><path fill="none" stroke="#000" stroke-miterlimit="10" stroke-width=".3985" d="m200.734 43.836-1.682 4.468 1.682-1.466 1.682 1.466Z"/><path d="m200.734 107.899 1.682-4.468-1.682 1.465-1.682-1.465Z"/><path fill="none" stroke="#000" stroke-miterlimit="10" stroke-width=".3985" d="m200.734 107.899 1.682-4.468-1.682 1.465-1.682-1.465Z"/><g transform="translate(147.051 108.856)scale(1.00008)"><use xlink:href="#i" x="57.871774" y="-30.156488"/><use xlink:href="#d" x="63.937734" y="-30.156488"/><use xlink:href="#l" x="68.781774" y="-30.156488"/><use xlink:href="#c" x="74.847734" y="-30.156488"/><use xlink:href="#m" x="79.091725" y="-30.156488"/><use xlink:href="#h" x="88.779804" y="-30.156488"/><use xlink:href="#k" x="94.234804" y="-30.156488"/></g><path fill="#bfbfbf" d="M259.797 75.867a5.67 5.67 0 1 0-11.338 0 5.67 5.67 0 0 0 11.338 0"/><path fill="none" stroke="#000" stroke-miterlimit="10" stroke-width=".3985" d="M259.797 75.867a5.67 5.67 0 1 0-11.338 0 5.67 5.67 0 0 0 11.338 0ZM200.734 114.97v23.843"/><path d="m200.734 111.868-1.682 4.468 1.682-1.466 1.682 1.466Z"/><path fill="none" stroke="#000" stroke-miterlimit="10" stroke-width=".3985" d="m200.734 111.868-1.682 4.468 1.682-1.466 1.682 1.466Z"/><path d="m200.734 141.915 1.682-4.468-1.682 1.466-1.682-1.466Z"/><path fill="none" stroke="#000" stroke-miterlimit="10" stroke-width=".3985" d="m200.734 141.915 1.682-4.468-1.682 1.466-1.682-1.466Z"/><g transform="translate(147.051 159.88)scale(1.00008)"><use xlink:href="#m" x="57.871774" y="-30.156488"/><use xlink:href="#d" x="63.937734" y="-30.156488"/><use xlink:href="#a" x="68.781774" y="-30.156488"/><use xlink:href="#n" x="71.814754" y="-30.156488"/><use xlink:href="#m" x="77.269754" y="-30.156488"/><use xlink:href="#c" x="83.030236" y="-30.156488"/><use xlink:href="#h" x="90.896338" y="-30.156488"/><use xlink:href="#k" x="96.351338" y="-30.156488"/></g><path fill="#bfbfbf" d="M261.913 126.891a5.67 5.67 0 1 0-11.338 0 5.67 5.67 0 0 0 11.338 0"/><path fill="none" stroke="#000" stroke-miterlimit="10" stroke-width=".3985" d="M261.913 126.891a5.67 5.67 0 1 0-11.338 0 5.67 5.67 0 0 0 11.338 0Z"/><g transform="translate(-42.545 53.053)scale(1.00008)"><use xlink:href="#o" x="57.871774" y="-30.156488"/><use xlink:href="#d" x="64.690527" y="-30.156488"/><use xlink:href="#p" x="69.534566" y="-30.156488"/><use xlink:href="#d" x="74.989565" y="-30.156488"/><use xlink:href="#g" x="79.833606" y="-30.156488"/></g><use xlink:href="#q" x="57.871774" y="-30.156488" transform="translate(-32.776 75.52)scale(1.00008)"/><use xlink:href="#r" x="57.871774" y="-30.156488" transform="translate(-32.776 109.536)scale(1.00008)"/><use xlink:href="#s" x="57.871774" y="-30.156488" transform="translate(-32.776 143.553)scale(1.00008)"/><use xlink:href="#t" x="57.871774" y="-30.156488" transform="translate(-32.776 177.569)scale(1.00008)"/><g transform="translate(14.776 222.136)scale(1.00008)"><use xlink:href="#u" x="57.871774" y="-30.156488"/><use xlink:href="#v" x="62.115764" y="-30.156488"/><use xlink:href="#h" x="69.992792" y="-30.156488"/><use xlink:href="#w" x="75.447794" y="-30.156488"/><use xlink:href="#l" x="84.535824" y="-30.156488"/><use xlink:href="#g" x="90.601784" y="-30.156488"/><use xlink:href="#d" x="93.634764" y="-30.156488"/><use xlink:href="#c" x="98.478804" y="-30.156488"/><use xlink:href="#d" x="102.722794" y="-30.156488"/><use xlink:href="#x" x="111.188952" y="-30.156488"/><use xlink:href="#a" x="118.91323" y="-30.156488"/><use xlink:href="#b" x="121.94621" y="-30.156488"/><use xlink:href="#f" x="128.01216" y="-30.156488"/><use xlink:href="#e" x="133.46716" y="-30.156488"/><use xlink:href="#y" x="137.743883" y="-30.156488"/><use xlink:href="#z" x="147.137398" y="-30.156488"/><use xlink:href="#e" x="154.119804" y="-30.156488"/><use xlink:href="#d" x="158.396527" y="-30.156488"/><use xlink:href="#d" x="163.240566" y="-30.156488"/><use xlink:href="#A" x="168.084606" y="-30.156488"/></g></svg>