<svg xmlns="http://www.w3.org/2000/svg" xmlns:xlink="http://www.w3.org/1999/xlink" width="212.47pt" height="209.48pt" viewBox="0 0 212.47 209.48"><defs><path id="q" d="M4.904 0v-.347h-.371C3.48-.347 3.444-.49 3.444-.92v-6.745c0-.275 0-.287-.239-.287-.287.323-.885.765-2.117.765v.347c.275 0 .873 0 1.531-.311v6.231c0 .43-.036.574-1.088.574h-.37V0c.322-.024 1.482-.024 1.877-.024s1.543 0 1.866.024"/><path id="r" d="M5.262-2.01H5c-.036.204-.131.862-.25 1.053-.085.108-.766.108-1.125.108H1.41c.323-.275 1.053-1.04 1.364-1.328 1.818-1.674 2.487-2.296 2.487-3.48 0-1.375-1.088-2.296-2.475-2.296S.586-6.77.586-5.741c0 .61.526.61.562.61.251 0 .562-.18.562-.562 0-.335-.227-.562-.562-.562-.107 0-.131 0-.167.012.227-.813.873-1.364 1.65-1.364 1.017 0 1.639.85 1.639 1.95 0 1.017-.586 1.902-1.268 2.667L.586-.287V0h4.365z"/><path id="m" d="M4.528-1.298c0-.11-.088-.131-.142-.131-.098 0-.12.065-.142.153C3.862-.153 2.88-.153 2.771-.153c-.545 0-.982-.327-1.233-.73-.327-.524-.327-1.244-.327-1.637h3.044c.24 0 .273 0 .273-.23 0-1.08-.59-2.138-1.953-2.138-1.266 0-2.27 1.124-2.27 2.488 0 1.462 1.146 2.52 2.4 2.52 1.332 0 1.823-1.211 1.823-1.418m-.72-1.451H1.222c.065-1.626.982-1.899 1.353-1.899 1.123 0 1.233 1.473 1.233 1.899"/><path id="i" d="M5.139-1.8v-.338H4.048v-4.964c0-.219 0-.284-.175-.284-.098 0-.13 0-.218.13L.305-2.137v.338h2.903v.949c0 .393-.022.513-.83.513H2.15V0c.448-.033 1.015-.033 1.473-.033s1.037 0 1.484.033v-.338h-.23c-.807 0-.828-.12-.828-.513v-.95zm-1.866-.338H.611l2.662-4.07z"/><path id="j" d="M2.695 0v-.338c-.72 0-.764-.055-.764-.48v-4.004l-1.527.12v.338c.709 0 .807.065.807.6v2.935c0 .49-.12.49-.851.49V0l1.2-.033c.382 0 .764.022 1.135.033m-.6-6.59a.583.583 0 0 0-1.167 0 .583.583 0 0 0 1.167 0"/><path id="k" d="M5.837 0v-.338c-.567 0-.84 0-.851-.328v-2.083c0-.939 0-1.277-.338-1.67-.153-.185-.513-.403-1.146-.403-.796 0-1.31.469-1.615 1.145v-1.145l-1.538.12v.338c.764 0 .851.076.851.611v2.924c0 .49-.12.49-.85.49V0l1.232-.033L2.804 0v-.338c-.731 0-.851 0-.851-.491v-2.008c0-1.134.775-1.745 1.473-1.745.687 0 .807.589.807 1.21v2.543c0 .49-.12.49-.85.49V0l1.232-.033z"/><path id="p" d="M5.139-2.335c0-1.396-1.091-2.553-2.411-2.553-1.364 0-2.423 1.19-2.423 2.553A2.435 2.435 0 0 0 2.717.12a2.43 2.43 0 0 0 2.422-2.455m-.906-.087c0 .393 0 .982-.24 1.462-.24.49-.72.807-1.265.807-.47 0-.95-.229-1.244-.73-.273-.48-.273-1.146-.273-1.539 0-.426 0-1.015.262-1.495a1.46 1.46 0 0 1 1.244-.73c.48 0 .949.24 1.232.708s.284 1.102.284 1.517"/><path id="n" d="M3.971-4.157c0-.349-.338-.665-.807-.665-.797 0-1.19.73-1.342 1.2v-1.2l-1.517.12v.338c.764 0 .851.076.851.611v2.924c0 .49-.12.49-.85.49V0l1.243-.033c.437 0 .95 0 1.386.033v-.338h-.23c-.807 0-.828-.12-.828-.513v-1.68c0-1.08.458-2.051 1.287-2.051.076 0 .098 0 .12.01a.47.47 0 0 0-.251.426c0 .306.23.47.47.47.195 0 .468-.132.468-.48"/><path id="o" d="M3.928-1.396c0-.579-.328-.906-.459-1.037-.36-.35-.785-.436-1.243-.524-.611-.12-1.342-.261-1.342-.894 0-.382.283-.83 1.222-.83 1.2 0 1.254.983 1.276 1.32.011.099.131.099.131.099.142 0 .142-.055.142-.262v-1.102c0-.185 0-.262-.12-.262-.055 0-.077 0-.218.131a1.4 1.4 0 0 1-.186.175c-.414-.306-.862-.306-1.025-.306C.775-4.888.36-4.157.36-3.546c0 .382.175.688.47.928.348.283.654.349 1.44.501.24.044 1.134.219 1.134 1.004 0 .557-.382.993-1.233.993-.916 0-1.31-.622-1.516-1.55C.622-1.81.61-1.854.502-1.854c-.142 0-.142.077-.142.273v1.44C.36.044.36.12.48.12.535.12.546.11.753-.098.775-.12.775-.142.97-.35c.48.458.971.469 1.2.469 1.255 0 1.757-.731 1.757-1.516"/><path id="l" d="M5.542-4.364v-.338c-.25.022-.567.033-.818.033l-.95-.033v.338c.405.01.525.262.525.47 0 .097-.022.141-.066.261L3.12-.851 1.898-3.895c-.065-.142-.065-.185-.065-.185 0-.284.425-.284.622-.284v-.338l-1.19.033c-.294 0-.73-.011-1.058-.033v.338c.688 0 .731.065.873.404L2.651-.087c.066.152.087.207.23.207s.185-.098.228-.207l1.43-3.546c.098-.251.283-.72 1.003-.731"/><path id="e" d="M3.444-7.666c0-.275 0-.287-.239-.287-.287.323-.885.765-2.117.765v.347c.275 0 .873 0 1.531-.311v6.231c0 .43-.036.574-1.088.574h-.37V0c.322-.024 1.482-.024 1.877-.024s1.543 0 1.866.024v-.347h-.371C3.48-.347 3.444-.49 3.444-.92z"/><path id="a" d="M5.262-2.01H5c-.036.204-.131.862-.25 1.053-.085.108-.766.108-1.125.108H1.41c.323-.275 1.053-1.04 1.364-1.328 1.818-1.674 2.487-2.296 2.487-3.48 0-1.375-1.088-2.296-2.475-2.296S.586-6.77.586-5.741c0 .61.526.61.562.61.251 0 .562-.18.562-.562 0-.335-.227-.562-.562-.562-.107 0-.131 0-.167.012.227-.813.873-1.364 1.65-1.364 1.017 0 1.639.85 1.639 1.95 0 1.017-.586 1.902-1.268 2.667L.586-.287V0h4.365z"/><path id="f" d="M2.2-4.294c-.203.012-.25.024-.25.132 0 .12.06.12.275.12h.55c1.016 0 1.47.837 1.47 1.985 0 1.567-.812 1.985-1.399 1.985-.574 0-1.554-.275-1.901-1.064.383.06.73-.156.73-.586a.565.565 0 0 0-.587-.586c-.287 0-.598.167-.598.622C.49-.622 1.555.25 2.882.25c1.424 0 2.476-1.088 2.476-2.296 0-1.1-.885-1.962-2.033-2.165 1.04-.299 1.71-1.172 1.71-2.105 0-.945-.98-1.638-2.14-1.638-1.197 0-2.082.73-2.082 1.602 0 .479.371.574.55.574.252 0 .539-.18.539-.538 0-.383-.287-.55-.55-.55-.072 0-.096 0-.132.012.454-.813 1.579-.813 1.638-.813.395 0 1.173.179 1.173 1.351 0 .227-.036.897-.383 1.411-.359.527-.766.563-1.089.574z"/><path id="g" d="M4.318-7.786c0-.227 0-.287-.168-.287-.096 0-.131 0-.227.144l-3.6 5.585v.347h3.145V-.91c0 .443-.024.562-.897.562h-.239V0c.275-.024 1.22-.024 1.555-.024s1.292 0 1.567.024v-.347h-.24c-.86 0-.896-.12-.896-.562v-1.088h1.208v-.347H4.318zm-.79.933v4.509H.622z"/><path id="b" d="M1.53-6.853c.515.167.934.18 1.065.18 1.352 0 2.213-.993 2.213-1.16 0-.049-.024-.108-.096-.108-.024 0-.048 0-.155.047a3.9 3.9 0 0 1-1.555.323c-.79 0-1.352-.239-1.579-.335-.083-.035-.107-.035-.12-.035-.095 0-.095.071-.095.263v3.552c0 .215 0 .287.143.287.06 0 .072-.012.192-.156.335-.49.897-.777 1.495-.777.634 0 .945.586 1.04.79.204.466.216 1.052.216 1.506s0 1.136-.335 1.675c-.263.43-.73.73-1.256.73-.79 0-1.567-.539-1.782-1.412.06.024.131.036.191.036.204 0 .527-.12.527-.526 0-.335-.228-.527-.527-.527-.215 0-.526.108-.526.574 0 1.017.813 2.177 2.14 2.177 1.352 0 2.536-1.136 2.536-2.655 0-1.423-.956-2.607-2.212-2.607-.682 0-1.208.299-1.52.634z"/><path id="c" d="M1.471-4.162c0-3.026 1.471-3.504 2.117-3.504.43 0 .861.131 1.088.49-.143 0-.598 0-.598.49 0 .263.18.49.49.49.3 0 .503-.179.503-.526 0-.621-.454-1.231-1.495-1.231C2.069-7.953.49-6.411.49-3.78.49-.49 1.926.25 2.942.25c1.304 0 2.416-1.136 2.416-2.69 0-1.592-1.112-2.656-2.308-2.656-1.065 0-1.46.921-1.579 1.256zm1.471 4.09c-.753 0-1.112-.67-1.22-.92-.107-.312-.227-.898-.227-1.735 0-.945.43-2.129 1.507-2.129.658 0 1.005.443 1.184.85.191.442.191 1.04.191 1.554 0 .61 0 1.148-.227 1.603-.299.574-.73.777-1.208.777"/><path id="h" d="M5.681-7.427v-.275H2.799c-1.448 0-1.471-.156-1.52-.383h-.262L.646-5.693h.263c.036-.215.143-.957.299-1.088.096-.072.993-.072 1.16-.072h2.536L3.636-5.035C3.313-4.57 2.105-2.607 2.105-.36c0 .132 0 .61.49.61.503 0 .503-.466.503-.622v-.598c0-1.782.287-3.17.849-3.97z"/><path id="d" d="M3.564-4.318c.598-.322 1.471-.873 1.471-1.877 0-1.04-1.004-1.758-2.105-1.758-1.184 0-2.117.873-2.117 1.961 0 .407.12.813.455 1.22.131.155.143.167.98.753C1.088-3.48.49-2.679.49-1.806.49-.538 1.698.251 2.918.251c1.328 0 2.44-.98 2.44-2.236 0-1.22-.861-1.758-1.794-2.333M1.938-5.394c-.156-.108-.634-.419-.634-1.005 0-.777.813-1.267 1.614-1.267.861 0 1.627.622 1.627 1.483 0 .73-.526 1.315-1.22 1.698zM2.5-3.851l1.447.945c.31.203.86.574.86 1.303 0 .91-.92 1.531-1.877 1.531-1.016 0-1.89-.741-1.89-1.734 0-.933.682-1.686 1.46-2.045"/></defs><g fill="none" stroke="#000" stroke-miterlimit="10" stroke-width=".3985"><path d="M14.977 54.509h90.71V36.084h-90.71ZM37.654 54.509V36.084M60.332 54.509V36.084M83.01 54.509V36.084"/></g><use xlink:href="#a" x="-57.045895" y="-17.498023" transform="translate(80.412 66.64)scale(1.0004)"/><use xlink:href="#b" x="-57.045895" y="-17.498023" transform="translate(103.09 66.64)scale(1.0004)"/><use xlink:href="#c" x="-57.045895" y="-17.498023" transform="translate(125.767 66.64)scale(1.0004)"/><use xlink:href="#d" x="-57.045895" y="-17.498023" transform="translate(148.445 66.64)scale(1.0004)"/><g fill="none" stroke="#000" stroke-miterlimit="10" stroke-width=".3985"><path d="M110.222 54.509h90.71V36.084h-90.71ZM132.9 54.509V36.084M155.577 54.509V36.084M178.255 54.509V36.084"/></g><use xlink:href="#e" x="-57.045895" y="-17.498023" transform="translate(175.657 66.64)scale(1.0004)"/><use xlink:href="#f" x="-57.045895" y="-17.498023" transform="translate(198.335 66.64)scale(1.0004)"/><use xlink:href="#g" x="-57.045895" y="-17.498023" transform="translate(221.012 66.64)scale(1.0004)"/><use xlink:href="#h" x="-57.045895" y="-17.498023" transform="translate(243.69 66.64)scale(1.0004)"/><g fill="none" stroke="#000" stroke-miterlimit="10" stroke-width=".3985"><path d="M121.56 36.084c-2.834-4.91-24.377-4.91-27.212 0"/><path d="M121.56 36.084c-3.542-6.138-46.346-6.138-49.89 0"/><path d="M121.56 36.084c-4.251-7.365-68.315-7.365-72.567 0"/><path d="M121.56 36.084c-4.96-8.593-90.284-8.593-95.244 0"/></g><g transform="translate(97.49 40.199)scale(1.00008)"><use xlink:href="#i" x="-57.027704" y="-17.492443"/><use xlink:href="#j" x="-47.950586" y="-17.492443"/><use xlink:href="#k" x="-44.917605" y="-17.492443"/><use xlink:href="#l" x="-39.146213" y="-17.492443"/><use xlink:href="#m" x="-33.691209" y="-17.492443"/><use xlink:href="#n" x="-28.84717" y="-17.492443"/><use xlink:href="#o" x="-24.57045" y="-17.492443"/><use xlink:href="#j" x="-20.271909" y="-17.492443"/><use xlink:href="#p" x="-17.238929" y="-17.492443"/><use xlink:href="#k" x="-11.783929" y="-17.492443"/><use xlink:href="#o" x="-5.717969" y="-17.492443"/></g><g fill="none" stroke="#000" stroke-miterlimit="10" stroke-width=".3985"><path d="M17.245 98.73h181.42V80.304H17.244ZM39.922 98.73V80.304M62.6 98.73V80.304M85.277 98.73V80.304M107.955 98.73V80.304M130.632 98.73V80.304M153.31 98.73V80.304M175.987 98.73V80.304"/></g><use xlink:href="#q" x="-57.045895" y="-17.498023" transform="translate(82.678 110.983)scale(1.0004)"/><path fill="none" stroke="#000" stroke-miterlimit="10" stroke-width=".3985" d="M121.56 54.509c0 22.677-92.976 3.118-92.976 22.126"/><path d="m28.584 79.737 1.682-4.468-1.682 1.466-1.682-1.466Z"/><g fill="none" stroke="#000" stroke-miterlimit="10" stroke-width=".3985"><path d="m28.584 79.737 1.682-4.468-1.682 1.466-1.682-1.466ZM14.977 153.723h90.71v-18.426h-90.71ZM37.654 153.723v-18.426M60.332 153.723v-18.426M83.01 153.723v-18.426"/></g><use xlink:href="#a" x="-57.045895" y="-17.498023" transform="translate(80.412 165.853)scale(1.0004)"/><use xlink:href="#b" x="-57.045895" y="-17.498023" transform="translate(103.09 165.853)scale(1.0004)"/><use xlink:href="#c" x="-57.045895" y="-17.498023" transform="translate(125.767 165.853)scale(1.0004)"/><use xlink:href="#d" x="-57.045895" y="-17.498023" transform="translate(148.445 165.853)scale(1.0004)"/><g fill="none" stroke="#000" stroke-miterlimit="10" stroke-width=".3985"><path d="M110.222 153.723h90.71v-18.426h-90.71ZM132.9 153.723v-18.426M155.577 153.723v-18.426M178.255 153.723v-18.426"/></g><use xlink:href="#f" x="-57.045895" y="-17.498023" transform="translate(198.335 165.853)scale(1.0004)"/><use xlink:href="#g" x="-57.045895" y="-17.498023" transform="translate(221.012 165.853)scale(1.0004)"/><use xlink:href="#h" x="-57.045895" y="-17.498023" transform="translate(243.69 165.853)scale(1.0004)"/><g transform="translate(72.347 144.973)scale(1.00008)"><use xlink:href="#k" x="-57.027704" y="-17.492443"/><use xlink:href="#p" x="-50.961744" y="-17.492443"/><use xlink:href="#j" x="-41.884625" y="-17.492443"/><use xlink:href="#k" x="-38.851645" y="-17.492443"/><use xlink:href="#l" x="-33.080253" y="-17.492443"/><use xlink:href="#m" x="-27.625252" y="-17.492443"/><use xlink:href="#n" x="-22.781211" y="-17.492443"/><use xlink:href="#o" x="-18.50449" y="-17.492443"/><use xlink:href="#j" x="-14.205951" y="-17.492443"/><use xlink:href="#p" x="-11.172971" y="-17.492443"/><use xlink:href="#k" x="-5.717971" y="-17.492443"/><use xlink:href="#o" x=".34799" y="-17.492443"/></g><g fill="none" stroke="#000" stroke-miterlimit="10" stroke-width=".3985"><path d="M17.245 197.944h181.42v-18.426H17.244ZM39.922 197.944v-18.426M62.6 197.944v-18.426M85.277 197.944v-18.426M107.955 197.944v-18.426M130.632 197.944v-18.426M153.31 197.944v-18.426M175.987 197.944v-18.426"/></g><use xlink:href="#q" x="-57.045895" y="-17.498023" transform="translate(82.678 210.197)scale(1.0004)"/><use xlink:href="#r" x="-57.045895" y="-17.498023" transform="translate(105.355 210.197)scale(1.0004)"/><path fill="none" stroke="#000" stroke-miterlimit="10" stroke-width=".3985" d="M26.316 153.723c0 22.677 24.945 3.118 24.945 22.126"/><path d="m51.261 178.95 1.682-4.467-1.682 1.466-1.682-1.466Z"/><path fill="none" stroke="#000" stroke-miterlimit="10" stroke-width=".3985" d="m51.261 178.95 1.682-4.467-1.682 1.466-1.682-1.466Z"/></svg>