<svg xmlns="http://www.w3.org/2000/svg" xmlns:xlink="http://www.w3.org/1999/xlink" width="423.71pt" height="173.31pt" viewBox="0 0 423.71 173.31"><defs><path id="b" d="M4.808 1.555c.203 0 .419 0 .419-.24 0-.035 0-.06-.048-.19a7 7 0 0 1-.287-1.962h.598C5.526.215 6.83.263 7.044.263c1.46 0 1.603-1.913 1.603-2.69 0-1.4-.813-2.357-2.165-3.553-.909-.813-1.315-1.83-1.614-2.56-.024-.095-.12-.155-.216-.155-.167 0-.215.132-.239.203-.215.55-.67 1.687-1.578 2.488C1.435-4.76.658-3.79.658-2.428.658-1.53.849.263 2.26.263c.371 0 1.52-.12 1.555-1.1h.598a7.3 7.3 0 0 1-.299 2.01c-.036.095-.036.119-.036.143 0 .239.216.239.419.239z"/><path id="a" d="M5.262-2.404c0-1.423-.956-2.607-2.212-2.607-.682 0-1.208.299-1.52.634v-2.476c.515.167.934.18 1.065.18 1.352 0 2.213-.993 2.213-1.16 0-.049-.024-.108-.096-.108 0 0-.048 0-.155.047a3.9 3.9 0 0 1-1.555.323c-.79 0-1.352-.239-1.579-.335-.083-.035-.12-.035-.12-.035-.095 0-.095.071-.095.263v3.552c0 .215 0 .287.143.287.06 0 .072-.012.192-.156.335-.49.897-.777 1.495-.777.634 0 .945.586 1.04.79.204.466.216 1.052.216 1.506s0 1.136-.335 1.675c-.263.43-.73.73-1.256.73-.79 0-1.567-.539-1.782-1.412.06.024.131.036.191.036.204 0 .527-.12.527-.526 0-.335-.228-.527-.527-.527-.215 0-.526.108-.526.574 0 1.017.813 2.177 2.14 2.177 1.352 0 2.536-1.136 2.536-2.655"/><path id="d" d="M5.358-3.935c0-3.217-1.34-4.018-2.392-4.018C1.65-7.953.49-6.853.49-5.274S1.603-2.62 2.8-2.62c.885 0 1.34-.646 1.578-1.256v.395c0 2.822-1.255 3.408-1.973 3.408-.287 0-.921-.036-1.22-.454h.072c.084.024.514-.048.514-.49 0-.264-.18-.491-.49-.491s-.503.203-.503.514c0 .742.598 1.244 1.639 1.244 1.495 0 2.942-1.59 2.942-4.186M4.353-5.01c0 1.004-.454 2.153-1.507 2.153-.753 0-1.076-.61-1.184-.838-.19-.454-.19-1.028-.19-1.566 0-.67 0-1.244.31-1.735.215-.323.538-.67 1.184-.67.682 0 1.029.599 1.148.874.24.586.24 1.602.24 1.782"/><path id="c" d="M5.358-2.045c0-1.1-.885-1.962-2.033-2.165 1.04-.299 1.71-1.172 1.71-2.105 0-.945-.98-1.638-2.14-1.638-1.197 0-2.082.73-2.082 1.602 0 .479.371.574.55.574.252 0 .539-.18.539-.538 0-.383-.287-.55-.55-.55-.072 0-.096 0-.132.012.454-.813 1.579-.813 1.638-.813.395 0 1.173.179 1.173 1.351 0 .227-.036.897-.383 1.411-.359.527-.766.563-1.089.574l-.358.036c-.204.012-.252.024-.252.132 0 .12.06.12.276.12h.55c1.016 0 1.47.837 1.47 1.985 0 1.567-.812 1.985-1.399 1.985-.574 0-1.554-.275-1.901-1.064.383.06.73-.156.73-.586a.565.565 0 0 0-.587-.586c-.287 0-.598.167-.598.622C.49-.622 1.555.25 2.882.25c1.424 0 2.476-1.088 2.476-2.296"/><path id="e" d="M5.262-2.01H5c-.036.204-.131.862-.25 1.053-.085.108-.766.108-1.125.108H1.41c.323-.275 1.053-1.04 1.364-1.328 1.818-1.674 2.487-2.296 2.487-3.48 0-1.375-1.088-2.296-2.475-2.296S.586-6.77.586-5.741c0 .61.526.61.562.61.251 0 .562-.18.562-.562 0-.335-.227-.562-.562-.562-.107 0-.131 0-.167.012.227-.813.873-1.364 1.65-1.364 1.017 0 1.639.85 1.639 1.95 0 1.017-.586 1.902-1.268 2.667L.586-.287V0h4.365z"/></defs><path fill="#fff" d="M15.323 51.221H43.67V11.535H15.323Z"/><path fill="none" stroke="#000" stroke-miterlimit="10" stroke-width=".3985" d="M15.323 51.221H43.67V11.535H15.323Z"/><g transform="translate(72 44.654)scale(1.0004)"><use xlink:href="#a" x="-52.540086" y="-20.785342"/><use xlink:href="#b" x="-54.260781" y="-6.333542"/></g><path fill="#fff" d="M20.992 66.812H49.34V27.126H20.992Z"/><path fill="none" stroke="#000" stroke-miterlimit="10" stroke-width=".3985" d="M20.992 66.812H49.34V27.126H20.992Z"/><g transform="translate(77.669 60.251)scale(1.0004)"><use xlink:href="#c" x="-52.540086" y="-20.785342"/><use xlink:href="#b" x="-54.260781" y="-6.333542"/></g><path fill="#fff" d="M60.678 51.221h28.347V11.535H60.678Z"/><path fill="none" stroke="#000" stroke-miterlimit="10" stroke-width=".3985" d="M60.678 51.221h28.347V11.535H60.678Z"/><g transform="translate(117.355 44.66)scale(1.0004)"><use xlink:href="#d" x="-52.540086" y="-20.785342"/><use xlink:href="#b" x="-54.260781" y="-6.333542"/></g><path fill="#fff" d="M66.347 66.812h28.347V27.126H66.347Z"/><path fill="none" stroke="#9f9f9f" stroke-miterlimit="10" stroke-width=".3985" d="M66.347 66.812h28.347V27.126H66.347Z"/><g fill="#9f9f9f" transform="translate(123.024 60.251)scale(1.0004)"><use xlink:href="#e" x="-52.540086" y="-20.785342"/><use xlink:href="#b" x="-54.260781" y="-6.333542"/></g><path fill="none" stroke="#000" stroke-miterlimit="10" stroke-width=".3985" d="M80.52 68.23c0 43.937-28.346 8.503-28.346 48.063"/><path d="m52.174 119.395 1.682-4.468-1.682 1.466-1.682-1.466Z"/><path fill="none" stroke="#000" stroke-miterlimit="10" stroke-width=".3985" d="m52.174 119.395 1.682-4.468-1.682 1.466-1.682-1.466Z"/><path fill="#fff" d="M38 161.774h28.347v-39.686H38Z"/><path fill="none" stroke="#000" stroke-miterlimit="10" stroke-width=".3985" d="M38 161.774h28.347v-39.686H38Z"/><g transform="translate(94.677 155.213)scale(1.0004)"><use xlink:href="#e" x="-52.540086" y="-20.785342"/><use xlink:href="#b" x="-54.260781" y="-6.333542"/></g><path fill="#fff" d="M123.04 51.221h28.348V11.535H123.04Z"/><path fill="none" stroke="#000" stroke-miterlimit="10" stroke-width=".3985" d="M123.04 51.221h28.348V11.535H123.04Z"/><g transform="translate(179.718 44.654)scale(1.0004)"><use xlink:href="#a" x="-52.540086" y="-20.785342"/><use xlink:href="#b" x="-54.260781" y="-6.333542"/></g><path fill="#fff" d="M128.71 66.812h28.347V27.126H128.71Z"/><path fill="none" stroke="#9f9f9f" stroke-miterlimit="10" stroke-width=".3985" d="M128.71 66.812h28.347V27.126H128.71Z"/><g fill="#9f9f9f" transform="translate(185.387 60.251)scale(1.0004)"><use xlink:href="#c" x="-52.540086" y="-20.785342"/><use xlink:href="#b" x="-54.260781" y="-6.333542"/></g><path fill="#fff" d="M168.396 51.221h28.347V11.535h-28.347Z"/><path fill="none" stroke="#000" stroke-miterlimit="10" stroke-width=".3985" d="M168.396 51.221h28.347V11.535h-28.347Z"/><g transform="translate(225.073 44.66)scale(1.0004)"><use xlink:href="#d" x="-52.540086" y="-20.785342"/><use xlink:href="#b" x="-54.260781" y="-6.333542"/></g><path fill="none" stroke="#000" stroke-miterlimit="10" stroke-width=".3985" d="M142.884 68.23c0 26.929 17.008 9.92 17.008 32.472"/><path d="m159.892 103.804 1.682-4.468-1.682 1.466-1.682-1.466Z"/><path fill="none" stroke="#000" stroke-miterlimit="10" stroke-width=".3985" d="m159.892 103.804 1.682-4.468-1.682 1.466-1.682-1.466Z"/><path fill="#fff" d="M145.718 146.183h28.347v-39.686h-28.347Z"/><path fill="none" stroke="#000" stroke-miterlimit="10" stroke-width=".3985" d="M145.718 146.183h28.347v-39.686h-28.347Z"/><g transform="translate(202.395 139.622)scale(1.0004)"><use xlink:href="#c" x="-52.540086" y="-20.785342"/><use xlink:href="#b" x="-54.260781" y="-6.333542"/></g><path fill="#fff" d="M151.388 161.774h28.347v-39.686h-28.347Z"/><path fill="none" stroke="#000" stroke-miterlimit="10" stroke-width=".3985" d="M151.388 161.774h28.347v-39.686h-28.347Z"/><g transform="translate(208.065 155.213)scale(1.0004)"><use xlink:href="#e" x="-52.540086" y="-20.785342"/><use xlink:href="#b" x="-54.260781" y="-6.333542"/></g><path fill="#fff" d="M230.759 51.221h28.347V11.535h-28.347Z"/><path fill="none" stroke="#9f9f9f" stroke-miterlimit="10" stroke-width=".3985" d="M230.759 51.221h28.347V11.535h-28.347Z"/><g fill="#9f9f9f" transform="translate(287.436 44.654)scale(1.0004)"><use xlink:href="#a" x="-52.540086" y="-20.785342"/><use xlink:href="#b" x="-54.260781" y="-6.333542"/></g><path fill="#fff" d="M276.114 51.221h28.347V11.535h-28.347Z"/><path fill="none" stroke="#000" stroke-miterlimit="10" stroke-width=".3985" d="M276.114 51.221h28.347V11.535h-28.347Z"/><g transform="translate(332.791 44.66)scale(1.0004)"><use xlink:href="#d" x="-52.540086" y="-20.785342"/><use xlink:href="#b" x="-54.260781" y="-6.333542"/></g><path fill="none" stroke="#000" stroke-miterlimit="10" stroke-width=".3985" d="M244.932 52.638c0 26.93 22.678 9.922 22.678 32.473"/><path d="m267.61 88.213 1.682-4.468-1.682 1.466-1.682-1.466Z"/><path fill="none" stroke="#000" stroke-miterlimit="10" stroke-width=".3985" d="m267.61 88.213 1.682-4.468-1.682 1.466-1.682-1.466Z"/><path fill="#fff" d="M253.436 130.592h28.347V90.907h-28.347Z"/><path fill="none" stroke="#000" stroke-miterlimit="10" stroke-width=".3985" d="M253.436 130.592h28.347V90.907h-28.347Z"/><g transform="translate(310.113 124.025)scale(1.0004)"><use xlink:href="#a" x="-52.540086" y="-20.785342"/><use xlink:href="#b" x="-54.260781" y="-6.333542"/></g><path fill="#fff" d="M259.106 146.183h28.346v-39.686h-28.346Z"/><path fill="none" stroke="#000" stroke-miterlimit="10" stroke-width=".3985" d="M259.106 146.183h28.346v-39.686h-28.346Z"/><g transform="translate(315.783 139.622)scale(1.0004)"><use xlink:href="#c" x="-52.540086" y="-20.785342"/><use xlink:href="#b" x="-54.260781" y="-6.333542"/></g><path fill="#fff" d="M264.775 161.774h28.347v-39.686h-28.347Z"/><path fill="none" stroke="#000" stroke-miterlimit="10" stroke-width=".3985" d="M264.775 161.774h28.347v-39.686h-28.347Z"/><g transform="translate(321.452 155.213)scale(1.0004)"><use xlink:href="#e" x="-52.540086" y="-20.785342"/><use xlink:href="#b" x="-54.260781" y="-6.333542"/></g><path fill="#fff" d="M383.832 51.221h28.346V11.535h-28.346Z"/><path fill="none" stroke="#9f9f9f" stroke-miterlimit="10" stroke-width=".3985" d="M383.832 51.221h28.346V11.535h-28.346Z"/><g fill="#9f9f9f" transform="translate(440.509 44.66)scale(1.0004)"><use xlink:href="#d" x="-52.540086" y="-20.785342"/><use xlink:href="#b" x="-54.260781" y="-6.333542"/></g><path fill="none" stroke="#000" stroke-miterlimit="10" stroke-width=".3985" d="M398.005 52.638c0 15.591-22.677 5.67-22.677 16.883"/><path d="m375.328 72.622 1.682-4.467-1.682 1.465-1.682-1.465Z"/><path fill="none" stroke="#000" stroke-miterlimit="10" stroke-width=".3985" d="m375.328 72.622 1.682-4.467-1.682 1.465-1.682-1.465Z"/><path fill="#fff" d="M361.154 115.001h28.347V75.316h-28.347Z"/><path fill="none" stroke="#000" stroke-miterlimit="10" stroke-width=".3985" d="M361.154 115.001h28.347V75.316h-28.347Z"/><g transform="translate(417.831 108.441)scale(1.0004)"><use xlink:href="#d" x="-52.540086" y="-20.785342"/><use xlink:href="#b" x="-54.260781" y="-6.333542"/></g><path fill="#fff" d="M366.824 130.592h28.346V90.907h-28.346Z"/><path fill="none" stroke="#000" stroke-miterlimit="10" stroke-width=".3985" d="M366.824 130.592h28.346V90.907h-28.346Z"/><g transform="translate(423.501 124.025)scale(1.0004)"><use xlink:href="#a" x="-52.540086" y="-20.785342"/><use xlink:href="#b" x="-54.260781" y="-6.333542"/></g><path fill="#fff" d="M372.493 146.183h28.347v-39.686h-28.347Z"/><path fill="none" stroke="#000" stroke-miterlimit="10" stroke-width=".3985" d="M372.493 146.183h28.347v-39.686h-28.347Z"/><g transform="translate(429.17 139.622)scale(1.0004)"><use xlink:href="#c" x="-52.540086" y="-20.785342"/><use xlink:href="#b" x="-54.260781" y="-6.333542"/></g><path fill="#fff" d="M378.162 161.774h28.347v-39.686h-28.347Z"/><path fill="none" stroke="#000" stroke-miterlimit="10" stroke-width=".3985" d="M378.162 161.774h28.347v-39.686h-28.347Z"/><g transform="translate(434.839 155.213)scale(1.0004)"><use xlink:href="#e" x="-52.540086" y="-20.785342"/><use xlink:href="#b" x="-54.260781" y="-6.333542"/></g></svg>