<svg xmlns="http://www.w3.org/2000/svg" xmlns:xlink="http://www.w3.org/1999/xlink" width="433.8pt" height="252.34pt" viewBox="0 0 433.8 252.34"><defs><path id="aj" d="M5.571-1.81c.128 0 .303 0 .303-.182s-.175-.184-.303-.184H1.004c-.127 0-.303 0-.303.184s.176.183.303.183z"/><path id="aa" d="M4.528-1.298c0-.11-.088-.131-.142-.131-.098 0-.12.065-.142.153C3.862-.153 2.88-.153 2.771-.153c-.545 0-.982-.327-1.233-.73-.327-.524-.327-1.244-.327-1.637h3.044c.24 0 .273 0 .273-.23 0-1.08-.59-2.138-1.953-2.138-1.266 0-2.27 1.124-2.27 2.488 0 1.462 1.146 2.52 2.4 2.52 1.332 0 1.823-1.211 1.823-1.418m-.72-1.451H1.222c.065-1.626.982-1.899 1.353-1.899 1.123 0 1.233 1.473 1.233 1.899"/><path id="Z" d="M5.837 0v-.338c-.567 0-.84 0-.851-.328v-2.083c0-.939 0-1.277-.338-1.67-.153-.185-.513-.403-1.146-.403-.916 0-1.396.654-1.57 1.047H1.92v-3.797l-1.57.12v.339c.763 0 .85.076.85.61v5.674c0 .49-.12.49-.85.49V0l1.232-.033L2.804 0v-.338c-.731 0-.851 0-.851-.491v-2.008c0-1.134.775-1.745 1.473-1.745.687 0 .807.589.807 1.21v2.543c0 .49-.12.49-.85.49V0l1.232-.033z"/><path id="ac" d="M3.633 0v-.338h-.284c-.862 0-.894-.12-.894-.513v-5.75c0-.392.032-.512.894-.512h.284v-.339c-.382.033-1.244.033-1.658.033-.426 0-1.288 0-1.67-.033v.339H.59c.862 0 .895.12.895.512v5.75c0 .393-.033.513-.895.513H.305V0C.687-.033 1.55-.033 1.964-.033c.425 0 1.287 0 1.669.033"/><path id="ah" d="M2.695 0v-.338c-.72 0-.764-.055-.764-.48v-4.004l-1.527.12v.338c.709 0 .807.065.807.6v2.935c0 .49-.12.49-.851.49V0l1.2-.033c.382 0 .764.022 1.135.033m-.6-6.59a.583.583 0 0 0-1.167 0 .583.583 0 0 0 1.167 0"/><path id="ab" d="M2.782 0v-.338c-.73 0-.85 0-.85-.491v-6.743l-1.572.12v.339c.764 0 .851.076.851.61v5.674c0 .49-.12.49-.851.49V0l1.211-.033z"/><path id="ad" d="M5.837 0v-.338c-.567 0-.84 0-.851-.328v-2.083c0-.939 0-1.277-.338-1.67-.153-.185-.513-.403-1.146-.403-.796 0-1.31.469-1.615 1.145v-1.145l-1.538.12v.338c.764 0 .851.076.851.611v2.924c0 .49-.12.49-.85.49V0l1.232-.033L2.804 0v-.338c-.731 0-.851 0-.851-.491v-2.008c0-1.134.775-1.745 1.473-1.745.687 0 .807.589.807 1.21v2.543c0 .49-.12.49-.85.49V0l1.232-.033z"/><path id="ai" d="M5.139-2.335c0-1.396-1.091-2.553-2.411-2.553-1.364 0-2.423 1.19-2.423 2.553A2.435 2.435 0 0 0 2.717.12a2.43 2.43 0 0 0 2.422-2.455m-.906-.087c0 .393 0 .982-.24 1.462-.24.49-.72.807-1.265.807-.47 0-.95-.229-1.244-.73-.273-.48-.273-1.146-.273-1.539 0-.426 0-1.015.262-1.495a1.46 1.46 0 0 1 1.244-.73c.48 0 .949.24 1.232.708s.284 1.102.284 1.517"/><path id="af" d="M3.971-4.157c0-.349-.338-.665-.807-.665-.797 0-1.19.73-1.342 1.2v-1.2l-1.517.12v.338c.764 0 .851.076.851.611v2.924c0 .49-.12.49-.85.49V0l1.243-.033c.437 0 .95 0 1.386.033v-.338h-.23c-.807 0-.828-.12-.828-.513v-1.68c0-1.08.458-2.051 1.287-2.051.076 0 .098 0 .12.01a.47.47 0 0 0-.251.426c0 .306.23.47.47.47.195 0 .468-.132.468-.48"/><path id="Y" d="M5.444-2.03c0-1.09-.72-1.985-1.636-2.203L2.41-4.571A1.425 1.425 0 0 1 1.31-5.957c0-.764.59-1.43 1.44-1.43 1.822 0 2.062 1.79 2.128 2.281.01.066.01.131.13.131.143 0 .143-.055.143-.262V-7.43c0-.185 0-.262-.12-.262-.077 0-.088.011-.164.142l-.382.622c-.327-.316-.775-.764-1.746-.764a2.115 2.115 0 0 0-.698 4.113c.12.044.677.175 1.44.36.295.077.622.153.928.557.229.284.338.644.338 1.004 0 .774-.546 1.56-1.462 1.56-.316 0-1.146-.055-1.724-.59-.633-.588-.665-1.287-.676-1.68-.011-.109-.098-.109-.131-.109-.142 0-.142.077-.142.273v2.182c0 .186 0 .262.12.262C.807.24.818.218.895.098c0 0 .032-.043.392-.622.339.371 1.037.764 2.008.764 1.276 0 2.15-1.07 2.15-2.27"/><path id="ae" d="M3.928-1.396c0-.579-.328-.906-.459-1.037-.36-.35-.785-.436-1.243-.524-.611-.12-1.342-.261-1.342-.894 0-.382.283-.83 1.222-.83 1.2 0 1.254.983 1.276 1.32.011.099.131.099.131.099.142 0 .142-.055.142-.262v-1.102c0-.185 0-.262-.12-.262-.055 0-.077 0-.218.131a1.4 1.4 0 0 1-.186.175c-.414-.306-.862-.306-1.025-.306C.775-4.888.36-4.157.36-3.546c0 .382.175.688.47.928.348.283.654.349 1.44.501.24.044 1.134.219 1.134 1.004 0 .557-.382.993-1.233.993-.916 0-1.31-.622-1.516-1.55C.622-1.81.61-1.854.502-1.854c-.142 0-.142.077-.142.273v1.44C.36.044.36.12.48.12.535.12.546.11.753-.098.775-.12.775-.142.97-.35c.48.458.971.469 1.2.469 1.255 0 1.757-.731 1.757-1.516"/><path id="ag" d="M3.622-1.353v-.622H3.35v.6c0 .808-.327 1.222-.73 1.222-.732 0-.732-.993-.732-1.178v-3.033h1.56v-.338h-1.56V-6.71h-.272c-.011.895-.339 2.062-1.408 2.106v.24h.928v3.011C1.135-.01 2.149.12 2.542.12c.775 0 1.08-.775 1.08-1.473"/><path id="ap" d="M1.722-.263c.3.275.742.383 1.148.383.766 0 1.292-.515 1.567-.885.12.633.622.885 1.04.885q.54 0 .862-.646c.191-.407.359-1.136.359-1.184 0-.06-.048-.108-.12-.108-.108 0-.12.06-.167.24-.18.705-.407 1.458-.897 1.458-.347 0-.371-.31-.371-.55 0-.275.107-.705.191-1.064l.335-1.292c.048-.227.18-.765.24-.98.071-.288.203-.802.203-.85 0-.18-.144-.299-.323-.299-.108 0-.36.048-.455.407l-.837 3.325c-.06.239-.06.263-.215.454-.144.204-.61.85-1.364.85-.67 0-.885-.491-.885-1.053 0-.347.108-.766.156-.969l.538-2.153c.06-.227.155-.61.155-.681 0-.192-.155-.3-.31-.3-.108 0-.371.037-.467.42L.371 2.068c-.012.06-.036.132-.036.203 0 .18.143.3.323.3.347 0 .418-.276.502-.61z"/><path id="B" d="M2.464-3.504c.024-.072.323-.67.765-1.053a1.74 1.74 0 0 1 1.184-.478c.479 0 .646.359.646.837 0 .682-.49 2.045-.73 2.691-.107.287-.167.443-.167.658 0 .538.37.969.945.969 1.112 0 1.53-1.759 1.53-1.83 0-.06-.047-.108-.119-.108-.107 0-.12.036-.18.24C6.065-.599 5.61-.12 5.144-.12c-.12 0-.311-.012-.311-.394 0-.3.131-.658.203-.826.24-.657.742-1.997.742-2.679 0-.717-.419-1.255-1.328-1.255-1.064 0-1.626.753-1.842 1.052-.036-.682-.526-1.052-1.052-1.052-.383 0-.646.227-.85.634C.49-4.21.324-3.492.324-3.444s.048.107.131.107c.096 0 .108-.012.18-.287.191-.73.407-1.411.885-1.411.275 0 .37.191.37.55 0 .263-.119.73-.203 1.1l-.335 1.292c-.047.227-.179.765-.239.98C1.03-.8.897-.238.897-.178c0 .167.132.299.311.299a.46.46 0 0 0 .407-.252c.024-.06.131-.478.191-.717l.263-1.077z"/><path id="H" d="M2.404-4.808h1.1c.228 0 .347 0 .347-.215 0-.132-.072-.132-.31-.132H2.487L2.93-6.9c.048-.167.048-.191.048-.275 0-.191-.155-.299-.31-.299-.097 0-.372.036-.467.419l-.467 1.901H.61c-.24 0-.347 0-.347.227 0 .12.084.12.311.12H1.64L.849-1.65c-.096.418-.131.538-.131.693C.718-.395 1.112.12 1.782.12c1.208 0 1.854-1.747 1.854-1.83 0-.072-.048-.108-.12-.108-.024 0-.072 0-.095.048-.012.012-.024.024-.108.215C3.062-.957 2.512-.12 1.818-.12c-.359 0-.383-.299-.383-.562 0-.012 0-.239.036-.382z"/><path id="an" d="M2.095-2.727c0-.317-.262-.579-.579-.579s-.578.262-.578.579.262.578.578.578.579-.262.579-.578"/><path id="u" d="M5.669-1.064v-.67h-.263v.67c0 .681-.287.777-.455.777-.454 0-.454-.634-.454-.813v-2.093c0-.646 0-1.125-.526-1.591-.419-.383-.957-.55-1.483-.55-.981 0-1.735.646-1.735 1.423 0 .347.228.514.503.514.287 0 .49-.203.49-.49 0-.49-.43-.49-.61-.49.275-.503.85-.718 1.328-.718.55 0 1.256.455 1.256 1.53v.48C1.316-3.05.407-2.046.407-1.126c0 .946 1.1 1.245 1.83 1.245A1.63 1.63 0 0 0 3.79-.933c.048.562.419.993.933.993.251 0 .945-.168.945-1.124m-1.95-.622C3.72-.514 2.847-.12 2.333-.12c-.586 0-1.076-.43-1.076-1.004 0-1.579 2.033-1.722 2.464-1.746z"/><path id="U" d="M7.63-2.189c0-.968-.873-1.925-2.296-2.08 1.136-.216 1.962-.981 1.962-1.878 0-1.029-1.04-2.022-2.608-2.022H.514v.347h.24c.86 0 .896.12.896.562v6.351c0 .443-.035.562-.897.562H.514V0h4.497c1.543 0 2.62-1.04 2.62-2.189M6.243-6.147c0 .789-.622 1.782-1.95 1.782H2.56v-2.978c0-.395.024-.479.55-.479h1.508c1.196 0 1.626 1.029 1.626 1.675m.3 3.946c0 .97-.73 1.854-1.903 1.854H3.11c-.527 0-.55-.084-.55-.478v-3.301h2.236c1.148 0 1.746 1.004 1.746 1.925"/><path id="W" d="M4.856-1.423c0-.108-.084-.108-.12-.108-.107 0-.12.036-.155.18-.263.849-.91 1.207-1.555 1.207-.73 0-1.698-.633-1.698-2.451 0-1.986 1.016-2.476 1.614-2.476.455 0 1.112.18 1.388.646-.144 0-.587 0-.587.49 0 .287.204.49.49.49.276 0 .503-.167.503-.514 0-.801-.837-1.375-1.806-1.375C1.53-5.334.42-4.09.42-2.584.419-1.051 1.567.12 2.919.12c1.578 0 1.937-1.436 1.937-1.543"/><path id="E" d="M6.16 0v-.347c-.814 0-.91-.084-.91-.67V-8.3l-1.662.131v.347c.813 0 .909.084.909.67v2.643a1.86 1.86 0 0 0-1.495-.765C1.615-5.274.419-4.102.419-2.571c0 1.519 1.136 2.69 2.451 2.69.91 0 1.436-.597 1.603-.825V.12zM4.472-1.4c0 .216 0 .252-.167.515-.287.419-.778.765-1.376.765-.31 0-1.602-.12-1.602-2.44 0-.86.143-1.339.406-1.734.24-.37.718-.741 1.316-.741.741 0 1.16.538 1.28.73.143.203.143.227.143.442z"/><path id="A" d="M4.868-1.423c0-.072-.06-.12-.132-.12-.096 0-.12.06-.143.12C4.282-.42 3.48-.143 2.978-.143s-1.71-.335-1.71-2.404v-.228H4.58c.263 0 .287 0 .287-.227 0-1.208-.646-2.332-2.093-2.332C1.41-5.334.359-4.102.359-2.62.359-1.041 1.579.12 2.906.12c1.424 0 1.962-1.292 1.962-1.543m-.742-1.579H1.28c.095-1.878 1.148-2.093 1.483-2.093 1.28 0 1.351 1.686 1.363 2.093"/><path id="N" d="M6.231 0v-.347c-.598 0-.897 0-.909-.359v-2.2c0-1.113 0-1.447-.275-1.83-.347-.467-.909-.538-1.315-.538-1.029 0-1.507.777-1.675 1.148h-.012V-8.3L.383-8.17v.347c.813 0 .909.084.909.67v6.267c0 .538-.132.538-.91.538V0c.312-.024.958-.024 1.292-.024.347 0 .993 0 1.304.024v-.347c-.765 0-.909 0-.909-.538V-3.11c0-1.255.825-1.925 1.567-1.925s.909.61.909 1.34v2.81c0 .538-.132.538-.91.538V0c.312-.024.958-.024 1.293-.024.346 0 .992 0 1.303.024"/><path id="V" d="M3.241-2.26v-.646H.131v.646z"/><path id="R" d="M3.791 0v-.347h-.263c-.897 0-.933-.12-.933-.562v-6.35c0-.443.036-.563.933-.563h.263v-.347c-.287.024-1.315.024-1.674.024s-1.4 0-1.686-.024v.347h.263c.897 0 .933.12.933.562v6.351c0 .443-.036.562-.933.562H.43V0c.287-.024 1.315-.024 1.674-.024s1.4 0 1.686.024"/><path id="y" d="M2.882 0v-.347c-.777 0-.825-.06-.825-.526v-4.401l-1.626.131v.347c.765 0 .873.072.873.658v3.253c0 .538-.132.538-.91.538V0c.336-.024.91-.024 1.256-.024.132 0 .826 0 1.232.024m-.67-7.224a.58.58 0 1 0-.586.574.576.576 0 0 0 .587-.574"/><path id="C" d="M2.966 0v-.347c-.765 0-.909 0-.909-.538V-8.3L.395-8.17v.347c.813 0 .909.084.909.67v6.267c0 .538-.132.538-.91.538V0c.336-.024.922-.024 1.28-.024s.957 0 1.292.024"/><path id="G" d="M9.484 0v-.347c-.598 0-.897 0-.909-.359v-2.2c0-1.113 0-1.447-.275-1.83-.347-.467-.909-.538-1.315-.538-.993 0-1.495.717-1.687 1.184-.167-.921-.813-1.184-1.566-1.184-1.16 0-1.615.992-1.71 1.232h-.013v-1.232l-1.626.131v.347c.813 0 .909.084.909.67v3.241c0 .538-.132.538-.91.538V0c.312-.024.958-.024 1.292-.024.347 0 .993 0 1.304.024v-.347c-.765 0-.909 0-.909-.538V-3.11c0-1.255.825-1.925 1.567-1.925s.909.61.909 1.34v2.81c0 .538-.132.538-.91.538V0c.312-.024.958-.024 1.293-.024.346 0 .992 0 1.303.024v-.347c-.765 0-.909 0-.909-.538V-3.11c0-1.255.825-1.925 1.567-1.925s.909.61.909 1.34v2.81c0 .538-.132.538-.909.538V0c.31-.024.957-.024 1.292-.024.346 0 .992 0 1.303.024"/><path id="S" d="M6.231 0v-.347c-.598 0-.897 0-.909-.359v-2.2c0-1.113 0-1.447-.275-1.83-.347-.467-.909-.538-1.315-.538-1.16 0-1.615.992-1.71 1.232h-.013v-1.232l-1.626.131v.347c.813 0 .909.084.909.67v3.241c0 .538-.132.538-.91.538V0c.312-.024.958-.024 1.292-.024.347 0 .993 0 1.304.024v-.347c-.765 0-.909 0-.909-.538V-3.11c0-1.255.825-1.925 1.567-1.925s.909.61.909 1.34v2.81c0 .538-.132.538-.91.538V0c.312-.024.958-.024 1.293-.024.346 0 .992 0 1.303.024"/><path id="O" d="M5.49-2.56c0-1.542-1.172-2.774-2.56-2.774C1.495-5.334.36-4.066.36-2.56.359-1.03 1.555.12 2.919.12c1.41 0 2.57-1.172 2.57-2.68m-.91-.107c0 .419 0 1.16-.31 1.722a1.56 1.56 0 0 1-1.34.801c-.442 0-.98-.19-1.327-.777-.323-.538-.335-1.244-.335-1.746 0-.455 0-1.184.37-1.722a1.53 1.53 0 0 1 1.28-.706c.467 0 .969.215 1.292.682.37.55.37 1.303.37 1.746"/><path id="D" d="M6.076-2.583c0-1.52-1.125-2.691-2.428-2.691-1.053 0-1.615.753-1.65.801v-.801l-1.663.131v.347c.837 0 .909.084.909.61v5.621c0 .538-.132.538-.91.538v.347c.312-.024.958-.024 1.293-.024.346 0 .992 0 1.303.024v-.347c-.765 0-.909 0-.909-.538v-2.08c.216.298.706.765 1.471.765 1.376 0 2.584-1.16 2.584-2.703m-.91 0c0 1.423-.813 2.463-1.733 2.463a1.4 1.4 0 0 1-.957-.382c-.275-.275-.455-.515-.455-.85v-2.463c0-.227 0-.24.132-.43a1.72 1.72 0 0 1 1.4-.766c.896 0 1.614 1.088 1.614 2.428"/><path id="T" d="M3.887 2.906c0-.036 0-.06-.203-.263C2.488 1.435 1.818-.538 1.818-2.978c0-2.32.562-4.318 1.95-5.729.119-.108.119-.131.119-.167 0-.072-.06-.096-.108-.096-.155 0-1.136.861-1.722 2.033-.61 1.208-.885 2.488-.885 3.959 0 1.064.168 2.488.79 3.767.705 1.436 1.686 2.213 1.817 2.213.048 0 .108-.024.108-.096"/><path id="X" d="M3.373-2.978c0-.909-.12-2.392-.79-3.78C1.878-8.192.897-8.97.765-8.97c-.047 0-.107.024-.107.096 0 .036 0 .06.203.263C2.057-7.403 2.727-5.43 2.727-2.99c0 2.32-.562 4.318-1.95 5.729-.12.107-.12.131-.12.167 0 .072.06.096.108.096.156 0 1.137-.861 1.723-2.033.61-1.22.885-2.512.885-3.947"/><path id="Q" d="M2.2-.586a.58.58 0 0 0-.573-.574.577.577 0 0 0-.586.574.58.58 0 1 0 1.16 0"/><path id="v" d="M4.222-4.58c0-.36-.323-.694-.837-.694-1.017 0-1.364 1.1-1.436 1.327h-.011v-1.327l-1.603.131v.347c.813 0 .909.084.909.67v3.241c0 .538-.132.538-.91.538V0c.336-.024.994-.024 1.352-.024.323 0 1.172 0 1.448.024v-.347h-.24c-.873 0-.897-.131-.897-.562v-1.878c0-1.16.479-2.248 1.4-2.248.095 0 .12 0 .167.012-.096.048-.287.12-.287.442a.46.46 0 0 0 .466.479c.24 0 .479-.156.479-.479"/><path id="M" d="M5.848-2.2c0-.73-.275-1.268-.598-1.663-.442-.538-.98-.67-1.447-.79l-1.315-.334c-.61-.156-1.148-.754-1.148-1.52 0-.836.67-1.59 1.602-1.59 1.962 0 2.225 1.938 2.296 2.452.024.143.024.191.144.191.132 0 .132-.06.132-.275v-2.416c0-.215 0-.275-.12-.275-.036 0-.084 0-.167.156l-.395.73c-.574-.742-1.364-.886-1.89-.886A2.28 2.28 0 0 0 .646-6.135c0 .574.203 1.1.646 1.578.418.467.837.574 1.686.79.419.095 1.076.263 1.244.334.562.276.933.921.933 1.591 0 .897-.634 1.746-1.627 1.746-.538 0-1.28-.131-1.866-.646C.97-1.363.921-2.225.91-2.619c-.012-.096-.132-.096-.132-.096-.131 0-.131.06-.131.275v2.416c0 .215 0 .275.12.275.071 0 .083-.024.167-.167l.395-.718c.43.479 1.184.885 2.212.885C4.88.251 5.848-.885 5.848-2.2"/><path id="x" d="M4.21-1.519c0-.646-.395-1.028-.502-1.136-.431-.37-.754-.443-1.543-.586-.359-.072-1.232-.24-1.232-.957 0-.37.251-.92 1.327-.92 1.304 0 1.376 1.111 1.4 1.482.012.096.095.096.131.096.132 0 .132-.06.132-.275V-5.06c0-.215 0-.275-.12-.275-.095 0-.323.263-.406.37-.371-.298-.742-.37-1.125-.37-1.447 0-1.877.79-1.877 1.447 0 .132 0 .55.454.969.383.335.79.418 1.34.526.657.132.813.167 1.112.407.215.179.37.442.37.777 0 .514-.298 1.088-1.35 1.088C1.53-.12.956-.574.693-1.77c-.048-.215-.06-.24-.06-.24-.024-.047-.072-.047-.108-.047-.131 0-.131.06-.131.275v1.627c0 .215 0 .275.12.275.06 0 .071-.012.274-.264.06-.083.06-.107.24-.299.454.563 1.1.563 1.303.563C3.588.12 4.21-.574 4.21-1.52"/><path id="F" d="M3.899-1.483v-.682h-.263v.658c0 .861-.347 1.363-.813 1.363-.814 0-.814-1.112-.814-1.315v-3.349h1.687v-.347H2.009v-2.2h-.263c-.012 1.124-.442 2.272-1.53 2.308v.24h1.016v3.324C1.232-.155 2.117.12 2.75.12c.753 0 1.148-.742 1.148-1.603"/><path id="P" d="M5.956-4.808v-.347c-.347.024-.514.024-.885.024l-.98-.024v.347c.502.024.561.383.561.514 0 .108-.023.168-.083.311L3.349-.897 2.009-4.27c-.06-.167-.071-.167-.071-.227 0-.31.454-.31.67-.31v-.348c-.3.024-.922.024-1.245.024L.215-5.155v.347c.67 0 .79.048.933.419l1.71 4.281c.06.168.084.228.228.228.083 0 .155-.024.239-.228l1.555-3.91c.107-.264.31-.778 1.076-.79"/><path id="aq" d="M11.816-7.822v-.347c-.514.024-.538.024-1.064.024-.31 0-.957 0-1.244-.024v.347c.73.012.945.395.945.634 0 .06-.036.156-.06.24L8.575-1.28 6.638-7.296a1 1 0 0 1-.036-.167c0-.359.634-.359.92-.359v-.347c-.286.024-1.171.024-1.518.024s-1.076 0-1.387-.024v.347c.633 0 .8.036.932.251.084.156.168.527.323.957L4.162-1.28 2.248-7.236c-.06-.167-.06-.191-.06-.227 0-.359.61-.359.922-.359v-.347c-.275.024-1.184.024-1.52.024-.346 0-1.076 0-1.387-.024v.347c.646 0 .873 0 1.017.455L3.588.023c.06.18.108.228.215.228.096 0 .156-.036.216-.215l1.985-6.207L8 .036c.06.18.12.215.216.215.107 0 .155-.048.215-.227l2.248-7.02c.192-.575.538-.814 1.136-.826"/><path id="w" d="M5.956-4.808v-.347c-.347.024-.514.024-.897.024l-.969-.024v.347c.443.024.55.3.55.514 0 .108-.023.168-.071.287L3.349-.993 2.02-4.246c-.072-.167-.072-.251-.072-.251 0-.31.42-.31.658-.31v-.348c-.31.024-.897.024-1.232.024l-1.16-.024v.347c.694 0 .79.06.945.43L2.942 0c-.526 1.268-.526 1.292-.574 1.387-.203.36-.526.814-1.064.814-.371 0-.598-.216-.598-.216s.418-.047.418-.466a.433.433 0 0 0-.442-.443c-.204 0-.455.12-.455.467 0 .454.443.897 1.077.897.67 0 1.16-.586 1.47-1.34l2.07-5.095c.323-.801.885-.813 1.112-.813"/><path id="z" d="M4.7-2.2h-.263C4.33-.838 4.127-.264 2.703-.264H1.256l3.3-4.557c.108-.131.108-.155.108-.203 0-.132-.083-.132-.287-.132H.622L.49-3.253h.263c.072-1.22.3-1.663 1.603-1.663h1.387l-3.42 4.7C.323 0 .347 0 .61 0h3.899z"/><path id="t" d="M1.618-.438a.444.444 0 0 0-.438-.447.444.444 0 0 0-.447.439c0 .27.223.446.439.446a.444.444 0 0 0 .446-.438"/><path id="o" d="M5.019-3.491c0-.873-.055-1.746-.437-2.553-.502-1.048-1.396-1.222-1.854-1.222-.655 0-1.452.284-1.899 1.298C.48-5.215.425-4.364.425-3.49c0 .818.044 1.8.491 2.63A2 2 0 0 0 2.716.24c.59 0 1.419-.23 1.899-1.266.35-.752.404-1.603.404-2.465M2.717 0C2.29 0 1.647-.273 1.45-1.32c-.12-.655-.12-1.658-.12-2.302 0-.698 0-1.418.087-2.008.208-1.298 1.026-1.396 1.299-1.396.36 0 1.08.196 1.287 1.276.11.611.11 1.44.11 2.128 0 .818 0 1.56-.12 2.258C3.828-.327 3.207 0 2.716 0"/><path id="ao" d="M3.208-6.982c0-.262 0-.284-.251-.284-.677.698-1.637.698-1.986.698v.338c.218 0 .862 0 1.43-.283v5.651c0 .393-.034.524-1.015.524h-.35V0c.382-.033 1.331-.033 1.768-.033s1.385 0 1.767.033v-.338h-.349c-.982 0-1.014-.12-1.014-.524z"/><path id="al" d="M3.164-3.84C4.059-4.135 4.69-4.9 4.69-5.76c0-.895-.96-1.506-2.007-1.506-1.102 0-1.931.655-1.931 1.484 0 .36.24.567.556.567.338 0 .557-.24.557-.556 0-.546-.513-.546-.677-.546.338-.534 1.058-.676 1.451-.676.448 0 1.048.24 1.048 1.222 0 .13-.022.763-.306 1.243-.327.524-.698.557-.97.568-.088.01-.35.032-.426.032-.088.011-.164.022-.164.131 0 .12.076.12.262.12h.48c.894 0 1.298.742 1.298 1.811 0 1.484-.753 1.8-1.233 1.8C2.16-.065 1.342-.25.96-.894c.382.055.72-.185.72-.6 0-.392-.294-.61-.61-.61-.263 0-.612.152-.612.632C.458-.48 1.473.24 2.662.24c1.331 0 2.324-.993 2.324-2.106 0-.894-.687-1.745-1.822-1.974"/><path id="q" d="M1.44-3.578v-.262c0-2.76 1.353-3.153 1.91-3.153.261 0 .72.065.96.436-.164 0-.6 0-.6.491 0 .338.261.502.501.502.175 0 .502-.098.502-.524 0-.654-.48-1.178-1.385-1.178-1.397 0-2.87 1.407-2.87 3.818C.458-.535 1.724.24 2.738.24 3.95.24 4.986-.786 4.986-2.226c0-1.385-.971-2.433-2.182-2.433-.742 0-1.146.557-1.364 1.08M2.738-.065c-.687 0-1.014-.655-1.08-.819-.196-.512-.196-1.385-.196-1.582 0-.85.35-1.942 1.331-1.942.175 0 .676 0 1.015.677.196.403.196.96.196 1.494 0 .524 0 1.07-.185 1.462-.328.655-.83.71-1.08.71"/><path id="am" d="M5.193-6.644c.098-.131.098-.153.098-.382h-2.65c-1.332 0-1.354-.142-1.397-.35H.97l-.36 2.248h.273c.032-.174.13-.862.272-.993.077-.065.928-.065 1.07-.065h2.258c-.12.175-.982 1.364-1.222 1.724C2.28-2.99 1.92-1.472 1.92-.36c0 .11 0 .6.502.6s.502-.49.502-.6v-.556c0-.6.033-1.2.12-1.79.044-.25.196-1.189.676-1.865z"/><path id="r" d="M1.778-4.986c-.502-.327-.545-.698-.545-.884 0-.665.709-1.123 1.484-1.123.796 0 1.494.567 1.494 1.353 0 .621-.425 1.145-1.08 1.527zm1.593 1.037c.786-.404 1.32-.971 1.32-1.691 0-1.004-.97-1.626-1.963-1.626-1.092 0-1.975.807-1.975 1.822 0 .196.022.687.48 1.2.12.13.524.404.796.59-.633.316-1.57.926-1.57 2.007C.458-.491 1.57.24 2.716.24c1.232 0 2.269-.906 2.269-2.073 0-.393-.12-.884-.535-1.342-.207-.229-.382-.338-1.08-.774m-1.09.458 1.341.85c.306.208.818.535.818 1.2 0 .808-.818 1.376-1.713 1.376-.938 0-1.723-.677-1.723-1.582 0-.633.349-1.331 1.276-1.844"/><path id="n" d="M7.495-3.568c.164 0 .371 0 .371-.218s-.207-.218-.36-.218H.971c-.153 0-.36 0-.36.218s.207.218.37.218zm.011 2.117c.153 0 .36 0 .36-.218s-.207-.218-.37-.218H.981c-.164 0-.371 0-.371.218s.207.218.36.218z"/><path id="h" d="M5.358-3.827c0-.993-.06-1.962-.49-2.87-.49-.993-1.352-1.256-1.938-1.256-.693 0-1.543.346-1.985 1.34C.61-5.86.49-5.12.49-3.828c0 1.16.084 2.033.515 2.882A2.13 2.13 0 0 0 2.918.251c1.04 0 1.639-.622 1.986-1.315.43-.897.454-2.07.454-2.763M2.918.012c-.382 0-1.16-.215-1.387-1.519-.132-.718-.132-1.627-.132-2.464 0-.98 0-1.865.192-2.571.203-.801.813-1.172 1.327-1.172.455 0 1.148.275 1.376 1.303.155.682.155 1.627.155 2.44 0 .802 0 1.71-.131 2.44C4.09-.215 3.337.012 2.918.012"/><path id="g" d="M3.444-7.666c0-.275 0-.287-.239-.287-.287.323-.885.765-2.117.765v.347c.275 0 .873 0 1.531-.311v6.231c0 .43-.036.574-1.088.574h-.37V0c.322-.024 1.482-.024 1.877-.024s1.543 0 1.866.024v-.347h-.371C3.48-.347 3.444-.49 3.444-.92z"/><path id="a" d="M5.262-2.01H5c-.036.204-.131.862-.25 1.053-.085.108-.766.108-1.125.108H1.41c.323-.275 1.053-1.04 1.364-1.328 1.818-1.674 2.487-2.296 2.487-3.48 0-1.375-1.088-2.296-2.475-2.296S.586-6.77.586-5.741c0 .61.526.61.562.61.251 0 .562-.18.562-.562 0-.335-.227-.562-.562-.562-.107 0-.131 0-.167.012.227-.813.873-1.364 1.65-1.364 1.017 0 1.639.85 1.639 1.95 0 1.017-.586 1.902-1.268 2.667L.586-.287V0h4.365z"/><path id="I" d="M2.99 2.99v-.443H1.83V-8.527h1.16v-.443H1.387V2.99z"/><path id="L" d="M1.854-8.97H.25v.443h1.16V2.547H.251v.443h1.603z"/><path id="J" d="M5.322-2.906c0-1.113 0-1.447-.275-1.83-.347-.467-.909-.538-1.315-.538-1.16 0-1.615.992-1.71 1.232h-.013v-1.232l-1.626.131v.347c.813 0 .909.084.909.67v3.241c0 .538-.132.538-.91.538V0c.312-.024.958-.024 1.292-.024.347 0 .993 0 1.304.024v-.347c-.765 0-.909 0-.909-.538V-3.11c0-1.255.825-1.925 1.567-1.925s.909.61.909 1.34v2.81c0 .538-.132.538-.91.538V0c.312-.024.958-.024 1.293-.024.346 0 .992 0 1.303.024v-.347c-.598 0-.897 0-.909-.359z"/><path id="K" d="M3.923-5.06c0-.214 0-.274-.12-.274-.095 0-.323.263-.406.37-.371-.298-.742-.37-1.125-.37-1.447 0-1.877.79-1.877 1.447 0 .132 0 .55.454.969.383.335.79.418 1.34.526.657.132.813.167 1.112.407.215.179.37.442.37.777 0 .514-.298 1.088-1.35 1.088C1.53-.12.956-.574.693-1.77c-.048-.215-.048-.227-.06-.24-.024-.047-.072-.047-.108-.047-.131 0-.131.06-.131.275v1.627c0 .215 0 .275.12.275.06 0 .071-.012.274-.264.06-.083.06-.107.24-.299.454.563 1.1.563 1.303.563C3.588.12 4.21-.574 4.21-1.52c0-.646-.395-1.028-.502-1.136-.431-.37-.754-.443-1.543-.586-.359-.072-1.232-.24-1.232-.957 0-.37.251-.92 1.327-.92 1.304 0 1.376 1.111 1.4 1.482.012.096.095.096.131.096.132 0 .132-.06.132-.275z"/><path id="p" d="M2.095-.578c0-.317-.262-.578-.579-.578s-.578.261-.578.578S1.2 0 1.516 0s.579-.262.579-.578"/><path id="s" d="M.96-.644c-.033.164-.098.415-.098.47 0 .196.153.294.316.294.131 0 .328-.087.404-.305.01-.022.142-.535.207-.808l.24-.982c.066-.24.131-.48.186-.73.043-.186.13-.503.142-.546.163-.338.741-1.331 1.778-1.331.49 0 .589.403.589.764 0 .676-.535 2.072-.71 2.542-.097.25-.108.381-.108.501 0 .513.382.895.894.895 1.026 0 1.43-1.593 1.43-1.68 0-.11-.099-.11-.131-.11-.11 0-.11.033-.164.197C5.717-.73 5.357-.12 4.822-.12c-.185 0-.262-.11-.262-.36 0-.273.099-.535.197-.775.207-.578.665-1.778.665-2.4 0-.73-.469-1.167-1.254-1.167-.982 0-1.517.698-1.702.949-.055-.611-.502-.95-1.004-.95s-.71.426-.818.623a5.5 5.5 0 0 0-.328 1.058c0 .109.11.109.131.109.11 0 .12-.01.186-.25.185-.776.403-1.3.796-1.3.218 0 .338.143.338.503 0 .229-.032.349-.174.916z"/><path id="m" d="M2.247-4.364h1.026c.218 0 .327 0 .327-.218 0-.12-.109-.12-.305-.12h-.96c.393-1.55.447-1.768.447-1.833 0-.186-.13-.295-.316-.295-.033 0-.339.011-.437.393l-.425 1.735H.578c-.218 0-.327 0-.327.207 0 .131.087.131.305.131h.96C.731-1.266.687-1.08.687-.884c0 .59.415 1.004 1.004 1.004 1.113 0 1.735-1.593 1.735-1.68 0-.11-.088-.11-.131-.11-.098 0-.11.033-.164.154C2.662-.382 2.084-.12 1.713-.12c-.23 0-.338-.142-.338-.502 0-.262.021-.338.065-.524z"/><path id="d" d="M2.503-5.077c0-.215-.016-.223-.232-.223-.326.319-.749.51-1.506.51v.263c.215 0 .646 0 1.108-.215v4.088c0 .295-.024.391-.781.391h-.28V0c.328-.024 1.013-.024 1.372-.024s1.052 0 1.379.024v-.263h-.28c-.757 0-.78-.096-.78-.39z"/><path id="i" d="M2.248-1.626c.127-.12.462-.382.59-.494.493-.454.964-.893.964-1.618 0-.948-.797-1.562-1.794-1.562-.956 0-1.586.725-1.586 1.435 0 .39.311.446.423.446a.41.41 0 0 0 .414-.423c0-.414-.398-.414-.494-.414a1.23 1.23 0 0 1 1.156-.781c.741 0 1.124.63 1.124 1.3 0 .828-.582 1.434-1.523 2.398L.518-.303C.422-.215.422-.199.422 0h3.149l.23-1.427h-.246c-.024.16-.088.558-.184.71-.048.063-.653.063-.78.063H1.17z"/><path id="e" d="M2.016-2.662c.63 0 1.029.462 1.029 1.3 0 .995-.566 1.29-.989 1.29-.438 0-1.036-.16-1.315-.582.287 0 .486-.183.486-.446a.423.423 0 0 0-.438-.438c-.215 0-.438.135-.438.454 0 .757.813 1.251 1.721 1.251 1.06 0 1.801-.733 1.801-1.53 0-.661-.526-1.267-1.339-1.442.63-.224 1.1-.766 1.1-1.403S2.917-5.3 2.088-5.3C1.235-5.3.59-4.838.59-4.232c0 .295.199.422.406.422a.39.39 0 0 0 .407-.406c0-.295-.255-.407-.43-.415.334-.438.948-.462 1.091-.462.207 0 .813.064.813.885 0 .558-.231.892-.343 1.02-.239.247-.422.263-.908.295-.152.008-.215.016-.215.12 0 .111.071.111.207.111z"/><path id="j" d="M3.14-5.157c0-.159 0-.223-.167-.223-.104 0-.112.008-.191.12L.239-1.57v.263h2.248v.661c0 .295-.024.383-.638.383h-.183V0c.677-.024.693-.024 1.147-.024s.47 0 1.148.024v-.263h-.183c-.614 0-.638-.088-.638-.383v-.661h.845v-.263H3.14zm-.598.646v2.94H.518z"/><path id="f" d="M1.116-4.48c.103.033.422.112.757.112.996 0 1.602-.7 1.602-.82 0-.088-.056-.112-.096-.112-.016 0-.032 0-.103.04-.311.12-.678.215-1.108.215-.47 0-.86-.12-1.108-.215C.98-5.3.964-5.3.956-5.3c-.103 0-.103.088-.103.231v2.335c0 .144 0 .24.127.24.064 0 .088-.032.128-.096.095-.12.398-.526 1.076-.526.446 0 .661.366.733.518.136.287.151.653.151.964 0 .295-.008.725-.23 1.076a1.07 1.07 0 0 1-.893.486A1.295 1.295 0 0 1 .733-.917c.024.008.072.008.08.008.223 0 .398-.143.398-.39 0-.295-.23-.399-.39-.399-.144 0-.399.08-.399.423 0 .717.622 1.442 1.539 1.442.996 0 1.84-.773 1.84-1.761 0-.925-.669-1.745-1.61-1.745-.398 0-.772.127-1.075.398z"/><path id="k" d="M1.1-2.638c0-.662.056-1.243.343-1.73.239-.398.645-.725 1.147-.725.16 0 .526.024.71.303-.36.016-.39.287-.39.375-.001.239.182.374.374.374.143 0 .374-.087.374-.39 0-.479-.358-.869-1.076-.869C1.474-5.3.351-4.248.351-2.526.35-.366 1.355.167 2.128.167c.383 0 .797-.103 1.156-.446.318-.31.59-.646.59-1.339 0-1.044-.79-1.777-1.674-1.777-.574 0-.917.366-1.1.757M2.128-.072c-.422 0-.685-.295-.805-.518-.183-.358-.2-.9-.2-1.203 0-.79.431-1.38 1.045-1.38.398 0 .637.208.789.487.167.295.167.654.167 1.06s0 .757-.16 1.044c-.206.367-.485.51-.836.51"/><path id="b" d="M4.033-4.854c.072-.087.072-.103.072-.279H2.08c-.2 0-.446-.008-.645-.024-.415-.031-.423-.103-.447-.23H.741l-.27 1.68h.246c.016-.119.104-.669.215-.732.088-.04.686-.04.805-.04h1.69l-.82 1.1c-.91 1.211-1.1 2.47-1.1 3.1 0 .08 0 .446.374.446s.375-.358.375-.454v-.382c0-1.148.19-2.089.581-2.607z"/><path id="c" d="M3.124-2.351c0 1.945-.924 2.28-1.387 2.28-.167 0-.581-.025-.797-.272.351-.032.375-.295.375-.374a.364.364 0 0 0-.375-.375c-.143 0-.374.088-.374.39 0 .543.446.87 1.18.87 1.091 0 2.127-1.085 2.127-2.79 0-2.072-.916-2.678-1.737-2.678-.94 0-1.785.733-1.785 1.777 0 1.028.773 1.778 1.673 1.778.566 0 .909-.36 1.1-.766zm-1.068.382c-.366 0-.597-.167-.773-.462C1.1-2.726 1.1-3.108 1.1-3.515c0-.47 0-.805.215-1.132.2-.286.454-.446.829-.446.534 0 .765.526.789.566.167.39.175 1.012.175 1.172 0 .63-.342 1.386-1.052 1.386"/><clipPath id="l"><path d="M56.07 204.944h153.595V51.351H56.069Z"/></clipPath><clipPath id="ak"><path d="M268.671 204.945h153.596V51.347H268.67Z"/></clipPath></defs><g fill="none" stroke="gray" stroke-miterlimit="10" stroke-width=".19925"><path d="M68.858 204.944v-4.247m25.599 4.247v-4.247m25.598 4.247v-4.247m25.6 4.247v-4.247m25.598 4.247v-4.247m25.6 4.247v-4.247M68.857 51.35V55.6m25.599-4.248v4.248m25.598-4.248v4.248m25.6-4.248v4.248m25.598-4.248v4.248m25.6-4.248v4.248M56.07 181.613h2.833m-2.834-8.26h2.834m-2.834-4.833h2.834m-2.834-3.429h2.834m-2.834-2.659h2.834m-2.834-2.173h2.834m-2.834-1.837h2.834m-2.834-1.591h2.834m-2.834-1.404h2.834m-2.834-1.256h2.834m-2.834-8.26h2.834m-2.834-4.833h2.834m-2.834-3.429h2.834m-2.834-2.66h2.834m-2.834-2.172h2.834m-2.834-1.837h2.834m-2.834-1.592h2.834m-2.834-1.404h2.834m-2.834-1.255h2.834m-2.834-8.261h2.834m-2.834-4.833h2.834m-2.834-3.428h2.834m-2.834-2.66h2.834m-2.834-2.173h2.834m-2.834-1.837h2.834m-2.834-1.591h2.834m-2.834-1.404h2.834m-2.834-1.256h2.834m-2.834-8.26h2.834m-2.834-4.833h2.834m-2.834-3.428h2.834m-2.834-2.66h2.834m-2.834-2.173h2.834m-2.834-1.837h2.834m-2.834-1.591h2.834M56.069 73.1h2.834m-2.834-1.256h2.834m-2.834-8.26h2.834m-2.834-4.833h2.834m-2.834-3.429h2.834m-2.834-2.66h2.834m150.762 128.951h-2.833m2.833-8.26h-2.833m2.833-4.833h-2.833m2.833-3.429h-2.833m2.833-2.659h-2.833m2.833-2.173h-2.833m2.833-1.837h-2.833m2.833-1.591h-2.833m2.833-1.404h-2.833m2.833-1.256h-2.833m2.833-8.26h-2.833m2.833-4.833h-2.833m2.833-3.429h-2.833m2.833-2.66h-2.833m2.833-2.172h-2.833m2.833-1.837h-2.833m2.833-1.592h-2.833m2.833-1.404h-2.833m2.833-1.255h-2.833m2.833-8.261h-2.833m2.833-4.833h-2.833m2.833-3.428h-2.833m2.833-2.66h-2.833m2.833-2.173h-2.833m2.833-1.837h-2.833m2.833-1.591h-2.833m2.833-1.404h-2.833m2.833-1.256h-2.833m2.833-8.26h-2.833m2.833-4.833h-2.833m2.833-3.428h-2.833m2.833-2.66h-2.833m2.833-2.173h-2.833m2.833-1.837h-2.833m2.833-1.591h-2.833m2.833-1.404h-2.833m2.833-1.256h-2.833m2.833-8.26h-2.833m2.833-4.833h-2.833m2.833-3.429h-2.833m2.833-2.66h-2.833M56.07 181.613h4.249m-4.25-27.442h4.25m-4.25-27.442h4.25m-4.25-27.443h4.25m-4.25-27.442h4.25m149.346 109.77h-4.25m4.25-27.443h-4.25m4.25-27.442h-4.25m4.25-27.443h-4.25m4.25-27.442h-4.25"/></g><path fill="none" stroke="#000" stroke-miterlimit="10" stroke-width=".3985" d="M56.07 204.944V51.351h153.595v153.593z"/><use xlink:href="#a" x="-48.01427" y="128.490568" transform="translate(111.56 90.164)scale(1.0004)"/><use xlink:href="#b" x="-42.141471" y="124.099443" transform="matrix(.99999 0 0 .99999 111.56 90.164)"/><use xlink:href="#a" x="-48.01427" y="128.490568" transform="translate(137.159 90.164)scale(1.0004)"/><use xlink:href="#c" x="-42.141471" y="124.099443" transform="matrix(.99999 0 0 .99999 137.159 90.164)"/><use xlink:href="#a" x="-48.01427" y="128.490568" transform="translate(160.641 90.164)scale(1.0004)"/><g transform="matrix(.99999 0 0 .99999 160.641 90.164)"><use xlink:href="#d" x="-42.141471" y="124.099443"/><use xlink:href="#d" x="-37.909399" y="124.099443"/></g><use xlink:href="#a" x="-48.01427" y="128.490568" transform="translate(186.24 90.164)scale(1.0004)"/><g transform="matrix(.99999 0 0 .99999 186.24 90.164)"><use xlink:href="#d" x="-42.141471" y="124.099443"/><use xlink:href="#e" x="-37.909399" y="124.099443"/></g><use xlink:href="#a" x="-48.01427" y="128.490568" transform="translate(211.838 90.164)scale(1.0004)"/><g transform="matrix(.99999 0 0 .99999 211.838 90.164)"><use xlink:href="#d" x="-42.141471" y="124.099443"/><use xlink:href="#f" x="-37.909399" y="124.099443"/></g><use xlink:href="#a" x="-48.01427" y="128.490568" transform="translate(237.437 90.164)scale(1.0004)"/><g transform="matrix(.99999 0 0 .99999 237.437 90.164)"><use xlink:href="#d" x="-42.141471" y="124.099443"/><use xlink:href="#b" x="-37.909399" y="124.099443"/></g><g transform="translate(83.442 57.912)scale(1.0004)"><use xlink:href="#g" x="-48.01427" y="128.490568"/><use xlink:href="#h" x="-42.165831" y="128.490568"/></g><use xlink:href="#i" x="-36.288544" y="124.099443" transform="matrix(.99999 0 0 .99999 83.442 57.912)"/><g transform="translate(83.442 30.469)scale(1.0004)"><use xlink:href="#g" x="-48.01427" y="128.490568"/><use xlink:href="#h" x="-42.165831" y="128.490568"/></g><use xlink:href="#e" x="-36.288544" y="124.099443" transform="matrix(.99999 0 0 .99999 83.442 30.469)"/><g transform="translate(83.442 3.027)scale(1.0004)"><use xlink:href="#g" x="-48.01427" y="128.490568"/><use xlink:href="#h" x="-42.165831" y="128.490568"/></g><use xlink:href="#j" x="-36.288544" y="124.099443" transform="matrix(.99999 0 0 .99999 83.442 3.027)"/><g transform="translate(83.442 -24.415)scale(1.0004)"><use xlink:href="#g" x="-48.01427" y="128.490568"/><use xlink:href="#h" x="-42.165831" y="128.490568"/></g><use xlink:href="#f" x="-36.288544" y="124.099443" transform="matrix(.99999 0 0 .99999 83.442 -24.415)"/><g transform="translate(83.442 -51.857)scale(1.0004)"><use xlink:href="#g" x="-48.01427" y="128.490568"/><use xlink:href="#h" x="-42.165831" y="128.490568"/></g><use xlink:href="#k" x="-36.288544" y="124.099443" transform="matrix(.99999 0 0 .99999 83.442 -51.857)"/><g clip-path="url(#l)"><path fill="none" stroke="#000" stroke-miterlimit="10" stroke-width=".3985" d="m56.07 182.114 6.4-4.916 6.399-4.915 6.4-4.913 6.399-4.917 6.4-4.914 6.4-4.917 6.399-4.913 6.4-4.917 6.399-4.914 6.4-4.917 6.4-4.915 6.399-4.915 6.4-4.915 6.4-4.915 6.399-4.916 6.4-4.914 6.399-4.916 6.4-4.914 6.4-4.917 6.399-4.913 6.4-4.917 6.4-4.915 6.399-4.914 6.4-4.914"/><g transform="translate(151.185 -34.228)scale(1.00008)"><use xlink:href="#m" x="-47.99896" y="128.449596"/><use xlink:href="#n" x="-41.028384" y="128.449596"/><use xlink:href="#o" x="-29.529242" y="128.449596"/><use xlink:href="#p" x="-24.057983" y="128.449596"/><use xlink:href="#q" x="-21.026733" y="128.449596"/><use xlink:href="#r" x="-15.571733" y="128.449596"/><use xlink:href="#o" x="-10.116733" y="128.449596"/><use xlink:href="#s" x="-4.662382" y="128.449596"/></g><g transform="matrix(.99999 0 0 .99999 151.185 -34.228)"><use xlink:href="#d" x="1.885979" y="124.479436"/><use xlink:href="#t" x="6.120926" y="124.479436"/><use xlink:href="#d" x="8.472897" y="124.479436"/><use xlink:href="#c" x="12.704968" y="124.479436"/></g></g><path d="M69.991 172.043a1.12 1.12 0 1 0-2.242 0 1.12 1.12 0 0 0 2.242 0"/><path fill="none" stroke="#000" stroke-miterlimit="10" stroke-width=".3985" d="M69.991 172.043a1.12 1.12 0 1 0-2.242 0 1.12 1.12 0 0 0 2.242 0Z"/><path d="M82.79 161.93a1.12 1.12 0 1 0-2.241 0 1.12 1.12 0 0 0 2.241 0"/><path fill="none" stroke="#000" stroke-miterlimit="10" stroke-width=".3985" d="M82.79 161.93a1.12 1.12 0 1 0-2.241 0 1.12 1.12 0 0 0 2.241 0Z"/><path d="M95.59 152.547a1.12 1.12 0 1 0-2.241 0 1.12 1.12 0 0 0 2.241 0"/><path fill="none" stroke="#000" stroke-miterlimit="10" stroke-width=".3985" d="M95.59 152.547a1.12 1.12 0 1 0-2.241 0 1.12 1.12 0 0 0 2.241 0Z"/><path d="M108.39 143.026a1.12 1.12 0 1 0-2.242 0 1.12 1.12 0 0 0 2.242 0"/><path fill="none" stroke="#000" stroke-miterlimit="10" stroke-width=".3985" d="M108.39 143.026a1.12 1.12 0 1 0-2.242 0 1.12 1.12 0 0 0 2.242 0Z"/><path d="M121.189 133.44a1.12 1.12 0 1 0-2.242 0 1.12 1.12 0 0 0 2.242 0"/><path fill="none" stroke="#000" stroke-miterlimit="10" stroke-width=".3985" d="M121.189 133.44a1.12 1.12 0 1 0-2.242 0 1.12 1.12 0 0 0 2.242 0Z"/><path d="M133.988 123.842a1.12 1.12 0 1 0-2.242 0 1.12 1.12 0 0 0 2.242 0"/><path fill="none" stroke="#000" stroke-miterlimit="10" stroke-width=".3985" d="M133.988 123.842a1.12 1.12 0 1 0-2.242 0 1.12 1.12 0 0 0 2.242 0Z"/><path d="M146.787 112.829a1.12 1.12 0 1 0-2.241 0 1.12 1.12 0 0 0 2.241 0"/><path fill="none" stroke="#000" stroke-miterlimit="10" stroke-width=".3985" d="M146.787 112.829a1.12 1.12 0 1 0-2.241 0 1.12 1.12 0 0 0 2.241 0Z"/><path d="M159.588 101.121a1.12 1.12 0 1 0-2.242 0 1.12 1.12 0 0 0 2.242 0"/><path fill="none" stroke="#000" stroke-miterlimit="10" stroke-width=".3985" d="M159.588 101.121a1.12 1.12 0 1 0-2.242 0 1.12 1.12 0 0 0 2.242 0Z"/><path d="M172.387 94.28a1.12 1.12 0 1 0-2.242 0 1.12 1.12 0 0 0 2.242 0"/><path fill="none" stroke="#000" stroke-miterlimit="10" stroke-width=".3985" d="M172.387 94.28a1.12 1.12 0 1 0-2.242 0 1.12 1.12 0 0 0 2.242 0Z"/><path d="M185.186 84.051a1.12 1.12 0 1 0-2.241 0 1.12 1.12 0 0 0 2.241 0"/><path fill="none" stroke="#000" stroke-miterlimit="10" stroke-width=".3985" d="M185.186 84.051a1.12 1.12 0 1 0-2.241 0 1.12 1.12 0 0 0 2.241 0Z"/><path d="M197.986 73.64a1.12 1.12 0 1 0-2.242 0 1.12 1.12 0 0 0 2.242 0"/><g fill="none" stroke="#000" stroke-miterlimit="10" stroke-width=".3985"><path d="M197.986 73.64a1.12 1.12 0 1 0-2.242 0 1.12 1.12 0 0 0 2.242 0ZM70.116 192.144a1.245 1.245 0 1 0-2.491 0 1.245 1.245 0 0 0 2.49 0ZM82.915 183.339a1.245 1.245 0 1 0-2.49 0 1.245 1.245 0 0 0 2.49 0ZM95.715 175.503a1.245 1.245 0 1 0-2.491 0 1.245 1.245 0 0 0 2.49 0ZM108.514 167.455a1.245 1.245 0 1 0-2.49 0 1.245 1.245 0 0 0 2.49 0ZM121.314 159.214a1.245 1.245 0 1 0-2.491 0 1.245 1.245 0 0 0 2.49 0ZM134.113 150.905a1.245 1.245 0 1 0-2.491 0 1.245 1.245 0 0 0 2.49 0ZM146.912 140.72a1.245 1.245 0 1 0-2.49 0 1.245 1.245 0 0 0 2.49 0ZM159.712 132.665a1.245 1.245 0 1 0-2.49 0 1.245 1.245 0 0 0 2.49 0ZM172.511 124.272a1.245 1.245 0 1 0-2.49 0 1.245 1.245 0 0 0 2.49 0ZM185.31 115.348a1.245 1.245 0 1 0-2.49 0 1.245 1.245 0 0 0 2.49 0ZM198.11 105.433a1.245 1.245 0 1 0-2.49 0 1.245 1.245 0 0 0 2.49 0Z"/></g><g transform="translate(150.995 106.139)scale(1.0004)"><use xlink:href="#u" x="-48.01427" y="128.490568"/><use xlink:href="#v" x="-42.153868" y="128.490568"/><use xlink:href="#v" x="-37.597109" y="128.490568"/><use xlink:href="#u" x="-33.04035" y="128.490568"/><use xlink:href="#w" x="-27.490909" y="128.490568"/><use xlink:href="#x" x="-17.42059" y="128.490568"/><use xlink:href="#y" x="-12.804028" y="128.490568"/><use xlink:href="#z" x="-9.550907" y="128.490568"/><use xlink:href="#A" x="-4.348307" y="128.490568"/><use xlink:href="#B" x="4.752907" y="128.490568"/></g><g transform="rotate(-90 11.362 115.511)scale(1.0004)"><use xlink:href="#A" x="-48.01427" y="128.490568"/><use xlink:href="#C" x="-42.81167" y="128.490568"/><use xlink:href="#u" x="-39.558546" y="128.490568"/><use xlink:href="#D" x="-33.698149" y="128.490568"/><use xlink:href="#x" x="-27.191907" y="128.490568"/><use xlink:href="#A" x="-22.575347" y="128.490568"/><use xlink:href="#E" x="-17.372747" y="128.490568"/><use xlink:href="#F" x="-6.967546" y="128.490568"/><use xlink:href="#y" x="-2.410785" y="128.490568"/><use xlink:href="#G" x=".842335" y="128.490568"/><use xlink:href="#A" x="10.601696" y="128.490568"/><use xlink:href="#H" x="19.702912" y="128.490568"/><use xlink:href="#I" x="27.831174" y="128.490568"/><use xlink:href="#J" x="31.072335" y="128.490568"/><use xlink:href="#K" x="37.566615" y="128.490568"/><use xlink:href="#L" x="42.183176" y="128.490568"/></g><g transform="translate(108.935 -90.25)scale(1.0004)"><use xlink:href="#M" x="-48.01427" y="114.039768"/><use xlink:href="#N" x="-41.508029" y="114.039768"/><use xlink:href="#A" x="-35.001793" y="114.039768"/><use xlink:href="#C" x="-29.799192" y="114.039768"/><use xlink:href="#C" x="-26.546072" y="114.039768"/><use xlink:href="#M" x="-19.393992" y="114.039768"/><use xlink:href="#O" x="-12.88775" y="114.039768"/><use xlink:href="#v" x="-7.02735" y="114.039768"/><use xlink:href="#F" x="-2.470589" y="114.039768"/><use xlink:href="#P" x="5.985131" y="114.039768"/><use xlink:href="#x" x="12.168452" y="114.039768"/><use xlink:href="#Q" x="16.785011" y="114.039768"/><use xlink:href="#R" x="25.228771" y="114.039768"/><use xlink:href="#S" x="29.450652" y="114.039768"/><use xlink:href="#x" x="35.956891" y="114.039768"/><use xlink:href="#A" x="40.573452" y="114.039768"/><use xlink:href="#v" x="45.776052" y="114.039768"/><use xlink:href="#F" x="50.33281" y="114.039768"/><use xlink:href="#y" x="54.889573" y="114.039768"/><use xlink:href="#O" x="58.142694" y="114.039768"/><use xlink:href="#S" x="64.003094" y="114.039768"/><use xlink:href="#M" x="74.408292" y="114.039768"/><use xlink:href="#O" x="80.914534" y="114.039768"/><use xlink:href="#v" x="86.774934" y="114.039768"/><use xlink:href="#F" x="91.331695" y="114.039768"/><use xlink:href="#T" x="-4.338739" y="128.490568"/><use xlink:href="#U" x=".218021" y="128.490568"/><use xlink:href="#A" x="8.506302" y="128.490568"/><use xlink:href="#x" x="13.708902" y="128.490568"/><use xlink:href="#F" x="18.325463" y="128.490568"/><use xlink:href="#V" x="22.882224" y="128.490568"/><use xlink:href="#W" x="26.781184" y="128.490568"/><use xlink:href="#u" x="31.983784" y="128.490568"/><use xlink:href="#x" x="37.844184" y="128.490568"/><use xlink:href="#A" x="42.460745" y="128.490568"/><use xlink:href="#X" x="47.663345" y="128.490568"/></g><path fill="#fff" d="M60.876 73.612h83.94V56.158h-83.94Z"/><path fill="none" stroke="#000" stroke-miterlimit="10" stroke-width=".3985" d="M60.876 73.612h83.94V56.158h-83.94Z"/><path d="M66.107 64.885a1.12 1.12 0 1 0-2.242 0 1.12 1.12 0 0 0 2.242 0"/><path fill="none" stroke="#000" stroke-miterlimit="10" stroke-width=".3985" d="M66.107 64.885a1.12 1.12 0 1 0-2.242 0 1.12 1.12 0 0 0 2.242 0Z"/><g transform="translate(100.34 -60.605)scale(1.00008)"><use xlink:href="#Y" x="-32.24366" y="128.449596"/><use xlink:href="#Z" x="-26.177699" y="128.449596"/><use xlink:href="#aa" x="-20.111739" y="128.449596"/><use xlink:href="#ab" x="-15.267698" y="128.449596"/><use xlink:href="#ab" x="-12.234718" y="128.449596"/></g><path fill="none" stroke="#000" stroke-miterlimit="10" stroke-width=".3985" d="M95.622 64.885a1.245 1.245 0 1 0-2.49 0 1.245 1.245 0 0 0 2.49 0Z"/><g transform="translate(90.751 -60.725)scale(1.00008)"><use xlink:href="#ac" x="6.864566" y="128.449596"/><use xlink:href="#ad" x="10.803076" y="128.449596"/><use xlink:href="#ae" x="16.869038" y="128.449596"/><use xlink:href="#aa" x="21.167576" y="128.449596"/><use xlink:href="#af" x="26.011618" y="128.449596"/><use xlink:href="#ag" x="30.288339" y="128.449596"/><use xlink:href="#ah" x="34.532329" y="128.449596"/><use xlink:href="#ai" x="37.565309" y="128.449596"/><use xlink:href="#ad" x="43.020309" y="128.449596"/></g><g fill="none" stroke-miterlimit="10"><path stroke="gray" stroke-width=".19925" d="M281.46 204.945v-4.253m25.599 4.253v-4.253m25.598 4.253v-4.253m25.6 4.253v-4.253m25.598 4.253v-4.253m25.6 4.253v-4.253M281.46 51.347V55.6m25.599-4.253V55.6m25.598-4.253V55.6m25.6-4.253V55.6m25.598-4.253V55.6m25.6-4.253V55.6M268.671 204.125h4.25m-4.25-33.076h4.25m-4.25-33.076h4.25m-4.25-33.076h4.25m-4.25-33.076h4.25m149.346 132.304h-4.25m4.25-33.076h-4.25m4.25-33.076h-4.25m4.25-33.076h-4.25m4.25-33.076h-4.25"/><path stroke="#000" stroke-width=".3985" d="M268.671 204.945V51.347h153.596v153.598z"/></g><use xlink:href="#a" x="-41.424625" y="79.55993" transform="translate(317.575 139.076)scale(1.0004)"/><use xlink:href="#b" x="-35.554554" y="75.189057" transform="matrix(.99999 0 0 .99999 317.575 139.076)"/><use xlink:href="#a" x="-41.424625" y="79.55993" transform="translate(343.174 139.076)scale(1.0004)"/><use xlink:href="#c" x="-35.554554" y="75.189057" transform="matrix(.99999 0 0 .99999 343.174 139.076)"/><use xlink:href="#a" x="-41.424625" y="79.55993" transform="translate(366.656 139.076)scale(1.0004)"/><g transform="matrix(.99999 0 0 .99999 366.656 139.076)"><use xlink:href="#d" x="-35.554554" y="75.189057"/><use xlink:href="#d" x="-31.322483" y="75.189057"/></g><use xlink:href="#a" x="-41.424625" y="79.55993" transform="translate(392.255 139.076)scale(1.0004)"/><g transform="matrix(.99999 0 0 .99999 392.255 139.076)"><use xlink:href="#d" x="-35.554554" y="75.189057"/><use xlink:href="#e" x="-31.322483" y="75.189057"/></g><use xlink:href="#a" x="-41.424625" y="79.55993" transform="translate(417.853 139.076)scale(1.0004)"/><g transform="matrix(.99999 0 0 .99999 417.853 139.076)"><use xlink:href="#d" x="-35.554554" y="75.189057"/><use xlink:href="#f" x="-31.322483" y="75.189057"/></g><use xlink:href="#a" x="-41.424625" y="79.55993" transform="translate(443.452 139.076)scale(1.0004)"/><g transform="matrix(.99999 0 0 .99999 443.452 139.076)"><use xlink:href="#d" x="-35.554554" y="75.189057"/><use xlink:href="#b" x="-31.322483" y="75.189057"/></g><g transform="translate(282.87 129.334)scale(1.0004)"><use xlink:href="#g" x="-41.424625" y="79.55993"/><use xlink:href="#h" x="-35.576188" y="79.55993"/></g><g transform="matrix(.99999 0 0 .99999 282.87 129.334)"><use xlink:href="#aj" x="-29.701627" y="75.189057"/><use xlink:href="#d" x="-23.11571" y="75.189057"/></g><g transform="translate(289.457 96.258)scale(1.0004)"><use xlink:href="#g" x="-41.424625" y="79.55993"/><use xlink:href="#h" x="-35.576188" y="79.55993"/></g><use xlink:href="#d" x="-29.701627" y="75.189057" transform="matrix(.99999 0 0 .99999 289.457 96.258)"/><g transform="translate(289.457 63.183)scale(1.0004)"><use xlink:href="#g" x="-41.424625" y="79.55993"/><use xlink:href="#h" x="-35.576188" y="79.55993"/></g><use xlink:href="#e" x="-29.701627" y="75.189057" transform="matrix(.99999 0 0 .99999 289.457 63.183)"/><g transform="translate(289.457 30.107)scale(1.0004)"><use xlink:href="#g" x="-41.424625" y="79.55993"/><use xlink:href="#h" x="-35.576188" y="79.55993"/></g><use xlink:href="#f" x="-29.701627" y="75.189057" transform="matrix(.99999 0 0 .99999 289.457 30.107)"/><g transform="translate(289.457 -2.969)scale(1.0004)"><use xlink:href="#g" x="-41.424625" y="79.55993"/><use xlink:href="#h" x="-35.576188" y="79.55993"/></g><use xlink:href="#b" x="-29.701627" y="75.189057" transform="matrix(.99999 0 0 .99999 289.457 -2.969)"/><g clip-path="url(#ak)"><path fill="none" stroke="#000" stroke-miterlimit="10" stroke-width=".3985" d="m268.671 192.144 6.4-2.962 6.4-2.963 6.4-2.96 6.399-2.963 6.4-2.962 6.4-2.962 6.399-2.962 6.4-2.963 6.399-2.962 6.4-2.962 6.4-2.962 6.399-2.962 6.4-2.962 6.4-2.962 6.399-2.963 6.4-2.96 6.399-2.964 6.4-2.962 6.4-2.963 6.399-2.961 6.4-2.963 6.4-2.962 6.399-2.96 6.4-2.964"/><g transform="translate(368.578 97.097)scale(1.00008)"><use xlink:href="#m" x="-41.411416" y="79.534561"/><use xlink:href="#n" x="-34.441845" y="79.534561"/><use xlink:href="#al" x="-22.942705" y="79.534561"/><use xlink:href="#p" x="-17.470445" y="79.534561"/><use xlink:href="#am" x="-14.440195" y="79.534561"/><use xlink:href="#q" x="-8.985195" y="79.534561"/><use xlink:href="#an" x="-3.530295" y="79.534561"/><use xlink:href="#ao" x="-.499045" y="79.534561"/><use xlink:href="#o" x="4.955955" y="79.534561"/></g><g transform="matrix(.99999 0 0 .99999 368.578 97.097)"><use xlink:href="#aj" x="10.409866" y="75.569052"/><use xlink:href="#e" x="16.995784" y="75.569052"/></g><use xlink:href="#s" x="21.73079" y="79.534561" transform="translate(368.578 97.097)scale(1.00008)"/><g transform="matrix(.99999 0 0 .99999 368.578 97.097)"><use xlink:href="#d" x="28.276642" y="75.569052"/><use xlink:href="#t" x="32.510591" y="75.569052"/><use xlink:href="#d" x="34.862563" y="75.569052"/><use xlink:href="#c" x="39.094634" y="75.569052"/></g></g><path d="M282.593 185.837a1.12 1.12 0 1 0-2.242 0 1.12 1.12 0 0 0 2.242 0"/><path fill="none" stroke="#000" stroke-miterlimit="10" stroke-width=".3985" d="M282.593 185.837a1.12 1.12 0 1 0-2.242 0 1.12 1.12 0 0 0 2.242 0Z"/><path d="M295.392 179.531a1.12 1.12 0 1 0-2.241 0 1.12 1.12 0 0 0 2.241 0"/><path fill="none" stroke="#000" stroke-miterlimit="10" stroke-width=".3985" d="M295.392 179.531a1.12 1.12 0 1 0-2.241 0 1.12 1.12 0 0 0 2.241 0Z"/><path d="M308.192 174.407a1.12 1.12 0 1 0-2.241 0 1.12 1.12 0 0 0 2.241 0"/><path fill="none" stroke="#000" stroke-miterlimit="10" stroke-width=".3985" d="M308.192 174.407a1.12 1.12 0 1 0-2.241 0 1.12 1.12 0 0 0 2.241 0Z"/><path d="M320.992 168.2a1.12 1.12 0 1 0-2.242 0 1.12 1.12 0 0 0 2.242 0"/><path fill="none" stroke="#000" stroke-miterlimit="10" stroke-width=".3985" d="M320.992 168.2a1.12 1.12 0 1 0-2.242 0 1.12 1.12 0 0 0 2.242 0Z"/><path d="M333.791 162.173a1.12 1.12 0 1 0-2.242 0 1.12 1.12 0 0 0 2.242 0"/><path fill="none" stroke="#000" stroke-miterlimit="10" stroke-width=".3985" d="M333.791 162.173a1.12 1.12 0 1 0-2.242 0 1.12 1.12 0 0 0 2.242 0Z"/><path d="M346.59 156.007a1.12 1.12 0 1 0-2.242 0 1.12 1.12 0 0 0 2.242 0"/><path fill="none" stroke="#000" stroke-miterlimit="10" stroke-width=".3985" d="M346.59 156.007a1.12 1.12 0 1 0-2.242 0 1.12 1.12 0 0 0 2.242 0Z"/><path d="M359.39 151.712a1.12 1.12 0 1 0-2.242 0 1.12 1.12 0 0 0 2.241 0"/><path fill="none" stroke="#000" stroke-miterlimit="10" stroke-width=".3985" d="M359.39 151.712a1.12 1.12 0 1 0-2.242 0 1.12 1.12 0 0 0 2.241 0Z"/><path d="M372.19 144.304a1.12 1.12 0 1 0-2.242 0 1.12 1.12 0 0 0 2.241 0"/><path fill="none" stroke="#000" stroke-miterlimit="10" stroke-width=".3985" d="M372.19 144.304a1.12 1.12 0 1 0-2.242 0 1.12 1.12 0 0 0 2.241 0Z"/><path d="M384.989 138.5a1.12 1.12 0 1 0-2.242 0 1.12 1.12 0 0 0 2.242 0"/><path fill="none" stroke="#000" stroke-miterlimit="10" stroke-width=".3985" d="M384.989 138.5a1.12 1.12 0 1 0-2.242 0 1.12 1.12 0 0 0 2.242 0Z"/><path d="M397.788 131.87a1.12 1.12 0 1 0-2.241 0 1.12 1.12 0 0 0 2.241 0"/><path fill="none" stroke="#000" stroke-miterlimit="10" stroke-width=".3985" d="M397.788 131.87a1.12 1.12 0 1 0-2.241 0 1.12 1.12 0 0 0 2.241 0Z"/><path d="M410.588 126.17a1.12 1.12 0 1 0-2.242 0 1.12 1.12 0 0 0 2.242 0"/><g fill="none" stroke="#000" stroke-miterlimit="10" stroke-width=".3985"><path d="M410.588 126.17a1.12 1.12 0 1 0-2.242 0 1.12 1.12 0 0 0 2.242 0ZM282.718 168.045a1.245 1.245 0 1 0-2.491 0 1.245 1.245 0 0 0 2.49 0ZM295.517 156.847a1.245 1.245 0 1 0-2.49 0 1.245 1.245 0 0 0 2.49 0ZM308.317 147.576a1.245 1.245 0 1 0-2.491 0 1.245 1.245 0 0 0 2.49 0ZM321.116 135.968a1.245 1.245 0 1 0-2.49 0 1.245 1.245 0 0 0 2.49 0ZM333.916 125.258a1.245 1.245 0 1 0-2.491 0 1.245 1.245 0 0 0 2.49 0ZM346.715 115.414a1.245 1.245 0 1 0-2.491 0 1.245 1.245 0 0 0 2.49 0ZM359.514 105.481a1.245 1.245 0 1 0-2.49 0 1.245 1.245 0 0 0 2.49 0ZM372.314 95.391a1.245 1.245 0 1 0-2.49 0 1.245 1.245 0 0 0 2.49 0ZM385.113 85.183a1.245 1.245 0 1 0-2.49 0 1.245 1.245 0 0 0 2.49 0ZM397.913 74.804a1.245 1.245 0 1 0-2.49 0 1.245 1.245 0 0 0 2.49 0ZM410.713 64.147a1.245 1.245 0 1 0-2.491 0 1.245 1.245 0 0 0 2.49 0Z"/></g><g transform="translate(357.01 155.051)scale(1.0004)"><use xlink:href="#u" x="-41.424625" y="79.55993"/><use xlink:href="#v" x="-35.564228" y="79.55993"/><use xlink:href="#v" x="-31.007466" y="79.55993"/><use xlink:href="#u" x="-26.450706" y="79.55993"/><use xlink:href="#w" x="-20.913226" y="79.55993"/><use xlink:href="#x" x="-10.842906" y="79.55993"/><use xlink:href="#y" x="-6.226346" y="79.55993"/><use xlink:href="#z" x="-2.973226" y="79.55993"/><use xlink:href="#A" x="2.229375" y="79.55993"/><use xlink:href="#B" x="11.342549" y="79.55993"/></g><g transform="rotate(-90 142.252 -8.524)scale(1.0004)"><use xlink:href="#A" x="-41.424625" y="79.55993"/><use xlink:href="#C" x="-36.222027" y="79.55993"/><use xlink:href="#u" x="-32.968907" y="79.55993"/><use xlink:href="#D" x="-27.108506" y="79.55993"/><use xlink:href="#x" x="-20.602265" y="79.55993"/><use xlink:href="#A" x="-15.985704" y="79.55993"/><use xlink:href="#E" x="-10.783104" y="79.55993"/><use xlink:href="#F" x="-.389863" y="79.55993"/><use xlink:href="#y" x="4.166897" y="79.55993"/><use xlink:href="#G" x="7.420018" y="79.55993"/><use xlink:href="#A" x="17.179379" y="79.55993"/><use xlink:href="#H" x="26.292554" y="79.55993"/><use xlink:href="#I" x="34.419817" y="79.55993"/><use xlink:href="#ap" x="37.67312" y="79.55993"/><use xlink:href="#K" x="44.718947" y="79.55993"/><use xlink:href="#L" x="49.33551" y="79.55993"/></g><g transform="translate(314.95 -41.343)scale(1.0004)"><use xlink:href="#M" x="-41.424625" y="65.109131"/><use xlink:href="#N" x="-34.918389" y="65.109131"/><use xlink:href="#A" x="-28.412147" y="65.109131"/><use xlink:href="#C" x="-23.209547" y="65.109131"/><use xlink:href="#C" x="-19.956427" y="65.109131"/><use xlink:href="#M" x="-12.816308" y="65.109131"/><use xlink:href="#O" x="-6.310067" y="65.109131"/><use xlink:href="#v" x="-.449667" y="65.109131"/><use xlink:href="#F" x="4.107094" y="65.109131"/><use xlink:href="#P" x="12.562815" y="65.109131"/><use xlink:href="#x" x="18.746136" y="65.109131"/><use xlink:href="#Q" x="23.362696" y="65.109131"/><use xlink:href="#R" x="31.818415" y="65.109131"/><use xlink:href="#S" x="36.040294" y="65.109131"/><use xlink:href="#x" x="42.546534" y="65.109131"/><use xlink:href="#A" x="47.163094" y="65.109131"/><use xlink:href="#v" x="52.365694" y="65.109131"/><use xlink:href="#F" x="56.922455" y="65.109131"/><use xlink:href="#y" x="61.479214" y="65.109131"/><use xlink:href="#O" x="64.73233" y="65.109131"/><use xlink:href="#S" x="70.592732" y="65.109131"/><use xlink:href="#M" x="80.997928" y="65.109131"/><use xlink:href="#O" x="87.504177" y="65.109131"/><use xlink:href="#v" x="93.364571" y="65.109131"/><use xlink:href="#F" x="97.921338" y="65.109131"/><use xlink:href="#T" x="-1.737697" y="79.55993"/><use xlink:href="#aq" x="2.819064" y="79.55993"/><use xlink:href="#O" x="13.870104" y="79.55993"/><use xlink:href="#v" x="19.730505" y="79.55993"/><use xlink:href="#x" x="24.287265" y="79.55993"/><use xlink:href="#F" x="28.903826" y="79.55993"/><use xlink:href="#V" x="33.460589" y="79.55993"/><use xlink:href="#W" x="37.35955" y="79.55993"/><use xlink:href="#u" x="42.56215" y="79.55993"/><use xlink:href="#x" x="48.42255" y="79.55993"/><use xlink:href="#A" x="53.039111" y="79.55993"/><use xlink:href="#X" x="58.241711" y="79.55993"/></g><path fill="#fff" d="M273.478 73.609h83.94V56.154h-83.94Z"/><path fill="none" stroke="#000" stroke-miterlimit="10" stroke-width=".3985" d="M273.478 73.609h83.94V56.154h-83.94Z"/><path d="M278.708 64.881a1.12 1.12 0 1 0-2.242 0 1.12 1.12 0 0 0 2.242 0"/><path fill="none" stroke="#000" stroke-miterlimit="10" stroke-width=".3985" d="M278.708 64.881a1.12 1.12 0 1 0-2.242 0 1.12 1.12 0 0 0 2.242 0Z"/><g transform="translate(306.355 -11.698)scale(1.00008)"><use xlink:href="#Y" x="-25.656116" y="79.534561"/><use xlink:href="#Z" x="-19.590156" y="79.534561"/><use xlink:href="#aa" x="-13.524195" y="79.534561"/><use xlink:href="#ab" x="-8.680154" y="79.534561"/><use xlink:href="#ab" x="-5.647174" y="79.534561"/></g><path fill="none" stroke="#000" stroke-miterlimit="10" stroke-width=".3985" d="M308.224 64.881a1.245 1.245 0 1 0-2.49 0 1.245 1.245 0 0 0 2.49 0Z"/><g transform="translate(296.766 -11.818)scale(1.00008)"><use xlink:href="#ac" x="13.45111" y="79.534561"/><use xlink:href="#ad" x="17.389621" y="79.534561"/><use xlink:href="#ae" x="23.455581" y="79.534561"/><use xlink:href="#aa" x="27.754122" y="79.534561"/><use xlink:href="#af" x="32.598159" y="79.534561"/><use xlink:href="#ag" x="36.874881" y="79.534561"/><use xlink:href="#ah" x="41.118872" y="79.534561"/><use xlink:href="#ai" x="44.151852" y="79.534561"/><use xlink:href="#ad" x="49.606852" y="79.534561"/></g></svg>