<svg xmlns="http://www.w3.org/2000/svg" xmlns:xlink="http://www.w3.org/1999/xlink" width="261.19pt" height="233.5pt" viewBox="0 0 261.19 233.5"><defs><path id="l" d="M4.868-1.423c0-.072-.06-.12-.132-.12-.096 0-.12.06-.143.12C4.282-.42 3.48-.143 2.978-.143s-1.71-.335-1.71-2.404v-.228H4.58c.263 0 .287 0 .287-.227 0-1.208-.646-2.332-2.093-2.332C1.41-5.334.359-4.102.359-2.62.359-1.041 1.579.12 2.906.12c1.424 0 1.962-1.292 1.962-1.543m-.742-1.579H1.28c.095-1.878 1.148-2.093 1.483-2.093 1.28 0 1.351 1.686 1.363 2.093"/><path id="i" d="M2.882 0v-.347c-.777 0-.825-.06-.825-.526v-4.401l-1.626.131v.347c.765 0 .873.072.873.658v3.253c0 .538-.132.538-.91.538V0c.336-.024.91-.024 1.256-.024.132 0 .826 0 1.232.024m-.67-7.224a.58.58 0 1 0-.586.574.576.576 0 0 0 .587-.574"/><path id="j" d="M6.231 0v-.347c-.598 0-.897 0-.909-.359v-2.2c0-1.113 0-1.447-.275-1.83-.347-.467-.909-.538-1.315-.538-1.16 0-1.615.992-1.71 1.232h-.013v-1.232l-1.626.131v.347c.813 0 .909.084.909.67v3.241c0 .538-.132.538-.91.538V0c.312-.024.958-.024 1.292-.024.347 0 .993 0 1.304.024v-.347c-.765 0-.909 0-.909-.538V-3.11c0-1.255.825-1.925 1.567-1.925s.909.61.909 1.34v2.81c0 .538-.132.538-.91.538V0c.312-.024.958-.024 1.293-.024.346 0 .992 0 1.303.024"/><path id="o" d="M5.49-2.56c0-1.542-1.172-2.774-2.56-2.774C1.495-5.334.36-4.066.36-2.56.359-1.03 1.555.12 2.919.12c1.41 0 2.57-1.172 2.57-2.68m-.91-.107c0 .419 0 1.16-.31 1.722a1.56 1.56 0 0 1-1.34.801c-.442 0-.98-.19-1.327-.777-.323-.538-.335-1.244-.335-1.746 0-.455 0-1.184.37-1.722a1.53 1.53 0 0 1 1.28-.706c.467 0 .969.215 1.292.682.37.55.37 1.303.37 1.746"/><path id="q" d="M2.2-.586a.58.58 0 0 0-.573-.574.577.577 0 0 0-.586.574.58.58 0 1 0 1.16 0"/><path id="m" d="M4.222-4.58c0-.36-.323-.694-.837-.694-1.017 0-1.364 1.1-1.436 1.327h-.011v-1.327l-1.603.131v.347c.813 0 .909.084.909.67v3.241c0 .538-.132.538-.91.538V0c.336-.024.994-.024 1.352-.024.323 0 1.172 0 1.448.024v-.347h-.24c-.873 0-.897-.131-.897-.562v-1.878c0-1.16.479-2.248 1.4-2.248.095 0 .12 0 .167.012-.096.048-.287.12-.287.442a.46.46 0 0 0 .466.479c.24 0 .479-.156.479-.479"/><path id="n" d="M4.21-1.519c0-.646-.395-1.028-.502-1.136-.431-.37-.754-.443-1.543-.586-.359-.072-1.232-.24-1.232-.957 0-.37.251-.92 1.327-.92 1.304 0 1.376 1.111 1.4 1.482.012.096.095.096.131.096.132 0 .132-.06.132-.275V-5.06c0-.215 0-.275-.12-.275-.095 0-.323.263-.406.37-.371-.298-.742-.37-1.125-.37-1.447 0-1.877.79-1.877 1.447 0 .132 0 .55.454.969.383.335.79.418 1.34.526.657.132.813.167 1.112.407.215.179.37.442.37.777 0 .514-.298 1.088-1.35 1.088C1.53-.12.956-.574.693-1.77c-.048-.215-.06-.24-.06-.24-.024-.047-.072-.047-.108-.047-.131 0-.131.06-.131.275v1.627c0 .215 0 .275.12.275.06 0 .071-.012.274-.264.06-.083.06-.107.24-.299.454.563 1.1.563 1.303.563C3.588.12 4.21-.574 4.21-1.52"/><path id="k" d="M5.956-4.808v-.347c-.347.024-.514.024-.885.024l-.98-.024v.347c.502.024.561.383.561.514 0 .108-.023.168-.083.311L3.349-.897 2.009-4.27c-.06-.167-.071-.167-.071-.227 0-.31.454-.31.67-.31v-.348c-.3.024-.922.024-1.245.024L.215-5.155v.347c.67 0 .79.048.933.419l1.71 4.281c.06.168.084.228.228.228.083 0 .155-.024.239-.228l1.555-3.91c.107-.264.31-.778 1.076-.79"/><path id="h" d="M3.444-7.666c0-.275 0-.287-.239-.287-.287.323-.885.765-2.117.765v.347c.275 0 .873 0 1.531-.311v6.231c0 .43-.036.574-1.088.574h-.37V0c.322-.024 1.482-.024 1.877-.024s1.543 0 1.866.024v-.347h-.371C3.48-.347 3.444-.49 3.444-.92z"/><path id="p" d="M5.262-2.01H5c-.036.204-.131.862-.25 1.053-.085.108-.766.108-1.125.108H1.41c.323-.275 1.053-1.04 1.364-1.328 1.818-1.674 2.487-2.296 2.487-3.48 0-1.375-1.088-2.296-2.475-2.296S.586-6.77.586-5.741c0 .61.526.61.562.61.251 0 .562-.18.562-.562 0-.335-.227-.562-.562-.562-.107 0-.131 0-.167.012.227-.813.873-1.364 1.65-1.364 1.017 0 1.639.85 1.639 1.95 0 1.017-.586 1.902-1.268 2.667L.586-.287V0h4.365z"/><path id="f" d="M2.464-3.504c.024-.072.323-.67.765-1.053a1.74 1.74 0 0 1 1.184-.478c.479 0 .646.359.646.837 0 .682-.49 2.045-.73 2.691-.107.287-.167.443-.167.658 0 .538.37.969.945.969 1.112 0 1.53-1.759 1.53-1.83 0-.06-.047-.108-.119-.108-.107 0-.12.036-.18.24C6.065-.599 5.61-.12 5.144-.12c-.12 0-.311-.012-.311-.394 0-.3.131-.658.203-.826.24-.657.742-1.997.742-2.679 0-.717-.419-1.255-1.328-1.255-1.064 0-1.626.753-1.842 1.052-.036-.682-.526-1.052-1.052-1.052-.383 0-.646.227-.85.634C.49-4.21.324-3.492.324-3.444s.048.107.131.107c.096 0 .108-.012.18-.287.191-.73.407-1.411.885-1.411.275 0 .37.191.37.55 0 .263-.119.73-.203 1.1l-.335 1.292c-.047.227-.179.765-.239.98C1.03-.8.897-.238.897-.178c0 .167.132.299.311.299a.46.46 0 0 0 .407-.252c.024-.06.131-.478.191-.717l.263-1.077z"/><path id="c" d="M3.208-6.982c0-.262 0-.284-.251-.284-.677.698-1.637.698-1.986.698v.338c.218 0 .862 0 1.43-.283v5.651c0 .393-.034.524-1.015.524h-.35V0c.382-.033 1.331-.033 1.768-.033s1.385 0 1.767.033v-.338h-.349c-.982 0-1.014-.12-1.014-.524z"/><path id="d" d="m1.386-.84 1.156-1.124C4.244-3.469 4.899-4.059 4.899-5.15c0-1.243-.982-2.116-2.313-2.116a2.016 2.016 0 0 0-2.04 1.975c0 .61.545.61.578.61.185 0 .567-.13.567-.578a.55.55 0 0 0-.578-.567c-.087 0-.11 0-.142.011.25-.71.84-1.113 1.473-1.113.993 0 1.462.884 1.462 1.778 0 .873-.546 1.735-1.146 2.412L.666-.404c-.12.12-.12.142-.12.404h4.047L4.9-1.898h-.273c-.055.327-.131.807-.24.97-.077.088-.797.088-1.037.088z"/><path id="a" d="M7.19-2.51c.185 0 .382 0 .382-.218s-.197-.218-.382-.218H1.287c-.185 0-.381 0-.381.219s.196.218.381.218z"/><path id="e" d="M2.095-.578c0-.317-.262-.578-.579-.578s-.578.261-.578.578S1.2 0 1.516 0s.579-.262.579-.578"/><path id="b" d="M.96-.644c-.033.164-.098.415-.098.47 0 .196.153.294.316.294.131 0 .328-.087.404-.305.01-.022.142-.535.207-.808l.24-.982c.066-.24.131-.48.186-.73.043-.186.13-.503.142-.546.163-.338.741-1.331 1.778-1.331.49 0 .589.403.589.764 0 .676-.535 2.072-.71 2.542-.097.25-.108.381-.108.501 0 .513.382.895.894.895 1.026 0 1.43-1.593 1.43-1.68 0-.11-.099-.11-.131-.11-.11 0-.11.033-.164.197C5.717-.73 5.357-.12 4.822-.12c-.185 0-.262-.11-.262-.36 0-.273.099-.535.197-.775.207-.578.665-1.778.665-2.4 0-.73-.469-1.167-1.254-1.167-.982 0-1.517.698-1.702.949-.055-.611-.502-.95-1.004-.95s-.71.426-.818.623a5.5 5.5 0 0 0-.328 1.058c0 .109.11.109.131.109.11 0 .12-.01.186-.25.185-.776.403-1.3.796-1.3.218 0 .338.143.338.503 0 .229-.032.349-.174.916z"/><use xlink:href="#a" id="g" transform="scale(1.09624)"/></defs><g fill="none" stroke="#000" stroke-miterlimit="10" stroke-width=".3985"><path d="M11.538 37.049h238.113V11.537H11.538ZM45.554 37.049V11.537M79.57 37.049V11.537M113.587 37.049V11.537M181.619 37.049V11.537M215.635 37.049V11.537"/></g><use xlink:href="#b" x="-60.466988" y="-34.952883" transform="translate(85.734 61.591)scale(1.00008)"/><g transform="translate(110.356 62.304)scale(1.00008)"><use xlink:href="#b" x="-60.466988" y="-34.952883"/><use xlink:href="#a" x="-51.494248" y="-34.952883"/><use xlink:href="#c" x="-40.584348" y="-34.952883"/></g><g transform="translate(144.372 62.304)scale(1.00008)"><use xlink:href="#b" x="-60.466988" y="-34.952883"/><use xlink:href="#a" x="-51.494248" y="-34.952883"/><use xlink:href="#d" x="-40.584348" y="-34.952883"/></g><g transform="translate(201.701 59.819)scale(1.00008)"><use xlink:href="#e" x="-60.466988" y="-34.952883"/><use xlink:href="#e" x="-55.633863" y="-34.952883"/><use xlink:href="#e" x="-50.789824" y="-34.952883"/></g><use xlink:href="#d" x="-60.466988" y="-34.952883" transform="translate(256.362 62.758)scale(1.00008)"/><use xlink:href="#c" x="-60.466988" y="-34.952883" transform="translate(290.378 62.758)scale(1.00008)"/><g fill="none" stroke="#000" stroke-miterlimit="10" stroke-width=".3985"><path d="M28.546 37.049c2.835 4.91 31.182 4.91 34.016 0"/><path d="M28.546 37.049c4.252 7.365 63.78 7.365 68.032 0"/><path d="M28.546 37.049c7.087 12.275 162.994 12.275 170.08 0"/><path d="M28.546 37.049c8.504 14.73 195.593 14.73 204.097 0"/></g><g transform="translate(150.437 99.499)scale(1.0004)"><use xlink:href="#f" x="-60.486275" y="-34.964032"/><use xlink:href="#g" x="-50.838403" y="-34.964032"/><use xlink:href="#h" x="-38.878603" y="-34.964032"/><use xlink:href="#i" x="-29.123688" y="-34.964032"/><use xlink:href="#j" x="-25.870569" y="-34.964032"/><use xlink:href="#k" x="-19.687248" y="-34.964032"/><use xlink:href="#l" x="-13.826847" y="-34.964032"/><use xlink:href="#m" x="-8.624246" y="-34.964032"/><use xlink:href="#n" x="-4.067485" y="-34.964032"/><use xlink:href="#i" x=".549075" y="-34.964032"/><use xlink:href="#o" x="3.802195" y="-34.964032"/><use xlink:href="#j" x="9.662595" y="-34.964032"/><use xlink:href="#n" x="16.168835" y="-34.964032"/></g><g fill="none" stroke="#000" stroke-miterlimit="10" stroke-width=".3985"><path d="M11.538 105.081h238.113V79.57H11.538ZM45.554 105.081V79.57M79.57 105.081V79.57M113.587 105.081V79.57M181.619 105.081V79.57M215.635 105.081V79.57"/></g><use xlink:href="#b" x="-60.466988" y="-34.952883" transform="translate(85.734 129.624)scale(1.00008)"/><g transform="translate(110.356 130.336)scale(1.00008)"><use xlink:href="#b" x="-60.466988" y="-34.952883"/><use xlink:href="#a" x="-51.494248" y="-34.952883"/><use xlink:href="#c" x="-40.584348" y="-34.952883"/></g><g transform="translate(144.372 130.336)scale(1.00008)"><use xlink:href="#b" x="-60.466988" y="-34.952883"/><use xlink:href="#a" x="-51.494248" y="-34.952883"/><use xlink:href="#d" x="-40.584348" y="-34.952883"/></g><g transform="translate(201.701 127.851)scale(1.00008)"><use xlink:href="#e" x="-60.466988" y="-34.952883"/><use xlink:href="#e" x="-55.633863" y="-34.952883"/><use xlink:href="#e" x="-50.789824" y="-34.952883"/></g><use xlink:href="#d" x="-60.466988" y="-34.952883" transform="translate(256.362 130.79)scale(1.00008)"/><use xlink:href="#c" x="-60.466988" y="-34.952883" transform="translate(290.378 130.79)scale(1.00008)"/><g fill="none" stroke="#000" stroke-miterlimit="10" stroke-width=".3985"><path d="M62.562 105.081c2.835 4.91 31.182 4.91 34.016 0"/><path d="M62.562 105.081c5.67 9.82 130.396 9.82 136.065 0"/><path d="M62.562 105.081c7.087 12.275 162.994 12.275 170.081 0"/></g><g transform="translate(167.445 166.114)scale(1.0004)"><use xlink:href="#f" x="-60.486275" y="-34.964032"/><use xlink:href="#g" x="-50.838403" y="-34.964032"/><use xlink:href="#p" x="-38.878603" y="-34.964032"/><use xlink:href="#i" x="-29.123688" y="-34.964032"/><use xlink:href="#j" x="-25.870569" y="-34.964032"/><use xlink:href="#k" x="-19.687248" y="-34.964032"/><use xlink:href="#l" x="-13.826847" y="-34.964032"/><use xlink:href="#m" x="-8.624246" y="-34.964032"/><use xlink:href="#n" x="-4.067485" y="-34.964032"/><use xlink:href="#i" x=".549075" y="-34.964032"/><use xlink:href="#o" x="3.802195" y="-34.964032"/><use xlink:href="#j" x="9.662595" y="-34.964032"/><use xlink:href="#n" x="16.168835" y="-34.964032"/></g><g transform="translate(189.431 192.94)scale(1.0004)"><use xlink:href="#q" x="-60.486275" y="-42.937232"/><use xlink:href="#q" x="-60.486275" y="-38.950631"/><use xlink:href="#q" x="-60.486275" y="-34.96403"/></g><g fill="none" stroke="#000" stroke-miterlimit="10" stroke-width=".3985"><path d="M11.538 198.626h238.113v-25.512H11.538ZM45.554 198.626v-25.512M79.57 198.626v-25.512M113.587 198.626v-25.512M181.619 198.626v-25.512M215.635 198.626v-25.512"/></g><use xlink:href="#b" x="-60.466988" y="-34.952883" transform="translate(85.734 223.168)scale(1.00008)"/><g transform="translate(110.356 223.88)scale(1.00008)"><use xlink:href="#b" x="-60.466988" y="-34.952883"/><use xlink:href="#a" x="-51.494248" y="-34.952883"/><use xlink:href="#c" x="-40.584348" y="-34.952883"/></g><g transform="translate(144.372 223.88)scale(1.00008)"><use xlink:href="#b" x="-60.466988" y="-34.952883"/><use xlink:href="#a" x="-51.494248" y="-34.952883"/><use xlink:href="#d" x="-40.584348" y="-34.952883"/></g><g transform="translate(201.701 221.396)scale(1.00008)"><use xlink:href="#e" x="-60.466988" y="-34.952883"/><use xlink:href="#e" x="-55.633863" y="-34.952883"/><use xlink:href="#e" x="-50.789824" y="-34.952883"/></g><use xlink:href="#d" x="-60.466988" y="-34.952883" transform="translate(256.362 224.335)scale(1.00008)"/><use xlink:href="#c" x="-60.466988" y="-34.952883" transform="translate(290.378 224.335)scale(1.00008)"/><path fill="none" stroke="#000" stroke-miterlimit="10" stroke-width=".3985" d="M198.627 198.626c2.835 4.91 31.181 4.91 34.016 0"/><g transform="translate(248.584 253.01)scale(1.0004)"><use xlink:href="#h" x="-60.486275" y="-34.964032"/><use xlink:href="#i" x="-50.732361" y="-34.964032"/><use xlink:href="#j" x="-47.479242" y="-34.964032"/><use xlink:href="#k" x="-41.283965" y="-34.964032"/><use xlink:href="#l" x="-35.423566" y="-34.964032"/><use xlink:href="#m" x="-30.220965" y="-34.964032"/><use xlink:href="#n" x="-25.664204" y="-34.964032"/><use xlink:href="#i" x="-21.047643" y="-34.964032"/><use xlink:href="#o" x="-17.794525" y="-34.964032"/><use xlink:href="#j" x="-11.934124" y="-34.964032"/></g></svg>