<svg xmlns="http://www.w3.org/2000/svg" xmlns:xlink="http://www.w3.org/1999/xlink" width="100.56pt" height="96.78pt" viewBox="0 0 100.56 96.78"><defs><path id="b" d="M4.808 1.555c.203 0 .419 0 .419-.24 0-.035 0-.06-.048-.19a7 7 0 0 1-.287-1.962h.598C5.526.215 6.83.263 7.044.263c1.46 0 1.603-1.913 1.603-2.69 0-1.4-.813-2.357-2.165-3.553-.909-.813-1.315-1.83-1.614-2.56-.024-.095-.12-.155-.216-.155-.167 0-.215.132-.239.203-.215.55-.67 1.687-1.578 2.488C1.435-4.76.658-3.79.658-2.428.658-1.53.849.263 2.26.263c.371 0 1.52-.12 1.555-1.1h.598a7.3 7.3 0 0 1-.299 2.01c-.036.095-.036.119-.036.143 0 .239.216.239.419.239z"/><path id="a" d="M5.262-2.01H5c-.036.204-.131.862-.25 1.053-.085.108-.766.108-1.125.108H1.41c.323-.275 1.053-1.04 1.364-1.328 1.818-1.674 2.487-2.296 2.487-3.48 0-1.375-1.088-2.296-2.475-2.296S.586-6.77.586-5.741c0 .61.526.61.562.61.251 0 .562-.18.562-.562 0-.335-.227-.562-.562-.562-.107 0-.131 0-.167.012.227-.813.873-1.364 1.65-1.364 1.017 0 1.639.85 1.639 1.95 0 1.017-.586 1.902-1.268 2.667L.586-.287V0h4.365z"/></defs><path fill="#efefef" d="M60.678 51.227h28.347V11.54H60.678Z"/><path fill="none" stroke="#000" stroke-miterlimit="10" stroke-width=".3985" d="M60.678 51.227h28.347V11.54H60.678Z"/><path fill="#efefef" d="M55.009 55.479h28.346V15.793H55.01Z"/><path fill="none" stroke="#000" stroke-miterlimit="10" stroke-width=".3985" d="M55.009 55.479h28.346V15.793H55.01Z"/><path fill="#efefef" d="M49.34 59.73h28.346V20.046H49.339Z"/><path fill="none" stroke="#000" stroke-miterlimit="10" stroke-width=".3985" d="M49.34 59.73h28.346V20.046H49.339Z"/><path fill="#efefef" d="M43.67 63.983h28.347V24.297H43.67Z"/><path fill="none" stroke="#000" stroke-miterlimit="10" stroke-width=".3985" d="M43.67 63.983h28.347V24.297H43.67Z"/><path fill="#efefef" d="M38 68.235h28.347V28.549H38.001Z"/><path fill="none" stroke="#000" stroke-miterlimit="10" stroke-width=".3985" d="M38 68.235h28.347V28.549H38.001Z"/><path fill="#efefef" d="M32.331 72.487h28.347V32.8H32.331Z"/><path fill="none" stroke="#000" stroke-miterlimit="10" stroke-width=".3985" d="M32.331 72.487h28.347V32.8H32.331Z"/><path fill="#efefef" d="M26.662 76.739h28.347V37.053H26.662Z"/><path fill="none" stroke="#000" stroke-miterlimit="10" stroke-width=".3985" d="M26.662 76.739h28.347V37.053H26.662Z"/><path fill="#efefef" d="M20.992 80.99H49.34V41.306H20.992Z"/><path fill="none" stroke="#000" stroke-miterlimit="10" stroke-width=".3985" d="M20.992 80.99H49.34V41.306H20.992Z"/><path fill="#fff" d="M15.323 85.243H43.67V45.557H15.323Z"/><path fill="none" stroke="#000" stroke-miterlimit="10" stroke-width=".3985" d="M15.323 85.243H43.67V45.557H15.323Z"/><g transform="translate(72 44.666)scale(1.0004)"><use xlink:href="#a" x="-52.540086" y="13.244315"/><use xlink:href="#b" x="-54.260781" y="27.695115"/></g></svg>