<svg xmlns="http://www.w3.org/2000/svg" xmlns:xlink="http://www.w3.org/1999/xlink" width="333pt" height="254.95pt" viewBox="0 0 333 254.95"><defs><path id="r" d="M5.358-1.985c0-1.22-.861-1.758-1.794-2.333.598-.322 1.471-.873 1.471-1.877 0-1.04-1.004-1.758-2.105-1.758-1.184 0-2.117.873-2.117 1.961 0 .407.12.813.455 1.22.131.155.143.167.98.753C1.088-3.48.49-2.679.49-1.806.49-.538 1.698.251 2.918.251c1.328 0 2.44-.98 2.44-2.236m-.813-4.198c0 .73-.526 1.315-1.22 1.698l-1.387-.909c-.156-.108-.634-.419-.634-1.005 0-.777.813-1.267 1.614-1.267.861 0 1.627.622 1.627 1.483m.263 4.58c0 .91-.921 1.531-1.878 1.531-1.016 0-1.89-.741-1.89-1.734 0-.933.682-1.686 1.46-2.045l1.447.945c.31.203.86.574.86 1.303"/><path id="s" d="M5.262-2.404c0-1.423-.956-2.607-2.212-2.607-.682 0-1.208.299-1.52.634v-2.476c.515.167.934.18 1.065.18 1.352 0 2.213-.993 2.213-1.16 0-.049-.024-.108-.096-.108 0 0-.048 0-.155.047a3.9 3.9 0 0 1-1.555.323c-.79 0-1.352-.239-1.579-.335-.083-.035-.12-.035-.12-.035-.095 0-.095.071-.095.263v3.552c0 .215 0 .287.143.287.06 0 .072-.012.192-.156.335-.49.897-.777 1.495-.777.634 0 .945.586 1.04.79.204.466.216 1.052.216 1.506s0 1.136-.335 1.675c-.263.43-.73.73-1.256.73-.79 0-1.567-.539-1.782-1.412.06.024.131.036.191.036.204 0 .527-.12.527-.526 0-.335-.228-.527-.527-.527-.215 0-.526.108-.526.574 0 1.017.813 2.177 2.14 2.177 1.352 0 2.536-1.136 2.536-2.655"/><path id="q" d="M5.526-1.997v-.347H4.318v-5.442c0-.227 0-.287-.168-.287-.096 0-.131 0-.227.144l-3.6 5.585v.347h3.145V-.91c0 .443-.024.562-.897.562h-.239V0c.275-.024 1.22-.024 1.555-.024s1.292 0 1.567.024v-.347h-.24c-.86 0-.896-.12-.896-.562v-1.088zm-1.998-.347H.622l2.906-4.51z"/><path id="u" d="M5.358-3.935c0-3.217-1.34-4.018-2.392-4.018C1.65-7.953.49-6.853.49-5.274S1.603-2.62 2.8-2.62c.885 0 1.34-.646 1.578-1.256v.395c0 2.822-1.255 3.408-1.973 3.408-.287 0-.921-.036-1.22-.454h.072c.084.024.514-.048.514-.49 0-.264-.18-.491-.49-.491s-.503.203-.503.514c0 .742.598 1.244 1.639 1.244 1.495 0 2.942-1.59 2.942-4.186M4.353-5.01c0 1.004-.454 2.153-1.507 2.153-.753 0-1.076-.61-1.184-.838-.19-.454-.19-1.028-.19-1.566 0-.67 0-1.244.31-1.735.215-.323.538-.67 1.184-.67.682 0 1.029.599 1.148.874.24.586.24 1.602.24 1.782"/><path id="n" d="M4.904 0v-.347h-.371C3.48-.347 3.444-.49 3.444-.92v-6.745c0-.275 0-.287-.239-.287-.287.323-.885.765-2.117.765v.347c.275 0 .873 0 1.531-.311v6.231c0 .43-.036.574-1.088.574h-.37V0c.322-.024 1.482-.024 1.877-.024s1.543 0 1.866.024"/><path id="p" d="M5.681-7.427v-.275H2.799c-1.448 0-1.471-.156-1.52-.383h-.262L.646-5.693h.263c.036-.215.143-.957.299-1.088.096-.072.993-.072 1.16-.072h2.536L3.636-5.035C3.313-4.57 2.105-2.607 2.105-.36c0 .132 0 .61.49.61.503 0 .503-.466.503-.622v-.598c0-1.782.287-3.17.849-3.97z"/><path id="v" d="M5.358-2.44c0-1.59-1.112-2.655-2.308-2.655-1.065 0-1.46.921-1.579 1.256v-.323c0-3.026 1.471-3.504 2.117-3.504.43 0 .861.131 1.088.49-.143 0-.598 0-.598.49 0 .263.18.49.49.49.3 0 .503-.179.503-.526 0-.621-.454-1.231-1.495-1.231C2.069-7.953.49-6.411.49-3.78.49-.49 1.926.25 2.942.25c1.304 0 2.416-1.136 2.416-2.69m-.98-.012c0 .61 0 1.148-.228 1.603-.299.574-.73.777-1.208.777-.753 0-1.112-.67-1.22-.92-.107-.312-.227-.898-.227-1.735 0-.945.43-2.129 1.507-2.129.658 0 1.005.443 1.184.85.191.442.191 1.04.191 1.554"/><path id="w" d="M5.358-2.045c0-1.1-.885-1.962-2.033-2.165 1.04-.299 1.71-1.172 1.71-2.105 0-.945-.98-1.638-2.14-1.638-1.197 0-2.082.73-2.082 1.602 0 .479.371.574.55.574.252 0 .539-.18.539-.538 0-.383-.287-.55-.55-.55-.072 0-.096 0-.132.012.454-.813 1.579-.813 1.638-.813.395 0 1.173.179 1.173 1.351 0 .227-.036.897-.383 1.411-.359.527-.766.563-1.089.574l-.358.036c-.204.012-.252.024-.252.132 0 .12.06.12.276.12h.55c1.016 0 1.47.837 1.47 1.985 0 1.567-.812 1.985-1.399 1.985-.574 0-1.554-.275-1.901-1.064.383.06.73-.156.73-.586a.565.565 0 0 0-.587-.586c-.287 0-.598.167-.598.622C.49-.622 1.555.25 2.882.25c1.424 0 2.476-1.088 2.476-2.296"/><path id="t" d="M5.262-2.01H5c-.036.204-.131.862-.25 1.053-.085.108-.766.108-1.125.108H1.41c.323-.275 1.053-1.04 1.364-1.328 1.818-1.674 2.487-2.296 2.487-3.48 0-1.375-1.088-2.296-2.475-2.296S.586-6.77.586-5.741c0 .61.526.61.562.61.251 0 .562-.18.562-.562 0-.335-.227-.562-.562-.562-.107 0-.131 0-.167.012.227-.813.873-1.364 1.65-1.364 1.017 0 1.639.85 1.639 1.95 0 1.017-.586 1.902-1.268 2.667L.586-.287V0h4.365z"/><path id="o" d="M5.358-3.827c0-.993-.06-1.962-.49-2.87-.49-.993-1.352-1.256-1.938-1.256-.693 0-1.543.346-1.985 1.34C.61-5.86.49-5.12.49-3.828c0 1.16.084 2.033.515 2.882A2.13 2.13 0 0 0 2.918.251c1.04 0 1.639-.622 1.986-1.315.43-.897.454-2.07.454-2.763m-.909-.144c0 .802 0 1.71-.131 2.44C4.09-.215 3.337.012 2.918.012c-.382 0-1.16-.215-1.387-1.519-.132-.718-.132-1.627-.132-2.464 0-.98 0-1.865.192-2.571.203-.801.813-1.172 1.327-1.172.455 0 1.148.275 1.376 1.303.155.682.155 1.627.155 2.44"/><path id="e" d="M5.019-3.491c0-.873-.055-1.746-.437-2.553-.502-1.048-1.396-1.222-1.854-1.222-.655 0-1.452.284-1.899 1.298C.48-5.215.425-4.364.425-3.49c0 .818.044 1.8.491 2.63A2 2 0 0 0 2.716.24c.59 0 1.419-.23 1.899-1.266.35-.752.404-1.603.404-2.465M2.717 0C2.29 0 1.647-.273 1.45-1.32c-.12-.655-.12-1.658-.12-2.302 0-.698 0-1.418.087-2.008.208-1.298 1.026-1.396 1.299-1.396.36 0 1.08.196 1.287 1.276.11.611.11 1.44.11 2.128 0 .818 0 1.56-.12 2.258C3.828-.327 3.207 0 2.716 0"/><path id="d" d="M3.208-6.982c0-.262 0-.284-.251-.284-.677.698-1.637.698-1.986.698v.338c.218 0 .862 0 1.43-.283v5.651c0 .393-.034.524-1.015.524h-.35V0c.382-.033 1.331-.033 1.768-.033s1.385 0 1.767.033v-.338h-.349c-.982 0-1.014-.12-1.014-.524z"/><path id="j" d="m1.386-.84 1.156-1.124C4.244-3.469 4.899-4.059 4.899-5.15c0-1.243-.982-2.116-2.313-2.116a2.016 2.016 0 0 0-2.04 1.975c0 .61.545.61.578.61.185 0 .567-.13.567-.578a.55.55 0 0 0-.578-.567c-.087 0-.11 0-.142.011.25-.71.84-1.113 1.473-1.113.993 0 1.462.884 1.462 1.778 0 .873-.546 1.735-1.146 2.412L.666-.404c-.12.12-.12.142-.12.404h4.047L4.9-1.898h-.273c-.055.327-.131.807-.24.97-.077.088-.797.088-1.037.088z"/><path id="m" d="M3.164-3.84C4.059-4.135 4.69-4.9 4.69-5.76c0-.895-.96-1.506-2.007-1.506-1.102 0-1.931.655-1.931 1.484 0 .36.24.567.556.567.338 0 .557-.24.557-.556 0-.546-.513-.546-.677-.546.338-.534 1.058-.676 1.451-.676.448 0 1.048.24 1.048 1.222 0 .13-.022.763-.306 1.243-.327.524-.698.557-.97.568-.088.01-.35.032-.426.032-.088.011-.164.022-.164.131 0 .12.076.12.262.12h.48c.894 0 1.298.742 1.298 1.811 0 1.484-.753 1.8-1.233 1.8C2.16-.065 1.342-.25.96-.894c.382.055.72-.185.72-.6 0-.392-.294-.61-.61-.61-.263 0-.612.152-.612.632C.458-.48 1.473.24 2.662.24c1.331 0 2.324-.993 2.324-2.106 0-.894-.687-1.745-1.822-1.974"/><path id="g" d="M3.208-1.8v.949c0 .393-.022.513-.83.513H2.15V0c.448-.033 1.015-.033 1.473-.033s1.037 0 1.484.033v-.338h-.23c-.807 0-.828-.12-.828-.513v-.95h1.09v-.337h-1.09v-4.964c0-.219 0-.284-.175-.284-.098 0-.13 0-.218.13L.305-2.137v.338zm.065-.338H.611l2.662-4.07z"/><path id="i" d="M4.899-2.193c0-1.298-.895-2.39-2.073-2.39-.524 0-.993.175-1.386.557v-2.127c.218.065.578.142.927.142 1.342 0 2.106-.993 2.106-1.135 0-.066-.033-.12-.109-.12-.01 0-.033 0-.087.033a3.6 3.6 0 0 1-1.484.316c-.436 0-.938-.076-1.451-.305-.087-.033-.11-.033-.131-.033-.11 0-.11.087-.11.262v3.23c0 .195 0 .283.154.283.076 0 .098-.033.141-.098.12-.175.524-.764 1.408-.764.567 0 .84.502.927.698.175.404.197.83.197 1.375 0 .382 0 1.036-.262 1.494-.262.426-.666.71-1.168.71-.796 0-1.418-.579-1.603-1.222.032.01.065.021.185.021.36 0 .546-.272.546-.534s-.186-.535-.546-.535c-.153 0-.535.077-.535.578C.546-.818 1.299.24 2.52.24 3.786.24 4.9-.807 4.9-2.193"/><path id="l" d="M1.44-3.578v-.262c0-2.76 1.353-3.153 1.91-3.153.261 0 .72.065.96.436-.164 0-.6 0-.6.491 0 .338.261.502.501.502.175 0 .502-.098.502-.524 0-.654-.48-1.178-1.385-1.178-1.397 0-2.87 1.407-2.87 3.818C.458-.535 1.724.24 2.738.24 3.95.24 4.986-.786 4.986-2.226c0-1.385-.971-2.433-2.182-2.433-.742 0-1.146.557-1.364 1.08M2.738-.065c-.687 0-1.014-.655-1.08-.819-.196-.512-.196-1.385-.196-1.582 0-.85.35-1.942 1.331-1.942.175 0 .676 0 1.015.677.196.403.196.96.196 1.494 0 .524 0 1.07-.185 1.462-.328.655-.83.71-1.08.71"/><path id="f" d="M5.193-6.644c.098-.131.098-.153.098-.382h-2.65c-1.332 0-1.354-.142-1.397-.35H.97l-.36 2.248h.273c.032-.174.13-.862.272-.993.077-.065.928-.065 1.07-.065h2.258c-.12.175-.982 1.364-1.222 1.724C2.28-2.99 1.92-1.472 1.92-.36c0 .11 0 .6.502.6s.502-.49.502-.6v-.556c0-.6.033-1.2.12-1.79.044-.25.196-1.189.676-1.865z"/><path id="h" d="M1.778-4.986c-.502-.327-.545-.698-.545-.884 0-.665.709-1.123 1.484-1.123.796 0 1.494.567 1.494 1.353 0 .621-.425 1.145-1.08 1.527zm1.593 1.037c.786-.404 1.32-.971 1.32-1.691 0-1.004-.97-1.626-1.963-1.626-1.092 0-1.975.807-1.975 1.822 0 .196.022.687.48 1.2.12.13.524.404.796.59-.633.316-1.57.926-1.57 2.007C.458-.491 1.57.24 2.716.24c1.232 0 2.269-.906 2.269-2.073 0-.393-.12-.884-.535-1.342-.207-.229-.382-.338-1.08-.774m-1.09.458 1.341.85c.306.208.818.535.818 1.2 0 .808-.818 1.376-1.713 1.376-.938 0-1.723-.677-1.723-1.582 0-.633.349-1.331 1.276-1.844"/><path id="k" d="M4.004-3.47v.35c0 2.553-1.135 3.055-1.767 3.055-.186 0-.775-.022-1.07-.393.48 0 .568-.317.568-.502 0-.338-.262-.502-.502-.502-.175 0-.502.098-.502.524 0 .73.59 1.178 1.516 1.178 1.408 0 2.739-1.484 2.739-3.83 0-2.934-1.255-3.676-2.226-3.676-.6 0-1.134.196-1.604.687-.447.491-.698.95-.698 1.768 0 1.363.96 2.433 2.182 2.433.666 0 1.113-.459 1.364-1.091m-1.353.84c-.174 0-.676 0-1.014-.687C1.44-3.72 1.44-4.266 1.44-4.8c0-.59 0-1.102.23-1.506.294-.545.708-.687 1.09-.687.502 0 .862.37 1.048.862.13.349.174 1.036.174 1.538 0 .905-.37 1.964-1.33 1.964"/><path id="x" d="M5.262-2.01H5c-.036.204-.131.862-.25 1.053-.085.108-.766.108-1.125.108H1.41c.323-.275 1.053-1.04 1.364-1.328 1.818-1.674 2.487-2.296 2.487-3.48 0-1.375-1.088-2.296-2.475-2.296S.586-6.77.586-5.741c0 .61.526.61.562.61.251 0 .562-.18.562-.562 0-.335-.227-.562-.562-.562-.107 0-.131 0-.167.012.227-.813.873-1.364 1.65-1.364 1.017 0 1.639.85 1.639 1.95 0 1.017-.586 1.902-1.268 2.667L.586-.287V0h4.365z"/><path id="c" d="M4.318-7.786c0-.227 0-.287-.168-.287-.096 0-.131 0-.227.144l-3.6 5.585v.347h3.145V-.91c0 .443-.024.562-.897.562h-.239V0c.275-.024 1.22-.024 1.555-.024s1.292 0 1.567.024v-.347h-.24c-.86 0-.896-.12-.896-.562v-1.088h1.208v-.347H4.318zm-.79.933v4.509H.622z"/><path id="b" d="M8.073-3.875c.167 0 .383 0 .383-.215 0-.228-.204-.228-.383-.228H1.029c-.168 0-.383 0-.383.216 0 .227.203.227.383.227zm0 2.225c.167 0 .383 0 .383-.216 0-.227-.204-.227-.383-.227H1.029c-.168 0-.383 0-.383.215 0 .228.203.228.383.228z"/><path id="a" d="M3.36-8.001c.013-.048.037-.12.037-.18 0-.12-.12-.12-.144-.12-.012 0-.598.049-.658.06-.203.013-.382.036-.598.048-.299.024-.382.036-.382.252 0 .12.095.12.263.12.586 0 .598.107.598.226a.8.8 0 0 1-.036.204L.706-.466c-.048.179-.048.203-.048.275 0 .263.203.31.323.31.203 0 .359-.155.418-.286l.539-2.165c.06-.263.131-.514.19-.778.132-.502.132-.514.36-.86s.765-1.065 1.686-1.065c.478 0 .646.359.646.837 0 .67-.467 1.973-.73 2.691-.107.287-.167.443-.167.658 0 .538.37.969.945.969 1.112 0 1.53-1.759 1.53-1.83 0-.06-.047-.108-.119-.108-.108 0-.12.036-.18.24C5.826-.623 5.383-.12 4.905-.12c-.12 0-.311-.012-.311-.394 0-.311.143-.694.191-.826.215-.574.753-1.985.753-2.679 0-.717-.418-1.255-1.327-1.255-.682 0-1.28.323-1.77.944z"/></defs><g transform="translate(72 42.136)scale(1.0004)"><use xlink:href="#a" x="-56.699756" y="-18.517432"/><use xlink:href="#b" x="-46.635715" y="-18.517432"/><use xlink:href="#c" x="-34.221232" y="-18.517432"/></g><path fill="none" stroke="#000" stroke-miterlimit="10" stroke-width=".3985" d="M15.323 53.491h306.146V36.483H15.323Z"/><g transform="translate(79.301 67.012)scale(1.00008)"><use xlink:href="#d" x="-56.681676" y="-18.511527"/><use xlink:href="#e" x="-51.226676" y="-18.511527"/></g><use xlink:href="#f" x="-56.681676" y="-18.511527" transform="translate(107.541 67.012)scale(1.00008)"/><use xlink:href="#g" x="-56.681676" y="-18.511527" transform="translate(133.053 67.012)scale(1.00008)"/><use xlink:href="#d" x="-56.681676" y="-18.511527" transform="translate(158.565 67.012)scale(1.00008)"/><g transform="translate(181.35 67.012)scale(1.00008)"><use xlink:href="#d" x="-56.681676" y="-18.511527"/><use xlink:href="#d" x="-51.226676" y="-18.511527"/></g><use xlink:href="#h" x="-56.681676" y="-18.511527" transform="translate(209.589 67.012)scale(1.00008)"/><use xlink:href="#i" x="-56.681676" y="-18.511527" transform="translate(235.102 67.012)scale(1.00008)"/><use xlink:href="#j" x="-56.681676" y="-18.511527" transform="translate(260.614 67.012)scale(1.00008)"/><g transform="translate(283.398 67.012)scale(1.00008)"><use xlink:href="#d" x="-56.681676" y="-18.511527"/><use xlink:href="#j" x="-51.226676" y="-18.511527"/></g><use xlink:href="#k" x="-56.681676" y="-18.511527" transform="translate(311.638 67.012)scale(1.00008)"/><use xlink:href="#l" x="-56.681676" y="-18.511527" transform="translate(337.15 67.012)scale(1.00008)"/><use xlink:href="#m" x="-56.681676" y="-18.511527" transform="translate(362.662 67.012)scale(1.00008)"/><g fill="none" stroke="#000" stroke-miterlimit="10" stroke-width=".3985"><path d="M40.835 53.491V36.483M66.347 53.491V36.483M91.86 53.491V36.483M117.372 53.491V36.483M142.884 53.491V36.483M168.396 53.491V36.483M193.908 53.491V36.483M219.42 53.491V36.483M244.932 53.491V36.483M270.444 53.491V36.483M295.956 53.491V36.483M15.323 81.838h25.512V64.83H15.323Z"/></g><g transform="translate(78.898 95.693)scale(1.0004)"><use xlink:href="#n" x="-56.699756" y="-18.517432"/><use xlink:href="#o" x="-50.839354" y="-18.517432"/></g><path fill="none" stroke="#000" stroke-miterlimit="10" stroke-width=".3985" d="M40.835 101.68h25.512V84.673H40.835Z"/><use xlink:href="#p" x="-56.699756" y="-18.517432" transform="translate(107.339 115.602)scale(1.0004)"/><path fill="none" stroke="#000" stroke-miterlimit="10" stroke-width=".3985" d="M66.347 121.523H91.86v-17.008H66.347Z"/><use xlink:href="#q" x="-56.699756" y="-18.517432" transform="translate(132.851 135.564)scale(1.0004)"/><path fill="none" stroke="#000" stroke-miterlimit="10" stroke-width=".3985" d="M91.86 141.366h25.512v-17.008H91.859Z"/><use xlink:href="#n" x="-56.699756" y="-18.517432" transform="translate(158.363 155.347)scale(1.0004)"/><path fill="none" stroke="#000" stroke-miterlimit="10" stroke-width=".3985" d="M117.372 81.838h25.512V64.83h-25.512Z"/><g transform="translate(180.946 95.819)scale(1.0004)"><use xlink:href="#n" x="-56.699756" y="-18.517432"/><use xlink:href="#n" x="-50.839354" y="-18.517432"/></g><path fill="none" stroke="#000" stroke-miterlimit="10" stroke-width=".3985" d="M142.884 101.68h25.512V84.673h-25.512Z"/><use xlink:href="#r" x="-56.699756" y="-18.517432" transform="translate(209.388 115.536)scale(1.0004)"/><path fill="none" stroke="#000" stroke-miterlimit="10" stroke-width=".3985" d="M168.396 121.523h25.512v-17.008h-25.512Z"/><use xlink:href="#s" x="-56.699756" y="-18.517432" transform="translate(234.9 135.373)scale(1.0004)"/><path fill="none" stroke="#000" stroke-miterlimit="10" stroke-width=".3985" d="M193.908 141.366h25.512v-17.008h-25.512Z"/><use xlink:href="#t" x="-56.699756" y="-18.517432" transform="translate(260.412 155.347)scale(1.0004)"/><path fill="none" stroke="#000" stroke-miterlimit="10" stroke-width=".3985" d="M219.42 81.838h25.512V64.83H219.42Z"/><g transform="translate(282.995 95.819)scale(1.0004)"><use xlink:href="#n" x="-56.699756" y="-18.517432"/><use xlink:href="#t" x="-50.839354" y="-18.517432"/></g><path fill="none" stroke="#000" stroke-miterlimit="10" stroke-width=".3985" d="M244.932 101.68h25.512V84.673h-25.512Z"/><use xlink:href="#u" x="-56.699756" y="-18.517432" transform="translate(311.436 115.536)scale(1.0004)"/><path fill="none" stroke="#000" stroke-miterlimit="10" stroke-width=".3985" d="M270.444 121.523h25.512v-17.008h-25.512Z"/><use xlink:href="#v" x="-56.699756" y="-18.517432" transform="translate(336.948 135.379)scale(1.0004)"/><path fill="none" stroke="#000" stroke-miterlimit="10" stroke-width=".3985" d="M295.956 141.366h25.513v-17.008h-25.513Z"/><use xlink:href="#w" x="-56.699756" y="-18.517432" transform="translate(362.46 155.222)scale(1.0004)"/><g fill="none" stroke="#000" stroke-miterlimit="10" stroke-width=".3985"><path d="M40.835 73.334h76.537M66.347 93.177h76.537M91.86 113.02h76.536M117.372 132.862h76.536M142.884 73.334h76.536M168.396 93.177h76.536M193.908 113.02h76.536M219.42 132.862h76.536"/></g><g transform="translate(72 183.87)scale(1.0004)"><use xlink:href="#a" x="-56.699756" y="-18.517432"/><use xlink:href="#b" x="-46.635715" y="-18.517432"/><use xlink:href="#x" x="-34.221232" y="-18.517432"/></g><path fill="none" stroke="#000" stroke-miterlimit="10" stroke-width=".3985" d="M15.323 195.225h306.146v-17.008H15.323Z"/><use xlink:href="#g" x="-56.681676" y="-18.511527" transform="translate(82.029 208.746)scale(1.00008)"/><use xlink:href="#d" x="-56.681676" y="-18.511527" transform="translate(107.541 208.746)scale(1.00008)"/><use xlink:href="#i" x="-56.681676" y="-18.511527" transform="translate(133.053 208.746)scale(1.00008)"/><use xlink:href="#j" x="-56.681676" y="-18.511527" transform="translate(158.565 208.746)scale(1.00008)"/><use xlink:href="#l" x="-56.681676" y="-18.511527" transform="translate(184.077 208.746)scale(1.00008)"/><use xlink:href="#m" x="-56.681676" y="-18.511527" transform="translate(209.589 208.746)scale(1.00008)"/><g transform="translate(232.374 208.746)scale(1.00008)"><use xlink:href="#d" x="-56.681676" y="-18.511527"/><use xlink:href="#e" x="-51.226676" y="-18.511527"/></g><use xlink:href="#l" x="-56.681676" y="-18.511527" transform="translate(260.614 208.746)scale(1.00008)"/><g transform="translate(283.398 208.746)scale(1.00008)"><use xlink:href="#d" x="-56.681676" y="-18.511527"/><use xlink:href="#d" x="-51.226676" y="-18.511527"/></g><use xlink:href="#f" x="-56.681676" y="-18.511527" transform="translate(311.638 208.746)scale(1.00008)"/><g transform="translate(334.423 208.746)scale(1.00008)"><use xlink:href="#d" x="-56.681676" y="-18.511527"/><use xlink:href="#j" x="-51.226676" y="-18.511527"/></g><use xlink:href="#h" x="-56.681676" y="-18.511527" transform="translate(362.662 208.746)scale(1.00008)"/><g fill="none" stroke="#000" stroke-miterlimit="10" stroke-width=".3985"><path d="M40.835 195.225v-17.008M66.347 195.225v-17.008M91.86 195.225v-17.008M117.372 195.225v-17.008M142.884 195.225v-17.008M168.396 195.225v-17.008M193.908 195.225v-17.008M219.42 195.225v-17.008M244.932 195.225v-17.008M270.444 195.225v-17.008M295.956 195.225v-17.008M15.323 223.572h25.512v-17.008H15.323Z"/></g><use xlink:href="#q" x="-56.699756" y="-18.517432" transform="translate(81.827 237.613)scale(1.0004)"/><path fill="none" stroke="#000" stroke-miterlimit="10" stroke-width=".3985" d="M66.347 223.572H91.86v-17.008H66.347Z"/><use xlink:href="#s" x="-56.699756" y="-18.517432" transform="translate(132.851 237.422)scale(1.0004)"/><path fill="none" stroke="#000" stroke-miterlimit="10" stroke-width=".3985" d="M117.372 223.572h25.512v-17.008h-25.512Z"/><use xlink:href="#v" x="-56.699756" y="-18.517432" transform="translate(183.876 237.428)scale(1.0004)"/><path fill="none" stroke="#000" stroke-miterlimit="10" stroke-width=".3985" d="M168.396 223.572h25.512v-17.008h-25.512Z"/><g transform="translate(231.971 237.428)scale(1.0004)"><use xlink:href="#n" x="-56.699756" y="-18.517432"/><use xlink:href="#o" x="-50.839354" y="-18.517432"/></g><path fill="none" stroke="#000" stroke-miterlimit="10" stroke-width=".3985" d="M219.42 223.572h25.512v-17.008H219.42Z"/><g transform="translate(282.995 237.553)scale(1.0004)"><use xlink:href="#n" x="-56.699756" y="-18.517432"/><use xlink:href="#n" x="-50.839354" y="-18.517432"/></g><path fill="none" stroke="#000" stroke-miterlimit="10" stroke-width=".3985" d="M270.444 223.572h25.512v-17.008h-25.512Z"/><g transform="translate(334.019 237.553)scale(1.0004)"><use xlink:href="#n" x="-56.699756" y="-18.517432"/><use xlink:href="#t" x="-50.839354" y="-18.517432"/></g><path fill="none" stroke="#000" stroke-miterlimit="10" stroke-width=".3985" d="M40.835 243.415h25.512v-17.008H40.835Z"/><use xlink:href="#n" x="-56.699756" y="-18.517432" transform="translate(107.339 257.396)scale(1.0004)"/><path fill="none" stroke="#000" stroke-miterlimit="10" stroke-width=".3985" d="M91.86 243.415h25.512v-17.008H91.859Z"/><use xlink:href="#t" x="-56.699756" y="-18.517432" transform="translate(158.363 257.396)scale(1.0004)"/><path fill="none" stroke="#000" stroke-miterlimit="10" stroke-width=".3985" d="M142.884 243.415h25.512v-17.008h-25.512Z"/><use xlink:href="#w" x="-56.699756" y="-18.517432" transform="translate(209.388 257.27)scale(1.0004)"/><path fill="none" stroke="#000" stroke-miterlimit="10" stroke-width=".3985" d="M193.908 243.415h25.512v-17.008h-25.512Z"/><use xlink:href="#v" x="-56.699756" y="-18.517432" transform="translate(260.412 257.27)scale(1.0004)"/><path fill="none" stroke="#000" stroke-miterlimit="10" stroke-width=".3985" d="M244.932 243.415h25.512v-17.008h-25.512Z"/><use xlink:href="#p" x="-56.699756" y="-18.517432" transform="translate(311.436 257.336)scale(1.0004)"/><path fill="none" stroke="#000" stroke-miterlimit="10" stroke-width=".3985" d="M295.956 243.415h25.513v-17.008h-25.513Z"/><use xlink:href="#r" x="-56.699756" y="-18.517432" transform="translate(362.46 257.27)scale(1.0004)"/><g fill="none" stroke="#000" stroke-miterlimit="10" stroke-width=".3985"><path d="M40.835 215.068h25.512M66.347 234.91H91.86M91.86 215.068h25.512M117.372 234.91h25.512M142.884 215.068h25.512M168.396 234.91h25.512M193.908 215.068h25.512M219.42 234.91h25.512M244.932 215.068h25.512M270.444 234.91h25.512"/></g></svg>