<svg xmlns="http://www.w3.org/2000/svg" xmlns:xlink="http://www.w3.org/1999/xlink" width="327.75pt" height="146.24pt" viewBox="0 0 327.75 146.24"><defs><path id="r" d="M2.654 1.993c.064 0 .16 0 .16-.096 0-.032-.009-.04-.112-.144C1.61.725 1.339-.757 1.339-1.992c0-2.296.948-3.372 1.355-3.738.111-.104.12-.112.12-.152s-.032-.096-.112-.096c-.128 0-.526.407-.59.479C1.044-4.383.821-2.95.821-1.992c0 1.785.75 3.22 1.833 3.984"/><path id="s" d="M2.463-1.992c0-.758-.128-1.666-.622-2.607-.39-.733-1.116-1.378-1.26-1.378-.079 0-.103.055-.103.095 0 .032 0 .048.096.144 1.116 1.06 1.37 2.518 1.37 3.746C1.945.295.997 1.378.59 1.745c-.104.104-.112.112-.112.152s.024.095.104.095c.127 0 .526-.406.59-.478C2.24.4 2.462-1.036 2.462-1.992"/><path id="e" d="M2.248-1.626c.127-.12.462-.382.59-.494.493-.454.964-.893.964-1.618 0-.948-.797-1.562-1.794-1.562-.956 0-1.586.725-1.586 1.435 0 .39.311.446.423.446a.41.41 0 0 0 .414-.423c0-.414-.398-.414-.494-.414a1.23 1.23 0 0 1 1.156-.781c.741 0 1.124.63 1.124 1.3 0 .828-.582 1.434-1.523 2.398L.518-.303C.422-.215.422-.199.422 0h3.149l.23-1.427h-.246c-.024.16-.088.558-.184.71-.048.063-.653.063-.78.063H1.17z"/><path id="a" d="M2.464-3.504c.024-.072.323-.67.765-1.053a1.74 1.74 0 0 1 1.184-.478c.479 0 .646.359.646.837 0 .682-.49 2.045-.73 2.691-.107.287-.167.443-.167.658 0 .538.37.969.945.969 1.112 0 1.53-1.759 1.53-1.83 0-.06-.047-.108-.119-.108-.107 0-.12.036-.18.24C6.065-.599 5.61-.12 5.144-.12c-.12 0-.311-.012-.311-.394 0-.3.131-.658.203-.826.24-.657.742-1.997.742-2.679 0-.717-.419-1.255-1.328-1.255-1.064 0-1.626.753-1.842 1.052-.036-.682-.526-1.052-1.052-1.052-.383 0-.646.227-.85.634C.49-4.21.324-3.492.324-3.444s.048.107.131.107c.096 0 .108-.012.18-.287.191-.73.407-1.411.885-1.411.275 0 .37.191.37.55 0 .263-.119.73-.203 1.1l-.335 1.292c-.047.227-.179.765-.239.98C1.03-.8.897-.238.897-.178c0 .167.132.299.311.299a.46.46 0 0 0 .407-.252c.024-.06.131-.478.191-.717l.263-1.077z"/><path id="b" d="M9.975-2.75c-.658.502-.981.992-1.077 1.147-.538.826-.634 1.58-.634 1.591 0 .144.144.144.24.144.203 0 .215-.024.263-.24.275-1.172.98-2.176 2.332-2.727.143-.047.18-.071.18-.155s-.072-.12-.096-.132c-.527-.203-1.974-.8-2.428-2.81-.036-.144-.048-.18-.251-.18-.096 0-.24 0-.24.144 0 .024.108.777.61 1.579.24.358.586.777 1.1 1.16H1.089c-.215 0-.43 0-.43.239s.215.24.43.24z"/><path id="c" d="M4.617 2.99c.179 0 .43 0 .43-.24s-.251-.238-.43-.238H2.559V-8.54c0-.216 0-.431-.239-.431s-.239.251-.239.43v11.1c0 .382.048.43.43.43z"/><path id="f" d="M3.217-8.54c0-.215 0-.43-.239-.43s-.24.251-.24.43V2.513H.683c-.18 0-.43 0-.43.239s.25.239.43.239h2.117c.382 0 .418-.036.418-.43z"/><path id="j" d="M5.262-2.404c0-1.423-.956-2.607-2.212-2.607-.682 0-1.208.299-1.52.634v-2.476c.515.167.934.18 1.065.18 1.352 0 2.213-.993 2.213-1.16 0-.049-.024-.108-.096-.108 0 0-.048 0-.155.047a3.9 3.9 0 0 1-1.555.323c-.79 0-1.352-.239-1.579-.335-.083-.035-.12-.035-.12-.035-.095 0-.095.071-.095.263v3.552c0 .215 0 .287.143.287.06 0 .072-.012.192-.156.335-.49.897-.777 1.495-.777.634 0 .945.586 1.04.79.204.466.216 1.052.216 1.506s0 1.136-.335 1.675c-.263.43-.73.73-1.256.73-.79 0-1.567-.539-1.782-1.412.06.024.131.036.191.036.204 0 .527-.12.527-.526 0-.335-.228-.527-.527-.527-.215 0-.526.108-.526.574 0 1.017.813 2.177 2.14 2.177 1.352 0 2.536-1.136 2.536-2.655"/><path id="i" d="M5.526-1.997v-.347H4.318v-5.442c0-.227 0-.287-.168-.287-.096 0-.131 0-.227.144l-3.6 5.585v.347h3.145V-.91c0 .443-.024.562-.897.562h-.239V0c.275-.024 1.22-.024 1.555-.024s1.292 0 1.567.024v-.347h-.24c-.86 0-.896-.12-.896-.562v-1.088zm-1.998-.347H.622l2.906-4.51z"/><path id="g" d="M4.904 0v-.347h-.371C3.48-.347 3.444-.49 3.444-.92v-6.745c0-.275 0-.287-.239-.287-.287.323-.885.765-2.117.765v.347c.275 0 .873 0 1.531-.311v6.231c0 .43-.036.574-1.088.574h-.37V0c.322-.024 1.482-.024 1.877-.024s1.543 0 1.866.024"/><path id="m" d="M5.681-7.427v-.275H2.799c-1.448 0-1.471-.156-1.52-.383h-.262L.646-5.693h.263c.036-.215.143-.957.299-1.088.096-.072.993-.072 1.16-.072h2.536L3.636-5.035C3.313-4.57 2.105-2.607 2.105-.36c0 .132 0 .61.49.61.503 0 .503-.466.503-.622v-.598c0-1.782.287-3.17.849-3.97z"/><path id="l" d="M5.358-2.44c0-1.59-1.112-2.655-2.308-2.655-1.065 0-1.46.921-1.579 1.256v-.323c0-3.026 1.471-3.504 2.117-3.504.43 0 .861.131 1.088.49-.143 0-.598 0-.598.49 0 .263.18.49.49.49.3 0 .503-.179.503-.526 0-.621-.454-1.231-1.495-1.231C2.069-7.953.49-6.411.49-3.78.49-.49 1.926.25 2.942.25c1.304 0 2.416-1.136 2.416-2.69m-.98-.012c0 .61 0 1.148-.228 1.603-.299.574-.73.777-1.208.777-.753 0-1.112-.67-1.22-.92-.107-.312-.227-.898-.227-1.735 0-.945.43-2.129 1.507-2.129.658 0 1.005.443 1.184.85.191.442.191 1.04.191 1.554"/><path id="k" d="M5.358-2.045c0-1.1-.885-1.962-2.033-2.165 1.04-.299 1.71-1.172 1.71-2.105 0-.945-.98-1.638-2.14-1.638-1.197 0-2.082.73-2.082 1.602 0 .479.371.574.55.574.252 0 .539-.18.539-.538 0-.383-.287-.55-.55-.55-.072 0-.096 0-.132.012.454-.813 1.579-.813 1.638-.813.395 0 1.173.179 1.173 1.351 0 .227-.036.897-.383 1.411-.359.527-.766.563-1.089.574l-.358.036c-.204.012-.252.024-.252.132 0 .12.06.12.276.12h.55c1.016 0 1.47.837 1.47 1.985 0 1.567-.812 1.985-1.399 1.985-.574 0-1.554-.275-1.901-1.064.383.06.73-.156.73-.586a.565.565 0 0 0-.587-.586c-.287 0-.598.167-.598.622C.49-.622 1.555.25 2.882.25c1.424 0 2.476-1.088 2.476-2.296"/><path id="h" d="M5.262-2.01H5c-.036.204-.131.862-.25 1.053-.085.108-.766.108-1.125.108H1.41c.323-.275 1.053-1.04 1.364-1.328 1.818-1.674 2.487-2.296 2.487-3.48 0-1.375-1.088-2.296-2.475-2.296S.586-6.77.586-5.741c0 .61.526.61.562.61.251 0 .562-.18.562-.562 0-.335-.227-.562-.562-.562-.107 0-.131 0-.167.012.227-.813.873-1.364 1.65-1.364 1.017 0 1.639.85 1.639 1.95 0 1.017-.586 1.902-1.268 2.667L.586-.287V0h4.365z"/><path id="t" d="M5.358-3.827c0-.993-.06-1.962-.49-2.87-.49-.993-1.352-1.256-1.938-1.256-.693 0-1.543.346-1.985 1.34C.61-5.86.49-5.12.49-3.828c0 1.16.084 2.033.515 2.882A2.13 2.13 0 0 0 2.918.251c1.04 0 1.639-.622 1.986-1.315.43-.897.454-2.07.454-2.763M2.918.012c-.382 0-1.16-.215-1.387-1.519-.132-.718-.132-1.627-.132-2.464 0-.98 0-1.865.192-2.571.203-.801.813-1.172 1.327-1.172.455 0 1.148.275 1.376 1.303.155.682.155 1.627.155 2.44 0 .802 0 1.71-.131 2.44C4.09-.215 3.337.012 2.918.012"/><path id="q" d="M3.444-7.666c0-.275 0-.287-.239-.287-.287.323-.885.765-2.117.765v.347c.275 0 .873 0 1.531-.311v6.231c0 .43-.036.574-1.088.574h-.37V0c.322-.024 1.482-.024 1.877-.024s1.543 0 1.866.024v-.347h-.371C3.48-.347 3.444-.49 3.444-.92z"/><path id="v" d="M1.423-2.165c.562.371 1.04.371 1.172.371 1.077 0 1.878-.813 1.878-1.734 0-.323-.096-.778-.478-1.16.466-.479 1.028-.479 1.088-.479.048 0 .108 0 .155.024-.12.048-.179.168-.179.3 0 .167.12.31.311.31.096 0 .311-.06.311-.323a.56.56 0 0 0-.586-.55c-.622 0-1.088.383-1.256.562a2 2 0 0 0-1.232-.43C1.531-5.274.73-4.461.73-3.54c0 .682.418 1.124.538 1.232-.144.18-.359.526-.359.992 0 .694.419.993.514 1.053-.55.155-1.1.586-1.1 1.208 0 .825 1.124 1.507 2.595 1.507 1.423 0 2.608-.634 2.608-1.531 0-.3-.084-1.005-.802-1.375-.61-.311-1.208-.311-2.236-.311-.73 0-.814 0-1.029-.228a.88.88 0 0 1-.227-.598c0-.203.072-.406.191-.574m1.184.12c-1.052 0-1.052-1.208-1.052-1.483 0-.215 0-.706.203-1.029a1.02 1.02 0 0 1 .837-.466c1.053 0 1.053 1.208 1.053 1.483 0 .215 0 .705-.204 1.028a1.02 1.02 0 0 1-.837.467M2.93 2.2C1.782 2.2.91 1.615.91.933c0-.096.024-.562.478-.873.263-.168.371-.168 1.208-.168.993 0 2.344 0 2.344 1.04 0 .707-.908 1.269-2.009 1.269"/><path id="u" d="M2.057-8.3.395-8.17v.347c.813 0 .909.084.909.67v6.267c0 .538-.132.538-.91.538V0c.336-.024.922-.024 1.28-.024s.957 0 1.292.024v-.347c-.765 0-.909 0-.909-.538z"/><path id="o" d="M5.49-3.648c0-.215-.132-.299-.228-.359l-3.922-2.5c-.084-.047-.18-.119-.288-.119a.397.397 0 0 0-.394.395c0 .215.131.287.251.37L4.377-3.66.91-1.447c-.12.084-.251.155-.251.37 0 .252.215.395.394.395l.024-.012c.096-.012.12-.012.252-.107L5.262-3.29c.144-.084.228-.215.228-.359"/><path id="n" d="M5.968-.347c0-.347-.31-.347-.478-.347H5v-2.81c0-1.172-.55-1.723-1.532-1.723a2.1 2.1 0 0 0-1.542.682c0-.442 0-.61-.479-.61h-.79c-.167 0-.478 0-.478.347s.311.347.479.347h.49v3.767h-.49c-.168 0-.479 0-.479.347S.49 0 .658 0h1.758c.167 0 .478 0 .478-.347s-.31-.347-.478-.347h-.49v-2.164c0-1.16.813-1.675 1.459-1.675.693 0 .837.395.837 1.077v2.762h-.49c-.168 0-.479 0-.479.347S3.564 0 3.732 0H5.49c.167 0 .478 0 .478-.347"/><path id="p" d="M5.179-.347c0-.347-.323-.347-.49-.347H3.635V-6.96c0-.18 0-.49-.347-.49-.203 0-.275.108-.347.263-.227.514-.622 1.148-1.256 1.196-.179.012-.43.036-.43.347 0 .203.12.347.383.347.67 0 1.184-.503 1.22-.527v5.131H1.805c-.167 0-.49 0-.49.347s.323.347.49.347h2.882c.168 0 .49 0 .49-.347"/><path id="d" d="M1.594-1.307c.024-.12.104-.422.128-.542.111-.43.111-.438.294-.701.263-.39.638-.742 1.172-.742.287 0 .454.168.454.542 0 .439-.334 1.347-.486 1.738-.103.263-.103.31-.103.414 0 .455.374.678.717.678.78 0 1.108-1.116 1.108-1.22 0-.08-.064-.103-.12-.103-.096 0-.111.055-.135.135-.192.654-.526.965-.83.965-.127 0-.19-.08-.19-.263s.063-.36.143-.558c.12-.303.47-1.22.47-1.666 0-.598-.414-.885-.988-.885-.646 0-1.06.39-1.291.694-.056-.439-.407-.694-.813-.694-.287 0-.486.184-.614.43a3.2 3.2 0 0 0-.27.79c0 .071.055.103.119.103.103 0 .111-.032.167-.239.096-.39.24-.86.574-.86.207 0 .255.199.255.374 0 .143-.04.295-.104.558a43 43 0 0 1-.167.645L.789-.518c-.032.12-.08.319-.08.35C.71.017.861.08.964.08a.39.39 0 0 0 .32-.192c.023-.047.087-.318.127-.486z"/></defs><g transform="translate(50.129 51.038)scale(1.0004)"><use xlink:href="#a" x="-.780313" y="-26.756738"/><use xlink:href="#b" x="9.532826" y="-26.756738"/><use xlink:href="#c" x="24.805745" y="-26.756738"/></g><use xlink:href="#d" x="31.313607" y="-31.453605" transform="matrix(.99999 0 0 .99999 50.129 51.038)"/><path fill="none" stroke="#000" stroke-miterlimit="10" stroke-width=".3985" d="M81.443 21.303h5.138"/><use xlink:href="#e" x="31.765601" y="-22.623716" transform="matrix(.99999 0 0 .99999 50.129 51.038)"/><use xlink:href="#f" x="37.662115" y="-26.756738" transform="translate(50.129 51.038)scale(1.0004)"/><use xlink:href="#g" x="-.780313" y="-26.756738" transform="translate(69.071 75.977)scale(1.0004)"/><use xlink:href="#h" x="-.780313" y="-26.756738" transform="translate(35.055 109.993)scale(1.0004)"/><path fill="none" stroke="#000" stroke-miterlimit="10" stroke-width=".3985" d="m61.513 54.961-17.196 17.2"/><path d="m63.706 52.768-4.348 1.97 2.225.153.153 2.226Z"/><path fill="none" stroke="#000" stroke-miterlimit="10" stroke-width=".398493" d="m63.706 52.768-4.348 1.97 2.225.153.153 2.226Z"/><use xlink:href="#i" x="-.780313" y="-26.756738" transform="translate(18.047 144.069)scale(1.0004)"/><path fill="none" stroke="#000" stroke-miterlimit="10" stroke-width=".3985" d="m31.041 91.599-6.737 13.47"/><path d="m32.674 88.334-4.066 3.76 2.512-.653.985 2.402Z"/><g fill="none" stroke="#000" stroke-miterlimit="10"><path stroke-width=".398475" d="m32.674 88.334-4.066 3.76 2.512-.653.985 2.402Z"/><path stroke-dasharray=".70865 1.99255" stroke-width=".70865" d="m16.908 121.507-5.216 13.041M23.483 121.507l5.217 13.041"/></g><use xlink:href="#j" x="-.780313" y="-26.756738" transform="translate(52.063 143.878)scale(1.0004)"/><path fill="none" stroke="#000" stroke-miterlimit="10" stroke-width=".3985" d="m43.367 91.599 6.707 13.41"/><path d="m41.734 88.334.57 5.51.983-2.403 2.513.653Z"/><g fill="none" stroke="#000" stroke-miterlimit="10"><path stroke-width=".398475" d="m41.734 88.334.57 5.51.983-2.403 2.513.653Z"/><path stroke-dasharray=".70865 1.99255" stroke-width=".70865" d="m50.9 121.567-5.192 12.981M57.523 121.567l5.193 12.981"/></g><use xlink:href="#k" x="-.780313" y="-26.756738" transform="translate(103.087 109.868)scale(1.0004)"/><path fill="none" stroke="#000" stroke-miterlimit="10" stroke-width=".3985" d="m80.927 54.961 17.196 17.2"/><path d="m78.734 52.768 1.97 4.349.153-2.226 2.226-.153Z"/><path fill="none" stroke="#000" stroke-miterlimit="10" stroke-width=".398496" d="m78.734 52.768 1.97 4.349.153-2.226 2.226-.153Z"/><use xlink:href="#l" x="-.780313" y="-26.756738" transform="translate(86.079 143.884)scale(1.0004)"/><path fill="none" stroke="#000" stroke-miterlimit="10" stroke-width=".3985" d="m99.01 91.725-6.64 13.279"/><path d="m100.643 88.46-4.067 3.76 2.513-.654.985 2.403Z"/><g fill="none" stroke="#000" stroke-miterlimit="10"><path stroke-width=".398477" d="m100.643 88.46-4.067 3.76 2.513-.654.985 2.403Z"/><path stroke-dasharray=".70865 1.99255" stroke-width=".70865" d="m84.914 121.573-5.19 12.975M91.542 121.573l5.19 12.975"/></g><use xlink:href="#m" x="-.780313" y="-26.756738" transform="translate(120.095 143.95)scale(1.0004)"/><path fill="none" stroke="#000" stroke-miterlimit="10" stroke-width=".3985" d="m111.462 91.725 6.608 13.213"/><path d="m109.829 88.46.57 5.509.983-2.403 2.513.654Z"/><g fill="none" stroke="#000" stroke-miterlimit="10"><path stroke-width=".398477" d="m109.829 88.46.57 5.509.983-2.403 2.513.654Z"/><path stroke-dasharray=".70865 1.99255" stroke-width=".70865" d="m118.904 121.639-5.164 12.91M125.584 121.639l5.164 12.91"/></g><g transform="translate(195.263 52.34)scale(1.0004)"><use xlink:href="#n" x="-.780313" y="-26.756738"/><use xlink:href="#o" x="11.538488" y="-26.756738"/><use xlink:href="#o" x="17.69789" y="-26.756738"/><use xlink:href="#p" x="30.016692" y="-26.756738"/></g><use xlink:href="#q" x="-.780313" y="-26.756738" transform="translate(205.148 73.928)scale(1.0004)"/><g transform="matrix(.99999 0 0 .99999 205.148 73.928)"><use xlink:href="#r" x="5.072936" y="-24.886689"/><use xlink:href="#e" x="8.364547" y="-24.886689"/><use xlink:href="#s" x="12.596617" y="-24.886689"/></g><g transform="translate(168.205 107.944)scale(1.0004)"><use xlink:href="#q" x="-.780313" y="-26.756738"/><use xlink:href="#t" x="5.068128" y="-26.756738"/></g><g transform="matrix(.99999 0 0 .99999 168.205 107.944)"><use xlink:href="#r" x="10.925864" y="-24.886689"/><use xlink:href="#e" x="14.217474" y="-24.886689"/><use xlink:href="#s" x="18.449545" y="-24.886689"/></g><path fill="none" stroke="#000" stroke-miterlimit="10" stroke-width=".3985" d="m200.398 57.812-11.5 11.498"/><path d="m202.591 55.62-4.349 1.969 2.226.153.153 2.226Z"/><path fill="none" stroke="#000" stroke-miterlimit="10" stroke-width=".398493" d="m202.591 55.62-4.349 1.969 2.226.153.153 2.226Z"/><g transform="translate(148.271 141.96)scale(1.0004)"><use xlink:href="#q" x="-.780313" y="-26.756738"/><use xlink:href="#t" x="5.068128" y="-26.756738"/><use xlink:href="#t" x="10.916568" y="-26.756738"/></g><g transform="matrix(.99999 0 0 .99999 148.271 141.96)"><use xlink:href="#r" x="16.778789" y="-24.886689"/><use xlink:href="#e" x="20.070398" y="-24.886689"/><use xlink:href="#s" x="24.302468" y="-24.886689"/></g><path fill="none" stroke="#000" stroke-miterlimit="10" stroke-width=".3985" d="m171.873 93.402-4.963 9.924"/><path d="m173.506 90.137-4.067 3.76 2.513-.653.984 2.403Z"/><g fill="none" stroke="#000" stroke-miterlimit="10"><path stroke-width=".398483" d="m173.506 90.137-4.067 3.76 2.513-.653.984 2.403Z"/><path stroke-dasharray=".70865 1.99255" stroke-width=".70865" d="m157.945 123.25-4.52 11.298M165.915 123.25l4.519 11.298"/></g><g transform="translate(182.287 141.96)scale(1.0004)"><use xlink:href="#q" x="-.780313" y="-26.756738"/><use xlink:href="#t" x="5.068128" y="-26.756738"/><use xlink:href="#q" x="10.916568" y="-26.756738"/></g><g transform="matrix(.99999 0 0 .99999 182.287 141.96)"><use xlink:href="#r" x="16.778789" y="-24.886689"/><use xlink:href="#e" x="20.070398" y="-24.886689"/><use xlink:href="#s" x="24.302468" y="-24.886689"/></g><path fill="none" stroke="#000" stroke-miterlimit="10" stroke-width=".3985" d="m186.003 93.402 4.963 9.924"/><path d="m184.37 90.137.57 5.51.984-2.403 2.513.654Z"/><g fill="none" stroke="#000" stroke-miterlimit="10"><path stroke-width=".398483" d="m184.37 90.137.57 5.51.984-2.403 2.513.654Z"/><path stroke-dasharray=".70865 1.99255" stroke-width=".70865" d="m191.961 123.25-4.519 11.298M199.93 123.25l4.52 11.298"/></g><g transform="translate(236.238 107.944)scale(1.0004)"><use xlink:href="#q" x="-.780313" y="-26.756738"/><use xlink:href="#q" x="5.068128" y="-26.756738"/></g><g transform="matrix(.99999 0 0 .99999 236.238 107.944)"><use xlink:href="#r" x="10.925864" y="-24.886689"/><use xlink:href="#e" x="14.217474" y="-24.886689"/><use xlink:href="#s" x="18.449545" y="-24.886689"/></g><path fill="none" stroke="#000" stroke-miterlimit="10" stroke-width=".3985" d="m225.51 57.813 11.5 11.497"/><path d="m223.317 55.62 1.97 4.348.153-2.226 2.226-.153Z"/><path fill="none" stroke="#000" stroke-miterlimit="10" stroke-width=".398496" d="m223.317 55.62 1.97 4.348.153-2.226 2.226-.153Z"/><g transform="translate(216.303 141.96)scale(1.0004)"><use xlink:href="#q" x="-.780313" y="-26.756738"/><use xlink:href="#q" x="5.068128" y="-26.756738"/><use xlink:href="#t" x="10.916568" y="-26.756738"/></g><g transform="matrix(.99999 0 0 .99999 216.303 141.96)"><use xlink:href="#r" x="16.778789" y="-24.886689"/><use xlink:href="#e" x="20.070398" y="-24.886689"/><use xlink:href="#s" x="24.302468" y="-24.886689"/></g><path fill="none" stroke="#000" stroke-miterlimit="10" stroke-width=".3985" d="m239.905 93.402-4.963 9.924"/><path d="m241.538 90.137-4.067 3.76 2.513-.653.985 2.403Z"/><g fill="none" stroke="#000" stroke-miterlimit="10"><path stroke-width=".398483" d="m241.538 90.137-4.067 3.76 2.513-.653.985 2.403Z"/><path stroke-dasharray=".70865 1.99255" stroke-width=".70865" d="m225.978 123.25-4.52 11.298M233.947 123.25l4.52 11.298"/></g><g transform="translate(250.319 141.96)scale(1.0004)"><use xlink:href="#q" x="-.780313" y="-26.756738"/><use xlink:href="#q" x="5.068128" y="-26.756738"/><use xlink:href="#q" x="10.916568" y="-26.756738"/></g><g transform="matrix(.99999 0 0 .99999 250.319 141.96)"><use xlink:href="#r" x="16.778789" y="-24.886689"/><use xlink:href="#e" x="20.070398" y="-24.886689"/><use xlink:href="#s" x="24.302468" y="-24.886689"/></g><path fill="none" stroke="#000" stroke-miterlimit="10" stroke-width=".3985" d="m254.036 93.402 4.962 9.924"/><path d="m252.402 90.137.57 5.51.984-2.403 2.513.654Z"/><g fill="none" stroke="#000" stroke-miterlimit="10"><path stroke-width=".398483" d="m252.402 90.137.57 5.51.984-2.403 2.513.654Z"/><path stroke-dasharray=".70865 1.99255" stroke-width=".70865" d="m259.994 123.25-4.52 11.298M267.963 123.25l4.52 11.298"/></g><g transform="translate(284.337 51.605)scale(1.0004)"><use xlink:href="#c" x="-.780313" y="-26.756738"/><use xlink:href="#u" x="4.535821" y="-26.756738"/><use xlink:href="#v" x="7.776981" y="-26.756738"/><use xlink:href="#a" x="15.800342" y="-26.756738"/><use xlink:href="#f" x="22.790147" y="-26.756738"/></g><use xlink:href="#g" x="-.780313" y="-26.756738" transform="translate(295.845 75.977)scale(1.0004)"/><use xlink:href="#h" x="-.780313" y="-26.756738" transform="translate(295.846 109.993)scale(1.0004)"/><use xlink:href="#k" x="-.780313" y="-26.756738" transform="translate(295.846 143.884)scale(1.0004)"/></svg>