<svg xmlns="http://www.w3.org/2000/svg" xmlns:xlink="http://www.w3.org/1999/xlink" width="246.67pt" height="127.08pt" viewBox="0 0 246.67 127.08"><defs><path id="h" d="M1.778-4.342c.415 0 .72-.327.72-.72 0-.404-.305-.742-.72-.742s-.72.338-.72.742c0 .393.306.72.72.72m0 4.484c.415 0 .72-.327.72-.72 0-.404-.305-.742-.72-.742s-.72.338-.72.742c0 .393.306.72.72.72"/><path id="a" d="m2.422-3.131 1.244-3.775L4.92-3.131zm4.342 2.63L4.2-8.03h-.61L1.07-.524l-.983.131V0h2.619v-.393L1.56-.535l.71-2.149h2.803l.72 2.171-1.2.12V0h3.153v-.393z"/><path id="b" d="M2.673-.447C2.64-1.517 2.64-2.63 2.64-3.906h.764c1.702 0 2.444.611 2.444 1.746 0 1.102-.775 1.713-2.291 1.713zm.884-7.06c1.33 0 1.942.448 1.942 1.507 0 1.112-.688 1.658-2.171 1.658H2.64c0-1.091 0-2.139.033-3.164zm-2.99-.446v.381l1.135.12c.033 1.048.033 2.117.033 3.164v.6c0 1.07 0 2.128-.033 3.175l-1.135.12V0h3.208c2.16 0 3.044-1.058 3.044-2.16 0-.993-.677-1.779-2.27-1.986 1.32-.283 1.866-1.036 1.866-1.887 0-1.146-.905-1.92-2.564-1.92z"/><path id="c" d="M6.404-2.138 6.142-.655a3.4 3.4 0 0 1-1.505.339c-1.735 0-2.968-1.31-2.968-3.666 0-2.335 1.31-3.666 3.044-3.666.437 0 .873.098 1.32.338l.262 1.473h.6L6.851-7.55c-.774-.458-1.549-.589-2.258-.589C2.291-8.139.6-6.393.6-3.982.6-1.538 2.215.175 4.593.175c.84 0 1.626-.164 2.368-.59l.032-1.723z"/><path id="d" d="M2.673-.447C2.64-1.527 2.64-2.63 2.64-3.862v-.393c0-1.113 0-2.204.033-3.251h1.113c1.898 0 2.967 1.233 2.967 3.535 0 2.204-1.069 3.524-3.087 3.524zM.567-7.953v.381l1.135.12c.033 1.048.033 2.117.033 3.197v.393c0 1.233 0 2.313-.033 3.35l-1.135.12V0h3.197c2.367 0 4.037-1.451 4.037-3.971 0-2.575-1.528-3.982-3.84-3.982z"/><path id="p" d="M4.833-7.386c-.6.033-2.695.076-3.11.076-.261 0-.654-.022-.937-.076l-.077.142c0 .032 0 .065.033.098.229.175.545.35.84.458.207-.076.6-.153.818-.163.306-.033 1.735-.055 2.368-.055-.644 1.79-2.171 3.797-4.244 5.335-.044.044-.033.065 0 .098l.13.12c.033.022.066.022.099-.01 2.4-1.343 4.364-3.547 4.931-5.5l.196-.305c.022-.054.022-.109-.01-.142a7 7 0 0 0-.491-.25.27.27 0 0 0-.186 0zm4.179 2.793-.775.033v-3.666l.033-.578c0-.11-.033-.186-.131-.219-.317-.13-1.004-.272-1.397-.283-.087 0-.109.022-.12.054l-.087.262c.393.131.742.327.927.557V-.83c0 .48.033 1.55.066 2.007h.458c.153-.622.251-1.647.251-2.28v-2.99l1.898-.032c.077 0 .164-.01.208-.055.076-.043.142-.196.13-.392 0-.077-.065-.153-.152-.175-.197-.043-.644-.065-.96-.054z"/><path id="q" d="M7.648-8.99c.349.12.676.306.85.524v7.735c0 .47.023 1.484.066 1.91h.437c.163-.59.262-1.572.262-2.172v-7.299l.021-.534c.011-.098-.021-.175-.13-.207-.273-.131-.928-.262-1.299-.273-.076 0-.109.022-.13.065zm-1.877.775c.317.098.622.273.775.469v1.91c-.491.032-1.211.054-1.538.054-.11 0-.219 0-.328-.011.131-.317.23-.622.306-.928l.185-.327c.022-.054.022-.087-.01-.13a9 9 0 0 0-.459-.23.5.5 0 0 0-.174 0l-.328.186c-.48.032-2.16.065-2.498.054-.24 0-.6-.01-.862-.044l-.065.11c-.011.032-.011.065.032.109.197.163.491.338.764.447.186-.076.556-.153.764-.164a28 28 0 0 1 1.778-.032c-.49 1.69-1.79 3.687-3.557 5.193-.032.043-.021.076.011.098l.131.13c.033.012.066 0 .11-.032C2.4-2.389 3.763-3.917 4.494-5.41c.12.076.25.141.382.207.185-.076.447-.131.633-.142a14 14 0 0 1 1.036-.033v1.724c-.524.033-1.342.044-1.691.044-.24 0-.524-.022-.753-.055l-.065.11c-.011.043 0 .076.032.108.175.153.404.306.666.415a2.4 2.4 0 0 1 .622-.13c.24-.023.796-.034 1.189-.045v1.746c0 .458.022 1.407.065 1.855h.426c.153-.578.25-1.528.25-2.117v-5.87l.023-.48c0-.098-.033-.163-.12-.207-.262-.12-.862-.24-1.2-.25-.077 0-.12.021-.131.054z"/><path id="e" d="M8.848-2.422c.01-.055.01-.098-.022-.13a5 5 0 0 0-.458-.23.24.24 0 0 0-.175 0l-.349.164c-.818.054-2.542.076-3.338.087a7.6 7.6 0 0 0-1.222-.12c-.066 0-.087.022-.098.054l-.055.208c.218.087.437.218.546.338L3.884.556c.01.186.055.393.11.535h.435c.055-.087.099-.175.131-.295L8.62.731c.076-.055.142-.196.142-.338a.14.14 0 0 0-.077-.131L8.477.175c.12-.72.218-1.539.262-2.226zm-4.331.382c1.058-.033 2.324-.066 3.382-.066L7.855.174 7.626.23c-.698.044-2.171.066-3.044.066zm1.658-5.75c.022-.043.022-.098-.022-.13a16 16 0 0 0-.469-.252.27.27 0 0 0-.185 0l-.35.186c-.523.033-2.618.065-3.022.065-.261 0-.632-.021-.916-.065l-.076.13q-.016.05.032.099c.219.175.535.36.819.458a3.4 3.4 0 0 1 .785-.163 61 61 0 0 1 2.302-.055C4.353-5.88 2.782-4.08.731-2.727c-.033.032-.033.065-.01.087l.14.142c.023.021.066.01.11-.022C3.317-3.677 5.302-5.64 5.99-7.462zM8.03-4.735c0 .426.022 1.2.065 1.56h.458c.164-.414.251-1.134.251-1.8v-3.262l.033-.567c0-.11-.033-.186-.13-.219-.317-.13-.994-.272-1.386-.283-.088 0-.11.022-.12.054l-.088.262c.382.131.731.327.917.557z"/><path id="n" d="M9.012-6.033 8.237-6v-2.237l.033-.567c0-.11-.044-.186-.131-.219-.317-.13-.993-.272-1.386-.283-.087 0-.109.022-.13.054l-.077.262c.382.131.731.327.916.557V-5.5c-1.472.415-3.73.71-5.062.731-.142.011-.196-.043-.196-.185v-2.368l.022-.534c0-.11-.055-.175-.164-.207-.273-.055-.884-.099-1.233-.099-.065 0-.109.022-.12.066l-.043.262c.272.076.578.207.752.338v2.378c0 .207.011.393.044.491.12.327.35.546.71.546.108 0 .228-.011.36-.022 1.385-.098 3.403-.458 4.93-.96 0 .403.011 1.134.066 1.484h.458c.153-.382.251-1.08.251-1.724v-.218l1.898-.033a.4.4 0 0 0 .208-.055c.076-.054.142-.196.13-.393 0-.087-.065-.152-.152-.185-.197-.044-.644-.065-.96-.055zM7.452.349c-.622.033-2.63.044-3.426.033q-.197 0-.197-.197V-.938l4.223-.055c.054-.043.098-.153.098-.273 0-.043-.011-.076-.055-.098L7.9-1.462c.087-.284.196-.85.218-1.19l.131-.261c.022-.055.022-.11-.033-.142a2.5 2.5 0 0 0-.414-.218c-.066-.022-.131-.022-.175 0L7.3-3.12c-.666.032-3.306.065-3.873.065-.273 0-.688-.043-.982-.098l-.066.12c-.01.033-.01.065.033.11.24.163.535.348.884.468.262-.087.665-.163.873-.174a127 127 0 0 1 3.087-.044c.011.273 0 .916-.022 1.2l-.174.055c-.426.022-2.477.043-3.208.043a16 16 0 0 0-1.287-.054c-.066 0-.098.022-.11.054l-.032.208c.24.043.47.141.611.272V.164c0 .49.196.687.807.687L8.608.829c.055 0 .11-.01.153-.054a.7.7 0 0 0 .098-.371c0-.077-.055-.131-.131-.153a5 5 0 0 0-.95-.066z"/><path id="r" d="M8.553-1.298c-.327.022-1.538.043-2.869.065v-2.564L8.38-3.84c.054 0 .109-.022.142-.055.054-.044.109-.174.109-.36 0-.076-.055-.13-.142-.153-.207-.043-.71-.076-1.026-.076l-.327.175c-.698.043-2.902.076-3.666.065-.185 0-.25-.076-.25-.262v-2.738l5.05-.098c.077 0 .132-.011.164-.055.055-.055.11-.196.11-.36 0-.087-.055-.142-.142-.164a8 8 0 0 0-1.037-.054l-.338.174c-.6.033-2.793.066-3.797.077a12 12 0 0 0-1.418-.11c-.065 0-.098.022-.109.066l-.055.24c.295.076.579.186.775.327v2.542c0 .611.262.895.927.895l1.571-.022v2.564a344 344 0 0 1-3.349.033c-.338 0-.85-.044-1.211-.11l-.076.153q-.016.066.032.099c.273.229.677.447 1.07.578a6 6 0 0 1 1.09-.218c.579-.033 5.576-.099 6.34-.088.327 0 .97.022 1.265.055.098-.044.229-.218.229-.404 0-.087-.066-.152-.142-.174-.25-.088-.829-.153-1.222-.164z"/><path id="g" d="M8.553-3.731c-.763.043-6.316.12-6.982.109-.338 0-.85-.044-1.211-.12l-.076.164q-.016.048.032.098c.273.218.677.447 1.07.567a6 6 0 0 1 1.09-.207c.579-.044 5.576-.098 6.34-.088.327 0 .97.022 1.265.055a.5.5 0 0 0 .229-.404c0-.098-.066-.152-.142-.185-.25-.076-.829-.142-1.222-.164zm-1.45 1.56c-.84.044-2.652.065-3.514.065a9 9 0 0 0-1.21-.109c-.066 0-.088.011-.099.044l-.065.218c.218.076.436.207.556.327L2.946.622c.022.196.065.393.12.524h.425a.7.7 0 0 0 .131-.284L7.888.807c.065-.054.13-.196.13-.349 0-.054-.01-.098-.076-.12L7.757.251c.12-.611.196-1.266.24-1.855l.11-.37c.021-.055.01-.11-.023-.132a3 3 0 0 0-.458-.229.24.24 0 0 0-.174 0zm-3.492.556c1.091-.022 2.444-.043 3.546-.043L7.124.24l-.218.065C6.164.35 4.604.371 3.655.36zM2.487-5.302c0 .48.186.665.764.676l5.019-.076a.18.18 0 0 0 .13-.055c.055-.043.11-.174.11-.349 0-.076-.055-.12-.131-.142a5 5 0 0 0-.95-.065l-.316.163c-.643.044-2.738.077-3.633.077-.142 0-.185-.055-.185-.186v-1.123l4.637-.077c.043-.032.098-.142.098-.262 0-.032-.022-.065-.055-.087l-.218-.109c.087-.273.196-.818.218-1.145l.131-.262a.12.12 0 0 0-.022-.142 7 7 0 0 0-.414-.23.24.24 0 0 0-.175 0l-.316.153c-.666.033-3.546.088-4.135.077-.273 0-.72-.033-1.015-.098l-.065.12c-.011.032-.011.065.033.109.24.174.567.36.916.48.284-.077.71-.153.906-.164a96 96 0 0 1 3.283-.054c.011.25 0 .872-.032 1.145l-.175.055c-.458.032-2.75.065-3.59.076a16 16 0 0 0-1.287-.054c-.065 0-.098.021-.109.054l-.043.207c.25.044.48.142.621.273z"/><path id="f" d="M6.077-4.91c0-1.374-1.058-2.334-2.499-2.334-1.45 0-2.52.96-2.52 2.334 0 1.386 1.07 2.357 2.52 2.357 1.44 0 2.499-.97 2.499-2.357m-.807 0c0 1.102-.731 1.746-1.692 1.746s-1.69-.644-1.69-1.746c0-1.08.73-1.734 1.69-1.734S5.27-5.99 5.27-4.91m3.283 6.088c.153-.622.262-1.647.262-2.28v-7.124l.022-.578c0-.11-.033-.186-.13-.219-.317-.13-.994-.272-1.397-.283-.088 0-.11.022-.12.054l-.088.262c.393.131.742.327.939.557V-.83c0 .48.021 1.55.054 2.007z"/><path id="o" d="M9.012-4.68 8.4-4.66v-3.578l.022-.567c0-.11-.033-.186-.131-.219-.306-.13-.982-.272-1.375-.283-.087 0-.11.022-.12.054l-.087.262c.381.131.72.327.916.557V-.83c0 .48.022 1.55.066 2.007h.447c.153-.622.262-1.647.262-2.28v-3.077l1.734-.032a.4.4 0 0 0 .208-.055c.076-.054.142-.196.13-.393 0-.076-.065-.152-.152-.174-.197-.044-.644-.066-.96-.055zM6.306-3.677l-.753-.84c.426-.785.72-1.582.851-2.302l.153-.349c.022-.054.01-.098-.022-.13a2 2 0 0 0-.393-.24c-.043-.034-.13-.034-.185 0l-.36.185a37 37 0 0 1-1.451.032h-.218a2.4 2.4 0 0 0-.371-.24.24.24 0 0 0-.175 0l-.37.197c-.36.032-1.375.043-1.616.043-.174 0-.425-.01-.6-.043l-.076.12c-.01.022 0 .054.033.087.142.142.349.295.545.393.142-.066.426-.11.568-.12.152-.011.796-.022 1.102-.011C2.575-5.445 1.593-3.644.24-2.313c-.022.055-.01.076.022.098l.13.098c.023.011.066 0 .11-.032a10 10 0 0 0 2.127-2.226l.906 1.146c.054.065.12.152.185.174.033.011.077.022.12.011a13.3 13.3 0 0 1-1.418 1.811c-.022.044-.01.077.022.098l.12.099c.022.01.065 0 .109-.044 1.025-.807 1.931-1.866 2.597-2.957l1.276 1.582a.5.5 0 0 0 .207.197c.11.043.306-.022.382-.142.044-.066.033-.153-.01-.273a4 4 0 0 0-.36-.753zm-2.247.262a6 6 0 0 0-.284-.709l-.404-.207-.447-.48c.425-.688.742-1.386.894-2.019l.022-.065c.077.044.142.087.219.12.12-.044.403-.098.534-.098.131-.022.687-.022.95-.011-.252 1.069-.764 2.302-1.484 3.48z"/><use xlink:href="#a" id="j" transform="scale(1.09624)"/><use xlink:href="#b" id="k" transform="scale(1.09624)"/><use xlink:href="#c" id="l" transform="scale(1.09624)"/><use xlink:href="#d" id="m" transform="scale(1.09624)"/><use xlink:href="#e" id="i" transform="scale(1.09624)"/></defs><g transform="translate(20.976 76.065)scale(1.00008)"><use xlink:href="#f" x="3.730308" y="-50.984206"/><use xlink:href="#g" x="14.269367" y="-50.984206"/><use xlink:href="#h" x="24.808429" y="-50.984206"/></g><g transform="translate(60.385 76.502)scale(1.0004)"><use xlink:href="#i" x="-5.65527" y="-51.000468"/><use xlink:href="#j" x="8.971811" y="-51.000468"/></g><g transform="translate(111.673 76.502)scale(1.0004)"><use xlink:href="#i" x="-5.65527" y="-51.000468"/><use xlink:href="#k" x="8.971811" y="-51.000468"/></g><path fill="none" stroke="#000" stroke-miterlimit="10" stroke-width=".3985" d="M82.146 21.021h16.02"/><path d="M101.268 21.021 96.8 19.339l1.466 1.682-1.466 1.682Z"/><path fill="none" stroke="#000" stroke-miterlimit="10" stroke-width=".3985" d="M101.268 21.021 96.8 19.339l1.466 1.682-1.466 1.682Z"/><g transform="translate(162.607 76.502)scale(1.0004)"><use xlink:href="#i" x="-5.65527" y="-51.000468"/><use xlink:href="#l" x="8.971811" y="-51.000468"/></g><path fill="none" stroke="#000" stroke-miterlimit="10" stroke-width=".3985" d="M132.907 21.021H149.1"/><path d="m152.203 21.021-4.468-1.682 1.466 1.682-1.466 1.682Z"/><path fill="none" stroke="#000" stroke-miterlimit="10" stroke-width=".3985" d="m152.203 21.021-4.468-1.682 1.466 1.682-1.466 1.682Z"/><g transform="translate(213.141 76.502)scale(1.0004)"><use xlink:href="#i" x="-5.65527" y="-51.000468"/><use xlink:href="#m" x="8.971811" y="-51.000468"/></g><path fill="none" stroke="#000" stroke-miterlimit="10" stroke-width=".3985" d="M184.02 21.021h15.615"/><path d="m202.737 21.021-4.468-1.682 1.466 1.682-1.466 1.682Z"/><path fill="none" stroke="#000" stroke-miterlimit="10" stroke-width=".3985" d="m202.737 21.021-4.468-1.682 1.466 1.682-1.466 1.682Z"/><g transform="translate(20.976 104.411)scale(1.00008)"><use xlink:href="#n" x="3.730308" y="-50.984206"/><use xlink:href="#o" x="14.269367" y="-50.984206"/><use xlink:href="#h" x="24.808429" y="-50.984206"/></g><g transform="translate(60.385 104.849)scale(1.0004)"><use xlink:href="#i" x="-5.65527" y="-51.000468"/><use xlink:href="#j" x="8.971811" y="-51.000468"/></g><g transform="translate(111.583 104.849)scale(1.0004)"><use xlink:href="#i" x="-5.65527" y="-51.000468"/><use xlink:href="#l" x="8.971811" y="-51.000468"/></g><path fill="none" stroke="#000" stroke-miterlimit="10" stroke-width=".3985" d="M82.146 49.368h15.93"/><path d="m101.179 49.368-4.468-1.682 1.466 1.682-1.466 1.682Z"/><path fill="none" stroke="#000" stroke-miterlimit="10" stroke-width=".3985" d="m101.179 49.368-4.468-1.682 1.466 1.682-1.466 1.682Z"/><g transform="translate(162.697 104.849)scale(1.0004)"><use xlink:href="#i" x="-5.65527" y="-51.000468"/><use xlink:href="#k" x="8.971811" y="-51.000468"/></g><path fill="none" stroke="#000" stroke-miterlimit="10" stroke-width=".3985" d="M132.996 49.368h16.195"/><path d="m152.293 49.368-4.468-1.682 1.465 1.682-1.465 1.682Z"/><path fill="none" stroke="#000" stroke-miterlimit="10" stroke-width=".3985" d="m152.293 49.368-4.468-1.682 1.465 1.682-1.465 1.682Z"/><g transform="translate(213.141 104.849)scale(1.0004)"><use xlink:href="#i" x="-5.65527" y="-51.000468"/><use xlink:href="#m" x="8.971811" y="-51.000468"/></g><path fill="none" stroke="#000" stroke-miterlimit="10" stroke-width=".3985" d="M183.931 49.368h15.704"/><path d="m202.737 49.368-4.468-1.682 1.466 1.682-1.466 1.682Z"/><path fill="none" stroke="#000" stroke-miterlimit="10" stroke-width=".3985" d="m202.737 49.368-4.468-1.682 1.466 1.682-1.466 1.682Z"/><g transform="translate(20.976 146.932)scale(1.00008)"><use xlink:href="#p" x="-5.653466" y="-50.984206"/><use xlink:href="#q" x="4.885594" y="-50.984206"/><use xlink:href="#r" x="15.424654" y="-50.984206"/><use xlink:href="#h" x="25.963715" y="-50.984206"/></g><g transform="translate(60.385 147.369)scale(1.0004)"><use xlink:href="#i" x="-5.65527" y="-51.000468"/><use xlink:href="#j" x="8.971811" y="-51.000468"/></g><g transform="translate(111.583 161.543)scale(1.0004)"><use xlink:href="#i" x="-5.65527" y="-51.000468"/><use xlink:href="#l" x="8.971811" y="-51.000468"/></g><path fill="none" stroke="#000" stroke-miterlimit="10" stroke-width=".3985" d="m82.146 96.276 16.065 4.465"/><path d="m101.2 101.571-3.855-2.816.962 2.013-1.862 1.228Z"/><path fill="none" stroke="#000" stroke-miterlimit="10" stroke-width=".398471" d="m101.2 101.571-3.855-2.816.962 2.013-1.862 1.228Z"/><g transform="translate(111.673 133.196)scale(1.0004)"><use xlink:href="#i" x="-5.65527" y="-51.000468"/><use xlink:href="#k" x="8.971811" y="-51.000468"/></g><path fill="none" stroke="#000" stroke-miterlimit="10" stroke-width=".3985" d="M82.146 87.5 98.3 83.01"/><path d="m101.289 82.18-4.755-.424 1.863 1.228-.962 2.012Z"/><path fill="none" stroke="#000" stroke-miterlimit="10" stroke-width=".398475" d="m101.289 82.18-4.755-.424 1.863 1.228-.962 2.012Z"/><g transform="translate(162.117 133.196)scale(1.0004)"><use xlink:href="#i" x="-5.65527" y="-51.000468"/><use xlink:href="#m" x="8.971811" y="-51.000468"/></g><path fill="none" stroke="#000" stroke-miterlimit="10" stroke-width=".3985" d="M132.907 77.715h15.704"/><path d="m151.713 77.715-4.468-1.682 1.466 1.682-1.466 1.682Z"/><path fill="none" stroke="#000" stroke-miterlimit="10" stroke-width=".3985" d="m151.713 77.715-4.468-1.682 1.466 1.682-1.466 1.682Z"/></svg>