<svg xmlns="http://www.w3.org/2000/svg" xmlns:xlink="http://www.w3.org/1999/xlink" width="447.97pt" height="238.44pt" viewBox="0 0 447.97 238.44"><defs><path id="Z" d="M2.095-2.727c0-.317-.262-.579-.579-.579s-.578.262-.578.579.262.578.578.578.579-.262.579-.578"/><path id="ac" d="M1.722-.263c.3.275.742.383 1.148.383.766 0 1.292-.515 1.567-.885.12.633.622.885 1.04.885q.54 0 .862-.646c.191-.407.359-1.136.359-1.184 0-.06-.048-.108-.12-.108-.108 0-.12.06-.167.24-.18.705-.407 1.458-.897 1.458-.347 0-.371-.31-.371-.55 0-.275.107-.705.191-1.064l.335-1.292c.048-.227.18-.765.24-.98.071-.288.203-.802.203-.85 0-.18-.144-.299-.323-.299-.108 0-.36.048-.455.407l-.837 3.325c-.06.239-.06.263-.215.454-.144.204-.61.85-1.364.85-.67 0-.885-.491-.885-1.053 0-.347.108-.766.156-.969l.538-2.153c.06-.227.155-.61.155-.681 0-.192-.155-.3-.31-.3-.108 0-.371.037-.467.42L.371 2.068c-.012.06-.036.132-.036.203 0 .18.143.3.323.3.347 0 .418-.276.502-.61z"/><path id="C" d="M2.464-3.504c.024-.072.323-.67.765-1.053a1.74 1.74 0 0 1 1.184-.478c.479 0 .646.359.646.837 0 .682-.49 2.045-.73 2.691-.107.287-.167.443-.167.658 0 .538.37.969.945.969 1.112 0 1.53-1.759 1.53-1.83 0-.06-.047-.108-.119-.108-.107 0-.12.036-.18.24C6.065-.599 5.61-.12 5.144-.12c-.12 0-.311-.012-.311-.394 0-.3.131-.658.203-.826.24-.657.742-1.997.742-2.679 0-.717-.419-1.255-1.328-1.255-1.064 0-1.626.753-1.842 1.052-.036-.682-.526-1.052-1.052-1.052-.383 0-.646.227-.85.634C.49-4.21.324-3.492.324-3.444s.048.107.131.107c.096 0 .108-.012.18-.287.191-.73.407-1.411.885-1.411.275 0 .37.191.37.55 0 .263-.119.73-.203 1.1l-.335 1.292c-.047.227-.179.765-.239.98C1.03-.8.897-.238.897-.178c0 .167.132.299.311.299a.46.46 0 0 0 .407-.252c.024-.06.131-.478.191-.717l.263-1.077z"/><path id="I" d="M2.404-4.808h1.1c.228 0 .347 0 .347-.215 0-.132-.072-.132-.31-.132H2.487L2.93-6.9c.048-.167.048-.191.048-.275 0-.191-.155-.299-.31-.299-.097 0-.372.036-.467.419l-.467 1.901H.61c-.24 0-.347 0-.347.227 0 .12.084.12.311.12H1.64L.849-1.65c-.096.418-.131.538-.131.693C.718-.395 1.112.12 1.782.12c1.208 0 1.854-1.747 1.854-1.83 0-.072-.048-.108-.12-.108-.024 0-.072 0-.095.048-.012.012-.024.024-.108.215C3.062-.957 2.512-.12 1.818-.12c-.359 0-.383-.299-.383-.562 0-.012 0-.239.036-.382z"/><path id="v" d="M5.669-1.064v-.67h-.263v.67c0 .681-.287.777-.455.777-.454 0-.454-.634-.454-.813v-2.093c0-.646 0-1.125-.526-1.591-.419-.383-.957-.55-1.483-.55-.981 0-1.735.646-1.735 1.423 0 .347.228.514.503.514.287 0 .49-.203.49-.49 0-.49-.43-.49-.61-.49.275-.503.85-.718 1.328-.718.55 0 1.256.455 1.256 1.53v.48C1.316-3.05.407-2.046.407-1.126c0 .946 1.1 1.245 1.83 1.245A1.63 1.63 0 0 0 3.79-.933c.048.562.419.993.933.993.251 0 .945-.168.945-1.124m-1.95-.622C3.72-.514 2.847-.12 2.333-.12c-.586 0-1.076-.43-1.076-1.004 0-1.579 2.033-1.722 2.464-1.746z"/><path id="S" d="M7.63-2.189c0-.968-.873-1.925-2.296-2.08 1.136-.216 1.962-.981 1.962-1.878 0-1.029-1.04-2.022-2.608-2.022H.514v.347h.24c.86 0 .896.12.896.562v6.351c0 .443-.035.562-.897.562H.514V0h4.497c1.543 0 2.62-1.04 2.62-2.189M6.243-6.147c0 .789-.622 1.782-1.95 1.782H2.56v-2.978c0-.395.024-.479.55-.479h1.508c1.196 0 1.626 1.029 1.626 1.675m.3 3.946c0 .97-.73 1.854-1.903 1.854H3.11c-.527 0-.55-.084-.55-.478v-3.301h2.236c1.148 0 1.746 1.004 1.746 1.925"/><path id="U" d="M4.856-1.423c0-.108-.084-.108-.12-.108-.107 0-.12.036-.155.18-.263.849-.91 1.207-1.555 1.207-.73 0-1.698-.633-1.698-2.451 0-1.986 1.016-2.476 1.614-2.476.455 0 1.112.18 1.388.646-.144 0-.587 0-.587.49 0 .287.204.49.49.49.276 0 .503-.167.503-.514 0-.801-.837-1.375-1.806-1.375C1.53-5.334.42-4.09.42-2.584.419-1.051 1.567.12 2.919.12c1.578 0 1.937-1.436 1.937-1.543"/><path id="F" d="M6.16 0v-.347c-.814 0-.91-.084-.91-.67V-8.3l-1.662.131v.347c.813 0 .909.084.909.67v2.643a1.86 1.86 0 0 0-1.495-.765C1.615-5.274.419-4.102.419-2.571c0 1.519 1.136 2.69 2.451 2.69.91 0 1.436-.597 1.603-.825V.12zM4.472-1.4c0 .216 0 .252-.167.515-.287.419-.778.765-1.376.765-.31 0-1.602-.12-1.602-2.44 0-.86.143-1.339.406-1.734.24-.37.718-.741 1.316-.741.741 0 1.16.538 1.28.73.143.203.143.227.143.442z"/><path id="B" d="M4.868-1.423c0-.072-.06-.12-.132-.12-.096 0-.12.06-.143.12C4.282-.42 3.48-.143 2.978-.143s-1.71-.335-1.71-2.404v-.228H4.58c.263 0 .287 0 .287-.227 0-1.208-.646-2.332-2.093-2.332C1.41-5.334.359-4.102.359-2.62.359-1.041 1.579.12 2.906.12c1.424 0 1.962-1.292 1.962-1.543m-.742-1.579H1.28c.095-1.878 1.148-2.093 1.483-2.093 1.28 0 1.351 1.686 1.363 2.093"/><path id="T" d="M3.241-2.26v-.646H.131v.646z"/><path id="N" d="M3.791 0v-.347h-.263c-.897 0-.933-.12-.933-.562v-6.35c0-.443.036-.563.933-.563h.263v-.347c-.287.024-1.315.024-1.674.024s-1.4 0-1.686-.024v.347h.263c.897 0 .933.12.933.562v6.351c0 .443-.036.562-.933.562H.43V0c.287-.024 1.315-.024 1.674-.024s1.4 0 1.686.024"/><path id="z" d="M2.882 0v-.347c-.777 0-.825-.06-.825-.526v-4.401l-1.626.131v.347c.765 0 .873.072.873.658v3.253c0 .538-.132.538-.91.538V0c.336-.024.91-.024 1.256-.024.132 0 .826 0 1.232.024m-.67-7.224a.58.58 0 1 0-.586.574.576.576 0 0 0 .587-.574"/><path id="D" d="M2.966 0v-.347c-.765 0-.909 0-.909-.538V-8.3L.395-8.17v.347c.813 0 .909.084.909.67v6.267c0 .538-.132.538-.91.538V0c.336-.024.922-.024 1.28-.024s.957 0 1.292.024"/><path id="H" d="M9.484 0v-.347c-.598 0-.897 0-.909-.359v-2.2c0-1.113 0-1.447-.275-1.83-.347-.467-.909-.538-1.315-.538-.993 0-1.495.717-1.687 1.184-.167-.921-.813-1.184-1.566-1.184-1.16 0-1.615.992-1.71 1.232h-.013v-1.232l-1.626.131v.347c.813 0 .909.084.909.67v3.241c0 .538-.132.538-.91.538V0c.312-.024.958-.024 1.292-.024.347 0 .993 0 1.304.024v-.347c-.765 0-.909 0-.909-.538V-3.11c0-1.255.825-1.925 1.567-1.925s.909.61.909 1.34v2.81c0 .538-.132.538-.91.538V0c.312-.024.958-.024 1.293-.024.346 0 .992 0 1.303.024v-.347c-.765 0-.909 0-.909-.538V-3.11c0-1.255.825-1.925 1.567-1.925s.909.61.909 1.34v2.81c0 .538-.132.538-.909.538V0c.31-.024.957-.024 1.292-.024.346 0 .992 0 1.303.024"/><path id="O" d="M6.231 0v-.347c-.598 0-.897 0-.909-.359v-2.2c0-1.113 0-1.447-.275-1.83-.347-.467-.909-.538-1.315-.538-1.16 0-1.615.992-1.71 1.232h-.013v-1.232l-1.626.131v.347c.813 0 .909.084.909.67v3.241c0 .538-.132.538-.91.538V0c.312-.024.958-.024 1.292-.024.347 0 .993 0 1.304.024v-.347c-.765 0-.909 0-.909-.538V-3.11c0-1.255.825-1.925 1.567-1.925s.909.61.909 1.34v2.81c0 .538-.132.538-.91.538V0c.312-.024.958-.024 1.293-.024.346 0 .992 0 1.303.024"/><path id="P" d="M5.49-2.56c0-1.542-1.172-2.774-2.56-2.774C1.495-5.334.36-4.066.36-2.56.359-1.03 1.555.12 2.919.12c1.41 0 2.57-1.172 2.57-2.68m-.91-.107c0 .419 0 1.16-.31 1.722a1.56 1.56 0 0 1-1.34.801c-.442 0-.98-.19-1.327-.777-.323-.538-.335-1.244-.335-1.746 0-.455 0-1.184.37-1.722a1.53 1.53 0 0 1 1.28-.706c.467 0 .969.215 1.292.682.37.55.37 1.303.37 1.746"/><path id="E" d="M6.076-2.583c0-1.52-1.125-2.691-2.428-2.691-1.053 0-1.615.753-1.65.801v-.801l-1.663.131v.347c.837 0 .909.084.909.61v5.621c0 .538-.132.538-.91.538v.347c.312-.024.958-.024 1.293-.024.346 0 .992 0 1.303.024v-.347c-.765 0-.909 0-.909-.538v-2.08c.216.298.706.765 1.471.765 1.376 0 2.584-1.16 2.584-2.703m-.91 0c0 1.423-.813 2.463-1.733 2.463a1.4 1.4 0 0 1-.957-.382c-.275-.275-.455-.515-.455-.85v-2.463c0-.227 0-.24.132-.43a1.72 1.72 0 0 1 1.4-.766c.896 0 1.614 1.088 1.614 2.428"/><path id="R" d="M3.887 2.906c0-.036 0-.06-.203-.263C2.488 1.435 1.818-.538 1.818-2.978c0-2.32.562-4.318 1.95-5.729.119-.108.119-.131.119-.167 0-.072-.06-.096-.108-.096-.155 0-1.136.861-1.722 2.033-.61 1.208-.885 2.488-.885 3.959 0 1.064.168 2.488.79 3.767.705 1.436 1.686 2.213 1.817 2.213.048 0 .108-.024.108-.096"/><path id="V" d="M3.373-2.978c0-.909-.12-2.392-.79-3.78C1.878-8.192.897-8.97.765-8.97c-.047 0-.107.024-.107.096 0 .036 0 .06.203.263C2.057-7.403 2.727-5.43 2.727-2.99c0 2.32-.562 4.318-1.95 5.729-.12.107-.12.131-.12.167 0 .072.06.096.108.096.156 0 1.137-.861 1.723-2.033.61-1.22.885-2.512.885-3.947"/><path id="w" d="M4.222-4.58c0-.36-.323-.694-.837-.694-1.017 0-1.364 1.1-1.436 1.327h-.011v-1.327l-1.603.131v.347c.813 0 .909.084.909.67v3.241c0 .538-.132.538-.91.538V0c.336-.024.994-.024 1.352-.024.323 0 1.172 0 1.448.024v-.347h-.24c-.873 0-.897-.131-.897-.562v-1.878c0-1.16.479-2.248 1.4-2.248.095 0 .12 0 .167.012-.096.048-.287.12-.287.442a.46.46 0 0 0 .466.479c.24 0 .479-.156.479-.479"/><path id="Q" d="M5.848-2.2c0-.73-.275-1.268-.598-1.663-.442-.538-.98-.67-1.447-.79l-1.315-.334c-.61-.156-1.148-.754-1.148-1.52 0-.836.67-1.59 1.602-1.59 1.962 0 2.225 1.938 2.296 2.452.024.143.024.191.144.191.132 0 .132-.06.132-.275v-2.416c0-.215 0-.275-.12-.275-.036 0-.084 0-.167.156l-.395.73c-.574-.742-1.364-.886-1.89-.886A2.28 2.28 0 0 0 .646-6.135c0 .574.203 1.1.646 1.578.418.467.837.574 1.686.79.419.095 1.076.263 1.244.334.562.276.933.921.933 1.591 0 .897-.634 1.746-1.627 1.746-.538 0-1.28-.131-1.866-.646C.97-1.363.921-2.225.91-2.619c-.012-.096-.132-.096-.132-.096-.131 0-.131.06-.131.275v2.416c0 .215 0 .275.12.275.071 0 .083-.024.167-.167l.395-.718c.43.479 1.184.885 2.212.885C4.88.251 5.848-.885 5.848-2.2"/><path id="y" d="M4.21-1.519c0-.646-.395-1.028-.502-1.136-.431-.37-.754-.443-1.543-.586-.359-.072-1.232-.24-1.232-.957 0-.37.251-.92 1.327-.92 1.304 0 1.376 1.111 1.4 1.482.012.096.095.096.131.096.132 0 .132-.06.132-.275V-5.06c0-.215 0-.275-.12-.275-.095 0-.323.263-.406.37-.371-.298-.742-.37-1.125-.37-1.447 0-1.877.79-1.877 1.447 0 .132 0 .55.454.969.383.335.79.418 1.34.526.657.132.813.167 1.112.407.215.179.37.442.37.777 0 .514-.298 1.088-1.35 1.088C1.53-.12.956-.574.693-1.77c-.048-.215-.06-.24-.06-.24-.024-.047-.072-.047-.108-.047-.131 0-.131.06-.131.275v1.627c0 .215 0 .275.12.275.06 0 .071-.012.274-.264.06-.083.06-.107.24-.299.454.563 1.1.563 1.303.563C3.588.12 4.21-.574 4.21-1.52"/><path id="G" d="M3.899-1.483v-.682h-.263v.658c0 .861-.347 1.363-.813 1.363-.814 0-.814-1.112-.814-1.315v-3.349h1.687v-.347H2.009v-2.2h-.263c-.012 1.124-.442 2.272-1.53 2.308v.24h1.016v3.324C1.232-.155 2.117.12 2.75.12c.753 0 1.148-.742 1.148-1.603"/><path id="ad" d="M11.816-7.822v-.347c-.514.024-.538.024-1.064.024-.31 0-.957 0-1.244-.024v.347c.73.012.945.395.945.634 0 .06-.036.156-.06.24L8.575-1.28 6.638-7.296a1 1 0 0 1-.036-.167c0-.359.634-.359.92-.359v-.347c-.286.024-1.171.024-1.518.024s-1.076 0-1.387-.024v.347c.633 0 .8.036.932.251.084.156.168.527.323.957L4.162-1.28 2.248-7.236c-.06-.167-.06-.191-.06-.227 0-.359.61-.359.922-.359v-.347c-.275.024-1.184.024-1.52.024-.346 0-1.076 0-1.387-.024v.347c.646 0 .873 0 1.017.455L3.588.023c.06.18.108.228.215.228.096 0 .156-.036.216-.215l1.985-6.207L8 .036c.06.18.12.215.216.215.107 0 .155-.048.215-.227l2.248-7.02c.192-.575.538-.814 1.136-.826"/><path id="x" d="M5.956-4.808v-.347c-.347.024-.514.024-.897.024l-.969-.024v.347c.443.024.55.3.55.514 0 .108-.023.168-.071.287L3.349-.993 2.02-4.246c-.072-.167-.072-.251-.072-.251 0-.31.42-.31.658-.31v-.348c-.31.024-.897.024-1.232.024l-1.16-.024v.347c.694 0 .79.06.945.43L2.942 0c-.526 1.268-.526 1.292-.574 1.387-.203.36-.526.814-1.064.814-.371 0-.598-.216-.598-.216s.418-.047.418-.466a.433.433 0 0 0-.442-.443c-.204 0-.455.12-.455.467 0 .454.443.897 1.077.897.67 0 1.16-.586 1.47-1.34l2.07-5.095c.323-.801.885-.813 1.112-.813"/><path id="A" d="M4.7-2.2h-.263C4.33-.838 4.127-.264 2.703-.264H1.256l3.3-4.557c.108-.131.108-.155.108-.203 0-.132-.083-.132-.287-.132H.622L.49-3.253h.263c.072-1.22.3-1.663 1.603-1.663h1.387l-3.42 4.7C.323 0 .347 0 .61 0h3.899z"/><path id="n" d="M5.019-3.491c0-.873-.055-1.746-.437-2.553-.502-1.048-1.396-1.222-1.854-1.222-.655 0-1.452.284-1.899 1.298C.48-5.215.425-4.364.425-3.49c0 .818.044 1.8.491 2.63A2 2 0 0 0 2.716.24c.59 0 1.419-.23 1.899-1.266.35-.752.404-1.603.404-2.465M2.717 0C2.29 0 1.647-.273 1.45-1.32c-.12-.655-.12-1.658-.12-2.302 0-.698 0-1.418.087-2.008.208-1.298 1.026-1.396 1.299-1.396.36 0 1.08.196 1.287 1.276.11.611.11 1.44.11 2.128 0 .818 0 1.56-.12 2.258C3.828-.327 3.207 0 2.716 0"/><path id="aa" d="M3.208-6.982c0-.262 0-.284-.251-.284-.677.698-1.637.698-1.986.698v.338c.218 0 .862 0 1.43-.283v5.651c0 .393-.034.524-1.015.524h-.35V0c.382-.033 1.331-.033 1.768-.033s1.385 0 1.767.033v-.338h-.349c-.982 0-1.014-.12-1.014-.524z"/><path id="p" d="m1.386-.84 1.156-1.124C4.244-3.469 4.899-4.059 4.899-5.15c0-1.243-.982-2.116-2.313-2.116a2.016 2.016 0 0 0-2.04 1.975c0 .61.545.61.578.61.185 0 .567-.13.567-.578a.55.55 0 0 0-.578-.567c-.087 0-.11 0-.142.011.25-.71.84-1.113 1.473-1.113.993 0 1.462.884 1.462 1.778 0 .873-.546 1.735-1.146 2.412L.666-.404c-.12.12-.12.142-.12.404h4.047L4.9-1.898h-.273c-.055.327-.131.807-.24.97-.077.088-.797.088-1.037.088z"/><path id="q" d="M3.208-1.8v.949c0 .393-.022.513-.83.513H2.15V0c.448-.033 1.015-.033 1.473-.033s1.037 0 1.484.033v-.338h-.23c-.807 0-.828-.12-.828-.513v-.95h1.09v-.337h-1.09v-4.964c0-.219 0-.284-.175-.284-.098 0-.13 0-.218.13L.305-2.137v.338zm.065-.338H.611l2.662-4.07z"/><path id="Y" d="M4.899-2.193c0-1.298-.895-2.39-2.073-2.39-.524 0-.993.175-1.386.557v-2.127c.218.065.578.142.927.142 1.342 0 2.106-.993 2.106-1.135 0-.066-.033-.12-.109-.12-.01 0-.033 0-.087.033a3.6 3.6 0 0 1-1.484.316c-.436 0-.938-.076-1.451-.305-.087-.033-.11-.033-.131-.033-.11 0-.11.087-.11.262v3.23c0 .195 0 .283.154.283.076 0 .098-.033.141-.098.12-.175.524-.764 1.408-.764.567 0 .84.502.927.698.175.404.197.83.197 1.375 0 .382 0 1.036-.262 1.494-.262.426-.666.71-1.168.71-.796 0-1.418-.579-1.603-1.222.032.01.065.021.185.021.36 0 .546-.272.546-.534s-.186-.535-.546-.535c-.153 0-.535.077-.535.578C.546-.818 1.299.24 2.52.24 3.786.24 4.9-.807 4.9-2.193"/><path id="X" d="M5.193-6.644c.098-.131.098-.153.098-.382h-2.65c-1.332 0-1.354-.142-1.397-.35H.97l-.36 2.248h.273c.032-.174.13-.862.272-.993.077-.065.928-.065 1.07-.065h2.258c-.12.175-.982 1.364-1.222 1.724C2.28-2.99 1.92-1.472 1.92-.36c0 .11 0 .6.502.6s.502-.49.502-.6v-.556c0-.6.033-1.2.12-1.79.044-.25.196-1.189.676-1.865z"/><path id="r" d="M1.778-4.986c-.502-.327-.545-.698-.545-.884 0-.665.709-1.123 1.484-1.123.796 0 1.494.567 1.494 1.353 0 .621-.425 1.145-1.08 1.527zm1.593 1.037c.786-.404 1.32-.971 1.32-1.691 0-1.004-.97-1.626-1.963-1.626-1.092 0-1.975.807-1.975 1.822 0 .196.022.687.48 1.2.12.13.524.404.796.59-.633.316-1.57.926-1.57 2.007C.458-.491 1.57.24 2.716.24c1.232 0 2.269-.906 2.269-2.073 0-.393-.12-.884-.535-1.342-.207-.229-.382-.338-1.08-.774m-1.09.458 1.341.85c.306.208.818.535.818 1.2 0 .808-.818 1.376-1.713 1.376-.938 0-1.723-.677-1.723-1.582 0-.633.349-1.331 1.276-1.844"/><path id="m" d="M7.495-3.568c.164 0 .371 0 .371-.218s-.207-.218-.36-.218H.971c-.153 0-.36 0-.36.218s.207.218.37.218zm.011 2.117c.153 0 .36 0 .36-.218s-.207-.218-.37-.218H.981c-.164 0-.371 0-.371.218s.207.218.36.218z"/><path id="u" d="M3.897-2.542c0-.853-.087-1.371-.35-1.881-.351-.702-.997-.877-1.435-.877-1.004 0-1.37.75-1.482.972-.287.582-.303 1.371-.303 1.786 0 .526.024 1.33.406 1.968.367.59.957.741 1.38.741.382 0 1.067-.12 1.466-.908.294-.574.318-1.283.318-1.801M2.112-.056c-.27 0-.82-.127-.988-.964-.088-.454-.088-1.204-.088-1.618 0-.55 0-1.108.088-1.546.167-.813.789-.893.988-.893.271 0 .821.136.98.86.096.44.096 1.037.096 1.579 0 .47 0 1.187-.096 1.634-.167.837-.717.948-.98.948"/><path id="d" d="M2.503-5.077c0-.215-.016-.223-.232-.223-.326.319-.749.51-1.506.51v.263c.215 0 .646 0 1.108-.215v4.088c0 .295-.024.391-.781.391h-.28V0c.328-.024 1.013-.024 1.372-.024s1.052 0 1.379.024v-.263h-.28c-.757 0-.78-.096-.78-.39z"/><path id="i" d="M2.248-1.626c.127-.12.462-.382.59-.494.493-.454.964-.893.964-1.618 0-.948-.797-1.562-1.794-1.562-.956 0-1.586.725-1.586 1.435 0 .39.311.446.423.446a.41.41 0 0 0 .414-.423c0-.414-.398-.414-.494-.414a1.23 1.23 0 0 1 1.156-.781c.741 0 1.124.63 1.124 1.3 0 .828-.582 1.434-1.523 2.398L.518-.303C.422-.215.422-.199.422 0h3.149l.23-1.427h-.246c-.024.16-.088.558-.184.71-.048.063-.653.063-.78.063H1.17z"/><path id="e" d="M2.016-2.662c.63 0 1.029.462 1.029 1.3 0 .995-.566 1.29-.989 1.29-.438 0-1.036-.16-1.315-.582.287 0 .486-.183.486-.446a.423.423 0 0 0-.438-.438c-.215 0-.438.135-.438.454 0 .757.813 1.251 1.721 1.251 1.06 0 1.801-.733 1.801-1.53 0-.661-.526-1.267-1.339-1.442.63-.224 1.1-.766 1.1-1.403S2.917-5.3 2.088-5.3C1.235-5.3.59-4.838.59-4.232c0 .295.199.422.406.422a.39.39 0 0 0 .407-.406c0-.295-.255-.407-.43-.415.334-.438.948-.462 1.091-.462.207 0 .813.064.813.885 0 .558-.231.892-.343 1.02-.239.247-.422.263-.908.295-.152.008-.215.016-.215.12 0 .111.071.111.207.111z"/><path id="j" d="M3.14-5.157c0-.159 0-.223-.167-.223-.104 0-.112.008-.191.12L.239-1.57v.263h2.248v.661c0 .295-.024.383-.638.383h-.183V0c.677-.024.693-.024 1.147-.024s.47 0 1.148.024v-.263h-.183c-.614 0-.638-.088-.638-.383v-.661h.845v-.263H3.14zm-.598.646v2.94H.518z"/><path id="f" d="M1.116-4.48c.103.033.422.112.757.112.996 0 1.602-.7 1.602-.82 0-.088-.056-.112-.096-.112-.016 0-.032 0-.103.04-.311.12-.678.215-1.108.215-.47 0-.86-.12-1.108-.215C.98-5.3.964-5.3.956-5.3c-.103 0-.103.088-.103.231v2.335c0 .144 0 .24.127.24.064 0 .088-.032.128-.096.095-.12.398-.526 1.076-.526.446 0 .661.366.733.518.136.287.151.653.151.964 0 .295-.008.725-.23 1.076a1.07 1.07 0 0 1-.893.486A1.295 1.295 0 0 1 .733-.917c.024.008.072.008.08.008.223 0 .398-.143.398-.39 0-.295-.23-.399-.39-.399-.144 0-.399.08-.399.423 0 .717.622 1.442 1.539 1.442.996 0 1.84-.773 1.84-1.761 0-.925-.669-1.745-1.61-1.745-.398 0-.772.127-1.075.398z"/><path id="b" d="M4.033-4.854c.072-.087.072-.103.072-.279H2.08c-.2 0-.446-.008-.645-.024-.415-.031-.423-.103-.447-.23H.741l-.27 1.68h.246c.016-.119.104-.669.215-.732.088-.04.686-.04.805-.04h1.69l-.82 1.1c-.91 1.211-1.1 2.47-1.1 3.1 0 .08 0 .446.374.446s.375-.358.375-.454v-.382c0-1.148.19-2.089.581-2.607z"/><path id="c" d="M3.124-2.351c0 1.945-.924 2.28-1.387 2.28-.167 0-.581-.025-.797-.272.351-.032.375-.295.375-.374a.364.364 0 0 0-.375-.375c-.143 0-.374.088-.374.39 0 .543.446.87 1.18.87 1.091 0 2.127-1.085 2.127-2.79 0-2.072-.916-2.678-1.737-2.678-.94 0-1.785.733-1.785 1.777 0 1.028.773 1.778 1.673 1.778.566 0 .909-.36 1.1-.766zm-1.068.382c-.366 0-.597-.167-.773-.462C1.1-2.726 1.1-3.108 1.1-3.515c0-.47 0-.805.215-1.132.2-.286.454-.446.829-.446.534 0 .765.526.789.566.167.39.175 1.012.175 1.172 0 .63-.342 1.386-1.052 1.386"/><path id="t" d="M1.618-.438a.444.444 0 0 0-.438-.447.444.444 0 0 0-.447.439c0 .27.223.446.439.446a.444.444 0 0 0 .446-.438"/><path id="o" d="M2.095-.578c0-.317-.262-.578-.579-.578s-.578.261-.578.578S1.2 0 1.516 0s.579-.262.579-.578"/><path id="s" d="M.96-.644c-.033.164-.098.415-.098.47 0 .196.153.294.316.294.131 0 .328-.087.404-.305.01-.022.142-.535.207-.808l.24-.982c.066-.24.131-.48.186-.73.043-.186.13-.503.142-.546.163-.338.741-1.331 1.778-1.331.49 0 .589.403.589.764 0 .676-.535 2.072-.71 2.542-.097.25-.108.381-.108.501 0 .513.382.895.894.895 1.026 0 1.43-1.593 1.43-1.68 0-.11-.099-.11-.131-.11-.11 0-.11.033-.164.197C5.717-.73 5.357-.12 4.822-.12c-.185 0-.262-.11-.262-.36 0-.273.099-.535.197-.775.207-.578.665-1.778.665-2.4 0-.73-.469-1.167-1.254-1.167-.982 0-1.517.698-1.702.949-.055-.611-.502-.95-1.004-.95s-.71.426-.818.623a5.5 5.5 0 0 0-.328 1.058c0 .109.11.109.131.109.11 0 .12-.01.186-.25.185-.776.403-1.3.796-1.3.218 0 .338.143.338.503 0 .229-.032.349-.174.916z"/><path id="l" d="M2.247-4.364h1.026c.218 0 .327 0 .327-.218 0-.12-.109-.12-.305-.12h-.96c.393-1.55.447-1.768.447-1.833 0-.186-.13-.295-.316-.295-.033 0-.339.011-.437.393l-.425 1.735H.578c-.218 0-.327 0-.327.207 0 .131.087.131.305.131h.96C.731-1.266.687-1.08.687-.884c0 .59.415 1.004 1.004 1.004 1.113 0 1.735-1.593 1.735-1.68 0-.11-.088-.11-.131-.11-.098 0-.11.033-.164.154C2.662-.382 2.084-.12 1.713-.12c-.23 0-.338-.142-.338-.502 0-.262.021-.338.065-.524z"/><path id="ab" d="M5.571-1.81c.128 0 .303 0 .303-.182s-.175-.184-.303-.184H1.004c-.127 0-.303 0-.303.184s.176.183.303.183z"/><path id="h" d="M5.358-3.827c0-.993-.06-1.962-.49-2.87-.49-.993-1.352-1.256-1.938-1.256-.693 0-1.543.346-1.985 1.34C.61-5.86.49-5.12.49-3.828c0 1.16.084 2.033.515 2.882A2.13 2.13 0 0 0 2.918.251c1.04 0 1.639-.622 1.986-1.315.43-.897.454-2.07.454-2.763M2.918.012c-.382 0-1.16-.215-1.387-1.519-.132-.718-.132-1.627-.132-2.464 0-.98 0-1.865.192-2.571.203-.801.813-1.172 1.327-1.172.455 0 1.148.275 1.376 1.303.155.682.155 1.627.155 2.44 0 .802 0 1.71-.131 2.44C4.09-.215 3.337.012 2.918.012"/><path id="g" d="M3.444-7.666c0-.275 0-.287-.239-.287-.287.323-.885.765-2.117.765v.347c.275 0 .873 0 1.531-.311v6.231c0 .43-.036.574-1.088.574h-.37V0c.322-.024 1.482-.024 1.877-.024s1.543 0 1.866.024v-.347h-.371C3.48-.347 3.444-.49 3.444-.92z"/><path id="a" d="M5.262-2.01H5c-.036.204-.131.862-.25 1.053-.085.108-.766.108-1.125.108H1.41c.323-.275 1.053-1.04 1.364-1.328 1.818-1.674 2.487-2.296 2.487-3.48 0-1.375-1.088-2.296-2.475-2.296S.586-6.77.586-5.741c0 .61.526.61.562.61.251 0 .562-.18.562-.562 0-.335-.227-.562-.562-.562-.107 0-.131 0-.167.012.227-.813.873-1.364 1.65-1.364 1.017 0 1.639.85 1.639 1.95 0 1.017-.586 1.902-1.268 2.667L.586-.287V0h4.365z"/><path id="J" d="M2.99 2.99v-.443H1.83V-8.527h1.16v-.443H1.387V2.99z"/><path id="M" d="M1.854-8.97H.25v.443h1.16V2.547H.251v.443h1.603z"/><path id="K" d="M5.322-2.906c0-1.113 0-1.447-.275-1.83-.347-.467-.909-.538-1.315-.538-1.16 0-1.615.992-1.71 1.232h-.013v-1.232l-1.626.131v.347c.813 0 .909.084.909.67v3.241c0 .538-.132.538-.91.538V0c.312-.024.958-.024 1.292-.024.347 0 .993 0 1.304.024v-.347c-.765 0-.909 0-.909-.538V-3.11c0-1.255.825-1.925 1.567-1.925s.909.61.909 1.34v2.81c0 .538-.132.538-.91.538V0c.312-.024.958-.024 1.293-.024.346 0 .992 0 1.303.024v-.347c-.598 0-.897 0-.909-.359z"/><path id="L" d="M3.923-5.06c0-.214 0-.274-.12-.274-.095 0-.323.263-.406.37-.371-.298-.742-.37-1.125-.37-1.447 0-1.877.79-1.877 1.447 0 .132 0 .55.454.969.383.335.79.418 1.34.526.657.132.813.167 1.112.407.215.179.37.442.37.777 0 .514-.298 1.088-1.35 1.088C1.53-.12.956-.574.693-1.77c-.048-.215-.048-.227-.06-.24-.024-.047-.072-.047-.108-.047-.131 0-.131.06-.131.275v1.627c0 .215 0 .275.12.275.06 0 .071-.012.274-.264.06-.083.06-.107.24-.299.454.563 1.1.563 1.303.563C3.588.12 4.21-.574 4.21-1.52c0-.646-.395-1.028-.502-1.136-.431-.37-.754-.443-1.543-.586-.359-.072-1.232-.24-1.232-.957 0-.37.251-.92 1.327-.92 1.304 0 1.376 1.111 1.4 1.482.012.096.095.096.131.096.132 0 .132-.06.132-.275z"/><clipPath id="k"><path d="M56.07 191.045h153.595V37.45H56.069Z"/></clipPath><clipPath id="W"><path d="M282.843 191.045H436.44V37.45H282.843Z"/></clipPath></defs><g fill="none" stroke="gray" stroke-miterlimit="10" stroke-width=".19925"><path d="M68.858 191.045v-4.25m25.599 4.25v-4.25m25.598 4.25v-4.25m25.6 4.25v-4.25m25.598 4.25v-4.25m25.6 4.25v-4.25M68.857 37.45v4.25m25.599-4.25v4.25m25.598-4.25v4.25m25.6-4.25v4.25m25.598-4.25v4.25m25.6-4.25v4.25M56.07 190.84h2.833m-2.834-1.743h2.834m-2.834-1.559h2.834m-2.834-10.256h2.834m-2.834-6h2.834m-2.834-4.256h2.834m-2.834-3.302h2.834m-2.834-2.698h2.834m-2.834-2.28h2.834m-2.834-1.976h2.834m-2.834-1.743h2.834m-2.834-1.559h2.834m-2.834-10.256h2.834m-2.834-6h2.834m-2.834-4.256h2.834m-2.834-3.302h2.834m-2.834-2.697h2.834m-2.834-2.281h2.834m-2.834-1.976h2.834m-2.834-1.743h2.834m-2.834-1.559h2.834m-2.834-10.256h2.834m-2.834-6h2.834m-2.834-4.256h2.834m-2.834-3.302h2.834m-2.834-2.697h2.834m-2.834-2.281h2.834m-2.834-1.976h2.834m-2.834-1.743h2.834m-2.834-1.559h2.834m-2.834-10.256h2.834m-2.834-6h2.834m-2.834-4.256h2.834m-2.834-3.302h2.834m-2.834-2.697h2.834m-2.834-2.281h2.834m-2.834-1.976h2.834m-2.834-1.743h2.834M209.665 190.84h-2.833m2.833-1.743h-2.833m2.833-1.559h-2.833m2.833-10.256h-2.833m2.833-6h-2.833m2.833-4.256h-2.833m2.833-3.302h-2.833m2.833-2.698h-2.833m2.833-2.28h-2.833m2.833-1.976h-2.833m2.833-1.743h-2.833m2.833-1.559h-2.833m2.833-10.256h-2.833m2.833-6h-2.833m2.833-4.256h-2.833m2.833-3.302h-2.833m2.833-2.697h-2.833m2.833-2.281h-2.833m2.833-1.976h-2.833m2.833-1.743h-2.833m2.833-1.559h-2.833m2.833-10.256h-2.833m2.833-6h-2.833m2.833-4.256h-2.833m2.833-3.302h-2.833m2.833-2.697h-2.833m2.833-2.281h-2.833m2.833-1.976h-2.833m2.833-1.743h-2.833m2.833-1.559h-2.833m2.833-10.256h-2.833m2.833-6h-2.833m2.833-4.256h-2.833m2.833-3.302h-2.833m2.833-2.697h-2.833m2.833-2.281h-2.833m2.833-1.976h-2.833m2.833-1.743h-2.833M56.07 187.538h4.249m-4.25-34.07h4.25m-4.25-34.07h4.25m-4.25-34.07h4.25m-4.25-34.07h4.25m149.346 136.28h-4.25m4.25-34.07h-4.25m4.25-34.07h-4.25m4.25-34.07h-4.25m4.25-34.07h-4.25"/></g><path fill="none" stroke="#000" stroke-miterlimit="10" stroke-width=".3985" d="M56.07 191.045V37.45h153.595v153.595z"/><use xlink:href="#a" x="-48.01427" y="113.59559" transform="translate(111.56 91.154)scale(1.0004)"/><use xlink:href="#b" x="-42.141471" y="109.209639" transform="matrix(.99999 0 0 .99999 111.56 91.154)"/><use xlink:href="#a" x="-48.01427" y="113.59559" transform="translate(137.159 91.154)scale(1.0004)"/><use xlink:href="#c" x="-42.141471" y="109.209639" transform="matrix(.99999 0 0 .99999 137.159 91.154)"/><use xlink:href="#a" x="-48.01427" y="113.59559" transform="translate(160.641 91.154)scale(1.0004)"/><g transform="matrix(.99999 0 0 .99999 160.641 91.154)"><use xlink:href="#d" x="-42.141471" y="109.209639"/><use xlink:href="#d" x="-37.909399" y="109.209639"/></g><use xlink:href="#a" x="-48.01427" y="113.59559" transform="translate(186.24 91.154)scale(1.0004)"/><g transform="matrix(.99999 0 0 .99999 186.24 91.154)"><use xlink:href="#d" x="-42.141471" y="109.209639"/><use xlink:href="#e" x="-37.909399" y="109.209639"/></g><use xlink:href="#a" x="-48.01427" y="113.59559" transform="translate(211.838 91.154)scale(1.0004)"/><g transform="matrix(.99999 0 0 .99999 211.838 91.154)"><use xlink:href="#d" x="-42.141471" y="109.209639"/><use xlink:href="#f" x="-37.909399" y="109.209639"/></g><use xlink:href="#a" x="-48.01427" y="113.59559" transform="translate(237.437 91.154)scale(1.0004)"/><g transform="matrix(.99999 0 0 .99999 237.437 91.154)"><use xlink:href="#d" x="-42.141471" y="109.209639"/><use xlink:href="#b" x="-37.909399" y="109.209639"/></g><g transform="translate(83.442 78.726)scale(1.0004)"><use xlink:href="#g" x="-48.01427" y="113.59559"/><use xlink:href="#h" x="-42.165831" y="113.59559"/></g><use xlink:href="#d" x="-36.288544" y="109.209639" transform="matrix(.99999 0 0 .99999 83.442 78.726)"/><g transform="translate(83.442 44.656)scale(1.0004)"><use xlink:href="#g" x="-48.01427" y="113.59559"/><use xlink:href="#h" x="-42.165831" y="113.59559"/></g><use xlink:href="#i" x="-36.288544" y="109.209639" transform="matrix(.99999 0 0 .99999 83.442 44.656)"/><g transform="translate(83.442 10.586)scale(1.0004)"><use xlink:href="#g" x="-48.01427" y="113.59559"/><use xlink:href="#h" x="-42.165831" y="113.59559"/></g><use xlink:href="#e" x="-36.288544" y="109.209639" transform="matrix(.99999 0 0 .99999 83.442 10.586)"/><g transform="translate(83.442 -23.484)scale(1.0004)"><use xlink:href="#g" x="-48.01427" y="113.59559"/><use xlink:href="#h" x="-42.165831" y="113.59559"/></g><use xlink:href="#j" x="-36.288544" y="109.209639" transform="matrix(.99999 0 0 .99999 83.442 -23.484)"/><g transform="translate(83.442 -57.554)scale(1.0004)"><use xlink:href="#g" x="-48.01427" y="113.59559"/><use xlink:href="#h" x="-42.165831" y="113.59559"/></g><use xlink:href="#f" x="-36.288544" y="109.209639" transform="matrix(.99999 0 0 .99999 83.442 -57.554)"/><g clip-path="url(#k)"><path fill="none" stroke="#000" stroke-miterlimit="10" stroke-width=".3985" d="m56.07 178.245 6.4-5.334 6.399-5.333 6.4-5.332 6.399-5.333 6.4-5.334 6.4-5.333 6.399-5.333 6.4-5.334 6.399-5.333 6.4-5.332 6.4-5.334 6.399-5.333 6.4-5.333 6.4-5.333 6.399-5.334 6.4-5.332 6.399-5.334 6.4-5.333 6.4-5.333 6.399-5.333 6.4-5.333 6.4-5.334 6.399-5.33 6.4-5.335"/><g transform="translate(179.532 -55.917)scale(1.00008)"><use xlink:href="#l" x="-47.99896" y="113.559368"/><use xlink:href="#m" x="-41.028384" y="113.559368"/><use xlink:href="#n" x="-29.529242" y="113.559368"/><use xlink:href="#o" x="-24.057983" y="113.559368"/><use xlink:href="#p" x="-21.026733" y="113.559368"/><use xlink:href="#q" x="-15.571733" y="113.559368"/><use xlink:href="#r" x="-10.116733" y="113.559368"/><use xlink:href="#s" x="-4.662382" y="113.559368"/></g><g transform="matrix(.99999 0 0 .99999 179.532 -55.917)"><use xlink:href="#d" x="1.885979" y="109.589625"/><use xlink:href="#t" x="6.120926" y="109.589625"/><use xlink:href="#u" x="8.472897" y="109.589625"/><use xlink:href="#j" x="12.704968" y="109.589625"/></g></g><path d="M69.991 166.542a1.12 1.12 0 1 0-2.242 0 1.12 1.12 0 0 0 2.242 0"/><path fill="none" stroke="#000" stroke-miterlimit="10" stroke-width=".3985" d="M69.991 166.542a1.12 1.12 0 1 0-2.242 0 1.12 1.12 0 0 0 2.242 0Z"/><path d="M82.79 155.61a1.12 1.12 0 1 0-2.241 0 1.12 1.12 0 0 0 2.241 0"/><path fill="none" stroke="#000" stroke-miterlimit="10" stroke-width=".3985" d="M82.79 155.61a1.12 1.12 0 1 0-2.241 0 1.12 1.12 0 0 0 2.241 0Z"/><path d="M95.59 145.882a1.12 1.12 0 1 0-2.241 0 1.12 1.12 0 0 0 2.241 0"/><path fill="none" stroke="#000" stroke-miterlimit="10" stroke-width=".3985" d="M95.59 145.882a1.12 1.12 0 1 0-2.241 0 1.12 1.12 0 0 0 2.241 0Z"/><path d="M108.39 135.89a1.12 1.12 0 1 0-2.242 0 1.12 1.12 0 0 0 2.242 0"/><path fill="none" stroke="#000" stroke-miterlimit="10" stroke-width=".3985" d="M108.39 135.89a1.12 1.12 0 1 0-2.242 0 1.12 1.12 0 0 0 2.242 0Z"/><path d="M121.189 125.659a1.12 1.12 0 1 0-2.242 0 1.12 1.12 0 0 0 2.242 0"/><path fill="none" stroke="#000" stroke-miterlimit="10" stroke-width=".3985" d="M121.189 125.659a1.12 1.12 0 1 0-2.242 0 1.12 1.12 0 0 0 2.242 0Z"/><path d="M133.988 115.344a1.12 1.12 0 1 0-2.242 0 1.12 1.12 0 0 0 2.242 0"/><path fill="none" stroke="#000" stroke-miterlimit="10" stroke-width=".3985" d="M133.988 115.344a1.12 1.12 0 1 0-2.242 0 1.12 1.12 0 0 0 2.242 0Z"/><path d="M146.787 102.698a1.12 1.12 0 1 0-2.241 0 1.12 1.12 0 0 0 2.241 0"/><path fill="none" stroke="#000" stroke-miterlimit="10" stroke-width=".3985" d="M146.787 102.698a1.12 1.12 0 1 0-2.241 0 1.12 1.12 0 0 0 2.241 0Z"/><path d="M159.588 92.698a1.12 1.12 0 1 0-2.242 0 1.12 1.12 0 0 0 2.242 0"/><path fill="none" stroke="#000" stroke-miterlimit="10" stroke-width=".3985" d="M159.588 92.698a1.12 1.12 0 1 0-2.242 0 1.12 1.12 0 0 0 2.242 0Z"/><path d="M172.387 82.278a1.12 1.12 0 1 0-2.242 0 1.12 1.12 0 0 0 2.242 0"/><path fill="none" stroke="#000" stroke-miterlimit="10" stroke-width=".3985" d="M172.387 82.278a1.12 1.12 0 1 0-2.242 0 1.12 1.12 0 0 0 2.242 0Z"/><path d="M185.186 71.198a1.12 1.12 0 1 0-2.241 0 1.12 1.12 0 0 0 2.241 0"/><path fill="none" stroke="#000" stroke-miterlimit="10" stroke-width=".3985" d="M185.186 71.198a1.12 1.12 0 1 0-2.241 0 1.12 1.12 0 0 0 2.241 0Z"/><path d="M197.986 58.89a1.12 1.12 0 1 0-2.242 0 1.12 1.12 0 0 0 2.242 0"/><path fill="none" stroke="#000" stroke-miterlimit="10" stroke-width=".3985" d="M197.986 58.89a1.12 1.12 0 1 0-2.242 0 1.12 1.12 0 0 0 2.242 0Z"/><g transform="translate(150.995 107.129)scale(1.0004)"><use xlink:href="#v" x="-48.01427" y="113.59559"/><use xlink:href="#w" x="-42.153868" y="113.59559"/><use xlink:href="#w" x="-37.597109" y="113.59559"/><use xlink:href="#v" x="-33.04035" y="113.59559"/><use xlink:href="#x" x="-27.490909" y="113.59559"/><use xlink:href="#y" x="-17.42059" y="113.59559"/><use xlink:href="#z" x="-12.804028" y="113.59559"/><use xlink:href="#A" x="-9.550907" y="113.59559"/><use xlink:href="#B" x="-4.348307" y="113.59559"/><use xlink:href="#C" x="4.752907" y="113.59559"/></g><g transform="rotate(-90 11.857 101.116)scale(1.0004)"><use xlink:href="#B" x="-48.01427" y="113.59559"/><use xlink:href="#D" x="-42.81167" y="113.59559"/><use xlink:href="#v" x="-39.558546" y="113.59559"/><use xlink:href="#E" x="-33.698149" y="113.59559"/><use xlink:href="#y" x="-27.191907" y="113.59559"/><use xlink:href="#B" x="-22.575347" y="113.59559"/><use xlink:href="#F" x="-17.372747" y="113.59559"/><use xlink:href="#G" x="-6.967546" y="113.59559"/><use xlink:href="#z" x="-2.410785" y="113.59559"/><use xlink:href="#H" x=".842335" y="113.59559"/><use xlink:href="#B" x="10.601696" y="113.59559"/><use xlink:href="#I" x="19.702912" y="113.59559"/><use xlink:href="#J" x="27.831174" y="113.59559"/><use xlink:href="#K" x="31.072335" y="113.59559"/><use xlink:href="#L" x="37.566615" y="113.59559"/><use xlink:href="#M" x="42.183176" y="113.59559"/></g><g transform="translate(115.329 -89.262)scale(1.0004)"><use xlink:href="#N" x="-48.01427" y="113.59559"/><use xlink:href="#O" x="-43.792392" y="113.59559"/><use xlink:href="#y" x="-37.286152" y="113.59559"/><use xlink:href="#B" x="-32.669592" y="113.59559"/><use xlink:href="#w" x="-27.466991" y="113.59559"/><use xlink:href="#G" x="-22.910231" y="113.59559"/><use xlink:href="#z" x="-18.35347" y="113.59559"/><use xlink:href="#P" x="-15.100349" y="113.59559"/><use xlink:href="#O" x="-9.239948" y="113.59559"/><use xlink:href="#Q" x="1.165252" y="113.59559"/><use xlink:href="#P" x="7.671492" y="113.59559"/><use xlink:href="#w" x="13.531893" y="113.59559"/><use xlink:href="#G" x="18.088655" y="113.59559"/><use xlink:href="#R" x="26.544375" y="113.59559"/><use xlink:href="#S" x="31.101136" y="113.59559"/><use xlink:href="#B" x="39.389417" y="113.59559"/><use xlink:href="#y" x="44.592016" y="113.59559"/><use xlink:href="#G" x="49.208578" y="113.59559"/><use xlink:href="#T" x="53.765338" y="113.59559"/><use xlink:href="#U" x="57.6643" y="113.59559"/><use xlink:href="#v" x="62.8669" y="113.59559"/><use xlink:href="#y" x="68.727301" y="113.59559"/><use xlink:href="#B" x="73.343856" y="113.59559"/><use xlink:href="#V" x="78.546464" y="113.59559"/></g><g fill="none" stroke-miterlimit="10"><path stroke="gray" stroke-width=".19925" d="M295.632 191.045v-4.252m25.599 4.252v-4.252m25.598 4.252v-4.252m25.6 4.252v-4.252m25.598 4.252v-4.252m25.6 4.252v-4.252M295.631 37.45v4.252m25.599-4.252v4.252m25.598-4.252v4.252m25.6-4.252v4.252m25.598-4.252v4.252m25.6-4.252v4.252M282.843 174.361h4.25m-4.25-34.808h4.25m-4.25-34.808h4.25m-4.25-34.808h4.25m149.346 104.424h-4.25m4.25-34.808h-4.25m4.25-34.808h-4.25m4.25-34.808h-4.25"/><path stroke="#000" stroke-width=".3985" d="M282.843 191.045V37.45H436.44v153.595z"/></g><use xlink:href="#a" x="-48.01427" y="83.740608" transform="translate(338.334 120.997)scale(1.0004)"/><use xlink:href="#b" x="-42.141471" y="79.368004" transform="matrix(.99999 0 0 .99999 338.334 120.997)"/><use xlink:href="#a" x="-48.01427" y="83.740608" transform="translate(363.933 120.997)scale(1.0004)"/><use xlink:href="#c" x="-42.141471" y="79.368004" transform="matrix(.99999 0 0 .99999 363.933 120.997)"/><use xlink:href="#a" x="-48.01427" y="83.740608" transform="translate(387.415 120.997)scale(1.0004)"/><g transform="matrix(.99999 0 0 .99999 387.415 120.997)"><use xlink:href="#d" x="-42.141471" y="79.368004"/><use xlink:href="#d" x="-37.909399" y="79.368004"/></g><use xlink:href="#a" x="-48.01427" y="83.740608" transform="translate(413.014 120.997)scale(1.0004)"/><g transform="matrix(.99999 0 0 .99999 413.014 120.997)"><use xlink:href="#d" x="-42.141471" y="79.368004"/><use xlink:href="#e" x="-37.909399" y="79.368004"/></g><use xlink:href="#a" x="-48.01427" y="83.740608" transform="translate(438.612 120.997)scale(1.0004)"/><g transform="matrix(.99999 0 0 .99999 438.612 120.997)"><use xlink:href="#d" x="-42.141471" y="79.368004"/><use xlink:href="#f" x="-37.909399" y="79.368004"/></g><use xlink:href="#a" x="-48.01427" y="83.740608" transform="translate(464.211 120.997)scale(1.0004)"/><g transform="matrix(.99999 0 0 .99999 464.211 120.997)"><use xlink:href="#d" x="-42.141471" y="79.368004"/><use xlink:href="#b" x="-37.909399" y="79.368004"/></g><g transform="translate(310.216 95.391)scale(1.0004)"><use xlink:href="#g" x="-48.01427" y="83.740608"/><use xlink:href="#h" x="-42.165831" y="83.740608"/></g><use xlink:href="#d" x="-36.288544" y="79.368004" transform="matrix(.99999 0 0 .99999 310.216 95.391)"/><g transform="translate(310.216 60.584)scale(1.0004)"><use xlink:href="#g" x="-48.01427" y="83.740608"/><use xlink:href="#h" x="-42.165831" y="83.740608"/></g><use xlink:href="#e" x="-36.288544" y="79.368004" transform="matrix(.99999 0 0 .99999 310.216 60.584)"/><g transform="translate(310.216 25.776)scale(1.0004)"><use xlink:href="#g" x="-48.01427" y="83.740608"/><use xlink:href="#h" x="-42.165831" y="83.740608"/></g><use xlink:href="#f" x="-36.288544" y="79.368004" transform="matrix(.99999 0 0 .99999 310.216 25.776)"/><g transform="translate(310.216 -9.032)scale(1.0004)"><use xlink:href="#g" x="-48.01427" y="83.740608"/><use xlink:href="#h" x="-42.165831" y="83.740608"/></g><use xlink:href="#b" x="-36.288544" y="79.368004" transform="matrix(.99999 0 0 .99999 310.216 -9.032)"/><g clip-path="url(#W)"><path fill="none" stroke="#000" stroke-miterlimit="10" stroke-width=".3985" d="m282.843 181.553 6.4-5.423 6.4-5.424 6.4-5.42 6.399-5.424 6.4-5.421 6.4-5.424 6.399-5.421 6.4-5.425 6.399-5.422 6.4-5.422 6.4-5.422 6.399-5.422 6.4-5.423 6.4-5.422 6.399-5.422 6.4-5.423 6.399-5.422 6.4-5.422 6.4-5.424 6.399-5.42 6.4-5.425 6.4-5.421 6.399-5.422 6.4-5.423"/><g transform="translate(386.502 -24.911)scale(1.00008)"><use xlink:href="#l" x="-47.99896" y="83.713906"/><use xlink:href="#m" x="-41.028384" y="83.713906"/><use xlink:href="#X" x="-29.529242" y="83.713906"/><use xlink:href="#o" x="-24.057983" y="83.713906"/><use xlink:href="#n" x="-21.026733" y="83.713906"/><use xlink:href="#Y" x="-15.571733" y="83.713906"/><use xlink:href="#Z" x="-10.116832" y="83.713906"/><use xlink:href="#aa" x="-7.086582" y="83.713906"/><use xlink:href="#n" x="-1.631582" y="83.713906"/></g><g transform="matrix(.99999 0 0 .99999 386.502 -24.911)"><use xlink:href="#ab" x="3.822955" y="79.747999"/><use xlink:href="#j" x="10.409872" y="79.747999"/></g><use xlink:href="#s" x="15.143251" y="83.713906" transform="translate(386.502 -24.911)scale(1.00008)"/><g transform="matrix(.99999 0 0 .99999 386.502 -24.911)"><use xlink:href="#i" x="21.689731" y="79.747999"/><use xlink:href="#t" x="25.923679" y="79.747999"/><use xlink:href="#u" x="28.27665" y="79.747999"/><use xlink:href="#b" x="32.508722" y="79.747999"/></g></g><path d="M296.765 171.2a1.12 1.12 0 1 0-2.242 0 1.12 1.12 0 0 0 2.242 0"/><path fill="none" stroke="#000" stroke-miterlimit="10" stroke-width=".3985" d="M296.765 171.2a1.12 1.12 0 1 0-2.242 0 1.12 1.12 0 0 0 2.242 0Z"/><path d="M309.564 159.415a1.12 1.12 0 1 0-2.241 0 1.12 1.12 0 0 0 2.241 0"/><path fill="none" stroke="#000" stroke-miterlimit="10" stroke-width=".3985" d="M309.564 159.415a1.12 1.12 0 1 0-2.241 0 1.12 1.12 0 0 0 2.241 0Z"/><path d="M322.364 149.659a1.12 1.12 0 1 0-2.241 0 1.12 1.12 0 0 0 2.241 0"/><path fill="none" stroke="#000" stroke-miterlimit="10" stroke-width=".3985" d="M322.364 149.659a1.12 1.12 0 1 0-2.241 0 1.12 1.12 0 0 0 2.241 0Z"/><path d="M335.164 137.443a1.12 1.12 0 1 0-2.242 0 1.12 1.12 0 0 0 2.242 0"/><path fill="none" stroke="#000" stroke-miterlimit="10" stroke-width=".3985" d="M335.164 137.443a1.12 1.12 0 1 0-2.242 0 1.12 1.12 0 0 0 2.242 0Z"/><path d="M347.963 126.172a1.12 1.12 0 1 0-2.242 0 1.12 1.12 0 0 0 2.242 0"/><path fill="none" stroke="#000" stroke-miterlimit="10" stroke-width=".3985" d="M347.963 126.172a1.12 1.12 0 1 0-2.242 0 1.12 1.12 0 0 0 2.242 0Z"/><path d="M360.762 115.813a1.12 1.12 0 1 0-2.242 0 1.12 1.12 0 0 0 2.242 0"/><path fill="none" stroke="#000" stroke-miterlimit="10" stroke-width=".3985" d="M360.762 115.813a1.12 1.12 0 1 0-2.242 0 1.12 1.12 0 0 0 2.242 0Z"/><path d="M373.561 105.36a1.12 1.12 0 1 0-2.241 0 1.12 1.12 0 0 0 2.241 0"/><path fill="none" stroke="#000" stroke-miterlimit="10" stroke-width=".3985" d="M373.561 105.36a1.12 1.12 0 1 0-2.241 0 1.12 1.12 0 0 0 2.241 0Z"/><path d="M386.362 94.742a1.12 1.12 0 1 0-2.242 0 1.12 1.12 0 0 0 2.241 0"/><path fill="none" stroke="#000" stroke-miterlimit="10" stroke-width=".3985" d="M386.362 94.742a1.12 1.12 0 1 0-2.242 0 1.12 1.12 0 0 0 2.241 0Z"/><path d="M399.16 83.998a1.12 1.12 0 1 0-2.24 0 1.12 1.12 0 0 0 2.24 0"/><path fill="none" stroke="#000" stroke-miterlimit="10" stroke-width=".3985" d="M399.16 83.998a1.12 1.12 0 1 0-2.24 0 1.12 1.12 0 0 0 2.24 0Z"/><path d="M411.96 73.077a1.12 1.12 0 1 0-2.241 0 1.12 1.12 0 0 0 2.241 0"/><path fill="none" stroke="#000" stroke-miterlimit="10" stroke-width=".3985" d="M411.96 73.077a1.12 1.12 0 1 0-2.241 0 1.12 1.12 0 0 0 2.241 0Z"/><path d="M424.76 61.862a1.12 1.12 0 1 0-2.242 0 1.12 1.12 0 0 0 2.242 0"/><path fill="none" stroke="#000" stroke-miterlimit="10" stroke-width=".3985" d="M424.76 61.862a1.12 1.12 0 1 0-2.242 0 1.12 1.12 0 0 0 2.242 0Z"/><g transform="translate(377.769 136.972)scale(1.0004)"><use xlink:href="#v" x="-48.01427" y="83.740608"/><use xlink:href="#w" x="-42.153868" y="83.740608"/><use xlink:href="#w" x="-37.597109" y="83.740608"/><use xlink:href="#v" x="-33.04035" y="83.740608"/><use xlink:href="#x" x="-27.490909" y="83.740608"/><use xlink:href="#y" x="-17.42059" y="83.740608"/><use xlink:href="#z" x="-12.804028" y="83.740608"/><use xlink:href="#A" x="-9.550907" y="83.740608"/><use xlink:href="#B" x="-4.348307" y="83.740608"/><use xlink:href="#C" x="4.752907" y="83.740608"/></g><g transform="rotate(-90 140.3 -27.057)scale(1.0004)"><use xlink:href="#B" x="-48.01427" y="83.740608"/><use xlink:href="#D" x="-42.81167" y="83.740608"/><use xlink:href="#v" x="-39.558546" y="83.740608"/><use xlink:href="#E" x="-33.698149" y="83.740608"/><use xlink:href="#y" x="-27.191907" y="83.740608"/><use xlink:href="#B" x="-22.575347" y="83.740608"/><use xlink:href="#F" x="-17.372747" y="83.740608"/><use xlink:href="#G" x="-6.967546" y="83.740608"/><use xlink:href="#z" x="-2.410785" y="83.740608"/><use xlink:href="#H" x=".842335" y="83.740608"/><use xlink:href="#B" x="10.601696" y="83.740608"/><use xlink:href="#I" x="19.702912" y="83.740608"/><use xlink:href="#J" x="27.831174" y="83.740608"/><use xlink:href="#ac" x="31.083478" y="83.740608"/><use xlink:href="#L" x="38.129307" y="83.740608"/><use xlink:href="#M" x="42.745866" y="83.740608"/></g><g transform="translate(338.116 -59.419)scale(1.0004)"><use xlink:href="#N" x="-48.01427" y="83.740608"/><use xlink:href="#O" x="-43.792392" y="83.740608"/><use xlink:href="#y" x="-37.286152" y="83.740608"/><use xlink:href="#B" x="-32.669592" y="83.740608"/><use xlink:href="#w" x="-27.466991" y="83.740608"/><use xlink:href="#G" x="-22.910231" y="83.740608"/><use xlink:href="#z" x="-18.35347" y="83.740608"/><use xlink:href="#P" x="-15.100349" y="83.740608"/><use xlink:href="#O" x="-9.239948" y="83.740608"/><use xlink:href="#Q" x="1.165252" y="83.740608"/><use xlink:href="#P" x="7.671492" y="83.740608"/><use xlink:href="#w" x="13.531893" y="83.740608"/><use xlink:href="#G" x="18.088655" y="83.740608"/><use xlink:href="#R" x="26.544375" y="83.740608"/><use xlink:href="#ad" x="31.101136" y="83.740608"/><use xlink:href="#P" x="42.164136" y="83.740608"/><use xlink:href="#w" x="48.024534" y="83.740608"/><use xlink:href="#y" x="52.581297" y="83.740608"/><use xlink:href="#G" x="57.197856" y="83.740608"/><use xlink:href="#T" x="61.754614" y="83.740608"/><use xlink:href="#U" x="65.653579" y="83.740608"/><use xlink:href="#v" x="70.856177" y="83.740608"/><use xlink:href="#y" x="76.716579" y="83.740608"/><use xlink:href="#B" x="81.333142" y="83.740608"/><use xlink:href="#V" x="86.535748" y="83.740608"/></g></svg>