<svg xmlns="http://www.w3.org/2000/svg" xmlns:xlink="http://www.w3.org/1999/xlink" width="216.92pt" height="181.78pt" viewBox="0 0 216.92 181.78"><defs><path id="d" d="M2.095-2.727c0-.317-.262-.579-.579-.579s-.578.262-.578.579.262.578.578.578.579-.262.579-.578"/><path id="a" d="M9.099-2.51c-.6.459-.895.906-.982 1.048-.49.753-.578 1.44-.578 1.451 0 .131.13.131.218.131.185 0 .196-.022.24-.218.251-1.07.895-1.986 2.127-2.488.131-.043.164-.065.164-.142s-.065-.109-.087-.12c-.48-.185-1.8-.73-2.215-2.563-.033-.131-.044-.164-.229-.164-.087 0-.218 0-.218.13 0 .023.098.71.556 1.441.218.327.535.71 1.004 1.058H.993c-.197 0-.393 0-.393.219s.196.218.393.218z"/><path id="c" d="M6.688-4.266c-.011-.033-.044-.054-.11-.043-.97.24-2.781.447-3.894.436-.142 0-.186-.055-.186-.186v-3.185l.011-.524c0-.12-.054-.185-.163-.207-.262-.066-.884-.11-1.233-.11-.066 0-.098.023-.11.066l-.054.262c.284.076.578.207.753.35V-4.2c0 .272.022.49.055.545.152.35.338.47.774.47.098 0 .251-.012.371-.012 1.015-.076 2.717-.403 3.764-.796.044-.011.065-.055.065-.098zM6.426.47c-.906 0-1.56-.513-1.56-1.385 0-.862.654-1.375 1.56-1.375.916 0 1.56.513 1.56 1.375 0 .872-.644 1.385-1.56 1.385m0-3.273c-1.386 0-2.367.753-2.367 1.888 0 1.2.981 1.985 2.367 1.985 1.396 0 2.378-.785 2.378-1.985 0-1.135-.982-1.888-2.378-1.888m.775-6.186c.381.131.73.327.916.557v1.123c-.665.044-1.866.077-2.302.077-.284 0-.633-.022-.905-.066l-.055.12q-.033.05.033.098c.218.175.502.328.807.448.207-.066.491-.142.687-.164.35-.044 1.2-.065 1.735-.054v1.2c-.655.032-1.898.065-2.346.065-.283 0-.632-.022-.905-.054l-.055.109c-.022.043-.01.076.033.109.218.163.491.327.807.436.208-.065.491-.13.688-.153.36-.043 1.243-.065 1.778-.054v.764c0 .469.022 1.352.065 1.778h.459c.152-.513.25-1.331.25-2.04v-3.546l.033-.567c0-.11-.043-.186-.13-.219-.317-.13-.993-.272-1.386-.283-.087 0-.12.022-.131.054z"/><path id="b" d="m9.012-5.466-.775.033v-2.804l.033-.567c0-.11-.033-.186-.131-.219-.317-.13-.993-.272-1.386-.283-.087 0-.109.022-.12.054l-.087.262c.382.131.731.327.916.557v4.985c0 .502.022 1.451.066 1.888h.458c.153-.546.251-1.397.251-2.16v-1.244l1.898-.022c.077 0 .164-.022.208-.065.076-.044.142-.186.13-.382a.2.2 0 0 0-.152-.186c-.197-.043-.644-.065-.96-.054zM7.55.262c-.622.022-2.553.043-3.24.033-.197 0-.273-.088-.273-.284v-1.484l.01-.49c0-.12-.043-.175-.152-.208C3.622-2.226 3-2.27 2.64-2.27c-.065 0-.109.022-.12.065l-.054.24c.294.066.6.186.774.317v1.56c0 .6.251.85.96.85L8.815.743a.18.18 0 0 0 .131-.055c.055-.054.131-.185.131-.392 0-.077-.065-.131-.153-.153C8.717.098 8.226.065 7.9.065zm-1.92-5.99c0-1.33-1.026-2.236-2.422-2.236-1.419 0-2.455.905-2.455 2.236 0 1.32 1.036 2.248 2.455 2.248 1.396 0 2.422-.928 2.422-2.248m-4.07 0c0-1.036.71-1.658 1.648-1.658.927 0 1.647.622 1.647 1.658S4.135-4.08 3.208-4.08c-.939 0-1.648-.611-1.648-1.648"/><use xlink:href="#a" id="e" transform="scale(1.09624)"/></defs><path fill="none" stroke="#000" stroke-miterlimit="10" stroke-width=".3985" d="M32.798 52.605h-21.26V35.597h21.26"/><use xlink:href="#b" x="-39.205234" y="-19.3926" transform="translate(56.101 67.763)scale(1.00008)"/><path fill="none" stroke="#000" stroke-miterlimit="10" stroke-width=".3985" d="M54.058 52.605h-21.26V35.597h21.26"/><use xlink:href="#c" x="-39.205234" y="-19.3926" transform="translate(77.361 67.61)scale(1.00008)"/><path fill="none" stroke="#000" stroke-miterlimit="10" stroke-width=".3985" d="M75.318 52.605h-21.26V35.597h21.26"/><g transform="translate(97.526 65.916)scale(1.00008)"><use xlink:href="#d" x="-39.205234" y="-19.3926"/><use xlink:href="#d" x="-34.372105" y="-19.3926"/><use xlink:href="#d" x="-29.528066" y="-19.3926"/></g><use xlink:href="#e" x="-39.21774" y="-19.398785" transform="translate(129.803 65.685)scale(1.0004)"/><g fill="none" stroke="#000" stroke-miterlimit="10" stroke-width=".3985"><path d="M117.838 52.605h76.537l11.005-41.071h-76.536Z"/><path d="M117.838 78.117h76.537l11.005-41.071V11.534M117.838 52.605v25.512M194.375 52.605v25.512"/></g><path fill="#40ff40" d="M184.276 22.841a4.252 4.252 0 1 0-8.504 0 4.252 4.252 0 0 0 8.504 0"/><g fill="none" stroke="#000" stroke-miterlimit="10" stroke-width=".3985"><path d="M184.276 22.841a4.252 4.252 0 1 0-8.504 0 4.252 4.252 0 0 0 8.504 0ZM193.843 22.841a4.252 4.252 0 1 0-8.504 0 4.252 4.252 0 0 0 8.504 0ZM32.798 144.732h-21.26v-17.008h21.26"/></g><use xlink:href="#b" x="-39.205234" y="-19.3926" transform="translate(56.101 159.89)scale(1.00008)"/><path fill="none" stroke="#000" stroke-miterlimit="10" stroke-width=".3985" d="M54.058 144.732h-21.26v-17.008h21.26"/><path fill="none" stroke="#000" stroke-miterlimit="10" stroke-width=".3985" d="M75.318 144.732h-21.26v-17.008h21.26"/><g transform="translate(97.526 158.043)scale(1.00008)"><use xlink:href="#d" x="-39.205234" y="-19.3926"/><use xlink:href="#d" x="-34.372105" y="-19.3926"/><use xlink:href="#d" x="-29.528066" y="-19.3926"/></g><use xlink:href="#e" x="-39.21774" y="-19.398785" transform="translate(129.803 157.812)scale(1.0004)"/><g fill="none" stroke="#000" stroke-miterlimit="10" stroke-width=".3985"><path d="M117.838 144.732h76.537l11.005-41.071h-76.536Z"/><path d="M117.838 170.244h76.537l11.005-41.071V103.66M117.838 144.732v25.512M194.375 144.732v25.512M184.276 114.968a4.252 4.252 0 1 0-8.504 0 4.252 4.252 0 0 0 8.504 0Z"/></g><path fill="#ff4040" d="M193.843 114.968a4.252 4.252 0 1 0-8.504 0 4.252 4.252 0 0 0 8.504 0"/><path fill="none" stroke="#000" stroke-miterlimit="10" stroke-width=".3985" d="M193.843 114.968a4.252 4.252 0 1 0-8.504 0 4.252 4.252 0 0 0 8.504 0Z"/></svg>