<svg xmlns="http://www.w3.org/2000/svg" xmlns:xlink="http://www.w3.org/1999/xlink" width="249.58pt" height="112.45pt" viewBox="0 0 249.58 112.45"><defs><path id="k" d="M5.669-1.064v-.67h-.263v.67c0 .681-.287.777-.455.777-.454 0-.454-.634-.454-.813v-2.093c0-.646 0-1.125-.526-1.591-.419-.383-.957-.55-1.483-.55-.981 0-1.735.646-1.735 1.423 0 .347.228.514.503.514.287 0 .49-.203.49-.49 0-.49-.43-.49-.61-.49.275-.503.85-.718 1.328-.718.55 0 1.256.455 1.256 1.53v.48C1.316-3.05.407-2.046.407-1.126c0 .946 1.1 1.245 1.83 1.245A1.63 1.63 0 0 0 3.79-.933c.048.562.419.993.933.993.251 0 .945-.168.945-1.124m-1.95-.622C3.72-.514 2.847-.12 2.333-.12c-.586 0-1.076-.43-1.076-1.004 0-1.579 2.033-1.722 2.464-1.746z"/><path id="d" d="M6.076-2.583c0-1.52-1.125-2.691-2.452-2.691-.658 0-1.22.299-1.627.801V-8.3L.335-8.17v.347c.813 0 .909.084.909.67V0h.263l.43-.777c.276.442.79.897 1.555.897 1.376 0 2.584-1.16 2.584-2.703m-.91-.012c0 .801-.119 1.303-.406 1.734-.24.37-.718.741-1.316.741C2.8-.12 2.38-.538 2.177-.86c-.156-.251-.156-.3-.156-.502v-2.464c0-.215 0-.24.132-.43.287-.431.813-.778 1.4-.778.358 0 1.614.143 1.614 2.44"/><path id="m" d="M4.856-1.423c0-.108-.084-.108-.12-.108-.107 0-.12.036-.155.18-.263.849-.91 1.207-1.555 1.207-.73 0-1.698-.633-1.698-2.451 0-1.986 1.016-2.476 1.614-2.476.455 0 1.112.18 1.388.646-.144 0-.587 0-.587.49 0 .287.204.49.49.49.276 0 .503-.167.503-.514 0-.801-.837-1.375-1.806-1.375C1.53-5.334.42-4.09.42-2.584.419-1.051 1.567.12 2.919.12c1.578 0 1.937-1.436 1.937-1.543"/><path id="f" d="M4.868-1.423c0-.072-.06-.12-.132-.12-.096 0-.12.06-.143.12C4.282-.42 3.48-.143 2.978-.143s-1.71-.335-1.71-2.404v-.228H4.58c.263 0 .287 0 .287-.227 0-1.208-.646-2.332-2.093-2.332C1.41-5.334.359-4.102.359-2.62.359-1.041 1.579.12 2.906.12c1.424 0 1.962-1.292 1.962-1.543m-.742-1.579H1.28c.095-1.878 1.148-2.093 1.483-2.093 1.28 0 1.351 1.686 1.363 2.093"/><path id="e" d="M2.966 0v-.347c-.765 0-.909 0-.909-.538V-8.3L.395-8.17v.347c.813 0 .909.084.909.67v6.267c0 .538-.132.538-.91.538V0c.336-.024.922-.024 1.28-.024s.957 0 1.292.024"/><path id="g" d="M9.484 0v-.347c-.598 0-.897 0-.909-.359v-2.2c0-1.113 0-1.447-.275-1.83-.347-.467-.909-.538-1.315-.538-.993 0-1.495.717-1.687 1.184-.167-.921-.813-1.184-1.566-1.184-1.16 0-1.615.992-1.71 1.232h-.013v-1.232l-1.626.131v.347c.813 0 .909.084.909.67v3.241c0 .538-.132.538-.91.538V0c.312-.024.958-.024 1.292-.024.347 0 .993 0 1.304.024v-.347c-.765 0-.909 0-.909-.538V-3.11c0-1.255.825-1.925 1.567-1.925s.909.61.909 1.34v2.81c0 .538-.132.538-.91.538V0c.312-.024.958-.024 1.293-.024.346 0 .992 0 1.303.024v-.347c-.765 0-.909 0-.909-.538V-3.11c0-1.255.825-1.925 1.567-1.925s.909.61.909 1.34v2.81c0 .538-.132.538-.909.538V0c.31-.024.957-.024 1.292-.024.346 0 .992 0 1.303.024"/><path id="c" d="M5.49-2.56c0-1.542-1.172-2.774-2.56-2.774C1.495-5.334.36-4.066.36-2.56.359-1.03 1.555.12 2.919.12c1.41 0 2.57-1.172 2.57-2.68m-.91-.107c0 .419 0 1.16-.31 1.722a1.56 1.56 0 0 1-1.34.801c-.442 0-.98-.19-1.327-.777-.323-.538-.335-1.244-.335-1.746 0-.455 0-1.184.37-1.722a1.53 1.53 0 0 1 1.28-.706c.467 0 .969.215 1.292.682.37.55.37 1.303.37 1.746"/><path id="a" d="M7.308-5.956c0-1.16-1.16-2.213-2.775-2.213H.503v.347h.239c.86 0 .897.12.897.562v6.351c0 .443-.036.562-.897.562h-.24V0C.79-.024 1.77-.024 2.117-.024c.359 0 1.34 0 1.626.024v-.347h-.239c-.86 0-.897-.12-.897-.562v-2.894H4.63c1.399 0 2.679-.945 2.679-2.153m-1.113 0c0 .502 0 1.866-1.95 1.866H2.584v-3.253c0-.395.024-.479.55-.479h1.125c1.937 0 1.937 1.352 1.937 1.866"/><path id="b" d="M4.222-4.58c0-.36-.323-.694-.837-.694-1.017 0-1.364 1.1-1.436 1.327h-.011v-1.327l-1.603.131v.347c.813 0 .909.084.909.67v3.241c0 .538-.132.538-.91.538V0c.336-.024.994-.024 1.352-.024.323 0 1.172 0 1.448.024v-.347h-.24c-.873 0-.897-.131-.897-.562v-1.878c0-1.16.479-2.248 1.4-2.248.095 0 .12 0 .167.012-.096.048-.287.12-.287.442a.46.46 0 0 0 .466.479c.24 0 .479-.156.479-.479"/><path id="i" d="M5.848-2.2c0-.73-.275-1.268-.598-1.663-.442-.538-.98-.67-1.447-.79l-1.315-.334c-.61-.156-1.148-.754-1.148-1.52 0-.836.67-1.59 1.602-1.59 1.962 0 2.225 1.938 2.296 2.452.024.143.024.191.144.191.132 0 .132-.06.132-.275v-2.416c0-.215 0-.275-.12-.275-.036 0-.084 0-.167.156l-.395.73c-.574-.742-1.364-.886-1.89-.886A2.28 2.28 0 0 0 .646-6.135c0 .574.203 1.1.646 1.578.418.467.837.574 1.686.79.419.095 1.076.263 1.244.334.562.276.933.921.933 1.591 0 .897-.634 1.746-1.627 1.746-.538 0-1.28-.131-1.866-.646C.97-1.363.921-2.225.91-2.619c-.012-.096-.132-.096-.132-.096-.131 0-.131.06-.131.275v2.416c0 .215 0 .275.12.275.071 0 .083-.024.167-.167l.395-.718c.43.479 1.184.885 2.212.885C4.88.251 5.848-.885 5.848-2.2"/><path id="h" d="M4.21-1.519c0-.646-.395-1.028-.502-1.136-.431-.37-.754-.443-1.543-.586-.359-.072-1.232-.24-1.232-.957 0-.37.251-.92 1.327-.92 1.304 0 1.376 1.111 1.4 1.482.012.096.095.096.131.096.132 0 .132-.06.132-.275V-5.06c0-.215 0-.275-.12-.275-.095 0-.323.263-.406.37-.371-.298-.742-.37-1.125-.37-1.447 0-1.877.79-1.877 1.447 0 .132 0 .55.454.969.383.335.79.418 1.34.526.657.132.813.167 1.112.407.215.179.37.442.37.777 0 .514-.298 1.088-1.35 1.088C1.53-.12.956-.574.693-1.77c-.048-.215-.06-.24-.06-.24-.024-.047-.072-.047-.108-.047-.131 0-.131.06-.131.275v1.627c0 .215 0 .275.12.275.06 0 .071-.012.274-.264.06-.083.06-.107.24-.299.454.563 1.1.563 1.303.563C3.588.12 4.21-.574 4.21-1.52"/><path id="l" d="M8.025-5.442 7.81-8.109H.634L.419-5.442h.263c.167-1.89.275-2.32 2.164-2.32.216 0 .55 0 .646.024.24.036.251.18.251.454V-.92c0 .407 0 .574-1.172.574h-.43V0c.383-.024 1.614-.024 2.08-.024s1.711 0 2.094.024v-.347h-.43c-1.173 0-1.173-.167-1.173-.574v-6.363c0-.299.024-.406.216-.454.095-.024.442-.024.67-.024 1.889 0 1.997.43 2.164 2.32z"/><path id="n" d="M3.899-1.483v-.682h-.263v.658c0 .861-.347 1.363-.813 1.363-.814 0-.814-1.112-.814-1.315v-3.349h1.687v-.347H2.009v-2.2h-.263c-.012 1.124-.442 2.272-1.53 2.308v.24h1.016v3.324C1.232-.155 2.117.12 2.75.12c.753 0 1.148-.742 1.148-1.603"/><path id="j" d="M5.956-4.808v-.347c-.347.024-.514.024-.885.024l-.98-.024v.347c.502.024.561.383.561.514 0 .108-.023.168-.083.311L3.349-.897 2.009-4.27c-.06-.167-.071-.167-.071-.227 0-.31.454-.31.67-.31v-.348c-.3.024-.922.024-1.245.024L.215-5.155v.347c.67 0 .79.048.933.419l1.71 4.281c.06.168.084.228.228.228.083 0 .155-.024.239-.228l1.555-3.91c.107-.264.31-.778 1.076-.79"/></defs><path fill="none" stroke="#000" stroke-miterlimit="10" stroke-width=".3985" d="M82.405 65.48c0-19.57-15.864-35.434-35.434-35.434S11.538 45.91 11.538 65.48 27.4 100.913 46.97 100.913 82.405 85.05 82.405 65.48Z"/><g transform="translate(48.149 30.134)scale(1.0004)"><use xlink:href="#a" x="-25.039049" y="-6.519617"/><use xlink:href="#b" x="-17.073688" y="-6.519617"/><use xlink:href="#c" x="-12.516928" y="-6.519617"/><use xlink:href="#d" x="-6.656527" y="-6.519617"/><use xlink:href="#e" x="-.150286" y="-6.519617"/><use xlink:href="#f" x="3.102834" y="-6.519617"/><use xlink:href="#g" x="8.305434" y="-6.519617"/><use xlink:href="#h" x="18.064795" y="-6.519617"/></g><path d="M59.373 71.15a1.063 1.063 0 1 0-2.126 0 1.063 1.063 0 0 0 2.126 0"/><path fill="none" stroke="#000" stroke-miterlimit="10" stroke-width=".3985" d="M59.373 71.15a1.063 1.063 0 1 0-2.126 0 1.063 1.063 0 0 0 2.126 0ZM61.562 65.137c9.504-16.462 28.366-30.667 50.607-35.09"/><path d="m60.01 67.823 3.691-3.028-2.19.428-.723-2.11Z"/><path fill="none" stroke="#000" stroke-miterlimit="10" stroke-width=".398491" d="m60.01 67.823 3.691-3.028-2.19.428-.723-2.11Z"/><path fill="none" stroke="#000" stroke-miterlimit="10" stroke-width=".3985" d="M167.445 65.48c0-15.656-12.691-28.347-28.347-28.347s-28.347 12.691-28.347 28.347 12.691 28.347 28.347 28.347 28.347-12.691 28.347-28.347Z"/><g transform="translate(143.146 37.089)scale(1.0004)"><use xlink:href="#i" x="-25.039049" y="-6.519617"/><use xlink:href="#c" x="-18.532808" y="-6.519617"/><use xlink:href="#e" x="-12.672407" y="-6.519617"/><use xlink:href="#j" x="-9.419286" y="-6.519617"/><use xlink:href="#k" x="-3.881807" y="-6.519617"/><use xlink:href="#d" x="1.978594" y="-6.519617"/><use xlink:href="#e" x="8.484834" y="-6.519617"/><use xlink:href="#f" x="11.737955" y="-6.519617"/></g><path fill="none" stroke="#000" stroke-miterlimit="10" stroke-width=".3985" d="M153.98 71.15a3.543 3.543 0 1 0-7.086 0 3.543 3.543 0 0 0 7.086 0ZM155.106 63.72c3.835-6.642 15.392-17.288 26.512-19.5"/><path d="m153.555 66.406 3.69-3.028-2.189.428-.723-2.11Z"/><path fill="none" stroke="#000" stroke-miterlimit="10" stroke-width=".398491" d="m153.555 66.406 3.69-3.028-2.189.428-.723-2.11Z"/><g transform="translate(210.831 54.826)scale(1.0004)"><use xlink:href="#l" x="-25.039049" y="-6.519617"/><use xlink:href="#b" x="-17.564047" y="-6.519617"/><use xlink:href="#k" x="-13.007286" y="-6.519617"/><use xlink:href="#m" x="-7.146885" y="-6.519617"/><use xlink:href="#n" x="-1.944285" y="-6.519617"/><use xlink:href="#k" x="2.612475" y="-6.519617"/><use xlink:href="#d" x="8.472875" y="-6.519617"/><use xlink:href="#e" x="14.979117" y="-6.519617"/><use xlink:href="#f" x="18.232236" y="-6.519617"/></g></svg>