<svg xmlns="http://www.w3.org/2000/svg" xmlns:xlink="http://www.w3.org/1999/xlink" width="251.37pt" height="240.15pt" viewBox="0 0 251.37 240.15"><defs><path id="ap" d="M8.396 0v-.347c-.777 0-.993 0-1.16-.49L4.629-8.324c-.048-.144-.072-.215-.24-.215s-.191.035-.25.227l-2.5 7.152C1.47-.67 1.136-.36.37-.347V0l1.148-.024c.335 0 .909 0 1.22.024v-.347c-.502-.012-.801-.263-.801-.598 0-.072 0-.096.06-.251l.55-1.59H5.56L6.22-.91c.06.144.06.167.06.203 0 .36-.61.36-.909.36V0c.275-.024 1.22-.024 1.555-.024s1.196 0 1.47.024M5.442-3.134H2.667l1.387-3.982z"/><path id="ab" d="M5.669-1.064v-.67h-.263v.67c0 .681-.287.777-.455.777-.454 0-.454-.634-.454-.813v-2.093c0-.646 0-1.125-.526-1.591-.419-.383-.957-.55-1.483-.55-.981 0-1.735.646-1.735 1.423 0 .347.228.514.503.514.287 0 .49-.203.49-.49 0-.49-.43-.49-.61-.49.275-.503.85-.718 1.328-.718.55 0 1.256.455 1.256 1.53v.48C1.316-3.05.407-2.046.407-1.126c0 .946 1.1 1.245 1.83 1.245A1.63 1.63 0 0 0 3.79-.933c.048.562.419.993.933.993.251 0 .945-.168.945-1.124m-1.95-.622C3.72-.514 2.847-.12 2.333-.12c-.586 0-1.076-.43-1.076-1.004 0-1.579 2.033-1.722 2.464-1.746z"/><path id="ao" d="M4.856-1.423c0-.108-.084-.108-.12-.108-.107 0-.12.036-.155.18-.263.849-.91 1.207-1.555 1.207-.73 0-1.698-.633-1.698-2.451 0-1.986 1.016-2.476 1.614-2.476.455 0 1.112.18 1.388.646-.144 0-.587 0-.587.49 0 .287.204.49.49.49.276 0 .503-.167.503-.514 0-.801-.837-1.375-1.806-1.375C1.53-5.334.42-4.09.42-2.584.419-1.051 1.567.12 2.919.12c1.578 0 1.937-1.436 1.937-1.543"/><path id="ae" d="M6.16 0v-.347c-.814 0-.91-.084-.91-.67V-8.3l-1.662.131v.347c.813 0 .909.084.909.67v2.643a1.86 1.86 0 0 0-1.495-.765C1.615-5.274.419-4.102.419-2.571c0 1.519 1.136 2.69 2.451 2.69.91 0 1.436-.597 1.603-.825V.12zM4.472-1.4c0 .216 0 .252-.167.515-.287.419-.778.765-1.376.765-.31 0-1.602-.12-1.602-2.44 0-.86.143-1.339.406-1.734.24-.37.718-.741 1.316-.741.741 0 1.16.538 1.28.73.143.203.143.227.143.442z"/><path id="am" d="M7.63-3.062h-.263C7.08-1.196 6.793-.347 4.772-.347H3.145c-.526 0-.55-.084-.55-.478v-3.23h1.089c1.148 0 1.28.371 1.28 1.4h.263v-3.146h-.264c0 1.029-.131 1.4-1.28 1.4H2.596V-7.32c0-.394.024-.478.55-.478h1.591c1.758 0 2.129.598 2.308 2.32h.264l-.311-2.667H.49v.347h.24c.86 0 .897.12.897.562v6.327c0 .443-.036.562-.897.562H.49V0h6.662z"/><path id="Z" d="M4.868-1.423c0-.072-.06-.12-.132-.12-.096 0-.12.06-.143.12C4.282-.42 3.48-.143 2.978-.143s-1.71-.335-1.71-2.404v-.228H4.58c.263 0 .287 0 .287-.227 0-1.208-.646-2.332-2.093-2.332C1.41-5.334.359-4.102.359-2.62.359-1.041 1.579.12 2.906.12c1.424 0 1.962-1.292 1.962-1.543m-.742-1.579H1.28c.095-1.878 1.148-2.093 1.483-2.093 1.28 0 1.351 1.686 1.363 2.093"/><path id="aq" d="M5.681-4.856a.56.56 0 0 0-.586-.55c-.622 0-1.088.383-1.256.562a2 2 0 0 0-1.232-.43C1.531-5.274.73-4.461.73-3.54c0 .682.418 1.124.538 1.232-.144.18-.359.526-.359.992 0 .694.419.993.514 1.053-.55.155-1.1.586-1.1 1.208 0 .825 1.124 1.507 2.595 1.507 1.423 0 2.608-.634 2.608-1.531 0-.3-.084-1.005-.802-1.375-.61-.311-1.208-.311-2.236-.311-.73 0-.814 0-1.029-.228a.88.88 0 0 1-.227-.598c0-.203.072-.406.191-.574.562.371 1.04.371 1.172.371 1.077 0 1.878-.813 1.878-1.734 0-.323-.096-.778-.478-1.16.466-.479 1.028-.479 1.088-.479.048 0 .108 0 .155.024-.12.048-.179.168-.179.3 0 .167.12.31.311.31.096 0 .311-.06.311-.323M3.648-3.54c0 .215 0 .705-.204 1.028a1.02 1.02 0 0 1-.837.467c-1.052 0-1.052-1.208-1.052-1.483 0-.215 0-.706.203-1.029a1.02 1.02 0 0 1 .837-.466c1.053 0 1.053 1.208 1.053 1.483M4.939.933c0 .706-.908 1.268-2.009 1.268C1.782 2.2.91 1.615.91.933c0-.096.024-.562.478-.873.263-.168.371-.168 1.208-.168.993 0 2.344 0 2.344 1.04"/><path id="at" d="M6.231 0v-.347c-.598 0-.897 0-.909-.359v-2.2c0-1.113 0-1.447-.275-1.83-.347-.467-.909-.538-1.315-.538-1.029 0-1.507.777-1.675 1.148h-.012V-8.3L.383-8.17v.347c.813 0 .909.084.909.67v6.267c0 .538-.132.538-.91.538V0c.312-.024.958-.024 1.292-.024.347 0 .993 0 1.304.024v-.347c-.765 0-.909 0-.909-.538V-3.11c0-1.255.825-1.925 1.567-1.925s.909.61.909 1.34v2.81c0 .538-.132.538-.91.538V0c.312-.024.958-.024 1.293-.024.346 0 .992 0 1.303.024"/><path id="aw" d="M3.241-2.26v-.646H.131v.646z"/><path id="ag" d="M2.882 0v-.347c-.777 0-.825-.06-.825-.526v-4.401l-1.626.131v.347c.765 0 .873.072.873.658v3.253c0 .538-.132.538-.91.538V0c.336-.024.91-.024 1.256-.024.132 0 .826 0 1.232.024m-.67-7.224a.58.58 0 1 0-.586.574.576.576 0 0 0 .587-.574"/><path id="aa" d="M2.966 0v-.347c-.765 0-.909 0-.909-.538V-8.3L.395-8.17v.347c.813 0 .909.084.909.67v6.267c0 .538-.132.538-.91.538V0c.336-.024.922-.024 1.28-.024s.957 0 1.292.024"/><path id="ah" d="M9.484 0v-.347c-.598 0-.897 0-.909-.359v-2.2c0-1.113 0-1.447-.275-1.83-.347-.467-.909-.538-1.315-.538-.993 0-1.495.717-1.687 1.184-.167-.921-.813-1.184-1.566-1.184-1.16 0-1.615.992-1.71 1.232h-.013v-1.232l-1.626.131v.347c.813 0 .909.084.909.67v3.241c0 .538-.132.538-.91.538V0c.312-.024.958-.024 1.292-.024.347 0 .993 0 1.304.024v-.347c-.765 0-.909 0-.909-.538V-3.11c0-1.255.825-1.925 1.567-1.925s.909.61.909 1.34v2.81c0 .538-.132.538-.91.538V0c.312-.024.958-.024 1.293-.024.346 0 .992 0 1.303.024v-.347c-.765 0-.909 0-.909-.538V-3.11c0-1.255.825-1.925 1.567-1.925s.909.61.909 1.34v2.81c0 .538-.132.538-.909.538V0c.31-.024.957-.024 1.292-.024.346 0 .992 0 1.303.024"/><path id="ar" d="M5.49-2.56c0-1.542-1.172-2.774-2.56-2.774C1.495-5.334.36-4.066.36-2.56.359-1.03 1.555.12 2.919.12c1.41 0 2.57-1.172 2.57-2.68m-.91-.107c0 .419 0 1.16-.31 1.722a1.56 1.56 0 0 1-1.34.801c-.442 0-.98-.19-1.327-.777-.323-.538-.335-1.244-.335-1.746 0-.455 0-1.184.37-1.722a1.53 1.53 0 0 1 1.28-.706c.467 0 .969.215 1.292.682.37.55.37 1.303.37 1.746"/><path id="ac" d="M6.076-2.583c0-1.52-1.125-2.691-2.428-2.691-1.053 0-1.615.753-1.65.801v-.801l-1.663.131v.347c.837 0 .909.084.909.61v5.621c0 .538-.132.538-.91.538v.347c.312-.024.958-.024 1.293-.024.346 0 .992 0 1.303.024v-.347c-.765 0-.909 0-.909-.538v-2.08c.216.298.706.765 1.471.765 1.376 0 2.584-1.16 2.584-2.703m-.91 0c0 1.423-.813 2.463-1.733 2.463a1.4 1.4 0 0 1-.957-.382c-.275-.275-.455-.515-.455-.85v-2.463c0-.227 0-.24.132-.43a1.72 1.72 0 0 1 1.4-.766c.896 0 1.614 1.088 1.614 2.428"/><path id="au" d="M3.887 2.906c0-.036 0-.06-.203-.263C2.488 1.435 1.818-.538 1.818-2.978c0-2.32.562-4.318 1.95-5.729.119-.108.119-.131.119-.167 0-.072-.06-.096-.108-.096-.155 0-1.136.861-1.722 2.033-.61 1.208-.885 2.488-.885 3.959 0 1.064.168 2.488.79 3.767.705 1.436 1.686 2.213 1.817 2.213.048 0 .108-.024.108-.096"/><path id="ax" d="M3.373-2.978c0-.909-.12-2.392-.79-3.78C1.878-8.192.897-8.97.765-8.97c-.047 0-.107.024-.107.096 0 .036 0 .06.203.263C2.057-7.403 2.727-5.43 2.727-2.99c0 2.32-.562 4.318-1.95 5.729-.12.107-.12.131-.12.167 0 .072.06.096.108.096.156 0 1.137-.861 1.723-2.033.61-1.22.885-2.512.885-3.947"/><path id="as" d="M4.222-4.58c0-.36-.323-.694-.837-.694-1.017 0-1.364 1.1-1.436 1.327h-.011v-1.327l-1.603.131v.347c.813 0 .909.084.909.67v3.241c0 .538-.132.538-.91.538V0c.336-.024.994-.024 1.352-.024.323 0 1.172 0 1.448.024v-.347h-.24c-.873 0-.897-.131-.897-.562v-1.878c0-1.16.479-2.248 1.4-2.248.095 0 .12 0 .167.012-.096.048-.287.12-.287.442a.46.46 0 0 0 .466.479c.24 0 .479-.156.479-.479"/><path id="ad" d="M4.21-1.519c0-.646-.395-1.028-.502-1.136-.431-.37-.754-.443-1.543-.586-.359-.072-1.232-.24-1.232-.957 0-.37.251-.92 1.327-.92 1.304 0 1.376 1.111 1.4 1.482.012.096.095.096.131.096.132 0 .132-.06.132-.275V-5.06c0-.215 0-.275-.12-.275-.095 0-.323.263-.406.37-.371-.298-.742-.37-1.125-.37-1.447 0-1.877.79-1.877 1.447 0 .132 0 .55.454.969.383.335.79.418 1.34.526.657.132.813.167 1.112.407.215.179.37.442.37.777 0 .514-.298 1.088-1.35 1.088C1.53-.12.956-.574.693-1.77c-.048-.215-.06-.24-.06-.24-.024-.047-.072-.047-.108-.047-.131 0-.131.06-.131.275v1.627c0 .215 0 .275.12.275.06 0 .071-.012.274-.264.06-.083.06-.107.24-.299.454.563 1.1.563 1.303.563C3.588.12 4.21-.574 4.21-1.52"/><path id="af" d="M3.899-1.483v-.682h-.263v.658c0 .861-.347 1.363-.813 1.363-.814 0-.814-1.112-.814-1.315v-3.349h1.687v-.347H2.009v-2.2h-.263c-.012 1.124-.442 2.272-1.53 2.308v.24h1.016v3.324C1.232-.155 2.117.12 2.75.12c.753 0 1.148-.742 1.148-1.603"/><path id="an" d="M6.231 0v-.347c-.813 0-.909-.084-.909-.67v-4.257l-1.686.131v.347c.813 0 .909.084.909.67v2.14C4.545-.968 4.007-.12 3.11-.12c-.981 0-1.04-.562-1.04-1.196v-3.958l-1.687.131v.347c.909 0 .909.036.909 1.1v1.794c0 .742 0 1.172.358 1.567.288.311.778.455 1.388.455.203 0 .586 0 .993-.347.346-.275.538-.73.538-.73V.12z"/><path id="av" d="M11.816-7.822v-.347c-.514.024-.538.024-1.064.024-.31 0-.957 0-1.244-.024v.347c.73.012.945.395.945.634 0 .06-.036.156-.06.24L8.575-1.28 6.638-7.296a1 1 0 0 1-.036-.167c0-.359.634-.359.92-.359v-.347c-.286.024-1.171.024-1.518.024s-1.076 0-1.387-.024v.347c.633 0 .8.036.932.251.084.156.168.527.323.957L4.162-1.28 2.248-7.236c-.06-.167-.06-.191-.06-.227 0-.359.61-.359.922-.359v-.347c-.275.024-1.184.024-1.52.024-.346 0-1.076 0-1.387-.024v.347c.646 0 .873 0 1.017.455L3.588.023c.06.18.108.228.215.228.096 0 .156-.036.216-.215l1.985-6.207L8 .036c.06.18.12.215.216.215.107 0 .155-.048.215-.227l2.248-7.02c.192-.575.538-.814 1.136-.826"/><path id="W" d="M2.332.048c0-.694-.227-1.208-.717-1.208-.383 0-.574.31-.574.574S1.22 0 1.627 0a.53.53 0 0 0 .394-.155c.024-.024.036-.024.048-.024.024 0 .024.167.024.227 0 .395-.072 1.172-.765 1.95-.132.143-.132.167-.132.19 0 .06.06.12.12.12.095 0 1.016-.885 1.016-2.26"/><path id="V" d="M2.464-3.504c.024-.072.323-.67.765-1.053a1.74 1.74 0 0 1 1.184-.478c.479 0 .646.359.646.837 0 .072 0 .311-.143.873l-.3 1.232A47 47 0 0 0 4.27-.718c-.048.18-.12.49-.12.539 0 .167.132.299.311.299.359 0 .419-.275.526-.706l.718-2.858c.024-.096.646-1.591 1.961-1.591.479 0 .646.359.646.837 0 .67-.466 1.973-.73 2.691-.107.287-.167.443-.167.658 0 .538.371.969.945.969 1.112 0 1.53-1.759 1.53-1.83 0-.06-.047-.108-.119-.108-.107 0-.12.036-.18.24C9.318-.623 8.875-.12 8.397-.12c-.12 0-.311-.012-.311-.394 0-.311.143-.694.191-.826.216-.574.754-1.985.754-2.679 0-.717-.419-1.255-1.328-1.255-.801 0-1.447.454-1.925 1.16-.036-.646-.43-1.16-1.328-1.16-1.064 0-1.626.753-1.842 1.052-.036-.682-.526-1.052-1.052-1.052-.347 0-.622.167-.85.622-.215.43-.382 1.16-.382 1.208s.048.107.131.107c.096 0 .108-.012.18-.287.18-.706.407-1.411.885-1.411.275 0 .37.191.37.55 0 .263-.119.73-.203 1.1l-.335 1.292c-.047.227-.179.765-.239.98C1.03-.8.897-.238.897-.178c0 .167.132.299.311.299a.46.46 0 0 0 .407-.252c.024-.06.131-.478.191-.717l.263-1.077z"/><path id="X" d="M2.464-3.504c.024-.072.323-.67.765-1.053a1.74 1.74 0 0 1 1.184-.478c.479 0 .646.359.646.837 0 .682-.49 2.045-.73 2.691-.107.287-.167.443-.167.658 0 .538.37.969.945.969 1.112 0 1.53-1.759 1.53-1.83 0-.06-.047-.108-.119-.108-.107 0-.12.036-.18.24C6.065-.599 5.61-.12 5.144-.12c-.12 0-.311-.012-.311-.394 0-.3.131-.658.203-.826.24-.657.742-1.997.742-2.679 0-.717-.419-1.255-1.328-1.255-1.064 0-1.626.753-1.842 1.052-.036-.682-.526-1.052-1.052-1.052-.383 0-.646.227-.85.634C.49-4.21.324-3.492.324-3.444s.048.107.131.107c.096 0 .108-.012.18-.287.191-.73.407-1.411.885-1.411.275 0 .37.191.37.55 0 .263-.119.73-.203 1.1l-.335 1.292c-.047.227-.179.765-.239.98C1.03-.8.897-.238.897-.178c0 .167.132.299.311.299a.46.46 0 0 0 .407-.252c.024-.06.131-.478.191-.717l.263-1.077z"/><path id="ai" d="M2.404-4.808h1.1c.228 0 .347 0 .347-.215 0-.132-.072-.132-.31-.132H2.487L2.93-6.9c.048-.167.048-.191.048-.275 0-.191-.155-.299-.31-.299-.097 0-.372.036-.467.419l-.467 1.901H.61c-.24 0-.347 0-.347.227 0 .12.084.12.311.12H1.64L.849-1.65c-.096.418-.131.538-.131.693C.718-.395 1.112.12 1.782.12c1.208 0 1.854-1.747 1.854-1.83 0-.072-.048-.108-.12-.108-.024 0-.072 0-.095.048-.012.012-.024.024-.108.215C3.062-.957 2.512-.12 1.818-.12c-.359 0-.383-.299-.383-.562 0-.012 0-.239.036-.382z"/><path id="D" d="M3.52-1.269h-.237c-.021.154-.09.565-.181.635-.056.042-.593.042-.69.042H1.129a24 24 0 0 1 1.394-1.171c.516-.412.997-.844.997-1.506 0-.843-.739-1.36-1.631-1.36-.864 0-1.45.607-1.45 1.249 0 .355.3.39.37.39.167 0 .369-.119.369-.37 0-.125-.049-.369-.411-.369.216-.495.69-.648 1.017-.648.697 0 1.06.543 1.06 1.108 0 .606-.432 1.087-.655 1.338L.509-.27C.439-.21.439-.196.439 0h2.872z"/><path id="H" d="M3.297 2.39c0-.03 0-.05-.17-.219C1.882.916 1.564-.966 1.564-2.49c0-1.733.378-3.466 1.603-4.711.13-.12.13-.14.13-.17 0-.07-.04-.099-.1-.099-.1 0-.996.677-1.583 1.942C1.106-4.432.986-3.327.986-2.49c0 .777.11 1.982.657 3.108.598 1.225 1.455 1.872 1.554 1.872.06 0 .1-.03.1-.1"/><path id="L" d="M2.878-2.49c0-.777-.11-1.982-.657-3.108C1.623-6.823.767-7.47.667-7.47c-.06 0-.1.04-.1.1 0 .03 0 .05.19.229.976.986 1.544 2.57 1.544 4.651C2.3-.787 1.932.966.697 2.221c-.13.12-.13.14-.13.17 0 .06.04.099.1.099.1 0 .996-.677 1.584-1.942.508-1.096.627-2.201.627-3.038"/><path id="O" d="M4.582-3.187c0-.797-.05-1.594-.399-2.33-.458-.957-1.275-1.116-1.693-1.116-.598 0-1.325.259-1.733 1.185-.319.687-.369 1.464-.369 2.26 0 .748.04 1.644.449 2.401A1.83 1.83 0 0 0 2.48.22C3.018.22 3.775.01 4.213-.936c.319-.687.369-1.464.369-2.251M2.48 0c-.388 0-.976-.249-1.155-1.205-.11-.598-.11-1.514-.11-2.102 0-.637 0-1.295.08-1.832.189-1.186.936-1.275 1.185-1.275.329 0 .986.179 1.175 1.165.1.558.1 1.315.1 1.942 0 .747 0 1.425-.11 2.062C3.496-.299 2.928 0 2.48 0"/><path id="w" d="M2.888-3.506c.817-.269 1.395-.966 1.395-1.753 0-.817-.877-1.374-1.833-1.374-1.006 0-1.763.597-1.763 1.354 0 .329.22.518.508.518.309 0 .508-.219.508-.508 0-.498-.468-.498-.617-.498.308-.488.966-.617 1.324-.617.409 0 .956.219.956 1.115 0 .12-.02.697-.278 1.136-.3.478-.638.508-.887.518-.08.01-.319.03-.388.03-.08.01-.15.02-.15.119 0 .11.07.11.24.11h.438c.816 0 1.185.677 1.185 1.653C3.526-.35 2.839-.06 2.4-.06c-.428 0-1.175-.17-1.524-.757.35.05.658-.169.658-.548 0-.358-.27-.557-.558-.557-.239 0-.558.14-.558.577C.418-.438 1.345.22 2.43.22c1.215 0 2.122-.906 2.122-1.922 0-.817-.628-1.594-1.664-1.803"/><path id="Q" d="M4.472-2.002c0-1.185-.817-2.181-1.892-2.181-.478 0-.907.16-1.265.508v-1.942c.199.06.528.129.846.129 1.225 0 1.923-.906 1.923-1.036 0-.06-.03-.11-.1-.11-.01 0-.03 0-.08.03-.199.09-.687.29-1.354.29-.399 0-.857-.07-1.325-.28-.08-.03-.1-.03-.12-.03-.099 0-.099.08-.099.24v2.948c0 .18 0 .259.14.259.07 0 .089-.03.129-.09.11-.16.478-.697 1.285-.697.518 0 .767.458.846.637.16.369.18.757.18 1.255 0 .349 0 .947-.24 1.365-.238.388-.607.647-1.065.647C1.554-.06.986-.588.817-1.175c.03.01.06.02.169.02.329 0 .498-.25.498-.488s-.17-.488-.498-.488c-.14 0-.488.07-.488.527C.498-.747 1.185.22 2.301.22c1.155 0 2.171-.956 2.171-2.221"/><path id="y" d="M1.315-3.267v-.239c0-2.52 1.235-2.878 1.743-2.878.239 0 .657.06.876.398-.15 0-.548 0-.548.448 0 .309.24.458.459.458.159 0 .458-.09.458-.478 0-.597-.439-1.075-1.265-1.075-1.275 0-2.62 1.284-2.62 3.486C.418-.488 1.574.219 2.5.219c1.106 0 2.052-.936 2.052-2.25 0-1.266-.887-2.222-1.992-2.222-.678 0-1.046.508-1.245.986M2.5-.06c-.628 0-.926-.597-.986-.747-.18-.468-.18-1.265-.18-1.444 0-.777.32-1.773 1.216-1.773.16 0 .617 0 .926.618.18.368.18.876.18 1.364 0 .478 0 .976-.17 1.335-.299.597-.757.647-.986.647"/><path id="z" d="M1.623-4.552c-.458-.299-.498-.637-.498-.806 0-.608.648-1.026 1.355-1.026.727 0 1.365.518 1.365 1.235 0 .567-.389 1.045-.986 1.394zm1.455.946c.717-.368 1.205-.886 1.205-1.543 0-.917-.887-1.484-1.793-1.484-.996 0-1.803.737-1.803 1.663 0 .18.02.627.438 1.096.11.12.479.368.728.537-.578.29-1.435.847-1.435 1.833C.418-.448 1.434.219 2.48.219c1.126 0 2.072-.827 2.072-1.892a1.8 1.8 0 0 0-.488-1.225c-.19-.21-.349-.31-.986-.708m-.996.419 1.225.777c.279.189.747.488.747 1.095 0 .737-.747 1.255-1.564 1.255C1.633-.06.916-.677.916-1.504c0-.578.319-1.215 1.166-1.683"/><path id="P" d="M3.655-3.167v.318c0 2.331-1.036 2.79-1.613 2.79-.17 0-.707-.02-.976-.36.438 0 .518-.288.518-.457 0-.31-.24-.459-.459-.459-.159 0-.458.09-.458.478C.667-.189 1.205.22 2.052.22c1.285 0 2.5-1.354 2.5-3.496 0-2.68-1.146-3.356-2.032-3.356-.548 0-1.036.179-1.464.627-.409.448-.638.867-.638 1.614 0 1.245.877 2.22 1.992 2.22.608 0 1.016-.418 1.245-.995M2.42-2.4c-.16 0-.617 0-.926-.628-.18-.368-.18-.866-.18-1.354 0-.538 0-1.006.21-1.375.269-.498.647-.627.996-.627.458 0 .787.338.956.786.12.32.16.947.16 1.405 0 .827-.34 1.793-1.216 1.793"/><path id="N" d="M6.843-3.257c.149 0 .338 0 .338-.2s-.19-.198-.329-.198H.886c-.139 0-.328 0-.328.199s.189.2.338.2zm.01 1.932c.139 0 .328 0 .328-.199s-.19-.2-.338-.2H.896c-.149 0-.338 0-.338.2s.189.2.328.2z"/><path id="C" d="M2.211-1.713c-.866 0-.866-.996-.866-1.225 0-.27.01-.588.159-.837.08-.12.309-.398.707-.398.867 0 .867.996.867 1.225 0 .269-.01.587-.16.836-.08.12-.308.399-.707.399m-1.155.388c0-.04 0-.269.17-.468.388.28.796.309.985.309.926 0 1.614-.687 1.614-1.454 0-.369-.16-.737-.409-.966.359-.339.717-.389.897-.389.02 0 .07 0 .1.01-.11.04-.16.15-.16.27 0 .168.13.288.289.288.1 0 .289-.07.289-.299 0-.17-.12-.488-.508-.488-.2 0-.638.06-1.056.468a1.66 1.66 0 0 0-1.056-.358c-.926 0-1.613.687-1.613 1.454 0 .438.219.817.468 1.026-.13.15-.309.478-.309.826 0 .31.13.688.438.887C.598-.04.28.388.28.787c0 .717.986 1.265 2.201 1.265 1.175 0 2.211-.508 2.211-1.285 0-.349-.14-.857-.647-1.136-.528-.278-1.106-.278-1.713-.278-.25 0-.678 0-.747-.01-.32-.04-.528-.349-.528-.668M2.49 1.823C1.484 1.823.797 1.315.797.787c0-.458.378-.827.817-.857H2.2c.857 0 1.972 0 1.972.857 0 .538-.707 1.036-1.683 1.036"/><path id="F" d="m1.763-4.402-1.394.11v.308c.647 0 .737.06.737.548v2.679c0 .448-.11.448-.777.448V0c.318-.01.856-.03 1.095-.03.349 0 .697.02 1.036.03v-.309c-.657 0-.697-.05-.697-.438zm.04-1.733a.52.52 0 0 0-.528-.528.54.54 0 0 0-.528.528c0 .269.22.528.528.528.279 0 .528-.21.528-.528"/><path id="A" d="m1.763-6.912-1.434.11v.308c.697 0 .777.07.777.558v5.179c0 .448-.11.448-.777.448V0c.328-.01.856-.03 1.105-.03s.737.02 1.106.03v-.309c-.668 0-.777 0-.777-.448z"/><path id="E" d="M1.096-3.426v2.669c0 .448-.11.448-.777.448V0c.348-.01.856-.03 1.125-.03.26 0 .777.02 1.116.03v-.309c-.668 0-.777 0-.777-.448V-2.59c0-1.035.707-1.593 1.344-1.593.628 0 .737.538.737 1.105v2.321c0 .448-.11.448-.776.448V0c.348-.01.856-.03 1.125-.03.259 0 .777.02 1.116.03v-.309c-.668 0-.777 0-.777-.448V-2.59c0-1.035.707-1.593 1.344-1.593.628 0 .737.538.737 1.105v2.321c0 .448-.11.448-.777.448V0c.35-.01.857-.03 1.126-.03.259 0 .777.02 1.115.03v-.309c-.517 0-.766 0-.776-.299V-2.51c0-.856 0-1.165-.31-1.524-.139-.17-.467-.368-1.045-.368-.837 0-1.275.597-1.444.976-.14-.867-.877-.976-1.325-.976-.727 0-1.195.428-1.474 1.045v-1.045l-1.404.11v.308c.697 0 .777.07.777.558"/><path id="G" d="M1.096-3.426v2.669c0 .448-.11.448-.777.448V0c.348-.01.856-.03 1.125-.03.26 0 .777.02 1.116.03v-.309c-.668 0-.777 0-.777-.448V-2.59c0-1.035.707-1.593 1.344-1.593.628 0 .737.538.737 1.105v2.321c0 .448-.11.448-.776.448V0c.348-.01.856-.03 1.125-.03.259 0 .777.02 1.116.03v-.309c-.518 0-.767 0-.777-.299V-2.51c0-.856 0-1.165-.309-1.524-.14-.17-.468-.368-1.046-.368-.727 0-1.195.428-1.474 1.045v-1.045l-1.404.11v.308c.697 0 .777.07.777.558"/><path id="B" d="M4.691-2.131c0-1.275-.996-2.331-2.201-2.331-1.245 0-2.211 1.086-2.211 2.33A2.223 2.223 0 0 0 2.48.11a2.22 2.22 0 0 0 2.211-2.241M2.49-.14c-.428 0-.867-.21-1.135-.668-.25-.438-.25-1.046-.25-1.404 0-.389 0-.926.24-1.365a1.34 1.34 0 0 1 1.135-.667c.438 0 .867.22 1.126.647s.258 1.006.258 1.385c0 .358 0 .896-.219 1.335-.219.448-.657.737-1.155.737"/><path id="v" d="M7.191-3.327c0-.219-.06-.318-.14-.318-.05 0-.129.07-.139.259-.04.956-.697 1.504-1.394 1.504-.628 0-1.106-.429-1.594-.857-.508-.458-1.026-.916-1.703-.916C1.135-3.655.548-2.56.548-1.653c0 .318.13.318.14.318.109 0 .139-.199.139-.229.04-1.095.787-1.534 1.394-1.534.628 0 1.106.429 1.594.857.508.458 1.026.916 1.703.916 1.085 0 1.673-1.095 1.673-2.002"/><path id="k" d="M3.897-2.542c0-.853-.087-1.371-.35-1.881-.351-.702-.997-.877-1.435-.877-1.004 0-1.37.75-1.482.972-.287.582-.303 1.371-.303 1.786 0 .526.024 1.33.406 1.968.367.59.957.741 1.38.741.382 0 1.067-.12 1.466-.908.294-.574.318-1.283.318-1.801M2.112-.056c-.27 0-.82-.127-.988-.964-.088-.454-.088-1.204-.088-1.618 0-.55 0-1.108.088-1.546.167-.813.789-.893.988-.893.271 0 .821.136.98.86.096.44.096 1.037.096 1.579 0 .47 0 1.187-.096 1.634-.167.837-.717.948-.98.948"/><path id="j" d="M2.503-5.077c0-.215-.016-.223-.232-.223-.326.319-.749.51-1.506.51v.263c.215 0 .646 0 1.108-.215v4.088c0 .295-.024.391-.781.391h-.28V0c.328-.024 1.013-.024 1.372-.024s1.052 0 1.379.024v-.263h-.28c-.757 0-.78-.096-.78-.39z"/><path id="c" d="M2.016-2.662c.63 0 1.029.462 1.029 1.3 0 .995-.566 1.29-.989 1.29-.438 0-1.036-.16-1.315-.582.287 0 .486-.183.486-.446a.423.423 0 0 0-.438-.438c-.215 0-.438.135-.438.454 0 .757.813 1.251 1.721 1.251 1.06 0 1.801-.733 1.801-1.53 0-.661-.526-1.267-1.339-1.442.63-.224 1.1-.766 1.1-1.403S2.917-5.3 2.088-5.3C1.235-5.3.59-4.838.59-4.232c0 .295.199.422.406.422a.39.39 0 0 0 .407-.406c0-.295-.255-.407-.43-.415.334-.438.948-.462 1.091-.462.207 0 .813.064.813.885 0 .558-.231.892-.343 1.02-.239.247-.422.263-.908.295-.152.008-.215.016-.215.12 0 .111.071.111.207.111z"/><path id="d" d="M3.14-5.157c0-.159 0-.223-.167-.223-.104 0-.112.008-.191.12L.239-1.57v.263h2.248v.661c0 .295-.024.383-.638.383h-.183V0c.677-.024.693-.024 1.147-.024s.47 0 1.148.024v-.263h-.183c-.614 0-.638-.088-.638-.383v-.661h.845v-.263H3.14zm-.598.646v2.94H.518z"/><path id="e" d="M1.116-4.48c.103.033.422.112.757.112.996 0 1.602-.7 1.602-.82 0-.088-.056-.112-.096-.112-.016 0-.032 0-.103.04-.311.12-.678.215-1.108.215-.47 0-.86-.12-1.108-.215C.98-5.3.964-5.3.956-5.3c-.103 0-.103.088-.103.231v2.335c0 .144 0 .24.127.24.064 0 .088-.032.128-.096.095-.12.398-.526 1.076-.526.446 0 .661.366.733.518.136.287.151.653.151.964 0 .295-.008.725-.23 1.076a1.07 1.07 0 0 1-.893.486A1.295 1.295 0 0 1 .733-.917c.024.008.072.008.08.008.223 0 .398-.143.398-.39 0-.295-.23-.399-.39-.399-.144 0-.399.08-.399.423 0 .717.622 1.442 1.539 1.442.996 0 1.84-.773 1.84-1.761 0-.925-.669-1.745-1.61-1.745-.398 0-.772.127-1.075.398z"/><path id="f" d="M1.1-2.638c0-.662.056-1.243.343-1.73.239-.398.645-.725 1.147-.725.16 0 .526.024.71.303-.36.016-.39.287-.39.375-.001.239.182.374.374.374.143 0 .374-.087.374-.39 0-.479-.358-.869-1.076-.869C1.474-5.3.351-4.248.351-2.526.35-.366 1.355.167 2.128.167c.383 0 .797-.103 1.156-.446.318-.31.59-.646.59-1.339 0-1.044-.79-1.777-1.674-1.777-.574 0-.917.366-1.1.757M2.128-.072c-.422 0-.685-.295-.805-.518-.183-.358-.2-.9-.2-1.203 0-.79.431-1.38 1.045-1.38.398 0 .637.208.789.487.167.295.167.654.167 1.06s0 .757-.16 1.044c-.206.367-.485.51-.836.51"/><path id="g" d="M4.033-4.854c.072-.087.072-.103.072-.279H2.08c-.2 0-.446-.008-.645-.024-.415-.031-.423-.103-.447-.23H.741l-.27 1.68h.246c.016-.119.104-.669.215-.732.088-.04.686-.04.805-.04h1.69l-.82 1.1c-.91 1.211-1.1 2.47-1.1 3.1 0 .08 0 .446.374.446s.375-.358.375-.454v-.382c0-1.148.19-2.089.581-2.607z"/><path id="h" d="M2.646-2.877c.446-.215.988-.614.988-1.236 0-.757-.773-1.187-1.514-1.187-.845 0-1.53.582-1.53 1.33 0 .296.103.567.303.798.135.167.167.183.661.494C.566-2.24.351-1.658.351-1.21c0 .876.884 1.378 1.753 1.378.98 0 1.77-.661 1.77-1.506 0-.502-.272-.837-.4-.972-.135-.128-.143-.136-.828-.566m-1.235-.75c-.231-.135-.423-.366-.423-.645 0-.502.55-.82 1.116-.82.622 0 1.132.422 1.132.98 0 .462-.359.852-.83 1.083zm.39 1.093c.032.015.94.573 1.076.661.128.072.542.327.542.805 0 .614-.645.996-1.299.996-.71 0-1.315-.486-1.315-1.14 0-.597.446-1.067.996-1.322"/><path id="i" d="M3.124-2.351c0 1.945-.924 2.28-1.387 2.28-.167 0-.581-.025-.797-.272.351-.032.375-.295.375-.374a.364.364 0 0 0-.375-.375c-.143 0-.374.088-.374.39 0 .543.446.87 1.18.87 1.091 0 2.127-1.085 2.127-2.79 0-2.072-.916-2.678-1.737-2.678-.94 0-1.785.733-1.785 1.777 0 1.028.773 1.778 1.673 1.778.566 0 .909-.36 1.1-.766zm-1.068.382c-.366 0-.597-.167-.773-.462C1.1-2.726 1.1-3.108 1.1-3.515c0-.47 0-.805.215-1.132.2-.286.454-.446.829-.446.534 0 .765.526.789.566.167.39.175 1.012.175 1.172 0 .63-.342 1.386-1.052 1.386"/><path id="x" d="M1.912-.528c0-.289-.239-.528-.528-.528s-.527.24-.527.528.239.528.527.528.528-.239.528-.528"/><path id="J" d="M2.022-.01c0-.657-.25-1.046-.638-1.046a.513.513 0 0 0-.527.528c0 .269.199.528.527.528.12 0 .25-.04.349-.13.03-.02.04-.03.05-.03s.02.01.02.15c0 .737-.349 1.335-.678 1.663-.11.11-.11.13-.11.16 0 .07.05.11.1.11.11 0 .907-.768.907-1.933"/><path id="M" d="M3.735-6.115c.06-.24.09-.34.279-.369.09-.01.408-.01.607-.01.708 0 1.813 0 1.813.986 0 .339-.16 1.026-.548 1.414-.259.26-.786.578-1.683.578H3.088zm1.434 2.729c1.006-.22 2.191-.917 2.191-1.923 0-.856-.896-1.494-2.2-1.494H2.32c-.199 0-.288 0-.288.2 0 .11.09.11.279.11.02 0 .209 0 .378.019.18.02.27.03.27.16 0 .04-.01.07-.04.189L1.583-.777c-.1.389-.12.468-.907.468-.179 0-.269 0-.269.2 0 .109.12.109.14.109.279 0 .976-.03 1.255-.03S2.789 0 3.068 0c.08 0 .199 0 .199-.2 0-.109-.09-.109-.279-.109-.369 0-.647 0-.647-.179 0-.06.02-.11.03-.17l.657-2.639h1.185c.906 0 1.086.558 1.086.907 0 .149-.08.458-.14.687-.07.279-.16.647-.16.846C5 .22 6.196.22 6.326.22 7.17.22 7.52-.787 7.52-.926c0-.12-.11-.12-.12-.12-.09 0-.11.07-.13.14C7.023-.17 6.595 0 6.365 0c-.328 0-.398-.22-.398-.608 0-.308.06-.816.1-1.135.02-.14.04-.329.04-.468 0-.767-.668-1.076-.937-1.175"/><path id="I" d="M.876-.588c-.03.15-.09.379-.09.429 0 .179.14.269.29.269.12 0 .298-.08.368-.28.01-.02.13-.487.19-.736l.219-.897c.06-.219.12-.438.169-.667.04-.17.12-.458.13-.498.149-.309.677-1.215 1.623-1.215.448 0 .538.368.538.697 0 .249-.07.528-.15.827l-.279 1.155-.199.757c-.04.2-.13.538-.13.588 0 .179.14.269.29.269.308 0 .368-.25.448-.568.14-.558.508-2.012.597-2.4.03-.13.558-1.325 1.644-1.325.428 0 .538.338.538.697 0 .568-.419 1.703-.618 2.231-.09.24-.13.349-.13.548 0 .468.35.817.817.817.937 0 1.305-1.455 1.305-1.534 0-.1-.09-.1-.12-.1-.099 0-.099.03-.149.18C8.027-.818 7.71-.11 7.161-.11c-.17 0-.239-.1-.239-.328 0-.25.09-.488.18-.707.189-.518.607-1.624.607-2.192 0-.647-.398-1.065-1.145-1.065s-1.255.438-1.624.966c-.01-.13-.04-.468-.319-.707-.249-.21-.567-.26-.816-.26-.897 0-1.385.638-1.554.867-.05-.568-.468-.866-.916-.866-.459 0-.648.388-.737.567-.18.349-.31.937-.31.967 0 .1.1.1.12.1.1 0 .11-.01.17-.23.169-.707.368-1.185.727-1.185.16 0 .309.08.309.458 0 .21-.03.319-.16.837z"/><path id="K" d="M.876-.588c-.03.15-.09.379-.09.429 0 .179.14.269.29.269.12 0 .298-.08.368-.28.01-.02.13-.487.19-.736l.219-.897c.06-.219.12-.438.169-.667.04-.17.12-.458.13-.498.149-.309.677-1.215 1.623-1.215.448 0 .538.368.538.697 0 .618-.488 1.892-.648 2.32-.09.23-.1.35-.1.459 0 .468.35.817.817.817.937 0 1.305-1.455 1.305-1.534 0-.1-.09-.1-.12-.1-.099 0-.099.03-.149.18C5.22-.668 4.89-.11 4.402-.11c-.169 0-.239-.1-.239-.328 0-.25.09-.488.18-.707.189-.528.607-1.624.607-2.192 0-.667-.428-1.065-1.145-1.065-.897 0-1.385.637-1.554.866-.05-.558-.458-.866-.916-.866s-.648.388-.747.567a5 5 0 0 0-.3.967c0 .1.1.1.12.1.1 0 .11-.01.17-.23.169-.707.368-1.185.727-1.185.199 0 .309.13.309.458 0 .21-.03.319-.16.837z"/><path id="u" d="M2.052-3.984h.936c.2 0 .299 0 .299-.2 0-.109-.1-.109-.28-.109h-.876c.359-1.414.409-1.613.409-1.673 0-.17-.12-.269-.289-.269-.03 0-.309.01-.398.359l-.389 1.583H.528c-.2 0-.299 0-.299.19 0 .119.08.119.279.119h.876C.667-1.155.627-.986.627-.807c0 .538.379.917.917.917 1.016 0 1.583-1.455 1.583-1.534 0-.1-.08-.1-.12-.1-.089 0-.099.03-.148.14C2.43-.35 1.902-.11 1.564-.11c-.21 0-.309-.129-.309-.458 0-.239.02-.308.06-.478z"/><path id="U" d="M3.887 2.906c0-.036 0-.06-.203-.263C2.488 1.435 1.818-.538 1.818-2.978c0-2.32.562-4.318 1.95-5.729.119-.108.119-.131.119-.167 0-.072-.06-.096-.108-.096-.155 0-1.136.861-1.722 2.033-.61 1.208-.885 2.488-.885 3.959 0 1.064.168 2.488.79 3.767.705 1.436 1.686 2.213 1.817 2.213.048 0 .108-.024.108-.096"/><path id="Y" d="M3.373-2.978c0-.909-.12-2.392-.79-3.78C1.878-8.192.897-8.97.765-8.97c-.047 0-.107.024-.107.096 0 .036 0 .06.203.263C2.057-7.403 2.727-5.43 2.727-2.99c0 2.32-.562 4.318-1.95 5.729-.12.107-.12.131-.12.167 0 .072.06.096.108.096.156 0 1.137-.861 1.723-2.033.61-1.22.885-2.512.885-3.947"/><path id="b" d="M5.358-3.827c0-.993-.06-1.962-.49-2.87-.49-.993-1.352-1.256-1.938-1.256-.693 0-1.543.346-1.985 1.34C.61-5.86.49-5.12.49-3.828c0 1.16.084 2.033.515 2.882A2.13 2.13 0 0 0 2.918.251c1.04 0 1.639-.622 1.986-1.315.43-.897.454-2.07.454-2.763M2.918.012c-.382 0-1.16-.215-1.387-1.519-.132-.718-.132-1.627-.132-2.464 0-.98 0-1.865.192-2.571.203-.801.813-1.172 1.327-1.172.455 0 1.148.275 1.376 1.303.155.682.155 1.627.155 2.44 0 .802 0 1.71-.131 2.44C4.09-.215 3.337.012 2.918.012"/><path id="a" d="M3.444-7.666c0-.275 0-.287-.239-.287-.287.323-.885.765-2.117.765v.347c.275 0 .873 0 1.531-.311v6.231c0 .43-.036.574-1.088.574h-.37V0c.322-.024 1.482-.024 1.877-.024s1.543 0 1.866.024v-.347h-.371C3.48-.347 3.444-.49 3.444-.92z"/><path id="l" d="M5.262-2.01H5c-.036.204-.131.862-.25 1.053-.085.108-.766.108-1.125.108H1.41c.323-.275 1.053-1.04 1.364-1.328 1.818-1.674 2.487-2.296 2.487-3.48 0-1.375-1.088-2.296-2.475-2.296S.586-6.77.586-5.741c0 .61.526.61.562.61.251 0 .562-.18.562-.562 0-.335-.227-.562-.562-.562-.107 0-.131 0-.167.012.227-.813.873-1.364 1.65-1.364 1.017 0 1.639.85 1.639 1.95 0 1.017-.586 1.902-1.268 2.667L.586-.287V0h4.365z"/><path id="m" d="M2.2-4.294c-.203.012-.25.024-.25.132 0 .12.06.12.275.12h.55c1.016 0 1.47.837 1.47 1.985 0 1.567-.812 1.985-1.399 1.985-.574 0-1.554-.275-1.901-1.064.383.06.73-.156.73-.586a.565.565 0 0 0-.587-.586c-.287 0-.598.167-.598.622C.49-.622 1.555.25 2.882.25c1.424 0 2.476-1.088 2.476-2.296 0-1.1-.885-1.962-2.033-2.165 1.04-.299 1.71-1.172 1.71-2.105 0-.945-.98-1.638-2.14-1.638-1.197 0-2.082.73-2.082 1.602 0 .479.371.574.55.574.252 0 .539-.18.539-.538 0-.383-.287-.55-.55-.55-.072 0-.096 0-.132.012.454-.813 1.579-.813 1.638-.813.395 0 1.173.179 1.173 1.351 0 .227-.036.897-.383 1.411-.359.527-.766.563-1.089.574z"/><path id="n" d="M4.318-7.786c0-.227 0-.287-.168-.287-.096 0-.131 0-.227.144l-3.6 5.585v.347h3.145V-.91c0 .443-.024.562-.897.562h-.239V0c.275-.024 1.22-.024 1.555-.024s1.292 0 1.567.024v-.347h-.24c-.86 0-.896-.12-.896-.562v-1.088h1.208v-.347H4.318zm-.79.933v4.509H.622z"/><path id="o" d="M1.53-6.853c.515.167.934.18 1.065.18 1.352 0 2.213-.993 2.213-1.16 0-.049-.024-.108-.096-.108-.024 0-.048 0-.155.047a3.9 3.9 0 0 1-1.555.323c-.79 0-1.352-.239-1.579-.335-.083-.035-.107-.035-.12-.035-.095 0-.095.071-.095.263v3.552c0 .215 0 .287.143.287.06 0 .072-.012.192-.156.335-.49.897-.777 1.495-.777.634 0 .945.586 1.04.79.204.466.216 1.052.216 1.506s0 1.136-.335 1.675c-.263.43-.73.73-1.256.73-.79 0-1.567-.539-1.782-1.412.06.024.131.036.191.036.204 0 .527-.12.527-.526 0-.335-.228-.527-.527-.527-.215 0-.526.108-.526.574 0 1.017.813 2.177 2.14 2.177 1.352 0 2.536-1.136 2.536-2.655 0-1.423-.956-2.607-2.212-2.607-.682 0-1.208.299-1.52.634z"/><path id="p" d="M1.471-4.162c0-3.026 1.471-3.504 2.117-3.504.43 0 .861.131 1.088.49-.143 0-.598 0-.598.49 0 .263.18.49.49.49.3 0 .503-.179.503-.526 0-.621-.454-1.231-1.495-1.231C2.069-7.953.49-6.411.49-3.78.49-.49 1.926.25 2.942.25c1.304 0 2.416-1.136 2.416-2.69 0-1.592-1.112-2.656-2.308-2.656-1.065 0-1.46.921-1.579 1.256zm1.471 4.09c-.753 0-1.112-.67-1.22-.92-.107-.312-.227-.898-.227-1.735 0-.945.43-2.129 1.507-2.129.658 0 1.005.443 1.184.85.191.442.191 1.04.191 1.554 0 .61 0 1.148-.227 1.603-.299.574-.73.777-1.208.777"/><path id="q" d="M5.681-7.427v-.275H2.799c-1.448 0-1.471-.156-1.52-.383h-.262L.646-5.693h.263c.036-.215.143-.957.299-1.088.096-.072.993-.072 1.16-.072h2.536L3.636-5.035C3.313-4.57 2.105-2.607 2.105-.36c0 .132 0 .61.49.61.503 0 .503-.466.503-.622v-.598c0-1.782.287-3.17.849-3.97z"/><path id="r" d="M3.564-4.318c.598-.322 1.471-.873 1.471-1.877 0-1.04-1.004-1.758-2.105-1.758-1.184 0-2.117.873-2.117 1.961 0 .407.12.813.455 1.22.131.155.143.167.98.753C1.088-3.48.49-2.679.49-1.806.49-.538 1.698.251 2.918.251c1.328 0 2.44-.98 2.44-2.236 0-1.22-.861-1.758-1.794-2.333M1.938-5.394c-.156-.108-.634-.419-.634-1.005 0-.777.813-1.267 1.614-1.267.861 0 1.627.622 1.627 1.483 0 .73-.526 1.315-1.22 1.698zM2.5-3.851l1.447.945c.31.203.86.574.86 1.303 0 .91-.92 1.531-1.877 1.531-1.016 0-1.89-.741-1.89-1.734 0-.933.682-1.686 1.46-2.045"/><path id="s" d="M4.377-3.48c0 2.822-1.255 3.408-1.973 3.408-.287 0-.921-.036-1.22-.454h.072c.084.024.514-.048.514-.49 0-.264-.18-.491-.49-.491s-.503.203-.503.514c0 .742.598 1.244 1.639 1.244 1.495 0 2.942-1.59 2.942-4.186 0-3.217-1.34-4.018-2.392-4.018C1.65-7.953.49-6.853.49-5.274S1.603-2.62 2.8-2.62c.885 0 1.34-.646 1.578-1.256zm-1.53.622c-.754 0-1.077-.61-1.185-.838-.19-.454-.19-1.028-.19-1.566 0-.67 0-1.244.31-1.735.215-.323.538-.67 1.184-.67.682 0 1.029.599 1.148.874.24.586.24 1.602.24 1.782 0 1.004-.455 2.153-1.508 2.153"/><path id="aj" d="M2.99 2.99v-.443H1.83V-8.527h1.16v-.443H1.387V2.99z"/><path id="al" d="M1.854-8.97H.25v.443h1.16V2.547H.251v.443h1.603z"/><path id="S" d="M2.081-7.367a.587.587 0 0 0-.586-.586.574.574 0 0 0-.574.574c0 .358.287.586.574.586.37 0 .586-.311.586-.574M.431-5.143v.347c.765 0 .873.072.873.658v3.253c0 .538-.132.538-.91.538V0c.336-.024.91-.024 1.256-.024.132 0 .826 0 1.232.024v-.347c-.777 0-.825-.06-.825-.526v-4.401z"/><path id="R" d="M8.575-2.906c0-1.113 0-1.447-.275-1.83-.347-.467-.909-.538-1.315-.538-.993 0-1.495.717-1.687 1.184-.167-.921-.813-1.184-1.566-1.184-1.16 0-1.615.992-1.71 1.232h-.013v-1.232l-1.626.131v.347c.813 0 .909.084.909.67v3.241c0 .538-.132.538-.91.538V0c.312-.024.958-.024 1.292-.024.347 0 .993 0 1.304.024v-.347c-.765 0-.909 0-.909-.538V-3.11c0-1.255.825-1.925 1.567-1.925s.909.61.909 1.34v2.81c0 .538-.132.538-.91.538V0c.312-.024.958-.024 1.293-.024.346 0 .992 0 1.303.024v-.347c-.765 0-.909 0-.909-.538V-3.11c0-1.255.825-1.925 1.567-1.925s.909.61.909 1.34v2.81c0 .538-.132.538-.909.538V0c.31-.024.957-.024 1.292-.024.346 0 .992 0 1.303.024v-.347c-.598 0-.897 0-.909-.359z"/><path id="T" d="M5.322-2.906c0-1.113 0-1.447-.275-1.83-.347-.467-.909-.538-1.315-.538-1.16 0-1.615.992-1.71 1.232h-.013v-1.232l-1.626.131v.347c.813 0 .909.084.909.67v3.241c0 .538-.132.538-.91.538V0c.312-.024.958-.024 1.292-.024.347 0 .993 0 1.304.024v-.347c-.765 0-.909 0-.909-.538V-3.11c0-1.255.825-1.925 1.567-1.925s.909.61.909 1.34v2.81c0 .538-.132.538-.91.538V0c.312-.024.958-.024 1.293-.024.346 0 .992 0 1.303.024v-.347c-.598 0-.897 0-.909-.359z"/><path id="ak" d="M3.923-5.06c0-.214 0-.274-.12-.274-.095 0-.323.263-.406.37-.371-.298-.742-.37-1.125-.37-1.447 0-1.877.79-1.877 1.447 0 .132 0 .55.454.969.383.335.79.418 1.34.526.657.132.813.167 1.112.407.215.179.37.442.37.777 0 .514-.298 1.088-1.35 1.088C1.53-.12.956-.574.693-1.77c-.048-.215-.048-.227-.06-.24-.024-.047-.072-.047-.108-.047-.131 0-.131.06-.131.275v1.627c0 .215 0 .275.12.275.06 0 .071-.012.274-.264.06-.083.06-.107.24-.299.454.563 1.1.563 1.303.563C3.588.12 4.21-.574 4.21-1.52c0-.646-.395-1.028-.502-1.136-.431-.37-.754-.443-1.543-.586-.359-.072-1.232-.24-1.232-.957 0-.37.251-.92 1.327-.92 1.304 0 1.376 1.111 1.4 1.482.012.096.095.096.131.096.132 0 .132-.06.132-.275z"/><clipPath id="t"><path d="M51.336 191.045h181.951V37.455H51.337Z"/></clipPath></defs><g fill="none" stroke-miterlimit="10"><path stroke="gray" stroke-width=".19925" d="M66.5 191.045v-4.252m22.744 4.252v-4.252m22.744 4.252v-4.252m22.744 4.252v-4.252m22.744 4.252v-4.252m22.744 4.252v-4.252m22.744 4.252v-4.252m22.744 4.252v-4.252M66.5 37.455v4.252m22.744-4.252v4.252m22.744-4.252v4.252m22.744-4.252v4.252m22.744-4.252v4.252m22.744-4.252v4.252m22.744-4.252v4.252m22.744-4.252v4.252M51.336 175.336h4.253m-4.253-17.453h4.253m-4.253-17.453h4.253m-4.253-17.454h4.253m-4.253-17.453h4.253M51.336 88.07h4.253m-4.253-17.454h4.253m-4.253-17.453h4.253m177.698 122.173h-4.252m4.252-17.453h-4.252m4.252-17.453h-4.252m4.252-17.454h-4.252m4.252-17.453h-4.252m4.252-17.453h-4.252m4.252-17.454h-4.252m4.252-17.453h-4.252"/><path stroke="#000" stroke-width=".3985" d="M51.336 191.045V37.455h181.951v153.59z"/></g><g transform="translate(92.014 107.634)scale(1.0004)"><use xlink:href="#a" x="-33.746544" y="97.107973"/><use xlink:href="#b" x="-27.898107" y="97.107973"/></g><use xlink:href="#c" x="-22.026724" y="92.729837" transform="matrix(.99999 0 0 .99999 92.014 107.634)"/><g transform="translate(114.758 107.634)scale(1.0004)"><use xlink:href="#a" x="-33.746544" y="97.107973"/><use xlink:href="#b" x="-27.898107" y="97.107973"/></g><use xlink:href="#d" x="-22.026724" y="92.729837" transform="matrix(.99999 0 0 .99999 114.758 107.634)"/><g transform="translate(137.502 107.634)scale(1.0004)"><use xlink:href="#a" x="-33.746544" y="97.107973"/><use xlink:href="#b" x="-27.898107" y="97.107973"/></g><use xlink:href="#e" x="-22.026724" y="92.729837" transform="matrix(.99999 0 0 .99999 137.502 107.634)"/><g transform="translate(160.246 107.634)scale(1.0004)"><use xlink:href="#a" x="-33.746544" y="97.107973"/><use xlink:href="#b" x="-27.898107" y="97.107973"/></g><use xlink:href="#f" x="-22.026724" y="92.729837" transform="matrix(.99999 0 0 .99999 160.246 107.634)"/><g transform="translate(182.99 107.634)scale(1.0004)"><use xlink:href="#a" x="-33.746544" y="97.107973"/><use xlink:href="#b" x="-27.898107" y="97.107973"/></g><use xlink:href="#g" x="-22.026724" y="92.729837" transform="matrix(.99999 0 0 .99999 182.99 107.634)"/><g transform="translate(205.734 107.634)scale(1.0004)"><use xlink:href="#a" x="-33.746544" y="97.107973"/><use xlink:href="#b" x="-27.898107" y="97.107973"/></g><use xlink:href="#h" x="-22.026724" y="92.729837" transform="matrix(.99999 0 0 .99999 205.734 107.634)"/><g transform="translate(228.478 107.634)scale(1.0004)"><use xlink:href="#a" x="-33.746544" y="97.107973"/><use xlink:href="#b" x="-27.898107" y="97.107973"/></g><use xlink:href="#i" x="-22.026724" y="92.729837" transform="matrix(.99999 0 0 .99999 228.478 107.634)"/><g transform="translate(249.105 107.634)scale(1.0004)"><use xlink:href="#a" x="-33.746544" y="97.107973"/><use xlink:href="#b" x="-27.898107" y="97.107973"/></g><g transform="matrix(.99999 0 0 .99999 249.105 107.634)"><use xlink:href="#j" x="-22.026724" y="92.729837"/><use xlink:href="#k" x="-17.794654" y="92.729837"/></g><g transform="translate(69.179 82.12)scale(1.0004)"><use xlink:href="#l" x="-33.746544" y="97.107973"/><use xlink:href="#b" x="-27.898107" y="97.107973"/></g><g transform="translate(69.179 64.666)scale(1.0004)"><use xlink:href="#m" x="-33.746544" y="97.107973"/><use xlink:href="#b" x="-27.898107" y="97.107973"/></g><g transform="translate(69.179 47.213)scale(1.0004)"><use xlink:href="#n" x="-33.746544" y="97.107973"/><use xlink:href="#b" x="-27.898107" y="97.107973"/></g><g transform="translate(69.179 29.76)scale(1.0004)"><use xlink:href="#o" x="-33.746544" y="97.107973"/><use xlink:href="#b" x="-27.898107" y="97.107973"/></g><g transform="translate(69.179 12.306)scale(1.0004)"><use xlink:href="#p" x="-33.746544" y="97.107973"/><use xlink:href="#b" x="-27.898107" y="97.107973"/></g><g transform="translate(69.179 -5.147)scale(1.0004)"><use xlink:href="#q" x="-33.746544" y="97.107973"/><use xlink:href="#b" x="-27.898107" y="97.107973"/></g><g transform="translate(69.179 -22.601)scale(1.0004)"><use xlink:href="#r" x="-33.746544" y="97.107973"/><use xlink:href="#b" x="-27.898107" y="97.107973"/></g><g transform="translate(69.179 -40.054)scale(1.0004)"><use xlink:href="#s" x="-33.746544" y="97.107973"/><use xlink:href="#b" x="-27.898107" y="97.107973"/></g><g clip-path="url(#t)"><path fill="none" stroke="#000" stroke-miterlimit="10" stroke-width=".3985" d="m43.756 206.841 7.581-7.111 7.581-7.112 7.582-7.112 7.58-7.112 7.582-7.112 7.581-7.112 7.581-7.112 7.582-7.112 7.58-7.112 7.582-7.112 7.581-7.112 7.582-7.112 7.58-7.112 7.582-7.112 7.581-7.112 7.581-7.112 7.582-7.112 7.58-7.112 7.582-7.112 7.581-7.112 7.582-7.112 7.58-7.112 7.582-7.111 7.581-7.112"/><g transform="rotate(-43.172 133.443 -29.61)scale(.9997)"><use xlink:href="#u" x="-33.724196" y="97.043667"/><use xlink:href="#v" x="-27.36086" y="97.043667"/><use xlink:href="#w" x="-16.847604" y="97.043667"/><use xlink:href="#x" x="-11.867903" y="97.043667"/><use xlink:href="#y" x="-9.100626" y="97.043667"/><use xlink:href="#z" x="-4.120626" y="97.043667"/><use xlink:href="#A" x="2.512734" y="97.043667"/><use xlink:href="#B" x="5.271654" y="97.043667"/><use xlink:href="#C" x="10.251654" y="97.043667"/></g><use xlink:href="#D" x="15.379613" y="99.449781" transform="matrix(.72888 -.68379 .68379 .72888 56.38 83.285)"/><g transform="rotate(-43.172 133.443 -29.61)scale(.9997)"><use xlink:href="#E" x="21.512382" y="97.043667"/><use xlink:href="#F" x="29.809064" y="97.043667"/><use xlink:href="#G" x="32.567984" y="97.043667"/><use xlink:href="#H" x="38.095785" y="97.043667"/><use xlink:href="#I" x="41.986039" y="97.043667"/><use xlink:href="#J" x="50.730917" y="97.043667"/><use xlink:href="#K" x="55.143199" y="97.043667"/><use xlink:href="#L" x="61.136041" y="97.043667"/><use xlink:href="#H" x="67.211645" y="97.043667"/><use xlink:href="#M" x="71.096441" y="97.043667"/></g><use xlink:href="#D" x="78.713086" y="93.403077" transform="matrix(.72888 -.68379 .68379 .72888 56.38 83.285)"/><g transform="rotate(-43.172 133.443 -29.61)scale(.9997)"><use xlink:href="#N" x="85.970558" y="97.043667"/><use xlink:href="#O" x="96.468396" y="97.043667"/><use xlink:href="#x" x="101.463514" y="97.043667"/><use xlink:href="#P" x="104.23079" y="97.043667"/><use xlink:href="#P" x="109.21079" y="97.043667"/><use xlink:href="#Q" x="114.190791" y="97.043667"/><use xlink:href="#L" x="119.170791" y="97.043667"/></g></g><path d="M72.244 177.345a1.12 1.12 0 1 0-2.241 0 1.12 1.12 0 0 0 2.241 0"/><path fill="none" stroke="#000" stroke-miterlimit="10" stroke-width=".3985" d="M72.244 177.345a1.12 1.12 0 1 0-2.241 0 1.12 1.12 0 0 0 2.241 0Z"/><path d="M91.257 164.06a1.12 1.12 0 1 0-2.241 0 1.12 1.12 0 0 0 2.241 0"/><path fill="none" stroke="#000" stroke-miterlimit="10" stroke-width=".3985" d="M91.257 164.06a1.12 1.12 0 1 0-2.241 0 1.12 1.12 0 0 0 2.241 0Z"/><path d="M115.023 142.055a1.12 1.12 0 1 0-2.241 0 1.12 1.12 0 0 0 2.241 0"/><path fill="none" stroke="#000" stroke-miterlimit="10" stroke-width=".3985" d="M115.023 142.055a1.12 1.12 0 1 0-2.241 0 1.12 1.12 0 0 0 2.241 0Z"/><path d="M138.79 120.17a1.12 1.12 0 1 0-2.242 0 1.12 1.12 0 0 0 2.241 0"/><path fill="none" stroke="#000" stroke-miterlimit="10" stroke-width=".3985" d="M138.79 120.17a1.12 1.12 0 1 0-2.242 0 1.12 1.12 0 0 0 2.241 0Z"/><path d="M162.556 99.742a1.12 1.12 0 1 0-2.242 0 1.12 1.12 0 0 0 2.242 0"/><path fill="none" stroke="#000" stroke-miterlimit="10" stroke-width=".3985" d="M162.556 99.742a1.12 1.12 0 1 0-2.242 0 1.12 1.12 0 0 0 2.242 0Z"/><path d="M181.568 80.343a1.12 1.12 0 1 0-2.241 0 1.12 1.12 0 0 0 2.241 0"/><path fill="none" stroke="#000" stroke-miterlimit="10" stroke-width=".3985" d="M181.568 80.343a1.12 1.12 0 1 0-2.241 0 1.12 1.12 0 0 0 2.241 0Z"/><path d="M205.334 50.761a1.12 1.12 0 1 0-2.241 0 1.12 1.12 0 0 0 2.241 0"/><path fill="none" stroke="#000" stroke-miterlimit="10" stroke-width=".3985" d="M205.334 50.761a1.12 1.12 0 1 0-2.241 0 1.12 1.12 0 0 0 2.241 0Z"/><g transform="translate(150.502 124.769)scale(1.0004)"><use xlink:href="#R" x="-33.746544" y="97.107973"/><use xlink:href="#S" x="-23.999146" y="97.107973"/><use xlink:href="#T" x="-20.757984" y="97.107973"/><use xlink:href="#U" x="-14.263703" y="97.107973"/><use xlink:href="#V" x="-9.674884" y="97.107973"/><use xlink:href="#W" x=".562877" y="97.107973"/><use xlink:href="#X" x="5.789397" y="97.107973"/><use xlink:href="#Y" x="12.805138" y="97.107973"/></g><g transform="rotate(-90 27.229 100.008)scale(1.0004)"><use xlink:href="#Z" x="-33.746544" y="97.107973"/><use xlink:href="#aa" x="-28.543946" y="97.107973"/><use xlink:href="#ab" x="-25.290826" y="97.107973"/><use xlink:href="#ac" x="-19.430425" y="97.107973"/><use xlink:href="#ad" x="-12.924184" y="97.107973"/><use xlink:href="#Z" x="-8.307623" y="97.107973"/><use xlink:href="#ae" x="-3.105023" y="97.107973"/><use xlink:href="#af" x="7.300178" y="97.107973"/><use xlink:href="#ag" x="11.856939" y="97.107973"/><use xlink:href="#ah" x="15.110058" y="97.107973"/><use xlink:href="#Z" x="24.869419" y="97.107973"/><use xlink:href="#ai" x="33.970634" y="97.107973"/><use xlink:href="#aj" x="42.098896" y="97.107973"/><use xlink:href="#T" x="45.340057" y="97.107973"/><use xlink:href="#ak" x="51.834342" y="97.107973"/><use xlink:href="#al" x="56.450903" y="97.107973"/></g><g transform="translate(97.373 -72.777)scale(1.0004)"><use xlink:href="#am" x="-33.746544" y="97.107973"/><use xlink:href="#an" x="-25.781185" y="97.107973"/><use xlink:href="#ao" x="-19.274945" y="97.107973"/><use xlink:href="#aa" x="-14.072344" y="97.107973"/><use xlink:href="#ag" x="-10.819223" y="97.107973"/><use xlink:href="#ae" x="-7.566103" y="97.107973"/><use xlink:href="#ap" x="2.839097" y="97.107973"/><use xlink:href="#aa" x="11.617738" y="97.107973"/><use xlink:href="#aq" x="14.870858" y="97.107973"/><use xlink:href="#ar" x="20.731259" y="97.107973"/><use xlink:href="#as" x="26.591658" y="97.107973"/><use xlink:href="#ag" x="31.148419" y="97.107973"/><use xlink:href="#af" x="34.401542" y="97.107973"/><use xlink:href="#at" x="38.958302" y="97.107973"/><use xlink:href="#ah" x="45.464541" y="97.107973"/><use xlink:href="#au" x="59.122862" y="97.107973"/><use xlink:href="#av" x="63.679623" y="97.107973"/><use xlink:href="#ar" x="74.742627" y="97.107973"/><use xlink:href="#as" x="80.603029" y="97.107973"/><use xlink:href="#ad" x="85.159788" y="97.107973"/><use xlink:href="#af" x="89.776351" y="97.107973"/><use xlink:href="#aw" x="94.333109" y="97.107973"/><use xlink:href="#ao" x="98.232064" y="97.107973"/><use xlink:href="#ab" x="103.434672" y="97.107973"/><use xlink:href="#ad" x="109.295073" y="97.107973"/><use xlink:href="#Z" x="113.911627" y="97.107973"/><use xlink:href="#ax" x="119.114235" y="97.107973"/></g></svg>