<svg xmlns="http://www.w3.org/2000/svg" xmlns:xlink="http://www.w3.org/1999/xlink" width="486.18pt" height="237.55pt" viewBox="0 0 486.18 237.55"><defs><path id="R" d="M6.088-.347c0-.347-.311-.347-.479-.347-.31 0-.55-.024-.717-.095v-2.608c0-.909-.682-1.865-2.297-1.865-.502 0-1.662 0-1.662.825 0 .323.227.502.49.502.072 0 .467-.024.479-.526 0-.06.012-.072.263-.096.143-.012.299-.012.442-.012.275 0 .682 0 1.077.3.43.334.43.669.43 1.016-.705.024-1.4.072-2.14.31C1.374-2.738.61-2.307.61-1.494c0 .85.753 1.567 1.866 1.567.382 0 1.124-.06 1.746-.49.24.394.837.418 1.292.418.287 0 .574 0 .574-.347M4.114-1.579c0 .275 0 .527-.49.754-.419.203-.98.203-1.017.203-.705 0-1.22-.383-1.22-.873 0-.706 1.28-1.112 2.727-1.112z"/><path id="V" d="M5.968-.347c0-.347-.31-.347-.478-.347H5v-6.123c0-.371-.072-.49-.48-.49h-.788c-.168 0-.479 0-.479.346s.311.347.479.347h.49v1.985c-.191-.19-.682-.598-1.411-.598C1.543-5.227.443-4.078.443-2.57c0 1.47 1.028 2.643 2.26 2.643.777 0 1.292-.467 1.519-.73 0 .503 0 .658.478.658h.79c.167 0 .478 0 .478-.347M4.222-2.272c0 .67-.55 1.65-1.447 1.65-.861 0-1.555-.873-1.555-1.95 0-1.148.813-1.96 1.662-1.96.778 0 1.34.705 1.34 1.327z"/><path id="T" d="M5.454-1.304c0-.071-.024-.335-.395-.335-.227 0-.299.084-.37.264-.3.693-1.077.753-1.304.753-.993 0-1.782-.753-1.914-1.674h3.504c.252 0 .479 0 .479-.443 0-1.4-.79-2.523-2.285-2.523-1.387 0-2.5 1.196-2.5 2.655A2.667 2.667 0 0 0 3.35.072c1.543 0 2.105-1.065 2.105-1.376m-.79-1.65H1.483c.156-1.017.933-1.615 1.686-1.615 1.196 0 1.448 1.017 1.495 1.615"/><path id="ac" d="M6.064-.347c0-.347-.275-.347-.646-.347v-2.93c0-.263 0-1.603-1.053-1.603-.418 0-.825.192-1.148.634-.072-.179-.335-.634-.909-.634-.538 0-.909.347-1.004.455-.012-.383-.263-.383-.479-.383H.466c-.167 0-.478 0-.478.347s.275.347.646.347v3.767c-.383 0-.646 0-.646.347S.299 0 .466 0h1.005c.168 0 .478 0 .478-.347s-.275-.347-.645-.347v-2.2c0-1.005.43-1.639.956-1.639.335 0 .431.419.431.98v2.86c-.203 0-.526 0-.526.346s.323.347.49.347h.873c.168 0 .479 0 .479-.347s-.275-.347-.646-.347v-2.2c0-1.005.43-1.639.957-1.639.334 0 .43.419.43.98v2.86c-.203 0-.526 0-.526.346s.323.347.49.347h.873c.168 0 .479 0 .479-.347"/><path id="U" d="M5.968-.347c0-.347-.31-.347-.478-.347H5v-2.81c0-1.172-.55-1.723-1.532-1.723a2.1 2.1 0 0 0-1.542.682c0-.442 0-.61-.479-.61h-.79c-.167 0-.478 0-.478.347s.311.347.479.347h.49v3.767h-.49c-.168 0-.479 0-.479.347S.49 0 .658 0h1.758c.167 0 .478 0 .478-.347s-.31-.347-.478-.347h-.49v-2.164c0-1.16.813-1.675 1.459-1.675.693 0 .837.395.837 1.077v2.762h-.49c-.168 0-.479 0-.479.347S3.564 0 3.732 0H5.49c.167 0 .478 0 .478-.347"/><path id="ad" d="M5.454-2.583c0-1.495-1.089-2.68-2.38-2.68S.694-4.077.694-2.582c0 1.507 1.1 2.655 2.38 2.655s2.38-1.148 2.38-2.655m-.778-.084c0 1.148-.741 2.045-1.602 2.045S1.47-1.53 1.47-2.667c0-1.112.766-1.902 1.603-1.902s1.602.79 1.602 1.902"/><path id="S" d="M5.705-2.583c0-1.471-1.005-2.644-2.249-2.644-.873 0-1.423.527-1.53.646 0-.394 0-.574-.479-.574h-.79c-.167 0-.478 0-.478.347s.311.347.479.347h.49V1.96h-.49c-.168 0-.479 0-.479.347s.311.347.479.347h1.758c.167 0 .478 0 .478-.347s-.31-.347-.478-.347h-.49V-.598c.287.323.73.67 1.399.67 1.268 0 2.38-1.136 2.38-2.655m-.777 0c0 1.148-.814 1.961-1.663 1.961-.897 0-1.34-1.017-1.34-1.615v-.944c0-.682.67-1.352 1.448-1.352.86 0 1.555.873 1.555 1.95"/><path id="W" d="M5.119.682c0-.156-.084-.204-.251-.323C3.218-.777 2.81-2.488 2.81-3.648c0-1.136.382-2.858 2.057-4.018.167-.12.25-.168.25-.323 0-.12-.059-.311-.346-.311-.299 0-1.184.693-1.734 1.47a5.43 5.43 0 0 0-1.005 3.182c0 1.328.479 2.44.98 3.146C3.565.263 4.438.993 4.773.993c.287 0 .347-.204.347-.311"/><path id="X" d="M4.114-3.648c0-.933-.227-2.14-1.088-3.3-.407-.55-1.292-1.352-1.65-1.352-.276 0-.347.203-.347.31 0 .144.083.204.299.348 1.459 1.028 2.009 2.63 2.009 3.982C3.337-2.583 2.99-.825 1.28.36c-.156.107-.251.167-.251.323 0 .107.071.31.346.31.3 0 1.184-.693 1.735-1.47a5.5 5.5 0 0 0 1.004-3.17"/><path id="ab" d="M5.717-4.52c0-.515-.502-.707-1.1-.707-.802 0-1.483.36-2.034 1.029v-.466c0-.371-.071-.49-.478-.49H.897c-.167 0-.478 0-.478.346s.31.347.478.347h.909v3.767H.897c-.167 0-.478 0-.478.347S.729 0 .897 0h2.942c.168 0 .479 0 .479-.347s-.311-.347-.479-.347H2.583V-2.26c0-1.424 1.005-2.273 2.022-2.273.06 0 .131 0 .191.012.036.43.37.467.454.467a.45.45 0 0 0 .467-.467"/><path id="ae" d="M5.872-4.808c0-.347-.323-.347-.49-.347H4.066c-.167 0-.49 0-.49.347s.323.347.49.347h.3L3.073-.61 1.782-4.461h.299c.167 0 .49 0 .49-.347s-.323-.347-.49-.347H.765c-.167 0-.49 0-.49.347s.323.347.49.347h.311L2.452-.347c.131.407.394.407.622.407s.49 0 .622-.407L5.07-4.46h.311c.167 0 .49 0 .49-.347"/><path id="v" d="M2.464-3.504c.024-.072.323-.67.765-1.053a1.74 1.74 0 0 1 1.184-.478c.479 0 .646.359.646.837 0 .682-.49 2.045-.73 2.691-.107.287-.167.443-.167.658 0 .538.37.969.945.969 1.112 0 1.53-1.759 1.53-1.83 0-.06-.047-.108-.119-.108-.107 0-.12.036-.18.24C6.065-.599 5.61-.12 5.144-.12c-.12 0-.311-.012-.311-.394 0-.3.131-.658.203-.826.24-.657.742-1.997.742-2.679 0-.717-.419-1.255-1.328-1.255-1.064 0-1.626.753-1.842 1.052-.036-.682-.526-1.052-1.052-1.052-.383 0-.646.227-.85.634C.49-4.21.324-3.492.324-3.444s.048.107.131.107c.096 0 .108-.012.18-.287.191-.73.407-1.411.885-1.411.275 0 .37.191.37.55 0 .263-.119.73-.203 1.1l-.335 1.292c-.047.227-.179.765-.239.98C1.03-.8.897-.238.897-.178c0 .167.132.299.311.299a.46.46 0 0 0 .407-.252c.024-.06.131-.478.191-.717l.263-1.077z"/><path id="I" d="M2.404-4.808h1.1c.228 0 .347 0 .347-.215 0-.132-.072-.132-.31-.132H2.487L2.93-6.9c.048-.167.048-.191.048-.275 0-.191-.155-.299-.31-.299-.097 0-.372.036-.467.419l-.467 1.901H.61c-.24 0-.347 0-.347.227 0 .12.084.12.311.12H1.64L.849-1.65c-.096.418-.131.538-.131.693C.718-.395 1.112.12 1.782.12c1.208 0 1.854-1.747 1.854-1.83 0-.072-.048-.108-.12-.108-.024 0-.072 0-.095.048-.012.012-.024.024-.108.215C3.062-.957 2.512-.12 1.818-.12c-.359 0-.383-.299-.383-.562 0-.012 0-.239.036-.382z"/><path id="Q" d="M8.396 0v-.347c-.777 0-.993 0-1.16-.49L4.629-8.324c-.048-.144-.072-.215-.24-.215s-.191.035-.25.227l-2.5 7.152C1.47-.67 1.136-.36.37-.347V0l1.148-.024c.335 0 .909 0 1.22.024v-.347c-.502-.012-.801-.263-.801-.598 0-.072 0-.096.06-.251l.55-1.59H5.56L6.22-.91c.06.144.06.167.06.203 0 .36-.61.36-.909.36V0c.275-.024 1.22-.024 1.555-.024s1.196 0 1.47.024M5.442-3.134H2.667l1.387-3.982z"/><path id="A" d="M5.669-1.064v-.67h-.263v.67c0 .681-.287.777-.455.777-.454 0-.454-.634-.454-.813v-2.093c0-.646 0-1.125-.526-1.591-.419-.383-.957-.55-1.483-.55-.981 0-1.735.646-1.735 1.423 0 .347.228.514.503.514.287 0 .49-.203.49-.49 0-.49-.43-.49-.61-.49.275-.503.85-.718 1.328-.718.55 0 1.256.455 1.256 1.53v.48C1.316-3.05.407-2.046.407-1.126c0 .946 1.1 1.245 1.83 1.245A1.63 1.63 0 0 0 3.79-.933c.048.562.419.993.933.993.251 0 .945-.168.945-1.124m-1.95-.622C3.72-.514 2.847-.12 2.333-.12c-.586 0-1.076-.43-1.076-1.004 0-1.579 2.033-1.722 2.464-1.746z"/><path id="P" d="M4.856-1.423c0-.108-.084-.108-.12-.108-.107 0-.12.036-.155.18-.263.849-.91 1.207-1.555 1.207-.73 0-1.698-.633-1.698-2.451 0-1.986 1.016-2.476 1.614-2.476.455 0 1.112.18 1.388.646-.144 0-.587 0-.587.49 0 .287.204.49.49.49.276 0 .503-.167.503-.514 0-.801-.837-1.375-1.806-1.375C1.53-5.334.42-4.09.42-2.584.419-1.051 1.567.12 2.919.12c1.578 0 1.937-1.436 1.937-1.543"/><path id="N" d="M8.288-4.007c0-2.308-1.614-4.162-3.6-4.162H.502v.347h.24c.86 0 .897.12.897.562v6.351c0 .443-.036.562-.897.562h-.24V0h4.186c1.998 0 3.6-1.794 3.6-4.007M7.2-4.019c0 .67-.012 1.794-.694 2.68-.394.502-1.112.992-2.117.992H3.134c-.527 0-.55-.084-.55-.478v-6.518c0-.395.023-.479.55-.479h1.255c.993 0 1.782.479 2.273 1.268.538.85.538 2.057.538 2.535"/><path id="G" d="M6.16 0v-.347c-.814 0-.91-.084-.91-.67V-8.3l-1.662.131v.347c.813 0 .909.084.909.67v2.643a1.86 1.86 0 0 0-1.495-.765C1.615-5.274.419-4.102.419-2.571c0 1.519 1.136 2.69 2.451 2.69.91 0 1.436-.597 1.603-.825V.12zM4.472-1.4c0 .216 0 .252-.167.515-.287.419-.778.765-1.376.765-.31 0-1.602-.12-1.602-2.44 0-.86.143-1.339.406-1.734.24-.37.718-.741 1.316-.741.741 0 1.16.538 1.28.73.143.203.143.227.143.442z"/><path id="y" d="M4.868-1.423c0-.072-.06-.12-.132-.12-.096 0-.12.06-.143.12C4.282-.42 3.48-.143 2.978-.143s-1.71-.335-1.71-2.404v-.228H4.58c.263 0 .287 0 .287-.227 0-1.208-.646-2.332-2.093-2.332C1.41-5.334.359-4.102.359-2.62.359-1.041 1.579.12 2.906.12c1.424 0 1.962-1.292 1.962-1.543m-.742-1.579H1.28c.095-1.878 1.148-2.093 1.483-2.093 1.28 0 1.351 1.686 1.363 2.093"/><path id="C" d="M2.882 0v-.347c-.777 0-.825-.06-.825-.526v-4.401l-1.626.131v.347c.765 0 .873.072.873.658v3.253c0 .538-.132.538-.91.538V0c.336-.024.91-.024 1.256-.024.132 0 .826 0 1.232.024m-.67-7.224a.58.58 0 1 0-.586.574.576.576 0 0 0 .587-.574"/><path id="F" d="M2.966 0v-.347c-.765 0-.909 0-.909-.538V-8.3L.395-8.17v.347c.813 0 .909.084.909.67v6.267c0 .538-.132.538-.91.538V0c.336-.024.922-.024 1.28-.024s.957 0 1.292.024"/><path id="H" d="M9.484 0v-.347c-.598 0-.897 0-.909-.359v-2.2c0-1.113 0-1.447-.275-1.83-.347-.467-.909-.538-1.315-.538-.993 0-1.495.717-1.687 1.184-.167-.921-.813-1.184-1.566-1.184-1.16 0-1.615.992-1.71 1.232h-.013v-1.232l-1.626.131v.347c.813 0 .909.084.909.67v3.241c0 .538-.132.538-.91.538V0c.312-.024.958-.024 1.292-.024.347 0 .993 0 1.304.024v-.347c-.765 0-.909 0-.909-.538V-3.11c0-1.255.825-1.925 1.567-1.925s.909.61.909 1.34v2.81c0 .538-.132.538-.91.538V0c.312-.024.958-.024 1.293-.024.346 0 .992 0 1.303.024v-.347c-.765 0-.909 0-.909-.538V-3.11c0-1.255.825-1.925 1.567-1.925s.909.61.909 1.34v2.81c0 .538-.132.538-.909.538V0c.31-.024.957-.024 1.292-.024.346 0 .992 0 1.303.024"/><path id="D" d="M6.231 0v-.347c-.598 0-.897 0-.909-.359v-2.2c0-1.113 0-1.447-.275-1.83-.347-.467-.909-.538-1.315-.538-1.16 0-1.615.992-1.71 1.232h-.013v-1.232l-1.626.131v.347c.813 0 .909.084.909.67v3.241c0 .538-.132.538-.91.538V0c.312-.024.958-.024 1.292-.024.347 0 .993 0 1.304.024v-.347c-.765 0-.909 0-.909-.538V-3.11c0-1.255.825-1.925 1.567-1.925s.909.61.909 1.34v2.81c0 .538-.132.538-.91.538V0c.312-.024.958-.024 1.293-.024.346 0 .992 0 1.303.024"/><path id="w" d="M5.49-2.56c0-1.542-1.172-2.774-2.56-2.774C1.495-5.334.36-4.066.36-2.56.359-1.03 1.555.12 2.919.12c1.41 0 2.57-1.172 2.57-2.68m-.91-.107c0 .419 0 1.16-.31 1.722a1.56 1.56 0 0 1-1.34.801c-.442 0-.98-.19-1.327-.777-.323-.538-.335-1.244-.335-1.746 0-.455 0-1.184.37-1.722a1.53 1.53 0 0 1 1.28-.706c.467 0 .969.215 1.292.682.37.55.37 1.303.37 1.746"/><path id="x" d="M6.076-2.583c0-1.52-1.125-2.691-2.428-2.691-1.053 0-1.615.753-1.65.801v-.801l-1.663.131v.347c.837 0 .909.084.909.61v5.621c0 .538-.132.538-.91.538v.347c.312-.024.958-.024 1.293-.024.346 0 .992 0 1.303.024v-.347c-.765 0-.909 0-.909-.538v-2.08c.216.298.706.765 1.471.765 1.376 0 2.584-1.16 2.584-2.703m-.91 0c0 1.423-.813 2.463-1.733 2.463a1.4 1.4 0 0 1-.957-.382c-.275-.275-.455-.515-.455-.85v-2.463c0-.227 0-.24.132-.43a1.72 1.72 0 0 1 1.4-.766c.896 0 1.614 1.088 1.614 2.428"/><path id="z" d="M4.222-4.58c0-.36-.323-.694-.837-.694-1.017 0-1.364 1.1-1.436 1.327h-.011v-1.327l-1.603.131v.347c.813 0 .909.084.909.67v3.241c0 .538-.132.538-.91.538V0c.336-.024.994-.024 1.352-.024.323 0 1.172 0 1.448.024v-.347h-.24c-.873 0-.897-.131-.897-.562v-1.878c0-1.16.479-2.248 1.4-2.248.095 0 .12 0 .167.012-.096.048-.287.12-.287.442a.46.46 0 0 0 .466.479c.24 0 .479-.156.479-.479"/><path id="E" d="M4.21-1.519c0-.646-.395-1.028-.502-1.136-.431-.37-.754-.443-1.543-.586-.359-.072-1.232-.24-1.232-.957 0-.37.251-.92 1.327-.92 1.304 0 1.376 1.111 1.4 1.482.012.096.095.096.131.096.132 0 .132-.06.132-.275V-5.06c0-.215 0-.275-.12-.275-.095 0-.323.263-.406.37-.371-.298-.742-.37-1.125-.37-1.447 0-1.877.79-1.877 1.447 0 .132 0 .55.454.969.383.335.79.418 1.34.526.657.132.813.167 1.112.407.215.179.37.442.37.777 0 .514-.298 1.088-1.35 1.088C1.53-.12.956-.574.693-1.77c-.048-.215-.06-.24-.06-.24-.024-.047-.072-.047-.108-.047-.131 0-.131.06-.131.275v1.627c0 .215 0 .275.12.275.06 0 .071-.012.274-.264.06-.083.06-.107.24-.299.454.563 1.1.563 1.303.563C3.588.12 4.21-.574 4.21-1.52"/><path id="B" d="M3.899-1.483v-.682h-.263v.658c0 .861-.347 1.363-.813 1.363-.814 0-.814-1.112-.814-1.315v-3.349h1.687v-.347H2.009v-2.2h-.263c-.012 1.124-.442 2.272-1.53 2.308v.24h1.016v3.324C1.232-.155 2.117.12 2.75.12c.753 0 1.148-.742 1.148-1.603"/><path id="O" d="M5.956-4.808v-.347c-.347.024-.514.024-.897.024l-.969-.024v.347c.443.024.55.3.55.514 0 .108-.023.168-.071.287L3.349-.993 2.02-4.246c-.072-.167-.072-.251-.072-.251 0-.31.42-.31.658-.31v-.348c-.31.024-.897.024-1.232.024l-1.16-.024v.347c.694 0 .79.06.945.43L2.942 0c-.526 1.268-.526 1.292-.574 1.387-.203.36-.526.814-1.064.814-.371 0-.598-.216-.598-.216s.418-.047.418-.466a.433.433 0 0 0-.442-.443c-.204 0-.455.12-.455.467 0 .454.443.897 1.077.897.67 0 1.16-.586 1.47-1.34l2.07-5.095c.323-.801.885-.813 1.112-.813"/><path id="o" d="M3.208-6.982c0-.262 0-.284-.251-.284-.677.698-1.637.698-1.986.698v.338c.218 0 .862 0 1.43-.283v5.651c0 .393-.034.524-1.015.524h-.35V0c.382-.033 1.331-.033 1.768-.033s1.385 0 1.767.033v-.338h-.349c-.982 0-1.014-.12-1.014-.524z"/><path id="Z" d="M3.208-1.8v.949c0 .393-.022.513-.83.513H2.15V0c.448-.033 1.015-.033 1.473-.033s1.037 0 1.484.033v-.338h-.23c-.807 0-.828-.12-.828-.513v-.95h1.09v-.337h-1.09v-4.964c0-.219 0-.284-.175-.284-.098 0-.13 0-.218.13L.305-2.137v.338zm.065-.338H.611l2.662-4.07z"/><path id="r" d="M1.44-3.578v-.262c0-2.76 1.353-3.153 1.91-3.153.261 0 .72.065.96.436-.164 0-.6 0-.6.491 0 .338.261.502.501.502.175 0 .502-.098.502-.524 0-.654-.48-1.178-1.385-1.178-1.397 0-2.87 1.407-2.87 3.818C.458-.535 1.724.24 2.738.24 3.95.24 4.986-.786 4.986-2.226c0-1.385-.971-2.433-2.182-2.433-.742 0-1.146.557-1.364 1.08M2.738-.065c-.687 0-1.014-.655-1.08-.819-.196-.512-.196-1.385-.196-1.582 0-.85.35-1.942 1.331-1.942.175 0 .676 0 1.015.677.196.403.196.96.196 1.494 0 .524 0 1.07-.185 1.462-.328.655-.83.71-1.08.71"/><path id="aa" d="M1.778-4.986c-.502-.327-.545-.698-.545-.884 0-.665.709-1.123 1.484-1.123.796 0 1.494.567 1.494 1.353 0 .621-.425 1.145-1.08 1.527zm1.593 1.037c.786-.404 1.32-.971 1.32-1.691 0-1.004-.97-1.626-1.963-1.626-1.092 0-1.975.807-1.975 1.822 0 .196.022.687.48 1.2.12.13.524.404.796.59-.633.316-1.57.926-1.57 2.007C.458-.491 1.57.24 2.716.24c1.232 0 2.269-.906 2.269-2.073 0-.393-.12-.884-.535-1.342-.207-.229-.382-.338-1.08-.774m-1.09.458 1.341.85c.306.208.818.535.818 1.2 0 .808-.818 1.376-1.713 1.376-.938 0-1.723-.677-1.723-1.582 0-.633.349-1.331 1.276-1.844"/><path id="q" d="M4.004-3.47v.35c0 2.553-1.135 3.055-1.767 3.055-.186 0-.775-.022-1.07-.393.48 0 .568-.317.568-.502 0-.338-.262-.502-.502-.502-.175 0-.502.098-.502.524 0 .73.59 1.178 1.516 1.178 1.408 0 2.739-1.484 2.739-3.83 0-2.934-1.255-3.676-2.226-3.676-.6 0-1.134.196-1.604.687-.447.491-.698.95-.698 1.768 0 1.363.96 2.433 2.182 2.433.666 0 1.113-.459 1.364-1.091m-1.353.84c-.174 0-.676 0-1.014-.687C1.44-3.72 1.44-4.266 1.44-4.8c0-.59 0-1.102.23-1.506.294-.545.708-.687 1.09-.687.502 0 .862.37 1.048.862.13.349.174 1.036.174 1.538 0 .905-.37 1.964-1.33 1.964"/><path id="n" d="M7.495-3.568c.164 0 .371 0 .371-.218s-.207-.218-.36-.218H.971c-.153 0-.36 0-.36.218s.207.218.37.218zm.011 2.117c.153 0 .36 0 .36-.218s-.207-.218-.37-.218H.981c-.164 0-.371 0-.371.218s.207.218.36.218z"/><path id="u" d="M3.897-2.542c0-.853-.087-1.371-.35-1.881-.351-.702-.997-.877-1.435-.877-1.004 0-1.37.75-1.482.972-.287.582-.303 1.371-.303 1.786 0 .526.024 1.33.406 1.968.367.59.957.741 1.38.741.382 0 1.067-.12 1.466-.908.294-.574.318-1.283.318-1.801M2.112-.056c-.27 0-.82-.127-.988-.964-.088-.454-.088-1.204-.088-1.618 0-.55 0-1.108.088-1.546.167-.813.789-.893.988-.893.271 0 .821.136.98.86.096.44.096 1.037.096 1.579 0 .47 0 1.187-.096 1.634-.167.837-.717.948-.98.948"/><path id="d" d="M2.503-5.077c0-.215-.016-.223-.232-.223-.326.319-.749.51-1.506.51v.263c.215 0 .646 0 1.108-.215v4.088c0 .295-.024.391-.781.391h-.28V0c.328-.024 1.013-.024 1.372-.024s1.052 0 1.379.024v-.263h-.28c-.757 0-.78-.096-.78-.39z"/><path id="i" d="M2.248-1.626c.127-.12.462-.382.59-.494.493-.454.964-.893.964-1.618 0-.948-.797-1.562-1.794-1.562-.956 0-1.586.725-1.586 1.435 0 .39.311.446.423.446a.41.41 0 0 0 .414-.423c0-.414-.398-.414-.494-.414a1.23 1.23 0 0 1 1.156-.781c.741 0 1.124.63 1.124 1.3 0 .828-.582 1.434-1.523 2.398L.518-.303C.422-.215.422-.199.422 0h3.149l.23-1.427h-.246c-.024.16-.088.558-.184.71-.048.063-.653.063-.78.063H1.17z"/><path id="e" d="M2.016-2.662c.63 0 1.029.462 1.029 1.3 0 .995-.566 1.29-.989 1.29-.438 0-1.036-.16-1.315-.582.287 0 .486-.183.486-.446a.423.423 0 0 0-.438-.438c-.215 0-.438.135-.438.454 0 .757.813 1.251 1.721 1.251 1.06 0 1.801-.733 1.801-1.53 0-.661-.526-1.267-1.339-1.442.63-.224 1.1-.766 1.1-1.403S2.917-5.3 2.088-5.3C1.235-5.3.59-4.838.59-4.232c0 .295.199.422.406.422a.39.39 0 0 0 .407-.406c0-.295-.255-.407-.43-.415.334-.438.948-.462 1.091-.462.207 0 .813.064.813.885 0 .558-.231.892-.343 1.02-.239.247-.422.263-.908.295-.152.008-.215.016-.215.12 0 .111.071.111.207.111z"/><path id="j" d="M3.14-5.157c0-.159 0-.223-.167-.223-.104 0-.112.008-.191.12L.239-1.57v.263h2.248v.661c0 .295-.024.383-.638.383h-.183V0c.677-.024.693-.024 1.147-.024s.47 0 1.148.024v-.263h-.183c-.614 0-.638-.088-.638-.383v-.661h.845v-.263H3.14zm-.598.646v2.94H.518z"/><path id="f" d="M1.116-4.48c.103.033.422.112.757.112.996 0 1.602-.7 1.602-.82 0-.088-.056-.112-.096-.112-.016 0-.032 0-.103.04-.311.12-.678.215-1.108.215-.47 0-.86-.12-1.108-.215C.98-5.3.964-5.3.956-5.3c-.103 0-.103.088-.103.231v2.335c0 .144 0 .24.127.24.064 0 .088-.032.128-.096.095-.12.398-.526 1.076-.526.446 0 .661.366.733.518.136.287.151.653.151.964 0 .295-.008.725-.23 1.076a1.07 1.07 0 0 1-.893.486A1.295 1.295 0 0 1 .733-.917c.024.008.072.008.08.008.223 0 .398-.143.398-.39 0-.295-.23-.399-.39-.399-.144 0-.399.08-.399.423 0 .717.622 1.442 1.539 1.442.996 0 1.84-.773 1.84-1.761 0-.925-.669-1.745-1.61-1.745-.398 0-.772.127-1.075.398z"/><path id="k" d="M1.1-2.638c0-.662.056-1.243.343-1.73.239-.398.645-.725 1.147-.725.16 0 .526.024.71.303-.36.016-.39.287-.39.375-.001.239.182.374.374.374.143 0 .374-.087.374-.39 0-.479-.358-.869-1.076-.869C1.474-5.3.351-4.248.351-2.526.35-.366 1.355.167 2.128.167c.383 0 .797-.103 1.156-.446.318-.31.59-.646.59-1.339 0-1.044-.79-1.777-1.674-1.777-.574 0-.917.366-1.1.757M2.128-.072c-.422 0-.685-.295-.805-.518-.183-.358-.2-.9-.2-1.203 0-.79.431-1.38 1.045-1.38.398 0 .637.208.789.487.167.295.167.654.167 1.06s0 .757-.16 1.044c-.206.367-.485.51-.836.51"/><path id="b" d="M4.033-4.854c.072-.087.072-.103.072-.279H2.08c-.2 0-.446-.008-.645-.024-.415-.031-.423-.103-.447-.23H.741l-.27 1.68h.246c.016-.119.104-.669.215-.732.088-.04.686-.04.805-.04h1.69l-.82 1.1c-.91 1.211-1.1 2.47-1.1 3.1 0 .08 0 .446.374.446s.375-.358.375-.454v-.382c0-1.148.19-2.089.581-2.607z"/><path id="c" d="M3.124-2.351c0 1.945-.924 2.28-1.387 2.28-.167 0-.581-.025-.797-.272.351-.032.375-.295.375-.374a.364.364 0 0 0-.375-.375c-.143 0-.374.088-.374.39 0 .543.446.87 1.18.87 1.091 0 2.127-1.085 2.127-2.79 0-2.072-.916-2.678-1.737-2.678-.94 0-1.785.733-1.785 1.777 0 1.028.773 1.778 1.673 1.778.566 0 .909-.36 1.1-.766zm-1.068.382c-.366 0-.597-.167-.773-.462C1.1-2.726 1.1-3.108 1.1-3.515c0-.47 0-.805.215-1.132.2-.286.454-.446.829-.446.534 0 .765.526.789.566.167.39.175 1.012.175 1.172 0 .63-.342 1.386-1.052 1.386"/><path id="t" d="M1.618-.438a.444.444 0 0 0-.438-.447.444.444 0 0 0-.447.439c0 .27.223.446.439.446a.444.444 0 0 0 .446-.438"/><path id="p" d="M2.095-.578c0-.317-.262-.578-.579-.578s-.578.261-.578.578S1.2 0 1.516 0s.579-.262.579-.578"/><path id="s" d="M.96-.644c-.033.164-.098.415-.098.47 0 .196.153.294.316.294.131 0 .328-.087.404-.305.01-.022.142-.535.207-.808l.24-.982c.066-.24.131-.48.186-.73.043-.186.13-.503.142-.546.163-.338.741-1.331 1.778-1.331.49 0 .589.403.589.764 0 .676-.535 2.072-.71 2.542-.097.25-.108.381-.108.501 0 .513.382.895.894.895 1.026 0 1.43-1.593 1.43-1.68 0-.11-.099-.11-.131-.11-.11 0-.11.033-.164.197C5.717-.73 5.357-.12 4.822-.12c-.185 0-.262-.11-.262-.36 0-.273.099-.535.197-.775.207-.578.665-1.778.665-2.4 0-.73-.469-1.167-1.254-1.167-.982 0-1.517.698-1.702.949-.055-.611-.502-.95-1.004-.95s-.71.426-.818.623a5.5 5.5 0 0 0-.328 1.058c0 .109.11.109.131.109.11 0 .12-.01.186-.25.185-.776.403-1.3.796-1.3.218 0 .338.143.338.503 0 .229-.032.349-.174.916z"/><path id="m" d="M2.247-4.364h1.026c.218 0 .327 0 .327-.218 0-.12-.109-.12-.305-.12h-.96c.393-1.55.447-1.768.447-1.833 0-.186-.13-.295-.316-.295-.033 0-.339.011-.437.393l-.425 1.735H.578c-.218 0-.327 0-.327.207 0 .131.087.131.305.131h.96C.731-1.266.687-1.08.687-.884c0 .59.415 1.004 1.004 1.004 1.113 0 1.735-1.593 1.735-1.68 0-.11-.088-.11-.131-.11-.098 0-.11.033-.164.154C2.662-.382 2.084-.12 1.713-.12c-.23 0-.338-.142-.338-.502 0-.262.021-.338.065-.524z"/><path id="h" d="M5.358-3.827c0-.993-.06-1.962-.49-2.87-.49-.993-1.352-1.256-1.938-1.256-.693 0-1.543.346-1.985 1.34C.61-5.86.49-5.12.49-3.828c0 1.16.084 2.033.515 2.882A2.13 2.13 0 0 0 2.918.251c1.04 0 1.639-.622 1.986-1.315.43-.897.454-2.07.454-2.763M2.918.012c-.382 0-1.16-.215-1.387-1.519-.132-.718-.132-1.627-.132-2.464 0-.98 0-1.865.192-2.571.203-.801.813-1.172 1.327-1.172.455 0 1.148.275 1.376 1.303.155.682.155 1.627.155 2.44 0 .802 0 1.71-.131 2.44C4.09-.215 3.337.012 2.918.012"/><path id="g" d="M3.444-7.666c0-.275 0-.287-.239-.287-.287.323-.885.765-2.117.765v.347c.275 0 .873 0 1.531-.311v6.231c0 .43-.036.574-1.088.574h-.37V0c.322-.024 1.482-.024 1.877-.024s1.543 0 1.866.024v-.347h-.371C3.48-.347 3.444-.49 3.444-.92z"/><path id="a" d="M5.262-2.01H5c-.036.204-.131.862-.25 1.053-.085.108-.766.108-1.125.108H1.41c.323-.275 1.053-1.04 1.364-1.328 1.818-1.674 2.487-2.296 2.487-3.48 0-1.375-1.088-2.296-2.475-2.296S.586-6.77.586-5.741c0 .61.526.61.562.61.251 0 .562-.18.562-.562 0-.335-.227-.562-.562-.562-.107 0-.131 0-.167.012.227-.813.873-1.364 1.65-1.364 1.017 0 1.639.85 1.639 1.95 0 1.017-.586 1.902-1.268 2.667L.586-.287V0h4.365z"/><path id="J" d="M2.99 2.99v-.443H1.83V-8.527h1.16v-.443H1.387V2.99z"/><path id="M" d="M1.854-8.97H.25v.443h1.16V2.547H.251v.443h1.603z"/><path id="K" d="M5.322-2.906c0-1.113 0-1.447-.275-1.83-.347-.467-.909-.538-1.315-.538-1.16 0-1.615.992-1.71 1.232h-.013v-1.232l-1.626.131v.347c.813 0 .909.084.909.67v3.241c0 .538-.132.538-.91.538V0c.312-.024.958-.024 1.292-.024.347 0 .993 0 1.304.024v-.347c-.765 0-.909 0-.909-.538V-3.11c0-1.255.825-1.925 1.567-1.925s.909.61.909 1.34v2.81c0 .538-.132.538-.91.538V0c.312-.024.958-.024 1.293-.024.346 0 .992 0 1.303.024v-.347c-.598 0-.897 0-.909-.359z"/><path id="L" d="M3.923-5.06c0-.214 0-.274-.12-.274-.095 0-.323.263-.406.37-.371-.298-.742-.37-1.125-.37-1.447 0-1.877.79-1.877 1.447 0 .132 0 .55.454.969.383.335.79.418 1.34.526.657.132.813.167 1.112.407.215.179.37.442.37.777 0 .514-.298 1.088-1.35 1.088C1.53-.12.956-.574.693-1.77c-.048-.215-.048-.227-.06-.24-.024-.047-.072-.047-.108-.047-.131 0-.131.06-.131.275v1.627c0 .215 0 .275.12.275.06 0 .071-.012.274-.264.06-.083.06-.107.24-.299.454.563 1.1.563 1.303.563C3.588.12 4.21-.574 4.21-1.52c0-.646-.395-1.028-.502-1.136-.431-.37-.754-.443-1.543-.586-.359-.072-1.232-.24-1.232-.957 0-.37.251-.92 1.327-.92 1.304 0 1.376 1.111 1.4 1.482.012.096.095.096.131.096.132 0 .132-.06.132-.275z"/><clipPath id="l"><path d="M56.07 190.273h167.768V36.678H56.07Z"/></clipPath><clipPath id="Y"><path d="M282.844 190.273h167.768V36.675H282.844Z"/></clipPath></defs><g fill="none" stroke="gray" stroke-miterlimit="10" stroke-width=".19925"><path d="M70.038 190.273v-4.25m27.96 4.25v-4.25m27.962 4.25v-4.25m27.96 4.25v-4.25m27.962 4.25v-4.25m27.96 4.25v-4.25M70.039 36.678v4.25m27.96-4.25v4.25m27.962-4.25v4.25m27.96-4.25v4.25m27.962-4.25v4.25m27.96-4.25v4.25M56.07 189.849h2.832m-2.832-2.325h2.832m-2.832-2.015h2.832m-2.832-1.777h2.832m-2.832-1.59h2.832m-2.832-10.457h2.832m-2.832-6.117h2.832m-2.832-4.34h2.832m-2.832-3.366h2.832m-2.832-2.75h2.832m-2.832-2.326h2.832m-2.832-2.015h2.832m-2.832-1.777h2.832m-2.832-1.59h2.832m-2.832-10.456h2.832m-2.832-6.117h2.832m-2.832-4.34h2.832m-2.832-3.367h2.832m-2.832-2.75h2.832m-2.832-2.326h2.832m-2.832-2.014h2.832m-2.832-1.777h2.832m-2.832-1.59h2.832M56.07 102.21h2.832m-2.832-6.117h2.832m-2.832-4.34h2.832m-2.832-3.367h2.832m-2.832-2.75h2.832M56.07 83.31h2.832m-2.832-2.014h2.832m-2.832-1.777h2.832m-2.832-1.59h2.832M56.07 67.472h2.832m-2.832-6.117h2.832m-2.832-4.34h2.832M56.07 53.65h2.832m-2.832-2.751h2.832m-2.832-2.325h2.832m-2.832-2.015h2.832m-2.832-1.777h2.832M223.838 189.85h-2.833m2.833-2.325h-2.833m2.833-2.015h-2.833m2.833-1.777h-2.833m2.833-1.59h-2.833m2.833-10.457h-2.833m2.833-6.117h-2.833m2.833-4.34h-2.833m2.833-3.366h-2.833m2.833-2.75h-2.833m2.833-2.326h-2.833m2.833-2.015h-2.833m2.833-1.777h-2.833m2.833-1.59h-2.833m2.833-10.456h-2.833m2.833-6.117h-2.833m2.833-4.34h-2.833m2.833-3.367h-2.833m2.833-2.75h-2.833m2.833-2.326h-2.833m2.833-2.014h-2.833m2.833-1.777h-2.833m2.833-1.59h-2.833m2.833-10.457h-2.833m2.833-6.117h-2.833m2.833-4.34h-2.833m2.833-3.367h-2.833m2.833-2.75h-2.833m2.833-2.326h-2.833m2.833-2.014h-2.833m2.833-1.777h-2.833m2.833-1.59h-2.833m2.833-10.457h-2.833m2.833-6.117h-2.833m2.833-4.34h-2.833m2.833-3.366h-2.833m2.833-2.751h-2.833m2.833-2.325h-2.833m2.833-2.015h-2.833m2.833-1.777h-2.833M56.07 182.143h4.248m-4.248-34.738h4.248m-4.248-34.738h4.248M56.07 77.93h4.248M56.07 43.192h4.248m163.52 138.95h-4.249m4.249-34.737h-4.249m4.249-34.738h-4.249m4.249-34.738h-4.249m4.249-34.737h-4.249"/></g><path fill="none" stroke="#000" stroke-miterlimit="10" stroke-width=".3985" d="M56.07 190.273V36.678h167.768v153.595z"/><use xlink:href="#a" x="-55.103115" y="143.734686" transform="translate(119.826 60.255)scale(1.0004)"/><use xlink:href="#b" x="-49.227382" y="139.336252" transform="matrix(.99999 0 0 .99999 119.826 60.255)"/><use xlink:href="#a" x="-55.103115" y="143.734686" transform="translate(147.787 60.255)scale(1.0004)"/><use xlink:href="#c" x="-49.227382" y="139.336252" transform="matrix(.99999 0 0 .99999 147.787 60.255)"/><use xlink:href="#a" x="-55.103115" y="143.734686" transform="translate(173.631 60.255)scale(1.0004)"/><g transform="matrix(.99999 0 0 .99999 173.631 60.255)"><use xlink:href="#d" x="-49.227382" y="139.336252"/><use xlink:href="#d" x="-44.995313" y="139.336252"/></g><use xlink:href="#a" x="-55.103115" y="143.734686" transform="translate(201.592 60.255)scale(1.0004)"/><g transform="matrix(.99999 0 0 .99999 201.592 60.255)"><use xlink:href="#d" x="-49.227382" y="139.336252"/><use xlink:href="#e" x="-44.995313" y="139.336252"/></g><use xlink:href="#a" x="-55.103115" y="143.734686" transform="translate(229.553 60.255)scale(1.0004)"/><g transform="matrix(.99999 0 0 .99999 229.553 60.255)"><use xlink:href="#d" x="-49.227382" y="139.336252"/><use xlink:href="#f" x="-44.995313" y="139.336252"/></g><use xlink:href="#a" x="-55.103115" y="143.734686" transform="translate(257.514 60.255)scale(1.0004)"/><g transform="matrix(.99999 0 0 .99999 257.514 60.255)"><use xlink:href="#d" x="-49.227382" y="139.336252"/><use xlink:href="#b" x="-44.995313" y="139.336252"/></g><g transform="translate(90.528 43.203)scale(1.0004)"><use xlink:href="#g" x="-55.103115" y="143.734686"/><use xlink:href="#h" x="-49.254678" y="143.734686"/></g><use xlink:href="#i" x="-43.374456" y="139.336252" transform="matrix(.99999 0 0 .99999 90.528 43.203)"/><g transform="translate(90.528 8.465)scale(1.0004)"><use xlink:href="#g" x="-55.103115" y="143.734686"/><use xlink:href="#h" x="-49.254678" y="143.734686"/></g><use xlink:href="#e" x="-43.374456" y="139.336252" transform="matrix(.99999 0 0 .99999 90.528 8.465)"/><g transform="translate(90.528 -26.273)scale(1.0004)"><use xlink:href="#g" x="-55.103115" y="143.734686"/><use xlink:href="#h" x="-49.254678" y="143.734686"/></g><use xlink:href="#j" x="-43.374456" y="139.336252" transform="matrix(.99999 0 0 .99999 90.528 -26.273)"/><g transform="translate(90.528 -61.01)scale(1.0004)"><use xlink:href="#g" x="-55.103115" y="143.734686"/><use xlink:href="#h" x="-49.254678" y="143.734686"/></g><use xlink:href="#f" x="-43.374456" y="139.336252" transform="matrix(.99999 0 0 .99999 90.528 -61.01)"/><g transform="translate(90.528 -95.748)scale(1.0004)"><use xlink:href="#g" x="-55.103115" y="143.734686"/><use xlink:href="#h" x="-49.254678" y="143.734686"/></g><use xlink:href="#k" x="-43.374456" y="139.336252" transform="matrix(.99999 0 0 .99999 90.528 -95.748)"/><g clip-path="url(#l)"><path fill="none" stroke="#000" stroke-miterlimit="10" stroke-width=".3985" d="m56.07 177.473 6.99-5.334 6.99-5.335 6.99-5.328 6.99-5.336 6.99-5.33 6.99-5.337 6.99-5.331 6.99-5.336 6.99-5.333 6.991-5.333 6.99-5.332 6.99-5.333 6.99-5.333 6.99-5.334 6.99-5.333 6.99-5.331 6.991-5.335 6.99-5.332 6.99-5.334 6.99-5.332 6.99-5.334 6.99-5.332 6.99-5.333 6.99-5.334"/><g transform="translate(200.576 -81.147)scale(1.00008)"><use xlink:href="#m" x="-55.085544" y="143.688853"/><use xlink:href="#n" x="-48.114969" y="143.688853"/><use xlink:href="#o" x="-36.615831" y="143.688853"/><use xlink:href="#p" x="-31.144569" y="143.688853"/><use xlink:href="#q" x="-28.113319" y="143.688853"/><use xlink:href="#r" x="-22.658319" y="143.688853"/><use xlink:href="#s" x="-17.203419" y="143.688853"/></g><g transform="matrix(.99999 0 0 .99999 200.576 -81.147)"><use xlink:href="#d" x="-10.653865" y="139.716247"/><use xlink:href="#t" x="-6.419918" y="139.716247"/><use xlink:href="#u" x="-4.067948" y="139.716247"/><use xlink:href="#i" x=".164122" y="139.716247"/></g></g><path d="M71.172 165.087a1.12 1.12 0 1 0-2.241 0 1.12 1.12 0 0 0 2.241 0"/><path fill="none" stroke="#000" stroke-miterlimit="10" stroke-width=".3985" d="M71.172 165.087a1.12 1.12 0 1 0-2.241 0 1.12 1.12 0 0 0 2.241 0Z"/><path d="M85.153 154.629a1.12 1.12 0 1 0-2.242 0 1.12 1.12 0 0 0 2.242 0"/><path fill="none" stroke="#000" stroke-miterlimit="10" stroke-width=".3985" d="M85.153 154.629a1.12 1.12 0 1 0-2.242 0 1.12 1.12 0 0 0 2.242 0Z"/><path d="M99.134 144.642a1.12 1.12 0 1 0-2.242 0 1.12 1.12 0 0 0 2.242 0"/><path fill="none" stroke="#000" stroke-miterlimit="10" stroke-width=".3985" d="M99.134 144.642a1.12 1.12 0 1 0-2.242 0 1.12 1.12 0 0 0 2.242 0Z"/><path d="M113.114 134.569a1.12 1.12 0 1 0-2.242 0 1.12 1.12 0 0 0 2.242 0"/><path fill="none" stroke="#000" stroke-miterlimit="10" stroke-width=".3985" d="M113.114 134.569a1.12 1.12 0 1 0-2.242 0 1.12 1.12 0 0 0 2.242 0Z"/><path d="M127.095 124.494a1.12 1.12 0 1 0-2.242 0 1.12 1.12 0 0 0 2.242 0"/><path fill="none" stroke="#000" stroke-miterlimit="10" stroke-width=".3985" d="M127.095 124.494a1.12 1.12 0 1 0-2.242 0 1.12 1.12 0 0 0 2.242 0Z"/><path d="M141.075 113.906a1.12 1.12 0 1 0-2.242 0 1.12 1.12 0 0 0 2.242 0"/><path fill="none" stroke="#000" stroke-miterlimit="10" stroke-width=".3985" d="M141.075 113.906a1.12 1.12 0 1 0-2.242 0 1.12 1.12 0 0 0 2.242 0Z"/><path d="M155.055 103.591a1.12 1.12 0 1 0-2.241 0 1.12 1.12 0 0 0 2.241 0"/><path fill="none" stroke="#000" stroke-miterlimit="10" stroke-width=".3985" d="M155.055 103.591a1.12 1.12 0 1 0-2.241 0 1.12 1.12 0 0 0 2.241 0Z"/><path d="M169.036 93.273a1.12 1.12 0 1 0-2.241 0 1.12 1.12 0 0 0 2.241 0"/><path fill="none" stroke="#000" stroke-miterlimit="10" stroke-width=".3985" d="M169.036 93.273a1.12 1.12 0 1 0-2.241 0 1.12 1.12 0 0 0 2.241 0Z"/><path d="M183.017 82.898a1.12 1.12 0 1 0-2.242 0 1.12 1.12 0 0 0 2.242 0"/><path fill="none" stroke="#000" stroke-miterlimit="10" stroke-width=".3985" d="M183.017 82.898a1.12 1.12 0 1 0-2.242 0 1.12 1.12 0 0 0 2.242 0Z"/><path d="M196.997 72.378a1.12 1.12 0 1 0-2.241 0 1.12 1.12 0 0 0 2.241 0"/><path fill="none" stroke="#000" stroke-miterlimit="10" stroke-width=".3985" d="M196.997 72.378a1.12 1.12 0 1 0-2.241 0 1.12 1.12 0 0 0 2.241 0Z"/><path d="M210.978 52.999a1.12 1.12 0 1 0-2.242 0 1.12 1.12 0 0 0 2.242 0"/><path fill="none" stroke="#000" stroke-miterlimit="10" stroke-width=".3985" d="M210.978 52.999a1.12 1.12 0 1 0-2.242 0 1.12 1.12 0 0 0 2.242 0Z"/><g transform="translate(163.051 76.23)scale(1.0004)"><use xlink:href="#v" x="-55.103115" y="143.734686"/><use xlink:href="#w" x="-44.213745" y="143.734686"/><use xlink:href="#x" x="-38.353343" y="143.734686"/><use xlink:href="#y" x="-31.536145" y="143.734686"/><use xlink:href="#z" x="-26.333545" y="143.734686"/><use xlink:href="#A" x="-21.764824" y="143.734686"/><use xlink:href="#B" x="-15.904423" y="143.734686"/><use xlink:href="#C" x="-11.347662" y="143.734686"/><use xlink:href="#w" x="-8.094542" y="143.734686"/><use xlink:href="#D" x="-2.234142" y="143.734686"/><use xlink:href="#E" x="4.272099" y="143.734686"/></g><g transform="rotate(-90 -7.136 112.25)scale(1.0004)"><use xlink:href="#y" x="-55.103115" y="143.734686"/><use xlink:href="#F" x="-49.900517" y="143.734686"/><use xlink:href="#A" x="-46.647396" y="143.734686"/><use xlink:href="#x" x="-40.786996" y="143.734686"/><use xlink:href="#E" x="-34.280758" y="143.734686"/><use xlink:href="#y" x="-29.664195" y="143.734686"/><use xlink:href="#G" x="-24.461596" y="143.734686"/><use xlink:href="#B" x="-14.056395" y="143.734686"/><use xlink:href="#C" x="-9.499635" y="143.734686"/><use xlink:href="#H" x="-6.246514" y="143.734686"/><use xlink:href="#y" x="3.512846" y="143.734686"/><use xlink:href="#I" x="12.614064" y="143.734686"/><use xlink:href="#J" x="20.742327" y="143.734686"/><use xlink:href="#K" x="23.983487" y="143.734686"/><use xlink:href="#L" x="30.477769" y="143.734686"/><use xlink:href="#M" x="35.094329" y="143.734686"/></g><g transform="translate(128.862 -119.814)scale(1.0004)"><use xlink:href="#N" x="-55.103115" y="143.734686"/><use xlink:href="#O" x="-46.157035" y="143.734686"/><use xlink:href="#D" x="-39.973717" y="143.734686"/><use xlink:href="#A" x="-33.467478" y="143.734686"/><use xlink:href="#H" x="-27.607077" y="143.734686"/><use xlink:href="#C" x="-17.847717" y="143.734686"/><use xlink:href="#P" x="-14.594595" y="143.734686"/><use xlink:href="#Q" x="-5.493035" y="143.734686"/><use xlink:href="#z" x="3.285605" y="143.734686"/><use xlink:href="#z" x="7.842365" y="143.734686"/><use xlink:href="#A" x="12.399126" y="143.734686"/><use xlink:href="#O" x="17.948566" y="143.734686"/><use xlink:href="#R" x="28.018242" y="143.734686"/><use xlink:href="#S" x="34.177644" y="143.734686"/><use xlink:href="#S" x="40.337045" y="143.734686"/><use xlink:href="#T" x="46.496446" y="143.734686"/><use xlink:href="#U" x="52.655847" y="143.734686"/><use xlink:href="#V" x="58.815245" y="143.734686"/><use xlink:href="#W" x="64.974647" y="143.734686"/><use xlink:href="#X" x="71.134049" y="143.734686"/></g><g fill="none" stroke="gray" stroke-miterlimit="10" stroke-width=".19925"><path d="M296.812 190.273v-4.25m27.96 4.25v-4.25m27.962 4.25v-4.25m27.96 4.25v-4.25m27.962 4.25v-4.25m27.96 4.25v-4.25M296.813 36.675v4.25m27.96-4.25v4.25m27.962-4.25v4.25m27.96-4.25v4.25m27.962-4.25v4.25m27.96-4.25v4.25M282.844 181.946h2.832m-2.832-6.24h2.832m-2.832-4.426h2.832m-2.832-3.434h2.832m-2.832-2.806h2.832m-2.832-2.372h2.832m-2.832-2.055h2.832m-2.832-1.812h2.832m-2.832-1.622h2.832m-2.832-10.666h2.832m-2.832-6.24h2.832m-2.832-4.427h2.832m-2.832-3.434h2.832m-2.832-2.805h2.832m-2.832-2.372h2.832m-2.832-2.055h2.832m-2.832-1.813h2.832m-2.832-1.621h2.832m-2.832-10.666h2.832m-2.832-6.24h2.832m-2.832-4.427h2.832m-2.832-3.434h2.832m-2.832-2.806h2.832m-2.832-2.372h2.832m-2.832-2.054h2.832m-2.832-1.813h2.832m-2.832-1.621h2.832m-2.832-10.667h2.832m-2.832-6.24h2.832m-2.832-4.426h2.832m-2.832-3.434h2.832m-2.832-2.806h2.832m-2.832-2.372h2.832m-2.832-2.055h2.832m-2.832-1.812h2.832m164.936 129.445h-2.833m2.833-6.24h-2.833m2.833-4.426h-2.833m2.833-3.434h-2.833m2.833-2.806h-2.833m2.833-2.372h-2.833m2.833-2.055h-2.833m2.833-1.812h-2.833m2.833-1.622h-2.833m2.833-10.666h-2.833m2.833-6.24h-2.833m2.833-4.427h-2.833m2.833-3.434h-2.833m2.833-2.805h-2.833m2.833-2.372h-2.833m2.833-2.055h-2.833m2.833-1.813h-2.833m2.833-1.621h-2.833m2.833-10.666h-2.833m2.833-6.24h-2.833m2.833-4.427h-2.833m2.833-3.434h-2.833m2.833-2.806h-2.833m2.833-2.372h-2.833m2.833-2.054h-2.833m2.833-1.813h-2.833m2.833-1.621h-2.833m2.833-10.667h-2.833m2.833-6.24h-2.833m2.833-4.426h-2.833m2.833-3.434h-2.833m2.833-2.806h-2.833m2.833-2.372h-2.833m2.833-2.055h-2.833m2.833-1.812h-2.833M282.844 157.18h4.248m-4.248-35.434h4.248m-4.248-35.433h4.248m-4.248-35.434h4.248m163.52 106.3h-4.249m4.249-35.433h-4.249m4.249-35.433h-4.249m4.249-35.434h-4.249"/></g><path fill="none" stroke="#000" stroke-miterlimit="10" stroke-width=".3985" d="M282.844 190.273V36.675h167.768v153.598z"/><use xlink:href="#a" x="-55.103115" y="155.600448" transform="translate(346.6 48.393)scale(1.0004)"/><use xlink:href="#b" x="-49.227382" y="151.197093" transform="matrix(.99999 0 0 .99999 346.6 48.393)"/><use xlink:href="#a" x="-55.103115" y="155.600448" transform="translate(374.561 48.393)scale(1.0004)"/><use xlink:href="#c" x="-49.227382" y="151.197093" transform="matrix(.99999 0 0 .99999 374.561 48.393)"/><use xlink:href="#a" x="-55.103115" y="155.600448" transform="translate(400.405 48.393)scale(1.0004)"/><g transform="matrix(.99999 0 0 .99999 400.405 48.393)"><use xlink:href="#d" x="-49.227382" y="151.197093"/><use xlink:href="#d" x="-44.995313" y="151.197093"/></g><use xlink:href="#a" x="-55.103115" y="155.600448" transform="translate(428.366 48.393)scale(1.0004)"/><g transform="matrix(.99999 0 0 .99999 428.366 48.393)"><use xlink:href="#d" x="-49.227382" y="151.197093"/><use xlink:href="#e" x="-44.995313" y="151.197093"/></g><use xlink:href="#a" x="-55.103115" y="155.600448" transform="translate(456.327 48.393)scale(1.0004)"/><g transform="matrix(.99999 0 0 .99999 456.327 48.393)"><use xlink:href="#d" x="-49.227382" y="151.197093"/><use xlink:href="#f" x="-44.995313" y="151.197093"/></g><use xlink:href="#a" x="-55.103115" y="155.600448" transform="translate(484.288 48.393)scale(1.0004)"/><g transform="matrix(.99999 0 0 .99999 484.288 48.393)"><use xlink:href="#d" x="-49.227382" y="151.197093"/><use xlink:href="#b" x="-44.995313" y="151.197093"/></g><g transform="translate(317.302 6.379)scale(1.0004)"><use xlink:href="#g" x="-55.103115" y="155.600448"/><use xlink:href="#h" x="-49.254678" y="155.600448"/></g><use xlink:href="#e" x="-43.374456" y="151.197093" transform="matrix(.99999 0 0 .99999 317.302 6.379)"/><g transform="translate(317.302 -29.055)scale(1.0004)"><use xlink:href="#g" x="-55.103115" y="155.600448"/><use xlink:href="#h" x="-49.254678" y="155.600448"/></g><use xlink:href="#j" x="-43.374456" y="151.197093" transform="matrix(.99999 0 0 .99999 317.302 -29.055)"/><g transform="translate(317.302 -64.488)scale(1.0004)"><use xlink:href="#g" x="-55.103115" y="155.600448"/><use xlink:href="#h" x="-49.254678" y="155.600448"/></g><use xlink:href="#f" x="-43.374456" y="151.197093" transform="matrix(.99999 0 0 .99999 317.302 -64.488)"/><g transform="translate(317.302 -99.921)scale(1.0004)"><use xlink:href="#g" x="-55.103115" y="155.600448"/><use xlink:href="#h" x="-49.254678" y="155.600448"/></g><use xlink:href="#k" x="-43.374456" y="151.197093" transform="matrix(.99999 0 0 .99999 317.302 -99.921)"/><g clip-path="url(#Y)"><path fill="none" stroke="#000" stroke-miterlimit="10" stroke-width=".3985" d="m282.844 177.472 6.99-5.333 6.99-5.334 6.99-5.332 6.99-5.334 6.99-5.333 6.99-5.333 6.99-5.333 6.99-5.334 6.99-5.333 6.991-5.333 6.99-5.333 6.99-5.334 6.99-5.333 6.99-5.333 6.99-5.334 6.99-5.333 6.991-5.333 6.99-5.333 6.99-5.33 6.99-5.336 6.99-5.331 6.99-5.335 6.99-5.332 6.99-5.334"/><g transform="translate(427.35 -93.011)scale(1.00008)"><use xlink:href="#m" x="-55.085544" y="155.550832"/><use xlink:href="#n" x="-48.114969" y="155.550832"/><use xlink:href="#Z" x="-36.615831" y="155.550832"/><use xlink:href="#p" x="-31.144569" y="155.550832"/><use xlink:href="#o" x="-28.113319" y="155.550832"/><use xlink:href="#aa" x="-22.658319" y="155.550832"/><use xlink:href="#s" x="-17.203419" y="155.550832"/></g><g transform="matrix(.99999 0 0 .99999 427.35 -93.011)"><use xlink:href="#d" x="-10.653865" y="151.577098"/><use xlink:href="#t" x="-6.419918" y="151.577098"/><use xlink:href="#u" x="-4.067948" y="151.577098"/><use xlink:href="#u" x=".164122" y="151.577098"/></g></g><path d="M297.946 165.367a1.12 1.12 0 1 0-2.241 0 1.12 1.12 0 0 0 2.241 0"/><path fill="none" stroke="#000" stroke-miterlimit="10" stroke-width=".3985" d="M297.946 165.367a1.12 1.12 0 1 0-2.241 0 1.12 1.12 0 0 0 2.241 0Z"/><path d="M311.927 154.925a1.12 1.12 0 1 0-2.242 0 1.12 1.12 0 0 0 2.242 0"/><path fill="none" stroke="#000" stroke-miterlimit="10" stroke-width=".3985" d="M311.927 154.925a1.12 1.12 0 1 0-2.242 0 1.12 1.12 0 0 0 2.242 0Z"/><path d="M325.908 144.44a1.12 1.12 0 1 0-2.242 0 1.12 1.12 0 0 0 2.242 0"/><path fill="none" stroke="#000" stroke-miterlimit="10" stroke-width=".3985" d="M325.908 144.44a1.12 1.12 0 1 0-2.242 0 1.12 1.12 0 0 0 2.242 0Z"/><path d="M339.888 134.136a1.12 1.12 0 1 0-2.242 0 1.12 1.12 0 0 0 2.242 0"/><path fill="none" stroke="#000" stroke-miterlimit="10" stroke-width=".3985" d="M339.888 134.136a1.12 1.12 0 1 0-2.242 0 1.12 1.12 0 0 0 2.242 0Z"/><path d="M353.869 123.616a1.12 1.12 0 1 0-2.242 0 1.12 1.12 0 0 0 2.242 0"/><path fill="none" stroke="#000" stroke-miterlimit="10" stroke-width=".3985" d="M353.869 123.616a1.12 1.12 0 1 0-2.242 0 1.12 1.12 0 0 0 2.242 0Z"/><path d="M367.849 112.704a1.12 1.12 0 1 0-2.242 0 1.12 1.12 0 0 0 2.242 0"/><path fill="none" stroke="#000" stroke-miterlimit="10" stroke-width=".3985" d="M367.849 112.704a1.12 1.12 0 1 0-2.242 0 1.12 1.12 0 0 0 2.242 0Z"/><path d="M381.83 102.092a1.12 1.12 0 1 0-2.242 0 1.12 1.12 0 0 0 2.241 0"/><path fill="none" stroke="#000" stroke-miterlimit="10" stroke-width=".3985" d="M381.83 102.092a1.12 1.12 0 1 0-2.242 0 1.12 1.12 0 0 0 2.241 0Z"/><path d="M395.81 91.66a1.12 1.12 0 1 0-2.241 0 1.12 1.12 0 0 0 2.241 0"/><path fill="none" stroke="#000" stroke-miterlimit="10" stroke-width=".3985" d="M395.81 91.66a1.12 1.12 0 1 0-2.241 0 1.12 1.12 0 0 0 2.241 0Z"/><path d="M409.79 81.15a1.12 1.12 0 1 0-2.24 0 1.12 1.12 0 0 0 2.24 0"/><path fill="none" stroke="#000" stroke-miterlimit="10" stroke-width=".3985" d="M409.79 81.15a1.12 1.12 0 1 0-2.24 0 1.12 1.12 0 0 0 2.24 0Z"/><path d="M423.771 70.508a1.12 1.12 0 1 0-2.241 0 1.12 1.12 0 0 0 2.241 0"/><path fill="none" stroke="#000" stroke-miterlimit="10" stroke-width=".3985" d="M423.771 70.508a1.12 1.12 0 1 0-2.241 0 1.12 1.12 0 0 0 2.241 0Z"/><path d="M437.752 55.53a1.12 1.12 0 1 0-2.242 0 1.12 1.12 0 0 0 2.242 0"/><path fill="none" stroke="#000" stroke-miterlimit="10" stroke-width=".3985" d="M437.752 55.53a1.12 1.12 0 1 0-2.242 0 1.12 1.12 0 0 0 2.242 0Z"/><g transform="translate(389.825 64.369)scale(1.0004)"><use xlink:href="#v" x="-55.103115" y="155.600448"/><use xlink:href="#w" x="-44.213745" y="155.600448"/><use xlink:href="#x" x="-38.353343" y="155.600448"/><use xlink:href="#y" x="-31.536145" y="155.600448"/><use xlink:href="#z" x="-26.333545" y="155.600448"/><use xlink:href="#A" x="-21.764824" y="155.600448"/><use xlink:href="#B" x="-15.904423" y="155.600448"/><use xlink:href="#C" x="-11.347662" y="155.600448"/><use xlink:href="#w" x="-8.094542" y="155.600448"/><use xlink:href="#D" x="-2.234142" y="155.600448"/><use xlink:href="#E" x="4.272099" y="155.600448"/></g><g transform="rotate(-90 100.32 4.793)scale(1.0004)"><use xlink:href="#y" x="-55.103115" y="155.600448"/><use xlink:href="#F" x="-49.900517" y="155.600448"/><use xlink:href="#A" x="-46.647396" y="155.600448"/><use xlink:href="#x" x="-40.786996" y="155.600448"/><use xlink:href="#E" x="-34.280758" y="155.600448"/><use xlink:href="#y" x="-29.664195" y="155.600448"/><use xlink:href="#G" x="-24.461596" y="155.600448"/><use xlink:href="#B" x="-14.056395" y="155.600448"/><use xlink:href="#C" x="-9.499635" y="155.600448"/><use xlink:href="#H" x="-6.246514" y="155.600448"/><use xlink:href="#y" x="3.512846" y="155.600448"/><use xlink:href="#I" x="12.614064" y="155.600448"/><use xlink:href="#J" x="20.742327" y="155.600448"/><use xlink:href="#K" x="23.983487" y="155.600448"/><use xlink:href="#L" x="30.477769" y="155.600448"/><use xlink:href="#M" x="35.094329" y="155.600448"/></g><g transform="translate(317.678 -131.679)scale(1.0004)"><use xlink:href="#N" x="-55.103115" y="155.600448"/><use xlink:href="#O" x="-46.157035" y="155.600448"/><use xlink:href="#D" x="-39.973717" y="155.600448"/><use xlink:href="#A" x="-33.467478" y="155.600448"/><use xlink:href="#H" x="-27.607077" y="155.600448"/><use xlink:href="#C" x="-17.847717" y="155.600448"/><use xlink:href="#P" x="-14.594595" y="155.600448"/><use xlink:href="#Q" x="-5.493035" y="155.600448"/><use xlink:href="#z" x="3.285605" y="155.600448"/><use xlink:href="#z" x="7.842365" y="155.600448"/><use xlink:href="#A" x="12.399126" y="155.600448"/><use xlink:href="#O" x="17.948566" y="155.600448"/><use xlink:href="#R" x="28.018242" y="155.600448"/><use xlink:href="#S" x="34.177644" y="155.600448"/><use xlink:href="#S" x="40.337045" y="155.600448"/><use xlink:href="#T" x="46.496446" y="155.600448"/><use xlink:href="#U" x="52.655847" y="155.600448"/><use xlink:href="#V" x="58.815245" y="155.600448"/><use xlink:href="#W" x="64.974647" y="155.600448"/><use xlink:href="#X" x="71.134049" y="155.600448"/><use xlink:href="#A" x="81.192585" y="155.600448"/><use xlink:href="#D" x="87.052978" y="155.600448"/><use xlink:href="#G" x="93.559227" y="155.600448"/><use xlink:href="#ab" x="103.964725" y="155.600448"/><use xlink:href="#T" x="110.124126" y="155.600448"/><use xlink:href="#ac" x="116.283527" y="155.600448"/><use xlink:href="#ad" x="122.442921" y="155.600448"/><use xlink:href="#ae" x="128.602313" y="155.600448"/><use xlink:href="#T" x="134.761715" y="155.600448"/><use xlink:href="#W" x="140.921107" y="155.600448"/><use xlink:href="#X" x="147.080499" y="155.600448"/></g></svg>