<svg xmlns="http://www.w3.org/2000/svg" xmlns:xlink="http://www.w3.org/1999/xlink" width="261.19pt" height="103.39pt" viewBox="0 0 261.19 103.39"><defs><path id="i" d="M5.669-1.064v-.67h-.263v.67c0 .681-.287.777-.455.777-.454 0-.454-.634-.454-.813v-2.093c0-.646 0-1.125-.526-1.591-.419-.383-.957-.55-1.483-.55-.981 0-1.735.646-1.735 1.423 0 .347.228.514.503.514.287 0 .49-.203.49-.49 0-.49-.43-.49-.61-.49.275-.503.85-.718 1.328-.718.55 0 1.256.455 1.256 1.53v.48C1.316-3.05.407-2.046.407-1.126c0 .946 1.1 1.245 1.83 1.245A1.63 1.63 0 0 0 3.79-.933c.048.562.419.993.933.993.251 0 .945-.168.945-1.124m-1.95-.622C3.72-.514 2.847-.12 2.333-.12c-.586 0-1.076-.43-1.076-1.004 0-1.579 2.033-1.722 2.464-1.746z"/><path id="h" d="M4.856-1.423c0-.108-.084-.108-.12-.108-.107 0-.12.036-.155.18-.263.849-.91 1.207-1.555 1.207-.73 0-1.698-.633-1.698-2.451 0-1.986 1.016-2.476 1.614-2.476.455 0 1.112.18 1.388.646-.144 0-.587 0-.587.49 0 .287.204.49.49.49.276 0 .503-.167.503-.514 0-.801-.837-1.375-1.806-1.375C1.53-5.334.42-4.09.42-2.584.419-1.051 1.567.12 2.919.12c1.578 0 1.937-1.436 1.937-1.543"/><path id="g" d="M4.868-1.423c0-.072-.06-.12-.132-.12-.096 0-.12.06-.143.12C4.282-.42 3.48-.143 2.978-.143s-1.71-.335-1.71-2.404v-.228H4.58c.263 0 .287 0 .287-.227 0-1.208-.646-2.332-2.093-2.332C1.41-5.334.359-4.102.359-2.62.359-1.041 1.579.12 2.906.12c1.424 0 1.962-1.292 1.962-1.543m-.742-1.579H1.28c.095-1.878 1.148-2.093 1.483-2.093 1.28 0 1.351 1.686 1.363 2.093"/><path id="e" d="M2.882 0v-.347c-.777 0-.825-.06-.825-.526v-4.401l-1.626.131v.347c.765 0 .873.072.873.658v3.253c0 .538-.132.538-.91.538V0c.336-.024.91-.024 1.256-.024.132 0 .826 0 1.232.024m-.67-7.224a.58.58 0 1 0-.586.574.576.576 0 0 0 .587-.574"/><path id="j" d="M6.076-2.583c0-1.52-1.125-2.691-2.428-2.691-1.053 0-1.615.753-1.65.801v-.801l-1.663.131v.347c.837 0 .909.084.909.61v5.621c0 .538-.132.538-.91.538v.347c.312-.024.958-.024 1.293-.024.346 0 .992 0 1.303.024v-.347c-.765 0-.909 0-.909-.538v-2.08c.216.298.706.765 1.471.765 1.376 0 2.584-1.16 2.584-2.703m-.91 0c0 1.423-.813 2.463-1.733 2.463a1.4 1.4 0 0 1-.957-.382c-.275-.275-.455-.515-.455-.85v-2.463c0-.227 0-.24.132-.43a1.72 1.72 0 0 1 1.4-.766c.896 0 1.614 1.088 1.614 2.428"/><path id="d" d="M4.21-1.519c0-.646-.395-1.028-.502-1.136-.431-.37-.754-.443-1.543-.586-.359-.072-1.232-.24-1.232-.957 0-.37.251-.92 1.327-.92 1.304 0 1.376 1.111 1.4 1.482.012.096.095.096.131.096.132 0 .132-.06.132-.275V-5.06c0-.215 0-.275-.12-.275-.095 0-.323.263-.406.37-.371-.298-.742-.37-1.125-.37-1.447 0-1.877.79-1.877 1.447 0 .132 0 .55.454.969.383.335.79.418 1.34.526.657.132.813.167 1.112.407.215.179.37.442.37.777 0 .514-.298 1.088-1.35 1.088C1.53-.12.956-.574.693-1.77c-.048-.215-.06-.24-.06-.24-.024-.047-.072-.047-.108-.047-.131 0-.131.06-.131.275v1.627c0 .215 0 .275.12.275.06 0 .071-.012.274-.264.06-.083.06-.107.24-.299.454.563 1.1.563 1.303.563C3.588.12 4.21-.574 4.21-1.52"/><path id="k" d="M3.899-1.483v-.682h-.263v.658c0 .861-.347 1.363-.813 1.363-.814 0-.814-1.112-.814-1.315v-3.349h1.687v-.347H2.009v-2.2h-.263c-.012 1.124-.442 2.272-1.53 2.308v.24h1.016v3.324C1.232-.155 2.117.12 2.75.12c.753 0 1.148-.742 1.148-1.603"/><path id="l" d="M5.956-4.808v-.347c-.347.024-.514.024-.897.024l-.969-.024v.347c.443.024.55.3.55.514 0 .108-.023.168-.071.287L3.349-.993 2.02-4.246c-.072-.167-.072-.251-.072-.251 0-.31.42-.31.658-.31v-.348c-.31.024-.897.024-1.232.024l-1.16-.024v.347c.694 0 .79.06.945.43L2.942 0c-.526 1.268-.526 1.292-.574 1.387-.203.36-.526.814-1.064.814-.371 0-.598-.216-.598-.216s.418-.047.418-.466a.433.433 0 0 0-.442-.443c-.204 0-.455.12-.455.467 0 .454.443.897 1.077.897.67 0 1.16-.586 1.47-1.34l2.07-5.095c.323-.801.885-.813 1.112-.813"/><path id="f" d="M4.7-2.2h-.263C4.33-.838 4.127-.264 2.703-.264H1.256l3.3-4.557c.108-.131.108-.155.108-.203 0-.132-.083-.132-.287-.132H.622L.49-3.253h.263c.072-1.22.3-1.663 1.603-1.663h1.387l-3.42 4.7C.323 0 .347 0 .61 0h3.899z"/><path id="b" d="M6.088-.347c0-.347-.311-.347-.479-.347-.31 0-.55-.024-.717-.095v-2.608c0-.909-.682-1.865-2.297-1.865-.502 0-1.662 0-1.662.825 0 .323.227.502.49.502.072 0 .467-.024.479-.526 0-.06.012-.072.263-.096.143-.012.299-.012.442-.012.275 0 .682 0 1.077.3.43.334.43.669.43 1.016-.705.024-1.4.072-2.14.31C1.374-2.738.61-2.307.61-1.494c0 .85.753 1.567 1.866 1.567.382 0 1.124-.06 1.746-.49.24.394.837.418 1.292.418.287 0 .574 0 .574-.347M4.114-1.579c0 .275 0 .527-.49.754-.419.203-.98.203-1.017.203-.705 0-1.22-.383-1.22-.873 0-.706 1.28-1.112 2.727-1.112z"/><path id="a" d="M5.968-.347c0-.347-.31-.347-.478-.347H5v-6.123c0-.371-.072-.49-.48-.49h-.788c-.168 0-.479 0-.479.346s.311.347.479.347h.49v1.985c-.191-.19-.682-.598-1.411-.598C1.543-5.227.443-4.078.443-2.57c0 1.47 1.028 2.643 2.26 2.643.777 0 1.292-.467 1.519-.73 0 .503 0 .658.478.658h.79c.167 0 .478 0 .478-.347M4.222-2.272c0 .67-.55 1.65-1.447 1.65-.861 0-1.555-.873-1.555-1.95 0-1.148.813-1.96 1.662-1.96.778 0 1.34.705 1.34 1.327z"/><path id="c" d="M5.262-1.471c0-.24 0-.502-.394-.502-.383 0-.383.263-.383.514-.012.717-.694.837-.969.837-.933 0-.933-.598-.933-.885v-2.954h1.938c.167 0 .478 0 .478-.347s-.31-.347-.478-.347H2.583v-.98c0-.216 0-.49-.382-.49-.395 0-.395.274-.395.49v.98H.789c-.167 0-.49 0-.49.347s.311.347.478.347h1.029v3.014c0 1.112.765 1.519 1.627 1.519.645 0 1.83-.323 1.83-1.543"/></defs><g fill="none" stroke="#000" stroke-miterlimit="10" stroke-width=".3985"><path d="M11.538 38.683h238.113M11.538 67.03h238.113M31.38 38.683V67.03M71.066 38.683V67.03M110.752 38.683V67.03M150.437 38.683V67.03M190.123 38.683V67.03M229.808 38.683V67.03"/></g><g transform="translate(99.372 89.793)scale(1.0004)"><use xlink:href="#a" x="-60.486275" y="-33.333378"/><use xlink:href="#b" x="-54.326877" y="-33.333378"/><use xlink:href="#c" x="-48.167476" y="-33.333378"/><use xlink:href="#b" x="-42.008075" y="-33.333378"/></g><g transform="translate(139.057 89.793)scale(1.0004)"><use xlink:href="#a" x="-60.486275" y="-33.333378"/><use xlink:href="#b" x="-54.326877" y="-33.333378"/><use xlink:href="#c" x="-48.167476" y="-33.333378"/><use xlink:href="#b" x="-42.008075" y="-33.333378"/></g><g transform="translate(178.743 89.793)scale(1.0004)"><use xlink:href="#a" x="-60.486275" y="-33.333378"/><use xlink:href="#b" x="-54.326877" y="-33.333378"/><use xlink:href="#c" x="-48.167476" y="-33.333378"/><use xlink:href="#b" x="-42.008075" y="-33.333378"/></g><path d="M31.102 70.004c.747 1.494 2.77 2.974 5.26 2.974.822 0 .822-1.246 0-1.246-2.49 0-3.956-.512-4.703-2.007-.184-.367-.74-.089-.557.279M91.188 74.707c-.748-1.495-2.77-2.975-5.26-2.975-.822 0-.822 1.246 0 1.246 2.49 0 3.955.513 4.703 2.007.183.368.74.09.557-.278"/><path fill="none" stroke="#000" stroke-miterlimit="10" stroke-width="1.24535" d="M36.362 72.355h49.566"/><path d="M91.188 74.985c.747-1.494 2.212-2.007 4.702-2.007.822 0 .822-1.246 0-1.246-2.49 0-4.512 1.48-5.26 2.975-.183.367.374.646.558.278M150.159 69.725c-.747 1.495-2.212 2.007-4.703 2.007-.822 0-.822 1.246 0 1.246 2.49 0 4.513-1.48 5.26-2.974.184-.368-.373-.646-.557-.279"/><path fill="none" stroke="#000" stroke-miterlimit="10" stroke-width="1.24535" d="M95.89 72.355h49.566"/><g transform="translate(142.237 121.268)scale(1.0004)"><use xlink:href="#d" x="-60.486275" y="-33.333378"/><use xlink:href="#e" x="-55.869718" y="-33.333378"/><use xlink:href="#f" x="-52.616596" y="-33.333378"/><use xlink:href="#g" x="-47.413997" y="-33.333378"/></g><path d="M31.66 35.988c.746-1.495 2.211-2.008 4.702-2.008.822 0 .822-1.245 0-1.245-2.49 0-4.513 1.48-5.26 2.974-.183.368.373.646.557.279M130.316 30.728c-.747 1.494-2.212 2.007-4.703 2.007-.822 0-.822 1.245 0 1.245 2.49 0 4.513-1.48 5.26-2.974.184-.367-.373-.646-.557-.278"/><path fill="none" stroke="#000" stroke-miterlimit="10" stroke-width="1.24535" d="M36.362 33.358h89.251"/><path d="M130.316 31.006c.747 1.495 2.77 2.974 5.26 2.974.822 0 .822-1.245 0-1.245-2.49 0-3.956-.513-4.703-2.007-.184-.368-.74-.09-.557.278M230.087 35.71c-.747-1.495-2.77-2.975-5.26-2.975-.822 0-.822 1.245 0 1.245 2.49 0 3.956.513 4.703 2.008.184.367.74.089.557-.279"/><path fill="none" stroke="#000" stroke-miterlimit="10" stroke-width="1.24535" d="M135.576 33.358h89.251"/><g transform="translate(169.914 56.453)scale(1.0004)"><use xlink:href="#h" x="-60.486275" y="-33.333378"/><use xlink:href="#i" x="-55.283677" y="-33.333378"/><use xlink:href="#j" x="-49.423279" y="-33.333378"/><use xlink:href="#i" x="-42.91704" y="-33.333378"/><use xlink:href="#h" x="-37.056641" y="-33.333378"/><use xlink:href="#e" x="-31.85404" y="-33.333378"/><use xlink:href="#k" x="-28.600921" y="-33.333378"/><use xlink:href="#l" x="-24.367079" y="-33.333378"/></g></svg>