<svg xmlns="http://www.w3.org/2000/svg" xmlns:xlink="http://www.w3.org/1999/xlink" width="400.28pt" height="99.03pt" viewBox="0 0 400.28 99.03"><defs><path id="t" d="M2.095-.578c0-.317-.262-.578-.579-.578s-.578.261-.578.578S1.2 0 1.516 0s.579-.262.579-.578"/><path id="k" d="M2.095-.578c0-.317-.262-.578-.579-.578s-.578.261-.578.578S1.2 0 1.516 0s.579-.262.579-.578"/><path id="s" d="M4.462-2.51h3.044c.153 0 .36 0 .36-.218s-.207-.218-.36-.218H4.462V-6c0-.153 0-.36-.218-.36s-.218.207-.218.36v3.054H.97c-.153 0-.36 0-.36.219s.207.218.36.218h3.055V.546c0 .152 0 .36.218.36s.218-.208.218-.36z"/><path id="f" d="M1.79-3.295c0-1.975.414-3.382 1.843-5.455l-.23-.196C1.758-7.3.983-5.476.983-3.295s.775 3.993 2.422 5.64l.229-.185C2.215.098 1.789-1.33 1.789-3.295"/><path id="h" d="M2.15-3.295C2.15-1.33 1.734.087.304 2.16l.23.186C2.182.698 2.957-1.113 2.957-3.294S2.182-7.3.535-8.947l-.23.196C1.724-6.688 2.15-5.27 2.15-3.295"/><path id="p" d="m9.012-4.833-.775.033v-3.426l.033-.578c0-.11-.033-.186-.131-.219-.317-.13-1.004-.272-1.397-.283-.087 0-.109.022-.12.054l-.087.262c.393.131.742.327.927.557v5.05c-1.45.405-3.654.7-4.975.732-.141 0-.196-.055-.196-.197V-6.47l.022-.523c0-.12-.055-.186-.164-.208-.272-.054-.927-.098-1.298-.098-.076 0-.098.022-.12.066l-.044.262c.306.076.622.207.819.338V-3c0 .218.01.393.043.49.12.339.36.546.72.546.11 0 .23 0 .36-.01 1.353-.11 3.339-.47 4.833-.972v2.117c0 .48.033 1.55.066 2.007h.458c.153-.622.251-1.647.251-2.28v-3.23l1.898-.032c.077 0 .164-.01.208-.055.076-.043.142-.196.13-.392 0-.077-.065-.153-.152-.175-.197-.044-.644-.065-.96-.054z"/><path id="o" d="M8.553-1.146c-.327.022-1.549.044-2.88.066v-2.346c1.048 0 2.106-.01 2.64-.01.055-.044.099-.186.099-.306 0-.055-.033-.098-.077-.11l-.25-.065c.065-.262.12-.654.12-.96l.032-2.782.022-.49c0-.077-.044-.132-.12-.164-.284-.12-.895-.23-1.255-.251-.076 0-.109.01-.12.054l-.087.262c.305.11.6.262.764.436v1.473l-4.124.033.01-1.004.011-.48c0-.098-.032-.152-.12-.174a5.6 5.6 0 0 0-1.232-.131c-.099 0-.12.022-.131.043L1.8-7.79c.262.077.557.218.71.36l.065 3.83c0 .185.022.436.087.6h.436c.077-.077.142-.208.186-.393.382-.01.97-.022 1.626-.022v2.346c-1.528.022-3.012.033-3.339.033a9.5 9.5 0 0 1-1.211-.12l-.076.163c-.011.033 0 .066.032.087.273.23.677.459 1.07.579a6 6 0 0 1 1.09-.208c.579-.043 5.576-.098 6.34-.087.327 0 .97.022 1.265.055a.5.5 0 0 0 .229-.404c0-.098-.066-.153-.142-.185-.25-.088-.829-.153-1.222-.164zM7.441-5.848v1.92l-4.135.044.01-1.92z"/><path id="r" d="M1.342-4.56c.033.021.065.021.109 0 1.517-.546 2.815-1.353 3.731-2.302l3.579 1.81c.098.055.229.099.305.099.12-.011.273-.142.273-.284 0-.065-.044-.163-.164-.273a8 8 0 0 0-.774-.567l-.742-.12L5.52-7.244c.219-.262.415-.546.568-.83a.5.5 0 0 0 .065-.25.23.23 0 0 0-.142-.23c-.229-.13-.785-.283-1.178-.338-.076-.01-.12 0-.153.044l-.13.218c.24.12.469.317.578.47-.655 1.21-2.073 2.476-3.873 3.37-.044.022-.055.066-.033.099zm7.211.96c-.763.043-6.316.12-6.982.109a9.5 9.5 0 0 1-1.211-.12l-.076.153q-.016.065.032.098c.273.229.677.447 1.07.578a6 6 0 0 1 1.09-.207c.24-.022 1.277-.044 2.444-.055v2.16c0 .502.022 1.495.055 1.986h.458c.153-.59.262-1.658.262-2.237v-1.92c1.375-.022 2.75-.022 3.12-.022.328 0 .971.022 1.266.055a.5.5 0 0 0 .229-.404.19.19 0 0 0-.142-.185c-.25-.087-.829-.153-1.222-.164z"/><path id="q" d="M2.171-7.953a.1.1 0 0 0 .011.098c.185.25.458.48.687.61.066.044.11.044.219.044a23 23 0 0 1 1.8-.065c.065 0 .13-.011.152-.066.066-.076.088-.305.044-.414-.022-.076-.065-.098-.164-.098-.752-.011-1.723-.033-2.673-.208zm3.633 5.15-1.167-.961c.61-.655 1.113-1.342 1.429-2.007l.218-.317c.033-.054.022-.109-.01-.142a3.5 3.5 0 0 0-.503-.218c-.065-.033-.141-.033-.185 0l-.36.164c-.502.033-2.717.076-3.142.065a7 7 0 0 1-.96-.065l-.066.12c-.01.043-.01.076.033.109.23.185.546.36.851.47.207-.077.633-.154.851-.165.305-.032 1.68-.065 2.302-.054-.796 1.56-2.335 3.23-4.31 4.517-.043.021-.032.065 0 .098l.11.109c.021.01.054.01.098-.011a13.1 13.1 0 0 0 3.273-2.291L6.262-1.55c.077.076.175.163.24.185.131.044.328-.032.371-.163.033-.066.011-.164-.054-.306a6 6 0 0 0-.513-.796zM7.102-8.99c.393.131.742.327.939.557V-.83c0 .48.021 1.55.054 2.007h.458c.153-.622.262-1.647.262-2.28v-7.124l.022-.578c0-.11-.033-.186-.13-.219-.317-.13-.994-.272-1.397-.283-.088 0-.11.022-.12.054z"/><path id="n" d="M5.368-7.332c-.448.033-3.077.088-3.502.077-.251 0-.677-.022-.982-.087l-.077.13c-.01.033 0 .066.033.11.23.174.567.381.873.49.196-.076.589-.152.796-.163.371-.033 2.717-.076 3.099-.076.25 0 .774.01.982.043a.48.48 0 0 0 .218-.404.15.15 0 0 0-.11-.141c-.207-.066-.665-.131-.97-.142zM7.102-8.99c.382.131.731.327.928.557v5.345c-.611.12-1.473.24-2.379.339l.099-2.782.032-.426c0-.087-.022-.142-.109-.164-.262-.087-.774-.141-1.102-.152-.076 0-.109.022-.12.054l-.065.23c.25.076.49.229.61.36v2.956c-.61.055-1.221.11-1.767.153l-.12-2.586.011-.425c0-.077-.022-.131-.109-.164-.24-.12-.73-.23-1.058-.273-.076 0-.098.022-.12.055l-.087.229c.261.12.49.294.61.458l.208 2.739a7.3 7.3 0 0 1-1.877-.066l-.054.131c-.022.044-.011.076.033.12.294.23.709.48 1.09.633.197-.077.644-.175.851-.186 1.408-.098 4.124-.48 5.423-.807v1.833c0 .48.022 1.55.065 2.007h.448c.163-.622.261-1.647.261-2.28v-7.124l.033-.578c0-.11-.044-.186-.13-.219-.317-.13-1.005-.272-1.397-.283-.088 0-.12.022-.131.054z"/><path id="u" d="M3.513-.556c-.01-.655-.022-1.299-.022-1.942v-3.47l.044-1.69-.164-.132-2.356.611v.393l1.636-.185v4.473c0 .643-.01 1.287-.022 1.942L.906-.35V0h4.309v-.35z"/><path id="j" d="M1.298-.818c.6-.59 1.157-1.146 1.462-1.473 1.746-1.746 2.27-2.531 2.27-3.535 0-1.2-.688-2.018-2.16-2.018-1.135 0-2.15.578-2.335 1.723.12.208.283.339.523.339.284 0 .448-.208.579-.677l.272-.84a2.6 2.6 0 0 1 .72-.098c.939 0 1.506.666 1.506 1.647 0 .917-.48 1.811-1.68 3.11-.524.556-1.2 1.287-1.877 1.985V0H5.39v-.818z"/><path id="i" d="M2.03-7.31c.261-.065.49-.087.708-.087.96 0 1.506.535 1.506 1.44 0 1.07-.698 1.68-1.79 1.68h-.468v.47h.556c1.287 0 1.92.654 1.92 1.756 0 1.09-.633 1.767-1.844 1.767a2.6 2.6 0 0 1-.785-.12l-.207-.676c-.142-.48-.262-.698-.59-.698-.229 0-.403.12-.512.338C.764-.327 1.626.153 2.749.153c1.539 0 2.597-.939 2.597-2.237 0-1.014-.622-1.745-1.877-1.964 1.037-.327 1.626-1.036 1.626-1.93 0-1.103-.851-1.866-2.193-1.866-1.036 0-1.942.469-2.182 1.473.098.283.284.381.513.381.349 0 .48-.196.589-.643z"/><path id="g" d="M.906-3.011 3.6-6.753v3.742zm4.8 0H4.419V-7.78H3.85L.316-2.902v.502H3.6V0h.819v-2.4h1.287z"/><path id="c" d="m8.957-4.953-.6.033v-3.132l.055-.665c0-.142-.044-.24-.164-.295-.393-.163-1.233-.327-1.746-.349-.109 0-.141.033-.163.077l-.131.381c.393.153.73.393.894.644v4.8c-1.33.339-3.13.546-4.287.568-.153 0-.218-.066-.218-.218v-3.24l.021-.579q0-.23-.196-.262c-.35-.076-1.156-.142-1.626-.142-.087 0-.141.044-.152.099l-.077.338c.284.098.59.262.764.414v3.317c0 .24.033.458.065.59.153.457.513.752 1.037.752.12 0 .284 0 .436-.022 1.157-.109 2.87-.447 4.233-.894v1.527c0 .513.055 2.007.131 2.411h.71c.261-.742.414-2.084.414-2.804v-2.542l1.713-.043c.109 0 .25-.033.316-.11.088-.098.153-.327.131-.578a.29.29 0 0 0-.229-.25c-.196-.044-.665-.066-.982-.055z"/><path id="l" d="M6.862-8.903c.393.153.731.393.895.644v5.139c-1.364.37-3.338.589-4.593.6-.153 0-.218-.077-.218-.218V-4.43l3.098-.099c.077-.087.142-.283.142-.469 0-.065-.033-.12-.087-.142l-.24-.13c.12-.371.262-1.179.283-1.637l.153-.447c.022-.066.011-.131-.044-.164a6 6 0 0 0-.643-.316.28.28 0 0 0-.23 0l-.458.196c-.458.022-2.203.055-2.618.044-.273 0-.764-.022-1.07-.088l-.097.164c-.011.055-.011.098.032.142.262.24.59.48.939.665.272-.076.665-.152.894-.163.251-.022 1.266-.033 1.757-.033.022.295.022 1.342-.011 1.636l-.197.044c-.261.033-1.167.066-1.581.066-.371-.044-1.342-.066-1.746-.066-.076 0-.12.033-.131.076l-.065.306c.261.076.501.207.654.36v1.658c0 .24.022.459.066.579.141.458.49.741 1.003.741.11 0 .273-.01.426-.021 1.276-.11 3.142-.448 4.582-.917v1.233c0 .513.055 2.007.13 2.411h.71c.262-.742.415-2.084.415-2.804v-6.448l.043-.665c.011-.142-.032-.24-.152-.295-.393-.163-1.233-.327-1.746-.349-.11 0-.142.033-.164.077z"/><path id="b" d="M8.324-1.32a54 54 0 0 1-2.389.065v-2.018c.971-.01 1.931-.01 2.488-.01.065-.066.13-.295.13-.503 0-.065-.032-.12-.087-.13l-.294-.11c.076-.25.152-.709.152-1.069l.033-2.411.022-.524c0-.12-.044-.185-.142-.229-.316-.142-1.146-.305-1.56-.327-.098-.011-.142.022-.153.065l-.142.36c.284.11.568.295.71.47v1.309l-3.448.032.01-.752.012-.579c0-.141-.055-.207-.164-.24-.305-.087-1.167-.174-1.56-.163-.12 0-.153.032-.164.065l-.098.35c.262.097.578.294.687.447l.055 3.589c0 .218.044.556.142.785h.709a.85.85 0 0 0 .262-.392c.316-.011.72-.022 1.156-.022v2.03c-1.353.021-2.618.021-2.956.021-.404-.01-.971-.055-1.397-.12l-.098.185c-.022.044-.01.11.033.153.305.284.785.611 1.222.775.294-.087.949-.207 1.243-.23.644-.032 5.16-.087 5.914-.087.349 0 1.102.022 1.385.055.142-.065.327-.316.327-.59a.246.246 0 0 0-.185-.24c-.273-.108-.927-.196-1.386-.217zM7.092-5.608v1.55l-3.47.032.022-1.538z"/><path id="e" d="M1.31-4.495c.032.022.086.033.152.011 1.516-.47 2.847-1.222 3.808-2.127l3.338 1.603c.12.066.284.11.393.098.196-.021.414-.229.425-.447 0-.098-.065-.218-.196-.349a6.3 6.3 0 0 0-.797-.6l-.818-.055-1.81-.84c.185-.218.337-.447.468-.676a.7.7 0 0 0 .088-.305c0-.12-.066-.219-.197-.273-.294-.164-1.058-.371-1.538-.426-.098-.01-.153.011-.186.066l-.174.305c.218.12.425.317.513.47-.611 1.189-1.877 2.323-3.59 3.218-.054.022-.065.087-.033.12zm7.014.797c-.774.065-5.87.12-6.59.109-.403 0-.97-.044-1.396-.12l-.098.185a.135.135 0 0 0 .033.153c.305.294.785.61 1.222.774.294-.087.949-.196 1.243-.218.24-.01 1.026-.033 1.953-.054v1.734c0 .513.077 1.779.131 2.237h.71c.228-.622.425-1.942.425-2.618V-2.88c1.2-.022 2.346-.022 2.695-.022s1.102.022 1.385.054c.142-.076.327-.327.327-.589a.25.25 0 0 0-.185-.25c-.273-.099-.927-.197-1.386-.219z"/><path id="d" d="M6.862-8.903c.393.153.731.393.895.644v7.048c0 .513.055 2.007.13 2.411h.71c.262-.742.415-2.084.415-2.804v-6.448l.043-.665c.011-.142-.032-.24-.152-.295-.393-.163-1.233-.327-1.746-.349-.11 0-.142.033-.164.077zM5.74-3.01l-.906-.818a9 9 0 0 0 1.298-1.822l.262-.382c.044-.077.033-.153-.032-.186a6 6 0 0 0-.731-.327.5.5 0 0 0-.251 0l-.459.196c-.512.033-2.313.055-2.749.055-.305 0-.742-.022-1.08-.076l-.087.163c-.022.055-.022.087.032.142.251.24.611.48.971.633.219-.077.633-.153.851-.164.251-.022 1.113-.043 1.702-.033C3.83-4.19 2.444-2.586.687-1.386c-.054.055-.043.11 0 .153l.186.175c.033.022.087.022.163-.011 1.2-.568 2.302-1.32 3.208-2.171l1.713 1.756c.098.098.218.208.316.24.186.077.47-.022.557-.218.043-.087.032-.218-.044-.425a7.5 7.5 0 0 0-.524-.928zM2.117-8.106a.16.16 0 0 0 .01.153c.186.305.491.643.731.807.077.065.153.065.295.065a22 22 0 0 1 1.724-.065c.087 0 .153-.011.207-.066.131-.13.153-.523.055-.687-.044-.087-.11-.109-.23-.109-.698 0-1.723-.044-2.694-.218z"/><path id="m" d="M5.728-5.826c-.033.044-.022.087.022.142.218.229.501.48.796.654.185-.065.49-.141.666-.163.12-.022.349-.033.578-.044v1.56c0 .557.054 1.844.142 2.27h.709c.262-.644.414-1.79.414-2.64v-4.026l.033-.644c.01-.142-.033-.24-.153-.295-.37-.163-1.2-.327-1.702-.349-.109 0-.152.033-.163.077l-.131.392c.37.142.698.382.85.622v2.335c-.381.022-.828.022-1.068.022-.295 0-.633-.022-.895-.055zm.654 1.942c-.01-.065-.054-.087-.141-.065-.83.163-2.39.305-3.339.316-.153 0-.218-.065-.218-.218v-1.124l2.346-.142c.087 0 .185-.022.229-.065.065-.066.141-.262.141-.502 0-.098-.076-.186-.196-.207-.207-.044-.622-.055-.916-.044l-.306.164c-.25.043-.894.076-1.298.087v-1.298l2.946-.11c.098 0 .152-.021.207-.076.076-.076.153-.294.153-.567 0-.11-.055-.186-.175-.207-.24-.055-.72-.077-1.026-.077l-.316.207a38 38 0 0 1-1.778.099c-.36-.077-1.331-.131-1.746-.131-.076 0-.109.032-.13.076l-.077.338c.284.098.534.251.676.426v3.065c0 .306.022.579.055.633.207.513.447.644 1.102.644.142 0 .305 0 .469-.011.927-.054 2.411-.37 3.317-.753.076-.032.098-.087.098-.142zM7.942.087C7.3.11 5.74.131 5.073.12c-.185 0-.262-.087-.262-.284v-.927l.011-.578c0-.153-.065-.23-.196-.262-.35-.076-1.168-.142-1.626-.142-.098 0-.152.044-.163.098l-.077.328c.295.098.59.25.764.403V-.12c0 .655.316.982 1.135.982L9.36.829c.087 0 .163-.022.207-.065.076-.077.175-.295.175-.6q0-.18-.197-.23A6 6 0 0 0 8.39-.152z"/><path id="a" d="M5.302-7.43c-.447.044-2.87.098-3.295.088-.272 0-.752-.033-1.101-.088l-.088.153c-.01.044-.01.087.033.131.23.25.59.524.927.687a5.6 5.6 0 0 1 .851-.152C3-6.633 5.193-6.7 5.564-6.688c.262 0 .83 0 1.026.033.109-.076.25-.316.25-.578a.2.2 0 0 0-.13-.197c-.208-.076-.688-.142-1.026-.163zm1.571-1.473c.382.153.72.393.884.644v5.106c-.48.098-1.167.196-1.92.273l.087-2.422.033-.535c.01-.109-.022-.196-.131-.218-.295-.087-.982-.164-1.364-.164-.12 0-.153.022-.163.066l-.088.327c.208.076.448.24.546.371l.022 2.684c-.437.043-.884.076-1.299.098l-.087-2.171.022-.502c0-.109-.033-.174-.131-.218-.284-.131-.906-.273-1.298-.306-.099-.01-.142.011-.164.066l-.131.327c.24.11.447.306.546.47l.174 2.389-.327.01a8.6 8.6 0 0 1-1.408-.087l-.087.186c-.022.065-.01.098.033.142a5.2 5.2 0 0 0 1.244.85c.24-.087.72-.196.97-.218 1.31-.087 3.645-.414 4.921-.72v1.244c0 .513.055 2.007.13 2.411h.71c.262-.742.426-2.084.426-2.804v-6.448l.043-.665q.017-.213-.163-.295c-.382-.163-1.233-.327-1.746-.349-.11 0-.142.033-.153.077z"/></defs><g transform="translate(36 75.503)scale(1.00008)"><use xlink:href="#a" x="-20.678706" y="-50.828193"/><use xlink:href="#b" x="-10.139645" y="-50.828193"/><use xlink:href="#c" x=".399415" y="-50.828193"/><use xlink:href="#d" x="10.938475" y="-50.828193"/><use xlink:href="#e" x="24.215946" y="-50.828193"/><use xlink:href="#f" x="37.570099" y="-50.828193"/><use xlink:href="#g" x="41.508613" y="-50.828193"/><use xlink:href="#h" x="47.389103" y="-50.828193"/></g><g transform="translate(184.82 75.503)scale(1.00008)"><use xlink:href="#a" x="-20.678706" y="-50.828193"/><use xlink:href="#b" x="-10.139645" y="-50.828193"/><use xlink:href="#c" x=".399415" y="-50.828193"/><use xlink:href="#d" x="10.938475" y="-50.828193"/><use xlink:href="#e" x="24.215946" y="-50.828193"/><use xlink:href="#f" x="37.570099" y="-50.828193"/><use xlink:href="#i" x="41.508613" y="-50.828193"/><use xlink:href="#h" x="47.389103" y="-50.828193"/></g><g transform="translate(333.641 75.503)scale(1.00008)"><use xlink:href="#a" x="-20.678706" y="-50.828193"/><use xlink:href="#b" x="-10.139645" y="-50.828193"/><use xlink:href="#c" x=".399415" y="-50.828193"/><use xlink:href="#d" x="10.938475" y="-50.828193"/><use xlink:href="#e" x="24.215946" y="-50.828193"/><use xlink:href="#f" x="37.570099" y="-50.828193"/><use xlink:href="#j" x="41.508613" y="-50.828193"/><use xlink:href="#h" x="47.389103" y="-50.828193"/></g><g transform="translate(43.653 98.082)scale(1.00008)"><use xlink:href="#k" x="-10.756887" y="-58.798851"/><use xlink:href="#k" x="-10.756887" y="-54.813522"/><use xlink:href="#k" x="-10.756887" y="-50.828192"/><use xlink:href="#l" x="-20.678705" y="-33.546767"/><use xlink:href="#m" x="-10.139643" y="-33.546767"/><use xlink:href="#n" x="4.384365" y="-33.546767"/><use xlink:href="#o" x="14.923425" y="-33.546767"/><use xlink:href="#p" x="25.462485" y="-33.546767"/><use xlink:href="#q" x="36.001545" y="-33.546767"/><use xlink:href="#r" x="50.522758" y="-33.546767"/><use xlink:href="#f" x="61.061816" y="-33.546767"/><use xlink:href="#i" x="65.00033" y="-33.546767"/><use xlink:href="#h" x="70.880817" y="-33.546767"/><use xlink:href="#s" x="77.246381" y="-33.546767"/><use xlink:href="#t" x="89.974422" y="-33.546767"/><use xlink:href="#t" x="94.80756" y="-33.546767"/><use xlink:href="#t" x="99.651601" y="-33.546767"/></g><g transform="translate(192.474 98.082)scale(1.00008)"><use xlink:href="#k" x="-10.756887" y="-58.798851"/><use xlink:href="#k" x="-10.756887" y="-54.813522"/><use xlink:href="#k" x="-10.756887" y="-50.828192"/><use xlink:href="#l" x="-20.678705" y="-33.546767"/><use xlink:href="#m" x="-10.139643" y="-33.546767"/><use xlink:href="#n" x="4.384365" y="-33.546767"/><use xlink:href="#o" x="14.923425" y="-33.546767"/><use xlink:href="#p" x="25.462485" y="-33.546767"/><use xlink:href="#q" x="36.001545" y="-33.546767"/><use xlink:href="#r" x="50.522758" y="-33.546767"/><use xlink:href="#f" x="61.061816" y="-33.546767"/><use xlink:href="#j" x="65.00033" y="-33.546767"/><use xlink:href="#h" x="70.880817" y="-33.546767"/><use xlink:href="#s" x="77.246381" y="-33.546767"/><use xlink:href="#t" x="89.974422" y="-33.546767"/><use xlink:href="#t" x="94.80756" y="-33.546767"/><use xlink:href="#t" x="99.651601" y="-33.546767"/></g><g transform="translate(341.295 98.655)scale(1.00008)"><use xlink:href="#k" x="-10.756887" y="-58.798851"/><use xlink:href="#k" x="-10.756887" y="-54.813522"/><use xlink:href="#k" x="-10.756887" y="-50.828192"/><use xlink:href="#l" x="-20.678705" y="-33.546767"/><use xlink:href="#m" x="-10.139643" y="-33.546767"/><use xlink:href="#u" x="4.384365" y="-33.546767"/></g><path fill="none" stroke="#000" stroke-miterlimit="10" stroke-width=".3985" d="M115.744 49.519c8.504-14.73 21.538-28.347 40.546-28.347"/><path d="m159.392 21.172-4.468-1.682 1.466 1.682-1.466 1.682Z"/><path fill="none" stroke="#000" stroke-miterlimit="10" stroke-width=".3985" d="m159.392 21.172-4.468-1.682 1.466 1.682-1.466 1.682ZM264.565 49.519c8.504-14.73 21.538-28.347 40.546-28.347"/><path d="m308.213 21.172-4.468-1.682 1.466 1.682-1.466 1.682Z"/><path fill="none" stroke="#000" stroke-miterlimit="10" stroke-width=".3985" d="m308.213 21.172-4.468-1.682 1.466 1.682-1.466 1.682ZM331.957 70.495c-12.757 22.094-53.86 22.667-64.781 3.75"/><path d="m265.625 71.56.777 4.71.724-2.11 2.19.428Z"/><path fill="none" stroke="#000" stroke-miterlimit="10" stroke-width=".398491" d="m265.625 71.56.777 4.71.724-2.11 2.19.428Z"/><path fill="none" stroke="#000" stroke-miterlimit="10" stroke-width=".3985" d="M181.718 71.068c-12.756 22.094-52.441 22.094-63.363 3.177"/><path d="m116.804 71.56.778 4.71.723-2.11 2.19.428Z"/><path fill="none" stroke="#000" stroke-miterlimit="10" stroke-width=".398491" d="m116.804 71.56.778 4.71.723-2.11 2.19.428Z"/></svg>