<svg xmlns="http://www.w3.org/2000/svg" xmlns:xlink="http://www.w3.org/1999/xlink" width="261.19pt" height="118.32pt" viewBox="0 0 261.19 118.32"><defs><path id="d" d="M2.2-.574a.584.584 0 0 0-.573-.586.584.584 0 0 0-.586.574c0 .347.287.586.574.586A.584.584 0 0 0 2.2-.574"/><path id="e" d="M6.088-.347c0-.347-.311-.347-.479-.347-.31 0-.55-.024-.717-.095v-2.608c0-.909-.682-1.865-2.297-1.865-.502 0-1.662 0-1.662.825 0 .323.227.502.49.502.072 0 .467-.024.479-.526 0-.06.012-.072.263-.096.143-.012.299-.012.442-.012.275 0 .682 0 1.077.3.43.334.43.669.43 1.016-.705.024-1.4.072-2.14.31C1.374-2.738.61-2.307.61-1.494c0 .85.753 1.567 1.866 1.567.382 0 1.124-.06 1.746-.49.24.394.837.418 1.292.418.287 0 .574 0 .574-.347M4.114-1.579c0 .275 0 .527-.49.754-.419.203-.98.203-1.017.203-.705 0-1.22-.383-1.22-.873 0-.706 1.28-1.112 2.727-1.112z"/><path id="k" d="M5.346-2.547c0-.144-.084-.252-.191-.323-.3-.18-.957-.527-1.447-.778L5.095-4.4c.143-.072.251-.18.251-.36 0-.226-.203-.37-.37-.37-.084 0-.18.06-.252.096l-1.327.825.036-1.662c0-.204-.168-.36-.36-.36s-.358.144-.358.36c0 .346.012.454.012.454L2.75-4.21l-1.328-.825c-.072-.036-.167-.096-.25-.096-.168 0-.372.144-.372.37 0 .18.108.288.251.36l1.388.741-1.388.754c-.143.071-.25.18-.25.359 0 .227.203.37.37.37.084 0 .18-.06.251-.095l1.328-.826-.012.766c-.024.203-.024.67-.024.897a.36.36 0 0 0 .718 0l-.036-1.663 1.184.73c.287.191.31.191.394.191.168 0 .371-.143.371-.37"/><path id="h" d="M5.669.646c0-.347-.31-.347-.478-.347H3.409v-7.906H5.19c.167 0 .478 0 .478-.346s-.31-.347-.478-.347H3.11c-.395 0-.479.107-.479.49V.502c0 .371.072.49.479.49h2.08c.168 0 .479 0 .479-.346"/><path id="i" d="M3.516.502V-7.81c0-.37-.072-.49-.478-.49H.957c-.168 0-.479 0-.479.347s.311.346.479.346h1.782V.3H.957c-.168 0-.479 0-.479.347S.79.993.957.993h2.08c.396 0 .48-.108.48-.49"/><path id="g" d="M5.705-4.557c0-.394-.395-.394-.574-.394H1.017c-.18 0-.574 0-.574.394 0 .383.37.383.514.383H5.19c.155 0 .514 0 .514-.383m0 1.806c0-.383-.37-.383-.514-.383H.957c-.156 0-.514 0-.514.383 0 .395.394.395.574.395H5.13c.18 0 .574 0 .574-.395"/><path id="c" d="M5.8-2.356c0-.347-.31-.347-.478-.347h-.897v-4.282c0-.394-.084-.49-.49-.49H3.66c-.287 0-.347.012-.49.24L.453-2.87c-.107.155-.107.179-.107.394 0 .419.155.467.478.467h2.93v1.315h-.717c-.168 0-.479 0-.479.347S2.87 0 3.038 0h2.105c.167 0 .478 0 .478-.347s-.31-.347-.478-.347h-.718v-1.315h.897c.168 0 .479 0 .479-.347m-2.045-.347H1.148l2.607-4.186z"/><path id="a" d="M5.179-.347c0-.347-.323-.347-.49-.347H3.635V-6.96c0-.18 0-.49-.347-.49-.203 0-.275.108-.347.263-.227.514-.622 1.148-1.256 1.196-.179.012-.43.036-.43.347 0 .203.12.347.383.347.67 0 1.184-.503 1.22-.527v5.131H1.805c-.167 0-.49 0-.49.347s.323.347.49.347h2.882c.168 0 .49 0 .49-.347"/><path id="j" d="M5.705-3.648c0-.394-.37-.394-.538-.394H3.468v-1.71c0-.156 0-.539-.382-.539-.395 0-.395.37-.395.538v1.71H.981c-.156 0-.538 0-.538.383 0 .395.37.395.538.395h1.71v1.71c0 .156 0 .538.383.538.394 0 .394-.37.394-.538v-1.71h1.699c.155 0 .538 0 .538-.383"/><path id="f" d="M5.717-4.52c0-.515-.502-.707-1.1-.707-.802 0-1.483.36-2.034 1.029v-.466c0-.371-.071-.49-.478-.49H.897c-.167 0-.478 0-.478.346s.31.347.478.347h.909v3.767H.897c-.167 0-.478 0-.478.347S.729 0 .897 0h2.942c.168 0 .479 0 .479-.347s-.311-.347-.479-.347H2.583V-2.26c0-1.424 1.005-2.273 2.022-2.273.06 0 .131 0 .191.012.036.43.37.467.454.467a.45.45 0 0 0 .467-.467"/><path id="b" d="M5.55-3.648c0-2.224-1.185-3.803-2.476-3.803C1.77-7.451.598-5.848.598-3.66.598-1.435 1.782.144 3.074.144c1.303 0 2.475-1.603 2.475-3.792m-.778-.131c0 1.77-.753 3.229-1.698 3.229S1.375-1.997 1.375-3.78s.826-2.977 1.699-2.977S4.772-5.561 4.772-3.78"/></defs><g fill="none" stroke="#000" stroke-miterlimit="10" stroke-width=".3985"><path d="M11.538 30.472h119.057M170.28 30.472h79.371M11.538 58.819h119.057M170.28 58.819h79.371M31.38 30.472v28.347M71.066 30.472v28.347M110.752 30.472v28.347M190.123 30.472v28.347M229.808 30.472v28.347"/></g><g transform="translate(102.45 64.317)scale(1.0004)"><use xlink:href="#a" x="-60.486275" y="-41.547675"/><use xlink:href="#b" x="-54.326877" y="-41.547675"/><use xlink:href="#b" x="-48.167476" y="-41.547675"/></g><g transform="translate(142.136 64.329)scale(1.0004)"><use xlink:href="#a" x="-60.486275" y="-41.547675"/><use xlink:href="#b" x="-54.326877" y="-41.547675"/><use xlink:href="#c" x="-48.167476" y="-41.547675"/></g><g transform="translate(261.192 64.329)scale(1.0004)"><use xlink:href="#a" x="-60.486275" y="-41.547675"/><use xlink:href="#c" x="-54.326877" y="-41.547675"/><use xlink:href="#b" x="-48.167476" y="-41.547675"/></g><g transform="translate(204.029 86.758)scale(1.0004)"><use xlink:href="#d" x="-60.486275" y="-41.547675"/><use xlink:href="#d" x="-55.259758" y="-41.547675"/><use xlink:href="#d" x="-50.021275" y="-41.547675"/></g><g transform="translate(80.504 113.974)scale(1.0004)"><use xlink:href="#e" x="-38.531464" y="-41.547675"/><use xlink:href="#f" x="-32.372062" y="-41.547675"/><use xlink:href="#f" x="-26.21266" y="-41.547675"/></g><use xlink:href="#g" x="-26.816763" y="-27.095875" transform="rotate(-90 70.432 -10.35)scale(1.0004)"/><g transform="translate(80.504 113.974)scale(1.0004)"><use xlink:href="#a" x="-38.531464" y="-12.644075"/><use xlink:href="#b" x="-32.372062" y="-12.644075"/><use xlink:href="#b" x="-26.21266" y="-12.644075"/></g><g transform="translate(239.246 115.493)scale(1.0004)"><use xlink:href="#e" x="-50.850408" y="-41.547675"/><use xlink:href="#f" x="-44.69101" y="-41.547675"/><use xlink:href="#f" x="-38.531609" y="-41.547675"/><use xlink:href="#h" x="-32.372208" y="-41.547675"/><use xlink:href="#a" x="-26.212806" y="-41.547675"/><use xlink:href="#b" x="-20.053405" y="-41.547675"/><use xlink:href="#i" x="-13.894004" y="-41.547675"/></g><use xlink:href="#g" x="-26.816763" y="-27.095875" transform="rotate(-90 150.563 -88.961)scale(1.0004)"/><g transform="translate(239.246 115.493)scale(1.0004)"><use xlink:href="#a" x="-57.916244" y="-12.644075"/><use xlink:href="#b" x="-51.756846" y="-12.644075"/><use xlink:href="#b" x="-45.597445" y="-12.644075"/><use xlink:href="#j" x="-35.45536" y="-12.644075"/><use xlink:href="#c" x="-25.313281" y="-12.644075"/><use xlink:href="#k" x="-19.15388" y="-12.644075"/><use xlink:href="#a" x="-12.994479" y="-12.644075"/><use xlink:href="#b" x="-6.835078" y="-12.644075"/></g></svg>