<svg xmlns="http://www.w3.org/2000/svg" xmlns:xlink="http://www.w3.org/1999/xlink" width="494.405" height="180.854" viewBox="-72 -72 370.804 135.64"><defs><path id="C" d="M5.258-1.822c0-.753-.523-1.462-1.407-1.669.698-.24 1.178-.807 1.178-1.484 0-.796-.665-1.69-1.876-1.69H.687c-.152 0-.436 0-.436.327C.25-6 .524-6 .698-6h.295v5.335H.698c-.174 0-.447 0-.447.338C.25 0 .535 0 .687 0h2.684a1.83 1.83 0 0 0 1.887-1.822m-.982-3.142c0 .448-.349 1.168-1.407 1.168H1.745V-6H3.11c.927 0 1.167.676 1.167 1.036m.23 3.12c0 .535-.426 1.179-1.375 1.179H1.745v-2.466h1.506c.927 0 1.254.796 1.254 1.287"/><path id="A" d="M5.28-1.833c0-.36-.262-.36-.382-.36-.098 0-.349 0-.37.317-.077 1.069-.96 1.33-1.408 1.33-.993 0-1.93-1.156-1.93-2.792 0-1.626.948-2.782 1.92-2.782.654 0 1.254.502 1.406 1.385.033.186.055.36.382.36.382 0 .382-.229.382-.447v-1.516c0-.175 0-.447-.327-.447-.197 0-.251.109-.306.185-.022.044-.022.065-.163.338a2.2 2.2 0 0 0-1.419-.523C1.658-6.785.436-5.324.436-3.338.436-1.342 1.658.12 3.076.12 4.342.12 5.28-.85 5.28-1.833"/><path id="B" d="M5.476-.447v-.971c0-.207 0-.447-.37-.447-.382 0-.382.229-.382.447v.753H1.81V-3.12H3.24c0 .447 0 .622.382.622.37 0 .37-.24.37-.447V-3.96c0-.207 0-.447-.37-.447-.382 0-.382.174-.382.622H1.81V-6h2.674v.578c0 .207 0 .447.37.447.382 0 .382-.229.382-.447v-.796c0-.338-.065-.447-.436-.447H.73c-.163 0-.446 0-.446.327C.284-6 .567-6 .73-6h.327v5.335H.731c-.175 0-.447 0-.447.338C.284 0 .567 0 .73 0H5.04c.36 0 .436-.098.436-.447"/><path id="D" d="M4.822-.327c0-.338-.262-.338-.437-.338h-.992v-5.673c0-.175 0-.447-.328-.447-.207 0-.272.13-.327.261-.414.928-.982 1.048-1.189 1.07-.174.01-.404.032-.404.338 0 .272.197.327.36.327.208 0 .655-.066 1.135-.48v4.604h-.993c-.174 0-.436 0-.436.338 0 .327.273.327.436.327h2.738c.164 0 .437 0 .437-.327"/><path id="F" d="M5.236-1.898c0-.775-.512-1.418-1.232-1.746.61-.392.916-1.014.916-1.603 0-.808-.796-1.538-2.05-1.538-1.31 0-2.074.523-2.074 1.276a.486.486 0 1 0 .971.022.45.45 0 0 0-.098-.295c.338-.338 1.113-.338 1.211-.338.742 0 1.287.393 1.287.884 0 .327-.163.709-.458.949-.349.283-.622.305-1.014.327-.622.044-.786.044-.786.36 0 .338.262.338.436.338h.502c1.08 0 1.637.731 1.637 1.364 0 .665-.611 1.353-1.604 1.353-.436 0-1.276-.12-1.56-.633.055-.055.13-.12.13-.338a.477.477 0 0 0-.48-.48c-.25 0-.49.163-.49.512C.48-.513 1.538.12 2.88.12c1.43 0 2.356-1.004 2.356-2.018"/><path id="E" d="M5.15-.447v-.284c0-.207 0-.447-.372-.447-.382 0-.382.207-.382.513H1.8c.644-.557 1.69-1.375 2.16-1.811.687-.611 1.19-1.31 1.19-2.182 0-1.31-1.103-2.127-2.434-2.127-1.287 0-2.149.894-2.149 1.821a.486.486 0 1 0 .971.033.45.45 0 0 0-.153-.349c.164-.502.677-.84 1.277-.84.894 0 1.734.502 1.734 1.462 0 .763-.534 1.396-1.254 1.996L.73-.632c-.098.087-.164.141-.164.294C.567 0 .84 0 1.015 0h3.698c.36 0 .436-.098.436-.447"/><path id="v" d="M7.102-1.996c0-.95-.895-1.768-2.106-1.899 1.059-.207 1.811-.905 1.811-1.712 0-.95-1.003-1.844-2.422-1.844H.393v.338h.262c.84 0 .861.12.861.513v5.75c0 .392-.021.512-.861.512H.393V0h4.276C6.12 0 7.102-.97 7.102-1.996M5.749-5.607c0 .698-.534 1.614-1.745 1.614H2.422v-2.683c0-.36.022-.437.534-.437H4.31c1.058 0 1.44.928 1.44 1.506m.262 3.6c0 .774-.567 1.669-1.691 1.669H2.956c-.512 0-.534-.077-.534-.437v-2.978h2.05c1.08 0 1.539 1.015 1.539 1.746"/><path id="w" d="M4.57 0v-.338h-.348c-.982 0-1.015-.12-1.015-.524v-6.12c0-.262 0-.283-.25-.283-.677.698-1.637.698-1.986.698v.338c.218 0 .862 0 1.429-.284v5.651c0 .393-.033.524-1.015.524h-.349V0c.382-.033 1.331-.033 1.768-.033s1.385 0 1.767.033"/><path id="l" d="M2.095-.578c0-.317-.262-.578-.579-.578s-.578.261-.578.578S1.2 0 1.516 0s.579-.262.579-.578"/><path id="s" d="M7.865-2.727c0-.218-.207-.218-.36-.218H4.462V-6c0-.153 0-.36-.218-.36s-.219.207-.219.36v3.055H.971c-.153 0-.36 0-.36.218s.207.218.36.218h3.054V.545c0 .153 0 .36.219.36s.218-.207.218-.36v-3.054h3.043c.153 0 .36 0 .36-.218"/><path id="u" d="M4.985-1.865c0-.895-.687-1.746-1.821-1.975.894-.295 1.527-1.058 1.527-1.92 0-.895-.96-1.505-2.007-1.505-1.102 0-1.931.654-1.931 1.483 0 .36.24.567.556.567.338 0 .556-.24.556-.556 0-.545-.512-.545-.676-.545.338-.535 1.058-.677 1.451-.677.447 0 1.047.24 1.047 1.222 0 .131-.022.764-.305 1.244-.327.523-.698.556-.971.567-.087.01-.35.033-.426.033-.087.01-.163.022-.163.13 0 .12.076.12.262.12h.48c.894 0 1.298.742 1.298 1.812 0 1.483-.753 1.8-1.233 1.8-.469 0-1.287-.186-1.669-.83.382.055.72-.185.72-.6 0-.392-.295-.61-.61-.61-.263 0-.612.152-.612.632C.458-.48 1.473.24 2.662.24c1.33 0 2.323-.993 2.323-2.105"/><path id="x" d="M4.898-1.898h-.273c-.054.327-.13.807-.24.97C4.31-.84 3.59-.84 3.35-.84H1.385l1.157-1.124c1.702-1.505 2.356-2.094 2.356-3.185 0-1.244-.982-2.116-2.313-2.116a2.016 2.016 0 0 0-2.04 1.974c0 .611.546.611.579.611.185 0 .567-.13.567-.578a.55.55 0 0 0-.578-.567c-.088 0-.11 0-.142.01.25-.709.84-1.112 1.473-1.112.992 0 1.461.883 1.461 1.778 0 .873-.545 1.734-1.145 2.41L.665-.403c-.12.12-.12.142-.12.404h4.048z"/><path id="r" d="M7.81-7.113v-.338l-1.286.033-1.299-.033v.338c1.124 0 1.124.513 1.124.808v3.785c0 1.55-1.058 2.422-2.094 2.422-.513 0-1.8-.273-1.8-2.346V-6.6c0-.393.021-.513.861-.513h.262v-.338c-.382.033-1.189.033-1.603.033s-1.233 0-1.615-.033v.338h.262c.84 0 .862.12.862.513v4.113C1.484-.95 2.749.24 4.233.24c1.254 0 2.236-1.015 2.422-2.258.032-.218.032-.317.032-.753v-3.49c0-.36 0-.852 1.124-.852"/><path id="t" d="M5.018-3.49c0-.874-.054-1.746-.436-2.554C4.08-7.09 3.185-7.265 2.727-7.265c-.654 0-1.45.283-1.898 1.298C.48-5.215.425-4.364.425-3.491c0 .818.044 1.8.491 2.63A2 2 0 0 0 2.716.24c.59 0 1.419-.23 1.899-1.265.349-.753.403-1.604.403-2.466m-.905-.132c0 .818 0 1.56-.12 2.258C3.829-.327 3.207 0 2.716 0c-.425 0-1.069-.273-1.265-1.32-.12-.655-.12-1.658-.12-2.302 0-.698 0-1.418.087-2.007.207-1.298 1.026-1.396 1.298-1.396.36 0 1.08.196 1.288 1.276.109.61.109 1.44.109 2.127"/><path id="i" d="M5.204-2.575c0-1.712-1.015-2.247-1.822-2.247-1.495 0-2.935 1.56-2.935 3.098C.447-.709 1.102.12 2.215.12c.687 0 1.472-.25 2.301-.916.142.578.502.916.993.916.578 0 .916-.6.916-.775 0-.076-.065-.109-.13-.109-.077 0-.11.033-.142.11-.197.534-.59.534-.611.534-.338 0-.338-.85-.338-1.113 0-.229 0-.25.109-.382 1.025-1.287 1.254-2.552 1.254-2.563 0-.022-.01-.11-.13-.11-.11 0-.11.033-.164.23-.197.687-.557 1.516-1.07 2.16zM4.473-1.08c-.96.84-1.8.96-2.237.96-.654 0-.981-.49-.981-1.19 0-.534.283-1.712.632-2.268.513-.797 1.102-1.004 1.484-1.004 1.08 0 1.08 1.43 1.08 2.28 0 .404 0 1.037.022 1.222"/><path id="j" d="M6.273-6.207c0-.818-.6-1.495-1.484-1.495-.633 0-.938.175-1.32.458-.6.437-1.2 1.495-1.407 2.324L.327 2.007c-.01.044.044.11.131.11s.12-.022.131-.055L1.353-.95C1.56-.295 2.04.109 2.836.109s1.615-.382 2.106-.862c.523-.502.873-1.2.873-2.007 0-.785-.404-1.353-.797-1.625.633-.36 1.255-1.037 1.255-1.822m-1.964 1.81c-.142.055-.262.077-.524.077-.152 0-.37.01-.48-.044.022-.109.415-.087.535-.087.23 0 .327 0 .47.055m1.353-2.061c0 .763-.415 1.549-.982 1.887-.295-.109-.513-.13-.84-.13-.23 0-.84-.012-.84.348-.01.306.556.273.753.273.403 0 .567-.01.894-.142.415.393.47.731.48 1.233.022.633-.24 1.45-.545 1.876-.426.59-1.157.982-1.778.982-.83 0-1.244-.633-1.244-1.407 0-.11 0-.273.055-.48l.698-2.76c.24-.938 1.025-2.673 2.334-2.673.633 0 1.015.338 1.015.993"/><path id="k" d="M.447-2.77c.426-1.255 1.615-1.266 1.735-1.266 1.647 0 1.767 1.909 1.767 2.77 0 .666-.054.851-.13 1.07-.24.796-.568 2.061-.568 2.345 0 .12.054.196.142.196.142 0 .229-.24.349-.654.25-.916.36-1.538.403-1.876.022-.142.044-.284.088-.426.349-1.08 1.047-2.705 1.483-3.567.077-.131.208-.371.208-.415 0-.109-.11-.109-.131-.109-.033 0-.098 0-.131.077-.567 1.036-1.004 2.127-1.44 3.229-.011-.339-.022-1.168-.447-2.226-.262-.665-.699-1.2-1.451-1.2C.96-4.822.196-3.164.196-2.825c0 .109.099.109.208.109z"/><path id="c" d="M5.667-1.064v-.67h-.263v.67c0 .681-.287.777-.455.777-.454 0-.454-.634-.454-.813v-2.092c0-.646 0-1.124-.526-1.59-.418-.383-.956-.55-1.482-.55-.98 0-1.734.646-1.734 1.423 0 .346.227.514.502.514a.47.47 0 0 0 .49-.49c0-.49-.43-.49-.61-.49.276-.503.85-.718 1.328-.718.55 0 1.255.454 1.255 1.53v.479C1.315-3.05.406-2.044.406-1.124c0 .945 1.1 1.244 1.83 1.244A1.63 1.63 0 0 0 3.79-.933c.048.562.418.993.932.993.251 0 .945-.168.945-1.124m-1.949-.622c0 1.172-.873 1.566-1.387 1.566-.586 0-1.076-.43-1.076-1.004 0-1.578 2.033-1.721 2.463-1.745z"/><path id="a" d="M7.795-2.774c0-.131 0-.203-.132-.203-.12 0-.131.06-.131.144-.108 1.9-1.495 2.737-2.654 2.737-.837 0-3.12-.502-3.12-3.993 0-3.455 2.247-3.98 3.108-3.98 1.255 0 2.355 1.063 2.594 2.857.024.143.024.179.167.179.168 0 .168-.036.168-.275v-2.833c0-.216 0-.275-.12-.275-.072 0-.083.023-.155.143l-.586.944c-.538-.669-1.35-1.087-2.212-1.087C2.534-8.416.646-6.528.646-4.09c0 2.475 1.912 4.34 4.076 4.34 1.96 0 3.073-1.71 3.073-3.025"/><path id="e" d="M4.854-1.423c0-.107-.084-.107-.12-.107-.107 0-.12.036-.155.18-.263.848-.909 1.207-1.554 1.207-.73 0-1.698-.634-1.698-2.451 0-1.985 1.016-2.475 1.614-2.475.454 0 1.112.18 1.387.646-.144 0-.586 0-.586.49 0 .287.203.49.49.49.275 0 .502-.167.502-.514 0-.801-.837-1.375-1.805-1.375-1.399 0-2.51 1.243-2.51 2.75C.418-1.052 1.565.12 2.916.12c1.578 0 1.937-1.435 1.937-1.543"/><path id="n" d="M6.157 0v-.347c-.813 0-.909-.083-.909-.67v-7.28l-1.661.132v.346c.813 0 .908.084.908.67v2.642a1.86 1.86 0 0 0-1.494-.765C1.614-5.272.418-4.101.418-2.57.418-1.052 1.554.12 2.87.12c.909 0 1.435-.598 1.602-.825V.12zM4.47-1.399c0 .215 0 .251-.167.514-.287.419-.777.765-1.375.765-.31 0-1.602-.12-1.602-2.438 0-.861.143-1.34.406-1.734.24-.37.718-.741 1.316-.741.74 0 1.16.538 1.279.73.143.202.143.226.143.441z"/><path id="g" d="M4.866-1.423c0-.071-.06-.12-.132-.12-.095 0-.12.06-.143.12C4.28-.418 3.479-.143 2.977-.143s-1.71-.335-1.71-2.403v-.228H4.58c.263 0 .287 0 .287-.227 0-1.207-.646-2.331-2.092-2.331C1.41-5.332.359-4.101.359-2.618.359-1.04 1.579.12 2.905.12c1.423 0 1.96-1.292 1.96-1.543M4.125-3H1.279c.096-1.877 1.148-2.092 1.483-2.092 1.279 0 1.35 1.686 1.363 2.092"/><path id="K" d="M5.356-1.985c0-1.219-.86-1.757-1.793-2.33.597-.324 1.47-.874 1.47-1.878 0-1.04-1.004-1.757-2.104-1.757-1.184 0-2.116.873-2.116 1.96 0 .407.12.813.454 1.22.132.155.144.167.98.753C1.088-3.479.49-2.678.49-1.805.49-.538 1.698.25 2.917.25c1.327 0 2.439-.98 2.439-2.236M4.543-6.18c0 .73-.526 1.315-1.22 1.698l-1.386-.909c-.156-.107-.634-.418-.634-1.004 0-.777.813-1.267 1.614-1.267.86 0 1.626.621 1.626 1.482m.263 4.579c0 .909-.92 1.53-1.877 1.53-1.016 0-1.889-.741-1.889-1.733 0-.933.682-1.686 1.459-2.045l1.446.945c.311.203.861.574.861 1.303"/><path id="I" d="m7.137-5.475-.31-2.666H.49v.346h.24c.86 0 .896.12.896.562v6.324c0 .443-.036.562-.897.562H.49V0C.777-.024 1.841-.024 2.2-.024c.418 0 1.47 0 1.817.024v-.347h-.359c-1.04 0-1.064-.143-1.064-.574v-2.976h1.052c1.124 0 1.244.394 1.244 1.398h.263v-3.144H4.89c0 1.004-.12 1.399-1.244 1.399H2.594v-3.073c0-.394.024-.478.55-.478H4.64c1.721 0 2.068.634 2.235 2.32z"/><path id="b" d="M6.229 0v-.347c-.598 0-.897 0-.909-.358v-2.2c0-1.112 0-1.447-.275-1.83-.347-.465-.909-.537-1.315-.537-1.028 0-1.506.777-1.674 1.147h-.012v-4.172l-1.661.132v.346c.813 0 .908.084.908.67v6.264c0 .538-.131.538-.908.538V0c.31-.024.956-.024 1.29-.024.347 0 .993 0 1.304.024v-.347c-.765 0-.909 0-.909-.538v-2.223c0-1.256.825-1.925 1.566-1.925s.909.61.909 1.339v2.81c0 .537-.132.537-.909.537V0c.311-.024.957-.024 1.292-.024.346 0 .992 0 1.303.024"/><path id="J" d="M3.24-2.26v-.645H.132v.645z"/><path id="p" d="M2.881 0v-.347c-.777 0-.825-.06-.825-.526v-4.4L.43-5.14v.347c.766 0 .873.072.873.658v3.251c0 .538-.131.538-.908.538V0c.334-.024.908-.024 1.255-.024.131 0 .825 0 1.231.024m-.67-7.22a.58.58 0 1 0-.586.574.576.576 0 0 0 .587-.575"/><path id="q" d="M6.229 0v-.347c-.598 0-.897 0-.909-.358v-2.2c0-1.112 0-1.447-.275-1.83-.347-.465-.909-.537-1.315-.537-1.16 0-1.614.992-1.71 1.231h-.012v-1.231l-1.625.131v.347c.813 0 .908.084.908.67v3.24c0 .537-.131.537-.908.537V0c.31-.024.956-.024 1.29-.024.347 0 .993 0 1.304.024v-.347c-.765 0-.909 0-.909-.538v-2.223c0-1.256.825-1.925 1.566-1.925s.909.61.909 1.339v2.81c0 .537-.132.537-.909.537V0c.311-.024.957-.024 1.292-.024.346 0 .992 0 1.303.024"/><path id="m" d="M5.487-2.558c0-1.543-1.171-2.774-2.558-2.774-1.435 0-2.57 1.267-2.57 2.774C.359-1.028 1.554.12 2.917.12c1.41 0 2.57-1.172 2.57-2.678m-.908-.108c0 .418 0 1.16-.311 1.722a1.56 1.56 0 0 1-1.339.8c-.442 0-.98-.19-1.327-.777-.323-.538-.335-1.243-.335-1.745 0-.454 0-1.184.37-1.722.336-.514.862-.705 1.28-.705.466 0 .968.215 1.291.682.37.55.37 1.303.37 1.745"/><path id="o" d="M6.073-2.582c0-1.519-1.124-2.69-2.427-2.69-1.052 0-1.614.753-1.65.8v-.8l-1.661.131v.347c.837 0 .908.084.908.61v5.619c0 .538-.131.538-.908.538v.346c.31-.024.956-.024 1.29-.024.348 0 .993 0 1.304.024v-.346c-.765 0-.909 0-.909-.538v-2.08c.216.298.706.765 1.47.765 1.376 0 2.583-1.16 2.583-2.702m-.908 0C5.165-1.16 4.352-.12 3.43-.12a1.4 1.4 0 0 1-.956-.382c-.275-.275-.455-.514-.455-.849v-2.463c0-.227 0-.239.132-.43A1.72 1.72 0 0 1 3.55-5.01c.896 0 1.614 1.088 1.614 2.427"/><path id="z" d="M6.157 2.32v-.347c-.765 0-.909 0-.909-.538v-6.707H5.01L4.567-4.16c-.215-.455-.682-1.112-1.59-1.112C1.662-5.272.418-4.148.418-2.57.418-1.052 1.566.12 2.87.12c.646 0 1.172-.3 1.602-.897v2.212c0 .538-.131.538-.908.538v.346c.31-.024.956-.024 1.29-.024.347 0 .993 0 1.304.024M4.495-1.603c0 .383-.215.73-.49 1.004-.43.443-.885.478-1.064.478-.909 0-1.614-1.123-1.614-2.45 0-1.435.837-2.44 1.722-2.44.944 0 1.446 1.029 1.446 1.65z"/><path id="d" d="M4.22-4.579c0-.358-.323-.693-.837-.693-1.016 0-1.363 1.1-1.434 1.327h-.012v-1.327l-1.602.131v.347c.813 0 .908.084.908.67v3.24c0 .537-.131.537-.908.537V0c.334-.024.992-.024 1.35-.024.323 0 1.172 0 1.447.024v-.347h-.239c-.873 0-.896-.131-.896-.562v-1.877c0-1.16.478-2.247 1.398-2.247.096 0 .12 0 .168.012-.096.048-.287.12-.287.442 0 .347.275.478.466.478.24 0 .478-.155.478-.478"/><path id="h" d="M4.208-1.518c0-.646-.394-1.028-.502-1.136-.43-.37-.753-.442-1.542-.586-.359-.072-1.231-.239-1.231-.956 0-.37.25-.92 1.327-.92 1.303 0 1.374 1.111 1.398 1.482.012.095.096.095.132.095.131 0 .131-.06.131-.275v-1.243c0-.215 0-.275-.12-.275-.095 0-.322.263-.406.37-.37-.298-.741-.37-1.124-.37-1.446 0-1.876.789-1.876 1.447 0 .131 0 .55.454.968.382.335.789.418 1.339.526.657.131.813.167 1.112.406.215.18.37.443.37.778 0 .514-.299 1.087-1.35 1.087C1.53-.12.955-.574.692-1.77a2 2 0 0 0-.06-.238C.61-2.056.563-2.056.527-2.056c-.131 0-.131.06-.131.275v1.626c0 .215 0 .275.12.275.059 0 .07-.012.274-.263.06-.084.06-.108.24-.3C1.481.12 2.127.12 2.33.12c1.256 0 1.877-.694 1.877-1.638"/><path id="H" d="m8.022-5.44-.215-2.666H.634L.418-5.44h.263C.85-7.329.956-7.759 2.845-7.759c.216 0 .55 0 .646.024.239.036.251.18.251.454v6.36c0 .407 0 .574-1.172.574h-.43V0c.383-.024 1.614-.024 2.08-.024s1.71 0 2.092.024v-.347h-.43C4.71-.347 4.71-.514 4.71-.92v-6.36c0-.299.024-.406.216-.454.095-.024.442-.024.669-.024 1.889 0 1.997.43 2.164 2.32z"/><path id="f" d="M3.897-1.482v-.682h-.263v.658c0 .86-.346 1.363-.813 1.363-.813 0-.813-1.112-.813-1.316v-3.347h1.686v-.347H2.008v-2.2h-.263C1.733-6.228 1.303-5.08.215-5.044v.239h1.016v3.324C1.231-.155 2.116.12 2.75.12c.753 0 1.147-.742 1.147-1.602"/><path id="G" d="M8.273-7.819v-.346c-.31.024-.956.024-1.291.024-.347 0-.992 0-1.303-.024v.346c1.135 0 1.135.562 1.135.885v4.184c0 1.674-1.135 2.654-2.26 2.654-.716 0-1.96-.478-1.96-2.57v-4.59c0-.443.036-.563.897-.563h.239v-.346c-.287.024-1.267.024-1.614.024-.359 0-1.339 0-1.626-.024v.346h.24c.86 0 .896.12.896.562v4.52C1.626-1.005 3.013.25 4.53.25c1.662 0 2.606-1.626 2.606-2.821v-4.52c0-.729.92-.729 1.136-.729"/><path id="y" d="M6.229 0v-.347c-.813 0-.909-.083-.909-.67v-4.255l-1.686.131v.347c.813 0 .909.084.909.67v2.14c0 1.016-.538 1.864-1.435 1.864-.98 0-1.04-.561-1.04-1.195v-3.957l-1.685.131v.347c.908 0 .908.036.908 1.1v1.793c0 .741 0 1.172.359 1.566.287.311.777.455 1.387.455.203 0 .585 0 .992-.347.347-.275.538-.73.538-.73V.12z"/></defs><g stroke="#000" stroke-miterlimit="10" stroke-width=".4"><g stroke="none" transform="matrix(1 0 0 1 -31.181 2.89)"><use xlink:href="#a" x="-21.991" y="-49.454"/><use xlink:href="#b" x="-13.539" y="-49.454"/><use xlink:href="#c" x="-7.035" y="-49.454"/><use xlink:href="#d" x="-1.177" y="-49.454"/><use xlink:href="#c" x="3.378" y="-49.454"/><use xlink:href="#e" x="9.236" y="-49.454"/><use xlink:href="#f" x="14.437" y="-49.454"/><use xlink:href="#g" x="18.991" y="-49.454"/><use xlink:href="#d" x="24.192" y="-49.454"/><use xlink:href="#h" x="28.747" y="-49.454"/></g><g stroke="none" transform="matrix(1 0 0 1 -31.181 22.208)"><use xlink:href="#i" x="2.176" y="-49.454"/><use xlink:href="#j" x="2.312" y="-35.905"/><use xlink:href="#k" x="2.558" y="-22.356"/><use xlink:href="#l" x="4.169" y="-12.104"/><use xlink:href="#l" x="4.169" y="-8.119"/><use xlink:href="#l" x="4.169" y="-4.134"/></g><g stroke="none" transform="matrix(1 0 0 1 79.37 2.89)"><use xlink:href="#a" x="-22.284" y="-49.454"/><use xlink:href="#m" x="-13.832" y="-49.454"/><use xlink:href="#n" x="-7.651" y="-49.454"/><use xlink:href="#g" x="-1.148" y="-49.454"/><use xlink:href="#o" x="8.038" y="-49.454"/><use xlink:href="#m" x="14.864" y="-49.454"/><use xlink:href="#p" x="20.722" y="-49.454"/><use xlink:href="#q" x="23.974" y="-49.454"/><use xlink:href="#f" x="30.155" y="-49.454"/><use xlink:href="#h" x="34.71" y="-49.454"/></g><g stroke="none" transform="matrix(1 0 0 1 79.37 24.193)"><use xlink:href="#r" x="-11.858" y="-49.454"/><use xlink:href="#s" x="-3.676" y="-49.454"/><use xlink:href="#t" x="4.811" y="-49.454"/><use xlink:href="#u" x="10.265" y="-49.454"/><use xlink:href="#v" x="15.72" y="-49.454"/><use xlink:href="#w" x="23.444" y="-49.454"/><use xlink:href="#r" x="-11.858" y="-35.905"/><use xlink:href="#s" x="-3.676" y="-35.905"/><use xlink:href="#t" x="4.811" y="-35.905"/><use xlink:href="#u" x="10.265" y="-35.905"/><use xlink:href="#v" x="15.72" y="-35.905"/><use xlink:href="#x" x="23.444" y="-35.905"/><use xlink:href="#r" x="-11.858" y="-22.356"/><use xlink:href="#s" x="-3.676" y="-22.356"/><use xlink:href="#t" x="4.811" y="-22.356"/><use xlink:href="#u" x="10.265" y="-22.356"/><use xlink:href="#v" x="15.72" y="-22.356"/><use xlink:href="#u" x="23.444" y="-22.356"/><use xlink:href="#l" x="7.004" y="-13.32"/><use xlink:href="#l" x="7.004" y="-9.335"/><use xlink:href="#l" x="7.004" y="-5.35"/></g><g stroke="none" transform="matrix(1 0 0 1 181.417 2.89)"><use xlink:href="#a" x="-20.973" y="-49.454"/><use xlink:href="#m" x="-12.52" y="-49.454"/><use xlink:href="#n" x="-6.34" y="-49.454"/><use xlink:href="#g" x=".164" y="-49.454"/><use xlink:href="#y" x="9.349" y="-49.454"/><use xlink:href="#q" x="15.853" y="-49.454"/><use xlink:href="#p" x="22.356" y="-49.454"/><use xlink:href="#f" x="25.608" y="-49.454"/><use xlink:href="#h" x="34.148" y="-49.454"/><use xlink:href="#g" x="38.762" y="-49.454"/><use xlink:href="#z" x="43.963" y="-49.454"/><use xlink:href="#y" x="50.144" y="-49.454"/><use xlink:href="#g" x="56.647" y="-49.454"/><use xlink:href="#q" x="61.848" y="-49.454"/><use xlink:href="#e" x="68.351" y="-49.454"/><use xlink:href="#g" x="73.552" y="-49.454"/><use xlink:href="#h" x="78.752" y="-49.454"/></g><g stroke="none" transform="matrix(1 0 0 1 167.244 24.253)"><use xlink:href="#A" x="31.924" y="-49.454"/><use xlink:href="#B" x="37.651" y="-49.454"/><use xlink:href="#C" x="47.363" y="-49.454"/><use xlink:href="#D" x="53.09" y="-49.454"/><use xlink:href="#A" x="31.924" y="-35.905"/><use xlink:href="#B" x="37.651" y="-35.905"/><use xlink:href="#C" x="47.363" y="-35.905"/><use xlink:href="#E" x="53.09" y="-35.905"/><use xlink:href="#A" x="31.924" y="-22.356"/><use xlink:href="#B" x="37.651" y="-22.356"/><use xlink:href="#C" x="47.363" y="-22.356"/><use xlink:href="#F" x="53.09" y="-22.356"/><use xlink:href="#l" x="43.854" y="-14.105"/><use xlink:href="#l" x="43.854" y="-10.12"/><use xlink:href="#l" x="43.854" y="-6.135"/></g><path fill="none" stroke-width=".398504" d="M-1.401-6.934H42.41"/><path stroke-width=".398504" d="m45.512-6.934-4.468-1.682 1.466 1.682-1.466 1.682Z"/><path fill="none" stroke-width=".398504" d="M128.992-6.934h43.812"/><path stroke-width=".398504" d="m175.905-6.934-4.467-1.682 1.465 1.682-1.465 1.682Z"/><path fill="none" stroke-width=".398504" d="M22.693 9.49v21.135"/><path stroke-width=".398504" d="m22.693 6.39-1.682 4.467 1.682-1.466 1.682 1.466Z"/><g stroke="none" transform="matrix(1 0 0 1 27.381 97.52)"><use xlink:href="#G" x="-25.496" y="-49.454"/><use xlink:href="#q" x="-16.721" y="-49.454"/><use xlink:href="#p" x="-10.217" y="-49.454"/><use xlink:href="#e" x="-6.965" y="-49.454"/><use xlink:href="#m" x="-1.765" y="-49.454"/><use xlink:href="#n" x="4.416" y="-49.454"/><use xlink:href="#g" x="10.92" y="-49.454"/></g><path fill="none" stroke-width=".398504" d="M153.087 9.49v21.135"/><path stroke-width=".398504" d="m153.087 6.39-1.682 4.467 1.682-1.466 1.682 1.466Z"/><g stroke="none" transform="matrix(1 0 0 1 161.272 97.389)"><use xlink:href="#G" x="-25.496" y="-49.454"/><use xlink:href="#H" x="-16.721" y="-49.454"/><use xlink:href="#I" x="-8.268" y="-49.454"/><use xlink:href="#J" x="-.629" y="-49.454"/><use xlink:href="#K" x="3.268" y="-49.454"/></g></g></svg>