<svg xmlns="http://www.w3.org/2000/svg" xmlns:xlink="http://www.w3.org/1999/xlink" width="566.216" height="165.95" viewBox="-72 -72 424.662 124.462"><defs><path id="u" d="M4.822-.327c0-.338-.262-.338-.437-.338h-.992v-5.673c0-.175 0-.447-.328-.447-.207 0-.272.13-.327.261-.414.928-.982 1.048-1.189 1.07-.174.01-.404.032-.404.338 0 .272.197.327.36.327.208 0 .655-.066 1.135-.48v4.604h-.993c-.174 0-.436 0-.436.338 0 .327.273.327.436.327h2.738c.164 0 .437 0 .437-.327"/><path id="o" d="M5.542-4.375c0-.327-.262-.327-.458-.327H3.829c-.196 0-.458 0-.458.327 0 .339.25.339.458.339h.535l-.546 3.25h-.01c-.044-.283-.186-.785-.317-1.232-.196-.687-.23-.807-.611-.807-.11 0-.316 0-.436.24-.033.076-.47 1.581-.513 1.8H1.92l-.567-3.251h.534c.197 0 .458 0 .458-.328 0-.338-.25-.338-.458-.338H.633c-.197 0-.458 0-.458.327 0 .339.229.339.556.339l.654 3.665c.044.251.077.415.513.415s.47-.099.666-.764c.272-.96.283-1.113.316-1.353h.01c.055.568.46 1.844.503 1.931.13.186.327.186.458.186.404 0 .436-.175.48-.415l.654-3.665c.328 0 .557 0 .557-.339"/><path id="l" d="M5.41-.327c0-.338-.283-.338-.446-.338h-.437L3.131-2.422l1.244-1.614h.436c.153 0 .447 0 .447-.328 0-.338-.283-.338-.447-.338H3.535c-.164 0-.437 0-.437.327 0 .339.24.339.535.339l-.808 1.101-.829-1.101c.284 0 .524 0 .524-.339 0-.327-.273-.327-.436-.327H.807c-.163 0-.447 0-.447.338 0 .328.295.328.447.328h.437L2.53-2.422 1.178-.665H.742c-.164 0-.447 0-.447.338C.295 0 .589 0 .742 0h1.276c.164 0 .437 0 .437-.327 0-.338-.23-.338-.568-.338l.938-1.342.971 1.342c-.305 0-.545 0-.545.338 0 .327.273.327.436.327h1.277c.152 0 .447 0 .447-.327"/><path id="m" d="M5.455-4.364c0-.338-.262-.338-.437-.338H3.742c-.164 0-.437 0-.437.327 0 .339.262.339.437.339h.305l-.785 2.323c-.142.404-.207.6-.284.938h-.01c-.055-.207-.153-.436-.23-.643L1.724-4.036h.272c.164 0 .437 0 .437-.328 0-.338-.262-.338-.437-.338H.72c-.175 0-.436 0-.436.338 0 .328.272.328.436.328h.338l1.55 3.894c.043.11.043.142.043.142s-.273.916-.415 1.19c-.316.6-.709.62-.872.632 0 0 .054-.098.054-.24a.453.453 0 0 0-.469-.47c-.294 0-.48.197-.48.48a.9.9 0 0 0 .906.895c1.09 0 1.581-1.44 1.625-1.56l1.69-4.963h.328c.164 0 .437 0 .437-.328"/><path id="n" d="M5.182-.447v-.633c0-.207 0-.447-.371-.447-.382 0-.382.229-.382.447v.415H1.495l3.403-3.23c.23-.218.24-.25.24-.436 0-.37-.24-.37-.447-.37H.98c-.36 0-.446.086-.446.446v.502c0 .208 0 .448.37.448.382 0 .382-.23.382-.448v-.283h2.717L.6-.807c-.23.218-.24.25-.24.436C.36 0 .6 0 .807 0h4.135c.24-.065.24-.284.24-.447"/><path id="t" d="M5.17-3.327c0-2.03-1.112-3.458-2.312-3.458-1.222 0-2.313 1.461-2.313 3.447C.545-1.31 1.658.12 2.858.12c1.222 0 2.313-1.462 2.313-3.447m-.752-.12c0 1.614-.709 2.902-1.56 2.902s-1.56-1.288-1.56-2.902c0-1.593.753-2.673 1.56-2.673.797 0 1.56 1.07 1.56 2.673"/><path id="p" d="M9.97-2.75c-.657.502-.98.993-1.075 1.148-.538.825-.634 1.578-.634 1.59 0 .144.143.144.24.144.202 0 .214-.024.262-.24.275-1.171.98-2.175 2.331-2.725.144-.048.18-.072.18-.156s-.072-.12-.096-.131c-.526-.204-1.973-.801-2.427-2.81-.036-.143-.048-.18-.25-.18-.097 0-.24 0-.24.144 0 .024.108.777.61 1.578.239.36.586.778 1.1 1.16H1.088c-.215 0-.43 0-.43.24s.215.238.43.238z"/><path id="d" d="M5.667-1.064v-.67h-.263v.67c0 .681-.287.777-.455.777-.454 0-.454-.634-.454-.813v-2.092c0-.646 0-1.124-.526-1.59-.418-.383-.956-.55-1.482-.55-.98 0-1.734.646-1.734 1.423 0 .346.227.514.502.514a.47.47 0 0 0 .49-.49c0-.49-.43-.49-.61-.49.276-.503.85-.718 1.328-.718.55 0 1.255.454 1.255 1.53v.479C1.315-3.05.406-2.044.406-1.124c0 .945 1.1 1.244 1.83 1.244A1.63 1.63 0 0 0 3.79-.933c.048.562.418.993.932.993.251 0 .945-.168.945-1.124m-1.949-.622c0 1.172-.873 1.566-1.387 1.566-.586 0-1.076-.43-1.076-1.004 0-1.578 2.033-1.721 2.463-1.745z"/><path id="a" d="M7.627-2.188c0-.968-.872-1.925-2.295-2.08 1.136-.215 1.96-.98 1.96-1.877 0-1.028-1.04-2.02-2.606-2.02H.514v.346h.24c.86 0 .896.12.896.562v6.348c0 .443-.036.562-.897.562H.514V0H5.01c1.542 0 2.618-1.04 2.618-2.188M6.241-6.145c0 .79-.622 1.781-1.95 1.781H2.559V-7.34c0-.395.024-.479.55-.479h1.507c1.195 0 1.626 1.028 1.626 1.674M6.539-2.2c0 .969-.729 1.853-1.9 1.853h-1.53c-.527 0-.55-.083-.55-.478v-3.3h2.235c1.148 0 1.745 1.005 1.745 1.925"/><path id="s" d="M4.854-1.423c0-.107-.084-.107-.12-.107-.107 0-.12.036-.155.18-.263.848-.909 1.207-1.554 1.207-.73 0-1.698-.634-1.698-2.451 0-1.985 1.016-2.475 1.614-2.475.454 0 1.112.18 1.387.646-.144 0-.586 0-.586.49 0 .287.203.49.49.49.275 0 .502-.167.502-.514 0-.801-.837-1.375-1.805-1.375-1.399 0-2.51 1.243-2.51 2.75C.418-1.052 1.565.12 2.916.12c1.578 0 1.937-1.435 1.937-1.543"/><path id="g" d="M4.866-1.423c0-.071-.06-.12-.132-.12-.095 0-.12.06-.143.12C4.28-.418 3.479-.143 2.977-.143s-1.71-.335-1.71-2.403v-.228H4.58c.263 0 .287 0 .287-.227 0-1.207-.646-2.331-2.092-2.331C1.41-5.332.359-4.101.359-2.618.359-1.04 1.579.12 2.905.12c1.423 0 1.96-1.292 1.96-1.543M4.125-3H1.279c.096-1.877 1.148-2.092 1.483-2.092 1.279 0 1.35 1.686 1.363 2.092"/><path id="b" d="M2.881 0v-.347c-.777 0-.825-.06-.825-.526v-4.4L.43-5.14v.347c.766 0 .873.072.873.658v3.251c0 .538-.131.538-.908.538V0c.334-.024.908-.024 1.255-.024.131 0 .825 0 1.231.024m-.67-7.22a.58.58 0 1 0-.586.574.576.576 0 0 0 .587-.575"/><path id="c" d="M6.229 0v-.347c-.598 0-.897 0-.909-.358v-2.2c0-1.112 0-1.447-.275-1.83-.347-.465-.909-.537-1.315-.537-1.16 0-1.614.992-1.71 1.231h-.012v-1.231l-1.625.131v.347c.813 0 .908.084.908.67v3.24c0 .537-.131.537-.908.537V0c.31-.024.956-.024 1.29-.024.347 0 .993 0 1.304.024v-.347c-.765 0-.909 0-.909-.538v-2.223c0-1.256.825-1.925 1.566-1.925s.909.61.909 1.339v2.81c0 .537-.132.537-.909.537V0c.311-.024.957-.024 1.292-.024.346 0 .992 0 1.303.024"/><path id="k" d="M5.487-2.558c0-1.543-1.171-2.774-2.558-2.774-1.435 0-2.57 1.267-2.57 2.774C.359-1.028 1.554.12 2.917.12c1.41 0 2.57-1.172 2.57-2.678m-.908-.108c0 .418 0 1.16-.311 1.722a1.56 1.56 0 0 1-1.339.8c-.442 0-.98-.19-1.327-.777-.323-.538-.335-1.243-.335-1.745 0-.454 0-1.184.37-1.722.336-.514.862-.705 1.28-.705.466 0 .968.215 1.291.682.37.55.37 1.303.37 1.745"/><path id="h" d="M6.073-2.582c0-1.519-1.124-2.69-2.427-2.69-1.052 0-1.614.753-1.65.8v-.8l-1.661.131v.347c.837 0 .908.084.908.61v5.619c0 .538-.131.538-.908.538v.346c.31-.024.956-.024 1.29-.024.348 0 .993 0 1.304.024v-.346c-.765 0-.909 0-.909-.538v-2.08c.216.298.706.765 1.47.765 1.376 0 2.583-1.16 2.583-2.702m-.908 0C5.165-1.16 4.352-.12 3.43-.12a1.4 1.4 0 0 1-.956-.382c-.275-.275-.455-.514-.455-.849v-2.463c0-.227 0-.239.132-.43A1.72 1.72 0 0 1 3.55-5.01c.896 0 1.614 1.088 1.614 2.427"/><path id="q" d="M6.157 2.32v-.347c-.765 0-.909 0-.909-.538v-6.707H5.01L4.567-4.16c-.215-.455-.682-1.112-1.59-1.112C1.662-5.272.418-4.148.418-2.57.418-1.052 1.566.12 2.87.12c.646 0 1.172-.3 1.602-.897v2.212c0 .538-.131.538-.908.538v.346c.31-.024.956-.024 1.29-.024.347 0 .993 0 1.304.024M4.495-1.603c0 .383-.215.73-.49 1.004-.43.443-.885.478-1.064.478-.909 0-1.614-1.123-1.614-2.45 0-1.435.837-2.44 1.722-2.44.944 0 1.446 1.029 1.446 1.65z"/><path id="e" d="M4.22-4.579c0-.358-.323-.693-.837-.693-1.016 0-1.363 1.1-1.434 1.327h-.012v-1.327l-1.602.131v.347c.813 0 .908.084.908.67v3.24c0 .537-.131.537-.908.537V0c.334-.024.992-.024 1.35-.024.323 0 1.172 0 1.447.024v-.347h-.239c-.873 0-.896-.131-.896-.562v-1.877c0-1.16.478-2.247 1.398-2.247.096 0 .12 0 .168.012-.096.048-.287.12-.287.442 0 .347.275.478.466.478.24 0 .478-.155.478-.478"/><path id="i" d="M4.208-1.518c0-.646-.394-1.028-.502-1.136-.43-.37-.753-.442-1.542-.586-.359-.072-1.231-.239-1.231-.956 0-.37.25-.92 1.327-.92 1.303 0 1.374 1.111 1.398 1.482.012.095.096.095.132.095.131 0 .131-.06.131-.275v-1.243c0-.215 0-.275-.12-.275-.095 0-.322.263-.406.37-.37-.298-.741-.37-1.124-.37-1.446 0-1.876.789-1.876 1.447 0 .131 0 .55.454.968.382.335.789.418 1.339.526.657.131.813.167 1.112.406.215.18.37.443.37.778 0 .514-.299 1.087-1.35 1.087C1.53-.12.955-.574.692-1.77a2 2 0 0 0-.06-.238C.61-2.056.563-2.056.527-2.056c-.131 0-.131.06-.131.275v1.626c0 .215 0 .275.12.275.059 0 .07-.012.274-.263.06-.084.06-.108.24-.3C1.481.12 2.127.12 2.33.12c1.256 0 1.877-.694 1.877-1.638"/><path id="j" d="M3.897-1.482v-.682h-.263v.658c0 .86-.346 1.363-.813 1.363-.813 0-.813-1.112-.813-1.316v-3.347h1.686v-.347H2.008v-2.2h-.263C1.733-6.228 1.303-5.08.215-5.044v.239h1.016v3.324C1.231-.155 2.116.12 2.75.12c.753 0 1.147-.742 1.147-1.602"/><path id="r" d="M6.229 0v-.347c-.813 0-.909-.083-.909-.67v-4.255l-1.686.131v.347c.813 0 .909.084.909.67v2.14c0 1.016-.538 1.864-1.435 1.864-.98 0-1.04-.561-1.04-1.195v-3.957l-1.685.131v.347c.908 0 .908.036.908 1.1v1.793c0 .741 0 1.172.359 1.566.287.311.777.455 1.387.455.203 0 .585 0 .992-.347.347-.275.538-.73.538-.73V.12z"/><path id="f" d="M5.954-4.806v-.347c-.347.024-.514.024-.897.024l-.968-.024v.347c.442.024.55.299.55.514a.7.7 0 0 1-.072.287L3.347-.992 2.02-4.244c-.071-.167-.071-.251-.071-.251 0-.311.418-.311.657-.311v-.347c-.31.024-.896.024-1.231.024l-1.16-.024v.347c.694 0 .79.06.945.43L2.94 0c-.526 1.267-.526 1.291-.574 1.387-.203.358-.526.813-1.064.813-.37 0-.598-.215-.598-.215s.419-.048.419-.467a.433.433 0 0 0-.443-.442c-.203 0-.454.12-.454.466 0 .455.442.897 1.076.897.67 0 1.16-.586 1.47-1.34l2.069-5.092c.323-.801.885-.813 1.112-.813"/></defs><g stroke="none" stroke-miterlimit="10" stroke-width=".4"><g transform="matrix(1 0 0 1 -70.866 2.89)"><use xlink:href="#a" x="29.45" y="-49.454"/><use xlink:href="#b" x="37.735" y="-49.454"/><use xlink:href="#c" x="40.987" y="-49.454"/><use xlink:href="#d" x="47.491" y="-49.454"/><use xlink:href="#e" x="53.349" y="-49.454"/><use xlink:href="#f" x="57.903" y="-49.454"/><use xlink:href="#e" x="68.069" y="-49.454"/><use xlink:href="#g" x="72.624" y="-49.454"/><use xlink:href="#h" x="77.824" y="-49.454"/><use xlink:href="#e" x="84.328" y="-49.454"/><use xlink:href="#g" x="88.883" y="-49.454"/><use xlink:href="#i" x="94.083" y="-49.454"/><use xlink:href="#g" x="98.698" y="-49.454"/><use xlink:href="#c" x="103.899" y="-49.454"/><use xlink:href="#j" x="110.079" y="-49.454"/><use xlink:href="#d" x="114.634" y="-49.454"/><use xlink:href="#j" x="120.492" y="-49.454"/><use xlink:href="#b" x="125.047" y="-49.454"/><use xlink:href="#k" x="128.299" y="-49.454"/><use xlink:href="#c" x="134.157" y="-49.454"/></g><g transform="matrix(1 0 0 1 -70.866 22.552)"><use xlink:href="#l" x="111.846" y="-49.454"/><use xlink:href="#l" x="117.573" y="-49.454"/><use xlink:href="#l" x="123.301" y="-49.454"/><use xlink:href="#l" x="133.013" y="-49.454"/><use xlink:href="#l" x="138.74" y="-49.454"/><use xlink:href="#l" x="144.467" y="-49.454"/><use xlink:href="#l" x="150.194" y="-49.454"/></g><g transform="matrix(1 0 0 1 -70.866 42.395)"><use xlink:href="#m" x="84.952" y="-49.454"/><use xlink:href="#m" x="90.68" y="-49.454"/><use xlink:href="#m" x="96.407" y="-49.454"/><use xlink:href="#m" x="106.119" y="-49.454"/><use xlink:href="#m" x="111.846" y="-49.454"/><use xlink:href="#l" x="117.573" y="-49.454"/><use xlink:href="#l" x="123.301" y="-49.454"/><use xlink:href="#l" x="133.013" y="-49.454"/><use xlink:href="#l" x="138.74" y="-49.454"/><use xlink:href="#l" x="144.467" y="-49.454"/><use xlink:href="#l" x="150.194" y="-49.454"/></g><g transform="matrix(1 0 0 1 -70.866 62.237)"><use xlink:href="#n" x="52.331" y="-49.454"/><use xlink:href="#n" x="58.059" y="-49.454"/><use xlink:href="#n" x="63.786" y="-49.454"/><use xlink:href="#n" x="69.513" y="-49.454"/><use xlink:href="#m" x="79.225" y="-49.454"/><use xlink:href="#m" x="84.952" y="-49.454"/><use xlink:href="#m" x="90.68" y="-49.454"/><use xlink:href="#m" x="96.407" y="-49.454"/><use xlink:href="#m" x="106.119" y="-49.454"/><use xlink:href="#m" x="111.846" y="-49.454"/><use xlink:href="#l" x="117.573" y="-49.454"/><use xlink:href="#l" x="123.301" y="-49.454"/><use xlink:href="#l" x="133.013" y="-49.454"/><use xlink:href="#l" x="138.74" y="-49.454"/><use xlink:href="#l" x="144.467" y="-49.454"/><use xlink:href="#l" x="150.194" y="-49.454"/></g><g transform="matrix(1 0 0 1 -70.866 82.08)"><use xlink:href="#o" x="15.726" y="-49.454"/><use xlink:href="#o" x="25.438" y="-49.454"/><use xlink:href="#o" x="31.165" y="-49.454"/><use xlink:href="#n" x="36.892" y="-49.454"/><use xlink:href="#n" x="42.619" y="-49.454"/><use xlink:href="#n" x="52.331" y="-49.454"/><use xlink:href="#n" x="58.059" y="-49.454"/><use xlink:href="#n" x="63.786" y="-49.454"/><use xlink:href="#n" x="69.513" y="-49.454"/><use xlink:href="#m" x="79.225" y="-49.454"/><use xlink:href="#m" x="84.952" y="-49.454"/><use xlink:href="#m" x="90.68" y="-49.454"/><use xlink:href="#m" x="96.407" y="-49.454"/><use xlink:href="#m" x="106.119" y="-49.454"/><use xlink:href="#m" x="111.846" y="-49.454"/><use xlink:href="#l" x="117.573" y="-49.454"/><use xlink:href="#l" x="123.301" y="-49.454"/><use xlink:href="#l" x="133.013" y="-49.454"/><use xlink:href="#l" x="138.74" y="-49.454"/><use xlink:href="#l" x="144.467" y="-49.454"/><use xlink:href="#l" x="150.194" y="-49.454"/></g><use xlink:href="#p" x="14.189" y="-49.454" transform="matrix(1 0 0 1 84.731 22.732)"/><use xlink:href="#p" x="14.189" y="-49.454" transform="matrix(1 0 0 1 84.731 42.574)"/><use xlink:href="#p" x="14.189" y="-49.454" transform="matrix(1 0 0 1 84.731 62.417)"/><use xlink:href="#p" x="14.189" y="-49.454" transform="matrix(1 0 0 1 84.731 82.26)"/><g transform="matrix(1 0 0 1 107.717 2.863)"><use xlink:href="#a" x="83.193" y="-49.454"/><use xlink:href="#f" x="91.478" y="-49.454"/><use xlink:href="#j" x="97.659" y="-49.454"/><use xlink:href="#g" x="102.214" y="-49.454"/><use xlink:href="#i" x="111.399" y="-49.454"/><use xlink:href="#g" x="116.014" y="-49.454"/><use xlink:href="#q" x="121.214" y="-49.454"/><use xlink:href="#r" x="127.395" y="-49.454"/><use xlink:href="#g" x="133.899" y="-49.454"/><use xlink:href="#c" x="139.099" y="-49.454"/><use xlink:href="#s" x="145.603" y="-49.454"/><use xlink:href="#g" x="150.803" y="-49.454"/><use xlink:href="#i" x="156.004" y="-49.454"/></g><g transform="matrix(1 0 0 1 107.717 22.552)"><use xlink:href="#t" x="14.189" y="-49.454"/><use xlink:href="#l" x="19.917" y="-49.454"/><use xlink:href="#l" x="25.644" y="-49.454"/><use xlink:href="#l" x="31.371" y="-49.454"/><use xlink:href="#l" x="41.083" y="-49.454"/><use xlink:href="#l" x="46.81" y="-49.454"/><use xlink:href="#l" x="52.538" y="-49.454"/><use xlink:href="#l" x="58.265" y="-49.454"/></g><g transform="matrix(1 0 0 1 107.717 42.395)"><use xlink:href="#u" x="14.189" y="-49.454"/><use xlink:href="#u" x="19.917" y="-49.454"/><use xlink:href="#t" x="25.644" y="-49.454"/><use xlink:href="#m" x="31.371" y="-49.454"/><use xlink:href="#m" x="41.083" y="-49.454"/><use xlink:href="#m" x="46.81" y="-49.454"/><use xlink:href="#m" x="52.538" y="-49.454"/><use xlink:href="#m" x="58.265" y="-49.454"/><use xlink:href="#u" x="67.977" y="-49.454"/><use xlink:href="#t" x="73.704" y="-49.454"/><use xlink:href="#l" x="79.431" y="-49.454"/><use xlink:href="#l" x="85.159" y="-49.454"/><use xlink:href="#l" x="94.87" y="-49.454"/><use xlink:href="#l" x="100.598" y="-49.454"/><use xlink:href="#l" x="106.325" y="-49.454"/><use xlink:href="#l" x="112.052" y="-49.454"/></g><g transform="matrix(1 0 0 1 107.717 62.237)"><use xlink:href="#u" x="14.189" y="-49.454"/><use xlink:href="#u" x="19.917" y="-49.454"/><use xlink:href="#u" x="25.644" y="-49.454"/><use xlink:href="#t" x="31.371" y="-49.454"/><use xlink:href="#n" x="41.083" y="-49.454"/><use xlink:href="#n" x="46.81" y="-49.454"/><use xlink:href="#n" x="52.538" y="-49.454"/><use xlink:href="#n" x="58.265" y="-49.454"/><use xlink:href="#u" x="67.977" y="-49.454"/><use xlink:href="#t" x="73.704" y="-49.454"/><use xlink:href="#m" x="79.431" y="-49.454"/><use xlink:href="#m" x="85.159" y="-49.454"/><use xlink:href="#m" x="94.87" y="-49.454"/><use xlink:href="#m" x="100.598" y="-49.454"/><use xlink:href="#m" x="106.325" y="-49.454"/><use xlink:href="#m" x="112.052" y="-49.454"/><use xlink:href="#u" x="121.764" y="-49.454"/><use xlink:href="#t" x="127.491" y="-49.454"/><use xlink:href="#l" x="133.219" y="-49.454"/><use xlink:href="#l" x="138.946" y="-49.454"/><use xlink:href="#l" x="148.658" y="-49.454"/><use xlink:href="#l" x="154.385" y="-49.454"/><use xlink:href="#l" x="160.112" y="-49.454"/><use xlink:href="#l" x="165.84" y="-49.454"/></g><g transform="matrix(1 0 0 1 107.717 82.08)"><use xlink:href="#u" x="14.189" y="-49.454"/><use xlink:href="#u" x="19.917" y="-49.454"/><use xlink:href="#u" x="25.644" y="-49.454"/><use xlink:href="#u" x="31.371" y="-49.454"/><use xlink:href="#t" x="41.083" y="-49.454"/><use xlink:href="#o" x="46.81" y="-49.454"/><use xlink:href="#o" x="52.538" y="-49.454"/><use xlink:href="#o" x="58.265" y="-49.454"/><use xlink:href="#u" x="67.977" y="-49.454"/><use xlink:href="#t" x="73.704" y="-49.454"/><use xlink:href="#n" x="79.431" y="-49.454"/><use xlink:href="#n" x="85.159" y="-49.454"/><use xlink:href="#n" x="94.87" y="-49.454"/><use xlink:href="#n" x="100.598" y="-49.454"/><use xlink:href="#n" x="106.325" y="-49.454"/><use xlink:href="#n" x="112.052" y="-49.454"/><use xlink:href="#u" x="121.764" y="-49.454"/><use xlink:href="#t" x="127.491" y="-49.454"/><use xlink:href="#m" x="133.219" y="-49.454"/><use xlink:href="#m" x="138.946" y="-49.454"/><use xlink:href="#m" x="148.658" y="-49.454"/><use xlink:href="#m" x="154.385" y="-49.454"/><use xlink:href="#m" x="160.112" y="-49.454"/><use xlink:href="#m" x="165.84" y="-49.454"/><use xlink:href="#u" x="175.552" y="-49.454"/><use xlink:href="#t" x="181.279" y="-49.454"/><use xlink:href="#l" x="187.006" y="-49.454"/><use xlink:href="#l" x="192.733" y="-49.454"/><use xlink:href="#l" x="202.445" y="-49.454"/><use xlink:href="#l" x="208.173" y="-49.454"/><use xlink:href="#l" x="213.9" y="-49.454"/><use xlink:href="#l" x="219.627" y="-49.454"/></g></g></svg>