<svg xmlns="http://www.w3.org/2000/svg" xmlns:xlink="http://www.w3.org/1999/xlink" width="494.405" height="99.974" viewBox="-72 -72 370.804 74.981"><defs><path id="h" d="M5.684-2.356c0-1.386-1.07-2.466-2.313-2.466-.851 0-1.32.513-1.495.71v-3.459l-1.57.12v.338c.763 0 .85.077.85.611V0h.273l.393-.676c.163.25.622.796 1.429.796 1.298 0 2.433-1.07 2.433-2.476m-.906-.011c0 .403-.022 1.058-.338 1.549-.23.338-.644.698-1.233.698-.49 0-.883-.262-1.145-.665-.153-.23-.153-.262-.153-.459V-3.49c0-.207 0-.218.12-.393a1.58 1.58 0 0 1 1.287-.698c.491 0 .884.284 1.146.698.283.448.316 1.07.316 1.517"/><path id="k" d="M4.527-1.298c0-.11-.109-.11-.142-.11-.098 0-.12.044-.141.11C3.927-.284 3.218-.153 2.814-.153c-.578 0-1.538-.469-1.538-2.225 0-1.778.895-2.237 1.473-2.237.098 0 .786.011 1.167.404-.447.033-.512.36-.512.502 0 .284.196.502.501.502.284 0 .502-.186.502-.513 0-.742-.829-1.167-1.669-1.167-1.363 0-2.367 1.178-2.367 2.53C.37-.96 1.45.12 2.716.12c1.462 0 1.811-1.31 1.811-1.418"/><path id="l" d="M5.75 0v-.338c-.765 0-.852-.077-.852-.611v-6.622l-1.57.12v.338c.763 0 .85.077.85.611v2.357c-.316-.393-.785-.677-1.374-.677C1.516-4.822.37-3.752.37-2.345.37-.96 1.44.12 2.684.12c.698 0 1.189-.37 1.461-.72v.72zM4.144-1.287c0 .196 0 .218-.12.403-.327.524-.818.764-1.287.764-.49 0-.883-.284-1.145-.698-.284-.447-.317-1.07-.317-1.517 0-.403.022-1.058.339-1.549.229-.338.643-.698 1.232-.698.382 0 .84.164 1.178.655.12.185.12.207.12.403z"/><path id="f" d="M4.527-1.298c0-.11-.087-.131-.142-.131-.098 0-.12.065-.141.153C3.862-.153 2.88-.153 2.77-.153c-.546 0-.982-.327-1.233-.73-.327-.524-.327-1.244-.327-1.637h3.044c.24 0 .272 0 .272-.23 0-1.08-.589-2.137-1.952-2.137-1.266 0-2.27 1.123-2.27 2.487 0 1.462 1.146 2.52 2.4 2.52 1.331 0 1.822-1.21 1.822-1.418m-.72-1.451H1.222c.065-1.626.982-1.898 1.353-1.898 1.123 0 1.232 1.472 1.232 1.898"/><path id="p" d="M3.895-6.927c0-.404-.404-.764-.982-.764-.764 0-1.691.578-1.691 1.735v1.254H.36v.338h.862v3.535c0 .49-.12.49-.851.49V0l1.244-.033c.436 0 .949 0 1.385.033v-.338h-.23c-.806 0-.828-.12-.828-.513v-3.513h1.243v-.338H1.91v-1.265c0-.96.524-1.484 1.004-1.484.032 0 .196 0 .36.076a.48.48 0 0 0-.328.459c0 .25.175.469.47.469.316 0 .48-.218.48-.48"/><path id="n" d="M5.29-4.407a.534.534 0 0 0-.555-.535c-.219 0-.699.066-1.157.513a1.82 1.82 0 0 0-1.156-.393c-1.015 0-1.767.753-1.767 1.593 0 .48.24.894.512 1.124A1.5 1.5 0 0 0 .83-1.2c0 .338.142.753.48.97C.655-.043.305.426.305.863c0 .785 1.08 1.385 2.411 1.385 1.288 0 2.422-.556 2.422-1.407 0-.382-.153-.938-.709-1.244-.578-.305-1.21-.305-1.876-.305-.273 0-.742 0-.818-.011-.35-.044-.579-.382-.579-.73 0-.045 0-.295.186-.514.425.306.873.339 1.08.339 1.014 0 1.767-.753 1.767-1.593 0-.404-.174-.807-.447-1.058.393-.371.785-.426.982-.426 0 0 .076 0 .109.011-.12.044-.175.164-.175.295a.31.31 0 0 0 .317.316c.109 0 .316-.076.316-.327M3.37-3.23c0 .294-.01.644-.174.916-.087.131-.338.437-.774.437-.95 0-.95-1.091-.95-1.342 0-.295.012-.644.175-.917.088-.13.338-.436.775-.436.949 0 .949 1.091.949 1.342M4.57.86c0 .59-.774 1.135-1.843 1.135C1.625 1.996.873 1.44.873.862c0-.502.414-.906.894-.938h.644c.938 0 2.16 0 2.16.938"/><path id="t" d="M5.836 0v-.338c-.567 0-.84 0-.85-.327V-2.75c0-.938 0-1.276-.339-1.67-.152-.185-.512-.403-1.145-.403-.917 0-1.397.655-1.571 1.047H1.92V-7.57l-1.57.12v.338c.763 0 .85.077.85.611v5.673c0 .49-.12.49-.85.49V0l1.232-.033L2.804 0v-.338c-.731 0-.851 0-.851-.491v-2.007c0-1.135.774-1.746 1.472-1.746.688 0 .808.59.808 1.211v2.542c0 .49-.12.49-.851.49V0l1.233-.033z"/><path id="g" d="M3.01-2.04v-.633H.12v.633z"/><path id="m" d="M2.695 0v-.338c-.72 0-.764-.055-.764-.48v-4.004l-1.527.12v.338c.709 0 .807.066.807.6v2.935c0 .49-.12.49-.851.49V0l1.2-.033c.382 0 .764.022 1.135.033m-.6-6.59a.583.583 0 0 0-1.167 0c0 .295.25.58.577.58.371 0 .59-.306.59-.58"/><path id="q" d="M2.782 0v-.338c-.731 0-.851 0-.851-.491v-6.742L.36-7.45v.338c.764 0 .85.077.85.611v5.673c0 .49-.12.49-.85.49V0l1.21-.033z"/><path id="e" d="M5.836 0v-.338c-.567 0-.84 0-.85-.327V-2.75c0-.938 0-1.276-.339-1.67-.152-.185-.512-.403-1.145-.403-.797 0-1.31.47-1.615 1.146v-1.146l-1.538.12v.338c.764 0 .851.077.851.611v2.924c0 .49-.12.49-.85.49V0l1.232-.033L2.804 0v-.338c-.731 0-.851 0-.851-.491v-2.007c0-1.135.774-1.746 1.472-1.746.688 0 .808.59.808 1.211v2.542c0 .49-.12.49-.851.49V0l1.233-.033z"/><path id="d" d="M5.138-2.335c0-1.396-1.09-2.552-2.41-2.552-1.364 0-2.423 1.189-2.423 2.552A2.435 2.435 0 0 0 2.716.12a2.43 2.43 0 0 0 2.422-2.455m-.905-.087c0 .393 0 .982-.24 1.462-.24.49-.72.807-1.266.807-.469 0-.949-.229-1.243-.73-.273-.48-.273-1.146-.273-1.539 0-.425 0-1.014.262-1.494.294-.502.807-.731 1.243-.731.48 0 .95.24 1.233.709s.284 1.102.284 1.516"/><path id="u" d="M3.97-4.156c0-.35-.337-.666-.806-.666-.797 0-1.19.731-1.342 1.2v-1.2l-1.517.12v.338c.764 0 .851.077.851.611v2.924c0 .49-.12.49-.85.49V0l1.243-.033c.436 0 .95 0 1.386.033v-.338h-.23c-.807 0-.829-.12-.829-.513v-1.68c0-1.08.459-2.05 1.288-2.05.076 0 .098 0 .12.01a.47.47 0 0 0-.251.426c0 .305.229.469.469.469.196 0 .469-.131.469-.48"/><path id="j" d="M3.622-1.353v-.622h-.273v.6c0 .808-.327 1.222-.73 1.222-.732 0-.732-.992-.732-1.178v-3.033h1.56v-.338h-1.56v-2.007h-.272c-.011.894-.339 2.062-1.408 2.105v.24h.928v3.011C1.135-.01 2.149.12 2.542.12c.774 0 1.08-.775 1.08-1.473"/><path id="v" d="M5.836 0v-.338c-.763 0-.85-.077-.85-.611v-3.873l-1.604.12v.338c.763 0 .85.077.85.611v1.942c0 .95-.523 1.691-1.32 1.691-.916 0-.96-.513-.96-1.08v-3.622l-1.603.12v.338c.851 0 .851.033.851 1.004v1.636C1.2-.873 1.2.12 2.858.12c.611 0 1.091-.305 1.407-.982V.12z"/><path id="r" d="M7.67-4.364v-.338c-.24.022-.557.033-.797.033l-1.015-.033v.338c.393.011.633.208.633.524 0 .065 0 .087-.055.23L5.444-.819l-1.08-3.044c-.044-.13-.055-.153-.055-.207 0-.295.426-.295.644-.295v-.338l-1.135.033c-.327 0-.643-.011-.97-.033v.338c.403 0 .577.022.687.164.054.065.174.393.25.6L2.847-.96 1.811-3.873c-.055-.13-.055-.152-.055-.196 0-.295.426-.295.644-.295v-.338l-1.19.033-1.014-.033v.338c.546 0 .677.033.808.382L2.378-.12c.055.153.087.24.23.24s.163-.065.217-.218l1.102-3.087L5.04-.087c.044.12.076.207.218.207s.175-.098.218-.207l1.277-3.578c.196-.546.534-.688.916-.699"/><path id="i" d="M5.542-4.364v-.338c-.251.022-.567.033-.818.033l-.95-.033v.338c.339.011.513.197.513.47 0 .109-.01.13-.065.261L3.12-.949 1.91-3.884c-.045-.109-.066-.152-.066-.196 0-.284.403-.284.61-.284v-.338l-1.189.033c-.294 0-.73-.011-1.058-.033v.338c.524 0 .731 0 .884.382L2.727 0l-.272.644c-.24.6-.546 1.352-1.244 1.352-.055 0-.306 0-.513-.196.338-.044.426-.284.426-.458A.44.44 0 0 0 .665.884c-.218 0-.458.141-.458.469 0 .49.458.883 1.004.883.687 0 1.134-.621 1.396-1.243l1.92-4.658c.284-.688.84-.699 1.015-.699"/><path id="o" d="M2.095-4.876c0-.284-.186-.579-.579-.579-.218 0-.37.11-.436.175-.01.022-.033.033-.033.033s-.022-.153-.022-.197c0-.349.077-1.134.764-1.81.131-.131.131-.153.131-.186 0-.076-.055-.12-.11-.12-.12 0-1.025.83-1.025 2.116 0 .655.262 1.146.731 1.146.382 0 .579-.295.579-.578m2.116 0c0-.284-.186-.579-.578-.579-.218 0-.371.11-.437.175-.01.022-.032.033-.032.033s-.022-.153-.022-.197c0-.349.076-1.134.763-1.81.131-.131.131-.153.131-.186 0-.076-.054-.12-.109-.12-.12 0-1.025.83-1.025 2.116 0 .655.262 1.146.73 1.146.383 0 .579-.295.579-.578"/><path id="s" d="M2.247-6.425c0-.655-.262-1.146-.73-1.146-.382 0-.579.295-.579.578s.186.578.578.578c.219 0 .371-.109.437-.174.01-.022.032-.033.032-.033s.022.153.022.197c0 .349-.076 1.134-.763 1.81-.131.131-.131.153-.131.186 0 .076.054.12.109.12.12 0 1.025-.83 1.025-2.116m2.117 0c0-.655-.262-1.146-.731-1.146-.382 0-.578.295-.578.578s.185.578.578.578c.218 0 .37-.109.436-.174.011-.022.033-.033.033-.033s.022.153.022.197c0 .349-.077 1.134-.764 1.81-.13.131-.13.153-.13.186 0 .076.054.12.108.12.12 0 1.026-.83 1.026-2.116"/><path id="c" d="M5.177-.347c0-.346-.323-.346-.49-.346H3.633v-6.265c0-.18 0-.49-.346-.49-.204 0-.275.108-.347.263-.227.514-.622 1.148-1.255 1.195-.18.012-.43.036-.43.347 0 .203.119.347.382.347.67 0 1.183-.502 1.22-.526v5.129H1.804c-.167 0-.49 0-.49.346s.323.347.49.347h2.881c.168 0 .49 0 .49-.347"/><path id="b" d="M5.81-.347c0-.346-.31-.346-.478-.346h-.418L3.37-2.654l1.375-1.805h.419c.167 0 .478 0 .478-.347s-.311-.347-.478-.347H3.838c-.168 0-.479 0-.479.347s.287.347.574.347l-.896 1.231-.92-1.231c.274 0 .561 0 .561-.347s-.31-.347-.478-.347H.873c-.168 0-.478 0-.478.347s.31.347.478.347h.418l1.423 1.805-1.495 1.96H.813c-.167 0-.49 0-.49.347S.646 0 .813 0h1.315c.167 0 .478 0 .478-.347s-.275-.346-.598-.346L3.037-2.2 4.113-.693c-.3 0-.586 0-.586.346s.31.347.478.347h1.327c.167 0 .478 0 .478-.347"/><path id="a" d="M5.547-3.646c0-2.224-1.183-3.802-2.475-3.802-1.303 0-2.474 1.602-2.474 3.79C.598-1.435 1.78.143 3.072.143c1.304 0 2.475-1.602 2.475-3.79m-.777-.132c0 1.77-.753 3.228-1.698 3.228S1.375-1.997 1.375-3.778 2.2-6.755 3.072-6.755 4.77-5.559 4.77-3.778"/></defs><g stroke="none" stroke-miterlimit="10" stroke-width=".4"><g transform="matrix(1 0 0 1 -28.346 3.652)"><use xlink:href="#a" x="-26.604" y="-52.881"/><use xlink:href="#b" x="-20.447" y="-52.881"/><use xlink:href="#b" x="-14.29" y="-52.881"/><use xlink:href="#b" x="-8.133" y="-52.881"/><use xlink:href="#b" x="2.008" y="-52.881"/><use xlink:href="#b" x="8.165" y="-52.881"/><use xlink:href="#b" x="14.322" y="-52.881"/><use xlink:href="#b" x="20.479" y="-52.881"/></g><g transform="matrix(1 0 0 1 42.52 3.652)"><use xlink:href="#c" x="-26.604" y="-52.881"/><use xlink:href="#a" x="-20.447" y="-52.881"/><use xlink:href="#b" x="-14.29" y="-52.881"/><use xlink:href="#b" x="-8.133" y="-52.881"/><use xlink:href="#b" x="2.008" y="-52.881"/><use xlink:href="#b" x="8.165" y="-52.881"/><use xlink:href="#b" x="14.322" y="-52.881"/><use xlink:href="#b" x="20.479" y="-52.881"/></g><g transform="matrix(1 0 0 1 113.386 3.652)"><use xlink:href="#c" x="-26.604" y="-52.881"/><use xlink:href="#c" x="-20.447" y="-52.881"/><use xlink:href="#a" x="-14.29" y="-52.881"/><use xlink:href="#b" x="-8.133" y="-52.881"/><use xlink:href="#b" x="2.008" y="-52.881"/><use xlink:href="#b" x="8.165" y="-52.881"/><use xlink:href="#b" x="14.322" y="-52.881"/><use xlink:href="#b" x="20.479" y="-52.881"/></g><g transform="matrix(1 0 0 1 184.252 3.652)"><use xlink:href="#c" x="-26.604" y="-52.881"/><use xlink:href="#c" x="-20.447" y="-52.881"/><use xlink:href="#c" x="-14.29" y="-52.881"/><use xlink:href="#a" x="-8.133" y="-52.881"/><use xlink:href="#b" x="2.008" y="-52.881"/><use xlink:href="#b" x="8.165" y="-52.881"/><use xlink:href="#b" x="14.322" y="-52.881"/><use xlink:href="#b" x="20.479" y="-52.881"/></g><g transform="matrix(1 0 0 1 255.118 3.652)"><use xlink:href="#c" x="-26.604" y="-52.881"/><use xlink:href="#c" x="-20.447" y="-52.881"/><use xlink:href="#c" x="-14.29" y="-52.881"/><use xlink:href="#c" x="-8.133" y="-52.881"/><use xlink:href="#a" x="2.008" y="-52.881"/><use xlink:href="#b" x="8.165" y="-52.881"/><use xlink:href="#b" x="14.322" y="-52.881"/><use xlink:href="#b" x="20.479" y="-52.881"/></g><g transform="matrix(1 0 0 1 -28.346 23.785)"><use xlink:href="#d" x="-20.286" y="-52.881"/><use xlink:href="#e" x="-14.831" y="-52.881"/><use xlink:href="#f" x="-8.766" y="-52.881"/><use xlink:href="#g" x="-3.922" y="-52.881"/><use xlink:href="#h" x="-.289" y="-52.881"/><use xlink:href="#i" x="5.471" y="-52.881"/><use xlink:href="#j" x="11.231" y="-52.881"/><use xlink:href="#f" x="15.474" y="-52.881"/><use xlink:href="#f" x="-21.049" y="-38.435"/><use xlink:href="#e" x="-16.206" y="-38.435"/><use xlink:href="#k" x="-10.14" y="-38.435"/><use xlink:href="#d" x="-5.297" y="-38.435"/><use xlink:href="#l" x=".463" y="-38.435"/><use xlink:href="#m" x="6.529" y="-38.435"/><use xlink:href="#e" x="9.562" y="-38.435"/><use xlink:href="#n" x="15.627" y="-38.435"/></g><g transform="matrix(1 0 0 1 42.52 23.85)"><use xlink:href="#o" x="-26.351" y="-52.881"/><use xlink:href="#p" x="-21.202" y="-52.881"/><use xlink:href="#d" x="-17.864" y="-52.881"/><use xlink:href="#q" x="-12.409" y="-52.881"/><use xlink:href="#q" x="-9.377" y="-52.881"/><use xlink:href="#d" x="-6.344" y="-52.881"/><use xlink:href="#r" x="-1.195" y="-52.881"/><use xlink:href="#m" x="6.682" y="-52.881"/><use xlink:href="#e" x="9.714" y="-52.881"/><use xlink:href="#n" x="15.78" y="-52.881"/><use xlink:href="#s" x="21.234" y="-52.881"/><use xlink:href="#h" x="-10.288" y="-38.435"/><use xlink:href="#i" x="-4.528" y="-38.435"/><use xlink:href="#j" x="1.232" y="-38.435"/><use xlink:href="#f" x="5.476" y="-38.435"/></g><g transform="matrix(1 0 0 1 113.386 23.785)"><use xlink:href="#j" x="-20.586" y="-52.881"/><use xlink:href="#r" x="-16.648" y="-52.881"/><use xlink:href="#d" x="-9.077" y="-52.881"/><use xlink:href="#g" x="-3.622" y="-52.881"/><use xlink:href="#h" x=".011" y="-52.881"/><use xlink:href="#i" x="5.771" y="-52.881"/><use xlink:href="#j" x="11.531" y="-52.881"/><use xlink:href="#f" x="15.774" y="-52.881"/><use xlink:href="#f" x="-21.049" y="-38.435"/><use xlink:href="#e" x="-16.206" y="-38.435"/><use xlink:href="#k" x="-10.14" y="-38.435"/><use xlink:href="#d" x="-5.297" y="-38.435"/><use xlink:href="#l" x=".463" y="-38.435"/><use xlink:href="#m" x="6.529" y="-38.435"/><use xlink:href="#e" x="9.562" y="-38.435"/><use xlink:href="#n" x="15.627" y="-38.435"/></g><g transform="matrix(1 0 0 1 184.252 23.785)"><use xlink:href="#j" x="-24.24" y="-52.881"/><use xlink:href="#t" x="-19.997" y="-52.881"/><use xlink:href="#u" x="-13.931" y="-52.881"/><use xlink:href="#f" x="-9.655" y="-52.881"/><use xlink:href="#f" x="-4.811" y="-52.881"/><use xlink:href="#g" x=".032" y="-52.881"/><use xlink:href="#h" x="3.665" y="-52.881"/><use xlink:href="#i" x="9.425" y="-52.881"/><use xlink:href="#j" x="15.185" y="-52.881"/><use xlink:href="#f" x="19.429" y="-52.881"/><use xlink:href="#f" x="-21.049" y="-38.435"/><use xlink:href="#e" x="-16.206" y="-38.435"/><use xlink:href="#k" x="-10.14" y="-38.435"/><use xlink:href="#d" x="-5.297" y="-38.435"/><use xlink:href="#l" x=".463" y="-38.435"/><use xlink:href="#m" x="6.529" y="-38.435"/><use xlink:href="#e" x="9.562" y="-38.435"/><use xlink:href="#n" x="15.627" y="-38.435"/></g><g transform="matrix(1 0 0 1 255.118 23.845)"><use xlink:href="#p" x="-21.671" y="-52.881"/><use xlink:href="#d" x="-18.333" y="-52.881"/><use xlink:href="#v" x="-12.878" y="-52.881"/><use xlink:href="#u" x="-6.813" y="-52.881"/><use xlink:href="#g" x="-2.537" y="-52.881"/><use xlink:href="#h" x="1.096" y="-52.881"/><use xlink:href="#i" x="6.856" y="-52.881"/><use xlink:href="#j" x="12.616" y="-52.881"/><use xlink:href="#f" x="16.86" y="-52.881"/><use xlink:href="#f" x="-21.049" y="-38.435"/><use xlink:href="#e" x="-16.206" y="-38.435"/><use xlink:href="#k" x="-10.14" y="-38.435"/><use xlink:href="#d" x="-5.297" y="-38.435"/><use xlink:href="#l" x=".463" y="-38.435"/><use xlink:href="#m" x="6.529" y="-38.435"/><use xlink:href="#e" x="9.562" y="-38.435"/><use xlink:href="#n" x="15.627" y="-38.435"/></g></g></svg>