<svg xmlns="http://www.w3.org/2000/svg" xmlns:xlink="http://www.w3.org/1999/xlink" width="363.366" height="237.125" viewBox="-72 -72 272.524 177.844"><defs><path id="p" d="M7.822 0v-.338h-.197c-.654 0-.807-.077-.927-.437L4.342-7.593c-.055-.142-.077-.218-.251-.218s-.207.066-.262.218L1.571-1.069c-.196.556-.633.72-1.222.73V0l1.113-.033L2.716 0v-.338c-.545 0-.818-.273-.818-.557 0-.032.011-.141.022-.163l.502-1.43h2.694l.579 1.67c.01.043.032.109.032.153 0 .327-.61.327-.905.327V0c.393-.033 1.156-.033 1.57-.033zM4.996-2.825H2.542l1.222-3.546z"/><path id="i" d="M7.102-1.996c0-.95-.895-1.768-2.106-1.899 1.059-.207 1.811-.905 1.811-1.712 0-.95-1.003-1.844-2.422-1.844H.393v.338h.262c.84 0 .861.12.861.513v5.75c0 .392-.021.512-.861.512H.393V0h4.276C6.12 0 7.102-.97 7.102-1.996M5.749-5.607c0 .698-.534 1.614-1.745 1.614H2.422v-2.683c0-.36.022-.437.534-.437H4.31c1.058 0 1.44.928 1.44 1.506m.262 3.6c0 .774-.567 1.669-1.691 1.669H2.956c-.512 0-.534-.077-.534-.437v-2.978h2.05c1.08 0 1.539 1.015 1.539 1.746"/><path id="m" d="M3.633 0v-.338h-.284c-.862 0-.894-.12-.894-.513V-6.6c0-.393.032-.513.894-.513h.284v-.338c-.382.033-1.244.033-1.658.033-.426 0-1.288 0-1.67-.033v.338H.59c.862 0 .895.12.895.513v5.75c0 .392-.033.512-.895.512H.305V0C.687-.033 1.55-.033 1.964-.033c.425 0 1.287 0 1.669.033"/><path id="j" d="M9.59 0v-.338h-.263c-.84 0-.862-.12-.862-.513V-6.6c0-.393.022-.513.862-.513h.262v-.338H7.745c-.283 0-.283.011-.36.207L4.996-1.102 2.63-7.21c-.098-.24-.13-.24-.382-.24H.404v.338h.261c.84 0 .862.12.862.513v5.455c0 .294 0 .807-1.123.807V0L1.68-.033 2.956 0v-.338c-1.123 0-1.123-.513-1.123-.807v-5.88h.01L4.474-.24c.054.142.109.24.218.24.12 0 .153-.087.196-.207l2.684-6.906h.01V-.85c0 .393-.021.513-.861.513h-.262V0c.404-.033 1.146-.033 1.571-.033s1.156 0 1.56.033"/><path id="k" d="M6.807-5.422c0-1.069-1.08-2.029-2.574-2.029H.382v.338h.262c.84 0 .861.12.861.513v5.75c0 .392-.021.512-.861.512H.382V0C.764-.033 1.57-.033 1.985-.033S3.218-.033 3.6 0v-.338h-.262c-.84 0-.862-.12-.862-.513v-2.596H4.32c1.31 0 2.487-.884 2.487-1.975m-1.123 0c0 .513 0 1.691-1.735 1.691H2.444v-2.945c0-.36.021-.437.534-.437h.971c1.735 0 1.735 1.157 1.735 1.691"/><path id="l" d="M5.444-2.03c0-1.09-.72-1.985-1.637-2.203L2.411-4.57a1.425 1.425 0 0 1-1.102-1.385c0-.764.59-1.43 1.44-1.43 1.822 0 2.062 1.79 2.127 2.28.011.066.011.131.131.131.142 0 .142-.054.142-.261V-7.43c0-.186 0-.262-.12-.262-.076 0-.087.011-.164.142l-.381.622c-.328-.317-.775-.764-1.746-.764-1.21 0-2.127.96-2.127 2.116 0 .906.578 1.702 1.429 1.997.12.043.676.174 1.44.36.295.076.622.153.927.556.23.284.338.644.338 1.004 0 .774-.545 1.56-1.461 1.56-.317 0-1.146-.055-1.724-.59-.633-.588-.665-1.287-.676-1.68-.011-.108-.099-.108-.131-.108-.142 0-.142.076-.142.272v2.182C.61.164.61.24.73.24.807.24.818.218.895.098c0 0 .032-.043.392-.622.338.371 1.037.764 2.008.764C4.57.24 5.444-.83 5.444-2.03"/><path id="n" d="m7.473-4.93-.208-2.455H.6L.393-4.931h.272C.818-6.687.982-7.047 2.63-7.047c.196 0 .48 0 .59.022.228.043.228.163.228.414v5.75c0 .37 0 .523-1.145.523h-.437V0c.448-.033 1.56-.033 2.062-.033S5.553-.033 6 0v-.338h-.436c-1.146 0-1.146-.153-1.146-.524V-6.61c0-.218 0-.37.197-.414.12-.022.414-.022.621-.022 1.648 0 1.811.36 1.964 2.116z"/><path id="o" d="M7.81-7.113v-.338l-1.286.033-1.299-.033v.338c1.124 0 1.124.513 1.124.808v3.785c0 1.55-1.058 2.422-2.094 2.422-.513 0-1.8-.273-1.8-2.346V-6.6c0-.393.021-.513.861-.513h.262v-.338c-.382.033-1.189.033-1.603.033s-1.233 0-1.615-.033v.338h.262c.84 0 .862.12.862.513v4.113C1.484-.95 2.749.24 4.233.24c1.254 0 2.236-1.015 2.422-2.258.032-.218.032-.317.032-.753v-3.49c0-.36 0-.852 1.124-.852"/><path id="g" d="M5.667-1.064v-.67h-.263v.67c0 .681-.287.777-.455.777-.454 0-.454-.634-.454-.813v-2.092c0-.646 0-1.124-.526-1.59-.418-.383-.956-.55-1.482-.55-.98 0-1.734.646-1.734 1.423 0 .346.227.514.502.514a.47.47 0 0 0 .49-.49c0-.49-.43-.49-.61-.49.276-.503.85-.718 1.328-.718.55 0 1.255.454 1.255 1.53v.479C1.315-3.05.406-2.044.406-1.124c0 .945 1.1 1.244 1.83 1.244A1.63 1.63 0 0 0 3.79-.933c.048.562.418.993.932.993.251 0 .945-.168.945-1.124m-1.949-.622c0 1.172-.873 1.566-1.387 1.566-.586 0-1.076-.43-1.076-1.004 0-1.578 2.033-1.721 2.463-1.745z"/><path id="t" d="M7.627-2.188c0-.968-.872-1.925-2.295-2.08 1.136-.215 1.96-.98 1.96-1.877 0-1.028-1.04-2.02-2.606-2.02H.514v.346h.24c.86 0 .896.12.896.562v6.348c0 .443-.036.562-.897.562H.514V0H5.01c1.542 0 2.618-1.04 2.618-2.188M6.241-6.145c0 .79-.622 1.781-1.95 1.781H2.559V-7.34c0-.395.024-.479.55-.479h1.507c1.195 0 1.626 1.028 1.626 1.674M6.539-2.2c0 .969-.729 1.853-1.9 1.853h-1.53c-.527 0-.55-.083-.55-.478v-3.3h2.235c1.148 0 1.745 1.005 1.745 1.925"/><path id="a" d="M7.795-2.774c0-.131 0-.203-.132-.203-.12 0-.131.06-.131.144-.108 1.9-1.495 2.737-2.654 2.737-.837 0-3.12-.502-3.12-3.993 0-3.455 2.247-3.98 3.108-3.98 1.255 0 2.355 1.063 2.594 2.857.024.143.024.179.167.179.168 0 .168-.036.168-.275v-2.833c0-.216 0-.275-.12-.275-.072 0-.083.023-.155.143l-.586.944c-.538-.669-1.35-1.087-2.212-1.087C2.534-8.416.646-6.528.646-4.09c0 2.475 1.912 4.34 4.076 4.34 1.96 0 3.073-1.71 3.073-3.025"/><path id="h" d="M4.854-1.423c0-.107-.084-.107-.12-.107-.107 0-.12.036-.155.18-.263.848-.909 1.207-1.554 1.207-.73 0-1.698-.634-1.698-2.451 0-1.985 1.016-2.475 1.614-2.475.454 0 1.112.18 1.387.646-.144 0-.586 0-.586.49 0 .287.203.49.49.49.275 0 .502-.167.502-.514 0-.801-.837-1.375-1.805-1.375-1.399 0-2.51 1.243-2.51 2.75C.418-1.052 1.565.12 2.916.12c1.578 0 1.937-1.435 1.937-1.543"/><path id="c" d="M6.157 0v-.347c-.813 0-.909-.083-.909-.67v-7.28l-1.661.132v.346c.813 0 .908.084.908.67v2.642a1.86 1.86 0 0 0-1.494-.765C1.614-5.272.418-4.101.418-2.57.418-1.052 1.554.12 2.87.12c.909 0 1.435-.598 1.602-.825V.12zM4.47-1.399c0 .215 0 .251-.167.514-.287.419-.777.765-1.375.765-.31 0-1.602-.12-1.602-2.438 0-.861.143-1.34.406-1.734.24-.37.718-.741 1.316-.741.74 0 1.16.538 1.279.73.143.202.143.226.143.441z"/><path id="d" d="M4.866-1.423c0-.071-.06-.12-.132-.12-.095 0-.12.06-.143.12C4.28-.418 3.479-.143 2.977-.143s-1.71-.335-1.71-2.403v-.228H4.58c.263 0 .287 0 .287-.227 0-1.207-.646-2.331-2.092-2.331C1.41-5.332.359-4.101.359-2.618.359-1.04 1.579.12 2.905.12c1.423 0 1.96-1.292 1.96-1.543M4.125-3H1.279c.096-1.877 1.148-2.092 1.483-2.092 1.279 0 1.35 1.686 1.363 2.092"/><path id="u" d="M5.978 0v-.347c-.323 0-.694 0-1.029-.49L3.347-3.168l-.083-.12c0-.036.753-.681.849-.777.824-.717 1.35-.729 1.602-.741v-.347c-.24.024-.55.024-.909.024-.31 0-.92 0-1.196-.024v.347c.204.012.347.12.347.31 0 .24-.25.455-.25.455l-1.71 1.507v-5.763l-1.662.132v.346c.813 0 .908.084.908.67v6.264c0 .538-.131.538-.908.538V0c.334-.024.908-.024 1.267-.024s.932 0 1.267.024v-.347c-.765 0-.908 0-.908-.538v-1.267l.765-.67 1.147 1.65c.18.251.263.383.263.55 0 .216-.167.275-.418.275V0c.299-.024.885-.024 1.208-.024.514 0 .538 0 1.052.024"/><path id="r" d="M2.965 0v-.347c-.765 0-.909 0-.909-.538v-7.412l-1.661.132v.346c.812 0 .908.084.908.67v6.264c0 .538-.131.538-.908.538V0c.334-.024.92-.024 1.279-.024s.956 0 1.29.024"/><path id="s" d="M6.229 0v-.347c-.598 0-.897 0-.909-.358v-2.2c0-1.112 0-1.447-.275-1.83-.347-.465-.909-.537-1.315-.537-1.16 0-1.614.992-1.71 1.231h-.012v-1.231l-1.625.131v.347c.813 0 .908.084.908.67v3.24c0 .537-.131.537-.908.537V0c.31-.024.956-.024 1.29-.024.347 0 .993 0 1.304.024v-.347c-.765 0-.909 0-.909-.538v-2.223c0-1.256.825-1.925 1.566-1.925s.909.61.909 1.339v2.81c0 .537-.132.537-.909.537V0c.311-.024.957-.024 1.292-.024.346 0 .992 0 1.303.024"/><path id="b" d="M5.487-2.558c0-1.543-1.171-2.774-2.558-2.774-1.435 0-2.57 1.267-2.57 2.774C.359-1.028 1.554.12 2.917.12c1.41 0 2.57-1.172 2.57-2.678m-.908-.108c0 .418 0 1.16-.311 1.722a1.56 1.56 0 0 1-1.339.8c-.442 0-.98-.19-1.327-.777-.323-.538-.335-1.243-.335-1.745 0-.454 0-1.184.37-1.722.336-.514.862-.705 1.28-.705.466 0 .968.215 1.291.682.37.55.37 1.303.37 1.745"/><path id="q" d="M7.305-5.954c0-1.16-1.16-2.211-2.774-2.211H.502v.346h.24c.86 0 .896.12.896.562v6.348c0 .443-.036.562-.897.562H.502V0C.79-.024 1.77-.024 2.116-.024c.359 0 1.339 0 1.626.024v-.347h-.24c-.86 0-.896-.12-.896-.562v-2.893h2.02c1.4 0 2.679-.944 2.679-2.152m-1.112 0c0 .502 0 1.865-1.949 1.865H2.582V-7.34c0-.395.024-.479.55-.479h1.124c1.937 0 1.937 1.351 1.937 1.865"/><path id="f" d="M6.073-2.582c0-1.519-1.124-2.69-2.427-2.69-1.052 0-1.614.753-1.65.8v-.8l-1.661.131v.347c.837 0 .908.084.908.61v5.619c0 .538-.131.538-.908.538v.346c.31-.024.956-.024 1.29-.024.348 0 .993 0 1.304.024v-.346c-.765 0-.909 0-.909-.538v-2.08c.216.298.706.765 1.47.765 1.376 0 2.583-1.16 2.583-2.702m-.908 0C5.165-1.16 4.352-.12 3.43-.12a1.4 1.4 0 0 1-.956-.382c-.275-.275-.455-.514-.455-.849v-2.463c0-.227 0-.239.132-.43A1.72 1.72 0 0 1 3.55-5.01c.896 0 1.614 1.088 1.614 2.427"/><path id="e" d="M4.208-1.518c0-.646-.394-1.028-.502-1.136-.43-.37-.753-.442-1.542-.586-.359-.072-1.231-.239-1.231-.956 0-.37.25-.92 1.327-.92 1.303 0 1.374 1.111 1.398 1.482.012.095.096.095.132.095.131 0 .131-.06.131-.275v-1.243c0-.215 0-.275-.12-.275-.095 0-.322.263-.406.37-.37-.298-.741-.37-1.124-.37-1.446 0-1.876.789-1.876 1.447 0 .131 0 .55.454.968.382.335.789.418 1.339.526.657.131.813.167 1.112.406.215.18.37.443.37.778 0 .514-.299 1.087-1.35 1.087C1.53-.12.955-.574.692-1.77a2 2 0 0 0-.06-.238C.61-2.056.563-2.056.527-2.056c-.131 0-.131.06-.131.275v1.626c0 .215 0 .275.12.275.059 0 .07-.012.274-.263.06-.084.06-.108.24-.3C1.481.12 2.127.12 2.33.12c1.256 0 1.877-.694 1.877-1.638"/></defs><g stroke="#000" stroke-miterlimit="10" stroke-width=".4"><path fill="#e0e0e0" stroke="none" d="M-26.446 94.306H7.569V60.29h102.047V-41.757H75.601v34.016H-26.446Z"/><path fill="none" stroke-width=".398504" d="M-26.446 94.306h136.062M-26.446 60.29h136.062M-26.446 26.274h136.062M-26.446-7.74h136.062M-26.446-41.747h136.062M-26.446 94.306V-41.757M7.569 94.306V-41.757M41.585 94.306V-41.757M75.601 94.306V-41.757m34.006 136.063V-41.757M-26.446-41.757h-34.016v34.016h34.016"/><g stroke="none" transform="matrix(1 0 0 1 39.225 -142.566)"><use xlink:href="#a" x="-26.446" y="94.306"/><use xlink:href="#b" x="-17.994" y="94.306"/><use xlink:href="#c" x="-11.813" y="94.306"/><use xlink:href="#d" x="-5.31" y="94.306"/><use xlink:href="#e" x="3.788" y="94.306"/><use xlink:href="#f" x="8.403" y="94.306"/><use xlink:href="#g" x="14.906" y="94.306"/><use xlink:href="#h" x="20.765" y="94.306"/><use xlink:href="#d" x="25.965" y="94.306"/></g><g stroke="none" transform="matrix(1 0 0 1 -29.586 -115.33)"><use xlink:href="#i" x="-26.446" y="94.306"/><use xlink:href="#j" x="-18.723" y="94.306"/><use xlink:href="#k" x="-8.719" y="94.306"/></g><g stroke="none" transform="matrix(1 0 0 1 5.259 -115.33)"><use xlink:href="#l" x="-26.446" y="94.306"/><use xlink:href="#j" x="-20.381" y="94.306"/><use xlink:href="#k" x="-10.377" y="94.306"/></g><g stroke="none" transform="matrix(1 0 0 1 42.307 -115.33)"><use xlink:href="#l" x="-26.446" y="94.306"/><use xlink:href="#m" x="-20.381" y="94.306"/><use xlink:href="#k" x="-16.443" y="94.306"/></g><g stroke="none" transform="matrix(1 0 0 1 75.418 -115.33)"><use xlink:href="#n" x="-26.446" y="94.306"/><use xlink:href="#m" x="-18.57" y="94.306"/><use xlink:href="#k" x="-14.632" y="94.306"/></g><g stroke="none" transform="matrix(1 0 0 1 41.244 -13.282)"><use xlink:href="#l" x="-26.446" y="94.306"/><use xlink:href="#l" x="-20.381" y="94.306"/><use xlink:href="#k" x="-14.316" y="94.306"/></g><g stroke="none" transform="matrix(1 0 0 1 73.143 -13.222)"><use xlink:href="#k" x="-26.446" y="94.306"/><use xlink:href="#o" x="-19.017" y="94.306"/><use xlink:href="#p" x="-10.836" y="94.306"/></g><g stroke="none" transform="matrix(1 0 0 1 107.159 -13.222)"><use xlink:href="#k" x="-26.446" y="94.306"/><use xlink:href="#o" x="-19.017" y="94.306"/><use xlink:href="#p" x="-10.836" y="94.306"/></g><path fill="none" stroke-width=".398504" d="M69.64-37.658c8.795-15.234 85.33-15.234 95.606 2.564"/><path stroke-width=".398496" d="M68.09-34.972 71.78-38l-2.19.428-.724-2.11Z"/><g stroke="none" transform="matrix(1 0 0 1 178.368 -115.078)"><use xlink:href="#q" x="-26.446" y="94.306"/><use xlink:href="#r" x="-18.484" y="94.306"/><use xlink:href="#g" x="-15.233" y="94.306"/><use xlink:href="#s" x="-9.374" y="94.306"/><use xlink:href="#d" x="-2.871" y="94.306"/></g><path fill="none" stroke-width=".398504" d="M143.632-13.41h45.355v45.354h-45.355ZM166.31-13.41v45.354M188.987 9.266h-45.355"/><path fill="none" stroke-width=".398504" d="M152.428 30.68c-1.71 2.959-5.961 13.362-4.19 16.43"/><path stroke-width=".398496" d="m153.978 27.993-3.69 3.028 2.19-.428.723 2.11Z"/><g stroke="none" transform="matrix(1 0 0 1 161.36 -32.874)"><use xlink:href="#t" x="-26.446" y="94.306"/><use xlink:href="#r" x="-18.162" y="94.306"/><use xlink:href="#b" x="-14.91" y="94.306"/><use xlink:href="#h" x="-8.729" y="94.306"/><use xlink:href="#u" x="-3.851" y="94.306"/></g></g></svg>