<svg xmlns="http://www.w3.org/2000/svg" xmlns:xlink="http://www.w3.org/1999/xlink" width="651.633" height="125.856" viewBox="-72 -72 488.725 94.392"><defs><path id="n" d="M2.2-4.579a.58.58 0 0 0-.574-.574.577.577 0 0 0-.586.574.58.58 0 1 0 1.16 0m0 3.993a.58.58 0 0 0-.574-.574.577.577 0 0 0-.586.574.58.58 0 1 0 1.16 0"/><path id="m" d="M5.356-1.985c0-1.219-.86-1.757-1.793-2.33.597-.324 1.47-.874 1.47-1.878 0-1.04-1.004-1.757-2.104-1.757-1.184 0-2.116.873-2.116 1.96 0 .407.12.813.454 1.22.132.155.144.167.98.753C1.088-3.479.49-2.678.49-1.805.49-.538 1.698.25 2.917.25c1.327 0 2.439-.98 2.439-2.236M4.543-6.18c0 .73-.526 1.315-1.22 1.698l-1.386-.909c-.156-.107-.634-.418-.634-1.004 0-.777.813-1.267 1.614-1.267.86 0 1.626.621 1.626 1.482m.263 4.579c0 .909-.92 1.53-1.877 1.53-1.016 0-1.889-.741-1.889-1.733 0-.933.682-1.686 1.459-2.045l1.446.945c.311.203.861.574.861 1.303"/><path id="k" d="m7.137-5.475-.31-2.666H.49v.346h.24c.86 0 .896.12.896.562v6.324c0 .443-.036.562-.897.562H.49V0C.777-.024 1.841-.024 2.2-.024c.418 0 1.47 0 1.817.024v-.347h-.359c-1.04 0-1.064-.143-1.064-.574v-2.976h1.052c1.124 0 1.244.394 1.244 1.398h.263v-3.144H4.89c0 1.004-.12 1.399-1.244 1.399H2.594v-3.073c0-.394.024-.478.55-.478H4.64c1.721 0 2.068.634 2.235 2.32z"/><path id="l" d="M3.24-2.26v-.645H.132v.645z"/><path id="o" d="M4.902 0v-.347H4.53c-1.052 0-1.088-.143-1.088-.574v-6.742c0-.275 0-.287-.239-.287-.287.323-.885.765-2.116.765v.347c.275 0 .873 0 1.53-.311v6.228c0 .43-.036.574-1.088.574h-.37V0c.322-.024 1.482-.024 1.877-.024s1.542 0 1.865.024"/><path id="p" d="M5.356-2.439c0-1.59-1.112-2.654-2.307-2.654-1.064 0-1.459.92-1.579 1.255v-.322c0-3.025 1.471-3.503 2.117-3.503.43 0 .86.131 1.087.49-.143 0-.597 0-.597.49 0 .263.179.49.49.49.299 0 .502-.18.502-.526 0-.621-.454-1.231-1.494-1.231C2.068-7.95.49-6.408.49-3.778.49-.49 1.925.252 2.941.252c1.303 0 2.415-1.137 2.415-2.69m-.98-.012c0 .61 0 1.148-.228 1.602-.298.574-.729.777-1.207.777-.753 0-1.112-.67-1.22-.92-.107-.311-.227-.897-.227-1.734 0-.944.43-2.128 1.507-2.128.657 0 1.004.443 1.183.849.192.442.192 1.04.192 1.554"/><path id="j" d="m8.022-5.44-.215-2.666H.634L.418-5.44h.263C.85-7.329.956-7.759 2.845-7.759c.216 0 .55 0 .646.024.239.036.251.18.251.454v6.36c0 .407 0 .574-1.172.574h-.43V0c.383-.024 1.614-.024 2.08-.024s1.71 0 2.092.024v-.347h-.43C4.71-.347 4.71-.514 4.71-.92v-6.36c0-.299.024-.406.216-.454.095-.024.442-.024.669-.024 1.889 0 1.997.43 2.164 2.32z"/><path id="q" d="M5.356-2.044c0-1.1-.885-1.961-2.032-2.164 1.04-.3 1.71-1.172 1.71-2.104 0-.945-.981-1.638-2.14-1.638-1.196 0-2.081.73-2.081 1.602 0 .478.37.574.55.574.25 0 .538-.18.538-.538 0-.383-.287-.55-.55-.55-.072 0-.096 0-.132.012.455-.813 1.579-.813 1.638-.813.395 0 1.172.18 1.172 1.35 0 .228-.036.897-.383 1.411-.358.526-.765.562-1.088.574l-.358.036c-.203.012-.251.024-.251.132 0 .12.06.12.275.12h.55c1.016 0 1.47.836 1.47 1.984 0 1.566-.813 1.984-1.399 1.984-.574 0-1.554-.275-1.9-1.064.382.06.729-.155.729-.586a.565.565 0 0 0-.586-.585c-.287 0-.598.167-.598.621C.49-.622 1.554.251 2.881.251c1.423 0 2.475-1.088 2.475-2.295"/><path id="r" d="M5.26-2.008h-.263c-.036.203-.131.86-.25 1.052-.084.107-.766.107-1.125.107H1.411c.322-.275 1.052-1.04 1.363-1.327C4.59-3.85 5.26-4.47 5.26-5.655c0-1.375-1.088-2.295-2.474-2.295s-2.2 1.183-2.2 2.212c0 .61.526.61.562.61.25 0 .562-.18.562-.563 0-.334-.228-.562-.562-.562a.5.5 0 0 0-.168.012c.227-.813.873-1.362 1.65-1.362 1.016 0 1.638.848 1.638 1.948 0 1.016-.586 1.901-1.267 2.666L.586-.287V0h4.363z"/><path id="i" d="M8.273-7.819v-.346c-.31.024-.956.024-1.291.024-.347 0-.992 0-1.303-.024v.346c1.135 0 1.135.562 1.135.885v4.184c0 1.674-1.135 2.654-2.26 2.654-.716 0-1.96-.478-1.96-2.57v-4.59c0-.443.036-.563.897-.563h.239v-.346c-.287.024-1.267.024-1.614.024-.359 0-1.339 0-1.626-.024v.346h.24c.86 0 .896.12.896.562v4.52C1.626-1.005 3.013.25 4.53.25c1.662 0 2.606-1.626 2.606-2.821v-4.52c0-.729.92-.729 1.136-.729"/><path id="e" d="M5.738-6.025v-.79c0-.37-.071-.49-.478-.49H.86c-.167 0-.49 0-.49.347s.323.347.49.347h.36v5.918H.86c-.167 0-.49 0-.49.346S.694 0 .86 0h1.71c.168 0 .479 0 .479-.347s-.311-.346-.479-.346h-.573v-2.619h1.625c0 .419 0 .646.395.646.383 0 .383-.275.383-.49V-4.16c0-.216 0-.49-.383-.49-.395 0-.395.227-.395.645H1.997v-2.606H4.96v.586c0 .215 0 .49.383.49.394 0 .394-.263.394-.49"/><path id="d" d="M5.177-.347c0-.346-.323-.346-.49-.346H3.633v-6.265c0-.18 0-.49-.346-.49-.204 0-.275.108-.347.263-.227.514-.622 1.148-1.255 1.195-.18.012-.43.036-.43.347 0 .203.119.347.382.347.67 0 1.183-.502 1.22-.526v5.129H1.804c-.167 0-.49 0-.49.346s.323.347.49.347h2.881c.168 0 .49 0 .49-.347"/><path id="c" d="M5.703-3.646c0-.395-.371-.395-.538-.395H3.467v-1.71c0-.155 0-.537-.383-.537-.394 0-.394.37-.394.538v1.71H.98c-.155 0-.538 0-.538.382 0 .394.371.394.538.394h1.71v1.71c0 .155 0 .538.382.538.395 0 .395-.37.395-.538v-1.71h1.698c.155 0 .538 0 .538-.382"/><path id="f" d="M5.511-2.307c0-1.4-1.04-2.451-2.283-2.451-.61 0-1.291.227-1.805.777.12-1.578 1.16-2.774 2.33-2.774.24 0 .515.036.694.227-.047.06-.095.12-.095.3 0 .227.167.478.478.478s.49-.228.49-.503c0-.633-.49-1.195-1.554-1.195C2.2-7.448.634-5.99.634-3.575.634-.693 1.96.143 3.096.143a2.416 2.416 0 0 0 2.415-2.45m-.777 0c0 1.04-.777 1.757-1.638 1.757-1.088 0-1.41-1.076-1.542-1.638-.036-.143-.036-.263-.036-.478 0-.693.646-1.387 1.626-1.387.933 0 1.59.801 1.59 1.746"/><path id="h" d="M5.535-.49v-.251c0-.215 0-.49-.382-.49-.395 0-.395.25-.395.538H1.877L4.16-2.63c.168-.144 1.375-1.172 1.375-2.499 0-1.363-1.124-2.32-2.618-2.32C1.53-7.448.61-6.407.61-5.403a.49.49 0 0 0 .49.538.48.48 0 0 0 .478-.49c0-.227-.084-.299-.143-.347.167-.633.717-1.052 1.41-1.052 1.017 0 1.913.586 1.913 1.626 0 .933-.705 1.65-1.35 2.212L.777-.634C.645-.526.61-.49.61-.347.61 0 .933 0 1.1 0h4.172c.263-.072.263-.31.263-.49"/><path id="b" d="M6.061-6.958c0-.347-.323-.347-.49-.347H4.148c-.167 0-.49 0-.49.347s.323.347.49.347h.323V-2.5c0 1.303-.777 1.95-1.399 1.95-.633 0-1.398-.658-1.398-1.95V-6.61h.323c.167 0 .49 0 .49-.347s-.323-.347-.49-.347H.574c-.168 0-.49 0-.49.347s.322.347.49.347h.323v4.184c0 1.447.992 2.57 2.175 2.57S5.248-.98 5.248-2.427V-6.61h.323c.167 0 .49 0 .49-.347"/><path id="g" d="M5.547-3.646c0-2.224-1.183-3.802-2.475-3.802-1.303 0-2.474 1.602-2.474 3.79C.598-1.435 1.78.143 3.072.143c1.304 0 2.475-1.602 2.475-3.79m-.777-.132c0 1.77-.753 3.228-1.698 3.228S1.375-1.997 1.375-3.778 2.2-6.755 3.072-6.755 4.77-5.559 4.77-3.778"/><path id="a" d="M2.186-5.91q0-1.79.68-3.362.681-1.58 1.883-2.782 1.202-1.21 2.783-1.892 1.588-.68 3.396-.68t3.387.68q1.59.681 2.791 1.892 1.202 1.202 1.883 2.782.681 1.572.681 3.363l-.68-.219q0-1.496-.623-2.892-.614-1.403-1.723-2.513-1.101-1.118-2.564-1.765-1.463-.656-3.152-.656t-3.152.656q-1.463.647-2.573 1.765-1.1 1.11-1.723 2.513-.614 1.396-.614 2.892zm.067 3.346q.58 0 .916-.445t.58-1.555q.11-.488.202-.807.092-.328.202-.614-1.43.168-2.236.765-.799.588-.799 1.48 0 .554.294.865.303.311.84.311m-.017.614q-.799 0-1.27-.47Q.505-2.9.505-3.716q0-1.32 1.169-2.077 1.177-.756 3.354-.849-.236.563-.387 1.043-.151.47-.31 1.143-.312 1.345-.8 1.925t-1.294.58m8.692 4.808q-1.808 0-3.396-.68-1.58-.682-2.783-1.884Q3.547-.899 2.875-2.463l.613-.294q.614 1.454 1.724 2.572 1.11 1.11 2.572 1.74 1.471.63 3.144.63 1.681 0 3.144-.63t2.572-1.74q1.118-1.118 1.723-2.572l.614.294Q18.317-.899 17.106.294q-1.202 1.202-2.79 1.883-1.58.681-3.388.681M6.01-6.985l-.445-.387q.748-1.135 1.9-1.135 1.143 0 1.908 1.135l-.446.387q-.588-.891-1.462-.891-.858 0-1.455.89m-.958-1.631-.513-.278q.774-1.429 2.665-1.992l.202.555q-.85.252-1.43.673-.571.42-.924 1.042m7.876 1.63-.445-.386q.765-1.135 1.908-1.135 1.152 0 1.9 1.135l-.446.387q-.597-.891-1.454-.891-.874 0-1.463.89M19.62-1.95q-.807 0-1.295-.58-.48-.58-.799-1.925-.16-.673-.31-1.143-.152-.48-.387-1.043 2.185.093 3.354.85t1.168 2.076q0 .815-.47 1.294-.463.47-1.261.47m-.017-.614q.538 0 .832-.31.303-.312.303-.867 0-.89-.807-1.48-.799-.596-2.228-.764.11.286.202.614.092.319.201.807.244 1.11.58 1.555t.917.445m-2.8-6.052q-.353-.622-.933-1.042-.571-.42-1.42-.673l.202-.555q1.891.563 2.664 1.992zM10.929-.48q1.143 0 2.152-.387-1.093-.597-2.152-.597t-2.152.597q1.009.387 2.152.387m0 .462q-1.051 0-2.077-.336-1.017-.336-1.849-.9-.824-.563-1.32-1.252-.496-.698-.496-1.404 0-.344.152-.487.151-.152.412-.152.193 0 .428.042.236.034.538.101.807.185 1.925.32 1.127.134 2.287.134t2.278-.134q1.126-.135 1.942-.32.302-.067.538-.1.235-.043.42-.043.269 0 .42.152.151.143.151.487 0 .706-.495 1.404-.496.69-1.329 1.253t-1.857.899q-1.017.336-2.068.336m0-2.799q.79 0 1.69-.059.899-.067 1.798-.202.9-.142 1.681-.353v-.462q0-.118-.084-.143-.075-.033-.185-.008-.672.16-1.53.286t-1.74.201q-.874.068-1.63.068-.748 0-1.631-.068-.883-.075-1.74-.201-.849-.127-1.53-.286-.11-.025-.193.008-.076.025-.076.143v.462q.782.21 1.681.353.9.135 1.8.202.907.059 1.689.059"/></defs><g stroke="none" stroke-miterlimit="10" stroke-width=".4"><use xlink:href="#a" x="-35.134" y="-47.935" transform="matrix(1 0 0 1 -10.928 5.884)"/><g transform="matrix(1 0 0 1 -21.543 26.33)"><use xlink:href="#b" x="-35.134" y="-47.935"/><use xlink:href="#c" x="-28.977" y="-47.935"/><use xlink:href="#d" x="-22.82" y="-47.935"/><use xlink:href="#e" x="-16.663" y="-47.935"/><use xlink:href="#f" x="-10.506" y="-47.935"/><use xlink:href="#g" x="-4.361" y="-47.935"/><use xlink:href="#h" x="1.796" y="-47.935"/></g><g transform="matrix(1 0 0 1 39.685 3.652)"><use xlink:href="#i" x="-35.134" y="-47.935"/><use xlink:href="#j" x="-26.359" y="-47.935"/><use xlink:href="#k" x="-17.906" y="-47.935"/><use xlink:href="#l" x="-10.267" y="-47.935"/><use xlink:href="#m" x="-6.369" y="-47.935"/><use xlink:href="#n" x="5.347" y="-47.935"/><use xlink:href="#d" x="17.963" y="-47.935"/><use xlink:href="#d" x="24.12" y="-47.935"/><use xlink:href="#d" x="30.277" y="-47.935"/><use xlink:href="#d" x="36.434" y="-47.935"/><use xlink:href="#g" x="42.591" y="-47.935"/><use xlink:href="#g" x="48.748" y="-47.935"/><use xlink:href="#g" x="54.905" y="-47.935"/><use xlink:href="#g" x="61.062" y="-47.935"/><path d="M14.576-58.77h56.03v.399h-56.03z"/><path d="M14.576-58.571h.399v13.968h-.399zM70.207-58.571h.399v13.968h-.399z"/><path d="M14.576-44.802h56.03v.399h-56.03z"/><use xlink:href="#d" x="77.978" y="-47.935"/><use xlink:href="#g" x="84.135" y="-47.935"/><use xlink:href="#g" x="90.292" y="-47.935"/><use xlink:href="#d" x="96.449" y="-47.935"/><use xlink:href="#d" x="102.605" y="-47.935"/><use xlink:href="#d" x="108.762" y="-47.935"/><use xlink:href="#d" x="114.919" y="-47.935"/><use xlink:href="#d" x="121.076" y="-47.935"/><path d="M74.591-58.77h56.03v.399h-56.03z"/><path d="M74.591-58.571h.399v13.968h-.399zM130.222-58.571h.399v13.968h-.399z"/><path d="M74.591-44.802h56.03v.399h-56.03z"/><use xlink:href="#d" x="137.992" y="-47.935"/><use xlink:href="#g" x="144.149" y="-47.935"/><use xlink:href="#g" x="150.306" y="-47.935"/><use xlink:href="#d" x="156.463" y="-47.935"/><use xlink:href="#d" x="162.62" y="-47.935"/><use xlink:href="#g" x="168.777" y="-47.935"/><use xlink:href="#g" x="174.934" y="-47.935"/><use xlink:href="#g" x="181.091" y="-47.935"/><path d="M134.605-58.77h56.03v.399h-56.03z"/><path d="M134.605-58.571h.399v13.968h-.399zM190.236-58.571h.399v13.968h-.399z"/><path d="M134.605-44.802h56.03v.399h-56.03z"/><use xlink:href="#d" x="198.007" y="-47.935"/><use xlink:href="#g" x="204.164" y="-47.935"/><use xlink:href="#g" x="210.321" y="-47.935"/><use xlink:href="#g" x="216.478" y="-47.935"/><use xlink:href="#g" x="222.634" y="-47.935"/><use xlink:href="#g" x="228.791" y="-47.935"/><use xlink:href="#d" x="234.948" y="-47.935"/><use xlink:href="#g" x="241.105" y="-47.935"/><path d="M194.62-58.77h56.03v.399h-56.03z"/><path d="M194.62-58.571h.399v13.968h-.399zM250.251-58.571h.399v13.968h-.399z"/><path d="M194.62-44.802h56.03v.399h-56.03z"/></g><g transform="matrix(1 0 0 1 39.685 27.563)"><use xlink:href="#i" x="-35.134" y="-47.935"/><use xlink:href="#j" x="-26.359" y="-47.935"/><use xlink:href="#k" x="-17.906" y="-47.935"/><use xlink:href="#l" x="-10.267" y="-47.935"/><use xlink:href="#o" x="-6.369" y="-47.935"/><use xlink:href="#p" x="-.511" y="-47.935"/><use xlink:href="#n" x="5.347" y="-47.935"/><use xlink:href="#d" x="17.963" y="-47.935"/><use xlink:href="#d" x="24.12" y="-47.935"/><use xlink:href="#g" x="30.277" y="-47.935"/><use xlink:href="#d" x="36.434" y="-47.935"/><use xlink:href="#d" x="42.591" y="-47.935"/><use xlink:href="#g" x="48.748" y="-47.935"/><use xlink:href="#g" x="54.905" y="-47.935"/><use xlink:href="#g" x="61.062" y="-47.935"/><use xlink:href="#g" x="78.006" y="-47.935"/><use xlink:href="#g" x="84.163" y="-47.935"/><use xlink:href="#d" x="90.32" y="-47.935"/><use xlink:href="#d" x="96.477" y="-47.935"/><use xlink:href="#d" x="102.634" y="-47.935"/><use xlink:href="#d" x="108.791" y="-47.935"/><use xlink:href="#g" x="114.948" y="-47.935"/><use xlink:href="#d" x="121.105" y="-47.935"/><path d="M14.576-58.77h116.073v.399H14.576z"/><path d="M14.576-58.571h.399v13.968h-.399zM130.25-58.571h.399v13.968h-.399z"/><path d="M14.576-44.802h116.073v.399H14.576z"/><use xlink:href="#d" x="138.021" y="-47.935"/><use xlink:href="#d" x="144.178" y="-47.935"/><use xlink:href="#g" x="150.335" y="-47.935"/><use xlink:href="#d" x="156.492" y="-47.935"/><use xlink:href="#d" x="162.648" y="-47.935"/><use xlink:href="#d" x="168.805" y="-47.935"/><use xlink:href="#d" x="174.962" y="-47.935"/><use xlink:href="#g" x="181.119" y="-47.935"/><use xlink:href="#g" x="198.064" y="-47.935"/><use xlink:href="#g" x="204.221" y="-47.935"/><use xlink:href="#g" x="210.378" y="-47.935"/><use xlink:href="#g" x="216.535" y="-47.935"/><use xlink:href="#g" x="222.692" y="-47.935"/><use xlink:href="#g" x="228.848" y="-47.935"/><use xlink:href="#d" x="235.005" y="-47.935"/><use xlink:href="#g" x="241.162" y="-47.935"/><path d="M134.634-58.77h116.073v.399H134.634z"/><path d="M134.634-58.571h.399v13.968h-.399zM250.308-58.571h.399v13.968h-.399z"/><path d="M134.634-44.802h116.073v.399H134.634z"/></g><g transform="matrix(1 0 0 1 39.685 51.473)"><use xlink:href="#i" x="-35.134" y="-47.935"/><use xlink:href="#j" x="-26.359" y="-47.935"/><use xlink:href="#k" x="-17.906" y="-47.935"/><use xlink:href="#l" x="-10.267" y="-47.935"/><use xlink:href="#q" x="-6.369" y="-47.935"/><use xlink:href="#r" x="-.511" y="-47.935"/><use xlink:href="#n" x="5.347" y="-47.935"/><use xlink:href="#g" x="17.963" y="-47.935"/><use xlink:href="#g" x="24.12" y="-47.935"/><use xlink:href="#g" x="30.277" y="-47.935"/><use xlink:href="#g" x="36.434" y="-47.935"/><use xlink:href="#g" x="42.591" y="-47.935"/><use xlink:href="#g" x="48.748" y="-47.935"/><use xlink:href="#g" x="54.905" y="-47.935"/><use xlink:href="#g" x="61.062" y="-47.935"/><use xlink:href="#g" x="78.006" y="-47.935"/><use xlink:href="#g" x="84.163" y="-47.935"/><use xlink:href="#g" x="90.32" y="-47.935"/><use xlink:href="#g" x="96.477" y="-47.935"/><use xlink:href="#g" x="102.634" y="-47.935"/><use xlink:href="#g" x="108.791" y="-47.935"/><use xlink:href="#g" x="114.948" y="-47.935"/><use xlink:href="#d" x="121.105" y="-47.935"/><use xlink:href="#d" x="138.049" y="-47.935"/><use xlink:href="#d" x="144.206" y="-47.935"/><use xlink:href="#d" x="150.363" y="-47.935"/><use xlink:href="#d" x="156.52" y="-47.935"/><use xlink:href="#g" x="162.677" y="-47.935"/><use xlink:href="#d" x="168.834" y="-47.935"/><use xlink:href="#d" x="174.991" y="-47.935"/><use xlink:href="#g" x="181.148" y="-47.935"/><use xlink:href="#g" x="198.092" y="-47.935"/><use xlink:href="#g" x="204.249" y="-47.935"/><use xlink:href="#g" x="210.406" y="-47.935"/><use xlink:href="#g" x="216.563" y="-47.935"/><use xlink:href="#g" x="222.72" y="-47.935"/><use xlink:href="#g" x="228.877" y="-47.935"/><use xlink:href="#d" x="235.034" y="-47.935"/><use xlink:href="#g" x="241.191" y="-47.935"/><path d="M14.576-58.77h236.159v.399H14.576z"/><path d="M14.576-58.571h.399v13.968h-.399zM250.337-58.571h.399v13.968h-.399z"/><path d="M14.576-44.802h236.159v.399H14.576z"/></g></g></svg>