<svg xmlns="http://www.w3.org/2000/svg" xmlns:xlink="http://www.w3.org/1999/xlink" width="327.963" height="138.237" viewBox="-72 -72 245.972 103.678"><defs><path id="o" d="M5.655-1.997c0-.848-.586-1.625-1.53-1.829.597-.19 1.279-.765 1.279-1.626 0-.872-.706-1.853-2.02-1.853H.788c-.167 0-.478 0-.478.347s.323.347.49.347h.287v5.918H.8c-.167 0-.49 0-.49.346S.634 0 .789 0h2.833C4.95 0 5.655-1.052 5.655-1.997M4.627-5.44c0 .562-.467 1.292-1.47 1.292H1.864v-2.463h1.482c.993 0 1.28.741 1.28 1.171m.25 3.42c0 .585-.454 1.327-1.518 1.327H1.865v-2.762h1.566c1.208 0 1.447 1.028 1.447 1.435"/><path id="p" d="M5.69-3.587c0-1.912-.992-3.718-2.582-3.718H.741c-.167 0-.478 0-.478.347s.31.347.478.347h.24v5.918H.74c-.167 0-.478 0-.478.346S.573 0 .741 0h2.38c1.542 0 2.57-1.698 2.57-3.587m-.776-.012c0 1.447-.706 2.906-2.009 2.906H1.757v-5.918h1.136c1.387 0 2.02 1.65 2.02 3.012"/><path id="m" d="M5.894-.49v-.969c0-.215 0-.49-.383-.49-.394 0-.394.263-.394.49v.766H1.925v-2.75h1.578c0 .418 0 .645.394.645.383 0 .383-.274.383-.49v-1.004c0-.215 0-.49-.383-.49-.394 0-.394.227-.394.646H1.925v-2.475h2.929v.586c0 .215 0 .49.382.49.395 0 .395-.263.395-.49v-.79c0-.37-.072-.49-.478-.49H.825c-.167 0-.49 0-.49.347s.323.347.49.347h.323v5.918H.825c-.167 0-.49 0-.49.346S.658 0 .825 0h4.59c.395 0 .479-.108.479-.49"/><path id="n" d="M5.738-6.025v-.79c0-.37-.071-.49-.478-.49H.86c-.167 0-.49 0-.49.347s.323.347.49.347h.36v5.918H.86c-.167 0-.49 0-.49.346S.694 0 .86 0h1.71c.168 0 .479 0 .479-.347s-.311-.346-.479-.346h-.573v-2.619h1.625c0 .419 0 .646.395.646.383 0 .383-.275.383-.49V-4.16c0-.216 0-.49-.383-.49-.395 0-.395.227-.395.645H1.997v-2.606H4.96v.586c0 .215 0 .49.383.49.394 0 .394-.263.394-.49"/><path id="u" d="M5.27-.97v-.612h-.274v.611c0 .633-.272.698-.392.698-.36 0-.404-.49-.404-.545V-3c0-.458 0-.884-.393-1.287-.425-.426-.97-.6-1.494-.6-.895 0-1.648.512-1.648 1.232 0 .328.219.513.502.513a.48.48 0 0 0 .502-.502c0-.13-.054-.49-.556-.501.294-.382.829-.502 1.178-.502.534 0 1.156.425 1.156 1.396v.404c-.556.032-1.32.065-2.007.392-.818.371-1.09.939-1.09 1.419C.35-.153 1.406.12 2.094.12c.72 0 1.221-.436 1.429-.95.043.437.338.895.85.895.23 0 .895-.152.895-1.036m-1.823-.557c0 1.036-.785 1.407-1.276 1.407-.535 0-.982-.382-.982-.927 0-.6.458-1.506 2.258-1.571z"/><path id="f" d="M7.255-2.542c0-.109 0-.185-.142-.185-.12 0-.12.065-.131.174C6.895-.993 5.727-.098 4.538-.098c-.665 0-2.803-.371-2.803-3.622 0-3.262 2.127-3.633 2.792-3.633 1.19 0 2.16.993 2.378 2.586.022.152.022.185.175.185.175 0 .175-.033.175-.262v-2.585c0-.186 0-.262-.12-.262-.044 0-.088 0-.175.131l-.545.807c-.404-.392-.96-.938-2.008-.938-2.04 0-3.796 1.735-3.796 3.96C.61-1.473 2.378.24 4.407.24c1.778 0 2.848-1.516 2.848-2.782"/><path id="v" d="M4.527-1.298c0-.11-.109-.11-.142-.11-.098 0-.12.044-.141.11C3.927-.284 3.218-.153 2.814-.153c-.578 0-1.538-.469-1.538-2.225 0-1.778.895-2.237 1.473-2.237.098 0 .786.011 1.167.404-.447.033-.512.36-.512.502 0 .284.196.502.501.502.284 0 .502-.186.502-.513 0-.742-.829-1.167-1.669-1.167-1.363 0-2.367 1.178-2.367 2.53C.37-.96 1.45.12 2.716.12c1.462 0 1.811-1.31 1.811-1.418"/><path id="d" d="M7.113-2.815H6.84c-.273 1.68-.524 2.477-2.4 2.477H2.99c-.514 0-.535-.077-.535-.437v-2.912h.981c1.059 0 1.179.349 1.179 1.276h.272V-5.3h-.272c0 .937-.12 1.276-1.179 1.276h-.981v-2.619c0-.36.021-.436.534-.436h1.407c1.67 0 1.964.6 2.139 2.116h.272l-.305-2.454H.36v.338h.262c.84 0 .862.12.862.513v5.716c0 .393-.022.513-.862.513H.36V0h6.295z"/><path id="r" d="M4.527-1.298c0-.11-.087-.131-.142-.131-.098 0-.12.065-.141.153C3.862-.153 2.88-.153 2.77-.153c-.546 0-.982-.327-1.233-.73-.327-.524-.327-1.244-.327-1.637h3.044c.24 0 .272 0 .272-.23 0-1.08-.589-2.137-1.952-2.137-1.266 0-2.27 1.123-2.27 2.487 0 1.462 1.146 2.52 2.4 2.52 1.331 0 1.822-1.21 1.822-1.418m-.72-1.451H1.222c.065-1.626.982-1.898 1.353-1.898 1.123 0 1.232 1.472 1.232 1.898"/><path id="l" d="M4.985-1.833c0-.392-.12-.883-.534-1.342-.207-.229-.382-.338-1.08-.774.785-.404 1.32-.971 1.32-1.691 0-1.004-.971-1.625-1.964-1.625-1.09 0-1.974.807-1.974 1.821 0 .197.022.688.48 1.2.12.131.523.404.796.59-.633.316-1.57.927-1.57 2.007C.458-.491 1.57.24 2.715.24c1.233 0 2.27-.905 2.27-2.073M4.211-5.64c0 .622-.426 1.145-1.08 1.527l-1.353-.872c-.502-.328-.545-.699-.545-.884 0-.666.709-1.124 1.483-1.124.797 0 1.495.568 1.495 1.353m.229 4.2c0 .807-.818 1.375-1.713 1.375-.938 0-1.723-.677-1.723-1.582 0-.633.349-1.331 1.276-1.844l1.342.851c.305.207.818.535.818 1.2"/><path id="k" d="m6.655-4.964-.306-2.454H.36v.338h.262c.84 0 .862.12.862.513v5.716c0 .393-.022.513-.862.513H.36V0c.382-.033 1.233-.033 1.658-.033.447 0 1.44 0 1.833.033v-.338h-.36c-1.036 0-1.036-.142-1.036-.524v-2.683h.938c1.047 0 1.156.349 1.156 1.276h.273V-5.16h-.273c0 .916-.109 1.276-1.156 1.276h-.938v-2.76c0-.36.021-.436.534-.436H4.3c1.636 0 1.908.61 2.083 2.116z"/><path id="g" d="M3.01-2.04v-.633H.12v.633z"/><path id="h" d="M8.03 0v-.338c-.59 0-.82-.044-1.146-.524L4.364-4.57l1.963-1.887c.088-.087.666-.644 1.55-.655v-.338a9 9 0 0 1-.928.033c-.393 0-1.014 0-1.385-.033v.338c.436.011.501.262.501.36 0 .175-.109.284-.196.36L2.455-3.13V-6.6c0-.393.021-.513.861-.513h.262v-.338c-.382.033-1.189.033-1.603.033s-1.233 0-1.615-.033v.338h.262c.84 0 .862.12.862.513v5.75c0 .392-.022.512-.862.512H.36V0c.382-.033 1.19-.033 1.604-.033s1.232 0 1.614.033v-.338h-.262c-.84 0-.861-.12-.861-.513V-2.76l1.265-1.2 1.975 2.924c.065.098.163.24.163.37 0 .328-.425.328-.643.328V0c.381-.033 1.145-.033 1.56-.033z"/><path id="t" d="M2.782 0v-.338c-.731 0-.851 0-.851-.491v-6.742L.36-7.45v.338c.764 0 .85.077.85.611v5.673c0 .49-.12.49-.85.49V0l1.21-.033z"/><path id="w" d="M8.87 0v-.338c-.568 0-.84 0-.852-.327V-2.75c0-.938 0-1.276-.338-1.67-.153-.185-.513-.403-1.145-.403-.917 0-1.397.655-1.582 1.07-.153-.95-.96-1.07-1.451-1.07-.797 0-1.31.47-1.615 1.146v-1.146l-1.538.12v.338c.764 0 .851.077.851.611v2.924c0 .49-.12.49-.85.49V0l1.232-.033L2.804 0v-.338c-.731 0-.851 0-.851-.491v-2.007c0-1.135.774-1.746 1.472-1.746.688 0 .808.59.808 1.211v2.542c0 .49-.12.49-.851.49V0l1.233-.033L5.836 0v-.338c-.73 0-.85 0-.85-.491v-2.007c0-1.135.774-1.746 1.472-1.746.687 0 .807.59.807 1.211v2.542c0 .49-.12.49-.85.49V0l1.232-.033z"/><path id="x" d="M5.836 0v-.338c-.567 0-.84 0-.85-.327V-2.75c0-.938 0-1.276-.339-1.67-.152-.185-.512-.403-1.145-.403-.797 0-1.31.47-1.615 1.146v-1.146l-1.538.12v.338c.764 0 .851.077.851.611v2.924c0 .49-.12.49-.85.49V0l1.232-.033L2.804 0v-.338c-.731 0-.851 0-.851-.491v-2.007c0-1.135.774-1.746 1.472-1.746.688 0 .808.59.808 1.211v2.542c0 .49-.12.49-.851.49V0l1.233-.033z"/><path id="s" d="M5.684-2.356c0-1.386-1.059-2.466-2.28-2.466-.851 0-1.31.48-1.528.72v-.72l-1.57.12v.338c.774 0 .85.066.85.546v5.105c0 .491-.12.491-.85.491v.338l1.221-.032 1.233.032v-.338c-.73 0-.85 0-.85-.49V-.645c.054.175.512.764 1.34.764 1.3 0 2.434-1.07 2.434-2.476m-.906 0c0 1.32-.763 2.236-1.57 2.236-.437 0-.852-.218-1.146-.665-.153-.23-.153-.24-.153-.459v-2.432c.316-.557.851-.873 1.407-.873.797 0 1.462.96 1.462 2.193"/><path id="q" d="M3.61 2.618c0-.033 0-.054-.185-.24-1.363-1.374-1.712-3.436-1.712-5.105 0-1.898.414-3.797 1.756-5.16.142-.131.142-.153.142-.186 0-.076-.044-.109-.11-.109-.108 0-1.09.742-1.734 2.127-.556 1.2-.687 2.411-.687 3.328 0 .85.12 2.17.72 3.403.655 1.342 1.593 2.051 1.702 2.051.065 0 .109-.032.109-.109"/><path id="z" d="M3.153-2.727c0-.851-.12-2.171-.72-3.404C1.778-7.473.84-8.18.73-8.18c-.066 0-.11.043-.11.108 0 .033 0 .055.208.251C1.9-6.742 2.52-5.007 2.52-2.727c0 1.865-.404 3.785-1.756 5.16-.142.13-.142.152-.142.185 0 .066.043.11.109.11.109 0 1.09-.743 1.734-2.128.557-1.2.688-2.41.688-3.327"/><path id="i" d="M7.985-.96c0-.065 0-.185-.141-.185-.12 0-.12.098-.131.174-.066.775-.448.971-.72.971-.535 0-.622-.556-.775-1.57l-.142-.874c-.196-.698-.73-1.058-1.33-1.265 1.058-.262 1.909-.927 1.909-1.778 0-1.048-1.244-1.964-2.848-1.964H.382v.338h.262c.84 0 .861.12.861.513v5.75c0 .392-.021.512-.861.512H.382V0c.393-.033 1.167-.033 1.593-.033s1.2 0 1.592.033v-.338h-.262c-.84 0-.861-.12-.861-.513v-2.76h1.254c.175 0 .633 0 1.015.371.414.393.414.73.414 1.462 0 .709 0 1.145.448 1.56.447.393 1.047.458 1.374.458.851 0 1.036-.895 1.036-1.2M5.531-5.487c0 .752-.262 1.636-1.876 1.636H2.444v-2.825c0-.251 0-.382.24-.415.109-.022.425-.022.643-.022.982 0 2.204.044 2.204 1.626"/><path id="j" d="m7.473-4.93-.208-2.455H.6L.393-4.931h.272C.818-6.687.982-7.047 2.63-7.047c.196 0 .48 0 .59.022.228.043.228.163.228.414v5.75c0 .37 0 .523-1.145.523h-.437V0c.448-.033 1.56-.033 2.062-.033S5.553-.033 6 0v-.338h-.436c-1.146 0-1.146-.153-1.146-.524V-6.61c0-.218 0-.37.197-.414.12-.022.414-.022.621-.022 1.648 0 1.811.36 1.964 2.116z"/><path id="y" d="M3.622-1.353v-.622h-.273v.6c0 .808-.327 1.222-.73 1.222-.732 0-.732-.992-.732-1.178v-3.033h1.56v-.338h-1.56v-2.007h-.272c-.011.894-.339 2.062-1.408 2.105v.24h.928v3.011C1.135-.01 2.149.12 2.542.12c.774 0 1.08-.775 1.08-1.473"/><path id="e" d="M7.81-7.113v-.338l-1.286.033-1.299-.033v.338c1.124 0 1.124.513 1.124.808v3.785c0 1.55-1.058 2.422-2.094 2.422-.513 0-1.8-.273-1.8-2.346V-6.6c0-.393.021-.513.861-.513h.262v-.338c-.382.033-1.189.033-1.603.033s-1.233 0-1.615-.033v.338h.262c.84 0 .862.12.862.513v4.113C1.484-.95 2.749.24 4.233.24c1.254 0 2.236-1.015 2.422-2.258.032-.218.032-.317.032-.753v-3.49c0-.36 0-.852 1.124-.852"/><path id="a" d="M8.204-3.622v3.23H2.629v-3.23zm.37-3.218H5.619v-1.865c.273-.044.371-.153.393-.306l-1.124-.13v5.192H2.695l-.797-.35V.83h.12c.295 0 .611-.174.611-.25v-.644h5.575v.861h.109c.24 0 .6-.163.61-.24V-3.48c.23-.044.404-.142.48-.23l-.905-.686-.414.447H5.618v-2.586h4.31c.163 0 .272-.054.305-.174-.415-.36-1.08-.884-1.08-.884z"/><path id="b" d="M8.553-3.85c-.328.02-1.506.043-2.815.065l.033-.862.054-.437c.011-.087-.021-.152-.109-.174-.152-.055-.392-.087-.621-.12.632-.393 1.2-.83 1.669-1.31l2.312 1.343c.088.054.208.12.273.109.12 0 .284-.142.306-.295 0-.065-.033-.142-.131-.25a5 5 0 0 0-.699-.612l-.6-.065-1.112-.611c.305-.371.567-.753.752-1.146a.5.5 0 0 0 .055-.24c0-.076-.044-.152-.13-.218-.208-.142-.743-.37-1.114-.458-.076-.01-.12 0-.141.044l-.131.24c.24.13.48.36.567.556-.35.676-.927 1.407-1.658 2.084a3 3 0 0 0-.382-.546l-.447-.098-.502-.338c.25-.295.469-.611.633-.938.032-.066.054-.131.054-.23s-.044-.163-.12-.218c-.218-.13-.742-.305-1.124-.37-.076-.011-.109 0-.13.043l-.131.24c.25.131.501.327.6.491-.47.927-1.473 1.942-2.739 2.695-.054.043-.054.076-.01.12l.076.076c.044.033.065.033.13 0 .95-.404 1.768-.927 2.4-1.527l1.277.96c-.403.349-.85.676-1.33.97-.044.033-.055.066-.023.11l.099.098c.032.022.054.022.098 0 .273-.12.545-.251.807-.393.186.077.35.197.447.306v.981c-1.56.022-3.098.033-3.425.033-.338 0-.851-.043-1.211-.109l-.076.153q-.016.049.032.098c.273.218.677.447 1.07.567a6 6 0 0 1 1.09-.207c.579-.033 5.575-.098 6.339-.087.327 0 .97.022 1.265.054a.5.5 0 0 0 .23-.403c0-.088-.066-.153-.143-.175-.25-.087-.829-.153-1.222-.164zm-1.19 1.625c-.73.032-3.85.076-4.396.076a7 7 0 0 1-1.069-.087l-.076.141c-.011.044 0 .077.033.11.25.196.61.381.949.501.229-.087.709-.163.96-.174.48-.033 2.738-.055 3.589-.044V-.13c0 .393.022 1.047.065 1.418h.48c.131-.425.218-1.145.218-1.603l.022-1.331.131-.338c.022-.055.022-.088-.022-.12a3.4 3.4 0 0 0-.414-.262.21.21 0 0 0-.164 0z"/><path id="c" d="M9.044.273c.054-.24.098-.644.098-.938v-1.833l.033-.426c0-.076-.022-.13-.11-.163-.272-.11-.861-.218-1.21-.24-.088 0-.11.022-.12.054l-.099.262c.295.098.568.24.731.393v1.047l-3.556.022v-.578l.01-.437c0-.087-.021-.141-.108-.174-.273-.077-.84-.131-1.178-.131-.088 0-.12.022-.131.044l-.066.25c.262.077.524.208.666.35l.065 2.76c0 .174.033.436.087.589h.426a.9.9 0 0 0 .174-.339c.982 0 3.546-.021 4.473-.021a.46.46 0 0 0 .11-.306c0-.054-.034-.087-.099-.109zM8.367-1.08V.273L4.79.295 4.8-1.058zM7.145-3.524c.131-.414.23-1.134.23-1.767v-2.433l.021-.48c.011-.098-.032-.163-.109-.196-.272-.13-.862-.25-1.21-.262-.077 0-.11.022-.132.066l-.087.25c.327.11.622.284.775.47v.72c-.36.032-.84.043-1.113.043-.207 0-.404-.022-.578-.032-.404-.491-1.047-.786-1.811-.786-1.31 0-2.27.84-2.27 2.062 0 1.233.96 2.084 2.27 2.084.796 0 1.462-.317 1.865-.851.11.076.23.152.35.218a2.5 2.5 0 0 1 .556-.12c.163-.011.48-.022.742-.011.01.37.021.774.054 1.025zm-.512-1.472c-.382.032-.884.043-1.157.043-.098 0-.196 0-.283-.01.13-.273.196-.579.196-.906 0-.284-.054-.535-.142-.775.044.033.088.055.131.077.164-.055.404-.11.567-.12a4.4 4.4 0 0 1 .688-.022zm-3.502.61c-.851 0-1.473-.556-1.473-1.483 0-.916.622-1.484 1.473-1.484s1.473.568 1.473 1.484c0 .927-.622 1.484-1.473 1.484m5.367-.6c0 .404.022 1.157.066 1.517h.458c.13-.426.24-1.19.24-1.756v-3.066l.022-.534c.01-.099-.022-.175-.131-.208-.273-.13-.928-.262-1.298-.272-.077 0-.11.021-.131.065l-.077.25c.35.12.677.306.851.525z"/></defs><g stroke="#000" stroke-miterlimit="10" stroke-width=".4"><use xlink:href="#a" x="10.496" y="-33.037" stroke="none" transform="matrix(1 0 0 1 8.719 -14.269)"/><use xlink:href="#b" x="10.496" y="-33.037" stroke="none" transform="matrix(1 0 0 1 65.597 -14.498)"/><use xlink:href="#c" x="10.496" y="-33.037" stroke="none" transform="matrix(1 0 0 1 122.29 -14.334)"/><g stroke="none" transform="matrix(1 0 0 1 -67.173 3.725)"><use xlink:href="#d" x="10.496" y="-33.037"/><use xlink:href="#e" x="17.925" y="-33.037"/><use xlink:href="#f" x="26.107" y="-33.037"/><use xlink:href="#g" x="33.983" y="-33.037"/><use xlink:href="#h" x="37.616" y="-33.037"/><use xlink:href="#i" x="46.103" y="-33.037"/></g><g stroke="none" transform="matrix(1 0 0 1 -61.489 29.117)"><use xlink:href="#e" x="10.496" y="-33.037"/><use xlink:href="#j" x="18.678" y="-33.037"/><use xlink:href="#k" x="26.554" y="-33.037"/><use xlink:href="#g" x="33.677" y="-33.037"/><use xlink:href="#l" x="37.31" y="-33.037"/></g><g stroke="none" transform="matrix(1 0 0 1 -6.157 3.652)"><use xlink:href="#m" x="10.496" y="-33.037"/><use xlink:href="#n" x="16.653" y="-33.037"/></g><g stroke="none" transform="matrix(1 0 0 1 22.19 3.652)"><use xlink:href="#o" x="10.496" y="-33.037"/><use xlink:href="#n" x="16.653" y="-33.037"/></g><g stroke="none" transform="matrix(1 0 0 1 50.536 3.652)"><use xlink:href="#o" x="10.496" y="-33.037"/><use xlink:href="#p" x="16.653" y="-33.037"/></g><g stroke="none" transform="matrix(1 0 0 1 78.882 3.652)"><use xlink:href="#m" x="10.496" y="-33.037"/><use xlink:href="#n" x="16.653" y="-33.037"/></g><g stroke="none" transform="matrix(1 0 0 1 107.229 3.652)"><use xlink:href="#o" x="10.496" y="-33.037"/><use xlink:href="#n" x="16.653" y="-33.037"/></g><g stroke="none" transform="matrix(1 0 0 1 135.575 3.652)"><use xlink:href="#o" x="10.496" y="-33.037"/><use xlink:href="#p" x="16.653" y="-33.037"/></g><path fill="none" stroke-width=".398504" d="M1.151-26.197h47.036v-13.68H1.15ZM57.844-26.197h47.036v-13.68H57.844ZM114.537-26.197h47.035v-13.68h-47.035Z"/><g stroke="none" transform="matrix(1 0 0 1 -6.157 29.164)"><use xlink:href="#m" x="10.496" y="-33.037"/><use xlink:href="#n" x="16.653" y="-33.037"/></g><g stroke="none" transform="matrix(1 0 0 1 22.19 29.164)"><use xlink:href="#o" x="10.496" y="-33.037"/><use xlink:href="#n" x="16.653" y="-33.037"/></g><g stroke="none" transform="matrix(1 0 0 1 50.536 29.164)"><use xlink:href="#o" x="10.496" y="-33.037"/><use xlink:href="#p" x="16.653" y="-33.037"/></g><g stroke="none" transform="matrix(1 0 0 1 78.882 29.164)"><use xlink:href="#m" x="10.496" y="-33.037"/><use xlink:href="#n" x="16.653" y="-33.037"/></g><g stroke="none" transform="matrix(1 0 0 1 107.229 29.164)"><use xlink:href="#o" x="10.496" y="-33.037"/><use xlink:href="#n" x="16.653" y="-33.037"/></g><g stroke="none" transform="matrix(1 0 0 1 135.575 29.164)"><use xlink:href="#o" x="10.496" y="-33.037"/><use xlink:href="#p" x="16.653" y="-33.037"/></g><path fill="none" stroke-width=".398504" d="M1.151-.685h75.382v-13.68H1.151ZM86.19-.685h75.382v-13.68H86.191Z"/><g stroke="none" transform="matrix(1 0 0 1 -6.42 46.664)"><use xlink:href="#q" x="10.496" y="-33.037"/><use xlink:href="#i" x="14.739" y="-33.037"/><use xlink:href="#r" x="22.768" y="-33.037"/><use xlink:href="#s" x="27.612" y="-33.037"/><use xlink:href="#t" x="33.677" y="-33.037"/><use xlink:href="#u" x="36.71" y="-33.037"/><use xlink:href="#v" x="42.165" y="-33.037"/><use xlink:href="#r" x="47.008" y="-33.037"/><use xlink:href="#w" x="51.852" y="-33.037"/><use xlink:href="#r" x="60.939" y="-33.037"/><use xlink:href="#x" x="65.783" y="-33.037"/><use xlink:href="#y" x="71.543" y="-33.037"/><use xlink:href="#z" x="75.787" y="-33.037"/></g><g stroke="none" transform="matrix(1 0 0 1 78.619 46.664)"><use xlink:href="#q" x="10.496" y="-33.037"/><use xlink:href="#i" x="14.739" y="-33.037"/><use xlink:href="#r" x="22.768" y="-33.037"/><use xlink:href="#s" x="27.612" y="-33.037"/><use xlink:href="#t" x="33.677" y="-33.037"/><use xlink:href="#u" x="36.71" y="-33.037"/><use xlink:href="#v" x="42.165" y="-33.037"/><use xlink:href="#r" x="47.008" y="-33.037"/><use xlink:href="#w" x="51.852" y="-33.037"/><use xlink:href="#r" x="60.939" y="-33.037"/><use xlink:href="#x" x="65.783" y="-33.037"/><use xlink:href="#y" x="71.543" y="-33.037"/><use xlink:href="#z" x="75.787" y="-33.037"/></g></g></svg>