<svg xmlns="http://www.w3.org/2000/svg" xmlns:xlink="http://www.w3.org/1999/xlink" width="370.8pt" height="74.98pt" viewBox="0 0 370.8 74.98"><defs><path id="h" d="M5.684-2.357c0-1.385-1.07-2.465-2.313-2.465-.85 0-1.32.513-1.494.709v-3.459l-1.572.12v.339c.764 0 .851.076.851.61V0h.273l.393-.676c.164.25.622.796 1.43.796 1.297 0 2.432-1.07 2.432-2.477m-.905-.01c0 .403-.022 1.058-.339 1.549-.229.338-.643.698-1.232.698-.491 0-.884-.262-1.146-.666-.153-.229-.153-.261-.153-.458V-3.49c0-.207 0-.218.12-.393a1.58 1.58 0 0 1 1.288-.698c.49 0 .883.283 1.145.698.284.447.317 1.07.317 1.517"/><path id="k" d="M4.528-1.298c0-.11-.11-.11-.142-.11-.098 0-.12.044-.142.11C3.928-.284 3.218-.153 2.814-.153c-.577 0-1.538-.469-1.538-2.225 0-1.779.895-2.237 1.473-2.237.099 0 .786.011 1.168.404-.448.032-.513.36-.513.502 0 .283.196.501.502.501.283 0 .502-.185.502-.512 0-.742-.83-1.168-1.67-1.168-1.363 0-2.367 1.179-2.367 2.531C.37-.96 1.45.12 2.717.12c1.462 0 1.81-1.31 1.81-1.418"/><path id="l" d="M5.75 0v-.338c-.764 0-.851-.077-.851-.611v-6.623l-1.571.12v.339c.763 0 .85.076.85.61v2.357c-.316-.393-.785-.676-1.374-.676C1.516-4.822.37-3.753.37-2.346.37-.96 1.44.12 2.684.12c.698 0 1.189-.37 1.462-.72v.72zM4.146-1.287c0 .196 0 .218-.12.403-.328.524-.818.764-1.288.764-.49 0-.883-.284-1.145-.698-.284-.448-.317-1.07-.317-1.517 0-.403.022-1.058.339-1.549.229-.338.643-.698 1.233-.698.381 0 .84.163 1.178.654.12.186.12.208.12.404z"/><path id="f" d="M4.528-1.298c0-.11-.088-.131-.142-.131-.098 0-.12.065-.142.153C3.862-.153 2.88-.153 2.771-.153c-.545 0-.982-.327-1.233-.73-.327-.524-.327-1.244-.327-1.637h3.044c.24 0 .273 0 .273-.23 0-1.08-.59-2.138-1.953-2.138-1.266 0-2.27 1.124-2.27 2.488 0 1.462 1.146 2.52 2.4 2.52 1.332 0 1.823-1.211 1.823-1.418m-.72-1.451H1.222c.065-1.626.982-1.899 1.353-1.899 1.123 0 1.233 1.473 1.233 1.899"/><path id="p" d="M3.895-6.928c0-.404-.404-.764-.982-.764-.764 0-1.691.579-1.691 1.735v1.255H.36v.338h.862v3.535c0 .49-.12.49-.851.49V0l1.244-.033c.436 0 .949 0 1.385.033v-.338h-.229c-.807 0-.829-.12-.829-.513v-3.513h1.244v-.338H1.909v-1.266c0-.96.524-1.484 1.004-1.484.033 0 .196 0 .36.077a.48.48 0 0 0-.327.458c0 .251.174.47.469.47.316 0 .48-.219.48-.48"/><path id="n" d="M5.291-4.408a.534.534 0 0 0-.556-.534c-.218 0-.698.065-1.157.513a1.82 1.82 0 0 0-1.156-.393C1.407-4.822.655-4.07.655-3.23c0 .48.24.894.512 1.123A1.5 1.5 0 0 0 .83-1.2c0 .338.142.753.48.97C.655-.043.305.426.305.863c0 .785 1.08 1.385 2.412 1.385 1.287 0 2.422-.556 2.422-1.407 0-.382-.153-.938-.71-1.244-.578-.305-1.21-.305-1.876-.305-.273 0-.742 0-.818-.011-.35-.044-.579-.382-.579-.731 0-.044 0-.295.186-.513.425.306.873.338 1.08.338 1.015 0 1.767-.752 1.767-1.592 0-.404-.174-.808-.447-1.059.393-.37.786-.425.982-.425 0 0 .076 0 .11.01-.12.044-.175.164-.175.295a.31.31 0 0 0 .316.317c.11 0 .316-.077.316-.328m-1.92 1.179c0 .294-.01.643-.174.916-.088.131-.339.436-.775.436-.95 0-.95-1.09-.95-1.341 0-.295.012-.644.175-.917.088-.13.339-.436.775-.436.95 0 .95 1.09.95 1.342m1.2 4.09c0 .59-.774 1.136-1.843 1.136C1.626 1.997.873 1.44.873.862c0-.502.414-.906.894-.938h.644c.938 0 2.16 0 2.16.938"/><path id="t" d="M5.837 0v-.338c-.567 0-.84 0-.851-.328v-2.083c0-.939 0-1.277-.338-1.67-.153-.185-.513-.403-1.146-.403-.916 0-1.396.654-1.57 1.047H1.92v-3.797l-1.57.12v.339c.763 0 .85.076.85.61v5.674c0 .49-.12.49-.85.49V0l1.232-.033L2.804 0v-.338c-.731 0-.851 0-.851-.491v-2.008c0-1.134.775-1.745 1.473-1.745.687 0 .807.589.807 1.21v2.543c0 .49-.12.49-.85.49V0l1.232-.033z"/><path id="g" d="M3.011-2.04v-.633H.12v.633z"/><path id="m" d="M2.695 0v-.338c-.72 0-.764-.055-.764-.48v-4.004l-1.527.12v.338c.709 0 .807.065.807.6v2.935c0 .49-.12.49-.851.49V0l1.2-.033c.382 0 .764.022 1.135.033m-.6-6.59a.583.583 0 0 0-1.167 0 .583.583 0 0 0 1.167 0"/><path id="q" d="M2.782 0v-.338c-.73 0-.85 0-.85-.491v-6.743l-1.572.12v.339c.764 0 .851.076.851.61v5.674c0 .49-.12.49-.851.49V0l1.211-.033z"/><path id="e" d="M5.837 0v-.338c-.567 0-.84 0-.851-.328v-2.083c0-.939 0-1.277-.338-1.67-.153-.185-.513-.403-1.146-.403-.796 0-1.31.469-1.615 1.145v-1.145l-1.538.12v.338c.764 0 .851.076.851.611v2.924c0 .49-.12.49-.85.49V0l1.232-.033L2.804 0v-.338c-.731 0-.851 0-.851-.491v-2.008c0-1.134.775-1.745 1.473-1.745.687 0 .807.589.807 1.21v2.543c0 .49-.12.49-.85.49V0l1.232-.033z"/><path id="d" d="M5.139-2.335c0-1.396-1.091-2.553-2.411-2.553-1.364 0-2.423 1.19-2.423 2.553A2.435 2.435 0 0 0 2.717.12a2.43 2.43 0 0 0 2.422-2.455m-.906-.087c0 .393 0 .982-.24 1.462-.24.49-.72.807-1.265.807-.47 0-.95-.229-1.244-.73-.273-.48-.273-1.146-.273-1.539 0-.426 0-1.015.262-1.495a1.46 1.46 0 0 1 1.244-.73c.48 0 .949.24 1.232.708s.284 1.102.284 1.517"/><path id="u" d="M3.971-4.157c0-.349-.338-.665-.807-.665-.797 0-1.19.73-1.342 1.2v-1.2l-1.517.12v.338c.764 0 .851.076.851.611v2.924c0 .49-.12.49-.85.49V0l1.243-.033c.437 0 .95 0 1.386.033v-.338h-.23c-.807 0-.828-.12-.828-.513v-1.68c0-1.08.458-2.051 1.287-2.051.076 0 .098 0 .12.01a.47.47 0 0 0-.251.426c0 .306.23.47.47.47.195 0 .468-.132.468-.48"/><path id="j" d="M3.622-1.353v-.622H3.35v.6c0 .808-.327 1.222-.73 1.222-.732 0-.732-.993-.732-1.178v-3.033h1.56v-.338h-1.56V-6.71h-.272c-.011.895-.339 2.062-1.408 2.106v.24h.928v3.011C1.135-.01 2.149.12 2.542.12c.775 0 1.08-.775 1.08-1.473"/><path id="v" d="M5.837 0v-.338c-.764 0-.851-.077-.851-.611v-3.873l-1.604.12v.338c.764 0 .851.076.851.611v1.942c0 .95-.524 1.691-1.32 1.691-.916 0-.96-.513-.96-1.08v-3.622l-1.604.12v.338c.851 0 .851.033.851 1.004v1.636C1.2-.873 1.2.12 2.858.12c.611 0 1.091-.305 1.408-.982V.12z"/><path id="r" d="M7.67-4.364v-.338c-.24.022-.557.033-.797.033L5.86-4.702v.338c.392.01.632.207.632.524 0 .065 0 .087-.054.229L5.444-.818l-1.08-3.044c-.044-.131-.055-.153-.055-.207 0-.295.426-.295.644-.295v-.338l-1.135.033c-.327 0-.643-.011-.97-.033v.338c.403 0 .578.022.687.164.054.065.174.392.25.6L2.849-.96 1.81-3.873c-.054-.131-.054-.153-.054-.196 0-.295.425-.295.643-.295v-.338l-1.189.033-1.015-.033v.338c.546 0 .677.033.808.382L2.378-.12c.055.153.088.24.23.24s.163-.065.218-.218l1.102-3.088L5.04-.087c.044.12.077.207.219.207s.174-.098.218-.207l1.276-3.579c.197-.545.535-.687.917-.698"/><path id="i" d="M5.542-4.364v-.338c-.25.022-.567.033-.818.033l-.95-.033v.338c.34.01.514.196.514.47 0 .108-.011.13-.066.261L3.12-.949 1.91-3.884c-.044-.11-.066-.153-.066-.196 0-.284.403-.284.61-.284v-.338l-1.188.033C.97-4.67.535-4.68.207-4.702v.338c.524 0 .731 0 .884.382L2.728 0l-.273.644c-.24.6-.546 1.353-1.244 1.353-.055 0-.305 0-.513-.197.338-.043.426-.284.426-.458A.44.44 0 0 0 .666.884c-.219 0-.459.142-.459.469 0 .49.459.884 1.004.884.687 0 1.135-.622 1.396-1.244l1.92-4.659c.284-.687.84-.698 1.015-.698"/><path id="o" d="M2.095-4.877c0-.283-.186-.578-.579-.578-.218 0-.37.11-.436.175-.01.021-.033.032-.033.032s-.021-.152-.021-.196c0-.35.076-1.135.763-1.811.131-.131.131-.153.131-.186 0-.076-.054-.12-.109-.12-.12 0-1.025.83-1.025 2.117 0 .655.261 1.145.73 1.145.382 0 .579-.294.579-.578m2.116 0c0-.283-.185-.578-.578-.578-.218 0-.37.11-.436.175-.011.021-.033.032-.033.032s-.022-.152-.022-.196c0-.35.076-1.135.764-1.811.13-.131.13-.153.13-.186 0-.076-.054-.12-.108-.12-.12 0-1.026.83-1.026 2.117 0 .655.262 1.145.731 1.145.382 0 .578-.294.578-.578"/><path id="s" d="M2.247-6.426c0-.655-.261-1.146-.73-1.146-.382 0-.579.295-.579.579s.186.578.578.578c.219 0 .371-.11.437-.175.01-.021.033-.032.033-.032s.021.152.021.196c0 .35-.076 1.135-.763 1.811-.131.131-.131.153-.131.186 0 .076.054.12.109.12.12 0 1.025-.83 1.025-2.117m2.117 0c0-.655-.262-1.146-.731-1.146-.382 0-.578.295-.578.579s.185.578.578.578c.218 0 .371-.11.436-.175.011-.021.033-.032.033-.032s.022.152.022.196c0 .35-.076 1.135-.764 1.811-.13.131-.13.153-.13.186 0 .076.054.12.108.12.12 0 1.026-.83 1.026-2.117"/><path id="c" d="M5.179-.347c0-.347-.323-.347-.49-.347H3.635V-6.96c0-.18 0-.49-.347-.49-.203 0-.275.108-.347.263-.227.514-.622 1.148-1.256 1.196-.179.012-.43.036-.43.347 0 .203.12.347.383.347.67 0 1.184-.503 1.22-.527v5.131H1.805c-.167 0-.49 0-.49.347s.323.347.49.347h2.882c.168 0 .49 0 .49-.347"/><path id="b" d="M5.813-.347c0-.347-.311-.347-.479-.347h-.418L3.373-2.655l1.375-1.806h.419c.167 0 .478 0 .478-.347s-.31-.347-.478-.347H3.839c-.167 0-.478 0-.478.347s.287.347.574.347L3.038-3.23l-.921-1.232c.275 0 .562 0 .562-.347s-.31-.347-.478-.347H.873c-.167 0-.478 0-.478.347s.31.347.478.347h.419l1.423 1.806L1.22-.694H.813c-.167 0-.49 0-.49.347S.646 0 .813 0H2.13c.167 0 .478 0 .478-.347s-.275-.347-.598-.347L3.038-2.2 4.114-.694c-.299 0-.586 0-.586.347S3.84 0 4.007 0h1.327c.168 0 .479 0 .479-.347"/><path id="a" d="M5.55-3.648c0-2.224-1.185-3.803-2.476-3.803C1.77-7.451.598-5.848.598-3.66.598-1.435 1.782.144 3.074.144c1.303 0 2.475-1.603 2.475-3.792m-.778-.131c0 1.77-.753 3.229-1.698 3.229S1.375-1.997 1.375-3.78s.826-2.977 1.699-2.977S4.772-5.561 4.772-3.78"/></defs><g transform="translate(43.653 75.651)scale(1.0004)"><use xlink:href="#a" x="-26.614681" y="-52.902232"/><use xlink:href="#b" x="-20.455281" y="-52.902232"/><use xlink:href="#b" x="-14.295879" y="-52.902232"/><use xlink:href="#b" x="-8.136478" y="-52.902232"/><use xlink:href="#b" x="2.005602" y="-52.902232"/><use xlink:href="#b" x="8.165003" y="-52.902232"/><use xlink:href="#b" x="14.324404" y="-52.902232"/><use xlink:href="#b" x="20.483805" y="-52.902232"/></g><g transform="translate(114.52 75.651)scale(1.0004)"><use xlink:href="#c" x="-26.614681" y="-52.902232"/><use xlink:href="#a" x="-20.455281" y="-52.902232"/><use xlink:href="#b" x="-14.295879" y="-52.902232"/><use xlink:href="#b" x="-8.136478" y="-52.902232"/><use xlink:href="#b" x="2.005602" y="-52.902232"/><use xlink:href="#b" x="8.165003" y="-52.902232"/><use xlink:href="#b" x="14.324404" y="-52.902232"/><use xlink:href="#b" x="20.483805" y="-52.902232"/></g><g transform="translate(185.387 75.651)scale(1.0004)"><use xlink:href="#c" x="-26.614681" y="-52.902232"/><use xlink:href="#c" x="-20.455281" y="-52.902232"/><use xlink:href="#a" x="-14.295879" y="-52.902232"/><use xlink:href="#b" x="-8.136478" y="-52.902232"/><use xlink:href="#b" x="2.005602" y="-52.902232"/><use xlink:href="#b" x="8.165003" y="-52.902232"/><use xlink:href="#b" x="14.324404" y="-52.902232"/><use xlink:href="#b" x="20.483805" y="-52.902232"/></g><g transform="translate(256.254 75.651)scale(1.0004)"><use xlink:href="#c" x="-26.614681" y="-52.902232"/><use xlink:href="#c" x="-20.455281" y="-52.902232"/><use xlink:href="#c" x="-14.295879" y="-52.902232"/><use xlink:href="#a" x="-8.136478" y="-52.902232"/><use xlink:href="#b" x="2.005602" y="-52.902232"/><use xlink:href="#b" x="8.165003" y="-52.902232"/><use xlink:href="#b" x="14.324404" y="-52.902232"/><use xlink:href="#b" x="20.483805" y="-52.902232"/></g><g transform="translate(327.121 75.651)scale(1.0004)"><use xlink:href="#c" x="-26.614681" y="-52.902232"/><use xlink:href="#c" x="-20.455281" y="-52.902232"/><use xlink:href="#c" x="-14.295879" y="-52.902232"/><use xlink:href="#c" x="-8.136478" y="-52.902232"/><use xlink:href="#a" x="2.005602" y="-52.902232"/><use xlink:href="#b" x="8.165003" y="-52.902232"/><use xlink:href="#b" x="14.324404" y="-52.902232"/><use xlink:href="#b" x="20.483805" y="-52.902232"/></g><g transform="translate(43.653 95.785)scale(1.00008)"><use xlink:href="#d" x="-20.287674" y="-52.885363"/><use xlink:href="#e" x="-14.832673" y="-52.885363"/><use xlink:href="#f" x="-8.766712" y="-52.885363"/><use xlink:href="#g" x="-3.922672" y="-52.885363"/><use xlink:href="#h" x="-.289642" y="-52.885363"/><use xlink:href="#i" x="5.481748" y="-52.885363"/><use xlink:href="#j" x="11.242228" y="-52.885363"/><use xlink:href="#f" x="15.486219" y="-52.885363"/><use xlink:href="#f" x="-21.050737" y="-38.438171"/><use xlink:href="#e" x="-16.206696" y="-38.438171"/><use xlink:href="#k" x="-10.140735" y="-38.438171"/><use xlink:href="#d" x="-5.296695" y="-38.438171"/><use xlink:href="#l" x=".452875" y="-38.438171"/><use xlink:href="#m" x="6.518836" y="-38.438171"/><use xlink:href="#e" x="9.551815" y="-38.438171"/><use xlink:href="#n" x="15.617776" y="-38.438171"/></g><g transform="translate(114.52 95.85)scale(1.00008)"><use xlink:href="#o" x="-26.353174" y="-52.885363"/><use xlink:href="#p" x="-21.203654" y="-52.885363"/><use xlink:href="#d" x="-17.865194" y="-52.885363"/><use xlink:href="#q" x="-12.410194" y="-52.885363"/><use xlink:href="#q" x="-9.377214" y="-52.885363"/><use xlink:href="#d" x="-6.344233" y="-52.885363"/><use xlink:href="#r" x="-1.194713" y="-52.885363"/><use xlink:href="#m" x="6.682307" y="-52.885363"/><use xlink:href="#e" x="9.715286" y="-52.885363"/><use xlink:href="#n" x="15.781247" y="-52.885363"/><use xlink:href="#s" x="21.236248" y="-52.885363"/><use xlink:href="#h" x="-10.288849" y="-38.438171"/><use xlink:href="#i" x="-4.517459" y="-38.438171"/><use xlink:href="#j" x="1.243021" y="-38.438171"/><use xlink:href="#f" x="5.487011" y="-38.438171"/></g><g transform="translate(185.387 95.785)scale(1.00008)"><use xlink:href="#j" x="-20.587698" y="-52.885363"/><use xlink:href="#r" x="-16.638281" y="-52.885363"/><use xlink:href="#d" x="-9.06674" y="-52.885363"/><use xlink:href="#g" x="-3.611741" y="-52.885363"/><use xlink:href="#h" x=".021289" y="-52.885363"/><use xlink:href="#i" x="5.78177" y="-52.885363"/><use xlink:href="#j" x="11.542249" y="-52.885363"/><use xlink:href="#f" x="15.786239" y="-52.885363"/><use xlink:href="#f" x="-21.050737" y="-38.438171"/><use xlink:href="#e" x="-16.206696" y="-38.438171"/><use xlink:href="#k" x="-10.140735" y="-38.438171"/><use xlink:href="#d" x="-5.296695" y="-38.438171"/><use xlink:href="#l" x=".452875" y="-38.438171"/><use xlink:href="#m" x="6.518836" y="-38.438171"/><use xlink:href="#e" x="9.551815" y="-38.438171"/><use xlink:href="#n" x="15.617776" y="-38.438171"/></g><g transform="translate(256.254 95.785)scale(1.00008)"><use xlink:href="#j" x="-24.242" y="-52.885363"/><use xlink:href="#t" x="-19.99801" y="-52.885363"/><use xlink:href="#u" x="-13.93205" y="-52.885363"/><use xlink:href="#f" x="-9.655329" y="-52.885363"/><use xlink:href="#f" x="-4.81129" y="-52.885363"/><use xlink:href="#g" x=".032751" y="-52.885363"/><use xlink:href="#h" x="3.665781" y="-52.885363"/><use xlink:href="#i" x="9.426261" y="-52.885363"/><use xlink:href="#j" x="15.186741" y="-52.885363"/><use xlink:href="#f" x="19.43073" y="-52.885363"/><use xlink:href="#f" x="-21.050737" y="-38.438171"/><use xlink:href="#e" x="-16.206696" y="-38.438171"/><use xlink:href="#k" x="-10.140735" y="-38.438171"/><use xlink:href="#d" x="-5.296695" y="-38.438171"/><use xlink:href="#l" x=".452875" y="-38.438171"/><use xlink:href="#m" x="6.518836" y="-38.438171"/><use xlink:href="#e" x="9.551815" y="-38.438171"/><use xlink:href="#n" x="15.617776" y="-38.438171"/></g><g transform="translate(327.121 95.845)scale(1.00008)"><use xlink:href="#p" x="-21.672788" y="-52.885363"/><use xlink:href="#d" x="-18.334328" y="-52.885363"/><use xlink:href="#v" x="-12.879327" y="-52.885363"/><use xlink:href="#u" x="-6.813368" y="-52.885363"/><use xlink:href="#g" x="-2.536648" y="-52.885363"/><use xlink:href="#h" x="1.096382" y="-52.885363"/><use xlink:href="#i" x="6.856863" y="-52.885363"/><use xlink:href="#j" x="12.617343" y="-52.885363"/><use xlink:href="#f" x="16.861333" y="-52.885363"/><use xlink:href="#f" x="-21.050737" y="-38.438171"/><use xlink:href="#e" x="-16.206696" y="-38.438171"/><use xlink:href="#k" x="-10.140735" y="-38.438171"/><use xlink:href="#d" x="-5.296695" y="-38.438171"/><use xlink:href="#l" x=".452875" y="-38.438171"/><use xlink:href="#m" x="6.518836" y="-38.438171"/><use xlink:href="#e" x="9.551815" y="-38.438171"/><use xlink:href="#n" x="15.617776" y="-38.438171"/></g></svg>