<svg xmlns="http://www.w3.org/2000/svg" xmlns:xlink="http://www.w3.org/1999/xlink" width="245.97pt" height="103.68pt" viewBox="0 0 245.97 103.68"><defs><path id="o" d="M5.657-1.997c0-.85-.586-1.627-1.53-1.83.597-.192 1.279-.766 1.279-1.627 0-.873-.706-1.854-2.021-1.854H.789c-.167 0-.478 0-.478.347s.323.347.49.347h.287v5.92H.801c-.167 0-.49 0-.49.347S.634 0 .789 0h2.835C4.95 0 5.657-1.052 5.657-1.997M4.63-5.442c0 .562-.467 1.292-1.472 1.292H1.866v-2.464h1.483c.992 0 1.28.742 1.28 1.172m.25 3.42c0 .587-.454 1.328-1.518 1.328H1.866v-2.762h1.567c1.207 0 1.447 1.028 1.447 1.435"/><path id="p" d="M5.693-3.588c0-1.914-.993-3.72-2.583-3.72H.742c-.168 0-.479 0-.479.347s.311.347.479.347H.98v5.92H.74c-.167 0-.478 0-.478.347S.574 0 .742 0h2.38c1.542 0 2.571-1.698 2.571-3.588M4.916-3.6c0 1.447-.706 2.906-2.01 2.906H1.758v-5.92h1.136c1.388 0 2.022 1.65 2.022 3.014"/><path id="m" d="M5.896-.49v-.97c0-.214 0-.49-.382-.49-.395 0-.395.264-.395.49v.766H1.926v-2.75h1.578c0 .418 0 .645.395.645.383 0 .383-.275.383-.49v-1.005c0-.215 0-.49-.383-.49-.395 0-.395.227-.395.646H1.926v-2.476h2.93v.586c0 .215 0 .49.382.49.395 0 .395-.263.395-.49v-.79c0-.37-.072-.49-.478-.49H.825c-.167 0-.49 0-.49.347s.323.347.49.347h.323v5.92H.825c-.167 0-.49 0-.49.347S.658 0 .825 0h4.593c.395 0 .478-.108.478-.49"/><path id="n" d="M5.74-6.028v-.79c0-.37-.071-.49-.478-.49h-4.4c-.168 0-.491 0-.491.347s.323.347.49.347h.359v5.92H.86c-.167 0-.49 0-.49.347S.694 0 .86 0h1.71c.168 0 .479 0 .479-.347s-.311-.347-.479-.347h-.574v-2.619h1.627c0 .419 0 .646.395.646.382 0 .382-.275.382-.49v-1.005c0-.215 0-.49-.382-.49-.395 0-.395.227-.395.645H1.997v-2.607h2.966v.586c0 .215 0 .49.383.49.395 0 .395-.263.395-.49"/><path id="u" d="M5.27-.971v-.611h-.273v.611c0 .633-.273.698-.393.698-.36 0-.404-.49-.404-.545V-3c0-.458 0-.884-.392-1.288a2.08 2.08 0 0 0-1.495-.6c-.895 0-1.647.513-1.647 1.233 0 .327.218.513.501.513a.48.48 0 0 0 .502-.502c0-.13-.054-.49-.556-.502.294-.382.829-.502 1.178-.502.535 0 1.157.426 1.157 1.397v.403c-.557.033-1.32.066-2.008.393-.818.371-1.09.939-1.09 1.419C.35-.153 1.406.12 2.094.12a1.51 1.51 0 0 0 1.429-.95c.044.437.338.895.85.895.23 0 .896-.152.896-1.036m-1.822-.556C3.448-.491 2.662-.12 2.17-.12c-.534 0-.982-.382-.982-.927 0-.6.458-1.506 2.259-1.571z"/><path id="f" d="M7.255-2.542c0-.11 0-.186-.142-.186-.12 0-.12.066-.13.175C6.894-.993 5.727-.098 4.538-.098c-.666 0-2.804-.371-2.804-3.622 0-3.262 2.127-3.633 2.793-3.633 1.189 0 2.16.992 2.378 2.585.022.153.022.186.175.186.174 0 .174-.033.174-.262V-7.43c0-.185 0-.262-.12-.262-.043 0-.087 0-.174.131l-.546.808c-.404-.393-.96-.939-2.007-.939-2.04 0-3.797 1.735-3.797 3.96C.611-1.471 2.378.24 4.408.24c1.778 0 2.847-1.516 2.847-2.782"/><path id="v" d="M4.528-1.298c0-.11-.11-.11-.142-.11-.098 0-.12.044-.142.11C3.928-.284 3.218-.153 2.814-.153c-.577 0-1.538-.469-1.538-2.225 0-1.779.895-2.237 1.473-2.237.099 0 .786.011 1.168.404-.448.032-.513.36-.513.502 0 .283.196.501.502.501.283 0 .502-.185.502-.512 0-.742-.83-1.168-1.67-1.168-1.363 0-2.367 1.179-2.367 2.531C.37-.96 1.45.12 2.717.12c1.462 0 1.81-1.31 1.81-1.418"/><path id="d" d="M7.113-2.815h-.272c-.273 1.68-.524 2.477-2.4 2.477H2.988c-.512 0-.534-.077-.534-.437v-2.913h.982c1.058 0 1.178.35 1.178 1.277h.273v-2.891h-.273c0 .938-.12 1.276-1.178 1.276h-.982v-2.618c0-.36.022-.437.534-.437h1.408c1.669 0 1.964.6 2.138 2.117h.273L6.502-7.42H.36v.338h.262c.84 0 .862.12.862.513V-.85c0 .393-.022.513-.862.513H.36V0h6.295z"/><path id="r" d="M4.528-1.298c0-.11-.088-.131-.142-.131-.098 0-.12.065-.142.153C3.862-.153 2.88-.153 2.771-.153c-.545 0-.982-.327-1.233-.73-.327-.524-.327-1.244-.327-1.637h3.044c.24 0 .273 0 .273-.23 0-1.08-.59-2.138-1.953-2.138-1.266 0-2.27 1.124-2.27 2.488 0 1.462 1.146 2.52 2.4 2.52 1.332 0 1.823-1.211 1.823-1.418m-.72-1.451H1.222c.065-1.626.982-1.899 1.353-1.899 1.123 0 1.233 1.473 1.233 1.899"/><path id="l" d="M4.986-1.833c0-.393-.12-.884-.535-1.342-.207-.229-.382-.338-1.08-.774.786-.404 1.32-.971 1.32-1.691 0-1.004-.97-1.626-1.963-1.626-1.092 0-1.975.807-1.975 1.822 0 .196.022.687.48 1.2.12.13.524.404.796.59-.633.316-1.57.926-1.57 2.007C.458-.491 1.57.24 2.716.24c1.232 0 2.269-.906 2.269-2.073M4.21-5.64c0 .621-.425 1.145-1.08 1.527l-1.353-.873c-.502-.327-.545-.698-.545-.884 0-.665.709-1.123 1.484-1.123.796 0 1.494.567 1.494 1.353m.23 4.2c0 .807-.819 1.375-1.713 1.375-.939 0-1.724-.677-1.724-1.582 0-.633.349-1.331 1.276-1.844l1.342.85c.306.208.818.535.818 1.2"/><path id="k" d="M6.655-4.964 6.35-7.42H.36v.338h.262c.84 0 .862.12.862.513V-.85c0 .393-.022.513-.862.513H.36V0c.382-.033 1.233-.033 1.658-.033.448 0 1.44 0 1.833.033v-.338h-.36c-1.036 0-1.036-.142-1.036-.524v-2.684h.938c1.047 0 1.156.35 1.156 1.277h.273V-5.16H4.55c0 .916-.109 1.276-1.156 1.276h-.938v-2.76c0-.36.022-.437.534-.437H4.3c1.636 0 1.909.611 2.083 2.117z"/><path id="g" d="M3.011-2.04v-.633H.12v.633z"/><path id="h" d="M8.03 0v-.338c-.59 0-.818-.044-1.146-.524l-2.52-3.71 1.964-1.887c.087-.087.665-.643 1.549-.654v-.339c-.284.033-.633.033-.927.033-.393 0-1.015 0-1.386-.033v.339c.436.01.502.262.502.36 0 .174-.11.283-.196.36L2.455-3.131v-3.47c0-.392.022-.512.862-.512h.261v-.339c-.381.033-1.189.033-1.603.033s-1.233 0-1.615-.033v.339h.262c.84 0 .862.12.862.512v5.75c0 .393-.022.513-.862.513H.36V0c.382-.033 1.19-.033 1.604-.033s1.233 0 1.614.033v-.338h-.261c-.84 0-.862-.12-.862-.513v-1.91l1.265-1.2 1.975 2.925c.065.098.164.24.164.37 0 .328-.426.328-.644.328V0c.382-.033 1.146-.033 1.56-.033z"/><path id="t" d="M2.782 0v-.338c-.73 0-.85 0-.85-.491v-6.743l-1.572.12v.339c.764 0 .851.076.851.61v5.674c0 .49-.12.49-.851.49V0l1.211-.033z"/><path id="w" d="M8.87 0v-.338c-.567 0-.84 0-.851-.328v-2.083c0-.939 0-1.277-.338-1.67-.153-.185-.513-.403-1.146-.403-.916 0-1.396.654-1.582 1.069-.153-.95-.96-1.07-1.45-1.07-.797 0-1.31.47-1.616 1.146v-1.145l-1.538.12v.338c.764 0 .851.076.851.611v2.924c0 .49-.12.49-.85.49V0l1.232-.033L2.804 0v-.338c-.731 0-.851 0-.851-.491v-2.008c0-1.134.775-1.745 1.473-1.745.687 0 .807.589.807 1.21v2.543c0 .49-.12.49-.85.49V0l1.232-.033L5.837 0v-.338c-.731 0-.851 0-.851-.491v-2.008c0-1.134.774-1.745 1.473-1.745.687 0 .807.589.807 1.21v2.543c0 .49-.12.49-.85.49V0l1.232-.033z"/><path id="x" d="M5.837 0v-.338c-.567 0-.84 0-.851-.328v-2.083c0-.939 0-1.277-.338-1.67-.153-.185-.513-.403-1.146-.403-.796 0-1.31.469-1.615 1.145v-1.145l-1.538.12v.338c.764 0 .851.076.851.611v2.924c0 .49-.12.49-.85.49V0l1.232-.033L2.804 0v-.338c-.731 0-.851 0-.851-.491v-2.008c0-1.134.775-1.745 1.473-1.745.687 0 .807.589.807 1.21v2.543c0 .49-.12.49-.85.49V0l1.232-.033z"/><path id="s" d="M5.684-2.357c0-1.385-1.058-2.465-2.28-2.465-.851 0-1.31.48-1.527.72v-.72l-1.572.12v.338c.775 0 .851.065.851.546v5.105c0 .491-.12.491-.85.491v.339l1.221-.033 1.233.033v-.339c-.73 0-.85 0-.85-.49V-.645c.054.175.512.764 1.341.764C4.55.12 5.684-.95 5.684-2.357m-.905 0c0 1.32-.764 2.237-1.571 2.237-.437 0-.851-.218-1.146-.666-.153-.229-.153-.24-.153-.458v-2.433c.317-.556.851-.872 1.408-.872.796 0 1.462.96 1.462 2.192"/><path id="q" d="M3.611 2.618c0-.032 0-.054-.185-.24-1.364-1.374-1.713-3.436-1.713-5.105 0-1.899.414-3.797 1.756-5.16.142-.132.142-.154.142-.186 0-.077-.043-.11-.109-.11-.109 0-1.09.742-1.735 2.128-.556 1.2-.687 2.411-.687 3.327 0 .851.12 2.172.72 3.404.655 1.342 1.593 2.052 1.702 2.052.066 0 .11-.033.11-.11"/><path id="z" d="M3.153-2.727c0-.851-.12-2.172-.72-3.404C1.778-7.473.84-8.182.73-8.182c-.065 0-.11.043-.11.109 0 .032 0 .054.208.25C1.9-6.742 2.52-5.007 2.52-2.726c0 1.865-.403 3.785-1.756 5.16-.142.13-.142.153-.142.185 0 .066.044.11.109.11.11 0 1.091-.742 1.735-2.128.556-1.2.687-2.411.687-3.327"/><path id="i" d="M7.986-.96c0-.066 0-.186-.142-.186-.12 0-.12.099-.13.175-.066.775-.448.971-.72.971-.535 0-.623-.556-.775-1.571l-.142-.873c-.197-.698-.731-1.058-1.331-1.265 1.058-.262 1.91-.928 1.91-1.779 0-1.047-1.245-1.964-2.848-1.964H.382v.339h.262c.84 0 .862.12.862.512v5.75c0 .393-.022.513-.862.513H.382V0c.393-.033 1.167-.033 1.593-.033s1.2 0 1.593.033v-.338h-.262c-.84 0-.862-.12-.862-.513v-2.76h1.254c.175 0 .633 0 1.015.37.415.393.415.732.415 1.463 0 .709 0 1.145.447 1.56C6.022.175 6.622.24 6.95.24c.85 0 1.036-.895 1.036-1.2M5.531-5.488c0 .753-.261 1.637-1.876 1.637H2.444v-2.826c0-.25 0-.382.24-.415.109-.021.425-.021.644-.021.981 0 2.203.043 2.203 1.625"/><path id="j" d="m7.473-4.931-.207-2.455H.6L.393-4.931h.273c.152-1.757.316-2.117 1.963-2.117.197 0 .48 0 .59.022.229.044.229.164.229.415v5.75c0 .37 0 .523-1.146.523h-.436V0c.447-.033 1.56-.033 2.062-.033S5.553-.033 6 0v-.338h-.437C4.42-.338 4.42-.491 4.42-.862v-5.75c0-.218 0-.37.196-.414.12-.022.415-.022.622-.022 1.647 0 1.81.36 1.964 2.117z"/><path id="y" d="M3.622-1.353v-.622H3.35v.6c0 .808-.327 1.222-.73 1.222-.732 0-.732-.993-.732-1.178v-3.033h1.56v-.338h-1.56V-6.71h-.272c-.011.895-.339 2.062-1.408 2.106v.24h.928v3.011C1.135-.01 2.149.12 2.542.12c.775 0 1.08-.775 1.08-1.473"/><path id="e" d="M7.812-7.113v-.339l-1.288.033-1.298-.033v.339c1.124 0 1.124.512 1.124.807v3.786C6.35-.971 5.29-.098 4.255-.098c-.513 0-1.8-.273-1.8-2.346V-6.6c0-.392.022-.512.862-.512h.261v-.339c-.381.033-1.189.033-1.603.033s-1.233 0-1.615-.033v.339h.262c.84 0 .862.12.862.512v4.114C1.484-.95 2.749.24 4.234.24 5.487.24 6.47-.775 6.654-2.018c.033-.219.033-.317.033-.753v-3.491c0-.36 0-.851 1.124-.851"/><path id="a" d="M8.204-3.622v3.23H2.63v-3.23zm.371-3.219H5.62v-1.865c.272-.044.37-.153.392-.306l-1.123-.13v5.193H2.695l-.797-.35V.83h.12c.295 0 .611-.174.611-.25v-.644h5.575v.861h.11c.24 0 .6-.163.61-.24V-3.48c.23-.044.404-.142.48-.23L8.5-4.396l-.415.448H5.62v-2.586h4.31c.163 0 .272-.055.305-.175-.415-.36-1.08-.883-1.08-.883z"/><path id="b" d="M8.553-3.851c-.327.022-1.505.043-2.814.065l.032-.862.055-.436c.01-.087-.022-.153-.11-.175-.152-.054-.392-.087-.621-.12.633-.392 1.2-.829 1.67-1.309l2.312 1.342c.087.055.207.12.273.11.12 0 .284-.143.305-.295 0-.066-.032-.142-.13-.251a5 5 0 0 0-.699-.611l-.6-.066-1.113-.61c.306-.372.568-.753.753-1.146a.5.5 0 0 0 .055-.24c0-.077-.044-.153-.131-.218-.208-.142-.742-.371-1.113-.459-.076-.01-.12 0-.142.044l-.13.24c.24.13.48.36.566.556-.349.677-.927 1.408-1.658 2.084a3 3 0 0 0-.382-.545l-.447-.098-.502-.339c.251-.294.47-.61.633-.938.033-.065.054-.13.054-.23s-.043-.163-.12-.217c-.218-.131-.741-.306-1.123-.371-.077-.011-.11 0-.131.043l-.131.24c.25.131.502.328.6.491-.47.928-1.473 1.942-2.738 2.695-.055.044-.055.077-.011.12l.076.077c.044.032.065.032.13 0 .95-.404 1.768-.928 2.401-1.528l1.277.96c-.404.35-.851.677-1.331.971-.044.033-.055.066-.022.11l.098.098c.033.021.054.021.098 0 .273-.12.546-.251.807-.393.186.076.35.196.448.305v.982c-1.56.022-3.099.033-3.426.033-.338 0-.85-.044-1.211-.11l-.076.154q-.016.048.032.098c.273.218.677.447 1.07.567a6 6 0 0 1 1.09-.207c.579-.033 5.576-.098 6.34-.088.327 0 .97.022 1.265.055a.5.5 0 0 0 .229-.404c0-.087-.066-.152-.142-.174-.25-.088-.829-.153-1.222-.164zM7.364-2.226c-.73.033-3.851.077-4.396.077a7 7 0 0 1-1.07-.088l-.076.142c-.01.044 0 .077.033.11.25.196.61.381.949.501.229-.087.709-.163.96-.174.48-.033 2.738-.055 3.59-.044v1.571c0 .393.021 1.047.065 1.418h.48c.13-.425.218-1.145.218-1.603l.022-1.331.13-.339c.023-.054.023-.087-.021-.12a3.4 3.4 0 0 0-.415-.261.21.21 0 0 0-.163 0z"/><path id="c" d="M9.044.273c.055-.24.099-.644.099-.939v-1.832l.032-.426c0-.076-.022-.13-.109-.164-.273-.109-.862-.218-1.21-.24-.088 0-.11.022-.12.055l-.099.262c.295.098.567.24.731.393v1.047l-3.557.022v-.578l.011-.437c0-.087-.022-.142-.109-.174-.273-.077-.84-.131-1.178-.131-.087 0-.12.021-.131.043l-.066.251c.262.077.524.208.666.35l.065 2.76c0 .174.033.436.088.589h.425a.9.9 0 0 0 .175-.338c.982 0 3.546-.022 4.473-.022a.46.46 0 0 0 .109-.306c0-.054-.033-.087-.098-.109zM8.368-1.08V.273L4.789.295 4.8-1.058zM7.146-3.524c.131-.415.23-1.135.23-1.767v-2.433l.021-.48c.01-.099-.033-.164-.11-.197-.272-.13-.861-.25-1.21-.262-.077 0-.11.022-.131.066l-.087.25c.327.11.622.285.774.47v.72c-.36.033-.84.044-1.113.044-.207 0-.403-.022-.578-.033-.403-.491-1.047-.786-1.81-.786-1.31 0-2.27.84-2.27 2.062 0 1.233.96 2.084 2.27 2.084.796 0 1.461-.316 1.865-.85.109.076.229.152.349.217a2.5 2.5 0 0 1 .556-.12c.164-.01.48-.021.742-.01.011.37.022.774.055 1.025zm-.513-1.473a16 16 0 0 1-1.156.044c-.098 0-.197 0-.284-.011.131-.273.197-.578.197-.906 0-.283-.055-.534-.142-.774a1 1 0 0 0 .13.076c.164-.054.404-.109.568-.12.153-.022.447-.033.687-.022zm-3.502.611c-.85 0-1.473-.556-1.473-1.484 0-.916.622-1.483 1.473-1.483s1.473.567 1.473 1.483c0 .928-.622 1.484-1.473 1.484m5.368-.6c0 .404.022 1.157.065 1.517h.459c.13-.426.24-1.19.24-1.757v-3.066l.021-.534c.011-.098-.021-.175-.13-.207-.273-.131-.928-.262-1.299-.273-.076 0-.109.022-.13.065l-.077.251c.349.12.676.306.85.524z"/></defs><use xlink:href="#a" x="10.496866" y="-33.039726" transform="translate(80.719 57.733)scale(1.00008)"/><use xlink:href="#b" x="10.496866" y="-33.039726" transform="translate(137.598 57.504)scale(1.00008)"/><use xlink:href="#c" x="10.496866" y="-33.039726" transform="translate(194.291 57.668)scale(1.00008)"/><g transform="translate(4.827 75.727)scale(1.00008)"><use xlink:href="#d" x="10.496866" y="-33.039726"/><use xlink:href="#e" x="17.926578" y="-33.039726"/><use xlink:href="#f" x="26.109079" y="-33.039726"/><use xlink:href="#g" x="33.986101" y="-33.039726"/><use xlink:href="#h" x="37.619128" y="-33.039726"/><use xlink:href="#i" x="46.107107" y="-33.039726"/></g><g transform="translate(10.51 101.12)scale(1.00008)"><use xlink:href="#e" x="10.496866" y="-33.039726"/><use xlink:href="#j" x="18.679367" y="-33.039726"/><use xlink:href="#k" x="26.556387" y="-33.039726"/><use xlink:href="#g" x="33.680617" y="-33.039726"/><use xlink:href="#l" x="37.313645" y="-33.039726"/></g><g transform="translate(65.843 75.654)scale(1.0004)"><use xlink:href="#m" x="10.500214" y="-33.050264"/><use xlink:href="#n" x="16.659616" y="-33.050264"/></g><g transform="translate(94.19 75.654)scale(1.0004)"><use xlink:href="#o" x="10.500214" y="-33.050264"/><use xlink:href="#n" x="16.659616" y="-33.050264"/></g><g transform="translate(122.537 75.654)scale(1.0004)"><use xlink:href="#o" x="10.500214" y="-33.050264"/><use xlink:href="#p" x="16.659616" y="-33.050264"/></g><g transform="translate(150.883 75.654)scale(1.0004)"><use xlink:href="#m" x="10.500214" y="-33.050264"/><use xlink:href="#n" x="16.659616" y="-33.050264"/></g><g transform="translate(179.23 75.654)scale(1.0004)"><use xlink:href="#o" x="10.500214" y="-33.050264"/><use xlink:href="#n" x="16.659616" y="-33.050264"/></g><g transform="translate(207.577 75.654)scale(1.0004)"><use xlink:href="#o" x="10.500214" y="-33.050264"/><use xlink:href="#p" x="16.659616" y="-33.050264"/></g><g fill="none" stroke="#000" stroke-miterlimit="10" stroke-width=".3985"><path d="M73.151 45.805h47.036v-13.68H73.151ZM129.845 45.805h47.036v-13.68h-47.036ZM186.539 45.805h47.036v-13.68h-47.036Z"/></g><g transform="translate(65.843 101.166)scale(1.0004)"><use xlink:href="#m" x="10.500214" y="-33.050264"/><use xlink:href="#n" x="16.659616" y="-33.050264"/></g><g transform="translate(94.19 101.166)scale(1.0004)"><use xlink:href="#o" x="10.500214" y="-33.050264"/><use xlink:href="#n" x="16.659616" y="-33.050264"/></g><g transform="translate(122.537 101.166)scale(1.0004)"><use xlink:href="#o" x="10.500214" y="-33.050264"/><use xlink:href="#p" x="16.659616" y="-33.050264"/></g><g transform="translate(150.883 101.166)scale(1.0004)"><use xlink:href="#m" x="10.500214" y="-33.050264"/><use xlink:href="#n" x="16.659616" y="-33.050264"/></g><g transform="translate(179.23 101.166)scale(1.0004)"><use xlink:href="#o" x="10.500214" y="-33.050264"/><use xlink:href="#n" x="16.659616" y="-33.050264"/></g><g transform="translate(207.577 101.166)scale(1.0004)"><use xlink:href="#o" x="10.500214" y="-33.050264"/><use xlink:href="#p" x="16.659616" y="-33.050264"/></g><path fill="none" stroke="#000" stroke-miterlimit="10" stroke-width=".3985" d="M73.151 71.317h75.383v-13.68H73.151ZM158.192 71.317h75.383v-13.68h-75.383Z"/><g transform="translate(65.579 118.667)scale(1.00008)"><use xlink:href="#q" x="10.496866" y="-33.039726"/><use xlink:href="#i" x="14.740856" y="-33.039726"/><use xlink:href="#r" x="22.770616" y="-33.039726"/><use xlink:href="#s" x="27.614658" y="-33.039726"/><use xlink:href="#t" x="33.680617" y="-33.039726"/><use xlink:href="#u" x="36.713598" y="-33.039726"/><use xlink:href="#v" x="42.168596" y="-33.039726"/><use xlink:href="#r" x="47.012634" y="-33.039726"/><use xlink:href="#w" x="51.856674" y="-33.039726"/><use xlink:href="#r" x="60.944704" y="-33.039726"/><use xlink:href="#x" x="65.788747" y="-33.039726"/><use xlink:href="#y" x="71.549222" y="-33.039726"/><use xlink:href="#z" x="75.793212" y="-33.039726"/></g><g transform="translate(150.62 118.667)scale(1.00008)"><use xlink:href="#q" x="10.496866" y="-33.039726"/><use xlink:href="#i" x="14.740856" y="-33.039726"/><use xlink:href="#r" x="22.770616" y="-33.039726"/><use xlink:href="#s" x="27.614658" y="-33.039726"/><use xlink:href="#t" x="33.680617" y="-33.039726"/><use xlink:href="#u" x="36.713598" y="-33.039726"/><use xlink:href="#v" x="42.168596" y="-33.039726"/><use xlink:href="#r" x="47.012634" y="-33.039726"/><use xlink:href="#w" x="51.856674" y="-33.039726"/><use xlink:href="#r" x="60.944704" y="-33.039726"/><use xlink:href="#x" x="65.788747" y="-33.039726"/><use xlink:href="#y" x="71.549222" y="-33.039726"/><use xlink:href="#z" x="75.793212" y="-33.039726"/></g></svg>