<svg xmlns="http://www.w3.org/2000/svg" xmlns:xlink="http://www.w3.org/1999/xlink" width="208.97pt" height="133.63pt" viewBox="0 0 208.97 133.63"><defs><path id="r" d="M5.15-2.073c0-1.102-.84-2.171-2.128-2.171-.382 0-.862.076-1.31.316V-6h2.62c.163 0 .436 0 .436-.328 0-.338-.262-.338-.437-.338H1.396c-.36 0-.436.098-.436.447v2.902c0 .197 0 .448.35.448.196 0 .24-.055.327-.164.294-.35.741-.545 1.374-.545.895 0 1.386.796 1.386 1.505 0 .873-.775 1.527-1.691 1.527-.306 0-1.004-.087-1.31-.687.055-.054.142-.13.142-.349a.48.48 0 0 0-.48-.49.483.483 0 0 0-.49.523C.567-.644 1.483.12 2.705.12 4.069.12 5.15-.862 5.15-2.073"/><path id="q" d="M5.4-2.171c0-.338-.261-.338-.436-.338h-.85v-3.84c0-.36-.077-.448-.448-.448H3.36c-.262 0-.316.011-.458.23L.415-2.663c-.099.142-.099.164-.099.382 0 .36.099.436.437.436h2.75v1.178h-.677c-.175 0-.437 0-.437.339 0 .327.273.327.437.327h1.963c.164 0 .437 0 .437-.327 0-.339-.262-.339-.437-.339h-.676v-1.178h.851c.164 0 .436 0 .436-.327M3.502-2.51H1.08l2.422-3.808z"/><path id="n" d="M4.822-.327c0-.339-.262-.339-.436-.339h-.993v-5.673c0-.174 0-.447-.327-.447-.208 0-.273.13-.328.262-.414.927-.981 1.047-1.189 1.069-.174.01-.403.033-.403.338 0 .273.196.328.36.328.207 0 .654-.066 1.134-.48v4.603h-.993c-.174 0-.436 0-.436.339 0 .327.273.327.436.327h2.739c.163 0 .436 0 .436-.327"/><path id="p" d="M5.237-1.898c0-.775-.513-1.419-1.233-1.746.61-.393.916-1.015.916-1.604 0-.807-.796-1.538-2.05-1.538-1.31 0-2.074.524-2.074 1.276a.486.486 0 1 0 .971.022.45.45 0 0 0-.098-.294c.338-.339 1.113-.339 1.211-.339.742 0 1.288.393 1.288.884 0 .327-.164.71-.459.95-.349.283-.621.305-1.014.327-.622.043-.786.043-.786.36 0 .338.262.338.437.338h.502c1.08 0 1.636.73 1.636 1.364 0 .665-.61 1.353-1.604 1.353-.436 0-1.276-.12-1.56-.633.055-.055.131-.12.131-.338a.477.477 0 0 0-.48-.48c-.25 0-.491.163-.491.512C.48-.513 1.538.12 2.88.12c1.43 0 2.357-1.004 2.357-2.018"/><path id="o" d="M5.15-.447v-.284c0-.207 0-.447-.371-.447-.382 0-.382.207-.382.512H1.8c.644-.556 1.691-1.374 2.16-1.81.688-.612 1.19-1.31 1.19-2.183 0-1.309-1.102-2.127-2.433-2.127-1.288 0-2.15.895-2.15 1.822a.486.486 0 1 0 .971.033.45.45 0 0 0-.152-.35c.163-.501.676-.84 1.276-.84.895 0 1.735.502 1.735 1.462 0 .764-.535 1.397-1.255 1.997L.731-.632c-.098.087-.164.141-.164.294C.567 0 .84 0 1.015 0h3.698c.36 0 .437-.098.437-.447"/><path id="m" d="M5.171-3.328c0-2.029-1.112-3.458-2.313-3.458-1.221 0-2.312 1.462-2.312 3.448C.546-1.31 1.658.12 2.858.12c1.222 0 2.313-1.462 2.313-3.448m-.752-.12c0 1.615-.71 2.903-1.56 2.903s-1.56-1.288-1.56-2.903c0-1.592.752-2.673 1.56-2.673.796 0 1.56 1.07 1.56 2.673"/><path id="l" d="M5.537-2.272c0-1.208-.897-2.392-2.284-2.392-.395 0-.92.071-1.423.346v-2.296h2.81c.168 0 .479 0 .479-.347s-.311-.347-.479-.347H1.53c-.382 0-.478.096-.478.467v3.193c0 .168 0 .467.36.467.19 0 .238-.06.334-.18.359-.418.885-.61 1.507-.61.933 0 1.507.85 1.507 1.699 0 .968-.837 1.722-1.842 1.722-.622 0-1.256-.3-1.47-.861.047-.048.13-.132.13-.347a.49.49 0 0 0-.478-.49c-.107 0-.49.06-.49.526C.61-.718 1.603.144 2.918.144c1.447 0 2.62-1.077 2.62-2.416"/><path id="k" d="M5.8-2.356c0-.347-.31-.347-.478-.347h-.897v-4.282c0-.394-.084-.49-.49-.49H3.66c-.287 0-.347.012-.49.24L.453-2.87c-.107.155-.107.179-.107.394 0 .419.155.467.478.467h2.93v1.315h-.717c-.168 0-.479 0-.479.347S2.87 0 3.038 0h2.105c.167 0 .478 0 .478-.347s-.31-.347-.478-.347h-.718v-1.315h.897c.168 0 .479 0 .479-.347m-2.045-.347H1.148l2.607-4.186z"/><path id="h" d="M5.179-.347c0-.347-.323-.347-.49-.347H3.635V-6.96c0-.18 0-.49-.347-.49-.203 0-.275.108-.347.263-.227.514-.622 1.148-1.256 1.196-.179.012-.43.036-.43.347 0 .203.12.347.383.347.67 0 1.184-.503 1.22-.527v5.131H1.805c-.167 0-.49 0-.49.347s.323.347.49.347h2.882c.168 0 .49 0 .49-.347"/><path id="j" d="M5.633-2.07c0-.609-.335-1.458-1.387-1.913.73-.454 1.052-1.172 1.052-1.794 0-.897-.897-1.674-2.188-1.674-1.328 0-2.26.574-2.26 1.459 0 .395.298.514.49.514a.48.48 0 0 0 .478-.49c0-.191-.096-.311-.096-.311.359-.454 1.184-.478 1.388-.478.813 0 1.41.43 1.41.992 0 .347-.226 1.34-1.482 1.424-.443.023-.634.047-.682.047-.24.024-.299.18-.299.347 0 .347.251.347.455.347h.55c1.244 0 1.794.873 1.794 1.519 0 .79-.694 1.53-1.746 1.53-1.196 0-1.735-.645-1.735-.812l.024-.06a.6.6 0 0 0 .084-.287.47.47 0 0 0-.478-.479c-.252 0-.49.156-.49.527C.514-.622 1.65.144 3.11.144c1.507 0 2.523-1.077 2.523-2.213"/><path id="i" d="M5.537-.49v-.252c0-.215 0-.49-.382-.49-.395 0-.395.251-.395.538H1.878L4.162-2.63c.168-.144 1.375-1.172 1.375-2.5 0-1.363-1.124-2.32-2.619-2.32C1.531-7.451.61-6.411.61-5.406a.49.49 0 0 0 .49.538.48.48 0 0 0 .479-.49c0-.227-.084-.3-.144-.347.168-.634.718-1.052 1.411-1.052 1.017 0 1.914.586 1.914 1.626 0 .933-.706 1.65-1.351 2.213L.777-.634C.646-.526.61-.49.61-.347.61 0 .933 0 1.1 0h4.174c.263-.072.263-.311.263-.49"/><path id="g" d="M5.55-3.648c0-2.224-1.185-3.803-2.476-3.803C1.77-7.451.598-5.848.598-3.66.598-1.435 1.782.144 3.074.144c1.303 0 2.475-1.603 2.475-3.792m-.778-.131c0 1.77-.753 3.229-1.698 3.229S1.375-1.997 1.375-3.78s.826-2.977 1.699-2.977S4.772-5.561 4.772-3.78"/><path id="e" d="M5.262-2.404c0-1.423-.956-2.607-2.212-2.607-.682 0-1.208.299-1.52.634v-2.476c.515.167.934.18 1.065.18 1.352 0 2.213-.993 2.213-1.16 0-.049-.024-.108-.096-.108 0 0-.048 0-.155.047a3.9 3.9 0 0 1-1.555.323c-.79 0-1.352-.239-1.579-.335-.083-.035-.12-.035-.12-.035-.095 0-.095.071-.095.263v3.552c0 .215 0 .287.143.287.06 0 .072-.012.192-.156.335-.49.897-.777 1.495-.777.634 0 .945.586 1.04.79.204.466.216 1.052.216 1.506s0 1.136-.335 1.675c-.263.43-.73.73-1.256.73-.79 0-1.567-.539-1.782-1.412.06.024.131.036.191.036.204 0 .527-.12.527-.526 0-.335-.228-.527-.527-.527-.215 0-.526.108-.526.574 0 1.017.813 2.177 2.14 2.177 1.352 0 2.536-1.136 2.536-2.655"/><path id="a" d="M5.358-3.935c0-3.217-1.34-4.018-2.392-4.018C1.65-7.953.49-6.853.49-5.274S1.603-2.62 2.8-2.62c.885 0 1.34-.646 1.578-1.256v.395c0 2.822-1.255 3.408-1.973 3.408-.287 0-.921-.036-1.22-.454h.072c.084.024.514-.048.514-.49 0-.264-.18-.491-.49-.491s-.503.203-.503.514c0 .742.598 1.244 1.639 1.244 1.495 0 2.942-1.59 2.942-4.186M4.353-5.01c0 1.004-.454 2.153-1.507 2.153-.753 0-1.076-.61-1.184-.838-.19-.454-.19-1.028-.19-1.566 0-.67 0-1.244.31-1.735.215-.323.538-.67 1.184-.67.682 0 1.029.599 1.148.874.24.586.24 1.602.24 1.782"/><path id="c" d="M4.904 0v-.347h-.371C3.48-.347 3.444-.49 3.444-.92v-6.745c0-.275 0-.287-.239-.287-.287.323-.885.765-2.117.765v.347c.275 0 .873 0 1.531-.311v6.231c0 .43-.036.574-1.088.574h-.37V0c.322-.024 1.482-.024 1.877-.024s1.543 0 1.866.024"/><path id="b" d="M5.681-7.427v-.275H2.799c-1.448 0-1.471-.156-1.52-.383h-.262L.646-5.693h.263c.036-.215.143-.957.299-1.088.096-.072.993-.072 1.16-.072h2.536L3.636-5.035C3.313-4.57 2.105-2.607 2.105-.36c0 .132 0 .61.49.61.503 0 .503-.466.503-.622v-.598c0-1.782.287-3.17.849-3.97z"/><path id="d" d="M5.358-2.44c0-1.59-1.112-2.655-2.308-2.655-1.065 0-1.46.921-1.579 1.256v-.323c0-3.026 1.471-3.504 2.117-3.504.43 0 .861.131 1.088.49-.143 0-.598 0-.598.49 0 .263.18.49.49.49.3 0 .503-.179.503-.526 0-.621-.454-1.231-1.495-1.231C2.069-7.953.49-6.411.49-3.78.49-.49 1.926.25 2.942.25c1.304 0 2.416-1.136 2.416-2.69m-.98-.012c0 .61 0 1.148-.228 1.603-.299.574-.73.777-1.208.777-.753 0-1.112-.67-1.22-.92-.107-.312-.227-.898-.227-1.735 0-.945.43-2.129 1.507-2.129.658 0 1.005.443 1.184.85.191.442.191 1.04.191 1.554"/><path id="f" d="M5.262-2.01H5c-.036.204-.131.862-.25 1.053-.085.108-.766.108-1.125.108H1.41c.323-.275 1.053-1.04 1.364-1.328 1.818-1.674 2.487-2.296 2.487-3.48 0-1.375-1.088-2.296-2.475-2.296S.586-6.77.586-5.741c0 .61.526.61.562.61.251 0 .562-.18.562-.562 0-.335-.227-.562-.562-.562-.107 0-.131 0-.167.012.227-.813.873-1.364 1.65-1.364 1.017 0 1.639.85 1.639 1.95 0 1.017-.586 1.902-1.268 2.667L.586-.287V0h4.365z"/></defs><path fill="none" stroke="#000" stroke-miterlimit="10" stroke-width=".3985" d="M71.233 29.966a8.01 8.01 0 1 0-16.02 0 8.01 8.01 0 0 0 16.02 0Z"/><use xlink:href="#a" x="-8.780524" y="-42.053878" transform="translate(69.071 75.853)scale(1.0004)"/><path fill="none" stroke="#000" stroke-miterlimit="10" stroke-width=".3985" d="M48.6 63.982a8.054 8.054 0 1 0-16.108 0 8.054 8.054 0 0 0 16.108 0Z"/><use xlink:href="#b" x="-8.780524" y="-42.053878" transform="translate(46.394 109.935)scale(1.0004)"/><path fill="none" stroke="#000" stroke-miterlimit="10" stroke-width=".3985" d="m58.67 36.796-13.547 20.32M37.135 97.998a7.928 7.928 0 1 0-15.856 0 7.928 7.928 0 0 0 15.856 0Z"/><use xlink:href="#c" x="-8.780524" y="-42.053878" transform="translate(35.055 144.01)scale(1.0004)"/><path fill="none" stroke="#000" stroke-miterlimit="10" stroke-width=".3985" d="m37.936 71.812-6.16 18.476M59.894 97.998a8.01 8.01 0 1 0-16.02 0 8.01 8.01 0 0 0 16.02 0Z"/><use xlink:href="#d" x="-8.780524" y="-42.053878" transform="translate(57.732 143.885)scale(1.0004)"/><path fill="none" stroke="#000" stroke-miterlimit="10" stroke-width=".3985" d="m43.155 71.812 6.133 18.399M93.903 63.982a8.002 8.002 0 1 0-16.005 0 8.002 8.002 0 0 0 16.005 0Z"/><use xlink:href="#e" x="-8.780524" y="-42.053878" transform="translate(91.748 109.863)scale(1.0004)"/><path fill="none" stroke="#000" stroke-miterlimit="10" stroke-width=".3985" d="m67.776 36.796 13.575 20.362M82.49 97.998a7.928 7.928 0 1 0-15.856 0 7.928 7.928 0 0 0 15.856 0Z"/><use xlink:href="#f" x="-8.780524" y="-42.053878" transform="translate(80.41 144.01)scale(1.0004)"/><path fill="none" stroke="#000" stroke-miterlimit="10" stroke-width=".3985" d="m83.307 71.763-6.175 18.525"/><use xlink:href="#g" x="-8.780524" y="-42.053878" transform="translate(58.116 67.676)scale(1.0004)"/><use xlink:href="#h" x="-8.780524" y="-42.053878" transform="translate(35.438 101.835)scale(1.0004)"/><use xlink:href="#i" x="-8.780524" y="-42.053878" transform="translate(80.793 101.835)scale(1.0004)"/><use xlink:href="#j" x="-8.780524" y="-42.053878" transform="translate(24.1 135.708)scale(1.0004)"/><use xlink:href="#k" x="-8.780524" y="-42.053878" transform="translate(46.777 135.851)scale(1.0004)"/><use xlink:href="#l" x="-8.780524" y="-42.053878" transform="translate(69.455 135.708)scale(1.0004)"/><path fill="none" stroke="#000" stroke-miterlimit="10" stroke-width=".3985" d="M112.247 66.817h15.34"/><path d="m109.145 66.817 4.468 1.682-1.466-1.682 1.466-1.682Z"/><path fill="none" stroke="#000" stroke-miterlimit="10" stroke-width=".3985" d="m109.145 66.817 4.468 1.682-1.466-1.682 1.466-1.682Z"/><path d="m130.688 66.817-4.468-1.682 1.466 1.682-1.466 1.682Z"/><path fill="none" stroke="#000" stroke-miterlimit="10" stroke-width=".3985" d="m130.688 66.817-4.468-1.682 1.466 1.682-1.466 1.682ZM148.263 29.966V11.541h34.017v18.425"/><use xlink:href="#a" x="-8.780524" y="-42.053878" transform="translate(171.119 66.64)scale(1.0004)"/><use xlink:href="#m" x="-8.777724" y="-42.040468" transform="translate(196.697 66.123)scale(1.00008)"/><path fill="none" stroke="#000" stroke-miterlimit="10" stroke-width=".3985" d="M148.263 48.391V29.966h34.017v18.425"/><use xlink:href="#b" x="-8.780524" y="-42.053878" transform="translate(171.119 85.131)scale(1.0004)"/><use xlink:href="#n" x="-8.777724" y="-42.040468" transform="translate(196.697 84.608)scale(1.00008)"/><path fill="none" stroke="#000" stroke-miterlimit="10" stroke-width=".3985" d="M148.263 66.817V48.39h34.017v18.426"/><use xlink:href="#e" x="-8.780524" y="-42.053878" transform="translate(171.119 103.485)scale(1.0004)"/><use xlink:href="#o" x="-8.777724" y="-42.040468" transform="translate(196.697 103.034)scale(1.00008)"/><path fill="none" stroke="#000" stroke-miterlimit="10" stroke-width=".3985" d="M148.263 85.242V66.817h34.017v18.425"/><use xlink:href="#c" x="-8.780524" y="-42.053878" transform="translate(171.119 122.042)scale(1.0004)"/><use xlink:href="#p" x="-8.777724" y="-42.040468" transform="translate(196.697 121.399)scale(1.00008)"/><path fill="none" stroke="#000" stroke-miterlimit="10" stroke-width=".3985" d="M148.263 103.668V85.242h34.017v18.426"/><use xlink:href="#d" x="-8.780524" y="-42.053878" transform="translate(171.119 140.342)scale(1.0004)"/><use xlink:href="#q" x="-8.777724" y="-42.040468" transform="translate(196.697 139.89)scale(1.00008)"/><path fill="none" stroke="#000" stroke-miterlimit="10" stroke-width=".3985" d="M148.263 122.093v-18.425h34.017v18.425"/><use xlink:href="#f" x="-8.780524" y="-42.053878" transform="translate(171.119 158.893)scale(1.0004)"/><use xlink:href="#r" x="-8.777724" y="-42.040468" transform="translate(196.697 158.19)scale(1.00008)"/><path fill="none" stroke="#000" stroke-miterlimit="10" stroke-width=".3985" d="M148.263 122.093h34.017"/></svg>