<svg xmlns="http://www.w3.org/2000/svg" xmlns:xlink="http://www.w3.org/1999/xlink" width="423.21pt" height="251.99pt" viewBox="0 0 423.21 251.99"><defs><path id="W" d="M6.088-.347c0-.347-.311-.347-.479-.347-.31 0-.55-.024-.717-.095v-2.608c0-.909-.682-1.865-2.297-1.865-.502 0-1.662 0-1.662.825 0 .323.227.502.49.502.072 0 .467-.024.479-.526 0-.06.012-.072.263-.096.143-.012.299-.012.442-.012.275 0 .682 0 1.077.3.43.334.43.669.43 1.016-.705.024-1.4.072-2.14.31C1.374-2.738.61-2.307.61-1.494c0 .85.753 1.567 1.866 1.567.382 0 1.124-.06 1.746-.49.24.394.837.418 1.292.418.287 0 .574 0 .574-.347M4.114-1.579c0 .275 0 .527-.49.754-.419.203-.98.203-1.017.203-.705 0-1.22-.383-1.22-.873 0-.706 1.28-1.112 2.727-1.112z"/><path id="X" d="M5.968-.347c0-.347-.31-.347-.478-.347H5v-6.123c0-.371-.072-.49-.48-.49h-.788c-.168 0-.479 0-.479.346s.311.347.479.347h.49v1.985c-.191-.19-.682-.598-1.411-.598C1.543-5.227.443-4.078.443-2.57c0 1.47 1.028 2.643 2.26 2.643.777 0 1.292-.467 1.519-.73 0 .503 0 .658.478.658h.79c.167 0 .478 0 .478-.347M4.222-2.272c0 .67-.55 1.65-1.447 1.65-.861 0-1.555-.873-1.555-1.95 0-1.148.813-1.96 1.662-1.96.778 0 1.34.705 1.34 1.327z"/><path id="ag" d="M5.406-.347c0-.347-.311-.347-.478-.347h-1.46v-6.123c0-.371-.071-.49-.478-.49H1.232c-.168 0-.479 0-.479.346s.311.347.479.347H2.69v5.92h-1.46c-.167 0-.478 0-.478.347S1.064 0 1.232 0h3.696c.167 0 .478 0 .478-.347"/><path id="af" d="M5.454-2.583c0-1.495-1.089-2.68-2.38-2.68S.694-4.077.694-2.582c0 1.507 1.1 2.655 2.38 2.655s2.38-1.148 2.38-2.655m-.778-.084c0 1.148-.741 2.045-1.602 2.045S1.47-1.53 1.47-2.667c0-1.112.766-1.902 1.603-1.902s1.602.79 1.602 1.902"/><path id="ae" d="M5.705-2.583c0-1.471-1.005-2.644-2.249-2.644-.873 0-1.423.527-1.53.646 0-.394 0-.574-.479-.574h-.79c-.167 0-.478 0-.478.347s.311.347.479.347h.49V1.96h-.49c-.168 0-.479 0-.479.347s.311.347.479.347h1.758c.167 0 .478 0 .478-.347s-.31-.347-.478-.347h-.49V-.598c.287.323.73.67 1.399.67 1.268 0 2.38-1.136 2.38-2.655m-.777 0c0 1.148-.814 1.961-1.663 1.961-.897 0-1.34-1.017-1.34-1.615v-.944c0-.682.67-1.352 1.448-1.352.86 0 1.555.873 1.555 1.95"/><path id="Y" d="M5.119.682c0-.156-.084-.204-.251-.323C3.218-.777 2.81-2.488 2.81-3.648c0-1.136.382-2.858 2.057-4.018.167-.12.25-.168.25-.323 0-.12-.059-.311-.346-.311-.299 0-1.184.693-1.734 1.47a5.43 5.43 0 0 0-1.005 3.182c0 1.328.479 2.44.98 3.146C3.565.263 4.438.993 4.773.993c.287 0 .347-.204.347-.311"/><path id="Z" d="M4.114-3.648c0-.933-.227-2.14-1.088-3.3-.407-.55-1.292-1.352-1.65-1.352-.276 0-.347.203-.347.31 0 .144.083.204.299.348 1.459 1.028 2.009 2.63 2.009 3.982C3.337-2.583 2.99-.825 1.28.36c-.156.107-.251.167-.251.323 0 .107.071.31.346.31.3 0 1.184-.693 1.735-1.47a5.5 5.5 0 0 0 1.004-3.17"/><path id="z" d="M5.669-1.064v-.67h-.263v.67c0 .681-.287.777-.455.777-.454 0-.454-.634-.454-.813v-2.093c0-.646 0-1.125-.526-1.591-.419-.383-.957-.55-1.483-.55-.981 0-1.735.646-1.735 1.423 0 .347.228.514.503.514.287 0 .49-.203.49-.49 0-.49-.43-.49-.61-.49.275-.503.85-.718 1.328-.718.55 0 1.256.455 1.256 1.53v.48C1.316-3.05.407-2.046.407-1.126c0 .946 1.1 1.245 1.83 1.245A1.63 1.63 0 0 0 3.79-.933c.048.562.419.993.933.993.251 0 .945-.168.945-1.124m-1.95-.622C3.72-.514 2.847-.12 2.333-.12c-.586 0-1.076-.43-1.076-1.004 0-1.579 2.033-1.722 2.464-1.746z"/><path id="J" d="M6.16 0v-.347c-.814 0-.91-.084-.91-.67V-8.3l-1.662.131v.347c.813 0 .909.084.909.67v2.643a1.86 1.86 0 0 0-1.495-.765C1.615-5.274.419-4.102.419-2.571c0 1.519 1.136 2.69 2.451 2.69.91 0 1.436-.597 1.603-.825V.12zM4.472-1.4c0 .216 0 .252-.167.515-.287.419-.778.765-1.376.765-.31 0-1.602-.12-1.602-2.44 0-.86.143-1.339.406-1.734.24-.37.718-.741 1.316-.741.741 0 1.16.538 1.28.73.143.203.143.227.143.442z"/><path id="F" d="M4.868-1.423c0-.072-.06-.12-.132-.12-.096 0-.12.06-.143.12C4.282-.42 3.48-.143 2.978-.143s-1.71-.335-1.71-2.404v-.228H4.58c.263 0 .287 0 .287-.227 0-1.208-.646-2.332-2.093-2.332C1.41-5.334.359-4.102.359-2.62.359-1.041 1.579.12 2.906.12c1.424 0 1.962-1.292 1.962-1.543m-.742-1.579H1.28c.095-1.878 1.148-2.093 1.483-2.093 1.28 0 1.351 1.686 1.363 2.093"/><path id="R" d="M8.276 0v-.347h-.239c-.861 0-.897-.12-.897-.562v-6.35c0-.443.036-.563.897-.563h.24v-.347c-.288.024-1.268.024-1.615.024-.36 0-1.34 0-1.627-.024v.347h.24c.86 0 .896.12.896.562v2.835H2.595V-7.26c0-.442.036-.562.897-.562h.24v-.347c-.288.024-1.268.024-1.615.024-.359 0-1.34 0-1.627-.024v.347h.24c.86 0 .897.12.897.562v6.351c0 .443-.036.562-.897.562H.49V0c.287-.024 1.268-.024 1.615-.024.359 0 1.34 0 1.627.024v-.347h-.24c-.86 0-.897-.12-.897-.562v-3.17h3.576v3.17c0 .443-.036.562-.897.562h-.239V0c.287-.024 1.268-.024 1.615-.024.359 0 1.34 0 1.626.024"/><path id="D" d="M2.882 0v-.347c-.777 0-.825-.06-.825-.526v-4.401l-1.626.131v.347c.765 0 .873.072.873.658v3.253c0 .538-.132.538-.91.538V0c.336-.024.91-.024 1.256-.024.132 0 .826 0 1.232.024m-.67-7.224a.58.58 0 1 0-.586.574.576.576 0 0 0 .587-.574"/><path id="H" d="M2.966 0v-.347c-.765 0-.909 0-.909-.538V-8.3L.395-8.17v.347c.813 0 .909.084.909.67v6.267c0 .538-.132.538-.91.538V0c.336-.024.922-.024 1.28-.024s.957 0 1.292.024"/><path id="L" d="M9.484 0v-.347c-.598 0-.897 0-.909-.359v-2.2c0-1.113 0-1.447-.275-1.83-.347-.467-.909-.538-1.315-.538-.993 0-1.495.717-1.687 1.184-.167-.921-.813-1.184-1.566-1.184-1.16 0-1.615.992-1.71 1.232h-.013v-1.232l-1.626.131v.347c.813 0 .909.084.909.67v3.241c0 .538-.132.538-.91.538V0c.312-.024.958-.024 1.292-.024.347 0 .993 0 1.304.024v-.347c-.765 0-.909 0-.909-.538V-3.11c0-1.255.825-1.925 1.567-1.925s.909.61.909 1.34v2.81c0 .538-.132.538-.91.538V0c.312-.024.958-.024 1.293-.024.346 0 .992 0 1.303.024v-.347c-.765 0-.909 0-.909-.538V-3.11c0-1.255.825-1.925 1.567-1.925s.909.61.909 1.34v2.81c0 .538-.132.538-.909.538V0c.31-.024.957-.024 1.292-.024.346 0 .992 0 1.303.024"/><path id="ad" d="M6.231 0v-.347c-.598 0-.897 0-.909-.359v-2.2c0-1.113 0-1.447-.275-1.83-.347-.467-.909-.538-1.315-.538-1.16 0-1.615.992-1.71 1.232h-.013v-1.232l-1.626.131v.347c.813 0 .909.084.909.67v3.241c0 .538-.132.538-.91.538V0c.312-.024.958-.024 1.292-.024.347 0 .993 0 1.304.024v-.347c-.765 0-.909 0-.909-.538V-3.11c0-1.255.825-1.925 1.567-1.925s.909.61.909 1.34v2.81c0 .538-.132.538-.91.538V0c.312-.024.958-.024 1.293-.024.346 0 .992 0 1.303.024"/><path id="T" d="M5.49-2.56c0-1.542-1.172-2.774-2.56-2.774C1.495-5.334.36-4.066.36-2.56.359-1.03 1.555.12 2.919.12c1.41 0 2.57-1.172 2.57-2.68m-.91-.107c0 .419 0 1.16-.31 1.722a1.56 1.56 0 0 1-1.34.801c-.442 0-.98-.19-1.327-.777-.323-.538-.335-1.244-.335-1.746 0-.455 0-1.184.37-1.722a1.53 1.53 0 0 1 1.28-.706c.467 0 .969.215 1.292.682.37.55.37 1.303.37 1.746"/><path id="S" d="M7.308-5.956c0-1.16-1.16-2.213-2.775-2.213H.503v.347h.239c.86 0 .897.12.897.562v6.351c0 .443-.036.562-.897.562h-.24V0C.79-.024 1.77-.024 2.117-.024c.359 0 1.34 0 1.626.024v-.347h-.239c-.86 0-.897-.12-.897-.562v-2.894H4.63c1.399 0 2.679-.945 2.679-2.153m-1.113 0c0 .502 0 1.866-1.95 1.866H2.584v-3.253c0-.395.024-.479.55-.479h1.125c1.937 0 1.937 1.352 1.937 1.866"/><path id="I" d="M6.076-2.583c0-1.52-1.125-2.691-2.428-2.691-1.053 0-1.615.753-1.65.801v-.801l-1.663.131v.347c.837 0 .909.084.909.61v5.621c0 .538-.132.538-.91.538v.347c.312-.024.958-.024 1.293-.024.346 0 .992 0 1.303.024v-.347c-.765 0-.909 0-.909-.538v-2.08c.216.298.706.765 1.471.765 1.376 0 2.584-1.16 2.584-2.703m-.91 0c0 1.423-.813 2.463-1.733 2.463a1.4 1.4 0 0 1-.957-.382c-.275-.275-.455-.515-.455-.85v-2.463c0-.227 0-.24.132-.43a1.72 1.72 0 0 1 1.4-.766c.896 0 1.614 1.088 1.614 2.428"/><path id="U" d="M8.516.12c0-.12 0-.228-.12-.228-.096 0-.096.084-.108.168-.083.86-.67 1.148-1.088 1.148-.61 0-.885-.443-1.172-1.28C7.32-.634 8.456-2.129 8.456-4.054c0-2.476-1.818-4.366-3.9-4.366-2.128 0-3.91 1.914-3.91 4.366C.646-1.65 2.416.25 4.556.25c.395 0 .802-.072 1.125-.18.191 1.22.347 2.25 1.423 2.25 1.4 0 1.412-2.094 1.412-2.201M7.367-4.066c0 1.71-.526 2.942-1.483 3.612-.203-.598-.538-1.304-1.315-1.304-.598 0-.945.514-.945 1.005 0 .322.167.574.191.61-.885-.311-2.08-1.34-2.08-3.923 0-2.978 1.614-4.09 2.81-4.09 1.256 0 2.822 1.147 2.822 4.09M5.621-.287a2.3 2.3 0 0 1-1.064.275c-.515 0-.694-.466-.694-.753 0-.347.251-.754.706-.754.681 0 .92.562 1.052 1.232"/><path id="A" d="M4.222-4.58c0-.36-.323-.694-.837-.694-1.017 0-1.364 1.1-1.436 1.327h-.011v-1.327l-1.603.131v.347c.813 0 .909.084.909.67v3.241c0 .538-.132.538-.91.538V0c.336-.024.994-.024 1.352-.024.323 0 1.172 0 1.448.024v-.347h-.24c-.873 0-.897-.131-.897-.562v-1.878c0-1.16.479-2.248 1.4-2.248.095 0 .12 0 .167.012-.096.048-.287.12-.287.442a.46.46 0 0 0 .466.479c.24 0 .479-.156.479-.479"/><path id="C" d="M4.21-1.519c0-.646-.395-1.028-.502-1.136-.431-.37-.754-.443-1.543-.586-.359-.072-1.232-.24-1.232-.957 0-.37.251-.92 1.327-.92 1.304 0 1.376 1.111 1.4 1.482.012.096.095.096.131.096.132 0 .132-.06.132-.275V-5.06c0-.215 0-.275-.12-.275-.095 0-.323.263-.406.37-.371-.298-.742-.37-1.125-.37-1.447 0-1.877.79-1.877 1.447 0 .132 0 .55.454.969.383.335.79.418 1.34.526.657.132.813.167 1.112.407.215.179.37.442.37.777 0 .514-.298 1.088-1.35 1.088C1.53-.12.956-.574.693-1.77c-.048-.215-.06-.24-.06-.24-.024-.047-.072-.047-.108-.047-.131 0-.131.06-.131.275v1.627c0 .215 0 .275.12.275.06 0 .071-.012.274-.264.06-.083.06-.107.24-.299.454.563 1.1.563 1.303.563C3.588.12 4.21-.574 4.21-1.52"/><path id="K" d="M3.899-1.483v-.682h-.263v.658c0 .861-.347 1.363-.813 1.363-.814 0-.814-1.112-.814-1.315v-3.349h1.687v-.347H2.009v-2.2h-.263c-.012 1.124-.442 2.272-1.53 2.308v.24h1.016v3.324C1.232-.155 2.117.12 2.75.12c.753 0 1.148-.742 1.148-1.603"/><path id="V" d="M6.231 0v-.347c-.813 0-.909-.084-.909-.67v-4.257l-1.686.131v.347c.813 0 .909.084.909.67v2.14C4.545-.968 4.007-.12 3.11-.12c-.981 0-1.04-.562-1.04-1.196v-3.958l-1.687.131v.347c.909 0 .909.036.909 1.1v1.794c0 .742 0 1.172.358 1.567.288.311.778.455 1.388.455.203 0 .586 0 .993-.347.346-.275.538-.73.538-.73V.12z"/><path id="B" d="M5.956-4.808v-.347c-.347.024-.514.024-.897.024l-.969-.024v.347c.443.024.55.3.55.514 0 .108-.023.168-.071.287L3.349-.993 2.02-4.246c-.072-.167-.072-.251-.072-.251 0-.31.42-.31.658-.31v-.348c-.31.024-.897.024-1.232.024l-1.16-.024v.347c.694 0 .79.06.945.43L2.942 0c-.526 1.268-.526 1.292-.574 1.387-.203.36-.526.814-1.064.814-.371 0-.598-.216-.598-.216s.418-.047.418-.466a.433.433 0 0 0-.442-.443c-.204 0-.455.12-.455.467 0 .454.443.897 1.077.897.67 0 1.16-.586 1.47-1.34l2.07-5.095c.323-.801.885-.813 1.112-.813"/><path id="E" d="M4.7-2.2h-.263C4.33-.838 4.127-.264 2.703-.264H1.256l3.3-4.557c.108-.131.108-.155.108-.203 0-.132-.083-.132-.287-.132H.622L.49-3.253h.263c.072-1.22.3-1.663 1.603-1.663h1.387l-3.42 4.7C.323 0 .347 0 .61 0h3.899z"/><path id="q" d="M5.019-3.491c0-.873-.055-1.746-.437-2.553-.502-1.048-1.396-1.222-1.854-1.222-.655 0-1.452.284-1.899 1.298C.48-5.215.425-4.364.425-3.49c0 .818.044 1.8.491 2.63A2 2 0 0 0 2.716.24c.59 0 1.419-.23 1.899-1.266.35-.752.404-1.603.404-2.465M2.717 0C2.29 0 1.647-.273 1.45-1.32c-.12-.655-.12-1.658-.12-2.302 0-.698 0-1.418.087-2.008.208-1.298 1.026-1.396 1.299-1.396.36 0 1.08.196 1.287 1.276.11.611.11 1.44.11 2.128 0 .818 0 1.56-.12 2.258C3.828-.327 3.207 0 2.716 0"/><path id="s" d="m1.386-.84 1.156-1.124C4.244-3.469 4.899-4.059 4.899-5.15c0-1.243-.982-2.116-2.313-2.116a2.016 2.016 0 0 0-2.04 1.975c0 .61.545.61.578.61.185 0 .567-.13.567-.578a.55.55 0 0 0-.578-.567c-.087 0-.11 0-.142.011.25-.71.84-1.113 1.473-1.113.993 0 1.462.884 1.462 1.778 0 .873-.546 1.735-1.146 2.412L.666-.404c-.12.12-.12.142-.12.404h4.047L4.9-1.898h-.273c-.055.327-.131.807-.24.97-.077.088-.797.088-1.037.088z"/><path id="t" d="M4.899-2.193c0-1.298-.895-2.39-2.073-2.39-.524 0-.993.175-1.386.557v-2.127c.218.065.578.142.927.142 1.342 0 2.106-.993 2.106-1.135 0-.066-.033-.12-.109-.12-.01 0-.033 0-.087.033a3.6 3.6 0 0 1-1.484.316c-.436 0-.938-.076-1.451-.305-.087-.033-.11-.033-.131-.033-.11 0-.11.087-.11.262v3.23c0 .195 0 .283.154.283.076 0 .098-.033.141-.098.12-.175.524-.764 1.408-.764.567 0 .84.502.927.698.175.404.197.83.197 1.375 0 .382 0 1.036-.262 1.494-.262.426-.666.71-1.168.71-.796 0-1.418-.579-1.603-1.222.032.01.065.021.185.021.36 0 .546-.272.546-.534s-.186-.535-.546-.535c-.153 0-.535.077-.535.578C.546-.818 1.299.24 2.52.24 3.786.24 4.9-.807 4.9-2.193"/><path id="x" d="M2.422-1.877c-.95 0-.95-1.09-.95-1.341 0-.295.012-.644.175-.917.088-.13.339-.436.775-.436.95 0 .95 1.09.95 1.342 0 .294-.012.643-.175.916-.088.131-.339.436-.775.436m-1.266.426c0-.044 0-.295.186-.513.425.306.873.338 1.08.338 1.015 0 1.767-.752 1.767-1.592 0-.404-.174-.808-.447-1.059.393-.37.786-.425.982-.425a.4.4 0 0 1 .11.01c-.12.044-.175.164-.175.295a.31.31 0 0 0 .316.317c.11 0 .316-.077.316-.328a.534.534 0 0 0-.556-.534c-.218 0-.698.065-1.157.513a1.82 1.82 0 0 0-1.156-.393C1.407-4.822.655-4.07.655-3.23c0 .48.24.894.512 1.123A1.5 1.5 0 0 0 .83-1.2c0 .338.142.753.48.97C.655-.043.305.426.305.863c0 .785 1.08 1.385 2.412 1.385 1.287 0 2.422-.556 2.422-1.407 0-.382-.153-.938-.71-1.244-.578-.305-1.21-.305-1.876-.305-.273 0-.742 0-.818-.011-.35-.044-.579-.382-.579-.731m1.572 3.448C1.626 1.997.873 1.44.873.862c0-.502.414-.906.894-.938h.644c.938 0 2.16 0 2.16.938 0 .589-.774 1.135-1.843 1.135"/><path id="v" d="m1.931-7.572-1.571.12v.339c.764 0 .851.076.851.61v5.674c0 .49-.12.49-.851.49V0c.36-.01.938-.033 1.211-.033S2.378-.01 2.782 0v-.338c-.73 0-.85 0-.85-.491z"/><path id="w" d="M5.139-2.335c0-1.396-1.091-2.553-2.411-2.553-1.364 0-2.423 1.19-2.423 2.553A2.435 2.435 0 0 0 2.717.12a2.43 2.43 0 0 0 2.422-2.455M2.728-.153c-.47 0-.95-.229-1.244-.73-.273-.48-.273-1.146-.273-1.539 0-.426 0-1.015.262-1.495a1.46 1.46 0 0 1 1.244-.73c.48 0 .949.24 1.232.708s.284 1.102.284 1.517c0 .393 0 .982-.24 1.462-.24.49-.72.807-1.265.807"/><path id="O" d="M1.722-.263c.3.275.742.383 1.148.383.766 0 1.292-.515 1.567-.885.12.633.622.885 1.04.885q.54 0 .862-.646c.191-.407.359-1.136.359-1.184 0-.06-.048-.108-.12-.108-.108 0-.12.06-.167.24-.18.705-.407 1.458-.897 1.458-.347 0-.371-.31-.371-.55 0-.275.107-.705.191-1.064l.335-1.292c.048-.227.18-.765.24-.98.071-.288.203-.802.203-.85 0-.18-.144-.299-.323-.299-.108 0-.36.048-.455.407l-.837 3.325c-.06.239-.06.263-.215.454-.144.204-.61.85-1.364.85-.67 0-.885-.491-.885-1.053 0-.347.108-.766.156-.969l.538-2.153c.06-.227.155-.61.155-.681 0-.192-.155-.3-.31-.3-.108 0-.371.037-.467.42L.371 2.068c-.012.06-.036.132-.036.203 0 .18.143.3.323.3.347 0 .418-.276.502-.61z"/><path id="aa" d="M2.2-.574a.584.584 0 0 0-.573-.586.584.584 0 0 0-.586.574c0 .347.287.586.574.586A.584.584 0 0 0 2.2-.574"/><path id="G" d="M2.464-3.504c.024-.072.323-.67.765-1.053a1.74 1.74 0 0 1 1.184-.478c.479 0 .646.359.646.837 0 .682-.49 2.045-.73 2.691-.107.287-.167.443-.167.658 0 .538.37.969.945.969 1.112 0 1.53-1.759 1.53-1.83 0-.06-.047-.108-.119-.108-.107 0-.12.036-.18.24C6.065-.599 5.61-.12 5.144-.12c-.12 0-.311-.012-.311-.394 0-.3.131-.658.203-.826.24-.657.742-1.997.742-2.679 0-.717-.419-1.255-1.328-1.255-1.064 0-1.626.753-1.842 1.052-.036-.682-.526-1.052-1.052-1.052-.383 0-.646.227-.85.634C.49-4.21.324-3.492.324-3.444s.048.107.131.107c.096 0 .108-.012.18-.287.191-.73.407-1.411.885-1.411.275 0 .37.191.37.55 0 .263-.119.73-.203 1.1l-.335 1.292c-.047.227-.179.765-.239.98C1.03-.8.897-.238.897-.178c0 .167.132.299.311.299a.46.46 0 0 0 .407-.252c.024-.06.131-.478.191-.717l.263-1.077z"/><path id="M" d="M2.404-4.808h1.1c.228 0 .347 0 .347-.215 0-.132-.072-.132-.31-.132H2.487L2.93-6.9c.048-.167.048-.191.048-.275 0-.191-.155-.299-.31-.299-.097 0-.372.036-.467.419l-.467 1.901H.61c-.24 0-.347 0-.347.227 0 .12.084.12.311.12H1.64L.849-1.65c-.096.418-.131.538-.131.693C.718-.395 1.112.12 1.782.12c1.208 0 1.854-1.747 1.854-1.83 0-.072-.048-.108-.12-.108-.024 0-.072 0-.095.048-.012.012-.024.024-.108.215C3.062-.957 2.512-.12 1.818-.12c-.359 0-.383-.299-.383-.562 0-.012 0-.239.036-.382z"/><path id="r" d="M2.095-.578c0-.317-.262-.578-.579-.578s-.578.261-.578.578S1.2 0 1.516 0s.579-.262.579-.578"/><path id="u" d="M.96-.644c-.033.164-.098.415-.098.47 0 .196.153.294.316.294.131 0 .328-.087.404-.305.01-.022.142-.535.207-.808l.24-.982c.066-.24.131-.48.186-.73.043-.186.13-.503.142-.546.163-.338.741-1.331 1.778-1.331.49 0 .589.403.589.764 0 .676-.535 2.072-.71 2.542-.097.25-.108.381-.108.501 0 .513.382.895.894.895 1.026 0 1.43-1.593 1.43-1.68 0-.11-.099-.11-.131-.11-.11 0-.11.033-.164.197C5.717-.73 5.357-.12 4.822-.12c-.185 0-.262-.11-.262-.36 0-.273.099-.535.197-.775.207-.578.665-1.778.665-2.4 0-.73-.469-1.167-1.254-1.167-.982 0-1.517.698-1.702.949-.055-.611-.502-.95-1.004-.95s-.71.426-.818.623a5.5 5.5 0 0 0-.328 1.058c0 .109.11.109.131.109.11 0 .12-.01.186-.25.185-.776.403-1.3.796-1.3.218 0 .338.143.338.503 0 .229-.032.349-.174.916z"/><path id="o" d="M2.247-4.364h1.026c.218 0 .327 0 .327-.218 0-.12-.109-.12-.305-.12h-.96c.393-1.55.447-1.768.447-1.833 0-.186-.13-.295-.316-.295-.033 0-.339.011-.437.393l-.425 1.735H.578c-.218 0-.327 0-.327.207 0 .131.087.131.305.131h.96C.731-1.266.687-1.08.687-.884c0 .59.415 1.004 1.004 1.004 1.113 0 1.735-1.593 1.735-1.68 0-.11-.088-.11-.131-.11-.098 0-.11.033-.164.154C2.662-.382 2.084-.12 1.713-.12c-.23 0-.338-.142-.338-.502 0-.262.021-.338.065-.524z"/><path id="k" d="M2.296-2.99c0-.347-.287-.634-.634-.634s-.633.287-.633.634.287.634.633.634.634-.287.634-.634"/><path id="a" d="M8.635-3.995c0-.263-.072-.382-.167-.382-.06 0-.156.083-.168.31-.048 1.149-.837 1.807-1.674 1.807-.754 0-1.328-.515-1.914-1.029-.61-.55-1.232-1.1-2.045-1.1-1.304 0-2.01 1.315-2.01 2.404 0 .382.156.382.168.382.132 0 .168-.239.168-.275.048-1.315.945-1.842 1.674-1.842.754 0 1.328.515 1.914 1.029.61.55 1.232 1.1 2.045 1.1 1.303 0 2.01-1.315 2.01-2.404"/><path id="e" d="M2.503-5.077c0-.215-.016-.223-.232-.223-.326.319-.749.51-1.506.51v.263c.215 0 .646 0 1.108-.215v4.088c0 .295-.024.391-.781.391h-.28V0c.328-.024 1.013-.024 1.372-.024s1.052 0 1.379.024v-.263h-.28c-.757 0-.78-.096-.78-.39z"/><path id="y" d="M2.248-1.626c.127-.12.462-.382.59-.494.493-.454.964-.893.964-1.618 0-.948-.797-1.562-1.794-1.562-.956 0-1.586.725-1.586 1.435 0 .39.311.446.423.446a.41.41 0 0 0 .414-.423c0-.414-.398-.414-.494-.414a1.23 1.23 0 0 1 1.156-.781c.741 0 1.124.63 1.124 1.3 0 .828-.582 1.434-1.523 2.398L.518-.303C.422-.215.422-.199.422 0h3.149l.23-1.427h-.246c-.024.16-.088.558-.184.71-.048.063-.653.063-.78.063H1.17z"/><path id="f" d="M2.016-2.662c.63 0 1.029.462 1.029 1.3 0 .995-.566 1.29-.989 1.29-.438 0-1.036-.16-1.315-.582.287 0 .486-.183.486-.446a.423.423 0 0 0-.438-.438c-.215 0-.438.135-.438.454 0 .757.813 1.251 1.721 1.251 1.06 0 1.801-.733 1.801-1.53 0-.661-.526-1.267-1.339-1.442.63-.224 1.1-.766 1.1-1.403S2.917-5.3 2.088-5.3C1.235-5.3.59-4.838.59-4.232c0 .295.199.422.406.422a.39.39 0 0 0 .407-.406c0-.295-.255-.407-.43-.415.334-.438.948-.462 1.091-.462.207 0 .813.064.813.885 0 .558-.231.892-.343 1.02-.239.247-.422.263-.908.295-.152.008-.215.016-.215.12 0 .111.071.111.207.111z"/><path id="m" d="M3.14-5.157c0-.159 0-.223-.167-.223-.104 0-.112.008-.191.12L.239-1.57v.263h2.248v.661c0 .295-.024.383-.638.383h-.183V0c.677-.024.693-.024 1.147-.024s.47 0 1.148.024v-.263h-.183c-.614 0-.638-.088-.638-.383v-.661h.845v-.263H3.14zm-.598.646v2.94H.518z"/><path id="g" d="M1.116-4.48c.103.033.422.112.757.112.996 0 1.602-.7 1.602-.82 0-.088-.056-.112-.096-.112-.016 0-.032 0-.103.04-.311.12-.678.215-1.108.215-.47 0-.86-.12-1.108-.215C.98-5.3.964-5.3.956-5.3c-.103 0-.103.088-.103.231v2.335c0 .144 0 .24.127.24.064 0 .088-.032.128-.096.095-.12.398-.526 1.076-.526.446 0 .661.366.733.518.136.287.151.653.151.964 0 .295-.008.725-.23 1.076a1.07 1.07 0 0 1-.893.486A1.295 1.295 0 0 1 .733-.917c.024.008.072.008.08.008.223 0 .398-.143.398-.39 0-.295-.23-.399-.39-.399-.144 0-.399.08-.399.423 0 .717.622 1.442 1.539 1.442.996 0 1.84-.773 1.84-1.761 0-.925-.669-1.745-1.61-1.745-.398 0-.772.127-1.075.398z"/><path id="c" d="M4.033-4.854c.072-.087.072-.103.072-.279H2.08c-.2 0-.446-.008-.645-.024-.415-.031-.423-.103-.447-.23H.741l-.27 1.68h.246c.016-.119.104-.669.215-.732.088-.04.686-.04.805-.04h1.69l-.82 1.1c-.91 1.211-1.1 2.47-1.1 3.1 0 .08 0 .446.374.446s.375-.358.375-.454v-.382c0-1.148.19-2.089.581-2.607z"/><path id="d" d="M3.124-2.351c0 1.945-.924 2.28-1.387 2.28-.167 0-.581-.025-.797-.272.351-.032.375-.295.375-.374a.364.364 0 0 0-.375-.375c-.143 0-.374.088-.374.39 0 .543.446.87 1.18.87 1.091 0 2.127-1.085 2.127-2.79 0-2.072-.916-2.678-1.737-2.678-.94 0-1.785.733-1.785 1.777 0 1.028.773 1.778 1.673 1.778.566 0 .909-.36 1.1-.766zm-1.068.382c-.366 0-.597-.167-.773-.462C1.1-2.726 1.1-3.108 1.1-3.515c0-.47 0-.805.215-1.132.2-.286.454-.446.829-.446.534 0 .765.526.789.566.167.39.175 1.012.175 1.172 0 .63-.342 1.386-1.052 1.386"/><path id="h" d="M5.358-3.827c0-.993-.06-1.962-.49-2.87-.49-.993-1.352-1.256-1.938-1.256-.693 0-1.543.346-1.985 1.34C.61-5.86.49-5.12.49-3.828c0 1.16.084 2.033.515 2.882A2.13 2.13 0 0 0 2.918.251c1.04 0 1.639-.622 1.986-1.315.43-.897.454-2.07.454-2.763M2.918.012c-.382 0-1.16-.215-1.387-1.519-.132-.718-.132-1.627-.132-2.464 0-.98 0-1.865.192-2.571.203-.801.813-1.172 1.327-1.172.455 0 1.148.275 1.376 1.303.155.682.155 1.627.155 2.44 0 .802 0 1.71-.131 2.44C4.09-.215 3.337.012 2.918.012"/><path id="l" d="M3.444-7.666c0-.275 0-.287-.239-.287-.287.323-.885.765-2.117.765v.347c.275 0 .873 0 1.531-.311v6.231c0 .43-.036.574-1.088.574h-.37V0c.322-.024 1.482-.024 1.877-.024s1.543 0 1.866.024v-.347h-.371C3.48-.347 3.444-.49 3.444-.92z"/><path id="b" d="M5.262-2.01H5c-.036.204-.131.862-.25 1.053-.085.108-.766.108-1.125.108H1.41c.323-.275 1.053-1.04 1.364-1.328 1.818-1.674 2.487-2.296 2.487-3.48 0-1.375-1.088-2.296-2.475-2.296S.586-6.77.586-5.741c0 .61.526.61.562.61.251 0 .562-.18.562-.562 0-.335-.227-.562-.562-.562-.107 0-.131 0-.167.012.227-.813.873-1.364 1.65-1.364 1.017 0 1.639.85 1.639 1.95 0 1.017-.586 1.902-1.268 2.667L.586-.287V0h4.365z"/><path id="i" d="M4.318-7.786c0-.227 0-.287-.168-.287-.096 0-.131 0-.227.144l-3.6 5.585v.347h3.145V-.91c0 .443-.024.562-.897.562h-.239V0c.275-.024 1.22-.024 1.555-.024s1.292 0 1.567.024v-.347h-.24c-.86 0-.896-.12-.896-.562v-1.088h1.208v-.347H4.318zm-.79.933v4.509H.622z"/><path id="ab" d="M1.53-6.853c.515.167.934.18 1.065.18 1.352 0 2.213-.993 2.213-1.16 0-.049-.024-.108-.096-.108-.024 0-.048 0-.155.047a3.9 3.9 0 0 1-1.555.323c-.79 0-1.352-.239-1.579-.335-.083-.035-.107-.035-.12-.035-.095 0-.095.071-.095.263v3.552c0 .215 0 .287.143.287.06 0 .072-.012.192-.156.335-.49.897-.777 1.495-.777.634 0 .945.586 1.04.79.204.466.216 1.052.216 1.506s0 1.136-.335 1.675c-.263.43-.73.73-1.256.73-.79 0-1.567-.539-1.782-1.412.06.024.131.036.191.036.204 0 .527-.12.527-.526 0-.335-.228-.527-.527-.527-.215 0-.526.108-.526.574 0 1.017.813 2.177 2.14 2.177 1.352 0 2.536-1.136 2.536-2.655 0-1.423-.956-2.607-2.212-2.607-.682 0-1.208.299-1.52.634z"/><path id="j" d="M1.471-4.162c0-3.026 1.471-3.504 2.117-3.504.43 0 .861.131 1.088.49-.143 0-.598 0-.598.49 0 .263.18.49.49.49.3 0 .503-.179.503-.526 0-.621-.454-1.231-1.495-1.231C2.069-7.953.49-6.411.49-3.78.49-.49 1.926.25 2.942.25c1.304 0 2.416-1.136 2.416-2.69 0-1.592-1.112-2.656-2.308-2.656-1.065 0-1.46.921-1.579 1.256zm1.471 4.09c-.753 0-1.112-.67-1.22-.92-.107-.312-.227-.898-.227-1.735 0-.945.43-2.129 1.507-2.129.658 0 1.005.443 1.184.85.191.442.191 1.04.191 1.554 0 .61 0 1.148-.227 1.603-.299.574-.73.777-1.208.777"/><path id="N" d="M2.99 2.99v-.443H1.83V-8.527h1.16v-.443H1.387V2.99z"/><path id="Q" d="M1.854-8.97H.25v.443h1.16V2.547H.251v.443h1.603z"/><path id="P" d="M3.923-5.06c0-.214 0-.274-.12-.274-.095 0-.323.263-.406.37-.371-.298-.742-.37-1.125-.37-1.447 0-1.877.79-1.877 1.447 0 .132 0 .55.454.969.383.335.79.418 1.34.526.657.132.813.167 1.112.407.215.179.37.442.37.777 0 .514-.298 1.088-1.35 1.088C1.53-.12.956-.574.693-1.77c-.048-.215-.048-.227-.06-.24-.024-.047-.072-.047-.108-.047-.131 0-.131.06-.131.275v1.627c0 .215 0 .275.12.275.06 0 .071-.012.274-.264.06-.083.06-.107.24-.299.454.563 1.1.563 1.303.563C3.588.12 4.21-.574 4.21-1.52c0-.646-.395-1.028-.502-1.136-.431-.37-.754-.443-1.543-.586-.359-.072-1.232-.24-1.232-.957 0-.37.251-.92 1.327-.92 1.304 0 1.376 1.111 1.4 1.482.012.096.095.096.131.096.132 0 .132-.06.132-.275z"/><clipPath id="n"><path d="M45.483 204.595H199.08V51.002H45.483Z"/></clipPath><clipPath id="ac"><path d="M258.085 204.595h153.596V51H258.085Z"/></clipPath><use xlink:href="#a" id="p" transform="scale(.9122)"/></defs><g fill="none" stroke-miterlimit="10"><path stroke="gray" stroke-width=".19925" d="M58.272 204.595v-4.253m25.599 4.253v-4.253m25.598 4.253v-4.253m25.6 4.253v-4.253m25.598 4.253v-4.253m25.6 4.253v-4.253M58.271 51.002v4.253m25.599-4.253v4.253m25.598-4.253v4.253m25.6-4.253v4.253m25.598-4.253v4.253m25.6-4.253v4.253M45.483 192.78h4.25m-4.25-47.26h4.25m-4.25-47.258h4.25m-4.25-47.26h4.25M199.079 192.78h-4.25m4.25-47.26h-4.25m4.25-47.258h-4.25m4.25-47.26h-4.25"/><path stroke="#000" stroke-width=".3985" d="M45.483 204.595V51.002H199.08v153.593z"/></g><use xlink:href="#b" x="-69.19377" y="96.57576" transform="translate(122.145 121.717)scale(1.0004)"/><use xlink:href="#c" x="-63.312206" y="92.196852" transform="matrix(.99999 0 0 .99999 122.145 121.717)"/><use xlink:href="#b" x="-69.19377" y="96.57576" transform="translate(147.744 121.717)scale(1.0004)"/><use xlink:href="#d" x="-63.312206" y="92.196852" transform="matrix(.99999 0 0 .99999 147.744 121.717)"/><use xlink:href="#b" x="-69.19377" y="96.57576" transform="translate(171.226 121.717)scale(1.0004)"/><g transform="matrix(.99999 0 0 .99999 171.226 121.717)"><use xlink:href="#e" x="-63.312206" y="92.196852"/><use xlink:href="#e" x="-59.080136" y="92.196852"/></g><use xlink:href="#b" x="-69.19377" y="96.57576" transform="translate(196.825 121.717)scale(1.0004)"/><g transform="matrix(.99999 0 0 .99999 196.825 121.717)"><use xlink:href="#e" x="-63.312206" y="92.196852"/><use xlink:href="#f" x="-59.080136" y="92.196852"/></g><use xlink:href="#b" x="-69.19377" y="96.57576" transform="translate(222.423 121.717)scale(1.0004)"/><g transform="matrix(.99999 0 0 .99999 222.423 121.717)"><use xlink:href="#e" x="-63.312206" y="92.196852"/><use xlink:href="#g" x="-59.080136" y="92.196852"/></g><use xlink:href="#b" x="-69.19377" y="96.57576" transform="translate(248.022 121.717)scale(1.0004)"/><g transform="matrix(.99999 0 0 .99999 248.022 121.717)"><use xlink:href="#e" x="-63.312206" y="92.196852"/><use xlink:href="#c" x="-59.080136" y="92.196852"/></g><use xlink:href="#h" x="-69.19377" y="96.57576" transform="translate(104.612 100.095)scale(1.0004)"/><use xlink:href="#b" x="-69.19377" y="96.57576" transform="translate(104.612 52.836)scale(1.0004)"/><use xlink:href="#i" x="-69.19377" y="96.57576" transform="translate(104.612 5.577)scale(1.0004)"/><use xlink:href="#j" x="-69.19377" y="96.57576" transform="translate(104.612 -41.682)scale(1.0004)"/><g transform="translate(118.435 -50.342)scale(1.0004)"><use xlink:href="#k" x="-69.19377" y="96.57576"/><use xlink:href="#l" x="-65.871437" y="96.57576"/><use xlink:href="#h" x="-60.022999" y="96.57576"/></g><use xlink:href="#m" x="-54.138321" y="92.196852" transform="matrix(.99999 0 0 .99999 118.435 -50.342)"/><g clip-path="url(#n)"><path fill="none" stroke="#000" stroke-miterlimit="10" stroke-width=".3985" d="m32.684 195.102 7.466-.006 7.467-.01 7.466-.015 7.467-.024 7.466-.039 7.467-.062 7.466-.098 7.466-.156 7.467-.246 7.466-.387 7.467-.608 7.466-.954 7.466-1.493 7.467-2.33 7.466-3.636 7.467-5.659 7.466-8.798 7.467-13.66 7.466-21.183 7.466-32.816 7.467-50.772 7.466-78.48 7.467-121.2 7.466-187.01"/><g transform="translate(161.728 -23.423)scale(1.00008)"><use xlink:href="#o" x="-69.171706" y="96.544964"/><use xlink:href="#p" x="-62.201131" y="96.544964"/><use xlink:href="#q" x="-50.685181" y="96.544964"/><use xlink:href="#r" x="-45.22973" y="96.544964"/><use xlink:href="#q" x="-42.199481" y="96.544964"/><use xlink:href="#s" x="-36.74448" y="96.544964"/><use xlink:href="#s" x="-31.289479" y="96.544964"/><use xlink:href="#t" x="-25.834479" y="96.544964"/><use xlink:href="#u" x="-20.37968" y="96.544964"/><use xlink:href="#v" x="-12.01199" y="96.544964"/><use xlink:href="#w" x="-8.98992" y="96.544964"/><use xlink:href="#x" x="-3.53492" y="96.544964"/></g><use xlink:href="#y" x="2.078975" y="99.154765" transform="matrix(.99999 0 0 .99999 161.728 -23.423)"/><use xlink:href="#u" x="8.630713" y="96.544964" transform="translate(161.728 -23.423)scale(1.00008)"/></g><path d="M59.405 192.769a1.12 1.12 0 1 0-2.242 0 1.12 1.12 0 0 0 2.242 0"/><path fill="none" stroke="#000" stroke-miterlimit="10" stroke-width=".3985" d="M59.405 192.769a1.12 1.12 0 1 0-2.242 0 1.12 1.12 0 0 0 2.242 0Z"/><path d="M72.204 192.72a1.12 1.12 0 1 0-2.241 0 1.12 1.12 0 0 0 2.241 0"/><path fill="none" stroke="#000" stroke-miterlimit="10" stroke-width=".3985" d="M72.204 192.72a1.12 1.12 0 1 0-2.241 0 1.12 1.12 0 0 0 2.241 0Z"/><path d="M85.004 192.621a1.12 1.12 0 1 0-2.242 0 1.12 1.12 0 0 0 2.242 0"/><path fill="none" stroke="#000" stroke-miterlimit="10" stroke-width=".3985" d="M85.004 192.621a1.12 1.12 0 1 0-2.242 0 1.12 1.12 0 0 0 2.242 0Z"/><path d="M97.804 192.424a1.12 1.12 0 1 0-2.242 0 1.12 1.12 0 0 0 2.242 0"/><path fill="none" stroke="#000" stroke-miterlimit="10" stroke-width=".3985" d="M97.804 192.424a1.12 1.12 0 1 0-2.242 0 1.12 1.12 0 0 0 2.242 0Z"/><path d="M110.603 192.027a1.12 1.12 0 1 0-2.242 0 1.12 1.12 0 0 0 2.242 0"/><path fill="none" stroke="#000" stroke-miterlimit="10" stroke-width=".3985" d="M110.603 192.027a1.12 1.12 0 1 0-2.242 0 1.12 1.12 0 0 0 2.242 0Z"/><path d="M123.402 191.11a1.12 1.12 0 1 0-2.242 0 1.12 1.12 0 0 0 2.242 0"/><path fill="none" stroke="#000" stroke-miterlimit="10" stroke-width=".3985" d="M123.402 191.11a1.12 1.12 0 1 0-2.242 0 1.12 1.12 0 0 0 2.242 0Z"/><path d="M136.201 189.112a1.12 1.12 0 1 0-2.241 0 1.12 1.12 0 0 0 2.241 0"/><path fill="none" stroke="#000" stroke-miterlimit="10" stroke-width=".3985" d="M136.201 189.112a1.12 1.12 0 1 0-2.241 0 1.12 1.12 0 0 0 2.241 0Z"/><path d="M149.002 184.695a1.12 1.12 0 1 0-2.242 0 1.12 1.12 0 0 0 2.242 0"/><path fill="none" stroke="#000" stroke-miterlimit="10" stroke-width=".3985" d="M149.002 184.695a1.12 1.12 0 1 0-2.242 0 1.12 1.12 0 0 0 2.242 0Z"/><path d="M161.8 174.858a1.12 1.12 0 1 0-2.24 0 1.12 1.12 0 0 0 2.24 0"/><path fill="none" stroke="#000" stroke-miterlimit="10" stroke-width=".3985" d="M161.8 174.858a1.12 1.12 0 1 0-2.24 0 1.12 1.12 0 0 0 2.24 0Z"/><path d="M174.6 151.122a1.12 1.12 0 1 0-2.241 0 1.12 1.12 0 0 0 2.241 0"/><path fill="none" stroke="#000" stroke-miterlimit="10" stroke-width=".3985" d="M174.6 151.122a1.12 1.12 0 1 0-2.241 0 1.12 1.12 0 0 0 2.241 0Z"/><path d="M187.4 69.537a1.12 1.12 0 1 0-2.242 0 1.12 1.12 0 0 0 2.242 0"/><path fill="none" stroke="#000" stroke-miterlimit="10" stroke-width=".3985" d="M187.4 69.537a1.12 1.12 0 1 0-2.242 0 1.12 1.12 0 0 0 2.242 0Z"/><g transform="translate(161.58 137.692)scale(1.0004)"><use xlink:href="#z" x="-69.19377" y="96.57576"/><use xlink:href="#A" x="-63.333372" y="96.57576"/><use xlink:href="#A" x="-58.776609" y="96.57576"/><use xlink:href="#z" x="-54.21985" y="96.57576"/><use xlink:href="#B" x="-48.670413" y="96.57576"/><use xlink:href="#C" x="-38.600092" y="96.57576"/><use xlink:href="#D" x="-33.983529" y="96.57576"/><use xlink:href="#E" x="-30.73041" y="96.57576"/><use xlink:href="#F" x="-25.52781" y="96.57576"/><use xlink:href="#G" x="-16.425591" y="96.57576"/></g><g transform="rotate(-90 16.688 88.934)scale(1.0004)"><use xlink:href="#F" x="-69.19377" y="96.57576"/><use xlink:href="#H" x="-63.991172" y="96.57576"/><use xlink:href="#z" x="-60.73805" y="96.57576"/><use xlink:href="#I" x="-54.877651" y="96.57576"/><use xlink:href="#C" x="-48.371412" y="96.57576"/><use xlink:href="#F" x="-43.75485" y="96.57576"/><use xlink:href="#J" x="-38.552251" y="96.57576"/><use xlink:href="#K" x="-28.14705" y="96.57576"/><use xlink:href="#D" x="-23.59029" y="96.57576"/><use xlink:href="#L" x="-20.337171" y="96.57576"/><use xlink:href="#F" x="-10.57781" y="96.57576"/><use xlink:href="#M" x="-1.475591" y="96.57576"/><use xlink:href="#N" x="6.651671" y="96.57576"/><use xlink:href="#O" x="9.904976" y="96.57576"/><use xlink:href="#P" x="16.950803" y="96.57576"/><use xlink:href="#Q" x="21.567365" y="96.57576"/></g><g transform="translate(138.198 -56.689)scale(1.0004)"><use xlink:href="#R" x="-69.19377" y="82.123959"/><use xlink:href="#F" x="-60.415133" y="82.123959"/><use xlink:href="#z" x="-55.212533" y="82.123959"/><use xlink:href="#I" x="-49.352133" y="82.123959"/><use xlink:href="#S" x="-38.946931" y="82.123959"/><use xlink:href="#A" x="-30.981572" y="82.123959"/><use xlink:href="#D" x="-26.424811" y="82.123959"/><use xlink:href="#T" x="-23.171692" y="82.123959"/><use xlink:href="#A" x="-17.311293" y="82.123959"/><use xlink:href="#D" x="-12.754532" y="82.123959"/><use xlink:href="#K" x="-9.501411" y="82.123959"/><use xlink:href="#B" x="-5.255611" y="82.123959"/><use xlink:href="#U" x="4.81471" y="82.123959"/><use xlink:href="#V" x="13.928231" y="82.123959"/><use xlink:href="#F" x="20.434471" y="82.123959"/><use xlink:href="#V" x="25.637071" y="82.123959"/><use xlink:href="#F" x="32.14331" y="82.123959"/><use xlink:href="#W" x="-31.321573" y="96.57576"/><use xlink:href="#X" x="-25.162172" y="96.57576"/><use xlink:href="#X" x="-19.002771" y="96.57576"/><use xlink:href="#Y" x="-12.84337" y="96.57576"/><use xlink:href="#Z" x="-6.683969" y="96.57576"/></g><g fill="none" stroke-miterlimit="10"><path stroke="gray" stroke-width=".19925" d="M270.874 204.595v-4.252m25.599 4.252v-4.252m25.598 4.252v-4.252m25.6 4.252v-4.252m25.598 4.252v-4.252m25.6 4.252v-4.252M270.873 51v4.252M296.473 51v4.252M322.07 51v4.252m25.6-4.252v4.252M373.268 51v4.252M398.87 51v4.252M258.085 195.286h4.25m-4.25-46.544h4.25m-4.25-46.544h4.25m-4.25-46.543h4.25M411.68 195.286h-4.25m4.25-46.544h-4.25m4.25-46.544h-4.25m4.25-46.543h-4.25"/><path stroke="#000" stroke-width=".3985" d="M258.085 204.595V51h153.596v153.595z"/></g><use xlink:href="#b" x="-60.085114" y="96.57576" transform="translate(325.642 121.717)scale(1.0004)"/><use xlink:href="#c" x="-54.20732" y="92.196852" transform="matrix(.99999 0 0 .99999 325.642 121.717)"/><use xlink:href="#b" x="-60.085114" y="96.57576" transform="translate(351.241 121.717)scale(1.0004)"/><use xlink:href="#d" x="-54.20732" y="92.196852" transform="matrix(.99999 0 0 .99999 351.241 121.717)"/><use xlink:href="#b" x="-60.085114" y="96.57576" transform="translate(374.723 121.717)scale(1.0004)"/><g transform="matrix(.99999 0 0 .99999 374.723 121.717)"><use xlink:href="#e" x="-54.20732" y="92.196852"/><use xlink:href="#e" x="-49.97525" y="92.196852"/></g><use xlink:href="#b" x="-60.085114" y="96.57576" transform="translate(400.322 121.717)scale(1.0004)"/><g transform="matrix(.99999 0 0 .99999 400.322 121.717)"><use xlink:href="#e" x="-54.20732" y="92.196852"/><use xlink:href="#f" x="-49.97525" y="92.196852"/></g><use xlink:href="#b" x="-60.085114" y="96.57576" transform="translate(425.92 121.717)scale(1.0004)"/><g transform="matrix(.99999 0 0 .99999 425.92 121.717)"><use xlink:href="#e" x="-54.20732" y="92.196852"/><use xlink:href="#g" x="-49.97525" y="92.196852"/></g><use xlink:href="#b" x="-60.085114" y="96.57576" transform="translate(451.519 121.717)scale(1.0004)"/><g transform="matrix(.99999 0 0 .99999 451.519 121.717)"><use xlink:href="#e" x="-54.20732" y="92.196852"/><use xlink:href="#c" x="-49.97525" y="92.196852"/></g><use xlink:href="#h" x="-60.085114" y="96.57576" transform="translate(308.109 102.601)scale(1.0004)"/><g transform="translate(299.005 56.058)scale(1.0004)"><use xlink:href="#h" x="-60.085114" y="96.57576"/><use xlink:href="#aa" x="-54.229764" y="96.57576"/><use xlink:href="#ab" x="-50.976459" y="96.57576"/></g><use xlink:href="#l" x="-60.085114" y="96.57576" transform="translate(308.109 9.514)scale(1.0004)"/><g transform="translate(299.005 -37.03)scale(1.0004)"><use xlink:href="#l" x="-60.085114" y="96.57576"/><use xlink:href="#aa" x="-54.229764" y="96.57576"/><use xlink:href="#ab" x="-50.976459" y="96.57576"/></g><g transform="translate(321.932 -50.344)scale(1.0004)"><use xlink:href="#k" x="-60.085114" y="96.57576"/><use xlink:href="#l" x="-56.762781" y="96.57576"/><use xlink:href="#h" x="-50.914344" y="96.57576"/></g><use xlink:href="#g" x="-45.033435" y="92.196852" transform="matrix(.99999 0 0 .99999 321.932 -50.344)"/><g clip-path="url(#ac)"><path fill="none" stroke="#000" stroke-miterlimit="10" stroke-width=".3985" d="m245.286 197.317 7.466-.006 7.467-.009 7.466-.014 7.467-.024 7.466-.037 7.467-.06 7.466-.094 7.466-.15 7.467-.237 7.466-.373 7.467-.586 7.466-.919 7.466-1.437 7.467-2.245 7.466-3.5 7.467-5.45 7.466-8.472 7.467-13.154 7.466-20.4 7.466-31.6 7.467-48.892 7.466-75.575 7.467-116.712 7.466-180.086"/><g transform="translate(366.394 -24.25)scale(1.00008)"><use xlink:href="#o" x="-60.065955" y="96.544964"/><use xlink:href="#p" x="-53.09538" y="96.544964"/><use xlink:href="#q" x="-41.57943" y="96.544964"/><use xlink:href="#r" x="-36.12498" y="96.544964"/><use xlink:href="#q" x="-33.093735" y="96.544964"/><use xlink:href="#t" x="-27.638734" y="96.544964"/><use xlink:href="#t" x="-22.183734" y="96.544964"/><use xlink:href="#q" x="-16.728735" y="96.544964"/><use xlink:href="#u" x="-11.273933" y="96.544964"/><use xlink:href="#v" x="-2.907242" y="96.544964"/><use xlink:href="#w" x=".114828" y="96.544964"/><use xlink:href="#x" x="5.569828" y="96.544964"/></g><use xlink:href="#y" x="11.183857" y="99.154765" transform="matrix(.99999 0 0 .99999 366.394 -24.25)"/><use xlink:href="#u" x="17.73646" y="96.544964" transform="translate(366.394 -24.25)scale(1.00008)"/></g><path d="M272.007 195.275a1.12 1.12 0 1 0-2.242 0 1.12 1.12 0 0 0 2.242 0"/><path fill="none" stroke="#000" stroke-miterlimit="10" stroke-width=".3985" d="M272.007 195.275a1.12 1.12 0 1 0-2.242 0 1.12 1.12 0 0 0 2.242 0Z"/><path d="M284.806 195.23a1.12 1.12 0 1 0-2.241 0 1.12 1.12 0 0 0 2.241 0"/><path fill="none" stroke="#000" stroke-miterlimit="10" stroke-width=".3985" d="M284.806 195.23a1.12 1.12 0 1 0-2.241 0 1.12 1.12 0 0 0 2.241 0Z"/><path d="M297.606 195.15a1.12 1.12 0 1 0-2.241 0 1.12 1.12 0 0 0 2.241 0"/><path fill="none" stroke="#000" stroke-miterlimit="10" stroke-width=".3985" d="M297.606 195.15a1.12 1.12 0 1 0-2.241 0 1.12 1.12 0 0 0 2.241 0Z"/><path d="M310.406 194.961a1.12 1.12 0 1 0-2.242 0 1.12 1.12 0 0 0 2.242 0"/><path fill="none" stroke="#000" stroke-miterlimit="10" stroke-width=".3985" d="M310.406 194.961a1.12 1.12 0 1 0-2.242 0 1.12 1.12 0 0 0 2.242 0Z"/><path d="M323.205 194.531a1.12 1.12 0 1 0-2.242 0 1.12 1.12 0 0 0 2.242 0"/><path fill="none" stroke="#000" stroke-miterlimit="10" stroke-width=".3985" d="M323.205 194.531a1.12 1.12 0 1 0-2.242 0 1.12 1.12 0 0 0 2.242 0Z"/><path d="M336.004 193.607a1.12 1.12 0 1 0-2.242 0 1.12 1.12 0 0 0 2.242 0"/><path fill="none" stroke="#000" stroke-miterlimit="10" stroke-width=".3985" d="M336.004 193.607a1.12 1.12 0 1 0-2.242 0 1.12 1.12 0 0 0 2.242 0Z"/><path d="M348.803 191.655a1.12 1.12 0 1 0-2.241 0 1.12 1.12 0 0 0 2.241 0"/><path fill="none" stroke="#000" stroke-miterlimit="10" stroke-width=".3985" d="M348.803 191.655a1.12 1.12 0 1 0-2.241 0 1.12 1.12 0 0 0 2.241 0Z"/><path d="M361.604 187.186a1.12 1.12 0 1 0-2.242 0 1.12 1.12 0 0 0 2.241 0"/><path fill="none" stroke="#000" stroke-miterlimit="10" stroke-width=".3985" d="M361.604 187.186a1.12 1.12 0 1 0-2.242 0 1.12 1.12 0 0 0 2.241 0Z"/><path d="M374.403 176.808a1.12 1.12 0 1 0-2.242 0 1.12 1.12 0 0 0 2.242 0"/><path fill="none" stroke="#000" stroke-miterlimit="10" stroke-width=".3985" d="M374.403 176.808a1.12 1.12 0 1 0-2.242 0 1.12 1.12 0 0 0 2.242 0Z"/><path d="M387.202 154.45a1.12 1.12 0 1 0-2.241 0 1.12 1.12 0 0 0 2.241 0"/><path fill="none" stroke="#000" stroke-miterlimit="10" stroke-width=".3985" d="M387.202 154.45a1.12 1.12 0 1 0-2.241 0 1.12 1.12 0 0 0 2.241 0Z"/><path d="M400.002 77.161a1.12 1.12 0 1 0-2.242 0 1.12 1.12 0 0 0 2.242 0"/><path fill="none" stroke="#000" stroke-miterlimit="10" stroke-width=".3985" d="M400.002 77.161a1.12 1.12 0 1 0-2.242 0 1.12 1.12 0 0 0 2.242 0Z"/><g transform="translate(365.077 137.692)scale(1.0004)"><use xlink:href="#z" x="-60.085114" y="96.57576"/><use xlink:href="#A" x="-54.224717" y="96.57576"/><use xlink:href="#A" x="-49.667954" y="96.57576"/><use xlink:href="#z" x="-45.111195" y="96.57576"/><use xlink:href="#B" x="-39.561758" y="96.57576"/><use xlink:href="#C" x="-29.491435" y="96.57576"/><use xlink:href="#D" x="-24.874875" y="96.57576"/><use xlink:href="#E" x="-21.621756" y="96.57576"/><use xlink:href="#F" x="-16.419156" y="96.57576"/><use xlink:href="#G" x="-7.31794" y="96.57576"/></g><g transform="rotate(-90 122.988 -8.262)scale(1.0004)"><use xlink:href="#F" x="-60.085114" y="96.57576"/><use xlink:href="#H" x="-54.882516" y="96.57576"/><use xlink:href="#z" x="-51.629396" y="96.57576"/><use xlink:href="#I" x="-45.768996" y="96.57576"/><use xlink:href="#C" x="-39.262757" y="96.57576"/><use xlink:href="#F" x="-34.646195" y="96.57576"/><use xlink:href="#J" x="-29.443595" y="96.57576"/><use xlink:href="#K" x="-19.038394" y="96.57576"/><use xlink:href="#D" x="-14.481633" y="96.57576"/><use xlink:href="#L" x="-11.228512" y="96.57576"/><use xlink:href="#F" x="-1.469152" y="96.57576"/><use xlink:href="#M" x="7.632065" y="96.57576"/><use xlink:href="#N" x="15.760327" y="96.57576"/><use xlink:href="#O" x="19.013634" y="96.57576"/><use xlink:href="#P" x="26.058461" y="96.57576"/><use xlink:href="#Q" x="30.675021" y="96.57576"/></g><g transform="translate(341.695 -58.353)scale(1.0004)"><use xlink:href="#R" x="-60.085114" y="82.123959"/><use xlink:href="#F" x="-51.306477" y="82.123959"/><use xlink:href="#z" x="-46.103877" y="82.123959"/><use xlink:href="#I" x="-40.243478" y="82.123959"/><use xlink:href="#S" x="-29.838277" y="82.123959"/><use xlink:href="#A" x="-21.872916" y="82.123959"/><use xlink:href="#D" x="-17.316156" y="82.123959"/><use xlink:href="#T" x="-14.063035" y="82.123959"/><use xlink:href="#A" x="-8.202635" y="82.123959"/><use xlink:href="#D" x="-3.645874" y="82.123959"/><use xlink:href="#K" x="-.392754" y="82.123959"/><use xlink:href="#B" x="3.853047" y="82.123959"/><use xlink:href="#U" x="13.923367" y="82.123959"/><use xlink:href="#V" x="23.036888" y="82.123959"/><use xlink:href="#F" x="29.543128" y="82.123959"/><use xlink:href="#V" x="34.745731" y="82.123959"/><use xlink:href="#F" x="41.25197" y="82.123959"/><use xlink:href="#W" x="-54.027683" y="96.57576"/><use xlink:href="#X" x="-47.868281" y="96.57576"/><use xlink:href="#X" x="-41.708883" y="96.57576"/><use xlink:href="#Y" x="-35.549482" y="96.57576"/><use xlink:href="#Z" x="-29.39008" y="96.57576"/><use xlink:href="#z" x="-19.331761" y="96.57576"/><use xlink:href="#ad" x="-13.47136" y="96.57576"/><use xlink:href="#J" x="-6.965119" y="96.57576"/><use xlink:href="#ae" x="3.44038" y="96.57576"/><use xlink:href="#af" x="9.599781" y="96.57576"/><use xlink:href="#ag" x="15.759182" y="96.57576"/><use xlink:href="#ag" x="21.918584" y="96.57576"/><use xlink:href="#Y" x="28.077985" y="96.57576"/><use xlink:href="#Z" x="34.237387" y="96.57576"/></g></svg>