<svg xmlns="http://www.w3.org/2000/svg" xmlns:xlink="http://www.w3.org/1999/xlink" width="221.95pt" height="246.43pt" viewBox="0 0 221.95 246.43"><defs><path id="h" d="M4.772-2.763h3.301c.167 0 .383 0 .383-.215 0-.227-.204-.227-.383-.227H4.772v-3.301c0-.168 0-.383-.215-.383-.227 0-.227.203-.227.383v3.3H1.029c-.168 0-.383 0-.383.216 0 .227.203.227.383.227h3.3V.538c0 .168 0 .383.216.383.227 0 .227-.203.227-.383z"/><path id="f" d="M2.2-4.58a.58.58 0 0 0-.573-.575.577.577 0 0 0-.586.574.58.58 0 1 0 1.16 0m0 3.994a.58.58 0 0 0-.573-.574.577.577 0 0 0-.586.574.58.58 0 1 0 1.16 0"/><path id="g" d="M4.904 0v-.347h-.371C3.48-.347 3.444-.49 3.444-.92v-6.745c0-.275 0-.287-.239-.287-.287.323-.885.765-2.117.765v.347c.275 0 .873 0 1.531-.311v6.231c0 .43-.036.574-1.088.574h-.37V0c.322-.024 1.482-.024 1.877-.024s1.543 0 1.866.024"/><path id="i" d="M5.262-2.01H5c-.036.204-.131.862-.25 1.053-.085.108-.766.108-1.125.108H1.41c.323-.275 1.053-1.04 1.364-1.328 1.818-1.674 2.487-2.296 2.487-3.48 0-1.375-1.088-2.296-2.475-2.296S.586-6.77.586-5.741c0 .61.526.61.562.61.251 0 .562-.18.562-.562 0-.335-.227-.562-.562-.562-.107 0-.131 0-.167.012.227-.813.873-1.364 1.65-1.364 1.017 0 1.639.85 1.639 1.95 0 1.017-.586 1.902-1.268 2.667L.586-.287V0h4.365z"/><path id="a" d="M4.629 0v-.514h-1.34V-7.69h1.34v-.515c-.431.024-1.627.024-2.13.024s-1.698 0-2.128-.024v.515h1.34v7.176H.37V0C.8-.024 1.997-.024 2.5-.024s1.698 0 2.129.024"/><path id="b" d="M7.176 0v-.514h-.825V-3.66c0-1.136-.49-1.722-1.806-1.722-.861 0-1.603.419-2.01 1.316h-.011v-1.316l-2.022.096v.514c.742 0 .826 0 .826.466v3.792H.502V0C.777-.024 1.64-.024 1.973-.024s1.208 0 1.483.024v-.514h-.825v-2.548c0-1.291.957-1.925 1.722-1.925.443 0 .694.287.694 1.196v3.277h-.825V0c.275-.024 1.136-.024 1.471-.024s1.208 0 1.483.024"/><path id="j" d="M9.353-4.066c0-2.536-1.65-4.282-4.306-4.282C2.38-8.348.742-6.59.742-4.066S2.416.144 5.047.144s4.306-1.687 4.306-4.21m-1.687-.168c0 1.184-.131 2.177-.73 3.002a2.37 2.37 0 0 1-1.889.921c-.777 0-1.53-.37-1.985-1.052-.574-.874-.634-1.998-.634-2.87 0-.73.036-1.735.526-2.548.526-.838 1.387-1.137 2.093-1.137.969 0 1.686.515 2.033 1.053.443.694.586 1.435.586 2.631"/><path id="c" d="M7.009-2.667c0-1.65-1.113-2.715-2.727-2.715-.706 0-1.316.24-1.794.622v-.622l-2.07.096v.514c.742 0 .826 0 .826.466v6.112H.419v.514c.275-.024 1.136-.024 1.47-.024s1.209 0 1.484.024v-.514h-.826V-.49c.3.263.826.562 1.543.562 1.639 0 2.919-.993 2.919-2.74m-1.436 0c0 1.734-.86 2.344-1.626 2.344-.514 0-1.029-.263-1.4-.825v-3.038a1.97 1.97 0 0 1 1.543-.765c.778 0 1.483.705 1.483 2.284"/><path id="e" d="M4.473-1.483v-.634h-.502v.622c0 .79-.36 1.136-.73 1.136-.717 0-.717-.801-.717-1.076v-3.361h1.722v-.514H2.524v-2.285H2.02C2.01-6.41 1.435-5.227.251-5.19v.395h.969v3.325C1.22-.203 2.2.072 3.062.072c.885 0 1.411-.67 1.411-1.555"/><path id="d" d="M7.176 0v-.514c-.742 0-.825 0-.825-.467v-4.401l-2.13.096v.514c.742 0 .826 0 .826.466v2.345c0 .909-.538 1.638-1.471 1.638-.897 0-.945-.299-.945-.957v-4.102l-2.129.096v.514c.742 0 .826 0 .826.466v2.835c0 1.196.8 1.543 2.08 1.543.288 0 1.173 0 1.687-.969h.012v.969z"/></defs><path fill="none" stroke="#000" stroke-miterlimit="10" stroke-width=".3985" d="M33.714 22.042V39.05h25.512V22.042"/><g transform="translate(125.859 76.619)scale(1.0004)"><use xlink:href="#a" x="-38.301372" y="-49.978058"/><use xlink:href="#b" x="-33.290131" y="-49.978058"/><use xlink:href="#c" x="-25.815133" y="-49.978058"/><use xlink:href="#d" x="-18.340133" y="-49.978058"/><use xlink:href="#e" x="-10.865132" y="-49.978058"/><use xlink:href="#f" x="-5.626259" y="-49.978058"/><use xlink:href="#g" x="6.991542" y="-49.978058"/></g><g fill="none" stroke="#000" stroke-miterlimit="10" stroke-width=".3985"><path d="M129.464 15.523h12.633M129.663 29.849V15.523M141.897 29.849V15.523M129.464 29.849h12.633"/></g><g transform="translate(125.859 76.619)scale(1.0004)"><use xlink:href="#h" x="18.237319" y="-49.978058"/><use xlink:href="#i" x="29.338775" y="-49.978058"/><use xlink:href="#j" x="-38.301372" y="-34.250746"/><use xlink:href="#d" x="-28.195172" y="-34.250746"/><use xlink:href="#e" x="-20.720171" y="-34.250746"/><use xlink:href="#c" x="-15.48169" y="-34.250746"/><use xlink:href="#d" x="-8.00669" y="-34.250746"/><use xlink:href="#e" x="-.53169" y="-34.250746"/><use xlink:href="#f" x="4.706891" y="-34.250746"/><use xlink:href="#g" x="17.324691" y="-34.250746"/></g><g fill="none" stroke="#000" stroke-miterlimit="10" stroke-width=".3985"><path d="M139.793 31.244h12.633M139.992 45.57V31.244M152.227 45.57V31.244M139.793 45.57h12.633M68.297 59.46c-7.828 0-14.173 6.345-14.173 10.464"/></g><path d="m54.124 73.066 1.704-4.528-1.704 1.485-1.705-1.485Z"/><path fill="none" stroke="#000" stroke-miterlimit="10" stroke-width=".3985" d="m54.124 73.066 1.704-4.528-1.704 1.485-1.705-1.485Z"/><use xlink:href="#h" x="-38.301372" y="-49.978058" transform="translate(110.767 112.407)scale(1.0004)"/><path fill="none" stroke="#000" stroke-miterlimit="10" stroke-width=".3985" d="M33.714 73.066v17.008h25.512V73.066M33.714 90.074v17.008h25.512V90.074"/><use xlink:href="#h" x="-38.301372" y="-49.978058" transform="translate(80.204 151.525)scale(1.0004)"/><g transform="translate(125.859 128.285)scale(1.0004)"><use xlink:href="#a" x="-38.301372" y="-49.978058"/><use xlink:href="#b" x="-33.290131" y="-49.978058"/><use xlink:href="#c" x="-25.815133" y="-49.978058"/><use xlink:href="#d" x="-18.340133" y="-49.978058"/><use xlink:href="#e" x="-10.865132" y="-49.978058"/><use xlink:href="#f" x="-5.626259" y="-49.978058"/><use xlink:href="#g" x="3.594902" y="-49.978058"/><use xlink:href="#h" x="14.848958" y="-49.978058"/></g><g fill="none" stroke="#000" stroke-miterlimit="10" stroke-width=".3985"><path d="M137.315 68.248h15.879M137.514 82.428v-14.18M152.995 82.428v-14.18M137.315 82.428h15.879"/></g><g transform="translate(125.859 128.285)scale(1.0004)"><use xlink:href="#i" x="29.338775" y="-49.978058"/><use xlink:href="#j" x="-38.301372" y="-35.526258"/><use xlink:href="#d" x="-28.195172" y="-35.526258"/><use xlink:href="#e" x="-20.720171" y="-35.526258"/><use xlink:href="#c" x="-15.48169" y="-35.526258"/><use xlink:href="#d" x="-8.00669" y="-35.526258"/><use xlink:href="#e" x="-.53169" y="-35.526258"/><use xlink:href="#f" x="4.706891" y="-35.526258"/><use xlink:href="#g" x="13.928052" y="-35.526258"/></g><path fill="none" stroke="#000" stroke-miterlimit="10" stroke-width=".3985" d="M33.714 141.099v17.008h25.512v-17.008M33.714 158.107v17.008h25.512v-17.008"/><use xlink:href="#h" x="-38.301372" y="-49.978058" transform="translate(80.204 219.558)scale(1.0004)"/><g transform="translate(125.859 195.675)scale(1.0004)"><use xlink:href="#a" x="-38.301372" y="-49.978058"/><use xlink:href="#b" x="-33.290131" y="-49.978058"/><use xlink:href="#c" x="-25.815133" y="-49.978058"/><use xlink:href="#d" x="-18.340133" y="-49.978058"/><use xlink:href="#e" x="-10.865132" y="-49.978058"/><use xlink:href="#f" x="-5.626259" y="-49.978058"/><use xlink:href="#g" x="3.594902" y="-49.978058"/><use xlink:href="#h" x="11.460599" y="-49.978058"/><use xlink:href="#i" x="25.950414" y="-49.978058"/></g><g fill="none" stroke="#000" stroke-miterlimit="10" stroke-width=".3985"><path d="M148.412 134.579h12.632M148.611 148.905v-14.326M160.845 148.905v-14.326M148.412 148.905h12.632"/></g><g transform="translate(125.859 195.675)scale(1.0004)"><use xlink:href="#j" x="-38.301372" y="-34.250746"/><use xlink:href="#d" x="-28.195172" y="-34.250746"/><use xlink:href="#e" x="-20.720171" y="-34.250746"/><use xlink:href="#c" x="-15.48169" y="-34.250746"/><use xlink:href="#d" x="-8.00669" y="-34.250746"/><use xlink:href="#e" x="-.53169" y="-34.250746"/><use xlink:href="#f" x="4.706891" y="-34.250746"/><use xlink:href="#g" x="13.928052" y="-34.250746"/><use xlink:href="#i" x="25.170452" y="-34.250746"/></g><g fill="none" stroke="#000" stroke-miterlimit="10" stroke-width=".3985"><path d="M147.644 150.3h12.632M147.843 164.626V150.3M160.077 164.626V150.3M147.644 164.626h12.632M42.785 209.698c0-7.828-6.345-14.174-10.464-14.174"/></g><path d="m29.18 195.524 4.527 1.705-1.485-1.705 1.485-1.704Z"/><path fill="none" stroke="#000" stroke-miterlimit="10" stroke-width=".3985" d="m29.18 195.524 4.527 1.705-1.485-1.705 1.485-1.704Z"/><use xlink:href="#h" x="-38.301372" y="-49.978058" transform="translate(53.609 248.471)scale(1.0004)"/><path fill="none" stroke="#000" stroke-miterlimit="10" stroke-width=".3985" d="M33.714 209.13v17.009h25.512v-17.008"/><g transform="translate(125.859 262.32)scale(1.0004)"><use xlink:href="#a" x="-38.301372" y="-49.978058"/><use xlink:href="#b" x="-33.290131" y="-49.978058"/><use xlink:href="#c" x="-25.815133" y="-49.978058"/><use xlink:href="#d" x="-18.340133" y="-49.978058"/><use xlink:href="#e" x="-10.865132" y="-49.978058"/><use xlink:href="#f" x="-5.626259" y="-49.978058"/><use xlink:href="#g" x="3.594902" y="-49.978058"/><use xlink:href="#h" x="11.460599" y="-49.978058"/><use xlink:href="#i" x="22.562055" y="-49.978058"/><use xlink:href="#j" x="-38.301377" y="-35.526258"/><use xlink:href="#d" x="-28.195175" y="-35.526258"/><use xlink:href="#e" x="-20.720175" y="-35.526258"/><use xlink:href="#c" x="-15.481694" y="-35.526258"/><use xlink:href="#d" x="-8.006694" y="-35.526258"/><use xlink:href="#e" x="-.531694" y="-35.526258"/><use xlink:href="#f" x="4.706887" y="-35.526258"/><use xlink:href="#g" x="13.928049" y="-35.526258"/><use xlink:href="#i" x="21.785769" y="-35.526258"/><use xlink:href="#h" x="33.036259" y="-35.526258"/></g><g fill="none" stroke="#000" stroke-miterlimit="10" stroke-width=".3985"><path d="M155.494 216.729h15.88M155.694 230.909v-14.18M171.174 230.909v-14.18M155.494 230.909h15.88"/></g></svg>